<svg class="main-svg" xmlns="http://www.w3.org/2000/svg" xmlns:xlink="http://www.w3.org/1999/xlink" width="700" height="500" style="" viewBox="0 0 700 500"><rect x="0" y="0" width="700" height="500" style="fill: rgb(255, 255, 255); fill-opacity: 1;"/><defs id="defs-cd979d"><g class="clips"><clipPath id="clipcd979dxyplot" class="plotclip"><rect width="537" height="320"/></clipPath><clipPath class="axesclip" id="clipcd979dx"><rect x="80" y="0" width="537" height="500"/></clipPath><clipPath class="axesclip" id="clipcd979dy"><rect x="0" y="100" width="700" height="320"/></clipPath><clipPath class="axesclip" id="clipcd979dxy"><rect x="80" y="100" width="537" height="320"/></clipPath></g><g class="gradients"/></defs><g class="bglayer"><rect class="bg" x="80" y="100" width="537" height="320" style="fill: rgb(229, 236, 246); fill-opacity: 1; stroke-width: 0;"/></g><g class="layer-below"><g class="imagelayer"/><g class="shapelayer"/></g><g class="cartesianlayer"><g class="subplot xy"><g class="layer-subplot"><g class="shapelayer"/><g class="imagelayer"/></g><g class="gridlayer"><g class="x"><path class="xgrid crisp" transform="translate(84.16,0)" d="M0,100v320" style="stroke: rgb(255, 255, 255); stroke-opacity: 1; stroke-width: 1px;"/><path class="xgrid crisp" transform="translate(164.41,0)" d="M0,100v320" style="stroke: rgb(255, 255, 255); stroke-opacity: 1; stroke-width: 1px;"/><path class="xgrid crisp" transform="translate(244.65,0)" d="M0,100v320" style="stroke: rgb(255, 255, 255); stroke-opacity: 1; stroke-width: 1px;"/><path class="xgrid crisp" transform="translate(324.89,0)" d="M0,100v320" style="stroke: rgb(255, 255, 255); stroke-opacity: 1; stroke-width: 1px;"/><path class="xgrid crisp" transform="translate(405.13,0)" d="M0,100v320" style="stroke: rgb(255, 255, 255); stroke-opacity: 1; stroke-width: 1px;"/><path class="xgrid crisp" transform="translate(485.37,0)" d="M0,100v320" style="stroke: rgb(255, 255, 255); stroke-opacity: 1; stroke-width: 1px;"/><path class="xgrid crisp" transform="translate(565.61,0)" d="M0,100v320" style="stroke: rgb(255, 255, 255); stroke-opacity: 1; stroke-width: 1px;"/></g><g class="y"><path class="ygrid crisp" transform="translate(0,392.55)" d="M80,0h537" style="stroke: rgb(255, 255, 255); stroke-opacity: 1; stroke-width: 1px;"/><path class="ygrid crisp" transform="translate(0,349.77)" d="M80,0h537" style="stroke: rgb(255, 255, 255); stroke-opacity: 1; stroke-width: 1px;"/><path class="ygrid crisp" transform="translate(0,306.99)" d="M80,0h537" style="stroke: rgb(255, 255, 255); stroke-opacity: 1; stroke-width: 1px;"/><path class="ygrid crisp" transform="translate(0,264.21000000000004)" d="M80,0h537" style="stroke: rgb(255, 255, 255); stroke-opacity: 1; stroke-width: 1px;"/><path class="ygrid crisp" transform="translate(0,221.43)" d="M80,0h537" style="stroke: rgb(255, 255, 255); stroke-opacity: 1; stroke-width: 1px;"/><path class="ygrid crisp" transform="translate(0,178.65)" d="M80,0h537" style="stroke: rgb(255, 255, 255); stroke-opacity: 1; stroke-width: 1px;"/><path class="ygrid crisp" transform="translate(0,135.87)" d="M80,0h537" style="stroke: rgb(255, 255, 255); stroke-opacity: 1; stroke-width: 1px;"/></g></g><g class="zerolinelayer"/><path class="xlines-below"/><path class="ylines-below"/><g class="overlines-below"/><g class="xaxislayer-below"/><g class="yaxislayer-below"/><g class="overaxes-below"/><g class="plot" transform="translate(80,100)" clip-path="url('#clipcd979dxyplot')"><g class="scatterlayer mlayer"><g class="trace scatter tracea03f20" style="stroke-miterlimit: 2; opacity: 1;"><g class="fills"/><g class="errorbars"/><g class="lines"><path class="js-line" d="M0,304L3.21,302.59L4.33,249.74L5.44,251.04L6.56,249.35L11.01,248.71L12.13,248.32L14.36,249.1L15.47,248.19L16.62,248.84L17.7,248.58L22.16,247.67L23.28,247.93L26.62,247.16L27.73,246.9L32.19,247.29L33.31,246.9L38.87,246.77L39.98,246.77L43.33,245.73L44.45,245.99L48.9,245.09L50.01,244.44L51.14,244.96L52.25,244.57L53.36,243.66L54.48,243.92L55.59,244.57L56.71,243.02L60.04,242.11L61.16,242.63L62.28,242.24L63.39,243.15L64.5,242.24L65.62,240.17L67.85,240.69L68.96,239.78L73.42,237.84L74.54,236.94L76.76,238.23L77.88,237.07L78.99,235L80.11,235.51L81.22,236.55L82.33,235L84.56,232.67L85.68,232.28L87.91,230.6L89.02,231.12L91.25,229.95L92.37,230.21L93.48,231.76L94.59,229.56L97.94,230.6L99.06,230.21L101.29,226.46L102.4,226.07L103.51,226.85L104.63,225.55L105.74,225.68L106.85,227.36L107.97,227.11L109.08,225.55L113.54,221.16L114.65,218.44L115.77,219.09L116.88,217.66L118,216.63L119.11,217.4L121.34,217.66L122.46,218.7L126.92,216.5L128.03,216.37L130.26,215.72L131.38,214.69L132.49,214.3L133.6,214.82L134.72,215.98L135.83,215.98L138.06,213.78L139.17,213.52L142.52,212.75L143.63,212.23L144.75,211.45L145.86,211.84L151.44,211.58L152.55,211.84L154.77,210.42L155.89,208.87L157,207.7L158.12,207.7L159.24,206.93L160.35,207.83L163.69,207.96L164.81,142.27L168.15,140.18L169.27,140.44L171.5,139.92L172.61,139.01L174.84,139.14L175.96,139.14L180.41,138.48L181.52,138.35L184.87,137.83L185.98,137.96L196.01,137.96L197.13,138.09L204.92,137.83L206.04,137.18L209.38,137.18L210.5,136.14L214.95,136.27L216.07,135.74L218.3,135.88L219.41,135.22L221.65,134.57L222.76,135.22L226.1,132.22L227.21,132.22L228.33,133.27L229.44,132.88L231.67,131.57L232.79,132.22L236.13,130.14L237.24,128.44L238.36,130.14L239.47,129.35L242.81,127.14L243.93,128.05L246.16,126.48L247.27,127.66L248.39,128.7L249.5,127.79L250.62,128.83L251.73,128.31L252.84,127.4L253.96,128.44L255.07,127.79L256.19,128.18L259.53,128.83L260.65,128.44L262.9,126.48L264,125.05L266.23,124.92L267.35,125.44L268.46,125.96L269.58,124.01L274.04,123.09L275.15,121.4L278.5,122.44L279.61,121.92L281.84,118.4L282.95,119.96L284.07,119.96L285.18,118.79L286.3,119.7L287.41,119.18L289.64,117.35L290.76,117.48L294.1,114.35L295.21,114.48L297.45,112.14L298.56,112.92L300.78,110.83L301.9,111.35L305.24,110.7L306.36,108.09L307.47,107.96L308.58,106.92L309.7,105.48L310.82,105.74L311.93,106L313.04,107.18L314.16,107.83L315.27,107.18L316.4,109.13L317.5,108.35L318.62,108.22L319.73,106.66L320.85,106.27L321.96,106.79L324.19,107.05L325.3,61.25L327.53,59.41L328.64,59.15L330.87,58.49L331.99,57.57L335.33,57.04L336.44,56.78L340.9,55.46L342.02,54.54L344.25,54.28L345.36,54.81L348.71,53.62L349.82,53.75L363.19,52.44L364.3,52.7L368.77,51.78L369.88,52.04L372.11,51.78L373.22,52.18L376.56,51.12L377.67,51.25L378.8,51.52L379.9,50.73L386.59,50.07L388.82,49.54L389.93,48.23L392.16,47.83L394.39,47.44L395.51,45.73L396.62,46.91L397.74,45.73L399.97,45.73L401.08,45.07L402.2,44.94L403.31,43.76L406.65,43.49L407.77,41.91L409.99,40.2L411.11,39.42L412.19,38.1L413.3,38.76L415.53,37.31L416.64,37.71L417.76,36L418.87,35.73L419.99,35.21L421.1,35.6L422.22,35.34L423.33,33.36L424.45,32.71L425.56,33.23L427.79,32.44L428.9,32.05L430.02,31.92L431.13,30.86L433.36,30.86L434.47,31.39L436.7,32.97L437.82,31.13L440.05,32.31L441.18,30.34L443.4,30.47L444.51,30.86L447.85,29.02L448.97,29.42L451.19,27.71L452.31,26.66L453.42,24.16L454.54,24.68L455.65,23.24L456.76,24.68L457.88,23.1L459,22.84L460.11,22.58L461.22,21.26L464.57,21.79L465.68,20.74L466.79,21.26L467.91,19.68L470.14,19.55L471.25,18.5L475.71,18.89L476.82,17.97L477.94,17.45L479.06,17.84L480.17,17.97L481.28,17.05L482.4,16L483.51,16.66L484.63,16.39L485.75,171.81L491.32,171.4L492.43,172.08L495.78,170.99L496.89,170.99L499.12,169.76L500.23,169.76L502.46,168.94L503.57,169.08L522.52,168.39L523.63,167.98L537,166.48" style="vector-effect: non-scaling-stroke; fill: none; stroke: rgb(99, 110, 250); stroke-opacity: 1; stroke-width: 2px; opacity: 1;"/></g><g class="points"/><g class="text"/></g></g></g><g class="overplot"/><path class="xlines-above crisp" d="M0,0" style="fill: none;"/><path class="ylines-above crisp" d="M0,0" style="fill: none;"/><g class="overlines-above"/><g class="xaxislayer-above"><g class="xtick"><text text-anchor="middle" x="0" y="433" transform="translate(84.16,0)" style="font-family: 'Open Sans', verdana, arial, sans-serif; font-size: 12px; fill: rgb(42, 63, 95); fill-opacity: 1; white-space: pre;"><tspan class="line" dy="0em" x="0" y="433">00:00</tspan><tspan class="line" dy="1.3em" x="0" y="433">Aug 3, 2021</tspan></text></g><g class="xtick"><text text-anchor="middle" x="0" y="433" transform="translate(164.41,0)" style="font-family: 'Open Sans', verdana, arial, sans-serif; font-size: 12px; fill: rgb(42, 63, 95); fill-opacity: 1; white-space: pre;">12:00</text></g><g class="xtick"><text text-anchor="middle" x="0" y="433" transform="translate(244.65,0)" style="font-family: 'Open Sans', verdana, arial, sans-serif; font-size: 12px; fill: rgb(42, 63, 95); fill-opacity: 1; white-space: pre;"><tspan class="line" dy="0em" x="0" y="433">00:00</tspan><tspan class="line" dy="1.3em" x="0" y="433">Aug 4, 2021</tspan></text></g><g class="xtick"><text text-anchor="middle" x="0" y="433" transform="translate(324.89,0)" style="font-family: 'Open Sans', verdana, arial, sans-serif; font-size: 12px; fill: rgb(42, 63, 95); fill-opacity: 1; white-space: pre;">12:00</text></g><g class="xtick"><text text-anchor="middle" x="0" y="433" transform="translate(405.13,0)" style="font-family: 'Open Sans', verdana, arial, sans-serif; font-size: 12px; fill: rgb(42, 63, 95); fill-opacity: 1; white-space: pre;"><tspan class="line" dy="0em" x="0" y="433">00:00</tspan><tspan class="line" dy="1.3em" x="0" y="433">Aug 5, 2021</tspan></text></g><g class="xtick"><text text-anchor="middle" x="0" y="433" transform="translate(485.37,0)" style="font-family: 'Open Sans', verdana, arial, sans-serif; font-size: 12px; fill: rgb(42, 63, 95); fill-opacity: 1; white-space: pre;">12:00</text></g><g class="xtick"><text text-anchor="middle" x="0" y="433" transform="translate(565.61,0)" style="font-family: 'Open Sans', verdana, arial, sans-serif; font-size: 12px; fill: rgb(42, 63, 95); fill-opacity: 1; white-space: pre;"><tspan class="line" dy="0em" x="0" y="433">00:00</tspan><tspan class="line" dy="1.3em" x="0" y="433">Aug 6, 2021</tspan></text></g></g><g class="yaxislayer-above"><g class="ytick"><text text-anchor="end" x="79" y="4.199999999999999" transform="translate(0,392.55)" style="font-family: 'Open Sans', verdana, arial, sans-serif; font-size: 12px; fill: rgb(42, 63, 95); fill-opacity: 1; white-space: pre;">0.864</text></g><g class="ytick"><text text-anchor="end" x="79" y="4.199999999999999" transform="translate(0,349.77)" style="font-family: 'Open Sans', verdana, arial, sans-serif; font-size: 12px; fill: rgb(42, 63, 95); fill-opacity: 1; white-space: pre;">0.865</text></g><g class="ytick"><text text-anchor="end" x="79" y="4.199999999999999" transform="translate(0,306.99)" style="font-family: 'Open Sans', verdana, arial, sans-serif; font-size: 12px; fill: rgb(42, 63, 95); fill-opacity: 1; white-space: pre;">0.866</text></g><g class="ytick"><text text-anchor="end" x="79" y="4.199999999999999" transform="translate(0,264.21000000000004)" style="font-family: 'Open Sans', verdana, arial, sans-serif; font-size: 12px; fill: rgb(42, 63, 95); fill-opacity: 1; white-space: pre;">0.867</text></g><g class="ytick"><text text-anchor="end" x="79" y="4.199999999999999" transform="translate(0,221.43)" style="font-family: 'Open Sans', verdana, arial, sans-serif; font-size: 12px; fill: rgb(42, 63, 95); fill-opacity: 1; white-space: pre;">0.868</text></g><g class="ytick"><text text-anchor="end" x="79" y="4.199999999999999" transform="translate(0,178.65)" style="font-family: 'Open Sans', verdana, arial, sans-serif; font-size: 12px; fill: rgb(42, 63, 95); fill-opacity: 1; white-space: pre;">0.869</text></g><g class="ytick"><text text-anchor="end" x="79" y="4.199999999999999" transform="translate(0,135.87)" style="font-family: 'Open Sans', verdana, arial, sans-serif; font-size: 12px; fill: rgb(42, 63, 95); fill-opacity: 1; white-space: pre;">0.87</text></g></g><g class="overaxes-above"/></g></g><g class="polarlayer"/><g class="ternarylayer"/><g class="geolayer"/><g class="funnelarealayer"/><g class="pielayer"/><g class="treemaplayer"/><g class="sunburstlayer"/><g class="glimages"/><defs id="topdefs-cd979d"><g class="clips"/><clipPath id="legendcd979d"><rect width="60" height="45" x="0" y="0"/></clipPath></defs><g class="layer-above"><g class="imagelayer"/><g class="shapelayer"/></g><g class="infolayer"><g class="legend" pointer-events="all" transform="translate(627.74,100)"><rect class="bg" shape-rendering="crispEdges" width="60" height="45" x="0" y="0" style="stroke: rgb(68, 68, 68); stroke-opacity: 1; fill: rgb(255, 255, 255); fill-opacity: 1; stroke-width: 0px;"/><g class="scrollbox" transform="" clip-path="url('#legendcd979d')"><text class="legendtitletext" text-anchor="start" x="2" y="15.600000000000001" style="font-family: 'Open Sans', verdana, arial, sans-serif; font-size: 12px; fill: rgb(42, 63, 95); fill-opacity: 1; white-space: pre;">All</text><g class="groups" transform=""><g class="traces" transform="translate(0,30.1)" style="opacity: 1;"><text class="legendtext" text-anchor="start" x="40" y="4.680000000000001" style="font-family: 'Open Sans', verdana, arial, sans-serif; font-size: 12px; fill: rgb(42, 63, 95); fill-opacity: 1; white-space: pre;">All</text><g class="layers" style="opacity: 1;"><g class="legendfill"/><g class="legendlines"><path class="js-line" d="M5,0h30" style="fill: none; stroke: rgb(99, 110, 250); stroke-opacity: 1; stroke-width: 2px;"/></g><g class="legendsymbols"><g class="legendpoints"/></g></g><rect class="legendtoggle" x="0" y="-9.5" width="54.890625" height="19" style="fill: rgb(0, 0, 0); fill-opacity: 0;"/></g></g></g><rect class="scrollbar" rx="20" ry="3" width="0" height="0" x="0" y="0" style="fill: rgb(128, 139, 164); fill-opacity: 1;"/></g><g class="g-gtitle"><text class="gtitle" x="35" y="50" text-anchor="start" dy="0em" style="font-family: 'Open Sans', verdana, arial, sans-serif; font-size: 17px; fill: rgb(42, 63, 95); opacity: 1; font-weight: normal; white-space: pre;">Singapore Vaccination Centers</text></g><g class="g-xtitle"><text class="xtitle" x="348.5" y="476.409375" text-anchor="middle" style="font-family: 'Open Sans', verdana, arial, sans-serif; font-size: 14px; fill: rgb(42, 63, 95); opacity: 1; font-weight: normal; white-space: pre;">Time</text></g><g class="g-ytitle"><text class="ytitle" transform="rotate(-90,19.840625000000003,260)" x="19.840625000000003" y="260" text-anchor="middle" style="font-family: 'Open Sans', verdana, arial, sans-serif; font-size: 14px; fill: rgb(42, 63, 95); opacity: 1; font-weight: normal; white-space: pre;">Filled/%</text></g></g></svg>