<svg class="main-svg" xmlns="http://www.w3.org/2000/svg" xmlns:xlink="http://www.w3.org/1999/xlink" width="700" height="500" style="" viewBox="0 0 700 500"><rect x="0" y="0" width="700" height="500" style="fill: rgb(255, 255, 255); fill-opacity: 1;"/><defs id="defs-3fdbd5"><g class="clips"><clipPath id="clip3fdbd5xyplot" class="plotclip"><rect width="537" height="320"/></clipPath><clipPath class="axesclip" id="clip3fdbd5x"><rect x="80" y="0" width="537" height="500"/></clipPath><clipPath class="axesclip" id="clip3fdbd5y"><rect x="0" y="100" width="700" height="320"/></clipPath><clipPath class="axesclip" id="clip3fdbd5xy"><rect x="80" y="100" width="537" height="320"/></clipPath></g><g class="gradients"/></defs><g class="bglayer"><rect class="bg" x="80" y="100" width="537" height="320" style="fill: rgb(229, 236, 246); fill-opacity: 1; stroke-width: 0;"/></g><g class="layer-below"><g class="imagelayer"/><g class="shapelayer"/></g><g class="cartesianlayer"><g class="subplot xy"><g class="layer-subplot"><g class="shapelayer"/><g class="imagelayer"/></g><g class="gridlayer"><g class="x"><path class="xgrid crisp" transform="translate(89.81,0)" d="M0,100v320" style="stroke: rgb(255, 255, 255); stroke-opacity: 1; stroke-width: 1px;"/><path class="xgrid crisp" transform="translate(195.45999999999998,0)" d="M0,100v320" style="stroke: rgb(255, 255, 255); stroke-opacity: 1; stroke-width: 1px;"/><path class="xgrid crisp" transform="translate(301.11,0)" d="M0,100v320" style="stroke: rgb(255, 255, 255); stroke-opacity: 1; stroke-width: 1px;"/><path class="xgrid crisp" transform="translate(406.76,0)" d="M0,100v320" style="stroke: rgb(255, 255, 255); stroke-opacity: 1; stroke-width: 1px;"/><path class="xgrid crisp" transform="translate(512.4,0)" d="M0,100v320" style="stroke: rgb(255, 255, 255); stroke-opacity: 1; stroke-width: 1px;"/></g><g class="y"><path class="ygrid crisp" transform="translate(0,367.23)" d="M80,0h537" style="stroke: rgb(255, 255, 255); stroke-opacity: 1; stroke-width: 1px;"/><path class="ygrid crisp" transform="translate(0,308.43)" d="M80,0h537" style="stroke: rgb(255, 255, 255); stroke-opacity: 1; stroke-width: 1px;"/><path class="ygrid crisp" transform="translate(0,249.63)" d="M80,0h537" style="stroke: rgb(255, 255, 255); stroke-opacity: 1; stroke-width: 1px;"/><path class="ygrid crisp" transform="translate(0,190.82999999999998)" d="M80,0h537" style="stroke: rgb(255, 255, 255); stroke-opacity: 1; stroke-width: 1px;"/><path class="ygrid crisp" transform="translate(0,132.03)" d="M80,0h537" style="stroke: rgb(255, 255, 255); stroke-opacity: 1; stroke-width: 1px;"/></g></g><g class="zerolinelayer"/><path class="xlines-below"/><path class="ylines-below"/><g class="overlines-below"/><g class="xaxislayer-below"/><g class="yaxislayer-below"/><g class="overaxes-below"/><g class="plot" transform="translate(80,100)" clip-path="url('#clip3fdbd5xyplot')"><g class="scatterlayer mlayer"><g class="trace scatter tracefebf5f" style="stroke-miterlimit: 2; opacity: 1;"><g class="fills"/><g class="errorbars"/><g class="lines"><path class="js-line" d="M0,82.28L6.2,82.51L8.39,120.48L12.77,120.57L14.4,136.92L15.08,136.9L31.28,137.96L32.29,121.23L32.6,129.62L33.33,129.56L34.8,126.37L35.53,126.27L37,129.79L37.73,129.7L39.2,132.71L39.93,132.63L41.4,120.69L42.14,120.62L43.6,132.64L44.34,132.55L45.8,126.68L48.01,113.21L48.74,109.51L52.41,74.17L53.14,72.87L54.61,78.78L55.34,77.73L57.54,62.82L59.01,65.47L59.74,64.83L61.21,74.27L61.94,73.83L62.91,51.83L64.15,52.34L64.88,52.21L72.95,51.78L73.68,51.77L82.49,51.11L83.22,50.91L107.43,42.67L108.17,42.44L114.77,40.95L115.5,41.79L128.71,41.46L129.44,41.46L141.18,40.58L141.91,40.48L165.39,37.08L166.12,36.99L167.59,36.83L168.33,35.53L196.94,34L197.67,33.87L220.42,31.05L221.16,28.56L246.1,27.81L246.83,95.38L254.93,93.57L255.64,93.44L256.37,93.12L257.1,91.51L259.31,88.51L260.04,87.52L263.71,73.59L264.44,72.39L268.84,67.88L269.58,67.37L273.25,65.43L273.98,65.5L279.11,64.8L279.85,64.77L295.99,63.66L296.72,63.48L301.86,61.32L302.59,60.89L303.33,60.46L304.06,62.78L306.99,61.15L307.73,59.94L312.13,53.24L312.86,52.44L315.8,47.98L316.53,45.51L319.47,38.66L320.2,37.65L324.6,32.89L325.36,32.47L327.54,31.98L328.27,31.8L334.14,31.18L334.87,31.16L345.88,30.17L346.61,29.9L351.01,28.09L351.75,74.81L353.95,72.76L354.68,72.32L362.02,68.8L362.58,71.93L363.45,68.25L363.49,69.25L364.19,67.95L364.22,68.94L364.95,68.62L366.42,68.09L367.16,76.43L373.58,73.91L373.61,72.31L373.64,72.03L373.76,73.74L380.73,44.74L381.09,44.87L381.46,41.95L382.19,42.12L382.56,43.2L383.66,37.43L384.03,41.6L385.13,39.66L385.5,39.05L386.6,38.13L386.96,38.96L388.07,38.42L388.43,38.33L389.17,38.4L389.53,43.02L393.57,41.69L393.93,36.5L394.67,35.76L395.03,35.39L396.87,31.97L397.23,32.01L397.6,30.79L397.97,26.97L399.07,25.01L399.44,22.43L399.8,16L400.17,16.8L400.54,140.18L400.9,139.22L401.27,142.07L402,136.79L402.37,138.99L402.74,137.43L403.11,136.15L403.47,136.63L403.84,141.25L404.2,146.68L404.57,133.42L405.31,138.09L405.67,157.2L406.77,133.53L407.14,145.44L407.51,148.42L407.87,146.68L408.24,144.02L408.97,134.36L409.34,135.71L409.71,141.84L410.07,146.05L410.44,142.1L410.81,141.74L411.17,151.77L411.54,141.68L411.91,140.84L412.27,148.68L412.64,138.39L413.01,127.07L413.38,137.58L413.74,139.13L414.11,140.49L414.48,138.92L415.94,129.31L416.31,138.25L416.68,134.05L417.04,138.68L417.41,138.81L417.78,131.49L418.15,131.42L418.51,140.05L419.24,132.48L419.61,138.41L420.35,141.46L420.71,128.79L421.45,142.96L421.82,264.58L422.92,293.12L423.28,304L423.65,286.22L424.01,301.52L424.38,291.75L424.75,292.1L425.11,291.07L425.48,294.16L425.85,293.46L426.22,276.02L426.58,283.67L426.95,262.28L427.68,272.54L428.05,248.89L428.78,241.71L429.15,229.6L429.52,224.98L429.88,228.24L430.25,227.36L431.35,215.22L431.72,217.06L432.08,216.4L432.45,227.08L432.82,226.08L433.19,228.38L433.55,228.68L433.92,224.72L434.28,233.57L434.65,224.28L435.02,225.36L435.39,227.75L435.75,223.07L436.49,226.33L436.86,223.26L437.22,224.52L437.59,234.01L437.95,220.81L438.32,231.91L438.69,224.2L440.89,212.72L441.26,220.76L441.99,220.72L442.36,223.7L442.72,223.67L443.09,219.37L443.46,223.08L443.82,218.62L444.19,226.76L444.56,225.2L444.92,224.19L445.29,219.51L445.66,225.16L446.76,225.11L447.12,216.49L447.49,225.05L447.86,220.43L448.22,220.57L448.59,218.19L448.96,220.92L449.33,219.84L449.69,227.36L450.06,216.65L450.43,220.1L450.79,220.01L451.53,220.98L451.89,218.78L452.63,223.64L452.99,218.66L453.36,205.85L453.73,215.25L454.09,220.32L454.46,206.18L454.83,206.81L455.19,214.16L455.56,214.11L455.93,206.99L456.67,212.47L457.03,202.23L457.4,199.24L457.77,208.71L458.13,224.84L458.5,215.2L458.86,214.49L459.23,205.74L459.6,219.6L460.33,195.82L460.7,209.77L461.06,208.24L461.43,203.32L461.8,202.05L462.16,205.17L462.53,200.81L462.9,208.16L463.26,206.35L463.63,209.96L464,207.44L464.36,196.45L464.73,195.36L465.1,196.45L465.47,201.41L466.57,210.92L466.93,197.09L467.3,197.31L467.67,191.05L468.03,191.24L468.4,196.07L468.77,200.65L469.13,194.37L470.23,210.5L470.6,204.27L471.33,191.94L471.7,193.62L472.07,197L472.44,205.03L472.8,197.14L473.17,198.57L474.64,184.28L475,189.51L475.74,194.59L476.11,189.23L476.47,191.91L476.84,189.81L477.2,182.31L477.57,187.7L477.94,187L478.3,183.28L478.67,186.18L479.04,185.69L479.41,181.61L479.78,182.61L480.14,186.54L480.87,187.68L481.24,186.58L481.61,181.49L481.97,187.81L482.71,185.81L483.08,187.22L483.44,189.17L483.81,187L484.91,194.82L485.28,189.57L485.64,183.36L486.01,189.2L486.38,186.45L487.48,187.85L487.84,183.53L488.95,187.65L489.31,184.59L490.05,184.25L490.41,185.71L491.51,187.29L491.88,197.68L492.25,197.68L492.61,195.53L492.98,195.52L493.35,190.33L493.71,190.33L494.08,186.49L495.55,194.95L495.91,194.95L496.28,195.4L496.65,193.58L497.02,193.58L497.38,187.5L498.12,187.5L498.48,190.84L499.58,186.75L499.95,187.03L500.32,187.03L500.68,188.23L503.62,181.13L503.98,187.27L504.35,190.9L504.72,187.7L505.08,181.79L505.45,180.91L505.82,182.93L506.18,184.81L506.55,179.55L507.28,190.44L507.65,182.8L508.02,183.07L508.39,174.64L509.49,185.09L509.85,181.21L510.22,181.99L510.59,185.79L510.95,171.39L511.32,177.83L511.69,175.21L512.05,180.5L512.42,179.53L512.79,177.22L514.25,187.84L514.62,182.58L514.99,175.16L515.36,180.33L515.72,178.23L516.46,176.4L516.82,185.95L517.19,175.93L517.56,196.82L518.66,173.22L519.02,177.47L519.39,180.21L519.76,180.03L520.12,179.15L520.86,179.35L521.23,181.21L522.33,177.14L522.69,176.9L523.06,176.97L523.43,172.16L523.79,169.69L524.16,173.52L524.53,176.28L524.89,172.21L525.26,173.97L525.63,171L526.36,180.19L526.73,175.33L527.09,171.32L527.46,174.66L527.83,174.4L528.2,183.64L528.56,176L528.93,180.08L529.3,179.71L529.66,181.54L530.4,173.38L530.76,176.61L531.13,186.68L531.5,171.47L531.86,173.34L532.23,176.71L532.6,180.06L532.97,191.51L533.7,169.64L534.07,179.24L534.44,185.08L534.8,178.84L535.17,180.35L535.53,174.99L535.9,173.52L536.5,177.41L537,175.84" style="vector-effect: non-scaling-stroke; fill: none; stroke: rgb(99, 110, 250); stroke-opacity: 1; stroke-width: 2px; opacity: 1;"/></g><g class="points"/><g class="text"/></g></g></g><g class="overplot"/><path class="xlines-above crisp" d="M0,0" style="fill: none;"/><path class="ylines-above crisp" d="M0,0" style="fill: none;"/><g class="overlines-above"/><g class="xaxislayer-above"><g class="xtick"><text text-anchor="middle" x="0" y="433" transform="translate(89.81,0)" style="font-family: 'Open Sans', verdana, arial, sans-serif; font-size: 12px; fill: rgb(42, 63, 95); fill-opacity: 1; white-space: pre;"><tspan class="line" dy="0em" x="0" y="433">Jun 4</tspan><tspan class="line" dy="1.3em" x="0" y="433">2021</tspan></text></g><g class="xtick"><text text-anchor="middle" x="0" y="433" transform="translate(195.45999999999998,0)" style="font-family: 'Open Sans', verdana, arial, sans-serif; font-size: 12px; fill: rgb(42, 63, 95); fill-opacity: 1; white-space: pre;">Jun 6</text></g><g class="xtick"><text text-anchor="middle" x="0" y="433" transform="translate(301.11,0)" style="font-family: 'Open Sans', verdana, arial, sans-serif; font-size: 12px; fill: rgb(42, 63, 95); fill-opacity: 1; white-space: pre;">Jun 8</text></g><g class="xtick"><text text-anchor="middle" x="0" y="433" transform="translate(406.76,0)" style="font-family: 'Open Sans', verdana, arial, sans-serif; font-size: 12px; fill: rgb(42, 63, 95); fill-opacity: 1; white-space: pre;">Jun 10</text></g><g class="xtick"><text text-anchor="middle" x="0" y="433" transform="translate(512.4,0)" style="font-family: 'Open Sans', verdana, arial, sans-serif; font-size: 12px; fill: rgb(42, 63, 95); fill-opacity: 1; white-space: pre;">Jun 12</text></g></g><g class="yaxislayer-above"><g class="ytick"><text text-anchor="end" x="79" y="4.199999999999999" transform="translate(0,367.23)" style="font-family: 'Open Sans', verdana, arial, sans-serif; font-size: 12px; fill: rgb(42, 63, 95); fill-opacity: 1; white-space: pre;">0.8</text></g><g class="ytick"><text text-anchor="end" x="79" y="4.199999999999999" transform="translate(0,308.43)" style="font-family: 'Open Sans', verdana, arial, sans-serif; font-size: 12px; fill: rgb(42, 63, 95); fill-opacity: 1; white-space: pre;">0.82</text></g><g class="ytick"><text text-anchor="end" x="79" y="4.199999999999999" transform="translate(0,249.63)" style="font-family: 'Open Sans', verdana, arial, sans-serif; font-size: 12px; fill: rgb(42, 63, 95); fill-opacity: 1; white-space: pre;">0.84</text></g><g class="ytick"><text text-anchor="end" x="79" y="4.199999999999999" transform="translate(0,190.82999999999998)" style="font-family: 'Open Sans', verdana, arial, sans-serif; font-size: 12px; fill: rgb(42, 63, 95); fill-opacity: 1; white-space: pre;">0.86</text></g><g class="ytick"><text text-anchor="end" x="79" y="4.199999999999999" transform="translate(0,132.03)" style="font-family: 'Open Sans', verdana, arial, sans-serif; font-size: 12px; fill: rgb(42, 63, 95); fill-opacity: 1; white-space: pre;">0.88</text></g></g><g class="overaxes-above"/></g></g><g class="polarlayer"/><g class="ternarylayer"/><g class="geolayer"/><g class="funnelarealayer"/><g class="pielayer"/><g class="treemaplayer"/><g class="sunburstlayer"/><g class="glimages"/><defs id="topdefs-3fdbd5"><g class="clips"/><clipPath id="legend3fdbd5"><rect width="60" height="45" x="0" y="0"/></clipPath></defs><g class="layer-above"><g class="imagelayer"/><g class="shapelayer"/></g><g class="infolayer"><g class="legend" pointer-events="all" transform="translate(627.74,100)"><rect class="bg" shape-rendering="crispEdges" width="60" height="45" x="0" y="0" style="stroke: rgb(68, 68, 68); stroke-opacity: 1; fill: rgb(255, 255, 255); fill-opacity: 1; stroke-width: 0px;"/><g class="scrollbox" transform="" clip-path="url('#legend3fdbd5')"><text class="legendtitletext" text-anchor="start" x="2" y="15.600000000000001" style="font-family: 'Open Sans', verdana, arial, sans-serif; font-size: 12px; fill: rgb(42, 63, 95); fill-opacity: 1; white-space: pre;">All</text><g class="groups" transform=""><g class="traces" transform="translate(0,30.1)" style="opacity: 1;"><text class="legendtext" text-anchor="start" x="40" y="4.680000000000001" style="font-family: 'Open Sans', verdana, arial, sans-serif; font-size: 12px; fill: rgb(42, 63, 95); fill-opacity: 1; white-space: pre;">All</text><g class="layers" style="opacity: 1;"><g class="legendfill"/><g class="legendlines"><path class="js-line" d="M5,0h30" style="fill: none; stroke: rgb(99, 110, 250); stroke-opacity: 1; stroke-width: 2px;"/></g><g class="legendsymbols"><g class="legendpoints"/></g></g><rect class="legendtoggle" x="0" y="-9.5" width="54.890625" height="19" style="fill: rgb(0, 0, 0); fill-opacity: 0;"/></g></g></g><rect class="scrollbar" rx="20" ry="3" width="0" height="0" x="0" y="0" style="fill: rgb(128, 139, 164); fill-opacity: 1;"/></g><g class="g-gtitle"><text class="gtitle" x="35" y="50" text-anchor="start" dy="0em" style="font-family: 'Open Sans', verdana, arial, sans-serif; font-size: 17px; fill: rgb(42, 63, 95); opacity: 1; font-weight: normal; white-space: pre;">Singapore Vaccination Centers</text></g><g class="g-xtitle"><text class="xtitle" x="348.5" y="476.409375" text-anchor="middle" style="font-family: 'Open Sans', verdana, arial, sans-serif; font-size: 14px; fill: rgb(42, 63, 95); opacity: 1; font-weight: normal; white-space: pre;">Time</text></g><g class="g-ytitle"><text class="ytitle" transform="rotate(-90,27.481250000000003,260)" x="27.481250000000003" y="260" text-anchor="middle" style="font-family: 'Open Sans', verdana, arial, sans-serif; font-size: 14px; fill: rgb(42, 63, 95); opacity: 1; font-weight: normal; white-space: pre;">Filled/%</text></g></g></svg>