<svg class="main-svg" xmlns="http://www.w3.org/2000/svg" xmlns:xlink="http://www.w3.org/1999/xlink" width="700" height="500" style="" viewBox="0 0 700 500"><rect x="0" y="0" width="700" height="500" style="fill: rgb(255, 255, 255); fill-opacity: 1;"/><defs id="defs-51f85b"><g class="clips"><clipPath id="clip51f85bxyplot" class="plotclip"><rect width="537" height="320"/></clipPath><clipPath class="axesclip" id="clip51f85bx"><rect x="80" y="0" width="537" height="500"/></clipPath><clipPath class="axesclip" id="clip51f85by"><rect x="0" y="100" width="700" height="320"/></clipPath><clipPath class="axesclip" id="clip51f85bxy"><rect x="80" y="100" width="537" height="320"/></clipPath></g><g class="gradients"/></defs><g class="bglayer"><rect class="bg" x="80" y="100" width="537" height="320" style="fill: rgb(229, 236, 246); fill-opacity: 1; stroke-width: 0;"/></g><g class="layer-below"><g class="imagelayer"/><g class="shapelayer"/></g><g class="cartesianlayer"><g class="subplot xy"><g class="layer-subplot"><g class="shapelayer"/><g class="imagelayer"/></g><g class="gridlayer"><g class="x"><path class="xgrid crisp" transform="translate(90.93,0)" d="M0,100v320" style="stroke: rgb(255, 255, 255); stroke-opacity: 1; stroke-width: 1px;"/><path class="xgrid crisp" transform="translate(208.64,0)" d="M0,100v320" style="stroke: rgb(255, 255, 255); stroke-opacity: 1; stroke-width: 1px;"/><path class="xgrid crisp" transform="translate(326.35,0)" d="M0,100v320" style="stroke: rgb(255, 255, 255); stroke-opacity: 1; stroke-width: 1px;"/><path class="xgrid crisp" transform="translate(444.06,0)" d="M0,100v320" style="stroke: rgb(255, 255, 255); stroke-opacity: 1; stroke-width: 1px;"/><path class="xgrid crisp" transform="translate(561.77,0)" d="M0,100v320" style="stroke: rgb(255, 255, 255); stroke-opacity: 1; stroke-width: 1px;"/></g><g class="y"><path class="ygrid crisp" transform="translate(0,367.23)" d="M80,0h537" style="stroke: rgb(255, 255, 255); stroke-opacity: 1; stroke-width: 1px;"/><path class="ygrid crisp" transform="translate(0,308.43)" d="M80,0h537" style="stroke: rgb(255, 255, 255); stroke-opacity: 1; stroke-width: 1px;"/><path class="ygrid crisp" transform="translate(0,249.63)" d="M80,0h537" style="stroke: rgb(255, 255, 255); stroke-opacity: 1; stroke-width: 1px;"/><path class="ygrid crisp" transform="translate(0,190.82999999999998)" d="M80,0h537" style="stroke: rgb(255, 255, 255); stroke-opacity: 1; stroke-width: 1px;"/><path class="ygrid crisp" transform="translate(0,132.03)" d="M80,0h537" style="stroke: rgb(255, 255, 255); stroke-opacity: 1; stroke-width: 1px;"/></g></g><g class="zerolinelayer"/><path class="xlines-below"/><path class="ylines-below"/><g class="overlines-below"/><g class="xaxislayer-below"/><g class="yaxislayer-below"/><g class="overaxes-below"/><g class="plot" transform="translate(80,100)" clip-path="url('#clip51f85bxyplot')"><g class="scatterlayer mlayer"><g class="trace scatter trace1fca74" style="stroke-miterlimit: 2; opacity: 1;"><g class="fills"/><g class="errorbars"/><g class="lines"><path class="js-line" d="M0,82.28L6.9,82.51L9.35,120.48L14.23,120.57L16.04,136.92L16.8,136.9L34.85,137.96L35.98,121.23L36.32,129.62L37.14,129.56L38.77,126.37L39.59,126.27L41.22,129.79L42.04,129.7L43.68,132.71L44.49,132.63L46.13,120.69L46.95,120.62L48.58,132.64L49.4,132.55L51.03,126.68L51.85,123.32L53.49,113.21L54.3,109.51L55.94,94.58L56.76,92.89L58.39,74.17L59.21,72.87L60.84,78.78L61.66,77.73L63.29,63.68L64.11,62.82L65.75,65.47L66.56,64.83L68.2,74.27L69.02,73.83L70.1,51.83L70.65,52.53L71.47,52.34L79.64,51.79L80.46,51.79L92.72,50.91L93.54,50.65L122.15,42.03L122.97,41.83L127.87,40.95L128.69,41.79L143.4,41.46L144.22,41.46L157.3,40.58L158.12,40.48L183.46,37.17L184.27,37.08L186.73,36.83L187.54,35.53L219.42,34L220.24,33.87L245.58,31.05L246.4,28.56L274.2,27.81L275.01,95.38L284.03,93.57L284.82,93.44L285.64,93.12L286.46,91.51L288.91,88.51L289.73,87.52L293.81,73.59L294.63,72.39L299.54,67.88L300.35,67.37L304.44,65.43L305.26,65.5L310.98,64.8L311.8,64.77L329.78,63.66L330.6,63.48L336.32,61.32L337.14,60.89L337.96,60.46L338.77,62.78L342.04,61.15L342.86,59.94L347.76,53.24L348.58,52.44L351.85,47.98L352.67,45.51L355.94,38.66L356.76,37.65L360.84,33.5L361.66,32.89L364.93,31.98L365.75,31.8L372.29,31.18L373.11,31.16L385.37,30.17L386.18,29.9L391.09,28.09L391.91,74.81L393.54,73.22L394.36,72.76L402.53,69.16L403.35,68.8L403.98,71.93L404.17,68.39L404.95,68.25L404.99,69.25L405.77,67.95L405.81,68.94L406.62,68.62L408.26,68.09L409.07,76.43L416.23,73.91L416.26,72.31L416.3,72.03L416.43,73.74L424.2,44.74L424.6,44.87L425.02,41.95L425.83,42.12L426.24,43.2L427.47,37.43L427.88,41.6L429.1,39.66L429.51,39.05L430.74,38.13L431.14,38.96L431.56,38.26L431.96,38.53L432.37,38.42L433.6,38.4L434.01,43.02L438.5,41.69L438.91,36.5L439.73,35.76L440.13,35.39L441.36,33.79L441.77,33.41L445.04,22.43L445.45,16L445.86,16.8L446.27,140.18L446.67,139.22L447.08,142.07L447.9,136.79L448.31,138.99L449.13,136.15L449.54,136.63L449.95,141.25L450.35,146.68L450.76,133.42L451.58,138.09L451.99,157.2L453.21,133.53L453.62,145.44L454.03,148.42L454.44,146.68L454.85,144.02L455.67,134.36L456.07,135.71L456.48,141.84L456.89,146.05L457.3,142.1L457.71,141.74L458.12,151.77L458.93,140.84L459.34,148.68L460.16,127.07L460.57,137.58L461.39,140.49L461.8,138.92L462.61,130.34L463.02,131.67L463.43,129.31L463.84,138.25L464.25,134.05L464.66,138.68L465.07,138.81L465.47,131.49L465.89,131.42L466.29,140.05L467.11,132.48L467.52,138.41L468.34,141.46L468.75,128.79L469.56,142.96L469.97,264.58L470.79,292.55L471.2,293.12L471.61,304L472.02,286.22L472.42,301.52L472.83,291.75L473.24,292.1L473.65,291.07L474.06,294.16L474.47,293.46L474.88,276.02L475.29,283.67L475.69,262.28L476.51,272.54L476.92,248.89L477.74,241.71L478.15,229.6L478.56,224.98L478.96,228.24L479.37,227.36L480.6,215.22L481.01,217.06L481.41,216.4L481.82,227.08L482.23,226.08L482.64,228.38L483.05,228.68L483.46,224.72L483.87,233.57L484.28,224.28L485.09,227.75L485.5,223.07L486.32,226.33L486.73,223.26L487.14,224.52L487.55,234.01L487.95,220.81L488.37,231.91L489.59,220.15L490,220.86L491.23,212.72L491.64,220.76L492.45,220.72L492.86,223.7L493.27,223.67L493.68,219.37L494.09,223.08L494.49,218.62L494.9,226.76L495.31,225.2L495.72,224.19L496.13,219.51L496.54,225.16L497.76,225.11L498.17,216.49L498.58,225.05L498.99,220.43L499.4,220.57L499.81,218.19L500.22,220.92L500.63,219.84L501.03,227.36L501.44,216.65L501.85,220.1L502.26,220.01L503.08,220.98L503.48,218.78L504.3,223.64L504.71,218.66L505.12,205.85L505.53,215.25L505.94,220.32L506.35,206.18L506.75,206.81L507.16,214.16L507.57,214.11L507.98,206.99L508.81,212.47L509.21,202.23L509.62,199.24L510.03,208.71L510.44,224.84L510.84,215.2L511.25,214.49L511.66,205.74L512.07,219.6L512.89,195.82L513.29,209.77L513.7,208.24L514.11,203.32L514.52,202.05L514.93,205.17L515.34,200.81L515.75,208.16L516.15,206.35L516.56,209.96L516.97,207.44L517.38,196.45L517.79,195.36L518.2,196.45L519.02,209.39L519.42,202.33L519.83,210.92L520.24,197.09L520.65,197.31L521.06,191.05L521.47,191.24L521.88,196.07L522.29,200.65L522.69,194.37L523.92,210.5L524.33,204.27L525.15,191.94L525.56,193.62L525.96,197L526.37,205.03L526.78,197.14L527.19,198.57L527.6,192.99L528.83,184.28L529.23,189.51L530.05,194.59L530.46,189.23L530.87,191.91L531.28,189.81L531.69,182.31L532.1,187.7L532.5,187L532.91,183.28L533.32,186.18L533.73,185.69L534.15,181.61L534.55,182.61L534.96,186.54L535.78,187.68L536.18,186.58L536.59,181.49L537,187.81" style="vector-effect: non-scaling-stroke; fill: none; stroke: rgb(99, 110, 250); stroke-opacity: 1; stroke-width: 2px; opacity: 1;"/></g><g class="points"/><g class="text"/></g></g></g><g class="overplot"/><path class="xlines-above crisp" d="M0,0" style="fill: none;"/><path class="ylines-above crisp" d="M0,0" style="fill: none;"/><g class="overlines-above"/><g class="xaxislayer-above"><g class="xtick"><text text-anchor="middle" x="0" y="433" transform="translate(90.93,0)" style="font-family: 'Open Sans', verdana, arial, sans-serif; font-size: 12px; fill: rgb(42, 63, 95); fill-opacity: 1; white-space: pre;"><tspan class="line" dy="0em" x="0" y="433">Jun 4</tspan><tspan class="line" dy="1.3em" x="0" y="433">2021</tspan></text></g><g class="xtick"><text text-anchor="middle" x="0" y="433" transform="translate(208.64,0)" style="font-family: 'Open Sans', verdana, arial, sans-serif; font-size: 12px; fill: rgb(42, 63, 95); fill-opacity: 1; white-space: pre;">Jun 6</text></g><g class="xtick"><text text-anchor="middle" x="0" y="433" transform="translate(326.35,0)" style="font-family: 'Open Sans', verdana, arial, sans-serif; font-size: 12px; fill: rgb(42, 63, 95); fill-opacity: 1; white-space: pre;">Jun 8</text></g><g class="xtick"><text text-anchor="middle" x="0" y="433" transform="translate(444.06,0)" style="font-family: 'Open Sans', verdana, arial, sans-serif; font-size: 12px; fill: rgb(42, 63, 95); fill-opacity: 1; white-space: pre;">Jun 10</text></g><g class="xtick"><text text-anchor="middle" x="0" y="433" transform="translate(561.77,0)" style="font-family: 'Open Sans', verdana, arial, sans-serif; font-size: 12px; fill: rgb(42, 63, 95); fill-opacity: 1; white-space: pre;">Jun 12</text></g></g><g class="yaxislayer-above"><g class="ytick"><text text-anchor="end" x="79" y="4.199999999999999" transform="translate(0,367.23)" style="font-family: 'Open Sans', verdana, arial, sans-serif; font-size: 12px; fill: rgb(42, 63, 95); fill-opacity: 1; white-space: pre;">0.8</text></g><g class="ytick"><text text-anchor="end" x="79" y="4.199999999999999" transform="translate(0,308.43)" style="font-family: 'Open Sans', verdana, arial, sans-serif; font-size: 12px; fill: rgb(42, 63, 95); fill-opacity: 1; white-space: pre;">0.82</text></g><g class="ytick"><text text-anchor="end" x="79" y="4.199999999999999" transform="translate(0,249.63)" style="font-family: 'Open Sans', verdana, arial, sans-serif; font-size: 12px; fill: rgb(42, 63, 95); fill-opacity: 1; white-space: pre;">0.84</text></g><g class="ytick"><text text-anchor="end" x="79" y="4.199999999999999" transform="translate(0,190.82999999999998)" style="font-family: 'Open Sans', verdana, arial, sans-serif; font-size: 12px; fill: rgb(42, 63, 95); fill-opacity: 1; white-space: pre;">0.86</text></g><g class="ytick"><text text-anchor="end" x="79" y="4.199999999999999" transform="translate(0,132.03)" style="font-family: 'Open Sans', verdana, arial, sans-serif; font-size: 12px; fill: rgb(42, 63, 95); fill-opacity: 1; white-space: pre;">0.88</text></g></g><g class="overaxes-above"/></g></g><g class="polarlayer"/><g class="ternarylayer"/><g class="geolayer"/><g class="funnelarealayer"/><g class="pielayer"/><g class="treemaplayer"/><g class="sunburstlayer"/><g class="glimages"/><defs id="topdefs-51f85b"><g class="clips"/><clipPath id="legend51f85b"><rect width="60" height="45" x="0" y="0"/></clipPath></defs><g class="layer-above"><g class="imagelayer"/><g class="shapelayer"/></g><g class="infolayer"><g class="legend" pointer-events="all" transform="translate(627.74,100)"><rect class="bg" shape-rendering="crispEdges" width="60" height="45" x="0" y="0" style="stroke: rgb(68, 68, 68); stroke-opacity: 1; fill: rgb(255, 255, 255); fill-opacity: 1; stroke-width: 0px;"/><g class="scrollbox" transform="" clip-path="url('#legend51f85b')"><text class="legendtitletext" text-anchor="start" x="2" y="15.600000000000001" style="font-family: 'Open Sans', verdana, arial, sans-serif; font-size: 12px; fill: rgb(42, 63, 95); fill-opacity: 1; white-space: pre;">All</text><g class="groups" transform=""><g class="traces" transform="translate(0,30.1)" style="opacity: 1;"><text class="legendtext" text-anchor="start" x="40" y="4.680000000000001" style="font-family: 'Open Sans', verdana, arial, sans-serif; font-size: 12px; fill: rgb(42, 63, 95); fill-opacity: 1; white-space: pre;">All</text><g class="layers" style="opacity: 1;"><g class="legendfill"/><g class="legendlines"><path class="js-line" d="M5,0h30" style="fill: none; stroke: rgb(99, 110, 250); stroke-opacity: 1; stroke-width: 2px;"/></g><g class="legendsymbols"><g class="legendpoints"/></g></g><rect class="legendtoggle" x="0" y="-9.5" width="54.890625" height="19" style="fill: rgb(0, 0, 0); fill-opacity: 0;"/></g></g></g><rect class="scrollbar" rx="20" ry="3" width="0" height="0" x="0" y="0" style="fill: rgb(128, 139, 164); fill-opacity: 1;"/></g><g class="g-gtitle"><text class="gtitle" x="35" y="50" text-anchor="start" dy="0em" style="font-family: 'Open Sans', verdana, arial, sans-serif; font-size: 17px; fill: rgb(42, 63, 95); opacity: 1; font-weight: normal; white-space: pre;">Singapore Vaccination Centers</text></g><g class="g-xtitle"><text class="xtitle" x="348.5" y="476.409375" text-anchor="middle" style="font-family: 'Open Sans', verdana, arial, sans-serif; font-size: 14px; fill: rgb(42, 63, 95); opacity: 1; font-weight: normal; white-space: pre;">Time</text></g><g class="g-ytitle"><text class="ytitle" transform="rotate(-90,27.481250000000003,260)" x="27.481250000000003" y="260" text-anchor="middle" style="font-family: 'Open Sans', verdana, arial, sans-serif; font-size: 14px; fill: rgb(42, 63, 95); opacity: 1; font-weight: normal; white-space: pre;">Filled/%</text></g></g></svg>