<svg class="main-svg" xmlns="http://www.w3.org/2000/svg" xmlns:xlink="http://www.w3.org/1999/xlink" width="700" height="500" style="" viewBox="0 0 700 500"><rect x="0" y="0" width="700" height="500" style="fill: rgb(255, 255, 255); fill-opacity: 1;"/><defs id="defs-6785e2"><g class="clips"><clipPath id="clip6785e2xyplot" class="plotclip"><rect width="537" height="320"/></clipPath><clipPath class="axesclip" id="clip6785e2x"><rect x="80" y="0" width="537" height="500"/></clipPath><clipPath class="axesclip" id="clip6785e2y"><rect x="0" y="100" width="700" height="320"/></clipPath><clipPath class="axesclip" id="clip6785e2xy"><rect x="80" y="100" width="537" height="320"/></clipPath></g><g class="gradients"/></defs><g class="bglayer"><rect class="bg" x="80" y="100" width="537" height="320" style="fill: rgb(229, 236, 246); fill-opacity: 1; stroke-width: 0;"/></g><g class="layer-below"><g class="imagelayer"/><g class="shapelayer"/></g><g class="cartesianlayer"><g class="subplot xy"><g class="layer-subplot"><g class="shapelayer"/><g class="imagelayer"/></g><g class="gridlayer"><g class="x"><path class="xgrid crisp" transform="translate(81.99,0)" d="M0,100v320" style="stroke: rgb(255, 255, 255); stroke-opacity: 1; stroke-width: 1px;"/><path class="xgrid crisp" transform="translate(158.56,0)" d="M0,100v320" style="stroke: rgb(255, 255, 255); stroke-opacity: 1; stroke-width: 1px;"/><path class="xgrid crisp" transform="translate(235.13,0)" d="M0,100v320" style="stroke: rgb(255, 255, 255); stroke-opacity: 1; stroke-width: 1px;"/><path class="xgrid crisp" transform="translate(311.7,0)" d="M0,100v320" style="stroke: rgb(255, 255, 255); stroke-opacity: 1; stroke-width: 1px;"/><path class="xgrid crisp" transform="translate(388.27,0)" d="M0,100v320" style="stroke: rgb(255, 255, 255); stroke-opacity: 1; stroke-width: 1px;"/><path class="xgrid crisp" transform="translate(464.84,0)" d="M0,100v320" style="stroke: rgb(255, 255, 255); stroke-opacity: 1; stroke-width: 1px;"/><path class="xgrid crisp" transform="translate(541.4100000000001,0)" d="M0,100v320" style="stroke: rgb(255, 255, 255); stroke-opacity: 1; stroke-width: 1px;"/></g><g class="y"><path class="ygrid crisp" transform="translate(0,394.24)" d="M80,0h537" style="stroke: rgb(255, 255, 255); stroke-opacity: 1; stroke-width: 1px;"/><path class="ygrid crisp" transform="translate(0,357.79)" d="M80,0h537" style="stroke: rgb(255, 255, 255); stroke-opacity: 1; stroke-width: 1px;"/><path class="ygrid crisp" transform="translate(0,321.34000000000003)" d="M80,0h537" style="stroke: rgb(255, 255, 255); stroke-opacity: 1; stroke-width: 1px;"/><path class="ygrid crisp" transform="translate(0,284.88)" d="M80,0h537" style="stroke: rgb(255, 255, 255); stroke-opacity: 1; stroke-width: 1px;"/><path class="ygrid crisp" transform="translate(0,248.43)" d="M80,0h537" style="stroke: rgb(255, 255, 255); stroke-opacity: 1; stroke-width: 1px;"/><path class="ygrid crisp" transform="translate(0,211.97)" d="M80,0h537" style="stroke: rgb(255, 255, 255); stroke-opacity: 1; stroke-width: 1px;"/><path class="ygrid crisp" transform="translate(0,175.51999999999998)" d="M80,0h537" style="stroke: rgb(255, 255, 255); stroke-opacity: 1; stroke-width: 1px;"/><path class="ygrid crisp" transform="translate(0,139.07)" d="M80,0h537" style="stroke: rgb(255, 255, 255); stroke-opacity: 1; stroke-width: 1px;"/><path class="ygrid crisp" transform="translate(0,102.61)" d="M80,0h537" style="stroke: rgb(255, 255, 255); stroke-opacity: 1; stroke-width: 1px;"/></g></g><g class="zerolinelayer"/><path class="xlines-below"/><path class="ylines-below"/><g class="overlines-below"/><g class="xaxislayer-below"/><g class="yaxislayer-below"/><g class="overaxes-below"/><g class="plot" transform="translate(80,100)" clip-path="url('#clip6785e2xyplot')"><g class="scatterlayer mlayer"><g class="trace scatter traceceed9a" style="stroke-miterlimit: 2; opacity: 1;"><g class="fills"/><g class="errorbars"/><g class="lines"><path class="js-line" d="M0,304L1.53,302.8L2.07,257.77L2.6,258.87L3.13,257.44L5.25,256.88L5.79,256.55L6.85,257.22L7.38,256.44L8.45,256.77L8.98,256.44L10.04,256.22L10.57,256L11.64,255.78L12.17,255.56L19.08,255.23L19.61,254.79L23.33,253.8L23.86,253.25L24.93,253.36L25.46,252.59L26.52,253.36L27.06,252.03L28.65,251.26L29.18,251.7L29.71,251.37L30.25,252.15L31.31,249.61L31.84,250.05L32.37,250.05L33.97,248.95L34.5,248.29L35.56,246.85L36.1,247.74L36.62,247.96L37.16,246.96L37.69,245.2L38.22,245.64L38.75,246.52L40.88,242.89L41.41,242.11L43.01,241.23L43.54,240.9L44.07,241.12L44.6,242.45L45.13,240.57L45.67,240.9L46.2,240.68L47.26,241.12L47.79,239.36L48.86,237.6L49.39,238.26L50.45,237.26L50.98,238.7L51.52,238.48L52.05,237.15L54.17,233.41L54.71,231.09L55.24,231.64L55.77,230.43L56.3,229.55L56.83,230.21L57.9,230.43L58.43,231.31L61.09,229.33L61.62,229.11L63.75,228.01L64.28,229L64.81,229L65.34,227.68L67.47,226.35L68,226.24L69.6,225.47L70.12,225.36L71.19,225.47L71.72,225.14L73.32,225.03L73.85,224.26L75.44,221.94L75.98,221.28L77.04,222.16L77.57,221.72L78.1,222.16L78.64,166.18L80.76,164.63L81.29,164.52L83.42,163.52L83.95,163.52L86.61,162.85L87.14,162.52L91.93,162.29L92.46,162.41L97.78,162.41L98.31,161.85L99.9,161.85L100.44,160.96L102.56,161.07L103.09,160.63L104.16,160.74L104.69,160.18L106.28,160.18L106.82,159.29L108.41,157.63L108.94,158.52L110.54,157.07L111.07,157.63L113.2,154.4L113.73,155.85L115.85,153.29L116.39,154.07L117.45,152.74L117.98,153.74L118.51,154.63L119.05,153.85L119.58,154.74L120.11,154.29L120.64,153.51L121.17,154.4L121.7,153.85L122.23,154.18L123.83,154.74L124.36,154.4L126.5,151.29L127.03,151.4L128.09,152.29L128.63,150.62L130.75,149.85L131.29,148.4L133.41,148.85L133.94,147.73L134.47,145.84L135.01,147.18L135.54,147.18L136.07,146.18L136.6,146.96L137.13,146.51L137.66,145.51L141.39,141.62L141.92,140.51L142.45,141.18L142.98,140.4L143.51,139.4L144.05,139.84L144.58,139.51L145.64,139.29L146.17,137.06L146.7,136.95L147.23,136.06L148.3,135.06L148.83,135.28L149.9,136.84L150.43,136.29L150.96,137.95L151.49,137.29L152.02,137.17L153.09,135.51L153.62,135.95L154.68,136.17L155.21,97.15L156.81,95.36L157.34,95.13L164.25,91.21L164.78,91.66L166.91,90.76L167.44,90.65L169.04,90.76L169.57,90.65L173.29,89.64L173.82,89.86L177.01,88.86L177.54,89.08L178.61,88.97L179.14,89.08L180.2,88.63L180.74,88.86L181.8,88.18L182.33,88.07L182.86,87.62L184.46,87.62L185.52,87.17L186.05,86.05L188.18,85.38L188.71,83.92L189.24,84.93L189.77,83.92L190.84,83.92L191.37,83.36L191.9,83.25L192.43,82.24L194.03,82.02L194.56,80.67L196.67,77.42L197.2,77.98L198.79,77.09L199.33,75.63L201.45,75.07L201.98,73.39L203.05,73.27L203.58,73.16L206.24,71.03L206.77,71.26L208.36,73.05L208.9,71.48L209.96,72.49L210.5,70.81L211.56,70.92L212.09,71.26L214.22,70.02L214.75,69.58L217.4,64.76L217.94,65.99L219,64.42L219.53,64.2L220.06,63.07L220.59,63.41L221.13,63.52L221.66,63.52L222.19,62.63L222.72,63.07L223.26,61.73L224.32,61.62L224.85,60.72L226.98,61.06L227.51,60.27L228.57,60.16L229.11,60.27L230.17,58.59L230.7,59.15L231.23,58.93L231.77,191.36L236.02,191.01L236.55,190.66L237.08,190.66L237.61,189.73L243.99,188.56L244.53,188.68L250.37,187.98L250.91,187.86L254.63,186.93L255.16,187.17L256.75,186.24L257.29,185.65L259.94,184.72L260.48,183.56L262.62,183.33L263.15,184.37L264.22,182.75L264.75,182.63L265.28,182.05L265.81,179.95L266.34,178.32L266.87,178.56L267.41,177.98L267.94,176.46L268.47,176.93L269,176.35L270.07,176.46L270.6,175.65L271.66,175.07L272.19,175.88L273.79,173.55L274.32,174.37L275.92,172.04L276.45,172.04L276.98,171.34L277.51,172.27L278.57,173.09L279.11,172.27L279.64,172.39L280.17,171.69L282.83,168.09L283.36,167.62L284.42,167.27L284.96,168.55L288.15,165.88L288.68,167.39L289.74,148.89L290.27,148.54L291.34,147.96L291.87,143.89L292.4,144L292.93,140.63L293.46,140.86L294,138.65L294.53,136.09L295.06,136.91L295.59,135.39L296.12,134.23L296.65,131.21L297.72,128.53L298.25,128.06L300.91,121.08L301.44,121.08L303.03,117.94L303.57,117.13L307.82,108.87L308.35,120.32L311.01,116.56L311.55,116.92L312.08,116.8L312.61,117.5L313.67,117.15L314.2,117.74L315.79,116.92L316.33,117.03L317.39,116.56L317.93,116.68L325.37,116.09L325.9,115.74L330.15,116.21L330.69,115.98L333.87,115.86L334.41,115.39L336,113.04L336.53,113.28L338.13,112.11L338.66,112.22L339.19,111.87L339.72,110.46L340.79,110.7L341.32,109.41L343.98,106.71L344.51,107.06L346.1,104.13L346.64,103.77L348.23,101.54L348.76,101.54L349.83,99.31L350.36,99.31L351.42,97.67L351.95,95.79L354.08,91.33L354.61,90.98L355.14,90.63L355.68,88.75L357.81,87.11L358.33,85.7L361.53,84.88L362.06,83.94L362.59,84.29L363.12,83.71L363.65,84.06L367.91,80.07L370.57,77.84L371.1,78.43L373.22,75.61L373.76,75.49L374.29,74.32L374.82,74.79L375.35,74.2L376.42,74.08L376.95,75.02L378.54,73.85L379.08,73.62L379.61,73.03L380.14,73.85L382.27,73.26L382.8,72.32L384.39,70.33L384.92,114.2L385.99,114.56L386.52,113.6L387.05,113L387.58,113.48L388.13,113.36L389.18,113.48L389.71,114.32L391.84,114.08L392.37,114.2L393.96,114.32L394.5,114.32L397.15,113L397.69,113.36L403.54,112.77L404.07,112.77L410.45,112.41L410.98,112.05L412.57,112.05L413.1,111.69L414.17,111.21L414.7,110.38L415.76,110.02L416.3,108.82L416.83,107.63L417.36,108.82L419.48,107.98L420.02,107.98L421.08,106.19L421.61,105.95L423.21,103.44L423.74,103.32L425.33,102.96L425.87,102.25L426.93,101.65L427.46,101.77L428.53,100.45L429.06,99.86L431.18,99.02L431.72,99.38L432.25,98.9L432.78,99.5L433.84,96.51L434.38,96.75L434.91,96.75L436.5,96.27L437.03,95.2L440.22,93.28L440.76,92.92L441.82,92.57L442.35,92.21L445.01,89.94L445.54,90.29L449.26,88.5L449.79,87.55L451.39,85.39L451.92,84.68L452.45,84.92L452.99,83.36L454.05,81.69L454.58,82.29L459.9,79.18L460.43,79.18L460.96,79.42L461.5,50.24L465.75,47.11L466.28,47.23L471.6,47.35L472.13,47.71L474.79,47.11L475.32,47.11L479.04,46.99L479.57,47.11L484.37,46.75L484.89,46.99L485.95,47.11L486.49,46.87L488.08,46.99L488.61,46.14L489.68,47.11L490.21,46.39L491.81,45.18L492.34,44.46L493.4,44.82L493.93,43.73L494.99,43.13L495.52,43.37L496.05,42.65L496.59,40.6L497.12,40.6L497.65,39.63L498.18,40.24L498.72,39.51L499.78,38.07L500.31,36.62L500.84,36.02L501.37,36.98L502.44,34.45L502.97,34.69L504.03,33.24L504.57,33.36L507.76,31.92L508.29,32.04L509.35,31.43L509.88,30.47L511.48,31.19L512.01,29.87L513.61,29.5L514.14,29.63L515.73,26.01L516.27,26.37L516.8,26.01L518.92,24.08L519.45,24.56L519.98,24.56L520.52,23.48L521.05,23.36L521.58,22.03L522.11,22.27L522.65,21.67L523.18,22.27L523.71,21.55L524.77,19.86L525.3,19.5L525.84,19.26L526.37,19.98L528.5,19.5L529.02,17.57L530.62,19.13L531.15,20.58L533.28,17.33L533.81,16.84L534.34,17.45L534.88,16.6L535.41,16L535.94,16.84L536.47,17.57L537,16.6" style="vector-effect: non-scaling-stroke; fill: none; stroke: rgb(99, 110, 250); stroke-opacity: 1; stroke-width: 2px; opacity: 1;"/></g><g class="points"/><g class="text"/></g></g></g><g class="overplot"/><path class="xlines-above crisp" d="M0,0" style="fill: none;"/><path class="ylines-above crisp" d="M0,0" style="fill: none;"/><g class="overlines-above"/><g class="xaxislayer-above"><g class="xtick"><text text-anchor="middle" x="0" y="433" transform="translate(81.99,0)" style="font-family: 'Open Sans', verdana, arial, sans-serif; font-size: 12px; fill: rgb(42, 63, 95); fill-opacity: 1; white-space: pre;"><tspan class="line" dy="0em" x="0" y="433">Aug 3</tspan><tspan class="line" dy="1.3em" x="0" y="433">2021</tspan></text></g><g class="xtick"><text text-anchor="middle" x="0" y="433" transform="translate(158.56,0)" style="font-family: 'Open Sans', verdana, arial, sans-serif; font-size: 12px; fill: rgb(42, 63, 95); fill-opacity: 1; white-space: pre;">Aug 4</text></g><g class="xtick"><text text-anchor="middle" x="0" y="433" transform="translate(235.13,0)" style="font-family: 'Open Sans', verdana, arial, sans-serif; font-size: 12px; fill: rgb(42, 63, 95); fill-opacity: 1; white-space: pre;">Aug 5</text></g><g class="xtick"><text text-anchor="middle" x="0" y="433" transform="translate(311.7,0)" style="font-family: 'Open Sans', verdana, arial, sans-serif; font-size: 12px; fill: rgb(42, 63, 95); fill-opacity: 1; white-space: pre;">Aug 6</text></g><g class="xtick"><text text-anchor="middle" x="0" y="433" transform="translate(388.27,0)" style="font-family: 'Open Sans', verdana, arial, sans-serif; font-size: 12px; fill: rgb(42, 63, 95); fill-opacity: 1; white-space: pre;">Aug 7</text></g><g class="xtick"><text text-anchor="middle" x="0" y="433" transform="translate(464.84,0)" style="font-family: 'Open Sans', verdana, arial, sans-serif; font-size: 12px; fill: rgb(42, 63, 95); fill-opacity: 1; white-space: pre;">Aug 8</text></g><g class="xtick"><text text-anchor="middle" x="0" y="433" transform="translate(541.4100000000001,0)" style="font-family: 'Open Sans', verdana, arial, sans-serif; font-size: 12px; fill: rgb(42, 63, 95); fill-opacity: 1; white-space: pre;">Aug 9</text></g></g><g class="yaxislayer-above"><g class="ytick"><text text-anchor="end" x="79" y="4.199999999999999" transform="translate(0,394.24)" style="font-family: 'Open Sans', verdana, arial, sans-serif; font-size: 12px; fill: rgb(42, 63, 95); fill-opacity: 1; white-space: pre;">0.864</text></g><g class="ytick"><text text-anchor="end" x="79" y="4.199999999999999" transform="translate(0,357.79)" style="font-family: 'Open Sans', verdana, arial, sans-serif; font-size: 12px; fill: rgb(42, 63, 95); fill-opacity: 1; white-space: pre;">0.865</text></g><g class="ytick"><text text-anchor="end" x="79" y="4.199999999999999" transform="translate(0,321.34000000000003)" style="font-family: 'Open Sans', verdana, arial, sans-serif; font-size: 12px; fill: rgb(42, 63, 95); fill-opacity: 1; white-space: pre;">0.866</text></g><g class="ytick"><text text-anchor="end" x="79" y="4.199999999999999" transform="translate(0,284.88)" style="font-family: 'Open Sans', verdana, arial, sans-serif; font-size: 12px; fill: rgb(42, 63, 95); fill-opacity: 1; white-space: pre;">0.867</text></g><g class="ytick"><text text-anchor="end" x="79" y="4.199999999999999" transform="translate(0,248.43)" style="font-family: 'Open Sans', verdana, arial, sans-serif; font-size: 12px; fill: rgb(42, 63, 95); fill-opacity: 1; white-space: pre;">0.868</text></g><g class="ytick"><text text-anchor="end" x="79" y="4.199999999999999" transform="translate(0,211.97)" style="font-family: 'Open Sans', verdana, arial, sans-serif; font-size: 12px; fill: rgb(42, 63, 95); fill-opacity: 1; white-space: pre;">0.869</text></g><g class="ytick"><text text-anchor="end" x="79" y="4.199999999999999" transform="translate(0,175.51999999999998)" style="font-family: 'Open Sans', verdana, arial, sans-serif; font-size: 12px; fill: rgb(42, 63, 95); fill-opacity: 1; white-space: pre;">0.87</text></g><g class="ytick"><text text-anchor="end" x="79" y="4.199999999999999" transform="translate(0,139.07)" style="font-family: 'Open Sans', verdana, arial, sans-serif; font-size: 12px; fill: rgb(42, 63, 95); fill-opacity: 1; white-space: pre;">0.871</text></g><g class="ytick"><text text-anchor="end" x="79" y="4.199999999999999" transform="translate(0,102.61)" style="font-family: 'Open Sans', verdana, arial, sans-serif; font-size: 12px; fill: rgb(42, 63, 95); fill-opacity: 1; white-space: pre;">0.872</text></g></g><g class="overaxes-above"/></g></g><g class="polarlayer"/><g class="ternarylayer"/><g class="geolayer"/><g class="funnelarealayer"/><g class="pielayer"/><g class="treemaplayer"/><g class="sunburstlayer"/><g class="glimages"/><defs id="topdefs-6785e2"><g class="clips"/><clipPath id="legend6785e2"><rect width="60" height="45" x="0" y="0"/></clipPath></defs><g class="layer-above"><g class="imagelayer"/><g class="shapelayer"/></g><g class="infolayer"><g class="legend" pointer-events="all" transform="translate(627.74,100)"><rect class="bg" shape-rendering="crispEdges" width="60" height="45" x="0" y="0" style="stroke: rgb(68, 68, 68); stroke-opacity: 1; fill: rgb(255, 255, 255); fill-opacity: 1; stroke-width: 0px;"/><g class="scrollbox" transform="" clip-path="url('#legend6785e2')"><text class="legendtitletext" text-anchor="start" x="2" y="15.600000000000001" style="font-family: 'Open Sans', verdana, arial, sans-serif; font-size: 12px; fill: rgb(42, 63, 95); fill-opacity: 1; white-space: pre;">All</text><g class="groups" transform=""><g class="traces" transform="translate(0,30.1)" style="opacity: 1;"><text class="legendtext" text-anchor="start" x="40" y="4.680000000000001" style="font-family: 'Open Sans', verdana, arial, sans-serif; font-size: 12px; fill: rgb(42, 63, 95); fill-opacity: 1; white-space: pre;">All</text><g class="layers" style="opacity: 1;"><g class="legendfill"/><g class="legendlines"><path class="js-line" d="M5,0h30" style="fill: none; stroke: rgb(99, 110, 250); stroke-opacity: 1; stroke-width: 2px;"/></g><g class="legendsymbols"><g class="legendpoints"/></g></g><rect class="legendtoggle" x="0" y="-9.5" width="54.890625" height="19" style="fill: rgb(0, 0, 0); fill-opacity: 0;"/></g></g></g><rect class="scrollbar" rx="20" ry="3" width="0" height="0" x="0" y="0" style="fill: rgb(128, 139, 164); fill-opacity: 1;"/></g><g class="g-gtitle"><text class="gtitle" x="35" y="50" text-anchor="start" dy="0em" style="font-family: 'Open Sans', verdana, arial, sans-serif; font-size: 17px; fill: rgb(42, 63, 95); opacity: 1; font-weight: normal; white-space: pre;">Singapore Vaccination Centers</text></g><g class="g-xtitle"><text class="xtitle" x="348.5" y="476.409375" text-anchor="middle" style="font-family: 'Open Sans', verdana, arial, sans-serif; font-size: 14px; fill: rgb(42, 63, 95); opacity: 1; font-weight: normal; white-space: pre;">Time</text></g><g class="g-ytitle"><text class="ytitle" transform="rotate(-90,19.840625000000003,260)" x="19.840625000000003" y="260" text-anchor="middle" style="font-family: 'Open Sans', verdana, arial, sans-serif; font-size: 14px; fill: rgb(42, 63, 95); opacity: 1; font-weight: normal; white-space: pre;">Filled/%</text></g></g></svg>