<svg class="main-svg" xmlns="http://www.w3.org/2000/svg" xmlns:xlink="http://www.w3.org/1999/xlink" width="700" height="500" style="" viewBox="0 0 700 500"><rect x="0" y="0" width="700" height="500" style="fill: rgb(255, 255, 255); fill-opacity: 1;"/><defs id="defs-e2473e"><g class="clips"><clipPath id="clipe2473exyplot" class="plotclip"><rect width="537" height="320"/></clipPath><clipPath class="axesclip" id="clipe2473ex"><rect x="80" y="0" width="537" height="500"/></clipPath><clipPath class="axesclip" id="clipe2473ey"><rect x="0" y="100" width="700" height="320"/></clipPath><clipPath class="axesclip" id="clipe2473exy"><rect x="80" y="100" width="537" height="320"/></clipPath></g><g class="gradients"/></defs><g class="bglayer"><rect class="bg" x="80" y="100" width="537" height="320" style="fill: rgb(229, 236, 246); fill-opacity: 1; stroke-width: 0;"/></g><g class="layer-below"><g class="imagelayer"/><g class="shapelayer"/></g><g class="cartesianlayer"><g class="subplot xy"><g class="layer-subplot"><g class="shapelayer"/><g class="imagelayer"/></g><g class="gridlayer"><g class="x"><path class="xgrid crisp" transform="translate(83.25,0)" d="M0,100v320" style="stroke: rgb(255, 255, 255); stroke-opacity: 1; stroke-width: 1px;"/><path class="xgrid crisp" transform="translate(208.6,0)" d="M0,100v320" style="stroke: rgb(255, 255, 255); stroke-opacity: 1; stroke-width: 1px;"/><path class="xgrid crisp" transform="translate(333.96000000000004,0)" d="M0,100v320" style="stroke: rgb(255, 255, 255); stroke-opacity: 1; stroke-width: 1px;"/><path class="xgrid crisp" transform="translate(459.31,0)" d="M0,100v320" style="stroke: rgb(255, 255, 255); stroke-opacity: 1; stroke-width: 1px;"/><path class="xgrid crisp" transform="translate(584.6600000000001,0)" d="M0,100v320" style="stroke: rgb(255, 255, 255); stroke-opacity: 1; stroke-width: 1px;"/></g><g class="y"><path class="ygrid crisp" transform="translate(0,392.55)" d="M80,0h537" style="stroke: rgb(255, 255, 255); stroke-opacity: 1; stroke-width: 1px;"/><path class="ygrid crisp" transform="translate(0,349.77)" d="M80,0h537" style="stroke: rgb(255, 255, 255); stroke-opacity: 1; stroke-width: 1px;"/><path class="ygrid crisp" transform="translate(0,306.99)" d="M80,0h537" style="stroke: rgb(255, 255, 255); stroke-opacity: 1; stroke-width: 1px;"/><path class="ygrid crisp" transform="translate(0,264.21000000000004)" d="M80,0h537" style="stroke: rgb(255, 255, 255); stroke-opacity: 1; stroke-width: 1px;"/><path class="ygrid crisp" transform="translate(0,221.43)" d="M80,0h537" style="stroke: rgb(255, 255, 255); stroke-opacity: 1; stroke-width: 1px;"/><path class="ygrid crisp" transform="translate(0,178.65)" d="M80,0h537" style="stroke: rgb(255, 255, 255); stroke-opacity: 1; stroke-width: 1px;"/><path class="ygrid crisp" transform="translate(0,135.87)" d="M80,0h537" style="stroke: rgb(255, 255, 255); stroke-opacity: 1; stroke-width: 1px;"/></g></g><g class="zerolinelayer"/><path class="xlines-below"/><path class="ylines-below"/><g class="overlines-below"/><g class="xaxislayer-below"/><g class="yaxislayer-below"/><g class="overaxes-below"/><g class="plot" transform="translate(80,100)" clip-path="url('#clipe2473exyplot')"><g class="scatterlayer mlayer"><g class="trace scatter tracee75b0b" style="stroke-miterlimit: 2; opacity: 1;"><g class="fills"/><g class="errorbars"/><g class="lines"><path class="js-line" d="M0,304L2.51,302.59L3.38,249.74L4.25,251.04L5.12,249.35L8.6,248.71L9.47,248.32L11.22,249.1L12.09,248.19L13.83,248.58L14.7,248.19L15.56,248.45L16.44,247.93L21.66,246.9L22.53,247.16L26.89,246.77L27.75,246.51L32.98,246.12L33.85,245.73L35.59,245.86L36.46,245.22L38.2,245.09L39.07,244.44L39.94,244.96L40.81,244.57L41.68,243.66L42.55,243.92L43.42,244.57L44.29,243.02L46.9,242.11L47.77,242.63L48.64,242.24L49.52,243.15L50.38,242.24L51.26,240.17L52.99,240.69L53.87,239.78L57.35,237.84L58.22,236.94L59.96,238.23L60.83,237.07L61.7,235L62.57,235.51L63.44,236.55L64.31,235L66.05,232.67L66.92,232.28L68.67,230.6L69.54,231.12L71.27,229.95L72.15,230.21L73.02,231.76L73.89,229.56L76.5,230.6L77.37,230.21L79.11,226.46L79.98,226.07L80.85,226.85L81.72,225.55L82.59,225.68L83.46,227.36L84.33,227.11L85.21,225.55L88.69,221.16L89.56,218.44L90.43,219.09L91.3,217.66L92.17,216.63L93.04,217.4L94.78,217.66L95.65,218.7L99.14,216.5L100,216.37L101.75,215.72L102.62,214.69L103.49,214.3L104.36,214.82L106.1,215.98L106.97,214.43L109.58,213.39L110.45,212.88L112.19,212.23L113.06,211.45L115.67,212.23L116.54,211.84L118.29,211.58L119.16,211.84L120.89,210.42L121.77,208.87L123.51,207.7L124.38,206.93L126.12,207.96L126.99,207.44L127.86,207.96L128.73,142.27L131.34,140.18L132.22,140.44L133.96,139.92L134.83,139.01L136.57,139.14L137.44,139.14L140.92,138.48L141.78,138.35L144.4,137.83L145.27,137.96L153.1,137.96L153.98,138.09L160.07,137.83L160.94,137.18L163.55,137.18L164.42,136.14L167.9,136.27L168.77,135.74L170.51,135.88L171.38,135.22L173.13,134.57L173.99,135.22L177.47,132.22L178.35,133.27L180.96,131.57L181.83,132.22L185.31,128.44L186.18,130.14L189.66,127.14L190.54,128.05L192.27,126.48L193.14,127.66L194.01,128.7L194.89,127.79L195.76,128.83L196.63,128.31L197.49,127.4L198.37,128.44L199.24,127.79L200.11,128.18L202.72,128.83L203.59,128.44L205.35,126.48L206.21,125.05L207.95,124.92L208.83,125.44L209.7,125.96L210.57,124.01L214.05,123.09L214.92,121.4L218.4,121.92L219.27,120.61L220.14,118.4L221.02,119.96L221.89,119.96L222.76,118.79L223.63,119.7L224.49,119.18L226.24,117.35L227.11,117.48L229.72,114.35L230.59,114.48L232.33,112.14L233.2,112.92L234.94,110.83L235.81,111.35L238.42,110.7L239.29,108.09L240.16,107.96L241.03,106.92L241.91,105.48L242.78,105.74L243.65,106L244.52,107.18L245.39,107.83L246.26,107.18L247.14,109.13L248,108.35L248.87,108.22L249.74,106.66L250.61,106.27L251.48,106.79L253.22,107.05L254.09,61.25L255.83,59.41L256.7,59.15L259.32,57.57L260.18,57.17L261.93,57.04L262.8,56.78L266.28,55.46L267.15,54.54L268.89,54.28L269.76,54.81L273.25,53.75L274.11,53.62L275.86,53.62L276.73,53.75L290.65,51.78L291.52,52.18L294.13,51.12L295,51.25L295.88,51.52L296.74,50.73L301.97,50.07L303.7,49.54L304.58,48.23L306.31,47.83L308.06,47.44L308.93,45.73L309.8,46.91L310.67,45.73L312.41,45.73L313.28,45.07L314.15,44.94L315.02,43.76L317.63,43.49L318.51,41.91L320.24,40.2L321.12,39.42L321.96,38.1L322.82,38.76L325.44,37.71L326.31,36L329.79,35.34L330.66,33.36L331.53,32.71L332.4,33.23L334.14,32.44L335.02,32.05L335.89,31.92L336.76,30.86L338.5,30.86L339.36,31.39L341.11,32.97L341.98,31.13L343.72,32.31L344.6,30.34L346.34,30.47L347.21,30.86L349.82,29.02L350.69,29.42L352.42,27.71L353.3,26.66L354.17,24.16L355.04,24.68L355.91,23.24L356.78,24.68L358.52,22.84L359.39,22.58L360.26,21.26L361.13,21.66L362.87,21.79L363.74,20.74L364.61,21.26L365.48,19.68L367.22,19.55L368.1,18.5L371.58,18.89L372.44,17.97L373.31,17.45L374.19,17.84L375.06,17.97L375.93,17.05L376.8,16L377.67,16.66L378.54,16.39L379.42,171.81L383.77,171.4L384.64,172.08L387.25,170.99L388.12,170.99L389.86,169.76L390.73,169.76L392.47,168.94L393.34,169.08L408.14,168.39L409.01,167.98L420.32,165.8L421.19,165.12L425.55,164.02L426.42,162.66L429.93,162.38L430.8,163.61L432.54,161.7L433.41,161.57L434.28,160.88L435.15,158.43L436.02,156.51L436.89,156.79L437.76,156.1L438.63,154.33L439.5,154.88L440.37,154.19L442.12,154.33L442.99,153.37L444.73,152.69L445.6,153.65L448.21,150.92L449.08,151.87L451.69,149.14L452.56,149.14L453.43,148.32L454.3,149.41L456.04,150.37L456.91,149.41L457.78,149.55L458.66,148.73L462.14,145.18L463.01,144.5L465.62,143.54L466.49,145.04L471.71,141.9L472.58,143.68L473.46,121.97L474.33,121.97L476.94,120.88L477.81,116.1L478.68,116.24L479.55,112.28L480.42,112.55L481.29,109.96L482.16,106.95L483.03,107.91L484.77,104.77L485.64,101.22L486.51,98.08L487.38,98.08L488.26,97.53L489.12,95.35L489.99,94.8L490.87,92.07L492.61,89.34L493.47,89.34L495.22,85.93L496.09,85.65L498.7,82.78L499.57,80.19L503.92,75L504.79,88.44L509.15,84.03L510.02,84.45L510.89,84.31L511.76,85.14L513.5,84.72L514.37,85.41L516.11,84.59L516.98,84.45L518.72,84.03L519.59,84.03L521.34,84.17L522.21,83.62L528.3,84.03L529.17,83.62L534.39,83.21L535.26,83.48L537,83.48" style="vector-effect: non-scaling-stroke; fill: none; stroke: rgb(99, 110, 250); stroke-opacity: 1; stroke-width: 2px; opacity: 1;"/></g><g class="points"/><g class="text"/></g></g></g><g class="overplot"/><path class="xlines-above crisp" d="M0,0" style="fill: none;"/><path class="ylines-above crisp" d="M0,0" style="fill: none;"/><g class="overlines-above"/><g class="xaxislayer-above"><g class="xtick"><text text-anchor="middle" x="0" y="433" transform="translate(83.25,0)" style="font-family: 'Open Sans', verdana, arial, sans-serif; font-size: 12px; fill: rgb(42, 63, 95); fill-opacity: 1; white-space: pre;"><tspan class="line" dy="0em" x="0" y="433">Aug 3</tspan><tspan class="line" dy="1.3em" x="0" y="433">2021</tspan></text></g><g class="xtick"><text text-anchor="middle" x="0" y="433" transform="translate(208.6,0)" style="font-family: 'Open Sans', verdana, arial, sans-serif; font-size: 12px; fill: rgb(42, 63, 95); fill-opacity: 1; white-space: pre;">Aug 4</text></g><g class="xtick"><text text-anchor="middle" x="0" y="433" transform="translate(333.96000000000004,0)" style="font-family: 'Open Sans', verdana, arial, sans-serif; font-size: 12px; fill: rgb(42, 63, 95); fill-opacity: 1; white-space: pre;">Aug 5</text></g><g class="xtick"><text text-anchor="middle" x="0" y="433" transform="translate(459.31,0)" style="font-family: 'Open Sans', verdana, arial, sans-serif; font-size: 12px; fill: rgb(42, 63, 95); fill-opacity: 1; white-space: pre;">Aug 6</text></g><g class="xtick"><text text-anchor="middle" x="0" y="433" transform="translate(584.6600000000001,0)" style="font-family: 'Open Sans', verdana, arial, sans-serif; font-size: 12px; fill: rgb(42, 63, 95); fill-opacity: 1; white-space: pre;">Aug 7</text></g></g><g class="yaxislayer-above"><g class="ytick"><text text-anchor="end" x="79" y="4.199999999999999" transform="translate(0,392.55)" style="font-family: 'Open Sans', verdana, arial, sans-serif; font-size: 12px; fill: rgb(42, 63, 95); fill-opacity: 1; white-space: pre;">0.864</text></g><g class="ytick"><text text-anchor="end" x="79" y="4.199999999999999" transform="translate(0,349.77)" style="font-family: 'Open Sans', verdana, arial, sans-serif; font-size: 12px; fill: rgb(42, 63, 95); fill-opacity: 1; white-space: pre;">0.865</text></g><g class="ytick"><text text-anchor="end" x="79" y="4.199999999999999" transform="translate(0,306.99)" style="font-family: 'Open Sans', verdana, arial, sans-serif; font-size: 12px; fill: rgb(42, 63, 95); fill-opacity: 1; white-space: pre;">0.866</text></g><g class="ytick"><text text-anchor="end" x="79" y="4.199999999999999" transform="translate(0,264.21000000000004)" style="font-family: 'Open Sans', verdana, arial, sans-serif; font-size: 12px; fill: rgb(42, 63, 95); fill-opacity: 1; white-space: pre;">0.867</text></g><g class="ytick"><text text-anchor="end" x="79" y="4.199999999999999" transform="translate(0,221.43)" style="font-family: 'Open Sans', verdana, arial, sans-serif; font-size: 12px; fill: rgb(42, 63, 95); fill-opacity: 1; white-space: pre;">0.868</text></g><g class="ytick"><text text-anchor="end" x="79" y="4.199999999999999" transform="translate(0,178.65)" style="font-family: 'Open Sans', verdana, arial, sans-serif; font-size: 12px; fill: rgb(42, 63, 95); fill-opacity: 1; white-space: pre;">0.869</text></g><g class="ytick"><text text-anchor="end" x="79" y="4.199999999999999" transform="translate(0,135.87)" style="font-family: 'Open Sans', verdana, arial, sans-serif; font-size: 12px; fill: rgb(42, 63, 95); fill-opacity: 1; white-space: pre;">0.87</text></g></g><g class="overaxes-above"/></g></g><g class="polarlayer"/><g class="ternarylayer"/><g class="geolayer"/><g class="funnelarealayer"/><g class="pielayer"/><g class="treemaplayer"/><g class="sunburstlayer"/><g class="glimages"/><defs id="topdefs-e2473e"><g class="clips"/><clipPath id="legende2473e"><rect width="60" height="45" x="0" y="0"/></clipPath></defs><g class="layer-above"><g class="imagelayer"/><g class="shapelayer"/></g><g class="infolayer"><g class="legend" pointer-events="all" transform="translate(627.74,100)"><rect class="bg" shape-rendering="crispEdges" width="60" height="45" x="0" y="0" style="stroke: rgb(68, 68, 68); stroke-opacity: 1; fill: rgb(255, 255, 255); fill-opacity: 1; stroke-width: 0px;"/><g class="scrollbox" transform="" clip-path="url('#legende2473e')"><text class="legendtitletext" text-anchor="start" x="2" y="15.600000000000001" style="font-family: 'Open Sans', verdana, arial, sans-serif; font-size: 12px; fill: rgb(42, 63, 95); fill-opacity: 1; white-space: pre;">All</text><g class="groups" transform=""><g class="traces" transform="translate(0,30.1)" style="opacity: 1;"><text class="legendtext" text-anchor="start" x="40" y="4.680000000000001" style="font-family: 'Open Sans', verdana, arial, sans-serif; font-size: 12px; fill: rgb(42, 63, 95); fill-opacity: 1; white-space: pre;">All</text><g class="layers" style="opacity: 1;"><g class="legendfill"/><g class="legendlines"><path class="js-line" d="M5,0h30" style="fill: none; stroke: rgb(99, 110, 250); stroke-opacity: 1; stroke-width: 2px;"/></g><g class="legendsymbols"><g class="legendpoints"/></g></g><rect class="legendtoggle" x="0" y="-9.5" width="54.890625" height="19" style="fill: rgb(0, 0, 0); fill-opacity: 0;"/></g></g></g><rect class="scrollbar" rx="20" ry="3" width="0" height="0" x="0" y="0" style="fill: rgb(128, 139, 164); fill-opacity: 1;"/></g><g class="g-gtitle"><text class="gtitle" x="35" y="50" text-anchor="start" dy="0em" style="font-family: 'Open Sans', verdana, arial, sans-serif; font-size: 17px; fill: rgb(42, 63, 95); opacity: 1; font-weight: normal; white-space: pre;">Singapore Vaccination Centers</text></g><g class="g-xtitle"><text class="xtitle" x="348.5" y="476.409375" text-anchor="middle" style="font-family: 'Open Sans', verdana, arial, sans-serif; font-size: 14px; fill: rgb(42, 63, 95); opacity: 1; font-weight: normal; white-space: pre;">Time</text></g><g class="g-ytitle"><text class="ytitle" transform="rotate(-90,19.840625000000003,260)" x="19.840625000000003" y="260" text-anchor="middle" style="font-family: 'Open Sans', verdana, arial, sans-serif; font-size: 14px; fill: rgb(42, 63, 95); opacity: 1; font-weight: normal; white-space: pre;">Filled/%</text></g></g></svg>