<svg class="main-svg" xmlns="http://www.w3.org/2000/svg" xmlns:xlink="http://www.w3.org/1999/xlink" width="700" height="500" style="" viewBox="0 0 700 500"><rect x="0" y="0" width="700" height="500" style="fill: rgb(255, 255, 255); fill-opacity: 1;"/><defs id="defs-0ff334"><g class="clips"><clipPath id="clip0ff334xyplot" class="plotclip"><rect width="537" height="320"/></clipPath><clipPath class="axesclip" id="clip0ff334x"><rect x="80" y="0" width="537" height="500"/></clipPath><clipPath class="axesclip" id="clip0ff334y"><rect x="0" y="100" width="700" height="320"/></clipPath><clipPath class="axesclip" id="clip0ff334xy"><rect x="80" y="100" width="537" height="320"/></clipPath></g><g class="gradients"/></defs><g class="bglayer"><rect class="bg" x="80" y="100" width="537" height="320" style="fill: rgb(229, 236, 246); fill-opacity: 1; stroke-width: 0;"/></g><g class="layer-below"><g class="imagelayer"/><g class="shapelayer"/></g><g class="cartesianlayer"><g class="subplot xy"><g class="layer-subplot"><g class="shapelayer"/><g class="imagelayer"/></g><g class="gridlayer"><g class="x"><path class="xgrid crisp" transform="translate(83.53,0)" d="M0,100v320" style="stroke: rgb(255, 255, 255); stroke-opacity: 1; stroke-width: 1px;"/><path class="xgrid crisp" transform="translate(219.7,0)" d="M0,100v320" style="stroke: rgb(255, 255, 255); stroke-opacity: 1; stroke-width: 1px;"/><path class="xgrid crisp" transform="translate(355.87,0)" d="M0,100v320" style="stroke: rgb(255, 255, 255); stroke-opacity: 1; stroke-width: 1px;"/><path class="xgrid crisp" transform="translate(492.03,0)" d="M0,100v320" style="stroke: rgb(255, 255, 255); stroke-opacity: 1; stroke-width: 1px;"/></g><g class="y"><path class="ygrid crisp" transform="translate(0,392.55)" d="M80,0h537" style="stroke: rgb(255, 255, 255); stroke-opacity: 1; stroke-width: 1px;"/><path class="ygrid crisp" transform="translate(0,349.77)" d="M80,0h537" style="stroke: rgb(255, 255, 255); stroke-opacity: 1; stroke-width: 1px;"/><path class="ygrid crisp" transform="translate(0,306.99)" d="M80,0h537" style="stroke: rgb(255, 255, 255); stroke-opacity: 1; stroke-width: 1px;"/><path class="ygrid crisp" transform="translate(0,264.21000000000004)" d="M80,0h537" style="stroke: rgb(255, 255, 255); stroke-opacity: 1; stroke-width: 1px;"/><path class="ygrid crisp" transform="translate(0,221.43)" d="M80,0h537" style="stroke: rgb(255, 255, 255); stroke-opacity: 1; stroke-width: 1px;"/><path class="ygrid crisp" transform="translate(0,178.65)" d="M80,0h537" style="stroke: rgb(255, 255, 255); stroke-opacity: 1; stroke-width: 1px;"/><path class="ygrid crisp" transform="translate(0,135.87)" d="M80,0h537" style="stroke: rgb(255, 255, 255); stroke-opacity: 1; stroke-width: 1px;"/></g></g><g class="zerolinelayer"/><path class="xlines-below"/><path class="ylines-below"/><g class="overlines-below"/><g class="xaxislayer-below"/><g class="yaxislayer-below"/><g class="overaxes-below"/><g class="plot" transform="translate(80,100)" clip-path="url('#clip0ff334xyplot')"><g class="scatterlayer mlayer"><g class="trace scatter traceb1f4b7" style="stroke-miterlimit: 2; opacity: 1;"><g class="fills"/><g class="errorbars"/><g class="lines"><path class="js-line" d="M0,304L2.72,302.59L3.67,249.74L4.62,251.04L5.56,249.35L9.34,248.71L10.29,248.32L12.18,249.1L13.13,248.19L15.02,248.58L15.97,248.19L16.91,248.45L17.85,247.93L23.53,246.9L24.47,247.16L29.21,246.77L30.15,246.51L35.82,246.12L36.77,245.73L38.66,245.86L39.61,245.22L41.49,245.09L42.44,244.44L43.39,244.96L44.33,244.57L45.27,243.66L46.22,243.92L47.17,244.57L48.12,243.02L50.95,242.11L51.89,242.63L52.84,242.24L53.79,243.15L54.73,242.24L55.68,240.17L57.57,240.69L58.51,239.78L62.3,237.84L63.24,236.94L65.13,238.23L66.08,237.07L67.02,235L67.97,235.51L68.91,236.55L69.86,235L71.75,232.67L72.7,232.28L74.59,230.6L75.54,231.12L77.42,229.95L78.37,230.21L79.32,231.76L80.26,229.56L83.1,230.6L84.05,230.21L85.94,226.46L86.88,226.07L87.83,226.85L88.77,225.55L89.72,225.68L90.66,227.36L91.61,227.11L92.56,225.55L96.34,221.16L97.28,218.44L98.23,219.09L99.17,217.66L100.12,216.63L101.07,217.4L102.96,217.66L103.9,218.7L107.69,216.5L108.63,216.37L110.52,215.72L111.47,214.69L112.41,214.3L113.36,214.82L115.25,215.98L116.19,214.43L119.03,213.39L119.98,212.88L121.87,212.23L122.82,211.45L125.65,212.23L126.6,211.84L128.49,211.58L129.44,211.84L131.32,210.42L132.27,208.87L134.16,207.7L135.11,206.93L137,207.96L137.94,207.44L138.89,207.96L139.84,142.27L142.67,140.18L143.62,140.44L145.51,139.92L146.46,139.01L148.35,139.14L149.3,139.14L153.08,138.48L154.02,138.35L156.86,137.83L157.8,137.96L166.31,137.96L167.26,138.09L173.88,137.83L174.82,137.18L177.66,137.18L178.6,136.14L182.38,136.27L183.33,135.74L185.22,135.88L186.17,135.22L188.06,134.57L189,135.22L191.84,132.22L192.78,132.22L193.73,133.27L194.68,132.88L196.57,131.57L197.52,132.22L201.3,128.44L202.24,130.14L206.02,127.14L206.97,128.05L208.86,126.48L209.81,127.66L210.75,128.7L211.7,127.79L212.65,128.83L213.59,128.31L214.53,127.4L215.48,128.44L216.43,127.79L217.37,128.18L220.21,128.83L221.16,128.44L223.06,126.48L224,125.05L225.89,124.92L226.84,125.44L227.79,125.96L228.74,124.01L232.52,123.09L233.47,121.4L236.3,122.44L237.25,121.92L239.14,118.4L240.08,119.96L241.03,119.96L241.98,118.79L242.92,119.7L243.86,119.18L245.76,117.35L246.7,117.48L249.54,114.35L250.48,114.48L252.38,112.14L253.32,112.92L255.21,110.83L256.16,111.35L258.99,110.7L259.94,108.09L260.88,107.96L261.83,106.92L262.78,105.48L263.72,105.74L264.67,106L265.61,107.18L266.56,107.83L267.5,107.18L268.46,109.13L269.4,108.35L270.34,108.22L271.28,106.66L272.23,106.27L273.18,106.79L275.07,107.05L276.02,61.25L277.9,59.41L278.85,59.15L281.69,57.57L282.63,57.17L284.52,57.04L285.47,56.78L289.25,55.46L290.2,54.54L292.09,54.28L293.04,54.81L296.82,53.75L297.76,53.62L299.65,53.62L300.6,53.75L315.73,51.78L316.67,52.18L319.51,51.12L320.45,51.25L321.4,51.52L322.34,50.73L328.02,50.07L329.91,49.54L330.85,48.23L332.74,47.83L334.63,47.44L335.58,45.73L336.53,46.91L337.48,45.73L339.37,45.73L340.31,45.07L341.26,44.94L342.2,43.76L345.04,43.49L345.98,41.91L347.87,40.2L348.82,39.42L349.74,38.1L350.68,38.76L353.52,37.71L354.46,36L358.25,35.34L359.19,33.36L360.14,32.71L361.08,33.23L362.97,32.44L363.92,32.05L364.87,31.92L365.81,30.86L367.7,30.86L368.64,31.39L370.53,32.97L371.49,31.13L373.38,32.31L374.33,30.34L376.22,30.47L377.16,30.86L380,29.02L380.94,29.42L382.83,27.71L383.78,26.66L384.72,24.16L385.67,24.68L386.61,23.24L387.56,24.68L389.45,22.84L390.4,22.58L391.34,21.26L392.28,21.66L394.18,21.79L395.12,20.74L396.07,21.26L397.02,19.68L398.9,19.55L399.85,18.5L403.63,18.89L404.58,17.97L405.52,17.45L406.47,17.84L407.42,17.97L408.36,17.05L409.31,16L410.25,16.66L411.2,16.39L412.15,171.81L416.87,171.4L417.82,172.08L420.66,170.99L421.6,170.99L423.5,169.76L424.44,169.76L426.33,168.94L427.27,169.08L443.35,168.39L444.29,167.98L456.58,165.8L457.53,165.12L462.26,164.02L463.21,162.66L467.02,162.38L467.96,163.61L469.86,161.7L470.8,161.57L471.75,160.88L472.69,158.43L473.63,156.51L474.58,156.79L475.53,156.1L476.47,154.33L477.42,154.88L478.36,154.19L480.26,154.33L481.21,153.37L483.09,152.69L484.04,153.65L485.93,152.01L486.88,150.92L487.82,151.87L488.77,150.64L490.66,149.14L491.61,149.14L492.55,148.32L493.5,149.41L495.39,150.37L496.33,149.41L497.28,149.55L498.23,148.73L502.01,145.18L502.96,144.5L505.79,143.54L506.74,145.04L512.41,141.9L513.35,143.68L514.3,121.97L515.25,121.97L518.08,120.88L519.03,116.1L519.97,116.24L520.92,112.28L521.87,112.55L522.81,109.96L523.76,106.95L524.7,107.91L526.59,104.77L527.54,101.22L528.49,98.08L529.43,98.08L530.38,97.53L531.32,95.35L532.27,94.8L533.22,92.07L535.1,89.34L536.05,89.34L537,87.43" style="vector-effect: non-scaling-stroke; fill: none; stroke: rgb(99, 110, 250); stroke-opacity: 1; stroke-width: 2px; opacity: 1;"/></g><g class="points"/><g class="text"/></g></g></g><g class="overplot"/><path class="xlines-above crisp" d="M0,0" style="fill: none;"/><path class="ylines-above crisp" d="M0,0" style="fill: none;"/><g class="overlines-above"/><g class="xaxislayer-above"><g class="xtick"><text text-anchor="middle" x="0" y="433" transform="translate(83.53,0)" style="font-family: 'Open Sans', verdana, arial, sans-serif; font-size: 12px; fill: rgb(42, 63, 95); fill-opacity: 1; white-space: pre;"><tspan class="line" dy="0em" x="0" y="433">Aug 3</tspan><tspan class="line" dy="1.3em" x="0" y="433">2021</tspan></text></g><g class="xtick"><text text-anchor="middle" x="0" y="433" transform="translate(219.7,0)" style="font-family: 'Open Sans', verdana, arial, sans-serif; font-size: 12px; fill: rgb(42, 63, 95); fill-opacity: 1; white-space: pre;">Aug 4</text></g><g class="xtick"><text text-anchor="middle" x="0" y="433" transform="translate(355.87,0)" style="font-family: 'Open Sans', verdana, arial, sans-serif; font-size: 12px; fill: rgb(42, 63, 95); fill-opacity: 1; white-space: pre;">Aug 5</text></g><g class="xtick"><text text-anchor="middle" x="0" y="433" transform="translate(492.03,0)" style="font-family: 'Open Sans', verdana, arial, sans-serif; font-size: 12px; fill: rgb(42, 63, 95); fill-opacity: 1; white-space: pre;">Aug 6</text></g></g><g class="yaxislayer-above"><g class="ytick"><text text-anchor="end" x="79" y="4.199999999999999" transform="translate(0,392.55)" style="font-family: 'Open Sans', verdana, arial, sans-serif; font-size: 12px; fill: rgb(42, 63, 95); fill-opacity: 1; white-space: pre;">0.864</text></g><g class="ytick"><text text-anchor="end" x="79" y="4.199999999999999" transform="translate(0,349.77)" style="font-family: 'Open Sans', verdana, arial, sans-serif; font-size: 12px; fill: rgb(42, 63, 95); fill-opacity: 1; white-space: pre;">0.865</text></g><g class="ytick"><text text-anchor="end" x="79" y="4.199999999999999" transform="translate(0,306.99)" style="font-family: 'Open Sans', verdana, arial, sans-serif; font-size: 12px; fill: rgb(42, 63, 95); fill-opacity: 1; white-space: pre;">0.866</text></g><g class="ytick"><text text-anchor="end" x="79" y="4.199999999999999" transform="translate(0,264.21000000000004)" style="font-family: 'Open Sans', verdana, arial, sans-serif; font-size: 12px; fill: rgb(42, 63, 95); fill-opacity: 1; white-space: pre;">0.867</text></g><g class="ytick"><text text-anchor="end" x="79" y="4.199999999999999" transform="translate(0,221.43)" style="font-family: 'Open Sans', verdana, arial, sans-serif; font-size: 12px; fill: rgb(42, 63, 95); fill-opacity: 1; white-space: pre;">0.868</text></g><g class="ytick"><text text-anchor="end" x="79" y="4.199999999999999" transform="translate(0,178.65)" style="font-family: 'Open Sans', verdana, arial, sans-serif; font-size: 12px; fill: rgb(42, 63, 95); fill-opacity: 1; white-space: pre;">0.869</text></g><g class="ytick"><text text-anchor="end" x="79" y="4.199999999999999" transform="translate(0,135.87)" style="font-family: 'Open Sans', verdana, arial, sans-serif; font-size: 12px; fill: rgb(42, 63, 95); fill-opacity: 1; white-space: pre;">0.87</text></g></g><g class="overaxes-above"/></g></g><g class="polarlayer"/><g class="ternarylayer"/><g class="geolayer"/><g class="funnelarealayer"/><g class="pielayer"/><g class="treemaplayer"/><g class="sunburstlayer"/><g class="glimages"/><defs id="topdefs-0ff334"><g class="clips"/><clipPath id="legend0ff334"><rect width="60" height="45" x="0" y="0"/></clipPath></defs><g class="layer-above"><g class="imagelayer"/><g class="shapelayer"/></g><g class="infolayer"><g class="legend" pointer-events="all" transform="translate(627.74,100)"><rect class="bg" shape-rendering="crispEdges" width="60" height="45" x="0" y="0" style="stroke: rgb(68, 68, 68); stroke-opacity: 1; fill: rgb(255, 255, 255); fill-opacity: 1; stroke-width: 0px;"/><g class="scrollbox" transform="" clip-path="url('#legend0ff334')"><text class="legendtitletext" text-anchor="start" x="2" y="15.600000000000001" style="font-family: 'Open Sans', verdana, arial, sans-serif; font-size: 12px; fill: rgb(42, 63, 95); fill-opacity: 1; white-space: pre;">All</text><g class="groups" transform=""><g class="traces" transform="translate(0,30.1)" style="opacity: 1;"><text class="legendtext" text-anchor="start" x="40" y="4.680000000000001" style="font-family: 'Open Sans', verdana, arial, sans-serif; font-size: 12px; fill: rgb(42, 63, 95); fill-opacity: 1; white-space: pre;">All</text><g class="layers" style="opacity: 1;"><g class="legendfill"/><g class="legendlines"><path class="js-line" d="M5,0h30" style="fill: none; stroke: rgb(99, 110, 250); stroke-opacity: 1; stroke-width: 2px;"/></g><g class="legendsymbols"><g class="legendpoints"/></g></g><rect class="legendtoggle" x="0" y="-9.5" width="54.890625" height="19" style="fill: rgb(0, 0, 0); fill-opacity: 0;"/></g></g></g><rect class="scrollbar" rx="20" ry="3" width="0" height="0" x="0" y="0" style="fill: rgb(128, 139, 164); fill-opacity: 1;"/></g><g class="g-gtitle"><text class="gtitle" x="35" y="50" text-anchor="start" dy="0em" style="font-family: 'Open Sans', verdana, arial, sans-serif; font-size: 17px; fill: rgb(42, 63, 95); opacity: 1; font-weight: normal; white-space: pre;">Singapore Vaccination Centers</text></g><g class="g-xtitle"><text class="xtitle" x="348.5" y="476.409375" text-anchor="middle" style="font-family: 'Open Sans', verdana, arial, sans-serif; font-size: 14px; fill: rgb(42, 63, 95); opacity: 1; font-weight: normal; white-space: pre;">Time</text></g><g class="g-ytitle"><text class="ytitle" transform="rotate(-90,19.840625000000003,260)" x="19.840625000000003" y="260" text-anchor="middle" style="font-family: 'Open Sans', verdana, arial, sans-serif; font-size: 14px; fill: rgb(42, 63, 95); opacity: 1; font-weight: normal; white-space: pre;">Filled/%</text></g></g></svg>