<svg class="main-svg" xmlns="http://www.w3.org/2000/svg" xmlns:xlink="http://www.w3.org/1999/xlink" width="700" height="500" style="" viewBox="0 0 700 500"><rect x="0" y="0" width="700" height="500" style="fill: rgb(255, 255, 255); fill-opacity: 1;"/><defs id="defs-4b4323"><g class="clips"><clipPath id="clip4b4323xyplot" class="plotclip"><rect width="537" height="320"/></clipPath><clipPath class="axesclip" id="clip4b4323x"><rect x="80" y="0" width="537" height="500"/></clipPath><clipPath class="axesclip" id="clip4b4323y"><rect x="0" y="100" width="700" height="320"/></clipPath><clipPath class="axesclip" id="clip4b4323xy"><rect x="80" y="100" width="537" height="320"/></clipPath></g><g class="gradients"/></defs><g class="bglayer"><rect class="bg" x="80" y="100" width="537" height="320" style="fill: rgb(229, 236, 246); fill-opacity: 1; stroke-width: 0;"/></g><g class="layer-below"><g class="imagelayer"/><g class="shapelayer"/></g><g class="cartesianlayer"><g class="subplot xy"><g class="layer-subplot"><g class="shapelayer"/><g class="imagelayer"/></g><g class="gridlayer"><g class="x"><path class="xgrid crisp" transform="translate(89.42,0)" d="M0,100v320" style="stroke: rgb(255, 255, 255); stroke-opacity: 1; stroke-width: 1px;"/><path class="xgrid crisp" transform="translate(190.91,0)" d="M0,100v320" style="stroke: rgb(255, 255, 255); stroke-opacity: 1; stroke-width: 1px;"/><path class="xgrid crisp" transform="translate(292.4,0)" d="M0,100v320" style="stroke: rgb(255, 255, 255); stroke-opacity: 1; stroke-width: 1px;"/><path class="xgrid crisp" transform="translate(393.89,0)" d="M0,100v320" style="stroke: rgb(255, 255, 255); stroke-opacity: 1; stroke-width: 1px;"/><path class="xgrid crisp" transform="translate(495.38,0)" d="M0,100v320" style="stroke: rgb(255, 255, 255); stroke-opacity: 1; stroke-width: 1px;"/><path class="xgrid crisp" transform="translate(596.87,0)" d="M0,100v320" style="stroke: rgb(255, 255, 255); stroke-opacity: 1; stroke-width: 1px;"/></g><g class="y"><path class="ygrid crisp" transform="translate(0,367.23)" d="M80,0h537" style="stroke: rgb(255, 255, 255); stroke-opacity: 1; stroke-width: 1px;"/><path class="ygrid crisp" transform="translate(0,308.43)" d="M80,0h537" style="stroke: rgb(255, 255, 255); stroke-opacity: 1; stroke-width: 1px;"/><path class="ygrid crisp" transform="translate(0,249.63)" d="M80,0h537" style="stroke: rgb(255, 255, 255); stroke-opacity: 1; stroke-width: 1px;"/><path class="ygrid crisp" transform="translate(0,190.82999999999998)" d="M80,0h537" style="stroke: rgb(255, 255, 255); stroke-opacity: 1; stroke-width: 1px;"/><path class="ygrid crisp" transform="translate(0,132.03)" d="M80,0h537" style="stroke: rgb(255, 255, 255); stroke-opacity: 1; stroke-width: 1px;"/></g></g><g class="zerolinelayer"/><path class="xlines-below"/><path class="ylines-below"/><g class="overlines-below"/><g class="xaxislayer-below"/><g class="yaxislayer-below"/><g class="overaxes-below"/><g class="plot" transform="translate(80,100)" clip-path="url('#clip4b4323xyplot')"><g class="scatterlayer mlayer"><g class="trace scatter trace31c6df" style="stroke-miterlimit: 2; opacity: 1;"><g class="fills"/><g class="errorbars"/><g class="lines"><path class="js-line" d="M0,82.28L5.95,82.51L8.06,120.48L12.27,120.57L13.83,136.92L14.49,136.9L30.05,137.96L31.02,121.23L31.32,129.62L32.02,129.56L33.43,126.37L34.14,126.27L35.54,129.79L36.25,129.7L37.66,132.71L38.36,132.63L39.77,120.69L40.48,120.62L41.89,132.64L42.59,132.55L44,126.68L46.82,109.51L48.23,94.58L48.93,92.89L50.34,74.17L51.05,72.87L52.46,78.78L53.16,77.73L54.57,63.68L55.28,62.82L56.69,65.47L57.39,64.83L58.8,74.27L59.51,73.83L60.44,51.83L61.62,52.34L62.33,52.21L70.08,51.78L70.78,51.77L79.24,51.11L79.94,50.91L103.91,42.44L104.61,42.24L110.25,40.95L110.96,41.79L122.94,41.47L123.64,41.46L134.21,40.8L134.92,40.69L160.99,36.83L161.7,35.53L189.18,34L189.89,33.87L211.74,31.05L212.45,28.56L236.41,27.81L237.12,95.38L244.89,93.57L245.57,93.44L246.28,93.12L246.98,91.51L249.1,88.51L249.8,87.52L253.32,73.59L254.03,72.39L258.26,67.88L258.96,67.37L262.49,65.43L263.19,65.5L268.13,64.8L268.83,64.77L284.34,63.66L285.04,63.48L289.97,61.32L290.68,60.89L291.38,60.46L292.09,62.78L294.91,61.15L295.61,59.94L299.84,53.24L300.55,52.44L303.36,47.98L304.07,45.51L306.89,38.66L307.59,37.65L311.82,32.89L312.55,32.47L314.64,31.98L315.35,31.8L320.98,31.18L321.69,31.16L332.26,30.17L332.96,29.9L337.19,28.09L337.9,74.81L340.01,72.76L340.72,72.32L347.06,69.16L347.77,68.8L348.31,71.93L348.47,68.39L349.14,68.25L349.18,69.25L349.85,67.95L349.88,68.94L350.58,68.62L352,68.09L352.7,76.43L358.87,73.91L358.9,72.31L358.93,72.03L359.04,73.74L365.74,44.74L366.09,44.87L366.45,41.95L367.15,42.12L367.5,43.2L368.56,37.43L368.91,41.6L369.97,39.66L370.32,39.05L371.38,38.13L371.73,38.96L372.79,38.42L373.14,38.33L373.85,38.4L374.2,43.02L378.07,41.69L378.42,36.5L379.13,35.76L379.48,35.39L381.24,31.97L381.59,32.01L383.71,22.43L384.06,16L384.41,16.8L384.77,140.18L385.12,139.22L385.47,142.07L386.18,136.79L386.53,138.99L386.88,137.43L387.24,136.15L387.59,136.63L387.94,141.25L388.29,146.68L388.64,133.42L389.35,138.09L389.7,157.2L390.76,133.53L391.11,145.44L391.46,148.42L391.81,146.68L392.17,144.02L392.87,134.36L393.22,135.71L393.57,141.84L393.93,146.05L394.28,142.1L394.63,141.74L394.98,151.77L395.34,141.68L395.69,140.84L396.04,148.68L396.39,138.39L396.75,127.07L397.1,137.58L397.45,139.13L397.81,140.49L398.16,138.92L398.51,134.18L399.57,129.31L399.92,138.25L400.27,134.05L400.62,138.68L400.98,138.81L401.68,131.42L402.03,140.05L402.74,132.48L403.09,138.41L403.8,141.46L404.15,128.79L404.85,142.96L405.21,264.58L406.26,293.12L406.62,304L406.97,286.22L407.32,301.52L407.67,291.75L408.03,292.1L408.38,291.07L408.73,294.16L409.08,293.46L409.43,276.02L409.79,283.67L410.14,262.28L410.84,272.54L411.2,248.89L411.9,241.71L412.25,229.6L412.61,224.98L412.96,228.24L413.31,227.36L414.37,215.22L414.72,217.06L415.07,216.4L416.13,228.38L416.48,228.68L416.83,224.72L417.19,233.57L417.54,224.28L417.89,225.36L418.24,227.75L418.6,223.07L418.95,225.77L419.3,226.33L419.66,223.26L420.01,224.52L420.36,234.01L420.71,220.81L421.07,231.91L421.42,224.2L423.53,212.72L423.88,220.76L424.59,220.72L424.94,223.7L425.29,223.67L425.64,219.37L426,223.08L426.35,218.62L426.7,226.76L427.05,225.2L427.41,224.19L427.76,219.51L428.11,225.16L429.17,225.11L429.52,216.49L429.87,225.05L430.23,220.43L430.58,220.57L430.93,218.19L431.28,220.92L431.64,219.84L431.99,227.36L432.34,216.65L433.4,220.31L433.75,220.98L434.1,218.78L434.45,222.11L434.8,223.64L435.16,218.66L435.51,205.85L435.87,215.25L436.22,220.32L436.57,206.18L436.92,206.81L437.27,214.16L437.63,214.11L437.98,206.99L438.69,212.47L439.04,202.23L439.39,199.24L439.74,208.71L440.1,224.84L440.44,215.2L440.8,214.49L441.15,205.74L441.5,219.6L442.21,195.82L442.56,209.77L442.91,208.24L443.26,203.32L443.61,202.05L443.97,205.17L444.32,200.81L444.67,208.16L445.02,206.35L445.38,209.96L445.73,207.44L446.08,196.45L446.43,195.36L446.79,196.45L447.14,201.41L448.2,210.92L448.55,197.09L448.9,197.31L449.25,191.05L449.61,191.24L449.96,196.07L450.31,200.65L450.66,194.37L451.72,210.5L452.07,204.27L452.78,191.94L453.13,193.62L453.48,197L453.84,205.03L454.19,197.14L454.54,198.57L455.95,184.28L456.3,189.51L457.01,194.59L457.36,189.23L457.71,191.91L458.06,189.81L458.42,182.31L458.77,187.7L459.12,187L459.47,183.28L459.83,186.18L460.18,185.69L460.54,181.61L460.89,182.61L461.24,186.54L461.94,187.68L462.29,186.58L462.65,181.49L463,187.81L463.7,185.81L464.06,187.22L464.77,187L465.12,190.98L465.47,190.65L465.82,194.82L466.17,189.57L466.52,183.36L466.87,189.2L467.23,186.45L468.29,187.85L468.64,183.53L469.7,187.65L470.05,184.59L470.75,184.25L471.1,185.71L472.16,187.29L472.51,197.68L472.86,197.68L473.22,195.53L473.57,195.52L473.92,190.33L474.28,190.33L474.63,186.49L476.04,194.95L476.39,194.95L476.74,195.4L477.09,193.58L477.45,193.58L477.8,187.5L478.5,187.5L478.86,190.84L479.91,186.75L480.27,187.03L480.62,187.03L480.97,188.23L483.79,181.13L484.14,187.27L484.49,190.9L484.85,187.7L485.2,181.79L485.55,180.91L485.9,182.93L486.25,184.81L486.61,179.55L487.31,190.44L487.67,182.8L488.02,183.07L488.37,174.64L489.43,185.09L489.78,181.21L490.13,181.99L490.48,185.79L490.84,171.39L491.19,177.83L491.54,175.21L491.89,180.5L492.25,179.53L492.6,177.22L494.01,187.84L494.36,182.58L494.71,175.16L495.07,180.33L495.42,178.23L496.12,176.4L496.48,185.95L496.83,175.93L497.18,196.82L498.24,173.22L498.59,177.47L498.94,180.21L499.29,180.03L499.65,179.15L500.35,179.35L500.7,181.21L502.11,176.9L502.47,176.97L503.17,169.69L503.52,173.52L503.88,176.28L504.23,172.21L504.58,173.97L504.93,171L505.64,180.19L505.99,175.33L506.34,171.32L506.69,174.66L507.05,174.4L507.4,183.64L507.75,176L508.11,180.08L508.46,179.71L508.81,181.54L509.51,173.38L509.87,176.61L510.22,186.68L510.57,171.47L510.92,173.34L511.27,176.71L511.63,180.06L511.99,191.51L512.69,169.64L513.04,179.24L513.39,185.08L513.74,178.84L514.1,180.35L514.8,173.52L515.37,177.41L515.86,175.84L516.21,172.35L516.92,178.87L517.27,178.77L517.62,176.54L518.68,180.35L519.03,181.62L519.38,181.6L519.73,184.49L520.09,177.62L520.44,178.94L520.79,178.93L521.14,178.92L521.5,174.71L522.2,182.31L522.56,181.81L522.91,181.81L523.26,181.29L523.61,185.14L524.32,181.68L524.67,185.76L525.37,177.83L525.72,178.11L526.08,178.11L527.49,178.1L527.84,181.35L528.9,177.13L529.25,180.97L529.6,182.3L529.95,178.08L530.31,173.89L530.66,174.32L531.01,178.07L531.36,178.06L531.72,182.07L532.07,173.86L532.42,174.82L532.77,179.2L533.48,175.06L533.83,180.13L534.53,171.51L534.88,183.74L535.24,184.31L535.59,181.03L535.94,176.05L536.29,182.38L536.65,173.59L537,174.64" style="vector-effect: non-scaling-stroke; fill: none; stroke: rgb(99, 110, 250); stroke-opacity: 1; stroke-width: 2px; opacity: 1;"/></g><g class="points"/><g class="text"/></g></g></g><g class="overplot"/><path class="xlines-above crisp" d="M0,0" style="fill: none;"/><path class="ylines-above crisp" d="M0,0" style="fill: none;"/><g class="overlines-above"/><g class="xaxislayer-above"><g class="xtick"><text text-anchor="middle" x="0" y="433" transform="translate(89.42,0)" style="font-family: 'Open Sans', verdana, arial, sans-serif; font-size: 12px; fill: rgb(42, 63, 95); fill-opacity: 1; white-space: pre;"><tspan class="line" dy="0em" x="0" y="433">Jun 4</tspan><tspan class="line" dy="1.3em" x="0" y="433">2021</tspan></text></g><g class="xtick"><text text-anchor="middle" x="0" y="433" transform="translate(190.91,0)" style="font-family: 'Open Sans', verdana, arial, sans-serif; font-size: 12px; fill: rgb(42, 63, 95); fill-opacity: 1; white-space: pre;">Jun 6</text></g><g class="xtick"><text text-anchor="middle" x="0" y="433" transform="translate(292.4,0)" style="font-family: 'Open Sans', verdana, arial, sans-serif; font-size: 12px; fill: rgb(42, 63, 95); fill-opacity: 1; white-space: pre;">Jun 8</text></g><g class="xtick"><text text-anchor="middle" x="0" y="433" transform="translate(393.89,0)" style="font-family: 'Open Sans', verdana, arial, sans-serif; font-size: 12px; fill: rgb(42, 63, 95); fill-opacity: 1; white-space: pre;">Jun 10</text></g><g class="xtick"><text text-anchor="middle" x="0" y="433" transform="translate(495.38,0)" style="font-family: 'Open Sans', verdana, arial, sans-serif; font-size: 12px; fill: rgb(42, 63, 95); fill-opacity: 1; white-space: pre;">Jun 12</text></g><g class="xtick"><text text-anchor="middle" x="0" y="433" transform="translate(596.87,0)" style="font-family: 'Open Sans', verdana, arial, sans-serif; font-size: 12px; fill: rgb(42, 63, 95); fill-opacity: 1; white-space: pre;">Jun 14</text></g></g><g class="yaxislayer-above"><g class="ytick"><text text-anchor="end" x="79" y="4.199999999999999" transform="translate(0,367.23)" style="font-family: 'Open Sans', verdana, arial, sans-serif; font-size: 12px; fill: rgb(42, 63, 95); fill-opacity: 1; white-space: pre;">0.8</text></g><g class="ytick"><text text-anchor="end" x="79" y="4.199999999999999" transform="translate(0,308.43)" style="font-family: 'Open Sans', verdana, arial, sans-serif; font-size: 12px; fill: rgb(42, 63, 95); fill-opacity: 1; white-space: pre;">0.82</text></g><g class="ytick"><text text-anchor="end" x="79" y="4.199999999999999" transform="translate(0,249.63)" style="font-family: 'Open Sans', verdana, arial, sans-serif; font-size: 12px; fill: rgb(42, 63, 95); fill-opacity: 1; white-space: pre;">0.84</text></g><g class="ytick"><text text-anchor="end" x="79" y="4.199999999999999" transform="translate(0,190.82999999999998)" style="font-family: 'Open Sans', verdana, arial, sans-serif; font-size: 12px; fill: rgb(42, 63, 95); fill-opacity: 1; white-space: pre;">0.86</text></g><g class="ytick"><text text-anchor="end" x="79" y="4.199999999999999" transform="translate(0,132.03)" style="font-family: 'Open Sans', verdana, arial, sans-serif; font-size: 12px; fill: rgb(42, 63, 95); fill-opacity: 1; white-space: pre;">0.88</text></g></g><g class="overaxes-above"/></g></g><g class="polarlayer"/><g class="ternarylayer"/><g class="geolayer"/><g class="funnelarealayer"/><g class="pielayer"/><g class="treemaplayer"/><g class="sunburstlayer"/><g class="glimages"/><defs id="topdefs-4b4323"><g class="clips"/><clipPath id="legend4b4323"><rect width="60" height="45" x="0" y="0"/></clipPath></defs><g class="layer-above"><g class="imagelayer"/><g class="shapelayer"/></g><g class="infolayer"><g class="legend" pointer-events="all" transform="translate(627.74,100)"><rect class="bg" shape-rendering="crispEdges" width="60" height="45" x="0" y="0" style="stroke: rgb(68, 68, 68); stroke-opacity: 1; fill: rgb(255, 255, 255); fill-opacity: 1; stroke-width: 0px;"/><g class="scrollbox" transform="" clip-path="url('#legend4b4323')"><text class="legendtitletext" text-anchor="start" x="2" y="15.600000000000001" style="font-family: 'Open Sans', verdana, arial, sans-serif; font-size: 12px; fill: rgb(42, 63, 95); fill-opacity: 1; white-space: pre;">All</text><g class="groups" transform=""><g class="traces" transform="translate(0,30.1)" style="opacity: 1;"><text class="legendtext" text-anchor="start" x="40" y="4.680000000000001" style="font-family: 'Open Sans', verdana, arial, sans-serif; font-size: 12px; fill: rgb(42, 63, 95); fill-opacity: 1; white-space: pre;">All</text><g class="layers" style="opacity: 1;"><g class="legendfill"/><g class="legendlines"><path class="js-line" d="M5,0h30" style="fill: none; stroke: rgb(99, 110, 250); stroke-opacity: 1; stroke-width: 2px;"/></g><g class="legendsymbols"><g class="legendpoints"/></g></g><rect class="legendtoggle" x="0" y="-9.5" width="54.890625" height="19" style="fill: rgb(0, 0, 0); fill-opacity: 0;"/></g></g></g><rect class="scrollbar" rx="20" ry="3" width="0" height="0" x="0" y="0" style="fill: rgb(128, 139, 164); fill-opacity: 1;"/></g><g class="g-gtitle"><text class="gtitle" x="35" y="50" text-anchor="start" dy="0em" style="font-family: 'Open Sans', verdana, arial, sans-serif; font-size: 17px; fill: rgb(42, 63, 95); opacity: 1; font-weight: normal; white-space: pre;">Singapore Vaccination Centers</text></g><g class="g-xtitle"><text class="xtitle" x="348.5" y="476.409375" text-anchor="middle" style="font-family: 'Open Sans', verdana, arial, sans-serif; font-size: 14px; fill: rgb(42, 63, 95); opacity: 1; font-weight: normal; white-space: pre;">Time</text></g><g class="g-ytitle"><text class="ytitle" transform="rotate(-90,27.481250000000003,260)" x="27.481250000000003" y="260" text-anchor="middle" style="font-family: 'Open Sans', verdana, arial, sans-serif; font-size: 14px; fill: rgb(42, 63, 95); opacity: 1; font-weight: normal; white-space: pre;">Filled/%</text></g></g></svg>