<svg class="main-svg" xmlns="http://www.w3.org/2000/svg" xmlns:xlink="http://www.w3.org/1999/xlink" width="700" height="500" style="" viewBox="0 0 700 500"><rect x="0" y="0" width="700" height="500" style="fill: rgb(255, 255, 255); fill-opacity: 1;"/><defs id="defs-e22043"><g class="clips"><clipPath id="clipe22043xyplot" class="plotclip"><rect width="537" height="320"/></clipPath><clipPath class="axesclip" id="clipe22043x"><rect x="80" y="0" width="537" height="500"/></clipPath><clipPath class="axesclip" id="clipe22043y"><rect x="0" y="100" width="700" height="320"/></clipPath><clipPath class="axesclip" id="clipe22043xy"><rect x="80" y="100" width="537" height="320"/></clipPath></g><g class="gradients"/></defs><g class="bglayer"><rect class="bg" x="80" y="100" width="537" height="320" style="fill: rgb(229, 236, 246); fill-opacity: 1; stroke-width: 0;"/></g><g class="layer-below"><g class="imagelayer"/><g class="shapelayer"/></g><g class="cartesianlayer"><g class="subplot xy"><g class="layer-subplot"><g class="shapelayer"/><g class="imagelayer"/></g><g class="gridlayer"><g class="x"><path class="xgrid crisp" transform="translate(89.8,0)" d="M0,100v320" style="stroke: rgb(255, 255, 255); stroke-opacity: 1; stroke-width: 1px;"/><path class="xgrid crisp" transform="translate(195.3,0)" d="M0,100v320" style="stroke: rgb(255, 255, 255); stroke-opacity: 1; stroke-width: 1px;"/><path class="xgrid crisp" transform="translate(300.81,0)" d="M0,100v320" style="stroke: rgb(255, 255, 255); stroke-opacity: 1; stroke-width: 1px;"/><path class="xgrid crisp" transform="translate(406.31,0)" d="M0,100v320" style="stroke: rgb(255, 255, 255); stroke-opacity: 1; stroke-width: 1px;"/><path class="xgrid crisp" transform="translate(511.81,0)" d="M0,100v320" style="stroke: rgb(255, 255, 255); stroke-opacity: 1; stroke-width: 1px;"/></g><g class="y"><path class="ygrid crisp" transform="translate(0,367.23)" d="M80,0h537" style="stroke: rgb(255, 255, 255); stroke-opacity: 1; stroke-width: 1px;"/><path class="ygrid crisp" transform="translate(0,308.43)" d="M80,0h537" style="stroke: rgb(255, 255, 255); stroke-opacity: 1; stroke-width: 1px;"/><path class="ygrid crisp" transform="translate(0,249.63)" d="M80,0h537" style="stroke: rgb(255, 255, 255); stroke-opacity: 1; stroke-width: 1px;"/><path class="ygrid crisp" transform="translate(0,190.82999999999998)" d="M80,0h537" style="stroke: rgb(255, 255, 255); stroke-opacity: 1; stroke-width: 1px;"/><path class="ygrid crisp" transform="translate(0,132.03)" d="M80,0h537" style="stroke: rgb(255, 255, 255); stroke-opacity: 1; stroke-width: 1px;"/></g></g><g class="zerolinelayer"/><path class="xlines-below"/><path class="ylines-below"/><g class="overlines-below"/><g class="xaxislayer-below"/><g class="yaxislayer-below"/><g class="overaxes-below"/><g class="plot" transform="translate(80,100)" clip-path="url('#clipe22043xyplot')"><g class="scatterlayer mlayer"><g class="trace scatter trace931e83" style="stroke-miterlimit: 2; opacity: 1;"><g class="fills"/><g class="errorbars"/><g class="lines"><path class="js-line" d="M0,82.28L6.19,82.51L8.38,120.48L12.75,120.57L14.38,136.92L15.06,136.9L31.24,137.96L32.25,121.23L32.55,129.62L33.29,129.56L34.75,126.37L35.49,126.27L36.95,129.79L37.68,129.7L39.15,132.71L39.88,132.63L41.35,120.69L42.08,120.62L43.54,132.64L44.28,132.55L45.74,126.68L47.94,113.21L48.67,109.51L52.33,74.17L53.07,72.87L54.53,78.78L55.27,77.73L57.46,62.82L58.93,65.47L59.66,64.83L61.13,74.27L61.86,73.83L62.83,51.83L64.06,52.34L64.79,52.21L72.85,51.78L73.58,51.77L82.37,51.11L83.11,50.91L107.29,42.67L108.02,42.44L114.61,40.95L115.35,41.79L127.8,41.47L128.53,41.46L139.52,40.8L140.25,40.69L167.36,36.83L168.1,35.53L196.67,34L197.4,33.87L220.12,31.05L220.85,28.56L245.76,27.81L246.5,95.38L254.58,93.57L255.29,93.44L256.02,93.12L256.75,91.51L258.95,88.51L259.69,87.52L263.35,73.59L264.08,72.39L268.48,67.88L269.21,67.37L272.87,65.43L273.61,65.5L278.73,64.8L279.47,64.77L295.59,63.66L296.32,63.48L301.44,61.32L302.18,60.89L302.91,60.46L303.64,62.78L306.57,61.15L307.31,59.94L311.7,53.24L312.44,52.44L315.37,47.98L316.1,45.51L319.03,38.66L319.76,37.65L324.16,32.89L324.92,32.47L327.09,31.98L327.82,31.8L333.68,31.18L334.42,31.16L345.41,30.17L346.14,29.9L350.53,28.09L351.27,74.81L353.47,72.76L354.2,72.32L360.79,69.16L361.53,68.8L362.09,71.93L362.26,68.39L362.96,68.25L362.99,69.25L363.69,67.95L363.73,68.94L364.46,68.62L365.92,68.09L366.66,76.43L373.07,73.91L373.1,72.31L373.13,72.03L373.25,73.74L380.21,44.74L380.57,44.87L380.94,41.95L381.67,42.12L382.04,43.2L383.14,37.43L383.51,41.6L384.6,39.66L384.97,39.05L386.07,38.13L386.44,38.96L387.54,38.42L387.9,38.33L388.64,38.4L389,43.02L393.03,41.69L393.4,36.5L394.13,35.76L394.49,35.39L396.33,31.97L396.69,32.01L397.06,30.79L397.43,26.97L398.52,25.01L398.89,22.43L399.26,16L399.62,16.8L399.99,140.18L400.36,139.22L400.72,142.07L401.46,136.79L401.82,138.99L402.19,137.43L402.56,136.15L402.92,136.63L403.29,141.25L403.65,146.68L404.02,133.42L404.75,138.09L405.12,157.2L406.22,133.53L406.58,145.44L406.95,148.42L407.32,146.68L407.68,144.02L408.42,134.36L408.78,135.71L409.15,141.84L409.51,146.05L409.88,142.1L410.25,141.74L410.61,151.77L410.98,141.68L411.35,140.84L411.71,148.68L412.08,138.39L412.44,127.07L412.81,137.58L413.18,139.13L413.55,140.49L413.91,138.92L415.38,129.31L415.74,138.25L416.11,134.05L416.47,138.68L416.84,138.81L417.21,131.49L417.58,131.42L417.94,140.05L418.67,132.48L419.04,138.41L419.77,141.46L420.14,128.79L420.87,142.96L421.24,264.58L422.34,293.12L422.7,304L423.07,286.22L423.44,301.52L423.8,291.75L424.17,292.1L424.53,291.07L424.9,294.16L425.27,293.46L425.63,276.02L426,283.67L426.37,262.28L427.1,272.54L427.47,248.89L428.2,241.71L428.56,229.6L428.93,224.98L429.3,228.24L429.66,227.36L430.76,215.22L431.13,217.06L431.49,216.4L431.86,227.08L432.23,226.08L432.59,228.38L432.96,228.68L433.33,224.72L433.69,233.57L434.06,224.28L434.43,225.36L434.79,227.75L435.16,223.07L435.89,226.33L436.26,223.26L436.62,224.52L436.99,234.01L437.36,220.81L437.73,231.91L438.09,224.2L440.29,212.72L440.66,220.76L441.39,220.72L441.75,223.7L442.12,223.67L442.49,219.37L442.85,223.08L443.22,218.62L443.58,226.76L443.95,225.2L444.32,224.19L444.68,219.51L445.05,225.16L446.15,225.11L446.51,216.49L446.88,225.05L447.25,220.43L447.61,220.57L447.98,218.19L448.35,220.92L448.72,219.84L449.08,227.36L449.44,216.65L449.81,220.1L450.18,220.01L450.91,220.98L451.28,218.78L452.01,223.64L452.37,218.66L452.74,205.85L453.11,215.25L453.47,220.32L453.84,206.18L454.21,206.81L454.57,214.16L454.94,214.11L455.31,206.99L456.04,212.47L456.41,202.23L456.78,199.24L457.14,208.71L457.51,224.84L457.87,215.2L458.24,214.49L458.6,205.74L458.97,219.6L459.7,195.82L460.07,209.77L460.43,208.24L460.8,203.32L461.17,202.05L461.53,205.17L461.9,200.81L462.27,208.16L462.63,206.35L463,209.96L463.37,207.44L463.73,196.45L464.1,195.36L464.46,196.45L464.83,201.41L465.93,210.92L466.3,197.09L466.66,197.31L467.03,191.05L467.39,191.24L467.76,196.07L468.13,200.65L468.49,194.37L469.59,210.5L469.96,204.27L470.69,191.94L471.06,193.62L471.42,197L471.79,205.03L472.16,197.14L472.52,198.57L473.99,184.28L474.36,189.51L475.09,194.59L475.46,189.23L475.82,191.91L476.19,189.81L476.55,182.31L476.92,187.7L477.29,187L477.65,183.28L478.02,186.18L478.38,185.69L478.76,181.61L479.12,182.61L479.49,186.54L480.22,187.68L480.58,186.58L480.95,181.49L481.32,187.81L482.05,185.81L482.42,187.22L482.78,189.17L483.15,187L484.25,194.82L484.62,189.57L484.98,183.36L485.35,189.2L485.71,186.45L486.81,187.85L487.18,183.53L488.28,187.65L488.65,184.59L489.38,184.25L489.74,185.71L490.84,187.29L491.21,197.68L491.57,197.68L491.94,195.53L492.31,195.52L492.67,190.33L493.04,190.33L493.41,186.49L494.87,194.95L495.24,194.95L495.6,195.4L495.97,193.58L496.34,193.58L496.7,187.5L497.44,187.5L497.8,190.84L498.9,186.75L499.27,187.03L499.63,187.03L500,188.23L502.93,181.13L503.3,187.27L503.66,190.9L504.03,187.7L504.4,181.79L504.76,180.91L505.13,182.93L505.49,184.81L505.86,179.55L506.59,190.44L506.96,182.8L507.33,183.07L507.69,174.64L508.79,185.09L509.16,181.21L509.52,181.99L509.89,185.79L510.26,171.39L510.62,177.83L510.99,175.21L511.35,180.5L511.72,179.53L512.09,177.22L513.55,187.84L513.92,182.58L514.29,175.16L514.65,180.33L515.02,178.23L515.75,176.4L516.12,185.95L516.48,175.93L516.85,196.82L517.95,173.22L518.32,177.47L518.68,180.21L519.05,180.03L519.42,179.15L520.15,179.35L520.51,181.21L521.98,176.9L522.35,176.97L523.08,169.69L523.45,173.52L523.81,176.28L524.18,172.21L524.55,173.97L524.91,171L525.64,180.19L526.01,175.33L526.38,171.32L526.74,174.66L527.11,174.4L527.47,183.64L527.84,176L528.21,180.08L528.57,179.71L528.94,181.54L529.67,173.38L530.04,176.61L530.41,186.68L530.77,171.47L531.14,173.34L531.5,176.71L531.87,180.06L532.24,191.51L532.97,169.64L533.34,179.24L533.71,185.08L534.07,178.84L534.44,180.35L534.8,174.99L535.17,173.52L535.77,177.41L536.63,172.35L537,176.21" style="vector-effect: non-scaling-stroke; fill: none; stroke: rgb(99, 110, 250); stroke-opacity: 1; stroke-width: 2px; opacity: 1;"/></g><g class="points"/><g class="text"/></g></g></g><g class="overplot"/><path class="xlines-above crisp" d="M0,0" style="fill: none;"/><path class="ylines-above crisp" d="M0,0" style="fill: none;"/><g class="overlines-above"/><g class="xaxislayer-above"><g class="xtick"><text text-anchor="middle" x="0" y="433" transform="translate(89.8,0)" style="font-family: 'Open Sans', verdana, arial, sans-serif; font-size: 12px; fill: rgb(42, 63, 95); fill-opacity: 1; white-space: pre;"><tspan class="line" dy="0em" x="0" y="433">Jun 4</tspan><tspan class="line" dy="1.3em" x="0" y="433">2021</tspan></text></g><g class="xtick"><text text-anchor="middle" x="0" y="433" transform="translate(195.3,0)" style="font-family: 'Open Sans', verdana, arial, sans-serif; font-size: 12px; fill: rgb(42, 63, 95); fill-opacity: 1; white-space: pre;">Jun 6</text></g><g class="xtick"><text text-anchor="middle" x="0" y="433" transform="translate(300.81,0)" style="font-family: 'Open Sans', verdana, arial, sans-serif; font-size: 12px; fill: rgb(42, 63, 95); fill-opacity: 1; white-space: pre;">Jun 8</text></g><g class="xtick"><text text-anchor="middle" x="0" y="433" transform="translate(406.31,0)" style="font-family: 'Open Sans', verdana, arial, sans-serif; font-size: 12px; fill: rgb(42, 63, 95); fill-opacity: 1; white-space: pre;">Jun 10</text></g><g class="xtick"><text text-anchor="middle" x="0" y="433" transform="translate(511.81,0)" style="font-family: 'Open Sans', verdana, arial, sans-serif; font-size: 12px; fill: rgb(42, 63, 95); fill-opacity: 1; white-space: pre;">Jun 12</text></g></g><g class="yaxislayer-above"><g class="ytick"><text text-anchor="end" x="79" y="4.199999999999999" transform="translate(0,367.23)" style="font-family: 'Open Sans', verdana, arial, sans-serif; font-size: 12px; fill: rgb(42, 63, 95); fill-opacity: 1; white-space: pre;">0.8</text></g><g class="ytick"><text text-anchor="end" x="79" y="4.199999999999999" transform="translate(0,308.43)" style="font-family: 'Open Sans', verdana, arial, sans-serif; font-size: 12px; fill: rgb(42, 63, 95); fill-opacity: 1; white-space: pre;">0.82</text></g><g class="ytick"><text text-anchor="end" x="79" y="4.199999999999999" transform="translate(0,249.63)" style="font-family: 'Open Sans', verdana, arial, sans-serif; font-size: 12px; fill: rgb(42, 63, 95); fill-opacity: 1; white-space: pre;">0.84</text></g><g class="ytick"><text text-anchor="end" x="79" y="4.199999999999999" transform="translate(0,190.82999999999998)" style="font-family: 'Open Sans', verdana, arial, sans-serif; font-size: 12px; fill: rgb(42, 63, 95); fill-opacity: 1; white-space: pre;">0.86</text></g><g class="ytick"><text text-anchor="end" x="79" y="4.199999999999999" transform="translate(0,132.03)" style="font-family: 'Open Sans', verdana, arial, sans-serif; font-size: 12px; fill: rgb(42, 63, 95); fill-opacity: 1; white-space: pre;">0.88</text></g></g><g class="overaxes-above"/></g></g><g class="polarlayer"/><g class="ternarylayer"/><g class="geolayer"/><g class="funnelarealayer"/><g class="pielayer"/><g class="treemaplayer"/><g class="sunburstlayer"/><g class="glimages"/><defs id="topdefs-e22043"><g class="clips"/><clipPath id="legende22043"><rect width="60" height="45" x="0" y="0"/></clipPath></defs><g class="layer-above"><g class="imagelayer"/><g class="shapelayer"/></g><g class="infolayer"><g class="legend" pointer-events="all" transform="translate(627.74,100)"><rect class="bg" shape-rendering="crispEdges" width="60" height="45" x="0" y="0" style="stroke: rgb(68, 68, 68); stroke-opacity: 1; fill: rgb(255, 255, 255); fill-opacity: 1; stroke-width: 0px;"/><g class="scrollbox" transform="" clip-path="url('#legende22043')"><text class="legendtitletext" text-anchor="start" x="2" y="15.600000000000001" style="font-family: 'Open Sans', verdana, arial, sans-serif; font-size: 12px; fill: rgb(42, 63, 95); fill-opacity: 1; white-space: pre;">All</text><g class="groups" transform=""><g class="traces" transform="translate(0,30.1)" style="opacity: 1;"><text class="legendtext" text-anchor="start" x="40" y="4.680000000000001" style="font-family: 'Open Sans', verdana, arial, sans-serif; font-size: 12px; fill: rgb(42, 63, 95); fill-opacity: 1; white-space: pre;">All</text><g class="layers" style="opacity: 1;"><g class="legendfill"/><g class="legendlines"><path class="js-line" d="M5,0h30" style="fill: none; stroke: rgb(99, 110, 250); stroke-opacity: 1; stroke-width: 2px;"/></g><g class="legendsymbols"><g class="legendpoints"/></g></g><rect class="legendtoggle" x="0" y="-9.5" width="54.890625" height="19" style="fill: rgb(0, 0, 0); fill-opacity: 0;"/></g></g></g><rect class="scrollbar" rx="20" ry="3" width="0" height="0" x="0" y="0" style="fill: rgb(128, 139, 164); fill-opacity: 1;"/></g><g class="g-gtitle"><text class="gtitle" x="35" y="50" text-anchor="start" dy="0em" style="font-family: 'Open Sans', verdana, arial, sans-serif; font-size: 17px; fill: rgb(42, 63, 95); opacity: 1; font-weight: normal; white-space: pre;">Singapore Vaccination Centers</text></g><g class="g-xtitle"><text class="xtitle" x="348.5" y="476.409375" text-anchor="middle" style="font-family: 'Open Sans', verdana, arial, sans-serif; font-size: 14px; fill: rgb(42, 63, 95); opacity: 1; font-weight: normal; white-space: pre;">Time</text></g><g class="g-ytitle"><text class="ytitle" transform="rotate(-90,27.481250000000003,260)" x="27.481250000000003" y="260" text-anchor="middle" style="font-family: 'Open Sans', verdana, arial, sans-serif; font-size: 14px; fill: rgb(42, 63, 95); opacity: 1; font-weight: normal; white-space: pre;">Filled/%</text></g></g></svg>