<svg class="main-svg" xmlns="http://www.w3.org/2000/svg" xmlns:xlink="http://www.w3.org/1999/xlink" width="700" height="500" style="" viewBox="0 0 700 500"><rect x="0" y="0" width="700" height="500" style="fill: rgb(255, 255, 255); fill-opacity: 1;"/><defs id="defs-572d35"><g class="clips"><clipPath id="clip572d35xyplot" class="plotclip"><rect width="537" height="320"/></clipPath><clipPath class="axesclip" id="clip572d35x"><rect x="80" y="0" width="537" height="500"/></clipPath><clipPath class="axesclip" id="clip572d35y"><rect x="0" y="100" width="700" height="320"/></clipPath><clipPath class="axesclip" id="clip572d35xy"><rect x="80" y="100" width="537" height="320"/></clipPath></g><g class="gradients"/></defs><g class="bglayer"><rect class="bg" x="80" y="100" width="537" height="320" style="fill: rgb(229, 236, 246); fill-opacity: 1; stroke-width: 0;"/></g><g class="layer-below"><g class="imagelayer"/><g class="shapelayer"/></g><g class="cartesianlayer"><g class="subplot xy"><g class="layer-subplot"><g class="shapelayer"/><g class="imagelayer"/></g><g class="gridlayer"><g class="x"><path class="xgrid crisp" transform="translate(82.02,0)" d="M0,100v320" style="stroke: rgb(255, 255, 255); stroke-opacity: 1; stroke-width: 1px;"/><path class="xgrid crisp" transform="translate(159.9,0)" d="M0,100v320" style="stroke: rgb(255, 255, 255); stroke-opacity: 1; stroke-width: 1px;"/><path class="xgrid crisp" transform="translate(237.78,0)" d="M0,100v320" style="stroke: rgb(255, 255, 255); stroke-opacity: 1; stroke-width: 1px;"/><path class="xgrid crisp" transform="translate(315.66999999999996,0)" d="M0,100v320" style="stroke: rgb(255, 255, 255); stroke-opacity: 1; stroke-width: 1px;"/><path class="xgrid crisp" transform="translate(393.55,0)" d="M0,100v320" style="stroke: rgb(255, 255, 255); stroke-opacity: 1; stroke-width: 1px;"/><path class="xgrid crisp" transform="translate(471.43,0)" d="M0,100v320" style="stroke: rgb(255, 255, 255); stroke-opacity: 1; stroke-width: 1px;"/><path class="xgrid crisp" transform="translate(549.31,0)" d="M0,100v320" style="stroke: rgb(255, 255, 255); stroke-opacity: 1; stroke-width: 1px;"/></g><g class="y"><path class="ygrid crisp" transform="translate(0,394.13)" d="M80,0h537" style="stroke: rgb(255, 255, 255); stroke-opacity: 1; stroke-width: 1px;"/><path class="ygrid crisp" transform="translate(0,357.26)" d="M80,0h537" style="stroke: rgb(255, 255, 255); stroke-opacity: 1; stroke-width: 1px;"/><path class="ygrid crisp" transform="translate(0,320.39)" d="M80,0h537" style="stroke: rgb(255, 255, 255); stroke-opacity: 1; stroke-width: 1px;"/><path class="ygrid crisp" transform="translate(0,283.52)" d="M80,0h537" style="stroke: rgb(255, 255, 255); stroke-opacity: 1; stroke-width: 1px;"/><path class="ygrid crisp" transform="translate(0,246.65)" d="M80,0h537" style="stroke: rgb(255, 255, 255); stroke-opacity: 1; stroke-width: 1px;"/><path class="ygrid crisp" transform="translate(0,209.78)" d="M80,0h537" style="stroke: rgb(255, 255, 255); stroke-opacity: 1; stroke-width: 1px;"/><path class="ygrid crisp" transform="translate(0,172.91)" d="M80,0h537" style="stroke: rgb(255, 255, 255); stroke-opacity: 1; stroke-width: 1px;"/><path class="ygrid crisp" transform="translate(0,136.04)" d="M80,0h537" style="stroke: rgb(255, 255, 255); stroke-opacity: 1; stroke-width: 1px;"/></g></g><g class="zerolinelayer"/><path class="xlines-below"/><path class="ylines-below"/><g class="overlines-below"/><g class="xaxislayer-below"/><g class="yaxislayer-below"/><g class="overaxes-below"/><g class="plot" transform="translate(80,100)" clip-path="url('#clip572d35xyplot')"><g class="scatterlayer mlayer"><g class="trace scatter trace1ccbfe" style="stroke-miterlimit: 2; opacity: 1;"><g class="fills"/><g class="errorbars"/><g class="lines"><path class="js-line" d="M0,304L1.56,302.78L2.1,257.24L2.64,258.35L3.18,256.9L5.34,256.35L5.89,256.01L6.97,256.68L7.51,255.9L8.59,256.23L9.13,255.9L10.21,255.68L10.75,255.45L11.83,255.23L12.38,255.01L19.4,254.67L19.95,254.23L23.73,253.22L24.27,252.67L25.36,252.78L25.89,252L26.98,252.78L27.52,251.44L29.14,250.66L29.68,251.11L30.22,250.77L30.76,251.55L31.85,248.99L32.39,249.43L32.93,249.43L34.55,248.32L35.09,247.65L36.17,246.2L36.71,247.09L37.25,247.32L37.8,246.31L38.33,244.53L38.88,244.97L39.42,245.87L41.58,242.19L42.12,241.41L43.74,240.52L44.28,240.18L44.83,240.4L45.37,241.74L45.91,239.85L46.45,240.18L46.99,239.96L48.07,240.4L48.61,238.62L49.69,236.84L50.23,237.51L51.32,236.5L51.86,237.95L52.4,237.73L52.94,236.39L55.1,232.6L55.64,230.26L56.18,230.82L56.72,229.59L57.27,228.7L57.81,229.37L58.89,229.59L59.43,230.48L62.13,228.47L62.67,228.25L64.84,227.14L65.38,228.14L65.92,228.14L66.46,226.8L68.63,225.46L69.16,225.35L70.79,224.57L71.32,224.46L72.41,224.57L72.95,224.24L74.57,224.13L75.11,223.35L76.74,221.01L77.28,220.34L78.36,221.23L78.9,220.78L79.44,221.23L79.98,164.61L82.15,163.04L82.68,162.92L84.85,161.91L85.39,161.91L88.09,161.24L88.63,160.9L93.51,160.67L94.04,160.79L99.45,160.79L99.99,160.22L101.61,160.22L102.15,159.33L104.32,159.44L104.86,158.99L105.94,159.1L106.48,158.54L108.1,158.54L108.64,157.64L110.26,155.95L110.81,156.85L112.43,155.39L112.97,155.95L115.13,152.69L115.68,154.15L117.84,151.57L118.38,152.36L119.46,151.01L120,152.02L120.54,152.92L121.08,152.13L121.63,153.03L122.17,152.58L122.7,151.79L123.25,152.69L123.79,152.13L125.95,153.03L126.49,152.69L128.66,149.54L129.2,149.66L130.29,150.56L130.83,148.87L132.99,148.08L133.53,146.62L135.7,147.07L136.24,145.95L136.78,144.04L137.32,145.38L137.86,145.38L138.4,144.37L138.94,145.16L139.48,144.71L140.02,143.7L143.81,139.76L144.35,138.64L144.89,139.31L145.43,138.53L145.97,137.52L146.51,137.97L147.05,137.63L148.13,137.4L148.68,135.15L149.22,135.04L149.75,134.14L150.84,133.13L151.38,133.36L152.46,134.93L153,134.37L153.55,136.05L154.08,135.38L154.63,135.27L155.71,133.58L156.25,134.03L157.33,134.26L157.87,94.79L159.49,92.97L160.03,92.74L164.9,89.91L165.44,89.8L166.52,88.78L167.07,88.78L168.15,88.89L168.69,88.32L180.58,86.62L181.13,86.96L182.75,86.06L183.29,86.17L183.83,86.4L184.37,85.72L187.61,85.15L188.69,84.7L189.24,83.56L190.32,83.22L191.4,82.88L191.94,81.41L192.48,82.43L193.02,81.41L194.1,81.41L194.64,80.84L195.19,80.73L195.73,79.71L197.35,79.48L197.89,78.12L200.04,74.83L200.57,75.4L202.2,74.49L202.74,73.02L204.9,72.45L205.44,70.75L206.52,70.64L207.07,70.52L209.77,68.37L210.31,68.6L211.93,70.41L212.48,68.82L213.56,69.84L214.11,68.14L215.18,68.26L215.72,68.6L217.88,67.35L218.42,66.9L221.13,62.02L221.67,63.27L222.75,61.68L223.29,61.45L223.83,60.32L224.37,60.66L224.91,60.77L225.46,60.77L225.99,59.87L226.54,60.32L227.08,58.96L228.16,58.85L228.7,57.94L230.86,58.28L231.4,57.49L232.49,57.37L233.03,57.49L234.11,55.78L234.65,56.35L235.19,56.12L235.73,190.07L240.06,189.71L240.6,189.36L241.14,189.36L241.68,188.42L248.17,187.24L248.71,187.36L254.66,186.65L255.2,186.54L258.99,185.6L259.53,185.83L261.15,184.89L261.69,184.3L264.4,183.36L264.94,182.18L267.12,181.95L267.66,183.01L268.74,181.36L269.28,181.24L269.82,180.65L270.36,178.54L270.9,176.89L271.44,177.12L271.99,176.53L272.52,175.01L273.07,175.48L273.61,174.89L274.69,175.01L275.23,174.18L276.31,173.59L276.85,174.42L278.48,172.06L279.02,172.89L280.64,170.53L281.18,170.53L281.72,169.83L282.26,170.77L283.34,171.59L283.88,170.77L284.42,170.89L284.97,170.18L287.67,166.53L288.21,166.06L289.29,165.71L289.83,167L293.08,164.3L293.62,165.83L294.7,147.12L295.24,146.76L296.32,146.18L296.87,142.06L297.4,142.17L297.94,138.76L298.49,139L299.03,136.76L299.57,134.17L300.11,135L300.65,133.47L301.19,132.29L301.73,129.23L302.82,126.52L303.36,126.05L306.06,118.99L306.6,118.99L308.22,115.82L308.76,114.99L313.09,106.64L313.63,118.22L316.34,114.42L316.88,114.78L317.42,114.66L317.96,115.37L319.04,115.01L319.58,115.61L321.2,114.78L321.74,114.9L322.83,114.42L323.37,114.54L330.94,113.95L331.48,113.59L335.81,114.07L336.35,113.83L339.59,113.71L340.13,113.23L341.75,110.86L342.29,111.1L343.92,109.91L344.46,110.03L345,109.67L345.54,108.25L346.62,108.49L347.16,107.18L349.87,104.45L350.41,104.81L352.03,101.84L352.57,101.48L354.19,99.23L354.73,99.23L355.82,96.97L356.35,96.97L357.44,95.31L357.98,93.41L360.14,88.9L360.68,88.55L361.22,88.19L361.77,86.29L363.93,84.63L364.47,83.21L367.72,82.38L368.26,81.43L368.8,81.78L369.34,81.19L369.88,81.54L374.21,77.51L376.91,75.25L377.45,75.85L379.61,73L380.16,72.88L380.7,71.69L381.24,72.17L381.78,71.57L382.86,71.46L383.4,72.41L385.02,71.22L385.57,70.98L386.11,70.39L386.65,71.22L388.81,70.63L389.35,69.68L390.97,67.66L391.51,112.03L392.59,112.39L393.14,111.43L393.68,110.82L394.22,111.3L394.78,111.18L395.84,111.3L396.38,112.15L398.55,111.91L399.09,112.03L400.71,112.15L401.25,112.15L403.95,110.82L404.5,111.18L410.45,110.58L410.98,110.58L417.47,110.22L418.01,109.85L419.64,109.85L420.18,109.49L421.26,109.01L421.8,108.16L422.88,107.8L423.42,106.59L423.96,105.38L424.51,106.59L426.67,105.74L427.21,105.74L428.29,103.93L428.83,103.69L430.45,101.15L430.99,101.03L432.62,100.67L433.16,99.94L434.24,99.34L434.78,99.46L435.86,98.13L436.4,97.52L438.57,96.68L439.11,97.04L439.65,96.56L440.19,97.16L441.27,94.14L441.81,94.38L442.35,94.38L443.97,93.9L444.52,92.81L447.76,90.87L448.3,90.51L449.38,90.15L449.93,89.79L452.63,87.49L453.17,87.85L456.96,86.04L457.49,85.07L459.12,82.89L459.66,82.17L460.2,82.41L460.74,80.84L461.83,79.15L462.36,79.75L467.77,76.61L468.31,76.61L468.86,76.85L469.4,47.34L473.72,44.17L474.26,44.29L479.67,44.42L480.21,44.78L482.92,44.17L483.46,44.17L487.24,44.05L487.78,44.17L492.67,43.81L493.19,44.05L494.27,44.17L494.81,43.93L496.44,44.05L496.98,43.2L498.06,44.17L498.6,43.44L500.23,42.22L500.77,41.49L501.84,41.85L502.39,40.76L503.47,40.15L504.01,40.39L504.55,39.66L505.09,37.59L505.63,37.59L506.17,36.61L506.71,37.22L507.25,36.49L508.34,35.02L508.88,33.56L509.42,32.95L509.96,33.93L511.04,31.37L511.58,31.61L512.66,30.15L513.2,30.27L516.45,28.81L516.99,28.93L518.07,28.32L518.61,27.34L520.24,28.07L520.78,26.73L522.4,26.37L522.94,26.49L524.56,22.83L525.1,23.2L525.64,22.83L527.81,20.88L528.35,21.37L528.89,21.37L529.43,20.27L529.97,20.15L530.51,18.8L531.05,19.05L531.59,18.44L532.13,19.05L532.67,18.32L533.76,16.61L534.3,16.24L534.84,16L535.38,16.73L537,16.37" style="vector-effect: non-scaling-stroke; fill: none; stroke: rgb(99, 110, 250); stroke-opacity: 1; stroke-width: 2px; opacity: 1;"/></g><g class="points"/><g class="text"/></g></g></g><g class="overplot"/><path class="xlines-above crisp" d="M0,0" style="fill: none;"/><path class="ylines-above crisp" d="M0,0" style="fill: none;"/><g class="overlines-above"/><g class="xaxislayer-above"><g class="xtick"><text text-anchor="middle" x="0" y="433" transform="translate(82.02,0)" style="font-family: 'Open Sans', verdana, arial, sans-serif; font-size: 12px; fill: rgb(42, 63, 95); fill-opacity: 1; white-space: pre;"><tspan class="line" dy="0em" x="0" y="433">Aug 3</tspan><tspan class="line" dy="1.3em" x="0" y="433">2021</tspan></text></g><g class="xtick"><text text-anchor="middle" x="0" y="433" transform="translate(159.9,0)" style="font-family: 'Open Sans', verdana, arial, sans-serif; font-size: 12px; fill: rgb(42, 63, 95); fill-opacity: 1; white-space: pre;">Aug 4</text></g><g class="xtick"><text text-anchor="middle" x="0" y="433" transform="translate(237.78,0)" style="font-family: 'Open Sans', verdana, arial, sans-serif; font-size: 12px; fill: rgb(42, 63, 95); fill-opacity: 1; white-space: pre;">Aug 5</text></g><g class="xtick"><text text-anchor="middle" x="0" y="433" transform="translate(315.66999999999996,0)" style="font-family: 'Open Sans', verdana, arial, sans-serif; font-size: 12px; fill: rgb(42, 63, 95); fill-opacity: 1; white-space: pre;">Aug 6</text></g><g class="xtick"><text text-anchor="middle" x="0" y="433" transform="translate(393.55,0)" style="font-family: 'Open Sans', verdana, arial, sans-serif; font-size: 12px; fill: rgb(42, 63, 95); fill-opacity: 1; white-space: pre;">Aug 7</text></g><g class="xtick"><text text-anchor="middle" x="0" y="433" transform="translate(471.43,0)" style="font-family: 'Open Sans', verdana, arial, sans-serif; font-size: 12px; fill: rgb(42, 63, 95); fill-opacity: 1; white-space: pre;">Aug 8</text></g><g class="xtick"><text text-anchor="middle" x="0" y="433" transform="translate(549.31,0)" style="font-family: 'Open Sans', verdana, arial, sans-serif; font-size: 12px; fill: rgb(42, 63, 95); fill-opacity: 1; white-space: pre;">Aug 9</text></g></g><g class="yaxislayer-above"><g class="ytick"><text text-anchor="end" x="79" y="4.199999999999999" transform="translate(0,394.13)" style="font-family: 'Open Sans', verdana, arial, sans-serif; font-size: 12px; fill: rgb(42, 63, 95); fill-opacity: 1; white-space: pre;">0.864</text></g><g class="ytick"><text text-anchor="end" x="79" y="4.199999999999999" transform="translate(0,357.26)" style="font-family: 'Open Sans', verdana, arial, sans-serif; font-size: 12px; fill: rgb(42, 63, 95); fill-opacity: 1; white-space: pre;">0.865</text></g><g class="ytick"><text text-anchor="end" x="79" y="4.199999999999999" transform="translate(0,320.39)" style="font-family: 'Open Sans', verdana, arial, sans-serif; font-size: 12px; fill: rgb(42, 63, 95); fill-opacity: 1; white-space: pre;">0.866</text></g><g class="ytick"><text text-anchor="end" x="79" y="4.199999999999999" transform="translate(0,283.52)" style="font-family: 'Open Sans', verdana, arial, sans-serif; font-size: 12px; fill: rgb(42, 63, 95); fill-opacity: 1; white-space: pre;">0.867</text></g><g class="ytick"><text text-anchor="end" x="79" y="4.199999999999999" transform="translate(0,246.65)" style="font-family: 'Open Sans', verdana, arial, sans-serif; font-size: 12px; fill: rgb(42, 63, 95); fill-opacity: 1; white-space: pre;">0.868</text></g><g class="ytick"><text text-anchor="end" x="79" y="4.199999999999999" transform="translate(0,209.78)" style="font-family: 'Open Sans', verdana, arial, sans-serif; font-size: 12px; fill: rgb(42, 63, 95); fill-opacity: 1; white-space: pre;">0.869</text></g><g class="ytick"><text text-anchor="end" x="79" y="4.199999999999999" transform="translate(0,172.91)" style="font-family: 'Open Sans', verdana, arial, sans-serif; font-size: 12px; fill: rgb(42, 63, 95); fill-opacity: 1; white-space: pre;">0.87</text></g><g class="ytick"><text text-anchor="end" x="79" y="4.199999999999999" transform="translate(0,136.04)" style="font-family: 'Open Sans', verdana, arial, sans-serif; font-size: 12px; fill: rgb(42, 63, 95); fill-opacity: 1; white-space: pre;">0.871</text></g></g><g class="overaxes-above"/></g></g><g class="polarlayer"/><g class="ternarylayer"/><g class="geolayer"/><g class="funnelarealayer"/><g class="pielayer"/><g class="treemaplayer"/><g class="sunburstlayer"/><g class="glimages"/><defs id="topdefs-572d35"><g class="clips"/><clipPath id="legend572d35"><rect width="60" height="45" x="0" y="0"/></clipPath></defs><g class="layer-above"><g class="imagelayer"/><g class="shapelayer"/></g><g class="infolayer"><g class="legend" pointer-events="all" transform="translate(627.74,100)"><rect class="bg" shape-rendering="crispEdges" width="60" height="45" x="0" y="0" style="stroke: rgb(68, 68, 68); stroke-opacity: 1; fill: rgb(255, 255, 255); fill-opacity: 1; stroke-width: 0px;"/><g class="scrollbox" transform="" clip-path="url('#legend572d35')"><text class="legendtitletext" text-anchor="start" x="2" y="15.600000000000001" style="font-family: 'Open Sans', verdana, arial, sans-serif; font-size: 12px; fill: rgb(42, 63, 95); fill-opacity: 1; white-space: pre;">All</text><g class="groups" transform=""><g class="traces" transform="translate(0,30.1)" style="opacity: 1;"><text class="legendtext" text-anchor="start" x="40" y="4.680000000000001" style="font-family: 'Open Sans', verdana, arial, sans-serif; font-size: 12px; fill: rgb(42, 63, 95); fill-opacity: 1; white-space: pre;">All</text><g class="layers" style="opacity: 1;"><g class="legendfill"/><g class="legendlines"><path class="js-line" d="M5,0h30" style="fill: none; stroke: rgb(99, 110, 250); stroke-opacity: 1; stroke-width: 2px;"/></g><g class="legendsymbols"><g class="legendpoints"/></g></g><rect class="legendtoggle" x="0" y="-9.5" width="54.890625" height="19" style="fill: rgb(0, 0, 0); fill-opacity: 0;"/></g></g></g><rect class="scrollbar" rx="20" ry="3" width="0" height="0" x="0" y="0" style="fill: rgb(128, 139, 164); fill-opacity: 1;"/></g><g class="g-gtitle"><text class="gtitle" x="35" y="50" text-anchor="start" dy="0em" style="font-family: 'Open Sans', verdana, arial, sans-serif; font-size: 17px; fill: rgb(42, 63, 95); opacity: 1; font-weight: normal; white-space: pre;">Singapore Vaccination Centers</text></g><g class="g-xtitle"><text class="xtitle" x="348.5" y="476.409375" text-anchor="middle" style="font-family: 'Open Sans', verdana, arial, sans-serif; font-size: 14px; fill: rgb(42, 63, 95); opacity: 1; font-weight: normal; white-space: pre;">Time</text></g><g class="g-ytitle"><text class="ytitle" transform="rotate(-90,19.840625000000003,260)" x="19.840625000000003" y="260" text-anchor="middle" style="font-family: 'Open Sans', verdana, arial, sans-serif; font-size: 14px; fill: rgb(42, 63, 95); opacity: 1; font-weight: normal; white-space: pre;">Filled/%</text></g></g></svg>