<svg class="main-svg" xmlns="http://www.w3.org/2000/svg" xmlns:xlink="http://www.w3.org/1999/xlink" width="700" height="500" style="" viewBox="0 0 700 500"><rect x="0" y="0" width="700" height="500" style="fill: rgb(255, 255, 255); fill-opacity: 1;"/><defs id="defs-01c29d"><g class="clips"><clipPath id="clip01c29dxyplot" class="plotclip"><rect width="537" height="320"/></clipPath><clipPath class="axesclip" id="clip01c29dx"><rect x="80" y="0" width="537" height="500"/></clipPath><clipPath class="axesclip" id="clip01c29dy"><rect x="0" y="100" width="700" height="320"/></clipPath><clipPath class="axesclip" id="clip01c29dxy"><rect x="80" y="100" width="537" height="320"/></clipPath></g><g class="gradients"/></defs><g class="bglayer"><rect class="bg" x="80" y="100" width="537" height="320" style="fill: rgb(229, 236, 246); fill-opacity: 1; stroke-width: 0;"/></g><g class="layer-below"><g class="imagelayer"/><g class="shapelayer"/></g><g class="cartesianlayer"><g class="subplot xy"><g class="layer-subplot"><g class="shapelayer"/><g class="imagelayer"/></g><g class="gridlayer"><g class="x"><path class="xgrid crisp" transform="translate(90.46000000000001,0)" d="M0,100v320" style="stroke: rgb(255, 255, 255); stroke-opacity: 1; stroke-width: 1px;"/><path class="xgrid crisp" transform="translate(203.11,0)" d="M0,100v320" style="stroke: rgb(255, 255, 255); stroke-opacity: 1; stroke-width: 1px;"/><path class="xgrid crisp" transform="translate(315.76,0)" d="M0,100v320" style="stroke: rgb(255, 255, 255); stroke-opacity: 1; stroke-width: 1px;"/><path class="xgrid crisp" transform="translate(428.42,0)" d="M0,100v320" style="stroke: rgb(255, 255, 255); stroke-opacity: 1; stroke-width: 1px;"/><path class="xgrid crisp" transform="translate(541.0699999999999,0)" d="M0,100v320" style="stroke: rgb(255, 255, 255); stroke-opacity: 1; stroke-width: 1px;"/></g><g class="y"><path class="ygrid crisp" transform="translate(0,367.23)" d="M80,0h537" style="stroke: rgb(255, 255, 255); stroke-opacity: 1; stroke-width: 1px;"/><path class="ygrid crisp" transform="translate(0,308.43)" d="M80,0h537" style="stroke: rgb(255, 255, 255); stroke-opacity: 1; stroke-width: 1px;"/><path class="ygrid crisp" transform="translate(0,249.63)" d="M80,0h537" style="stroke: rgb(255, 255, 255); stroke-opacity: 1; stroke-width: 1px;"/><path class="ygrid crisp" transform="translate(0,190.82999999999998)" d="M80,0h537" style="stroke: rgb(255, 255, 255); stroke-opacity: 1; stroke-width: 1px;"/><path class="ygrid crisp" transform="translate(0,132.03)" d="M80,0h537" style="stroke: rgb(255, 255, 255); stroke-opacity: 1; stroke-width: 1px;"/></g></g><g class="zerolinelayer"/><path class="xlines-below"/><path class="ylines-below"/><g class="overlines-below"/><g class="xaxislayer-below"/><g class="yaxislayer-below"/><g class="overaxes-below"/><g class="plot" transform="translate(80,100)" clip-path="url('#clip01c29dxyplot')"><g class="scatterlayer mlayer"><g class="trace scatter trace188247" style="stroke-miterlimit: 2; opacity: 1;"><g class="fills"/><g class="errorbars"/><g class="lines"><path class="js-line" d="M0,82.28L6.61,82.51L8.95,120.48L13.62,120.57L15.35,136.92L16.08,136.9L33.36,137.96L34.43,121.23L34.76,129.62L35.54,129.56L37.11,126.37L37.89,126.27L39.45,129.79L40.24,129.7L41.8,132.71L42.58,132.63L44.15,120.69L44.93,120.62L46.49,132.64L47.28,132.55L48.84,126.68L49.62,123.32L51.19,113.21L51.97,109.51L53.53,94.58L54.32,92.89L55.88,74.17L56.66,72.87L58.23,78.78L59.01,77.73L60.57,63.68L61.36,62.82L62.92,65.47L63.7,64.83L65.27,74.27L66.05,73.83L67.08,51.83L68.4,52.34L69.18,52.21L77.79,51.78L78.57,51.77L87.95,51.11L88.74,50.91L114.55,42.67L115.34,42.44L122.38,40.95L123.16,41.79L136.46,41.47L137.24,41.46L148.97,40.8L149.76,40.69L178.7,36.83L179.48,35.53L209.99,34L210.78,33.87L235.03,31.05L235.81,28.56L262.41,27.81L263.2,95.38L271.83,93.57L272.58,93.44L273.37,93.12L274.15,91.51L276.49,88.51L277.28,87.52L281.19,73.59L281.97,72.39L286.66,67.88L287.45,67.37L291.36,65.43L292.14,65.5L297.62,64.8L298.4,64.77L315.61,63.66L316.39,63.48L321.87,61.32L322.65,60.89L323.43,60.46L324.21,62.78L327.34,61.15L328.13,59.94L332.82,53.24L333.6,52.44L336.73,47.98L337.51,45.51L340.64,38.66L341.42,37.65L346.12,32.89L346.93,32.47L349.25,31.98L350.03,31.8L356.29,31.18L357.07,31.16L368.8,30.17L369.59,29.9L374.28,28.09L375.06,74.81L376.63,73.22L377.41,72.76L385.23,69.16L386.02,68.8L386.62,71.93L386.8,68.39L387.55,68.25L387.58,69.25L388.33,67.95L388.37,68.94L389.15,68.62L390.71,68.09L391.49,76.43L398.34,73.91L398.37,72.31L398.41,72.03L398.53,73.74L405.97,44.74L406.36,44.87L406.75,41.95L407.53,42.12L407.92,43.2L409.09,37.43L409.49,41.6L410.66,39.66L411.05,39.05L412.22,38.13L412.62,38.96L413.01,38.26L413.4,38.53L413.79,38.42L414.96,38.4L415.35,43.02L419.66,41.69L420.05,36.5L420.83,35.76L421.22,35.39L422.39,33.79L422.78,33.41L425.91,22.43L426.3,16L426.69,16.8L427.09,140.18L427.48,139.22L427.87,142.07L428.65,136.79L429.04,138.99L429.83,136.15L430.22,136.63L430.61,141.25L431,146.68L431.39,133.42L432.17,138.09L432.56,157.2L433.74,133.53L434.13,145.44L434.52,148.42L434.91,146.68L435.3,144.02L436.08,134.36L436.47,135.71L436.86,141.84L437.25,146.05L437.65,142.1L438.04,141.74L438.43,151.77L439.21,140.84L439.6,148.68L440.39,127.07L440.78,137.58L441.56,140.49L441.95,138.92L442.73,130.34L443.12,131.67L443.51,129.31L443.91,138.25L444.3,134.05L444.69,138.68L445.08,138.81L445.47,131.49L445.86,131.42L446.25,140.05L447.03,132.48L447.43,138.41L448.21,141.46L448.6,128.79L449.38,142.96L449.78,264.58L450.95,293.12L451.34,304L451.73,286.22L452.12,301.52L452.51,291.75L452.9,292.1L453.29,291.07L453.69,294.16L454.08,293.46L454.47,276.02L454.86,283.67L455.25,262.28L456.03,272.54L456.42,248.89L457.2,241.71L457.6,229.6L457.99,224.98L458.38,228.24L458.77,227.36L459.94,215.22L460.33,217.06L460.73,216.4L461.12,227.08L461.51,226.08L461.9,228.38L462.29,228.68L462.68,224.72L463.07,233.57L463.46,224.28L464.25,227.75L464.64,223.07L465.42,226.33L465.81,223.26L466.2,224.52L466.59,234.01L466.98,220.81L467.38,231.91L467.77,224.2L470.12,212.72L470.51,220.76L471.29,220.72L471.68,223.7L472.07,223.67L472.46,219.37L472.85,223.08L473.24,218.62L473.63,226.76L474.03,225.2L474.42,224.19L474.81,219.51L475.2,225.16L476.37,225.11L476.76,216.49L477.16,225.05L477.55,220.43L477.94,220.57L478.33,218.19L478.72,220.92L479.11,219.84L479.5,227.36L479.89,216.65L480.28,220.1L480.68,220.01L481.46,220.98L481.85,218.78L482.63,223.64L483.02,218.66L483.41,205.85L483.81,215.25L484.19,220.32L484.59,206.18L484.98,206.81L485.37,214.16L485.76,214.11L486.15,206.99L486.94,212.47L487.33,202.23L487.72,199.24L488.11,208.71L488.5,224.84L488.89,215.2L489.28,214.49L489.67,205.74L490.06,219.6L490.84,195.82L491.24,209.77L491.63,208.24L492.02,203.32L492.41,202.05L492.8,205.17L493.19,200.81L493.58,208.16L493.97,206.35L494.36,209.96L494.76,207.44L495.14,196.45L495.54,195.36L495.93,196.45L496.32,201.41L497.49,210.92L497.88,197.09L498.27,197.31L498.67,191.05L499.06,191.24L499.45,196.07L499.84,200.65L500.23,194.37L501.4,210.5L501.8,204.27L502.58,191.94L502.97,193.62L503.36,197L503.75,205.03L504.14,197.14L504.53,198.57L504.93,192.99L506.1,184.28L506.49,189.51L507.27,194.59L507.66,189.23L508.06,191.91L508.45,189.81L508.84,182.31L509.23,187.7L509.62,187L510.01,183.28L510.4,186.18L510.79,185.69L511.19,181.61L511.58,182.61L511.97,186.54L512.75,187.68L513.14,186.58L513.53,181.49L513.92,187.81L514.71,185.81L515.1,187.22L515.49,189.17L515.88,187L517.06,194.82L517.45,189.57L517.83,183.36L518.23,189.2L518.62,186.45L519.01,187.34L519.4,187.88L519.79,187.85L520.18,183.53L521.36,187.65L521.75,184.59L522.53,184.25L522.92,185.71L523.7,187.3L524.09,187.29L524.87,197.68L525.27,195.53L525.66,195.52L526.05,190.33L526.44,190.33L526.83,186.49L528.4,194.95L528.79,194.95L529.18,195.4L529.57,193.58L529.96,193.58L530.35,187.5L531.13,187.5L531.53,190.84L531.92,186.76L532.31,190.68L532.7,186.75L533.09,187.03L533.48,187.03L533.87,188.23L534.26,187.2L534.65,186.53L535.04,186.53L535.44,184.4L536.22,184.18L536.61,183.02L537,181.13" style="vector-effect: non-scaling-stroke; fill: none; stroke: rgb(99, 110, 250); stroke-opacity: 1; stroke-width: 2px; opacity: 1;"/></g><g class="points"/><g class="text"/></g></g></g><g class="overplot"/><path class="xlines-above crisp" d="M0,0" style="fill: none;"/><path class="ylines-above crisp" d="M0,0" style="fill: none;"/><g class="overlines-above"/><g class="xaxislayer-above"><g class="xtick"><text text-anchor="middle" x="0" y="433" transform="translate(90.46000000000001,0)" style="font-family: 'Open Sans', verdana, arial, sans-serif; font-size: 12px; fill: rgb(42, 63, 95); fill-opacity: 1; white-space: pre;"><tspan class="line" dy="0em" x="0" y="433">Jun 4</tspan><tspan class="line" dy="1.3em" x="0" y="433">2021</tspan></text></g><g class="xtick"><text text-anchor="middle" x="0" y="433" transform="translate(203.11,0)" style="font-family: 'Open Sans', verdana, arial, sans-serif; font-size: 12px; fill: rgb(42, 63, 95); fill-opacity: 1; white-space: pre;">Jun 6</text></g><g class="xtick"><text text-anchor="middle" x="0" y="433" transform="translate(315.76,0)" style="font-family: 'Open Sans', verdana, arial, sans-serif; font-size: 12px; fill: rgb(42, 63, 95); fill-opacity: 1; white-space: pre;">Jun 8</text></g><g class="xtick"><text text-anchor="middle" x="0" y="433" transform="translate(428.42,0)" style="font-family: 'Open Sans', verdana, arial, sans-serif; font-size: 12px; fill: rgb(42, 63, 95); fill-opacity: 1; white-space: pre;">Jun 10</text></g><g class="xtick"><text text-anchor="middle" x="0" y="433" transform="translate(541.0699999999999,0)" style="font-family: 'Open Sans', verdana, arial, sans-serif; font-size: 12px; fill: rgb(42, 63, 95); fill-opacity: 1; white-space: pre;">Jun 12</text></g></g><g class="yaxislayer-above"><g class="ytick"><text text-anchor="end" x="79" y="4.199999999999999" transform="translate(0,367.23)" style="font-family: 'Open Sans', verdana, arial, sans-serif; font-size: 12px; fill: rgb(42, 63, 95); fill-opacity: 1; white-space: pre;">0.8</text></g><g class="ytick"><text text-anchor="end" x="79" y="4.199999999999999" transform="translate(0,308.43)" style="font-family: 'Open Sans', verdana, arial, sans-serif; font-size: 12px; fill: rgb(42, 63, 95); fill-opacity: 1; white-space: pre;">0.82</text></g><g class="ytick"><text text-anchor="end" x="79" y="4.199999999999999" transform="translate(0,249.63)" style="font-family: 'Open Sans', verdana, arial, sans-serif; font-size: 12px; fill: rgb(42, 63, 95); fill-opacity: 1; white-space: pre;">0.84</text></g><g class="ytick"><text text-anchor="end" x="79" y="4.199999999999999" transform="translate(0,190.82999999999998)" style="font-family: 'Open Sans', verdana, arial, sans-serif; font-size: 12px; fill: rgb(42, 63, 95); fill-opacity: 1; white-space: pre;">0.86</text></g><g class="ytick"><text text-anchor="end" x="79" y="4.199999999999999" transform="translate(0,132.03)" style="font-family: 'Open Sans', verdana, arial, sans-serif; font-size: 12px; fill: rgb(42, 63, 95); fill-opacity: 1; white-space: pre;">0.88</text></g></g><g class="overaxes-above"/></g></g><g class="polarlayer"/><g class="ternarylayer"/><g class="geolayer"/><g class="funnelarealayer"/><g class="pielayer"/><g class="treemaplayer"/><g class="sunburstlayer"/><g class="glimages"/><defs id="topdefs-01c29d"><g class="clips"/><clipPath id="legend01c29d"><rect width="60" height="45" x="0" y="0"/></clipPath></defs><g class="layer-above"><g class="imagelayer"/><g class="shapelayer"/></g><g class="infolayer"><g class="legend" pointer-events="all" transform="translate(627.74,100)"><rect class="bg" shape-rendering="crispEdges" width="60" height="45" x="0" y="0" style="stroke: rgb(68, 68, 68); stroke-opacity: 1; fill: rgb(255, 255, 255); fill-opacity: 1; stroke-width: 0px;"/><g class="scrollbox" transform="" clip-path="url('#legend01c29d')"><text class="legendtitletext" text-anchor="start" x="2" y="15.600000000000001" style="font-family: 'Open Sans', verdana, arial, sans-serif; font-size: 12px; fill: rgb(42, 63, 95); fill-opacity: 1; white-space: pre;">All</text><g class="groups" transform=""><g class="traces" transform="translate(0,30.1)" style="opacity: 1;"><text class="legendtext" text-anchor="start" x="40" y="4.680000000000001" style="font-family: 'Open Sans', verdana, arial, sans-serif; font-size: 12px; fill: rgb(42, 63, 95); fill-opacity: 1; white-space: pre;">All</text><g class="layers" style="opacity: 1;"><g class="legendfill"/><g class="legendlines"><path class="js-line" d="M5,0h30" style="fill: none; stroke: rgb(99, 110, 250); stroke-opacity: 1; stroke-width: 2px;"/></g><g class="legendsymbols"><g class="legendpoints"/></g></g><rect class="legendtoggle" x="0" y="-9.5" width="54.890625" height="19" style="fill: rgb(0, 0, 0); fill-opacity: 0;"/></g></g></g><rect class="scrollbar" rx="20" ry="3" width="0" height="0" x="0" y="0" style="fill: rgb(128, 139, 164); fill-opacity: 1;"/></g><g class="g-gtitle"><text class="gtitle" x="35" y="50" text-anchor="start" dy="0em" style="font-family: 'Open Sans', verdana, arial, sans-serif; font-size: 17px; fill: rgb(42, 63, 95); opacity: 1; font-weight: normal; white-space: pre;">Singapore Vaccination Centers</text></g><g class="g-xtitle"><text class="xtitle" x="348.5" y="476.409375" text-anchor="middle" style="font-family: 'Open Sans', verdana, arial, sans-serif; font-size: 14px; fill: rgb(42, 63, 95); opacity: 1; font-weight: normal; white-space: pre;">Time</text></g><g class="g-ytitle"><text class="ytitle" transform="rotate(-90,27.481250000000003,260)" x="27.481250000000003" y="260" text-anchor="middle" style="font-family: 'Open Sans', verdana, arial, sans-serif; font-size: 14px; fill: rgb(42, 63, 95); opacity: 1; font-weight: normal; white-space: pre;">Filled/%</text></g></g></svg>