<svg class="main-svg" xmlns="http://www.w3.org/2000/svg" xmlns:xlink="http://www.w3.org/1999/xlink" width="700" height="500" style="" viewBox="0 0 700 500"><rect x="0" y="0" width="700" height="500" style="fill: rgb(255, 255, 255); fill-opacity: 1;"/><defs id="defs-5a8ddf"><g class="clips"><clipPath id="clip5a8ddfxyplot" class="plotclip"><rect width="537" height="320"/></clipPath><clipPath class="axesclip" id="clip5a8ddfx"><rect x="80" y="0" width="537" height="500"/></clipPath><clipPath class="axesclip" id="clip5a8ddfy"><rect x="0" y="100" width="700" height="320"/></clipPath><clipPath class="axesclip" id="clip5a8ddfxy"><rect x="80" y="100" width="537" height="320"/></clipPath></g><g class="gradients"/></defs><g class="bglayer"><rect class="bg" x="80" y="100" width="537" height="320" style="fill: rgb(229, 236, 246); fill-opacity: 1; stroke-width: 0;"/></g><g class="layer-below"><g class="imagelayer"/><g class="shapelayer"/></g><g class="cartesianlayer"><g class="subplot xy"><g class="layer-subplot"><g class="shapelayer"/><g class="imagelayer"/></g><g class="gridlayer"><g class="x"><path class="xgrid crisp" transform="translate(92.62,0)" d="M0,100v320" style="stroke: rgb(255, 255, 255); stroke-opacity: 1; stroke-width: 1px;"/><path class="xgrid crisp" transform="translate(228.54,0)" d="M0,100v320" style="stroke: rgb(255, 255, 255); stroke-opacity: 1; stroke-width: 1px;"/><path class="xgrid crisp" transform="translate(364.45,0)" d="M0,100v320" style="stroke: rgb(255, 255, 255); stroke-opacity: 1; stroke-width: 1px;"/><path class="xgrid crisp" transform="translate(500.37,0)" d="M0,100v320" style="stroke: rgb(255, 255, 255); stroke-opacity: 1; stroke-width: 1px;"/></g><g class="y"><path class="ygrid crisp" transform="translate(0,388.55)" d="M80,0h537" style="stroke: rgb(255, 255, 255); stroke-opacity: 1; stroke-width: 1px;"/><path class="ygrid crisp" transform="translate(0,328.59000000000003)" d="M80,0h537" style="stroke: rgb(255, 255, 255); stroke-opacity: 1; stroke-width: 1px;"/><path class="ygrid crisp" transform="translate(0,268.62)" d="M80,0h537" style="stroke: rgb(255, 255, 255); stroke-opacity: 1; stroke-width: 1px;"/><path class="ygrid crisp" transform="translate(0,208.65)" d="M80,0h537" style="stroke: rgb(255, 255, 255); stroke-opacity: 1; stroke-width: 1px;"/><path class="ygrid crisp" transform="translate(0,148.69)" d="M80,0h537" style="stroke: rgb(255, 255, 255); stroke-opacity: 1; stroke-width: 1px;"/></g></g><g class="zerolinelayer"/><path class="xlines-below"/><path class="ylines-below"/><g class="overlines-below"/><g class="xaxislayer-below"/><g class="yaxislayer-below"/><g class="overaxes-below"/><g class="plot" transform="translate(80,100)" clip-path="url('#clip5a8ddfxyplot')"><g class="scatterlayer mlayer"><g class="trace scatter trace5bd548" style="stroke-miterlimit: 2; opacity: 1;"><g class="fills"/><g class="errorbars"/><g class="lines"><path class="js-line" d="M0,151.19L7.97,151.66L10.8,229.1L16.43,229.27L18.52,262.63L19.4,262.59L40.25,264.75L41.54,230.62L41.94,247.75L42.88,247.62L44.77,241.12L45.72,240.91L47.6,248.08L48.55,247.91L50.43,254.04L51.37,253.87L53.26,229.53L54.21,229.39L56.1,253.89L57.04,253.71L58.93,241.74L59.87,234.89L61.76,214.27L62.7,206.72L64.59,176.26L65.53,172.83L67.42,134.64L68.36,132L70.25,144.05L71.2,141.9L73.08,113.25L74.03,111.49L75.92,116.91L76.86,115.59L78.75,134.84L79.69,133.95L80.94,89.08L81.58,90.52L82.52,90.13L88.19,89.24L89.13,89.09L104.23,88.15L105.17,87.9L108.95,86.16L109.89,85.57L126.88,75.25L127.83,74.69L133.49,72.26L134.44,71.89L147.65,66.89L148.6,68.6L158.03,68.01L158.97,68L176.91,67.22L177.85,67.01L215.61,58.48L216.55,55.84L227.88,55.49L228.82,55.49L242.98,54.9L243.92,54.72L258.08,51.59L259.03,51.4L278.84,47.5L279.79,47.34L283.57,46.7L284.52,41.63L300.56,41.35L301.5,41.34L312.83,40.62L313.77,40.47L316.61,40.09L317.55,177.9L325.13,174.99L326.08,174.7L329.82,173.3L330.76,170.02L332.65,165.13L333.6,163.9L334.54,161.87L335.49,156.05L337.37,139.75L338.32,136.11L342.09,127.34L343.04,125.71L347.76,119.81L348.7,118.87L351.53,116.83L352.47,116.97L356.25,115.8L357.19,115.71L368.52,115.2L369.46,115.19L377.01,114.44L377.96,114.25L385.51,110.82L386.45,110.1L390.23,106.69L391.17,111.42L394,109.69L394.95,108.08L400.61,93.54L401.55,91.96L404.39,85.93L405.33,83.58L406.27,81.23L407.22,76.19L410.05,64.63L410.99,62.22L416.65,51.69L417.6,50.45L419.49,48.8L420.43,49.12L424.21,47.64L425.15,47.48L433.65,46.79L434.59,46.74L442.14,45.95L443.08,45.71L447.8,43.17L448.74,42.54L451.58,40.66L452.52,135.95L454.41,132.71L455.35,131.76L462.91,125.54L463.85,125.01L465.74,123.7L466.46,130.07L466.68,122.85L467.58,122.57L467.63,124.6L468.53,121.95L468.57,123.98L469.51,123.33L471.4,122.24L472.35,139.26L480.61,134.11L480.65,130.85L480.69,130.28L480.84,133.76L489.81,74.61L490.28,74.88L490.75,68.92L491.69,69.28L492.17,71.47L493.58,59.71L494.06,68.22L495,65.31L495.47,64.27L497.36,61.13L497.83,62.83L498.3,61.41L498.77,61.96L499.25,61.73L500.66,61.69L501.13,71.11L503.02,70.86L503.49,69.29L503.96,70.36L504.43,70.09L504.91,69.01L505.85,68.96L506.33,68.4L507.27,57.64L507.74,56.31L510.1,51.51L510.57,48.58L511.04,48.66L511.51,46.17L512.46,37.58L512.93,35.63L513.4,34.38L513.87,29.12L514.34,16L514.82,17.64L515.29,269.28L515.76,267.32L516.23,273.13L517.18,262.37L517.65,266.85L518.6,261.05L519.07,262.03L519.54,271.47L520.01,282.53L520.48,255.49L521.43,265.01L521.9,304L523.31,255.72L523.78,280.01L524.26,286.09L524.73,282.54L525.2,277.11L526.14,257.41L526.62,260.16L527.56,281.24L528.03,273.19L528.51,272.46L528.97,292.91L529.92,270.62L530.39,286.61L531.34,242.53L531.81,263.97L532.75,269.91L533.22,266.71L534.17,249.22L534.64,251.93L535.11,247.11L535.58,265.33L536.06,256.77L536.53,266.22L537,266.49" style="vector-effect: non-scaling-stroke; fill: none; stroke: rgb(99, 110, 250); stroke-opacity: 1; stroke-width: 2px; opacity: 1;"/></g><g class="points"/><g class="text"/></g></g></g><g class="overplot"/><path class="xlines-above crisp" d="M0,0" style="fill: none;"/><path class="ylines-above crisp" d="M0,0" style="fill: none;"/><g class="overlines-above"/><g class="xaxislayer-above"><g class="xtick"><text text-anchor="middle" x="0" y="433" transform="translate(92.62,0)" style="font-family: 'Open Sans', verdana, arial, sans-serif; font-size: 12px; fill: rgb(42, 63, 95); fill-opacity: 1; white-space: pre;"><tspan class="line" dy="0em" x="0" y="433">Jun 4</tspan><tspan class="line" dy="1.3em" x="0" y="433">2021</tspan></text></g><g class="xtick"><text text-anchor="middle" x="0" y="433" transform="translate(228.54,0)" style="font-family: 'Open Sans', verdana, arial, sans-serif; font-size: 12px; fill: rgb(42, 63, 95); fill-opacity: 1; white-space: pre;">Jun 6</text></g><g class="xtick"><text text-anchor="middle" x="0" y="433" transform="translate(364.45,0)" style="font-family: 'Open Sans', verdana, arial, sans-serif; font-size: 12px; fill: rgb(42, 63, 95); fill-opacity: 1; white-space: pre;">Jun 8</text></g><g class="xtick"><text text-anchor="middle" x="0" y="433" transform="translate(500.37,0)" style="font-family: 'Open Sans', verdana, arial, sans-serif; font-size: 12px; fill: rgb(42, 63, 95); fill-opacity: 1; white-space: pre;">Jun 10</text></g></g><g class="yaxislayer-above"><g class="ytick"><text text-anchor="end" x="79" y="4.199999999999999" transform="translate(0,388.55)" style="font-family: 'Open Sans', verdana, arial, sans-serif; font-size: 12px; fill: rgb(42, 63, 95); fill-opacity: 1; white-space: pre;">0.84</text></g><g class="ytick"><text text-anchor="end" x="79" y="4.199999999999999" transform="translate(0,328.59000000000003)" style="font-family: 'Open Sans', verdana, arial, sans-serif; font-size: 12px; fill: rgb(42, 63, 95); fill-opacity: 1; white-space: pre;">0.85</text></g><g class="ytick"><text text-anchor="end" x="79" y="4.199999999999999" transform="translate(0,268.62)" style="font-family: 'Open Sans', verdana, arial, sans-serif; font-size: 12px; fill: rgb(42, 63, 95); fill-opacity: 1; white-space: pre;">0.86</text></g><g class="ytick"><text text-anchor="end" x="79" y="4.199999999999999" transform="translate(0,208.65)" style="font-family: 'Open Sans', verdana, arial, sans-serif; font-size: 12px; fill: rgb(42, 63, 95); fill-opacity: 1; white-space: pre;">0.87</text></g><g class="ytick"><text text-anchor="end" x="79" y="4.199999999999999" transform="translate(0,148.69)" style="font-family: 'Open Sans', verdana, arial, sans-serif; font-size: 12px; fill: rgb(42, 63, 95); fill-opacity: 1; white-space: pre;">0.88</text></g></g><g class="overaxes-above"/></g></g><g class="polarlayer"/><g class="ternarylayer"/><g class="geolayer"/><g class="funnelarealayer"/><g class="pielayer"/><g class="treemaplayer"/><g class="sunburstlayer"/><g class="glimages"/><defs id="topdefs-5a8ddf"><g class="clips"/><clipPath id="legend5a8ddf"><rect width="60" height="45" x="0" y="0"/></clipPath></defs><g class="layer-above"><g class="imagelayer"/><g class="shapelayer"/></g><g class="infolayer"><g class="legend" pointer-events="all" transform="translate(627.74,100)"><rect class="bg" shape-rendering="crispEdges" width="60" height="45" x="0" y="0" style="stroke: rgb(68, 68, 68); stroke-opacity: 1; fill: rgb(255, 255, 255); fill-opacity: 1; stroke-width: 0px;"/><g class="scrollbox" transform="" clip-path="url('#legend5a8ddf')"><text class="legendtitletext" text-anchor="start" x="2" y="15.600000000000001" style="font-family: 'Open Sans', verdana, arial, sans-serif; font-size: 12px; fill: rgb(42, 63, 95); fill-opacity: 1; white-space: pre;">All</text><g class="groups" transform=""><g class="traces" transform="translate(0,30.1)" style="opacity: 1;"><text class="legendtext" text-anchor="start" x="40" y="4.680000000000001" style="font-family: 'Open Sans', verdana, arial, sans-serif; font-size: 12px; fill: rgb(42, 63, 95); fill-opacity: 1; white-space: pre;">All</text><g class="layers" style="opacity: 1;"><g class="legendfill"/><g class="legendlines"><path class="js-line" d="M5,0h30" style="fill: none; stroke: rgb(99, 110, 250); stroke-opacity: 1; stroke-width: 2px;"/></g><g class="legendsymbols"><g class="legendpoints"/></g></g><rect class="legendtoggle" x="0" y="-9.5" width="54.890625" height="19" style="fill: rgb(0, 0, 0); fill-opacity: 0;"/></g></g></g><rect class="scrollbar" rx="20" ry="3" width="0" height="0" x="0" y="0" style="fill: rgb(128, 139, 164); fill-opacity: 1;"/></g><g class="g-gtitle"><text class="gtitle" x="35" y="50" text-anchor="start" dy="0em" style="font-family: 'Open Sans', verdana, arial, sans-serif; font-size: 17px; fill: rgb(42, 63, 95); opacity: 1; font-weight: normal; white-space: pre;">Singapore Vaccination Centers</text></g><g class="g-xtitle"><text class="xtitle" x="348.5" y="476.409375" text-anchor="middle" style="font-family: 'Open Sans', verdana, arial, sans-serif; font-size: 14px; fill: rgb(42, 63, 95); opacity: 1; font-weight: normal; white-space: pre;">Time</text></g><g class="g-ytitle"><text class="ytitle" transform="rotate(-90,27.481250000000003,260)" x="27.481250000000003" y="260" text-anchor="middle" style="font-family: 'Open Sans', verdana, arial, sans-serif; font-size: 14px; fill: rgb(42, 63, 95); opacity: 1; font-weight: normal; white-space: pre;">Filled/%</text></g></g></svg>