<svg class="main-svg" xmlns="http://www.w3.org/2000/svg" xmlns:xlink="http://www.w3.org/1999/xlink" width="700" height="500" style="" viewBox="0 0 700 500"><rect x="0" y="0" width="700" height="500" style="fill: rgb(255, 255, 255); fill-opacity: 1;"/><defs id="defs-357586"><g class="clips"><clipPath id="clip357586xyplot" class="plotclip"><rect width="537" height="320"/></clipPath><clipPath class="axesclip" id="clip357586x"><rect x="80" y="0" width="537" height="500"/></clipPath><clipPath class="axesclip" id="clip357586y"><rect x="0" y="100" width="700" height="320"/></clipPath><clipPath class="axesclip" id="clip357586xy"><rect x="80" y="100" width="537" height="320"/></clipPath></g><g class="gradients"/></defs><g class="bglayer"><rect class="bg" x="80" y="100" width="537" height="320" style="fill: rgb(229, 236, 246); fill-opacity: 1; stroke-width: 0;"/></g><g class="layer-below"><g class="imagelayer"/><g class="shapelayer"/></g><g class="cartesianlayer"><g class="subplot xy"><g class="layer-subplot"><g class="shapelayer"/><g class="imagelayer"/></g><g class="gridlayer"><g class="x"><path class="xgrid crisp" transform="translate(83.07,0)" d="M0,100v320" style="stroke: rgb(255, 255, 255); stroke-opacity: 1; stroke-width: 1px;"/><path class="xgrid crisp" transform="translate(201.51,0)" d="M0,100v320" style="stroke: rgb(255, 255, 255); stroke-opacity: 1; stroke-width: 1px;"/><path class="xgrid crisp" transform="translate(319.95,0)" d="M0,100v320" style="stroke: rgb(255, 255, 255); stroke-opacity: 1; stroke-width: 1px;"/><path class="xgrid crisp" transform="translate(438.39,0)" d="M0,100v320" style="stroke: rgb(255, 255, 255); stroke-opacity: 1; stroke-width: 1px;"/><path class="xgrid crisp" transform="translate(556.8299999999999,0)" d="M0,100v320" style="stroke: rgb(255, 255, 255); stroke-opacity: 1; stroke-width: 1px;"/></g><g class="y"><path class="ygrid crisp" transform="translate(0,392.55)" d="M80,0h537" style="stroke: rgb(255, 255, 255); stroke-opacity: 1; stroke-width: 1px;"/><path class="ygrid crisp" transform="translate(0,349.77)" d="M80,0h537" style="stroke: rgb(255, 255, 255); stroke-opacity: 1; stroke-width: 1px;"/><path class="ygrid crisp" transform="translate(0,306.99)" d="M80,0h537" style="stroke: rgb(255, 255, 255); stroke-opacity: 1; stroke-width: 1px;"/><path class="ygrid crisp" transform="translate(0,264.21000000000004)" d="M80,0h537" style="stroke: rgb(255, 255, 255); stroke-opacity: 1; stroke-width: 1px;"/><path class="ygrid crisp" transform="translate(0,221.43)" d="M80,0h537" style="stroke: rgb(255, 255, 255); stroke-opacity: 1; stroke-width: 1px;"/><path class="ygrid crisp" transform="translate(0,178.65)" d="M80,0h537" style="stroke: rgb(255, 255, 255); stroke-opacity: 1; stroke-width: 1px;"/><path class="ygrid crisp" transform="translate(0,135.87)" d="M80,0h537" style="stroke: rgb(255, 255, 255); stroke-opacity: 1; stroke-width: 1px;"/></g></g><g class="zerolinelayer"/><path class="xlines-below"/><path class="ylines-below"/><g class="overlines-below"/><g class="xaxislayer-below"/><g class="yaxislayer-below"/><g class="overaxes-below"/><g class="plot" transform="translate(80,100)" clip-path="url('#clip357586xyplot')"><g class="scatterlayer mlayer"><g class="trace scatter trace6ec0c5" style="stroke-miterlimit: 2; opacity: 1;"><g class="fills"/><g class="errorbars"/><g class="lines"><path class="js-line" d="M0,304L2.37,302.59L3.19,249.74L4.02,251.04L4.84,249.35L8.13,248.71L8.95,248.32L10.6,249.1L11.42,248.19L13.06,248.58L13.89,248.19L15.53,247.93L16.35,247.67L18,247.41L18.82,247.16L25.4,246.77L26.22,246.51L31.16,246.12L31.98,245.73L33.63,245.86L34.45,245.22L36.09,245.09L36.91,244.44L37.74,244.96L38.56,244.57L39.38,243.66L40.21,243.92L41.03,244.57L41.85,243.02L44.32,242.11L45.14,242.63L45.96,242.24L46.79,243.15L47.61,242.24L48.43,240.17L50.07,240.69L50.9,239.78L54.19,237.84L55.01,236.94L56.65,238.23L57.48,237.07L58.3,235L59.12,235.51L59.94,236.55L60.76,235L62.41,232.67L63.23,232.28L64.88,230.6L65.7,231.12L67.34,229.95L68.17,230.21L68.99,231.76L69.81,229.56L72.28,230.6L73.11,230.21L74.75,226.46L75.57,226.07L76.4,226.85L77.22,225.55L78.04,225.68L78.86,227.36L79.69,227.11L80.51,225.55L83.8,221.16L84.62,218.44L85.44,219.09L86.26,217.66L87.09,216.63L87.91,217.4L89.55,217.66L90.38,218.7L93.67,216.5L94.49,216.37L96.14,215.72L96.96,214.69L97.78,214.3L98.6,214.82L100.25,215.98L101.07,214.43L103.54,213.39L104.36,212.88L106.01,212.23L106.83,211.45L109.29,212.23L110.12,211.84L111.76,211.58L112.59,211.84L114.23,210.42L115.05,208.87L116.7,207.7L117.52,206.93L119.16,207.96L119.99,207.44L120.81,207.96L121.63,142.27L124.1,140.18L124.93,140.44L126.57,139.92L127.39,139.01L129.04,139.14L129.86,139.14L133.15,138.48L133.97,138.35L136.44,137.83L137.26,137.96L144.66,137.96L145.49,138.09L151.24,137.83L152.07,137.18L154.53,137.18L155.35,136.14L158.64,136.27L159.47,135.74L161.11,135.88L161.93,135.22L163.58,134.57L164.4,135.22L167.69,132.22L168.51,133.27L170.98,131.57L171.8,132.22L175.09,128.44L175.92,130.14L179.2,127.14L180.03,128.05L181.67,126.48L182.49,127.66L183.32,128.7L184.14,127.79L184.96,128.83L185.79,128.31L186.61,127.4L187.43,128.44L188.25,127.79L189.07,128.18L191.54,128.83L192.37,128.44L194.03,126.48L194.84,125.05L196.49,124.92L197.31,125.44L198.13,125.96L198.96,124.01L202.25,123.09L203.07,121.4L206.36,121.92L207.18,120.61L208,118.4L208.83,119.96L209.66,119.96L210.48,118.79L211.3,119.7L212.12,119.18L213.77,117.35L214.59,117.48L217.06,114.35L217.88,114.48L219.52,112.14L220.34,112.92L221.99,110.83L222.81,111.35L225.28,110.7L226.1,108.09L226.92,107.96L227.74,106.92L228.57,105.48L229.39,105.74L230.21,106L231.04,107.18L231.86,107.83L232.68,107.18L233.51,109.13L234.33,108.35L235.15,108.22L235.97,106.66L236.79,106.27L237.62,106.79L239.26,107.05L240.08,61.25L241.73,59.41L242.55,59.15L245.02,57.57L245.84,57.17L247.49,57.04L248.31,56.78L251.6,55.46L252.42,54.54L254.07,54.28L254.89,54.81L258.18,53.75L259,53.62L260.65,53.62L261.47,53.75L274.63,51.78L275.45,52.18L277.92,51.12L278.73,51.25L279.56,51.52L280.38,50.73L285.32,50.07L286.96,49.54L287.78,48.23L289.43,47.83L291.07,47.44L291.9,45.73L292.72,46.91L293.54,45.73L295.19,45.73L296.01,45.07L296.83,44.94L297.65,43.76L300.12,43.49L300.94,41.91L302.59,40.2L303.41,39.42L304.21,38.1L305.03,38.76L307.5,37.71L308.32,36L311.61,35.34L312.43,33.36L313.25,32.71L314.07,33.23L315.72,32.44L316.54,32.05L317.37,31.92L318.19,30.86L319.83,30.86L320.65,31.39L322.3,32.97L323.13,31.13L324.77,32.31L325.6,30.34L327.24,30.47L328.06,30.86L330.53,29.02L331.35,29.42L332.99,27.71L333.82,26.66L334.64,24.16L335.47,24.68L336.28,23.24L337.11,24.68L338.75,22.84L339.58,22.58L340.4,21.26L341.22,21.66L342.87,21.79L343.68,20.74L344.51,21.26L345.33,19.68L346.98,19.55L347.8,18.5L351.09,18.89L351.91,17.97L352.73,17.45L353.56,17.84L354.38,17.97L355.2,17.05L356.03,16L356.84,16.66L357.67,16.39L358.5,171.81L362.61,171.4L363.43,172.08L365.9,170.99L366.72,170.99L368.37,169.76L369.19,169.76L370.83,168.94L371.65,169.08L385.64,168.39L386.46,167.98L397.14,165.8L397.97,165.12L402.08,164.02L402.91,162.66L406.22,162.38L407.05,163.61L408.69,161.7L409.51,161.57L410.34,160.88L411.16,158.43L411.98,156.51L412.8,156.79L413.63,156.1L414.45,154.33L415.27,154.88L416.09,154.19L417.74,154.33L418.56,153.37L420.21,152.69L421.03,153.65L423.5,150.92L424.32,151.87L426.79,149.14L427.61,149.14L428.43,148.32L429.25,149.41L430.9,150.37L431.72,149.41L432.54,149.55L433.37,148.73L436.66,145.18L437.48,144.5L439.94,143.54L440.77,145.04L445.71,141.9L446.53,143.68L447.35,121.97L448.18,121.97L450.64,120.88L451.46,116.1L452.28,116.24L453.1,112.28L453.93,112.55L454.75,109.96L455.58,106.95L456.4,107.91L458.86,101.22L459.69,98.08L461.33,97.53L462.16,95.35L462.98,94.8L463.8,92.07L465.45,89.34L466.27,89.34L467.92,85.93L468.73,85.65L471.2,82.78L472.03,80.19L476.14,75L476.96,88.44L481.08,84.03L481.9,84.45L482.72,84.31L483.54,85.14L485.19,84.72L486.01,85.41L487.66,84.59L488.47,84.45L490.12,84.03L490.95,84.03L492.59,84.17L493.41,83.62L499.17,84.03L499.99,83.62L504.93,83.21L505.75,83.48L509.03,83.48L509.86,83.35L511.51,83.35L512.33,83.35L514.79,83.35L515.62,83.9L519.73,79.9L520.55,80.18L523.02,78.8L523.84,78.94L524.67,78.53L525.49,76.87L527.13,77.15L527.95,75.63L532.07,72.47L532.89,72.88L534.53,69.99L535.36,69.44L537,68.06" style="vector-effect: non-scaling-stroke; fill: none; stroke: rgb(99, 110, 250); stroke-opacity: 1; stroke-width: 2px; opacity: 1;"/></g><g class="points"/><g class="text"/></g></g></g><g class="overplot"/><path class="xlines-above crisp" d="M0,0" style="fill: none;"/><path class="ylines-above crisp" d="M0,0" style="fill: none;"/><g class="overlines-above"/><g class="xaxislayer-above"><g class="xtick"><text text-anchor="middle" x="0" y="433" transform="translate(83.07,0)" style="font-family: 'Open Sans', verdana, arial, sans-serif; font-size: 12px; fill: rgb(42, 63, 95); fill-opacity: 1; white-space: pre;"><tspan class="line" dy="0em" x="0" y="433">Aug 3</tspan><tspan class="line" dy="1.3em" x="0" y="433">2021</tspan></text></g><g class="xtick"><text text-anchor="middle" x="0" y="433" transform="translate(201.51,0)" style="font-family: 'Open Sans', verdana, arial, sans-serif; font-size: 12px; fill: rgb(42, 63, 95); fill-opacity: 1; white-space: pre;">Aug 4</text></g><g class="xtick"><text text-anchor="middle" x="0" y="433" transform="translate(319.95,0)" style="font-family: 'Open Sans', verdana, arial, sans-serif; font-size: 12px; fill: rgb(42, 63, 95); fill-opacity: 1; white-space: pre;">Aug 5</text></g><g class="xtick"><text text-anchor="middle" x="0" y="433" transform="translate(438.39,0)" style="font-family: 'Open Sans', verdana, arial, sans-serif; font-size: 12px; fill: rgb(42, 63, 95); fill-opacity: 1; white-space: pre;">Aug 6</text></g><g class="xtick"><text text-anchor="middle" x="0" y="433" transform="translate(556.8299999999999,0)" style="font-family: 'Open Sans', verdana, arial, sans-serif; font-size: 12px; fill: rgb(42, 63, 95); fill-opacity: 1; white-space: pre;">Aug 7</text></g></g><g class="yaxislayer-above"><g class="ytick"><text text-anchor="end" x="79" y="4.199999999999999" transform="translate(0,392.55)" style="font-family: 'Open Sans', verdana, arial, sans-serif; font-size: 12px; fill: rgb(42, 63, 95); fill-opacity: 1; white-space: pre;">0.864</text></g><g class="ytick"><text text-anchor="end" x="79" y="4.199999999999999" transform="translate(0,349.77)" style="font-family: 'Open Sans', verdana, arial, sans-serif; font-size: 12px; fill: rgb(42, 63, 95); fill-opacity: 1; white-space: pre;">0.865</text></g><g class="ytick"><text text-anchor="end" x="79" y="4.199999999999999" transform="translate(0,306.99)" style="font-family: 'Open Sans', verdana, arial, sans-serif; font-size: 12px; fill: rgb(42, 63, 95); fill-opacity: 1; white-space: pre;">0.866</text></g><g class="ytick"><text text-anchor="end" x="79" y="4.199999999999999" transform="translate(0,264.21000000000004)" style="font-family: 'Open Sans', verdana, arial, sans-serif; font-size: 12px; fill: rgb(42, 63, 95); fill-opacity: 1; white-space: pre;">0.867</text></g><g class="ytick"><text text-anchor="end" x="79" y="4.199999999999999" transform="translate(0,221.43)" style="font-family: 'Open Sans', verdana, arial, sans-serif; font-size: 12px; fill: rgb(42, 63, 95); fill-opacity: 1; white-space: pre;">0.868</text></g><g class="ytick"><text text-anchor="end" x="79" y="4.199999999999999" transform="translate(0,178.65)" style="font-family: 'Open Sans', verdana, arial, sans-serif; font-size: 12px; fill: rgb(42, 63, 95); fill-opacity: 1; white-space: pre;">0.869</text></g><g class="ytick"><text text-anchor="end" x="79" y="4.199999999999999" transform="translate(0,135.87)" style="font-family: 'Open Sans', verdana, arial, sans-serif; font-size: 12px; fill: rgb(42, 63, 95); fill-opacity: 1; white-space: pre;">0.87</text></g></g><g class="overaxes-above"/></g></g><g class="polarlayer"/><g class="ternarylayer"/><g class="geolayer"/><g class="funnelarealayer"/><g class="pielayer"/><g class="treemaplayer"/><g class="sunburstlayer"/><g class="glimages"/><defs id="topdefs-357586"><g class="clips"/><clipPath id="legend357586"><rect width="60" height="45" x="0" y="0"/></clipPath></defs><g class="layer-above"><g class="imagelayer"/><g class="shapelayer"/></g><g class="infolayer"><g class="legend" pointer-events="all" transform="translate(627.74,100)"><rect class="bg" shape-rendering="crispEdges" width="60" height="45" x="0" y="0" style="stroke: rgb(68, 68, 68); stroke-opacity: 1; fill: rgb(255, 255, 255); fill-opacity: 1; stroke-width: 0px;"/><g class="scrollbox" transform="" clip-path="url('#legend357586')"><text class="legendtitletext" text-anchor="start" x="2" y="15.600000000000001" style="font-family: 'Open Sans', verdana, arial, sans-serif; font-size: 12px; fill: rgb(42, 63, 95); fill-opacity: 1; white-space: pre;">All</text><g class="groups" transform=""><g class="traces" transform="translate(0,30.1)" style="opacity: 1;"><text class="legendtext" text-anchor="start" x="40" y="4.680000000000001" style="font-family: 'Open Sans', verdana, arial, sans-serif; font-size: 12px; fill: rgb(42, 63, 95); fill-opacity: 1; white-space: pre;">All</text><g class="layers" style="opacity: 1;"><g class="legendfill"/><g class="legendlines"><path class="js-line" d="M5,0h30" style="fill: none; stroke: rgb(99, 110, 250); stroke-opacity: 1; stroke-width: 2px;"/></g><g class="legendsymbols"><g class="legendpoints"/></g></g><rect class="legendtoggle" x="0" y="-9.5" width="54.890625" height="19" style="fill: rgb(0, 0, 0); fill-opacity: 0;"/></g></g></g><rect class="scrollbar" rx="20" ry="3" width="0" height="0" x="0" y="0" style="fill: rgb(128, 139, 164); fill-opacity: 1;"/></g><g class="g-gtitle"><text class="gtitle" x="35" y="50" text-anchor="start" dy="0em" style="font-family: 'Open Sans', verdana, arial, sans-serif; font-size: 17px; fill: rgb(42, 63, 95); opacity: 1; font-weight: normal; white-space: pre;">Singapore Vaccination Centers</text></g><g class="g-xtitle"><text class="xtitle" x="348.5" y="476.409375" text-anchor="middle" style="font-family: 'Open Sans', verdana, arial, sans-serif; font-size: 14px; fill: rgb(42, 63, 95); opacity: 1; font-weight: normal; white-space: pre;">Time</text></g><g class="g-ytitle"><text class="ytitle" transform="rotate(-90,19.840625000000003,260)" x="19.840625000000003" y="260" text-anchor="middle" style="font-family: 'Open Sans', verdana, arial, sans-serif; font-size: 14px; fill: rgb(42, 63, 95); opacity: 1; font-weight: normal; white-space: pre;">Filled/%</text></g></g></svg>