<svg class="main-svg" xmlns="http://www.w3.org/2000/svg" xmlns:xlink="http://www.w3.org/1999/xlink" width="700" height="500" style="" viewBox="0 0 700 500"><rect x="0" y="0" width="700" height="500" style="fill: rgb(255, 255, 255); fill-opacity: 1;"/><defs id="defs-b4b052"><g class="clips"><clipPath id="clipb4b052xyplot" class="plotclip"><rect width="537" height="320"/></clipPath><clipPath class="axesclip" id="clipb4b052x"><rect x="80" y="0" width="537" height="500"/></clipPath><clipPath class="axesclip" id="clipb4b052y"><rect x="0" y="100" width="700" height="320"/></clipPath><clipPath class="axesclip" id="clipb4b052xy"><rect x="80" y="100" width="537" height="320"/></clipPath></g><g class="gradients"/></defs><g class="bglayer"><rect class="bg" x="80" y="100" width="537" height="320" style="fill: rgb(229, 236, 246); fill-opacity: 1; stroke-width: 0;"/></g><g class="layer-below"><g class="imagelayer"/><g class="shapelayer"/></g><g class="cartesianlayer"><g class="subplot xy"><g class="layer-subplot"><g class="shapelayer"/><g class="imagelayer"/></g><g class="gridlayer"><g class="x"><path class="xgrid crisp" transform="translate(91.88,0)" d="M0,100v320" style="stroke: rgb(255, 255, 255); stroke-opacity: 1; stroke-width: 1px;"/><path class="xgrid crisp" transform="translate(219.81,0)" d="M0,100v320" style="stroke: rgb(255, 255, 255); stroke-opacity: 1; stroke-width: 1px;"/><path class="xgrid crisp" transform="translate(347.75,0)" d="M0,100v320" style="stroke: rgb(255, 255, 255); stroke-opacity: 1; stroke-width: 1px;"/><path class="xgrid crisp" transform="translate(475.68,0)" d="M0,100v320" style="stroke: rgb(255, 255, 255); stroke-opacity: 1; stroke-width: 1px;"/><path class="xgrid crisp" transform="translate(603.62,0)" d="M0,100v320" style="stroke: rgb(255, 255, 255); stroke-opacity: 1; stroke-width: 1px;"/></g><g class="y"><path class="ygrid crisp" transform="translate(0,367.23)" d="M80,0h537" style="stroke: rgb(255, 255, 255); stroke-opacity: 1; stroke-width: 1px;"/><path class="ygrid crisp" transform="translate(0,308.43)" d="M80,0h537" style="stroke: rgb(255, 255, 255); stroke-opacity: 1; stroke-width: 1px;"/><path class="ygrid crisp" transform="translate(0,249.63)" d="M80,0h537" style="stroke: rgb(255, 255, 255); stroke-opacity: 1; stroke-width: 1px;"/><path class="ygrid crisp" transform="translate(0,190.82999999999998)" d="M80,0h537" style="stroke: rgb(255, 255, 255); stroke-opacity: 1; stroke-width: 1px;"/><path class="ygrid crisp" transform="translate(0,132.03)" d="M80,0h537" style="stroke: rgb(255, 255, 255); stroke-opacity: 1; stroke-width: 1px;"/></g></g><g class="zerolinelayer"/><path class="xlines-below"/><path class="ylines-below"/><g class="overlines-below"/><g class="xaxislayer-below"/><g class="yaxislayer-below"/><g class="overaxes-below"/><g class="plot" transform="translate(80,100)" clip-path="url('#clipb4b052xyplot')"><g class="scatterlayer mlayer"><g class="trace scatter trace34665c" style="stroke-miterlimit: 2; opacity: 1;"><g class="fills"/><g class="errorbars"/><g class="lines"><path class="js-line" d="M0,82.28L7.5,82.51L10.17,120.48L15.46,120.57L17.43,136.92L18.26,136.9L37.88,137.96L39.1,121.23L39.47,129.62L40.36,129.56L42.14,126.37L43.03,126.27L44.81,129.79L45.69,129.7L47.47,132.71L48.36,132.63L50.14,120.69L51.03,120.62L52.8,132.64L53.69,132.55L55.47,126.68L56.35,123.32L58.13,113.21L59.02,109.51L60.8,94.58L61.69,92.89L63.46,74.17L64.35,72.87L66.13,78.78L67.02,77.73L68.79,63.68L69.68,62.82L71.46,65.47L72.34,64.83L74.12,74.27L75.01,73.83L76.18,51.83L76.79,52.53L77.68,52.34L86.56,51.79L87.45,51.79L100.77,50.91L101.66,50.65L132.76,42.03L133.65,41.83L138.98,40.95L139.87,41.79L155.86,41.46L156.75,41.46L170.96,40.58L171.85,40.48L200.28,37.08L201.17,36.99L202.94,36.83L203.83,35.53L238.48,34L239.37,33.87L266.91,31.05L267.81,28.56L298.01,27.81L298.9,95.38L308.7,93.57L309.56,93.44L310.45,93.12L311.34,91.51L314,88.51L314.89,87.52L318.45,74.89L319.33,73.59L322.89,69.79L323.78,69.11L329.11,66.07L330,65.71L334.44,65.01L335.33,64.93L359.31,63.48L360.2,63.27L365.53,61.32L366.42,60.89L367.31,60.46L368.2,62.78L371.75,61.15L372.64,59.94L377.08,54.01L377.97,53.24L381.52,49.13L382.41,47.98L385.96,39.84L386.85,38.66L392.18,33.5L393.07,32.89L396.63,31.98L397.52,31.8L404.62,31.18L405.51,31.16L418.84,30.17L419.72,29.9L425.06,28.09L425.94,74.81L427.72,73.22L428.61,72.76L437.5,69.16L438.38,68.8L439.07,71.93L439.27,68.39L440.12,68.25L440.16,69.25L441.01,67.95L441.05,68.94L441.94,68.62L443.72,68.09L444.6,76.43L452.38,73.91L452.42,72.31L452.46,72.03L452.6,73.74L461.04,44.74L461.48,44.87L461.93,41.95L462.81,42.12L463.26,43.2L464.59,37.43L465.04,41.6L466.37,39.66L466.81,39.05L468.15,38.13L468.59,38.96L469.48,38.53L469.92,38.42L471.26,38.4L471.7,43.02L476.59,41.69L477.03,36.5L477.92,35.76L478.36,35.39L479.69,33.79L480.14,33.41L483.69,22.43L484.14,16L484.58,16.8L485.03,140.18L485.47,139.22L485.91,142.07L486.8,136.79L487.25,138.99L488.14,136.15L488.58,136.63L489.02,141.25L489.47,146.68L489.91,133.42L490.8,138.09L491.24,157.2L492.58,133.53L493.02,145.44L493.46,148.42L493.91,146.68L494.35,144.02L495.24,134.36L495.69,135.71L496.57,146.05L497.02,142.1L497.46,141.74L497.91,151.77L498.79,140.84L499.24,148.68L500.13,127.07L500.57,137.58L501.46,140.49L501.91,138.92L502.79,130.34L503.24,131.67L503.68,129.31L504.13,138.25L504.57,134.05L505.01,138.68L505.46,138.81L505.9,131.49L506.35,131.42L506.79,140.05L507.68,132.48L508.13,138.41L509.01,141.46L509.46,128.79L510.35,142.96L510.79,264.58L511.68,292.55L512.13,293.12L512.57,304L513.02,286.22L513.46,301.52L513.9,291.75L514.34,292.1L514.79,291.07L515.24,294.16L515.68,293.46L516.12,276.02L516.57,283.67L517.01,262.28L517.9,272.54L518.34,248.89L519.23,241.71L519.67,229.6L520.12,224.98L520.56,228.24L521.01,227.36L521.45,223.79L522.34,215.22L522.78,217.06L523.23,216.4L523.67,227.08L524.12,226.08L524.56,228.38L525.01,228.68L525.45,224.72L525.89,233.57L526.34,224.28L527.23,227.75L527.67,223.07L528.56,226.33L529.01,223.26L529.45,224.52L529.89,234.01L530.34,220.81L530.78,231.91L532.11,220.15L532.56,220.86L533.89,212.72L534.34,220.76L535.22,220.72L535.67,223.7L536.11,223.67L536.55,219.37L537,223.08" style="vector-effect: non-scaling-stroke; fill: none; stroke: rgb(99, 110, 250); stroke-opacity: 1; stroke-width: 2px; opacity: 1;"/></g><g class="points"/><g class="text"/></g></g></g><g class="overplot"/><path class="xlines-above crisp" d="M0,0" style="fill: none;"/><path class="ylines-above crisp" d="M0,0" style="fill: none;"/><g class="overlines-above"/><g class="xaxislayer-above"><g class="xtick"><text text-anchor="middle" x="0" y="433" transform="translate(91.88,0)" style="font-family: 'Open Sans', verdana, arial, sans-serif; font-size: 12px; fill: rgb(42, 63, 95); fill-opacity: 1; white-space: pre;"><tspan class="line" dy="0em" x="0" y="433">Jun 4</tspan><tspan class="line" dy="1.3em" x="0" y="433">2021</tspan></text></g><g class="xtick"><text text-anchor="middle" x="0" y="433" transform="translate(219.81,0)" style="font-family: 'Open Sans', verdana, arial, sans-serif; font-size: 12px; fill: rgb(42, 63, 95); fill-opacity: 1; white-space: pre;">Jun 6</text></g><g class="xtick"><text text-anchor="middle" x="0" y="433" transform="translate(347.75,0)" style="font-family: 'Open Sans', verdana, arial, sans-serif; font-size: 12px; fill: rgb(42, 63, 95); fill-opacity: 1; white-space: pre;">Jun 8</text></g><g class="xtick"><text text-anchor="middle" x="0" y="433" transform="translate(475.68,0)" style="font-family: 'Open Sans', verdana, arial, sans-serif; font-size: 12px; fill: rgb(42, 63, 95); fill-opacity: 1; white-space: pre;">Jun 10</text></g><g class="xtick"><text text-anchor="middle" x="0" y="433" transform="translate(603.62,0)" style="font-family: 'Open Sans', verdana, arial, sans-serif; font-size: 12px; fill: rgb(42, 63, 95); fill-opacity: 1; white-space: pre;">Jun 12</text></g></g><g class="yaxislayer-above"><g class="ytick"><text text-anchor="end" x="79" y="4.199999999999999" transform="translate(0,367.23)" style="font-family: 'Open Sans', verdana, arial, sans-serif; font-size: 12px; fill: rgb(42, 63, 95); fill-opacity: 1; white-space: pre;">0.8</text></g><g class="ytick"><text text-anchor="end" x="79" y="4.199999999999999" transform="translate(0,308.43)" style="font-family: 'Open Sans', verdana, arial, sans-serif; font-size: 12px; fill: rgb(42, 63, 95); fill-opacity: 1; white-space: pre;">0.82</text></g><g class="ytick"><text text-anchor="end" x="79" y="4.199999999999999" transform="translate(0,249.63)" style="font-family: 'Open Sans', verdana, arial, sans-serif; font-size: 12px; fill: rgb(42, 63, 95); fill-opacity: 1; white-space: pre;">0.84</text></g><g class="ytick"><text text-anchor="end" x="79" y="4.199999999999999" transform="translate(0,190.82999999999998)" style="font-family: 'Open Sans', verdana, arial, sans-serif; font-size: 12px; fill: rgb(42, 63, 95); fill-opacity: 1; white-space: pre;">0.86</text></g><g class="ytick"><text text-anchor="end" x="79" y="4.199999999999999" transform="translate(0,132.03)" style="font-family: 'Open Sans', verdana, arial, sans-serif; font-size: 12px; fill: rgb(42, 63, 95); fill-opacity: 1; white-space: pre;">0.88</text></g></g><g class="overaxes-above"/></g></g><g class="polarlayer"/><g class="ternarylayer"/><g class="geolayer"/><g class="funnelarealayer"/><g class="pielayer"/><g class="treemaplayer"/><g class="sunburstlayer"/><g class="glimages"/><defs id="topdefs-b4b052"><g class="clips"/><clipPath id="legendb4b052"><rect width="60" height="45" x="0" y="0"/></clipPath></defs><g class="layer-above"><g class="imagelayer"/><g class="shapelayer"/></g><g class="infolayer"><g class="legend" pointer-events="all" transform="translate(627.74,100)"><rect class="bg" shape-rendering="crispEdges" width="60" height="45" x="0" y="0" style="stroke: rgb(68, 68, 68); stroke-opacity: 1; fill: rgb(255, 255, 255); fill-opacity: 1; stroke-width: 0px;"/><g class="scrollbox" transform="" clip-path="url('#legendb4b052')"><text class="legendtitletext" text-anchor="start" x="2" y="15.600000000000001" style="font-family: 'Open Sans', verdana, arial, sans-serif; font-size: 12px; fill: rgb(42, 63, 95); fill-opacity: 1; white-space: pre;">All</text><g class="groups" transform=""><g class="traces" transform="translate(0,30.1)" style="opacity: 1;"><text class="legendtext" text-anchor="start" x="40" y="4.680000000000001" style="font-family: 'Open Sans', verdana, arial, sans-serif; font-size: 12px; fill: rgb(42, 63, 95); fill-opacity: 1; white-space: pre;">All</text><g class="layers" style="opacity: 1;"><g class="legendfill"/><g class="legendlines"><path class="js-line" d="M5,0h30" style="fill: none; stroke: rgb(99, 110, 250); stroke-opacity: 1; stroke-width: 2px;"/></g><g class="legendsymbols"><g class="legendpoints"/></g></g><rect class="legendtoggle" x="0" y="-9.5" width="54.890625" height="19" style="fill: rgb(0, 0, 0); fill-opacity: 0;"/></g></g></g><rect class="scrollbar" rx="20" ry="3" width="0" height="0" x="0" y="0" style="fill: rgb(128, 139, 164); fill-opacity: 1;"/></g><g class="g-gtitle"><text class="gtitle" x="35" y="50" text-anchor="start" dy="0em" style="font-family: 'Open Sans', verdana, arial, sans-serif; font-size: 17px; fill: rgb(42, 63, 95); opacity: 1; font-weight: normal; white-space: pre;">Singapore Vaccination Centers</text></g><g class="g-xtitle"><text class="xtitle" x="348.5" y="476.409375" text-anchor="middle" style="font-family: 'Open Sans', verdana, arial, sans-serif; font-size: 14px; fill: rgb(42, 63, 95); opacity: 1; font-weight: normal; white-space: pre;">Time</text></g><g class="g-ytitle"><text class="ytitle" transform="rotate(-90,27.481250000000003,260)" x="27.481250000000003" y="260" text-anchor="middle" style="font-family: 'Open Sans', verdana, arial, sans-serif; font-size: 14px; fill: rgb(42, 63, 95); opacity: 1; font-weight: normal; white-space: pre;">Filled/%</text></g></g></svg>