<svg class="main-svg" xmlns="http://www.w3.org/2000/svg" xmlns:xlink="http://www.w3.org/1999/xlink" width="700" height="500" style="" viewBox="0 0 700 500"><rect x="0" y="0" width="700" height="500" style="fill: rgb(255, 255, 255); fill-opacity: 1;"/><defs id="defs-07a5a0"><g class="clips"><clipPath id="clip07a5a0xyplot" class="plotclip"><rect width="537" height="320"/></clipPath><clipPath class="axesclip" id="clip07a5a0x"><rect x="80" y="0" width="537" height="500"/></clipPath><clipPath class="axesclip" id="clip07a5a0y"><rect x="0" y="100" width="700" height="320"/></clipPath><clipPath class="axesclip" id="clip07a5a0xy"><rect x="80" y="100" width="537" height="320"/></clipPath></g><g class="gradients"/></defs><g class="bglayer"><rect class="bg" x="80" y="100" width="537" height="320" style="fill: rgb(229, 236, 246); fill-opacity: 1; stroke-width: 0;"/></g><g class="layer-below"><g class="imagelayer"/><g class="shapelayer"/></g><g class="cartesianlayer"><g class="subplot xy"><g class="layer-subplot"><g class="shapelayer"/><g class="imagelayer"/></g><g class="gridlayer"><g class="x"><path class="xgrid crisp" transform="translate(82.81,0)" d="M0,100v320" style="stroke: rgb(255, 255, 255); stroke-opacity: 1; stroke-width: 1px;"/><path class="xgrid crisp" transform="translate(191.29000000000002,0)" d="M0,100v320" style="stroke: rgb(255, 255, 255); stroke-opacity: 1; stroke-width: 1px;"/><path class="xgrid crisp" transform="translate(299.76,0)" d="M0,100v320" style="stroke: rgb(255, 255, 255); stroke-opacity: 1; stroke-width: 1px;"/><path class="xgrid crisp" transform="translate(408.23,0)" d="M0,100v320" style="stroke: rgb(255, 255, 255); stroke-opacity: 1; stroke-width: 1px;"/><path class="xgrid crisp" transform="translate(516.7,0)" d="M0,100v320" style="stroke: rgb(255, 255, 255); stroke-opacity: 1; stroke-width: 1px;"/></g><g class="y"><path class="ygrid crisp" transform="translate(0,392.55)" d="M80,0h537" style="stroke: rgb(255, 255, 255); stroke-opacity: 1; stroke-width: 1px;"/><path class="ygrid crisp" transform="translate(0,349.77)" d="M80,0h537" style="stroke: rgb(255, 255, 255); stroke-opacity: 1; stroke-width: 1px;"/><path class="ygrid crisp" transform="translate(0,306.99)" d="M80,0h537" style="stroke: rgb(255, 255, 255); stroke-opacity: 1; stroke-width: 1px;"/><path class="ygrid crisp" transform="translate(0,264.21000000000004)" d="M80,0h537" style="stroke: rgb(255, 255, 255); stroke-opacity: 1; stroke-width: 1px;"/><path class="ygrid crisp" transform="translate(0,221.43)" d="M80,0h537" style="stroke: rgb(255, 255, 255); stroke-opacity: 1; stroke-width: 1px;"/><path class="ygrid crisp" transform="translate(0,178.65)" d="M80,0h537" style="stroke: rgb(255, 255, 255); stroke-opacity: 1; stroke-width: 1px;"/><path class="ygrid crisp" transform="translate(0,135.87)" d="M80,0h537" style="stroke: rgb(255, 255, 255); stroke-opacity: 1; stroke-width: 1px;"/></g></g><g class="zerolinelayer"/><path class="xlines-below"/><path class="ylines-below"/><g class="overlines-below"/><g class="xaxislayer-below"/><g class="yaxislayer-below"/><g class="overaxes-below"/><g class="plot" transform="translate(80,100)" clip-path="url('#clip07a5a0xyplot')"><g class="scatterlayer mlayer"><g class="trace scatter trace8a4fae" style="stroke-miterlimit: 2; opacity: 1;"><g class="fills"/><g class="errorbars"/><g class="lines"><path class="js-line" d="M0,304L2.17,302.59L2.93,249.74L3.68,251.04L4.43,249.35L7.44,248.71L8.2,248.32L9.71,249.1L10.46,248.19L11.96,248.58L12.72,248.19L14.22,247.93L14.98,247.67L16.48,247.41L17.24,247.16L23.27,246.77L24.02,246.51L28.54,246.12L29.29,245.73L30.8,245.86L31.55,245.22L33.05,245.09L33.8,244.44L35.31,244.57L36.07,243.66L37.58,244.57L38.33,243.02L40.58,242.11L41.34,242.63L42.09,242.24L42.85,243.15L44.36,240.17L45.11,240.69L45.86,240.69L46.61,239.78L49.63,237.84L50.38,236.94L51.88,238.23L52.64,237.07L53.39,235L54.15,235.51L54.9,236.55L55.65,235L57.16,232.67L57.91,232.28L59.42,230.6L60.17,231.12L61.68,229.95L62.43,230.21L63.18,231.76L63.94,229.56L66.2,230.6L66.95,230.21L69.21,226.07L69.97,226.85L71.47,225.68L72.22,227.36L72.98,227.11L73.73,225.55L76.74,221.16L77.5,218.44L78.25,219.09L79,217.66L79.76,216.63L80.51,217.4L82.02,217.66L82.77,218.7L85.79,216.5L86.54,216.37L88.04,215.72L88.8,214.69L89.55,214.3L90.3,214.82L91.81,215.98L92.56,214.43L94.82,213.39L95.58,212.88L97.08,212.23L97.84,211.45L100.09,212.23L100.85,211.84L102.36,211.58L103.11,211.84L104.61,210.42L105.37,208.87L106.88,207.7L107.63,206.93L109.13,207.96L109.89,207.44L110.64,207.96L111.4,142.27L113.66,140.18L114.41,140.44L115.92,139.92L116.67,139.01L118.17,139.14L118.93,139.14L121.94,138.48L122.69,138.35L124.95,137.83L125.71,137.96L132.48,137.96L133.24,138.09L138.51,137.83L139.27,137.18L141.52,137.18L142.28,136.14L145.29,136.27L146.04,135.74L147.55,135.88L148.3,135.22L149.81,134.57L150.56,135.22L153.57,132.22L154.33,133.27L156.59,131.57L157.34,132.22L160.35,128.44L161.11,130.14L164.12,127.14L164.88,128.05L166.38,126.48L167.13,127.66L167.89,128.7L168.64,127.79L169.4,128.83L170.15,128.31L170.9,127.4L171.65,128.44L172.41,127.79L173.16,128.18L175.42,128.83L176.17,128.44L177.69,126.48L178.44,125.05L179.95,124.92L180.7,125.44L181.46,125.96L182.21,124.01L185.23,123.09L185.98,121.4L188.99,121.92L189.74,120.61L190.5,118.4L191.25,119.96L192.01,119.96L192.76,118.79L193.51,119.7L194.26,119.18L195.77,117.35L196.52,117.48L198.78,114.35L199.54,114.48L201.05,112.14L201.8,112.92L203.3,110.83L204.06,111.35L206.32,110.7L207.07,108.09L207.82,107.96L208.57,106.92L209.33,105.48L210.08,105.74L210.84,106L211.59,107.18L212.35,107.83L213.1,107.18L213.86,109.13L214.6,108.35L215.36,108.22L216.11,106.66L216.86,106.27L217.62,106.79L219.12,107.05L219.88,61.25L221.38,59.41L222.13,59.15L224.39,57.57L225.15,57.17L226.65,57.04L227.41,56.78L230.42,55.46L231.17,54.54L232.68,54.28L233.43,54.81L236.45,53.75L237.2,53.62L238.71,53.62L239.46,53.75L251.51,51.78L252.26,52.18L254.52,51.12L255.27,51.25L256.03,51.52L256.78,50.73L261.3,50.07L262.81,49.54L263.56,48.23L265.06,47.83L266.57,47.44L267.33,45.73L268.08,46.91L268.83,45.73L270.34,45.73L271.09,45.07L271.85,44.94L272.6,43.76L274.86,43.49L275.61,41.91L277.12,40.2L277.87,39.42L278.6,38.1L279.35,38.76L281.61,37.71L282.37,36L285.38,35.34L286.13,33.36L286.89,32.71L287.64,33.23L289.14,32.44L289.9,32.05L290.65,31.92L291.4,30.86L292.91,30.86L293.66,31.39L295.17,32.97L295.93,31.13L297.43,32.31L298.2,30.34L299.7,30.47L300.45,30.86L302.71,29.02L303.46,29.42L304.96,27.71L305.72,26.66L306.47,24.16L307.23,24.68L307.98,23.24L308.73,24.68L310.24,22.84L310.99,22.58L311.74,21.26L312.5,21.66L314.01,21.79L314.75,20.74L315.51,21.26L316.26,19.68L317.77,19.55L318.53,18.5L321.54,18.89L322.29,17.97L323.04,17.45L323.8,17.84L324.55,17.97L325.3,17.05L326.06,16L326.81,16.66L327.57,16.39L328.32,171.81L332.08,171.4L332.84,172.08L335.1,170.99L335.85,170.99L337.36,169.76L338.11,169.76L339.62,168.94L340.37,169.08L353.18,168.39L353.93,167.98L363.71,165.8L364.47,165.12L368.24,164.02L368.99,162.66L372.03,162.38L372.78,163.61L374.29,161.7L375.04,161.57L375.8,160.88L376.55,158.43L377.3,156.51L378.06,156.79L378.81,156.1L379.56,154.33L380.32,154.88L381.07,154.19L382.58,154.33L383.33,153.37L384.84,152.69L385.59,153.65L387.85,150.92L388.6,151.87L390.86,149.14L391.62,149.14L392.37,148.32L393.12,149.41L394.63,150.37L395.38,149.41L396.13,149.55L396.89,148.73L399.91,145.18L400.66,144.5L402.91,143.54L403.67,145.04L408.19,141.9L408.94,143.68L410.45,121.97L411.2,121.56L412.71,120.88L413.46,116.1L414.21,116.24L414.97,112.28L415.72,112.55L416.48,109.96L417.23,106.95L417.98,107.91L420.24,101.22L421,98.08L422.5,97.53L423.26,95.35L424.01,94.8L424.76,92.07L426.27,89.34L427.02,89.34L429.28,85.65L430.04,84.7L431.54,82.78L432.29,80.19L436.06,75L436.81,88.44L440.58,84.03L441.34,84.45L442.09,84.31L442.84,85.14L444.35,84.72L445.1,85.41L446.61,84.59L447.36,84.45L448.87,84.03L449.62,84.03L451.13,84.17L451.88,83.62L457.15,84.03L457.91,83.62L462.43,83.21L463.18,83.48L466.19,83.48L466.94,83.35L468.45,83.35L469.2,83.35L471.46,83.35L472.22,83.9L475.98,79.9L476.73,80.18L479,78.8L479.75,78.94L480.5,78.53L481.25,76.87L482.76,77.15L483.51,75.63L487.28,72.47L488.03,72.88L490.29,69.44L491.05,69.02L493.31,66.41L494.06,66.41L495.57,63.79L496.32,63.79L497.83,61.86L498.58,59.66L500.84,54.29L501.59,54.43L503.1,53.6L503.85,51.4L506.87,49.47L507.62,47.82L512.14,46.85L512.89,45.75L513.65,46.16L514.4,45.48L515.15,45.89L521.18,41.21L524.94,38.59L525.7,39.28L528.71,35.97L529.47,35.84L530.22,34.46L530.97,35.01L532.48,33.91L533.23,34.18L533.99,35.28L534.74,34.32L537,33.63" style="vector-effect: non-scaling-stroke; fill: none; stroke: rgb(99, 110, 250); stroke-opacity: 1; stroke-width: 2px; opacity: 1;"/></g><g class="points"/><g class="text"/></g></g></g><g class="overplot"/><path class="xlines-above crisp" d="M0,0" style="fill: none;"/><path class="ylines-above crisp" d="M0,0" style="fill: none;"/><g class="overlines-above"/><g class="xaxislayer-above"><g class="xtick"><text text-anchor="middle" x="0" y="433" transform="translate(82.81,0)" style="font-family: 'Open Sans', verdana, arial, sans-serif; font-size: 12px; fill: rgb(42, 63, 95); fill-opacity: 1; white-space: pre;"><tspan class="line" dy="0em" x="0" y="433">Aug 3</tspan><tspan class="line" dy="1.3em" x="0" y="433">2021</tspan></text></g><g class="xtick"><text text-anchor="middle" x="0" y="433" transform="translate(191.29000000000002,0)" style="font-family: 'Open Sans', verdana, arial, sans-serif; font-size: 12px; fill: rgb(42, 63, 95); fill-opacity: 1; white-space: pre;">Aug 4</text></g><g class="xtick"><text text-anchor="middle" x="0" y="433" transform="translate(299.76,0)" style="font-family: 'Open Sans', verdana, arial, sans-serif; font-size: 12px; fill: rgb(42, 63, 95); fill-opacity: 1; white-space: pre;">Aug 5</text></g><g class="xtick"><text text-anchor="middle" x="0" y="433" transform="translate(408.23,0)" style="font-family: 'Open Sans', verdana, arial, sans-serif; font-size: 12px; fill: rgb(42, 63, 95); fill-opacity: 1; white-space: pre;">Aug 6</text></g><g class="xtick"><text text-anchor="middle" x="0" y="433" transform="translate(516.7,0)" style="font-family: 'Open Sans', verdana, arial, sans-serif; font-size: 12px; fill: rgb(42, 63, 95); fill-opacity: 1; white-space: pre;">Aug 7</text></g></g><g class="yaxislayer-above"><g class="ytick"><text text-anchor="end" x="79" y="4.199999999999999" transform="translate(0,392.55)" style="font-family: 'Open Sans', verdana, arial, sans-serif; font-size: 12px; fill: rgb(42, 63, 95); fill-opacity: 1; white-space: pre;">0.864</text></g><g class="ytick"><text text-anchor="end" x="79" y="4.199999999999999" transform="translate(0,349.77)" style="font-family: 'Open Sans', verdana, arial, sans-serif; font-size: 12px; fill: rgb(42, 63, 95); fill-opacity: 1; white-space: pre;">0.865</text></g><g class="ytick"><text text-anchor="end" x="79" y="4.199999999999999" transform="translate(0,306.99)" style="font-family: 'Open Sans', verdana, arial, sans-serif; font-size: 12px; fill: rgb(42, 63, 95); fill-opacity: 1; white-space: pre;">0.866</text></g><g class="ytick"><text text-anchor="end" x="79" y="4.199999999999999" transform="translate(0,264.21000000000004)" style="font-family: 'Open Sans', verdana, arial, sans-serif; font-size: 12px; fill: rgb(42, 63, 95); fill-opacity: 1; white-space: pre;">0.867</text></g><g class="ytick"><text text-anchor="end" x="79" y="4.199999999999999" transform="translate(0,221.43)" style="font-family: 'Open Sans', verdana, arial, sans-serif; font-size: 12px; fill: rgb(42, 63, 95); fill-opacity: 1; white-space: pre;">0.868</text></g><g class="ytick"><text text-anchor="end" x="79" y="4.199999999999999" transform="translate(0,178.65)" style="font-family: 'Open Sans', verdana, arial, sans-serif; font-size: 12px; fill: rgb(42, 63, 95); fill-opacity: 1; white-space: pre;">0.869</text></g><g class="ytick"><text text-anchor="end" x="79" y="4.199999999999999" transform="translate(0,135.87)" style="font-family: 'Open Sans', verdana, arial, sans-serif; font-size: 12px; fill: rgb(42, 63, 95); fill-opacity: 1; white-space: pre;">0.87</text></g></g><g class="overaxes-above"/></g></g><g class="polarlayer"/><g class="ternarylayer"/><g class="geolayer"/><g class="funnelarealayer"/><g class="pielayer"/><g class="treemaplayer"/><g class="sunburstlayer"/><g class="glimages"/><defs id="topdefs-07a5a0"><g class="clips"/><clipPath id="legend07a5a0"><rect width="60" height="45" x="0" y="0"/></clipPath></defs><g class="layer-above"><g class="imagelayer"/><g class="shapelayer"/></g><g class="infolayer"><g class="legend" pointer-events="all" transform="translate(627.74,100)"><rect class="bg" shape-rendering="crispEdges" width="60" height="45" x="0" y="0" style="stroke: rgb(68, 68, 68); stroke-opacity: 1; fill: rgb(255, 255, 255); fill-opacity: 1; stroke-width: 0px;"/><g class="scrollbox" transform="" clip-path="url('#legend07a5a0')"><text class="legendtitletext" text-anchor="start" x="2" y="15.600000000000001" style="font-family: 'Open Sans', verdana, arial, sans-serif; font-size: 12px; fill: rgb(42, 63, 95); fill-opacity: 1; white-space: pre;">All</text><g class="groups" transform=""><g class="traces" transform="translate(0,30.1)" style="opacity: 1;"><text class="legendtext" text-anchor="start" x="40" y="4.680000000000001" style="font-family: 'Open Sans', verdana, arial, sans-serif; font-size: 12px; fill: rgb(42, 63, 95); fill-opacity: 1; white-space: pre;">All</text><g class="layers" style="opacity: 1;"><g class="legendfill"/><g class="legendlines"><path class="js-line" d="M5,0h30" style="fill: none; stroke: rgb(99, 110, 250); stroke-opacity: 1; stroke-width: 2px;"/></g><g class="legendsymbols"><g class="legendpoints"/></g></g><rect class="legendtoggle" x="0" y="-9.5" width="54.890625" height="19" style="fill: rgb(0, 0, 0); fill-opacity: 0;"/></g></g></g><rect class="scrollbar" rx="20" ry="3" width="0" height="0" x="0" y="0" style="fill: rgb(128, 139, 164); fill-opacity: 1;"/></g><g class="g-gtitle"><text class="gtitle" x="35" y="50" text-anchor="start" dy="0em" style="font-family: 'Open Sans', verdana, arial, sans-serif; font-size: 17px; fill: rgb(42, 63, 95); opacity: 1; font-weight: normal; white-space: pre;">Singapore Vaccination Centers</text></g><g class="g-xtitle"><text class="xtitle" x="348.5" y="476.409375" text-anchor="middle" style="font-family: 'Open Sans', verdana, arial, sans-serif; font-size: 14px; fill: rgb(42, 63, 95); opacity: 1; font-weight: normal; white-space: pre;">Time</text></g><g class="g-ytitle"><text class="ytitle" transform="rotate(-90,19.840625000000003,260)" x="19.840625000000003" y="260" text-anchor="middle" style="font-family: 'Open Sans', verdana, arial, sans-serif; font-size: 14px; fill: rgb(42, 63, 95); opacity: 1; font-weight: normal; white-space: pre;">Filled/%</text></g></g></svg>