<svg class="main-svg" xmlns="http://www.w3.org/2000/svg" xmlns:xlink="http://www.w3.org/1999/xlink" width="700" height="500" style="" viewBox="0 0 700 500"><rect x="0" y="0" width="700" height="500" style="fill: rgb(255, 255, 255); fill-opacity: 1;"/><defs id="defs-dc6136"><g class="clips"><clipPath id="clipdc6136xyplot" class="plotclip"><rect width="537" height="320"/></clipPath><clipPath class="axesclip" id="clipdc6136x"><rect x="80" y="0" width="537" height="500"/></clipPath><clipPath class="axesclip" id="clipdc6136y"><rect x="0" y="100" width="700" height="320"/></clipPath><clipPath class="axesclip" id="clipdc6136xy"><rect x="80" y="100" width="537" height="320"/></clipPath></g><g class="gradients"/></defs><g class="bglayer"><rect class="bg" x="80" y="100" width="537" height="320" style="fill: rgb(229, 236, 246); fill-opacity: 1; stroke-width: 0;"/></g><g class="layer-below"><g class="imagelayer"/><g class="shapelayer"/></g><g class="cartesianlayer"><g class="subplot xy"><g class="layer-subplot"><g class="shapelayer"/><g class="imagelayer"/></g><g class="gridlayer"><g class="x"><path class="xgrid crisp" transform="translate(92.83,0)" d="M0,100v320" style="stroke: rgb(255, 255, 255); stroke-opacity: 1; stroke-width: 1px;"/><path class="xgrid crisp" transform="translate(231.06,0)" d="M0,100v320" style="stroke: rgb(255, 255, 255); stroke-opacity: 1; stroke-width: 1px;"/><path class="xgrid crisp" transform="translate(369.28,0)" d="M0,100v320" style="stroke: rgb(255, 255, 255); stroke-opacity: 1; stroke-width: 1px;"/><path class="xgrid crisp" transform="translate(507.51,0)" d="M0,100v320" style="stroke: rgb(255, 255, 255); stroke-opacity: 1; stroke-width: 1px;"/></g><g class="y"><path class="ygrid crisp" transform="translate(0,388.55)" d="M80,0h537" style="stroke: rgb(255, 255, 255); stroke-opacity: 1; stroke-width: 1px;"/><path class="ygrid crisp" transform="translate(0,328.59000000000003)" d="M80,0h537" style="stroke: rgb(255, 255, 255); stroke-opacity: 1; stroke-width: 1px;"/><path class="ygrid crisp" transform="translate(0,268.62)" d="M80,0h537" style="stroke: rgb(255, 255, 255); stroke-opacity: 1; stroke-width: 1px;"/><path class="ygrid crisp" transform="translate(0,208.65)" d="M80,0h537" style="stroke: rgb(255, 255, 255); stroke-opacity: 1; stroke-width: 1px;"/><path class="ygrid crisp" transform="translate(0,148.69)" d="M80,0h537" style="stroke: rgb(255, 255, 255); stroke-opacity: 1; stroke-width: 1px;"/></g></g><g class="zerolinelayer"/><path class="xlines-below"/><path class="ylines-below"/><g class="overlines-below"/><g class="xaxislayer-below"/><g class="yaxislayer-below"/><g class="overaxes-below"/><g class="plot" transform="translate(80,100)" clip-path="url('#clipdc6136xyplot')"><g class="scatterlayer mlayer"><g class="trace scatter trace289341" style="stroke-miterlimit: 2; opacity: 1;"><g class="fills"/><g class="errorbars"/><g class="lines"><path class="js-line" d="M0,151.19L8.11,151.66L10.98,229.1L16.71,229.27L18.83,262.63L19.73,262.59L40.93,264.75L42.25,230.62L42.65,247.75L43.61,247.62L45.53,241.12L46.49,240.91L48.41,248.08L49.37,247.91L51.29,254.04L52.25,253.87L54.17,229.53L55.13,229.39L57.05,253.89L58.01,253.71L59.93,241.74L60.89,234.89L62.81,214.27L63.77,206.72L65.69,176.26L66.65,172.83L68.57,134.64L69.53,132L71.45,144.05L72.41,141.9L74.33,113.25L75.28,111.49L77.21,116.91L78.16,115.59L80.08,134.84L81.05,133.95L82.31,89.08L82.97,90.52L83.92,90.13L89.68,89.24L90.64,89.09L106,88.15L106.96,87.9L110.8,86.16L111.76,85.57L135.76,72.26L136.72,71.89L150.16,66.89L151.12,68.6L160.72,68.01L161.67,68L179.91,67.22L180.87,67.01L219.27,58.48L220.23,55.84L231.75,55.49L232.71,55.49L247.11,54.9L248.07,54.72L262.46,51.59L263.42,51.4L286.46,46.94L287.43,46.8L288.39,46.7L289.35,41.63L305.66,41.35L306.62,41.34L318.14,40.62L319.1,40.47L321.98,40.09L322.94,177.9L330.65,174.99L331.61,174.7L335.42,173.3L336.38,170.02L338.3,165.13L339.26,163.9L340.22,161.87L341.18,156.05L343.1,139.75L344.06,136.11L347.9,127.34L348.86,125.71L353.66,119.81L354.62,118.87L357.5,116.83L358.46,116.97L362.3,115.8L363.26,115.71L374.78,115.2L375.74,115.19L383.42,114.44L384.37,114.25L392.06,110.82L393.02,110.1L396.85,106.69L397.81,111.42L400.69,109.69L401.65,108.08L407.41,93.54L408.37,91.96L411.25,85.93L412.21,83.58L413.17,81.23L414.13,76.19L417.01,64.63L417.97,62.22L422.77,53.04L423.73,51.69L426.61,48.8L427.57,49.12L431.41,47.64L432.37,47.48L441.01,46.79L441.97,46.74L449.65,45.95L450.61,45.71L455.41,43.17L456.37,42.54L459.25,40.66L460.21,135.95L462.13,132.71L463.09,131.76L470.77,125.54L471.73,125.01L473.65,123.7L474.38,130.07L474.61,122.85L475.52,122.57L475.57,124.6L476.48,121.95L476.53,123.98L477.49,123.33L479.41,122.24L480.37,139.26L488.77,134.11L488.81,130.85L488.86,130.28L489.01,133.76L498.12,74.61L498.6,74.88L499.09,68.92L500.04,69.28L500.52,71.47L501.96,59.71L502.45,68.22L503.4,65.31L503.88,64.27L505.8,61.13L506.28,62.83L506.77,61.41L507.24,61.96L507.72,61.73L509.17,61.69L509.65,71.11L511.56,70.86L512.04,69.29L512.52,70.36L513,70.09L513.48,69.01L514.44,68.96L514.92,68.4L515.88,57.64L516.36,56.31L518.76,51.51L519.24,48.58L519.72,48.66L520.2,46.17L521.16,37.58L521.64,35.63L522.12,34.38L522.6,29.12L523.08,16L523.56,17.64L524.04,269.28L524.52,267.32L525,273.13L525.96,262.37L526.44,266.85L527.4,261.05L527.88,262.03L528.36,271.47L528.84,282.53L529.32,255.49L530.28,265.01L530.76,304L532.2,255.72L532.68,280.01L533.16,286.09L533.64,282.54L534.12,277.11L534.6,263.01L535.08,257.41L535.56,260.16L536.04,272.66L536.52,281.24L537,273.19" style="vector-effect: non-scaling-stroke; fill: none; stroke: rgb(99, 110, 250); stroke-opacity: 1; stroke-width: 2px; opacity: 1;"/></g><g class="points"/><g class="text"/></g></g></g><g class="overplot"/><path class="xlines-above crisp" d="M0,0" style="fill: none;"/><path class="ylines-above crisp" d="M0,0" style="fill: none;"/><g class="overlines-above"/><g class="xaxislayer-above"><g class="xtick"><text text-anchor="middle" x="0" y="433" transform="translate(92.83,0)" style="font-family: 'Open Sans', verdana, arial, sans-serif; font-size: 12px; fill: rgb(42, 63, 95); fill-opacity: 1; white-space: pre;"><tspan class="line" dy="0em" x="0" y="433">Jun 4</tspan><tspan class="line" dy="1.3em" x="0" y="433">2021</tspan></text></g><g class="xtick"><text text-anchor="middle" x="0" y="433" transform="translate(231.06,0)" style="font-family: 'Open Sans', verdana, arial, sans-serif; font-size: 12px; fill: rgb(42, 63, 95); fill-opacity: 1; white-space: pre;">Jun 6</text></g><g class="xtick"><text text-anchor="middle" x="0" y="433" transform="translate(369.28,0)" style="font-family: 'Open Sans', verdana, arial, sans-serif; font-size: 12px; fill: rgb(42, 63, 95); fill-opacity: 1; white-space: pre;">Jun 8</text></g><g class="xtick"><text text-anchor="middle" x="0" y="433" transform="translate(507.51,0)" style="font-family: 'Open Sans', verdana, arial, sans-serif; font-size: 12px; fill: rgb(42, 63, 95); fill-opacity: 1; white-space: pre;">Jun 10</text></g></g><g class="yaxislayer-above"><g class="ytick"><text text-anchor="end" x="79" y="4.199999999999999" transform="translate(0,388.55)" style="font-family: 'Open Sans', verdana, arial, sans-serif; font-size: 12px; fill: rgb(42, 63, 95); fill-opacity: 1; white-space: pre;">0.84</text></g><g class="ytick"><text text-anchor="end" x="79" y="4.199999999999999" transform="translate(0,328.59000000000003)" style="font-family: 'Open Sans', verdana, arial, sans-serif; font-size: 12px; fill: rgb(42, 63, 95); fill-opacity: 1; white-space: pre;">0.85</text></g><g class="ytick"><text text-anchor="end" x="79" y="4.199999999999999" transform="translate(0,268.62)" style="font-family: 'Open Sans', verdana, arial, sans-serif; font-size: 12px; fill: rgb(42, 63, 95); fill-opacity: 1; white-space: pre;">0.86</text></g><g class="ytick"><text text-anchor="end" x="79" y="4.199999999999999" transform="translate(0,208.65)" style="font-family: 'Open Sans', verdana, arial, sans-serif; font-size: 12px; fill: rgb(42, 63, 95); fill-opacity: 1; white-space: pre;">0.87</text></g><g class="ytick"><text text-anchor="end" x="79" y="4.199999999999999" transform="translate(0,148.69)" style="font-family: 'Open Sans', verdana, arial, sans-serif; font-size: 12px; fill: rgb(42, 63, 95); fill-opacity: 1; white-space: pre;">0.88</text></g></g><g class="overaxes-above"/></g></g><g class="polarlayer"/><g class="ternarylayer"/><g class="geolayer"/><g class="funnelarealayer"/><g class="pielayer"/><g class="treemaplayer"/><g class="sunburstlayer"/><g class="glimages"/><defs id="topdefs-dc6136"><g class="clips"/><clipPath id="legenddc6136"><rect width="60" height="45" x="0" y="0"/></clipPath></defs><g class="layer-above"><g class="imagelayer"/><g class="shapelayer"/></g><g class="infolayer"><g class="legend" pointer-events="all" transform="translate(627.74,100)"><rect class="bg" shape-rendering="crispEdges" width="60" height="45" x="0" y="0" style="stroke: rgb(68, 68, 68); stroke-opacity: 1; fill: rgb(255, 255, 255); fill-opacity: 1; stroke-width: 0px;"/><g class="scrollbox" transform="" clip-path="url('#legenddc6136')"><text class="legendtitletext" text-anchor="start" x="2" y="15.600000000000001" style="font-family: 'Open Sans', verdana, arial, sans-serif; font-size: 12px; fill: rgb(42, 63, 95); fill-opacity: 1; white-space: pre;">All</text><g class="groups" transform=""><g class="traces" transform="translate(0,30.1)" style="opacity: 1;"><text class="legendtext" text-anchor="start" x="40" y="4.680000000000001" style="font-family: 'Open Sans', verdana, arial, sans-serif; font-size: 12px; fill: rgb(42, 63, 95); fill-opacity: 1; white-space: pre;">All</text><g class="layers" style="opacity: 1;"><g class="legendfill"/><g class="legendlines"><path class="js-line" d="M5,0h30" style="fill: none; stroke: rgb(99, 110, 250); stroke-opacity: 1; stroke-width: 2px;"/></g><g class="legendsymbols"><g class="legendpoints"/></g></g><rect class="legendtoggle" x="0" y="-9.5" width="54.890625" height="19" style="fill: rgb(0, 0, 0); fill-opacity: 0;"/></g></g></g><rect class="scrollbar" rx="20" ry="3" width="0" height="0" x="0" y="0" style="fill: rgb(128, 139, 164); fill-opacity: 1;"/></g><g class="g-gtitle"><text class="gtitle" x="35" y="50" text-anchor="start" dy="0em" style="font-family: 'Open Sans', verdana, arial, sans-serif; font-size: 17px; fill: rgb(42, 63, 95); opacity: 1; font-weight: normal; white-space: pre;">Singapore Vaccination Centers</text></g><g class="g-xtitle"><text class="xtitle" x="348.5" y="476.409375" text-anchor="middle" style="font-family: 'Open Sans', verdana, arial, sans-serif; font-size: 14px; fill: rgb(42, 63, 95); opacity: 1; font-weight: normal; white-space: pre;">Time</text></g><g class="g-ytitle"><text class="ytitle" transform="rotate(-90,27.481250000000003,260)" x="27.481250000000003" y="260" text-anchor="middle" style="font-family: 'Open Sans', verdana, arial, sans-serif; font-size: 14px; fill: rgb(42, 63, 95); opacity: 1; font-weight: normal; white-space: pre;">Filled/%</text></g></g></svg>