<svg class="main-svg" xmlns="http://www.w3.org/2000/svg" xmlns:xlink="http://www.w3.org/1999/xlink" width="700" height="500" style="" viewBox="0 0 700 500"><rect x="0" y="0" width="700" height="500" style="fill: rgb(255, 255, 255); fill-opacity: 1;"/><defs id="defs-ab2333"><g class="clips"><clipPath id="clipab2333xyplot" class="plotclip"><rect width="537" height="320"/></clipPath><clipPath class="axesclip" id="clipab2333x"><rect x="80" y="0" width="537" height="500"/></clipPath><clipPath class="axesclip" id="clipab2333y"><rect x="0" y="100" width="700" height="320"/></clipPath><clipPath class="axesclip" id="clipab2333xy"><rect x="80" y="100" width="537" height="320"/></clipPath></g><g class="gradients"/></defs><g class="bglayer"><rect class="bg" x="80" y="100" width="537" height="320" style="fill: rgb(229, 236, 246); fill-opacity: 1; stroke-width: 0;"/></g><g class="layer-below"><g class="imagelayer"/><g class="shapelayer"/></g><g class="cartesianlayer"><g class="subplot xy"><g class="layer-subplot"><g class="shapelayer"/><g class="imagelayer"/></g><g class="gridlayer"><g class="x"><path class="xgrid crisp" transform="translate(84.69,0)" d="M0,100v320" style="stroke: rgb(255, 255, 255); stroke-opacity: 1; stroke-width: 1px;"/><path class="xgrid crisp" transform="translate(175.06,0)" d="M0,100v320" style="stroke: rgb(255, 255, 255); stroke-opacity: 1; stroke-width: 1px;"/><path class="xgrid crisp" transform="translate(265.41999999999996,0)" d="M0,100v320" style="stroke: rgb(255, 255, 255); stroke-opacity: 1; stroke-width: 1px;"/><path class="xgrid crisp" transform="translate(355.79,0)" d="M0,100v320" style="stroke: rgb(255, 255, 255); stroke-opacity: 1; stroke-width: 1px;"/><path class="xgrid crisp" transform="translate(446.16,0)" d="M0,100v320" style="stroke: rgb(255, 255, 255); stroke-opacity: 1; stroke-width: 1px;"/><path class="xgrid crisp" transform="translate(536.53,0)" d="M0,100v320" style="stroke: rgb(255, 255, 255); stroke-opacity: 1; stroke-width: 1px;"/></g><g class="y"><path class="ygrid crisp" transform="translate(0,392.47)" d="M80,0h537" style="stroke: rgb(255, 255, 255); stroke-opacity: 1; stroke-width: 1px;"/><path class="ygrid crisp" transform="translate(0,349.39)" d="M80,0h537" style="stroke: rgb(255, 255, 255); stroke-opacity: 1; stroke-width: 1px;"/><path class="ygrid crisp" transform="translate(0,306.32)" d="M80,0h537" style="stroke: rgb(255, 255, 255); stroke-opacity: 1; stroke-width: 1px;"/><path class="ygrid crisp" transform="translate(0,263.24)" d="M80,0h537" style="stroke: rgb(255, 255, 255); stroke-opacity: 1; stroke-width: 1px;"/><path class="ygrid crisp" transform="translate(0,220.17000000000002)" d="M80,0h537" style="stroke: rgb(255, 255, 255); stroke-opacity: 1; stroke-width: 1px;"/><path class="ygrid crisp" transform="translate(0,177.09)" d="M80,0h537" style="stroke: rgb(255, 255, 255); stroke-opacity: 1; stroke-width: 1px;"/><path class="ygrid crisp" transform="translate(0,134.02)" d="M80,0h537" style="stroke: rgb(255, 255, 255); stroke-opacity: 1; stroke-width: 1px;"/></g></g><g class="zerolinelayer"/><path class="xlines-below"/><path class="ylines-below"/><g class="overlines-below"/><g class="xaxislayer-below"/><g class="yaxislayer-below"/><g class="overaxes-below"/><g class="plot" transform="translate(80,100)" clip-path="url('#clipab2333xyplot')"><g class="scatterlayer mlayer"><g class="trace scatter tracefd5f88" style="stroke-miterlimit: 2; opacity: 1;"><g class="fills"/><g class="errorbars"/><g class="lines"><path class="js-line" d="M0,304L3.62,302.58L4.87,249.37L6.13,250.67L7.39,248.98L12.4,248.33L13.66,247.94L16.17,248.72L17.43,247.81L18.71,248.46L19.94,248.2L24.95,247.28L26.21,247.55L29.98,246.76L31.23,246.5L36.25,246.89L37.51,246.5L43.78,246.37L45.03,246.37L48.8,245.33L50.06,245.59L55.07,244.68L56.33,244.03L57.59,244.55L58.84,244.16L60.09,243.25L61.35,243.51L62.61,244.16L63.86,242.6L67.62,241.68L68.88,242.21L70.14,241.81L71.39,242.73L72.64,241.81L73.91,239.73L76.41,240.25L77.67,239.34L82.69,237.39L83.94,236.47L86.45,237.78L87.71,236.6L88.96,234.52L90.22,235.04L91.47,236.08L92.72,234.52L95.24,232.18L96.49,231.79L99.01,230.09L100.26,230.61L102.77,229.44L104.02,229.7L105.28,231.26L106.53,229.05L110.3,230.09L111.56,229.7L114.07,225.92L115.32,225.53L116.58,226.31L117.83,225.01L119.09,225.14L120.34,226.84L121.6,226.58L122.85,225.01L127.87,220.58L129.13,217.85L130.38,218.5L131.64,217.07L132.89,216.03L134.15,216.81L136.66,217.07L137.91,218.11L142.94,215.9L144.19,215.77L146.7,215.11L147.96,214.07L149.21,213.68L150.47,214.2L151.72,215.37L152.97,215.37L155.49,213.16L156.74,212.9L160.51,212.12L161.76,211.6L163.02,210.82L164.27,211.21L170.55,210.95L171.81,211.21L174.31,209.77L175.57,208.21L176.82,207.04L178.08,207.04L179.33,206.26L180.59,207.17L184.35,207.3L185.61,141.15L189.37,139.05L190.63,139.31L193.14,138.79L194.39,137.87L196.9,138L198.16,138L203.18,137.34L204.43,137.21L208.2,136.69L209.45,136.82L220.75,136.82L222.01,136.95L230.79,136.69L232.05,136.03L235.81,136.03L237.06,134.98L242.08,135.11L243.34,134.58L245.85,134.72L247.1,134.06L249.62,133.4L250.87,134.06L254.63,131.04L255.88,131.04L257.14,132.09L258.4,131.69L260.91,130.38L262.17,131.04L265.93,128.94L267.18,127.23L268.44,128.94L269.69,128.15L273.46,125.92L274.72,126.84L277.22,125.26L278.48,126.44L279.74,127.49L280.99,126.57L282.25,127.62L283.5,127.1L284.75,126.18L286.01,127.23L287.26,126.57L288.52,126.97L291.03,128.02L292.29,127.62L294.81,126.44L296.08,125.26L297.32,123.81L298.58,123.55L301.09,124.21L302.35,124.73L303.6,122.76L304.85,122.5L308.63,121.84L309.88,120.14L313.65,121.19L314.9,120.66L317.41,117.12L318.67,118.69L319.93,118.69L321.18,117.51L322.43,118.43L323.68,117.9L326.2,116.07L327.45,116.2L331.22,113.04L332.47,113.18L334.98,110.81L336.24,111.6L338.74,109.5L340,110.02L343.76,109.37L345.02,106.74L346.28,106.61L347.52,105.56L348.79,104.11L350.04,104.38L351.3,104.64L352.55,105.82L353.81,106.48L355.06,105.82L356.33,107.79L357.57,107L358.83,106.87L360.08,105.3L361.34,104.9L362.59,105.43L365.1,105.69L366.36,59.58L368.86,57.72L370.12,57.46L372.63,56.8L373.89,55.87L377.65,55.34L378.9,55.07L383.93,53.75L385.18,52.82L387.7,52.56L388.95,53.09L392.72,51.9L393.97,52.03L409.03,50.7L410.28,50.97L415.31,50.04L416.56,50.31L419.07,50.04L420.33,50.44L424.09,49.38L425.34,49.51L426.6,49.78L427.85,48.98L435.38,48.32L437.89,47.79L439.15,46.46L441.65,46.07L444.16,45.67L445.42,43.95L446.68,45.14L447.94,43.95L450.45,43.95L451.7,43.29L452.96,43.15L454.21,41.96L457.97,41.7L459.23,40.11L460.48,38.65L461.73,38.38L464.21,36.27L465.46,36.93L467.97,35.47L469.23,35.87L470.48,34.15L471.73,33.88L472.99,33.35L474.24,33.75L475.5,33.48L476.75,31.5L478.01,30.83L479.27,31.36L481.77,30.57L483.03,30.17L484.29,30.04L485.54,28.98L488.05,28.98L489.3,29.51L491.82,31.1L493.08,29.25L495.59,30.44L496.86,28.45L499.36,28.58L500.61,28.98L504.37,27.13L505.63,27.52L508.13,25.8L509.39,24.74L510.65,22.23L511.91,22.76L513.15,21.3L514.41,22.76L515.66,21.17L516.93,20.9L518.18,20.64L519.43,19.31L523.2,19.84L524.45,18.78L525.71,19.31L526.96,17.72L529.47,17.59L530.73,16.53L535.75,16.93L537,16" style="vector-effect: non-scaling-stroke; fill: none; stroke: rgb(99, 110, 250); stroke-opacity: 1; stroke-width: 2px; opacity: 1;"/></g><g class="points"/><g class="text"/></g></g></g><g class="overplot"/><path class="xlines-above crisp" d="M0,0" style="fill: none;"/><path class="ylines-above crisp" d="M0,0" style="fill: none;"/><g class="overlines-above"/><g class="xaxislayer-above"><g class="xtick"><text text-anchor="middle" x="0" y="433" transform="translate(84.69,0)" style="font-family: 'Open Sans', verdana, arial, sans-serif; font-size: 12px; fill: rgb(42, 63, 95); fill-opacity: 1; white-space: pre;"><tspan class="line" dy="0em" x="0" y="433">00:00</tspan><tspan class="line" dy="1.3em" x="0" y="433">Aug 3, 2021</tspan></text></g><g class="xtick"><text text-anchor="middle" x="0" y="433" transform="translate(175.06,0)" style="font-family: 'Open Sans', verdana, arial, sans-serif; font-size: 12px; fill: rgb(42, 63, 95); fill-opacity: 1; white-space: pre;">12:00</text></g><g class="xtick"><text text-anchor="middle" x="0" y="433" transform="translate(265.41999999999996,0)" style="font-family: 'Open Sans', verdana, arial, sans-serif; font-size: 12px; fill: rgb(42, 63, 95); fill-opacity: 1; white-space: pre;"><tspan class="line" dy="0em" x="0" y="433">00:00</tspan><tspan class="line" dy="1.3em" x="0" y="433">Aug 4, 2021</tspan></text></g><g class="xtick"><text text-anchor="middle" x="0" y="433" transform="translate(355.79,0)" style="font-family: 'Open Sans', verdana, arial, sans-serif; font-size: 12px; fill: rgb(42, 63, 95); fill-opacity: 1; white-space: pre;">12:00</text></g><g class="xtick"><text text-anchor="middle" x="0" y="433" transform="translate(446.16,0)" style="font-family: 'Open Sans', verdana, arial, sans-serif; font-size: 12px; fill: rgb(42, 63, 95); fill-opacity: 1; white-space: pre;"><tspan class="line" dy="0em" x="0" y="433">00:00</tspan><tspan class="line" dy="1.3em" x="0" y="433">Aug 5, 2021</tspan></text></g><g class="xtick"><text text-anchor="middle" x="0" y="433" transform="translate(536.53,0)" style="font-family: 'Open Sans', verdana, arial, sans-serif; font-size: 12px; fill: rgb(42, 63, 95); fill-opacity: 1; white-space: pre;">12:00</text></g></g><g class="yaxislayer-above"><g class="ytick"><text text-anchor="end" x="79" y="4.199999999999999" transform="translate(0,392.47)" style="font-family: 'Open Sans', verdana, arial, sans-serif; font-size: 12px; fill: rgb(42, 63, 95); fill-opacity: 1; white-space: pre;">0.864</text></g><g class="ytick"><text text-anchor="end" x="79" y="4.199999999999999" transform="translate(0,349.39)" style="font-family: 'Open Sans', verdana, arial, sans-serif; font-size: 12px; fill: rgb(42, 63, 95); fill-opacity: 1; white-space: pre;">0.865</text></g><g class="ytick"><text text-anchor="end" x="79" y="4.199999999999999" transform="translate(0,306.32)" style="font-family: 'Open Sans', verdana, arial, sans-serif; font-size: 12px; fill: rgb(42, 63, 95); fill-opacity: 1; white-space: pre;">0.866</text></g><g class="ytick"><text text-anchor="end" x="79" y="4.199999999999999" transform="translate(0,263.24)" style="font-family: 'Open Sans', verdana, arial, sans-serif; font-size: 12px; fill: rgb(42, 63, 95); fill-opacity: 1; white-space: pre;">0.867</text></g><g class="ytick"><text text-anchor="end" x="79" y="4.199999999999999" transform="translate(0,220.17000000000002)" style="font-family: 'Open Sans', verdana, arial, sans-serif; font-size: 12px; fill: rgb(42, 63, 95); fill-opacity: 1; white-space: pre;">0.868</text></g><g class="ytick"><text text-anchor="end" x="79" y="4.199999999999999" transform="translate(0,177.09)" style="font-family: 'Open Sans', verdana, arial, sans-serif; font-size: 12px; fill: rgb(42, 63, 95); fill-opacity: 1; white-space: pre;">0.869</text></g><g class="ytick"><text text-anchor="end" x="79" y="4.199999999999999" transform="translate(0,134.02)" style="font-family: 'Open Sans', verdana, arial, sans-serif; font-size: 12px; fill: rgb(42, 63, 95); fill-opacity: 1; white-space: pre;">0.87</text></g></g><g class="overaxes-above"/></g></g><g class="polarlayer"/><g class="ternarylayer"/><g class="geolayer"/><g class="funnelarealayer"/><g class="pielayer"/><g class="treemaplayer"/><g class="sunburstlayer"/><g class="glimages"/><defs id="topdefs-ab2333"><g class="clips"/><clipPath id="legendab2333"><rect width="60" height="45" x="0" y="0"/></clipPath></defs><g class="layer-above"><g class="imagelayer"/><g class="shapelayer"/></g><g class="infolayer"><g class="legend" pointer-events="all" transform="translate(627.74,100)"><rect class="bg" shape-rendering="crispEdges" width="60" height="45" x="0" y="0" style="stroke: rgb(68, 68, 68); stroke-opacity: 1; fill: rgb(255, 255, 255); fill-opacity: 1; stroke-width: 0px;"/><g class="scrollbox" transform="" clip-path="url('#legendab2333')"><text class="legendtitletext" text-anchor="start" x="2" y="15.600000000000001" style="font-family: 'Open Sans', verdana, arial, sans-serif; font-size: 12px; fill: rgb(42, 63, 95); fill-opacity: 1; white-space: pre;">All</text><g class="groups" transform=""><g class="traces" transform="translate(0,30.1)" style="opacity: 1;"><text class="legendtext" text-anchor="start" x="40" y="4.680000000000001" style="font-family: 'Open Sans', verdana, arial, sans-serif; font-size: 12px; fill: rgb(42, 63, 95); fill-opacity: 1; white-space: pre;">All</text><g class="layers" style="opacity: 1;"><g class="legendfill"/><g class="legendlines"><path class="js-line" d="M5,0h30" style="fill: none; stroke: rgb(99, 110, 250); stroke-opacity: 1; stroke-width: 2px;"/></g><g class="legendsymbols"><g class="legendpoints"/></g></g><rect class="legendtoggle" x="0" y="-9.5" width="54.890625" height="19" style="fill: rgb(0, 0, 0); fill-opacity: 0;"/></g></g></g><rect class="scrollbar" rx="20" ry="3" width="0" height="0" x="0" y="0" style="fill: rgb(128, 139, 164); fill-opacity: 1;"/></g><g class="g-gtitle"><text class="gtitle" x="35" y="50" text-anchor="start" dy="0em" style="font-family: 'Open Sans', verdana, arial, sans-serif; font-size: 17px; fill: rgb(42, 63, 95); opacity: 1; font-weight: normal; white-space: pre;">Singapore Vaccination Centers</text></g><g class="g-xtitle"><text class="xtitle" x="348.5" y="476.409375" text-anchor="middle" style="font-family: 'Open Sans', verdana, arial, sans-serif; font-size: 14px; fill: rgb(42, 63, 95); opacity: 1; font-weight: normal; white-space: pre;">Time</text></g><g class="g-ytitle"><text class="ytitle" transform="rotate(-90,19.840625000000003,260)" x="19.840625000000003" y="260" text-anchor="middle" style="font-family: 'Open Sans', verdana, arial, sans-serif; font-size: 14px; fill: rgb(42, 63, 95); opacity: 1; font-weight: normal; white-space: pre;">Filled/%</text></g></g></svg>