<svg class="main-svg" xmlns="http://www.w3.org/2000/svg" xmlns:xlink="http://www.w3.org/1999/xlink" width="700" height="500" style="" viewBox="0 0 700 500"><rect x="0" y="0" width="700" height="500" style="fill: rgb(255, 255, 255); fill-opacity: 1;"/><defs id="defs-c10232"><g class="clips"><clipPath id="clipc10232xyplot" class="plotclip"><rect width="537" height="320"/></clipPath><clipPath class="axesclip" id="clipc10232x"><rect x="80" y="0" width="537" height="500"/></clipPath><clipPath class="axesclip" id="clipc10232y"><rect x="0" y="100" width="700" height="320"/></clipPath><clipPath class="axesclip" id="clipc10232xy"><rect x="80" y="100" width="537" height="320"/></clipPath></g><g class="gradients"/></defs><g class="bglayer"><rect class="bg" x="80" y="100" width="537" height="320" style="fill: rgb(229, 236, 246); fill-opacity: 1; stroke-width: 0;"/></g><g class="layer-below"><g class="imagelayer"/><g class="shapelayer"/></g><g class="cartesianlayer"><g class="subplot xy"><g class="layer-subplot"><g class="shapelayer"/><g class="imagelayer"/></g><g class="gridlayer"><g class="x"><path class="xgrid crisp" transform="translate(83.98,0)" d="M0,100v320" style="stroke: rgb(255, 255, 255); stroke-opacity: 1; stroke-width: 1px;"/><path class="xgrid crisp" transform="translate(160.70999999999998,0)" d="M0,100v320" style="stroke: rgb(255, 255, 255); stroke-opacity: 1; stroke-width: 1px;"/><path class="xgrid crisp" transform="translate(237.45,0)" d="M0,100v320" style="stroke: rgb(255, 255, 255); stroke-opacity: 1; stroke-width: 1px;"/><path class="xgrid crisp" transform="translate(314.18,0)" d="M0,100v320" style="stroke: rgb(255, 255, 255); stroke-opacity: 1; stroke-width: 1px;"/><path class="xgrid crisp" transform="translate(390.91,0)" d="M0,100v320" style="stroke: rgb(255, 255, 255); stroke-opacity: 1; stroke-width: 1px;"/><path class="xgrid crisp" transform="translate(467.64,0)" d="M0,100v320" style="stroke: rgb(255, 255, 255); stroke-opacity: 1; stroke-width: 1px;"/><path class="xgrid crisp" transform="translate(544.37,0)" d="M0,100v320" style="stroke: rgb(255, 255, 255); stroke-opacity: 1; stroke-width: 1px;"/></g><g class="y"><path class="ygrid crisp" transform="translate(0,392.55)" d="M80,0h537" style="stroke: rgb(255, 255, 255); stroke-opacity: 1; stroke-width: 1px;"/><path class="ygrid crisp" transform="translate(0,349.77)" d="M80,0h537" style="stroke: rgb(255, 255, 255); stroke-opacity: 1; stroke-width: 1px;"/><path class="ygrid crisp" transform="translate(0,306.99)" d="M80,0h537" style="stroke: rgb(255, 255, 255); stroke-opacity: 1; stroke-width: 1px;"/><path class="ygrid crisp" transform="translate(0,264.21000000000004)" d="M80,0h537" style="stroke: rgb(255, 255, 255); stroke-opacity: 1; stroke-width: 1px;"/><path class="ygrid crisp" transform="translate(0,221.43)" d="M80,0h537" style="stroke: rgb(255, 255, 255); stroke-opacity: 1; stroke-width: 1px;"/><path class="ygrid crisp" transform="translate(0,178.65)" d="M80,0h537" style="stroke: rgb(255, 255, 255); stroke-opacity: 1; stroke-width: 1px;"/><path class="ygrid crisp" transform="translate(0,135.87)" d="M80,0h537" style="stroke: rgb(255, 255, 255); stroke-opacity: 1; stroke-width: 1px;"/></g></g><g class="zerolinelayer"/><path class="xlines-below"/><path class="ylines-below"/><g class="overlines-below"/><g class="xaxislayer-below"/><g class="yaxislayer-below"/><g class="overaxes-below"/><g class="plot" transform="translate(80,100)" clip-path="url('#clipc10232xyplot')"><g class="scatterlayer mlayer"><g class="trace scatter tracecaba34" style="stroke-miterlimit: 2; opacity: 1;"><g class="fills"/><g class="errorbars"/><g class="lines"><path class="js-line" d="M0,304L3.07,302.59L4.14,249.74L5.2,251.04L6.27,249.35L10.53,248.71L11.6,248.32L13.73,249.1L14.8,248.19L15.89,248.84L16.93,248.58L21.19,247.67L22.26,247.93L25.46,247.16L26.52,246.9L30.78,247.29L31.85,246.9L37.17,246.77L38.24,246.77L41.44,245.73L42.51,245.99L46.76,245.09L47.83,244.44L48.9,244.96L49.96,244.57L51.03,243.66L52.09,243.92L53.16,244.57L54.23,243.02L57.42,242.11L58.49,242.63L59.55,242.24L60.62,243.15L61.68,242.24L62.75,240.17L64.88,240.69L65.95,239.78L70.21,237.84L71.28,236.94L73.4,238.23L74.48,237.07L75.54,235L76.6,235.51L77.67,236.55L78.73,235L80.87,232.67L81.93,232.28L84.07,230.6L85.13,231.12L87.26,229.95L88.33,230.21L89.39,231.76L90.46,229.56L93.66,230.6L94.72,230.21L96.86,226.46L97.92,226.07L98.99,226.85L100.05,225.55L101.12,225.68L102.18,227.36L103.25,227.11L104.31,225.55L108.58,221.16L109.64,218.44L110.71,219.09L111.77,217.66L112.84,216.63L113.91,217.4L116.04,217.66L117.1,218.7L121.37,216.5L122.43,216.37L124.56,215.72L125.63,214.69L126.7,214.3L127.76,214.82L128.83,215.98L129.89,215.98L132.02,213.78L133.09,213.52L136.29,212.75L137.35,212.23L138.42,211.45L139.48,211.84L144.81,211.58L145.88,211.84L148.01,210.42L149.08,208.87L150.14,207.7L151.21,207.7L152.28,206.93L153.34,207.83L156.53,207.96L157.6,142.27L160.8,140.18L161.87,140.44L164,139.92L165.06,139.01L167.19,139.14L168.26,139.14L172.52,138.48L173.58,138.35L176.78,137.83L177.85,137.96L187.44,137.96L188.51,138.09L195.96,137.83L197.03,137.18L200.23,137.18L201.29,136.14L205.55,136.27L206.62,135.74L208.75,135.88L209.81,135.22L211.95,134.57L213.01,135.22L216.21,132.22L217.27,132.22L218.34,133.27L219.41,132.88L221.54,131.57L222.61,132.22L226.87,128.44L227.93,130.14L232.2,127.14L233.27,128.05L235.39,126.48L236.46,127.66L237.53,128.7L238.59,127.79L239.66,128.83L240.72,128.31L241.79,127.4L242.85,128.44L243.92,127.79L244.98,128.18L248.18,128.83L249.25,128.44L251.4,126.48L252.46,125.05L254.59,124.92L255.66,125.44L256.72,125.96L257.79,124.01L262.06,123.09L263.12,121.4L266.32,122.44L267.38,121.92L269.51,118.4L270.58,119.96L271.65,119.96L272.71,118.79L273.78,119.7L274.84,119.18L276.98,117.35L278.04,117.48L281.24,114.35L282.3,114.48L284.44,112.14L285.5,112.92L287.63,110.83L288.7,111.35L291.89,110.7L292.96,108.09L294.03,107.96L295.09,106.92L296.16,105.48L297.22,105.74L298.29,106L299.35,107.18L300.43,107.83L301.49,107.18L302.56,109.13L303.62,108.35L304.68,108.22L305.75,106.66L306.82,106.27L307.88,106.79L310.01,107.05L311.08,61.25L313.21,59.41L314.27,59.15L317.47,57.57L318.54,57.17L320.67,57.04L321.73,56.78L326,55.46L327.06,54.54L329.2,54.28L330.26,54.81L334.53,53.75L335.59,53.62L337.72,53.62L338.79,53.75L355.83,51.78L356.9,52.18L360.1,51.12L361.16,51.25L362.23,51.52L363.29,50.73L369.69,50.07L371.82,49.54L372.88,48.23L375.01,47.83L377.14,47.44L378.21,45.73L379.28,46.91L380.35,45.73L382.48,45.73L383.54,45.07L384.61,44.94L385.67,43.76L388.87,43.49L389.94,41.91L392.06,40.2L393.13,39.42L394.17,38.1L395.22,38.76L398.42,37.71L399.49,36L403.75,35.34L404.81,33.36L405.89,32.71L406.95,33.23L409.08,32.44L410.15,32.05L411.22,31.92L412.28,30.86L414.41,30.86L415.47,31.39L417.61,32.97L418.68,31.13L420.81,32.31L421.89,30.34L424.01,30.47L425.07,30.86L428.27,29.02L429.34,29.42L431.46,27.71L432.53,26.66L433.6,24.16L434.67,24.68L435.72,23.24L436.79,24.68L438.93,22.84L439.99,22.58L441.06,21.26L442.12,21.66L444.25,21.79L445.31,20.74L446.38,21.26L447.45,19.68L449.58,19.55L450.65,18.5L454.91,18.89L455.97,17.97L457.04,17.45L458.11,17.84L459.18,17.97L460.24,17.05L461.31,16L462.37,16.66L463.44,16.39L464.51,171.81L469.83,171.4L470.9,172.08L474.1,170.99L475.16,170.99L477.29,169.76L478.36,169.76L480.49,168.94L481.55,169.08L499.67,168.39L500.73,167.98L514.58,165.8L515.65,165.12L520.98,164.02L522.05,162.66L526.35,162.38L527.41,163.61L529.55,161.7L530.61,161.57L531.68,160.88L532.74,158.43L533.8,156.51L534.87,156.79L535.94,156.1L537,154.33" style="vector-effect: non-scaling-stroke; fill: none; stroke: rgb(99, 110, 250); stroke-opacity: 1; stroke-width: 2px; opacity: 1;"/></g><g class="points"/><g class="text"/></g></g></g><g class="overplot"/><path class="xlines-above crisp" d="M0,0" style="fill: none;"/><path class="ylines-above crisp" d="M0,0" style="fill: none;"/><g class="overlines-above"/><g class="xaxislayer-above"><g class="xtick"><text text-anchor="middle" x="0" y="433" transform="translate(83.98,0)" style="font-family: 'Open Sans', verdana, arial, sans-serif; font-size: 12px; fill: rgb(42, 63, 95); fill-opacity: 1; white-space: pre;"><tspan class="line" dy="0em" x="0" y="433">00:00</tspan><tspan class="line" dy="1.3em" x="0" y="433">Aug 3, 2021</tspan></text></g><g class="xtick"><text text-anchor="middle" x="0" y="433" transform="translate(160.70999999999998,0)" style="font-family: 'Open Sans', verdana, arial, sans-serif; font-size: 12px; fill: rgb(42, 63, 95); fill-opacity: 1; white-space: pre;">12:00</text></g><g class="xtick"><text text-anchor="middle" x="0" y="433" transform="translate(237.45,0)" style="font-family: 'Open Sans', verdana, arial, sans-serif; font-size: 12px; fill: rgb(42, 63, 95); fill-opacity: 1; white-space: pre;"><tspan class="line" dy="0em" x="0" y="433">00:00</tspan><tspan class="line" dy="1.3em" x="0" y="433">Aug 4, 2021</tspan></text></g><g class="xtick"><text text-anchor="middle" x="0" y="433" transform="translate(314.18,0)" style="font-family: 'Open Sans', verdana, arial, sans-serif; font-size: 12px; fill: rgb(42, 63, 95); fill-opacity: 1; white-space: pre;">12:00</text></g><g class="xtick"><text text-anchor="middle" x="0" y="433" transform="translate(390.91,0)" style="font-family: 'Open Sans', verdana, arial, sans-serif; font-size: 12px; fill: rgb(42, 63, 95); fill-opacity: 1; white-space: pre;"><tspan class="line" dy="0em" x="0" y="433">00:00</tspan><tspan class="line" dy="1.3em" x="0" y="433">Aug 5, 2021</tspan></text></g><g class="xtick"><text text-anchor="middle" x="0" y="433" transform="translate(467.64,0)" style="font-family: 'Open Sans', verdana, arial, sans-serif; font-size: 12px; fill: rgb(42, 63, 95); fill-opacity: 1; white-space: pre;">12:00</text></g><g class="xtick"><text text-anchor="middle" x="0" y="433" transform="translate(544.37,0)" style="font-family: 'Open Sans', verdana, arial, sans-serif; font-size: 12px; fill: rgb(42, 63, 95); fill-opacity: 1; white-space: pre;"><tspan class="line" dy="0em" x="0" y="433">00:00</tspan><tspan class="line" dy="1.3em" x="0" y="433">Aug 6, 2021</tspan></text></g></g><g class="yaxislayer-above"><g class="ytick"><text text-anchor="end" x="79" y="4.199999999999999" transform="translate(0,392.55)" style="font-family: 'Open Sans', verdana, arial, sans-serif; font-size: 12px; fill: rgb(42, 63, 95); fill-opacity: 1; white-space: pre;">0.864</text></g><g class="ytick"><text text-anchor="end" x="79" y="4.199999999999999" transform="translate(0,349.77)" style="font-family: 'Open Sans', verdana, arial, sans-serif; font-size: 12px; fill: rgb(42, 63, 95); fill-opacity: 1; white-space: pre;">0.865</text></g><g class="ytick"><text text-anchor="end" x="79" y="4.199999999999999" transform="translate(0,306.99)" style="font-family: 'Open Sans', verdana, arial, sans-serif; font-size: 12px; fill: rgb(42, 63, 95); fill-opacity: 1; white-space: pre;">0.866</text></g><g class="ytick"><text text-anchor="end" x="79" y="4.199999999999999" transform="translate(0,264.21000000000004)" style="font-family: 'Open Sans', verdana, arial, sans-serif; font-size: 12px; fill: rgb(42, 63, 95); fill-opacity: 1; white-space: pre;">0.867</text></g><g class="ytick"><text text-anchor="end" x="79" y="4.199999999999999" transform="translate(0,221.43)" style="font-family: 'Open Sans', verdana, arial, sans-serif; font-size: 12px; fill: rgb(42, 63, 95); fill-opacity: 1; white-space: pre;">0.868</text></g><g class="ytick"><text text-anchor="end" x="79" y="4.199999999999999" transform="translate(0,178.65)" style="font-family: 'Open Sans', verdana, arial, sans-serif; font-size: 12px; fill: rgb(42, 63, 95); fill-opacity: 1; white-space: pre;">0.869</text></g><g class="ytick"><text text-anchor="end" x="79" y="4.199999999999999" transform="translate(0,135.87)" style="font-family: 'Open Sans', verdana, arial, sans-serif; font-size: 12px; fill: rgb(42, 63, 95); fill-opacity: 1; white-space: pre;">0.87</text></g></g><g class="overaxes-above"/></g></g><g class="polarlayer"/><g class="ternarylayer"/><g class="geolayer"/><g class="funnelarealayer"/><g class="pielayer"/><g class="treemaplayer"/><g class="sunburstlayer"/><g class="glimages"/><defs id="topdefs-c10232"><g class="clips"/><clipPath id="legendc10232"><rect width="60" height="45" x="0" y="0"/></clipPath></defs><g class="layer-above"><g class="imagelayer"/><g class="shapelayer"/></g><g class="infolayer"><g class="legend" pointer-events="all" transform="translate(627.74,100)"><rect class="bg" shape-rendering="crispEdges" width="60" height="45" x="0" y="0" style="stroke: rgb(68, 68, 68); stroke-opacity: 1; fill: rgb(255, 255, 255); fill-opacity: 1; stroke-width: 0px;"/><g class="scrollbox" transform="" clip-path="url('#legendc10232')"><text class="legendtitletext" text-anchor="start" x="2" y="15.600000000000001" style="font-family: 'Open Sans', verdana, arial, sans-serif; font-size: 12px; fill: rgb(42, 63, 95); fill-opacity: 1; white-space: pre;">All</text><g class="groups" transform=""><g class="traces" transform="translate(0,30.1)" style="opacity: 1;"><text class="legendtext" text-anchor="start" x="40" y="4.680000000000001" style="font-family: 'Open Sans', verdana, arial, sans-serif; font-size: 12px; fill: rgb(42, 63, 95); fill-opacity: 1; white-space: pre;">All</text><g class="layers" style="opacity: 1;"><g class="legendfill"/><g class="legendlines"><path class="js-line" d="M5,0h30" style="fill: none; stroke: rgb(99, 110, 250); stroke-opacity: 1; stroke-width: 2px;"/></g><g class="legendsymbols"><g class="legendpoints"/></g></g><rect class="legendtoggle" x="0" y="-9.5" width="54.890625" height="19" style="fill: rgb(0, 0, 0); fill-opacity: 0;"/></g></g></g><rect class="scrollbar" rx="20" ry="3" width="0" height="0" x="0" y="0" style="fill: rgb(128, 139, 164); fill-opacity: 1;"/></g><g class="g-gtitle"><text class="gtitle" x="35" y="50" text-anchor="start" dy="0em" style="font-family: 'Open Sans', verdana, arial, sans-serif; font-size: 17px; fill: rgb(42, 63, 95); opacity: 1; font-weight: normal; white-space: pre;">Singapore Vaccination Centers</text></g><g class="g-xtitle"><text class="xtitle" x="348.5" y="476.409375" text-anchor="middle" style="font-family: 'Open Sans', verdana, arial, sans-serif; font-size: 14px; fill: rgb(42, 63, 95); opacity: 1; font-weight: normal; white-space: pre;">Time</text></g><g class="g-ytitle"><text class="ytitle" transform="rotate(-90,19.840625000000003,260)" x="19.840625000000003" y="260" text-anchor="middle" style="font-family: 'Open Sans', verdana, arial, sans-serif; font-size: 14px; fill: rgb(42, 63, 95); opacity: 1; font-weight: normal; white-space: pre;">Filled/%</text></g></g></svg>