<svg class="main-svg" xmlns="http://www.w3.org/2000/svg" xmlns:xlink="http://www.w3.org/1999/xlink" width="700" height="500" style="" viewBox="0 0 700 500"><rect x="0" y="0" width="700" height="500" style="fill: rgb(255, 255, 255); fill-opacity: 1;"/><defs id="defs-11f4d1"><g class="clips"><clipPath id="clip11f4d1xyplot" class="plotclip"><rect width="537" height="320"/></clipPath><clipPath class="axesclip" id="clip11f4d1x"><rect x="80" y="0" width="537" height="500"/></clipPath><clipPath class="axesclip" id="clip11f4d1y"><rect x="0" y="100" width="700" height="320"/></clipPath><clipPath class="axesclip" id="clip11f4d1xy"><rect x="80" y="100" width="537" height="320"/></clipPath></g><g class="gradients"/></defs><g class="bglayer"><rect class="bg" x="80" y="100" width="537" height="320" style="fill: rgb(229, 236, 246); fill-opacity: 1; stroke-width: 0;"/></g><g class="layer-below"><g class="imagelayer"/><g class="shapelayer"/></g><g class="cartesianlayer"><g class="subplot xy"><g class="layer-subplot"><g class="shapelayer"/><g class="imagelayer"/></g><g class="gridlayer"><g class="x"><path class="xgrid crisp" transform="translate(84.23,0)" d="M0,100v320" style="stroke: rgb(255, 255, 255); stroke-opacity: 1; stroke-width: 1px;"/><path class="xgrid crisp" transform="translate(165.82999999999998,0)" d="M0,100v320" style="stroke: rgb(255, 255, 255); stroke-opacity: 1; stroke-width: 1px;"/><path class="xgrid crisp" transform="translate(247.42,0)" d="M0,100v320" style="stroke: rgb(255, 255, 255); stroke-opacity: 1; stroke-width: 1px;"/><path class="xgrid crisp" transform="translate(329.02,0)" d="M0,100v320" style="stroke: rgb(255, 255, 255); stroke-opacity: 1; stroke-width: 1px;"/><path class="xgrid crisp" transform="translate(410.61,0)" d="M0,100v320" style="stroke: rgb(255, 255, 255); stroke-opacity: 1; stroke-width: 1px;"/><path class="xgrid crisp" transform="translate(492.2,0)" d="M0,100v320" style="stroke: rgb(255, 255, 255); stroke-opacity: 1; stroke-width: 1px;"/><path class="xgrid crisp" transform="translate(573.8,0)" d="M0,100v320" style="stroke: rgb(255, 255, 255); stroke-opacity: 1; stroke-width: 1px;"/></g><g class="y"><path class="ygrid crisp" transform="translate(0,392.55)" d="M80,0h537" style="stroke: rgb(255, 255, 255); stroke-opacity: 1; stroke-width: 1px;"/><path class="ygrid crisp" transform="translate(0,349.77)" d="M80,0h537" style="stroke: rgb(255, 255, 255); stroke-opacity: 1; stroke-width: 1px;"/><path class="ygrid crisp" transform="translate(0,306.99)" d="M80,0h537" style="stroke: rgb(255, 255, 255); stroke-opacity: 1; stroke-width: 1px;"/><path class="ygrid crisp" transform="translate(0,264.21000000000004)" d="M80,0h537" style="stroke: rgb(255, 255, 255); stroke-opacity: 1; stroke-width: 1px;"/><path class="ygrid crisp" transform="translate(0,221.43)" d="M80,0h537" style="stroke: rgb(255, 255, 255); stroke-opacity: 1; stroke-width: 1px;"/><path class="ygrid crisp" transform="translate(0,178.65)" d="M80,0h537" style="stroke: rgb(255, 255, 255); stroke-opacity: 1; stroke-width: 1px;"/><path class="ygrid crisp" transform="translate(0,135.87)" d="M80,0h537" style="stroke: rgb(255, 255, 255); stroke-opacity: 1; stroke-width: 1px;"/></g></g><g class="zerolinelayer"/><path class="xlines-below"/><path class="ylines-below"/><g class="overlines-below"/><g class="xaxislayer-below"/><g class="yaxislayer-below"/><g class="overaxes-below"/><g class="plot" transform="translate(80,100)" clip-path="url('#clip11f4d1xyplot')"><g class="scatterlayer mlayer"><g class="trace scatter trace5bc565" style="stroke-miterlimit: 2; opacity: 1;"><g class="fills"/><g class="errorbars"/><g class="lines"><path class="js-line" d="M0,304L3.27,302.59L4.4,249.74L5.53,251.04L6.67,249.35L11.2,248.71L12.33,248.32L14.6,249.1L15.74,248.19L16.9,248.84L18,248.58L22.53,247.67L23.67,247.93L27.07,247.16L28.2,246.9L32.73,247.29L33.87,246.9L39.53,246.77L40.66,246.77L44.06,245.73L45.2,245.99L49.73,245.09L50.86,244.44L52,244.96L53.13,244.57L54.26,243.66L55.4,243.92L56.53,244.57L57.66,243.02L61.06,242.11L62.19,242.63L63.33,242.24L64.46,243.15L65.59,242.24L66.73,240.17L68.99,240.69L70.13,239.78L74.66,237.84L75.79,236.94L78.05,238.23L79.19,237.07L80.32,235L81.46,235.51L82.59,236.55L83.72,235L85.99,232.67L87.13,232.28L89.39,230.6L90.53,231.12L92.79,229.95L93.92,230.21L95.06,231.76L96.19,229.56L99.59,230.6L100.73,230.21L102.99,226.46L104.13,226.07L105.26,226.85L106.39,225.55L107.52,225.68L108.66,227.36L109.79,227.11L110.92,225.55L115.46,221.16L116.59,218.44L117.73,219.09L118.86,217.66L119.99,216.63L121.12,217.4L123.39,217.66L124.52,218.7L129.06,216.5L130.19,216.37L132.46,215.72L133.59,214.69L134.72,214.3L135.86,214.82L136.99,215.98L138.12,215.98L140.39,213.78L141.52,213.52L144.92,212.75L146.06,212.23L147.19,211.45L148.32,211.84L153.99,211.58L155.13,211.84L157.38,210.42L158.52,208.87L159.65,207.7L160.79,207.7L161.92,206.93L163.06,207.83L166.45,207.96L167.59,142.27L170.99,140.18L172.12,140.44L174.39,139.92L175.52,139.01L177.79,139.14L178.92,139.14L183.45,138.48L184.58,138.35L187.98,137.83L189.12,137.96L199.31,137.96L200.45,138.09L208.38,137.83L209.52,137.18L212.91,137.18L214.05,136.14L218.58,136.27L219.72,135.74L221.98,135.88L223.11,135.22L225.38,134.57L226.51,135.22L229.91,132.22L231.04,132.22L232.18,133.27L233.31,132.88L235.58,131.57L236.71,132.22L240.11,130.14L241.24,128.44L242.38,130.14L243.51,129.35L246.91,127.14L248.05,128.05L250.31,126.48L251.44,127.66L252.58,128.7L253.71,127.79L254.85,128.83L255.98,128.31L257.11,127.4L258.24,128.44L259.37,127.79L260.51,128.18L263.91,128.83L265.04,128.44L267.33,126.48L268.46,125.05L270.72,124.92L271.86,125.44L272.99,125.96L274.13,124.01L278.66,123.09L279.8,121.4L283.19,122.44L284.33,121.92L286.59,118.4L287.73,119.96L288.86,119.96L289.99,118.79L291.13,119.7L292.26,119.18L294.53,117.35L295.66,117.48L299.06,114.35L300.19,114.48L302.46,112.14L303.59,112.92L305.86,110.83L306.99,111.35L310.39,110.7L311.52,108.09L312.66,107.96L313.78,106.92L314.93,105.48L316.06,105.74L317.19,106L318.32,107.18L319.46,107.83L320.59,107.18L321.73,109.13L322.86,108.35L323.99,108.22L325.12,106.66L326.26,106.27L327.39,106.79L329.66,107.05L330.79,61.25L333.05,59.41L334.19,59.15L337.59,57.57L338.72,57.17L340.99,57.04L342.12,56.78L346.65,55.46L347.79,54.54L350.06,54.28L351.19,54.81L354.59,53.62L355.72,53.75L369.32,52.44L370.45,52.7L374.99,51.78L376.12,52.04L378.38,51.78L379.52,52.18L382.91,51.12L384.04,51.25L385.19,51.52L386.31,50.73L393.11,50.07L395.38,49.54L396.51,48.23L398.77,47.83L401.04,47.44L402.18,45.73L403.31,46.91L404.45,45.73L406.71,45.73L407.84,45.07L408.98,44.94L410.11,43.76L413.51,43.49L414.64,41.91L416.91,40.2L418.04,39.42L419.14,38.1L420.27,38.76L422.53,37.31L423.67,37.71L424.8,36L425.93,35.73L427.07,35.21L428.2,35.6L429.34,35.34L430.47,33.36L431.6,32.71L432.73,33.23L435,32.44L436.14,32.05L437.27,31.92L438.4,30.86L440.67,30.86L441.8,31.39L444.07,32.97L445.21,31.13L447.47,32.31L448.62,30.34L450.87,30.47L452.01,30.86L455.4,29.02L456.54,29.42L458.8,27.71L459.94,26.66L461.07,24.16L462.21,24.68L463.33,23.24L464.47,24.68L465.6,23.1L466.74,22.84L467.87,22.58L469,21.26L472.4,21.79L473.53,20.74L474.67,21.26L475.8,19.68L478.07,19.55L479.2,18.5L483.73,18.89L484.86,17.97L486,17.45L487.14,17.84L488.27,17.97L489.4,17.05L490.54,16L491.66,16.66L492.8,16.39L493.94,171.81L499.6,171.4L500.74,172.08L504.14,170.99L505.27,170.99L507.54,169.76L508.67,169.76L510.93,168.94L512.06,169.08L531.34,168.39L532.46,167.98L537,167.71" style="vector-effect: non-scaling-stroke; fill: none; stroke: rgb(99, 110, 250); stroke-opacity: 1; stroke-width: 2px; opacity: 1;"/></g><g class="points"/><g class="text"/></g></g></g><g class="overplot"/><path class="xlines-above crisp" d="M0,0" style="fill: none;"/><path class="ylines-above crisp" d="M0,0" style="fill: none;"/><g class="overlines-above"/><g class="xaxislayer-above"><g class="xtick"><text text-anchor="middle" x="0" y="433" transform="translate(84.23,0)" style="font-family: 'Open Sans', verdana, arial, sans-serif; font-size: 12px; fill: rgb(42, 63, 95); fill-opacity: 1; white-space: pre;"><tspan class="line" dy="0em" x="0" y="433">00:00</tspan><tspan class="line" dy="1.3em" x="0" y="433">Aug 3, 2021</tspan></text></g><g class="xtick"><text text-anchor="middle" x="0" y="433" transform="translate(165.82999999999998,0)" style="font-family: 'Open Sans', verdana, arial, sans-serif; font-size: 12px; fill: rgb(42, 63, 95); fill-opacity: 1; white-space: pre;">12:00</text></g><g class="xtick"><text text-anchor="middle" x="0" y="433" transform="translate(247.42,0)" style="font-family: 'Open Sans', verdana, arial, sans-serif; font-size: 12px; fill: rgb(42, 63, 95); fill-opacity: 1; white-space: pre;"><tspan class="line" dy="0em" x="0" y="433">00:00</tspan><tspan class="line" dy="1.3em" x="0" y="433">Aug 4, 2021</tspan></text></g><g class="xtick"><text text-anchor="middle" x="0" y="433" transform="translate(329.02,0)" style="font-family: 'Open Sans', verdana, arial, sans-serif; font-size: 12px; fill: rgb(42, 63, 95); fill-opacity: 1; white-space: pre;">12:00</text></g><g class="xtick"><text text-anchor="middle" x="0" y="433" transform="translate(410.61,0)" style="font-family: 'Open Sans', verdana, arial, sans-serif; font-size: 12px; fill: rgb(42, 63, 95); fill-opacity: 1; white-space: pre;"><tspan class="line" dy="0em" x="0" y="433">00:00</tspan><tspan class="line" dy="1.3em" x="0" y="433">Aug 5, 2021</tspan></text></g><g class="xtick"><text text-anchor="middle" x="0" y="433" transform="translate(492.2,0)" style="font-family: 'Open Sans', verdana, arial, sans-serif; font-size: 12px; fill: rgb(42, 63, 95); fill-opacity: 1; white-space: pre;">12:00</text></g><g class="xtick"><text text-anchor="middle" x="0" y="433" transform="translate(573.8,0)" style="font-family: 'Open Sans', verdana, arial, sans-serif; font-size: 12px; fill: rgb(42, 63, 95); fill-opacity: 1; white-space: pre;"><tspan class="line" dy="0em" x="0" y="433">00:00</tspan><tspan class="line" dy="1.3em" x="0" y="433">Aug 6, 2021</tspan></text></g></g><g class="yaxislayer-above"><g class="ytick"><text text-anchor="end" x="79" y="4.199999999999999" transform="translate(0,392.55)" style="font-family: 'Open Sans', verdana, arial, sans-serif; font-size: 12px; fill: rgb(42, 63, 95); fill-opacity: 1; white-space: pre;">0.864</text></g><g class="ytick"><text text-anchor="end" x="79" y="4.199999999999999" transform="translate(0,349.77)" style="font-family: 'Open Sans', verdana, arial, sans-serif; font-size: 12px; fill: rgb(42, 63, 95); fill-opacity: 1; white-space: pre;">0.865</text></g><g class="ytick"><text text-anchor="end" x="79" y="4.199999999999999" transform="translate(0,306.99)" style="font-family: 'Open Sans', verdana, arial, sans-serif; font-size: 12px; fill: rgb(42, 63, 95); fill-opacity: 1; white-space: pre;">0.866</text></g><g class="ytick"><text text-anchor="end" x="79" y="4.199999999999999" transform="translate(0,264.21000000000004)" style="font-family: 'Open Sans', verdana, arial, sans-serif; font-size: 12px; fill: rgb(42, 63, 95); fill-opacity: 1; white-space: pre;">0.867</text></g><g class="ytick"><text text-anchor="end" x="79" y="4.199999999999999" transform="translate(0,221.43)" style="font-family: 'Open Sans', verdana, arial, sans-serif; font-size: 12px; fill: rgb(42, 63, 95); fill-opacity: 1; white-space: pre;">0.868</text></g><g class="ytick"><text text-anchor="end" x="79" y="4.199999999999999" transform="translate(0,178.65)" style="font-family: 'Open Sans', verdana, arial, sans-serif; font-size: 12px; fill: rgb(42, 63, 95); fill-opacity: 1; white-space: pre;">0.869</text></g><g class="ytick"><text text-anchor="end" x="79" y="4.199999999999999" transform="translate(0,135.87)" style="font-family: 'Open Sans', verdana, arial, sans-serif; font-size: 12px; fill: rgb(42, 63, 95); fill-opacity: 1; white-space: pre;">0.87</text></g></g><g class="overaxes-above"/></g></g><g class="polarlayer"/><g class="ternarylayer"/><g class="geolayer"/><g class="funnelarealayer"/><g class="pielayer"/><g class="treemaplayer"/><g class="sunburstlayer"/><g class="glimages"/><defs id="topdefs-11f4d1"><g class="clips"/><clipPath id="legend11f4d1"><rect width="60" height="45" x="0" y="0"/></clipPath></defs><g class="layer-above"><g class="imagelayer"/><g class="shapelayer"/></g><g class="infolayer"><g class="legend" pointer-events="all" transform="translate(627.74,100)"><rect class="bg" shape-rendering="crispEdges" width="60" height="45" x="0" y="0" style="stroke: rgb(68, 68, 68); stroke-opacity: 1; fill: rgb(255, 255, 255); fill-opacity: 1; stroke-width: 0px;"/><g class="scrollbox" transform="" clip-path="url('#legend11f4d1')"><text class="legendtitletext" text-anchor="start" x="2" y="15.600000000000001" style="font-family: 'Open Sans', verdana, arial, sans-serif; font-size: 12px; fill: rgb(42, 63, 95); fill-opacity: 1; white-space: pre;">All</text><g class="groups" transform=""><g class="traces" transform="translate(0,30.1)" style="opacity: 1;"><text class="legendtext" text-anchor="start" x="40" y="4.680000000000001" style="font-family: 'Open Sans', verdana, arial, sans-serif; font-size: 12px; fill: rgb(42, 63, 95); fill-opacity: 1; white-space: pre;">All</text><g class="layers" style="opacity: 1;"><g class="legendfill"/><g class="legendlines"><path class="js-line" d="M5,0h30" style="fill: none; stroke: rgb(99, 110, 250); stroke-opacity: 1; stroke-width: 2px;"/></g><g class="legendsymbols"><g class="legendpoints"/></g></g><rect class="legendtoggle" x="0" y="-9.5" width="54.890625" height="19" style="fill: rgb(0, 0, 0); fill-opacity: 0;"/></g></g></g><rect class="scrollbar" rx="20" ry="3" width="0" height="0" x="0" y="0" style="fill: rgb(128, 139, 164); fill-opacity: 1;"/></g><g class="g-gtitle"><text class="gtitle" x="35" y="50" text-anchor="start" dy="0em" style="font-family: 'Open Sans', verdana, arial, sans-serif; font-size: 17px; fill: rgb(42, 63, 95); opacity: 1; font-weight: normal; white-space: pre;">Singapore Vaccination Centers</text></g><g class="g-xtitle"><text class="xtitle" x="348.5" y="476.409375" text-anchor="middle" style="font-family: 'Open Sans', verdana, arial, sans-serif; font-size: 14px; fill: rgb(42, 63, 95); opacity: 1; font-weight: normal; white-space: pre;">Time</text></g><g class="g-ytitle"><text class="ytitle" transform="rotate(-90,19.840625000000003,260)" x="19.840625000000003" y="260" text-anchor="middle" style="font-family: 'Open Sans', verdana, arial, sans-serif; font-size: 14px; fill: rgb(42, 63, 95); opacity: 1; font-weight: normal; white-space: pre;">Filled/%</text></g></g></svg>