<svg class="main-svg" xmlns="http://www.w3.org/2000/svg" xmlns:xlink="http://www.w3.org/1999/xlink" width="700" height="500" style="" viewBox="0 0 700 500"><rect x="0" y="0" width="700" height="500" style="fill: rgb(255, 255, 255); fill-opacity: 1;"/><defs id="defs-378ee5"><g class="clips"><clipPath id="clip378ee5xyplot" class="plotclip"><rect width="537" height="320"/></clipPath><clipPath class="axesclip" id="clip378ee5x"><rect x="80" y="0" width="537" height="500"/></clipPath><clipPath class="axesclip" id="clip378ee5y"><rect x="0" y="100" width="700" height="320"/></clipPath><clipPath class="axesclip" id="clip378ee5xy"><rect x="80" y="100" width="537" height="320"/></clipPath></g><g class="gradients"/></defs><g class="bglayer"><rect class="bg" x="80" y="100" width="537" height="320" style="fill: rgb(229, 236, 246); fill-opacity: 1; stroke-width: 0;"/></g><g class="layer-below"><g class="imagelayer"/><g class="shapelayer"/></g><g class="cartesianlayer"><g class="subplot xy"><g class="layer-subplot"><g class="shapelayer"/><g class="imagelayer"/></g><g class="gridlayer"><g class="x"><path class="xgrid crisp" transform="translate(90.95,0)" d="M0,100v320" style="stroke: rgb(255, 255, 255); stroke-opacity: 1; stroke-width: 1px;"/><path class="xgrid crisp" transform="translate(208.84,0)" d="M0,100v320" style="stroke: rgb(255, 255, 255); stroke-opacity: 1; stroke-width: 1px;"/><path class="xgrid crisp" transform="translate(326.73,0)" d="M0,100v320" style="stroke: rgb(255, 255, 255); stroke-opacity: 1; stroke-width: 1px;"/><path class="xgrid crisp" transform="translate(444.62,0)" d="M0,100v320" style="stroke: rgb(255, 255, 255); stroke-opacity: 1; stroke-width: 1px;"/><path class="xgrid crisp" transform="translate(562.51,0)" d="M0,100v320" style="stroke: rgb(255, 255, 255); stroke-opacity: 1; stroke-width: 1px;"/></g><g class="y"><path class="ygrid crisp" transform="translate(0,367.23)" d="M80,0h537" style="stroke: rgb(255, 255, 255); stroke-opacity: 1; stroke-width: 1px;"/><path class="ygrid crisp" transform="translate(0,308.43)" d="M80,0h537" style="stroke: rgb(255, 255, 255); stroke-opacity: 1; stroke-width: 1px;"/><path class="ygrid crisp" transform="translate(0,249.63)" d="M80,0h537" style="stroke: rgb(255, 255, 255); stroke-opacity: 1; stroke-width: 1px;"/><path class="ygrid crisp" transform="translate(0,190.82999999999998)" d="M80,0h537" style="stroke: rgb(255, 255, 255); stroke-opacity: 1; stroke-width: 1px;"/><path class="ygrid crisp" transform="translate(0,132.03)" d="M80,0h537" style="stroke: rgb(255, 255, 255); stroke-opacity: 1; stroke-width: 1px;"/></g></g><g class="zerolinelayer"/><path class="xlines-below"/><path class="ylines-below"/><g class="overlines-below"/><g class="xaxislayer-below"/><g class="yaxislayer-below"/><g class="overaxes-below"/><g class="plot" transform="translate(80,100)" clip-path="url('#clip378ee5xyplot')"><g class="scatterlayer mlayer"><g class="trace scatter trace4e1c54" style="stroke-miterlimit: 2; opacity: 1;"><g class="fills"/><g class="errorbars"/><g class="lines"><path class="js-line" d="M0,82.28L6.91,82.51L9.37,120.48L14.25,120.57L16.06,136.92L16.83,136.9L34.91,137.96L36.03,121.23L36.38,129.62L37.2,129.56L38.83,126.37L39.65,126.27L41.29,129.79L42.11,129.7L43.74,132.71L44.56,132.63L46.2,120.69L47.02,120.62L48.66,132.64L49.48,132.55L51.11,126.68L51.93,123.32L53.57,113.21L54.39,109.51L56.02,94.58L56.84,92.89L58.48,74.17L59.3,72.87L60.94,78.78L61.75,77.73L63.39,63.68L64.21,62.82L65.85,65.47L66.66,64.83L68.3,74.27L69.12,73.83L70.2,51.83L70.76,52.53L71.58,52.34L79.76,51.79L80.58,51.79L92.86,50.91L93.68,50.65L122.33,42.03L123.15,41.83L128.07,40.95L128.89,41.79L142.8,41.47L143.62,41.46L155.9,40.8L156.72,40.69L187.01,36.83L187.83,35.53L219.76,34L220.58,33.87L245.96,31.05L246.78,28.56L274.61,27.81L275.43,95.38L284.46,93.57L285.26,93.44L286.08,93.12L286.89,91.51L289.35,88.51L290.17,87.52L294.26,73.59L295.08,72.39L299.99,67.88L300.81,67.37L304.91,65.43L305.72,65.5L311.45,64.8L312.28,64.77L330.28,63.66L331.1,63.48L336.83,61.32L337.65,60.89L338.47,60.46L339.29,62.78L342.56,61.15L343.38,59.94L348.29,53.24L349.11,52.44L352.39,47.98L353.21,45.51L356.48,38.66L357.3,37.65L361.39,33.5L362.21,32.89L365.49,31.98L366.31,31.8L372.85,31.18L373.67,31.16L385.95,30.17L386.77,29.9L391.68,28.09L392.5,74.81L394.14,73.22L394.96,72.76L403.15,69.16L403.97,68.8L404.59,71.93L404.79,68.39L405.57,68.25L405.6,69.25L406.38,67.95L406.42,68.94L407.24,68.62L408.88,68.09L409.7,76.43L416.86,73.91L416.9,72.31L416.94,72.03L417.07,73.74L424.84,44.74L425.25,44.87L425.66,41.95L426.48,42.12L426.89,43.2L428.12,37.43L428.53,41.6L429.75,39.66L430.16,39.05L431.39,38.13L431.8,38.96L432.21,38.26L432.62,38.53L433.03,38.42L434.26,38.4L434.67,43.02L439.17,41.69L439.58,36.5L440.4,35.76L440.8,35.39L442.03,33.79L442.44,33.41L445.72,22.43L446.13,16L446.53,16.8L446.95,140.18L447.35,139.22L447.76,142.07L448.58,136.79L448.99,138.99L449.81,136.15L450.22,136.63L450.63,141.25L451.04,146.68L451.45,133.42L452.27,138.09L452.68,157.2L453.9,133.53L454.31,145.44L454.72,148.42L455.13,146.68L455.54,144.02L456.36,134.36L456.77,135.71L457.18,141.84L457.59,146.05L458,142.1L458.41,141.74L458.81,151.77L459.63,140.84L460.04,148.68L460.86,127.07L461.27,137.58L462.09,140.49L462.5,138.92L463.32,130.34L463.73,131.67L464.14,129.31L464.55,138.25L464.96,134.05L465.36,138.68L465.78,138.81L466.18,131.49L466.59,131.42L467,140.05L467.82,132.48L468.23,138.41L469.05,141.46L469.46,128.79L470.28,142.96L470.69,264.58L471.51,292.55L471.92,293.12L472.33,304L472.74,286.22L473.14,301.52L473.55,291.75L473.96,292.1L474.37,291.07L474.78,294.16L475.19,293.46L475.6,276.02L476.01,283.67L476.42,262.28L477.24,272.54L477.65,248.89L478.46,241.71L478.87,229.6L479.28,224.98L479.69,228.24L480.1,227.36L481.33,215.22L481.74,217.06L482.15,216.4L482.56,227.08L482.97,226.08L483.38,228.38L483.79,228.68L484.19,224.72L484.6,233.57L485.01,224.28L485.83,227.75L486.24,223.07L487.06,226.33L487.47,223.26L487.88,224.52L488.29,234.01L488.7,220.81L489.11,231.91L490.34,220.15L490.74,220.86L491.97,212.72L492.38,220.76L493.2,220.72L493.61,223.7L494.02,223.67L494.43,219.37L494.84,223.08L495.25,218.62L495.66,226.76L496.07,225.2L496.48,224.19L496.89,219.51L497.29,225.16L498.52,225.11L498.93,216.49L499.34,225.05L499.75,220.43L500.16,220.57L500.57,218.19L500.98,220.92L501.39,219.84L501.8,227.36L502.21,216.65L502.62,220.1L503.03,220.01L503.84,220.98L504.25,218.78L505.07,223.64L505.48,218.66L505.89,205.85L506.3,215.25L506.71,220.32L507.12,206.18L507.53,206.81L507.94,214.16L508.35,214.11L508.76,206.99L509.58,212.47L509.99,202.23L510.4,199.24L510.81,208.71L511.22,224.84L511.62,215.2L512.03,214.49L512.44,205.74L512.85,219.6L513.67,195.82L514.08,209.77L514.49,208.24L514.89,203.32L515.3,202.05L515.71,205.17L516.12,200.81L516.53,208.16L516.94,206.35L517.35,209.96L517.76,207.44L518.17,196.45L518.58,195.36L518.99,196.45L519.81,209.39L520.22,202.33L520.63,210.92L521.03,197.09L521.44,197.31L521.85,191.05L522.26,191.24L522.67,196.07L523.08,200.65L523.49,194.37L524.72,210.5L525.13,204.27L525.95,191.94L526.36,193.62L526.77,197L527.18,205.03L527.58,197.14L527.99,198.57L528.4,192.99L529.63,184.28L530.04,189.51L530.86,194.59L531.27,189.23L531.68,191.91L532.09,189.81L532.5,182.31L532.91,187.7L533.32,187L533.72,183.28L534.13,186.18L534.54,185.69L534.96,181.61L535.37,182.61L535.78,186.54L536.59,187.68L537,186.58" style="vector-effect: non-scaling-stroke; fill: none; stroke: rgb(99, 110, 250); stroke-opacity: 1; stroke-width: 2px; opacity: 1;"/></g><g class="points"/><g class="text"/></g></g></g><g class="overplot"/><path class="xlines-above crisp" d="M0,0" style="fill: none;"/><path class="ylines-above crisp" d="M0,0" style="fill: none;"/><g class="overlines-above"/><g class="xaxislayer-above"><g class="xtick"><text text-anchor="middle" x="0" y="433" transform="translate(90.95,0)" style="font-family: 'Open Sans', verdana, arial, sans-serif; font-size: 12px; fill: rgb(42, 63, 95); fill-opacity: 1; white-space: pre;"><tspan class="line" dy="0em" x="0" y="433">Jun 4</tspan><tspan class="line" dy="1.3em" x="0" y="433">2021</tspan></text></g><g class="xtick"><text text-anchor="middle" x="0" y="433" transform="translate(208.84,0)" style="font-family: 'Open Sans', verdana, arial, sans-serif; font-size: 12px; fill: rgb(42, 63, 95); fill-opacity: 1; white-space: pre;">Jun 6</text></g><g class="xtick"><text text-anchor="middle" x="0" y="433" transform="translate(326.73,0)" style="font-family: 'Open Sans', verdana, arial, sans-serif; font-size: 12px; fill: rgb(42, 63, 95); fill-opacity: 1; white-space: pre;">Jun 8</text></g><g class="xtick"><text text-anchor="middle" x="0" y="433" transform="translate(444.62,0)" style="font-family: 'Open Sans', verdana, arial, sans-serif; font-size: 12px; fill: rgb(42, 63, 95); fill-opacity: 1; white-space: pre;">Jun 10</text></g><g class="xtick"><text text-anchor="middle" x="0" y="433" transform="translate(562.51,0)" style="font-family: 'Open Sans', verdana, arial, sans-serif; font-size: 12px; fill: rgb(42, 63, 95); fill-opacity: 1; white-space: pre;">Jun 12</text></g></g><g class="yaxislayer-above"><g class="ytick"><text text-anchor="end" x="79" y="4.199999999999999" transform="translate(0,367.23)" style="font-family: 'Open Sans', verdana, arial, sans-serif; font-size: 12px; fill: rgb(42, 63, 95); fill-opacity: 1; white-space: pre;">0.8</text></g><g class="ytick"><text text-anchor="end" x="79" y="4.199999999999999" transform="translate(0,308.43)" style="font-family: 'Open Sans', verdana, arial, sans-serif; font-size: 12px; fill: rgb(42, 63, 95); fill-opacity: 1; white-space: pre;">0.82</text></g><g class="ytick"><text text-anchor="end" x="79" y="4.199999999999999" transform="translate(0,249.63)" style="font-family: 'Open Sans', verdana, arial, sans-serif; font-size: 12px; fill: rgb(42, 63, 95); fill-opacity: 1; white-space: pre;">0.84</text></g><g class="ytick"><text text-anchor="end" x="79" y="4.199999999999999" transform="translate(0,190.82999999999998)" style="font-family: 'Open Sans', verdana, arial, sans-serif; font-size: 12px; fill: rgb(42, 63, 95); fill-opacity: 1; white-space: pre;">0.86</text></g><g class="ytick"><text text-anchor="end" x="79" y="4.199999999999999" transform="translate(0,132.03)" style="font-family: 'Open Sans', verdana, arial, sans-serif; font-size: 12px; fill: rgb(42, 63, 95); fill-opacity: 1; white-space: pre;">0.88</text></g></g><g class="overaxes-above"/></g></g><g class="polarlayer"/><g class="ternarylayer"/><g class="geolayer"/><g class="funnelarealayer"/><g class="pielayer"/><g class="treemaplayer"/><g class="sunburstlayer"/><g class="glimages"/><defs id="topdefs-378ee5"><g class="clips"/><clipPath id="legend378ee5"><rect width="60" height="45" x="0" y="0"/></clipPath></defs><g class="layer-above"><g class="imagelayer"/><g class="shapelayer"/></g><g class="infolayer"><g class="legend" pointer-events="all" transform="translate(627.74,100)"><rect class="bg" shape-rendering="crispEdges" width="60" height="45" x="0" y="0" style="stroke: rgb(68, 68, 68); stroke-opacity: 1; fill: rgb(255, 255, 255); fill-opacity: 1; stroke-width: 0px;"/><g class="scrollbox" transform="" clip-path="url('#legend378ee5')"><text class="legendtitletext" text-anchor="start" x="2" y="15.600000000000001" style="font-family: 'Open Sans', verdana, arial, sans-serif; font-size: 12px; fill: rgb(42, 63, 95); fill-opacity: 1; white-space: pre;">All</text><g class="groups" transform=""><g class="traces" transform="translate(0,30.1)" style="opacity: 1;"><text class="legendtext" text-anchor="start" x="40" y="4.680000000000001" style="font-family: 'Open Sans', verdana, arial, sans-serif; font-size: 12px; fill: rgb(42, 63, 95); fill-opacity: 1; white-space: pre;">All</text><g class="layers" style="opacity: 1;"><g class="legendfill"/><g class="legendlines"><path class="js-line" d="M5,0h30" style="fill: none; stroke: rgb(99, 110, 250); stroke-opacity: 1; stroke-width: 2px;"/></g><g class="legendsymbols"><g class="legendpoints"/></g></g><rect class="legendtoggle" x="0" y="-9.5" width="54.890625" height="19" style="fill: rgb(0, 0, 0); fill-opacity: 0;"/></g></g></g><rect class="scrollbar" rx="20" ry="3" width="0" height="0" x="0" y="0" style="fill: rgb(128, 139, 164); fill-opacity: 1;"/></g><g class="g-gtitle"><text class="gtitle" x="35" y="50" text-anchor="start" dy="0em" style="font-family: 'Open Sans', verdana, arial, sans-serif; font-size: 17px; fill: rgb(42, 63, 95); opacity: 1; font-weight: normal; white-space: pre;">Singapore Vaccination Centers</text></g><g class="g-xtitle"><text class="xtitle" x="348.5" y="476.409375" text-anchor="middle" style="font-family: 'Open Sans', verdana, arial, sans-serif; font-size: 14px; fill: rgb(42, 63, 95); opacity: 1; font-weight: normal; white-space: pre;">Time</text></g><g class="g-ytitle"><text class="ytitle" transform="rotate(-90,27.481250000000003,260)" x="27.481250000000003" y="260" text-anchor="middle" style="font-family: 'Open Sans', verdana, arial, sans-serif; font-size: 14px; fill: rgb(42, 63, 95); opacity: 1; font-weight: normal; white-space: pre;">Filled/%</text></g></g></svg>