<svg class="main-svg" xmlns="http://www.w3.org/2000/svg" xmlns:xlink="http://www.w3.org/1999/xlink" width="700" height="500" style="" viewBox="0 0 700 500"><rect x="0" y="0" width="700" height="500" style="fill: rgb(255, 255, 255); fill-opacity: 1;"/><defs id="defs-e26c4b"><g class="clips"><clipPath id="clipe26c4bxyplot" class="plotclip"><rect width="537" height="320"/></clipPath><clipPath class="axesclip" id="clipe26c4bx"><rect x="80" y="0" width="537" height="500"/></clipPath><clipPath class="axesclip" id="clipe26c4by"><rect x="0" y="100" width="700" height="320"/></clipPath><clipPath class="axesclip" id="clipe26c4bxy"><rect x="80" y="100" width="537" height="320"/></clipPath></g><g class="gradients"/></defs><g class="bglayer"><rect class="bg" x="80" y="100" width="537" height="320" style="fill: rgb(229, 236, 246); fill-opacity: 1; stroke-width: 0;"/></g><g class="layer-below"><g class="imagelayer"/><g class="shapelayer"/></g><g class="cartesianlayer"><g class="subplot xy"><g class="layer-subplot"><g class="shapelayer"/><g class="imagelayer"/></g><g class="gridlayer"><g class="x"><path class="xgrid crisp" transform="translate(87.17,0)" d="M0,100v320" style="stroke: rgb(255, 255, 255); stroke-opacity: 1; stroke-width: 1px;"/><path class="xgrid crisp" transform="translate(225.31,0)" d="M0,100v320" style="stroke: rgb(255, 255, 255); stroke-opacity: 1; stroke-width: 1px;"/><path class="xgrid crisp" transform="translate(363.44,0)" d="M0,100v320" style="stroke: rgb(255, 255, 255); stroke-opacity: 1; stroke-width: 1px;"/><path class="xgrid crisp" transform="translate(501.58,0)" d="M0,100v320" style="stroke: rgb(255, 255, 255); stroke-opacity: 1; stroke-width: 1px;"/></g><g class="y"><path class="ygrid crisp" transform="translate(0,387.39)" d="M80,0h537" style="stroke: rgb(255, 255, 255); stroke-opacity: 1; stroke-width: 1px;"/><path class="ygrid crisp" transform="translate(0,325.32)" d="M80,0h537" style="stroke: rgb(255, 255, 255); stroke-opacity: 1; stroke-width: 1px;"/><path class="ygrid crisp" transform="translate(0,263.26)" d="M80,0h537" style="stroke: rgb(255, 255, 255); stroke-opacity: 1; stroke-width: 1px;"/><path class="ygrid crisp" transform="translate(0,201.2)" d="M80,0h537" style="stroke: rgb(255, 255, 255); stroke-opacity: 1; stroke-width: 1px;"/><path class="ygrid crisp" transform="translate(0,139.13)" d="M80,0h537" style="stroke: rgb(255, 255, 255); stroke-opacity: 1; stroke-width: 1px;"/></g></g><g class="zerolinelayer"/><path class="xlines-below"/><path class="ylines-below"/><g class="overlines-below"/><g class="xaxislayer-below"/><g class="yaxislayer-below"/><g class="overaxes-below"/><g class="plot" transform="translate(80,100)" clip-path="url('#clipe26c4bxyplot')"><g class="scatterlayer mlayer"><g class="trace scatter trace4f52a9" style="stroke-miterlimit: 2; opacity: 1;"><g class="fills"/><g class="errorbars"/><g class="lines"><path class="js-line" d="M0,304L1.7,303.44L3.61,301.95L5.53,301.95L7.45,225.29L9.37,227.16L11.29,224.72L17.04,224.35L18.96,223.78L20.88,223.22L22.79,223.78L24.72,224.35L26.64,223.03L28.61,223.97L30.47,223.6L32.39,223.03L34.3,223.41L38.14,222.28L40.07,222.66L43.91,221.53L45.83,221.53L49.66,221.53L51.57,221.53L55.42,221.72L57.34,221.16L65,220.78L66.92,220.97L70.76,220.22L72.69,220.03L74.6,219.47L76.53,219.84L78.44,219.66L80.36,218.72L84.19,218.53L86.1,217.59L88.03,218.34L89.95,217.78L91.86,216.47L93.78,216.84L95.7,217.78L97.62,215.53L101.46,214.4L103.37,214.21L105.29,214.96L107.21,214.4L109.13,215.72L111.04,214.4L112.97,211.4L114.88,212.15L116.8,212.15L118.72,210.84L120.65,210.09L122.56,210.27L128.32,206.71L130.24,208.21L132.14,208.58L134.07,206.9L135.98,203.89L137.91,204.64L139.82,206.14L141.74,203.89L143.67,201.45L145.58,200.51L149.42,198.64L151.34,197.51L153.26,198.26L155.17,197.14L157.09,196.57L159.01,196.95L160.93,199.2L162.85,196.01L164.77,196.57L166.69,196.2L168.61,197.51L170.53,196.95L174.37,191.51L176.28,190.94L178.2,192.07L180.12,190.19L182.04,190.38L183.95,192.82L185.87,192.45L187.79,190.19L189.71,188.88L191.64,186.63L193.55,185.69L195.47,183.81L197.38,179.87L199.31,180.81L203.15,177.25L205.06,178.37L208.9,178.75L210.81,180.25L218.5,177.06L220.41,176.87L224.25,175.93L226.17,174.43L228.08,173.87L230,174.62L231.93,176.31L233.83,176.31L235.75,174.05L237.68,173.12L247.27,170.86L249.19,169.74L254.94,170.86L256.86,170.3L260.7,169.93L262.62,170.3L266.45,168.24L268.38,165.99L270.29,164.3L272.21,164.3L274.13,163.17L276.05,164.48L277.96,164.67L279.88,163.92L281.8,164.67L283.73,69.37L289.48,66.34L291.4,66.72L295.24,65.96L297.16,64.63L299.07,64.26L300.99,64.82L308.66,64.07L310.58,63.88L320.17,63.12L322.1,63.12L329.77,62.17L331.7,62.74L341.28,63.31L343.2,63.12L352.79,62.93L354.71,61.98L360.46,61.98L362.38,60.47L368.14,61.42L370.04,60.66L371.97,59.9L373.89,60.28L379.64,58.96L381.57,58.2L383.48,59.15L385.4,57.63L389.24,54.79L391.15,54.79L393.08,56.31L394.99,55.74L398.83,53.85L400.75,54.79L404.59,51.77L406.5,51.77L408.42,49.31L410.34,51.77L418.01,47.41L419.94,48.74L423.77,46.47L425.69,48.17L427.61,49.68L429.53,48.36L431.45,49.87L433.36,49.12L435.28,47.79L437.2,49.31L439.12,48.36L441.03,48.93L444.88,50.44L446.79,49.87L450.66,48.17L452.59,46.47L454.49,44.39L456.42,44.01L460.25,44.95L462.17,45.71L464.09,42.87L466.01,42.49L471.77,41.55L473.69,39.09L479.44,40.6L481.36,39.84L483.28,37.95L485.19,34.73L487.12,37.01L489.04,37.01L490.96,35.3L492.87,36.63L494.79,35.87L496.7,34.17L498.63,33.22L500.55,33.41L506.3,28.87L508.22,29.06L512.06,25.65L513.98,26.79L517.81,23.76L519.73,24.52L525.48,23.57L527.4,19.78L529.32,19.6L531.23,18.08L533.16,16L535.08,16.38L537,16.76" style="vector-effect: non-scaling-stroke; fill: none; stroke: rgb(99, 110, 250); stroke-opacity: 1; stroke-width: 2px; opacity: 1;"/></g><g class="points"/><g class="text"/></g></g></g><g class="overplot"/><path class="xlines-above crisp" d="M0,0" style="fill: none;"/><path class="ylines-above crisp" d="M0,0" style="fill: none;"/><g class="overlines-above"/><g class="xaxislayer-above"><g class="xtick"><text text-anchor="middle" x="0" y="433" transform="translate(87.17,0)" style="font-family: 'Open Sans', verdana, arial, sans-serif; font-size: 12px; fill: rgb(42, 63, 95); fill-opacity: 1; white-space: pre;"><tspan class="line" dy="0em" x="0" y="433">00:00</tspan><tspan class="line" dy="1.3em" x="0" y="433">Aug 3, 2021</tspan></text></g><g class="xtick"><text text-anchor="middle" x="0" y="433" transform="translate(225.31,0)" style="font-family: 'Open Sans', verdana, arial, sans-serif; font-size: 12px; fill: rgb(42, 63, 95); fill-opacity: 1; white-space: pre;">12:00</text></g><g class="xtick"><text text-anchor="middle" x="0" y="433" transform="translate(363.44,0)" style="font-family: 'Open Sans', verdana, arial, sans-serif; font-size: 12px; fill: rgb(42, 63, 95); fill-opacity: 1; white-space: pre;"><tspan class="line" dy="0em" x="0" y="433">00:00</tspan><tspan class="line" dy="1.3em" x="0" y="433">Aug 4, 2021</tspan></text></g><g class="xtick"><text text-anchor="middle" x="0" y="433" transform="translate(501.58,0)" style="font-family: 'Open Sans', verdana, arial, sans-serif; font-size: 12px; fill: rgb(42, 63, 95); fill-opacity: 1; white-space: pre;">12:00</text></g></g><g class="yaxislayer-above"><g class="ytick"><text text-anchor="end" x="79" y="4.199999999999999" transform="translate(0,387.39)" style="font-family: 'Open Sans', verdana, arial, sans-serif; font-size: 12px; fill: rgb(42, 63, 95); fill-opacity: 1; white-space: pre;">0.864</text></g><g class="ytick"><text text-anchor="end" x="79" y="4.199999999999999" transform="translate(0,325.32)" style="font-family: 'Open Sans', verdana, arial, sans-serif; font-size: 12px; fill: rgb(42, 63, 95); fill-opacity: 1; white-space: pre;">0.865</text></g><g class="ytick"><text text-anchor="end" x="79" y="4.199999999999999" transform="translate(0,263.26)" style="font-family: 'Open Sans', verdana, arial, sans-serif; font-size: 12px; fill: rgb(42, 63, 95); fill-opacity: 1; white-space: pre;">0.866</text></g><g class="ytick"><text text-anchor="end" x="79" y="4.199999999999999" transform="translate(0,201.2)" style="font-family: 'Open Sans', verdana, arial, sans-serif; font-size: 12px; fill: rgb(42, 63, 95); fill-opacity: 1; white-space: pre;">0.867</text></g><g class="ytick"><text text-anchor="end" x="79" y="4.199999999999999" transform="translate(0,139.13)" style="font-family: 'Open Sans', verdana, arial, sans-serif; font-size: 12px; fill: rgb(42, 63, 95); fill-opacity: 1; white-space: pre;">0.868</text></g></g><g class="overaxes-above"/></g></g><g class="polarlayer"/><g class="ternarylayer"/><g class="geolayer"/><g class="funnelarealayer"/><g class="pielayer"/><g class="treemaplayer"/><g class="sunburstlayer"/><g class="glimages"/><defs id="topdefs-e26c4b"><g class="clips"/><clipPath id="legende26c4b"><rect width="60" height="45" x="0" y="0"/></clipPath></defs><g class="layer-above"><g class="imagelayer"/><g class="shapelayer"/></g><g class="infolayer"><g class="legend" pointer-events="all" transform="translate(627.74,100)"><rect class="bg" shape-rendering="crispEdges" width="60" height="45" x="0" y="0" style="stroke: rgb(68, 68, 68); stroke-opacity: 1; fill: rgb(255, 255, 255); fill-opacity: 1; stroke-width: 0px;"/><g class="scrollbox" transform="" clip-path="url('#legende26c4b')"><text class="legendtitletext" text-anchor="start" x="2" y="15.600000000000001" style="font-family: 'Open Sans', verdana, arial, sans-serif; font-size: 12px; fill: rgb(42, 63, 95); fill-opacity: 1; white-space: pre;">All</text><g class="groups" transform=""><g class="traces" transform="translate(0,30.1)" style="opacity: 1;"><text class="legendtext" text-anchor="start" x="40" y="4.680000000000001" style="font-family: 'Open Sans', verdana, arial, sans-serif; font-size: 12px; fill: rgb(42, 63, 95); fill-opacity: 1; white-space: pre;">All</text><g class="layers" style="opacity: 1;"><g class="legendfill"/><g class="legendlines"><path class="js-line" d="M5,0h30" style="fill: none; stroke: rgb(99, 110, 250); stroke-opacity: 1; stroke-width: 2px;"/></g><g class="legendsymbols"><g class="legendpoints"/></g></g><rect class="legendtoggle" x="0" y="-9.5" width="54.890625" height="19" style="fill: rgb(0, 0, 0); fill-opacity: 0;"/></g></g></g><rect class="scrollbar" rx="20" ry="3" width="0" height="0" x="0" y="0" style="fill: rgb(128, 139, 164); fill-opacity: 1;"/></g><g class="g-gtitle"><text class="gtitle" x="35" y="50" text-anchor="start" dy="0em" style="font-family: 'Open Sans', verdana, arial, sans-serif; font-size: 17px; fill: rgb(42, 63, 95); opacity: 1; font-weight: normal; white-space: pre;">Singapore Vaccination Centers</text></g><g class="g-xtitle"><text class="xtitle" x="348.5" y="476.409375" text-anchor="middle" style="font-family: 'Open Sans', verdana, arial, sans-serif; font-size: 14px; fill: rgb(42, 63, 95); opacity: 1; font-weight: normal; white-space: pre;">Time</text></g><g class="g-ytitle"><text class="ytitle" transform="rotate(-90,19.840625000000003,260)" x="19.840625000000003" y="260" text-anchor="middle" style="font-family: 'Open Sans', verdana, arial, sans-serif; font-size: 14px; fill: rgb(42, 63, 95); opacity: 1; font-weight: normal; white-space: pre;">Filled/%</text></g></g></svg>