<svg class="main-svg" xmlns="http://www.w3.org/2000/svg" xmlns:xlink="http://www.w3.org/1999/xlink" width="700" height="500" style="" viewBox="0 0 700 500"><rect x="0" y="0" width="700" height="500" style="fill: rgb(255, 255, 255); fill-opacity: 1;"/><defs id="defs-ac1328"><g class="clips"><clipPath id="clipac1328xyplot" class="plotclip"><rect width="537" height="320"/></clipPath><clipPath class="axesclip" id="clipac1328x"><rect x="80" y="0" width="537" height="500"/></clipPath><clipPath class="axesclip" id="clipac1328y"><rect x="0" y="100" width="700" height="320"/></clipPath><clipPath class="axesclip" id="clipac1328xy"><rect x="80" y="100" width="537" height="320"/></clipPath></g><g class="gradients"/></defs><g class="bglayer"><rect class="bg" x="80" y="100" width="537" height="320" style="fill: rgb(229, 236, 246); fill-opacity: 1; stroke-width: 0;"/></g><g class="layer-below"><g class="imagelayer"/><g class="shapelayer"/></g><g class="cartesianlayer"><g class="subplot xy"><g class="layer-subplot"><g class="shapelayer"/><g class="imagelayer"/></g><g class="gridlayer"><g class="x"><path class="xgrid crisp" transform="translate(90.16,0)" d="M0,100v320" style="stroke: rgb(255, 255, 255); stroke-opacity: 1; stroke-width: 1px;"/><path class="xgrid crisp" transform="translate(199.54000000000002,0)" d="M0,100v320" style="stroke: rgb(255, 255, 255); stroke-opacity: 1; stroke-width: 1px;"/><path class="xgrid crisp" transform="translate(308.93,0)" d="M0,100v320" style="stroke: rgb(255, 255, 255); stroke-opacity: 1; stroke-width: 1px;"/><path class="xgrid crisp" transform="translate(418.31,0)" d="M0,100v320" style="stroke: rgb(255, 255, 255); stroke-opacity: 1; stroke-width: 1px;"/><path class="xgrid crisp" transform="translate(527.7,0)" d="M0,100v320" style="stroke: rgb(255, 255, 255); stroke-opacity: 1; stroke-width: 1px;"/></g><g class="y"><path class="ygrid crisp" transform="translate(0,367.23)" d="M80,0h537" style="stroke: rgb(255, 255, 255); stroke-opacity: 1; stroke-width: 1px;"/><path class="ygrid crisp" transform="translate(0,308.43)" d="M80,0h537" style="stroke: rgb(255, 255, 255); stroke-opacity: 1; stroke-width: 1px;"/><path class="ygrid crisp" transform="translate(0,249.63)" d="M80,0h537" style="stroke: rgb(255, 255, 255); stroke-opacity: 1; stroke-width: 1px;"/><path class="ygrid crisp" transform="translate(0,190.82999999999998)" d="M80,0h537" style="stroke: rgb(255, 255, 255); stroke-opacity: 1; stroke-width: 1px;"/><path class="ygrid crisp" transform="translate(0,132.03)" d="M80,0h537" style="stroke: rgb(255, 255, 255); stroke-opacity: 1; stroke-width: 1px;"/></g></g><g class="zerolinelayer"/><path class="xlines-below"/><path class="ylines-below"/><g class="overlines-below"/><g class="xaxislayer-below"/><g class="yaxislayer-below"/><g class="overaxes-below"/><g class="plot" transform="translate(80,100)" clip-path="url('#clipac1328xyplot')"><g class="scatterlayer mlayer"><g class="trace scatter trace073684" style="stroke-miterlimit: 2; opacity: 1;"><g class="fills"/><g class="errorbars"/><g class="lines"><path class="js-line" d="M0,82.28L6.42,82.51L8.69,120.48L13.22,120.57L14.9,136.92L15.61,136.9L32.39,137.96L33.43,121.23L33.75,129.62L34.51,129.56L36.03,126.37L36.79,126.27L38.31,129.79L39.07,129.7L40.59,132.71L41.35,132.63L42.87,120.69L43.63,120.62L45.15,132.64L45.91,132.55L47.42,126.68L49.7,113.21L50.46,109.51L54.26,74.17L55.02,72.87L56.54,78.78L57.3,77.73L59.58,62.82L61.1,65.47L61.86,64.83L63.38,74.27L64.14,73.83L65.14,51.83L66.41,52.34L67.17,52.21L75.53,51.78L76.29,51.77L85.4,51.11L86.16,50.91L111.99,42.44L112.75,42.24L118.83,40.95L119.59,41.79L133.26,41.46L134.02,41.46L146.17,40.58L146.93,40.48L171.24,37.08L172,36.99L173.52,36.83L174.28,35.53L203.9,34L204.66,33.87L228.21,31.05L228.98,28.56L254.8,27.81L255.56,95.38L263.94,93.57L264.68,93.44L265.44,93.12L266.2,91.51L268.48,88.51L269.24,87.52L273.03,73.59L273.79,72.39L278.35,67.88L279.11,67.37L282.91,65.43L283.67,65.5L288.99,64.8L289.75,64.77L306.46,63.66L307.22,63.48L312.53,61.32L313.29,60.89L314.05,60.46L314.81,62.78L317.85,61.15L318.61,59.94L323.17,53.24L323.93,52.44L326.97,47.98L327.72,45.51L330.76,38.66L331.52,37.65L335.32,33.5L336.08,32.89L339.12,31.98L339.88,31.8L345.96,31.18L346.72,31.16L358.11,30.17L358.87,29.9L363.43,28.09L364.19,74.81L366.47,72.76L367.23,72.32L374.06,69.16L374.82,68.8L375.41,71.93L375.58,68.39L376.31,68.25L376.34,69.25L377.07,67.95L377.1,68.94L377.86,68.62L379.38,68.09L380.14,76.43L386.79,73.91L386.82,72.31L386.86,72.03L386.98,73.74L394.19,44.74L394.57,44.87L394.95,41.95L395.71,42.12L396.09,43.2L397.23,37.43L397.61,41.6L398.75,39.66L399.13,39.05L400.27,38.13L400.65,38.96L401.79,38.42L402.17,38.33L402.93,38.4L403.31,43.02L407.49,41.69L407.87,36.5L408.62,35.76L409,35.39L410.14,33.79L410.52,33.41L413.56,22.43L413.94,16L414.32,16.8L414.7,140.18L415.08,139.22L415.46,142.07L416.22,136.79L416.6,138.99L417.36,136.15L417.74,136.63L418.12,141.25L418.5,146.68L418.88,133.42L419.64,138.09L420.02,157.2L421.16,133.53L421.54,145.44L421.92,148.42L422.3,146.68L422.68,144.02L423.44,134.36L423.82,135.71L424.2,141.84L424.57,146.05L424.96,142.1L425.34,141.74L425.71,151.77L426.09,141.68L426.47,140.84L426.85,148.68L427.61,127.07L428,137.58L428.76,140.49L429.13,138.92L430.65,129.31L431.03,138.25L431.41,134.05L431.79,138.68L432.17,138.81L432.55,131.49L432.93,131.42L433.31,140.05L434.07,132.48L434.45,138.41L435.21,141.46L435.59,128.79L436.35,142.96L436.73,264.58L437.87,293.12L438.25,304L438.63,286.22L439.01,301.52L439.39,291.75L439.77,292.1L440.15,291.07L440.53,294.16L440.91,293.46L441.29,276.02L441.67,283.67L442.05,262.28L442.81,272.54L443.19,248.89L443.95,241.71L444.33,229.6L444.71,224.98L445.09,228.24L445.47,227.36L446.61,215.22L446.99,217.06L447.36,216.4L447.74,227.08L448.13,226.08L448.51,228.38L448.89,228.68L449.26,224.72L449.64,233.57L450.02,224.28L450.78,227.75L451.16,223.07L451.92,226.33L452.3,223.26L452.68,224.52L453.06,234.01L453.44,220.81L453.83,231.91L454.2,224.2L456.48,212.72L456.86,220.76L457.62,220.72L458,223.7L458.38,223.67L458.76,219.37L459.14,223.08L459.52,218.62L459.9,226.76L460.28,225.2L460.66,224.19L461.04,219.51L461.42,225.16L462.56,225.11L462.94,216.49L463.32,225.05L463.7,220.43L464.08,220.57L464.46,218.19L464.84,220.92L465.22,219.84L465.6,227.36L465.98,216.65L466.36,220.1L466.74,220.01L467.49,220.98L467.87,218.78L468.63,223.64L469.01,218.66L469.39,205.85L469.78,215.25L470.15,220.32L470.53,206.18L470.91,206.81L471.29,214.16L471.67,214.11L472.05,206.99L472.82,212.47L473.2,202.23L473.58,199.24L473.96,208.71L474.34,224.84L474.71,215.2L475.09,214.49L475.47,205.74L475.85,219.6L476.61,195.82L476.99,209.77L477.37,208.24L477.75,203.32L478.13,202.05L478.51,205.17L478.89,200.81L479.27,208.16L479.65,206.35L480.03,209.96L480.41,207.44L480.79,196.45L481.17,195.36L481.55,196.45L481.93,201.41L483.07,210.92L483.45,197.09L483.83,197.31L484.21,191.05L484.58,191.24L484.96,196.07L485.35,200.65L485.72,194.37L486.86,210.5L487.24,204.27L488,191.94L488.38,193.62L488.76,197L489.14,205.03L489.52,197.14L489.9,198.57L490.28,192.99L491.42,184.28L491.8,189.51L492.56,194.59L492.94,189.23L493.32,191.91L493.7,189.81L494.08,182.31L494.46,187.7L494.84,187L495.22,183.28L495.6,186.18L495.98,185.69L496.37,181.61L496.75,182.61L497.12,186.54L497.88,187.68L498.26,186.58L498.64,181.49L499.02,187.81L499.78,185.81L500.16,187.22L500.54,189.17L500.92,187L502.06,194.82L502.44,189.57L502.82,183.36L503.2,189.2L503.58,186.45L504.72,187.85L505.1,183.53L506.24,187.65L506.62,184.59L507.38,184.25L507.76,185.71L508.89,187.29L509.28,197.68L509.65,197.68L510.04,195.53L510.41,195.52L510.79,190.33L511.17,190.33L511.55,186.49L513.07,194.95L513.45,194.95L513.83,195.4L514.21,193.58L514.59,193.58L514.97,187.5L515.73,187.5L516.11,190.84L516.49,186.76L516.87,190.68L517.25,186.75L518.39,188.23L518.77,187.2L521.05,183.02L521.43,181.13L522.19,190.9L522.57,187.7L522.95,181.79L523.33,180.91L523.71,182.93L524.09,184.81L524.46,179.55L525.23,190.44L525.61,182.8L525.99,183.07L526.37,174.64L527.5,185.09L527.88,181.21L528.26,181.99L528.64,185.79L529.02,171.39L529.4,177.83L529.78,175.21L530.16,180.5L530.54,179.53L530.92,177.22L532.44,187.84L532.82,182.58L533.2,175.16L533.58,180.33L533.96,178.23L534.72,176.4L535.1,185.95L535.48,175.93L535.86,196.82L537,173.22" style="vector-effect: non-scaling-stroke; fill: none; stroke: rgb(99, 110, 250); stroke-opacity: 1; stroke-width: 2px; opacity: 1;"/></g><g class="points"/><g class="text"/></g></g></g><g class="overplot"/><path class="xlines-above crisp" d="M0,0" style="fill: none;"/><path class="ylines-above crisp" d="M0,0" style="fill: none;"/><g class="overlines-above"/><g class="xaxislayer-above"><g class="xtick"><text text-anchor="middle" x="0" y="433" transform="translate(90.16,0)" style="font-family: 'Open Sans', verdana, arial, sans-serif; font-size: 12px; fill: rgb(42, 63, 95); fill-opacity: 1; white-space: pre;"><tspan class="line" dy="0em" x="0" y="433">Jun 4</tspan><tspan class="line" dy="1.3em" x="0" y="433">2021</tspan></text></g><g class="xtick"><text text-anchor="middle" x="0" y="433" transform="translate(199.54000000000002,0)" style="font-family: 'Open Sans', verdana, arial, sans-serif; font-size: 12px; fill: rgb(42, 63, 95); fill-opacity: 1; white-space: pre;">Jun 6</text></g><g class="xtick"><text text-anchor="middle" x="0" y="433" transform="translate(308.93,0)" style="font-family: 'Open Sans', verdana, arial, sans-serif; font-size: 12px; fill: rgb(42, 63, 95); fill-opacity: 1; white-space: pre;">Jun 8</text></g><g class="xtick"><text text-anchor="middle" x="0" y="433" transform="translate(418.31,0)" style="font-family: 'Open Sans', verdana, arial, sans-serif; font-size: 12px; fill: rgb(42, 63, 95); fill-opacity: 1; white-space: pre;">Jun 10</text></g><g class="xtick"><text text-anchor="middle" x="0" y="433" transform="translate(527.7,0)" style="font-family: 'Open Sans', verdana, arial, sans-serif; font-size: 12px; fill: rgb(42, 63, 95); fill-opacity: 1; white-space: pre;">Jun 12</text></g></g><g class="yaxislayer-above"><g class="ytick"><text text-anchor="end" x="79" y="4.199999999999999" transform="translate(0,367.23)" style="font-family: 'Open Sans', verdana, arial, sans-serif; font-size: 12px; fill: rgb(42, 63, 95); fill-opacity: 1; white-space: pre;">0.8</text></g><g class="ytick"><text text-anchor="end" x="79" y="4.199999999999999" transform="translate(0,308.43)" style="font-family: 'Open Sans', verdana, arial, sans-serif; font-size: 12px; fill: rgb(42, 63, 95); fill-opacity: 1; white-space: pre;">0.82</text></g><g class="ytick"><text text-anchor="end" x="79" y="4.199999999999999" transform="translate(0,249.63)" style="font-family: 'Open Sans', verdana, arial, sans-serif; font-size: 12px; fill: rgb(42, 63, 95); fill-opacity: 1; white-space: pre;">0.84</text></g><g class="ytick"><text text-anchor="end" x="79" y="4.199999999999999" transform="translate(0,190.82999999999998)" style="font-family: 'Open Sans', verdana, arial, sans-serif; font-size: 12px; fill: rgb(42, 63, 95); fill-opacity: 1; white-space: pre;">0.86</text></g><g class="ytick"><text text-anchor="end" x="79" y="4.199999999999999" transform="translate(0,132.03)" style="font-family: 'Open Sans', verdana, arial, sans-serif; font-size: 12px; fill: rgb(42, 63, 95); fill-opacity: 1; white-space: pre;">0.88</text></g></g><g class="overaxes-above"/></g></g><g class="polarlayer"/><g class="ternarylayer"/><g class="geolayer"/><g class="funnelarealayer"/><g class="pielayer"/><g class="treemaplayer"/><g class="sunburstlayer"/><g class="glimages"/><defs id="topdefs-ac1328"><g class="clips"/><clipPath id="legendac1328"><rect width="60" height="45" x="0" y="0"/></clipPath></defs><g class="layer-above"><g class="imagelayer"/><g class="shapelayer"/></g><g class="infolayer"><g class="legend" pointer-events="all" transform="translate(627.74,100)"><rect class="bg" shape-rendering="crispEdges" width="60" height="45" x="0" y="0" style="stroke: rgb(68, 68, 68); stroke-opacity: 1; fill: rgb(255, 255, 255); fill-opacity: 1; stroke-width: 0px;"/><g class="scrollbox" transform="" clip-path="url('#legendac1328')"><text class="legendtitletext" text-anchor="start" x="2" y="15.600000000000001" style="font-family: 'Open Sans', verdana, arial, sans-serif; font-size: 12px; fill: rgb(42, 63, 95); fill-opacity: 1; white-space: pre;">All</text><g class="groups" transform=""><g class="traces" transform="translate(0,30.1)" style="opacity: 1;"><text class="legendtext" text-anchor="start" x="40" y="4.680000000000001" style="font-family: 'Open Sans', verdana, arial, sans-serif; font-size: 12px; fill: rgb(42, 63, 95); fill-opacity: 1; white-space: pre;">All</text><g class="layers" style="opacity: 1;"><g class="legendfill"/><g class="legendlines"><path class="js-line" d="M5,0h30" style="fill: none; stroke: rgb(99, 110, 250); stroke-opacity: 1; stroke-width: 2px;"/></g><g class="legendsymbols"><g class="legendpoints"/></g></g><rect class="legendtoggle" x="0" y="-9.5" width="54.890625" height="19" style="fill: rgb(0, 0, 0); fill-opacity: 0;"/></g></g></g><rect class="scrollbar" rx="20" ry="3" width="0" height="0" x="0" y="0" style="fill: rgb(128, 139, 164); fill-opacity: 1;"/></g><g class="g-gtitle"><text class="gtitle" x="35" y="50" text-anchor="start" dy="0em" style="font-family: 'Open Sans', verdana, arial, sans-serif; font-size: 17px; fill: rgb(42, 63, 95); opacity: 1; font-weight: normal; white-space: pre;">Singapore Vaccination Centers</text></g><g class="g-xtitle"><text class="xtitle" x="348.5" y="476.409375" text-anchor="middle" style="font-family: 'Open Sans', verdana, arial, sans-serif; font-size: 14px; fill: rgb(42, 63, 95); opacity: 1; font-weight: normal; white-space: pre;">Time</text></g><g class="g-ytitle"><text class="ytitle" transform="rotate(-90,27.481250000000003,260)" x="27.481250000000003" y="260" text-anchor="middle" style="font-family: 'Open Sans', verdana, arial, sans-serif; font-size: 14px; fill: rgb(42, 63, 95); opacity: 1; font-weight: normal; white-space: pre;">Filled/%</text></g></g></svg>