<svg class="main-svg" xmlns="http://www.w3.org/2000/svg" xmlns:xlink="http://www.w3.org/1999/xlink" width="700" height="500" style="" viewBox="0 0 700 500"><rect x="0" y="0" width="700" height="500" style="fill: rgb(255, 255, 255); fill-opacity: 1;"/><defs id="defs-75c128"><g class="clips"><clipPath id="clip75c128xyplot" class="plotclip"><rect width="537" height="320"/></clipPath><clipPath class="axesclip" id="clip75c128x"><rect x="80" y="0" width="537" height="500"/></clipPath><clipPath class="axesclip" id="clip75c128y"><rect x="0" y="100" width="700" height="320"/></clipPath><clipPath class="axesclip" id="clip75c128xy"><rect x="80" y="100" width="537" height="320"/></clipPath></g><g class="gradients"/></defs><g class="bglayer"><rect class="bg" x="80" y="100" width="537" height="320" style="fill: rgb(229, 236, 246); fill-opacity: 1; stroke-width: 0;"/></g><g class="layer-below"><g class="imagelayer"/><g class="shapelayer"/></g><g class="cartesianlayer"><g class="subplot xy"><g class="layer-subplot"><g class="shapelayer"/><g class="imagelayer"/></g><g class="gridlayer"><g class="x"><path class="xgrid crisp" transform="translate(83.32,0)" d="M0,100v320" style="stroke: rgb(255, 255, 255); stroke-opacity: 1; stroke-width: 1px;"/><path class="xgrid crisp" transform="translate(211.37,0)" d="M0,100v320" style="stroke: rgb(255, 255, 255); stroke-opacity: 1; stroke-width: 1px;"/><path class="xgrid crisp" transform="translate(339.42,0)" d="M0,100v320" style="stroke: rgb(255, 255, 255); stroke-opacity: 1; stroke-width: 1px;"/><path class="xgrid crisp" transform="translate(467.47,0)" d="M0,100v320" style="stroke: rgb(255, 255, 255); stroke-opacity: 1; stroke-width: 1px;"/><path class="xgrid crisp" transform="translate(595.52,0)" d="M0,100v320" style="stroke: rgb(255, 255, 255); stroke-opacity: 1; stroke-width: 1px;"/></g><g class="y"><path class="ygrid crisp" transform="translate(0,392.55)" d="M80,0h537" style="stroke: rgb(255, 255, 255); stroke-opacity: 1; stroke-width: 1px;"/><path class="ygrid crisp" transform="translate(0,349.77)" d="M80,0h537" style="stroke: rgb(255, 255, 255); stroke-opacity: 1; stroke-width: 1px;"/><path class="ygrid crisp" transform="translate(0,306.99)" d="M80,0h537" style="stroke: rgb(255, 255, 255); stroke-opacity: 1; stroke-width: 1px;"/><path class="ygrid crisp" transform="translate(0,264.21000000000004)" d="M80,0h537" style="stroke: rgb(255, 255, 255); stroke-opacity: 1; stroke-width: 1px;"/><path class="ygrid crisp" transform="translate(0,221.43)" d="M80,0h537" style="stroke: rgb(255, 255, 255); stroke-opacity: 1; stroke-width: 1px;"/><path class="ygrid crisp" transform="translate(0,178.65)" d="M80,0h537" style="stroke: rgb(255, 255, 255); stroke-opacity: 1; stroke-width: 1px;"/><path class="ygrid crisp" transform="translate(0,135.87)" d="M80,0h537" style="stroke: rgb(255, 255, 255); stroke-opacity: 1; stroke-width: 1px;"/></g></g><g class="zerolinelayer"/><path class="xlines-below"/><path class="ylines-below"/><g class="overlines-below"/><g class="xaxislayer-below"/><g class="yaxislayer-below"/><g class="overaxes-below"/><g class="plot" transform="translate(80,100)" clip-path="url('#clip75c128xyplot')"><g class="scatterlayer mlayer"><g class="trace scatter traceffb98e" style="stroke-miterlimit: 2; opacity: 1;"><g class="fills"/><g class="errorbars"/><g class="lines"><path class="js-line" d="M0,304L2.56,302.59L3.45,249.74L4.34,251.04L5.23,249.35L8.79,248.71L9.68,248.32L11.46,249.1L12.35,248.19L14.12,248.58L15.01,248.19L16.79,247.93L17.68,247.67L19.46,247.41L20.35,247.16L27.46,246.77L28.35,246.51L33.69,246.12L34.58,245.73L36.36,245.86L37.24,245.22L39.02,245.09L39.91,244.44L40.8,244.96L41.69,244.57L42.58,243.66L43.47,243.92L44.36,244.57L45.25,243.02L47.91,242.11L48.8,242.63L49.69,242.24L50.58,243.15L51.47,242.24L52.36,240.17L54.14,240.69L55.03,239.78L58.58,237.84L59.47,236.94L61.25,238.23L62.14,237.07L63.03,235L63.92,235.51L64.81,236.55L65.69,235L67.47,232.67L68.37,232.28L70.15,230.6L71.03,231.12L72.81,229.95L73.7,230.21L74.59,231.76L75.48,229.56L78.15,230.6L79.04,230.21L80.82,226.46L81.71,226.07L82.59,226.85L83.48,225.55L84.37,225.68L85.26,227.36L86.15,227.11L87.04,225.55L90.6,221.16L91.48,218.44L92.38,219.09L93.26,217.66L94.16,216.63L95.04,217.4L96.82,217.66L97.71,218.7L101.27,216.5L102.16,216.37L103.94,215.72L104.83,214.69L105.71,214.3L106.6,214.82L108.38,215.98L109.27,214.43L111.94,213.39L112.83,212.88L114.61,212.23L115.5,211.45L118.16,212.23L119.05,211.84L120.83,211.58L121.72,211.84L123.49,210.42L124.39,208.87L126.17,207.7L127.06,206.93L128.83,207.96L129.72,207.44L130.61,207.96L131.5,142.27L134.17,140.18L135.06,140.44L136.84,139.92L137.73,139.01L139.51,139.14L140.4,139.14L143.95,138.48L144.84,138.35L147.51,137.83L148.4,137.96L156.4,137.96L157.29,138.09L163.51,137.83L164.4,137.18L167.07,137.18L167.96,136.14L171.51,136.27L172.41,135.74L174.18,135.88L175.07,135.22L176.85,134.57L177.74,135.22L180.41,132.22L181.29,132.22L182.19,133.27L183.07,132.88L184.85,131.57L185.74,132.22L189.3,128.44L190.19,130.14L193.74,127.14L194.64,128.05L196.41,126.48L197.3,127.66L198.19,128.7L199.08,127.79L199.97,128.83L200.86,128.31L201.75,127.4L202.64,128.44L203.53,127.79L204.41,128.18L207.08,128.83L207.97,128.44L209.77,126.48L210.65,125.05L212.43,124.92L213.32,125.44L214.21,125.96L215.1,124.01L218.66,123.09L219.55,121.4L223.1,121.92L223.99,120.61L224.88,118.4L225.77,119.96L226.66,119.96L227.55,118.79L228.44,119.7L229.33,119.18L231.11,117.35L232,117.48L234.67,114.35L235.55,114.48L237.33,112.14L238.22,112.92L240,110.83L240.89,111.35L243.55,110.7L244.44,108.09L245.33,107.96L246.22,106.92L247.11,105.48L248,105.74L248.89,106L249.78,107.18L250.68,107.83L251.56,107.18L252.46,109.13L253.34,108.35L254.23,108.22L255.11,106.66L256.01,106.27L256.89,106.79L258.67,107.05L259.56,61.25L261.34,59.41L262.23,59.15L264.9,57.57L265.78,57.17L267.56,57.04L268.45,56.78L272.01,55.46L272.9,54.54L274.68,54.28L275.57,54.81L279.13,53.75L280.01,53.62L281.79,53.62L282.68,53.75L296.91,51.78L297.8,52.18L300.46,51.12L301.35,51.25L302.25,51.52L303.13,50.73L308.46,50.07L310.24,49.54L311.13,48.23L312.91,47.83L314.69,47.44L315.58,45.73L316.47,46.91L317.36,45.73L319.14,45.73L320.02,45.07L320.92,44.94L321.8,43.76L324.47,43.49L325.36,41.91L327.14,40.2L328.03,39.42L328.89,38.1L329.77,38.76L332.44,37.71L333.33,36L336.89,35.34L337.78,33.36L338.67,32.71L339.56,33.23L341.33,32.44L342.23,32.05L343.12,31.92L344,30.86L345.78,30.86L346.67,31.39L348.45,32.97L349.34,31.13L351.12,32.31L352.02,30.34L353.79,30.47L354.68,30.86L357.34,29.02L358.24,29.42L360.01,27.71L360.9,26.66L361.79,24.16L362.68,24.68L363.57,23.24L364.46,24.68L366.24,22.84L367.13,22.58L368.01,21.26L368.9,21.66L370.68,21.79L371.57,20.74L372.46,21.26L373.35,19.68L375.13,19.55L376.02,18.5L379.57,18.89L380.46,17.97L381.35,17.45L382.24,17.84L383.13,17.97L384.02,17.05L384.91,16L385.8,16.66L386.69,16.39L387.58,171.81L392.03,171.4L392.92,172.08L395.58,170.99L396.47,170.99L398.25,169.76L399.14,169.76L400.92,168.94L401.8,169.08L416.93,168.39L417.81,167.98L429.36,165.8L430.26,165.12L434.71,164.02L435.6,162.66L439.18,162.38L440.07,163.61L441.85,161.7L442.74,161.57L443.63,160.88L444.52,158.43L445.4,156.51L446.29,156.79L447.19,156.1L448.07,154.33L448.96,154.88L449.85,154.19L451.63,154.33L452.52,153.37L454.3,152.69L455.19,153.65L456.96,152.01L457.86,150.92L458.74,151.87L459.63,150.64L461.41,149.14L462.3,149.14L463.19,148.32L464.08,149.41L465.86,150.37L466.75,149.41L467.64,149.55L468.53,148.73L472.09,145.18L472.98,144.5L475.64,143.54L476.53,145.04L481.87,141.9L482.75,143.68L483.65,121.97L484.54,121.97L487.2,120.88L488.09,116.1L488.98,116.24L489.87,112.28L490.76,112.55L491.65,109.96L492.54,106.95L493.43,107.91L495.2,104.77L496.09,101.22L496.99,98.08L497.87,98.08L498.76,97.53L499.65,95.35L500.54,94.8L501.43,92.07L503.21,89.34L504.1,89.34L505.88,85.93L506.76,85.65L509.43,82.78L510.32,80.19L513.88,77.05L514.77,75L515.66,88.44L516.55,87.48L520.11,84.03L521,84.45L521.89,84.31L522.77,85.14L524.55,84.72L525.44,85.41L527.22,84.59L528.1,84.45L529.89,84.03L530.78,84.03L532.56,84.17L533.45,83.62L537,83.9" style="vector-effect: non-scaling-stroke; fill: none; stroke: rgb(99, 110, 250); stroke-opacity: 1; stroke-width: 2px; opacity: 1;"/></g><g class="points"/><g class="text"/></g></g></g><g class="overplot"/><path class="xlines-above crisp" d="M0,0" style="fill: none;"/><path class="ylines-above crisp" d="M0,0" style="fill: none;"/><g class="overlines-above"/><g class="xaxislayer-above"><g class="xtick"><text text-anchor="middle" x="0" y="433" transform="translate(83.32,0)" style="font-family: 'Open Sans', verdana, arial, sans-serif; font-size: 12px; fill: rgb(42, 63, 95); fill-opacity: 1; white-space: pre;"><tspan class="line" dy="0em" x="0" y="433">Aug 3</tspan><tspan class="line" dy="1.3em" x="0" y="433">2021</tspan></text></g><g class="xtick"><text text-anchor="middle" x="0" y="433" transform="translate(211.37,0)" style="font-family: 'Open Sans', verdana, arial, sans-serif; font-size: 12px; fill: rgb(42, 63, 95); fill-opacity: 1; white-space: pre;">Aug 4</text></g><g class="xtick"><text text-anchor="middle" x="0" y="433" transform="translate(339.42,0)" style="font-family: 'Open Sans', verdana, arial, sans-serif; font-size: 12px; fill: rgb(42, 63, 95); fill-opacity: 1; white-space: pre;">Aug 5</text></g><g class="xtick"><text text-anchor="middle" x="0" y="433" transform="translate(467.47,0)" style="font-family: 'Open Sans', verdana, arial, sans-serif; font-size: 12px; fill: rgb(42, 63, 95); fill-opacity: 1; white-space: pre;">Aug 6</text></g><g class="xtick"><text text-anchor="middle" x="0" y="433" transform="translate(595.52,0)" style="font-family: 'Open Sans', verdana, arial, sans-serif; font-size: 12px; fill: rgb(42, 63, 95); fill-opacity: 1; white-space: pre;">Aug 7</text></g></g><g class="yaxislayer-above"><g class="ytick"><text text-anchor="end" x="79" y="4.199999999999999" transform="translate(0,392.55)" style="font-family: 'Open Sans', verdana, arial, sans-serif; font-size: 12px; fill: rgb(42, 63, 95); fill-opacity: 1; white-space: pre;">0.864</text></g><g class="ytick"><text text-anchor="end" x="79" y="4.199999999999999" transform="translate(0,349.77)" style="font-family: 'Open Sans', verdana, arial, sans-serif; font-size: 12px; fill: rgb(42, 63, 95); fill-opacity: 1; white-space: pre;">0.865</text></g><g class="ytick"><text text-anchor="end" x="79" y="4.199999999999999" transform="translate(0,306.99)" style="font-family: 'Open Sans', verdana, arial, sans-serif; font-size: 12px; fill: rgb(42, 63, 95); fill-opacity: 1; white-space: pre;">0.866</text></g><g class="ytick"><text text-anchor="end" x="79" y="4.199999999999999" transform="translate(0,264.21000000000004)" style="font-family: 'Open Sans', verdana, arial, sans-serif; font-size: 12px; fill: rgb(42, 63, 95); fill-opacity: 1; white-space: pre;">0.867</text></g><g class="ytick"><text text-anchor="end" x="79" y="4.199999999999999" transform="translate(0,221.43)" style="font-family: 'Open Sans', verdana, arial, sans-serif; font-size: 12px; fill: rgb(42, 63, 95); fill-opacity: 1; white-space: pre;">0.868</text></g><g class="ytick"><text text-anchor="end" x="79" y="4.199999999999999" transform="translate(0,178.65)" style="font-family: 'Open Sans', verdana, arial, sans-serif; font-size: 12px; fill: rgb(42, 63, 95); fill-opacity: 1; white-space: pre;">0.869</text></g><g class="ytick"><text text-anchor="end" x="79" y="4.199999999999999" transform="translate(0,135.87)" style="font-family: 'Open Sans', verdana, arial, sans-serif; font-size: 12px; fill: rgb(42, 63, 95); fill-opacity: 1; white-space: pre;">0.87</text></g></g><g class="overaxes-above"/></g></g><g class="polarlayer"/><g class="ternarylayer"/><g class="geolayer"/><g class="funnelarealayer"/><g class="pielayer"/><g class="treemaplayer"/><g class="sunburstlayer"/><g class="glimages"/><defs id="topdefs-75c128"><g class="clips"/><clipPath id="legend75c128"><rect width="60" height="45" x="0" y="0"/></clipPath></defs><g class="layer-above"><g class="imagelayer"/><g class="shapelayer"/></g><g class="infolayer"><g class="legend" pointer-events="all" transform="translate(627.74,100)"><rect class="bg" shape-rendering="crispEdges" width="60" height="45" x="0" y="0" style="stroke: rgb(68, 68, 68); stroke-opacity: 1; fill: rgb(255, 255, 255); fill-opacity: 1; stroke-width: 0px;"/><g class="scrollbox" transform="" clip-path="url('#legend75c128')"><text class="legendtitletext" text-anchor="start" x="2" y="15.600000000000001" style="font-family: 'Open Sans', verdana, arial, sans-serif; font-size: 12px; fill: rgb(42, 63, 95); fill-opacity: 1; white-space: pre;">All</text><g class="groups" transform=""><g class="traces" transform="translate(0,30.1)" style="opacity: 1;"><text class="legendtext" text-anchor="start" x="40" y="4.680000000000001" style="font-family: 'Open Sans', verdana, arial, sans-serif; font-size: 12px; fill: rgb(42, 63, 95); fill-opacity: 1; white-space: pre;">All</text><g class="layers" style="opacity: 1;"><g class="legendfill"/><g class="legendlines"><path class="js-line" d="M5,0h30" style="fill: none; stroke: rgb(99, 110, 250); stroke-opacity: 1; stroke-width: 2px;"/></g><g class="legendsymbols"><g class="legendpoints"/></g></g><rect class="legendtoggle" x="0" y="-9.5" width="54.890625" height="19" style="fill: rgb(0, 0, 0); fill-opacity: 0;"/></g></g></g><rect class="scrollbar" rx="20" ry="3" width="0" height="0" x="0" y="0" style="fill: rgb(128, 139, 164); fill-opacity: 1;"/></g><g class="g-gtitle"><text class="gtitle" x="35" y="50" text-anchor="start" dy="0em" style="font-family: 'Open Sans', verdana, arial, sans-serif; font-size: 17px; fill: rgb(42, 63, 95); opacity: 1; font-weight: normal; white-space: pre;">Singapore Vaccination Centers</text></g><g class="g-xtitle"><text class="xtitle" x="348.5" y="476.409375" text-anchor="middle" style="font-family: 'Open Sans', verdana, arial, sans-serif; font-size: 14px; fill: rgb(42, 63, 95); opacity: 1; font-weight: normal; white-space: pre;">Time</text></g><g class="g-ytitle"><text class="ytitle" transform="rotate(-90,19.840625000000003,260)" x="19.840625000000003" y="260" text-anchor="middle" style="font-family: 'Open Sans', verdana, arial, sans-serif; font-size: 14px; fill: rgb(42, 63, 95); opacity: 1; font-weight: normal; white-space: pre;">Filled/%</text></g></g></svg>