<svg class="main-svg" xmlns="http://www.w3.org/2000/svg" xmlns:xlink="http://www.w3.org/1999/xlink" width="700" height="500" style="" viewBox="0 0 700 500"><rect x="0" y="0" width="700" height="500" style="fill: rgb(255, 255, 255); fill-opacity: 1;"/><defs id="defs-469cd7"><g class="clips"><clipPath id="clip469cd7xyplot" class="plotclip"><rect width="537" height="320"/></clipPath><clipPath class="axesclip" id="clip469cd7x"><rect x="80" y="0" width="537" height="500"/></clipPath><clipPath class="axesclip" id="clip469cd7y"><rect x="0" y="100" width="700" height="320"/></clipPath><clipPath class="axesclip" id="clip469cd7xy"><rect x="80" y="100" width="537" height="320"/></clipPath></g><g class="gradients"/></defs><g class="bglayer"><rect class="bg" x="80" y="100" width="537" height="320" style="fill: rgb(229, 236, 246); fill-opacity: 1; stroke-width: 0;"/></g><g class="layer-below"><g class="imagelayer"/><g class="shapelayer"/></g><g class="cartesianlayer"><g class="subplot xy"><g class="layer-subplot"><g class="shapelayer"/><g class="imagelayer"/></g><g class="gridlayer"><g class="x"><path class="xgrid crisp" transform="translate(84.13,0)" d="M0,100v320" style="stroke: rgb(255, 255, 255); stroke-opacity: 1; stroke-width: 1px;"/><path class="xgrid crisp" transform="translate(163.70999999999998,0)" d="M0,100v320" style="stroke: rgb(255, 255, 255); stroke-opacity: 1; stroke-width: 1px;"/><path class="xgrid crisp" transform="translate(243.29,0)" d="M0,100v320" style="stroke: rgb(255, 255, 255); stroke-opacity: 1; stroke-width: 1px;"/><path class="xgrid crisp" transform="translate(322.87,0)" d="M0,100v320" style="stroke: rgb(255, 255, 255); stroke-opacity: 1; stroke-width: 1px;"/><path class="xgrid crisp" transform="translate(402.45,0)" d="M0,100v320" style="stroke: rgb(255, 255, 255); stroke-opacity: 1; stroke-width: 1px;"/><path class="xgrid crisp" transform="translate(482.03,0)" d="M0,100v320" style="stroke: rgb(255, 255, 255); stroke-opacity: 1; stroke-width: 1px;"/><path class="xgrid crisp" transform="translate(561.61,0)" d="M0,100v320" style="stroke: rgb(255, 255, 255); stroke-opacity: 1; stroke-width: 1px;"/></g><g class="y"><path class="ygrid crisp" transform="translate(0,392.55)" d="M80,0h537" style="stroke: rgb(255, 255, 255); stroke-opacity: 1; stroke-width: 1px;"/><path class="ygrid crisp" transform="translate(0,349.77)" d="M80,0h537" style="stroke: rgb(255, 255, 255); stroke-opacity: 1; stroke-width: 1px;"/><path class="ygrid crisp" transform="translate(0,306.99)" d="M80,0h537" style="stroke: rgb(255, 255, 255); stroke-opacity: 1; stroke-width: 1px;"/><path class="ygrid crisp" transform="translate(0,264.21000000000004)" d="M80,0h537" style="stroke: rgb(255, 255, 255); stroke-opacity: 1; stroke-width: 1px;"/><path class="ygrid crisp" transform="translate(0,221.43)" d="M80,0h537" style="stroke: rgb(255, 255, 255); stroke-opacity: 1; stroke-width: 1px;"/><path class="ygrid crisp" transform="translate(0,178.65)" d="M80,0h537" style="stroke: rgb(255, 255, 255); stroke-opacity: 1; stroke-width: 1px;"/><path class="ygrid crisp" transform="translate(0,135.87)" d="M80,0h537" style="stroke: rgb(255, 255, 255); stroke-opacity: 1; stroke-width: 1px;"/></g></g><g class="zerolinelayer"/><path class="xlines-below"/><path class="ylines-below"/><g class="overlines-below"/><g class="xaxislayer-below"/><g class="yaxislayer-below"/><g class="overaxes-below"/><g class="plot" transform="translate(80,100)" clip-path="url('#clip469cd7xyplot')"><g class="scatterlayer mlayer"><g class="trace scatter trace3d157a" style="stroke-miterlimit: 2; opacity: 1;"><g class="fills"/><g class="errorbars"/><g class="lines"><path class="js-line" d="M0,304L3.19,302.59L4.29,249.74L5.4,251.04L6.5,249.35L10.92,248.71L12.03,248.32L14.24,249.1L15.35,248.19L16.48,248.84L17.56,248.58L21.97,247.67L23.08,247.93L26.4,247.16L27.5,246.9L31.93,247.29L33.03,246.9L38.55,246.77L39.66,246.77L42.98,245.73L44.09,245.99L48.5,245.09L49.6,244.44L50.71,244.96L51.82,244.57L52.92,243.66L54.03,243.92L55.13,244.57L56.24,243.02L59.55,242.11L60.66,242.63L61.76,242.24L62.87,243.15L63.97,242.24L65.08,240.17L67.29,240.69L68.4,239.78L72.82,237.84L73.92,236.94L76.13,238.23L77.24,237.07L78.34,235L79.45,235.51L80.55,236.55L81.65,235L83.87,232.67L84.98,232.28L87.19,230.6L88.29,231.12L90.5,229.95L91.61,230.21L92.71,231.76L93.81,229.56L97.14,230.6L98.24,230.21L100.45,226.46L101.56,226.07L102.66,226.85L103.77,225.55L104.87,225.68L105.97,227.36L107.08,227.11L108.19,225.55L112.61,221.16L113.71,218.44L114.82,219.09L115.92,217.66L117.03,216.63L118.13,217.4L120.34,217.66L121.45,218.7L125.88,216.5L126.98,216.37L129.19,215.72L130.3,214.69L131.4,214.3L132.5,214.82L133.61,215.98L134.71,215.98L136.93,213.78L138.03,213.52L141.35,212.75L142.45,212.23L143.56,211.45L144.66,211.84L150.19,211.58L151.3,211.84L153.5,210.42L154.61,208.87L155.71,207.7L156.82,207.7L157.93,206.93L159.03,207.83L162.34,207.96L163.45,142.27L166.77,140.18L167.88,140.44L170.08,139.92L171.19,139.01L173.4,139.14L174.51,139.14L178.92,138.48L180.03,138.35L183.34,137.83L184.45,137.96L194.39,137.96L195.51,138.09L203.24,137.83L204.35,137.18L207.66,137.18L208.76,136.14L213.18,136.27L214.29,135.74L216.5,135.88L217.6,135.22L219.82,134.57L220.92,135.22L224.24,132.22L225.34,132.22L226.45,133.27L227.55,132.88L229.77,131.57L230.87,132.22L235.29,128.44L236.4,130.14L240.81,127.14L241.93,128.05L244.13,126.48L245.24,127.66L246.34,128.7L247.45,127.79L248.56,128.83L249.66,128.31L250.76,127.4L251.87,128.44L252.97,127.79L254.08,128.18L257.39,128.83L258.5,128.44L260.73,126.48L261.83,125.05L264.04,124.92L265.15,125.44L266.25,125.96L267.36,124.01L271.78,123.09L272.89,121.4L276.21,122.44L277.31,121.92L279.52,118.4L280.63,119.96L281.74,119.96L282.84,118.79L283.94,119.7L285.04,119.18L287.26,117.35L288.36,117.48L291.68,114.35L292.78,114.48L295,112.14L296.1,112.92L298.31,110.83L299.42,111.35L302.73,110.7L303.83,108.09L304.94,107.96L306.04,106.92L307.15,105.48L308.26,105.74L309.36,106L310.47,107.18L311.58,107.83L312.68,107.18L313.79,109.13L314.89,108.35L315.99,108.22L317.1,106.66L318.2,106.27L319.31,106.79L321.52,107.05L322.63,61.25L324.83,59.41L325.94,59.15L329.26,57.57L330.36,57.17L332.57,57.04L333.67,56.78L338.1,55.46L339.2,54.54L341.42,54.28L342.52,54.81L345.84,53.62L346.94,53.75L360.2,52.44L361.31,52.7L365.73,51.78L366.84,52.04L369.04,51.78L370.15,52.18L373.46,51.12L374.56,51.25L375.68,51.52L376.77,50.73L383.41,50.07L385.62,49.54L386.73,48.23L388.93,47.83L391.14,47.44L392.25,45.73L393.36,46.91L394.46,45.73L396.67,45.73L397.78,45.07L398.89,44.94L399.99,43.76L403.3,43.49L404.41,41.91L406.62,40.2L407.73,39.42L408.8,38.1L409.89,38.76L413.21,37.71L414.32,36L418.74,35.34L419.84,33.36L420.95,32.71L422.05,33.23L424.26,32.44L425.37,32.05L426.48,31.92L427.58,30.86L429.79,30.86L430.89,31.39L433.11,32.97L434.22,31.13L436.43,32.31L437.55,30.34L439.75,30.47L440.85,30.86L444.17,29.02L445.27,29.42L447.48,27.71L448.59,26.66L449.69,24.16L450.8,24.68L451.9,23.24L453.01,24.68L454.11,23.1L455.22,22.84L456.32,22.58L457.43,21.26L460.74,21.79L461.84,20.74L462.95,21.26L464.06,19.68L466.27,19.55L467.38,18.5L471.79,18.89L472.9,17.97L474,17.45L475.11,17.84L476.22,17.97L477.32,17.05L478.43,16L479.53,16.66L480.64,16.39L481.75,171.81L487.27,171.4L488.38,172.08L491.69,170.99L492.8,170.99L495.01,169.76L496.11,169.76L498.32,168.94L499.43,169.08L518.22,168.39L519.32,167.98L533.68,165.8L534.79,165.12L537,164.43" style="vector-effect: non-scaling-stroke; fill: none; stroke: rgb(99, 110, 250); stroke-opacity: 1; stroke-width: 2px; opacity: 1;"/></g><g class="points"/><g class="text"/></g></g></g><g class="overplot"/><path class="xlines-above crisp" d="M0,0" style="fill: none;"/><path class="ylines-above crisp" d="M0,0" style="fill: none;"/><g class="overlines-above"/><g class="xaxislayer-above"><g class="xtick"><text text-anchor="middle" x="0" y="433" transform="translate(84.13,0)" style="font-family: 'Open Sans', verdana, arial, sans-serif; font-size: 12px; fill: rgb(42, 63, 95); fill-opacity: 1; white-space: pre;"><tspan class="line" dy="0em" x="0" y="433">00:00</tspan><tspan class="line" dy="1.3em" x="0" y="433">Aug 3, 2021</tspan></text></g><g class="xtick"><text text-anchor="middle" x="0" y="433" transform="translate(163.70999999999998,0)" style="font-family: 'Open Sans', verdana, arial, sans-serif; font-size: 12px; fill: rgb(42, 63, 95); fill-opacity: 1; white-space: pre;">12:00</text></g><g class="xtick"><text text-anchor="middle" x="0" y="433" transform="translate(243.29,0)" style="font-family: 'Open Sans', verdana, arial, sans-serif; font-size: 12px; fill: rgb(42, 63, 95); fill-opacity: 1; white-space: pre;"><tspan class="line" dy="0em" x="0" y="433">00:00</tspan><tspan class="line" dy="1.3em" x="0" y="433">Aug 4, 2021</tspan></text></g><g class="xtick"><text text-anchor="middle" x="0" y="433" transform="translate(322.87,0)" style="font-family: 'Open Sans', verdana, arial, sans-serif; font-size: 12px; fill: rgb(42, 63, 95); fill-opacity: 1; white-space: pre;">12:00</text></g><g class="xtick"><text text-anchor="middle" x="0" y="433" transform="translate(402.45,0)" style="font-family: 'Open Sans', verdana, arial, sans-serif; font-size: 12px; fill: rgb(42, 63, 95); fill-opacity: 1; white-space: pre;"><tspan class="line" dy="0em" x="0" y="433">00:00</tspan><tspan class="line" dy="1.3em" x="0" y="433">Aug 5, 2021</tspan></text></g><g class="xtick"><text text-anchor="middle" x="0" y="433" transform="translate(482.03,0)" style="font-family: 'Open Sans', verdana, arial, sans-serif; font-size: 12px; fill: rgb(42, 63, 95); fill-opacity: 1; white-space: pre;">12:00</text></g><g class="xtick"><text text-anchor="middle" x="0" y="433" transform="translate(561.61,0)" style="font-family: 'Open Sans', verdana, arial, sans-serif; font-size: 12px; fill: rgb(42, 63, 95); fill-opacity: 1; white-space: pre;"><tspan class="line" dy="0em" x="0" y="433">00:00</tspan><tspan class="line" dy="1.3em" x="0" y="433">Aug 6, 2021</tspan></text></g></g><g class="yaxislayer-above"><g class="ytick"><text text-anchor="end" x="79" y="4.199999999999999" transform="translate(0,392.55)" style="font-family: 'Open Sans', verdana, arial, sans-serif; font-size: 12px; fill: rgb(42, 63, 95); fill-opacity: 1; white-space: pre;">0.864</text></g><g class="ytick"><text text-anchor="end" x="79" y="4.199999999999999" transform="translate(0,349.77)" style="font-family: 'Open Sans', verdana, arial, sans-serif; font-size: 12px; fill: rgb(42, 63, 95); fill-opacity: 1; white-space: pre;">0.865</text></g><g class="ytick"><text text-anchor="end" x="79" y="4.199999999999999" transform="translate(0,306.99)" style="font-family: 'Open Sans', verdana, arial, sans-serif; font-size: 12px; fill: rgb(42, 63, 95); fill-opacity: 1; white-space: pre;">0.866</text></g><g class="ytick"><text text-anchor="end" x="79" y="4.199999999999999" transform="translate(0,264.21000000000004)" style="font-family: 'Open Sans', verdana, arial, sans-serif; font-size: 12px; fill: rgb(42, 63, 95); fill-opacity: 1; white-space: pre;">0.867</text></g><g class="ytick"><text text-anchor="end" x="79" y="4.199999999999999" transform="translate(0,221.43)" style="font-family: 'Open Sans', verdana, arial, sans-serif; font-size: 12px; fill: rgb(42, 63, 95); fill-opacity: 1; white-space: pre;">0.868</text></g><g class="ytick"><text text-anchor="end" x="79" y="4.199999999999999" transform="translate(0,178.65)" style="font-family: 'Open Sans', verdana, arial, sans-serif; font-size: 12px; fill: rgb(42, 63, 95); fill-opacity: 1; white-space: pre;">0.869</text></g><g class="ytick"><text text-anchor="end" x="79" y="4.199999999999999" transform="translate(0,135.87)" style="font-family: 'Open Sans', verdana, arial, sans-serif; font-size: 12px; fill: rgb(42, 63, 95); fill-opacity: 1; white-space: pre;">0.87</text></g></g><g class="overaxes-above"/></g></g><g class="polarlayer"/><g class="ternarylayer"/><g class="geolayer"/><g class="funnelarealayer"/><g class="pielayer"/><g class="treemaplayer"/><g class="sunburstlayer"/><g class="glimages"/><defs id="topdefs-469cd7"><g class="clips"/><clipPath id="legend469cd7"><rect width="60" height="45" x="0" y="0"/></clipPath></defs><g class="layer-above"><g class="imagelayer"/><g class="shapelayer"/></g><g class="infolayer"><g class="legend" pointer-events="all" transform="translate(627.74,100)"><rect class="bg" shape-rendering="crispEdges" width="60" height="45" x="0" y="0" style="stroke: rgb(68, 68, 68); stroke-opacity: 1; fill: rgb(255, 255, 255); fill-opacity: 1; stroke-width: 0px;"/><g class="scrollbox" transform="" clip-path="url('#legend469cd7')"><text class="legendtitletext" text-anchor="start" x="2" y="15.600000000000001" style="font-family: 'Open Sans', verdana, arial, sans-serif; font-size: 12px; fill: rgb(42, 63, 95); fill-opacity: 1; white-space: pre;">All</text><g class="groups" transform=""><g class="traces" transform="translate(0,30.1)" style="opacity: 1;"><text class="legendtext" text-anchor="start" x="40" y="4.680000000000001" style="font-family: 'Open Sans', verdana, arial, sans-serif; font-size: 12px; fill: rgb(42, 63, 95); fill-opacity: 1; white-space: pre;">All</text><g class="layers" style="opacity: 1;"><g class="legendfill"/><g class="legendlines"><path class="js-line" d="M5,0h30" style="fill: none; stroke: rgb(99, 110, 250); stroke-opacity: 1; stroke-width: 2px;"/></g><g class="legendsymbols"><g class="legendpoints"/></g></g><rect class="legendtoggle" x="0" y="-9.5" width="54.890625" height="19" style="fill: rgb(0, 0, 0); fill-opacity: 0;"/></g></g></g><rect class="scrollbar" rx="20" ry="3" width="0" height="0" x="0" y="0" style="fill: rgb(128, 139, 164); fill-opacity: 1;"/></g><g class="g-gtitle"><text class="gtitle" x="35" y="50" text-anchor="start" dy="0em" style="font-family: 'Open Sans', verdana, arial, sans-serif; font-size: 17px; fill: rgb(42, 63, 95); opacity: 1; font-weight: normal; white-space: pre;">Singapore Vaccination Centers</text></g><g class="g-xtitle"><text class="xtitle" x="348.5" y="476.409375" text-anchor="middle" style="font-family: 'Open Sans', verdana, arial, sans-serif; font-size: 14px; fill: rgb(42, 63, 95); opacity: 1; font-weight: normal; white-space: pre;">Time</text></g><g class="g-ytitle"><text class="ytitle" transform="rotate(-90,19.840625000000003,260)" x="19.840625000000003" y="260" text-anchor="middle" style="font-family: 'Open Sans', verdana, arial, sans-serif; font-size: 14px; fill: rgb(42, 63, 95); opacity: 1; font-weight: normal; white-space: pre;">Filled/%</text></g></g></svg>