<svg class="main-svg" xmlns="http://www.w3.org/2000/svg" xmlns:xlink="http://www.w3.org/1999/xlink" width="700" height="500" style="" viewBox="0 0 700 500"><rect x="0" y="0" width="700" height="500" style="fill: rgb(255, 255, 255); fill-opacity: 1;"/><defs id="defs-a52251"><g class="clips"><clipPath id="clipa52251xyplot" class="plotclip"><rect width="537" height="320"/></clipPath><clipPath class="axesclip" id="clipa52251x"><rect x="80" y="0" width="537" height="500"/></clipPath><clipPath class="axesclip" id="clipa52251y"><rect x="0" y="100" width="700" height="320"/></clipPath><clipPath class="axesclip" id="clipa52251xy"><rect x="80" y="100" width="537" height="320"/></clipPath></g><g class="gradients"/></defs><g class="bglayer"><rect class="bg" x="80" y="100" width="537" height="320" style="fill: rgb(229, 236, 246); fill-opacity: 1; stroke-width: 0;"/></g><g class="layer-below"><g class="imagelayer"/><g class="shapelayer"/></g><g class="cartesianlayer"><g class="subplot xy"><g class="layer-subplot"><g class="shapelayer"/><g class="imagelayer"/></g><g class="gridlayer"><g class="x"><path class="xgrid crisp" transform="translate(91.05,0)" d="M0,100v320" style="stroke: rgb(255, 255, 255); stroke-opacity: 1; stroke-width: 1px;"/><path class="xgrid crisp" transform="translate(210.03,0)" d="M0,100v320" style="stroke: rgb(255, 255, 255); stroke-opacity: 1; stroke-width: 1px;"/><path class="xgrid crisp" transform="translate(329,0)" d="M0,100v320" style="stroke: rgb(255, 255, 255); stroke-opacity: 1; stroke-width: 1px;"/><path class="xgrid crisp" transform="translate(447.98,0)" d="M0,100v320" style="stroke: rgb(255, 255, 255); stroke-opacity: 1; stroke-width: 1px;"/><path class="xgrid crisp" transform="translate(566.96,0)" d="M0,100v320" style="stroke: rgb(255, 255, 255); stroke-opacity: 1; stroke-width: 1px;"/></g><g class="y"><path class="ygrid crisp" transform="translate(0,367.23)" d="M80,0h537" style="stroke: rgb(255, 255, 255); stroke-opacity: 1; stroke-width: 1px;"/><path class="ygrid crisp" transform="translate(0,308.43)" d="M80,0h537" style="stroke: rgb(255, 255, 255); stroke-opacity: 1; stroke-width: 1px;"/><path class="ygrid crisp" transform="translate(0,249.63)" d="M80,0h537" style="stroke: rgb(255, 255, 255); stroke-opacity: 1; stroke-width: 1px;"/><path class="ygrid crisp" transform="translate(0,190.82999999999998)" d="M80,0h537" style="stroke: rgb(255, 255, 255); stroke-opacity: 1; stroke-width: 1px;"/><path class="ygrid crisp" transform="translate(0,132.03)" d="M80,0h537" style="stroke: rgb(255, 255, 255); stroke-opacity: 1; stroke-width: 1px;"/></g></g><g class="zerolinelayer"/><path class="xlines-below"/><path class="ylines-below"/><g class="overlines-below"/><g class="xaxislayer-below"/><g class="yaxislayer-below"/><g class="overaxes-below"/><g class="plot" transform="translate(80,100)" clip-path="url('#clipa52251xyplot')"><g class="scatterlayer mlayer"><g class="trace scatter trace7ac461" style="stroke-miterlimit: 2; opacity: 1;"><g class="fills"/><g class="errorbars"/><g class="lines"><path class="js-line" d="M0,82.28L6.98,82.51L9.45,120.48L14.38,120.57L16.21,136.92L16.98,136.9L35.23,137.96L36.37,121.23L36.71,129.62L37.54,129.56L39.19,126.37L40.02,126.27L41.67,129.79L42.5,129.7L44.15,132.71L44.97,132.63L46.63,120.69L47.46,120.62L49.1,132.64L49.93,132.55L51.58,126.68L52.41,123.32L54.06,113.21L54.89,109.51L56.54,94.58L57.37,92.89L59.02,74.17L59.84,72.87L61.5,78.78L62.32,77.73L63.98,63.68L64.8,62.82L66.45,65.47L67.28,64.83L68.93,74.27L69.76,73.83L70.85,51.83L71.41,52.53L72.24,52.34L80.5,51.79L81.33,51.79L93.72,50.91L94.54,50.65L123.46,42.03L124.29,41.83L129.25,40.95L130.08,41.79L144.12,41.47L144.95,41.46L157.34,40.8L158.17,40.69L188.74,36.83L189.56,35.53L221.79,34L222.61,33.87L248.23,31.05L249.06,28.56L277.15,27.81L277.98,95.38L287.09,93.57L287.89,93.44L288.72,93.12L289.54,91.51L292.02,88.51L292.85,87.52L296.98,73.59L297.8,72.39L302.76,67.88L303.59,67.37L307.72,65.43L308.55,65.5L314.33,64.8L315.16,64.77L333.33,63.66L334.16,63.48L339.94,61.32L340.77,60.89L341.6,60.46L342.42,62.78L345.73,61.15L346.55,59.94L351.51,53.24L352.34,52.44L355.64,47.98L356.47,45.51L359.77,38.66L360.6,37.65L364.73,33.5L365.56,32.89L368.86,31.98L369.69,31.8L376.3,31.18L377.13,31.16L389.52,30.17L390.34,29.9L395.3,28.09L396.13,74.81L397.78,73.22L398.61,72.76L406.87,69.16L407.7,68.8L408.33,71.93L408.52,68.39L409.31,68.25L409.35,69.25L410.14,67.95L410.18,68.94L411,68.62L412.65,68.09L413.48,76.43L420.71,73.91L420.75,72.31L420.79,72.03L420.92,73.74L428.76,44.74L429.18,44.87L429.59,41.95L430.42,42.12L430.83,43.2L432.07,37.43L432.48,41.6L433.72,39.66L434.14,39.05L435.37,38.13L435.79,38.96L436.2,38.26L436.61,38.53L437.03,38.42L438.27,38.4L438.68,43.02L443.22,41.69L443.64,36.5L444.46,35.76L444.87,35.39L446.11,33.79L446.53,33.41L449.83,22.43L450.24,16L450.66,16.8L451.07,140.18L451.49,139.22L451.9,142.07L452.72,136.79L453.14,138.99L453.97,136.15L454.38,136.63L454.79,141.25L455.2,146.68L455.62,133.42L456.44,138.09L456.86,157.2L458.1,133.53L458.51,145.44L458.92,148.42L459.33,146.68L459.75,144.02L460.57,134.36L460.99,135.71L461.4,141.84L461.81,146.05L462.23,142.1L462.64,141.74L463.05,151.77L463.88,140.84L464.29,148.68L465.12,127.07L465.53,137.58L466.36,140.49L466.77,138.92L467.6,130.34L468.01,131.67L468.42,129.31L468.84,138.25L469.25,134.05L469.66,138.68L470.08,138.81L470.49,131.49L470.9,131.42L471.31,140.05L472.14,132.48L472.56,138.41L473.38,141.46L473.79,128.79L474.62,142.96L475.04,264.58L475.86,292.55L476.28,293.12L476.69,304L477.1,286.22L477.51,301.52L477.93,291.75L478.34,292.1L478.75,291.07L479.17,294.16L479.58,293.46L479.99,276.02L480.41,283.67L480.82,262.28L481.64,272.54L482.06,248.89L482.88,241.71L483.3,229.6L483.71,224.98L484.12,228.24L484.54,227.36L485.77,215.22L486.19,217.06L486.6,216.4L487.01,227.08L487.43,226.08L487.84,228.38L488.25,228.68L488.67,224.72L489.08,233.57L489.49,224.28L490.32,227.75L490.73,223.07L491.56,226.33L491.97,223.26L492.38,224.52L492.8,234.01L493.21,220.81L493.63,231.91L494.86,220.15L495.28,220.86L496.52,212.72L496.93,220.76L497.76,220.72L498.17,223.7L498.58,223.67L498.99,219.37L499.41,223.08L499.82,218.62L500.23,226.76L500.65,225.2L501.06,224.19L501.47,219.51L501.89,225.16L503.12,225.11L503.54,216.49L503.95,225.05L504.37,220.43L504.78,220.57L505.19,218.19L505.6,220.92L506.02,219.84L506.43,227.36L506.84,216.65L507.26,220.1L507.67,220.01L508.5,220.98L508.91,218.78L509.73,223.64L510.15,218.66L510.56,205.85L510.98,215.25L511.39,220.32L511.8,206.18L512.21,206.81L512.63,214.16L513.04,214.11L513.45,206.99L514.29,212.47L514.7,202.23L515.11,199.24L515.52,208.71L515.94,224.84L516.34,215.2L516.76,214.49L517.17,205.74L517.58,219.6L518.41,195.82L518.82,209.77L519.24,208.24L519.65,203.32L520.06,202.05L520.47,205.17L520.89,200.81L521.3,208.16L521.71,206.35L522.13,209.96L522.54,207.44L522.95,196.45L523.37,195.36L523.78,196.45L524.61,209.39L525.02,202.33L525.43,210.92L525.84,197.09L526.26,197.31L526.67,191.05L527.08,191.24L527.5,196.07L527.91,200.65L528.32,194.37L529.56,210.5L529.98,204.27L530.8,191.94L531.22,193.62L531.63,197L532.04,205.03L532.46,197.14L532.87,198.57L533.28,192.99L534.52,184.28L534.93,189.51L535.76,194.59L536.18,189.23L536.59,191.91L537,189.81" style="vector-effect: non-scaling-stroke; fill: none; stroke: rgb(99, 110, 250); stroke-opacity: 1; stroke-width: 2px; opacity: 1;"/></g><g class="points"/><g class="text"/></g></g></g><g class="overplot"/><path class="xlines-above crisp" d="M0,0" style="fill: none;"/><path class="ylines-above crisp" d="M0,0" style="fill: none;"/><g class="overlines-above"/><g class="xaxislayer-above"><g class="xtick"><text text-anchor="middle" x="0" y="433" transform="translate(91.05,0)" style="font-family: 'Open Sans', verdana, arial, sans-serif; font-size: 12px; fill: rgb(42, 63, 95); fill-opacity: 1; white-space: pre;"><tspan class="line" dy="0em" x="0" y="433">Jun 4</tspan><tspan class="line" dy="1.3em" x="0" y="433">2021</tspan></text></g><g class="xtick"><text text-anchor="middle" x="0" y="433" transform="translate(210.03,0)" style="font-family: 'Open Sans', verdana, arial, sans-serif; font-size: 12px; fill: rgb(42, 63, 95); fill-opacity: 1; white-space: pre;">Jun 6</text></g><g class="xtick"><text text-anchor="middle" x="0" y="433" transform="translate(329,0)" style="font-family: 'Open Sans', verdana, arial, sans-serif; font-size: 12px; fill: rgb(42, 63, 95); fill-opacity: 1; white-space: pre;">Jun 8</text></g><g class="xtick"><text text-anchor="middle" x="0" y="433" transform="translate(447.98,0)" style="font-family: 'Open Sans', verdana, arial, sans-serif; font-size: 12px; fill: rgb(42, 63, 95); fill-opacity: 1; white-space: pre;">Jun 10</text></g><g class="xtick"><text text-anchor="middle" x="0" y="433" transform="translate(566.96,0)" style="font-family: 'Open Sans', verdana, arial, sans-serif; font-size: 12px; fill: rgb(42, 63, 95); fill-opacity: 1; white-space: pre;">Jun 12</text></g></g><g class="yaxislayer-above"><g class="ytick"><text text-anchor="end" x="79" y="4.199999999999999" transform="translate(0,367.23)" style="font-family: 'Open Sans', verdana, arial, sans-serif; font-size: 12px; fill: rgb(42, 63, 95); fill-opacity: 1; white-space: pre;">0.8</text></g><g class="ytick"><text text-anchor="end" x="79" y="4.199999999999999" transform="translate(0,308.43)" style="font-family: 'Open Sans', verdana, arial, sans-serif; font-size: 12px; fill: rgb(42, 63, 95); fill-opacity: 1; white-space: pre;">0.82</text></g><g class="ytick"><text text-anchor="end" x="79" y="4.199999999999999" transform="translate(0,249.63)" style="font-family: 'Open Sans', verdana, arial, sans-serif; font-size: 12px; fill: rgb(42, 63, 95); fill-opacity: 1; white-space: pre;">0.84</text></g><g class="ytick"><text text-anchor="end" x="79" y="4.199999999999999" transform="translate(0,190.82999999999998)" style="font-family: 'Open Sans', verdana, arial, sans-serif; font-size: 12px; fill: rgb(42, 63, 95); fill-opacity: 1; white-space: pre;">0.86</text></g><g class="ytick"><text text-anchor="end" x="79" y="4.199999999999999" transform="translate(0,132.03)" style="font-family: 'Open Sans', verdana, arial, sans-serif; font-size: 12px; fill: rgb(42, 63, 95); fill-opacity: 1; white-space: pre;">0.88</text></g></g><g class="overaxes-above"/></g></g><g class="polarlayer"/><g class="ternarylayer"/><g class="geolayer"/><g class="funnelarealayer"/><g class="pielayer"/><g class="treemaplayer"/><g class="sunburstlayer"/><g class="glimages"/><defs id="topdefs-a52251"><g class="clips"/><clipPath id="legenda52251"><rect width="60" height="45" x="0" y="0"/></clipPath></defs><g class="layer-above"><g class="imagelayer"/><g class="shapelayer"/></g><g class="infolayer"><g class="legend" pointer-events="all" transform="translate(627.74,100)"><rect class="bg" shape-rendering="crispEdges" width="60" height="45" x="0" y="0" style="stroke: rgb(68, 68, 68); stroke-opacity: 1; fill: rgb(255, 255, 255); fill-opacity: 1; stroke-width: 0px;"/><g class="scrollbox" transform="" clip-path="url('#legenda52251')"><text class="legendtitletext" text-anchor="start" x="2" y="15.600000000000001" style="font-family: 'Open Sans', verdana, arial, sans-serif; font-size: 12px; fill: rgb(42, 63, 95); fill-opacity: 1; white-space: pre;">All</text><g class="groups" transform=""><g class="traces" transform="translate(0,30.1)" style="opacity: 1;"><text class="legendtext" text-anchor="start" x="40" y="4.680000000000001" style="font-family: 'Open Sans', verdana, arial, sans-serif; font-size: 12px; fill: rgb(42, 63, 95); fill-opacity: 1; white-space: pre;">All</text><g class="layers" style="opacity: 1;"><g class="legendfill"/><g class="legendlines"><path class="js-line" d="M5,0h30" style="fill: none; stroke: rgb(99, 110, 250); stroke-opacity: 1; stroke-width: 2px;"/></g><g class="legendsymbols"><g class="legendpoints"/></g></g><rect class="legendtoggle" x="0" y="-9.5" width="54.890625" height="19" style="fill: rgb(0, 0, 0); fill-opacity: 0;"/></g></g></g><rect class="scrollbar" rx="20" ry="3" width="0" height="0" x="0" y="0" style="fill: rgb(128, 139, 164); fill-opacity: 1;"/></g><g class="g-gtitle"><text class="gtitle" x="35" y="50" text-anchor="start" dy="0em" style="font-family: 'Open Sans', verdana, arial, sans-serif; font-size: 17px; fill: rgb(42, 63, 95); opacity: 1; font-weight: normal; white-space: pre;">Singapore Vaccination Centers</text></g><g class="g-xtitle"><text class="xtitle" x="348.5" y="476.409375" text-anchor="middle" style="font-family: 'Open Sans', verdana, arial, sans-serif; font-size: 14px; fill: rgb(42, 63, 95); opacity: 1; font-weight: normal; white-space: pre;">Time</text></g><g class="g-ytitle"><text class="ytitle" transform="rotate(-90,27.481250000000003,260)" x="27.481250000000003" y="260" text-anchor="middle" style="font-family: 'Open Sans', verdana, arial, sans-serif; font-size: 14px; fill: rgb(42, 63, 95); opacity: 1; font-weight: normal; white-space: pre;">Filled/%</text></g></g></svg>