<svg class="main-svg" xmlns="http://www.w3.org/2000/svg" xmlns:xlink="http://www.w3.org/1999/xlink" width="700" height="500" style="" viewBox="0 0 700 500"><rect x="0" y="0" width="700" height="500" style="fill: rgb(255, 255, 255); fill-opacity: 1;"/><defs id="defs-878f1d"><g class="clips"><clipPath id="clip878f1dxyplot" class="plotclip"><rect width="537" height="320"/></clipPath><clipPath class="axesclip" id="clip878f1dx"><rect x="80" y="0" width="537" height="500"/></clipPath><clipPath class="axesclip" id="clip878f1dy"><rect x="0" y="100" width="700" height="320"/></clipPath><clipPath class="axesclip" id="clip878f1dxy"><rect x="80" y="100" width="537" height="320"/></clipPath></g><g class="gradients"/></defs><g class="bglayer"><rect class="bg" x="80" y="100" width="537" height="320" style="fill: rgb(229, 236, 246); fill-opacity: 1; stroke-width: 0;"/></g><g class="layer-below"><g class="imagelayer"/><g class="shapelayer"/></g><g class="cartesianlayer"><g class="subplot xy"><g class="layer-subplot"><g class="shapelayer"/><g class="imagelayer"/></g><g class="gridlayer"><g class="x"><path class="xgrid crisp" transform="translate(90.27,0)" d="M0,100v320" style="stroke: rgb(255, 255, 255); stroke-opacity: 1; stroke-width: 1px;"/><path class="xgrid crisp" transform="translate(200.91,0)" d="M0,100v320" style="stroke: rgb(255, 255, 255); stroke-opacity: 1; stroke-width: 1px;"/><path class="xgrid crisp" transform="translate(311.55,0)" d="M0,100v320" style="stroke: rgb(255, 255, 255); stroke-opacity: 1; stroke-width: 1px;"/><path class="xgrid crisp" transform="translate(422.18,0)" d="M0,100v320" style="stroke: rgb(255, 255, 255); stroke-opacity: 1; stroke-width: 1px;"/><path class="xgrid crisp" transform="translate(532.8199999999999,0)" d="M0,100v320" style="stroke: rgb(255, 255, 255); stroke-opacity: 1; stroke-width: 1px;"/></g><g class="y"><path class="ygrid crisp" transform="translate(0,367.23)" d="M80,0h537" style="stroke: rgb(255, 255, 255); stroke-opacity: 1; stroke-width: 1px;"/><path class="ygrid crisp" transform="translate(0,308.43)" d="M80,0h537" style="stroke: rgb(255, 255, 255); stroke-opacity: 1; stroke-width: 1px;"/><path class="ygrid crisp" transform="translate(0,249.63)" d="M80,0h537" style="stroke: rgb(255, 255, 255); stroke-opacity: 1; stroke-width: 1px;"/><path class="ygrid crisp" transform="translate(0,190.82999999999998)" d="M80,0h537" style="stroke: rgb(255, 255, 255); stroke-opacity: 1; stroke-width: 1px;"/><path class="ygrid crisp" transform="translate(0,132.03)" d="M80,0h537" style="stroke: rgb(255, 255, 255); stroke-opacity: 1; stroke-width: 1px;"/></g></g><g class="zerolinelayer"/><path class="xlines-below"/><path class="ylines-below"/><g class="overlines-below"/><g class="xaxislayer-below"/><g class="yaxislayer-below"/><g class="overaxes-below"/><g class="plot" transform="translate(80,100)" clip-path="url('#clip878f1dxyplot')"><g class="scatterlayer mlayer"><g class="trace scatter tracea5aad8" style="stroke-miterlimit: 2; opacity: 1;"><g class="fills"/><g class="errorbars"/><g class="lines"><path class="js-line" d="M0,82.28L6.49,82.51L8.79,120.48L13.37,120.57L15.08,136.92L15.79,136.9L32.76,137.96L33.82,121.23L34.14,129.62L34.91,129.56L36.44,126.37L37.21,126.27L38.75,129.79L39.52,129.7L41.05,132.71L41.82,132.63L43.36,120.69L44.13,120.62L45.66,132.64L46.43,132.55L47.97,126.68L50.27,113.21L51.04,109.51L54.88,74.17L55.65,72.87L57.19,78.78L57.95,77.73L60.26,62.82L61.8,65.47L62.56,64.83L64.1,74.27L64.87,73.83L65.88,51.83L67.17,52.34L67.94,52.21L76.39,51.78L77.16,51.77L86.38,51.11L87.15,50.91L113.27,42.44L114.04,42.24L120.19,40.95L120.96,41.79L134.79,41.46L135.55,41.46L147.85,40.58L148.61,40.48L173.2,37.08L173.97,36.99L175.51,36.83L176.27,35.53L206.24,34L207.01,33.87L230.83,31.05L231.6,28.56L257.72,27.81L258.49,95.38L266.96,93.57L267.71,93.44L268.48,93.12L269.24,91.51L271.55,88.51L272.32,87.52L276.16,73.59L276.93,72.39L281.54,67.88L282.31,67.37L286.15,65.43L286.92,65.5L292.29,64.8L293.07,64.77L309.97,63.66L310.73,63.48L316.11,61.32L316.88,60.89L317.65,60.46L318.42,62.78L321.49,61.15L322.26,59.94L326.87,53.24L327.64,52.44L330.71,47.98L331.48,45.51L334.55,38.66L335.32,37.65L339.93,32.89L340.72,32.47L343,31.98L343.77,31.8L349.92,31.18L350.69,31.16L362.21,30.17L362.98,29.9L367.59,28.09L368.36,74.81L370.66,72.76L371.43,72.32L378.35,69.16L379.11,68.8L379.7,71.93L379.88,68.39L380.61,68.25L380.65,69.25L381.38,67.95L381.42,68.94L382.19,68.62L383.73,68.09L384.49,76.43L391.22,73.91L391.25,72.31L391.29,72.03L391.41,73.74L398.71,44.74L399.09,44.87L399.48,41.95L400.24,42.12L400.63,43.2L401.78,37.43L402.16,41.6L403.31,39.66L403.7,39.05L404.85,38.13L405.24,38.96L405.62,38.26L406.01,38.53L406.39,38.42L407.54,38.4L407.93,43.02L412.15,41.69L412.54,36.5L413.3,35.76L413.69,35.39L414.84,33.79L415.22,33.41L418.3,22.43L418.68,16L419.06,16.8L419.45,140.18L419.83,139.22L420.22,142.07L420.99,136.79L421.37,138.99L422.14,136.15L422.52,136.63L422.91,141.25L423.29,146.68L423.68,133.42L424.44,138.09L424.83,157.2L425.98,133.53L426.36,145.44L426.75,148.42L427.13,146.68L427.52,144.02L428.28,134.36L428.67,135.71L429.05,141.84L429.44,146.05L429.82,142.1L430.21,141.74L430.59,151.77L430.97,141.68L431.36,140.84L431.74,148.68L432.51,127.07L432.9,137.58L433.66,140.49L434.05,138.92L434.82,130.34L435.2,131.67L435.58,129.31L435.97,138.25L436.35,134.05L436.74,138.68L437.12,138.81L437.5,131.49L437.89,131.42L438.27,140.05L439.04,132.48L439.43,138.41L440.19,141.46L440.58,128.79L441.35,142.96L441.73,264.58L442.89,293.12L443.27,304L443.66,286.22L444.04,301.52L444.42,291.75L444.8,292.1L445.19,291.07L445.57,294.16L445.96,293.46L446.34,276.02L446.73,283.67L447.11,262.28L447.88,272.54L448.26,248.89L449.03,241.71L449.41,229.6L449.8,224.98L450.18,228.24L450.57,227.36L451.72,215.22L452.1,217.06L452.49,216.4L452.87,227.08L453.26,226.08L453.64,228.38L454.03,228.68L454.41,224.72L454.79,233.57L455.18,224.28L455.95,227.75L456.33,223.07L457.1,226.33L457.48,223.26L457.87,224.52L458.25,234.01L458.63,220.81L459.02,231.91L459.4,224.2L461.71,212.72L462.09,220.76L462.86,220.72L463.24,223.7L463.63,223.67L464.01,219.37L464.4,223.08L464.78,218.62L465.16,226.76L465.55,225.2L465.93,224.19L466.32,219.51L466.7,225.16L467.85,225.11L468.24,216.49L468.62,225.05L469.01,220.43L469.39,220.57L469.77,218.19L470.16,220.92L470.55,219.84L470.93,227.36L471.31,216.65L471.69,220.1L472.08,220.01L472.85,220.98L473.23,218.78L474,223.64L474.38,218.66L474.77,205.85L475.15,215.25L475.54,220.32L475.92,206.18L476.3,206.81L476.69,214.16L477.07,214.11L477.46,206.99L478.23,212.47L478.61,202.23L479,199.24L479.38,208.71L479.77,224.84L480.14,215.2L480.53,214.49L480.92,205.74L481.3,219.6L482.07,195.82L482.45,209.77L482.83,208.24L483.22,203.32L483.6,202.05L483.99,205.17L484.37,200.81L484.76,208.16L485.14,206.35L485.52,209.96L485.91,207.44L486.29,196.45L486.67,195.36L487.06,196.45L487.44,201.41L488.6,210.92L488.98,197.09L489.36,197.31L489.75,191.05L490.13,191.24L490.52,196.07L490.9,200.65L491.29,194.37L492.44,210.5L492.82,204.27L493.59,191.94L493.97,193.62L494.36,197L494.74,205.03L495.13,197.14L495.51,198.57L495.9,192.99L497.05,184.28L497.43,189.51L498.2,194.59L498.59,189.23L498.97,191.91L499.35,189.81L499.74,182.31L500.12,187.7L500.51,187L500.89,183.28L501.27,186.18L501.66,185.69L502.05,181.61L502.43,182.61L502.82,186.54L503.58,187.68L503.96,186.58L504.35,181.49L504.73,187.81L505.5,185.81L505.89,187.22L506.27,189.17L506.66,187L507.81,194.82L508.19,189.57L508.57,183.36L508.96,189.2L509.34,186.45L510.5,187.85L510.88,183.53L512.03,187.65L512.42,184.59L513.18,184.25L513.57,185.71L514.34,187.3L514.72,187.29L515.49,197.68L515.87,195.53L516.26,195.52L516.64,190.33L517.03,190.33L517.41,186.49L518.95,194.95L519.33,194.95L519.71,195.4L520.1,193.58L520.48,193.58L520.87,187.5L521.64,187.5L522.02,190.84L522.4,186.76L522.79,190.68L523.17,186.75L523.56,187.03L523.94,187.03L524.32,188.23L524.71,187.2L525.09,186.53L525.48,186.53L525.86,184.4L526.63,184.18L527.01,183.02L527.4,181.13L527.78,187.27L528.17,190.9L528.55,187.7L528.93,181.79L529.32,180.91L529.7,182.93L530.09,184.81L530.47,179.55L531.24,190.44L531.62,182.8L532.01,183.07L532.39,174.64L533.54,185.09L533.93,181.21L534.31,181.99L534.7,185.79L535.08,171.39L535.46,177.83L535.85,175.21L536.23,180.5L536.62,179.53L537,177.22" style="vector-effect: non-scaling-stroke; fill: none; stroke: rgb(99, 110, 250); stroke-opacity: 1; stroke-width: 2px; opacity: 1;"/></g><g class="points"/><g class="text"/></g></g></g><g class="overplot"/><path class="xlines-above crisp" d="M0,0" style="fill: none;"/><path class="ylines-above crisp" d="M0,0" style="fill: none;"/><g class="overlines-above"/><g class="xaxislayer-above"><g class="xtick"><text text-anchor="middle" x="0" y="433" transform="translate(90.27,0)" style="font-family: 'Open Sans', verdana, arial, sans-serif; font-size: 12px; fill: rgb(42, 63, 95); fill-opacity: 1; white-space: pre;"><tspan class="line" dy="0em" x="0" y="433">Jun 4</tspan><tspan class="line" dy="1.3em" x="0" y="433">2021</tspan></text></g><g class="xtick"><text text-anchor="middle" x="0" y="433" transform="translate(200.91,0)" style="font-family: 'Open Sans', verdana, arial, sans-serif; font-size: 12px; fill: rgb(42, 63, 95); fill-opacity: 1; white-space: pre;">Jun 6</text></g><g class="xtick"><text text-anchor="middle" x="0" y="433" transform="translate(311.55,0)" style="font-family: 'Open Sans', verdana, arial, sans-serif; font-size: 12px; fill: rgb(42, 63, 95); fill-opacity: 1; white-space: pre;">Jun 8</text></g><g class="xtick"><text text-anchor="middle" x="0" y="433" transform="translate(422.18,0)" style="font-family: 'Open Sans', verdana, arial, sans-serif; font-size: 12px; fill: rgb(42, 63, 95); fill-opacity: 1; white-space: pre;">Jun 10</text></g><g class="xtick"><text text-anchor="middle" x="0" y="433" transform="translate(532.8199999999999,0)" style="font-family: 'Open Sans', verdana, arial, sans-serif; font-size: 12px; fill: rgb(42, 63, 95); fill-opacity: 1; white-space: pre;">Jun 12</text></g></g><g class="yaxislayer-above"><g class="ytick"><text text-anchor="end" x="79" y="4.199999999999999" transform="translate(0,367.23)" style="font-family: 'Open Sans', verdana, arial, sans-serif; font-size: 12px; fill: rgb(42, 63, 95); fill-opacity: 1; white-space: pre;">0.8</text></g><g class="ytick"><text text-anchor="end" x="79" y="4.199999999999999" transform="translate(0,308.43)" style="font-family: 'Open Sans', verdana, arial, sans-serif; font-size: 12px; fill: rgb(42, 63, 95); fill-opacity: 1; white-space: pre;">0.82</text></g><g class="ytick"><text text-anchor="end" x="79" y="4.199999999999999" transform="translate(0,249.63)" style="font-family: 'Open Sans', verdana, arial, sans-serif; font-size: 12px; fill: rgb(42, 63, 95); fill-opacity: 1; white-space: pre;">0.84</text></g><g class="ytick"><text text-anchor="end" x="79" y="4.199999999999999" transform="translate(0,190.82999999999998)" style="font-family: 'Open Sans', verdana, arial, sans-serif; font-size: 12px; fill: rgb(42, 63, 95); fill-opacity: 1; white-space: pre;">0.86</text></g><g class="ytick"><text text-anchor="end" x="79" y="4.199999999999999" transform="translate(0,132.03)" style="font-family: 'Open Sans', verdana, arial, sans-serif; font-size: 12px; fill: rgb(42, 63, 95); fill-opacity: 1; white-space: pre;">0.88</text></g></g><g class="overaxes-above"/></g></g><g class="polarlayer"/><g class="ternarylayer"/><g class="geolayer"/><g class="funnelarealayer"/><g class="pielayer"/><g class="treemaplayer"/><g class="sunburstlayer"/><g class="glimages"/><defs id="topdefs-878f1d"><g class="clips"/><clipPath id="legend878f1d"><rect width="60" height="45" x="0" y="0"/></clipPath></defs><g class="layer-above"><g class="imagelayer"/><g class="shapelayer"/></g><g class="infolayer"><g class="legend" pointer-events="all" transform="translate(627.74,100)"><rect class="bg" shape-rendering="crispEdges" width="60" height="45" x="0" y="0" style="stroke: rgb(68, 68, 68); stroke-opacity: 1; fill: rgb(255, 255, 255); fill-opacity: 1; stroke-width: 0px;"/><g class="scrollbox" transform="" clip-path="url('#legend878f1d')"><text class="legendtitletext" text-anchor="start" x="2" y="15.600000000000001" style="font-family: 'Open Sans', verdana, arial, sans-serif; font-size: 12px; fill: rgb(42, 63, 95); fill-opacity: 1; white-space: pre;">All</text><g class="groups" transform=""><g class="traces" transform="translate(0,30.1)" style="opacity: 1;"><text class="legendtext" text-anchor="start" x="40" y="4.680000000000001" style="font-family: 'Open Sans', verdana, arial, sans-serif; font-size: 12px; fill: rgb(42, 63, 95); fill-opacity: 1; white-space: pre;">All</text><g class="layers" style="opacity: 1;"><g class="legendfill"/><g class="legendlines"><path class="js-line" d="M5,0h30" style="fill: none; stroke: rgb(99, 110, 250); stroke-opacity: 1; stroke-width: 2px;"/></g><g class="legendsymbols"><g class="legendpoints"/></g></g><rect class="legendtoggle" x="0" y="-9.5" width="54.890625" height="19" style="fill: rgb(0, 0, 0); fill-opacity: 0;"/></g></g></g><rect class="scrollbar" rx="20" ry="3" width="0" height="0" x="0" y="0" style="fill: rgb(128, 139, 164); fill-opacity: 1;"/></g><g class="g-gtitle"><text class="gtitle" x="35" y="50" text-anchor="start" dy="0em" style="font-family: 'Open Sans', verdana, arial, sans-serif; font-size: 17px; fill: rgb(42, 63, 95); opacity: 1; font-weight: normal; white-space: pre;">Singapore Vaccination Centers</text></g><g class="g-xtitle"><text class="xtitle" x="348.5" y="476.409375" text-anchor="middle" style="font-family: 'Open Sans', verdana, arial, sans-serif; font-size: 14px; fill: rgb(42, 63, 95); opacity: 1; font-weight: normal; white-space: pre;">Time</text></g><g class="g-ytitle"><text class="ytitle" transform="rotate(-90,27.481250000000003,260)" x="27.481250000000003" y="260" text-anchor="middle" style="font-family: 'Open Sans', verdana, arial, sans-serif; font-size: 14px; fill: rgb(42, 63, 95); opacity: 1; font-weight: normal; white-space: pre;">Filled/%</text></g></g></svg>