<svg class="main-svg" xmlns="http://www.w3.org/2000/svg" xmlns:xlink="http://www.w3.org/1999/xlink" width="700" height="500" style="" viewBox="0 0 700 500"><rect x="0" y="0" width="700" height="500" style="fill: rgb(255, 255, 255); fill-opacity: 1;"/><defs id="defs-ca5609"><g class="clips"><clipPath id="clipca5609xyplot" class="plotclip"><rect width="537" height="320"/></clipPath><clipPath class="axesclip" id="clipca5609x"><rect x="80" y="0" width="537" height="500"/></clipPath><clipPath class="axesclip" id="clipca5609y"><rect x="0" y="100" width="700" height="320"/></clipPath><clipPath class="axesclip" id="clipca5609xy"><rect x="80" y="100" width="537" height="320"/></clipPath></g><g class="gradients"/></defs><g class="bglayer"><rect class="bg" x="80" y="100" width="537" height="320" style="fill: rgb(229, 236, 246); fill-opacity: 1; stroke-width: 0;"/></g><g class="layer-below"><g class="imagelayer"/><g class="shapelayer"/></g><g class="cartesianlayer"><g class="subplot xy"><g class="layer-subplot"><g class="shapelayer"/><g class="imagelayer"/></g><g class="gridlayer"><g class="x"><path class="xgrid crisp" transform="translate(90.44,0)" d="M0,100v320" style="stroke: rgb(255, 255, 255); stroke-opacity: 1; stroke-width: 1px;"/><path class="xgrid crisp" transform="translate(202.93,0)" d="M0,100v320" style="stroke: rgb(255, 255, 255); stroke-opacity: 1; stroke-width: 1px;"/><path class="xgrid crisp" transform="translate(315.41999999999996,0)" d="M0,100v320" style="stroke: rgb(255, 255, 255); stroke-opacity: 1; stroke-width: 1px;"/><path class="xgrid crisp" transform="translate(427.91,0)" d="M0,100v320" style="stroke: rgb(255, 255, 255); stroke-opacity: 1; stroke-width: 1px;"/><path class="xgrid crisp" transform="translate(540.4,0)" d="M0,100v320" style="stroke: rgb(255, 255, 255); stroke-opacity: 1; stroke-width: 1px;"/></g><g class="y"><path class="ygrid crisp" transform="translate(0,367.23)" d="M80,0h537" style="stroke: rgb(255, 255, 255); stroke-opacity: 1; stroke-width: 1px;"/><path class="ygrid crisp" transform="translate(0,308.43)" d="M80,0h537" style="stroke: rgb(255, 255, 255); stroke-opacity: 1; stroke-width: 1px;"/><path class="ygrid crisp" transform="translate(0,249.63)" d="M80,0h537" style="stroke: rgb(255, 255, 255); stroke-opacity: 1; stroke-width: 1px;"/><path class="ygrid crisp" transform="translate(0,190.82999999999998)" d="M80,0h537" style="stroke: rgb(255, 255, 255); stroke-opacity: 1; stroke-width: 1px;"/><path class="ygrid crisp" transform="translate(0,132.03)" d="M80,0h537" style="stroke: rgb(255, 255, 255); stroke-opacity: 1; stroke-width: 1px;"/></g></g><g class="zerolinelayer"/><path class="xlines-below"/><path class="ylines-below"/><g class="overlines-below"/><g class="xaxislayer-below"/><g class="yaxislayer-below"/><g class="overaxes-below"/><g class="plot" transform="translate(80,100)" clip-path="url('#clipca5609xyplot')"><g class="scatterlayer mlayer"><g class="trace scatter tracedf102f" style="stroke-miterlimit: 2; opacity: 1;"><g class="fills"/><g class="errorbars"/><g class="lines"><path class="js-line" d="M0,82.28L6.6,82.51L8.94,120.48L13.6,120.57L15.33,136.92L16.06,136.9L33.31,137.96L34.38,121.23L34.71,129.62L35.49,129.56L37.05,126.37L37.84,126.27L39.4,129.79L40.18,129.7L41.74,132.71L42.52,132.63L44.08,120.69L44.87,120.62L46.43,132.64L47.21,132.55L48.77,126.68L49.55,123.32L51.11,113.21L51.9,109.51L53.46,94.58L54.24,92.89L55.8,74.17L56.58,72.87L58.14,78.78L58.92,77.73L60.49,63.68L61.27,62.82L62.83,65.47L63.61,64.83L65.17,74.27L65.95,73.83L66.99,51.83L68.3,52.34L69.08,52.21L77.67,51.78L78.45,51.77L87.83,51.11L88.61,50.91L114.39,42.67L115.17,42.44L122.2,40.95L122.98,41.79L137.04,41.46L137.82,41.46L150.32,40.58L151.1,40.48L175.32,37.17L176.1,37.08L178.44,36.83L179.22,35.53L209.69,34L210.47,33.87L234.69,31.05L235.47,28.56L262.03,27.81L262.81,95.38L271.43,93.57L272.19,93.44L272.97,93.12L273.75,91.51L276.09,88.51L276.87,87.52L280.78,73.59L281.56,72.39L286.25,67.88L287.03,67.37L290.93,65.43L291.71,65.5L297.18,64.8L297.97,64.77L315.15,63.66L315.93,63.48L321.4,61.32L322.18,60.89L322.96,60.46L323.74,62.78L326.87,61.15L327.65,59.94L332.33,53.24L333.12,52.44L336.24,47.98L337.02,45.51L340.15,38.66L340.93,37.65L344.83,33.5L345.61,32.89L348.74,31.98L349.52,31.8L355.77,31.18L356.55,31.16L368.27,30.17L369.05,29.9L373.74,28.09L374.52,74.81L376.08,73.22L376.86,72.76L384.67,69.16L385.46,68.8L386.05,71.93L386.24,68.39L386.98,68.25L387.02,69.25L387.76,67.95L387.8,68.94L388.58,68.62L390.14,68.09L390.92,76.43L397.76,73.91L397.79,72.31L397.83,72.03L397.95,73.74L405.37,44.74L405.76,44.87L406.16,41.95L406.94,42.12L407.33,43.2L408.5,37.43L408.89,41.6L410.06,39.66L410.45,39.05L411.62,38.13L412.02,38.96L412.41,38.26L412.8,38.53L413.19,38.42L414.36,38.4L414.75,43.02L419.05,41.69L419.44,36.5L420.22,35.76L420.61,35.39L421.78,33.79L422.17,33.41L425.29,22.43L425.68,16L426.07,16.8L426.47,140.18L426.86,139.22L427.25,142.07L428.03,136.79L428.42,138.99L429.2,136.15L429.59,136.63L429.98,141.25L430.37,146.68L430.76,133.42L431.54,138.09L431.93,157.2L433.11,133.53L433.5,145.44L433.89,148.42L434.28,146.68L434.67,144.02L435.45,134.36L435.84,135.71L436.23,141.84L436.62,146.05L437.01,142.1L437.4,141.74L437.79,151.77L438.57,140.84L438.96,148.68L439.74,127.07L440.14,137.58L440.92,140.49L441.31,138.92L442.09,130.34L442.48,131.67L442.87,129.31L443.26,138.25L443.65,134.05L444.04,138.68L444.43,138.81L444.82,131.49L445.21,131.42L445.6,140.05L446.38,132.48L446.78,138.41L447.56,141.46L447.95,128.79L448.73,142.96L449.12,264.58L450.29,293.12L450.68,304L451.08,286.22L451.46,301.52L451.85,291.75L452.24,292.1L452.63,291.07L453.03,294.16L453.42,293.46L453.81,276.02L454.2,283.67L454.59,262.28L455.37,272.54L455.76,248.89L456.54,241.71L456.93,229.6L457.32,224.98L457.71,228.24L458.1,227.36L459.27,215.22L459.66,217.06L460.05,216.4L460.45,227.08L460.84,226.08L461.23,228.38L461.62,228.68L462.01,224.72L462.4,233.57L462.79,224.28L463.57,227.75L463.96,223.07L464.74,226.33L465.14,223.26L465.52,224.52L465.92,234.01L466.3,220.81L466.7,231.91L467.09,224.2L469.43,212.72L469.82,220.76L470.6,220.72L470.99,223.7L471.38,223.67L471.77,219.37L472.16,223.08L472.55,218.62L472.94,226.76L473.34,225.2L473.73,224.19L474.12,219.51L474.51,225.16L475.68,225.11L476.07,216.49L476.46,225.05L476.85,220.43L477.24,220.57L477.63,218.19L478.02,220.92L478.42,219.84L478.8,227.36L479.19,216.65L479.58,220.1L479.98,220.01L480.76,220.98L481.15,218.78L481.93,223.64L482.32,218.66L482.71,205.85L483.1,215.25L483.49,220.32L483.88,206.18L484.27,206.81L484.66,214.16L485.05,214.11L485.44,206.99L486.23,212.47L486.62,202.23L487.01,199.24L487.4,208.71L487.79,224.84L488.18,215.2L488.57,214.49L488.96,205.74L489.35,219.6L490.13,195.82L490.52,209.77L490.91,208.24L491.3,203.32L491.69,202.05L492.08,205.17L492.47,200.81L492.86,208.16L493.25,206.35L493.65,209.96L494.04,207.44L494.42,196.45L494.82,195.36L495.21,196.45L495.6,201.41L496.77,210.92L497.16,197.09L497.55,197.31L497.94,191.05L498.33,191.24L498.72,196.07L499.11,200.65L499.5,194.37L500.68,210.5L501.06,204.27L501.85,191.94L502.24,193.62L502.63,197L503.02,205.03L503.41,197.14L503.8,198.57L504.19,192.99L505.36,184.28L505.75,189.51L506.53,194.59L506.93,189.23L507.32,191.91L507.71,189.81L508.1,182.31L508.49,187.7L508.88,187L509.27,183.28L509.66,186.18L510.05,185.69L510.45,181.61L510.84,182.61L511.23,186.54L512,187.68L512.39,186.58L512.78,181.49L513.17,187.81L513.96,185.81L514.35,187.22L514.74,189.17L515.13,187L516.31,194.82L516.69,189.57L517.08,183.36L517.47,189.2L517.86,186.45L518.25,187.34L518.64,187.88L519.04,187.85L519.42,183.53L520.6,187.65L520.99,184.59L521.77,184.25L522.16,185.71L522.94,187.3L523.33,187.29L524.11,197.68L524.5,195.53L524.89,195.52L525.28,190.33L525.67,190.33L526.07,186.49L527.63,194.95L528.02,194.95L528.41,195.4L528.8,193.58L529.19,193.58L529.58,187.5L530.36,187.5L530.75,190.84L531.14,186.76L531.53,190.68L531.92,186.75L532.31,187.03L532.7,187.03L533.09,188.23L533.49,187.2L533.87,186.53L534.27,186.53L534.66,184.4L535.44,184.18L535.83,183.02L536.22,181.13L536.61,187.27L537,190.9" style="vector-effect: non-scaling-stroke; fill: none; stroke: rgb(99, 110, 250); stroke-opacity: 1; stroke-width: 2px; opacity: 1;"/></g><g class="points"/><g class="text"/></g></g></g><g class="overplot"/><path class="xlines-above crisp" d="M0,0" style="fill: none;"/><path class="ylines-above crisp" d="M0,0" style="fill: none;"/><g class="overlines-above"/><g class="xaxislayer-above"><g class="xtick"><text text-anchor="middle" x="0" y="433" transform="translate(90.44,0)" style="font-family: 'Open Sans', verdana, arial, sans-serif; font-size: 12px; fill: rgb(42, 63, 95); fill-opacity: 1; white-space: pre;"><tspan class="line" dy="0em" x="0" y="433">Jun 4</tspan><tspan class="line" dy="1.3em" x="0" y="433">2021</tspan></text></g><g class="xtick"><text text-anchor="middle" x="0" y="433" transform="translate(202.93,0)" style="font-family: 'Open Sans', verdana, arial, sans-serif; font-size: 12px; fill: rgb(42, 63, 95); fill-opacity: 1; white-space: pre;">Jun 6</text></g><g class="xtick"><text text-anchor="middle" x="0" y="433" transform="translate(315.41999999999996,0)" style="font-family: 'Open Sans', verdana, arial, sans-serif; font-size: 12px; fill: rgb(42, 63, 95); fill-opacity: 1; white-space: pre;">Jun 8</text></g><g class="xtick"><text text-anchor="middle" x="0" y="433" transform="translate(427.91,0)" style="font-family: 'Open Sans', verdana, arial, sans-serif; font-size: 12px; fill: rgb(42, 63, 95); fill-opacity: 1; white-space: pre;">Jun 10</text></g><g class="xtick"><text text-anchor="middle" x="0" y="433" transform="translate(540.4,0)" style="font-family: 'Open Sans', verdana, arial, sans-serif; font-size: 12px; fill: rgb(42, 63, 95); fill-opacity: 1; white-space: pre;">Jun 12</text></g></g><g class="yaxislayer-above"><g class="ytick"><text text-anchor="end" x="79" y="4.199999999999999" transform="translate(0,367.23)" style="font-family: 'Open Sans', verdana, arial, sans-serif; font-size: 12px; fill: rgb(42, 63, 95); fill-opacity: 1; white-space: pre;">0.8</text></g><g class="ytick"><text text-anchor="end" x="79" y="4.199999999999999" transform="translate(0,308.43)" style="font-family: 'Open Sans', verdana, arial, sans-serif; font-size: 12px; fill: rgb(42, 63, 95); fill-opacity: 1; white-space: pre;">0.82</text></g><g class="ytick"><text text-anchor="end" x="79" y="4.199999999999999" transform="translate(0,249.63)" style="font-family: 'Open Sans', verdana, arial, sans-serif; font-size: 12px; fill: rgb(42, 63, 95); fill-opacity: 1; white-space: pre;">0.84</text></g><g class="ytick"><text text-anchor="end" x="79" y="4.199999999999999" transform="translate(0,190.82999999999998)" style="font-family: 'Open Sans', verdana, arial, sans-serif; font-size: 12px; fill: rgb(42, 63, 95); fill-opacity: 1; white-space: pre;">0.86</text></g><g class="ytick"><text text-anchor="end" x="79" y="4.199999999999999" transform="translate(0,132.03)" style="font-family: 'Open Sans', verdana, arial, sans-serif; font-size: 12px; fill: rgb(42, 63, 95); fill-opacity: 1; white-space: pre;">0.88</text></g></g><g class="overaxes-above"/></g></g><g class="polarlayer"/><g class="ternarylayer"/><g class="geolayer"/><g class="funnelarealayer"/><g class="pielayer"/><g class="treemaplayer"/><g class="sunburstlayer"/><g class="glimages"/><defs id="topdefs-ca5609"><g class="clips"/><clipPath id="legendca5609"><rect width="60" height="45" x="0" y="0"/></clipPath></defs><g class="layer-above"><g class="imagelayer"/><g class="shapelayer"/></g><g class="infolayer"><g class="legend" pointer-events="all" transform="translate(627.74,100)"><rect class="bg" shape-rendering="crispEdges" width="60" height="45" x="0" y="0" style="stroke: rgb(68, 68, 68); stroke-opacity: 1; fill: rgb(255, 255, 255); fill-opacity: 1; stroke-width: 0px;"/><g class="scrollbox" transform="" clip-path="url('#legendca5609')"><text class="legendtitletext" text-anchor="start" x="2" y="15.600000000000001" style="font-family: 'Open Sans', verdana, arial, sans-serif; font-size: 12px; fill: rgb(42, 63, 95); fill-opacity: 1; white-space: pre;">All</text><g class="groups" transform=""><g class="traces" transform="translate(0,30.1)" style="opacity: 1;"><text class="legendtext" text-anchor="start" x="40" y="4.680000000000001" style="font-family: 'Open Sans', verdana, arial, sans-serif; font-size: 12px; fill: rgb(42, 63, 95); fill-opacity: 1; white-space: pre;">All</text><g class="layers" style="opacity: 1;"><g class="legendfill"/><g class="legendlines"><path class="js-line" d="M5,0h30" style="fill: none; stroke: rgb(99, 110, 250); stroke-opacity: 1; stroke-width: 2px;"/></g><g class="legendsymbols"><g class="legendpoints"/></g></g><rect class="legendtoggle" x="0" y="-9.5" width="54.890625" height="19" style="fill: rgb(0, 0, 0); fill-opacity: 0;"/></g></g></g><rect class="scrollbar" rx="20" ry="3" width="0" height="0" x="0" y="0" style="fill: rgb(128, 139, 164); fill-opacity: 1;"/></g><g class="g-gtitle"><text class="gtitle" x="35" y="50" text-anchor="start" dy="0em" style="font-family: 'Open Sans', verdana, arial, sans-serif; font-size: 17px; fill: rgb(42, 63, 95); opacity: 1; font-weight: normal; white-space: pre;">Singapore Vaccination Centers</text></g><g class="g-xtitle"><text class="xtitle" x="348.5" y="476.409375" text-anchor="middle" style="font-family: 'Open Sans', verdana, arial, sans-serif; font-size: 14px; fill: rgb(42, 63, 95); opacity: 1; font-weight: normal; white-space: pre;">Time</text></g><g class="g-ytitle"><text class="ytitle" transform="rotate(-90,27.481250000000003,260)" x="27.481250000000003" y="260" text-anchor="middle" style="font-family: 'Open Sans', verdana, arial, sans-serif; font-size: 14px; fill: rgb(42, 63, 95); opacity: 1; font-weight: normal; white-space: pre;">Filled/%</text></g></g></svg>