<svg class="main-svg" xmlns="http://www.w3.org/2000/svg" xmlns:xlink="http://www.w3.org/1999/xlink" width="700" height="500" style="" viewBox="0 0 700 500"><rect x="0" y="0" width="700" height="500" style="fill: rgb(255, 255, 255); fill-opacity: 1;"/><defs id="defs-b9030b"><g class="clips"><clipPath id="clipb9030bxyplot" class="plotclip"><rect width="537" height="320"/></clipPath><clipPath class="axesclip" id="clipb9030bx"><rect x="80" y="0" width="537" height="500"/></clipPath><clipPath class="axesclip" id="clipb9030by"><rect x="0" y="100" width="700" height="320"/></clipPath><clipPath class="axesclip" id="clipb9030bxy"><rect x="80" y="100" width="537" height="320"/></clipPath></g><g class="gradients"/></defs><g class="bglayer"><rect class="bg" x="80" y="100" width="537" height="320" style="fill: rgb(229, 236, 246); fill-opacity: 1; stroke-width: 0;"/></g><g class="layer-below"><g class="imagelayer"/><g class="shapelayer"/></g><g class="cartesianlayer"><g class="subplot xy"><g class="layer-subplot"><g class="shapelayer"/><g class="imagelayer"/></g><g class="gridlayer"><g class="x"><path class="xgrid crisp" transform="translate(85.13,0)" d="M0,100v320" style="stroke: rgb(255, 255, 255); stroke-opacity: 1; stroke-width: 1px;"/><path class="xgrid crisp" transform="translate(184.06,0)" d="M0,100v320" style="stroke: rgb(255, 255, 255); stroke-opacity: 1; stroke-width: 1px;"/><path class="xgrid crisp" transform="translate(282.98,0)" d="M0,100v320" style="stroke: rgb(255, 255, 255); stroke-opacity: 1; stroke-width: 1px;"/><path class="xgrid crisp" transform="translate(381.9,0)" d="M0,100v320" style="stroke: rgb(255, 255, 255); stroke-opacity: 1; stroke-width: 1px;"/><path class="xgrid crisp" transform="translate(480.82,0)" d="M0,100v320" style="stroke: rgb(255, 255, 255); stroke-opacity: 1; stroke-width: 1px;"/><path class="xgrid crisp" transform="translate(579.75,0)" d="M0,100v320" style="stroke: rgb(255, 255, 255); stroke-opacity: 1; stroke-width: 1px;"/></g><g class="y"><path class="ygrid crisp" transform="translate(0,391.94)" d="M80,0h537" style="stroke: rgb(255, 255, 255); stroke-opacity: 1; stroke-width: 1px;"/><path class="ygrid crisp" transform="translate(0,346.87)" d="M80,0h537" style="stroke: rgb(255, 255, 255); stroke-opacity: 1; stroke-width: 1px;"/><path class="ygrid crisp" transform="translate(0,301.81)" d="M80,0h537" style="stroke: rgb(255, 255, 255); stroke-opacity: 1; stroke-width: 1px;"/><path class="ygrid crisp" transform="translate(0,256.74)" d="M80,0h537" style="stroke: rgb(255, 255, 255); stroke-opacity: 1; stroke-width: 1px;"/><path class="ygrid crisp" transform="translate(0,211.68)" d="M80,0h537" style="stroke: rgb(255, 255, 255); stroke-opacity: 1; stroke-width: 1px;"/><path class="ygrid crisp" transform="translate(0,166.61)" d="M80,0h537" style="stroke: rgb(255, 255, 255); stroke-opacity: 1; stroke-width: 1px;"/><path class="ygrid crisp" transform="translate(0,121.55)" d="M80,0h537" style="stroke: rgb(255, 255, 255); stroke-opacity: 1; stroke-width: 1px;"/></g></g><g class="zerolinelayer"/><path class="xlines-below"/><path class="ylines-below"/><g class="overlines-below"/><g class="xaxislayer-below"/><g class="yaxislayer-below"/><g class="overaxes-below"/><g class="plot" transform="translate(80,100)" clip-path="url('#clipb9030bxyplot')"><g class="scatterlayer mlayer"><g class="trace scatter tracec818c6" style="stroke-miterlimit: 2; opacity: 1;"><g class="fills"/><g class="errorbars"/><g class="lines"><path class="js-line" d="M0,304L3.96,302.51L5.34,246.85L6.71,248.21L8.09,246.44L13.58,245.76L14.95,245.35L17.7,246.16L19.08,245.21L20.48,245.89L21.82,245.62L27.32,244.66L28.7,244.94L31.44,244.12L32.82,244.12L35.56,244.12L36.93,244.12L41.06,243.85L42.44,243.71L46.55,243.57L47.92,243.71L52.05,243.03L53.42,242.62L56.17,242.76L57.55,242.08L60.29,241.94L61.66,241.26L63.04,241.8L64.41,241.39L65.78,240.44L67.16,240.71L68.54,241.39L69.91,239.76L74.02,238.81L75.4,239.35L76.78,238.94L78.15,239.9L79.52,238.94L80.9,236.76L83.64,237.31L85.02,236.35L90.52,234.31L91.89,233.36L94.63,234.72L96.01,233.49L97.38,231.31L98.76,231.86L100.13,232.95L101.5,231.31L104.25,228.86L105.63,228.45L108.38,226.68L109.75,227.22L112.49,226L113.87,226.27L115.25,227.9L116.62,225.59L120.74,226.68L122.12,226.27L124.87,222.32L126.24,221.91L127.61,222.73L128.99,221.36L130.36,221.5L131.73,223.27L133.11,223L134.48,221.36L139.98,216.73L141.35,213.87L142.73,214.55L144.1,213.05L145.48,211.96L146.85,212.78L149.59,213.05L150.97,214.14L156.47,211.83L157.84,211.69L160.59,211.01L161.96,209.92L163.33,209.51L164.71,210.05L166.09,211.28L167.45,211.28L170.21,208.96L171.58,208.69L175.7,207.87L177.07,207.33L178.45,206.51L179.82,206.92L186.69,206.65L188.07,206.92L190.81,205.42L192.19,203.79L193.56,202.56L194.94,202.56L196.31,201.74L197.68,202.7L201.8,202.83L203.18,133.63L207.3,131.43L208.68,131.71L211.42,131.16L212.8,130.19L215.54,130.33L216.92,130.33L222.41,129.64L223.78,129.51L227.91,128.96L229.28,129.09L241.64,129.09L243.02,129.23L252.64,128.96L254.01,128.27L258.13,128.27L259.51,127.17L265,127.31L266.38,126.76L269.12,126.9L270.49,126.21L273.25,125.52L274.62,126.21L278.74,123.05L280.11,123.05L281.49,124.15L282.86,123.74L285.61,122.36L286.98,123.05L291.1,120.85L292.48,119.06L293.85,120.85L295.22,120.03L299.35,117.69L300.73,118.65L303.47,117L304.84,118.24L306.22,119.34L307.59,118.38L308.97,119.48L310.34,118.93L311.71,117.96L313.09,119.06L314.46,118.38L315.83,118.79L318.58,119.89L319.96,119.48L322.72,118.24L324.11,117L325.47,115.49L326.85,115.22L329.6,115.9L330.97,116.45L332.34,114.39L333.71,114.12L337.84,113.43L339.22,111.64L343.34,112.74L344.71,112.19L347.46,108.48L348.83,110.13L350.21,110.13L351.58,108.9L352.95,109.86L354.32,109.31L357.08,107.38L358.45,107.52L362.57,104.22L363.95,104.36L366.7,101.89L368.07,102.71L370.81,100.51L372.19,101.06L376.31,100.38L377.68,97.63L379.06,97.49L380.42,96.39L381.81,94.88L383.18,95.16L384.55,95.43L385.93,96.67L387.31,97.35L388.68,96.67L390.06,98.73L391.42,97.9L392.8,97.77L394.17,96.12L395.55,95.7L396.92,96.25L399.67,96.53L401.04,48.29L403.78,46.35L405.16,46.07L407.91,45.38L409.28,44.41L413.4,43.85L414.78,43.58L420.27,42.19L421.65,41.22L424.4,40.94L425.77,41.5L429.89,40.25L431.27,40.39L447.75,39L449.12,39.28L454.62,38.31L456,38.59L457.36,38.03L458.74,38.31L460.12,38.73L461.49,38.17L462.86,38.31L464.24,37.62L466.99,38.03L468.35,37.2L476.6,36.51L479.34,35.95L480.72,34.57L483.46,34.15L486.21,33.74L487.59,31.94L488.96,33.18L490.34,31.94L493.09,31.94L494.46,31.24L495.84,31.1L497.2,29.86L501.32,29.58L502.7,27.92L504.08,26.39L505.45,26.12L508.16,23.9L509.52,24.59L512.27,23.07L513.65,23.48L515.02,21.68L516.39,21.4L517.77,20.85L519.14,21.27L520.52,20.99L521.88,18.91L523.27,18.22L524.64,18.77L527.38,17.94L528.76,17.52L530.14,17.39L531.51,16.28L534.26,16.28L535.63,16.83L537,17.39" style="vector-effect: non-scaling-stroke; fill: none; stroke: rgb(99, 110, 250); stroke-opacity: 1; stroke-width: 2px; opacity: 1;"/></g><g class="points"/><g class="text"/></g></g></g><g class="overplot"/><path class="xlines-above crisp" d="M0,0" style="fill: none;"/><path class="ylines-above crisp" d="M0,0" style="fill: none;"/><g class="overlines-above"/><g class="xaxislayer-above"><g class="xtick"><text text-anchor="middle" x="0" y="433" transform="translate(85.13,0)" style="font-family: 'Open Sans', verdana, arial, sans-serif; font-size: 12px; fill: rgb(42, 63, 95); fill-opacity: 1; white-space: pre;"><tspan class="line" dy="0em" x="0" y="433">00:00</tspan><tspan class="line" dy="1.3em" x="0" y="433">Aug 3, 2021</tspan></text></g><g class="xtick"><text text-anchor="middle" x="0" y="433" transform="translate(184.06,0)" style="font-family: 'Open Sans', verdana, arial, sans-serif; font-size: 12px; fill: rgb(42, 63, 95); fill-opacity: 1; white-space: pre;">12:00</text></g><g class="xtick"><text text-anchor="middle" x="0" y="433" transform="translate(282.98,0)" style="font-family: 'Open Sans', verdana, arial, sans-serif; font-size: 12px; fill: rgb(42, 63, 95); fill-opacity: 1; white-space: pre;"><tspan class="line" dy="0em" x="0" y="433">00:00</tspan><tspan class="line" dy="1.3em" x="0" y="433">Aug 4, 2021</tspan></text></g><g class="xtick"><text text-anchor="middle" x="0" y="433" transform="translate(381.9,0)" style="font-family: 'Open Sans', verdana, arial, sans-serif; font-size: 12px; fill: rgb(42, 63, 95); fill-opacity: 1; white-space: pre;">12:00</text></g><g class="xtick"><text text-anchor="middle" x="0" y="433" transform="translate(480.82,0)" style="font-family: 'Open Sans', verdana, arial, sans-serif; font-size: 12px; fill: rgb(42, 63, 95); fill-opacity: 1; white-space: pre;"><tspan class="line" dy="0em" x="0" y="433">00:00</tspan><tspan class="line" dy="1.3em" x="0" y="433">Aug 5, 2021</tspan></text></g><g class="xtick"><text text-anchor="middle" x="0" y="433" transform="translate(579.75,0)" style="font-family: 'Open Sans', verdana, arial, sans-serif; font-size: 12px; fill: rgb(42, 63, 95); fill-opacity: 1; white-space: pre;">12:00</text></g></g><g class="yaxislayer-above"><g class="ytick"><text text-anchor="end" x="79" y="4.199999999999999" transform="translate(0,391.94)" style="font-family: 'Open Sans', verdana, arial, sans-serif; font-size: 12px; fill: rgb(42, 63, 95); fill-opacity: 1; white-space: pre;">0.864</text></g><g class="ytick"><text text-anchor="end" x="79" y="4.199999999999999" transform="translate(0,346.87)" style="font-family: 'Open Sans', verdana, arial, sans-serif; font-size: 12px; fill: rgb(42, 63, 95); fill-opacity: 1; white-space: pre;">0.865</text></g><g class="ytick"><text text-anchor="end" x="79" y="4.199999999999999" transform="translate(0,301.81)" style="font-family: 'Open Sans', verdana, arial, sans-serif; font-size: 12px; fill: rgb(42, 63, 95); fill-opacity: 1; white-space: pre;">0.866</text></g><g class="ytick"><text text-anchor="end" x="79" y="4.199999999999999" transform="translate(0,256.74)" style="font-family: 'Open Sans', verdana, arial, sans-serif; font-size: 12px; fill: rgb(42, 63, 95); fill-opacity: 1; white-space: pre;">0.867</text></g><g class="ytick"><text text-anchor="end" x="79" y="4.199999999999999" transform="translate(0,211.68)" style="font-family: 'Open Sans', verdana, arial, sans-serif; font-size: 12px; fill: rgb(42, 63, 95); fill-opacity: 1; white-space: pre;">0.868</text></g><g class="ytick"><text text-anchor="end" x="79" y="4.199999999999999" transform="translate(0,166.61)" style="font-family: 'Open Sans', verdana, arial, sans-serif; font-size: 12px; fill: rgb(42, 63, 95); fill-opacity: 1; white-space: pre;">0.869</text></g><g class="ytick"><text text-anchor="end" x="79" y="4.199999999999999" transform="translate(0,121.55)" style="font-family: 'Open Sans', verdana, arial, sans-serif; font-size: 12px; fill: rgb(42, 63, 95); fill-opacity: 1; white-space: pre;">0.87</text></g></g><g class="overaxes-above"/></g></g><g class="polarlayer"/><g class="ternarylayer"/><g class="geolayer"/><g class="funnelarealayer"/><g class="pielayer"/><g class="treemaplayer"/><g class="sunburstlayer"/><g class="glimages"/><defs id="topdefs-b9030b"><g class="clips"/><clipPath id="legendb9030b"><rect width="60" height="45" x="0" y="0"/></clipPath></defs><g class="layer-above"><g class="imagelayer"/><g class="shapelayer"/></g><g class="infolayer"><g class="legend" pointer-events="all" transform="translate(627.74,100)"><rect class="bg" shape-rendering="crispEdges" width="60" height="45" x="0" y="0" style="stroke: rgb(68, 68, 68); stroke-opacity: 1; fill: rgb(255, 255, 255); fill-opacity: 1; stroke-width: 0px;"/><g class="scrollbox" transform="" clip-path="url('#legendb9030b')"><text class="legendtitletext" text-anchor="start" x="2" y="15.600000000000001" style="font-family: 'Open Sans', verdana, arial, sans-serif; font-size: 12px; fill: rgb(42, 63, 95); fill-opacity: 1; white-space: pre;">All</text><g class="groups" transform=""><g class="traces" transform="translate(0,30.1)" style="opacity: 1;"><text class="legendtext" text-anchor="start" x="40" y="4.680000000000001" style="font-family: 'Open Sans', verdana, arial, sans-serif; font-size: 12px; fill: rgb(42, 63, 95); fill-opacity: 1; white-space: pre;">All</text><g class="layers" style="opacity: 1;"><g class="legendfill"/><g class="legendlines"><path class="js-line" d="M5,0h30" style="fill: none; stroke: rgb(99, 110, 250); stroke-opacity: 1; stroke-width: 2px;"/></g><g class="legendsymbols"><g class="legendpoints"/></g></g><rect class="legendtoggle" x="0" y="-9.5" width="54.890625" height="19" style="fill: rgb(0, 0, 0); fill-opacity: 0;"/></g></g></g><rect class="scrollbar" rx="20" ry="3" width="0" height="0" x="0" y="0" style="fill: rgb(128, 139, 164); fill-opacity: 1;"/></g><g class="g-gtitle"><text class="gtitle" x="35" y="50" text-anchor="start" dy="0em" style="font-family: 'Open Sans', verdana, arial, sans-serif; font-size: 17px; fill: rgb(42, 63, 95); opacity: 1; font-weight: normal; white-space: pre;">Singapore Vaccination Centers</text></g><g class="g-xtitle"><text class="xtitle" x="348.5" y="476.409375" text-anchor="middle" style="font-family: 'Open Sans', verdana, arial, sans-serif; font-size: 14px; fill: rgb(42, 63, 95); opacity: 1; font-weight: normal; white-space: pre;">Time</text></g><g class="g-ytitle"><text class="ytitle" transform="rotate(-90,19.840625000000003,260)" x="19.840625000000003" y="260" text-anchor="middle" style="font-family: 'Open Sans', verdana, arial, sans-serif; font-size: 14px; fill: rgb(42, 63, 95); opacity: 1; font-weight: normal; white-space: pre;">Filled/%</text></g></g></svg>