<svg class="main-svg" xmlns="http://www.w3.org/2000/svg" xmlns:xlink="http://www.w3.org/1999/xlink" width="700" height="500" style="" viewBox="0 0 700 500"><rect x="0" y="0" width="700" height="500" style="fill: rgb(255, 255, 255); fill-opacity: 1;"/><defs id="defs-905fcc"><g class="clips"><clipPath id="clip905fccxyplot" class="plotclip"><rect width="537" height="320"/></clipPath><clipPath class="axesclip" id="clip905fccx"><rect x="80" y="0" width="537" height="500"/></clipPath><clipPath class="axesclip" id="clip905fccy"><rect x="0" y="100" width="700" height="320"/></clipPath><clipPath class="axesclip" id="clip905fccxy"><rect x="80" y="100" width="537" height="320"/></clipPath></g><g class="gradients"/></defs><g class="bglayer"><rect class="bg" x="80" y="100" width="537" height="320" style="fill: rgb(229, 236, 246); fill-opacity: 1; stroke-width: 0;"/></g><g class="layer-below"><g class="imagelayer"/><g class="shapelayer"/></g><g class="cartesianlayer"><g class="subplot xy"><g class="layer-subplot"><g class="shapelayer"/><g class="imagelayer"/></g><g class="gridlayer"><g class="x"><path class="xgrid crisp" transform="translate(82.07,0)" d="M0,100v320" style="stroke: rgb(255, 255, 255); stroke-opacity: 1; stroke-width: 1px;"/><path class="xgrid crisp" transform="translate(161.8,0)" d="M0,100v320" style="stroke: rgb(255, 255, 255); stroke-opacity: 1; stroke-width: 1px;"/><path class="xgrid crisp" transform="translate(241.53,0)" d="M0,100v320" style="stroke: rgb(255, 255, 255); stroke-opacity: 1; stroke-width: 1px;"/><path class="xgrid crisp" transform="translate(321.25,0)" d="M0,100v320" style="stroke: rgb(255, 255, 255); stroke-opacity: 1; stroke-width: 1px;"/><path class="xgrid crisp" transform="translate(400.98,0)" d="M0,100v320" style="stroke: rgb(255, 255, 255); stroke-opacity: 1; stroke-width: 1px;"/><path class="xgrid crisp" transform="translate(480.71,0)" d="M0,100v320" style="stroke: rgb(255, 255, 255); stroke-opacity: 1; stroke-width: 1px;"/><path class="xgrid crisp" transform="translate(560.44,0)" d="M0,100v320" style="stroke: rgb(255, 255, 255); stroke-opacity: 1; stroke-width: 1px;"/></g><g class="y"><path class="ygrid crisp" transform="translate(0,393.89)" d="M80,0h537" style="stroke: rgb(255, 255, 255); stroke-opacity: 1; stroke-width: 1px;"/><path class="ygrid crisp" transform="translate(0,356.13)" d="M80,0h537" style="stroke: rgb(255, 255, 255); stroke-opacity: 1; stroke-width: 1px;"/><path class="ygrid crisp" transform="translate(0,318.36)" d="M80,0h537" style="stroke: rgb(255, 255, 255); stroke-opacity: 1; stroke-width: 1px;"/><path class="ygrid crisp" transform="translate(0,280.59000000000003)" d="M80,0h537" style="stroke: rgb(255, 255, 255); stroke-opacity: 1; stroke-width: 1px;"/><path class="ygrid crisp" transform="translate(0,242.83)" d="M80,0h537" style="stroke: rgb(255, 255, 255); stroke-opacity: 1; stroke-width: 1px;"/><path class="ygrid crisp" transform="translate(0,205.06)" d="M80,0h537" style="stroke: rgb(255, 255, 255); stroke-opacity: 1; stroke-width: 1px;"/><path class="ygrid crisp" transform="translate(0,167.3)" d="M80,0h537" style="stroke: rgb(255, 255, 255); stroke-opacity: 1; stroke-width: 1px;"/><path class="ygrid crisp" transform="translate(0,129.53)" d="M80,0h537" style="stroke: rgb(255, 255, 255); stroke-opacity: 1; stroke-width: 1px;"/></g></g><g class="zerolinelayer"/><path class="xlines-below"/><path class="ylines-below"/><g class="overlines-below"/><g class="xaxislayer-below"/><g class="yaxislayer-below"/><g class="overaxes-below"/><g class="plot" transform="translate(80,100)" clip-path="url('#clip905fccxyplot')"><g class="scatterlayer mlayer"><g class="trace scatter trace394997" style="stroke-miterlimit: 2; opacity: 1;"><g class="fills"/><g class="errorbars"/><g class="lines"><path class="js-line" d="M0,304L1.6,302.75L2.15,256.1L2.7,257.24L3.26,255.76L5.47,255.19L6.02,254.85L7.13,255.53L7.69,254.73L8.79,255.07L9.35,254.73L10.45,254.5L11.01,254.28L12.12,254.05L12.67,253.82L19.86,253.48L20.42,253.02L24.29,251.99L24.85,251.42L25.96,251.53L26.51,250.74L27.62,251.53L28.17,250.16L29.83,249.36L30.38,249.82L30.94,249.48L31.49,250.28L32.6,247.65L33.15,248.11L33.71,248.11L35.37,246.97L35.92,246.28L37.03,244.8L37.58,245.71L38.13,245.94L38.69,244.91L39.24,243.08L39.8,243.54L40.35,244.45L42.57,240.69L43.12,239.89L44.78,238.97L45.33,238.63L45.89,238.86L46.44,240.23L46.99,238.29L47.55,238.63L48.1,238.4L49.21,238.86L49.76,237.03L50.87,235.2L51.43,235.89L52.53,234.86L53.09,236.35L53.64,236.12L54.19,234.75L56.41,230.87L56.96,228.47L57.52,229.04L58.07,227.78L58.62,226.87L59.18,227.55L60.28,227.78L60.84,228.7L63.61,226.64L64.16,226.41L66.38,225.27L66.93,226.3L67.48,226.3L68.03,224.93L70.25,223.56L70.8,223.44L72.47,222.64L73.02,222.53L74.12,222.64L74.68,222.3L76.34,222.19L76.89,221.39L78.56,218.99L79.11,218.3L80.22,219.22L80.77,218.76L81.32,219.22L81.88,161.22L84.09,159.61L84.65,159.5L86.86,158.46L87.42,158.46L90.18,157.77L90.74,157.42L95.17,156.85L95.72,157.19L100.15,157.42L100.7,157.31L105.13,155.93L105.69,156.27L106.79,155.93L107.35,155.47L108.45,155.58L109,155.01L110.67,155.01L111.22,154.08L112.88,152.36L113.44,153.28L115.1,151.78L115.65,152.36L117.86,149.02L118.42,150.51L120.63,147.87L121.19,148.67L122.29,147.29L122.85,148.33L123.4,149.25L123.95,148.44L124.51,149.36L125.06,148.9L125.61,148.1L126.17,149.02L126.72,148.44L128.94,149.36L129.49,149.02L131.71,145.79L132.27,145.91L133.37,146.83L133.93,145.1L136.15,144.3L136.7,142.8L138.91,143.26L139.47,142.11L140.02,140.15L140.57,141.53L141.13,141.53L141.68,140.5L142.23,141.3L142.79,140.84L143.34,139.81L147.22,135.77L147.77,134.62L148.33,135.31L148.88,134.51L149.43,133.47L149.99,133.93L150.54,133.59L151.65,133.36L152.2,131.05L152.75,130.94L153.3,130.02L154.42,128.98L154.97,129.21L156.08,130.82L156.63,130.25L157.19,131.97L157.74,131.28L158.29,131.17L159.4,129.44L159.95,129.9L161.06,130.13L161.61,89.7L163.27,87.85L163.83,87.61L168.81,84.71L169.36,84.59L170.47,83.55L171.03,83.55L172.13,83.67L172.69,83.08L184.87,81.34L185.42,81.69L187.08,80.76L187.63,80.88L188.19,81.11L188.74,80.41L192.06,79.83L193.17,79.37L193.72,78.21L194.83,77.86L195.94,77.51L196.49,76L197.04,77.05L197.6,76L198.71,76L199.26,75.42L199.81,75.3L200.37,74.26L202.03,74.03L202.58,72.63L204.78,69.27L205.33,69.85L206.99,68.92L207.54,67.41L209.76,66.83L210.31,65.08L211.42,64.97L211.97,64.85L214.74,62.65L215.3,62.88L216.96,64.74L217.51,63.11L218.62,64.16L219.18,62.41L220.28,62.53L220.84,62.88L223.05,61.6L223.6,61.14L226.37,56.14L226.92,57.42L228.03,55.79L228.59,55.56L229.14,54.4L229.69,54.75L230.25,54.87L230.8,54.87L231.35,53.94L231.91,54.4L232.46,53.01L233.57,52.89L234.12,51.96L236.34,52.31L236.89,51.5L238,51.38L238.55,51.5L239.66,49.76L240.21,50.34L240.77,50.1L241.32,187.3L245.75,186.94L246.31,186.58L246.86,186.58L247.41,185.61L254.05,184.41L254.61,184.53L260.7,183.8L261.25,183.68L265.13,182.72L265.68,182.96L267.34,182L267.9,181.39L270.66,180.43L271.22,179.22L273.45,178.98L274,180.07L275.11,178.38L275.66,178.26L276.22,177.66L276.77,175.49L277.32,173.8L277.88,174.04L278.43,173.44L278.99,171.87L279.54,172.35L280.09,171.75L281.2,171.87L281.76,171.03L282.86,170.43L283.42,171.27L285.08,168.86L285.63,169.7L287.29,167.29L287.85,167.29L288.4,166.57L288.95,167.53L290.06,168.38L290.61,167.53L291.17,167.65L291.72,166.93L294.49,163.19L295.04,162.71L296.15,162.35L296.71,163.68L300.03,160.9L300.58,162.47L301.69,143.31L302.24,142.94L303.35,142.34L303.91,138.12L304.46,138.24L305.01,134.75L305.56,134.99L306.12,132.7L306.67,130.05L307.23,130.89L307.78,129.32L308.33,128.12L308.88,124.98L309.99,122.21L310.55,121.73L313.32,114.5L313.87,114.5L315.53,111.24L316.09,110.4L320.51,101.84L321.07,113.71L323.84,109.82L324.39,110.18L324.94,110.06L325.5,110.79L326.61,110.42L327.16,111.03L328.82,110.18L329.37,110.3L330.48,109.82L331.04,109.94L338.78,109.33L339.34,108.97L343.77,109.45L344.32,109.21L347.64,109.09L348.19,108.6L349.86,106.17L350.41,106.41L352.07,105.2L352.62,105.32L353.18,104.95L353.73,103.49L354.84,103.74L355.39,102.4L358.16,99.6L358.72,99.97L360.38,96.93L360.93,96.57L362.59,94.26L363.15,94.26L364.25,91.95L364.8,91.95L365.91,90.24L366.47,88.3L368.68,83.68L369.24,83.31L369.79,82.95L370.34,81L372.56,79.3L373.11,77.84L376.44,76.99L376.99,76.02L377.54,76.38L378.09,75.78L378.65,76.14L383.08,72.01L385.85,69.7L386.4,70.31L388.61,67.39L389.17,67.27L389.73,66.05L390.28,66.54L390.83,65.93L391.94,65.81L392.49,66.78L394.15,65.56L394.71,65.32L395.26,64.71L395.82,65.56L398.03,64.96L398.58,63.98L400.24,61.92L400.8,107.37L401.9,107.74L402.46,106.75L403.01,106.13L403.56,106.62L404.14,106.5L405.22,106.62L405.78,107.49L407.99,107.24L408.55,107.37L410.21,107.49L410.77,107.49L413.53,106.13L414.09,106.5L420.18,105.88L420.73,105.88L427.37,105.51L427.92,105.14L429.59,105.14L430.14,104.77L431.25,104.27L431.8,103.4L432.91,103.03L433.46,101.8L434.01,100.56L434.57,101.8L436.78,100.93L437.34,100.93L438.45,99.07L439,98.82L440.66,96.22L441.21,96.1L442.87,95.73L443.43,94.98L444.53,94.37L445.09,94.49L446.2,93.13L446.75,92.51L448.97,91.64L449.52,92.01L450.07,91.52L450.63,92.14L451.73,89.04L452.29,89.29L452.84,89.29L454.5,88.79L455.06,87.68L457.83,85.45L458.38,85.7L461.7,83.47L462.25,82.6L462.81,82.97L463.36,82.23L464.47,82.35L465.02,82.23L466.68,80.74L467.24,80.5L467.79,80.74L468.34,79.75L470,77.52L470.56,76.78L471.11,77.03L471.67,75.42L472.78,73.69L473.33,74.3L478.86,71.09L479.42,71.09L479.97,71.33L480.53,41.11L484.95,37.86L485.51,37.99L491.05,38.11L491.6,38.49L494.37,37.86L494.92,37.86L498.8,37.74L499.35,37.86L504.35,37.49L504.89,37.74L505.99,37.86L506.55,37.61L508.21,37.74L508.76,36.86L509.87,37.86L510.42,37.11L512.09,35.86L512.64,35.11L513.74,35.49L514.3,34.36L515.4,33.74L515.96,33.99L516.51,33.24L517.07,31.11L517.62,31.11L518.17,30.12L518.73,30.74L519.28,29.99L520.39,28.49L520.94,26.99L521.49,26.37L522.05,27.37L523.15,24.74L523.71,24.99L524.82,23.5L525.37,23.62L528.7,22.12L529.25,22.25L530.36,21.62L530.91,20.62L532.57,21.37L533.13,20L534.78,19.62L535.34,19.75L537,16" style="vector-effect: non-scaling-stroke; fill: none; stroke: rgb(99, 110, 250); stroke-opacity: 1; stroke-width: 2px; opacity: 1;"/></g><g class="points"/><g class="text"/></g></g></g><g class="overplot"/><path class="xlines-above crisp" d="M0,0" style="fill: none;"/><path class="ylines-above crisp" d="M0,0" style="fill: none;"/><g class="overlines-above"/><g class="xaxislayer-above"><g class="xtick"><text text-anchor="middle" x="0" y="433" transform="translate(82.07,0)" style="font-family: 'Open Sans', verdana, arial, sans-serif; font-size: 12px; fill: rgb(42, 63, 95); fill-opacity: 1; white-space: pre;"><tspan class="line" dy="0em" x="0" y="433">Aug 3</tspan><tspan class="line" dy="1.3em" x="0" y="433">2021</tspan></text></g><g class="xtick"><text text-anchor="middle" x="0" y="433" transform="translate(161.8,0)" style="font-family: 'Open Sans', verdana, arial, sans-serif; font-size: 12px; fill: rgb(42, 63, 95); fill-opacity: 1; white-space: pre;">Aug 4</text></g><g class="xtick"><text text-anchor="middle" x="0" y="433" transform="translate(241.53,0)" style="font-family: 'Open Sans', verdana, arial, sans-serif; font-size: 12px; fill: rgb(42, 63, 95); fill-opacity: 1; white-space: pre;">Aug 5</text></g><g class="xtick"><text text-anchor="middle" x="0" y="433" transform="translate(321.25,0)" style="font-family: 'Open Sans', verdana, arial, sans-serif; font-size: 12px; fill: rgb(42, 63, 95); fill-opacity: 1; white-space: pre;">Aug 6</text></g><g class="xtick"><text text-anchor="middle" x="0" y="433" transform="translate(400.98,0)" style="font-family: 'Open Sans', verdana, arial, sans-serif; font-size: 12px; fill: rgb(42, 63, 95); fill-opacity: 1; white-space: pre;">Aug 7</text></g><g class="xtick"><text text-anchor="middle" x="0" y="433" transform="translate(480.71,0)" style="font-family: 'Open Sans', verdana, arial, sans-serif; font-size: 12px; fill: rgb(42, 63, 95); fill-opacity: 1; white-space: pre;">Aug 8</text></g><g class="xtick"><text text-anchor="middle" x="0" y="433" transform="translate(560.44,0)" style="font-family: 'Open Sans', verdana, arial, sans-serif; font-size: 12px; fill: rgb(42, 63, 95); fill-opacity: 1; white-space: pre;">Aug 9</text></g></g><g class="yaxislayer-above"><g class="ytick"><text text-anchor="end" x="79" y="4.199999999999999" transform="translate(0,393.89)" style="font-family: 'Open Sans', verdana, arial, sans-serif; font-size: 12px; fill: rgb(42, 63, 95); fill-opacity: 1; white-space: pre;">0.864</text></g><g class="ytick"><text text-anchor="end" x="79" y="4.199999999999999" transform="translate(0,356.13)" style="font-family: 'Open Sans', verdana, arial, sans-serif; font-size: 12px; fill: rgb(42, 63, 95); fill-opacity: 1; white-space: pre;">0.865</text></g><g class="ytick"><text text-anchor="end" x="79" y="4.199999999999999" transform="translate(0,318.36)" style="font-family: 'Open Sans', verdana, arial, sans-serif; font-size: 12px; fill: rgb(42, 63, 95); fill-opacity: 1; white-space: pre;">0.866</text></g><g class="ytick"><text text-anchor="end" x="79" y="4.199999999999999" transform="translate(0,280.59000000000003)" style="font-family: 'Open Sans', verdana, arial, sans-serif; font-size: 12px; fill: rgb(42, 63, 95); fill-opacity: 1; white-space: pre;">0.867</text></g><g class="ytick"><text text-anchor="end" x="79" y="4.199999999999999" transform="translate(0,242.83)" style="font-family: 'Open Sans', verdana, arial, sans-serif; font-size: 12px; fill: rgb(42, 63, 95); fill-opacity: 1; white-space: pre;">0.868</text></g><g class="ytick"><text text-anchor="end" x="79" y="4.199999999999999" transform="translate(0,205.06)" style="font-family: 'Open Sans', verdana, arial, sans-serif; font-size: 12px; fill: rgb(42, 63, 95); fill-opacity: 1; white-space: pre;">0.869</text></g><g class="ytick"><text text-anchor="end" x="79" y="4.199999999999999" transform="translate(0,167.3)" style="font-family: 'Open Sans', verdana, arial, sans-serif; font-size: 12px; fill: rgb(42, 63, 95); fill-opacity: 1; white-space: pre;">0.87</text></g><g class="ytick"><text text-anchor="end" x="79" y="4.199999999999999" transform="translate(0,129.53)" style="font-family: 'Open Sans', verdana, arial, sans-serif; font-size: 12px; fill: rgb(42, 63, 95); fill-opacity: 1; white-space: pre;">0.871</text></g></g><g class="overaxes-above"/></g></g><g class="polarlayer"/><g class="ternarylayer"/><g class="geolayer"/><g class="funnelarealayer"/><g class="pielayer"/><g class="treemaplayer"/><g class="sunburstlayer"/><g class="glimages"/><defs id="topdefs-905fcc"><g class="clips"/><clipPath id="legend905fcc"><rect width="60" height="45" x="0" y="0"/></clipPath></defs><g class="layer-above"><g class="imagelayer"/><g class="shapelayer"/></g><g class="infolayer"><g class="legend" pointer-events="all" transform="translate(627.74,100)"><rect class="bg" shape-rendering="crispEdges" width="60" height="45" x="0" y="0" style="stroke: rgb(68, 68, 68); stroke-opacity: 1; fill: rgb(255, 255, 255); fill-opacity: 1; stroke-width: 0px;"/><g class="scrollbox" transform="" clip-path="url('#legend905fcc')"><text class="legendtitletext" text-anchor="start" x="2" y="15.600000000000001" style="font-family: 'Open Sans', verdana, arial, sans-serif; font-size: 12px; fill: rgb(42, 63, 95); fill-opacity: 1; white-space: pre;">All</text><g class="groups" transform=""><g class="traces" transform="translate(0,30.1)" style="opacity: 1;"><text class="legendtext" text-anchor="start" x="40" y="4.680000000000001" style="font-family: 'Open Sans', verdana, arial, sans-serif; font-size: 12px; fill: rgb(42, 63, 95); fill-opacity: 1; white-space: pre;">All</text><g class="layers" style="opacity: 1;"><g class="legendfill"/><g class="legendlines"><path class="js-line" d="M5,0h30" style="fill: none; stroke: rgb(99, 110, 250); stroke-opacity: 1; stroke-width: 2px;"/></g><g class="legendsymbols"><g class="legendpoints"/></g></g><rect class="legendtoggle" x="0" y="-9.5" width="54.890625" height="19" style="fill: rgb(0, 0, 0); fill-opacity: 0;"/></g></g></g><rect class="scrollbar" rx="20" ry="3" width="0" height="0" x="0" y="0" style="fill: rgb(128, 139, 164); fill-opacity: 1;"/></g><g class="g-gtitle"><text class="gtitle" x="35" y="50" text-anchor="start" dy="0em" style="font-family: 'Open Sans', verdana, arial, sans-serif; font-size: 17px; fill: rgb(42, 63, 95); opacity: 1; font-weight: normal; white-space: pre;">Singapore Vaccination Centers</text></g><g class="g-xtitle"><text class="xtitle" x="348.5" y="476.409375" text-anchor="middle" style="font-family: 'Open Sans', verdana, arial, sans-serif; font-size: 14px; fill: rgb(42, 63, 95); opacity: 1; font-weight: normal; white-space: pre;">Time</text></g><g class="g-ytitle"><text class="ytitle" transform="rotate(-90,19.840625000000003,260)" x="19.840625000000003" y="260" text-anchor="middle" style="font-family: 'Open Sans', verdana, arial, sans-serif; font-size: 14px; fill: rgb(42, 63, 95); opacity: 1; font-weight: normal; white-space: pre;">Filled/%</text></g></g></svg>