<svg class="main-svg" xmlns="http://www.w3.org/2000/svg" xmlns:xlink="http://www.w3.org/1999/xlink" width="700" height="500" style="" viewBox="0 0 700 500"><rect x="0" y="0" width="700" height="500" style="fill: rgb(255, 255, 255); fill-opacity: 1;"/><defs id="defs-8d1d2d"><g class="clips"><clipPath id="clip8d1d2dxyplot" class="plotclip"><rect width="537" height="320"/></clipPath><clipPath class="axesclip" id="clip8d1d2dx"><rect x="80" y="0" width="537" height="500"/></clipPath><clipPath class="axesclip" id="clip8d1d2dy"><rect x="0" y="100" width="700" height="320"/></clipPath><clipPath class="axesclip" id="clip8d1d2dxy"><rect x="80" y="100" width="537" height="320"/></clipPath></g><g class="gradients"/></defs><g class="bglayer"><rect class="bg" x="80" y="100" width="537" height="320" style="fill: rgb(229, 236, 246); fill-opacity: 1; stroke-width: 0;"/></g><g class="layer-below"><g class="imagelayer"/><g class="shapelayer"/></g><g class="cartesianlayer"><g class="subplot xy"><g class="layer-subplot"><g class="shapelayer"/><g class="imagelayer"/></g><g class="gridlayer"><g class="x"><path class="xgrid crisp" transform="translate(83.63,0)" d="M0,100v320" style="stroke: rgb(255, 255, 255); stroke-opacity: 1; stroke-width: 1px;"/><path class="xgrid crisp" transform="translate(153.56,0)" d="M0,100v320" style="stroke: rgb(255, 255, 255); stroke-opacity: 1; stroke-width: 1px;"/><path class="xgrid crisp" transform="translate(223.49,0)" d="M0,100v320" style="stroke: rgb(255, 255, 255); stroke-opacity: 1; stroke-width: 1px;"/><path class="xgrid crisp" transform="translate(293.41999999999996,0)" d="M0,100v320" style="stroke: rgb(255, 255, 255); stroke-opacity: 1; stroke-width: 1px;"/><path class="xgrid crisp" transform="translate(363.35,0)" d="M0,100v320" style="stroke: rgb(255, 255, 255); stroke-opacity: 1; stroke-width: 1px;"/><path class="xgrid crisp" transform="translate(433.28,0)" d="M0,100v320" style="stroke: rgb(255, 255, 255); stroke-opacity: 1; stroke-width: 1px;"/><path class="xgrid crisp" transform="translate(503.21,0)" d="M0,100v320" style="stroke: rgb(255, 255, 255); stroke-opacity: 1; stroke-width: 1px;"/><path class="xgrid crisp" transform="translate(573.14,0)" d="M0,100v320" style="stroke: rgb(255, 255, 255); stroke-opacity: 1; stroke-width: 1px;"/></g><g class="y"><path class="ygrid crisp" transform="translate(0,392.55)" d="M80,0h537" style="stroke: rgb(255, 255, 255); stroke-opacity: 1; stroke-width: 1px;"/><path class="ygrid crisp" transform="translate(0,349.77)" d="M80,0h537" style="stroke: rgb(255, 255, 255); stroke-opacity: 1; stroke-width: 1px;"/><path class="ygrid crisp" transform="translate(0,306.99)" d="M80,0h537" style="stroke: rgb(255, 255, 255); stroke-opacity: 1; stroke-width: 1px;"/><path class="ygrid crisp" transform="translate(0,264.21000000000004)" d="M80,0h537" style="stroke: rgb(255, 255, 255); stroke-opacity: 1; stroke-width: 1px;"/><path class="ygrid crisp" transform="translate(0,221.43)" d="M80,0h537" style="stroke: rgb(255, 255, 255); stroke-opacity: 1; stroke-width: 1px;"/><path class="ygrid crisp" transform="translate(0,178.65)" d="M80,0h537" style="stroke: rgb(255, 255, 255); stroke-opacity: 1; stroke-width: 1px;"/><path class="ygrid crisp" transform="translate(0,135.87)" d="M80,0h537" style="stroke: rgb(255, 255, 255); stroke-opacity: 1; stroke-width: 1px;"/></g></g><g class="zerolinelayer"/><path class="xlines-below"/><path class="ylines-below"/><g class="overlines-below"/><g class="xaxislayer-below"/><g class="yaxislayer-below"/><g class="overaxes-below"/><g class="plot" transform="translate(80,100)" clip-path="url('#clip8d1d2dxyplot')"><g class="scatterlayer mlayer"><g class="trace scatter trace633b9e" style="stroke-miterlimit: 2; opacity: 1;"><g class="fills"/><g class="errorbars"/><g class="lines"><path class="js-line" d="M0,304L2.8,302.59L3.77,249.74L4.74,251.04L5.72,249.35L9.6,248.71L10.57,248.32L12.51,249.1L13.49,248.19L15.43,248.58L16.4,248.19L17.37,248.45L18.34,247.93L24.17,246.9L25.14,247.16L30,246.77L30.97,246.51L36.8,246.12L37.77,245.73L39.71,245.86L40.68,245.22L42.62,245.09L43.59,244.44L44.57,244.96L45.53,244.57L46.5,243.66L47.48,243.92L48.45,244.57L49.42,243.02L52.33,242.11L53.3,242.63L54.27,242.24L55.25,243.15L56.22,242.24L57.19,240.17L59.13,240.69L60.1,239.78L63.99,237.84L64.96,236.94L66.9,238.23L67.87,237.07L68.84,235L69.81,235.51L70.78,236.55L71.75,235L73.7,232.67L74.67,232.28L76.62,230.6L77.59,231.12L79.52,229.95L80.5,230.21L81.47,231.76L82.44,229.56L85.36,230.6L86.33,230.21L88.27,226.46L89.24,226.07L90.21,226.85L91.18,225.55L92.15,225.68L93.12,227.36L94.1,227.11L95.07,225.55L98.95,221.16L99.92,218.44L100.9,219.09L101.87,217.66L102.84,216.63L103.81,217.4L105.75,217.66L106.72,218.7L110.61,216.5L111.58,216.37L113.52,215.72L114.5,214.69L115.47,214.3L116.44,214.82L118.38,215.98L119.35,214.43L121.29,213.52L122.26,213.39L126.15,211.45L127.12,211.84L131.98,211.58L132.95,211.84L134.89,210.42L135.86,208.87L137.8,207.7L138.78,206.93L140.71,207.96L141.69,207.44L142.66,207.96L143.63,142.27L146.55,140.18L147.52,140.44L149.46,139.92L150.43,139.01L152.37,139.14L153.35,139.14L157.23,138.48L158.2,138.35L161.11,137.83L162.09,137.96L170.82,137.96L171.8,138.09L178.59,137.83L179.57,137.18L182.48,137.18L183.45,136.14L187.33,136.27L188.31,135.74L190.25,135.88L191.22,135.22L193.17,134.57L194.13,135.22L197.05,132.22L198.02,132.22L198.99,133.27L199.96,132.88L201.91,131.57L202.88,132.22L206.76,128.44L207.73,130.14L211.61,127.14L212.59,128.05L214.53,126.48L215.5,127.66L216.47,128.7L217.44,127.79L218.42,128.83L219.39,128.31L220.35,127.4L221.33,128.44L222.3,127.79L223.27,128.18L226.18,128.83L227.16,128.44L229.12,126.48L230.08,125.05L232.02,124.92L233,125.44L233.97,125.96L234.94,124.01L238.83,123.09L239.8,121.4L242.71,122.44L243.68,121.92L245.62,118.4L246.6,119.96L247.57,119.96L248.54,118.79L249.51,119.7L250.48,119.18L252.43,117.35L253.4,117.48L256.31,114.35L257.28,114.48L259.23,112.14L260.19,112.92L262.14,110.83L263.11,111.35L266.02,110.7L266.99,108.09L267.96,107.96L268.93,106.92L269.91,105.48L270.88,105.74L271.85,106L272.82,107.18L273.8,107.83L274.76,107.18L275.74,109.13L276.71,108.35L277.68,108.22L278.65,106.66L279.62,106.27L280.59,106.79L282.53,107.05L283.51,61.25L285.44,59.41L286.42,59.15L289.33,57.57L290.3,57.17L292.24,57.04L293.21,56.78L297.1,55.46L298.07,54.54L300.02,54.28L300.99,54.81L304.87,53.75L305.84,53.62L307.79,53.62L308.76,53.75L324.29,51.78L325.27,52.18L328.18,51.12L329.15,51.25L330.13,51.52L331.09,50.73L336.92,50.07L338.86,49.54L339.83,48.23L341.77,47.83L343.71,47.44L344.69,45.73L345.66,46.91L346.63,45.73L348.58,45.73L349.54,45.07L350.52,44.94L351.49,43.76L354.4,43.49L355.37,41.91L357.31,40.2L358.29,39.42L359.23,38.1L360.19,38.76L363.11,37.71L364.08,36L367.97,35.34L368.93,33.36L369.91,32.71L370.88,33.23L372.82,32.44L373.79,32.05L374.77,31.92L375.73,30.86L377.68,30.86L378.65,31.39L380.59,32.97L381.57,31.13L383.51,32.31L384.49,30.34L386.42,30.47L387.4,30.86L390.31,29.02L391.28,29.42L393.22,27.71L394.19,26.66L395.16,24.16L396.14,24.68L397.1,23.24L398.08,24.68L400.02,22.84L400.99,22.58L401.96,21.26L402.93,21.66L404.88,21.79L405.84,20.74L406.82,21.26L407.79,19.68L409.73,19.55L410.7,18.5L414.59,18.89L415.56,17.97L416.53,17.45L417.5,17.84L418.48,17.97L419.44,17.05L420.42,16L421.38,16.66L422.36,16.39L423.33,171.81L428.19,171.4L429.16,172.08L432.07,170.99L433.04,170.99L434.99,169.76L435.96,169.76L437.9,168.94L438.87,169.08L455.38,168.39L456.35,167.98L468.97,165.8L469.95,165.12L474.8,164.02L475.78,162.66L479.69,162.38L480.66,163.61L482.61,161.7L483.58,161.57L484.55,160.88L485.52,158.43L486.49,156.51L487.46,156.79L488.44,156.1L489.4,154.33L490.38,154.88L491.35,154.19L493.29,154.33L494.26,153.37L496.2,152.69L497.18,153.65L499.12,152.01L500.09,150.92L501.06,151.87L502.03,150.64L503.98,149.14L504.95,149.14L505.91,148.32L506.89,149.41L508.83,150.37L509.8,149.41L510.77,149.55L511.75,148.73L515.63,145.18L516.61,144.5L519.51,143.54L520.49,145.04L526.32,141.9L527.29,143.68L528.26,121.97L529.23,121.97L532.14,120.88L533.12,116.1L534.08,116.24L535.05,112.28L536.03,112.55L537,109.96" style="vector-effect: non-scaling-stroke; fill: none; stroke: rgb(99, 110, 250); stroke-opacity: 1; stroke-width: 2px; opacity: 1;"/></g><g class="points"/><g class="text"/></g></g></g><g class="overplot"/><path class="xlines-above crisp" d="M0,0" style="fill: none;"/><path class="ylines-above crisp" d="M0,0" style="fill: none;"/><g class="overlines-above"/><g class="xaxislayer-above"><g class="xtick"><text text-anchor="middle" x="0" y="433" transform="translate(83.63,0)" style="font-family: 'Open Sans', verdana, arial, sans-serif; font-size: 12px; fill: rgb(42, 63, 95); fill-opacity: 1; white-space: pre;"><tspan class="line" dy="0em" x="0" y="433">00:00</tspan><tspan class="line" dy="1.3em" x="0" y="433">Aug 3, 2021</tspan></text></g><g class="xtick"><text text-anchor="middle" x="0" y="433" transform="translate(153.56,0)" style="font-family: 'Open Sans', verdana, arial, sans-serif; font-size: 12px; fill: rgb(42, 63, 95); fill-opacity: 1; white-space: pre;">12:00</text></g><g class="xtick"><text text-anchor="middle" x="0" y="433" transform="translate(223.49,0)" style="font-family: 'Open Sans', verdana, arial, sans-serif; font-size: 12px; fill: rgb(42, 63, 95); fill-opacity: 1; white-space: pre;"><tspan class="line" dy="0em" x="0" y="433">00:00</tspan><tspan class="line" dy="1.3em" x="0" y="433">Aug 4, 2021</tspan></text></g><g class="xtick"><text text-anchor="middle" x="0" y="433" transform="translate(293.41999999999996,0)" style="font-family: 'Open Sans', verdana, arial, sans-serif; font-size: 12px; fill: rgb(42, 63, 95); fill-opacity: 1; white-space: pre;">12:00</text></g><g class="xtick"><text text-anchor="middle" x="0" y="433" transform="translate(363.35,0)" style="font-family: 'Open Sans', verdana, arial, sans-serif; font-size: 12px; fill: rgb(42, 63, 95); fill-opacity: 1; white-space: pre;"><tspan class="line" dy="0em" x="0" y="433">00:00</tspan><tspan class="line" dy="1.3em" x="0" y="433">Aug 5, 2021</tspan></text></g><g class="xtick"><text text-anchor="middle" x="0" y="433" transform="translate(433.28,0)" style="font-family: 'Open Sans', verdana, arial, sans-serif; font-size: 12px; fill: rgb(42, 63, 95); fill-opacity: 1; white-space: pre;">12:00</text></g><g class="xtick"><text text-anchor="middle" x="0" y="433" transform="translate(503.21,0)" style="font-family: 'Open Sans', verdana, arial, sans-serif; font-size: 12px; fill: rgb(42, 63, 95); fill-opacity: 1; white-space: pre;"><tspan class="line" dy="0em" x="0" y="433">00:00</tspan><tspan class="line" dy="1.3em" x="0" y="433">Aug 6, 2021</tspan></text></g><g class="xtick"><text text-anchor="middle" x="0" y="433" transform="translate(573.14,0)" style="font-family: 'Open Sans', verdana, arial, sans-serif; font-size: 12px; fill: rgb(42, 63, 95); fill-opacity: 1; white-space: pre;">12:00</text></g></g><g class="yaxislayer-above"><g class="ytick"><text text-anchor="end" x="79" y="4.199999999999999" transform="translate(0,392.55)" style="font-family: 'Open Sans', verdana, arial, sans-serif; font-size: 12px; fill: rgb(42, 63, 95); fill-opacity: 1; white-space: pre;">0.864</text></g><g class="ytick"><text text-anchor="end" x="79" y="4.199999999999999" transform="translate(0,349.77)" style="font-family: 'Open Sans', verdana, arial, sans-serif; font-size: 12px; fill: rgb(42, 63, 95); fill-opacity: 1; white-space: pre;">0.865</text></g><g class="ytick"><text text-anchor="end" x="79" y="4.199999999999999" transform="translate(0,306.99)" style="font-family: 'Open Sans', verdana, arial, sans-serif; font-size: 12px; fill: rgb(42, 63, 95); fill-opacity: 1; white-space: pre;">0.866</text></g><g class="ytick"><text text-anchor="end" x="79" y="4.199999999999999" transform="translate(0,264.21000000000004)" style="font-family: 'Open Sans', verdana, arial, sans-serif; font-size: 12px; fill: rgb(42, 63, 95); fill-opacity: 1; white-space: pre;">0.867</text></g><g class="ytick"><text text-anchor="end" x="79" y="4.199999999999999" transform="translate(0,221.43)" style="font-family: 'Open Sans', verdana, arial, sans-serif; font-size: 12px; fill: rgb(42, 63, 95); fill-opacity: 1; white-space: pre;">0.868</text></g><g class="ytick"><text text-anchor="end" x="79" y="4.199999999999999" transform="translate(0,178.65)" style="font-family: 'Open Sans', verdana, arial, sans-serif; font-size: 12px; fill: rgb(42, 63, 95); fill-opacity: 1; white-space: pre;">0.869</text></g><g class="ytick"><text text-anchor="end" x="79" y="4.199999999999999" transform="translate(0,135.87)" style="font-family: 'Open Sans', verdana, arial, sans-serif; font-size: 12px; fill: rgb(42, 63, 95); fill-opacity: 1; white-space: pre;">0.87</text></g></g><g class="overaxes-above"/></g></g><g class="polarlayer"/><g class="ternarylayer"/><g class="geolayer"/><g class="funnelarealayer"/><g class="pielayer"/><g class="treemaplayer"/><g class="sunburstlayer"/><g class="glimages"/><defs id="topdefs-8d1d2d"><g class="clips"/><clipPath id="legend8d1d2d"><rect width="60" height="45" x="0" y="0"/></clipPath></defs><g class="layer-above"><g class="imagelayer"/><g class="shapelayer"/></g><g class="infolayer"><g class="legend" pointer-events="all" transform="translate(627.74,100)"><rect class="bg" shape-rendering="crispEdges" width="60" height="45" x="0" y="0" style="stroke: rgb(68, 68, 68); stroke-opacity: 1; fill: rgb(255, 255, 255); fill-opacity: 1; stroke-width: 0px;"/><g class="scrollbox" transform="" clip-path="url('#legend8d1d2d')"><text class="legendtitletext" text-anchor="start" x="2" y="15.600000000000001" style="font-family: 'Open Sans', verdana, arial, sans-serif; font-size: 12px; fill: rgb(42, 63, 95); fill-opacity: 1; white-space: pre;">All</text><g class="groups" transform=""><g class="traces" transform="translate(0,30.1)" style="opacity: 1;"><text class="legendtext" text-anchor="start" x="40" y="4.680000000000001" style="font-family: 'Open Sans', verdana, arial, sans-serif; font-size: 12px; fill: rgb(42, 63, 95); fill-opacity: 1; white-space: pre;">All</text><g class="layers" style="opacity: 1;"><g class="legendfill"/><g class="legendlines"><path class="js-line" d="M5,0h30" style="fill: none; stroke: rgb(99, 110, 250); stroke-opacity: 1; stroke-width: 2px;"/></g><g class="legendsymbols"><g class="legendpoints"/></g></g><rect class="legendtoggle" x="0" y="-9.5" width="54.890625" height="19" style="fill: rgb(0, 0, 0); fill-opacity: 0;"/></g></g></g><rect class="scrollbar" rx="20" ry="3" width="0" height="0" x="0" y="0" style="fill: rgb(128, 139, 164); fill-opacity: 1;"/></g><g class="g-gtitle"><text class="gtitle" x="35" y="50" text-anchor="start" dy="0em" style="font-family: 'Open Sans', verdana, arial, sans-serif; font-size: 17px; fill: rgb(42, 63, 95); opacity: 1; font-weight: normal; white-space: pre;">Singapore Vaccination Centers</text></g><g class="g-xtitle"><text class="xtitle" x="348.5" y="476.409375" text-anchor="middle" style="font-family: 'Open Sans', verdana, arial, sans-serif; font-size: 14px; fill: rgb(42, 63, 95); opacity: 1; font-weight: normal; white-space: pre;">Time</text></g><g class="g-ytitle"><text class="ytitle" transform="rotate(-90,19.840625000000003,260)" x="19.840625000000003" y="260" text-anchor="middle" style="font-family: 'Open Sans', verdana, arial, sans-serif; font-size: 14px; fill: rgb(42, 63, 95); opacity: 1; font-weight: normal; white-space: pre;">Filled/%</text></g></g></svg>