<svg class="main-svg" xmlns="http://www.w3.org/2000/svg" xmlns:xlink="http://www.w3.org/1999/xlink" width="700" height="500" style="" viewBox="0 0 700 500"><rect x="0" y="0" width="700" height="500" style="fill: rgb(255, 255, 255); fill-opacity: 1;"/><defs id="defs-6d62f4"><g class="clips"><clipPath id="clip6d62f4xyplot" class="plotclip"><rect width="537" height="320"/></clipPath><clipPath class="axesclip" id="clip6d62f4x"><rect x="80" y="0" width="537" height="500"/></clipPath><clipPath class="axesclip" id="clip6d62f4y"><rect x="0" y="100" width="700" height="320"/></clipPath><clipPath class="axesclip" id="clip6d62f4xy"><rect x="80" y="100" width="537" height="320"/></clipPath></g><g class="gradients"/></defs><g class="bglayer"><rect class="bg" x="80" y="100" width="537" height="320" style="fill: rgb(229, 236, 246); fill-opacity: 1; stroke-width: 0;"/></g><g class="layer-below"><g class="imagelayer"/><g class="shapelayer"/></g><g class="cartesianlayer"><g class="subplot xy"><g class="layer-subplot"><g class="shapelayer"/><g class="imagelayer"/></g><g class="gridlayer"><g class="x"><path class="xgrid crisp" transform="translate(82.62,0)" d="M0,100v320" style="stroke: rgb(255, 255, 255); stroke-opacity: 1; stroke-width: 1px;"/><path class="xgrid crisp" transform="translate(183.72,0)" d="M0,100v320" style="stroke: rgb(255, 255, 255); stroke-opacity: 1; stroke-width: 1px;"/><path class="xgrid crisp" transform="translate(284.82,0)" d="M0,100v320" style="stroke: rgb(255, 255, 255); stroke-opacity: 1; stroke-width: 1px;"/><path class="xgrid crisp" transform="translate(385.91,0)" d="M0,100v320" style="stroke: rgb(255, 255, 255); stroke-opacity: 1; stroke-width: 1px;"/><path class="xgrid crisp" transform="translate(487.01,0)" d="M0,100v320" style="stroke: rgb(255, 255, 255); stroke-opacity: 1; stroke-width: 1px;"/><path class="xgrid crisp" transform="translate(588.11,0)" d="M0,100v320" style="stroke: rgb(255, 255, 255); stroke-opacity: 1; stroke-width: 1px;"/></g><g class="y"><path class="ygrid crisp" transform="translate(0,392.55)" d="M80,0h537" style="stroke: rgb(255, 255, 255); stroke-opacity: 1; stroke-width: 1px;"/><path class="ygrid crisp" transform="translate(0,349.77)" d="M80,0h537" style="stroke: rgb(255, 255, 255); stroke-opacity: 1; stroke-width: 1px;"/><path class="ygrid crisp" transform="translate(0,306.99)" d="M80,0h537" style="stroke: rgb(255, 255, 255); stroke-opacity: 1; stroke-width: 1px;"/><path class="ygrid crisp" transform="translate(0,264.21000000000004)" d="M80,0h537" style="stroke: rgb(255, 255, 255); stroke-opacity: 1; stroke-width: 1px;"/><path class="ygrid crisp" transform="translate(0,221.43)" d="M80,0h537" style="stroke: rgb(255, 255, 255); stroke-opacity: 1; stroke-width: 1px;"/><path class="ygrid crisp" transform="translate(0,178.65)" d="M80,0h537" style="stroke: rgb(255, 255, 255); stroke-opacity: 1; stroke-width: 1px;"/><path class="ygrid crisp" transform="translate(0,135.87)" d="M80,0h537" style="stroke: rgb(255, 255, 255); stroke-opacity: 1; stroke-width: 1px;"/></g></g><g class="zerolinelayer"/><path class="xlines-below"/><path class="ylines-below"/><g class="overlines-below"/><g class="xaxislayer-below"/><g class="yaxislayer-below"/><g class="overaxes-below"/><g class="plot" transform="translate(80,100)" clip-path="url('#clip6d62f4xyplot')"><g class="scatterlayer mlayer"><g class="trace scatter tracec61b60" style="stroke-miterlimit: 2; opacity: 1;"><g class="fills"/><g class="errorbars"/><g class="lines"><path class="js-line" d="M0,304L2.02,302.59L2.73,249.74L3.43,251.04L4.13,249.35L6.94,248.71L7.64,248.32L9.05,249.1L9.75,248.19L11.15,248.58L11.85,248.19L13.26,247.93L13.96,247.67L15.36,247.41L16.07,247.16L21.68,246.77L22.38,246.51L26.6,246.12L27.3,245.73L28.7,245.86L29.41,245.22L30.81,245.09L31.51,244.44L32.91,244.57L33.61,243.66L35.02,244.57L35.72,243.02L37.83,242.11L38.53,242.63L39.23,242.24L39.93,243.15L41.34,240.17L42.04,240.69L42.74,240.69L43.44,239.78L46.25,237.84L46.96,236.94L48.36,238.23L49.06,237.07L49.76,235L50.46,235.51L51.17,236.55L51.87,235L53.27,232.67L53.98,232.28L55.38,230.6L56.08,231.12L57.48,229.95L58.19,230.21L58.89,231.76L59.59,229.56L61.7,230.6L62.4,230.21L64.51,226.07L65.21,226.85L66.61,225.68L67.31,227.36L68.02,227.11L68.72,225.55L71.53,221.16L72.23,218.44L72.93,219.09L73.63,217.66L74.34,216.63L75.04,217.4L76.44,217.66L77.14,218.7L80.65,216.37L81.36,216.11L83.46,214.3L84.17,214.82L85.57,215.98L86.27,214.43L88.38,213.39L89.08,212.88L90.48,212.23L91.19,211.45L93.29,212.23L93.99,211.84L95.4,211.58L96.1,211.84L97.5,210.42L98.21,208.87L99.61,207.7L100.31,206.93L101.71,207.96L102.42,207.44L103.12,207.96L103.82,142.27L105.93,140.18L106.63,140.44L108.04,139.92L108.74,139.01L110.14,139.14L110.85,139.14L113.65,138.48L114.35,138.35L116.46,137.83L117.16,137.96L123.48,137.96L124.18,138.09L129.09,137.83L129.8,137.18L131.9,137.18L132.6,136.14L135.41,136.27L136.12,135.74L137.52,135.88L138.22,135.22L139.63,134.57L140.33,135.22L143.13,132.22L143.84,133.27L145.94,131.57L146.65,132.22L149.45,128.44L150.16,130.14L152.96,127.14L153.67,128.05L155.07,126.48L155.77,127.66L156.47,128.7L157.18,127.79L157.88,128.83L158.58,128.31L159.28,127.4L159.98,128.44L160.69,127.79L161.39,128.18L163.49,128.83L164.2,128.44L167.02,124.79L167.72,124.92L169.12,125.96L169.82,124.01L172.63,123.09L173.34,121.4L176.14,121.92L176.85,120.61L177.55,118.4L178.25,119.96L178.95,119.96L179.65,118.79L180.36,119.7L181.06,119.18L182.46,117.35L183.16,117.48L185.27,114.35L185.97,114.48L187.38,112.14L188.08,112.92L189.48,110.83L190.19,111.35L192.29,110.7L192.99,108.09L193.69,107.96L194.39,106.92L195.8,105.74L196.5,106L197.91,107.83L198.61,107.18L199.32,109.13L200.01,108.35L200.72,108.22L201.42,106.66L202.12,106.27L202.82,106.79L204.23,107.05L204.93,61.25L207.03,59.15L207.73,58.88L211.95,56.78L212.65,56.52L215.46,54.54L216.16,54.28L218.27,54.41L218.97,53.75L222.48,53.62L223.18,53.75L234.41,51.78L235.12,52.18L237.22,51.12L237.92,51.25L238.63,51.52L239.32,50.73L243.54,50.07L244.94,49.54L245.64,48.23L247.04,47.83L248.45,47.44L249.15,45.73L249.86,46.91L250.56,45.73L251.96,45.73L252.66,45.07L253.37,44.94L254.07,43.76L256.17,43.49L256.88,41.91L258.28,40.2L258.98,39.42L259.66,38.1L260.36,38.76L262.47,37.71L263.17,36L265.98,35.34L266.68,33.36L267.38,32.71L268.08,33.23L269.49,32.44L270.19,32.05L270.9,31.92L271.59,30.86L273,30.86L273.7,31.39L275.1,32.97L275.81,31.13L277.21,32.31L277.93,30.34L279.32,30.47L280.02,30.86L282.13,29.02L282.83,29.42L284.23,27.71L284.94,26.66L285.64,24.16L286.34,24.68L287.04,23.24L287.74,24.68L289.15,22.84L289.85,22.58L290.55,21.26L291.25,21.66L292.66,21.79L293.36,20.74L294.06,21.26L294.76,19.68L296.17,19.55L296.87,18.5L299.68,18.89L300.38,17.97L301.79,17.84L302.49,17.97L303.89,16L304.59,16.66L305.3,16.39L306,171.81L309.51,171.4L310.21,172.08L312.32,170.99L313.02,170.99L314.43,169.76L315.12,169.76L316.53,168.94L317.23,169.08L329.17,168.39L329.87,167.98L338.99,165.8L339.7,165.12L343.21,164.02L343.91,162.66L346.74,162.38L347.44,163.61L348.85,161.7L349.55,161.57L350.25,160.88L350.95,158.43L351.65,156.51L352.36,156.79L353.06,156.1L353.76,154.33L354.46,154.88L355.16,154.19L356.57,154.33L357.27,153.37L358.67,152.69L359.38,153.65L361.48,150.92L362.18,151.87L364.29,149.14L364.99,149.14L365.69,148.32L366.4,149.41L367.8,150.37L368.5,149.41L369.2,149.55L369.91,148.73L372.72,145.18L373.42,144.5L375.52,143.54L376.23,145.04L380.44,141.9L381.14,143.68L382.55,121.97L383.25,121.56L384.65,120.88L385.36,116.1L386.05,116.24L386.76,112.28L387.46,112.55L388.16,109.96L388.86,106.95L389.57,107.91L391.67,101.22L392.38,98.08L393.78,97.53L394.48,95.35L395.18,94.8L395.89,92.07L397.29,89.34L397.99,89.34L400.1,85.65L400.8,84.7L402.2,82.78L402.91,80.19L406.42,75L407.12,88.44L410.63,84.03L411.33,84.45L412.04,84.31L412.74,85.14L414.14,84.72L414.84,85.41L416.25,84.59L416.94,84.45L418.35,84.03L419.06,84.03L420.46,84.17L421.16,83.62L426.08,84.03L426.78,83.62L430.99,83.21L431.69,83.48L434.5,83.48L435.2,83.35L436.6,83.35L437.31,83.35L439.41,83.35L440.12,83.9L443.62,79.9L444.32,80.18L446.43,78.8L447.13,78.94L447.84,78.53L448.54,76.87L449.94,77.15L450.64,75.63L454.16,72.47L454.86,72.88L456.96,69.44L457.66,69.02L459.77,66.41L460.47,66.41L461.88,63.79L462.58,63.79L463.98,61.86L464.69,59.66L466.79,54.29L467.5,54.43L468.9,53.6L469.6,51.4L472.41,49.47L473.11,47.82L477.33,46.85L478.03,45.75L478.73,46.16L479.43,45.48L480.13,45.89L485.75,41.21L489.26,38.59L489.96,39.28L492.77,35.97L493.47,35.84L494.18,34.46L494.88,35.01L496.28,33.91L496.98,34.18L497.69,35.28L498.39,34.32L501.2,32.94L501.9,33.91L504.71,33.22L505.41,32.12L507.51,29.78L508.22,81.26L509.62,81.68L510.32,80.56L511.02,79.86L511.72,80.42L513.83,80.42L514.53,81.4L516.64,81.12L517.34,81.12L520.86,81.4L521.56,81.12L524.36,79.86L525.07,80.28L532.09,79.58L532.79,79.58L537,79.58" style="vector-effect: non-scaling-stroke; fill: none; stroke: rgb(99, 110, 250); stroke-opacity: 1; stroke-width: 2px; opacity: 1;"/></g><g class="points"/><g class="text"/></g></g></g><g class="overplot"/><path class="xlines-above crisp" d="M0,0" style="fill: none;"/><path class="ylines-above crisp" d="M0,0" style="fill: none;"/><g class="overlines-above"/><g class="xaxislayer-above"><g class="xtick"><text text-anchor="middle" x="0" y="433" transform="translate(82.62,0)" style="font-family: 'Open Sans', verdana, arial, sans-serif; font-size: 12px; fill: rgb(42, 63, 95); fill-opacity: 1; white-space: pre;"><tspan class="line" dy="0em" x="0" y="433">Aug 3</tspan><tspan class="line" dy="1.3em" x="0" y="433">2021</tspan></text></g><g class="xtick"><text text-anchor="middle" x="0" y="433" transform="translate(183.72,0)" style="font-family: 'Open Sans', verdana, arial, sans-serif; font-size: 12px; fill: rgb(42, 63, 95); fill-opacity: 1; white-space: pre;">Aug 4</text></g><g class="xtick"><text text-anchor="middle" x="0" y="433" transform="translate(284.82,0)" style="font-family: 'Open Sans', verdana, arial, sans-serif; font-size: 12px; fill: rgb(42, 63, 95); fill-opacity: 1; white-space: pre;">Aug 5</text></g><g class="xtick"><text text-anchor="middle" x="0" y="433" transform="translate(385.91,0)" style="font-family: 'Open Sans', verdana, arial, sans-serif; font-size: 12px; fill: rgb(42, 63, 95); fill-opacity: 1; white-space: pre;">Aug 6</text></g><g class="xtick"><text text-anchor="middle" x="0" y="433" transform="translate(487.01,0)" style="font-family: 'Open Sans', verdana, arial, sans-serif; font-size: 12px; fill: rgb(42, 63, 95); fill-opacity: 1; white-space: pre;">Aug 7</text></g><g class="xtick"><text text-anchor="middle" x="0" y="433" transform="translate(588.11,0)" style="font-family: 'Open Sans', verdana, arial, sans-serif; font-size: 12px; fill: rgb(42, 63, 95); fill-opacity: 1; white-space: pre;">Aug 8</text></g></g><g class="yaxislayer-above"><g class="ytick"><text text-anchor="end" x="79" y="4.199999999999999" transform="translate(0,392.55)" style="font-family: 'Open Sans', verdana, arial, sans-serif; font-size: 12px; fill: rgb(42, 63, 95); fill-opacity: 1; white-space: pre;">0.864</text></g><g class="ytick"><text text-anchor="end" x="79" y="4.199999999999999" transform="translate(0,349.77)" style="font-family: 'Open Sans', verdana, arial, sans-serif; font-size: 12px; fill: rgb(42, 63, 95); fill-opacity: 1; white-space: pre;">0.865</text></g><g class="ytick"><text text-anchor="end" x="79" y="4.199999999999999" transform="translate(0,306.99)" style="font-family: 'Open Sans', verdana, arial, sans-serif; font-size: 12px; fill: rgb(42, 63, 95); fill-opacity: 1; white-space: pre;">0.866</text></g><g class="ytick"><text text-anchor="end" x="79" y="4.199999999999999" transform="translate(0,264.21000000000004)" style="font-family: 'Open Sans', verdana, arial, sans-serif; font-size: 12px; fill: rgb(42, 63, 95); fill-opacity: 1; white-space: pre;">0.867</text></g><g class="ytick"><text text-anchor="end" x="79" y="4.199999999999999" transform="translate(0,221.43)" style="font-family: 'Open Sans', verdana, arial, sans-serif; font-size: 12px; fill: rgb(42, 63, 95); fill-opacity: 1; white-space: pre;">0.868</text></g><g class="ytick"><text text-anchor="end" x="79" y="4.199999999999999" transform="translate(0,178.65)" style="font-family: 'Open Sans', verdana, arial, sans-serif; font-size: 12px; fill: rgb(42, 63, 95); fill-opacity: 1; white-space: pre;">0.869</text></g><g class="ytick"><text text-anchor="end" x="79" y="4.199999999999999" transform="translate(0,135.87)" style="font-family: 'Open Sans', verdana, arial, sans-serif; font-size: 12px; fill: rgb(42, 63, 95); fill-opacity: 1; white-space: pre;">0.87</text></g></g><g class="overaxes-above"/></g></g><g class="polarlayer"/><g class="ternarylayer"/><g class="geolayer"/><g class="funnelarealayer"/><g class="pielayer"/><g class="treemaplayer"/><g class="sunburstlayer"/><g class="glimages"/><defs id="topdefs-6d62f4"><g class="clips"/><clipPath id="legend6d62f4"><rect width="60" height="45" x="0" y="0"/></clipPath></defs><g class="layer-above"><g class="imagelayer"/><g class="shapelayer"/></g><g class="infolayer"><g class="legend" pointer-events="all" transform="translate(627.74,100)"><rect class="bg" shape-rendering="crispEdges" width="60" height="45" x="0" y="0" style="stroke: rgb(68, 68, 68); stroke-opacity: 1; fill: rgb(255, 255, 255); fill-opacity: 1; stroke-width: 0px;"/><g class="scrollbox" transform="" clip-path="url('#legend6d62f4')"><text class="legendtitletext" text-anchor="start" x="2" y="15.600000000000001" style="font-family: 'Open Sans', verdana, arial, sans-serif; font-size: 12px; fill: rgb(42, 63, 95); fill-opacity: 1; white-space: pre;">All</text><g class="groups" transform=""><g class="traces" transform="translate(0,30.1)" style="opacity: 1;"><text class="legendtext" text-anchor="start" x="40" y="4.680000000000001" style="font-family: 'Open Sans', verdana, arial, sans-serif; font-size: 12px; fill: rgb(42, 63, 95); fill-opacity: 1; white-space: pre;">All</text><g class="layers" style="opacity: 1;"><g class="legendfill"/><g class="legendlines"><path class="js-line" d="M5,0h30" style="fill: none; stroke: rgb(99, 110, 250); stroke-opacity: 1; stroke-width: 2px;"/></g><g class="legendsymbols"><g class="legendpoints"/></g></g><rect class="legendtoggle" x="0" y="-9.5" width="54.890625" height="19" style="fill: rgb(0, 0, 0); fill-opacity: 0;"/></g></g></g><rect class="scrollbar" rx="20" ry="3" width="0" height="0" x="0" y="0" style="fill: rgb(128, 139, 164); fill-opacity: 1;"/></g><g class="g-gtitle"><text class="gtitle" x="35" y="50" text-anchor="start" dy="0em" style="font-family: 'Open Sans', verdana, arial, sans-serif; font-size: 17px; fill: rgb(42, 63, 95); opacity: 1; font-weight: normal; white-space: pre;">Singapore Vaccination Centers</text></g><g class="g-xtitle"><text class="xtitle" x="348.5" y="476.409375" text-anchor="middle" style="font-family: 'Open Sans', verdana, arial, sans-serif; font-size: 14px; fill: rgb(42, 63, 95); opacity: 1; font-weight: normal; white-space: pre;">Time</text></g><g class="g-ytitle"><text class="ytitle" transform="rotate(-90,19.840625000000003,260)" x="19.840625000000003" y="260" text-anchor="middle" style="font-family: 'Open Sans', verdana, arial, sans-serif; font-size: 14px; fill: rgb(42, 63, 95); opacity: 1; font-weight: normal; white-space: pre;">Filled/%</text></g></g></svg>