<svg class="main-svg" xmlns="http://www.w3.org/2000/svg" xmlns:xlink="http://www.w3.org/1999/xlink" width="700" height="500" style="" viewBox="0 0 700 500"><rect x="0" y="0" width="700" height="500" style="fill: rgb(255, 255, 255); fill-opacity: 1;"/><defs id="defs-9dd436"><g class="clips"><clipPath id="clip9dd436xyplot" class="plotclip"><rect width="537" height="320"/></clipPath><clipPath class="axesclip" id="clip9dd436x"><rect x="80" y="0" width="537" height="500"/></clipPath><clipPath class="axesclip" id="clip9dd436y"><rect x="0" y="100" width="700" height="320"/></clipPath><clipPath class="axesclip" id="clip9dd436xy"><rect x="80" y="100" width="537" height="320"/></clipPath></g><g class="gradients"/></defs><g class="bglayer"><rect class="bg" x="80" y="100" width="537" height="320" style="fill: rgb(229, 236, 246); fill-opacity: 1; stroke-width: 0;"/></g><g class="layer-below"><g class="imagelayer"/><g class="shapelayer"/></g><g class="cartesianlayer"><g class="subplot xy"><g class="layer-subplot"><g class="shapelayer"/><g class="imagelayer"/></g><g class="gridlayer"><g class="x"><path class="xgrid crisp" transform="translate(90.5,0)" d="M0,100v320" style="stroke: rgb(255, 255, 255); stroke-opacity: 1; stroke-width: 1px;"/><path class="xgrid crisp" transform="translate(203.56,0)" d="M0,100v320" style="stroke: rgb(255, 255, 255); stroke-opacity: 1; stroke-width: 1px;"/><path class="xgrid crisp" transform="translate(316.63,0)" d="M0,100v320" style="stroke: rgb(255, 255, 255); stroke-opacity: 1; stroke-width: 1px;"/><path class="xgrid crisp" transform="translate(429.69,0)" d="M0,100v320" style="stroke: rgb(255, 255, 255); stroke-opacity: 1; stroke-width: 1px;"/><path class="xgrid crisp" transform="translate(542.75,0)" d="M0,100v320" style="stroke: rgb(255, 255, 255); stroke-opacity: 1; stroke-width: 1px;"/></g><g class="y"><path class="ygrid crisp" transform="translate(0,367.23)" d="M80,0h537" style="stroke: rgb(255, 255, 255); stroke-opacity: 1; stroke-width: 1px;"/><path class="ygrid crisp" transform="translate(0,308.43)" d="M80,0h537" style="stroke: rgb(255, 255, 255); stroke-opacity: 1; stroke-width: 1px;"/><path class="ygrid crisp" transform="translate(0,249.63)" d="M80,0h537" style="stroke: rgb(255, 255, 255); stroke-opacity: 1; stroke-width: 1px;"/><path class="ygrid crisp" transform="translate(0,190.82999999999998)" d="M80,0h537" style="stroke: rgb(255, 255, 255); stroke-opacity: 1; stroke-width: 1px;"/><path class="ygrid crisp" transform="translate(0,132.03)" d="M80,0h537" style="stroke: rgb(255, 255, 255); stroke-opacity: 1; stroke-width: 1px;"/></g></g><g class="zerolinelayer"/><path class="xlines-below"/><path class="ylines-below"/><g class="overlines-below"/><g class="xaxislayer-below"/><g class="yaxislayer-below"/><g class="overaxes-below"/><g class="plot" transform="translate(80,100)" clip-path="url('#clip9dd436xyplot')"><g class="scatterlayer mlayer"><g class="trace scatter trace28554c" style="stroke-miterlimit: 2; opacity: 1;"><g class="fills"/><g class="errorbars"/><g class="lines"><path class="js-line" d="M0,82.28L6.63,82.51L8.98,120.48L13.67,120.57L15.41,136.92L16.14,136.9L33.48,137.96L34.56,121.23L34.89,129.62L35.67,129.56L37.24,126.37L38.03,126.27L39.6,129.79L40.38,129.7L41.95,132.71L42.74,132.63L44.31,120.69L45.1,120.62L46.66,132.64L47.45,132.55L49.02,126.68L51.38,113.21L52.16,109.51L56.08,74.17L56.87,72.87L58.44,78.78L59.23,77.73L61.58,62.82L63.15,65.47L63.94,64.83L65.51,74.27L66.29,73.83L67.33,51.83L68.65,52.34L69.43,52.21L78.86,51.77L79.64,51.77L89.06,50.91L89.84,50.65L117.33,42.03L118.11,41.83L122.83,40.95L123.61,41.79L136.96,41.47L137.74,41.46L149.52,40.8L150.3,40.69L179.35,36.83L180.14,35.53L210.76,34L211.55,33.87L235.89,31.05L236.68,28.56L263.37,27.81L264.16,95.38L272.82,93.57L273.58,93.44L274.36,93.12L275.15,91.51L277.51,88.51L278.29,87.52L282.22,73.59L283,72.39L287.71,67.88L288.5,67.37L292.42,65.43L293.21,65.5L298.7,64.8L299.49,64.77L316.76,63.66L317.55,63.48L323.04,61.32L323.83,60.89L324.61,60.46L325.4,62.78L328.54,61.15L329.33,59.94L334.04,53.24L334.82,52.44L337.96,47.98L338.75,45.51L341.89,38.66L342.67,37.65L347.38,32.89L348.2,32.47L350.52,31.98L351.31,31.8L357.59,31.18L358.38,31.16L370.15,30.17L370.94,29.9L375.65,28.09L376.43,74.81L378.01,73.22L378.79,72.76L387.43,68.8L388.03,71.93L388.96,68.25L389,69.25L389.75,67.95L389.79,68.94L390.57,68.62L392.14,68.09L392.92,76.43L399.8,73.91L399.83,72.31L399.87,72.03L399.99,73.74L407.45,44.74L407.84,44.87L408.24,41.95L409.02,42.12L409.41,43.2L410.59,37.43L410.98,41.6L412.16,39.66L412.55,39.05L413.73,38.13L414.12,38.96L414.52,38.26L414.91,38.53L415.3,38.42L416.48,38.4L416.87,43.02L421.19,41.69L421.58,36.5L422.37,35.76L422.76,35.39L423.94,33.79L424.33,33.41L427.47,22.43L427.86,16L428.25,16.8L428.65,140.18L429.04,139.22L429.43,142.07L430.22,136.79L430.61,138.99L431.4,136.15L431.79,136.63L432.18,141.25L432.57,146.68L432.97,133.42L433.75,138.09L434.14,157.2L435.32,133.53L435.71,145.44L436.11,148.42L436.5,146.68L436.89,144.02L437.68,134.36L438.07,135.71L438.46,141.84L438.85,146.05L439.25,142.1L439.64,141.74L440.03,151.77L440.82,140.84L441.21,148.68L442,127.07L442.39,137.58L443.17,140.49L443.57,138.92L444.35,130.34L444.74,131.67L445.14,129.31L445.53,138.25L445.92,134.05L446.31,138.68L446.71,138.81L447.1,131.49L447.49,131.42L447.88,140.05L448.67,132.48L449.06,138.41L449.85,141.46L450.24,128.79L451.03,142.96L451.42,264.58L452.21,292.55L452.6,293.12L452.99,304L453.39,286.22L453.77,301.52L454.17,291.75L454.56,292.1L454.95,291.07L455.35,294.16L455.74,293.46L456.13,276.02L456.52,283.67L456.92,262.28L457.7,272.54L458.09,248.89L458.88,241.71L459.27,229.6L459.66,224.98L460.06,228.24L460.45,227.36L461.63,215.22L462.02,217.06L462.41,216.4L462.8,227.08L463.2,226.08L463.59,228.38L463.98,228.68L464.37,224.72L464.77,233.57L465.16,224.28L465.94,227.75L466.34,223.07L467.12,226.33L467.52,223.26L467.91,224.52L468.3,234.01L468.69,220.81L469.09,231.91L469.48,224.2L471.83,212.72L472.23,220.76L473.01,220.72L473.4,223.7L473.8,223.67L474.19,219.37L474.58,223.08L474.97,218.62L475.37,226.76L475.76,225.2L476.15,224.19L476.54,219.51L476.94,225.16L478.11,225.11L478.51,216.49L478.9,225.05L479.29,220.43L479.68,220.57L480.08,218.19L480.47,220.92L480.87,219.84L481.25,227.36L481.65,216.65L482.04,220.1L482.43,220.01L483.22,220.98L483.61,218.78L484.39,223.64L484.79,218.66L485.18,205.85L485.58,215.25L485.96,220.32L486.36,206.18L486.75,206.81L487.14,214.16L487.54,214.11L487.93,206.99L488.72,212.47L489.11,202.23L489.5,199.24L489.9,208.71L490.29,224.84L490.67,215.2L491.07,214.49L491.46,205.74L491.85,219.6L492.64,195.82L493.03,209.77L493.42,208.24L493.82,203.32L494.21,202.05L494.6,205.17L495,200.81L495.39,208.16L495.78,206.35L496.17,209.96L496.56,207.44L496.96,196.45L497.35,195.36L497.74,196.45L498.13,201.41L499.31,210.92L499.7,197.09L500.1,197.31L500.49,191.05L500.88,191.24L501.27,196.07L501.67,200.65L502.06,194.37L503.24,210.5L503.63,204.27L504.41,191.94L504.81,193.62L505.2,197L505.59,205.03L505.99,197.14L506.38,198.57L506.77,192.99L507.95,184.28L508.34,189.51L509.13,194.59L509.52,189.23L509.91,191.91L510.3,189.81L510.7,182.31L511.09,187.7L511.48,187L511.87,183.28L512.27,186.18L512.66,185.69L513.06,181.61L513.45,182.61L513.84,186.54L514.62,187.68L515.02,186.58L515.41,181.49L515.8,187.81L516.59,185.81L516.98,187.22L517.37,189.17L517.77,187L518.95,194.82L519.34,189.57L519.73,183.36L520.12,189.2L520.51,186.45L520.91,187.34L521.3,187.88L521.69,187.85L522.08,183.53L523.26,187.65L523.66,184.59L524.44,184.25L524.83,185.71L525.62,187.3L526.01,187.29L526.79,197.68L527.19,195.53L527.58,195.52L527.97,190.33L528.37,190.33L528.76,186.49L530.33,194.95L530.72,194.95L531.11,195.4L531.51,193.58L531.9,193.58L532.29,187.5L533.08,187.5L533.47,190.84L533.86,186.76L534.25,190.68L534.65,186.75L535.04,187.03L535.43,187.03L535.82,188.23L536.22,187.2L536.61,186.53L537,186.53" style="vector-effect: non-scaling-stroke; fill: none; stroke: rgb(99, 110, 250); stroke-opacity: 1; stroke-width: 2px; opacity: 1;"/></g><g class="points"/><g class="text"/></g></g></g><g class="overplot"/><path class="xlines-above crisp" d="M0,0" style="fill: none;"/><path class="ylines-above crisp" d="M0,0" style="fill: none;"/><g class="overlines-above"/><g class="xaxislayer-above"><g class="xtick"><text text-anchor="middle" x="0" y="433" transform="translate(90.5,0)" style="font-family: 'Open Sans', verdana, arial, sans-serif; font-size: 12px; fill: rgb(42, 63, 95); fill-opacity: 1; white-space: pre;"><tspan class="line" dy="0em" x="0" y="433">Jun 4</tspan><tspan class="line" dy="1.3em" x="0" y="433">2021</tspan></text></g><g class="xtick"><text text-anchor="middle" x="0" y="433" transform="translate(203.56,0)" style="font-family: 'Open Sans', verdana, arial, sans-serif; font-size: 12px; fill: rgb(42, 63, 95); fill-opacity: 1; white-space: pre;">Jun 6</text></g><g class="xtick"><text text-anchor="middle" x="0" y="433" transform="translate(316.63,0)" style="font-family: 'Open Sans', verdana, arial, sans-serif; font-size: 12px; fill: rgb(42, 63, 95); fill-opacity: 1; white-space: pre;">Jun 8</text></g><g class="xtick"><text text-anchor="middle" x="0" y="433" transform="translate(429.69,0)" style="font-family: 'Open Sans', verdana, arial, sans-serif; font-size: 12px; fill: rgb(42, 63, 95); fill-opacity: 1; white-space: pre;">Jun 10</text></g><g class="xtick"><text text-anchor="middle" x="0" y="433" transform="translate(542.75,0)" style="font-family: 'Open Sans', verdana, arial, sans-serif; font-size: 12px; fill: rgb(42, 63, 95); fill-opacity: 1; white-space: pre;">Jun 12</text></g></g><g class="yaxislayer-above"><g class="ytick"><text text-anchor="end" x="79" y="4.199999999999999" transform="translate(0,367.23)" style="font-family: 'Open Sans', verdana, arial, sans-serif; font-size: 12px; fill: rgb(42, 63, 95); fill-opacity: 1; white-space: pre;">0.8</text></g><g class="ytick"><text text-anchor="end" x="79" y="4.199999999999999" transform="translate(0,308.43)" style="font-family: 'Open Sans', verdana, arial, sans-serif; font-size: 12px; fill: rgb(42, 63, 95); fill-opacity: 1; white-space: pre;">0.82</text></g><g class="ytick"><text text-anchor="end" x="79" y="4.199999999999999" transform="translate(0,249.63)" style="font-family: 'Open Sans', verdana, arial, sans-serif; font-size: 12px; fill: rgb(42, 63, 95); fill-opacity: 1; white-space: pre;">0.84</text></g><g class="ytick"><text text-anchor="end" x="79" y="4.199999999999999" transform="translate(0,190.82999999999998)" style="font-family: 'Open Sans', verdana, arial, sans-serif; font-size: 12px; fill: rgb(42, 63, 95); fill-opacity: 1; white-space: pre;">0.86</text></g><g class="ytick"><text text-anchor="end" x="79" y="4.199999999999999" transform="translate(0,132.03)" style="font-family: 'Open Sans', verdana, arial, sans-serif; font-size: 12px; fill: rgb(42, 63, 95); fill-opacity: 1; white-space: pre;">0.88</text></g></g><g class="overaxes-above"/></g></g><g class="polarlayer"/><g class="ternarylayer"/><g class="geolayer"/><g class="funnelarealayer"/><g class="pielayer"/><g class="treemaplayer"/><g class="sunburstlayer"/><g class="glimages"/><defs id="topdefs-9dd436"><g class="clips"/><clipPath id="legend9dd436"><rect width="60" height="45" x="0" y="0"/></clipPath></defs><g class="layer-above"><g class="imagelayer"/><g class="shapelayer"/></g><g class="infolayer"><g class="legend" pointer-events="all" transform="translate(627.74,100)"><rect class="bg" shape-rendering="crispEdges" width="60" height="45" x="0" y="0" style="stroke: rgb(68, 68, 68); stroke-opacity: 1; fill: rgb(255, 255, 255); fill-opacity: 1; stroke-width: 0px;"/><g class="scrollbox" transform="" clip-path="url('#legend9dd436')"><text class="legendtitletext" text-anchor="start" x="2" y="15.600000000000001" style="font-family: 'Open Sans', verdana, arial, sans-serif; font-size: 12px; fill: rgb(42, 63, 95); fill-opacity: 1; white-space: pre;">All</text><g class="groups" transform=""><g class="traces" transform="translate(0,30.1)" style="opacity: 1;"><text class="legendtext" text-anchor="start" x="40" y="4.680000000000001" style="font-family: 'Open Sans', verdana, arial, sans-serif; font-size: 12px; fill: rgb(42, 63, 95); fill-opacity: 1; white-space: pre;">All</text><g class="layers" style="opacity: 1;"><g class="legendfill"/><g class="legendlines"><path class="js-line" d="M5,0h30" style="fill: none; stroke: rgb(99, 110, 250); stroke-opacity: 1; stroke-width: 2px;"/></g><g class="legendsymbols"><g class="legendpoints"/></g></g><rect class="legendtoggle" x="0" y="-9.5" width="54.890625" height="19" style="fill: rgb(0, 0, 0); fill-opacity: 0;"/></g></g></g><rect class="scrollbar" rx="20" ry="3" width="0" height="0" x="0" y="0" style="fill: rgb(128, 139, 164); fill-opacity: 1;"/></g><g class="g-gtitle"><text class="gtitle" x="35" y="50" text-anchor="start" dy="0em" style="font-family: 'Open Sans', verdana, arial, sans-serif; font-size: 17px; fill: rgb(42, 63, 95); opacity: 1; font-weight: normal; white-space: pre;">Singapore Vaccination Centers</text></g><g class="g-xtitle"><text class="xtitle" x="348.5" y="476.409375" text-anchor="middle" style="font-family: 'Open Sans', verdana, arial, sans-serif; font-size: 14px; fill: rgb(42, 63, 95); opacity: 1; font-weight: normal; white-space: pre;">Time</text></g><g class="g-ytitle"><text class="ytitle" transform="rotate(-90,27.481250000000003,260)" x="27.481250000000003" y="260" text-anchor="middle" style="font-family: 'Open Sans', verdana, arial, sans-serif; font-size: 14px; fill: rgb(42, 63, 95); opacity: 1; font-weight: normal; white-space: pre;">Filled/%</text></g></g></svg>