<svg class="main-svg" xmlns="http://www.w3.org/2000/svg" xmlns:xlink="http://www.w3.org/1999/xlink" width="700" height="500" style="" viewBox="0 0 700 500"><rect x="0" y="0" width="700" height="500" style="fill: rgb(255, 255, 255); fill-opacity: 1;"/><defs id="defs-a96015"><g class="clips"><clipPath id="clipa96015xyplot" class="plotclip"><rect width="537" height="320"/></clipPath><clipPath class="axesclip" id="clipa96015x"><rect x="80" y="0" width="537" height="500"/></clipPath><clipPath class="axesclip" id="clipa96015y"><rect x="0" y="100" width="700" height="320"/></clipPath><clipPath class="axesclip" id="clipa96015xy"><rect x="80" y="100" width="537" height="320"/></clipPath></g><g class="gradients"/></defs><g class="bglayer"><rect class="bg" x="80" y="100" width="537" height="320" style="fill: rgb(229, 236, 246); fill-opacity: 1; stroke-width: 0;"/></g><g class="layer-below"><g class="imagelayer"/><g class="shapelayer"/></g><g class="cartesianlayer"><g class="subplot xy"><g class="layer-subplot"><g class="shapelayer"/><g class="imagelayer"/></g><g class="gridlayer"><g class="x"><path class="xgrid crisp" transform="translate(82.18,0)" d="M0,100v320" style="stroke: rgb(255, 255, 255); stroke-opacity: 1; stroke-width: 1px;"/><path class="xgrid crisp" transform="translate(166.15,0)" d="M0,100v320" style="stroke: rgb(255, 255, 255); stroke-opacity: 1; stroke-width: 1px;"/><path class="xgrid crisp" transform="translate(250.12,0)" d="M0,100v320" style="stroke: rgb(255, 255, 255); stroke-opacity: 1; stroke-width: 1px;"/><path class="xgrid crisp" transform="translate(334.09000000000003,0)" d="M0,100v320" style="stroke: rgb(255, 255, 255); stroke-opacity: 1; stroke-width: 1px;"/><path class="xgrid crisp" transform="translate(418.06,0)" d="M0,100v320" style="stroke: rgb(255, 255, 255); stroke-opacity: 1; stroke-width: 1px;"/><path class="xgrid crisp" transform="translate(502.03,0)" d="M0,100v320" style="stroke: rgb(255, 255, 255); stroke-opacity: 1; stroke-width: 1px;"/><path class="xgrid crisp" transform="translate(586,0)" d="M0,100v320" style="stroke: rgb(255, 255, 255); stroke-opacity: 1; stroke-width: 1px;"/></g><g class="y"><path class="ygrid crisp" transform="translate(0,393.1)" d="M80,0h537" style="stroke: rgb(255, 255, 255); stroke-opacity: 1; stroke-width: 1px;"/><path class="ygrid crisp" transform="translate(0,352.39)" d="M80,0h537" style="stroke: rgb(255, 255, 255); stroke-opacity: 1; stroke-width: 1px;"/><path class="ygrid crisp" transform="translate(0,311.66999999999996)" d="M80,0h537" style="stroke: rgb(255, 255, 255); stroke-opacity: 1; stroke-width: 1px;"/><path class="ygrid crisp" transform="translate(0,270.96000000000004)" d="M80,0h537" style="stroke: rgb(255, 255, 255); stroke-opacity: 1; stroke-width: 1px;"/><path class="ygrid crisp" transform="translate(0,230.24)" d="M80,0h537" style="stroke: rgb(255, 255, 255); stroke-opacity: 1; stroke-width: 1px;"/><path class="ygrid crisp" transform="translate(0,189.53)" d="M80,0h537" style="stroke: rgb(255, 255, 255); stroke-opacity: 1; stroke-width: 1px;"/><path class="ygrid crisp" transform="translate(0,148.81)" d="M80,0h537" style="stroke: rgb(255, 255, 255); stroke-opacity: 1; stroke-width: 1px;"/><path class="ygrid crisp" transform="translate(0,108.1)" d="M80,0h537" style="stroke: rgb(255, 255, 255); stroke-opacity: 1; stroke-width: 1px;"/></g></g><g class="zerolinelayer"/><path class="xlines-below"/><path class="ylines-below"/><g class="overlines-below"/><g class="xaxislayer-below"/><g class="yaxislayer-below"/><g class="overaxes-below"/><g class="plot" transform="translate(80,100)" clip-path="url('#clipa96015xyplot')"><g class="scatterlayer mlayer"><g class="trace scatter trace5f6348" style="stroke-miterlimit: 2; opacity: 1;"><g class="fills"/><g class="errorbars"/><g class="lines"><path class="js-line" d="M0,304L1.68,302.66L2.26,252.36L2.85,253.59L3.43,251.99L5.76,251.38L6.35,251.01L7.51,251.75L8.1,250.88L9.26,251.25L9.85,250.88L11.01,250.64L11.59,250.39L12.76,250.15L13.35,249.9L20.92,249.53L21.51,249.04L25.59,247.93L26.17,247.31L27.34,247.44L27.92,246.58L29.09,247.44L29.67,245.96L31.42,245.1L32,245.59L32.59,245.22L33.17,246.08L34.34,243.25L34.92,243.74L35.5,243.74L36.08,242.88L39,240.17L39.58,241.16L40.16,241.41L40.75,240.3L41.33,238.33L41.92,238.82L42.5,239.8L44.83,235.74L45.41,234.88L46,234.14L46.58,234.63L47.75,233.53L48.33,233.77L48.91,235.25L49.5,233.16L51.83,233.77L52.41,231.8L53.58,229.83L54.16,230.57L55.33,229.46L55.91,231.06L56.49,230.82L57.08,229.34L59.41,225.15L59.99,222.57L60.58,223.18L61.16,221.83L61.74,220.85L62.33,221.58L63.49,221.83L64.07,222.82L66.99,220.6L67.57,220.35L69.91,219.12L70.49,220.23L71.07,220.23L71.65,218.75L73.99,217.28L74.57,217.15L76.32,216.29L76.9,216.17L78.07,216.29L78.65,215.92L80.4,215.8L80.98,214.94L82.74,212.35L83.32,211.61L84.48,212.6L85.07,212.1L85.65,212.6L86.24,150.07L88.57,148.34L89.15,148.21L91.48,147.09L92.07,147.09L94.98,146.35L95.56,145.98L100.23,145.36L100.82,145.73L105.48,145.98L106.06,145.85L108.98,145.23L109.56,145.23L110.73,144.36L111.31,144.74L112.47,144.36L113.06,143.87L114.22,143.99L114.8,143.37L116.56,143.37L117.14,142.38L118.89,140.51L119.47,141.51L121.22,139.89L121.8,140.51L124.14,136.91L124.72,138.53L127.05,135.67L127.64,136.54L128.8,135.05L129.38,136.17L129.97,137.16L130.55,136.29L131.13,137.29L131.72,136.79L132.3,135.92L132.88,136.91L134.05,136.67L134.63,137.04L135.8,137.29L136.38,136.91L138.72,133.44L139.3,133.56L140.47,134.56L141.06,132.69L143.39,131.82L143.97,130.21L146.3,130.71L146.89,129.47L147.47,127.36L148.05,128.85L148.64,128.85L149.22,127.73L149.8,128.6L150.38,128.1L151.55,126.36L152.14,126.49L153.89,123.51L154.47,123.63L155.64,121.4L156.22,122.14L157.38,120.15L157.97,120.65L159.72,120.03L160.3,117.55L160.88,117.42L161.46,116.43L162.05,115.06L162.63,115.31L163.22,115.56L164.38,117.3L164.96,116.68L165.55,118.54L166.13,117.8L166.71,117.67L167.3,116.18L168.46,116.31L169.05,116.18L169.63,116.55L170.21,72.97L171.96,70.97L172.54,70.72L177.79,67.59L178.38,67.46L179.54,66.33L180.13,66.33L181.29,66.46L181.88,65.83L190.04,64.58L190.62,64.83L194.12,63.7L194.7,63.96L195.87,63.83L196.45,63.96L197.61,63.45L198.2,63.7L199.37,62.95L199.95,62.83L200.53,62.33L202.28,62.33L203.45,61.83L204.03,60.57L206.36,59.82L206.95,58.2L207.53,59.32L208.11,58.2L209.28,58.2L209.86,57.57L210.45,57.44L211.03,56.32L212.78,56.07L213.36,54.57L215.68,50.93L216.25,51.56L218.01,50.56L218.59,48.93L220.92,48.31L221.5,46.43L222.09,45.8L222.67,46.3L225.01,45.05L225.59,44.05L226.75,44.05L227.33,44.55L228.5,46.05L229.09,44.3L230.25,45.43L230.84,43.55L232,43.67L232.59,44.05L234.34,42.3L234.92,42.67L236.08,41.04L236.67,40.04L237.25,37.66L237.84,38.16L238.41,36.79L239,38.16L239.58,36.66L240.75,36.16L241.33,34.91L243.08,35.41L243.66,34.41L244.25,34.91L244.83,33.41L246,33.28L246.58,32.28L248.91,32.66L249.49,31.78L250.66,31.65L251.25,31.78L252.41,29.9L252.99,30.53L253.58,30.28L254.16,178.19L257.08,177.8L257.66,178.45L259.41,177.41L259.99,177.41L261.16,176.24L261.74,176.24L263.49,175.59L264.08,175.59L268.16,175.2L268.74,175.2L272.82,174.94L273.41,174.94L275.74,174.03L276.32,174.29L279.82,173.51L280.4,173.38L282.73,171.69L283.31,171.17L285.07,170.78L285.65,169.48L288,169.22L288.58,170.39L289.75,168.57L290.33,168.44L290.92,167.79L291.5,165.45L292.08,163.63L292.67,163.89L293.25,163.24L293.83,161.55L294.42,162.07L295,161.42L296.17,161.55L296.75,160.64L297.91,159.99L298.5,160.9L300.25,158.31L300.83,159.21L302.58,156.62L303.16,156.62L303.74,155.84L304.33,156.88L305.5,157.79L306.08,156.88L306.66,157.01L307.25,156.23L310.16,152.2L310.74,151.68L311.91,151.29L312.49,152.72L315.99,149.73L316.57,151.42L317.74,130.76L318.33,130.37L319.49,129.72L320.08,125.17L320.66,125.3L321.24,121.53L321.82,121.79L322.41,119.32L322.99,116.46L323.57,117.37L324.16,115.68L324.74,114.38L325.32,111.01L326.49,108.02L327.07,107.5L329.99,99.7L330.57,99.7L332.32,96.19L332.9,95.28L337.57,86.06L338.15,98.85L341.07,94.65L341.65,95.05L342.24,94.91L342.82,95.7L343.99,95.31L344.57,95.96L346.31,95.05L346.9,95.18L348.07,94.65L348.65,94.78L355.06,94.13L355.65,94L364.97,94L365.56,94.52L368.47,90.72L369.05,90.98L370.81,89.67L371.39,89.8L371.97,89.41L372.55,87.84L373.72,88.1L374.3,86.66L377.22,83.64L377.8,84.04L379.55,80.76L380.13,80.37L381.89,77.88L382.47,77.88L383.64,75.39L384.21,75.39L385.38,73.55L385.97,71.45L388.3,66.47L388.88,66.08L389.46,65.69L390.05,63.59L392.38,61.76L392.96,60.18L396.47,59.27L397.05,58.22L397.63,58.61L398.21,57.95L398.8,58.35L403.46,53.89L406.38,51.4L406.96,52.06L409.29,48.91L409.88,48.78L410.46,47.47L411.04,47.99L411.62,47.34L412.79,47.21L413.38,48.26L414.54,47.08L415.13,46.95L416.29,46.03L416.88,46.95L419.21,46.29L419.79,45.24L421.54,43.01L422.12,92.01L423.29,92.41L423.87,91.34L424.45,90.68L425.04,91.21L426.79,91.21L427.37,92.15L429.7,91.88L430.29,92.01L432.04,92.15L432.62,92.15L435.54,90.68L436.12,91.08L441.95,90.41L442.53,90.41L448.95,90.14L449.53,90.01L452.44,89.61L453.03,89.21L454.19,88.67L454.78,87.74L455.94,87.34L456.53,86L457.11,84.67L457.69,86L460.02,85.07L460.61,85.07L461.78,83.07L462.36,82.8L464.11,80L464.69,79.86L466.44,79.46L467.02,78.66L468.19,77.99L468.77,78.13L469.94,76.66L470.52,75.99L472.85,75.06L473.44,75.46L474.02,74.92L474.6,75.59L475.77,72.25L476.36,72.52L476.94,72.52L478.68,71.99L479.27,70.79L482.19,68.38L482.77,68.65L486.27,66.25L486.85,65.31L487.43,65.71L488.02,64.91L489.18,65.05L489.76,64.91L490.93,64.11L491.52,63.31L493.26,62.24L493.85,60.77L496.18,59.3L496.76,57.57L497.93,55.7L498.51,56.37L501.43,54.5L502.01,54.5L503.18,53.16L503.76,53.16L505.51,53.16L506.09,20.58L510.76,17.08L511.34,17.21L513.09,16.94L513.67,16.54L516.01,17.35L516.59,17.35L521.25,17.08L521.84,16.94L531.75,16.94L532.34,17.35L534.66,16.81L535.25,16.94L535.83,16L536.42,17.21L537,17.08" style="vector-effect: non-scaling-stroke; fill: none; stroke: rgb(99, 110, 250); stroke-opacity: 1; stroke-width: 2px; opacity: 1;"/></g><g class="points"/><g class="text"/></g></g></g><g class="overplot"/><path class="xlines-above crisp" d="M0,0" style="fill: none;"/><path class="ylines-above crisp" d="M0,0" style="fill: none;"/><g class="overlines-above"/><g class="xaxislayer-above"><g class="xtick"><text text-anchor="middle" x="0" y="433" transform="translate(82.18,0)" style="font-family: 'Open Sans', verdana, arial, sans-serif; font-size: 12px; fill: rgb(42, 63, 95); fill-opacity: 1; white-space: pre;"><tspan class="line" dy="0em" x="0" y="433">Aug 3</tspan><tspan class="line" dy="1.3em" x="0" y="433">2021</tspan></text></g><g class="xtick"><text text-anchor="middle" x="0" y="433" transform="translate(166.15,0)" style="font-family: 'Open Sans', verdana, arial, sans-serif; font-size: 12px; fill: rgb(42, 63, 95); fill-opacity: 1; white-space: pre;">Aug 4</text></g><g class="xtick"><text text-anchor="middle" x="0" y="433" transform="translate(250.12,0)" style="font-family: 'Open Sans', verdana, arial, sans-serif; font-size: 12px; fill: rgb(42, 63, 95); fill-opacity: 1; white-space: pre;">Aug 5</text></g><g class="xtick"><text text-anchor="middle" x="0" y="433" transform="translate(334.09000000000003,0)" style="font-family: 'Open Sans', verdana, arial, sans-serif; font-size: 12px; fill: rgb(42, 63, 95); fill-opacity: 1; white-space: pre;">Aug 6</text></g><g class="xtick"><text text-anchor="middle" x="0" y="433" transform="translate(418.06,0)" style="font-family: 'Open Sans', verdana, arial, sans-serif; font-size: 12px; fill: rgb(42, 63, 95); fill-opacity: 1; white-space: pre;">Aug 7</text></g><g class="xtick"><text text-anchor="middle" x="0" y="433" transform="translate(502.03,0)" style="font-family: 'Open Sans', verdana, arial, sans-serif; font-size: 12px; fill: rgb(42, 63, 95); fill-opacity: 1; white-space: pre;">Aug 8</text></g><g class="xtick"><text text-anchor="middle" x="0" y="433" transform="translate(586,0)" style="font-family: 'Open Sans', verdana, arial, sans-serif; font-size: 12px; fill: rgb(42, 63, 95); fill-opacity: 1; white-space: pre;">Aug 9</text></g></g><g class="yaxislayer-above"><g class="ytick"><text text-anchor="end" x="79" y="4.199999999999999" transform="translate(0,393.1)" style="font-family: 'Open Sans', verdana, arial, sans-serif; font-size: 12px; fill: rgb(42, 63, 95); fill-opacity: 1; white-space: pre;">0.864</text></g><g class="ytick"><text text-anchor="end" x="79" y="4.199999999999999" transform="translate(0,352.39)" style="font-family: 'Open Sans', verdana, arial, sans-serif; font-size: 12px; fill: rgb(42, 63, 95); fill-opacity: 1; white-space: pre;">0.865</text></g><g class="ytick"><text text-anchor="end" x="79" y="4.199999999999999" transform="translate(0,311.66999999999996)" style="font-family: 'Open Sans', verdana, arial, sans-serif; font-size: 12px; fill: rgb(42, 63, 95); fill-opacity: 1; white-space: pre;">0.866</text></g><g class="ytick"><text text-anchor="end" x="79" y="4.199999999999999" transform="translate(0,270.96000000000004)" style="font-family: 'Open Sans', verdana, arial, sans-serif; font-size: 12px; fill: rgb(42, 63, 95); fill-opacity: 1; white-space: pre;">0.867</text></g><g class="ytick"><text text-anchor="end" x="79" y="4.199999999999999" transform="translate(0,230.24)" style="font-family: 'Open Sans', verdana, arial, sans-serif; font-size: 12px; fill: rgb(42, 63, 95); fill-opacity: 1; white-space: pre;">0.868</text></g><g class="ytick"><text text-anchor="end" x="79" y="4.199999999999999" transform="translate(0,189.53)" style="font-family: 'Open Sans', verdana, arial, sans-serif; font-size: 12px; fill: rgb(42, 63, 95); fill-opacity: 1; white-space: pre;">0.869</text></g><g class="ytick"><text text-anchor="end" x="79" y="4.199999999999999" transform="translate(0,148.81)" style="font-family: 'Open Sans', verdana, arial, sans-serif; font-size: 12px; fill: rgb(42, 63, 95); fill-opacity: 1; white-space: pre;">0.87</text></g><g class="ytick"><text text-anchor="end" x="79" y="4.199999999999999" transform="translate(0,108.1)" style="font-family: 'Open Sans', verdana, arial, sans-serif; font-size: 12px; fill: rgb(42, 63, 95); fill-opacity: 1; white-space: pre;">0.871</text></g></g><g class="overaxes-above"/></g></g><g class="polarlayer"/><g class="ternarylayer"/><g class="geolayer"/><g class="funnelarealayer"/><g class="pielayer"/><g class="treemaplayer"/><g class="sunburstlayer"/><g class="glimages"/><defs id="topdefs-a96015"><g class="clips"/><clipPath id="legenda96015"><rect width="60" height="45" x="0" y="0"/></clipPath></defs><g class="layer-above"><g class="imagelayer"/><g class="shapelayer"/></g><g class="infolayer"><g class="legend" pointer-events="all" transform="translate(627.74,100)"><rect class="bg" shape-rendering="crispEdges" width="60" height="45" x="0" y="0" style="stroke: rgb(68, 68, 68); stroke-opacity: 1; fill: rgb(255, 255, 255); fill-opacity: 1; stroke-width: 0px;"/><g class="scrollbox" transform="" clip-path="url('#legenda96015')"><text class="legendtitletext" text-anchor="start" x="2" y="15.600000000000001" style="font-family: 'Open Sans', verdana, arial, sans-serif; font-size: 12px; fill: rgb(42, 63, 95); fill-opacity: 1; white-space: pre;">All</text><g class="groups" transform=""><g class="traces" transform="translate(0,30.1)" style="opacity: 1;"><text class="legendtext" text-anchor="start" x="40" y="4.680000000000001" style="font-family: 'Open Sans', verdana, arial, sans-serif; font-size: 12px; fill: rgb(42, 63, 95); fill-opacity: 1; white-space: pre;">All</text><g class="layers" style="opacity: 1;"><g class="legendfill"/><g class="legendlines"><path class="js-line" d="M5,0h30" style="fill: none; stroke: rgb(99, 110, 250); stroke-opacity: 1; stroke-width: 2px;"/></g><g class="legendsymbols"><g class="legendpoints"/></g></g><rect class="legendtoggle" x="0" y="-9.5" width="54.890625" height="19" style="fill: rgb(0, 0, 0); fill-opacity: 0;"/></g></g></g><rect class="scrollbar" rx="20" ry="3" width="0" height="0" x="0" y="0" style="fill: rgb(128, 139, 164); fill-opacity: 1;"/></g><g class="g-gtitle"><text class="gtitle" x="35" y="50" text-anchor="start" dy="0em" style="font-family: 'Open Sans', verdana, arial, sans-serif; font-size: 17px; fill: rgb(42, 63, 95); opacity: 1; font-weight: normal; white-space: pre;">Singapore Vaccination Centers</text></g><g class="g-xtitle"><text class="xtitle" x="348.5" y="476.409375" text-anchor="middle" style="font-family: 'Open Sans', verdana, arial, sans-serif; font-size: 14px; fill: rgb(42, 63, 95); opacity: 1; font-weight: normal; white-space: pre;">Time</text></g><g class="g-ytitle"><text class="ytitle" transform="rotate(-90,19.840625000000003,260)" x="19.840625000000003" y="260" text-anchor="middle" style="font-family: 'Open Sans', verdana, arial, sans-serif; font-size: 14px; fill: rgb(42, 63, 95); opacity: 1; font-weight: normal; white-space: pre;">Filled/%</text></g></g></svg>