<svg class="main-svg" xmlns="http://www.w3.org/2000/svg" xmlns:xlink="http://www.w3.org/1999/xlink" width="700" height="500" style="" viewBox="0 0 700 500"><rect x="0" y="0" width="700" height="500" style="fill: rgb(255, 255, 255); fill-opacity: 1;"/><defs id="defs-5a930d"><g class="clips"><clipPath id="clip5a930dxyplot" class="plotclip"><rect width="537" height="320"/></clipPath><clipPath class="axesclip" id="clip5a930dx"><rect x="80" y="0" width="537" height="500"/></clipPath><clipPath class="axesclip" id="clip5a930dy"><rect x="0" y="100" width="700" height="320"/></clipPath><clipPath class="axesclip" id="clip5a930dxy"><rect x="80" y="100" width="537" height="320"/></clipPath></g><g class="gradients"/></defs><g class="bglayer"><rect class="bg" x="80" y="100" width="537" height="320" style="fill: rgb(229, 236, 246); fill-opacity: 1; stroke-width: 0;"/></g><g class="layer-below"><g class="imagelayer"/><g class="shapelayer"/></g><g class="cartesianlayer"><g class="subplot xy"><g class="layer-subplot"><g class="shapelayer"/><g class="imagelayer"/></g><g class="gridlayer"><g class="x"><path class="xgrid crisp" transform="translate(89.66,0)" d="M0,100v320" style="stroke: rgb(255, 255, 255); stroke-opacity: 1; stroke-width: 1px;"/><path class="xgrid crisp" transform="translate(193.75,0)" d="M0,100v320" style="stroke: rgb(255, 255, 255); stroke-opacity: 1; stroke-width: 1px;"/><path class="xgrid crisp" transform="translate(297.83000000000004,0)" d="M0,100v320" style="stroke: rgb(255, 255, 255); stroke-opacity: 1; stroke-width: 1px;"/><path class="xgrid crisp" transform="translate(401.92,0)" d="M0,100v320" style="stroke: rgb(255, 255, 255); stroke-opacity: 1; stroke-width: 1px;"/><path class="xgrid crisp" transform="translate(506,0)" d="M0,100v320" style="stroke: rgb(255, 255, 255); stroke-opacity: 1; stroke-width: 1px;"/><path class="xgrid crisp" transform="translate(610.09,0)" d="M0,100v320" style="stroke: rgb(255, 255, 255); stroke-opacity: 1; stroke-width: 1px;"/></g><g class="y"><path class="ygrid crisp" transform="translate(0,367.23)" d="M80,0h537" style="stroke: rgb(255, 255, 255); stroke-opacity: 1; stroke-width: 1px;"/><path class="ygrid crisp" transform="translate(0,308.43)" d="M80,0h537" style="stroke: rgb(255, 255, 255); stroke-opacity: 1; stroke-width: 1px;"/><path class="ygrid crisp" transform="translate(0,249.63)" d="M80,0h537" style="stroke: rgb(255, 255, 255); stroke-opacity: 1; stroke-width: 1px;"/><path class="ygrid crisp" transform="translate(0,190.82999999999998)" d="M80,0h537" style="stroke: rgb(255, 255, 255); stroke-opacity: 1; stroke-width: 1px;"/><path class="ygrid crisp" transform="translate(0,132.03)" d="M80,0h537" style="stroke: rgb(255, 255, 255); stroke-opacity: 1; stroke-width: 1px;"/></g></g><g class="zerolinelayer"/><path class="xlines-below"/><path class="ylines-below"/><g class="overlines-below"/><g class="xaxislayer-below"/><g class="yaxislayer-below"/><g class="overaxes-below"/><g class="plot" transform="translate(80,100)" clip-path="url('#clip5a930dxyplot')"><g class="scatterlayer mlayer"><g class="trace scatter trace08bf7e" style="stroke-miterlimit: 2; opacity: 1;"><g class="fills"/><g class="errorbars"/><g class="lines"><path class="js-line" d="M0,82.28L6.1,82.51L8.27,120.48L12.58,120.57L14.18,136.92L14.86,136.9L30.82,137.96L31.81,121.23L32.12,129.62L32.84,129.56L34.28,126.37L35.01,126.27L36.45,129.79L37.18,129.7L38.62,132.71L39.34,132.63L40.79,120.69L41.51,120.62L42.96,132.64L43.68,132.55L45.13,126.68L47.3,113.21L48.02,109.51L51.63,74.17L52.35,72.87L53.8,78.78L54.52,77.73L56.69,62.82L58.14,65.47L58.86,64.83L60.3,74.27L61.03,73.83L61.98,51.83L63.2,52.34L63.92,52.21L71.87,51.78L72.59,51.77L81.26,51.11L81.99,50.91L105.84,42.67L106.56,42.44L113.07,40.95L113.79,41.79L126.8,41.46L127.53,41.46L139.09,40.58L139.81,40.48L163.66,36.99L164.39,36.9L165.11,36.83L165.83,35.53L194.02,34L194.75,33.87L217.16,31.05L217.88,28.56L242.45,27.81L243.18,95.38L251.15,93.57L251.85,93.44L252.57,93.12L253.3,91.51L255.47,88.51L256.19,87.52L259.8,73.59L260.52,72.39L264.86,67.88L265.58,67.37L269.2,65.43L269.92,65.5L274.98,64.8L275.71,64.77L291.61,63.66L292.33,63.48L297.39,61.32L298.11,60.89L298.83,60.46L299.56,62.78L302.45,61.15L303.17,59.94L307.51,53.24L308.23,52.44L311.12,47.98L311.84,45.51L314.74,38.66L315.46,37.65L319.79,32.89L320.54,32.47L322.69,31.98L323.41,31.8L329.19,31.18L329.92,31.16L340.76,30.17L341.48,29.9L345.82,28.09L346.54,74.81L348.71,72.76L349.43,72.32L355.94,69.16L356.66,68.8L357.21,71.93L357.38,68.39L358.07,68.25L358.11,69.25L358.79,67.95L358.83,68.94L359.55,68.62L361,68.09L361.72,76.43L368.05,73.91L368.07,72.31L368.11,72.03L368.22,73.74L375.09,44.74L375.45,44.87L375.82,41.95L376.54,42.12L376.9,43.2L377.98,37.43L378.34,41.6L379.43,39.66L379.79,39.05L380.87,38.13L381.23,38.96L382.32,38.42L382.68,38.33L383.4,38.4L383.77,43.02L387.74,41.69L388.1,36.5L388.82,35.76L389.18,35.39L390.99,31.97L391.35,32.01L393.52,22.43L393.88,16L394.24,16.8L394.61,140.18L394.97,139.22L395.33,142.07L396.05,136.79L396.41,138.99L396.77,137.43L397.14,136.15L397.5,136.63L397.86,141.25L398.22,146.68L398.58,133.42L399.3,138.09L399.67,157.2L400.75,133.53L401.11,145.44L401.47,148.42L401.83,146.68L402.19,144.02L402.92,134.36L403.28,135.71L403.64,141.84L404,146.05L404.36,142.1L404.73,141.74L405.08,151.77L405.45,141.68L405.81,140.84L406.17,148.68L406.53,138.39L406.89,127.07L407.26,137.58L407.61,139.13L407.98,140.49L408.34,138.92L409.78,129.31L410.14,138.25L410.51,134.05L410.87,138.68L411.23,138.81L411.59,131.49L411.95,131.42L412.31,140.05L413.04,132.48L413.4,138.41L414.12,141.46L414.48,128.79L415.21,142.96L415.57,264.58L416.65,293.12L417.01,304L417.38,286.22L417.74,301.52L418.1,291.75L418.46,292.1L418.82,291.07L419.18,294.16L419.54,293.46L419.9,276.02L420.27,283.67L420.63,262.28L421.35,272.54L421.71,248.89L422.43,241.71L422.79,229.6L423.16,224.98L423.52,228.24L423.88,227.36L424.96,215.22L425.32,217.06L425.69,216.4L426.05,227.08L426.41,226.08L426.77,228.38L427.13,228.68L427.49,224.72L427.85,233.57L428.22,224.28L428.58,225.36L428.94,227.75L429.3,223.07L430.02,226.33L430.39,223.26L430.75,224.52L431.11,234.01L431.47,220.81L431.83,231.91L432.19,224.2L434.36,212.72L434.72,220.76L435.45,220.72L435.81,223.7L436.17,223.67L436.53,219.37L436.89,223.08L437.25,218.62L437.61,226.76L437.97,225.2L438.34,224.19L438.7,219.51L439.06,225.16L440.14,225.11L440.5,216.49L440.87,225.05L441.23,220.43L441.59,220.57L441.95,218.19L442.31,220.92L442.68,219.84L443.03,227.36L443.39,216.65L443.76,220.1L444.12,220.01L444.84,220.98L445.2,218.78L445.92,223.64L446.28,218.66L446.65,205.85L447.01,215.25L447.37,220.32L447.73,206.18L448.09,206.81L448.45,214.16L448.82,214.11L449.18,206.99L449.91,212.47L450.26,202.23L450.63,199.24L450.99,208.71L451.35,224.84L451.71,215.2L452.07,214.49L452.43,205.74L452.79,219.6L453.51,195.82L453.88,209.77L454.24,208.24L454.6,203.32L454.96,202.05L455.32,205.17L455.68,200.81L456.04,208.16L456.4,206.35L456.77,209.96L457.13,207.44L457.49,196.45L457.85,195.36L458.21,196.45L458.57,201.41L459.66,210.92L460.02,197.09L460.38,197.31L460.74,191.05L461.1,191.24L461.46,196.07L461.83,200.65L462.19,194.37L463.27,210.5L463.63,204.27L464.35,191.94L464.72,193.62L465.08,197L465.44,205.03L465.8,197.14L466.16,198.57L467.61,184.28L467.97,189.51L468.69,194.59L469.06,189.23L469.42,191.91L469.78,189.81L470.14,182.31L470.5,187.7L470.86,187L471.22,183.28L471.58,186.18L471.94,185.69L472.31,181.61L472.67,182.61L473.03,186.54L473.75,187.68L474.11,186.58L474.48,181.49L474.84,187.81L475.56,185.81L475.92,187.22L476.28,189.17L476.65,187L477.73,194.82L478.09,189.57L478.45,183.36L478.81,189.2L479.18,186.45L480.26,187.85L480.62,183.53L481.71,187.65L482.07,184.59L482.79,184.25L483.15,185.71L484.23,187.29L484.6,197.68L484.96,197.68L485.32,195.53L485.68,195.52L486.04,190.33L486.4,190.33L486.76,186.49L488.21,194.95L488.57,194.95L488.93,195.4L489.29,193.58L489.66,193.58L490.02,187.5L490.74,187.5L491.1,190.84L492.18,186.75L492.55,187.03L492.91,187.03L493.27,188.23L496.16,181.13L496.52,187.27L496.88,190.9L497.24,187.7L497.6,181.79L497.97,180.91L498.33,182.93L498.69,184.81L499.05,179.55L499.77,190.44L500.14,182.8L500.5,183.07L500.86,174.64L501.94,185.09L502.3,181.21L502.66,181.99L503.02,185.79L503.39,171.39L503.75,177.83L504.11,175.21L504.47,180.5L504.83,179.53L505.19,177.22L506.64,187.84L507,182.58L507.36,175.16L507.72,180.33L508.08,178.23L508.81,176.4L509.17,185.95L509.53,175.93L509.89,196.82L510.98,173.22L511.34,177.47L511.7,180.21L512.06,180.03L512.42,179.15L513.14,179.35L513.51,181.21L514.95,176.9L515.31,176.97L516.04,169.69L516.4,173.52L516.76,176.28L517.12,172.21L517.48,173.97L517.85,171L518.57,180.19L518.93,175.33L519.29,171.32L519.65,174.66L520.01,174.4L520.37,183.64L520.74,176L521.1,180.08L521.46,179.71L521.82,181.54L522.54,173.38L522.9,176.61L523.27,186.68L523.63,171.47L523.99,173.34L524.35,176.71L524.71,180.06L525.08,191.51L525.8,169.64L526.16,179.24L526.52,185.08L526.88,178.84L527.24,180.35L527.96,173.52L528.55,177.41L529.05,175.84L529.41,172.35L530.13,178.87L530.49,178.77L530.85,176.54L531.94,180.35L532.3,181.62L532.66,181.6L533.02,184.49L533.38,177.62L533.75,178.94L534.11,178.93L534.47,178.92L534.83,174.71L535.55,182.31L535.92,181.81L536.28,181.81L536.64,181.29L537,185.14" style="vector-effect: non-scaling-stroke; fill: none; stroke: rgb(99, 110, 250); stroke-opacity: 1; stroke-width: 2px; opacity: 1;"/></g><g class="points"/><g class="text"/></g></g></g><g class="overplot"/><path class="xlines-above crisp" d="M0,0" style="fill: none;"/><path class="ylines-above crisp" d="M0,0" style="fill: none;"/><g class="overlines-above"/><g class="xaxislayer-above"><g class="xtick"><text text-anchor="middle" x="0" y="433" transform="translate(89.66,0)" style="font-family: 'Open Sans', verdana, arial, sans-serif; font-size: 12px; fill: rgb(42, 63, 95); fill-opacity: 1; white-space: pre;"><tspan class="line" dy="0em" x="0" y="433">Jun 4</tspan><tspan class="line" dy="1.3em" x="0" y="433">2021</tspan></text></g><g class="xtick"><text text-anchor="middle" x="0" y="433" transform="translate(193.75,0)" style="font-family: 'Open Sans', verdana, arial, sans-serif; font-size: 12px; fill: rgb(42, 63, 95); fill-opacity: 1; white-space: pre;">Jun 6</text></g><g class="xtick"><text text-anchor="middle" x="0" y="433" transform="translate(297.83000000000004,0)" style="font-family: 'Open Sans', verdana, arial, sans-serif; font-size: 12px; fill: rgb(42, 63, 95); fill-opacity: 1; white-space: pre;">Jun 8</text></g><g class="xtick"><text text-anchor="middle" x="0" y="433" transform="translate(401.92,0)" style="font-family: 'Open Sans', verdana, arial, sans-serif; font-size: 12px; fill: rgb(42, 63, 95); fill-opacity: 1; white-space: pre;">Jun 10</text></g><g class="xtick"><text text-anchor="middle" x="0" y="433" transform="translate(506,0)" style="font-family: 'Open Sans', verdana, arial, sans-serif; font-size: 12px; fill: rgb(42, 63, 95); fill-opacity: 1; white-space: pre;">Jun 12</text></g><g class="xtick"><text text-anchor="middle" x="0" y="433" transform="translate(610.09,0)" style="font-family: 'Open Sans', verdana, arial, sans-serif; font-size: 12px; fill: rgb(42, 63, 95); fill-opacity: 1; white-space: pre;">Jun 14</text></g></g><g class="yaxislayer-above"><g class="ytick"><text text-anchor="end" x="79" y="4.199999999999999" transform="translate(0,367.23)" style="font-family: 'Open Sans', verdana, arial, sans-serif; font-size: 12px; fill: rgb(42, 63, 95); fill-opacity: 1; white-space: pre;">0.8</text></g><g class="ytick"><text text-anchor="end" x="79" y="4.199999999999999" transform="translate(0,308.43)" style="font-family: 'Open Sans', verdana, arial, sans-serif; font-size: 12px; fill: rgb(42, 63, 95); fill-opacity: 1; white-space: pre;">0.82</text></g><g class="ytick"><text text-anchor="end" x="79" y="4.199999999999999" transform="translate(0,249.63)" style="font-family: 'Open Sans', verdana, arial, sans-serif; font-size: 12px; fill: rgb(42, 63, 95); fill-opacity: 1; white-space: pre;">0.84</text></g><g class="ytick"><text text-anchor="end" x="79" y="4.199999999999999" transform="translate(0,190.82999999999998)" style="font-family: 'Open Sans', verdana, arial, sans-serif; font-size: 12px; fill: rgb(42, 63, 95); fill-opacity: 1; white-space: pre;">0.86</text></g><g class="ytick"><text text-anchor="end" x="79" y="4.199999999999999" transform="translate(0,132.03)" style="font-family: 'Open Sans', verdana, arial, sans-serif; font-size: 12px; fill: rgb(42, 63, 95); fill-opacity: 1; white-space: pre;">0.88</text></g></g><g class="overaxes-above"/></g></g><g class="polarlayer"/><g class="ternarylayer"/><g class="geolayer"/><g class="funnelarealayer"/><g class="pielayer"/><g class="treemaplayer"/><g class="sunburstlayer"/><g class="glimages"/><defs id="topdefs-5a930d"><g class="clips"/><clipPath id="legend5a930d"><rect width="60" height="45" x="0" y="0"/></clipPath></defs><g class="layer-above"><g class="imagelayer"/><g class="shapelayer"/></g><g class="infolayer"><g class="legend" pointer-events="all" transform="translate(627.74,100)"><rect class="bg" shape-rendering="crispEdges" width="60" height="45" x="0" y="0" style="stroke: rgb(68, 68, 68); stroke-opacity: 1; fill: rgb(255, 255, 255); fill-opacity: 1; stroke-width: 0px;"/><g class="scrollbox" transform="" clip-path="url('#legend5a930d')"><text class="legendtitletext" text-anchor="start" x="2" y="15.600000000000001" style="font-family: 'Open Sans', verdana, arial, sans-serif; font-size: 12px; fill: rgb(42, 63, 95); fill-opacity: 1; white-space: pre;">All</text><g class="groups" transform=""><g class="traces" transform="translate(0,30.1)" style="opacity: 1;"><text class="legendtext" text-anchor="start" x="40" y="4.680000000000001" style="font-family: 'Open Sans', verdana, arial, sans-serif; font-size: 12px; fill: rgb(42, 63, 95); fill-opacity: 1; white-space: pre;">All</text><g class="layers" style="opacity: 1;"><g class="legendfill"/><g class="legendlines"><path class="js-line" d="M5,0h30" style="fill: none; stroke: rgb(99, 110, 250); stroke-opacity: 1; stroke-width: 2px;"/></g><g class="legendsymbols"><g class="legendpoints"/></g></g><rect class="legendtoggle" x="0" y="-9.5" width="54.890625" height="19" style="fill: rgb(0, 0, 0); fill-opacity: 0;"/></g></g></g><rect class="scrollbar" rx="20" ry="3" width="0" height="0" x="0" y="0" style="fill: rgb(128, 139, 164); fill-opacity: 1;"/></g><g class="g-gtitle"><text class="gtitle" x="35" y="50" text-anchor="start" dy="0em" style="font-family: 'Open Sans', verdana, arial, sans-serif; font-size: 17px; fill: rgb(42, 63, 95); opacity: 1; font-weight: normal; white-space: pre;">Singapore Vaccination Centers</text></g><g class="g-xtitle"><text class="xtitle" x="348.5" y="476.409375" text-anchor="middle" style="font-family: 'Open Sans', verdana, arial, sans-serif; font-size: 14px; fill: rgb(42, 63, 95); opacity: 1; font-weight: normal; white-space: pre;">Time</text></g><g class="g-ytitle"><text class="ytitle" transform="rotate(-90,27.481250000000003,260)" x="27.481250000000003" y="260" text-anchor="middle" style="font-family: 'Open Sans', verdana, arial, sans-serif; font-size: 14px; fill: rgb(42, 63, 95); opacity: 1; font-weight: normal; white-space: pre;">Filled/%</text></g></g></svg>