<svg class="main-svg" xmlns="http://www.w3.org/2000/svg" xmlns:xlink="http://www.w3.org/1999/xlink" width="700" height="500" style="" viewBox="0 0 700 500"><rect x="0" y="0" width="700" height="500" style="fill: rgb(255, 255, 255); fill-opacity: 1;"/><defs id="defs-ed9bc8"><g class="clips"><clipPath id="cliped9bc8xyplot" class="plotclip"><rect width="537" height="320"/></clipPath><clipPath class="axesclip" id="cliped9bc8x"><rect x="80" y="0" width="537" height="500"/></clipPath><clipPath class="axesclip" id="cliped9bc8y"><rect x="0" y="100" width="700" height="320"/></clipPath><clipPath class="axesclip" id="cliped9bc8xy"><rect x="80" y="100" width="537" height="320"/></clipPath></g><g class="gradients"/></defs><g class="bglayer"><rect class="bg" x="80" y="100" width="537" height="320" style="fill: rgb(229, 236, 246); fill-opacity: 1; stroke-width: 0;"/></g><g class="layer-below"><g class="imagelayer"/><g class="shapelayer"/></g><g class="cartesianlayer"><g class="subplot xy"><g class="layer-subplot"><g class="shapelayer"/><g class="imagelayer"/></g><g class="gridlayer"><g class="x"><path class="xgrid crisp" transform="translate(91.45,0)" d="M0,100v320" style="stroke: rgb(255, 255, 255); stroke-opacity: 1; stroke-width: 1px;"/><path class="xgrid crisp" transform="translate(214.8,0)" d="M0,100v320" style="stroke: rgb(255, 255, 255); stroke-opacity: 1; stroke-width: 1px;"/><path class="xgrid crisp" transform="translate(338.14,0)" d="M0,100v320" style="stroke: rgb(255, 255, 255); stroke-opacity: 1; stroke-width: 1px;"/><path class="xgrid crisp" transform="translate(461.48,0)" d="M0,100v320" style="stroke: rgb(255, 255, 255); stroke-opacity: 1; stroke-width: 1px;"/><path class="xgrid crisp" transform="translate(584.8299999999999,0)" d="M0,100v320" style="stroke: rgb(255, 255, 255); stroke-opacity: 1; stroke-width: 1px;"/></g><g class="y"><path class="ygrid crisp" transform="translate(0,367.23)" d="M80,0h537" style="stroke: rgb(255, 255, 255); stroke-opacity: 1; stroke-width: 1px;"/><path class="ygrid crisp" transform="translate(0,308.43)" d="M80,0h537" style="stroke: rgb(255, 255, 255); stroke-opacity: 1; stroke-width: 1px;"/><path class="ygrid crisp" transform="translate(0,249.63)" d="M80,0h537" style="stroke: rgb(255, 255, 255); stroke-opacity: 1; stroke-width: 1px;"/><path class="ygrid crisp" transform="translate(0,190.82999999999998)" d="M80,0h537" style="stroke: rgb(255, 255, 255); stroke-opacity: 1; stroke-width: 1px;"/><path class="ygrid crisp" transform="translate(0,132.03)" d="M80,0h537" style="stroke: rgb(255, 255, 255); stroke-opacity: 1; stroke-width: 1px;"/></g></g><g class="zerolinelayer"/><path class="xlines-below"/><path class="ylines-below"/><g class="overlines-below"/><g class="xaxislayer-below"/><g class="yaxislayer-below"/><g class="overaxes-below"/><g class="plot" transform="translate(80,100)" clip-path="url('#cliped9bc8xyplot')"><g class="scatterlayer mlayer"><g class="trace scatter trace50e3d3" style="stroke-miterlimit: 2; opacity: 1;"><g class="fills"/><g class="errorbars"/><g class="lines"><path class="js-line" d="M0,82.28L7.23,82.51L9.8,120.48L14.91,120.57L16.81,136.92L17.61,136.9L36.52,137.96L37.7,121.23L38.06,129.62L38.92,129.56L40.63,126.37L41.49,126.27L43.2,129.79L44.05,129.7L45.77,132.71L46.62,132.63L48.34,120.69L49.2,120.62L50.91,132.64L51.76,132.55L53.48,126.68L54.33,123.32L56.05,113.21L56.9,109.51L58.62,94.58L59.47,92.89L61.18,74.17L62.04,72.87L63.75,78.78L64.61,77.73L66.32,63.68L67.18,62.82L68.89,65.47L69.75,64.83L71.46,74.27L72.32,73.83L73.45,51.83L74.03,52.53L74.89,52.34L83.45,51.79L84.31,51.79L97.16,50.91L98.01,50.65L127.99,42.03L128.85,41.83L133.99,40.95L134.85,41.79L149.41,41.47L150.27,41.46L163.11,40.8L163.97,40.69L195.66,36.83L196.52,35.53L229.92,34L230.78,33.87L257.34,31.05L258.2,28.56L287.32,27.81L288.17,95.38L297.62,93.57L298.45,93.44L299.31,93.12L300.17,91.51L302.74,88.51L303.59,87.52L307.87,73.59L308.73,72.39L313.87,67.88L314.73,67.37L319.01,65.43L319.87,65.5L325.86,64.8L326.72,64.77L345.56,63.66L346.42,63.48L352.41,61.32L353.27,60.89L354.13,60.46L354.98,62.78L358.41,61.15L359.27,59.94L363.55,54.01L364.41,53.24L367.83,49.13L368.69,47.98L372.11,39.84L372.97,38.66L378.11,33.5L378.97,32.89L382.39,31.98L383.25,31.8L390.1,31.18L390.96,31.16L403.81,30.17L404.66,29.9L409.8,28.09L410.66,74.81L412.37,73.22L413.23,72.76L421.8,69.16L422.65,68.8L423.31,71.93L423.51,68.39L424.33,68.25L424.37,69.25L425.18,67.95L425.22,68.94L426.08,68.62L427.79,68.09L428.65,76.43L436.15,73.91L436.18,72.31L436.22,72.03L436.36,73.74L444.5,44.74L444.92,44.87L445.35,41.95L446.21,42.12L446.64,43.2L447.92,37.43L448.35,41.6L449.63,39.66L450.06,39.05L451.35,38.13L451.78,38.96L452.21,38.26L452.63,38.53L453.06,38.42L454.35,38.4L454.78,43.02L459.49,41.69L459.91,36.5L460.77,35.76L461.2,35.39L462.48,33.79L462.91,33.41L466.34,22.43L466.76,16L467.19,16.8L467.62,140.18L468.05,139.22L468.48,142.07L469.33,136.79L469.76,138.99L470.62,136.15L471.05,136.63L471.48,141.25L471.9,146.68L472.33,133.42L473.19,138.09L473.62,157.2L474.9,133.53L475.33,145.44L475.76,148.42L476.19,146.68L476.61,144.02L477.47,134.36L477.9,135.71L478.75,146.05L479.18,142.1L479.61,141.74L480.04,151.77L480.9,140.84L481.32,148.68L482.18,127.07L482.61,137.58L483.47,140.49L483.9,138.92L484.75,130.34L485.18,131.67L485.61,129.31L486.04,138.25L486.47,134.05L486.89,138.68L487.32,138.81L487.75,131.49L488.18,131.42L488.61,140.05L489.46,132.48L489.89,138.41L490.75,141.46L491.18,128.79L492.03,142.96L492.46,264.58L493.32,292.55L493.75,293.12L494.18,304L494.61,286.22L495.03,301.52L495.46,291.75L495.89,292.1L496.32,291.07L496.75,294.16L497.17,293.46L497.6,276.02L498.03,283.67L498.46,262.28L499.31,272.54L499.74,248.89L500.6,241.71L501.03,229.6L501.46,224.98L501.88,228.24L502.31,227.36L503.6,215.22L504.02,217.06L504.45,216.4L504.88,227.08L505.31,226.08L505.74,228.38L506.17,228.68L506.59,224.72L507.02,233.57L507.45,224.28L508.31,227.75L508.74,223.07L509.59,226.33L510.02,223.26L510.45,224.52L510.88,234.01L511.31,220.81L511.74,231.91L513.02,220.15L513.45,220.86L514.73,212.72L515.16,220.76L516.02,220.72L516.45,223.7L516.87,223.67L517.3,219.37L517.73,223.08L518.16,218.62L518.59,226.76L519.02,225.2L519.44,224.19L519.87,219.51L520.3,225.16L521.58,225.11L522.01,216.49L522.44,225.05L522.87,220.43L523.3,220.57L523.72,218.19L524.15,220.92L524.59,219.84L525.01,227.36L525.44,216.65L525.87,220.1L526.3,220.01L527.15,220.98L527.58,218.78L528.43,223.64L528.86,218.66L529.29,205.85L529.72,215.25L530.15,220.32L530.58,206.18L531,206.81L531.43,214.16L531.86,214.11L532.29,206.99L533.15,212.47L533.58,202.23L534.01,199.24L534.44,208.71L534.87,224.84L535.29,215.2L535.72,214.49L536.15,205.74L536.57,219.6L537,211.2" style="vector-effect: non-scaling-stroke; fill: none; stroke: rgb(99, 110, 250); stroke-opacity: 1; stroke-width: 2px; opacity: 1;"/></g><g class="points"/><g class="text"/></g></g></g><g class="overplot"/><path class="xlines-above crisp" d="M0,0" style="fill: none;"/><path class="ylines-above crisp" d="M0,0" style="fill: none;"/><g class="overlines-above"/><g class="xaxislayer-above"><g class="xtick"><text text-anchor="middle" x="0" y="433" transform="translate(91.45,0)" style="font-family: 'Open Sans', verdana, arial, sans-serif; font-size: 12px; fill: rgb(42, 63, 95); fill-opacity: 1; white-space: pre;"><tspan class="line" dy="0em" x="0" y="433">Jun 4</tspan><tspan class="line" dy="1.3em" x="0" y="433">2021</tspan></text></g><g class="xtick"><text text-anchor="middle" x="0" y="433" transform="translate(214.8,0)" style="font-family: 'Open Sans', verdana, arial, sans-serif; font-size: 12px; fill: rgb(42, 63, 95); fill-opacity: 1; white-space: pre;">Jun 6</text></g><g class="xtick"><text text-anchor="middle" x="0" y="433" transform="translate(338.14,0)" style="font-family: 'Open Sans', verdana, arial, sans-serif; font-size: 12px; fill: rgb(42, 63, 95); fill-opacity: 1; white-space: pre;">Jun 8</text></g><g class="xtick"><text text-anchor="middle" x="0" y="433" transform="translate(461.48,0)" style="font-family: 'Open Sans', verdana, arial, sans-serif; font-size: 12px; fill: rgb(42, 63, 95); fill-opacity: 1; white-space: pre;">Jun 10</text></g><g class="xtick"><text text-anchor="middle" x="0" y="433" transform="translate(584.8299999999999,0)" style="font-family: 'Open Sans', verdana, arial, sans-serif; font-size: 12px; fill: rgb(42, 63, 95); fill-opacity: 1; white-space: pre;">Jun 12</text></g></g><g class="yaxislayer-above"><g class="ytick"><text text-anchor="end" x="79" y="4.199999999999999" transform="translate(0,367.23)" style="font-family: 'Open Sans', verdana, arial, sans-serif; font-size: 12px; fill: rgb(42, 63, 95); fill-opacity: 1; white-space: pre;">0.8</text></g><g class="ytick"><text text-anchor="end" x="79" y="4.199999999999999" transform="translate(0,308.43)" style="font-family: 'Open Sans', verdana, arial, sans-serif; font-size: 12px; fill: rgb(42, 63, 95); fill-opacity: 1; white-space: pre;">0.82</text></g><g class="ytick"><text text-anchor="end" x="79" y="4.199999999999999" transform="translate(0,249.63)" style="font-family: 'Open Sans', verdana, arial, sans-serif; font-size: 12px; fill: rgb(42, 63, 95); fill-opacity: 1; white-space: pre;">0.84</text></g><g class="ytick"><text text-anchor="end" x="79" y="4.199999999999999" transform="translate(0,190.82999999999998)" style="font-family: 'Open Sans', verdana, arial, sans-serif; font-size: 12px; fill: rgb(42, 63, 95); fill-opacity: 1; white-space: pre;">0.86</text></g><g class="ytick"><text text-anchor="end" x="79" y="4.199999999999999" transform="translate(0,132.03)" style="font-family: 'Open Sans', verdana, arial, sans-serif; font-size: 12px; fill: rgb(42, 63, 95); fill-opacity: 1; white-space: pre;">0.88</text></g></g><g class="overaxes-above"/></g></g><g class="polarlayer"/><g class="ternarylayer"/><g class="geolayer"/><g class="funnelarealayer"/><g class="pielayer"/><g class="treemaplayer"/><g class="sunburstlayer"/><g class="glimages"/><defs id="topdefs-ed9bc8"><g class="clips"/><clipPath id="legended9bc8"><rect width="60" height="45" x="0" y="0"/></clipPath></defs><g class="layer-above"><g class="imagelayer"/><g class="shapelayer"/></g><g class="infolayer"><g class="legend" pointer-events="all" transform="translate(627.74,100)"><rect class="bg" shape-rendering="crispEdges" width="60" height="45" x="0" y="0" style="stroke: rgb(68, 68, 68); stroke-opacity: 1; fill: rgb(255, 255, 255); fill-opacity: 1; stroke-width: 0px;"/><g class="scrollbox" transform="" clip-path="url('#legended9bc8')"><text class="legendtitletext" text-anchor="start" x="2" y="15.600000000000001" style="font-family: 'Open Sans', verdana, arial, sans-serif; font-size: 12px; fill: rgb(42, 63, 95); fill-opacity: 1; white-space: pre;">All</text><g class="groups" transform=""><g class="traces" transform="translate(0,30.1)" style="opacity: 1;"><text class="legendtext" text-anchor="start" x="40" y="4.680000000000001" style="font-family: 'Open Sans', verdana, arial, sans-serif; font-size: 12px; fill: rgb(42, 63, 95); fill-opacity: 1; white-space: pre;">All</text><g class="layers" style="opacity: 1;"><g class="legendfill"/><g class="legendlines"><path class="js-line" d="M5,0h30" style="fill: none; stroke: rgb(99, 110, 250); stroke-opacity: 1; stroke-width: 2px;"/></g><g class="legendsymbols"><g class="legendpoints"/></g></g><rect class="legendtoggle" x="0" y="-9.5" width="54.890625" height="19" style="fill: rgb(0, 0, 0); fill-opacity: 0;"/></g></g></g><rect class="scrollbar" rx="20" ry="3" width="0" height="0" x="0" y="0" style="fill: rgb(128, 139, 164); fill-opacity: 1;"/></g><g class="g-gtitle"><text class="gtitle" x="35" y="50" text-anchor="start" dy="0em" style="font-family: 'Open Sans', verdana, arial, sans-serif; font-size: 17px; fill: rgb(42, 63, 95); opacity: 1; font-weight: normal; white-space: pre;">Singapore Vaccination Centers</text></g><g class="g-xtitle"><text class="xtitle" x="348.5" y="476.409375" text-anchor="middle" style="font-family: 'Open Sans', verdana, arial, sans-serif; font-size: 14px; fill: rgb(42, 63, 95); opacity: 1; font-weight: normal; white-space: pre;">Time</text></g><g class="g-ytitle"><text class="ytitle" transform="rotate(-90,27.481250000000003,260)" x="27.481250000000003" y="260" text-anchor="middle" style="font-family: 'Open Sans', verdana, arial, sans-serif; font-size: 14px; fill: rgb(42, 63, 95); opacity: 1; font-weight: normal; white-space: pre;">Filled/%</text></g></g></svg>