<svg class="main-svg" xmlns="http://www.w3.org/2000/svg" xmlns:xlink="http://www.w3.org/1999/xlink" width="700" height="500" style="" viewBox="0 0 700 500"><rect x="0" y="0" width="700" height="500" style="fill: rgb(255, 255, 255); fill-opacity: 1;"/><defs id="defs-0fbcfd"><g class="clips"><clipPath id="clip0fbcfdxyplot" class="plotclip"><rect width="537" height="320"/></clipPath><clipPath class="axesclip" id="clip0fbcfdx"><rect x="80" y="0" width="537" height="500"/></clipPath><clipPath class="axesclip" id="clip0fbcfdy"><rect x="0" y="100" width="700" height="320"/></clipPath><clipPath class="axesclip" id="clip0fbcfdxy"><rect x="80" y="100" width="537" height="320"/></clipPath></g><g class="gradients"/></defs><g class="bglayer"><rect class="bg" x="80" y="100" width="537" height="320" style="fill: rgb(229, 236, 246); fill-opacity: 1; stroke-width: 0;"/></g><g class="layer-below"><g class="imagelayer"/><g class="shapelayer"/></g><g class="cartesianlayer"><g class="subplot xy"><g class="layer-subplot"><g class="shapelayer"/><g class="imagelayer"/></g><g class="gridlayer"><g class="x"><path class="xgrid crisp" transform="translate(82.65,0)" d="M0,100v320" style="stroke: rgb(255, 255, 255); stroke-opacity: 1; stroke-width: 1px;"/><path class="xgrid crisp" transform="translate(184.68,0)" d="M0,100v320" style="stroke: rgb(255, 255, 255); stroke-opacity: 1; stroke-width: 1px;"/><path class="xgrid crisp" transform="translate(286.71000000000004,0)" d="M0,100v320" style="stroke: rgb(255, 255, 255); stroke-opacity: 1; stroke-width: 1px;"/><path class="xgrid crisp" transform="translate(388.74,0)" d="M0,100v320" style="stroke: rgb(255, 255, 255); stroke-opacity: 1; stroke-width: 1px;"/><path class="xgrid crisp" transform="translate(490.77,0)" d="M0,100v320" style="stroke: rgb(255, 255, 255); stroke-opacity: 1; stroke-width: 1px;"/><path class="xgrid crisp" transform="translate(592.8,0)" d="M0,100v320" style="stroke: rgb(255, 255, 255); stroke-opacity: 1; stroke-width: 1px;"/></g><g class="y"><path class="ygrid crisp" transform="translate(0,392.55)" d="M80,0h537" style="stroke: rgb(255, 255, 255); stroke-opacity: 1; stroke-width: 1px;"/><path class="ygrid crisp" transform="translate(0,349.77)" d="M80,0h537" style="stroke: rgb(255, 255, 255); stroke-opacity: 1; stroke-width: 1px;"/><path class="ygrid crisp" transform="translate(0,306.99)" d="M80,0h537" style="stroke: rgb(255, 255, 255); stroke-opacity: 1; stroke-width: 1px;"/><path class="ygrid crisp" transform="translate(0,264.21000000000004)" d="M80,0h537" style="stroke: rgb(255, 255, 255); stroke-opacity: 1; stroke-width: 1px;"/><path class="ygrid crisp" transform="translate(0,221.43)" d="M80,0h537" style="stroke: rgb(255, 255, 255); stroke-opacity: 1; stroke-width: 1px;"/><path class="ygrid crisp" transform="translate(0,178.65)" d="M80,0h537" style="stroke: rgb(255, 255, 255); stroke-opacity: 1; stroke-width: 1px;"/><path class="ygrid crisp" transform="translate(0,135.87)" d="M80,0h537" style="stroke: rgb(255, 255, 255); stroke-opacity: 1; stroke-width: 1px;"/></g></g><g class="zerolinelayer"/><path class="xlines-below"/><path class="ylines-below"/><g class="overlines-below"/><g class="xaxislayer-below"/><g class="yaxislayer-below"/><g class="overaxes-below"/><g class="plot" transform="translate(80,100)" clip-path="url('#clip0fbcfdxyplot')"><g class="scatterlayer mlayer"><g class="trace scatter trace110f03" style="stroke-miterlimit: 2; opacity: 1;"><g class="fills"/><g class="errorbars"/><g class="lines"><path class="js-line" d="M0,304L2.04,302.59L2.75,249.74L3.46,251.04L4.17,249.35L7,248.71L7.71,248.32L9.13,249.1L9.84,248.19L11.25,248.58L11.96,248.19L13.38,247.93L14.09,247.67L15.5,247.41L16.22,247.16L21.88,246.77L22.59,246.51L26.84,246.12L27.55,245.73L28.97,245.86L29.68,245.22L31.09,245.09L31.8,244.44L33.22,244.57L33.92,243.66L35.34,244.57L36.05,243.02L38.18,242.11L38.88,242.63L39.59,242.24L40.3,243.15L41.72,240.17L42.43,240.69L43.14,240.69L43.84,239.78L46.68,237.84L47.39,236.94L48.8,238.23L49.51,237.07L50.22,235L50.93,235.51L51.64,236.55L52.35,235L53.76,232.67L54.47,232.28L55.89,230.6L56.6,231.12L58.01,229.95L58.72,230.21L59.43,231.76L60.14,229.56L62.27,230.6L62.98,230.21L65.1,226.07L65.81,226.85L67.23,225.68L67.93,227.36L68.64,227.11L69.35,225.55L72.19,221.16L72.89,218.44L73.61,219.09L74.31,217.66L75.02,216.63L75.73,217.4L77.15,217.66L77.85,218.7L80.69,216.5L81.4,216.37L82.82,215.72L83.53,214.69L84.23,214.3L84.94,214.82L86.36,215.98L87.06,214.43L89.19,213.39L89.91,212.88L91.32,212.23L92.03,211.45L94.15,212.23L94.86,211.84L96.28,211.58L96.99,211.84L98.4,210.42L99.11,208.87L100.53,207.7L101.24,206.93L102.65,207.96L103.36,207.44L104.07,207.96L104.78,142.27L106.91,140.18L107.62,140.44L109.03,139.92L109.74,139.01L111.16,139.14L111.87,139.14L114.7,138.48L115.41,138.35L117.53,137.83L118.24,137.96L124.62,137.96L125.33,138.09L130.29,137.83L131,137.18L133.12,137.18L133.83,136.14L136.66,136.27L137.37,135.74L138.79,135.88L139.49,135.22L140.92,134.57L141.62,135.22L144.45,132.22L145.17,133.27L147.29,131.57L148,132.22L150.83,128.44L151.54,130.14L154.37,127.14L155.09,128.05L156.5,126.48L157.21,127.66L157.92,128.7L158.63,127.79L159.34,128.83L160.04,128.31L160.75,127.4L161.46,128.44L162.17,127.79L162.88,128.18L165,128.83L165.71,128.44L168.56,124.79L169.26,124.92L170.68,125.96L171.39,124.01L174.23,123.09L174.94,121.4L177.77,121.92L178.48,120.61L179.19,118.4L179.9,119.96L180.61,119.96L181.31,118.79L182.02,119.7L182.73,119.18L184.15,117.35L184.86,117.48L186.98,114.35L187.69,114.48L189.11,112.14L189.81,112.92L191.23,110.83L191.94,111.35L194.07,110.7L194.77,108.09L195.48,107.96L196.19,106.92L196.9,105.48L197.61,105.74L198.32,106L199.02,107.18L199.74,107.83L200.44,107.18L201.16,109.13L201.86,108.35L202.57,108.22L203.28,106.66L203.99,106.27L204.69,106.79L206.11,107.05L206.82,61.25L208.94,59.15L209.65,58.88L213.9,56.78L214.61,56.52L217.45,54.54L218.16,54.28L220.28,54.41L220.99,53.75L224.53,53.62L225.24,53.75L236.58,51.78L237.29,52.18L239.41,51.12L240.12,51.25L240.83,51.52L241.53,50.73L245.79,50.07L247.2,49.54L247.91,48.23L249.33,47.83L250.74,47.44L251.45,45.73L252.16,46.91L252.87,45.73L254.29,45.73L255,45.07L255.71,44.94L256.41,43.76L258.54,43.49L259.25,41.91L260.66,40.2L261.37,39.42L262.06,38.1L262.76,38.76L264.89,37.71L265.6,36L268.44,35.34L269.14,33.36L269.85,32.71L270.56,33.23L271.98,32.44L272.69,32.05L273.4,31.92L274.1,30.86L275.52,30.86L276.23,31.39L277.64,32.97L278.36,31.13L279.77,32.31L280.49,30.34L281.9,30.47L282.61,30.86L284.73,29.02L285.44,29.42L286.86,27.71L287.57,26.66L288.28,24.16L288.99,24.68L289.69,23.24L290.4,24.68L291.82,22.84L292.53,22.58L293.24,21.26L293.94,21.66L295.36,21.79L296.07,20.74L296.78,21.26L297.49,19.68L298.9,19.55L299.61,18.5L302.44,18.89L303.15,17.97L304.57,17.84L305.28,17.97L306.7,16L307.4,16.66L308.12,16.39L308.83,171.81L312.37,171.4L313.08,172.08L315.2,170.99L315.91,170.99L317.33,169.76L318.03,169.76L319.45,168.94L320.16,169.08L332.21,168.39L332.91,167.98L342.12,165.8L342.83,165.12L346.37,164.02L347.08,162.66L349.94,162.38L350.65,163.61L352.07,161.7L352.77,161.57L353.48,160.88L354.19,158.43L354.9,156.51L355.61,156.79L356.32,156.1L357.02,154.33L357.74,154.88L358.44,154.19L359.86,154.33L360.57,153.37L361.99,152.69L362.7,153.65L364.82,150.92L365.53,151.87L367.66,149.14L368.36,149.14L369.07,148.32L369.78,149.41L371.2,150.37L371.91,149.41L372.61,149.55L373.33,148.73L376.16,145.18L376.87,144.5L378.99,143.54L379.7,145.04L383.95,141.9L384.66,143.68L386.08,121.97L386.79,121.56L388.2,120.88L388.91,116.1L389.62,116.24L390.33,112.28L391.04,112.55L391.75,109.96L392.46,106.95L393.16,107.91L395.29,101.22L396,98.08L397.42,97.53L398.12,95.35L398.83,94.8L399.54,92.07L400.96,89.34L401.66,89.34L403.79,85.65L404.5,84.7L405.92,82.78L406.63,80.19L410.17,75L410.88,88.44L414.42,84.03L415.13,84.45L415.84,84.31L416.55,85.14L417.97,84.72L418.67,85.41L420.09,84.59L420.79,84.45L422.22,84.03L422.92,84.03L424.34,84.17L425.05,83.62L430.01,84.03L430.72,83.62L434.97,83.21L435.68,83.48L438.51,83.48L439.22,83.35L440.64,83.35L441.34,83.35L443.47,83.35L444.18,83.9L447.72,79.9L448.43,80.18L450.56,78.8L451.26,78.94L451.97,78.53L452.68,76.87L454.09,77.15L454.8,75.63L458.35,72.47L459.06,72.88L461.18,69.44L461.89,69.02L464.02,66.41L464.73,66.41L466.14,63.79L466.85,63.79L468.27,61.86L468.98,59.66L471.1,54.29L471.81,54.43L473.23,53.6L473.94,51.4L476.77,49.47L477.48,47.82L481.73,46.85L482.44,45.75L483.15,46.16L483.86,45.48L484.57,45.89L490.23,41.21L493.78,38.59L494.49,39.28L497.32,35.97L498.03,35.84L498.74,34.46L499.45,35.01L500.86,33.91L501.57,34.18L502.28,35.28L502.99,34.32L505.82,32.94L506.53,33.91L509.37,33.22L510.07,32.12L512.2,29.78L512.91,81.26L514.32,81.68L515.04,80.56L515.74,79.86L516.45,80.42L518.58,80.42L519.29,81.4L521.41,81.12L522.12,81.12L525.67,81.4L526.37,81.12L529.21,79.86L529.92,80.28L537,79.58" style="vector-effect: non-scaling-stroke; fill: none; stroke: rgb(99, 110, 250); stroke-opacity: 1; stroke-width: 2px; opacity: 1;"/></g><g class="points"/><g class="text"/></g></g></g><g class="overplot"/><path class="xlines-above crisp" d="M0,0" style="fill: none;"/><path class="ylines-above crisp" d="M0,0" style="fill: none;"/><g class="overlines-above"/><g class="xaxislayer-above"><g class="xtick"><text text-anchor="middle" x="0" y="433" transform="translate(82.65,0)" style="font-family: 'Open Sans', verdana, arial, sans-serif; font-size: 12px; fill: rgb(42, 63, 95); fill-opacity: 1; white-space: pre;"><tspan class="line" dy="0em" x="0" y="433">Aug 3</tspan><tspan class="line" dy="1.3em" x="0" y="433">2021</tspan></text></g><g class="xtick"><text text-anchor="middle" x="0" y="433" transform="translate(184.68,0)" style="font-family: 'Open Sans', verdana, arial, sans-serif; font-size: 12px; fill: rgb(42, 63, 95); fill-opacity: 1; white-space: pre;">Aug 4</text></g><g class="xtick"><text text-anchor="middle" x="0" y="433" transform="translate(286.71000000000004,0)" style="font-family: 'Open Sans', verdana, arial, sans-serif; font-size: 12px; fill: rgb(42, 63, 95); fill-opacity: 1; white-space: pre;">Aug 5</text></g><g class="xtick"><text text-anchor="middle" x="0" y="433" transform="translate(388.74,0)" style="font-family: 'Open Sans', verdana, arial, sans-serif; font-size: 12px; fill: rgb(42, 63, 95); fill-opacity: 1; white-space: pre;">Aug 6</text></g><g class="xtick"><text text-anchor="middle" x="0" y="433" transform="translate(490.77,0)" style="font-family: 'Open Sans', verdana, arial, sans-serif; font-size: 12px; fill: rgb(42, 63, 95); fill-opacity: 1; white-space: pre;">Aug 7</text></g><g class="xtick"><text text-anchor="middle" x="0" y="433" transform="translate(592.8,0)" style="font-family: 'Open Sans', verdana, arial, sans-serif; font-size: 12px; fill: rgb(42, 63, 95); fill-opacity: 1; white-space: pre;">Aug 8</text></g></g><g class="yaxislayer-above"><g class="ytick"><text text-anchor="end" x="79" y="4.199999999999999" transform="translate(0,392.55)" style="font-family: 'Open Sans', verdana, arial, sans-serif; font-size: 12px; fill: rgb(42, 63, 95); fill-opacity: 1; white-space: pre;">0.864</text></g><g class="ytick"><text text-anchor="end" x="79" y="4.199999999999999" transform="translate(0,349.77)" style="font-family: 'Open Sans', verdana, arial, sans-serif; font-size: 12px; fill: rgb(42, 63, 95); fill-opacity: 1; white-space: pre;">0.865</text></g><g class="ytick"><text text-anchor="end" x="79" y="4.199999999999999" transform="translate(0,306.99)" style="font-family: 'Open Sans', verdana, arial, sans-serif; font-size: 12px; fill: rgb(42, 63, 95); fill-opacity: 1; white-space: pre;">0.866</text></g><g class="ytick"><text text-anchor="end" x="79" y="4.199999999999999" transform="translate(0,264.21000000000004)" style="font-family: 'Open Sans', verdana, arial, sans-serif; font-size: 12px; fill: rgb(42, 63, 95); fill-opacity: 1; white-space: pre;">0.867</text></g><g class="ytick"><text text-anchor="end" x="79" y="4.199999999999999" transform="translate(0,221.43)" style="font-family: 'Open Sans', verdana, arial, sans-serif; font-size: 12px; fill: rgb(42, 63, 95); fill-opacity: 1; white-space: pre;">0.868</text></g><g class="ytick"><text text-anchor="end" x="79" y="4.199999999999999" transform="translate(0,178.65)" style="font-family: 'Open Sans', verdana, arial, sans-serif; font-size: 12px; fill: rgb(42, 63, 95); fill-opacity: 1; white-space: pre;">0.869</text></g><g class="ytick"><text text-anchor="end" x="79" y="4.199999999999999" transform="translate(0,135.87)" style="font-family: 'Open Sans', verdana, arial, sans-serif; font-size: 12px; fill: rgb(42, 63, 95); fill-opacity: 1; white-space: pre;">0.87</text></g></g><g class="overaxes-above"/></g></g><g class="polarlayer"/><g class="ternarylayer"/><g class="geolayer"/><g class="funnelarealayer"/><g class="pielayer"/><g class="treemaplayer"/><g class="sunburstlayer"/><g class="glimages"/><defs id="topdefs-0fbcfd"><g class="clips"/><clipPath id="legend0fbcfd"><rect width="60" height="45" x="0" y="0"/></clipPath></defs><g class="layer-above"><g class="imagelayer"/><g class="shapelayer"/></g><g class="infolayer"><g class="legend" pointer-events="all" transform="translate(627.74,100)"><rect class="bg" shape-rendering="crispEdges" width="60" height="45" x="0" y="0" style="stroke: rgb(68, 68, 68); stroke-opacity: 1; fill: rgb(255, 255, 255); fill-opacity: 1; stroke-width: 0px;"/><g class="scrollbox" transform="" clip-path="url('#legend0fbcfd')"><text class="legendtitletext" text-anchor="start" x="2" y="15.600000000000001" style="font-family: 'Open Sans', verdana, arial, sans-serif; font-size: 12px; fill: rgb(42, 63, 95); fill-opacity: 1; white-space: pre;">All</text><g class="groups" transform=""><g class="traces" transform="translate(0,30.1)" style="opacity: 1;"><text class="legendtext" text-anchor="start" x="40" y="4.680000000000001" style="font-family: 'Open Sans', verdana, arial, sans-serif; font-size: 12px; fill: rgb(42, 63, 95); fill-opacity: 1; white-space: pre;">All</text><g class="layers" style="opacity: 1;"><g class="legendfill"/><g class="legendlines"><path class="js-line" d="M5,0h30" style="fill: none; stroke: rgb(99, 110, 250); stroke-opacity: 1; stroke-width: 2px;"/></g><g class="legendsymbols"><g class="legendpoints"/></g></g><rect class="legendtoggle" x="0" y="-9.5" width="54.890625" height="19" style="fill: rgb(0, 0, 0); fill-opacity: 0;"/></g></g></g><rect class="scrollbar" rx="20" ry="3" width="0" height="0" x="0" y="0" style="fill: rgb(128, 139, 164); fill-opacity: 1;"/></g><g class="g-gtitle"><text class="gtitle" x="35" y="50" text-anchor="start" dy="0em" style="font-family: 'Open Sans', verdana, arial, sans-serif; font-size: 17px; fill: rgb(42, 63, 95); opacity: 1; font-weight: normal; white-space: pre;">Singapore Vaccination Centers</text></g><g class="g-xtitle"><text class="xtitle" x="348.5" y="476.409375" text-anchor="middle" style="font-family: 'Open Sans', verdana, arial, sans-serif; font-size: 14px; fill: rgb(42, 63, 95); opacity: 1; font-weight: normal; white-space: pre;">Time</text></g><g class="g-ytitle"><text class="ytitle" transform="rotate(-90,19.840625000000003,260)" x="19.840625000000003" y="260" text-anchor="middle" style="font-family: 'Open Sans', verdana, arial, sans-serif; font-size: 14px; fill: rgb(42, 63, 95); opacity: 1; font-weight: normal; white-space: pre;">Filled/%</text></g></g></svg>