<svg class="main-svg" xmlns="http://www.w3.org/2000/svg" xmlns:xlink="http://www.w3.org/1999/xlink" width="700" height="500" style="" viewBox="0 0 700 500"><rect x="0" y="0" width="700" height="500" style="fill: rgb(255, 255, 255); fill-opacity: 1;"/><defs id="defs-9e7e44"><g class="clips"><clipPath id="clip9e7e44xyplot" class="plotclip"><rect width="537" height="320"/></clipPath><clipPath class="axesclip" id="clip9e7e44x"><rect x="80" y="0" width="537" height="500"/></clipPath><clipPath class="axesclip" id="clip9e7e44y"><rect x="0" y="100" width="700" height="320"/></clipPath><clipPath class="axesclip" id="clip9e7e44xy"><rect x="80" y="100" width="537" height="320"/></clipPath></g><g class="gradients"/></defs><g class="bglayer"><rect class="bg" x="80" y="100" width="537" height="320" style="fill: rgb(229, 236, 246); fill-opacity: 1; stroke-width: 0;"/></g><g class="layer-below"><g class="imagelayer"/><g class="shapelayer"/></g><g class="cartesianlayer"><g class="subplot xy"><g class="layer-subplot"><g class="shapelayer"/><g class="imagelayer"/></g><g class="gridlayer"><g class="x"><path class="xgrid crisp" transform="translate(83.18,0)" d="M0,100v320" style="stroke: rgb(255, 255, 255); stroke-opacity: 1; stroke-width: 1px;"/><path class="xgrid crisp" transform="translate(205.75,0)" d="M0,100v320" style="stroke: rgb(255, 255, 255); stroke-opacity: 1; stroke-width: 1px;"/><path class="xgrid crisp" transform="translate(328.32,0)" d="M0,100v320" style="stroke: rgb(255, 255, 255); stroke-opacity: 1; stroke-width: 1px;"/><path class="xgrid crisp" transform="translate(450.89,0)" d="M0,100v320" style="stroke: rgb(255, 255, 255); stroke-opacity: 1; stroke-width: 1px;"/><path class="xgrid crisp" transform="translate(573.46,0)" d="M0,100v320" style="stroke: rgb(255, 255, 255); stroke-opacity: 1; stroke-width: 1px;"/></g><g class="y"><path class="ygrid crisp" transform="translate(0,392.55)" d="M80,0h537" style="stroke: rgb(255, 255, 255); stroke-opacity: 1; stroke-width: 1px;"/><path class="ygrid crisp" transform="translate(0,349.77)" d="M80,0h537" style="stroke: rgb(255, 255, 255); stroke-opacity: 1; stroke-width: 1px;"/><path class="ygrid crisp" transform="translate(0,306.99)" d="M80,0h537" style="stroke: rgb(255, 255, 255); stroke-opacity: 1; stroke-width: 1px;"/><path class="ygrid crisp" transform="translate(0,264.21000000000004)" d="M80,0h537" style="stroke: rgb(255, 255, 255); stroke-opacity: 1; stroke-width: 1px;"/><path class="ygrid crisp" transform="translate(0,221.43)" d="M80,0h537" style="stroke: rgb(255, 255, 255); stroke-opacity: 1; stroke-width: 1px;"/><path class="ygrid crisp" transform="translate(0,178.65)" d="M80,0h537" style="stroke: rgb(255, 255, 255); stroke-opacity: 1; stroke-width: 1px;"/><path class="ygrid crisp" transform="translate(0,135.87)" d="M80,0h537" style="stroke: rgb(255, 255, 255); stroke-opacity: 1; stroke-width: 1px;"/></g></g><g class="zerolinelayer"/><path class="xlines-below"/><path class="ylines-below"/><g class="overlines-below"/><g class="xaxislayer-below"/><g class="yaxislayer-below"/><g class="overaxes-below"/><g class="plot" transform="translate(80,100)" clip-path="url('#clip9e7e44xyplot')"><g class="scatterlayer mlayer"><g class="trace scatter traced89d2c" style="stroke-miterlimit: 2; opacity: 1;"><g class="fills"/><g class="errorbars"/><g class="lines"><path class="js-line" d="M0,304L2.45,302.59L3.31,249.74L4.16,251.04L5.01,249.35L8.41,248.71L9.26,248.32L10.97,249.1L11.82,248.19L13.52,248.58L14.37,248.19L16.07,247.93L16.92,247.67L18.63,247.41L19.48,247.16L26.29,246.77L27.14,246.51L32.25,246.12L33.1,245.73L34.8,245.86L35.65,245.22L37.35,245.09L38.2,244.44L39.06,244.96L39.9,244.57L40.75,243.66L41.61,243.92L42.46,244.57L43.31,243.02L45.86,242.11L46.71,242.63L47.56,242.24L48.42,243.15L49.27,242.24L50.12,240.17L51.82,240.69L52.67,239.78L56.08,237.84L56.93,236.94L58.63,238.23L59.48,237.07L60.33,235L61.18,235.51L62.03,236.55L62.88,235L64.59,232.67L65.44,232.28L67.14,230.6L67.99,231.12L69.69,229.95L70.55,230.21L71.4,231.76L72.25,229.56L74.8,230.6L75.66,230.21L77.36,226.46L78.21,226.07L79.06,226.85L79.91,225.55L80.76,225.68L81.61,227.36L82.46,227.11L83.32,225.55L86.72,221.16L87.57,218.44L88.42,219.09L89.27,217.66L90.13,216.63L90.98,217.4L92.68,217.66L93.53,218.7L96.94,216.5L97.78,216.37L99.49,215.72L100.34,214.69L101.19,214.3L102.04,214.82L103.74,215.98L104.59,214.43L107.15,213.39L108,212.88L109.7,212.23L110.55,211.45L113.11,212.23L113.95,211.84L115.66,211.58L116.51,211.84L118.21,210.42L119.07,208.87L120.77,207.7L121.62,206.93L123.32,207.96L124.17,207.44L125.02,207.96L125.88,142.27L128.43,140.18L129.28,140.44L130.98,139.92L131.83,139.01L133.54,139.14L134.39,139.14L137.79,138.48L138.64,138.35L141.19,137.83L142.05,137.96L149.7,137.96L150.56,138.09L156.51,137.83L157.37,137.18L159.92,137.18L160.77,136.14L164.17,136.27L165.03,135.74L166.73,135.88L167.58,135.22L169.29,134.57L170.13,135.22L173.53,132.22L174.39,133.27L176.94,131.57L177.79,132.22L181.2,128.44L182.05,130.14L185.45,127.14L186.31,128.05L188.01,126.48L188.86,127.66L189.71,128.7L190.56,127.79L191.41,128.83L192.26,128.31L193.11,127.4L193.96,128.44L194.82,127.79L195.67,128.18L198.22,128.83L199.07,128.44L200.79,126.48L201.64,125.05L203.34,124.92L204.19,125.44L205.04,125.96L205.9,124.01L209.3,123.09L210.15,121.4L213.56,121.92L214.41,120.61L215.26,118.4L216.11,119.96L216.97,119.96L217.81,118.79L218.66,119.7L219.51,119.18L221.22,117.35L222.07,117.48L224.62,114.35L225.47,114.48L227.18,112.14L228.03,112.92L229.73,110.83L230.58,111.35L233.13,110.7L233.98,108.09L234.84,107.96L235.68,106.92L236.54,105.48L237.39,105.74L238.24,106L239.09,107.18L239.95,107.83L240.79,107.18L241.65,109.13L242.5,108.35L243.35,108.22L244.2,106.66L245.05,106.27L245.9,106.79L247.6,107.05L248.46,61.25L250.15,59.41L251.01,59.15L253.56,57.57L254.41,57.17L256.11,57.04L256.96,56.78L260.37,55.46L261.22,54.54L262.93,54.28L263.78,54.81L267.18,53.75L268.03,53.62L269.73,53.62L270.59,53.75L284.2,51.78L285.05,52.18L287.61,51.12L288.45,51.25L289.31,51.52L290.15,50.73L295.26,50.07L296.97,49.54L297.82,48.23L299.52,47.83L301.22,47.44L302.07,45.73L302.93,46.91L303.78,45.73L305.48,45.73L306.33,45.07L307.18,44.94L308.03,43.76L310.58,43.49L311.44,41.91L313.14,40.2L313.99,39.42L314.82,38.1L315.66,38.76L318.22,37.71L319.07,36L322.47,35.34L323.32,33.36L324.18,32.71L325.03,33.23L326.73,32.44L327.58,32.05L328.43,31.92L329.28,30.86L330.99,30.86L331.83,31.39L333.54,32.97L334.39,31.13L336.1,32.31L336.96,30.34L338.65,30.47L339.5,30.86L342.05,29.02L342.91,29.42L344.6,27.71L345.46,26.66L346.31,24.16L347.16,24.68L348.01,23.24L348.86,24.68L350.57,22.84L351.42,22.58L352.27,21.26L353.11,21.66L354.82,21.79L355.67,20.74L356.52,21.26L357.37,19.68L359.07,19.55L359.93,18.5L363.33,18.89L364.18,17.97L365.03,17.45L365.89,17.84L366.74,17.97L367.59,17.05L368.44,16L369.29,16.66L370.14,16.39L371,171.81L375.25,171.4L376.1,172.08L378.66,170.99L379.51,170.99L381.21,169.76L382.06,169.76L383.76,168.94L384.61,169.08L399.08,168.39L399.93,167.98L410.99,165.8L411.85,165.12L416.1,164.02L416.96,162.66L420.39,162.38L421.24,163.61L422.94,161.7L423.79,161.57L424.64,160.88L425.5,158.43L426.34,156.51L427.2,156.79L428.05,156.1L428.9,154.33L429.75,154.88L430.6,154.19L432.31,154.33L433.16,153.37L434.86,152.69L435.71,153.65L438.26,150.92L439.11,151.87L441.67,149.14L442.52,149.14L443.37,148.32L444.22,149.41L445.92,150.37L446.77,149.41L447.62,149.55L448.48,148.73L451.89,145.18L452.74,144.5L455.28,143.54L456.14,145.04L461.25,141.9L462.1,143.68L462.95,121.97L463.8,121.97L466.35,120.88L467.21,116.1L468.05,116.24L468.9,112.28L469.76,112.55L470.61,109.96L471.46,106.95L472.31,107.91L474.01,104.77L474.86,101.22L475.72,98.08L476.57,98.08L477.42,97.53L478.27,95.35L479.12,94.8L479.98,92.07L481.67,89.34L482.52,89.34L484.23,85.93L485.08,85.65L487.63,82.78L488.49,80.19L492.74,75L493.59,88.44L497.85,84.03L498.7,84.45L499.55,84.31L500.4,85.14L502.11,84.72L502.96,85.41L504.66,84.59L505.5,84.45L507.21,84.03L508.06,84.03L509.77,84.17L510.62,83.62L516.57,84.03L517.43,83.62L522.54,83.21L523.38,83.48L526.78,83.48L527.64,83.35L529.34,83.35L530.19,83.35L532.74,83.35L533.6,83.9L537,80.73" style="vector-effect: non-scaling-stroke; fill: none; stroke: rgb(99, 110, 250); stroke-opacity: 1; stroke-width: 2px; opacity: 1;"/></g><g class="points"/><g class="text"/></g></g></g><g class="overplot"/><path class="xlines-above crisp" d="M0,0" style="fill: none;"/><path class="ylines-above crisp" d="M0,0" style="fill: none;"/><g class="overlines-above"/><g class="xaxislayer-above"><g class="xtick"><text text-anchor="middle" x="0" y="433" transform="translate(83.18,0)" style="font-family: 'Open Sans', verdana, arial, sans-serif; font-size: 12px; fill: rgb(42, 63, 95); fill-opacity: 1; white-space: pre;"><tspan class="line" dy="0em" x="0" y="433">Aug 3</tspan><tspan class="line" dy="1.3em" x="0" y="433">2021</tspan></text></g><g class="xtick"><text text-anchor="middle" x="0" y="433" transform="translate(205.75,0)" style="font-family: 'Open Sans', verdana, arial, sans-serif; font-size: 12px; fill: rgb(42, 63, 95); fill-opacity: 1; white-space: pre;">Aug 4</text></g><g class="xtick"><text text-anchor="middle" x="0" y="433" transform="translate(328.32,0)" style="font-family: 'Open Sans', verdana, arial, sans-serif; font-size: 12px; fill: rgb(42, 63, 95); fill-opacity: 1; white-space: pre;">Aug 5</text></g><g class="xtick"><text text-anchor="middle" x="0" y="433" transform="translate(450.89,0)" style="font-family: 'Open Sans', verdana, arial, sans-serif; font-size: 12px; fill: rgb(42, 63, 95); fill-opacity: 1; white-space: pre;">Aug 6</text></g><g class="xtick"><text text-anchor="middle" x="0" y="433" transform="translate(573.46,0)" style="font-family: 'Open Sans', verdana, arial, sans-serif; font-size: 12px; fill: rgb(42, 63, 95); fill-opacity: 1; white-space: pre;">Aug 7</text></g></g><g class="yaxislayer-above"><g class="ytick"><text text-anchor="end" x="79" y="4.199999999999999" transform="translate(0,392.55)" style="font-family: 'Open Sans', verdana, arial, sans-serif; font-size: 12px; fill: rgb(42, 63, 95); fill-opacity: 1; white-space: pre;">0.864</text></g><g class="ytick"><text text-anchor="end" x="79" y="4.199999999999999" transform="translate(0,349.77)" style="font-family: 'Open Sans', verdana, arial, sans-serif; font-size: 12px; fill: rgb(42, 63, 95); fill-opacity: 1; white-space: pre;">0.865</text></g><g class="ytick"><text text-anchor="end" x="79" y="4.199999999999999" transform="translate(0,306.99)" style="font-family: 'Open Sans', verdana, arial, sans-serif; font-size: 12px; fill: rgb(42, 63, 95); fill-opacity: 1; white-space: pre;">0.866</text></g><g class="ytick"><text text-anchor="end" x="79" y="4.199999999999999" transform="translate(0,264.21000000000004)" style="font-family: 'Open Sans', verdana, arial, sans-serif; font-size: 12px; fill: rgb(42, 63, 95); fill-opacity: 1; white-space: pre;">0.867</text></g><g class="ytick"><text text-anchor="end" x="79" y="4.199999999999999" transform="translate(0,221.43)" style="font-family: 'Open Sans', verdana, arial, sans-serif; font-size: 12px; fill: rgb(42, 63, 95); fill-opacity: 1; white-space: pre;">0.868</text></g><g class="ytick"><text text-anchor="end" x="79" y="4.199999999999999" transform="translate(0,178.65)" style="font-family: 'Open Sans', verdana, arial, sans-serif; font-size: 12px; fill: rgb(42, 63, 95); fill-opacity: 1; white-space: pre;">0.869</text></g><g class="ytick"><text text-anchor="end" x="79" y="4.199999999999999" transform="translate(0,135.87)" style="font-family: 'Open Sans', verdana, arial, sans-serif; font-size: 12px; fill: rgb(42, 63, 95); fill-opacity: 1; white-space: pre;">0.87</text></g></g><g class="overaxes-above"/></g></g><g class="polarlayer"/><g class="ternarylayer"/><g class="geolayer"/><g class="funnelarealayer"/><g class="pielayer"/><g class="treemaplayer"/><g class="sunburstlayer"/><g class="glimages"/><defs id="topdefs-9e7e44"><g class="clips"/><clipPath id="legend9e7e44"><rect width="60" height="45" x="0" y="0"/></clipPath></defs><g class="layer-above"><g class="imagelayer"/><g class="shapelayer"/></g><g class="infolayer"><g class="legend" pointer-events="all" transform="translate(627.74,100)"><rect class="bg" shape-rendering="crispEdges" width="60" height="45" x="0" y="0" style="stroke: rgb(68, 68, 68); stroke-opacity: 1; fill: rgb(255, 255, 255); fill-opacity: 1; stroke-width: 0px;"/><g class="scrollbox" transform="" clip-path="url('#legend9e7e44')"><text class="legendtitletext" text-anchor="start" x="2" y="15.600000000000001" style="font-family: 'Open Sans', verdana, arial, sans-serif; font-size: 12px; fill: rgb(42, 63, 95); fill-opacity: 1; white-space: pre;">All</text><g class="groups" transform=""><g class="traces" transform="translate(0,30.1)" style="opacity: 1;"><text class="legendtext" text-anchor="start" x="40" y="4.680000000000001" style="font-family: 'Open Sans', verdana, arial, sans-serif; font-size: 12px; fill: rgb(42, 63, 95); fill-opacity: 1; white-space: pre;">All</text><g class="layers" style="opacity: 1;"><g class="legendfill"/><g class="legendlines"><path class="js-line" d="M5,0h30" style="fill: none; stroke: rgb(99, 110, 250); stroke-opacity: 1; stroke-width: 2px;"/></g><g class="legendsymbols"><g class="legendpoints"/></g></g><rect class="legendtoggle" x="0" y="-9.5" width="54.890625" height="19" style="fill: rgb(0, 0, 0); fill-opacity: 0;"/></g></g></g><rect class="scrollbar" rx="20" ry="3" width="0" height="0" x="0" y="0" style="fill: rgb(128, 139, 164); fill-opacity: 1;"/></g><g class="g-gtitle"><text class="gtitle" x="35" y="50" text-anchor="start" dy="0em" style="font-family: 'Open Sans', verdana, arial, sans-serif; font-size: 17px; fill: rgb(42, 63, 95); opacity: 1; font-weight: normal; white-space: pre;">Singapore Vaccination Centers</text></g><g class="g-xtitle"><text class="xtitle" x="348.5" y="476.409375" text-anchor="middle" style="font-family: 'Open Sans', verdana, arial, sans-serif; font-size: 14px; fill: rgb(42, 63, 95); opacity: 1; font-weight: normal; white-space: pre;">Time</text></g><g class="g-ytitle"><text class="ytitle" transform="rotate(-90,19.840625000000003,260)" x="19.840625000000003" y="260" text-anchor="middle" style="font-family: 'Open Sans', verdana, arial, sans-serif; font-size: 14px; fill: rgb(42, 63, 95); opacity: 1; font-weight: normal; white-space: pre;">Filled/%</text></g></g></svg>