<svg class="main-svg" xmlns="http://www.w3.org/2000/svg" xmlns:xlink="http://www.w3.org/1999/xlink" width="700" height="500" style="" viewBox="0 0 700 500"><rect x="0" y="0" width="700" height="500" style="fill: rgb(255, 255, 255); fill-opacity: 1;"/><defs id="defs-11c55c"><g class="clips"><clipPath id="clip11c55cxyplot" class="plotclip"><rect width="537" height="320"/></clipPath><clipPath class="axesclip" id="clip11c55cx"><rect x="80" y="0" width="537" height="500"/></clipPath><clipPath class="axesclip" id="clip11c55cy"><rect x="0" y="100" width="700" height="320"/></clipPath><clipPath class="axesclip" id="clip11c55cxy"><rect x="80" y="100" width="537" height="320"/></clipPath></g><g class="gradients"/></defs><g class="bglayer"><rect class="bg" x="80" y="100" width="537" height="320" style="fill: rgb(229, 236, 246); fill-opacity: 1; stroke-width: 0;"/></g><g class="layer-below"><g class="imagelayer"/><g class="shapelayer"/></g><g class="cartesianlayer"><g class="subplot xy"><g class="layer-subplot"><g class="shapelayer"/><g class="imagelayer"/></g><g class="gridlayer"><g class="x"><path class="xgrid crisp" transform="translate(82.15,0)" d="M0,100v320" style="stroke: rgb(255, 255, 255); stroke-opacity: 1; stroke-width: 1px;"/><path class="xgrid crisp" transform="translate(165.13,0)" d="M0,100v320" style="stroke: rgb(255, 255, 255); stroke-opacity: 1; stroke-width: 1px;"/><path class="xgrid crisp" transform="translate(248.11,0)" d="M0,100v320" style="stroke: rgb(255, 255, 255); stroke-opacity: 1; stroke-width: 1px;"/><path class="xgrid crisp" transform="translate(331.09000000000003,0)" d="M0,100v320" style="stroke: rgb(255, 255, 255); stroke-opacity: 1; stroke-width: 1px;"/><path class="xgrid crisp" transform="translate(414.07,0)" d="M0,100v320" style="stroke: rgb(255, 255, 255); stroke-opacity: 1; stroke-width: 1px;"/><path class="xgrid crisp" transform="translate(497.05,0)" d="M0,100v320" style="stroke: rgb(255, 255, 255); stroke-opacity: 1; stroke-width: 1px;"/><path class="xgrid crisp" transform="translate(580.03,0)" d="M0,100v320" style="stroke: rgb(255, 255, 255); stroke-opacity: 1; stroke-width: 1px;"/></g><g class="y"><path class="ygrid crisp" transform="translate(0,393.23)" d="M80,0h537" style="stroke: rgb(255, 255, 255); stroke-opacity: 1; stroke-width: 1px;"/><path class="ygrid crisp" transform="translate(0,352.98)" d="M80,0h537" style="stroke: rgb(255, 255, 255); stroke-opacity: 1; stroke-width: 1px;"/><path class="ygrid crisp" transform="translate(0,312.74)" d="M80,0h537" style="stroke: rgb(255, 255, 255); stroke-opacity: 1; stroke-width: 1px;"/><path class="ygrid crisp" transform="translate(0,272.49)" d="M80,0h537" style="stroke: rgb(255, 255, 255); stroke-opacity: 1; stroke-width: 1px;"/><path class="ygrid crisp" transform="translate(0,232.25)" d="M80,0h537" style="stroke: rgb(255, 255, 255); stroke-opacity: 1; stroke-width: 1px;"/><path class="ygrid crisp" transform="translate(0,192)" d="M80,0h537" style="stroke: rgb(255, 255, 255); stroke-opacity: 1; stroke-width: 1px;"/><path class="ygrid crisp" transform="translate(0,151.76)" d="M80,0h537" style="stroke: rgb(255, 255, 255); stroke-opacity: 1; stroke-width: 1px;"/><path class="ygrid crisp" transform="translate(0,111.52)" d="M80,0h537" style="stroke: rgb(255, 255, 255); stroke-opacity: 1; stroke-width: 1px;"/></g></g><g class="zerolinelayer"/><path class="xlines-below"/><path class="ylines-below"/><g class="overlines-below"/><g class="xaxislayer-below"/><g class="yaxislayer-below"/><g class="overaxes-below"/><g class="plot" transform="translate(80,100)" clip-path="url('#clip11c55cxyplot')"><g class="scatterlayer mlayer"><g class="trace scatter tracef175a0" style="stroke-miterlimit: 2; opacity: 1;"><g class="fills"/><g class="errorbars"/><g class="lines"><path class="js-line" d="M0,304L1.66,302.67L2.24,252.96L2.81,254.18L3.39,252.59L5.69,251.99L6.27,251.62L7.42,252.35L8,251.5L9.15,251.86L9.73,251.5L10.88,251.25L11.46,251.01L12.61,250.77L13.19,250.52L20.67,250.16L21.25,249.67L25.29,248.58L25.86,247.97L27.02,248.09L27.59,247.24L28.74,248.09L29.32,246.63L31.05,245.78L31.62,246.27L32.2,245.9L32.78,246.75L33.93,243.95L34.51,244.44L35.08,244.44L35.66,243.59L38.54,240.91L39.12,241.88L39.69,242.13L40.27,241.03L40.84,239.09L41.42,239.57L42,240.55L44.3,236.53L44.88,235.68L45.46,234.95L46.03,235.44L47.18,234.34L47.76,234.58L48.34,236.04L48.91,233.98L51.22,234.58L51.79,232.64L52.95,230.69L53.52,231.42L54.68,230.32L55.25,231.91L55.83,231.66L56.4,230.2L58.71,226.07L59.28,223.51L59.86,224.12L60.44,222.78L61.02,221.81L61.59,222.54L62.74,222.78L63.32,223.75L66.2,221.56L66.78,221.32L69.08,220.1L69.66,221.2L70.23,221.2L70.81,219.74L73.12,218.28L73.69,218.16L75.42,217.3L75.99,217.18L77.15,217.3L77.73,216.94L79.45,216.82L80.03,215.97L81.76,213.41L82.34,212.68L83.49,213.65L84.06,213.17L84.64,213.65L85.22,151.85L87.52,150.13L88.1,150.01L90.4,148.91L90.98,148.91L93.86,148.17L94.44,147.8L99.05,147.19L99.63,147.56L104.23,147.8L104.81,147.68L107.69,147.07L108.27,147.07L109.42,146.21L110,146.58L111.14,146.21L111.72,145.72L112.87,145.84L113.45,145.23L115.18,145.23L115.76,144.24L117.48,142.4L118.06,143.39L119.79,141.79L120.37,142.4L122.67,138.85L123.25,140.44L125.55,137.62L126.13,138.48L127.28,137L127.86,138.11L128.43,139.09L129.01,138.23L129.59,139.21L130.16,138.72L130.74,137.86L131.31,138.85L131.89,138.23L134.2,139.21L134.77,138.85L137.09,135.41L137.66,135.53L138.81,136.51L139.39,134.67L141.7,133.81L142.27,132.22L144.58,132.71L145.15,131.48L145.73,129.4L146.31,130.87L146.89,130.87L147.46,129.76L148.04,130.62L148.61,130.13L149.19,129.03L151.49,126.57L152.07,125.59L152.65,125.72L153.22,124.73L153.8,123.51L154.37,124.24L155.53,122.28L156.1,122.77L156.68,122.4L157.83,122.16L158.41,119.7L158.98,119.58L159.56,118.6L160.71,117.49L161.29,117.74L162.45,119.46L163.02,118.84L163.6,120.68L164.17,119.95L164.75,119.83L165.32,118.35L166.48,118.48L167.05,118.35L167.63,118.72L168.21,75.64L169.93,73.66L170.51,73.41L175.69,70.32L176.27,70.19L177.42,69.08L178,69.08L179.15,69.2L179.73,68.59L182.61,68.46L183.19,68.59L192.4,66.73L192.98,67.1L194.71,66.11L195.28,66.23L195.86,66.48L196.43,65.74L199.89,65.12L201.05,64.63L201.62,63.39L202.77,63.02L203.93,62.65L204.5,61.04L205.08,62.15L205.66,61.04L206.81,61.04L207.38,60.42L207.96,60.29L208.54,59.18L210.27,58.93L210.84,57.45L213.13,53.86L213.7,54.48L215.43,53.49L216.01,51.88L218.32,51.26L218.89,49.4L219.47,48.79L220.04,49.28L222.35,48.04L222.92,47.05L224.08,47.05L224.65,47.55L225.8,49.03L226.39,47.3L227.54,48.41L228.12,46.56L229.27,46.68L229.84,47.05L231.57,45.32L232.15,45.69L233.3,44.08L233.87,43.09L234.45,40.74L235.03,41.24L235.6,39.88L236.18,41.24L236.75,39.75L237.91,39.26L238.48,38.02L240.21,38.51L240.79,37.52L241.36,38.02L241.94,36.53L243.09,36.41L243.67,35.42L245.97,35.79L246.55,34.93L247.71,34.8L248.28,34.93L249.44,33.07L250.01,33.69L250.59,33.44L251.16,179.64L254.04,179.26L254.62,179.9L256.35,178.87L256.93,178.87L258.08,177.71L258.65,177.71L260.38,177.07L260.96,177.07L264.99,176.69L265.57,176.69L269.6,176.43L270.18,176.43L272.48,175.53L273.06,175.79L276.51,175.02L277.09,174.89L279.39,173.22L279.97,172.7L281.7,172.32L282.28,171.03L284.6,170.78L285.18,171.93L286.33,170.14L286.91,170.01L287.49,169.37L288.06,167.05L288.63,165.26L289.21,165.51L289.79,164.87L290.36,163.2L290.94,163.71L291.52,163.07L292.67,163.2L293.25,162.3L294.4,161.66L294.98,162.56L296.71,159.99L297.28,160.89L299.01,158.32L299.59,158.32L300.16,157.55L300.74,158.58L301.89,159.48L302.47,158.58L303.04,158.7L303.62,157.93L306.5,153.95L307.08,153.44L308.23,153.05L308.81,154.47L312.26,151.51L312.84,153.18L313.99,132.76L314.57,132.37L315.72,131.73L316.3,127.24L316.87,127.36L317.45,123.64L318.03,123.9L318.6,121.46L319.18,118.63L319.76,119.53L320.33,117.86L320.91,116.58L321.48,113.24L322.64,110.28L323.21,109.77L326.09,102.06L326.67,102.06L328.4,98.59L328.98,97.69L333.59,88.57L334.16,101.22L337.05,97.07L337.62,97.46L338.2,97.33L338.77,98.11L339.93,97.72L340.5,98.37L342.23,97.46L342.8,97.59L343.96,97.07L344.54,97.2L350.87,96.55L351.45,96.42L360.67,96.42L361.25,96.94L364.12,93.19L364.7,93.44L366.43,92.15L367.01,92.28L367.58,91.89L368.16,90.34L369.31,90.59L369.89,89.17L372.77,86.19L373.34,86.58L375.07,83.34L375.65,82.95L377.38,80.49L377.96,80.49L379.11,78.03L379.68,78.03L380.84,76.21L381.41,74.14L383.72,69.22L384.3,68.83L384.87,68.44L385.45,66.37L387.75,64.55L388.33,63L391.79,62.09L392.36,61.06L392.94,61.45L393.51,60.8L394.09,61.19L398.7,56.78L401.58,54.32L402.16,54.97L404.46,51.86L405.04,51.73L405.62,50.43L406.19,50.95L406.77,50.3L407.92,50.17L408.5,51.21L409.65,50.04L410.23,49.92L411.38,49.01L411.96,49.92L414.26,49.27L414.84,48.23L416.57,46.03L417.14,94.46L418.29,94.86L418.87,93.8L419.45,93.14L420.02,93.67L421.75,93.67L422.33,94.59L424.63,94.33L425.21,94.46L426.94,94.59L427.52,94.59L430.4,93.14L430.97,93.54L436.74,92.88L437.31,92.88L443.65,92.61L444.23,92.48L447.11,92.09L447.68,91.69L448.84,91.16L449.41,90.24L450.56,89.84L451.14,88.52L451.72,87.2L452.29,88.52L454.6,87.6L455.17,87.6L456.33,85.62L456.9,85.36L458.63,82.59L459.21,82.45L460.94,82.06L461.51,81.27L462.66,80.61L463.24,80.74L464.39,79.29L464.97,78.63L467.28,77.7L467.85,78.1L468.43,77.57L469,78.23L470.16,74.93L470.74,75.2L471.31,75.2L473.04,74.67L473.62,73.48L476.5,71.11L477.07,71.37L480.53,68.99L481.1,68.07L481.68,68.47L482.26,67.67L483.41,67.81L483.99,67.67L485.14,66.88L485.72,66.09L487.44,65.04L488.02,63.58L490.33,62.13L490.9,60.42L492.06,58.57L492.63,59.23L495.51,57.38L496.09,57.38L497.24,56.06L497.82,56.06L499.55,56.06L500.12,23.85L504.73,20.39L505.31,20.53L507.04,20.26L507.61,19.86L509.92,20.66L510.5,20.66L515.1,20.39L515.68,20.26L525.48,20.26L526.05,20.66L528.36,20.13L528.94,20.26L529.51,19.33L530.09,20.53L531.24,19.59L531.81,18.66L534.12,17.46L534.69,17.86L536.42,16L537,16.27" style="vector-effect: non-scaling-stroke; fill: none; stroke: rgb(99, 110, 250); stroke-opacity: 1; stroke-width: 2px; opacity: 1;"/></g><g class="points"/><g class="text"/></g></g></g><g class="overplot"/><path class="xlines-above crisp" d="M0,0" style="fill: none;"/><path class="ylines-above crisp" d="M0,0" style="fill: none;"/><g class="overlines-above"/><g class="xaxislayer-above"><g class="xtick"><text text-anchor="middle" x="0" y="433" transform="translate(82.15,0)" style="font-family: 'Open Sans', verdana, arial, sans-serif; font-size: 12px; fill: rgb(42, 63, 95); fill-opacity: 1; white-space: pre;"><tspan class="line" dy="0em" x="0" y="433">Aug 3</tspan><tspan class="line" dy="1.3em" x="0" y="433">2021</tspan></text></g><g class="xtick"><text text-anchor="middle" x="0" y="433" transform="translate(165.13,0)" style="font-family: 'Open Sans', verdana, arial, sans-serif; font-size: 12px; fill: rgb(42, 63, 95); fill-opacity: 1; white-space: pre;">Aug 4</text></g><g class="xtick"><text text-anchor="middle" x="0" y="433" transform="translate(248.11,0)" style="font-family: 'Open Sans', verdana, arial, sans-serif; font-size: 12px; fill: rgb(42, 63, 95); fill-opacity: 1; white-space: pre;">Aug 5</text></g><g class="xtick"><text text-anchor="middle" x="0" y="433" transform="translate(331.09000000000003,0)" style="font-family: 'Open Sans', verdana, arial, sans-serif; font-size: 12px; fill: rgb(42, 63, 95); fill-opacity: 1; white-space: pre;">Aug 6</text></g><g class="xtick"><text text-anchor="middle" x="0" y="433" transform="translate(414.07,0)" style="font-family: 'Open Sans', verdana, arial, sans-serif; font-size: 12px; fill: rgb(42, 63, 95); fill-opacity: 1; white-space: pre;">Aug 7</text></g><g class="xtick"><text text-anchor="middle" x="0" y="433" transform="translate(497.05,0)" style="font-family: 'Open Sans', verdana, arial, sans-serif; font-size: 12px; fill: rgb(42, 63, 95); fill-opacity: 1; white-space: pre;">Aug 8</text></g><g class="xtick"><text text-anchor="middle" x="0" y="433" transform="translate(580.03,0)" style="font-family: 'Open Sans', verdana, arial, sans-serif; font-size: 12px; fill: rgb(42, 63, 95); fill-opacity: 1; white-space: pre;">Aug 9</text></g></g><g class="yaxislayer-above"><g class="ytick"><text text-anchor="end" x="79" y="4.199999999999999" transform="translate(0,393.23)" style="font-family: 'Open Sans', verdana, arial, sans-serif; font-size: 12px; fill: rgb(42, 63, 95); fill-opacity: 1; white-space: pre;">0.864</text></g><g class="ytick"><text text-anchor="end" x="79" y="4.199999999999999" transform="translate(0,352.98)" style="font-family: 'Open Sans', verdana, arial, sans-serif; font-size: 12px; fill: rgb(42, 63, 95); fill-opacity: 1; white-space: pre;">0.865</text></g><g class="ytick"><text text-anchor="end" x="79" y="4.199999999999999" transform="translate(0,312.74)" style="font-family: 'Open Sans', verdana, arial, sans-serif; font-size: 12px; fill: rgb(42, 63, 95); fill-opacity: 1; white-space: pre;">0.866</text></g><g class="ytick"><text text-anchor="end" x="79" y="4.199999999999999" transform="translate(0,272.49)" style="font-family: 'Open Sans', verdana, arial, sans-serif; font-size: 12px; fill: rgb(42, 63, 95); fill-opacity: 1; white-space: pre;">0.867</text></g><g class="ytick"><text text-anchor="end" x="79" y="4.199999999999999" transform="translate(0,232.25)" style="font-family: 'Open Sans', verdana, arial, sans-serif; font-size: 12px; fill: rgb(42, 63, 95); fill-opacity: 1; white-space: pre;">0.868</text></g><g class="ytick"><text text-anchor="end" x="79" y="4.199999999999999" transform="translate(0,192)" style="font-family: 'Open Sans', verdana, arial, sans-serif; font-size: 12px; fill: rgb(42, 63, 95); fill-opacity: 1; white-space: pre;">0.869</text></g><g class="ytick"><text text-anchor="end" x="79" y="4.199999999999999" transform="translate(0,151.76)" style="font-family: 'Open Sans', verdana, arial, sans-serif; font-size: 12px; fill: rgb(42, 63, 95); fill-opacity: 1; white-space: pre;">0.87</text></g><g class="ytick"><text text-anchor="end" x="79" y="4.199999999999999" transform="translate(0,111.52)" style="font-family: 'Open Sans', verdana, arial, sans-serif; font-size: 12px; fill: rgb(42, 63, 95); fill-opacity: 1; white-space: pre;">0.871</text></g></g><g class="overaxes-above"/></g></g><g class="polarlayer"/><g class="ternarylayer"/><g class="geolayer"/><g class="funnelarealayer"/><g class="pielayer"/><g class="treemaplayer"/><g class="sunburstlayer"/><g class="glimages"/><defs id="topdefs-11c55c"><g class="clips"/><clipPath id="legend11c55c"><rect width="60" height="45" x="0" y="0"/></clipPath></defs><g class="layer-above"><g class="imagelayer"/><g class="shapelayer"/></g><g class="infolayer"><g class="legend" pointer-events="all" transform="translate(627.74,100)"><rect class="bg" shape-rendering="crispEdges" width="60" height="45" x="0" y="0" style="stroke: rgb(68, 68, 68); stroke-opacity: 1; fill: rgb(255, 255, 255); fill-opacity: 1; stroke-width: 0px;"/><g class="scrollbox" transform="" clip-path="url('#legend11c55c')"><text class="legendtitletext" text-anchor="start" x="2" y="15.600000000000001" style="font-family: 'Open Sans', verdana, arial, sans-serif; font-size: 12px; fill: rgb(42, 63, 95); fill-opacity: 1; white-space: pre;">All</text><g class="groups" transform=""><g class="traces" transform="translate(0,30.1)" style="opacity: 1;"><text class="legendtext" text-anchor="start" x="40" y="4.680000000000001" style="font-family: 'Open Sans', verdana, arial, sans-serif; font-size: 12px; fill: rgb(42, 63, 95); fill-opacity: 1; white-space: pre;">All</text><g class="layers" style="opacity: 1;"><g class="legendfill"/><g class="legendlines"><path class="js-line" d="M5,0h30" style="fill: none; stroke: rgb(99, 110, 250); stroke-opacity: 1; stroke-width: 2px;"/></g><g class="legendsymbols"><g class="legendpoints"/></g></g><rect class="legendtoggle" x="0" y="-9.5" width="54.890625" height="19" style="fill: rgb(0, 0, 0); fill-opacity: 0;"/></g></g></g><rect class="scrollbar" rx="20" ry="3" width="0" height="0" x="0" y="0" style="fill: rgb(128, 139, 164); fill-opacity: 1;"/></g><g class="g-gtitle"><text class="gtitle" x="35" y="50" text-anchor="start" dy="0em" style="font-family: 'Open Sans', verdana, arial, sans-serif; font-size: 17px; fill: rgb(42, 63, 95); opacity: 1; font-weight: normal; white-space: pre;">Singapore Vaccination Centers</text></g><g class="g-xtitle"><text class="xtitle" x="348.5" y="476.409375" text-anchor="middle" style="font-family: 'Open Sans', verdana, arial, sans-serif; font-size: 14px; fill: rgb(42, 63, 95); opacity: 1; font-weight: normal; white-space: pre;">Time</text></g><g class="g-ytitle"><text class="ytitle" transform="rotate(-90,19.840625000000003,260)" x="19.840625000000003" y="260" text-anchor="middle" style="font-family: 'Open Sans', verdana, arial, sans-serif; font-size: 14px; fill: rgb(42, 63, 95); opacity: 1; font-weight: normal; white-space: pre;">Filled/%</text></g></g></svg>