<svg class="main-svg" xmlns="http://www.w3.org/2000/svg" xmlns:xlink="http://www.w3.org/1999/xlink" width="700" height="500" style="" viewBox="0 0 700 500"><rect x="0" y="0" width="700" height="500" style="fill: rgb(255, 255, 255); fill-opacity: 1;"/><defs id="defs-d82094"><g class="clips"><clipPath id="clipd82094xyplot" class="plotclip"><rect width="537" height="320"/></clipPath><clipPath class="axesclip" id="clipd82094x"><rect x="80" y="0" width="537" height="500"/></clipPath><clipPath class="axesclip" id="clipd82094y"><rect x="0" y="100" width="700" height="320"/></clipPath><clipPath class="axesclip" id="clipd82094xy"><rect x="80" y="100" width="537" height="320"/></clipPath></g><g class="gradients"/></defs><g class="bglayer"><rect class="bg" x="80" y="100" width="537" height="320" style="fill: rgb(229, 236, 246); fill-opacity: 1; stroke-width: 0;"/></g><g class="layer-below"><g class="imagelayer"/><g class="shapelayer"/></g><g class="cartesianlayer"><g class="subplot xy"><g class="layer-subplot"><g class="shapelayer"/><g class="imagelayer"/></g><g class="gridlayer"><g class="x"><path class="xgrid crisp" transform="translate(89.87,0)" d="M0,100v320" style="stroke: rgb(255, 255, 255); stroke-opacity: 1; stroke-width: 1px;"/><path class="xgrid crisp" transform="translate(196.17000000000002,0)" d="M0,100v320" style="stroke: rgb(255, 255, 255); stroke-opacity: 1; stroke-width: 1px;"/><path class="xgrid crisp" transform="translate(302.47,0)" d="M0,100v320" style="stroke: rgb(255, 255, 255); stroke-opacity: 1; stroke-width: 1px;"/><path class="xgrid crisp" transform="translate(408.77,0)" d="M0,100v320" style="stroke: rgb(255, 255, 255); stroke-opacity: 1; stroke-width: 1px;"/><path class="xgrid crisp" transform="translate(515.0799999999999,0)" d="M0,100v320" style="stroke: rgb(255, 255, 255); stroke-opacity: 1; stroke-width: 1px;"/></g><g class="y"><path class="ygrid crisp" transform="translate(0,367.23)" d="M80,0h537" style="stroke: rgb(255, 255, 255); stroke-opacity: 1; stroke-width: 1px;"/><path class="ygrid crisp" transform="translate(0,308.43)" d="M80,0h537" style="stroke: rgb(255, 255, 255); stroke-opacity: 1; stroke-width: 1px;"/><path class="ygrid crisp" transform="translate(0,249.63)" d="M80,0h537" style="stroke: rgb(255, 255, 255); stroke-opacity: 1; stroke-width: 1px;"/><path class="ygrid crisp" transform="translate(0,190.82999999999998)" d="M80,0h537" style="stroke: rgb(255, 255, 255); stroke-opacity: 1; stroke-width: 1px;"/><path class="ygrid crisp" transform="translate(0,132.03)" d="M80,0h537" style="stroke: rgb(255, 255, 255); stroke-opacity: 1; stroke-width: 1px;"/></g></g><g class="zerolinelayer"/><path class="xlines-below"/><path class="ylines-below"/><g class="overlines-below"/><g class="xaxislayer-below"/><g class="yaxislayer-below"/><g class="overaxes-below"/><g class="plot" transform="translate(80,100)" clip-path="url('#clipd82094xyplot')"><g class="scatterlayer mlayer"><g class="trace scatter trace670b4b" style="stroke-miterlimit: 2; opacity: 1;"><g class="fills"/><g class="errorbars"/><g class="lines"><path class="js-line" d="M0,82.28L6.23,82.51L8.45,120.48L12.85,120.57L14.48,136.92L15.17,136.9L31.48,137.96L32.49,121.23L32.8,129.62L33.54,129.56L35.01,126.37L35.75,126.27L37.23,129.79L37.97,129.7L39.44,132.71L40.18,132.63L41.66,120.69L42.4,120.62L43.87,132.64L44.61,132.55L46.09,126.68L48.3,113.21L49.04,109.51L52.73,74.17L53.47,72.87L54.95,78.78L55.68,77.73L57.9,62.82L59.37,65.47L60.11,64.83L61.59,74.27L62.33,73.83L63.3,51.83L64.54,52.34L65.28,52.21L73.4,51.78L74.14,51.77L83,51.11L83.73,50.91L108.83,42.44L109.57,42.24L115.48,40.95L116.22,41.79L128.77,41.47L129.5,41.46L140.57,40.8L141.31,40.69L168.63,36.83L169.37,35.53L198.16,34L198.89,33.87L221.78,31.05L222.52,28.56L247.62,27.81L248.36,95.38L256.5,93.57L257.22,93.44L257.96,93.12L258.69,91.51L260.91,88.51L261.65,87.52L265.34,73.59L266.07,72.39L270.5,67.88L271.24,67.37L274.93,65.43L275.67,65.5L280.84,64.8L281.58,64.77L297.82,63.66L298.56,63.48L303.72,61.32L304.46,60.89L305.2,60.46L305.94,62.78L308.89,61.15L309.63,59.94L314.06,53.24L314.8,52.44L317.75,47.98L318.49,45.51L321.44,38.66L322.18,37.65L326.61,32.89L327.37,32.47L329.56,31.98L330.3,31.8L336.2,31.18L336.94,31.16L348.01,30.17L348.75,29.9L353.18,28.09L353.92,74.81L356.14,72.76L356.88,72.32L363.52,69.16L364.26,68.8L364.82,71.93L365,68.39L365.7,68.25L365.73,69.25L366.44,67.95L366.47,68.94L367.21,68.62L368.69,68.09L369.42,76.43L375.89,73.91L375.92,72.31L375.95,72.03L376.07,73.74L383.08,44.74L383.45,44.87L383.82,41.95L384.56,42.12L384.93,43.2L386.03,37.43L386.4,41.6L387.51,39.66L387.88,39.05L388.99,38.13L389.36,38.96L390.46,38.42L390.83,38.33L391.57,38.4L391.94,43.02L396,41.69L396.37,36.5L397.11,35.76L397.47,35.39L399.32,31.97L399.69,32.01L400.06,30.79L400.43,26.97L401.53,25.01L401.9,22.43L402.27,16L402.64,16.8L403.01,140.18L403.38,139.22L403.75,142.07L404.49,136.79L404.86,138.99L405.23,137.43L405.6,136.15L405.97,136.63L406.33,141.25L406.7,146.68L407.07,133.42L407.81,138.09L408.18,157.2L409.29,133.53L409.65,145.44L410.02,148.42L410.39,146.68L410.76,144.02L411.5,134.36L411.87,135.71L412.24,141.84L412.61,146.05L412.98,142.1L413.35,141.74L413.71,151.77L414.08,141.68L414.45,140.84L414.82,148.68L415.19,138.39L415.56,127.07L415.93,137.58L416.3,139.13L416.67,140.49L417.04,138.92L418.51,129.31L418.88,138.25L419.25,134.05L419.62,138.68L419.99,138.81L420.36,131.49L420.73,131.42L421.1,140.05L421.83,132.48L422.21,138.41L422.94,141.46L423.31,128.79L424.05,142.96L424.42,264.58L425.53,293.12L425.9,304L426.27,286.22L426.64,301.52L427,291.75L427.37,292.1L427.74,291.07L428.11,294.16L428.48,293.46L428.85,276.02L429.22,283.67L429.59,262.28L430.33,272.54L430.69,248.89L431.43,241.71L431.8,229.6L432.17,224.98L432.54,228.24L432.91,227.36L434.02,215.22L434.39,217.06L434.75,216.4L435.12,227.08L435.49,226.08L435.86,228.38L436.23,228.68L436.6,224.72L436.97,233.57L437.34,224.28L438.08,227.75L438.45,223.07L439.18,226.33L439.55,223.26L439.92,224.52L440.29,234.01L440.66,220.81L441.03,231.91L441.4,224.2L443.61,212.72L443.98,220.76L444.72,220.72L445.09,223.7L445.46,223.67L445.83,219.37L446.2,223.08L446.56,218.62L446.93,226.76L447.3,225.2L447.67,224.19L448.04,219.51L448.41,225.16L449.52,225.11L449.89,216.49L450.26,225.05L450.63,220.43L450.99,220.57L451.36,218.19L451.73,220.92L452.11,219.84L452.47,227.36L452.84,216.65L453.21,220.1L453.58,220.01L454.32,220.98L454.68,218.78L455.42,223.64L455.79,218.66L456.16,205.85L456.53,215.25L456.9,220.32L457.27,206.18L457.64,206.81L458.01,214.16L458.38,214.11L458.75,206.99L459.49,212.47L459.86,202.23L460.23,199.24L460.6,208.71L460.97,224.84L461.33,215.2L461.7,214.49L462.07,205.74L462.44,219.6L463.17,195.82L463.54,209.77L463.91,208.24L464.28,203.32L464.65,202.05L465.02,205.17L465.39,200.81L465.76,208.16L466.13,206.35L466.5,209.96L466.87,207.44L467.23,196.45L467.6,195.36L467.97,196.45L468.34,201.41L469.45,210.92L469.82,197.09L470.19,197.31L470.56,191.05L470.92,191.24L471.29,196.07L471.66,200.65L472.03,194.37L473.14,210.5L473.51,204.27L474.25,191.94L474.62,193.62L474.99,197L475.35,205.03L475.72,197.14L476.09,198.57L477.57,184.28L477.94,189.51L478.68,194.59L479.05,189.23L479.42,191.91L479.78,189.81L480.15,182.31L480.52,187.7L480.89,187L481.26,183.28L481.63,186.18L482,185.69L482.37,181.61L482.74,182.61L483.11,186.54L483.85,187.68L484.21,186.58L484.58,181.49L484.95,187.81L485.69,185.81L486.06,187.22L486.43,189.17L486.8,187L487.91,194.82L488.28,189.57L488.64,183.36L489.01,189.2L489.38,186.45L490.49,187.85L490.86,183.53L491.97,187.65L492.34,184.59L493.07,184.25L493.44,185.71L494.55,187.29L494.92,197.68L495.29,197.68L495.66,195.53L496.03,195.52L496.39,190.33L496.77,190.33L497.13,186.49L498.61,194.95L498.98,194.95L499.35,195.4L499.72,193.58L500.09,193.58L500.45,187.5L501.19,187.5L501.56,190.84L502.67,186.75L503.04,187.03L503.41,187.03L503.78,188.23L506.73,181.13L507.1,187.27L507.47,190.9L507.84,187.7L508.2,181.79L508.57,180.91L508.94,182.93L509.31,184.81L509.68,179.55L510.42,190.44L510.79,182.8L511.16,183.07L511.53,174.64L512.63,185.09L513,181.21L513.37,181.99L513.74,185.79L514.11,171.39L514.48,177.83L514.85,175.21L515.22,180.5L515.59,179.53L515.96,177.22L517.43,187.84L517.8,182.58L518.17,175.16L518.54,180.33L518.91,178.23L519.65,176.4L520.02,185.95L520.38,175.93L520.75,196.82L521.86,173.22L522.23,177.47L522.6,180.21L522.97,180.03L523.34,179.15L524.08,179.35L524.45,181.21L525.55,177.14L525.92,176.9L526.29,176.97L526.66,172.16L527.03,169.69L527.4,173.52L527.77,176.28L528.14,172.21L528.51,173.97L528.88,171L529.61,180.19L529.98,175.33L530.35,171.32L530.72,174.66L531.09,174.4L531.46,183.64L531.83,176L532.2,180.08L532.57,179.71L532.93,181.54L533.67,173.38L534.04,176.61L534.41,186.68L534.78,171.47L535.15,173.34L535.52,176.71L535.89,180.06L536.26,191.51L537,169.64" style="vector-effect: non-scaling-stroke; fill: none; stroke: rgb(99, 110, 250); stroke-opacity: 1; stroke-width: 2px; opacity: 1;"/></g><g class="points"/><g class="text"/></g></g></g><g class="overplot"/><path class="xlines-above crisp" d="M0,0" style="fill: none;"/><path class="ylines-above crisp" d="M0,0" style="fill: none;"/><g class="overlines-above"/><g class="xaxislayer-above"><g class="xtick"><text text-anchor="middle" x="0" y="433" transform="translate(89.87,0)" style="font-family: 'Open Sans', verdana, arial, sans-serif; font-size: 12px; fill: rgb(42, 63, 95); fill-opacity: 1; white-space: pre;"><tspan class="line" dy="0em" x="0" y="433">Jun 4</tspan><tspan class="line" dy="1.3em" x="0" y="433">2021</tspan></text></g><g class="xtick"><text text-anchor="middle" x="0" y="433" transform="translate(196.17000000000002,0)" style="font-family: 'Open Sans', verdana, arial, sans-serif; font-size: 12px; fill: rgb(42, 63, 95); fill-opacity: 1; white-space: pre;">Jun 6</text></g><g class="xtick"><text text-anchor="middle" x="0" y="433" transform="translate(302.47,0)" style="font-family: 'Open Sans', verdana, arial, sans-serif; font-size: 12px; fill: rgb(42, 63, 95); fill-opacity: 1; white-space: pre;">Jun 8</text></g><g class="xtick"><text text-anchor="middle" x="0" y="433" transform="translate(408.77,0)" style="font-family: 'Open Sans', verdana, arial, sans-serif; font-size: 12px; fill: rgb(42, 63, 95); fill-opacity: 1; white-space: pre;">Jun 10</text></g><g class="xtick"><text text-anchor="middle" x="0" y="433" transform="translate(515.0799999999999,0)" style="font-family: 'Open Sans', verdana, arial, sans-serif; font-size: 12px; fill: rgb(42, 63, 95); fill-opacity: 1; white-space: pre;">Jun 12</text></g></g><g class="yaxislayer-above"><g class="ytick"><text text-anchor="end" x="79" y="4.199999999999999" transform="translate(0,367.23)" style="font-family: 'Open Sans', verdana, arial, sans-serif; font-size: 12px; fill: rgb(42, 63, 95); fill-opacity: 1; white-space: pre;">0.8</text></g><g class="ytick"><text text-anchor="end" x="79" y="4.199999999999999" transform="translate(0,308.43)" style="font-family: 'Open Sans', verdana, arial, sans-serif; font-size: 12px; fill: rgb(42, 63, 95); fill-opacity: 1; white-space: pre;">0.82</text></g><g class="ytick"><text text-anchor="end" x="79" y="4.199999999999999" transform="translate(0,249.63)" style="font-family: 'Open Sans', verdana, arial, sans-serif; font-size: 12px; fill: rgb(42, 63, 95); fill-opacity: 1; white-space: pre;">0.84</text></g><g class="ytick"><text text-anchor="end" x="79" y="4.199999999999999" transform="translate(0,190.82999999999998)" style="font-family: 'Open Sans', verdana, arial, sans-serif; font-size: 12px; fill: rgb(42, 63, 95); fill-opacity: 1; white-space: pre;">0.86</text></g><g class="ytick"><text text-anchor="end" x="79" y="4.199999999999999" transform="translate(0,132.03)" style="font-family: 'Open Sans', verdana, arial, sans-serif; font-size: 12px; fill: rgb(42, 63, 95); fill-opacity: 1; white-space: pre;">0.88</text></g></g><g class="overaxes-above"/></g></g><g class="polarlayer"/><g class="ternarylayer"/><g class="geolayer"/><g class="funnelarealayer"/><g class="pielayer"/><g class="treemaplayer"/><g class="sunburstlayer"/><g class="glimages"/><defs id="topdefs-d82094"><g class="clips"/><clipPath id="legendd82094"><rect width="60" height="45" x="0" y="0"/></clipPath></defs><g class="layer-above"><g class="imagelayer"/><g class="shapelayer"/></g><g class="infolayer"><g class="legend" pointer-events="all" transform="translate(627.74,100)"><rect class="bg" shape-rendering="crispEdges" width="60" height="45" x="0" y="0" style="stroke: rgb(68, 68, 68); stroke-opacity: 1; fill: rgb(255, 255, 255); fill-opacity: 1; stroke-width: 0px;"/><g class="scrollbox" transform="" clip-path="url('#legendd82094')"><text class="legendtitletext" text-anchor="start" x="2" y="15.600000000000001" style="font-family: 'Open Sans', verdana, arial, sans-serif; font-size: 12px; fill: rgb(42, 63, 95); fill-opacity: 1; white-space: pre;">All</text><g class="groups" transform=""><g class="traces" transform="translate(0,30.1)" style="opacity: 1;"><text class="legendtext" text-anchor="start" x="40" y="4.680000000000001" style="font-family: 'Open Sans', verdana, arial, sans-serif; font-size: 12px; fill: rgb(42, 63, 95); fill-opacity: 1; white-space: pre;">All</text><g class="layers" style="opacity: 1;"><g class="legendfill"/><g class="legendlines"><path class="js-line" d="M5,0h30" style="fill: none; stroke: rgb(99, 110, 250); stroke-opacity: 1; stroke-width: 2px;"/></g><g class="legendsymbols"><g class="legendpoints"/></g></g><rect class="legendtoggle" x="0" y="-9.5" width="54.890625" height="19" style="fill: rgb(0, 0, 0); fill-opacity: 0;"/></g></g></g><rect class="scrollbar" rx="20" ry="3" width="0" height="0" x="0" y="0" style="fill: rgb(128, 139, 164); fill-opacity: 1;"/></g><g class="g-gtitle"><text class="gtitle" x="35" y="50" text-anchor="start" dy="0em" style="font-family: 'Open Sans', verdana, arial, sans-serif; font-size: 17px; fill: rgb(42, 63, 95); opacity: 1; font-weight: normal; white-space: pre;">Singapore Vaccination Centers</text></g><g class="g-xtitle"><text class="xtitle" x="348.5" y="476.409375" text-anchor="middle" style="font-family: 'Open Sans', verdana, arial, sans-serif; font-size: 14px; fill: rgb(42, 63, 95); opacity: 1; font-weight: normal; white-space: pre;">Time</text></g><g class="g-ytitle"><text class="ytitle" transform="rotate(-90,27.481250000000003,260)" x="27.481250000000003" y="260" text-anchor="middle" style="font-family: 'Open Sans', verdana, arial, sans-serif; font-size: 14px; fill: rgb(42, 63, 95); opacity: 1; font-weight: normal; white-space: pre;">Filled/%</text></g></g></svg>