<svg class="main-svg" xmlns="http://www.w3.org/2000/svg" xmlns:xlink="http://www.w3.org/1999/xlink" width="700" height="500" style="" viewBox="0 0 700 500"><rect x="0" y="0" width="700" height="500" style="fill: rgb(255, 255, 255); fill-opacity: 1;"/><defs id="defs-c6746f"><g class="clips"><clipPath id="clipc6746fxyplot" class="plotclip"><rect width="537" height="320"/></clipPath><clipPath class="axesclip" id="clipc6746fx"><rect x="80" y="0" width="537" height="500"/></clipPath><clipPath class="axesclip" id="clipc6746fy"><rect x="0" y="100" width="700" height="320"/></clipPath><clipPath class="axesclip" id="clipc6746fxy"><rect x="80" y="100" width="537" height="320"/></clipPath></g><g class="gradients"/></defs><g class="bglayer"><rect class="bg" x="80" y="100" width="537" height="320" style="fill: rgb(229, 236, 246); fill-opacity: 1; stroke-width: 0;"/></g><g class="layer-below"><g class="imagelayer"/><g class="shapelayer"/></g><g class="cartesianlayer"><g class="subplot xy"><g class="layer-subplot"><g class="shapelayer"/><g class="imagelayer"/></g><g class="gridlayer"><g class="x"><path class="xgrid crisp" transform="translate(90.91,0)" d="M0,100v320" style="stroke: rgb(255, 255, 255); stroke-opacity: 1; stroke-width: 1px;"/><path class="xgrid crisp" transform="translate(208.44,0)" d="M0,100v320" style="stroke: rgb(255, 255, 255); stroke-opacity: 1; stroke-width: 1px;"/><path class="xgrid crisp" transform="translate(325.98,0)" d="M0,100v320" style="stroke: rgb(255, 255, 255); stroke-opacity: 1; stroke-width: 1px;"/><path class="xgrid crisp" transform="translate(443.51,0)" d="M0,100v320" style="stroke: rgb(255, 255, 255); stroke-opacity: 1; stroke-width: 1px;"/><path class="xgrid crisp" transform="translate(561.04,0)" d="M0,100v320" style="stroke: rgb(255, 255, 255); stroke-opacity: 1; stroke-width: 1px;"/></g><g class="y"><path class="ygrid crisp" transform="translate(0,367.23)" d="M80,0h537" style="stroke: rgb(255, 255, 255); stroke-opacity: 1; stroke-width: 1px;"/><path class="ygrid crisp" transform="translate(0,308.43)" d="M80,0h537" style="stroke: rgb(255, 255, 255); stroke-opacity: 1; stroke-width: 1px;"/><path class="ygrid crisp" transform="translate(0,249.63)" d="M80,0h537" style="stroke: rgb(255, 255, 255); stroke-opacity: 1; stroke-width: 1px;"/><path class="ygrid crisp" transform="translate(0,190.82999999999998)" d="M80,0h537" style="stroke: rgb(255, 255, 255); stroke-opacity: 1; stroke-width: 1px;"/><path class="ygrid crisp" transform="translate(0,132.03)" d="M80,0h537" style="stroke: rgb(255, 255, 255); stroke-opacity: 1; stroke-width: 1px;"/></g></g><g class="zerolinelayer"/><path class="xlines-below"/><path class="ylines-below"/><g class="overlines-below"/><g class="xaxislayer-below"/><g class="yaxislayer-below"/><g class="overaxes-below"/><g class="plot" transform="translate(80,100)" clip-path="url('#clipc6746fxyplot')"><g class="scatterlayer mlayer"><g class="trace scatter tracec65c32" style="stroke-miterlimit: 2; opacity: 1;"><g class="fills"/><g class="errorbars"/><g class="lines"><path class="js-line" d="M0,82.28L6.89,82.51L9.34,120.48L14.21,120.57L16.01,136.92L16.78,136.9L34.8,137.96L35.92,121.23L36.27,129.62L37.08,129.56L38.71,126.37L39.53,126.27L41.16,129.79L41.98,129.7L43.61,132.71L44.42,132.63L46.06,120.69L46.88,120.62L48.51,132.64L49.33,132.55L50.96,126.68L51.77,123.32L53.41,113.21L54.22,109.51L55.85,94.58L56.67,92.89L58.3,74.17L59.12,72.87L60.75,78.78L61.57,77.73L63.2,63.68L64.01,62.82L65.65,65.47L66.46,64.83L68.1,74.27L68.91,73.83L69.99,51.83L70.54,52.53L71.36,52.34L79.52,51.79L80.34,51.79L92.58,50.91L93.39,50.65L121.96,42.03L122.78,41.83L127.68,40.95L128.49,41.79L143.18,41.46L144,41.46L157.06,40.58L157.88,40.48L183.18,37.17L183.99,37.08L186.44,36.83L187.26,35.53L219.09,34L219.91,33.87L245.21,31.05L246.03,28.56L273.78,27.81L274.6,95.38L283.6,93.57L284.39,93.44L285.21,93.12L286.02,91.51L288.47,88.51L289.29,87.52L293.37,73.59L294.18,72.39L299.08,67.88L299.9,67.37L303.98,65.43L304.79,65.5L310.51,64.8L311.33,64.77L329.28,63.66L330.1,63.48L335.81,61.32L336.62,60.89L337.44,60.46L338.26,62.78L341.52,61.15L342.34,59.94L347.23,53.24L348.05,52.44L351.32,47.98L352.13,45.51L355.4,38.66L356.21,37.65L360.29,33.5L361.11,32.89L364.38,31.98L365.19,31.8L371.72,31.18L372.54,31.16L384.78,30.17L385.59,29.9L390.49,28.09L391.31,74.81L392.94,73.22L393.76,72.76L401.92,69.16L402.74,68.8L403.36,71.93L403.55,68.39L404.33,68.25L404.37,69.25L405.15,67.95L405.19,68.94L406,68.62L407.64,68.09L408.45,76.43L415.6,73.91L415.63,72.31L415.67,72.03L415.8,73.74L423.55,44.74L423.96,44.87L424.37,41.95L425.18,42.12L425.59,43.2L426.81,37.43L427.22,41.6L428.45,39.66L428.86,39.05L430.08,38.13L430.49,38.96L430.9,38.26L431.3,38.53L431.71,38.42L432.94,38.4L433.35,43.02L437.83,41.69L438.24,36.5L439.06,35.76L439.46,35.39L440.69,33.79L441.1,33.41L444.36,22.43L444.77,16L445.18,16.8L445.59,140.18L445.99,139.22L446.4,142.07L447.22,136.79L447.63,138.99L448.45,136.15L448.85,136.63L449.26,141.25L449.67,146.68L450.08,133.42L450.89,138.09L451.3,157.2L452.52,133.53L452.93,145.44L453.34,148.42L453.75,146.68L454.16,144.02L454.97,134.36L455.38,135.71L455.79,141.84L456.19,146.05L456.6,142.1L457.01,141.74L457.42,151.77L458.24,140.84L458.64,148.68L459.46,127.07L459.87,137.58L460.69,140.49L461.09,138.92L461.91,130.34L462.32,131.67L462.73,129.31L463.13,138.25L463.54,134.05L463.95,138.68L464.36,138.81L464.77,131.49L465.18,131.42L465.58,140.05L466.4,132.48L466.81,138.41L467.62,141.46L468.03,128.79L468.85,142.96L469.26,264.58L470.07,292.55L470.48,293.12L470.89,304L471.3,286.22L471.71,301.52L472.11,291.75L472.52,292.1L472.93,291.07L473.34,294.16L473.75,293.46L474.15,276.02L474.56,283.67L474.97,262.28L475.79,272.54L476.19,248.89L477.01,241.71L477.42,229.6L477.83,224.98L478.23,228.24L478.64,227.36L479.87,215.22L480.27,217.06L480.68,216.4L481.09,227.08L481.5,226.08L481.91,228.38L482.32,228.68L482.72,224.72L483.13,233.57L483.54,224.28L484.36,227.75L484.76,223.07L485.58,226.33L485.99,223.26L486.4,224.52L486.81,234.01L487.21,220.81L487.62,231.91L488.03,224.2L490.48,212.72L490.89,220.76L491.7,220.72L492.11,223.7L492.52,223.67L492.93,219.37L493.33,223.08L493.74,218.62L494.15,226.76L494.56,225.2L494.97,224.19L495.38,219.51L495.78,225.16L497.01,225.11L497.41,216.49L497.82,225.05L498.23,220.43L498.64,220.57L499.05,218.19L499.46,220.92L499.87,219.84L500.27,227.36L500.68,216.65L501.09,220.1L501.5,220.01L502.31,220.98L502.72,218.78L503.53,223.64L503.94,218.66L504.35,205.85L504.76,215.25L505.17,220.32L505.58,206.18L505.98,206.81L506.39,214.16L506.8,214.11L507.21,206.99L508.03,212.47L508.44,202.23L508.84,199.24L509.25,208.71L509.66,224.84L510.06,215.2L510.47,214.49L510.88,205.74L511.29,219.6L512.11,195.82L512.51,209.77L512.92,208.24L513.33,203.32L513.74,202.05L514.14,205.17L514.55,200.81L514.96,208.16L515.37,206.35L515.78,209.96L516.19,207.44L516.59,196.45L517,195.36L517.41,196.45L518.23,209.39L518.63,202.33L519.04,210.92L519.45,197.09L519.86,197.31L520.27,191.05L520.67,191.24L521.08,196.07L521.49,200.65L521.9,194.37L523.12,210.5L523.53,204.27L524.35,191.94L524.76,193.62L525.16,197L525.57,205.03L525.98,197.14L526.39,198.57L526.8,192.99L528.02,184.28L528.43,189.51L529.25,194.59L529.65,189.23L530.06,191.91L530.47,189.81L530.88,182.31L531.29,187.7L531.69,187L532.1,183.28L532.51,186.18L532.92,185.69L533.33,181.61L533.74,182.61L534.15,186.54L534.96,187.68L535.37,186.58L535.77,181.49L536.18,187.81L537,185.81" style="vector-effect: non-scaling-stroke; fill: none; stroke: rgb(99, 110, 250); stroke-opacity: 1; stroke-width: 2px; opacity: 1;"/></g><g class="points"/><g class="text"/></g></g></g><g class="overplot"/><path class="xlines-above crisp" d="M0,0" style="fill: none;"/><path class="ylines-above crisp" d="M0,0" style="fill: none;"/><g class="overlines-above"/><g class="xaxislayer-above"><g class="xtick"><text text-anchor="middle" x="0" y="433" transform="translate(90.91,0)" style="font-family: 'Open Sans', verdana, arial, sans-serif; font-size: 12px; fill: rgb(42, 63, 95); fill-opacity: 1; white-space: pre;"><tspan class="line" dy="0em" x="0" y="433">Jun 4</tspan><tspan class="line" dy="1.3em" x="0" y="433">2021</tspan></text></g><g class="xtick"><text text-anchor="middle" x="0" y="433" transform="translate(208.44,0)" style="font-family: 'Open Sans', verdana, arial, sans-serif; font-size: 12px; fill: rgb(42, 63, 95); fill-opacity: 1; white-space: pre;">Jun 6</text></g><g class="xtick"><text text-anchor="middle" x="0" y="433" transform="translate(325.98,0)" style="font-family: 'Open Sans', verdana, arial, sans-serif; font-size: 12px; fill: rgb(42, 63, 95); fill-opacity: 1; white-space: pre;">Jun 8</text></g><g class="xtick"><text text-anchor="middle" x="0" y="433" transform="translate(443.51,0)" style="font-family: 'Open Sans', verdana, arial, sans-serif; font-size: 12px; fill: rgb(42, 63, 95); fill-opacity: 1; white-space: pre;">Jun 10</text></g><g class="xtick"><text text-anchor="middle" x="0" y="433" transform="translate(561.04,0)" style="font-family: 'Open Sans', verdana, arial, sans-serif; font-size: 12px; fill: rgb(42, 63, 95); fill-opacity: 1; white-space: pre;">Jun 12</text></g></g><g class="yaxislayer-above"><g class="ytick"><text text-anchor="end" x="79" y="4.199999999999999" transform="translate(0,367.23)" style="font-family: 'Open Sans', verdana, arial, sans-serif; font-size: 12px; fill: rgb(42, 63, 95); fill-opacity: 1; white-space: pre;">0.8</text></g><g class="ytick"><text text-anchor="end" x="79" y="4.199999999999999" transform="translate(0,308.43)" style="font-family: 'Open Sans', verdana, arial, sans-serif; font-size: 12px; fill: rgb(42, 63, 95); fill-opacity: 1; white-space: pre;">0.82</text></g><g class="ytick"><text text-anchor="end" x="79" y="4.199999999999999" transform="translate(0,249.63)" style="font-family: 'Open Sans', verdana, arial, sans-serif; font-size: 12px; fill: rgb(42, 63, 95); fill-opacity: 1; white-space: pre;">0.84</text></g><g class="ytick"><text text-anchor="end" x="79" y="4.199999999999999" transform="translate(0,190.82999999999998)" style="font-family: 'Open Sans', verdana, arial, sans-serif; font-size: 12px; fill: rgb(42, 63, 95); fill-opacity: 1; white-space: pre;">0.86</text></g><g class="ytick"><text text-anchor="end" x="79" y="4.199999999999999" transform="translate(0,132.03)" style="font-family: 'Open Sans', verdana, arial, sans-serif; font-size: 12px; fill: rgb(42, 63, 95); fill-opacity: 1; white-space: pre;">0.88</text></g></g><g class="overaxes-above"/></g></g><g class="polarlayer"/><g class="ternarylayer"/><g class="geolayer"/><g class="funnelarealayer"/><g class="pielayer"/><g class="treemaplayer"/><g class="sunburstlayer"/><g class="glimages"/><defs id="topdefs-c6746f"><g class="clips"/><clipPath id="legendc6746f"><rect width="60" height="45" x="0" y="0"/></clipPath></defs><g class="layer-above"><g class="imagelayer"/><g class="shapelayer"/></g><g class="infolayer"><g class="legend" pointer-events="all" transform="translate(627.74,100)"><rect class="bg" shape-rendering="crispEdges" width="60" height="45" x="0" y="0" style="stroke: rgb(68, 68, 68); stroke-opacity: 1; fill: rgb(255, 255, 255); fill-opacity: 1; stroke-width: 0px;"/><g class="scrollbox" transform="" clip-path="url('#legendc6746f')"><text class="legendtitletext" text-anchor="start" x="2" y="15.600000000000001" style="font-family: 'Open Sans', verdana, arial, sans-serif; font-size: 12px; fill: rgb(42, 63, 95); fill-opacity: 1; white-space: pre;">All</text><g class="groups" transform=""><g class="traces" transform="translate(0,30.1)" style="opacity: 1;"><text class="legendtext" text-anchor="start" x="40" y="4.680000000000001" style="font-family: 'Open Sans', verdana, arial, sans-serif; font-size: 12px; fill: rgb(42, 63, 95); fill-opacity: 1; white-space: pre;">All</text><g class="layers" style="opacity: 1;"><g class="legendfill"/><g class="legendlines"><path class="js-line" d="M5,0h30" style="fill: none; stroke: rgb(99, 110, 250); stroke-opacity: 1; stroke-width: 2px;"/></g><g class="legendsymbols"><g class="legendpoints"/></g></g><rect class="legendtoggle" x="0" y="-9.5" width="54.890625" height="19" style="fill: rgb(0, 0, 0); fill-opacity: 0;"/></g></g></g><rect class="scrollbar" rx="20" ry="3" width="0" height="0" x="0" y="0" style="fill: rgb(128, 139, 164); fill-opacity: 1;"/></g><g class="g-gtitle"><text class="gtitle" x="35" y="50" text-anchor="start" dy="0em" style="font-family: 'Open Sans', verdana, arial, sans-serif; font-size: 17px; fill: rgb(42, 63, 95); opacity: 1; font-weight: normal; white-space: pre;">Singapore Vaccination Centers</text></g><g class="g-xtitle"><text class="xtitle" x="348.5" y="476.409375" text-anchor="middle" style="font-family: 'Open Sans', verdana, arial, sans-serif; font-size: 14px; fill: rgb(42, 63, 95); opacity: 1; font-weight: normal; white-space: pre;">Time</text></g><g class="g-ytitle"><text class="ytitle" transform="rotate(-90,27.481250000000003,260)" x="27.481250000000003" y="260" text-anchor="middle" style="font-family: 'Open Sans', verdana, arial, sans-serif; font-size: 14px; fill: rgb(42, 63, 95); opacity: 1; font-weight: normal; white-space: pre;">Filled/%</text></g></g></svg>