<svg class="main-svg" xmlns="http://www.w3.org/2000/svg" xmlns:xlink="http://www.w3.org/1999/xlink" width="700" height="500" style="" viewBox="0 0 700 500"><rect x="0" y="0" width="700" height="500" style="fill: rgb(255, 255, 255); fill-opacity: 1;"/><defs id="defs-bfb8af"><g class="clips"><clipPath id="clipbfb8afxyplot" class="plotclip"><rect width="537" height="320"/></clipPath><clipPath class="axesclip" id="clipbfb8afx"><rect x="80" y="0" width="537" height="500"/></clipPath><clipPath class="axesclip" id="clipbfb8afy"><rect x="0" y="100" width="700" height="320"/></clipPath><clipPath class="axesclip" id="clipbfb8afxy"><rect x="80" y="100" width="537" height="320"/></clipPath></g><g class="gradients"/></defs><g class="bglayer"><rect class="bg" x="80" y="100" width="537" height="320" style="fill: rgb(229, 236, 246); fill-opacity: 1; stroke-width: 0;"/></g><g class="layer-below"><g class="imagelayer"/><g class="shapelayer"/></g><g class="cartesianlayer"><g class="subplot xy"><g class="layer-subplot"><g class="shapelayer"/><g class="imagelayer"/></g><g class="gridlayer"><g class="x"><path class="xgrid crisp" transform="translate(84.36,0)" d="M0,100v320" style="stroke: rgb(255, 255, 255); stroke-opacity: 1; stroke-width: 1px;"/><path class="xgrid crisp" transform="translate(168.44,0)" d="M0,100v320" style="stroke: rgb(255, 255, 255); stroke-opacity: 1; stroke-width: 1px;"/><path class="xgrid crisp" transform="translate(252.52,0)" d="M0,100v320" style="stroke: rgb(255, 255, 255); stroke-opacity: 1; stroke-width: 1px;"/><path class="xgrid crisp" transform="translate(336.6,0)" d="M0,100v320" style="stroke: rgb(255, 255, 255); stroke-opacity: 1; stroke-width: 1px;"/><path class="xgrid crisp" transform="translate(420.67,0)" d="M0,100v320" style="stroke: rgb(255, 255, 255); stroke-opacity: 1; stroke-width: 1px;"/><path class="xgrid crisp" transform="translate(504.75,0)" d="M0,100v320" style="stroke: rgb(255, 255, 255); stroke-opacity: 1; stroke-width: 1px;"/><path class="xgrid crisp" transform="translate(588.8299999999999,0)" d="M0,100v320" style="stroke: rgb(255, 255, 255); stroke-opacity: 1; stroke-width: 1px;"/></g><g class="y"><path class="ygrid crisp" transform="translate(0,392.55)" d="M80,0h537" style="stroke: rgb(255, 255, 255); stroke-opacity: 1; stroke-width: 1px;"/><path class="ygrid crisp" transform="translate(0,349.77)" d="M80,0h537" style="stroke: rgb(255, 255, 255); stroke-opacity: 1; stroke-width: 1px;"/><path class="ygrid crisp" transform="translate(0,306.99)" d="M80,0h537" style="stroke: rgb(255, 255, 255); stroke-opacity: 1; stroke-width: 1px;"/><path class="ygrid crisp" transform="translate(0,264.21000000000004)" d="M80,0h537" style="stroke: rgb(255, 255, 255); stroke-opacity: 1; stroke-width: 1px;"/><path class="ygrid crisp" transform="translate(0,221.43)" d="M80,0h537" style="stroke: rgb(255, 255, 255); stroke-opacity: 1; stroke-width: 1px;"/><path class="ygrid crisp" transform="translate(0,178.65)" d="M80,0h537" style="stroke: rgb(255, 255, 255); stroke-opacity: 1; stroke-width: 1px;"/><path class="ygrid crisp" transform="translate(0,135.87)" d="M80,0h537" style="stroke: rgb(255, 255, 255); stroke-opacity: 1; stroke-width: 1px;"/></g></g><g class="zerolinelayer"/><path class="xlines-below"/><path class="ylines-below"/><g class="overlines-below"/><g class="xaxislayer-below"/><g class="yaxislayer-below"/><g class="overaxes-below"/><g class="plot" transform="translate(80,100)" clip-path="url('#clipbfb8afxyplot')"><g class="scatterlayer mlayer"><g class="trace scatter traced2a328" style="stroke-miterlimit: 2; opacity: 1;"><g class="fills"/><g class="errorbars"/><g class="lines"><path class="js-line" d="M0,304L3.37,302.59L4.54,249.74L5.7,251.04L6.87,249.35L11.54,248.71L12.71,248.32L15.05,249.1L16.21,248.19L17.41,248.84L18.55,248.58L23.22,247.67L24.39,247.93L27.89,247.16L29.06,246.9L33.73,247.29L34.9,246.9L40.73,246.77L41.9,246.77L45.41,245.73L46.58,245.99L51.24,245.09L52.41,244.44L53.58,244.96L54.75,244.57L55.91,243.66L57.08,243.92L58.25,244.57L59.42,243.02L62.92,242.11L64.08,242.63L65.25,242.24L66.42,243.15L67.59,242.24L68.76,240.17L71.09,240.69L72.26,239.78L76.93,237.84L78.1,236.94L80.43,238.23L81.6,237.07L82.77,235L83.94,235.51L85.1,236.55L86.27,235L88.61,232.67L89.78,232.28L92.12,230.6L93.28,231.12L95.61,229.95L96.78,230.21L97.95,231.76L99.12,229.56L102.63,230.6L103.79,230.21L106.13,226.46L107.3,226.07L108.46,226.85L109.63,225.55L110.8,225.68L111.96,227.36L113.13,227.11L114.3,225.55L118.97,221.16L120.14,218.44L121.31,219.09L122.47,217.66L123.65,216.63L124.81,217.4L127.15,217.66L128.31,218.7L132.99,216.5L134.15,216.37L136.49,215.72L137.66,214.69L138.82,214.3L139.99,214.82L141.16,215.98L142.32,215.98L144.66,213.78L145.83,213.52L149.33,212.75L150.5,212.23L151.67,211.45L152.84,211.84L158.68,211.58L159.85,211.84L162.17,210.42L163.35,208.87L164.51,207.7L165.68,207.7L166.85,206.93L168.02,207.83L171.52,207.96L172.69,142.27L176.19,140.18L177.36,140.44L179.7,139.92L180.86,139.01L183.2,139.14L184.37,139.14L189.04,138.48L190.2,138.35L193.71,137.83L194.88,137.96L205.38,137.96L206.56,138.09L214.72,137.83L215.89,137.18L219.39,137.18L220.56,136.14L225.23,136.27L226.4,135.74L228.73,135.88L229.9,135.22L232.24,134.57L233.41,135.22L236.91,132.22L238.07,132.22L239.25,133.27L240.41,132.88L242.75,131.57L243.92,132.22L247.42,130.14L248.59,128.44L249.76,130.14L250.92,129.35L254.42,127.14L255.6,128.05L257.93,126.48L259.1,127.66L260.26,128.7L261.43,127.79L262.6,128.83L263.77,128.31L264.93,127.4L266.1,128.44L267.27,127.79L268.44,128.18L271.94,128.83L273.11,128.44L275.47,126.48L276.63,125.05L278.96,124.92L280.13,125.44L281.3,125.96L282.47,124.01L287.14,123.09L288.31,121.4L291.82,122.44L292.98,121.92L295.31,118.4L296.49,119.96L297.66,119.96L298.82,118.79L299.99,119.7L301.15,119.18L303.49,117.35L304.66,117.48L308.16,114.35L309.33,114.48L311.67,112.14L312.83,112.92L315.17,110.83L316.34,111.35L319.84,110.7L321.01,108.09L322.17,107.96L323.34,106.92L324.51,105.48L325.68,105.74L326.85,106L328.01,107.18L329.19,107.83L330.35,107.18L331.53,109.13L332.69,108.35L333.85,108.22L335.02,106.66L336.19,106.27L337.36,106.79L339.69,107.05L340.86,61.25L343.19,59.41L344.36,59.15L346.69,58.49L347.87,57.57L351.37,57.04L352.53,56.78L357.2,55.46L358.37,54.54L360.71,54.28L361.88,54.81L365.38,53.62L366.55,53.75L380.56,52.44L381.72,52.7L386.4,51.78L387.57,52.04L389.9,51.78L391.07,52.18L394.57,51.12L395.73,51.25L396.91,51.52L398.07,50.73L405.08,50.07L407.41,49.54L408.58,48.23L410.91,47.83L413.25,47.44L414.42,45.73L415.59,46.91L416.76,45.73L419.09,45.73L420.26,45.07L421.43,44.94L422.59,43.76L426.09,43.49L427.27,41.91L429.6,40.2L430.77,39.42L431.9,38.1L433.06,38.76L435.4,37.31L436.57,37.71L437.73,36L438.9,35.73L440.07,35.21L441.23,35.6L442.41,35.34L443.57,33.36L444.74,32.71L445.91,33.23L448.24,32.44L449.41,32.05L450.58,31.92L451.75,30.86L454.08,30.86L455.25,31.39L457.58,32.97L458.76,31.13L461.09,32.31L462.28,30.34L464.6,30.47L465.77,30.86L469.27,29.02L470.44,29.42L472.77,27.71L473.94,26.66L475.11,24.16L476.28,24.68L477.44,23.24L478.61,24.68L479.77,23.1L480.95,22.84L482.11,22.58L483.28,21.26L486.78,21.79L487.94,20.74L489.12,21.26L490.29,19.68L492.62,19.55L493.79,18.5L498.46,18.89L499.62,17.97L500.79,17.45L501.97,17.84L503.13,17.97L504.3,17.05L505.47,16L506.63,16.66L507.81,16.39L508.97,171.81L514.81,171.4L515.98,172.08L519.48,170.99L520.65,170.99L522.99,169.76L524.15,169.76L526.48,168.94L527.65,169.08L537,168.67" style="vector-effect: non-scaling-stroke; fill: none; stroke: rgb(99, 110, 250); stroke-opacity: 1; stroke-width: 2px; opacity: 1;"/></g><g class="points"/><g class="text"/></g></g></g><g class="overplot"/><path class="xlines-above crisp" d="M0,0" style="fill: none;"/><path class="ylines-above crisp" d="M0,0" style="fill: none;"/><g class="overlines-above"/><g class="xaxislayer-above"><g class="xtick"><text text-anchor="middle" x="0" y="433" transform="translate(84.36,0)" style="font-family: 'Open Sans', verdana, arial, sans-serif; font-size: 12px; fill: rgb(42, 63, 95); fill-opacity: 1; white-space: pre;"><tspan class="line" dy="0em" x="0" y="433">00:00</tspan><tspan class="line" dy="1.3em" x="0" y="433">Aug 3, 2021</tspan></text></g><g class="xtick"><text text-anchor="middle" x="0" y="433" transform="translate(168.44,0)" style="font-family: 'Open Sans', verdana, arial, sans-serif; font-size: 12px; fill: rgb(42, 63, 95); fill-opacity: 1; white-space: pre;">12:00</text></g><g class="xtick"><text text-anchor="middle" x="0" y="433" transform="translate(252.52,0)" style="font-family: 'Open Sans', verdana, arial, sans-serif; font-size: 12px; fill: rgb(42, 63, 95); fill-opacity: 1; white-space: pre;"><tspan class="line" dy="0em" x="0" y="433">00:00</tspan><tspan class="line" dy="1.3em" x="0" y="433">Aug 4, 2021</tspan></text></g><g class="xtick"><text text-anchor="middle" x="0" y="433" transform="translate(336.6,0)" style="font-family: 'Open Sans', verdana, arial, sans-serif; font-size: 12px; fill: rgb(42, 63, 95); fill-opacity: 1; white-space: pre;">12:00</text></g><g class="xtick"><text text-anchor="middle" x="0" y="433" transform="translate(420.67,0)" style="font-family: 'Open Sans', verdana, arial, sans-serif; font-size: 12px; fill: rgb(42, 63, 95); fill-opacity: 1; white-space: pre;"><tspan class="line" dy="0em" x="0" y="433">00:00</tspan><tspan class="line" dy="1.3em" x="0" y="433">Aug 5, 2021</tspan></text></g><g class="xtick"><text text-anchor="middle" x="0" y="433" transform="translate(504.75,0)" style="font-family: 'Open Sans', verdana, arial, sans-serif; font-size: 12px; fill: rgb(42, 63, 95); fill-opacity: 1; white-space: pre;">12:00</text></g><g class="xtick"><text text-anchor="middle" x="0" y="433" transform="translate(588.8299999999999,0)" style="font-family: 'Open Sans', verdana, arial, sans-serif; font-size: 12px; fill: rgb(42, 63, 95); fill-opacity: 1; white-space: pre;"><tspan class="line" dy="0em" x="0" y="433">00:00</tspan><tspan class="line" dy="1.3em" x="0" y="433">Aug 6, 2021</tspan></text></g></g><g class="yaxislayer-above"><g class="ytick"><text text-anchor="end" x="79" y="4.199999999999999" transform="translate(0,392.55)" style="font-family: 'Open Sans', verdana, arial, sans-serif; font-size: 12px; fill: rgb(42, 63, 95); fill-opacity: 1; white-space: pre;">0.864</text></g><g class="ytick"><text text-anchor="end" x="79" y="4.199999999999999" transform="translate(0,349.77)" style="font-family: 'Open Sans', verdana, arial, sans-serif; font-size: 12px; fill: rgb(42, 63, 95); fill-opacity: 1; white-space: pre;">0.865</text></g><g class="ytick"><text text-anchor="end" x="79" y="4.199999999999999" transform="translate(0,306.99)" style="font-family: 'Open Sans', verdana, arial, sans-serif; font-size: 12px; fill: rgb(42, 63, 95); fill-opacity: 1; white-space: pre;">0.866</text></g><g class="ytick"><text text-anchor="end" x="79" y="4.199999999999999" transform="translate(0,264.21000000000004)" style="font-family: 'Open Sans', verdana, arial, sans-serif; font-size: 12px; fill: rgb(42, 63, 95); fill-opacity: 1; white-space: pre;">0.867</text></g><g class="ytick"><text text-anchor="end" x="79" y="4.199999999999999" transform="translate(0,221.43)" style="font-family: 'Open Sans', verdana, arial, sans-serif; font-size: 12px; fill: rgb(42, 63, 95); fill-opacity: 1; white-space: pre;">0.868</text></g><g class="ytick"><text text-anchor="end" x="79" y="4.199999999999999" transform="translate(0,178.65)" style="font-family: 'Open Sans', verdana, arial, sans-serif; font-size: 12px; fill: rgb(42, 63, 95); fill-opacity: 1; white-space: pre;">0.869</text></g><g class="ytick"><text text-anchor="end" x="79" y="4.199999999999999" transform="translate(0,135.87)" style="font-family: 'Open Sans', verdana, arial, sans-serif; font-size: 12px; fill: rgb(42, 63, 95); fill-opacity: 1; white-space: pre;">0.87</text></g></g><g class="overaxes-above"/></g></g><g class="polarlayer"/><g class="ternarylayer"/><g class="geolayer"/><g class="funnelarealayer"/><g class="pielayer"/><g class="treemaplayer"/><g class="sunburstlayer"/><g class="glimages"/><defs id="topdefs-bfb8af"><g class="clips"/><clipPath id="legendbfb8af"><rect width="60" height="45" x="0" y="0"/></clipPath></defs><g class="layer-above"><g class="imagelayer"/><g class="shapelayer"/></g><g class="infolayer"><g class="legend" pointer-events="all" transform="translate(627.74,100)"><rect class="bg" shape-rendering="crispEdges" width="60" height="45" x="0" y="0" style="stroke: rgb(68, 68, 68); stroke-opacity: 1; fill: rgb(255, 255, 255); fill-opacity: 1; stroke-width: 0px;"/><g class="scrollbox" transform="" clip-path="url('#legendbfb8af')"><text class="legendtitletext" text-anchor="start" x="2" y="15.600000000000001" style="font-family: 'Open Sans', verdana, arial, sans-serif; font-size: 12px; fill: rgb(42, 63, 95); fill-opacity: 1; white-space: pre;">All</text><g class="groups" transform=""><g class="traces" transform="translate(0,30.1)" style="opacity: 1;"><text class="legendtext" text-anchor="start" x="40" y="4.680000000000001" style="font-family: 'Open Sans', verdana, arial, sans-serif; font-size: 12px; fill: rgb(42, 63, 95); fill-opacity: 1; white-space: pre;">All</text><g class="layers" style="opacity: 1;"><g class="legendfill"/><g class="legendlines"><path class="js-line" d="M5,0h30" style="fill: none; stroke: rgb(99, 110, 250); stroke-opacity: 1; stroke-width: 2px;"/></g><g class="legendsymbols"><g class="legendpoints"/></g></g><rect class="legendtoggle" x="0" y="-9.5" width="54.890625" height="19" style="fill: rgb(0, 0, 0); fill-opacity: 0;"/></g></g></g><rect class="scrollbar" rx="20" ry="3" width="0" height="0" x="0" y="0" style="fill: rgb(128, 139, 164); fill-opacity: 1;"/></g><g class="g-gtitle"><text class="gtitle" x="35" y="50" text-anchor="start" dy="0em" style="font-family: 'Open Sans', verdana, arial, sans-serif; font-size: 17px; fill: rgb(42, 63, 95); opacity: 1; font-weight: normal; white-space: pre;">Singapore Vaccination Centers</text></g><g class="g-xtitle"><text class="xtitle" x="348.5" y="476.409375" text-anchor="middle" style="font-family: 'Open Sans', verdana, arial, sans-serif; font-size: 14px; fill: rgb(42, 63, 95); opacity: 1; font-weight: normal; white-space: pre;">Time</text></g><g class="g-ytitle"><text class="ytitle" transform="rotate(-90,19.840625000000003,260)" x="19.840625000000003" y="260" text-anchor="middle" style="font-family: 'Open Sans', verdana, arial, sans-serif; font-size: 14px; fill: rgb(42, 63, 95); opacity: 1; font-weight: normal; white-space: pre;">Filled/%</text></g></g></svg>