<svg class="main-svg" xmlns="http://www.w3.org/2000/svg" xmlns:xlink="http://www.w3.org/1999/xlink" width="700" height="500" style="" viewBox="0 0 700 500"><rect x="0" y="0" width="700" height="500" style="fill: rgb(255, 255, 255); fill-opacity: 1;"/><defs id="defs-7cb79d"><g class="clips"><clipPath id="clip7cb79dxyplot" class="plotclip"><rect width="537" height="320"/></clipPath><clipPath class="axesclip" id="clip7cb79dx"><rect x="80" y="0" width="537" height="500"/></clipPath><clipPath class="axesclip" id="clip7cb79dy"><rect x="0" y="100" width="700" height="320"/></clipPath><clipPath class="axesclip" id="clip7cb79dxy"><rect x="80" y="100" width="537" height="320"/></clipPath></g><g class="gradients"/></defs><g class="bglayer"><rect class="bg" x="80" y="100" width="537" height="320" style="fill: rgb(229, 236, 246); fill-opacity: 1; stroke-width: 0;"/></g><g class="layer-below"><g class="imagelayer"/><g class="shapelayer"/></g><g class="cartesianlayer"><g class="subplot xy"><g class="layer-subplot"><g class="shapelayer"/><g class="imagelayer"/></g><g class="gridlayer"><g class="x"><path class="xgrid crisp" transform="translate(90.16,0)" d="M0,100v320" style="stroke: rgb(255, 255, 255); stroke-opacity: 1; stroke-width: 1px;"/><path class="xgrid crisp" transform="translate(199.63,0)" d="M0,100v320" style="stroke: rgb(255, 255, 255); stroke-opacity: 1; stroke-width: 1px;"/><path class="xgrid crisp" transform="translate(309.09000000000003,0)" d="M0,100v320" style="stroke: rgb(255, 255, 255); stroke-opacity: 1; stroke-width: 1px;"/><path class="xgrid crisp" transform="translate(418.55,0)" d="M0,100v320" style="stroke: rgb(255, 255, 255); stroke-opacity: 1; stroke-width: 1px;"/><path class="xgrid crisp" transform="translate(528.01,0)" d="M0,100v320" style="stroke: rgb(255, 255, 255); stroke-opacity: 1; stroke-width: 1px;"/></g><g class="y"><path class="ygrid crisp" transform="translate(0,367.23)" d="M80,0h537" style="stroke: rgb(255, 255, 255); stroke-opacity: 1; stroke-width: 1px;"/><path class="ygrid crisp" transform="translate(0,308.43)" d="M80,0h537" style="stroke: rgb(255, 255, 255); stroke-opacity: 1; stroke-width: 1px;"/><path class="ygrid crisp" transform="translate(0,249.63)" d="M80,0h537" style="stroke: rgb(255, 255, 255); stroke-opacity: 1; stroke-width: 1px;"/><path class="ygrid crisp" transform="translate(0,190.82999999999998)" d="M80,0h537" style="stroke: rgb(255, 255, 255); stroke-opacity: 1; stroke-width: 1px;"/><path class="ygrid crisp" transform="translate(0,132.03)" d="M80,0h537" style="stroke: rgb(255, 255, 255); stroke-opacity: 1; stroke-width: 1px;"/></g></g><g class="zerolinelayer"/><path class="xlines-below"/><path class="ylines-below"/><g class="overlines-below"/><g class="xaxislayer-below"/><g class="yaxislayer-below"/><g class="overaxes-below"/><g class="plot" transform="translate(80,100)" clip-path="url('#clip7cb79dxyplot')"><g class="scatterlayer mlayer"><g class="trace scatter trace950ba9" style="stroke-miterlimit: 2; opacity: 1;"><g class="fills"/><g class="errorbars"/><g class="lines"><path class="js-line" d="M0,82.28L6.42,82.51L8.7,120.48L13.23,120.57L14.91,136.92L15.62,136.9L32.41,137.96L33.46,121.23L33.78,129.62L34.54,129.56L36.06,126.37L36.82,126.27L38.34,129.79L39.1,129.7L40.62,132.71L41.37,132.63L42.9,120.69L43.66,120.62L45.18,132.64L45.94,132.55L47.46,126.68L49.74,113.21L50.5,109.51L54.3,74.17L55.06,72.87L56.58,78.78L57.34,77.73L59.62,62.82L61.14,65.47L61.9,64.83L63.42,74.27L64.18,73.83L65.18,51.83L66.46,52.34L67.22,52.21L75.58,51.78L76.34,51.77L85.46,51.11L86.22,50.91L112.07,42.44L112.83,42.24L118.91,40.95L119.67,41.79L133.35,41.46L134.11,41.46L146.28,40.58L147.04,40.48L171.36,37.08L172.12,36.99L173.64,36.83L174.4,35.53L204.05,34L204.81,33.87L228.38,31.05L229.14,28.56L254.98,27.81L255.74,95.38L264.13,93.57L264.87,93.44L265.63,93.12L266.38,91.51L268.67,88.51L269.43,87.52L273.23,73.59L273.99,72.39L278.55,67.88L279.31,67.37L283.11,65.43L283.87,65.5L289.19,64.8L289.95,64.77L306.67,63.66L307.43,63.48L312.75,61.32L313.51,60.89L314.27,60.46L315.03,62.78L318.08,61.15L318.84,59.94L323.4,53.24L324.16,52.44L327.2,47.98L327.96,45.51L331,38.66L331.76,37.65L335.56,33.5L336.32,32.89L339.36,31.98L340.12,31.8L346.2,31.18L346.96,31.16L358.36,30.17L359.12,29.9L363.68,28.09L364.44,74.81L366.73,72.76L367.49,72.32L374.33,69.16L375.09,68.8L375.67,71.93L375.85,68.39L376.57,68.25L376.61,69.25L377.33,67.95L377.37,68.94L378.13,68.62L379.65,68.09L380.41,76.43L387.07,73.91L387.09,72.31L387.13,72.03L387.25,73.74L394.47,44.74L394.85,44.87L395.23,41.95L395.99,42.12L396.37,43.2L397.51,37.43L397.89,41.6L399.03,39.66L399.41,39.05L400.55,38.13L400.93,38.96L402.07,38.42L402.46,38.33L403.22,38.4L403.6,43.02L407.78,41.69L408.15,36.5L408.91,35.76L409.29,35.39L410.43,33.79L410.81,33.41L413.86,22.43L414.23,16L414.61,16.8L415,140.18L415.38,139.22L415.76,142.07L416.52,136.79L416.9,138.99L417.66,136.15L418.04,136.63L418.42,141.25L418.8,146.68L419.18,133.42L419.94,138.09L420.32,157.2L421.46,133.53L421.84,145.44L422.22,148.42L422.6,146.68L422.98,144.02L423.74,134.36L424.12,135.71L424.5,141.84L424.88,146.05L425.26,142.1L425.64,141.74L426.02,151.77L426.4,141.68L426.78,140.84L427.16,148.68L427.92,127.07L428.3,137.58L429.06,140.49L429.44,138.92L430.96,129.31L431.34,138.25L431.72,134.05L432.1,138.68L432.48,138.81L432.86,131.49L433.24,131.42L433.62,140.05L434.38,132.48L434.76,138.41L435.52,141.46L435.9,128.79L436.66,142.96L437.04,264.58L438.18,293.12L438.56,304L438.94,286.22L439.32,301.52L439.7,291.75L440.08,292.1L440.46,291.07L440.84,294.16L441.22,293.46L441.6,276.02L441.98,283.67L442.36,262.28L443.12,272.54L443.5,248.89L444.26,241.71L444.64,229.6L445.02,224.98L445.4,228.24L445.78,227.36L446.92,215.22L447.3,217.06L447.68,216.4L448.06,227.08L448.44,226.08L448.82,228.38L449.2,228.68L449.58,224.72L449.96,233.57L450.34,224.28L451.1,227.75L451.48,223.07L452.24,226.33L452.63,223.26L453,224.52L453.38,234.01L453.76,220.81L454.15,231.91L454.53,224.2L456.81,212.72L457.19,220.76L457.95,220.72L458.33,223.7L458.71,223.67L459.08,219.37L459.47,223.08L459.84,218.62L460.22,226.76L460.61,225.2L460.99,224.19L461.37,219.51L461.75,225.16L462.88,225.11L463.26,216.49L463.65,225.05L464.03,220.43L464.4,220.57L464.79,218.19L465.17,220.92L465.55,219.84L465.93,227.36L466.31,216.65L466.69,220.1L467.07,220.01L467.83,220.98L468.2,218.78L468.96,223.64L469.34,218.66L469.72,205.85L470.11,215.25L470.49,220.32L470.87,206.18L471.25,206.81L471.63,214.16L472.01,214.11L472.39,206.99L473.15,212.47L473.53,202.23L473.91,199.24L474.29,208.71L474.67,224.84L475.05,215.2L475.43,214.49L475.81,205.74L476.19,219.6L476.95,195.82L477.33,209.77L477.71,208.24L478.09,203.32L478.47,202.05L478.85,205.17L479.23,200.81L479.61,208.16L479.99,206.35L480.37,209.96L480.75,207.44L481.13,196.45L481.51,195.36L481.89,196.45L482.27,201.41L483.41,210.92L483.79,197.09L484.17,197.31L484.55,191.05L484.93,191.24L485.31,196.07L485.69,200.65L486.07,194.37L487.21,210.5L487.59,204.27L488.35,191.94L488.73,193.62L489.11,197L489.49,205.03L489.87,197.14L490.25,198.57L490.63,192.99L491.77,184.28L492.15,189.51L492.91,194.59L493.29,189.23L493.67,191.91L494.05,189.81L494.43,182.31L494.81,187.7L495.19,187L495.57,183.28L495.95,186.18L496.33,185.69L496.72,181.61L497.1,182.61L497.48,186.54L498.23,187.68L498.61,186.58L498.99,181.49L499.37,187.81L500.13,185.81L500.51,187.22L500.89,189.17L501.28,187L502.42,194.82L502.8,189.57L503.17,183.36L503.55,189.2L503.94,186.45L505.08,187.85L505.45,183.53L506.6,187.65L506.98,184.59L507.74,184.25L508.11,185.71L509.25,187.29L509.64,197.68L510.01,197.68L510.4,195.53L510.78,195.52L511.16,190.33L511.54,190.33L511.92,186.49L513.44,194.95L513.82,194.95L514.2,195.4L514.58,193.58L514.96,193.58L515.34,187.5L516.1,187.5L516.48,190.84L516.86,186.76L517.24,190.68L517.62,186.75L518.76,188.23L519.14,187.2L521.42,183.02L521.8,181.13L522.56,190.9L522.94,187.7L523.32,181.79L523.7,180.91L524.08,182.93L524.46,184.81L524.84,179.55L525.6,190.44L525.98,182.8L526.36,183.07L526.74,174.64L527.88,185.09L528.26,181.21L528.64,181.99L529.02,185.79L529.4,171.39L529.78,177.83L530.16,175.21L530.54,180.5L530.92,179.53L531.3,177.22L532.82,187.84L533.2,182.58L533.58,175.16L533.96,180.33L534.34,178.23L535.1,176.4L535.48,185.95L535.86,175.93L536.24,196.82L537,173.74" style="vector-effect: non-scaling-stroke; fill: none; stroke: rgb(99, 110, 250); stroke-opacity: 1; stroke-width: 2px; opacity: 1;"/></g><g class="points"/><g class="text"/></g></g></g><g class="overplot"/><path class="xlines-above crisp" d="M0,0" style="fill: none;"/><path class="ylines-above crisp" d="M0,0" style="fill: none;"/><g class="overlines-above"/><g class="xaxislayer-above"><g class="xtick"><text text-anchor="middle" x="0" y="433" transform="translate(90.16,0)" style="font-family: 'Open Sans', verdana, arial, sans-serif; font-size: 12px; fill: rgb(42, 63, 95); fill-opacity: 1; white-space: pre;"><tspan class="line" dy="0em" x="0" y="433">Jun 4</tspan><tspan class="line" dy="1.3em" x="0" y="433">2021</tspan></text></g><g class="xtick"><text text-anchor="middle" x="0" y="433" transform="translate(199.63,0)" style="font-family: 'Open Sans', verdana, arial, sans-serif; font-size: 12px; fill: rgb(42, 63, 95); fill-opacity: 1; white-space: pre;">Jun 6</text></g><g class="xtick"><text text-anchor="middle" x="0" y="433" transform="translate(309.09000000000003,0)" style="font-family: 'Open Sans', verdana, arial, sans-serif; font-size: 12px; fill: rgb(42, 63, 95); fill-opacity: 1; white-space: pre;">Jun 8</text></g><g class="xtick"><text text-anchor="middle" x="0" y="433" transform="translate(418.55,0)" style="font-family: 'Open Sans', verdana, arial, sans-serif; font-size: 12px; fill: rgb(42, 63, 95); fill-opacity: 1; white-space: pre;">Jun 10</text></g><g class="xtick"><text text-anchor="middle" x="0" y="433" transform="translate(528.01,0)" style="font-family: 'Open Sans', verdana, arial, sans-serif; font-size: 12px; fill: rgb(42, 63, 95); fill-opacity: 1; white-space: pre;">Jun 12</text></g></g><g class="yaxislayer-above"><g class="ytick"><text text-anchor="end" x="79" y="4.199999999999999" transform="translate(0,367.23)" style="font-family: 'Open Sans', verdana, arial, sans-serif; font-size: 12px; fill: rgb(42, 63, 95); fill-opacity: 1; white-space: pre;">0.8</text></g><g class="ytick"><text text-anchor="end" x="79" y="4.199999999999999" transform="translate(0,308.43)" style="font-family: 'Open Sans', verdana, arial, sans-serif; font-size: 12px; fill: rgb(42, 63, 95); fill-opacity: 1; white-space: pre;">0.82</text></g><g class="ytick"><text text-anchor="end" x="79" y="4.199999999999999" transform="translate(0,249.63)" style="font-family: 'Open Sans', verdana, arial, sans-serif; font-size: 12px; fill: rgb(42, 63, 95); fill-opacity: 1; white-space: pre;">0.84</text></g><g class="ytick"><text text-anchor="end" x="79" y="4.199999999999999" transform="translate(0,190.82999999999998)" style="font-family: 'Open Sans', verdana, arial, sans-serif; font-size: 12px; fill: rgb(42, 63, 95); fill-opacity: 1; white-space: pre;">0.86</text></g><g class="ytick"><text text-anchor="end" x="79" y="4.199999999999999" transform="translate(0,132.03)" style="font-family: 'Open Sans', verdana, arial, sans-serif; font-size: 12px; fill: rgb(42, 63, 95); fill-opacity: 1; white-space: pre;">0.88</text></g></g><g class="overaxes-above"/></g></g><g class="polarlayer"/><g class="ternarylayer"/><g class="geolayer"/><g class="funnelarealayer"/><g class="pielayer"/><g class="treemaplayer"/><g class="sunburstlayer"/><g class="glimages"/><defs id="topdefs-7cb79d"><g class="clips"/><clipPath id="legend7cb79d"><rect width="60" height="45" x="0" y="0"/></clipPath></defs><g class="layer-above"><g class="imagelayer"/><g class="shapelayer"/></g><g class="infolayer"><g class="legend" pointer-events="all" transform="translate(627.74,100)"><rect class="bg" shape-rendering="crispEdges" width="60" height="45" x="0" y="0" style="stroke: rgb(68, 68, 68); stroke-opacity: 1; fill: rgb(255, 255, 255); fill-opacity: 1; stroke-width: 0px;"/><g class="scrollbox" transform="" clip-path="url('#legend7cb79d')"><text class="legendtitletext" text-anchor="start" x="2" y="15.600000000000001" style="font-family: 'Open Sans', verdana, arial, sans-serif; font-size: 12px; fill: rgb(42, 63, 95); fill-opacity: 1; white-space: pre;">All</text><g class="groups" transform=""><g class="traces" transform="translate(0,30.1)" style="opacity: 1;"><text class="legendtext" text-anchor="start" x="40" y="4.680000000000001" style="font-family: 'Open Sans', verdana, arial, sans-serif; font-size: 12px; fill: rgb(42, 63, 95); fill-opacity: 1; white-space: pre;">All</text><g class="layers" style="opacity: 1;"><g class="legendfill"/><g class="legendlines"><path class="js-line" d="M5,0h30" style="fill: none; stroke: rgb(99, 110, 250); stroke-opacity: 1; stroke-width: 2px;"/></g><g class="legendsymbols"><g class="legendpoints"/></g></g><rect class="legendtoggle" x="0" y="-9.5" width="54.890625" height="19" style="fill: rgb(0, 0, 0); fill-opacity: 0;"/></g></g></g><rect class="scrollbar" rx="20" ry="3" width="0" height="0" x="0" y="0" style="fill: rgb(128, 139, 164); fill-opacity: 1;"/></g><g class="g-gtitle"><text class="gtitle" x="35" y="50" text-anchor="start" dy="0em" style="font-family: 'Open Sans', verdana, arial, sans-serif; font-size: 17px; fill: rgb(42, 63, 95); opacity: 1; font-weight: normal; white-space: pre;">Singapore Vaccination Centers</text></g><g class="g-xtitle"><text class="xtitle" x="348.5" y="476.409375" text-anchor="middle" style="font-family: 'Open Sans', verdana, arial, sans-serif; font-size: 14px; fill: rgb(42, 63, 95); opacity: 1; font-weight: normal; white-space: pre;">Time</text></g><g class="g-ytitle"><text class="ytitle" transform="rotate(-90,27.481250000000003,260)" x="27.481250000000003" y="260" text-anchor="middle" style="font-family: 'Open Sans', verdana, arial, sans-serif; font-size: 14px; fill: rgb(42, 63, 95); opacity: 1; font-weight: normal; white-space: pre;">Filled/%</text></g></g></svg>