<svg class="main-svg" xmlns="http://www.w3.org/2000/svg" xmlns:xlink="http://www.w3.org/1999/xlink" width="700" height="500" style="" viewBox="0 0 700 500"><rect x="0" y="0" width="700" height="500" style="fill: rgb(255, 255, 255); fill-opacity: 1;"/><defs id="defs-b7500c"><g class="clips"><clipPath id="clipb7500cxyplot" class="plotclip"><rect width="537" height="320"/></clipPath><clipPath class="axesclip" id="clipb7500cx"><rect x="80" y="0" width="537" height="500"/></clipPath><clipPath class="axesclip" id="clipb7500cy"><rect x="0" y="100" width="700" height="320"/></clipPath><clipPath class="axesclip" id="clipb7500cxy"><rect x="80" y="100" width="537" height="320"/></clipPath></g><g class="gradients"/></defs><g class="bglayer"><rect class="bg" x="80" y="100" width="537" height="320" style="fill: rgb(229, 236, 246); fill-opacity: 1; stroke-width: 0;"/></g><g class="layer-below"><g class="imagelayer"/><g class="shapelayer"/></g><g class="cartesianlayer"><g class="subplot xy"><g class="layer-subplot"><g class="shapelayer"/><g class="imagelayer"/></g><g class="gridlayer"><g class="x"><path class="xgrid crisp" transform="translate(82.05,0)" d="M0,100v320" style="stroke: rgb(255, 255, 255); stroke-opacity: 1; stroke-width: 1px;"/><path class="xgrid crisp" transform="translate(160.95999999999998,0)" d="M0,100v320" style="stroke: rgb(255, 255, 255); stroke-opacity: 1; stroke-width: 1px;"/><path class="xgrid crisp" transform="translate(239.88,0)" d="M0,100v320" style="stroke: rgb(255, 255, 255); stroke-opacity: 1; stroke-width: 1px;"/><path class="xgrid crisp" transform="translate(318.78999999999996,0)" d="M0,100v320" style="stroke: rgb(255, 255, 255); stroke-opacity: 1; stroke-width: 1px;"/><path class="xgrid crisp" transform="translate(397.71,0)" d="M0,100v320" style="stroke: rgb(255, 255, 255); stroke-opacity: 1; stroke-width: 1px;"/><path class="xgrid crisp" transform="translate(476.62,0)" d="M0,100v320" style="stroke: rgb(255, 255, 255); stroke-opacity: 1; stroke-width: 1px;"/><path class="xgrid crisp" transform="translate(555.54,0)" d="M0,100v320" style="stroke: rgb(255, 255, 255); stroke-opacity: 1; stroke-width: 1px;"/></g><g class="y"><path class="ygrid crisp" transform="translate(0,393.99)" d="M80,0h537" style="stroke: rgb(255, 255, 255); stroke-opacity: 1; stroke-width: 1px;"/><path class="ygrid crisp" transform="translate(0,356.58)" d="M80,0h537" style="stroke: rgb(255, 255, 255); stroke-opacity: 1; stroke-width: 1px;"/><path class="ygrid crisp" transform="translate(0,319.16999999999996)" d="M80,0h537" style="stroke: rgb(255, 255, 255); stroke-opacity: 1; stroke-width: 1px;"/><path class="ygrid crisp" transform="translate(0,281.76)" d="M80,0h537" style="stroke: rgb(255, 255, 255); stroke-opacity: 1; stroke-width: 1px;"/><path class="ygrid crisp" transform="translate(0,244.35)" d="M80,0h537" style="stroke: rgb(255, 255, 255); stroke-opacity: 1; stroke-width: 1px;"/><path class="ygrid crisp" transform="translate(0,206.94)" d="M80,0h537" style="stroke: rgb(255, 255, 255); stroke-opacity: 1; stroke-width: 1px;"/><path class="ygrid crisp" transform="translate(0,169.53)" d="M80,0h537" style="stroke: rgb(255, 255, 255); stroke-opacity: 1; stroke-width: 1px;"/><path class="ygrid crisp" transform="translate(0,132.12)" d="M80,0h537" style="stroke: rgb(255, 255, 255); stroke-opacity: 1; stroke-width: 1px;"/></g></g><g class="zerolinelayer"/><path class="xlines-below"/><path class="ylines-below"/><g class="overlines-below"/><g class="xaxislayer-below"/><g class="yaxislayer-below"/><g class="overaxes-below"/><g class="plot" transform="translate(80,100)" clip-path="url('#clipb7500cxyplot')"><g class="scatterlayer mlayer"><g class="trace scatter trace3b0050" style="stroke-miterlimit: 2; opacity: 1;"><g class="fills"/><g class="errorbars"/><g class="lines"><path class="js-line" d="M0,304L1.58,302.77L2.13,256.55L2.68,257.69L3.23,256.22L5.42,255.65L5.96,255.31L7.06,255.99L7.61,255.2L8.7,255.54L9.25,255.2L10.35,254.97L10.9,254.75L11.99,254.52L12.54,254.29L19.66,253.95L20.21,253.5L24.05,252.48L24.59,251.92L25.69,252.03L26.24,251.24L27.34,252.03L27.89,250.67L29.53,249.88L30.07,250.33L30.62,249.99L31.17,250.79L32.27,248.18L32.82,248.64L33.36,248.64L35.01,247.51L35.55,246.83L36.65,245.36L37.2,246.26L37.75,246.49L38.3,245.47L38.84,243.66L39.39,244.11L39.94,245.02L42.13,241.28L42.68,240.49L44.32,239.59L44.87,239.25L45.42,239.47L45.97,240.83L46.51,238.91L47.06,239.25L47.61,239.02L48.71,239.47L49.26,237.67L50.35,235.86L50.9,236.53L52,235.52L52.54,236.99L53.09,236.76L53.64,235.4L55.83,231.56L56.38,229.18L56.93,229.75L57.48,228.5L58.03,227.6L58.57,228.28L59.67,228.5L60.22,229.41L62.96,227.37L63.5,227.15L65.7,226.01L66.25,227.03L66.79,227.03L67.34,225.68L69.54,224.32L70.08,224.2L71.73,223.41L72.27,223.3L73.37,223.41L73.92,223.07L75.56,222.96L76.11,222.17L77.75,219.79L78.3,219.11L79.4,220.02L79.95,219.57L80.49,220.02L81.04,162.57L83.24,160.98L83.78,160.86L85.97,159.84L86.52,159.84L89.26,159.15L89.81,158.81L94.2,158.24L94.75,158.58L99.13,158.81L99.67,158.69L104.06,157.33L104.61,157.67L105.7,157.33L106.25,156.87L107.34,156.98L107.89,156.41L109.54,156.41L110.08,155.5L111.73,153.79L112.28,154.7L113.92,153.22L114.47,153.79L116.66,150.48L117.21,151.96L119.4,149.34L119.95,150.14L121.05,148.77L121.59,149.8L122.14,150.71L122.69,149.91L123.24,150.82L123.79,150.37L124.33,149.57L124.88,150.48L125.43,149.91L127.62,150.82L128.17,150.48L130.37,147.29L130.92,147.4L132.01,148.31L132.56,146.6L134.76,145.81L135.3,144.32L137.5,144.78L138.04,143.64L138.59,141.7L139.14,143.07L139.69,143.07L140.24,142.04L140.78,142.84L141.33,142.38L141.88,141.36L145.72,137.36L146.27,136.22L146.81,136.91L147.36,136.11L147.91,135.08L148.46,135.54L149,135.2L150.1,134.97L150.65,132.69L151.2,132.57L151.74,131.66L152.84,130.63L153.39,130.86L154.49,132.46L155.03,131.89L155.58,133.6L156.13,132.92L156.68,132.8L157.77,131.09L158.32,131.55L159.42,131.78L159.96,91.73L161.61,89.89L162.15,89.66L167.09,86.78L167.64,86.67L168.73,85.63L169.28,85.63L170.38,85.75L170.92,85.17L182.98,83.45L183.53,83.79L185.17,82.87L185.72,82.99L186.27,83.22L186.81,82.53L190.1,81.95L191.2,81.49L191.75,80.34L192.84,80L193.94,79.65L194.49,78.16L195.03,79.19L195.58,78.16L196.68,78.16L197.22,77.58L197.78,77.47L198.32,76.43L199.96,76.2L200.51,74.82L202.69,71.48L203.23,72.06L204.88,71.14L205.43,69.64L207.62,69.07L208.17,67.34L209.26,67.23L209.81,67.11L212.55,64.93L213.1,65.16L214.74,67L215.3,65.39L216.39,66.42L216.94,64.7L218.03,64.81L218.58,65.16L220.77,63.89L221.32,63.43L224.06,58.49L224.61,59.75L225.71,58.14L226.25,57.91L226.8,56.76L227.35,57.11L227.9,57.22L228.45,57.22L228.99,56.3L229.54,56.76L230.09,55.38L231.18,55.26L231.73,54.34L233.92,54.69L234.47,53.88L235.57,53.77L236.12,53.88L237.22,52.16L237.76,52.73L238.31,52.5L238.86,188.4L243.24,188.04L243.79,187.69L244.34,187.69L244.89,186.73L251.46,185.54L252.01,185.66L258.04,184.94L258.59,184.82L262.42,183.87L262.97,184.1L264.61,183.15L265.16,182.55L267.9,181.6L268.45,180.4L270.66,180.16L271.21,181.24L272.31,179.57L272.85,179.45L273.4,178.85L273.95,176.7L274.49,175.03L275.04,175.27L275.59,174.67L276.14,173.12L276.69,173.6L277.24,173L278.33,173.12L278.88,172.29L279.98,171.69L280.53,172.52L282.17,170.14L282.72,170.97L284.36,168.58L284.91,168.58L285.46,167.87L286.01,168.82L287.1,169.66L287.65,168.82L288.2,168.94L288.75,168.23L291.49,164.52L292.03,164.05L293.13,163.69L293.68,165L296.97,162.26L297.51,163.81L298.61,144.82L299.16,144.47L300.25,143.87L300.8,139.69L301.35,139.81L301.9,136.35L302.45,136.59L303,134.32L303.54,131.69L304.09,132.53L304.64,130.98L305.18,129.78L305.73,126.68L306.83,123.93L307.38,123.45L310.12,116.29L310.67,116.29L312.31,113.07L312.86,112.23L317.24,103.75L317.79,115.51L320.53,111.65L321.08,112.01L321.63,111.89L322.18,112.62L323.27,112.25L323.82,112.86L325.46,112.01L326.01,112.13L327.11,111.65L327.66,111.77L335.33,111.17L335.88,110.81L340.26,111.29L340.81,111.05L344.09,110.93L344.64,110.45L346.29,108.04L346.83,108.28L348.48,107.08L349.03,107.2L349.58,106.84L350.12,105.39L351.22,105.63L351.77,104.31L354.51,101.54L355.05,101.9L356.7,98.89L357.25,98.53L358.89,96.24L359.44,96.24L360.54,93.95L361.08,93.95L362.18,92.26L362.73,90.34L364.92,85.76L365.47,85.4L366.02,85.04L366.56,83.11L368.76,81.43L369.3,79.98L372.59,79.14L373.14,78.17L373.69,78.54L374.24,77.93L374.79,78.3L379.17,74.2L381.91,71.91L382.46,72.51L384.65,69.62L385.2,69.5L385.75,68.3L386.29,68.78L386.84,68.18L387.94,68.06L388.49,69.02L390.13,67.82L390.68,67.58L391.23,66.98L391.78,67.82L393.97,67.22L394.52,66.25L396.16,64.21L396.71,109.23L397.8,109.59L398.35,108.61L398.9,108L399.44,108.49L400.01,108.37L401.09,108.49L401.64,109.35L403.83,109.1L404.38,109.23L406.02,109.35L406.57,109.35L409.31,108L409.86,108.37L415.34,107.75L415.89,107.75L423.01,107.39L423.56,107.02L425.2,107.02L425.75,106.65L426.85,106.16L427.39,105.3L428.49,104.93L429.04,103.71L429.59,102.48L430.14,103.71L432.32,102.85L432.87,102.85L433.97,101.01L434.52,100.76L436.16,98.19L436.71,98.06L438.35,97.7L438.9,96.96L440,96.35L440.55,96.47L441.64,95.12L442.19,94.51L444.38,93.65L444.93,94.02L445.48,93.53L446.03,94.14L447.12,91.07L447.67,91.32L448.22,91.32L449.86,90.83L450.41,89.72L453.7,87.76L454.25,87.39L455.34,87.02L455.89,86.66L458.63,84.33L459.18,84.69L463.02,82.85L463.56,81.87L465.21,79.66L465.76,78.93L466.3,79.17L466.85,77.58L467.95,75.86L468.5,76.48L473.43,73.53L473.98,73.29L475.07,73.53L475.62,43.59L480.01,40.38L480.55,40.5L486.04,40.62L486.58,40.99L489.32,40.38L489.87,40.38L493.16,40.13L493.71,40.25L495.35,40.38L495.9,40L503.02,40.25L503.57,39.39L504.67,40.38L505.21,39.63L506.86,38.4L507.41,37.65L508.5,38.03L509.05,36.91L510.14,36.29L510.69,36.54L511.24,35.8L511.79,33.69L512.34,33.69L512.88,32.7L513.43,33.32L513.98,32.58L515.08,31.1L515.62,29.61L516.17,28.99L516.72,29.98L517.82,27.38L518.36,27.63L519.46,26.15L520.01,26.27L523.3,24.79L523.85,24.91L524.94,24.29L525.49,23.3L527.14,24.04L527.68,22.68L529.33,22.31L529.88,22.43L531.52,18.72L532.07,19.09L532.61,18.72L534.81,16.74L535.35,17.24L535.9,17.24L536.45,16.12L537,16" style="vector-effect: non-scaling-stroke; fill: none; stroke: rgb(99, 110, 250); stroke-opacity: 1; stroke-width: 2px; opacity: 1;"/></g><g class="points"/><g class="text"/></g></g></g><g class="overplot"/><path class="xlines-above crisp" d="M0,0" style="fill: none;"/><path class="ylines-above crisp" d="M0,0" style="fill: none;"/><g class="overlines-above"/><g class="xaxislayer-above"><g class="xtick"><text text-anchor="middle" x="0" y="433" transform="translate(82.05,0)" style="font-family: 'Open Sans', verdana, arial, sans-serif; font-size: 12px; fill: rgb(42, 63, 95); fill-opacity: 1; white-space: pre;"><tspan class="line" dy="0em" x="0" y="433">Aug 3</tspan><tspan class="line" dy="1.3em" x="0" y="433">2021</tspan></text></g><g class="xtick"><text text-anchor="middle" x="0" y="433" transform="translate(160.95999999999998,0)" style="font-family: 'Open Sans', verdana, arial, sans-serif; font-size: 12px; fill: rgb(42, 63, 95); fill-opacity: 1; white-space: pre;">Aug 4</text></g><g class="xtick"><text text-anchor="middle" x="0" y="433" transform="translate(239.88,0)" style="font-family: 'Open Sans', verdana, arial, sans-serif; font-size: 12px; fill: rgb(42, 63, 95); fill-opacity: 1; white-space: pre;">Aug 5</text></g><g class="xtick"><text text-anchor="middle" x="0" y="433" transform="translate(318.78999999999996,0)" style="font-family: 'Open Sans', verdana, arial, sans-serif; font-size: 12px; fill: rgb(42, 63, 95); fill-opacity: 1; white-space: pre;">Aug 6</text></g><g class="xtick"><text text-anchor="middle" x="0" y="433" transform="translate(397.71,0)" style="font-family: 'Open Sans', verdana, arial, sans-serif; font-size: 12px; fill: rgb(42, 63, 95); fill-opacity: 1; white-space: pre;">Aug 7</text></g><g class="xtick"><text text-anchor="middle" x="0" y="433" transform="translate(476.62,0)" style="font-family: 'Open Sans', verdana, arial, sans-serif; font-size: 12px; fill: rgb(42, 63, 95); fill-opacity: 1; white-space: pre;">Aug 8</text></g><g class="xtick"><text text-anchor="middle" x="0" y="433" transform="translate(555.54,0)" style="font-family: 'Open Sans', verdana, arial, sans-serif; font-size: 12px; fill: rgb(42, 63, 95); fill-opacity: 1; white-space: pre;">Aug 9</text></g></g><g class="yaxislayer-above"><g class="ytick"><text text-anchor="end" x="79" y="4.199999999999999" transform="translate(0,393.99)" style="font-family: 'Open Sans', verdana, arial, sans-serif; font-size: 12px; fill: rgb(42, 63, 95); fill-opacity: 1; white-space: pre;">0.864</text></g><g class="ytick"><text text-anchor="end" x="79" y="4.199999999999999" transform="translate(0,356.58)" style="font-family: 'Open Sans', verdana, arial, sans-serif; font-size: 12px; fill: rgb(42, 63, 95); fill-opacity: 1; white-space: pre;">0.865</text></g><g class="ytick"><text text-anchor="end" x="79" y="4.199999999999999" transform="translate(0,319.16999999999996)" style="font-family: 'Open Sans', verdana, arial, sans-serif; font-size: 12px; fill: rgb(42, 63, 95); fill-opacity: 1; white-space: pre;">0.866</text></g><g class="ytick"><text text-anchor="end" x="79" y="4.199999999999999" transform="translate(0,281.76)" style="font-family: 'Open Sans', verdana, arial, sans-serif; font-size: 12px; fill: rgb(42, 63, 95); fill-opacity: 1; white-space: pre;">0.867</text></g><g class="ytick"><text text-anchor="end" x="79" y="4.199999999999999" transform="translate(0,244.35)" style="font-family: 'Open Sans', verdana, arial, sans-serif; font-size: 12px; fill: rgb(42, 63, 95); fill-opacity: 1; white-space: pre;">0.868</text></g><g class="ytick"><text text-anchor="end" x="79" y="4.199999999999999" transform="translate(0,206.94)" style="font-family: 'Open Sans', verdana, arial, sans-serif; font-size: 12px; fill: rgb(42, 63, 95); fill-opacity: 1; white-space: pre;">0.869</text></g><g class="ytick"><text text-anchor="end" x="79" y="4.199999999999999" transform="translate(0,169.53)" style="font-family: 'Open Sans', verdana, arial, sans-serif; font-size: 12px; fill: rgb(42, 63, 95); fill-opacity: 1; white-space: pre;">0.87</text></g><g class="ytick"><text text-anchor="end" x="79" y="4.199999999999999" transform="translate(0,132.12)" style="font-family: 'Open Sans', verdana, arial, sans-serif; font-size: 12px; fill: rgb(42, 63, 95); fill-opacity: 1; white-space: pre;">0.871</text></g></g><g class="overaxes-above"/></g></g><g class="polarlayer"/><g class="ternarylayer"/><g class="geolayer"/><g class="funnelarealayer"/><g class="pielayer"/><g class="treemaplayer"/><g class="sunburstlayer"/><g class="glimages"/><defs id="topdefs-b7500c"><g class="clips"/><clipPath id="legendb7500c"><rect width="60" height="45" x="0" y="0"/></clipPath></defs><g class="layer-above"><g class="imagelayer"/><g class="shapelayer"/></g><g class="infolayer"><g class="legend" pointer-events="all" transform="translate(627.74,100)"><rect class="bg" shape-rendering="crispEdges" width="60" height="45" x="0" y="0" style="stroke: rgb(68, 68, 68); stroke-opacity: 1; fill: rgb(255, 255, 255); fill-opacity: 1; stroke-width: 0px;"/><g class="scrollbox" transform="" clip-path="url('#legendb7500c')"><text class="legendtitletext" text-anchor="start" x="2" y="15.600000000000001" style="font-family: 'Open Sans', verdana, arial, sans-serif; font-size: 12px; fill: rgb(42, 63, 95); fill-opacity: 1; white-space: pre;">All</text><g class="groups" transform=""><g class="traces" transform="translate(0,30.1)" style="opacity: 1;"><text class="legendtext" text-anchor="start" x="40" y="4.680000000000001" style="font-family: 'Open Sans', verdana, arial, sans-serif; font-size: 12px; fill: rgb(42, 63, 95); fill-opacity: 1; white-space: pre;">All</text><g class="layers" style="opacity: 1;"><g class="legendfill"/><g class="legendlines"><path class="js-line" d="M5,0h30" style="fill: none; stroke: rgb(99, 110, 250); stroke-opacity: 1; stroke-width: 2px;"/></g><g class="legendsymbols"><g class="legendpoints"/></g></g><rect class="legendtoggle" x="0" y="-9.5" width="54.890625" height="19" style="fill: rgb(0, 0, 0); fill-opacity: 0;"/></g></g></g><rect class="scrollbar" rx="20" ry="3" width="0" height="0" x="0" y="0" style="fill: rgb(128, 139, 164); fill-opacity: 1;"/></g><g class="g-gtitle"><text class="gtitle" x="35" y="50" text-anchor="start" dy="0em" style="font-family: 'Open Sans', verdana, arial, sans-serif; font-size: 17px; fill: rgb(42, 63, 95); opacity: 1; font-weight: normal; white-space: pre;">Singapore Vaccination Centers</text></g><g class="g-xtitle"><text class="xtitle" x="348.5" y="476.409375" text-anchor="middle" style="font-family: 'Open Sans', verdana, arial, sans-serif; font-size: 14px; fill: rgb(42, 63, 95); opacity: 1; font-weight: normal; white-space: pre;">Time</text></g><g class="g-ytitle"><text class="ytitle" transform="rotate(-90,19.840625000000003,260)" x="19.840625000000003" y="260" text-anchor="middle" style="font-family: 'Open Sans', verdana, arial, sans-serif; font-size: 14px; fill: rgb(42, 63, 95); opacity: 1; font-weight: normal; white-space: pre;">Filled/%</text></g></g></svg>