<svg class="main-svg" xmlns="http://www.w3.org/2000/svg" xmlns:xlink="http://www.w3.org/1999/xlink" width="700" height="500" style="" viewBox="0 0 700 500"><rect x="0" y="0" width="700" height="500" style="fill: rgb(255, 255, 255); fill-opacity: 1;"/><defs id="defs-b6cd60"><g class="clips"><clipPath id="clipb6cd60xyplot" class="plotclip"><rect width="537" height="320"/></clipPath><clipPath class="axesclip" id="clipb6cd60x"><rect x="80" y="0" width="537" height="500"/></clipPath><clipPath class="axesclip" id="clipb6cd60y"><rect x="0" y="100" width="700" height="320"/></clipPath><clipPath class="axesclip" id="clipb6cd60xy"><rect x="80" y="100" width="537" height="320"/></clipPath></g><g class="gradients"/></defs><g class="bglayer"><rect class="bg" x="80" y="100" width="537" height="320" style="fill: rgb(229, 236, 246); fill-opacity: 1; stroke-width: 0;"/></g><g class="layer-below"><g class="imagelayer"/><g class="shapelayer"/></g><g class="cartesianlayer"><g class="subplot xy"><g class="layer-subplot"><g class="shapelayer"/><g class="imagelayer"/></g><g class="gridlayer"><g class="x"><path class="xgrid crisp" transform="translate(84.7,0)" d="M0,100v320" style="stroke: rgb(255, 255, 255); stroke-opacity: 1; stroke-width: 1px;"/><path class="xgrid crisp" transform="translate(175.28,0)" d="M0,100v320" style="stroke: rgb(255, 255, 255); stroke-opacity: 1; stroke-width: 1px;"/><path class="xgrid crisp" transform="translate(265.86,0)" d="M0,100v320" style="stroke: rgb(255, 255, 255); stroke-opacity: 1; stroke-width: 1px;"/><path class="xgrid crisp" transform="translate(356.44,0)" d="M0,100v320" style="stroke: rgb(255, 255, 255); stroke-opacity: 1; stroke-width: 1px;"/><path class="xgrid crisp" transform="translate(447.02,0)" d="M0,100v320" style="stroke: rgb(255, 255, 255); stroke-opacity: 1; stroke-width: 1px;"/><path class="xgrid crisp" transform="translate(537.6,0)" d="M0,100v320" style="stroke: rgb(255, 255, 255); stroke-opacity: 1; stroke-width: 1px;"/></g><g class="y"><path class="ygrid crisp" transform="translate(0,392.45)" d="M80,0h537" style="stroke: rgb(255, 255, 255); stroke-opacity: 1; stroke-width: 1px;"/><path class="ygrid crisp" transform="translate(0,349.28999999999996)" d="M80,0h537" style="stroke: rgb(255, 255, 255); stroke-opacity: 1; stroke-width: 1px;"/><path class="ygrid crisp" transform="translate(0,306.14)" d="M80,0h537" style="stroke: rgb(255, 255, 255); stroke-opacity: 1; stroke-width: 1px;"/><path class="ygrid crisp" transform="translate(0,262.98)" d="M80,0h537" style="stroke: rgb(255, 255, 255); stroke-opacity: 1; stroke-width: 1px;"/><path class="ygrid crisp" transform="translate(0,219.82999999999998)" d="M80,0h537" style="stroke: rgb(255, 255, 255); stroke-opacity: 1; stroke-width: 1px;"/><path class="ygrid crisp" transform="translate(0,176.68)" d="M80,0h537" style="stroke: rgb(255, 255, 255); stroke-opacity: 1; stroke-width: 1px;"/><path class="ygrid crisp" transform="translate(0,133.52)" d="M80,0h537" style="stroke: rgb(255, 255, 255); stroke-opacity: 1; stroke-width: 1px;"/></g></g><g class="zerolinelayer"/><path class="xlines-below"/><path class="ylines-below"/><g class="overlines-below"/><g class="xaxislayer-below"/><g class="yaxislayer-below"/><g class="overaxes-below"/><g class="plot" transform="translate(80,100)" clip-path="url('#clipb6cd60xyplot')"><g class="scatterlayer mlayer"><g class="trace scatter trace0ff55d" style="stroke-miterlimit: 2; opacity: 1;"><g class="fills"/><g class="errorbars"/><g class="lines"><path class="js-line" d="M0,304L3.63,302.58L4.89,249.27L6.14,250.57L7.4,248.88L12.43,248.22L13.69,247.83L16.21,248.62L17.47,247.7L18.76,248.35L19.98,248.09L25.01,247.18L26.28,247.44L30.05,246.66L31.31,246.4L36.34,246.79L37.6,246.4L43.88,246.27L45.14,246.27L48.92,245.22L50.18,245.48L55.2,244.57L56.46,243.92L57.72,244.44L58.98,244.05L60.23,243.14L61.5,243.4L62.75,244.05L64.01,242.48L67.78,241.57L69.04,242.09L70.3,241.7L71.56,242.61L72.81,241.7L74.08,239.61L76.59,240.13L77.85,239.22L82.88,237.26L84.14,236.35L86.65,237.65L87.91,236.48L89.17,234.39L90.43,234.91L91.68,235.96L92.94,234.39L95.46,232.04L96.72,231.65L99.24,229.96L100.49,230.48L103.01,229.3L104.27,229.56L105.52,231.13L106.78,228.91L110.56,229.96L111.82,229.56L114.34,225.78L115.59,225.39L116.85,226.17L118.11,224.87L119.36,225L120.62,226.69L121.88,226.43L123.14,224.87L128.17,220.43L129.43,217.69L130.69,218.34L131.94,216.91L133.21,215.86L134.46,216.65L136.98,216.91L138.23,217.95L143.27,215.73L144.52,215.6L147.04,214.95L148.3,213.91L149.56,213.51L150.82,214.04L152.08,215.21L153.33,215.21L155.85,212.99L157.11,212.73L160.88,211.95L162.14,211.43L163.4,210.64L164.65,211.04L170.95,210.77L172.21,211.04L174.71,209.6L175.98,208.03L177.23,206.86L178.49,206.86L179.75,206.08L181.01,206.99L184.78,207.12L186.04,140.85L189.82,138.75L191.08,139.01L193.59,138.48L194.85,137.56L197.36,137.69L198.63,137.69L203.65,137.04L204.91,136.9L208.68,136.38L209.94,136.51L221.26,136.51L222.53,136.64L231.33,136.38L232.59,135.72L236.36,135.72L237.62,134.67L242.64,134.8L243.91,134.27L246.42,134.4L247.68,133.75L250.2,133.09L251.45,133.75L255.23,130.72L256.48,130.72L257.75,131.77L259,131.38L261.52,130.06L262.78,130.72L266.55,128.61L267.81,126.9L269.07,128.61L270.32,127.82L274.1,125.59L275.36,126.51L277.87,124.93L279.13,126.11L280.39,127.17L281.65,126.25L282.91,127.3L284.16,126.77L285.42,125.85L286.68,126.9L287.94,126.25L289.19,126.64L292.97,127.3L294.23,126.9L296.77,124.93L298.02,123.48L300.53,123.35L301.8,123.88L303.05,124.4L304.31,122.43L309.35,121.51L310.61,119.8L314.38,120.85L315.64,120.32L318.15,116.77L319.41,118.35L320.67,118.35L321.93,117.17L323.18,118.09L324.44,117.56L326.96,115.72L328.22,115.85L331.99,112.69L333.25,112.82L335.77,110.46L337.02,111.24L339.54,109.14L340.8,109.67L344.57,109.01L345.83,106.38L347.09,106.24L348.34,105.19L349.6,103.74L350.86,104.01L352.12,104.27L353.37,105.46L354.64,106.11L355.89,105.46L357.16,107.43L358.41,106.64L359.67,106.51L360.92,104.93L362.18,104.53L363.44,105.06L365.96,105.32L367.22,59.13L369.73,57.27L370.99,57L373.5,56.34L374.76,55.41L378.54,54.88L379.79,54.62L384.83,53.29L386.08,52.36L388.6,52.09L389.86,52.62L394.89,51.56L396.15,51.43L398.67,51.43L399.92,51.56L420.05,49.57L421.31,49.97L425.08,48.91L426.33,49.04L427.6,49.31L428.85,48.51L436.4,47.85L438.91,47.32L440.17,45.99L442.69,45.59L445.2,45.19L446.46,43.47L447.72,44.66L448.98,43.47L451.5,43.47L452.75,42.81L454.02,42.67L455.27,41.48L459.04,41.21L460.3,39.62L461.56,38.16L462.82,37.9L465.3,35.77L466.55,36.44L469.06,34.98L470.32,35.37L471.58,33.65L472.83,33.38L474.1,32.85L475.35,33.25L476.62,32.99L477.87,30.99L479.13,30.33L480.39,30.86L482.9,30.07L484.16,29.67L485.42,29.54L486.68,28.47L489.19,28.47L490.45,29L492.97,30.6L494.23,28.74L496.75,29.93L498.02,27.94L500.52,28.08L501.78,28.47L505.55,26.62L506.81,27.01L509.32,25.29L510.58,24.23L511.84,21.71L513.11,22.24L514.35,20.78L515.61,22.24L516.87,20.64L518.14,20.38L519.39,20.11L520.65,18.79L524.42,19.32L525.67,18.26L526.94,18.79L528.2,17.19L530.71,17.06L531.97,16L537,16.4" style="vector-effect: non-scaling-stroke; fill: none; stroke: rgb(99, 110, 250); stroke-opacity: 1; stroke-width: 2px; opacity: 1;"/></g><g class="points"/><g class="text"/></g></g></g><g class="overplot"/><path class="xlines-above crisp" d="M0,0" style="fill: none;"/><path class="ylines-above crisp" d="M0,0" style="fill: none;"/><g class="overlines-above"/><g class="xaxislayer-above"><g class="xtick"><text text-anchor="middle" x="0" y="433" transform="translate(84.7,0)" style="font-family: 'Open Sans', verdana, arial, sans-serif; font-size: 12px; fill: rgb(42, 63, 95); fill-opacity: 1; white-space: pre;"><tspan class="line" dy="0em" x="0" y="433">00:00</tspan><tspan class="line" dy="1.3em" x="0" y="433">Aug 3, 2021</tspan></text></g><g class="xtick"><text text-anchor="middle" x="0" y="433" transform="translate(175.28,0)" style="font-family: 'Open Sans', verdana, arial, sans-serif; font-size: 12px; fill: rgb(42, 63, 95); fill-opacity: 1; white-space: pre;">12:00</text></g><g class="xtick"><text text-anchor="middle" x="0" y="433" transform="translate(265.86,0)" style="font-family: 'Open Sans', verdana, arial, sans-serif; font-size: 12px; fill: rgb(42, 63, 95); fill-opacity: 1; white-space: pre;"><tspan class="line" dy="0em" x="0" y="433">00:00</tspan><tspan class="line" dy="1.3em" x="0" y="433">Aug 4, 2021</tspan></text></g><g class="xtick"><text text-anchor="middle" x="0" y="433" transform="translate(356.44,0)" style="font-family: 'Open Sans', verdana, arial, sans-serif; font-size: 12px; fill: rgb(42, 63, 95); fill-opacity: 1; white-space: pre;">12:00</text></g><g class="xtick"><text text-anchor="middle" x="0" y="433" transform="translate(447.02,0)" style="font-family: 'Open Sans', verdana, arial, sans-serif; font-size: 12px; fill: rgb(42, 63, 95); fill-opacity: 1; white-space: pre;"><tspan class="line" dy="0em" x="0" y="433">00:00</tspan><tspan class="line" dy="1.3em" x="0" y="433">Aug 5, 2021</tspan></text></g><g class="xtick"><text text-anchor="middle" x="0" y="433" transform="translate(537.6,0)" style="font-family: 'Open Sans', verdana, arial, sans-serif; font-size: 12px; fill: rgb(42, 63, 95); fill-opacity: 1; white-space: pre;">12:00</text></g></g><g class="yaxislayer-above"><g class="ytick"><text text-anchor="end" x="79" y="4.199999999999999" transform="translate(0,392.45)" style="font-family: 'Open Sans', verdana, arial, sans-serif; font-size: 12px; fill: rgb(42, 63, 95); fill-opacity: 1; white-space: pre;">0.864</text></g><g class="ytick"><text text-anchor="end" x="79" y="4.199999999999999" transform="translate(0,349.28999999999996)" style="font-family: 'Open Sans', verdana, arial, sans-serif; font-size: 12px; fill: rgb(42, 63, 95); fill-opacity: 1; white-space: pre;">0.865</text></g><g class="ytick"><text text-anchor="end" x="79" y="4.199999999999999" transform="translate(0,306.14)" style="font-family: 'Open Sans', verdana, arial, sans-serif; font-size: 12px; fill: rgb(42, 63, 95); fill-opacity: 1; white-space: pre;">0.866</text></g><g class="ytick"><text text-anchor="end" x="79" y="4.199999999999999" transform="translate(0,262.98)" style="font-family: 'Open Sans', verdana, arial, sans-serif; font-size: 12px; fill: rgb(42, 63, 95); fill-opacity: 1; white-space: pre;">0.867</text></g><g class="ytick"><text text-anchor="end" x="79" y="4.199999999999999" transform="translate(0,219.82999999999998)" style="font-family: 'Open Sans', verdana, arial, sans-serif; font-size: 12px; fill: rgb(42, 63, 95); fill-opacity: 1; white-space: pre;">0.868</text></g><g class="ytick"><text text-anchor="end" x="79" y="4.199999999999999" transform="translate(0,176.68)" style="font-family: 'Open Sans', verdana, arial, sans-serif; font-size: 12px; fill: rgb(42, 63, 95); fill-opacity: 1; white-space: pre;">0.869</text></g><g class="ytick"><text text-anchor="end" x="79" y="4.199999999999999" transform="translate(0,133.52)" style="font-family: 'Open Sans', verdana, arial, sans-serif; font-size: 12px; fill: rgb(42, 63, 95); fill-opacity: 1; white-space: pre;">0.87</text></g></g><g class="overaxes-above"/></g></g><g class="polarlayer"/><g class="ternarylayer"/><g class="geolayer"/><g class="funnelarealayer"/><g class="pielayer"/><g class="treemaplayer"/><g class="sunburstlayer"/><g class="glimages"/><defs id="topdefs-b6cd60"><g class="clips"/><clipPath id="legendb6cd60"><rect width="60" height="45" x="0" y="0"/></clipPath></defs><g class="layer-above"><g class="imagelayer"/><g class="shapelayer"/></g><g class="infolayer"><g class="legend" pointer-events="all" transform="translate(627.74,100)"><rect class="bg" shape-rendering="crispEdges" width="60" height="45" x="0" y="0" style="stroke: rgb(68, 68, 68); stroke-opacity: 1; fill: rgb(255, 255, 255); fill-opacity: 1; stroke-width: 0px;"/><g class="scrollbox" transform="" clip-path="url('#legendb6cd60')"><text class="legendtitletext" text-anchor="start" x="2" y="15.600000000000001" style="font-family: 'Open Sans', verdana, arial, sans-serif; font-size: 12px; fill: rgb(42, 63, 95); fill-opacity: 1; white-space: pre;">All</text><g class="groups" transform=""><g class="traces" transform="translate(0,30.1)" style="opacity: 1;"><text class="legendtext" text-anchor="start" x="40" y="4.680000000000001" style="font-family: 'Open Sans', verdana, arial, sans-serif; font-size: 12px; fill: rgb(42, 63, 95); fill-opacity: 1; white-space: pre;">All</text><g class="layers" style="opacity: 1;"><g class="legendfill"/><g class="legendlines"><path class="js-line" d="M5,0h30" style="fill: none; stroke: rgb(99, 110, 250); stroke-opacity: 1; stroke-width: 2px;"/></g><g class="legendsymbols"><g class="legendpoints"/></g></g><rect class="legendtoggle" x="0" y="-9.5" width="54.890625" height="19" style="fill: rgb(0, 0, 0); fill-opacity: 0;"/></g></g></g><rect class="scrollbar" rx="20" ry="3" width="0" height="0" x="0" y="0" style="fill: rgb(128, 139, 164); fill-opacity: 1;"/></g><g class="g-gtitle"><text class="gtitle" x="35" y="50" text-anchor="start" dy="0em" style="font-family: 'Open Sans', verdana, arial, sans-serif; font-size: 17px; fill: rgb(42, 63, 95); opacity: 1; font-weight: normal; white-space: pre;">Singapore Vaccination Centers</text></g><g class="g-xtitle"><text class="xtitle" x="348.5" y="476.409375" text-anchor="middle" style="font-family: 'Open Sans', verdana, arial, sans-serif; font-size: 14px; fill: rgb(42, 63, 95); opacity: 1; font-weight: normal; white-space: pre;">Time</text></g><g class="g-ytitle"><text class="ytitle" transform="rotate(-90,19.840625000000003,260)" x="19.840625000000003" y="260" text-anchor="middle" style="font-family: 'Open Sans', verdana, arial, sans-serif; font-size: 14px; fill: rgb(42, 63, 95); opacity: 1; font-weight: normal; white-space: pre;">Filled/%</text></g></g></svg>