<svg class="main-svg" xmlns="http://www.w3.org/2000/svg" xmlns:xlink="http://www.w3.org/1999/xlink" width="700" height="500" style="" viewBox="0 0 700 500"><rect x="0" y="0" width="700" height="500" style="fill: rgb(255, 255, 255); fill-opacity: 1;"/><defs id="defs-962f86"><g class="clips"><clipPath id="clip962f86xyplot" class="plotclip"><rect width="537" height="320"/></clipPath><clipPath class="axesclip" id="clip962f86x"><rect x="80" y="0" width="537" height="500"/></clipPath><clipPath class="axesclip" id="clip962f86y"><rect x="0" y="100" width="700" height="320"/></clipPath><clipPath class="axesclip" id="clip962f86xy"><rect x="80" y="100" width="537" height="320"/></clipPath></g><g class="gradients"/></defs><g class="bglayer"><rect class="bg" x="80" y="100" width="537" height="320" style="fill: rgb(229, 236, 246); fill-opacity: 1; stroke-width: 0;"/></g><g class="layer-below"><g class="imagelayer"/><g class="shapelayer"/></g><g class="cartesianlayer"><g class="subplot xy"><g class="layer-subplot"><g class="shapelayer"/><g class="imagelayer"/></g><g class="gridlayer"><g class="x"><path class="xgrid crisp" transform="translate(82.29,0)" d="M0,100v320" style="stroke: rgb(255, 255, 255); stroke-opacity: 1; stroke-width: 1px;"/><path class="xgrid crisp" transform="translate(170.37,0)" d="M0,100v320" style="stroke: rgb(255, 255, 255); stroke-opacity: 1; stroke-width: 1px;"/><path class="xgrid crisp" transform="translate(258.45,0)" d="M0,100v320" style="stroke: rgb(255, 255, 255); stroke-opacity: 1; stroke-width: 1px;"/><path class="xgrid crisp" transform="translate(346.54,0)" d="M0,100v320" style="stroke: rgb(255, 255, 255); stroke-opacity: 1; stroke-width: 1px;"/><path class="xgrid crisp" transform="translate(434.62,0)" d="M0,100v320" style="stroke: rgb(255, 255, 255); stroke-opacity: 1; stroke-width: 1px;"/><path class="xgrid crisp" transform="translate(522.7,0)" d="M0,100v320" style="stroke: rgb(255, 255, 255); stroke-opacity: 1; stroke-width: 1px;"/><path class="xgrid crisp" transform="translate(610.79,0)" d="M0,100v320" style="stroke: rgb(255, 255, 255); stroke-opacity: 1; stroke-width: 1px;"/></g><g class="y"><path class="ygrid crisp" transform="translate(0,393.06)" d="M80,0h537" style="stroke: rgb(255, 255, 255); stroke-opacity: 1; stroke-width: 1px;"/><path class="ygrid crisp" transform="translate(0,352.19)" d="M80,0h537" style="stroke: rgb(255, 255, 255); stroke-opacity: 1; stroke-width: 1px;"/><path class="ygrid crisp" transform="translate(0,311.32)" d="M80,0h537" style="stroke: rgb(255, 255, 255); stroke-opacity: 1; stroke-width: 1px;"/><path class="ygrid crisp" transform="translate(0,270.46000000000004)" d="M80,0h537" style="stroke: rgb(255, 255, 255); stroke-opacity: 1; stroke-width: 1px;"/><path class="ygrid crisp" transform="translate(0,229.59)" d="M80,0h537" style="stroke: rgb(255, 255, 255); stroke-opacity: 1; stroke-width: 1px;"/><path class="ygrid crisp" transform="translate(0,188.72)" d="M80,0h537" style="stroke: rgb(255, 255, 255); stroke-opacity: 1; stroke-width: 1px;"/><path class="ygrid crisp" transform="translate(0,147.85)" d="M80,0h537" style="stroke: rgb(255, 255, 255); stroke-opacity: 1; stroke-width: 1px;"/><path class="ygrid crisp" transform="translate(0,106.99)" d="M80,0h537" style="stroke: rgb(255, 255, 255); stroke-opacity: 1; stroke-width: 1px;"/></g></g><g class="zerolinelayer"/><path class="xlines-below"/><path class="ylines-below"/><g class="overlines-below"/><g class="xaxislayer-below"/><g class="yaxislayer-below"/><g class="overaxes-below"/><g class="plot" transform="translate(80,100)" clip-path="url('#clip962f86xyplot')"><g class="scatterlayer mlayer"><g class="trace scatter trace42c9fb" style="stroke-miterlimit: 2; opacity: 1;"><g class="fills"/><g class="errorbars"/><g class="lines"><path class="js-line" d="M0,304L1.76,302.65L2.38,252.17L2.99,253.4L3.6,251.8L6.04,251.18L6.66,250.81L7.88,251.55L8.49,250.69L9.72,251.06L10.33,250.69L11.55,250.44L12.16,250.19L13.38,249.94L14,249.7L21.95,249.33L22.56,248.83L26.84,247.72L27.45,247.1L28.68,247.23L29.29,246.36L30.51,247.23L31.13,245.74L32.96,244.88L33.57,245.37L34.18,245L34.79,245.87L36.02,243.02L36.63,243.52L37.24,243.52L37.85,242.65L40.91,239.93L41.52,240.92L42.13,241.17L42.75,240.06L43.36,238.08L43.97,238.57L44.58,239.56L46.42,235.86L47.03,235.49L48.25,233.88L48.86,234.37L50.08,233.26L50.7,233.51L51.31,234.99L51.92,232.89L54.37,233.51L54.98,231.53L56.2,229.55L56.82,230.3L58.04,229.18L58.65,230.79L59.26,230.54L59.87,229.06L62.32,224.86L62.93,222.26L63.54,222.88L64.15,221.52L64.77,220.53L65.38,221.27L66.6,221.52L67.21,222.51L70.27,220.29L70.88,220.04L73.33,218.8L73.94,219.92L74.55,219.92L75.16,218.43L77.62,216.95L78.22,216.83L80.06,215.96L80.67,215.84L81.89,215.96L82.51,215.59L84.34,215.47L84.95,214.6L86.79,212.01L87.4,211.27L88.62,212.25L89.23,211.76L89.85,212.25L90.46,149.5L92.91,147.75L93.52,147.63L95.35,146.13L95.96,146.51L99.63,145.76L100.25,145.38L105.14,144.76L105.75,145.13L110.03,145.38L110.64,145.38L114.92,144.64L115.54,143.64L117.98,143.76L118.6,143.27L119.82,143.39L120.43,142.77L122.26,142.77L122.88,141.77L124.71,139.9L125.32,140.9L127.16,139.28L127.77,139.9L130.22,136.29L130.83,137.91L133.27,135.04L133.89,135.91L135.11,134.42L135.72,135.54L136.33,136.54L136.94,135.66L137.56,136.66L138.17,136.16L138.78,135.29L139.39,136.29L140.61,136.04L141.23,136.41L142.45,136.66L143.06,136.29L145.52,132.8L146.13,132.92L147.35,133.92L147.97,132.05L150.41,131.18L151.03,129.56L153.47,130.06L154.08,128.81L154.69,126.69L155.31,128.19L155.92,128.19L156.53,127.07L157.14,127.94L157.75,127.44L158.98,125.7L159.59,125.82L161.42,122.83L162.03,122.95L163.26,120.71L163.87,121.46L165.09,119.46L165.71,119.96L167.54,119.34L168.15,116.85L168.76,116.72L169.37,115.73L170.6,114.6L171.21,114.85L172.44,116.6L173.04,115.98L173.66,117.84L174.27,117.1L174.88,116.97L175.49,115.48L176.1,115.1L176.72,115.6L177.94,115.85L178.55,72.1L180.38,70.09L180.99,69.84L186.5,66.7L187.11,66.57L188.34,65.44L188.95,65.44L190.17,65.57L190.78,64.94L193.84,64.81L194.45,64.94L204.24,63.05L204.85,63.43L206.69,62.43L207.29,62.55L207.91,62.8L208.52,62.05L212.19,61.42L213.41,60.92L214.02,59.66L215.25,59.28L216.47,58.91L217.08,57.27L217.69,58.4L218.31,57.27L219.53,57.27L220.14,56.64L220.75,56.52L221.36,55.39L223.2,55.14L223.81,53.63L226.24,49.98L226.85,50.61L228.68,49.61L229.3,47.97L231.74,47.35L232.35,45.46L232.97,44.83L233.58,45.33L234.8,44.58L235.41,44.2L236.03,44.08L236.64,43.07L237.86,43.07L238.47,43.58L239.69,45.08L240.31,43.32L241.53,44.46L242.15,42.57L243.37,42.7L243.98,43.07L245.81,41.31L246.43,41.69L247.65,40.06L248.26,39.05L248.87,36.66L249.49,37.17L250.09,35.78L250.71,37.17L251.32,35.66L252.54,35.16L253.15,33.9L254.99,34.4L255.6,33.4L256.21,33.9L256.82,32.39L258.05,32.27L258.66,31.26L261.1,31.64L261.71,30.76L262.94,30.63L263.55,30.76L264.78,28.87L265.38,29.5L266,29.25L266.61,177.71L269.67,177.32L270.28,177.98L272.12,176.93L272.73,176.93L273.95,175.76L274.56,175.76L276.4,175.11L277.01,175.11L281.29,174.71L281.91,174.71L286.18,174.45L286.8,174.45L289.24,173.54L289.86,173.8L293.52,173.02L294.13,172.89L296.58,171.19L297.19,170.67L299.03,170.28L299.64,168.98L302.11,168.71L302.72,169.89L303.94,168.06L304.55,167.93L305.17,167.28L305.78,164.93L306.39,163.11L307,163.37L307.61,162.71L308.22,161.02L308.84,161.54L310.06,161.15L310.67,161.02L312.51,159.45L313.12,160.37L314.95,157.76L315.56,158.67L317.4,156.06L318.01,156.06L318.62,155.28L319.24,156.32L320.46,157.24L321.07,156.32L321.68,156.45L322.3,155.67L325.36,151.63L325.96,151.11L327.19,150.71L327.8,152.15L331.47,149.15L332.08,150.85L333.31,130.11L333.92,129.72L335.14,129.06L335.75,124.5L336.36,124.63L336.97,120.85L337.59,121.11L338.2,118.63L338.81,115.76L339.42,116.67L341.26,110.28L341.87,107.28L343.09,106.76L343.71,104.67L344.32,104.15L344.93,101.54L346.15,98.93L346.76,98.93L348.6,95.41L349.21,94.5L354.1,85.24L354.72,98.08L357.78,93.87L358.39,94.26L359,94.13L359.61,94.92L360.83,94.52L361.45,95.18L363.28,94.26L363.89,94.39L365.12,93.87L365.73,94L372.45,93.34L373.07,93.21L382.85,93.21L383.47,93.73L386.52,89.92L387.13,90.18L388.97,88.87L389.58,89L390.19,88.6L390.8,87.03L392.02,87.29L392.64,85.84L395.7,82.82L396.31,83.21L398.14,79.92L398.75,79.53L400.59,77.03L401.2,77.03L402.43,74.53L403.03,74.53L404.26,72.69L404.87,70.58L407.32,65.58L407.93,65.19L408.54,64.79L409.15,62.69L411.6,60.85L412.21,59.27L415.89,58.35L416.49,57.29L417.11,57.69L417.72,57.03L418.33,57.43L423.22,52.95L426.28,50.45L426.9,51.11L429.34,47.95L429.95,47.82L430.57,46.51L431.18,47.03L432.4,45.98L433.01,46.24L433.62,47.3L434.23,46.37L436.68,45.06L437.3,45.98L439.74,45.32L440.35,44.27L442.19,42.03L442.8,91.22L444.02,91.62L444.64,90.55L445.24,89.88L445.86,90.41L447.69,90.41L448.3,91.35L450.75,91.08L451.36,91.22L453.2,91.35L453.81,91.35L456.87,89.88L457.48,90.28L463.6,89.61L464.21,89.61L470.94,89.34L471.55,89.21L474.61,88.8L475.22,88.4L476.44,87.87L477.05,86.93L478.28,86.53L478.89,85.19L479.5,83.85L480.11,85.19L482.56,84.25L483.17,84.25L484.39,82.24L485.01,81.97L486.84,79.16L487.45,79.02L489.29,78.62L489.9,77.82L491.12,77.15L491.73,77.28L492.96,75.81L493.57,75.14L496.02,74.2L496.63,74.6L497.24,74.06L497.85,74.73L499.07,71.38L499.69,71.65L500.3,71.65L502.13,71.12L502.75,69.91L505.8,67.5L506.41,67.77L510.09,65.35L510.7,64.42L511.31,64.82L511.92,64.01L513.15,64.15L513.75,64.01L514.98,63.21L515.59,62.41L517.42,61.33L518.04,59.86L520.48,58.39L521.1,56.64L522.32,54.77L522.93,55.44L525.99,53.56L526.6,53.56L527.82,52.22L528.44,52.22L530.27,52.22L530.88,19.51L535.78,16L536.39,16.14L537,16.14" style="vector-effect: non-scaling-stroke; fill: none; stroke: rgb(99, 110, 250); stroke-opacity: 1; stroke-width: 2px; opacity: 1;"/></g><g class="points"/><g class="text"/></g></g></g><g class="overplot"/><path class="xlines-above crisp" d="M0,0" style="fill: none;"/><path class="ylines-above crisp" d="M0,0" style="fill: none;"/><g class="overlines-above"/><g class="xaxislayer-above"><g class="xtick"><text text-anchor="middle" x="0" y="433" transform="translate(82.29,0)" style="font-family: 'Open Sans', verdana, arial, sans-serif; font-size: 12px; fill: rgb(42, 63, 95); fill-opacity: 1; white-space: pre;"><tspan class="line" dy="0em" x="0" y="433">Aug 3</tspan><tspan class="line" dy="1.3em" x="0" y="433">2021</tspan></text></g><g class="xtick"><text text-anchor="middle" x="0" y="433" transform="translate(170.37,0)" style="font-family: 'Open Sans', verdana, arial, sans-serif; font-size: 12px; fill: rgb(42, 63, 95); fill-opacity: 1; white-space: pre;">Aug 4</text></g><g class="xtick"><text text-anchor="middle" x="0" y="433" transform="translate(258.45,0)" style="font-family: 'Open Sans', verdana, arial, sans-serif; font-size: 12px; fill: rgb(42, 63, 95); fill-opacity: 1; white-space: pre;">Aug 5</text></g><g class="xtick"><text text-anchor="middle" x="0" y="433" transform="translate(346.54,0)" style="font-family: 'Open Sans', verdana, arial, sans-serif; font-size: 12px; fill: rgb(42, 63, 95); fill-opacity: 1; white-space: pre;">Aug 6</text></g><g class="xtick"><text text-anchor="middle" x="0" y="433" transform="translate(434.62,0)" style="font-family: 'Open Sans', verdana, arial, sans-serif; font-size: 12px; fill: rgb(42, 63, 95); fill-opacity: 1; white-space: pre;">Aug 7</text></g><g class="xtick"><text text-anchor="middle" x="0" y="433" transform="translate(522.7,0)" style="font-family: 'Open Sans', verdana, arial, sans-serif; font-size: 12px; fill: rgb(42, 63, 95); fill-opacity: 1; white-space: pre;">Aug 8</text></g><g class="xtick"><text text-anchor="middle" x="0" y="433" transform="translate(610.79,0)" style="font-family: 'Open Sans', verdana, arial, sans-serif; font-size: 12px; fill: rgb(42, 63, 95); fill-opacity: 1; white-space: pre;">Aug 9</text></g></g><g class="yaxislayer-above"><g class="ytick"><text text-anchor="end" x="79" y="4.199999999999999" transform="translate(0,393.06)" style="font-family: 'Open Sans', verdana, arial, sans-serif; font-size: 12px; fill: rgb(42, 63, 95); fill-opacity: 1; white-space: pre;">0.864</text></g><g class="ytick"><text text-anchor="end" x="79" y="4.199999999999999" transform="translate(0,352.19)" style="font-family: 'Open Sans', verdana, arial, sans-serif; font-size: 12px; fill: rgb(42, 63, 95); fill-opacity: 1; white-space: pre;">0.865</text></g><g class="ytick"><text text-anchor="end" x="79" y="4.199999999999999" transform="translate(0,311.32)" style="font-family: 'Open Sans', verdana, arial, sans-serif; font-size: 12px; fill: rgb(42, 63, 95); fill-opacity: 1; white-space: pre;">0.866</text></g><g class="ytick"><text text-anchor="end" x="79" y="4.199999999999999" transform="translate(0,270.46000000000004)" style="font-family: 'Open Sans', verdana, arial, sans-serif; font-size: 12px; fill: rgb(42, 63, 95); fill-opacity: 1; white-space: pre;">0.867</text></g><g class="ytick"><text text-anchor="end" x="79" y="4.199999999999999" transform="translate(0,229.59)" style="font-family: 'Open Sans', verdana, arial, sans-serif; font-size: 12px; fill: rgb(42, 63, 95); fill-opacity: 1; white-space: pre;">0.868</text></g><g class="ytick"><text text-anchor="end" x="79" y="4.199999999999999" transform="translate(0,188.72)" style="font-family: 'Open Sans', verdana, arial, sans-serif; font-size: 12px; fill: rgb(42, 63, 95); fill-opacity: 1; white-space: pre;">0.869</text></g><g class="ytick"><text text-anchor="end" x="79" y="4.199999999999999" transform="translate(0,147.85)" style="font-family: 'Open Sans', verdana, arial, sans-serif; font-size: 12px; fill: rgb(42, 63, 95); fill-opacity: 1; white-space: pre;">0.87</text></g><g class="ytick"><text text-anchor="end" x="79" y="4.199999999999999" transform="translate(0,106.99)" style="font-family: 'Open Sans', verdana, arial, sans-serif; font-size: 12px; fill: rgb(42, 63, 95); fill-opacity: 1; white-space: pre;">0.871</text></g></g><g class="overaxes-above"/></g></g><g class="polarlayer"/><g class="ternarylayer"/><g class="geolayer"/><g class="funnelarealayer"/><g class="pielayer"/><g class="treemaplayer"/><g class="sunburstlayer"/><g class="glimages"/><defs id="topdefs-962f86"><g class="clips"/><clipPath id="legend962f86"><rect width="60" height="45" x="0" y="0"/></clipPath></defs><g class="layer-above"><g class="imagelayer"/><g class="shapelayer"/></g><g class="infolayer"><g class="legend" pointer-events="all" transform="translate(627.74,100)"><rect class="bg" shape-rendering="crispEdges" width="60" height="45" x="0" y="0" style="stroke: rgb(68, 68, 68); stroke-opacity: 1; fill: rgb(255, 255, 255); fill-opacity: 1; stroke-width: 0px;"/><g class="scrollbox" transform="" clip-path="url('#legend962f86')"><text class="legendtitletext" text-anchor="start" x="2" y="15.600000000000001" style="font-family: 'Open Sans', verdana, arial, sans-serif; font-size: 12px; fill: rgb(42, 63, 95); fill-opacity: 1; white-space: pre;">All</text><g class="groups" transform=""><g class="traces" transform="translate(0,30.1)" style="opacity: 1;"><text class="legendtext" text-anchor="start" x="40" y="4.680000000000001" style="font-family: 'Open Sans', verdana, arial, sans-serif; font-size: 12px; fill: rgb(42, 63, 95); fill-opacity: 1; white-space: pre;">All</text><g class="layers" style="opacity: 1;"><g class="legendfill"/><g class="legendlines"><path class="js-line" d="M5,0h30" style="fill: none; stroke: rgb(99, 110, 250); stroke-opacity: 1; stroke-width: 2px;"/></g><g class="legendsymbols"><g class="legendpoints"/></g></g><rect class="legendtoggle" x="0" y="-9.5" width="54.890625" height="19" style="fill: rgb(0, 0, 0); fill-opacity: 0;"/></g></g></g><rect class="scrollbar" rx="20" ry="3" width="0" height="0" x="0" y="0" style="fill: rgb(128, 139, 164); fill-opacity: 1;"/></g><g class="g-gtitle"><text class="gtitle" x="35" y="50" text-anchor="start" dy="0em" style="font-family: 'Open Sans', verdana, arial, sans-serif; font-size: 17px; fill: rgb(42, 63, 95); opacity: 1; font-weight: normal; white-space: pre;">Singapore Vaccination Centers</text></g><g class="g-xtitle"><text class="xtitle" x="348.5" y="476.409375" text-anchor="middle" style="font-family: 'Open Sans', verdana, arial, sans-serif; font-size: 14px; fill: rgb(42, 63, 95); opacity: 1; font-weight: normal; white-space: pre;">Time</text></g><g class="g-ytitle"><text class="ytitle" transform="rotate(-90,19.840625000000003,260)" x="19.840625000000003" y="260" text-anchor="middle" style="font-family: 'Open Sans', verdana, arial, sans-serif; font-size: 14px; fill: rgb(42, 63, 95); opacity: 1; font-weight: normal; white-space: pre;">Filled/%</text></g></g></svg>