<svg class="main-svg" xmlns="http://www.w3.org/2000/svg" xmlns:xlink="http://www.w3.org/1999/xlink" width="700" height="500" style="" viewBox="0 0 700 500"><rect x="0" y="0" width="700" height="500" style="fill: rgb(255, 255, 255); fill-opacity: 1;"/><defs id="defs-bb3e64"><g class="clips"><clipPath id="clipbb3e64xyplot" class="plotclip"><rect width="537" height="320"/></clipPath><clipPath class="axesclip" id="clipbb3e64x"><rect x="80" y="0" width="537" height="500"/></clipPath><clipPath class="axesclip" id="clipbb3e64y"><rect x="0" y="100" width="700" height="320"/></clipPath><clipPath class="axesclip" id="clipbb3e64xy"><rect x="80" y="100" width="537" height="320"/></clipPath></g><g class="gradients"/></defs><g class="bglayer"><rect class="bg" x="80" y="100" width="537" height="320" style="fill: rgb(229, 236, 246); fill-opacity: 1; stroke-width: 0;"/></g><g class="layer-below"><g class="imagelayer"/><g class="shapelayer"/></g><g class="cartesianlayer"><g class="subplot xy"><g class="layer-subplot"><g class="shapelayer"/><g class="imagelayer"/></g><g class="gridlayer"><g class="x"><path class="xgrid crisp" transform="translate(82.73,0)" d="M0,100v320" style="stroke: rgb(255, 255, 255); stroke-opacity: 1; stroke-width: 1px;"/><path class="xgrid crisp" transform="translate(187.81,0)" d="M0,100v320" style="stroke: rgb(255, 255, 255); stroke-opacity: 1; stroke-width: 1px;"/><path class="xgrid crisp" transform="translate(292.89,0)" d="M0,100v320" style="stroke: rgb(255, 255, 255); stroke-opacity: 1; stroke-width: 1px;"/><path class="xgrid crisp" transform="translate(397.97,0)" d="M0,100v320" style="stroke: rgb(255, 255, 255); stroke-opacity: 1; stroke-width: 1px;"/><path class="xgrid crisp" transform="translate(503.05,0)" d="M0,100v320" style="stroke: rgb(255, 255, 255); stroke-opacity: 1; stroke-width: 1px;"/><path class="xgrid crisp" transform="translate(608.13,0)" d="M0,100v320" style="stroke: rgb(255, 255, 255); stroke-opacity: 1; stroke-width: 1px;"/></g><g class="y"><path class="ygrid crisp" transform="translate(0,392.55)" d="M80,0h537" style="stroke: rgb(255, 255, 255); stroke-opacity: 1; stroke-width: 1px;"/><path class="ygrid crisp" transform="translate(0,349.77)" d="M80,0h537" style="stroke: rgb(255, 255, 255); stroke-opacity: 1; stroke-width: 1px;"/><path class="ygrid crisp" transform="translate(0,306.99)" d="M80,0h537" style="stroke: rgb(255, 255, 255); stroke-opacity: 1; stroke-width: 1px;"/><path class="ygrid crisp" transform="translate(0,264.21000000000004)" d="M80,0h537" style="stroke: rgb(255, 255, 255); stroke-opacity: 1; stroke-width: 1px;"/><path class="ygrid crisp" transform="translate(0,221.43)" d="M80,0h537" style="stroke: rgb(255, 255, 255); stroke-opacity: 1; stroke-width: 1px;"/><path class="ygrid crisp" transform="translate(0,178.65)" d="M80,0h537" style="stroke: rgb(255, 255, 255); stroke-opacity: 1; stroke-width: 1px;"/><path class="ygrid crisp" transform="translate(0,135.87)" d="M80,0h537" style="stroke: rgb(255, 255, 255); stroke-opacity: 1; stroke-width: 1px;"/></g></g><g class="zerolinelayer"/><path class="xlines-below"/><path class="ylines-below"/><g class="overlines-below"/><g class="xaxislayer-below"/><g class="yaxislayer-below"/><g class="overaxes-below"/><g class="plot" transform="translate(80,100)" clip-path="url('#clipbb3e64xyplot')"><g class="scatterlayer mlayer"><g class="trace scatter tracef44f41" style="stroke-miterlimit: 2; opacity: 1;"><g class="fills"/><g class="errorbars"/><g class="lines"><path class="js-line" d="M0,304L2.1,302.59L2.83,249.74L3.56,251.04L4.29,249.35L7.21,248.71L7.94,248.32L9.4,249.1L10.13,248.19L11.59,248.58L12.32,248.19L13.78,247.93L14.51,247.67L15.97,247.41L16.7,247.16L22.54,246.77L23.27,246.51L27.65,246.12L28.37,245.73L29.83,245.86L30.56,245.22L32.02,245.09L32.75,244.44L34.21,244.57L34.94,243.66L36.4,244.57L37.13,243.02L39.32,242.11L40.05,242.63L40.78,242.24L41.51,243.15L42.97,240.17L43.7,240.69L44.42,240.69L45.16,239.78L48.08,237.84L48.81,236.94L50.26,238.23L51,237.07L51.72,235L52.45,235.51L53.18,236.55L53.91,235L55.37,232.67L56.1,232.28L57.56,230.6L58.29,231.12L59.75,229.95L60.48,230.21L61.21,231.76L61.94,229.56L64.13,230.6L64.86,230.21L67.05,226.07L67.78,226.85L69.24,225.68L69.97,227.36L70.7,227.11L71.43,225.55L74.35,221.16L75.07,218.44L75.81,219.09L76.53,217.66L77.27,216.63L77.99,217.4L79.45,217.66L80.18,218.7L83.11,216.5L83.83,216.37L85.29,215.72L86.02,214.69L86.75,214.3L87.48,214.82L88.94,215.98L89.67,214.43L91.86,213.39L92.59,212.88L94.05,212.23L94.78,211.45L96.97,212.23L97.69,211.84L99.16,211.58L99.89,211.84L101.34,210.42L102.08,208.87L103.54,207.7L104.27,206.93L105.72,207.96L106.45,207.44L107.18,207.96L107.91,142.27L110.1,140.18L110.83,140.44L112.29,139.92L113.02,139.01L114.48,139.14L115.21,139.14L118.13,138.48L118.86,138.35L121.05,137.83L121.78,137.96L128.34,137.96L129.08,138.09L134.18,137.83L134.91,137.18L137.1,137.18L137.83,136.14L140.75,136.27L141.48,135.74L142.94,135.88L143.67,135.22L145.13,134.57L145.86,135.22L148.77,132.22L149.51,133.27L151.7,131.57L152.43,132.22L155.34,128.44L156.07,130.14L158.99,127.14L159.72,128.05L161.18,126.48L161.91,127.66L162.64,128.7L163.37,127.79L164.1,128.83L164.83,128.31L165.56,127.4L166.29,128.44L167.02,127.79L167.75,128.18L169.94,128.83L170.67,128.44L173.6,124.79L174.32,124.92L175.79,125.96L176.52,124.01L179.44,123.09L180.17,121.4L183.08,121.92L183.81,120.61L184.54,118.4L185.27,119.96L186.01,119.96L186.73,118.79L187.46,119.7L188.19,119.18L189.65,117.35L190.38,117.48L192.57,114.35L193.3,114.48L194.76,112.14L195.49,112.92L196.95,110.83L197.68,111.35L199.87,110.7L200.6,108.09L201.33,107.96L202.05,106.92L202.79,105.48L203.52,105.74L204.25,106L204.98,107.18L205.71,107.83L206.44,107.18L207.17,109.13L207.9,108.35L208.63,108.22L209.35,106.66L210.08,106.27L210.81,106.79L212.27,107.05L213,61.25L214.46,59.41L215.19,59.15L217.38,57.57L218.11,57.17L219.57,57.04L220.3,56.78L223.22,55.46L223.95,54.54L225.41,54.28L226.14,54.81L229.06,53.75L229.79,53.62L231.25,53.62L231.98,53.75L243.65,51.78L244.38,52.18L246.57,51.12L247.29,51.25L248.03,51.52L248.75,50.73L253.13,50.07L254.59,49.54L255.32,48.23L256.78,47.83L258.24,47.44L258.97,45.73L259.7,46.91L260.43,45.73L261.89,45.73L262.62,45.07L263.35,44.94L264.08,43.76L266.27,43.49L267,41.91L268.46,40.2L269.19,39.42L269.9,38.1L270.62,38.76L272.81,37.71L273.54,36L276.46,35.34L277.19,33.36L277.92,32.71L278.65,33.23L280.11,32.44L280.84,32.05L281.57,31.92L282.3,30.86L283.76,30.86L284.48,31.39L285.95,32.97L286.68,31.13L288.14,32.31L288.88,30.34L290.33,30.47L291.06,30.86L293.25,29.02L293.98,29.42L295.43,27.71L296.16,26.66L296.9,24.16L297.63,24.68L298.35,23.24L299.08,24.68L300.54,22.84L301.27,22.58L302,21.26L302.73,21.66L304.19,21.79L304.92,20.74L305.65,21.26L306.38,19.68L307.84,19.55L308.57,18.5L311.49,18.89L312.22,17.97L313.68,17.84L314.41,17.97L315.87,16L316.59,16.66L317.33,16.39L318.06,171.81L321.71,171.4L322.44,172.08L324.63,170.99L325.36,170.99L326.82,169.76L327.54,169.76L329,168.94L329.73,169.08L342.14,168.39L342.87,167.98L352.35,165.8L353.08,165.12L356.73,164.02L357.46,162.66L360.4,162.38L361.13,163.61L362.59,161.7L363.32,161.57L364.05,160.88L364.78,158.43L365.51,156.51L366.24,156.79L366.97,156.1L367.7,154.33L368.43,154.88L369.16,154.19L370.62,154.33L371.35,153.37L372.81,152.69L373.54,153.65L375.73,150.92L376.46,151.87L378.65,149.14L379.38,149.14L380.1,148.32L380.84,149.41L382.3,150.37L383.03,149.41L383.75,149.55L384.49,148.73L387.41,145.18L388.14,144.5L390.32,143.54L391.05,145.04L395.43,141.9L396.16,143.68L397.62,121.97L398.35,121.56L399.81,120.88L400.54,116.1L401.27,116.24L402,112.28L402.73,112.55L403.46,109.96L404.19,106.95L404.92,107.91L407.1,101.22L407.84,98.08L409.3,97.53L410.03,95.35L410.76,94.8L411.49,92.07L412.95,89.34L413.67,89.34L415.86,85.65L416.6,84.7L418.05,82.78L418.78,80.19L422.43,75L423.16,88.44L426.81,84.03L427.54,84.45L428.27,84.31L429,85.14L430.46,84.72L431.19,85.41L432.65,84.59L433.37,84.45L434.84,84.03L435.57,84.03L437.03,84.17L437.76,83.62L442.87,84.03L443.6,83.62L447.98,83.21L448.7,83.48L451.62,83.48L452.35,83.35L453.81,83.35L454.54,83.35L456.73,83.35L457.46,83.9L461.1,79.9L461.83,80.18L464.03,78.8L464.75,78.94L465.49,78.53L466.21,76.87L467.67,77.15L468.4,75.63L472.05,72.47L472.78,72.88L474.97,69.44L475.7,69.02L477.89,66.41L478.62,66.41L480.08,63.79L480.81,63.79L482.27,61.86L483,59.66L485.19,54.29L485.92,54.43L487.38,53.6L488.11,51.4L491.03,49.47L491.75,47.82L496.14,46.85L496.86,45.75L497.59,46.16L498.32,45.48L499.05,45.89L504.89,41.21L508.54,38.59L509.27,39.28L512.19,35.97L512.92,35.84L513.65,34.46L514.38,35.01L515.84,33.91L516.57,34.18L517.3,35.28L518.03,34.32L520.95,32.94L521.68,33.91L524.59,33.22L525.32,32.12L527.51,29.78L528.24,81.26L529.7,81.68L530.43,80.56L531.16,79.86L531.89,80.42L534.08,80.42L534.81,81.4L537,81.12" style="vector-effect: non-scaling-stroke; fill: none; stroke: rgb(99, 110, 250); stroke-opacity: 1; stroke-width: 2px; opacity: 1;"/></g><g class="points"/><g class="text"/></g></g></g><g class="overplot"/><path class="xlines-above crisp" d="M0,0" style="fill: none;"/><path class="ylines-above crisp" d="M0,0" style="fill: none;"/><g class="overlines-above"/><g class="xaxislayer-above"><g class="xtick"><text text-anchor="middle" x="0" y="433" transform="translate(82.73,0)" style="font-family: 'Open Sans', verdana, arial, sans-serif; font-size: 12px; fill: rgb(42, 63, 95); fill-opacity: 1; white-space: pre;"><tspan class="line" dy="0em" x="0" y="433">Aug 3</tspan><tspan class="line" dy="1.3em" x="0" y="433">2021</tspan></text></g><g class="xtick"><text text-anchor="middle" x="0" y="433" transform="translate(187.81,0)" style="font-family: 'Open Sans', verdana, arial, sans-serif; font-size: 12px; fill: rgb(42, 63, 95); fill-opacity: 1; white-space: pre;">Aug 4</text></g><g class="xtick"><text text-anchor="middle" x="0" y="433" transform="translate(292.89,0)" style="font-family: 'Open Sans', verdana, arial, sans-serif; font-size: 12px; fill: rgb(42, 63, 95); fill-opacity: 1; white-space: pre;">Aug 5</text></g><g class="xtick"><text text-anchor="middle" x="0" y="433" transform="translate(397.97,0)" style="font-family: 'Open Sans', verdana, arial, sans-serif; font-size: 12px; fill: rgb(42, 63, 95); fill-opacity: 1; white-space: pre;">Aug 6</text></g><g class="xtick"><text text-anchor="middle" x="0" y="433" transform="translate(503.05,0)" style="font-family: 'Open Sans', verdana, arial, sans-serif; font-size: 12px; fill: rgb(42, 63, 95); fill-opacity: 1; white-space: pre;">Aug 7</text></g><g class="xtick"><text text-anchor="middle" x="0" y="433" transform="translate(608.13,0)" style="font-family: 'Open Sans', verdana, arial, sans-serif; font-size: 12px; fill: rgb(42, 63, 95); fill-opacity: 1; white-space: pre;">Aug 8</text></g></g><g class="yaxislayer-above"><g class="ytick"><text text-anchor="end" x="79" y="4.199999999999999" transform="translate(0,392.55)" style="font-family: 'Open Sans', verdana, arial, sans-serif; font-size: 12px; fill: rgb(42, 63, 95); fill-opacity: 1; white-space: pre;">0.864</text></g><g class="ytick"><text text-anchor="end" x="79" y="4.199999999999999" transform="translate(0,349.77)" style="font-family: 'Open Sans', verdana, arial, sans-serif; font-size: 12px; fill: rgb(42, 63, 95); fill-opacity: 1; white-space: pre;">0.865</text></g><g class="ytick"><text text-anchor="end" x="79" y="4.199999999999999" transform="translate(0,306.99)" style="font-family: 'Open Sans', verdana, arial, sans-serif; font-size: 12px; fill: rgb(42, 63, 95); fill-opacity: 1; white-space: pre;">0.866</text></g><g class="ytick"><text text-anchor="end" x="79" y="4.199999999999999" transform="translate(0,264.21000000000004)" style="font-family: 'Open Sans', verdana, arial, sans-serif; font-size: 12px; fill: rgb(42, 63, 95); fill-opacity: 1; white-space: pre;">0.867</text></g><g class="ytick"><text text-anchor="end" x="79" y="4.199999999999999" transform="translate(0,221.43)" style="font-family: 'Open Sans', verdana, arial, sans-serif; font-size: 12px; fill: rgb(42, 63, 95); fill-opacity: 1; white-space: pre;">0.868</text></g><g class="ytick"><text text-anchor="end" x="79" y="4.199999999999999" transform="translate(0,178.65)" style="font-family: 'Open Sans', verdana, arial, sans-serif; font-size: 12px; fill: rgb(42, 63, 95); fill-opacity: 1; white-space: pre;">0.869</text></g><g class="ytick"><text text-anchor="end" x="79" y="4.199999999999999" transform="translate(0,135.87)" style="font-family: 'Open Sans', verdana, arial, sans-serif; font-size: 12px; fill: rgb(42, 63, 95); fill-opacity: 1; white-space: pre;">0.87</text></g></g><g class="overaxes-above"/></g></g><g class="polarlayer"/><g class="ternarylayer"/><g class="geolayer"/><g class="funnelarealayer"/><g class="pielayer"/><g class="treemaplayer"/><g class="sunburstlayer"/><g class="glimages"/><defs id="topdefs-bb3e64"><g class="clips"/><clipPath id="legendbb3e64"><rect width="60" height="45" x="0" y="0"/></clipPath></defs><g class="layer-above"><g class="imagelayer"/><g class="shapelayer"/></g><g class="infolayer"><g class="legend" pointer-events="all" transform="translate(627.74,100)"><rect class="bg" shape-rendering="crispEdges" width="60" height="45" x="0" y="0" style="stroke: rgb(68, 68, 68); stroke-opacity: 1; fill: rgb(255, 255, 255); fill-opacity: 1; stroke-width: 0px;"/><g class="scrollbox" transform="" clip-path="url('#legendbb3e64')"><text class="legendtitletext" text-anchor="start" x="2" y="15.600000000000001" style="font-family: 'Open Sans', verdana, arial, sans-serif; font-size: 12px; fill: rgb(42, 63, 95); fill-opacity: 1; white-space: pre;">All</text><g class="groups" transform=""><g class="traces" transform="translate(0,30.1)" style="opacity: 1;"><text class="legendtext" text-anchor="start" x="40" y="4.680000000000001" style="font-family: 'Open Sans', verdana, arial, sans-serif; font-size: 12px; fill: rgb(42, 63, 95); fill-opacity: 1; white-space: pre;">All</text><g class="layers" style="opacity: 1;"><g class="legendfill"/><g class="legendlines"><path class="js-line" d="M5,0h30" style="fill: none; stroke: rgb(99, 110, 250); stroke-opacity: 1; stroke-width: 2px;"/></g><g class="legendsymbols"><g class="legendpoints"/></g></g><rect class="legendtoggle" x="0" y="-9.5" width="54.890625" height="19" style="fill: rgb(0, 0, 0); fill-opacity: 0;"/></g></g></g><rect class="scrollbar" rx="20" ry="3" width="0" height="0" x="0" y="0" style="fill: rgb(128, 139, 164); fill-opacity: 1;"/></g><g class="g-gtitle"><text class="gtitle" x="35" y="50" text-anchor="start" dy="0em" style="font-family: 'Open Sans', verdana, arial, sans-serif; font-size: 17px; fill: rgb(42, 63, 95); opacity: 1; font-weight: normal; white-space: pre;">Singapore Vaccination Centers</text></g><g class="g-xtitle"><text class="xtitle" x="348.5" y="476.409375" text-anchor="middle" style="font-family: 'Open Sans', verdana, arial, sans-serif; font-size: 14px; fill: rgb(42, 63, 95); opacity: 1; font-weight: normal; white-space: pre;">Time</text></g><g class="g-ytitle"><text class="ytitle" transform="rotate(-90,19.840625000000003,260)" x="19.840625000000003" y="260" text-anchor="middle" style="font-family: 'Open Sans', verdana, arial, sans-serif; font-size: 14px; fill: rgb(42, 63, 95); opacity: 1; font-weight: normal; white-space: pre;">Filled/%</text></g></g></svg>