<svg class="main-svg" xmlns="http://www.w3.org/2000/svg" xmlns:xlink="http://www.w3.org/1999/xlink" width="700" height="500" style="" viewBox="0 0 700 500"><rect x="0" y="0" width="700" height="500" style="fill: rgb(255, 255, 255); fill-opacity: 1;"/><defs id="defs-eaddd1"><g class="clips"><clipPath id="clipeaddd1xyplot" class="plotclip"><rect width="537" height="320"/></clipPath><clipPath class="axesclip" id="clipeaddd1x"><rect x="80" y="0" width="537" height="500"/></clipPath><clipPath class="axesclip" id="clipeaddd1y"><rect x="0" y="100" width="700" height="320"/></clipPath><clipPath class="axesclip" id="clipeaddd1xy"><rect x="80" y="100" width="537" height="320"/></clipPath></g><g class="gradients"/></defs><g class="bglayer"><rect class="bg" x="80" y="100" width="537" height="320" style="fill: rgb(229, 236, 246); fill-opacity: 1; stroke-width: 0;"/></g><g class="layer-below"><g class="imagelayer"/><g class="shapelayer"/></g><g class="cartesianlayer"><g class="subplot xy"><g class="layer-subplot"><g class="shapelayer"/><g class="imagelayer"/></g><g class="gridlayer"><g class="x"><path class="xgrid crisp" transform="translate(82.86,0)" d="M0,100v320" style="stroke: rgb(255, 255, 255); stroke-opacity: 1; stroke-width: 1px;"/><path class="xgrid crisp" transform="translate(193.19,0)" d="M0,100v320" style="stroke: rgb(255, 255, 255); stroke-opacity: 1; stroke-width: 1px;"/><path class="xgrid crisp" transform="translate(303.52,0)" d="M0,100v320" style="stroke: rgb(255, 255, 255); stroke-opacity: 1; stroke-width: 1px;"/><path class="xgrid crisp" transform="translate(413.85,0)" d="M0,100v320" style="stroke: rgb(255, 255, 255); stroke-opacity: 1; stroke-width: 1px;"/><path class="xgrid crisp" transform="translate(524.1700000000001,0)" d="M0,100v320" style="stroke: rgb(255, 255, 255); stroke-opacity: 1; stroke-width: 1px;"/></g><g class="y"><path class="ygrid crisp" transform="translate(0,392.55)" d="M80,0h537" style="stroke: rgb(255, 255, 255); stroke-opacity: 1; stroke-width: 1px;"/><path class="ygrid crisp" transform="translate(0,349.77)" d="M80,0h537" style="stroke: rgb(255, 255, 255); stroke-opacity: 1; stroke-width: 1px;"/><path class="ygrid crisp" transform="translate(0,306.99)" d="M80,0h537" style="stroke: rgb(255, 255, 255); stroke-opacity: 1; stroke-width: 1px;"/><path class="ygrid crisp" transform="translate(0,264.21000000000004)" d="M80,0h537" style="stroke: rgb(255, 255, 255); stroke-opacity: 1; stroke-width: 1px;"/><path class="ygrid crisp" transform="translate(0,221.43)" d="M80,0h537" style="stroke: rgb(255, 255, 255); stroke-opacity: 1; stroke-width: 1px;"/><path class="ygrid crisp" transform="translate(0,178.65)" d="M80,0h537" style="stroke: rgb(255, 255, 255); stroke-opacity: 1; stroke-width: 1px;"/><path class="ygrid crisp" transform="translate(0,135.87)" d="M80,0h537" style="stroke: rgb(255, 255, 255); stroke-opacity: 1; stroke-width: 1px;"/></g></g><g class="zerolinelayer"/><path class="xlines-below"/><path class="ylines-below"/><g class="overlines-below"/><g class="xaxislayer-below"/><g class="yaxislayer-below"/><g class="overaxes-below"/><g class="plot" transform="translate(80,100)" clip-path="url('#clipeaddd1xyplot')"><g class="scatterlayer mlayer"><g class="trace scatter trace87e238" style="stroke-miterlimit: 2; opacity: 1;"><g class="fills"/><g class="errorbars"/><g class="lines"><path class="js-line" d="M0,304L2.21,302.59L2.98,249.74L3.74,251.04L4.51,249.35L7.57,248.71L8.34,248.32L9.87,249.1L10.64,248.19L12.17,248.58L12.94,248.19L14.47,247.93L15.23,247.67L16.77,247.41L17.54,247.16L23.66,246.77L24.43,246.51L29.03,246.12L29.79,245.73L31.32,245.86L32.09,245.22L33.62,245.09L34.38,244.44L35.15,244.96L35.92,244.57L36.68,243.66L37.45,243.92L38.22,244.57L38.99,243.02L41.28,242.11L42.05,242.63L42.81,242.24L43.58,243.15L45.11,240.17L45.88,240.69L46.64,240.69L47.41,239.78L50.48,237.84L51.24,236.94L52.77,238.23L53.54,237.07L54.3,235L55.07,235.51L55.84,236.55L56.6,235L58.14,232.67L58.9,232.28L60.44,230.6L61.2,231.12L62.73,229.95L63.5,230.21L64.27,231.76L65.03,229.56L67.33,230.6L68.1,230.21L70.4,226.07L71.16,226.85L72.7,225.68L73.46,227.36L74.23,227.11L74.99,225.55L78.06,221.16L78.82,218.44L79.59,219.09L80.36,217.66L81.12,216.63L81.89,217.4L83.42,217.66L84.19,218.7L87.26,216.5L88.02,216.37L89.55,215.72L90.32,214.69L91.08,214.3L91.85,214.82L93.38,215.98L94.15,214.43L96.44,213.39L97.22,212.88L98.74,212.23L99.51,211.45L101.81,212.23L102.57,211.84L104.11,211.58L104.88,211.84L106.4,210.42L107.17,208.87L108.71,207.7L109.47,206.93L111,207.96L111.77,207.44L112.54,207.96L113.3,142.27L115.6,140.18L116.37,140.44L117.9,139.92L118.67,139.01L120.2,139.14L120.97,139.14L124.03,138.48L124.79,138.35L127.09,137.83L127.86,137.96L134.75,137.96L135.52,138.09L140.88,137.83L141.65,137.18L143.95,137.18L144.71,136.14L147.77,136.27L148.54,135.74L150.07,135.88L150.84,135.22L152.38,134.57L153.14,135.22L156.2,132.22L156.97,133.27L159.27,131.57L160.04,132.22L163.1,128.44L163.87,130.14L166.93,127.14L167.7,128.05L169.23,126.48L169.99,127.66L170.76,128.7L171.53,127.79L172.3,128.83L173.06,128.31L173.82,127.4L174.59,128.44L175.36,127.79L176.12,128.18L178.42,128.83L179.19,128.44L180.74,126.48L181.5,125.05L183.03,124.92L183.8,125.44L184.56,125.96L185.33,124.01L188.4,123.09L189.16,121.4L192.23,121.92L192.99,120.61L193.76,118.4L194.53,119.96L195.3,119.96L196.06,118.79L196.82,119.7L197.59,119.18L199.12,117.35L199.89,117.48L202.19,114.35L202.95,114.48L204.49,112.14L205.25,112.92L206.78,110.83L207.55,111.35L209.85,110.7L210.61,108.09L211.38,107.96L212.14,106.92L212.91,105.48L213.68,105.74L214.45,106L215.21,107.18L215.98,107.83L216.74,107.18L217.52,109.13L218.28,108.35L219.04,108.22L219.81,106.66L220.58,106.27L221.34,106.79L222.87,107.05L223.64,61.25L225.17,59.41L225.94,59.15L228.24,57.57L229,57.17L230.53,57.04L231.3,56.78L234.36,55.46L235.13,54.54L236.67,54.28L237.43,54.81L240.5,53.75L241.26,53.62L242.79,53.62L243.56,53.75L255.82,51.78L256.58,52.18L258.88,51.12L259.64,51.25L260.42,51.52L261.17,50.73L265.77,50.07L267.31,49.54L268.07,48.23L269.6,47.83L271.14,47.44L271.9,45.73L272.67,46.91L273.44,45.73L274.97,45.73L275.73,45.07L276.5,44.94L277.27,43.76L279.56,43.49L280.33,41.91L281.86,40.2L282.63,39.42L283.37,38.1L284.13,38.76L286.43,37.71L287.2,36L290.27,35.34L291.03,33.36L291.8,32.71L292.56,33.23L294.09,32.44L294.86,32.05L295.63,31.92L296.39,30.86L297.93,30.86L298.69,31.39L300.22,32.97L301,31.13L302.53,32.31L303.3,30.34L304.83,30.47L305.59,30.86L307.89,29.02L308.66,29.42L310.19,27.71L310.95,26.66L311.72,24.16L312.49,24.68L313.25,23.24L314.02,24.68L315.55,22.84L316.32,22.58L317.08,21.26L317.85,21.66L319.38,21.79L320.14,20.74L320.91,21.26L321.68,19.68L323.21,19.55L323.98,18.5L327.04,18.89L327.81,17.97L328.57,17.45L329.34,17.84L330.11,17.97L330.87,17.05L331.64,16L332.4,16.66L333.17,16.39L333.94,171.81L337.77,171.4L338.54,172.08L340.84,170.99L341.6,170.99L343.14,169.76L343.9,169.76L345.43,168.94L346.2,169.08L359.23,168.39L359.99,167.98L369.94,165.8L370.71,165.12L374.54,164.02L375.31,162.66L378.4,162.38L379.17,163.61L380.7,161.7L381.46,161.57L382.23,160.88L383,158.43L383.76,156.51L384.53,156.79L385.3,156.1L386.06,154.33L386.83,154.88L387.59,154.19L389.13,154.33L389.89,153.37L391.42,152.69L392.19,153.65L394.49,150.92L395.25,151.87L397.56,149.14L398.32,149.14L399.09,148.32L399.85,149.41L401.39,150.37L402.15,149.41L402.92,149.55L403.69,148.73L406.75,145.18L407.52,144.5L409.81,143.54L410.58,145.04L415.18,141.9L415.94,143.68L416.71,121.97L417.48,121.97L419.78,120.88L420.54,116.1L421.31,116.24L422.07,112.28L422.84,112.55L423.61,109.96L424.37,106.95L425.14,107.91L427.43,101.22L428.2,98.08L429.74,97.53L430.5,95.35L431.27,94.8L432.04,92.07L433.57,89.34L434.33,89.34L435.87,85.93L436.63,85.65L438.93,82.78L439.7,80.19L443.53,75L444.29,88.44L448.13,84.03L448.89,84.45L449.66,84.31L450.42,85.14L451.96,84.72L452.72,85.41L454.26,84.59L455.02,84.45L456.55,84.03L457.32,84.03L458.85,84.17L459.62,83.62L464.98,84.03L465.75,83.62L470.35,83.21L471.11,83.48L474.17,83.48L474.94,83.35L476.47,83.35L477.24,83.35L479.53,83.35L480.3,83.9L484.13,79.9L484.9,80.18L487.2,78.8L487.96,78.94L488.73,78.53L489.49,76.87L491.02,77.15L491.79,75.63L495.63,72.47L496.39,72.88L497.92,69.99L498.69,69.44L500.22,68.06L500.99,66.27L502.52,66.41L503.28,64.2L505.59,63.1L506.35,61.86L509.42,54.29L510.18,54.43L511.71,53.6L512.48,51.4L515.55,49.47L516.31,47.82L520.91,46.85L521.67,45.75L522.44,46.16L523.21,45.48L523.97,45.89L530.1,41.21L533.93,38.59L534.7,39.28L537,36.66" style="vector-effect: non-scaling-stroke; fill: none; stroke: rgb(99, 110, 250); stroke-opacity: 1; stroke-width: 2px; opacity: 1;"/></g><g class="points"/><g class="text"/></g></g></g><g class="overplot"/><path class="xlines-above crisp" d="M0,0" style="fill: none;"/><path class="ylines-above crisp" d="M0,0" style="fill: none;"/><g class="overlines-above"/><g class="xaxislayer-above"><g class="xtick"><text text-anchor="middle" x="0" y="433" transform="translate(82.86,0)" style="font-family: 'Open Sans', verdana, arial, sans-serif; font-size: 12px; fill: rgb(42, 63, 95); fill-opacity: 1; white-space: pre;"><tspan class="line" dy="0em" x="0" y="433">Aug 3</tspan><tspan class="line" dy="1.3em" x="0" y="433">2021</tspan></text></g><g class="xtick"><text text-anchor="middle" x="0" y="433" transform="translate(193.19,0)" style="font-family: 'Open Sans', verdana, arial, sans-serif; font-size: 12px; fill: rgb(42, 63, 95); fill-opacity: 1; white-space: pre;">Aug 4</text></g><g class="xtick"><text text-anchor="middle" x="0" y="433" transform="translate(303.52,0)" style="font-family: 'Open Sans', verdana, arial, sans-serif; font-size: 12px; fill: rgb(42, 63, 95); fill-opacity: 1; white-space: pre;">Aug 5</text></g><g class="xtick"><text text-anchor="middle" x="0" y="433" transform="translate(413.85,0)" style="font-family: 'Open Sans', verdana, arial, sans-serif; font-size: 12px; fill: rgb(42, 63, 95); fill-opacity: 1; white-space: pre;">Aug 6</text></g><g class="xtick"><text text-anchor="middle" x="0" y="433" transform="translate(524.1700000000001,0)" style="font-family: 'Open Sans', verdana, arial, sans-serif; font-size: 12px; fill: rgb(42, 63, 95); fill-opacity: 1; white-space: pre;">Aug 7</text></g></g><g class="yaxislayer-above"><g class="ytick"><text text-anchor="end" x="79" y="4.199999999999999" transform="translate(0,392.55)" style="font-family: 'Open Sans', verdana, arial, sans-serif; font-size: 12px; fill: rgb(42, 63, 95); fill-opacity: 1; white-space: pre;">0.864</text></g><g class="ytick"><text text-anchor="end" x="79" y="4.199999999999999" transform="translate(0,349.77)" style="font-family: 'Open Sans', verdana, arial, sans-serif; font-size: 12px; fill: rgb(42, 63, 95); fill-opacity: 1; white-space: pre;">0.865</text></g><g class="ytick"><text text-anchor="end" x="79" y="4.199999999999999" transform="translate(0,306.99)" style="font-family: 'Open Sans', verdana, arial, sans-serif; font-size: 12px; fill: rgb(42, 63, 95); fill-opacity: 1; white-space: pre;">0.866</text></g><g class="ytick"><text text-anchor="end" x="79" y="4.199999999999999" transform="translate(0,264.21000000000004)" style="font-family: 'Open Sans', verdana, arial, sans-serif; font-size: 12px; fill: rgb(42, 63, 95); fill-opacity: 1; white-space: pre;">0.867</text></g><g class="ytick"><text text-anchor="end" x="79" y="4.199999999999999" transform="translate(0,221.43)" style="font-family: 'Open Sans', verdana, arial, sans-serif; font-size: 12px; fill: rgb(42, 63, 95); fill-opacity: 1; white-space: pre;">0.868</text></g><g class="ytick"><text text-anchor="end" x="79" y="4.199999999999999" transform="translate(0,178.65)" style="font-family: 'Open Sans', verdana, arial, sans-serif; font-size: 12px; fill: rgb(42, 63, 95); fill-opacity: 1; white-space: pre;">0.869</text></g><g class="ytick"><text text-anchor="end" x="79" y="4.199999999999999" transform="translate(0,135.87)" style="font-family: 'Open Sans', verdana, arial, sans-serif; font-size: 12px; fill: rgb(42, 63, 95); fill-opacity: 1; white-space: pre;">0.87</text></g></g><g class="overaxes-above"/></g></g><g class="polarlayer"/><g class="ternarylayer"/><g class="geolayer"/><g class="funnelarealayer"/><g class="pielayer"/><g class="treemaplayer"/><g class="sunburstlayer"/><g class="glimages"/><defs id="topdefs-eaddd1"><g class="clips"/><clipPath id="legendeaddd1"><rect width="60" height="45" x="0" y="0"/></clipPath></defs><g class="layer-above"><g class="imagelayer"/><g class="shapelayer"/></g><g class="infolayer"><g class="legend" pointer-events="all" transform="translate(627.74,100)"><rect class="bg" shape-rendering="crispEdges" width="60" height="45" x="0" y="0" style="stroke: rgb(68, 68, 68); stroke-opacity: 1; fill: rgb(255, 255, 255); fill-opacity: 1; stroke-width: 0px;"/><g class="scrollbox" transform="" clip-path="url('#legendeaddd1')"><text class="legendtitletext" text-anchor="start" x="2" y="15.600000000000001" style="font-family: 'Open Sans', verdana, arial, sans-serif; font-size: 12px; fill: rgb(42, 63, 95); fill-opacity: 1; white-space: pre;">All</text><g class="groups" transform=""><g class="traces" transform="translate(0,30.1)" style="opacity: 1;"><text class="legendtext" text-anchor="start" x="40" y="4.680000000000001" style="font-family: 'Open Sans', verdana, arial, sans-serif; font-size: 12px; fill: rgb(42, 63, 95); fill-opacity: 1; white-space: pre;">All</text><g class="layers" style="opacity: 1;"><g class="legendfill"/><g class="legendlines"><path class="js-line" d="M5,0h30" style="fill: none; stroke: rgb(99, 110, 250); stroke-opacity: 1; stroke-width: 2px;"/></g><g class="legendsymbols"><g class="legendpoints"/></g></g><rect class="legendtoggle" x="0" y="-9.5" width="54.890625" height="19" style="fill: rgb(0, 0, 0); fill-opacity: 0;"/></g></g></g><rect class="scrollbar" rx="20" ry="3" width="0" height="0" x="0" y="0" style="fill: rgb(128, 139, 164); fill-opacity: 1;"/></g><g class="g-gtitle"><text class="gtitle" x="35" y="50" text-anchor="start" dy="0em" style="font-family: 'Open Sans', verdana, arial, sans-serif; font-size: 17px; fill: rgb(42, 63, 95); opacity: 1; font-weight: normal; white-space: pre;">Singapore Vaccination Centers</text></g><g class="g-xtitle"><text class="xtitle" x="348.5" y="476.409375" text-anchor="middle" style="font-family: 'Open Sans', verdana, arial, sans-serif; font-size: 14px; fill: rgb(42, 63, 95); opacity: 1; font-weight: normal; white-space: pre;">Time</text></g><g class="g-ytitle"><text class="ytitle" transform="rotate(-90,19.840625000000003,260)" x="19.840625000000003" y="260" text-anchor="middle" style="font-family: 'Open Sans', verdana, arial, sans-serif; font-size: 14px; fill: rgb(42, 63, 95); opacity: 1; font-weight: normal; white-space: pre;">Filled/%</text></g></g></svg>