<svg class="main-svg" xmlns="http://www.w3.org/2000/svg" xmlns:xlink="http://www.w3.org/1999/xlink" width="700" height="500" style="" viewBox="0 0 700 500"><rect x="0" y="0" width="700" height="500" style="fill: rgb(255, 255, 255); fill-opacity: 1;"/><defs id="defs-1ffe68"><g class="clips"><clipPath id="clip1ffe68xyplot" class="plotclip"><rect width="537" height="320"/></clipPath><clipPath class="axesclip" id="clip1ffe68x"><rect x="80" y="0" width="537" height="500"/></clipPath><clipPath class="axesclip" id="clip1ffe68y"><rect x="0" y="100" width="700" height="320"/></clipPath><clipPath class="axesclip" id="clip1ffe68xy"><rect x="80" y="100" width="537" height="320"/></clipPath></g><g class="gradients"/></defs><g class="bglayer"><rect class="bg" x="80" y="100" width="537" height="320" style="fill: rgb(229, 236, 246); fill-opacity: 1; stroke-width: 0;"/></g><g class="layer-below"><g class="imagelayer"/><g class="shapelayer"/></g><g class="cartesianlayer"><g class="subplot xy"><g class="layer-subplot"><g class="shapelayer"/><g class="imagelayer"/></g><g class="gridlayer"><g class="x"><path class="xgrid crisp" transform="translate(82.99,0)" d="M0,100v320" style="stroke: rgb(255, 255, 255); stroke-opacity: 1; stroke-width: 1px;"/><path class="xgrid crisp" transform="translate(198.25,0)" d="M0,100v320" style="stroke: rgb(255, 255, 255); stroke-opacity: 1; stroke-width: 1px;"/><path class="xgrid crisp" transform="translate(313.52,0)" d="M0,100v320" style="stroke: rgb(255, 255, 255); stroke-opacity: 1; stroke-width: 1px;"/><path class="xgrid crisp" transform="translate(428.78,0)" d="M0,100v320" style="stroke: rgb(255, 255, 255); stroke-opacity: 1; stroke-width: 1px;"/><path class="xgrid crisp" transform="translate(544.04,0)" d="M0,100v320" style="stroke: rgb(255, 255, 255); stroke-opacity: 1; stroke-width: 1px;"/></g><g class="y"><path class="ygrid crisp" transform="translate(0,392.55)" d="M80,0h537" style="stroke: rgb(255, 255, 255); stroke-opacity: 1; stroke-width: 1px;"/><path class="ygrid crisp" transform="translate(0,349.77)" d="M80,0h537" style="stroke: rgb(255, 255, 255); stroke-opacity: 1; stroke-width: 1px;"/><path class="ygrid crisp" transform="translate(0,306.99)" d="M80,0h537" style="stroke: rgb(255, 255, 255); stroke-opacity: 1; stroke-width: 1px;"/><path class="ygrid crisp" transform="translate(0,264.21000000000004)" d="M80,0h537" style="stroke: rgb(255, 255, 255); stroke-opacity: 1; stroke-width: 1px;"/><path class="ygrid crisp" transform="translate(0,221.43)" d="M80,0h537" style="stroke: rgb(255, 255, 255); stroke-opacity: 1; stroke-width: 1px;"/><path class="ygrid crisp" transform="translate(0,178.65)" d="M80,0h537" style="stroke: rgb(255, 255, 255); stroke-opacity: 1; stroke-width: 1px;"/><path class="ygrid crisp" transform="translate(0,135.87)" d="M80,0h537" style="stroke: rgb(255, 255, 255); stroke-opacity: 1; stroke-width: 1px;"/></g></g><g class="zerolinelayer"/><path class="xlines-below"/><path class="ylines-below"/><g class="overlines-below"/><g class="xaxislayer-below"/><g class="yaxislayer-below"/><g class="overaxes-below"/><g class="plot" transform="translate(80,100)" clip-path="url('#clip1ffe68xyplot')"><g class="scatterlayer mlayer"><g class="trace scatter tracece5d9f" style="stroke-miterlimit: 2; opacity: 1;"><g class="fills"/><g class="errorbars"/><g class="lines"><path class="js-line" d="M0,304L2.31,302.59L3.11,249.74L3.91,251.04L4.71,249.35L7.91,248.71L8.71,248.32L10.31,249.1L11.11,248.19L12.71,248.58L13.51,248.19L15.11,247.93L15.91,247.67L17.51,247.41L18.32,247.16L24.72,246.77L25.52,246.51L30.32,246.12L31.12,245.73L32.73,245.86L33.53,245.22L35.12,245.09L35.92,244.44L36.73,244.96L37.53,244.57L38.32,243.66L39.13,243.92L39.93,244.57L40.73,243.02L43.13,242.11L43.93,242.63L44.73,242.24L45.53,243.15L46.33,242.24L47.13,240.17L48.73,240.69L49.53,239.78L52.73,237.84L53.53,236.94L55.13,238.23L55.94,237.07L56.73,235L57.54,235.51L58.33,236.55L59.13,235L60.74,232.67L61.54,232.28L63.14,230.6L63.94,231.12L65.54,229.95L66.34,230.21L67.14,231.76L67.94,229.56L70.34,230.6L71.14,230.21L72.75,226.46L73.55,226.07L74.35,226.85L75.15,225.55L75.95,225.68L76.75,227.36L77.55,227.11L78.35,225.55L81.55,221.16L82.35,218.44L83.15,219.09L83.95,217.66L84.75,216.63L85.55,217.4L87.15,217.66L87.95,218.7L91.16,216.5L91.95,216.37L93.56,215.72L94.36,214.69L95.16,214.3L95.96,214.82L97.56,215.98L98.36,214.43L100.76,213.39L101.56,212.88L103.16,212.23L103.96,211.45L106.36,212.23L107.16,211.84L108.77,211.58L109.57,211.84L111.16,210.42L111.97,208.87L113.57,207.7L114.37,206.93L115.97,207.96L116.77,207.44L117.57,207.96L118.37,142.27L120.77,140.18L121.57,140.44L123.17,139.92L123.97,139.01L125.57,139.14L126.38,139.14L129.58,138.48L130.37,138.35L132.78,137.83L133.58,137.96L140.78,137.96L141.58,138.09L147.18,137.83L147.98,137.18L150.38,137.18L151.18,136.14L154.38,136.27L155.19,135.74L156.79,135.88L157.59,135.22L159.19,134.57L159.99,135.22L163.19,132.22L163.99,133.27L166.39,131.57L167.19,132.22L170.39,128.44L171.2,130.14L174.4,127.14L175.2,128.05L176.8,126.48L177.6,127.66L178.4,128.7L179.2,127.79L180,128.83L180.8,128.31L181.6,127.4L182.4,128.44L183.2,127.79L184,128.18L186.4,128.83L187.2,128.44L188.82,126.48L189.61,125.05L191.21,124.92L192.02,125.44L192.82,125.96L193.62,124.01L196.82,123.09L197.62,121.4L200.82,121.92L201.62,120.61L202.42,118.4L203.23,119.96L204.03,119.96L204.83,118.79L205.63,119.7L206.42,119.18L208.03,117.35L208.83,117.48L211.23,114.35L212.03,114.48L213.63,112.14L214.43,112.92L216.03,110.83L216.83,111.35L219.23,110.7L220.03,108.09L220.83,107.96L221.63,106.92L222.44,105.48L223.24,105.74L224.04,106L224.84,107.18L225.64,107.83L226.44,107.18L227.24,109.13L228.04,108.35L228.84,108.22L229.64,106.66L230.44,106.27L231.24,106.79L232.84,107.05L233.64,61.25L235.24,59.41L236.04,59.15L238.44,57.57L239.24,57.17L240.84,57.04L241.64,56.78L244.85,55.46L245.65,54.54L247.25,54.28L248.05,54.81L251.25,53.75L252.05,53.62L253.65,53.62L254.45,53.75L267.26,51.78L268.06,52.18L270.46,51.12L271.25,51.25L272.06,51.52L272.85,50.73L277.66,50.07L279.26,49.54L280.06,48.23L281.66,47.83L283.26,47.44L284.06,45.73L284.86,46.91L285.67,45.73L287.27,45.73L288.06,45.07L288.87,44.94L289.67,43.76L292.07,43.49L292.87,41.91L294.47,40.2L295.27,39.42L296.05,38.1L296.84,38.76L299.24,37.71L300.04,36L303.25,35.34L304.04,33.36L304.85,32.71L305.65,33.23L307.25,32.44L308.05,32.05L308.85,31.92L309.65,30.86L311.25,30.86L312.05,31.39L313.65,32.97L314.46,31.13L316.06,32.31L316.87,30.34L318.46,30.47L319.26,30.86L321.66,29.02L322.46,29.42L324.06,27.71L324.86,26.66L325.66,24.16L326.47,24.68L327.26,23.24L328.06,24.68L329.66,22.84L330.46,22.58L331.26,21.26L332.06,21.66L333.67,21.79L334.46,20.74L335.26,21.26L336.07,19.68L337.67,19.55L338.47,18.5L341.67,18.89L342.47,17.97L343.27,17.45L344.07,17.84L344.87,17.97L345.67,17.05L346.47,16L347.27,16.66L348.08,16.39L348.88,171.81L352.88,171.4L353.68,172.08L356.08,170.99L356.88,170.99L358.48,169.76L359.28,169.76L360.88,168.94L361.68,169.08L375.29,168.39L376.09,167.98L386.49,165.8L387.29,165.12L391.29,164.02L392.1,162.66L395.32,162.38L396.12,163.61L397.73,161.7L398.52,161.57L399.33,160.88L400.13,158.43L400.92,156.51L401.73,156.79L402.53,156.1L403.32,154.33L404.13,154.88L404.93,154.19L406.53,154.33L407.33,153.37L408.93,152.69L409.73,153.65L412.13,150.92L412.93,151.87L415.33,149.14L416.14,149.14L416.93,148.32L417.74,149.41L419.34,150.37L420.14,149.41L420.94,149.55L421.74,148.73L424.94,145.18L425.74,144.5L428.14,143.54L428.94,145.04L433.75,141.9L434.54,143.68L435.35,121.97L436.15,121.97L438.55,120.88L439.35,116.1L440.15,116.24L440.95,112.28L441.75,112.55L442.55,109.96L443.35,106.95L444.15,107.91L446.55,101.22L447.35,98.08L448.96,97.53L449.76,95.35L450.55,94.8L451.36,92.07L452.96,89.34L453.75,89.34L455.36,85.93L456.16,85.65L458.56,82.78L459.36,80.19L463.36,75L464.16,88.44L468.17,84.03L468.97,84.45L469.77,84.31L470.57,85.14L472.17,84.72L472.97,85.41L474.57,84.59L475.36,84.45L476.97,84.03L477.77,84.03L479.37,84.17L480.17,83.62L485.78,84.03L486.58,83.62L491.38,83.21L492.18,83.48L495.37,83.48L496.18,83.35L497.78,83.35L498.58,83.35L500.98,83.35L501.78,83.9L505.78,79.9L506.58,80.18L508.99,78.8L509.78,78.94L510.59,78.53L511.39,76.87L512.98,77.15L513.79,75.63L517.79,72.47L518.59,72.88L520.19,69.99L520.99,69.44L522.59,68.06L523.39,66.27L524.99,66.41L525.79,64.2L528.2,63.1L529,61.86L532.2,54.29L533,54.43L534.6,53.6L535.4,51.4L537,50.85" style="vector-effect: non-scaling-stroke; fill: none; stroke: rgb(99, 110, 250); stroke-opacity: 1; stroke-width: 2px; opacity: 1;"/></g><g class="points"/><g class="text"/></g></g></g><g class="overplot"/><path class="xlines-above crisp" d="M0,0" style="fill: none;"/><path class="ylines-above crisp" d="M0,0" style="fill: none;"/><g class="overlines-above"/><g class="xaxislayer-above"><g class="xtick"><text text-anchor="middle" x="0" y="433" transform="translate(82.99,0)" style="font-family: 'Open Sans', verdana, arial, sans-serif; font-size: 12px; fill: rgb(42, 63, 95); fill-opacity: 1; white-space: pre;"><tspan class="line" dy="0em" x="0" y="433">Aug 3</tspan><tspan class="line" dy="1.3em" x="0" y="433">2021</tspan></text></g><g class="xtick"><text text-anchor="middle" x="0" y="433" transform="translate(198.25,0)" style="font-family: 'Open Sans', verdana, arial, sans-serif; font-size: 12px; fill: rgb(42, 63, 95); fill-opacity: 1; white-space: pre;">Aug 4</text></g><g class="xtick"><text text-anchor="middle" x="0" y="433" transform="translate(313.52,0)" style="font-family: 'Open Sans', verdana, arial, sans-serif; font-size: 12px; fill: rgb(42, 63, 95); fill-opacity: 1; white-space: pre;">Aug 5</text></g><g class="xtick"><text text-anchor="middle" x="0" y="433" transform="translate(428.78,0)" style="font-family: 'Open Sans', verdana, arial, sans-serif; font-size: 12px; fill: rgb(42, 63, 95); fill-opacity: 1; white-space: pre;">Aug 6</text></g><g class="xtick"><text text-anchor="middle" x="0" y="433" transform="translate(544.04,0)" style="font-family: 'Open Sans', verdana, arial, sans-serif; font-size: 12px; fill: rgb(42, 63, 95); fill-opacity: 1; white-space: pre;">Aug 7</text></g></g><g class="yaxislayer-above"><g class="ytick"><text text-anchor="end" x="79" y="4.199999999999999" transform="translate(0,392.55)" style="font-family: 'Open Sans', verdana, arial, sans-serif; font-size: 12px; fill: rgb(42, 63, 95); fill-opacity: 1; white-space: pre;">0.864</text></g><g class="ytick"><text text-anchor="end" x="79" y="4.199999999999999" transform="translate(0,349.77)" style="font-family: 'Open Sans', verdana, arial, sans-serif; font-size: 12px; fill: rgb(42, 63, 95); fill-opacity: 1; white-space: pre;">0.865</text></g><g class="ytick"><text text-anchor="end" x="79" y="4.199999999999999" transform="translate(0,306.99)" style="font-family: 'Open Sans', verdana, arial, sans-serif; font-size: 12px; fill: rgb(42, 63, 95); fill-opacity: 1; white-space: pre;">0.866</text></g><g class="ytick"><text text-anchor="end" x="79" y="4.199999999999999" transform="translate(0,264.21000000000004)" style="font-family: 'Open Sans', verdana, arial, sans-serif; font-size: 12px; fill: rgb(42, 63, 95); fill-opacity: 1; white-space: pre;">0.867</text></g><g class="ytick"><text text-anchor="end" x="79" y="4.199999999999999" transform="translate(0,221.43)" style="font-family: 'Open Sans', verdana, arial, sans-serif; font-size: 12px; fill: rgb(42, 63, 95); fill-opacity: 1; white-space: pre;">0.868</text></g><g class="ytick"><text text-anchor="end" x="79" y="4.199999999999999" transform="translate(0,178.65)" style="font-family: 'Open Sans', verdana, arial, sans-serif; font-size: 12px; fill: rgb(42, 63, 95); fill-opacity: 1; white-space: pre;">0.869</text></g><g class="ytick"><text text-anchor="end" x="79" y="4.199999999999999" transform="translate(0,135.87)" style="font-family: 'Open Sans', verdana, arial, sans-serif; font-size: 12px; fill: rgb(42, 63, 95); fill-opacity: 1; white-space: pre;">0.87</text></g></g><g class="overaxes-above"/></g></g><g class="polarlayer"/><g class="ternarylayer"/><g class="geolayer"/><g class="funnelarealayer"/><g class="pielayer"/><g class="treemaplayer"/><g class="sunburstlayer"/><g class="glimages"/><defs id="topdefs-1ffe68"><g class="clips"/><clipPath id="legend1ffe68"><rect width="60" height="45" x="0" y="0"/></clipPath></defs><g class="layer-above"><g class="imagelayer"/><g class="shapelayer"/></g><g class="infolayer"><g class="legend" pointer-events="all" transform="translate(627.74,100)"><rect class="bg" shape-rendering="crispEdges" width="60" height="45" x="0" y="0" style="stroke: rgb(68, 68, 68); stroke-opacity: 1; fill: rgb(255, 255, 255); fill-opacity: 1; stroke-width: 0px;"/><g class="scrollbox" transform="" clip-path="url('#legend1ffe68')"><text class="legendtitletext" text-anchor="start" x="2" y="15.600000000000001" style="font-family: 'Open Sans', verdana, arial, sans-serif; font-size: 12px; fill: rgb(42, 63, 95); fill-opacity: 1; white-space: pre;">All</text><g class="groups" transform=""><g class="traces" transform="translate(0,30.1)" style="opacity: 1;"><text class="legendtext" text-anchor="start" x="40" y="4.680000000000001" style="font-family: 'Open Sans', verdana, arial, sans-serif; font-size: 12px; fill: rgb(42, 63, 95); fill-opacity: 1; white-space: pre;">All</text><g class="layers" style="opacity: 1;"><g class="legendfill"/><g class="legendlines"><path class="js-line" d="M5,0h30" style="fill: none; stroke: rgb(99, 110, 250); stroke-opacity: 1; stroke-width: 2px;"/></g><g class="legendsymbols"><g class="legendpoints"/></g></g><rect class="legendtoggle" x="0" y="-9.5" width="54.890625" height="19" style="fill: rgb(0, 0, 0); fill-opacity: 0;"/></g></g></g><rect class="scrollbar" rx="20" ry="3" width="0" height="0" x="0" y="0" style="fill: rgb(128, 139, 164); fill-opacity: 1;"/></g><g class="g-gtitle"><text class="gtitle" x="35" y="50" text-anchor="start" dy="0em" style="font-family: 'Open Sans', verdana, arial, sans-serif; font-size: 17px; fill: rgb(42, 63, 95); opacity: 1; font-weight: normal; white-space: pre;">Singapore Vaccination Centers</text></g><g class="g-xtitle"><text class="xtitle" x="348.5" y="476.409375" text-anchor="middle" style="font-family: 'Open Sans', verdana, arial, sans-serif; font-size: 14px; fill: rgb(42, 63, 95); opacity: 1; font-weight: normal; white-space: pre;">Time</text></g><g class="g-ytitle"><text class="ytitle" transform="rotate(-90,19.840625000000003,260)" x="19.840625000000003" y="260" text-anchor="middle" style="font-family: 'Open Sans', verdana, arial, sans-serif; font-size: 14px; fill: rgb(42, 63, 95); opacity: 1; font-weight: normal; white-space: pre;">Filled/%</text></g></g></svg>