<svg class="main-svg" xmlns="http://www.w3.org/2000/svg" xmlns:xlink="http://www.w3.org/1999/xlink" width="700" height="500" style="" viewBox="0 0 700 500"><rect x="0" y="0" width="700" height="500" style="fill: rgb(255, 255, 255); fill-opacity: 1;"/><defs id="defs-812ea7"><g class="clips"><clipPath id="clip812ea7xyplot" class="plotclip"><rect width="537" height="320"/></clipPath><clipPath class="axesclip" id="clip812ea7x"><rect x="80" y="0" width="537" height="500"/></clipPath><clipPath class="axesclip" id="clip812ea7y"><rect x="0" y="100" width="700" height="320"/></clipPath><clipPath class="axesclip" id="clip812ea7xy"><rect x="80" y="100" width="537" height="320"/></clipPath></g><g class="gradients"/></defs><g class="bglayer"><rect class="bg" x="80" y="100" width="537" height="320" style="fill: rgb(229, 236, 246); fill-opacity: 1; stroke-width: 0;"/></g><g class="layer-below"><g class="imagelayer"/><g class="shapelayer"/></g><g class="cartesianlayer"><g class="subplot xy"><g class="layer-subplot"><g class="shapelayer"/><g class="imagelayer"/></g><g class="gridlayer"><g class="x"><path class="xgrid crisp" transform="translate(82.12,0)" d="M0,100v320" style="stroke: rgb(255, 255, 255); stroke-opacity: 1; stroke-width: 1px;"/><path class="xgrid crisp" transform="translate(163.78,0)" d="M0,100v320" style="stroke: rgb(255, 255, 255); stroke-opacity: 1; stroke-width: 1px;"/><path class="xgrid crisp" transform="translate(245.45,0)" d="M0,100v320" style="stroke: rgb(255, 255, 255); stroke-opacity: 1; stroke-width: 1px;"/><path class="xgrid crisp" transform="translate(327.11,0)" d="M0,100v320" style="stroke: rgb(255, 255, 255); stroke-opacity: 1; stroke-width: 1px;"/><path class="xgrid crisp" transform="translate(408.78,0)" d="M0,100v320" style="stroke: rgb(255, 255, 255); stroke-opacity: 1; stroke-width: 1px;"/><path class="xgrid crisp" transform="translate(490.44,0)" d="M0,100v320" style="stroke: rgb(255, 255, 255); stroke-opacity: 1; stroke-width: 1px;"/><path class="xgrid crisp" transform="translate(572.11,0)" d="M0,100v320" style="stroke: rgb(255, 255, 255); stroke-opacity: 1; stroke-width: 1px;"/></g><g class="y"><path class="ygrid crisp" transform="translate(0,393.62)" d="M80,0h537" style="stroke: rgb(255, 255, 255); stroke-opacity: 1; stroke-width: 1px;"/><path class="ygrid crisp" transform="translate(0,354.85)" d="M80,0h537" style="stroke: rgb(255, 255, 255); stroke-opacity: 1; stroke-width: 1px;"/><path class="ygrid crisp" transform="translate(0,316.07)" d="M80,0h537" style="stroke: rgb(255, 255, 255); stroke-opacity: 1; stroke-width: 1px;"/><path class="ygrid crisp" transform="translate(0,277.3)" d="M80,0h537" style="stroke: rgb(255, 255, 255); stroke-opacity: 1; stroke-width: 1px;"/><path class="ygrid crisp" transform="translate(0,238.52)" d="M80,0h537" style="stroke: rgb(255, 255, 255); stroke-opacity: 1; stroke-width: 1px;"/><path class="ygrid crisp" transform="translate(0,199.75)" d="M80,0h537" style="stroke: rgb(255, 255, 255); stroke-opacity: 1; stroke-width: 1px;"/><path class="ygrid crisp" transform="translate(0,160.97)" d="M80,0h537" style="stroke: rgb(255, 255, 255); stroke-opacity: 1; stroke-width: 1px;"/><path class="ygrid crisp" transform="translate(0,122.2)" d="M80,0h537" style="stroke: rgb(255, 255, 255); stroke-opacity: 1; stroke-width: 1px;"/></g></g><g class="zerolinelayer"/><path class="xlines-below"/><path class="ylines-below"/><g class="overlines-below"/><g class="xaxislayer-below"/><g class="yaxislayer-below"/><g class="overaxes-below"/><g class="plot" transform="translate(80,100)" clip-path="url('#clip812ea7xyplot')"><g class="scatterlayer mlayer"><g class="trace scatter trace4d1e3c" style="stroke-miterlimit: 2; opacity: 1;"><g class="fills"/><g class="errorbars"/><g class="lines"><path class="js-line" d="M0,304L1.63,302.72L2.2,254.82L2.77,255.99L3.34,254.47L5.6,253.88L6.17,253.53L7.31,254.24L7.87,253.42L9.01,253.77L9.58,253.42L10.71,253.18L11.28,252.95L12.41,252.71L12.98,252.48L20.35,252.13L20.92,251.66L24.88,250.6L25.45,250.02L26.59,250.13L27.15,249.31L28.29,250.13L28.86,248.73L30.56,247.91L31.12,248.37L31.69,248.02L32.26,248.84L33.39,246.15L33.96,246.62L34.53,246.62L36.23,245.44L36.79,244.74L37.93,243.22L38.5,244.15L39.06,244.39L39.63,243.33L40.2,241.46L40.76,241.93L41.33,242.86L43.6,238.99L44.17,238.17L45.87,237.24L46.43,236.88L47,237.12L47.57,238.53L48.14,236.53L48.71,236.88L49.27,236.65L50.41,237.12L50.97,235.24L52.11,233.37L52.68,234.07L53.81,233.02L54.38,234.54L54.94,234.3L55.51,232.9L57.78,228.91L58.35,226.45L58.91,227.04L59.48,225.75L60.05,224.81L60.61,225.51L61.75,225.75L62.31,226.68L65.15,224.57L65.72,224.34L67.99,223.17L68.56,224.22L69.12,224.22L69.69,222.81L71.96,221.41L72.52,221.29L74.23,220.47L74.79,220.35L75.93,220.47L76.49,220.12L78.2,220L78.76,219.18L80.46,216.72L81.03,216.01L82.16,216.95L82.73,216.48L83.3,216.95L83.87,157.41L86.14,155.75L86.7,155.63L88.97,154.57L89.54,154.57L92.37,153.86L92.94,153.51L97.48,152.92L98.05,153.27L102.58,153.51L103.15,153.39L105.98,152.8L106.55,152.8L107.68,151.97L108.25,152.32L109.38,151.97L109.95,151.5L111.09,151.62L111.65,151.02L113.35,151.02L113.92,150.08L115.62,148.3L116.19,149.25L117.89,147.71L118.46,148.3L120.73,144.88L121.29,146.41L123.56,143.69L124.13,144.52L125.26,143.1L125.83,144.17L126.4,145.11L126.97,144.28L127.53,145.23L128.1,144.76L128.67,143.93L129.23,144.88L129.8,144.28L132.07,145.23L132.64,144.88L134.91,141.57L135.48,141.68L136.61,142.63L137.18,140.86L139.45,140.03L140.02,138.49L142.29,138.96L142.85,137.78L143.42,135.77L143.99,137.19L144.56,137.19L145.12,136.13L145.69,136.95L146.26,136.48L146.82,135.42L150.79,131.28L151.36,130.1L151.93,130.81L152.49,129.98L153.06,128.92L153.63,129.39L154.2,129.03L155.33,128.8L155.9,126.43L156.46,126.31L157.03,125.37L158.17,124.3L158.73,124.54L159.87,126.2L160.43,125.6L161.01,127.38L161.57,126.67L162.14,126.55L162.7,125.13L163.84,125.25L164.41,125.13L164.97,125.49L165.54,83.98L167.24,82.07L167.81,81.83L172.91,78.85L173.48,78.73L174.61,77.66L175.18,77.66L176.31,77.78L176.88,77.18L184.82,75.99L185.39,76.23L188.79,75.15L189.36,75.39L190.49,75.27L191.06,75.39L192.19,74.92L192.76,75.15L193.89,74.44L194.46,74.32L195.02,73.84L196.73,73.84L197.86,73.37L198.43,72.17L200.7,71.46L201.26,69.91L201.83,70.98L202.4,69.91L203.53,69.91L204.1,69.31L204.67,69.19L205.23,68.12L206.93,67.88L207.5,66.45L209.75,62.99L210.32,63.59L212.02,62.64L212.59,61.09L214.86,60.49L215.42,58.7L216.56,58.58L217.12,58.46L219.96,56.2L220.53,56.44L222.23,58.34L222.8,56.67L223.93,57.75L224.51,55.96L225.63,56.08L226.2,56.44L228.47,55.12L229.03,54.65L231.87,49.52L232.44,50.83L233.57,49.16L234.14,48.92L234.71,47.73L235.27,48.09L235.84,48.21L236.41,48.21L236.97,47.25L237.54,47.73L238.11,46.3L239.24,46.18L239.81,45.23L242.08,45.59L242.64,44.75L243.78,44.63L244.35,44.75L245.48,42.96L246.05,43.56L246.62,43.32L247.18,184.18L251.72,183.81L252.29,183.44L252.85,183.44L253.42,182.45L260.23,181.21L260.8,181.34L267.03,180.59L267.6,180.47L271.57,179.48L272.13,179.73L273.83,178.74L274.4,178.12L277.24,177.13L277.81,175.89L280.09,175.64L280.66,176.76L281.79,175.02L282.36,174.9L282.93,174.28L283.5,172.05L284.06,170.32L284.63,170.57L285.2,169.95L285.76,168.34L286.33,168.84L286.9,168.22L288.03,168.34L288.6,167.48L289.73,166.86L290.3,167.72L292,165.25L292.57,166.11L294.27,163.64L294.84,163.64L295.4,162.9L295.97,163.89L297.11,164.75L297.67,163.89L298.24,164.01L298.81,163.27L301.65,159.43L302.21,158.94L303.34,158.57L303.91,159.93L307.32,157.08L307.88,158.69L309.02,139.01L309.59,138.64L310.72,138.02L311.29,133.69L311.85,133.81L312.42,130.23L312.99,130.47L313.55,128.12L314.12,125.4L314.69,126.27L315.25,124.66L315.82,123.42L316.39,120.2L317.52,117.36L318.09,116.86L320.93,109.44L321.49,109.44L323.19,106.09L323.76,105.23L328.3,96.44L328.87,108.62L331.71,104.63L332.27,105L332.84,104.88L333.4,105.63L334.54,105.25L335.11,105.88L336.8,105L337.37,105.13L338.51,104.63L339.08,104.75L347.01,104.13L347.58,103.75L350.98,104.13L351.55,104L353.25,104L353.82,103.88L356.09,103.88L356.65,103.38L358.35,100.88L358.92,101.13L360.62,99.88L361.19,100.01L361.76,99.64L362.32,98.14L363.46,98.39L364.03,97.01L366.86,94.14L367.43,94.52L369.13,91.4L369.7,91.02L371.4,88.65L371.97,88.65L373.1,86.28L373.66,86.28L374.8,84.53L375.37,82.53L377.64,77.79L378.21,77.42L378.77,77.04L379.34,75.05L381.61,73.3L382.17,71.8L385.58,70.93L386.14,69.93L386.71,70.3L387.28,69.68L387.85,70.05L392.38,65.81L395.22,63.44L395.79,64.06L398.05,61.07L398.62,60.94L399.19,59.69L399.76,60.19L400.32,59.57L401.46,59.44L402.03,60.44L403.16,59.32L403.73,59.19L404.86,58.32L405.43,59.19L407.7,58.57L408.26,57.57L409.96,55.45L410.53,102.11L411.67,102.49L412.23,101.48L412.8,100.84L413.36,101.35L415.07,101.35L415.64,102.24L417.9,101.99L418.47,102.11L420.17,102.24L420.74,102.24L423.58,100.84L424.14,101.22L430.38,100.59L430.95,100.59L436.62,100.33L437.19,100.21L440.02,99.82L440.59,99.44L441.72,98.93L442.29,98.04L443.42,97.66L443.99,96.39L444.56,95.12L445.13,96.39L447.39,95.5L447.96,95.5L449.1,93.6L449.66,93.34L451.36,90.67L451.93,90.54L453.63,90.16L454.2,89.4L455.33,88.76L455.9,88.89L457.03,87.49L457.6,86.86L459.87,85.97L460.44,86.35L461,85.84L461.57,86.48L462.71,83.3L463.28,83.55L463.84,83.55L465.54,83.04L466.11,81.9L469.51,79.86L470.08,79.48L471.21,79.1L471.78,78.72L474.62,76.3L475.18,76.69L479.15,74.78L479.72,73.76L481.42,71.47L481.99,70.71L482.56,70.96L483.12,69.31L484.26,67.53L484.82,68.17L490.49,64.86L491.06,64.86L491.63,65.12L492.2,34.08L496.73,30.75L497.3,30.88L499,30.62L499.57,30.24L501.84,31.01L502.41,31.01L506.94,30.75L507.51,30.62L517.15,30.62L517.72,31.01L519.98,30.49L520.55,30.62L521.12,29.72L521.69,30.88L522.82,29.98L523.39,29.08L525.66,27.93L526.22,28.31L527.92,26.52L528.49,26.77L529.06,26L529.63,23.82L530.19,23.82L530.76,22.8L531.33,23.44L531.89,22.67L533.03,21.13L533.59,19.59L534.16,18.95L534.73,19.98L535.86,17.28L536.43,17.54L537,16" style="vector-effect: non-scaling-stroke; fill: none; stroke: rgb(99, 110, 250); stroke-opacity: 1; stroke-width: 2px; opacity: 1;"/></g><g class="points"/><g class="text"/></g></g></g><g class="overplot"/><path class="xlines-above crisp" d="M0,0" style="fill: none;"/><path class="ylines-above crisp" d="M0,0" style="fill: none;"/><g class="overlines-above"/><g class="xaxislayer-above"><g class="xtick"><text text-anchor="middle" x="0" y="433" transform="translate(82.12,0)" style="font-family: 'Open Sans', verdana, arial, sans-serif; font-size: 12px; fill: rgb(42, 63, 95); fill-opacity: 1; white-space: pre;"><tspan class="line" dy="0em" x="0" y="433">Aug 3</tspan><tspan class="line" dy="1.3em" x="0" y="433">2021</tspan></text></g><g class="xtick"><text text-anchor="middle" x="0" y="433" transform="translate(163.78,0)" style="font-family: 'Open Sans', verdana, arial, sans-serif; font-size: 12px; fill: rgb(42, 63, 95); fill-opacity: 1; white-space: pre;">Aug 4</text></g><g class="xtick"><text text-anchor="middle" x="0" y="433" transform="translate(245.45,0)" style="font-family: 'Open Sans', verdana, arial, sans-serif; font-size: 12px; fill: rgb(42, 63, 95); fill-opacity: 1; white-space: pre;">Aug 5</text></g><g class="xtick"><text text-anchor="middle" x="0" y="433" transform="translate(327.11,0)" style="font-family: 'Open Sans', verdana, arial, sans-serif; font-size: 12px; fill: rgb(42, 63, 95); fill-opacity: 1; white-space: pre;">Aug 6</text></g><g class="xtick"><text text-anchor="middle" x="0" y="433" transform="translate(408.78,0)" style="font-family: 'Open Sans', verdana, arial, sans-serif; font-size: 12px; fill: rgb(42, 63, 95); fill-opacity: 1; white-space: pre;">Aug 7</text></g><g class="xtick"><text text-anchor="middle" x="0" y="433" transform="translate(490.44,0)" style="font-family: 'Open Sans', verdana, arial, sans-serif; font-size: 12px; fill: rgb(42, 63, 95); fill-opacity: 1; white-space: pre;">Aug 8</text></g><g class="xtick"><text text-anchor="middle" x="0" y="433" transform="translate(572.11,0)" style="font-family: 'Open Sans', verdana, arial, sans-serif; font-size: 12px; fill: rgb(42, 63, 95); fill-opacity: 1; white-space: pre;">Aug 9</text></g></g><g class="yaxislayer-above"><g class="ytick"><text text-anchor="end" x="79" y="4.199999999999999" transform="translate(0,393.62)" style="font-family: 'Open Sans', verdana, arial, sans-serif; font-size: 12px; fill: rgb(42, 63, 95); fill-opacity: 1; white-space: pre;">0.864</text></g><g class="ytick"><text text-anchor="end" x="79" y="4.199999999999999" transform="translate(0,354.85)" style="font-family: 'Open Sans', verdana, arial, sans-serif; font-size: 12px; fill: rgb(42, 63, 95); fill-opacity: 1; white-space: pre;">0.865</text></g><g class="ytick"><text text-anchor="end" x="79" y="4.199999999999999" transform="translate(0,316.07)" style="font-family: 'Open Sans', verdana, arial, sans-serif; font-size: 12px; fill: rgb(42, 63, 95); fill-opacity: 1; white-space: pre;">0.866</text></g><g class="ytick"><text text-anchor="end" x="79" y="4.199999999999999" transform="translate(0,277.3)" style="font-family: 'Open Sans', verdana, arial, sans-serif; font-size: 12px; fill: rgb(42, 63, 95); fill-opacity: 1; white-space: pre;">0.867</text></g><g class="ytick"><text text-anchor="end" x="79" y="4.199999999999999" transform="translate(0,238.52)" style="font-family: 'Open Sans', verdana, arial, sans-serif; font-size: 12px; fill: rgb(42, 63, 95); fill-opacity: 1; white-space: pre;">0.868</text></g><g class="ytick"><text text-anchor="end" x="79" y="4.199999999999999" transform="translate(0,199.75)" style="font-family: 'Open Sans', verdana, arial, sans-serif; font-size: 12px; fill: rgb(42, 63, 95); fill-opacity: 1; white-space: pre;">0.869</text></g><g class="ytick"><text text-anchor="end" x="79" y="4.199999999999999" transform="translate(0,160.97)" style="font-family: 'Open Sans', verdana, arial, sans-serif; font-size: 12px; fill: rgb(42, 63, 95); fill-opacity: 1; white-space: pre;">0.87</text></g><g class="ytick"><text text-anchor="end" x="79" y="4.199999999999999" transform="translate(0,122.2)" style="font-family: 'Open Sans', verdana, arial, sans-serif; font-size: 12px; fill: rgb(42, 63, 95); fill-opacity: 1; white-space: pre;">0.871</text></g></g><g class="overaxes-above"/></g></g><g class="polarlayer"/><g class="ternarylayer"/><g class="geolayer"/><g class="funnelarealayer"/><g class="pielayer"/><g class="treemaplayer"/><g class="sunburstlayer"/><g class="glimages"/><defs id="topdefs-812ea7"><g class="clips"/><clipPath id="legend812ea7"><rect width="60" height="45" x="0" y="0"/></clipPath></defs><g class="layer-above"><g class="imagelayer"/><g class="shapelayer"/></g><g class="infolayer"><g class="legend" pointer-events="all" transform="translate(627.74,100)"><rect class="bg" shape-rendering="crispEdges" width="60" height="45" x="0" y="0" style="stroke: rgb(68, 68, 68); stroke-opacity: 1; fill: rgb(255, 255, 255); fill-opacity: 1; stroke-width: 0px;"/><g class="scrollbox" transform="" clip-path="url('#legend812ea7')"><text class="legendtitletext" text-anchor="start" x="2" y="15.600000000000001" style="font-family: 'Open Sans', verdana, arial, sans-serif; font-size: 12px; fill: rgb(42, 63, 95); fill-opacity: 1; white-space: pre;">All</text><g class="groups" transform=""><g class="traces" transform="translate(0,30.1)" style="opacity: 1;"><text class="legendtext" text-anchor="start" x="40" y="4.680000000000001" style="font-family: 'Open Sans', verdana, arial, sans-serif; font-size: 12px; fill: rgb(42, 63, 95); fill-opacity: 1; white-space: pre;">All</text><g class="layers" style="opacity: 1;"><g class="legendfill"/><g class="legendlines"><path class="js-line" d="M5,0h30" style="fill: none; stroke: rgb(99, 110, 250); stroke-opacity: 1; stroke-width: 2px;"/></g><g class="legendsymbols"><g class="legendpoints"/></g></g><rect class="legendtoggle" x="0" y="-9.5" width="54.890625" height="19" style="fill: rgb(0, 0, 0); fill-opacity: 0;"/></g></g></g><rect class="scrollbar" rx="20" ry="3" width="0" height="0" x="0" y="0" style="fill: rgb(128, 139, 164); fill-opacity: 1;"/></g><g class="g-gtitle"><text class="gtitle" x="35" y="50" text-anchor="start" dy="0em" style="font-family: 'Open Sans', verdana, arial, sans-serif; font-size: 17px; fill: rgb(42, 63, 95); opacity: 1; font-weight: normal; white-space: pre;">Singapore Vaccination Centers</text></g><g class="g-xtitle"><text class="xtitle" x="348.5" y="476.409375" text-anchor="middle" style="font-family: 'Open Sans', verdana, arial, sans-serif; font-size: 14px; fill: rgb(42, 63, 95); opacity: 1; font-weight: normal; white-space: pre;">Time</text></g><g class="g-ytitle"><text class="ytitle" transform="rotate(-90,19.840625000000003,260)" x="19.840625000000003" y="260" text-anchor="middle" style="font-family: 'Open Sans', verdana, arial, sans-serif; font-size: 14px; fill: rgb(42, 63, 95); opacity: 1; font-weight: normal; white-space: pre;">Filled/%</text></g></g></svg>