<svg class="main-svg" xmlns="http://www.w3.org/2000/svg" xmlns:xlink="http://www.w3.org/1999/xlink" width="700" height="500" style="" viewBox="0 0 700 500"><rect x="0" y="0" width="700" height="500" style="fill: rgb(255, 255, 255); fill-opacity: 1;"/><defs id="defs-e92e56"><g class="clips"><clipPath id="clipe92e56xyplot" class="plotclip"><rect width="537" height="320"/></clipPath><clipPath class="axesclip" id="clipe92e56x"><rect x="80" y="0" width="537" height="500"/></clipPath><clipPath class="axesclip" id="clipe92e56y"><rect x="0" y="100" width="700" height="320"/></clipPath><clipPath class="axesclip" id="clipe92e56xy"><rect x="80" y="100" width="537" height="320"/></clipPath></g><g class="gradients"/></defs><g class="bglayer"><rect class="bg" x="80" y="100" width="537" height="320" style="fill: rgb(229, 236, 246); fill-opacity: 1; stroke-width: 0;"/></g><g class="layer-below"><g class="imagelayer"/><g class="shapelayer"/></g><g class="cartesianlayer"><g class="subplot xy"><g class="layer-subplot"><g class="shapelayer"/><g class="imagelayer"/></g><g class="gridlayer"><g class="x"><path class="xgrid crisp" transform="translate(89.27,0)" d="M0,100v320" style="stroke: rgb(255, 255, 255); stroke-opacity: 1; stroke-width: 1px;"/><path class="xgrid crisp" transform="translate(189.12,0)" d="M0,100v320" style="stroke: rgb(255, 255, 255); stroke-opacity: 1; stroke-width: 1px;"/><path class="xgrid crisp" transform="translate(288.97,0)" d="M0,100v320" style="stroke: rgb(255, 255, 255); stroke-opacity: 1; stroke-width: 1px;"/><path class="xgrid crisp" transform="translate(388.82,0)" d="M0,100v320" style="stroke: rgb(255, 255, 255); stroke-opacity: 1; stroke-width: 1px;"/><path class="xgrid crisp" transform="translate(488.68,0)" d="M0,100v320" style="stroke: rgb(255, 255, 255); stroke-opacity: 1; stroke-width: 1px;"/><path class="xgrid crisp" transform="translate(588.53,0)" d="M0,100v320" style="stroke: rgb(255, 255, 255); stroke-opacity: 1; stroke-width: 1px;"/></g><g class="y"><path class="ygrid crisp" transform="translate(0,367.23)" d="M80,0h537" style="stroke: rgb(255, 255, 255); stroke-opacity: 1; stroke-width: 1px;"/><path class="ygrid crisp" transform="translate(0,308.43)" d="M80,0h537" style="stroke: rgb(255, 255, 255); stroke-opacity: 1; stroke-width: 1px;"/><path class="ygrid crisp" transform="translate(0,249.63)" d="M80,0h537" style="stroke: rgb(255, 255, 255); stroke-opacity: 1; stroke-width: 1px;"/><path class="ygrid crisp" transform="translate(0,190.82999999999998)" d="M80,0h537" style="stroke: rgb(255, 255, 255); stroke-opacity: 1; stroke-width: 1px;"/><path class="ygrid crisp" transform="translate(0,132.03)" d="M80,0h537" style="stroke: rgb(255, 255, 255); stroke-opacity: 1; stroke-width: 1px;"/></g></g><g class="zerolinelayer"/><path class="xlines-below"/><path class="ylines-below"/><g class="overlines-below"/><g class="xaxislayer-below"/><g class="yaxislayer-below"/><g class="overaxes-below"/><g class="plot" transform="translate(80,100)" clip-path="url('#clipe92e56xyplot')"><g class="scatterlayer mlayer"><g class="trace scatter trace9bf8ca" style="stroke-miterlimit: 2; opacity: 1;"><g class="fills"/><g class="errorbars"/><g class="lines"><path class="js-line" d="M0,82.28L5.86,82.51L7.93,120.48L12.07,120.57L13.61,136.92L14.25,136.9L29.57,137.96L30.52,121.23L30.81,129.62L31.5,129.56L32.89,126.37L33.58,126.27L34.97,129.79L35.66,129.7L37.05,132.71L37.74,132.63L39.13,120.69L39.83,120.62L41.21,132.64L41.91,132.55L43.29,126.68L46.07,109.51L47.45,94.58L48.14,92.89L49.53,74.17L50.22,72.87L51.61,78.78L52.3,77.73L53.69,63.68L54.38,62.82L55.77,65.47L56.46,64.83L57.85,74.27L58.55,73.83L59.46,51.83L60.63,52.34L61.32,52.21L68.95,51.78L69.64,51.77L77.96,51.11L78.65,50.91L102.23,42.44L102.92,42.24L108.47,40.95L109.17,41.79L120.95,41.47L121.65,41.46L132.04,40.8L132.74,40.69L158.39,36.83L159.09,35.53L186.13,34L186.83,33.87L208.32,31.05L209.02,28.56L232.59,27.81L233.29,95.38L240.94,93.57L241.61,93.44L242.3,93.12L242.99,91.51L246.46,84.67L247.16,79.63L249.24,73.59L249.93,72.39L254.09,67.88L254.78,67.37L258.25,65.43L258.94,65.5L263.8,64.8L264.49,64.77L279.75,63.66L280.44,63.48L285.29,61.32L285.99,60.89L286.68,60.46L287.37,62.78L290.15,61.15L290.84,59.94L295,53.24L295.69,52.44L298.47,47.98L299.16,45.51L301.93,38.66L302.63,37.65L306.79,32.89L307.51,32.47L309.56,31.98L310.26,31.8L315.8,31.18L316.5,31.16L326.9,30.17L327.59,29.9L331.75,28.09L332.44,74.81L334.52,72.76L335.22,72.32L341.46,69.16L342.15,68.8L342.69,71.93L342.85,68.39L343.51,68.25L343.54,69.25L344.2,67.95L344.24,68.94L344.93,68.62L346.32,68.09L347.01,76.43L353.08,73.91L353.11,72.31L353.14,72.03L353.25,73.74L359.84,44.74L360.18,44.87L360.53,41.95L361.22,42.12L361.57,43.2L362.61,37.43L362.96,41.6L363.99,39.66L364.34,39.05L365.38,38.13L365.73,38.96L366.77,38.42L367.12,38.33L367.81,38.4L368.16,43.02L371.97,41.69L372.32,36.5L373.01,35.76L373.36,35.39L375.09,31.97L375.44,32.01L377.52,22.43L377.86,16L378.21,16.8L378.56,140.18L378.9,139.22L379.25,142.07L379.94,136.79L380.29,138.99L380.64,137.43L380.99,136.15L381.33,136.63L381.68,141.25L382.02,146.68L382.37,133.42L383.06,138.09L383.41,157.2L384.45,133.53L384.8,145.44L385.14,148.42L385.49,146.68L385.84,144.02L386.53,134.36L386.88,135.71L387.22,141.84L387.57,146.05L387.92,142.1L388.26,141.74L388.61,151.77L388.96,141.68L389.3,140.84L389.65,148.68L390,138.39L390.34,127.07L390.69,137.58L391.04,139.13L391.39,140.49L391.73,138.92L392.08,134.18L393.12,129.31L393.46,138.25L393.81,134.05L394.16,138.68L394.51,138.81L395.2,131.42L395.54,140.05L396.24,132.48L396.59,138.41L397.28,141.46L397.63,128.79L398.32,142.96L398.67,264.58L399.71,293.12L400.05,304L400.4,286.22L400.75,301.52L401.09,291.75L401.44,292.1L401.79,291.07L402.14,294.16L402.48,293.46L402.83,276.02L403.17,283.67L403.52,262.28L404.21,272.54L404.56,248.89L405.25,241.71L405.6,229.6L405.95,224.98L406.29,228.24L406.64,227.36L407.68,215.22L408.03,217.06L408.37,216.4L409.41,228.38L409.76,228.68L410.11,224.72L410.45,233.57L410.8,224.28L411.15,225.36L411.49,227.75L411.84,223.07L412.19,225.77L412.53,226.33L412.88,223.26L413.23,224.52L413.58,234.01L413.92,220.81L414.27,231.91L414.62,224.2L416.7,212.72L417.04,220.76L417.74,220.72L418.08,223.7L418.43,223.67L418.77,219.37L419.12,223.08L419.47,218.62L419.81,226.76L420.16,225.2L420.51,224.19L420.86,219.51L421.2,225.16L422.24,225.11L422.59,216.49L422.94,225.05L423.28,220.43L423.63,220.57L423.97,218.19L424.32,220.92L424.67,219.84L425.01,227.36L425.36,216.65L426.4,220.31L426.75,220.98L427.09,218.78L427.44,222.11L427.79,223.64L428.13,218.66L428.48,205.85L428.83,215.25L429.18,220.32L429.52,206.18L429.87,206.81L430.21,214.16L430.56,214.11L430.91,206.99L431.61,212.47L431.95,202.23L432.3,199.24L432.65,208.71L432.99,224.84L433.33,215.2L433.68,214.49L434.03,205.74L434.38,219.6L435.07,195.82L435.42,209.77L436.46,202.05L436.8,205.17L437.15,200.81L437.5,208.16L437.84,206.35L438.19,209.96L438.54,207.44L438.88,196.45L439.23,195.36L439.58,196.45L439.92,201.41L440.96,210.92L441.31,197.09L441.66,197.31L442,191.05L442.35,191.24L442.7,196.07L443.04,200.65L443.39,194.37L444.43,210.5L444.78,204.27L445.47,191.94L445.82,193.62L446.16,197L446.51,205.03L446.86,197.14L447.2,198.57L448.59,184.28L448.94,189.51L449.63,194.59L449.98,189.23L450.32,191.91L450.67,189.81L451.02,182.31L451.37,187.7L451.71,187L452.06,183.28L452.4,186.18L452.75,185.69L453.1,181.61L453.45,182.61L453.8,186.54L454.49,187.68L454.83,186.58L455.18,181.49L455.52,187.81L456.22,185.81L456.57,187.22L457.26,187L457.61,190.98L457.96,190.65L458.3,194.82L458.65,189.57L458.99,183.36L459.34,189.2L459.69,186.45L460.73,187.85L461.07,183.53L462.12,187.65L462.46,184.59L463.15,184.25L463.5,185.71L464.54,187.29L464.89,197.68L465.23,197.68L465.58,195.53L465.93,195.52L466.27,190.33L466.62,190.33L466.97,186.49L468.36,194.95L468.7,194.95L469.05,195.4L469.39,193.58L469.74,193.58L470.09,187.5L470.78,187.5L471.13,190.84L472.17,186.75L472.51,187.03L472.86,187.03L473.21,188.23L475.98,181.13L476.33,187.27L476.67,190.9L477.02,187.7L477.37,181.79L477.71,180.91L478.06,182.93L478.41,184.81L478.75,179.55L479.45,190.44L479.79,182.8L480.15,183.07L480.49,174.64L481.53,185.09L481.87,181.21L482.22,181.99L482.57,185.79L482.91,171.39L483.26,177.83L483.61,175.21L483.95,180.5L484.3,179.53L484.65,177.22L486.03,187.84L486.38,182.58L486.73,175.16L487.08,180.33L487.42,178.23L488.11,176.4L488.46,185.95L488.81,175.93L489.15,196.82L490.2,173.22L490.54,177.47L490.89,180.21L491.23,180.03L491.58,179.15L492.27,179.35L492.62,181.21L494.01,176.9L494.36,176.97L495.05,169.69L495.4,173.52L495.74,176.28L496.09,172.21L496.44,173.97L496.78,171L497.48,180.19L497.82,175.33L498.17,171.32L499.21,183.64L499.56,176L500.6,181.54L500.94,176.71L501.29,173.38L501.64,176.61L501.98,186.68L502.33,171.47L502.68,173.34L503.02,176.71L503.37,180.06L503.72,191.51L504.41,169.64L504.76,179.24L505.11,185.08L505.45,178.84L505.8,180.35L506.49,173.52L507.06,177.41L507.88,172.35L508.22,176.21L508.57,178.87L508.92,178.77L509.27,176.54L510.3,180.35L510.65,181.62L511,181.6L511.35,184.49L511.69,177.62L512.04,178.94L512.39,178.93L512.73,178.92L513.08,174.71L513.77,182.31L514.12,181.81L514.47,181.81L514.81,181.29L515.16,185.14L515.85,181.68L516.2,185.76L516.89,177.83L517.24,178.11L517.59,178.11L518.97,178.1L519.32,181.35L520.36,177.13L520.71,180.97L521.05,182.3L521.4,178.08L521.75,173.89L522.09,174.32L522.44,178.07L522.79,178.06L523.13,182.07L523.48,173.86L523.83,174.82L524.17,179.2L524.87,175.06L525.21,180.13L525.91,171.51L526.25,183.74L526.6,184.31L526.95,181.03L527.29,176.05L527.64,182.38L527.99,173.59L528.33,174.64L528.68,179.55L529.03,177.66L529.37,183.56L530.41,174.61L530.76,173.28L531.8,177.46L532.15,174.3L532.49,174.68L532.85,176.52L533.19,174.45L533.53,184.13L533.88,183.4L534.23,178.51L534.57,178.68L534.92,173.73L535.27,179.49L535.61,178.98L535.96,177.09L536.65,170.34L537,171.78" style="vector-effect: non-scaling-stroke; fill: none; stroke: rgb(99, 110, 250); stroke-opacity: 1; stroke-width: 2px; opacity: 1;"/></g><g class="points"/><g class="text"/></g></g></g><g class="overplot"/><path class="xlines-above crisp" d="M0,0" style="fill: none;"/><path class="ylines-above crisp" d="M0,0" style="fill: none;"/><g class="overlines-above"/><g class="xaxislayer-above"><g class="xtick"><text text-anchor="middle" x="0" y="433" transform="translate(89.27,0)" style="font-family: 'Open Sans', verdana, arial, sans-serif; font-size: 12px; fill: rgb(42, 63, 95); fill-opacity: 1; white-space: pre;"><tspan class="line" dy="0em" x="0" y="433">Jun 4</tspan><tspan class="line" dy="1.3em" x="0" y="433">2021</tspan></text></g><g class="xtick"><text text-anchor="middle" x="0" y="433" transform="translate(189.12,0)" style="font-family: 'Open Sans', verdana, arial, sans-serif; font-size: 12px; fill: rgb(42, 63, 95); fill-opacity: 1; white-space: pre;">Jun 6</text></g><g class="xtick"><text text-anchor="middle" x="0" y="433" transform="translate(288.97,0)" style="font-family: 'Open Sans', verdana, arial, sans-serif; font-size: 12px; fill: rgb(42, 63, 95); fill-opacity: 1; white-space: pre;">Jun 8</text></g><g class="xtick"><text text-anchor="middle" x="0" y="433" transform="translate(388.82,0)" style="font-family: 'Open Sans', verdana, arial, sans-serif; font-size: 12px; fill: rgb(42, 63, 95); fill-opacity: 1; white-space: pre;">Jun 10</text></g><g class="xtick"><text text-anchor="middle" x="0" y="433" transform="translate(488.68,0)" style="font-family: 'Open Sans', verdana, arial, sans-serif; font-size: 12px; fill: rgb(42, 63, 95); fill-opacity: 1; white-space: pre;">Jun 12</text></g><g class="xtick"><text text-anchor="middle" x="0" y="433" transform="translate(588.53,0)" style="font-family: 'Open Sans', verdana, arial, sans-serif; font-size: 12px; fill: rgb(42, 63, 95); fill-opacity: 1; white-space: pre;">Jun 14</text></g></g><g class="yaxislayer-above"><g class="ytick"><text text-anchor="end" x="79" y="4.199999999999999" transform="translate(0,367.23)" style="font-family: 'Open Sans', verdana, arial, sans-serif; font-size: 12px; fill: rgb(42, 63, 95); fill-opacity: 1; white-space: pre;">0.8</text></g><g class="ytick"><text text-anchor="end" x="79" y="4.199999999999999" transform="translate(0,308.43)" style="font-family: 'Open Sans', verdana, arial, sans-serif; font-size: 12px; fill: rgb(42, 63, 95); fill-opacity: 1; white-space: pre;">0.82</text></g><g class="ytick"><text text-anchor="end" x="79" y="4.199999999999999" transform="translate(0,249.63)" style="font-family: 'Open Sans', verdana, arial, sans-serif; font-size: 12px; fill: rgb(42, 63, 95); fill-opacity: 1; white-space: pre;">0.84</text></g><g class="ytick"><text text-anchor="end" x="79" y="4.199999999999999" transform="translate(0,190.82999999999998)" style="font-family: 'Open Sans', verdana, arial, sans-serif; font-size: 12px; fill: rgb(42, 63, 95); fill-opacity: 1; white-space: pre;">0.86</text></g><g class="ytick"><text text-anchor="end" x="79" y="4.199999999999999" transform="translate(0,132.03)" style="font-family: 'Open Sans', verdana, arial, sans-serif; font-size: 12px; fill: rgb(42, 63, 95); fill-opacity: 1; white-space: pre;">0.88</text></g></g><g class="overaxes-above"/></g></g><g class="polarlayer"/><g class="ternarylayer"/><g class="geolayer"/><g class="funnelarealayer"/><g class="pielayer"/><g class="treemaplayer"/><g class="sunburstlayer"/><g class="glimages"/><defs id="topdefs-e92e56"><g class="clips"/><clipPath id="legende92e56"><rect width="60" height="45" x="0" y="0"/></clipPath></defs><g class="layer-above"><g class="imagelayer"/><g class="shapelayer"/></g><g class="infolayer"><g class="legend" pointer-events="all" transform="translate(627.74,100)"><rect class="bg" shape-rendering="crispEdges" width="60" height="45" x="0" y="0" style="stroke: rgb(68, 68, 68); stroke-opacity: 1; fill: rgb(255, 255, 255); fill-opacity: 1; stroke-width: 0px;"/><g class="scrollbox" transform="" clip-path="url('#legende92e56')"><text class="legendtitletext" text-anchor="start" x="2" y="15.600000000000001" style="font-family: 'Open Sans', verdana, arial, sans-serif; font-size: 12px; fill: rgb(42, 63, 95); fill-opacity: 1; white-space: pre;">All</text><g class="groups" transform=""><g class="traces" transform="translate(0,30.1)" style="opacity: 1;"><text class="legendtext" text-anchor="start" x="40" y="4.680000000000001" style="font-family: 'Open Sans', verdana, arial, sans-serif; font-size: 12px; fill: rgb(42, 63, 95); fill-opacity: 1; white-space: pre;">All</text><g class="layers" style="opacity: 1;"><g class="legendfill"/><g class="legendlines"><path class="js-line" d="M5,0h30" style="fill: none; stroke: rgb(99, 110, 250); stroke-opacity: 1; stroke-width: 2px;"/></g><g class="legendsymbols"><g class="legendpoints"/></g></g><rect class="legendtoggle" x="0" y="-9.5" width="54.890625" height="19" style="fill: rgb(0, 0, 0); fill-opacity: 0;"/></g></g></g><rect class="scrollbar" rx="20" ry="3" width="0" height="0" x="0" y="0" style="fill: rgb(128, 139, 164); fill-opacity: 1;"/></g><g class="g-gtitle"><text class="gtitle" x="35" y="50" text-anchor="start" dy="0em" style="font-family: 'Open Sans', verdana, arial, sans-serif; font-size: 17px; fill: rgb(42, 63, 95); opacity: 1; font-weight: normal; white-space: pre;">Singapore Vaccination Centers</text></g><g class="g-xtitle"><text class="xtitle" x="348.5" y="476.409375" text-anchor="middle" style="font-family: 'Open Sans', verdana, arial, sans-serif; font-size: 14px; fill: rgb(42, 63, 95); opacity: 1; font-weight: normal; white-space: pre;">Time</text></g><g class="g-ytitle"><text class="ytitle" transform="rotate(-90,27.481250000000003,260)" x="27.481250000000003" y="260" text-anchor="middle" style="font-family: 'Open Sans', verdana, arial, sans-serif; font-size: 14px; fill: rgb(42, 63, 95); opacity: 1; font-weight: normal; white-space: pre;">Filled/%</text></g></g></svg>