<svg class="main-svg" xmlns="http://www.w3.org/2000/svg" xmlns:xlink="http://www.w3.org/1999/xlink" width="700" height="500" style="" viewBox="0 0 700 500"><rect x="0" y="0" width="700" height="500" style="fill: rgb(255, 255, 255); fill-opacity: 1;"/><defs id="defs-e67758"><g class="clips"><clipPath id="clipe67758xyplot" class="plotclip"><rect width="537" height="320"/></clipPath><clipPath class="axesclip" id="clipe67758x"><rect x="80" y="0" width="537" height="500"/></clipPath><clipPath class="axesclip" id="clipe67758y"><rect x="0" y="100" width="700" height="320"/></clipPath><clipPath class="axesclip" id="clipe67758xy"><rect x="80" y="100" width="537" height="320"/></clipPath></g><g class="gradients"/></defs><g class="bglayer"><rect class="bg" x="80" y="100" width="537" height="320" style="fill: rgb(229, 236, 246); fill-opacity: 1; stroke-width: 0;"/></g><g class="layer-below"><g class="imagelayer"/><g class="shapelayer"/></g><g class="cartesianlayer"><g class="subplot xy"><g class="layer-subplot"><g class="shapelayer"/><g class="imagelayer"/></g><g class="gridlayer"><g class="x"><path class="xgrid crisp" transform="translate(90.35,0)" d="M0,100v320" style="stroke: rgb(255, 255, 255); stroke-opacity: 1; stroke-width: 1px;"/><path class="xgrid crisp" transform="translate(201.87,0)" d="M0,100v320" style="stroke: rgb(255, 255, 255); stroke-opacity: 1; stroke-width: 1px;"/><path class="xgrid crisp" transform="translate(313.38,0)" d="M0,100v320" style="stroke: rgb(255, 255, 255); stroke-opacity: 1; stroke-width: 1px;"/><path class="xgrid crisp" transform="translate(424.9,0)" d="M0,100v320" style="stroke: rgb(255, 255, 255); stroke-opacity: 1; stroke-width: 1px;"/><path class="xgrid crisp" transform="translate(536.4100000000001,0)" d="M0,100v320" style="stroke: rgb(255, 255, 255); stroke-opacity: 1; stroke-width: 1px;"/></g><g class="y"><path class="ygrid crisp" transform="translate(0,367.23)" d="M80,0h537" style="stroke: rgb(255, 255, 255); stroke-opacity: 1; stroke-width: 1px;"/><path class="ygrid crisp" transform="translate(0,308.43)" d="M80,0h537" style="stroke: rgb(255, 255, 255); stroke-opacity: 1; stroke-width: 1px;"/><path class="ygrid crisp" transform="translate(0,249.63)" d="M80,0h537" style="stroke: rgb(255, 255, 255); stroke-opacity: 1; stroke-width: 1px;"/><path class="ygrid crisp" transform="translate(0,190.82999999999998)" d="M80,0h537" style="stroke: rgb(255, 255, 255); stroke-opacity: 1; stroke-width: 1px;"/><path class="ygrid crisp" transform="translate(0,132.03)" d="M80,0h537" style="stroke: rgb(255, 255, 255); stroke-opacity: 1; stroke-width: 1px;"/></g></g><g class="zerolinelayer"/><path class="xlines-below"/><path class="ylines-below"/><g class="overlines-below"/><g class="xaxislayer-below"/><g class="yaxislayer-below"/><g class="overaxes-below"/><g class="plot" transform="translate(80,100)" clip-path="url('#clipe67758xyplot')"><g class="scatterlayer mlayer"><g class="trace scatter trace29edc2" style="stroke-miterlimit: 2; opacity: 1;"><g class="fills"/><g class="errorbars"/><g class="lines"><path class="js-line" d="M0,82.28L6.54,82.51L8.86,120.48L13.48,120.57L15.19,136.92L15.92,136.9L33.02,137.96L34.08,121.23L34.41,129.62L35.18,129.56L36.73,126.37L37.51,126.27L39.06,129.79L39.83,129.7L41.38,132.71L42.15,132.63L43.7,120.69L44.48,120.62L46.02,132.64L46.8,132.55L48.35,126.68L50.67,113.21L51.45,109.51L55.32,74.17L56.09,72.87L57.64,78.78L58.41,77.73L60.74,62.82L62.29,65.47L63.06,64.83L64.61,74.27L65.38,73.83L66.41,51.83L67.71,52.34L68.48,52.21L77.77,51.77L78.55,51.77L87.84,50.91L88.61,50.65L115.72,42.03L116.49,41.83L121.14,40.95L121.92,41.79L135.08,41.47L135.85,41.46L147.47,40.8L148.24,40.69L176.9,36.83L177.67,35.53L207.87,34L208.65,33.87L232.66,31.05L233.43,28.56L259.76,27.81L260.54,95.38L269.08,93.57L269.83,93.44L270.61,93.12L271.38,91.51L273.7,88.51L274.48,87.52L278.35,73.59L279.12,72.39L283.77,67.88L284.54,67.37L288.42,65.43L289.19,65.5L294.61,64.8L295.39,64.77L312.42,63.66L313.2,63.48L318.62,61.32L319.39,60.89L320.17,60.46L320.94,62.78L324.04,61.15L324.81,59.94L329.46,53.24L330.23,52.44L333.33,47.98L334.11,45.51L337.2,38.66L337.98,37.65L341.85,33.5L342.62,32.89L345.72,31.98L346.5,31.8L352.69,31.18L353.47,31.16L365.08,30.17L365.86,29.9L370.5,28.09L371.28,74.81L372.83,73.22L373.6,72.76L382.12,68.8L382.71,71.93L383.63,68.25L383.67,69.25L384.41,67.95L384.44,68.94L385.22,68.62L386.77,68.09L387.54,76.43L394.32,73.91L394.35,72.31L394.39,72.03L394.51,73.74L401.87,44.74L402.25,44.87L402.64,41.95L403.42,42.12L403.8,43.2L404.96,37.43L405.35,41.6L406.51,39.66L406.9,39.05L408.06,38.13L408.45,38.96L408.84,38.26L409.22,38.53L409.61,38.42L410.78,38.4L411.16,43.02L415.42,41.69L415.81,36.5L416.58,35.76L416.97,35.39L418.13,33.79L418.52,33.41L421.61,22.43L422,16L422.39,16.8L422.78,140.18L423.16,139.22L423.55,142.07L424.32,136.79L424.71,138.99L425.49,136.15L425.88,136.63L426.26,141.25L426.65,146.68L427.04,133.42L427.81,138.09L428.2,157.2L429.36,133.53L429.74,145.44L430.13,148.42L430.52,146.68L430.91,144.02L431.68,134.36L432.07,135.71L432.45,141.84L432.84,146.05L433.23,142.1L433.62,141.74L434,151.77L434.78,140.84L435.16,148.68L435.94,127.07L436.33,137.58L437.1,140.49L437.49,138.92L438.26,130.34L438.65,131.67L439.04,129.31L439.42,138.25L439.81,134.05L440.2,138.68L440.59,138.81L440.97,131.49L441.36,131.42L441.75,140.05L442.52,132.48L442.91,138.41L443.69,141.46L444.07,128.79L444.85,142.96L445.24,264.58L446.4,293.12L446.78,304L447.17,286.22L447.56,301.52L447.94,291.75L448.33,292.1L448.72,291.07L449.11,294.16L449.49,293.46L449.88,276.02L450.27,283.67L450.66,262.28L451.43,272.54L451.82,248.89L452.59,241.71L452.98,229.6L453.37,224.98L453.75,228.24L454.14,227.36L455.3,215.22L455.69,217.06L456.07,216.4L456.46,227.08L456.85,226.08L457.24,228.38L457.63,228.68L458.01,224.72L458.4,233.57L458.79,224.28L459.56,227.75L459.95,223.07L460.72,226.33L461.11,223.26L461.5,224.52L461.88,234.01L462.27,220.81L462.66,231.91L463.05,224.2L465.37,212.72L465.76,220.76L466.53,220.72L466.92,223.7L467.31,223.67L467.69,219.37L468.08,223.08L468.47,218.62L468.85,226.76L469.24,225.2L469.63,224.19L470.02,219.51L470.4,225.16L471.56,225.11L471.95,216.49L472.34,225.05L472.73,220.43L473.11,220.57L473.5,218.19L473.89,220.92L474.28,219.84L474.66,227.36L475.05,216.65L475.43,220.1L475.82,220.01L476.6,220.98L476.98,218.78L477.76,223.64L478.14,218.66L478.53,205.85L478.92,215.25L479.31,220.32L479.7,206.18L480.08,206.81L480.47,214.16L480.86,214.11L481.24,206.99L482.02,212.47L482.41,202.23L482.8,199.24L483.18,208.71L483.57,224.84L483.95,215.2L484.34,214.49L484.73,205.74L485.11,219.6L485.89,195.82L486.28,209.77L486.66,208.24L487.05,203.32L487.44,202.05L487.82,205.17L488.21,200.81L488.6,208.16L488.99,206.35L489.37,209.96L489.76,207.44L490.15,196.45L490.53,195.36L490.92,196.45L491.31,201.41L492.47,210.92L492.86,197.09L493.24,197.31L493.63,191.05L494.02,191.24L494.41,196.07L494.8,200.65L495.18,194.37L496.34,210.5L496.73,204.27L497.5,191.94L497.89,193.62L498.28,197L498.67,205.03L499.05,197.14L499.44,198.57L499.83,192.99L500.99,184.28L501.38,189.51L502.15,194.59L502.54,189.23L502.93,191.91L503.31,189.81L503.7,182.31L504.09,187.7L504.47,187L504.86,183.28L505.25,186.18L505.64,185.69L506.03,181.61L506.42,182.61L506.8,186.54L507.57,187.68L507.96,186.58L508.35,181.49L508.73,187.81L509.51,185.81L509.9,187.22L510.28,189.17L510.68,187L511.84,194.82L512.22,189.57L512.61,183.36L512.99,189.2L513.38,186.45L514.54,187.85L514.93,183.53L516.09,187.65L516.48,184.59L517.25,184.25L517.64,185.71L518.42,187.3L518.8,187.29L519.58,197.68L519.97,195.53L520.35,195.52L520.74,190.33L521.13,190.33L521.51,186.49L523.06,194.95L523.45,194.95L523.84,195.4L524.22,193.58L524.61,193.58L525,187.5L525.77,187.5L526.16,190.84L526.55,186.76L526.93,190.68L527.32,186.75L527.71,187.03L528.1,187.03L528.48,188.23L528.87,187.2L529.26,186.53L529.64,186.53L530.03,184.4L530.8,184.18L531.19,183.02L531.58,181.13L531.97,187.27L532.35,190.9L532.74,187.7L533.13,181.79L533.52,180.91L533.9,182.93L534.29,184.81L534.68,179.55L535.45,190.44L535.84,182.8L536.23,183.07L536.61,174.64L537,182.91" style="vector-effect: non-scaling-stroke; fill: none; stroke: rgb(99, 110, 250); stroke-opacity: 1; stroke-width: 2px; opacity: 1;"/></g><g class="points"/><g class="text"/></g></g></g><g class="overplot"/><path class="xlines-above crisp" d="M0,0" style="fill: none;"/><path class="ylines-above crisp" d="M0,0" style="fill: none;"/><g class="overlines-above"/><g class="xaxislayer-above"><g class="xtick"><text text-anchor="middle" x="0" y="433" transform="translate(90.35,0)" style="font-family: 'Open Sans', verdana, arial, sans-serif; font-size: 12px; fill: rgb(42, 63, 95); fill-opacity: 1; white-space: pre;"><tspan class="line" dy="0em" x="0" y="433">Jun 4</tspan><tspan class="line" dy="1.3em" x="0" y="433">2021</tspan></text></g><g class="xtick"><text text-anchor="middle" x="0" y="433" transform="translate(201.87,0)" style="font-family: 'Open Sans', verdana, arial, sans-serif; font-size: 12px; fill: rgb(42, 63, 95); fill-opacity: 1; white-space: pre;">Jun 6</text></g><g class="xtick"><text text-anchor="middle" x="0" y="433" transform="translate(313.38,0)" style="font-family: 'Open Sans', verdana, arial, sans-serif; font-size: 12px; fill: rgb(42, 63, 95); fill-opacity: 1; white-space: pre;">Jun 8</text></g><g class="xtick"><text text-anchor="middle" x="0" y="433" transform="translate(424.9,0)" style="font-family: 'Open Sans', verdana, arial, sans-serif; font-size: 12px; fill: rgb(42, 63, 95); fill-opacity: 1; white-space: pre;">Jun 10</text></g><g class="xtick"><text text-anchor="middle" x="0" y="433" transform="translate(536.4100000000001,0)" style="font-family: 'Open Sans', verdana, arial, sans-serif; font-size: 12px; fill: rgb(42, 63, 95); fill-opacity: 1; white-space: pre;">Jun 12</text></g></g><g class="yaxislayer-above"><g class="ytick"><text text-anchor="end" x="79" y="4.199999999999999" transform="translate(0,367.23)" style="font-family: 'Open Sans', verdana, arial, sans-serif; font-size: 12px; fill: rgb(42, 63, 95); fill-opacity: 1; white-space: pre;">0.8</text></g><g class="ytick"><text text-anchor="end" x="79" y="4.199999999999999" transform="translate(0,308.43)" style="font-family: 'Open Sans', verdana, arial, sans-serif; font-size: 12px; fill: rgb(42, 63, 95); fill-opacity: 1; white-space: pre;">0.82</text></g><g class="ytick"><text text-anchor="end" x="79" y="4.199999999999999" transform="translate(0,249.63)" style="font-family: 'Open Sans', verdana, arial, sans-serif; font-size: 12px; fill: rgb(42, 63, 95); fill-opacity: 1; white-space: pre;">0.84</text></g><g class="ytick"><text text-anchor="end" x="79" y="4.199999999999999" transform="translate(0,190.82999999999998)" style="font-family: 'Open Sans', verdana, arial, sans-serif; font-size: 12px; fill: rgb(42, 63, 95); fill-opacity: 1; white-space: pre;">0.86</text></g><g class="ytick"><text text-anchor="end" x="79" y="4.199999999999999" transform="translate(0,132.03)" style="font-family: 'Open Sans', verdana, arial, sans-serif; font-size: 12px; fill: rgb(42, 63, 95); fill-opacity: 1; white-space: pre;">0.88</text></g></g><g class="overaxes-above"/></g></g><g class="polarlayer"/><g class="ternarylayer"/><g class="geolayer"/><g class="funnelarealayer"/><g class="pielayer"/><g class="treemaplayer"/><g class="sunburstlayer"/><g class="glimages"/><defs id="topdefs-e67758"><g class="clips"/><clipPath id="legende67758"><rect width="60" height="45" x="0" y="0"/></clipPath></defs><g class="layer-above"><g class="imagelayer"/><g class="shapelayer"/></g><g class="infolayer"><g class="legend" pointer-events="all" transform="translate(627.74,100)"><rect class="bg" shape-rendering="crispEdges" width="60" height="45" x="0" y="0" style="stroke: rgb(68, 68, 68); stroke-opacity: 1; fill: rgb(255, 255, 255); fill-opacity: 1; stroke-width: 0px;"/><g class="scrollbox" transform="" clip-path="url('#legende67758')"><text class="legendtitletext" text-anchor="start" x="2" y="15.600000000000001" style="font-family: 'Open Sans', verdana, arial, sans-serif; font-size: 12px; fill: rgb(42, 63, 95); fill-opacity: 1; white-space: pre;">All</text><g class="groups" transform=""><g class="traces" transform="translate(0,30.1)" style="opacity: 1;"><text class="legendtext" text-anchor="start" x="40" y="4.680000000000001" style="font-family: 'Open Sans', verdana, arial, sans-serif; font-size: 12px; fill: rgb(42, 63, 95); fill-opacity: 1; white-space: pre;">All</text><g class="layers" style="opacity: 1;"><g class="legendfill"/><g class="legendlines"><path class="js-line" d="M5,0h30" style="fill: none; stroke: rgb(99, 110, 250); stroke-opacity: 1; stroke-width: 2px;"/></g><g class="legendsymbols"><g class="legendpoints"/></g></g><rect class="legendtoggle" x="0" y="-9.5" width="54.890625" height="19" style="fill: rgb(0, 0, 0); fill-opacity: 0;"/></g></g></g><rect class="scrollbar" rx="20" ry="3" width="0" height="0" x="0" y="0" style="fill: rgb(128, 139, 164); fill-opacity: 1;"/></g><g class="g-gtitle"><text class="gtitle" x="35" y="50" text-anchor="start" dy="0em" style="font-family: 'Open Sans', verdana, arial, sans-serif; font-size: 17px; fill: rgb(42, 63, 95); opacity: 1; font-weight: normal; white-space: pre;">Singapore Vaccination Centers</text></g><g class="g-xtitle"><text class="xtitle" x="348.5" y="476.409375" text-anchor="middle" style="font-family: 'Open Sans', verdana, arial, sans-serif; font-size: 14px; fill: rgb(42, 63, 95); opacity: 1; font-weight: normal; white-space: pre;">Time</text></g><g class="g-ytitle"><text class="ytitle" transform="rotate(-90,27.481250000000003,260)" x="27.481250000000003" y="260" text-anchor="middle" style="font-family: 'Open Sans', verdana, arial, sans-serif; font-size: 14px; fill: rgb(42, 63, 95); opacity: 1; font-weight: normal; white-space: pre;">Filled/%</text></g></g></svg>