<svg class="main-svg" xmlns="http://www.w3.org/2000/svg" xmlns:xlink="http://www.w3.org/1999/xlink" width="700" height="500" style="" viewBox="0 0 700 500"><rect x="0" y="0" width="700" height="500" style="fill: rgb(255, 255, 255); fill-opacity: 1;"/><defs id="defs-2e395b"><g class="clips"><clipPath id="clip2e395bxyplot" class="plotclip"><rect width="537" height="320"/></clipPath><clipPath class="axesclip" id="clip2e395bx"><rect x="80" y="0" width="537" height="500"/></clipPath><clipPath class="axesclip" id="clip2e395by"><rect x="0" y="100" width="700" height="320"/></clipPath><clipPath class="axesclip" id="clip2e395bxy"><rect x="80" y="100" width="537" height="320"/></clipPath></g><g class="gradients"/></defs><g class="bglayer"><rect class="bg" x="80" y="100" width="537" height="320" style="fill: rgb(229, 236, 246); fill-opacity: 1; stroke-width: 0;"/></g><g class="layer-below"><g class="imagelayer"/><g class="shapelayer"/></g><g class="cartesianlayer"><g class="subplot xy"><g class="layer-subplot"><g class="shapelayer"/><g class="imagelayer"/></g><g class="gridlayer"><g class="x"><path class="xgrid crisp" transform="translate(82.82,0)" d="M0,100v320" style="stroke: rgb(255, 255, 255); stroke-opacity: 1; stroke-width: 1px;"/><path class="xgrid crisp" transform="translate(191.6,0)" d="M0,100v320" style="stroke: rgb(255, 255, 255); stroke-opacity: 1; stroke-width: 1px;"/><path class="xgrid crisp" transform="translate(300.37,0)" d="M0,100v320" style="stroke: rgb(255, 255, 255); stroke-opacity: 1; stroke-width: 1px;"/><path class="xgrid crisp" transform="translate(409.15,0)" d="M0,100v320" style="stroke: rgb(255, 255, 255); stroke-opacity: 1; stroke-width: 1px;"/><path class="xgrid crisp" transform="translate(517.9200000000001,0)" d="M0,100v320" style="stroke: rgb(255, 255, 255); stroke-opacity: 1; stroke-width: 1px;"/></g><g class="y"><path class="ygrid crisp" transform="translate(0,392.55)" d="M80,0h537" style="stroke: rgb(255, 255, 255); stroke-opacity: 1; stroke-width: 1px;"/><path class="ygrid crisp" transform="translate(0,349.77)" d="M80,0h537" style="stroke: rgb(255, 255, 255); stroke-opacity: 1; stroke-width: 1px;"/><path class="ygrid crisp" transform="translate(0,306.99)" d="M80,0h537" style="stroke: rgb(255, 255, 255); stroke-opacity: 1; stroke-width: 1px;"/><path class="ygrid crisp" transform="translate(0,264.21000000000004)" d="M80,0h537" style="stroke: rgb(255, 255, 255); stroke-opacity: 1; stroke-width: 1px;"/><path class="ygrid crisp" transform="translate(0,221.43)" d="M80,0h537" style="stroke: rgb(255, 255, 255); stroke-opacity: 1; stroke-width: 1px;"/><path class="ygrid crisp" transform="translate(0,178.65)" d="M80,0h537" style="stroke: rgb(255, 255, 255); stroke-opacity: 1; stroke-width: 1px;"/><path class="ygrid crisp" transform="translate(0,135.87)" d="M80,0h537" style="stroke: rgb(255, 255, 255); stroke-opacity: 1; stroke-width: 1px;"/></g></g><g class="zerolinelayer"/><path class="xlines-below"/><path class="ylines-below"/><g class="overlines-below"/><g class="xaxislayer-below"/><g class="yaxislayer-below"/><g class="overaxes-below"/><g class="plot" transform="translate(80,100)" clip-path="url('#clip2e395bxyplot')"><g class="scatterlayer mlayer"><g class="trace scatter trace3f60ad" style="stroke-miterlimit: 2; opacity: 1;"><g class="fills"/><g class="errorbars"/><g class="lines"><path class="js-line" d="M0,304L2.18,302.59L2.93,249.74L3.69,251.04L4.45,249.35L7.46,248.71L8.22,248.32L9.73,249.1L10.49,248.19L12,248.58L12.75,248.19L14.26,247.93L15.02,247.67L16.53,247.41L17.29,247.16L23.33,246.77L24.08,246.51L28.62,246.12L29.37,245.73L30.88,245.86L31.64,245.22L33.15,245.09L33.9,244.44L35.41,244.57L36.17,243.66L37.68,244.57L38.44,243.02L40.7,242.11L41.45,242.63L42.21,242.24L42.97,243.15L44.48,240.17L45.23,240.69L45.99,240.69L46.74,239.78L49.77,237.84L50.52,236.94L52.03,238.23L52.79,237.07L53.54,235L54.3,235.51L55.05,236.55L55.81,235L57.32,232.67L58.07,232.28L59.59,230.6L60.34,231.12L61.85,229.95L62.61,230.21L63.36,231.76L64.12,229.56L66.39,230.6L67.14,230.21L69.41,226.07L70.16,226.85L71.67,225.68L72.43,227.36L73.18,227.11L73.94,225.55L76.96,221.16L77.71,218.44L78.47,219.09L79.23,217.66L79.98,216.63L80.74,217.4L82.25,217.66L83,218.7L86.03,216.5L86.78,216.37L88.29,215.72L89.05,214.69L89.8,214.3L90.56,214.82L92.07,215.98L92.82,214.43L95.09,213.39L95.85,212.88L97.36,212.23L98.11,211.45L100.38,212.23L101.13,211.84L102.64,211.58L103.4,211.84L104.91,210.42L105.67,208.87L107.18,207.7L107.93,206.93L109.44,207.96L110.2,207.44L110.95,207.96L111.71,142.27L113.97,140.18L114.73,140.44L116.24,139.92L117,139.01L118.51,139.14L119.26,139.14L122.28,138.48L123.04,138.35L125.3,137.83L126.06,137.96L132.86,137.96L133.62,138.09L138.9,137.83L139.66,137.18L141.92,137.18L142.68,136.14L145.7,136.27L146.45,135.74L147.96,135.88L148.72,135.22L150.23,134.57L150.99,135.22L154,132.22L154.76,133.27L157.03,131.57L157.78,132.22L160.81,128.44L161.56,130.14L164.58,127.14L165.34,128.05L166.85,126.48L167.6,127.66L168.36,128.7L169.11,127.79L169.87,128.83L170.63,128.31L171.38,127.4L172.14,128.44L172.89,127.79L173.65,128.18L175.91,128.83L176.67,128.44L179.7,124.79L180.45,124.92L181.97,125.96L182.72,124.01L185.75,123.09L186.5,121.4L189.52,121.92L190.28,120.61L191.03,118.4L191.79,119.96L192.55,119.96L193.3,118.79L194.05,119.7L194.81,119.18L196.32,117.35L197.08,117.48L199.34,114.35L200.1,114.48L201.61,112.14L202.36,112.92L203.87,110.83L204.63,111.35L206.9,110.7L207.65,108.09L208.41,107.96L209.16,106.92L209.92,105.48L210.67,105.74L211.43,106L212.18,107.18L212.94,107.83L213.69,107.18L214.46,109.13L215.21,108.35L215.96,108.22L216.71,106.66L217.47,106.27L218.23,106.79L219.74,107.05L220.49,61.25L222,59.41L222.76,59.15L225.03,57.57L225.78,57.17L227.29,57.04L228.04,56.78L231.07,55.46L231.82,54.54L233.34,54.28L234.09,54.81L237.11,53.75L237.87,53.62L239.38,53.62L240.13,53.75L252.22,51.78L252.97,52.18L255.24,51.12L255.99,51.25L256.75,51.52L257.5,50.73L262.03,50.07L263.54,49.54L264.3,48.23L265.81,47.83L267.32,47.44L268.08,45.73L268.83,46.91L269.59,45.73L271.1,45.73L271.85,45.07L272.61,44.94L273.36,43.76L275.63,43.49L276.39,41.91L277.9,40.2L278.65,39.42L279.39,38.1L280.14,38.76L282.4,37.71L283.16,36L286.18,35.34L286.93,33.36L287.69,32.71L288.45,33.23L289.96,32.44L290.71,32.05L291.47,31.92L292.22,30.86L293.74,30.86L294.49,31.39L296,32.97L296.76,31.13L298.27,32.31L299.04,30.34L300.54,30.47L301.29,30.86L303.56,29.02L304.31,29.42L305.82,27.71L306.58,26.66L307.33,24.16L308.09,24.68L308.84,23.24L309.6,24.68L311.11,22.84L311.87,22.58L312.62,21.26L313.37,21.66L314.89,21.79L315.64,20.74L316.4,21.26L317.15,19.68L318.66,19.55L319.42,18.5L322.44,18.89L323.19,17.97L323.95,17.45L324.71,17.84L325.46,17.97L326.22,17.05L326.98,16L327.73,16.66L328.49,16.39L329.24,171.81L333.02,171.4L333.78,172.08L336.04,170.99L336.8,170.99L338.31,169.76L339.06,169.76L340.57,168.94L341.32,169.08L354.17,168.39L354.92,167.98L364.74,165.8L365.5,165.12L369.27,164.02L370.03,162.66L373.08,162.38L373.83,163.61L375.34,161.7L376.1,161.57L376.85,160.88L377.61,158.43L378.36,156.51L379.12,156.79L379.88,156.1L380.63,154.33L381.39,154.88L382.14,154.19L383.65,154.33L384.41,153.37L385.92,152.69L386.67,153.65L388.94,150.92L389.69,151.87L391.96,149.14L392.72,149.14L393.47,148.32L394.23,149.41L395.74,150.37L396.49,149.41L397.25,149.55L398.01,148.73L401.03,145.18L401.78,144.5L404.05,143.54L404.8,145.04L409.34,141.9L410.09,143.68L411.6,121.97L412.36,121.56L413.87,120.88L414.63,116.1L415.38,116.24L416.13,112.28L416.89,112.55L417.65,109.96L418.4,106.95L419.16,107.91L421.42,101.22L422.18,98.08L423.69,97.53L424.45,95.35L425.2,94.8L425.96,92.07L427.47,89.34L428.22,89.34L430.49,85.65L431.24,84.7L432.75,82.78L433.51,80.19L437.29,75L438.04,88.44L441.82,84.03L442.58,84.45L443.33,84.31L444.08,85.14L445.6,84.72L446.35,85.41L447.86,84.59L448.61,84.45L450.13,84.03L450.88,84.03L452.4,84.17L453.15,83.62L458.44,84.03L459.19,83.62L463.73,83.21L464.48,83.48L467.5,83.48L468.26,83.35L469.77,83.35L470.52,83.35L472.79,83.35L473.55,83.9L477.32,79.9L478.07,80.18L480.34,78.8L481.1,78.94L481.85,78.53L482.61,76.87L484.12,77.15L484.87,75.63L488.65,72.47L489.4,72.88L491.67,69.44L492.43,69.02L494.69,66.41L495.45,66.41L496.96,63.79L497.71,63.79L499.23,61.86L499.98,59.66L502.25,54.29L503,54.43L504.51,53.6L505.27,51.4L508.29,49.47L509.05,47.82L513.58,46.85L514.33,45.75L515.09,46.16L515.84,45.48L516.6,45.89L522.64,41.21L526.42,38.59L527.18,39.28L530.2,35.97L530.96,35.84L531.71,34.46L532.46,35.01L533.97,33.91L534.73,34.18L535.49,35.28L536.24,34.32L537,34.05" style="vector-effect: non-scaling-stroke; fill: none; stroke: rgb(99, 110, 250); stroke-opacity: 1; stroke-width: 2px; opacity: 1;"/></g><g class="points"/><g class="text"/></g></g></g><g class="overplot"/><path class="xlines-above crisp" d="M0,0" style="fill: none;"/><path class="ylines-above crisp" d="M0,0" style="fill: none;"/><g class="overlines-above"/><g class="xaxislayer-above"><g class="xtick"><text text-anchor="middle" x="0" y="433" transform="translate(82.82,0)" style="font-family: 'Open Sans', verdana, arial, sans-serif; font-size: 12px; fill: rgb(42, 63, 95); fill-opacity: 1; white-space: pre;"><tspan class="line" dy="0em" x="0" y="433">Aug 3</tspan><tspan class="line" dy="1.3em" x="0" y="433">2021</tspan></text></g><g class="xtick"><text text-anchor="middle" x="0" y="433" transform="translate(191.6,0)" style="font-family: 'Open Sans', verdana, arial, sans-serif; font-size: 12px; fill: rgb(42, 63, 95); fill-opacity: 1; white-space: pre;">Aug 4</text></g><g class="xtick"><text text-anchor="middle" x="0" y="433" transform="translate(300.37,0)" style="font-family: 'Open Sans', verdana, arial, sans-serif; font-size: 12px; fill: rgb(42, 63, 95); fill-opacity: 1; white-space: pre;">Aug 5</text></g><g class="xtick"><text text-anchor="middle" x="0" y="433" transform="translate(409.15,0)" style="font-family: 'Open Sans', verdana, arial, sans-serif; font-size: 12px; fill: rgb(42, 63, 95); fill-opacity: 1; white-space: pre;">Aug 6</text></g><g class="xtick"><text text-anchor="middle" x="0" y="433" transform="translate(517.9200000000001,0)" style="font-family: 'Open Sans', verdana, arial, sans-serif; font-size: 12px; fill: rgb(42, 63, 95); fill-opacity: 1; white-space: pre;">Aug 7</text></g></g><g class="yaxislayer-above"><g class="ytick"><text text-anchor="end" x="79" y="4.199999999999999" transform="translate(0,392.55)" style="font-family: 'Open Sans', verdana, arial, sans-serif; font-size: 12px; fill: rgb(42, 63, 95); fill-opacity: 1; white-space: pre;">0.864</text></g><g class="ytick"><text text-anchor="end" x="79" y="4.199999999999999" transform="translate(0,349.77)" style="font-family: 'Open Sans', verdana, arial, sans-serif; font-size: 12px; fill: rgb(42, 63, 95); fill-opacity: 1; white-space: pre;">0.865</text></g><g class="ytick"><text text-anchor="end" x="79" y="4.199999999999999" transform="translate(0,306.99)" style="font-family: 'Open Sans', verdana, arial, sans-serif; font-size: 12px; fill: rgb(42, 63, 95); fill-opacity: 1; white-space: pre;">0.866</text></g><g class="ytick"><text text-anchor="end" x="79" y="4.199999999999999" transform="translate(0,264.21000000000004)" style="font-family: 'Open Sans', verdana, arial, sans-serif; font-size: 12px; fill: rgb(42, 63, 95); fill-opacity: 1; white-space: pre;">0.867</text></g><g class="ytick"><text text-anchor="end" x="79" y="4.199999999999999" transform="translate(0,221.43)" style="font-family: 'Open Sans', verdana, arial, sans-serif; font-size: 12px; fill: rgb(42, 63, 95); fill-opacity: 1; white-space: pre;">0.868</text></g><g class="ytick"><text text-anchor="end" x="79" y="4.199999999999999" transform="translate(0,178.65)" style="font-family: 'Open Sans', verdana, arial, sans-serif; font-size: 12px; fill: rgb(42, 63, 95); fill-opacity: 1; white-space: pre;">0.869</text></g><g class="ytick"><text text-anchor="end" x="79" y="4.199999999999999" transform="translate(0,135.87)" style="font-family: 'Open Sans', verdana, arial, sans-serif; font-size: 12px; fill: rgb(42, 63, 95); fill-opacity: 1; white-space: pre;">0.87</text></g></g><g class="overaxes-above"/></g></g><g class="polarlayer"/><g class="ternarylayer"/><g class="geolayer"/><g class="funnelarealayer"/><g class="pielayer"/><g class="treemaplayer"/><g class="sunburstlayer"/><g class="glimages"/><defs id="topdefs-2e395b"><g class="clips"/><clipPath id="legend2e395b"><rect width="60" height="45" x="0" y="0"/></clipPath></defs><g class="layer-above"><g class="imagelayer"/><g class="shapelayer"/></g><g class="infolayer"><g class="legend" pointer-events="all" transform="translate(627.74,100)"><rect class="bg" shape-rendering="crispEdges" width="60" height="45" x="0" y="0" style="stroke: rgb(68, 68, 68); stroke-opacity: 1; fill: rgb(255, 255, 255); fill-opacity: 1; stroke-width: 0px;"/><g class="scrollbox" transform="" clip-path="url('#legend2e395b')"><text class="legendtitletext" text-anchor="start" x="2" y="15.600000000000001" style="font-family: 'Open Sans', verdana, arial, sans-serif; font-size: 12px; fill: rgb(42, 63, 95); fill-opacity: 1; white-space: pre;">All</text><g class="groups" transform=""><g class="traces" transform="translate(0,30.1)" style="opacity: 1;"><text class="legendtext" text-anchor="start" x="40" y="4.680000000000001" style="font-family: 'Open Sans', verdana, arial, sans-serif; font-size: 12px; fill: rgb(42, 63, 95); fill-opacity: 1; white-space: pre;">All</text><g class="layers" style="opacity: 1;"><g class="legendfill"/><g class="legendlines"><path class="js-line" d="M5,0h30" style="fill: none; stroke: rgb(99, 110, 250); stroke-opacity: 1; stroke-width: 2px;"/></g><g class="legendsymbols"><g class="legendpoints"/></g></g><rect class="legendtoggle" x="0" y="-9.5" width="54.890625" height="19" style="fill: rgb(0, 0, 0); fill-opacity: 0;"/></g></g></g><rect class="scrollbar" rx="20" ry="3" width="0" height="0" x="0" y="0" style="fill: rgb(128, 139, 164); fill-opacity: 1;"/></g><g class="g-gtitle"><text class="gtitle" x="35" y="50" text-anchor="start" dy="0em" style="font-family: 'Open Sans', verdana, arial, sans-serif; font-size: 17px; fill: rgb(42, 63, 95); opacity: 1; font-weight: normal; white-space: pre;">Singapore Vaccination Centers</text></g><g class="g-xtitle"><text class="xtitle" x="348.5" y="476.409375" text-anchor="middle" style="font-family: 'Open Sans', verdana, arial, sans-serif; font-size: 14px; fill: rgb(42, 63, 95); opacity: 1; font-weight: normal; white-space: pre;">Time</text></g><g class="g-ytitle"><text class="ytitle" transform="rotate(-90,19.840625000000003,260)" x="19.840625000000003" y="260" text-anchor="middle" style="font-family: 'Open Sans', verdana, arial, sans-serif; font-size: 14px; fill: rgb(42, 63, 95); opacity: 1; font-weight: normal; white-space: pre;">Filled/%</text></g></g></svg>