<svg class="main-svg" xmlns="http://www.w3.org/2000/svg" xmlns:xlink="http://www.w3.org/1999/xlink" width="700" height="500" style="" viewBox="0 0 700 500"><rect x="0" y="0" width="700" height="500" style="fill: rgb(255, 255, 255); fill-opacity: 1;"/><defs id="defs-e13aff"><g class="clips"><clipPath id="clipe13affxyplot" class="plotclip"><rect width="537" height="320"/></clipPath><clipPath class="axesclip" id="clipe13affx"><rect x="80" y="0" width="537" height="500"/></clipPath><clipPath class="axesclip" id="clipe13affy"><rect x="0" y="100" width="700" height="320"/></clipPath><clipPath class="axesclip" id="clipe13affxy"><rect x="80" y="100" width="537" height="320"/></clipPath></g><g class="gradients"/></defs><g class="bglayer"><rect class="bg" x="80" y="100" width="537" height="320" style="fill: rgb(229, 236, 246); fill-opacity: 1; stroke-width: 0;"/></g><g class="layer-below"><g class="imagelayer"/><g class="shapelayer"/></g><g class="cartesianlayer"><g class="subplot xy"><g class="layer-subplot"><g class="shapelayer"/><g class="imagelayer"/></g><g class="gridlayer"><g class="x"><path class="xgrid crisp" transform="translate(90.31,0)" d="M0,100v320" style="stroke: rgb(255, 255, 255); stroke-opacity: 1; stroke-width: 1px;"/><path class="xgrid crisp" transform="translate(201.34,0)" d="M0,100v320" style="stroke: rgb(255, 255, 255); stroke-opacity: 1; stroke-width: 1px;"/><path class="xgrid crisp" transform="translate(312.38,0)" d="M0,100v320" style="stroke: rgb(255, 255, 255); stroke-opacity: 1; stroke-width: 1px;"/><path class="xgrid crisp" transform="translate(423.41,0)" d="M0,100v320" style="stroke: rgb(255, 255, 255); stroke-opacity: 1; stroke-width: 1px;"/><path class="xgrid crisp" transform="translate(534.45,0)" d="M0,100v320" style="stroke: rgb(255, 255, 255); stroke-opacity: 1; stroke-width: 1px;"/></g><g class="y"><path class="ygrid crisp" transform="translate(0,367.23)" d="M80,0h537" style="stroke: rgb(255, 255, 255); stroke-opacity: 1; stroke-width: 1px;"/><path class="ygrid crisp" transform="translate(0,308.43)" d="M80,0h537" style="stroke: rgb(255, 255, 255); stroke-opacity: 1; stroke-width: 1px;"/><path class="ygrid crisp" transform="translate(0,249.63)" d="M80,0h537" style="stroke: rgb(255, 255, 255); stroke-opacity: 1; stroke-width: 1px;"/><path class="ygrid crisp" transform="translate(0,190.82999999999998)" d="M80,0h537" style="stroke: rgb(255, 255, 255); stroke-opacity: 1; stroke-width: 1px;"/><path class="ygrid crisp" transform="translate(0,132.03)" d="M80,0h537" style="stroke: rgb(255, 255, 255); stroke-opacity: 1; stroke-width: 1px;"/></g></g><g class="zerolinelayer"/><path class="xlines-below"/><path class="ylines-below"/><g class="overlines-below"/><g class="xaxislayer-below"/><g class="yaxislayer-below"/><g class="overaxes-below"/><g class="plot" transform="translate(80,100)" clip-path="url('#clipe13affxyplot')"><g class="scatterlayer mlayer"><g class="trace scatter tracefd5a23" style="stroke-miterlimit: 2; opacity: 1;"><g class="fills"/><g class="errorbars"/><g class="lines"><path class="js-line" d="M0,82.28L6.51,82.51L8.82,120.48L13.42,120.57L15.13,136.92L15.85,136.9L32.88,137.96L33.94,121.23L34.26,129.62L35.03,129.56L36.57,126.37L37.35,126.27L38.89,129.79L39.66,129.7L41.2,132.71L41.97,132.63L43.51,120.69L44.29,120.62L45.83,132.64L46.6,132.55L48.14,126.68L48.91,123.32L50.45,113.21L51.22,109.51L52.77,94.58L53.54,92.89L55.08,74.17L55.85,72.87L57.39,78.78L58.16,77.73L59.7,63.68L60.48,62.82L62.02,65.47L62.79,64.83L64.33,74.27L65.1,73.83L66.12,51.83L67.42,52.34L68.19,52.21L76.67,51.78L77.44,51.77L86.69,51.11L87.46,50.91L112.91,42.67L113.68,42.44L120.62,40.95L121.39,41.79L135.27,41.46L136.04,41.46L148.38,40.58L149.15,40.48L173.05,37.17L173.82,37.08L176.14,36.83L176.91,35.53L206.98,34L207.75,33.87L231.66,31.05L232.43,28.56L258.64,27.81L259.42,95.38L267.92,93.57L268.67,93.44L269.44,93.12L270.21,91.51L272.52,88.51L273.3,87.52L277.15,73.59L277.92,72.39L282.55,67.88L283.32,67.37L287.17,65.43L287.95,65.5L293.34,64.8L294.12,64.77L311.08,63.66L311.85,63.48L317.24,61.32L318.02,60.89L318.79,60.46L319.56,62.78L322.64,61.15L323.42,59.94L328.04,53.24L328.81,52.44L331.9,47.98L332.67,45.51L335.75,38.66L336.52,37.65L340.38,33.5L341.15,32.89L344.23,31.98L345,31.8L351.17,31.18L351.95,31.16L363.51,30.17L364.28,29.9L368.91,28.09L369.68,74.81L371.22,73.22L371.99,72.76L380.48,68.8L381.07,71.93L381.98,68.25L382.02,69.25L382.75,67.95L382.79,68.94L383.56,68.62L385.1,68.09L385.87,76.43L392.62,73.91L392.65,72.31L392.69,72.03L392.81,73.74L400.14,44.74L400.52,44.87L400.91,41.95L401.68,42.12L402.06,43.2L403.22,37.43L403.61,41.6L404.76,39.66L405.15,39.05L406.31,38.13L406.69,38.96L407.08,38.26L407.46,38.53L407.85,38.42L409.01,38.4L409.39,43.02L413.63,41.69L414.02,36.5L414.79,35.76L415.17,35.39L416.33,33.79L416.71,33.41L419.8,22.43L420.18,16L420.57,16.8L420.96,140.18L421.34,139.22L421.73,142.07L422.5,136.79L422.88,138.99L423.66,136.15L424.04,136.63L424.43,141.25L424.81,146.68L425.2,133.42L425.97,138.09L426.35,157.2L427.51,133.53L427.89,145.44L428.28,148.42L428.67,146.68L429.05,144.02L429.82,134.36L430.21,135.71L430.59,141.84L430.98,146.05L431.36,142.1L431.75,141.74L432.13,151.77L432.52,141.68L432.91,140.84L433.29,148.68L434.06,127.07L434.45,137.58L435.22,140.49L435.61,138.92L436.38,130.34L436.76,131.67L437.15,129.31L437.53,138.25L437.92,134.05L438.3,138.68L438.69,138.81L439.07,131.49L439.46,131.42L439.85,140.05L440.62,132.48L441,138.41L441.77,141.46L442.16,128.79L442.93,142.96L443.32,264.58L444.48,293.12L444.86,304L445.25,286.22L445.63,301.52L446.02,291.75L446.4,292.1L446.79,291.07L447.17,294.16L447.56,293.46L447.94,276.02L448.33,283.67L448.71,262.28L449.48,272.54L449.87,248.89L450.64,241.71L451.03,229.6L451.41,224.98L451.8,228.24L452.18,227.36L453.34,215.22L453.73,217.06L454.11,216.4L454.5,227.08L454.88,226.08L455.27,228.38L455.66,228.68L456.04,224.72L456.42,233.57L456.81,224.28L457.58,227.75L457.97,223.07L458.74,226.33L459.13,223.26L459.51,224.52L459.9,234.01L460.28,220.81L460.67,231.91L461.05,224.2L463.37,212.72L463.75,220.76L464.52,220.72L464.91,223.7L465.29,223.67L465.68,219.37L466.06,223.08L466.45,218.62L466.83,226.76L467.22,225.2L467.61,224.19L467.99,219.51L468.38,225.16L469.53,225.11L469.92,216.49L470.3,225.05L470.69,220.43L471.07,220.57L471.46,218.19L471.85,220.92L472.24,219.84L472.62,227.36L473,216.65L473.39,220.1L473.77,220.01L474.54,220.98L474.93,218.78L475.7,223.64L476.08,218.66L476.47,205.85L476.86,215.25L477.24,220.32L477.63,206.18L478.01,206.81L478.4,214.16L478.79,214.11L479.17,206.99L479.95,212.47L480.33,202.23L480.72,199.24L481.1,208.71L481.49,224.84L481.87,215.2L482.25,214.49L482.64,205.74L483.03,219.6L483.8,195.82L484.18,209.77L484.57,208.24L484.95,203.32L485.34,202.05L485.72,205.17L486.11,200.81L486.5,208.16L486.88,206.35L487.27,209.96L487.65,207.44L488.04,196.45L488.42,195.36L488.81,196.45L489.19,201.41L490.35,210.92L490.74,197.09L491.12,197.31L491.51,191.05L491.89,191.24L492.28,196.07L492.66,200.65L493.05,194.37L494.21,210.5L494.59,204.27L495.36,191.94L495.75,193.62L496.13,197L496.52,205.03L496.9,197.14L497.29,198.57L497.68,192.99L498.83,184.28L499.22,189.51L499.99,194.59L500.38,189.23L500.76,191.91L501.15,189.81L501.53,182.31L501.92,187.7L502.3,187L502.69,183.28L503.07,186.18L503.46,185.69L503.85,181.61L504.24,182.61L504.62,186.54L505.39,187.68L505.77,186.58L506.16,181.49L506.54,187.81L507.32,185.81L507.7,187.22L508.09,189.17L508.48,187L509.63,194.82L510.02,189.57L510.4,183.36L510.79,189.2L511.17,186.45L512.33,187.85L512.71,183.53L513.87,187.65L514.26,184.59L515.03,184.25L515.41,185.71L516.18,187.3L516.57,187.29L517.34,197.68L517.73,195.53L518.11,195.52L518.5,190.33L518.88,190.33L519.27,186.49L520.81,194.95L521.2,194.95L521.58,195.4L521.97,193.58L522.35,193.58L522.74,187.5L523.51,187.5L523.89,190.84L524.28,186.76L524.66,190.68L525.05,186.75L525.44,187.03L525.82,187.03L526.21,188.23L526.59,187.2L526.98,186.53L527.36,186.53L527.75,184.4L528.52,184.18L528.91,183.02L529.29,181.13L529.68,187.27L530.06,190.9L530.45,187.7L530.83,181.79L531.22,180.91L531.6,182.93L531.99,184.81L532.37,179.55L533.15,190.44L533.53,182.8L533.92,183.07L534.3,174.64L535.46,185.09L535.84,181.21L536.23,181.99L536.61,185.79L537,171.39" style="vector-effect: non-scaling-stroke; fill: none; stroke: rgb(99, 110, 250); stroke-opacity: 1; stroke-width: 2px; opacity: 1;"/></g><g class="points"/><g class="text"/></g></g></g><g class="overplot"/><path class="xlines-above crisp" d="M0,0" style="fill: none;"/><path class="ylines-above crisp" d="M0,0" style="fill: none;"/><g class="overlines-above"/><g class="xaxislayer-above"><g class="xtick"><text text-anchor="middle" x="0" y="433" transform="translate(90.31,0)" style="font-family: 'Open Sans', verdana, arial, sans-serif; font-size: 12px; fill: rgb(42, 63, 95); fill-opacity: 1; white-space: pre;"><tspan class="line" dy="0em" x="0" y="433">Jun 4</tspan><tspan class="line" dy="1.3em" x="0" y="433">2021</tspan></text></g><g class="xtick"><text text-anchor="middle" x="0" y="433" transform="translate(201.34,0)" style="font-family: 'Open Sans', verdana, arial, sans-serif; font-size: 12px; fill: rgb(42, 63, 95); fill-opacity: 1; white-space: pre;">Jun 6</text></g><g class="xtick"><text text-anchor="middle" x="0" y="433" transform="translate(312.38,0)" style="font-family: 'Open Sans', verdana, arial, sans-serif; font-size: 12px; fill: rgb(42, 63, 95); fill-opacity: 1; white-space: pre;">Jun 8</text></g><g class="xtick"><text text-anchor="middle" x="0" y="433" transform="translate(423.41,0)" style="font-family: 'Open Sans', verdana, arial, sans-serif; font-size: 12px; fill: rgb(42, 63, 95); fill-opacity: 1; white-space: pre;">Jun 10</text></g><g class="xtick"><text text-anchor="middle" x="0" y="433" transform="translate(534.45,0)" style="font-family: 'Open Sans', verdana, arial, sans-serif; font-size: 12px; fill: rgb(42, 63, 95); fill-opacity: 1; white-space: pre;">Jun 12</text></g></g><g class="yaxislayer-above"><g class="ytick"><text text-anchor="end" x="79" y="4.199999999999999" transform="translate(0,367.23)" style="font-family: 'Open Sans', verdana, arial, sans-serif; font-size: 12px; fill: rgb(42, 63, 95); fill-opacity: 1; white-space: pre;">0.8</text></g><g class="ytick"><text text-anchor="end" x="79" y="4.199999999999999" transform="translate(0,308.43)" style="font-family: 'Open Sans', verdana, arial, sans-serif; font-size: 12px; fill: rgb(42, 63, 95); fill-opacity: 1; white-space: pre;">0.82</text></g><g class="ytick"><text text-anchor="end" x="79" y="4.199999999999999" transform="translate(0,249.63)" style="font-family: 'Open Sans', verdana, arial, sans-serif; font-size: 12px; fill: rgb(42, 63, 95); fill-opacity: 1; white-space: pre;">0.84</text></g><g class="ytick"><text text-anchor="end" x="79" y="4.199999999999999" transform="translate(0,190.82999999999998)" style="font-family: 'Open Sans', verdana, arial, sans-serif; font-size: 12px; fill: rgb(42, 63, 95); fill-opacity: 1; white-space: pre;">0.86</text></g><g class="ytick"><text text-anchor="end" x="79" y="4.199999999999999" transform="translate(0,132.03)" style="font-family: 'Open Sans', verdana, arial, sans-serif; font-size: 12px; fill: rgb(42, 63, 95); fill-opacity: 1; white-space: pre;">0.88</text></g></g><g class="overaxes-above"/></g></g><g class="polarlayer"/><g class="ternarylayer"/><g class="geolayer"/><g class="funnelarealayer"/><g class="pielayer"/><g class="treemaplayer"/><g class="sunburstlayer"/><g class="glimages"/><defs id="topdefs-e13aff"><g class="clips"/><clipPath id="legende13aff"><rect width="60" height="45" x="0" y="0"/></clipPath></defs><g class="layer-above"><g class="imagelayer"/><g class="shapelayer"/></g><g class="infolayer"><g class="legend" pointer-events="all" transform="translate(627.74,100)"><rect class="bg" shape-rendering="crispEdges" width="60" height="45" x="0" y="0" style="stroke: rgb(68, 68, 68); stroke-opacity: 1; fill: rgb(255, 255, 255); fill-opacity: 1; stroke-width: 0px;"/><g class="scrollbox" transform="" clip-path="url('#legende13aff')"><text class="legendtitletext" text-anchor="start" x="2" y="15.600000000000001" style="font-family: 'Open Sans', verdana, arial, sans-serif; font-size: 12px; fill: rgb(42, 63, 95); fill-opacity: 1; white-space: pre;">All</text><g class="groups" transform=""><g class="traces" transform="translate(0,30.1)" style="opacity: 1;"><text class="legendtext" text-anchor="start" x="40" y="4.680000000000001" style="font-family: 'Open Sans', verdana, arial, sans-serif; font-size: 12px; fill: rgb(42, 63, 95); fill-opacity: 1; white-space: pre;">All</text><g class="layers" style="opacity: 1;"><g class="legendfill"/><g class="legendlines"><path class="js-line" d="M5,0h30" style="fill: none; stroke: rgb(99, 110, 250); stroke-opacity: 1; stroke-width: 2px;"/></g><g class="legendsymbols"><g class="legendpoints"/></g></g><rect class="legendtoggle" x="0" y="-9.5" width="54.890625" height="19" style="fill: rgb(0, 0, 0); fill-opacity: 0;"/></g></g></g><rect class="scrollbar" rx="20" ry="3" width="0" height="0" x="0" y="0" style="fill: rgb(128, 139, 164); fill-opacity: 1;"/></g><g class="g-gtitle"><text class="gtitle" x="35" y="50" text-anchor="start" dy="0em" style="font-family: 'Open Sans', verdana, arial, sans-serif; font-size: 17px; fill: rgb(42, 63, 95); opacity: 1; font-weight: normal; white-space: pre;">Singapore Vaccination Centers</text></g><g class="g-xtitle"><text class="xtitle" x="348.5" y="476.409375" text-anchor="middle" style="font-family: 'Open Sans', verdana, arial, sans-serif; font-size: 14px; fill: rgb(42, 63, 95); opacity: 1; font-weight: normal; white-space: pre;">Time</text></g><g class="g-ytitle"><text class="ytitle" transform="rotate(-90,27.481250000000003,260)" x="27.481250000000003" y="260" text-anchor="middle" style="font-family: 'Open Sans', verdana, arial, sans-serif; font-size: 14px; fill: rgb(42, 63, 95); opacity: 1; font-weight: normal; white-space: pre;">Filled/%</text></g></g></svg>