<svg class="main-svg" xmlns="http://www.w3.org/2000/svg" xmlns:xlink="http://www.w3.org/1999/xlink" width="700" height="500" style="" viewBox="0 0 700 500"><rect x="0" y="0" width="700" height="500" style="fill: rgb(255, 255, 255); fill-opacity: 1;"/><defs id="defs-081c71"><g class="clips"><clipPath id="clip081c71xyplot" class="plotclip"><rect width="537" height="320"/></clipPath><clipPath class="axesclip" id="clip081c71x"><rect x="80" y="0" width="537" height="500"/></clipPath><clipPath class="axesclip" id="clip081c71y"><rect x="0" y="100" width="700" height="320"/></clipPath><clipPath class="axesclip" id="clip081c71xy"><rect x="80" y="100" width="537" height="320"/></clipPath></g><g class="gradients"/></defs><g class="bglayer"><rect class="bg" x="80" y="100" width="537" height="320" style="fill: rgb(229, 236, 246); fill-opacity: 1; stroke-width: 0;"/></g><g class="layer-below"><g class="imagelayer"/><g class="shapelayer"/></g><g class="cartesianlayer"><g class="subplot xy"><g class="layer-subplot"><g class="shapelayer"/><g class="imagelayer"/></g><g class="gridlayer"><g class="x"><path class="xgrid crisp" transform="translate(82.27,0)" d="M0,100v320" style="stroke: rgb(255, 255, 255); stroke-opacity: 1; stroke-width: 1px;"/><path class="xgrid crisp" transform="translate(169.76,0)" d="M0,100v320" style="stroke: rgb(255, 255, 255); stroke-opacity: 1; stroke-width: 1px;"/><path class="xgrid crisp" transform="translate(257.24,0)" d="M0,100v320" style="stroke: rgb(255, 255, 255); stroke-opacity: 1; stroke-width: 1px;"/><path class="xgrid crisp" transform="translate(344.73,0)" d="M0,100v320" style="stroke: rgb(255, 255, 255); stroke-opacity: 1; stroke-width: 1px;"/><path class="xgrid crisp" transform="translate(432.21,0)" d="M0,100v320" style="stroke: rgb(255, 255, 255); stroke-opacity: 1; stroke-width: 1px;"/><path class="xgrid crisp" transform="translate(519.7,0)" d="M0,100v320" style="stroke: rgb(255, 255, 255); stroke-opacity: 1; stroke-width: 1px;"/><path class="xgrid crisp" transform="translate(607.18,0)" d="M0,100v320" style="stroke: rgb(255, 255, 255); stroke-opacity: 1; stroke-width: 1px;"/></g><g class="y"><path class="ygrid crisp" transform="translate(0,393.08)" d="M80,0h537" style="stroke: rgb(255, 255, 255); stroke-opacity: 1; stroke-width: 1px;"/><path class="ygrid crisp" transform="translate(0,352.28999999999996)" d="M80,0h537" style="stroke: rgb(255, 255, 255); stroke-opacity: 1; stroke-width: 1px;"/><path class="ygrid crisp" transform="translate(0,311.5)" d="M80,0h537" style="stroke: rgb(255, 255, 255); stroke-opacity: 1; stroke-width: 1px;"/><path class="ygrid crisp" transform="translate(0,270.71000000000004)" d="M80,0h537" style="stroke: rgb(255, 255, 255); stroke-opacity: 1; stroke-width: 1px;"/><path class="ygrid crisp" transform="translate(0,229.92)" d="M80,0h537" style="stroke: rgb(255, 255, 255); stroke-opacity: 1; stroke-width: 1px;"/><path class="ygrid crisp" transform="translate(0,189.12)" d="M80,0h537" style="stroke: rgb(255, 255, 255); stroke-opacity: 1; stroke-width: 1px;"/><path class="ygrid crisp" transform="translate(0,148.32999999999998)" d="M80,0h537" style="stroke: rgb(255, 255, 255); stroke-opacity: 1; stroke-width: 1px;"/><path class="ygrid crisp" transform="translate(0,107.54)" d="M80,0h537" style="stroke: rgb(255, 255, 255); stroke-opacity: 1; stroke-width: 1px;"/></g></g><g class="zerolinelayer"/><path class="xlines-below"/><path class="ylines-below"/><g class="overlines-below"/><g class="xaxislayer-below"/><g class="yaxislayer-below"/><g class="overaxes-below"/><g class="plot" transform="translate(80,100)" clip-path="url('#clip081c71xyplot')"><g class="scatterlayer mlayer"><g class="trace scatter tracea34c40" style="stroke-miterlimit: 2; opacity: 1;"><g class="fills"/><g class="errorbars"/><g class="lines"><path class="js-line" d="M0,304L1.75,302.65L2.36,252.27L2.97,253.5L3.58,251.9L6,251.28L6.61,250.91L7.83,251.65L8.44,250.79L9.65,251.16L10.26,250.79L11.47,250.54L12.08,250.29L13.29,250.04L13.9,249.8L21.8,249.43L22.41,248.93L26.66,247.82L27.26,247.21L28.48,247.33L29.09,246.47L30.31,247.33L30.91,245.85L32.73,244.99L33.34,245.48L33.95,245.11L34.56,245.97L35.77,243.14L36.38,243.63L36.99,243.63L37.59,242.77L40.63,240.05L41.24,241.04L41.84,241.29L42.46,240.18L43.06,238.2L43.67,238.7L44.28,239.68L46.1,235.98L46.71,235.61L47.93,234.01L48.53,234.5L49.74,233.39L50.35,233.64L50.96,235.12L51.57,233.02L54,233.64L54.61,231.67L55.82,229.69L56.43,230.43L57.64,229.32L58.25,230.93L58.86,230.68L59.47,229.2L61.9,225.01L62.5,222.42L63.11,223.03L63.72,221.68L64.33,220.69L64.93,221.43L66.15,221.68L66.76,222.66L69.79,220.44L70.4,220.2L72.83,218.96L73.44,220.07L74.05,220.07L74.65,218.59L77.09,217.11L77.69,216.99L79.52,216.13L80.12,216L81.34,216.13L81.95,215.76L83.77,215.63L84.37,214.77L86.2,212.18L86.81,211.44L88.02,212.43L88.63,211.93L89.24,212.43L89.85,149.79L92.28,148.04L92.88,147.92L95.31,146.8L95.92,146.8L98.96,146.05L99.56,145.68L104.43,145.06L105.04,145.43L109.28,145.68L109.89,145.68L114.14,144.93L114.75,143.94L117.18,144.06L117.79,143.57L119,143.69L119.61,143.07L121.43,143.07L122.04,142.07L123.86,140.21L124.47,141.2L126.3,139.59L126.9,140.21L129.33,136.6L129.94,138.22L132.37,135.36L132.98,136.23L134.19,134.74L134.8,135.86L135.41,136.85L136.01,135.98L136.62,136.97L137.23,136.48L137.84,135.61L138.44,136.6L139.66,136.35L140.27,136.73L141.48,136.97L142.09,136.6L144.53,133.12L145.14,133.24L146.35,134.24L146.96,132.37L149.39,131.5L150,129.88L152.43,130.38L153.04,129.14L153.64,127.02L154.25,128.52L154.86,128.52L155.47,127.4L156.07,128.27L156.68,127.77L157.9,126.03L158.5,126.15L160.33,123.17L160.93,123.29L162.15,121.05L162.76,121.8L163.97,119.81L164.58,120.31L166.4,119.69L167.01,117.2L167.62,117.07L168.22,116.08L169.44,114.96L170.05,115.21L171.27,116.95L171.87,116.33L172.48,118.19L173.09,117.45L173.69,117.32L174.3,115.83L175.52,115.95L176.12,115.83L176.73,116.2L177.34,72.54L179.16,70.53L179.77,70.28L183.41,68.27L184.02,68.02L187.06,65.89L187.67,65.89L188.88,66.01L189.49,65.39L192.53,65.26L193.13,65.39L202.85,63.51L203.46,63.88L205.28,62.88L205.89,63L206.5,63.25L207.1,62.5L210.75,61.87L211.96,61.37L212.57,60.12L213.78,59.74L215,59.37L215.61,57.74L216.22,58.86L216.83,57.74L218.04,57.74L218.65,57.11L219.26,56.98L219.86,55.85L221.68,55.6L222.29,54.1L224.7,50.46L225.31,51.09L227.13,50.08L227.74,48.45L230.17,47.83L230.77,45.94L231.38,45.32L231.99,45.82L234.42,44.57L235.03,43.56L236.24,43.56L236.85,44.06L238.07,45.57L238.68,43.81L239.89,44.94L240.51,43.06L241.72,43.19L242.32,43.56L244.14,41.81L244.75,42.18L245.97,40.55L246.57,39.55L247.18,37.16L247.79,37.67L248.4,36.29L249,37.67L249.61,36.16L250.83,35.66L251.43,34.41L253.26,34.91L253.86,33.9L254.47,34.41L255.08,32.9L256.29,32.77L256.9,31.77L259.33,32.15L259.94,31.27L261.16,31.14L261.76,31.27L262.98,29.39L263.58,30.02L264.19,29.76L264.8,177.95L267.84,177.56L268.45,178.21L270.27,177.17L270.88,177.17L272.09,176L272.7,176L274.52,175.35L275.13,175.35L279.38,174.96L279.99,174.96L284.24,174.7L284.85,174.7L287.28,173.79L287.89,174.05L291.53,173.26L292.14,173.13L294.57,171.44L295.17,170.92L297,170.53L297.61,169.23L300.06,168.97L300.66,170.14L301.88,168.32L302.49,168.19L303.1,167.54L303.7,165.19L304.31,163.37L304.92,163.63L305.53,162.98L306.13,161.29L306.74,161.81L307.35,161.16L308.56,161.29L309.17,160.38L310.38,159.72L310.99,160.64L312.82,158.03L313.42,158.94L315.25,156.34L315.85,156.34L316.46,155.56L317.07,156.6L318.28,157.51L318.89,156.6L319.5,156.73L320.11,155.95L323.15,151.91L323.75,151.39L324.96,151L325.58,152.43L329.22,149.44L329.83,151.13L331.04,130.43L331.65,130.04L332.87,129.39L333.47,124.83L334.08,124.96L334.69,121.19L335.3,121.45L335.9,118.98L336.51,116.11L337.12,117.02L338.94,110.64L339.55,107.65L340.76,107.13L341.37,105.05L341.98,104.52L342.59,101.92L343.8,99.32L344.41,99.32L346.23,95.8L346.84,94.89L351.7,85.65L352.31,98.46L355.35,94.26L355.96,94.65L356.56,94.52L357.17,95.31L358.38,94.92L358.99,95.57L360.81,94.65L361.42,94.79L362.64,94.26L363.24,94.39L369.92,93.74L370.54,93.6L380.25,93.6L380.86,94.13L383.9,90.32L384.5,90.58L386.33,89.27L386.93,89.4L387.54,89.01L388.15,87.43L389.36,87.69L389.97,86.25L393.01,83.23L393.62,83.62L395.44,80.34L396.05,79.95L397.87,77.45L398.48,77.45L399.69,74.96L400.3,74.96L401.52,73.12L402.12,71.02L404.56,66.03L405.16,65.63L405.77,65.24L406.38,63.14L408.81,61.3L409.41,59.73L413.06,58.81L413.67,57.76L414.28,58.15L414.88,57.49L415.49,57.89L420.35,53.42L423.39,50.93L424,51.58L426.43,48.43L427.04,48.3L427.64,46.99L428.25,47.51L429.46,46.46L430.07,46.73L430.68,47.78L431.29,46.86L433.72,45.54L434.33,46.46L436.76,45.81L437.36,44.76L439.19,42.52L439.79,91.61L441.01,92.02L441.62,90.95L442.22,90.28L442.83,90.81L444.65,90.81L445.26,91.75L447.69,91.48L448.3,91.61L450.12,91.75L450.73,91.75L453.77,90.28L454.38,90.68L460.45,90.01L461.06,90.01L467.74,89.74L468.35,89.61L471.38,89.21L471.99,88.81L473.21,88.27L473.81,87.33L475.03,86.93L475.64,85.6L476.24,84.26L476.85,85.6L479.28,84.66L479.89,84.66L481.11,82.65L481.71,82.39L483.54,79.58L484.14,79.44L485.96,79.04L486.57,78.24L487.79,77.57L488.4,77.7L489.61,76.23L490.22,75.56L492.65,74.63L493.26,75.03L493.86,74.49L494.47,75.16L495.69,71.82L496.3,72.09L496.9,72.09L498.72,71.55L499.33,70.35L502.37,67.94L502.98,68.21L506.62,65.8L507.23,64.86L507.84,65.27L508.44,64.46L509.66,64.6L510.27,64.46L511.48,63.66L512.09,62.86L513.91,61.79L514.52,60.32L516.95,58.85L517.56,57.11L518.78,55.23L519.38,55.9L522.42,54.03L523.03,54.03L524.24,52.69L524.85,52.69L526.67,52.69L527.28,20.05L532.14,16.54L532.75,16.67L534.57,16.4L535.18,16L537,16.81" style="vector-effect: non-scaling-stroke; fill: none; stroke: rgb(99, 110, 250); stroke-opacity: 1; stroke-width: 2px; opacity: 1;"/></g><g class="points"/><g class="text"/></g></g></g><g class="overplot"/><path class="xlines-above crisp" d="M0,0" style="fill: none;"/><path class="ylines-above crisp" d="M0,0" style="fill: none;"/><g class="overlines-above"/><g class="xaxislayer-above"><g class="xtick"><text text-anchor="middle" x="0" y="433" transform="translate(82.27,0)" style="font-family: 'Open Sans', verdana, arial, sans-serif; font-size: 12px; fill: rgb(42, 63, 95); fill-opacity: 1; white-space: pre;"><tspan class="line" dy="0em" x="0" y="433">Aug 3</tspan><tspan class="line" dy="1.3em" x="0" y="433">2021</tspan></text></g><g class="xtick"><text text-anchor="middle" x="0" y="433" transform="translate(169.76,0)" style="font-family: 'Open Sans', verdana, arial, sans-serif; font-size: 12px; fill: rgb(42, 63, 95); fill-opacity: 1; white-space: pre;">Aug 4</text></g><g class="xtick"><text text-anchor="middle" x="0" y="433" transform="translate(257.24,0)" style="font-family: 'Open Sans', verdana, arial, sans-serif; font-size: 12px; fill: rgb(42, 63, 95); fill-opacity: 1; white-space: pre;">Aug 5</text></g><g class="xtick"><text text-anchor="middle" x="0" y="433" transform="translate(344.73,0)" style="font-family: 'Open Sans', verdana, arial, sans-serif; font-size: 12px; fill: rgb(42, 63, 95); fill-opacity: 1; white-space: pre;">Aug 6</text></g><g class="xtick"><text text-anchor="middle" x="0" y="433" transform="translate(432.21,0)" style="font-family: 'Open Sans', verdana, arial, sans-serif; font-size: 12px; fill: rgb(42, 63, 95); fill-opacity: 1; white-space: pre;">Aug 7</text></g><g class="xtick"><text text-anchor="middle" x="0" y="433" transform="translate(519.7,0)" style="font-family: 'Open Sans', verdana, arial, sans-serif; font-size: 12px; fill: rgb(42, 63, 95); fill-opacity: 1; white-space: pre;">Aug 8</text></g><g class="xtick"><text text-anchor="middle" x="0" y="433" transform="translate(607.18,0)" style="font-family: 'Open Sans', verdana, arial, sans-serif; font-size: 12px; fill: rgb(42, 63, 95); fill-opacity: 1; white-space: pre;">Aug 9</text></g></g><g class="yaxislayer-above"><g class="ytick"><text text-anchor="end" x="79" y="4.199999999999999" transform="translate(0,393.08)" style="font-family: 'Open Sans', verdana, arial, sans-serif; font-size: 12px; fill: rgb(42, 63, 95); fill-opacity: 1; white-space: pre;">0.864</text></g><g class="ytick"><text text-anchor="end" x="79" y="4.199999999999999" transform="translate(0,352.28999999999996)" style="font-family: 'Open Sans', verdana, arial, sans-serif; font-size: 12px; fill: rgb(42, 63, 95); fill-opacity: 1; white-space: pre;">0.865</text></g><g class="ytick"><text text-anchor="end" x="79" y="4.199999999999999" transform="translate(0,311.5)" style="font-family: 'Open Sans', verdana, arial, sans-serif; font-size: 12px; fill: rgb(42, 63, 95); fill-opacity: 1; white-space: pre;">0.866</text></g><g class="ytick"><text text-anchor="end" x="79" y="4.199999999999999" transform="translate(0,270.71000000000004)" style="font-family: 'Open Sans', verdana, arial, sans-serif; font-size: 12px; fill: rgb(42, 63, 95); fill-opacity: 1; white-space: pre;">0.867</text></g><g class="ytick"><text text-anchor="end" x="79" y="4.199999999999999" transform="translate(0,229.92)" style="font-family: 'Open Sans', verdana, arial, sans-serif; font-size: 12px; fill: rgb(42, 63, 95); fill-opacity: 1; white-space: pre;">0.868</text></g><g class="ytick"><text text-anchor="end" x="79" y="4.199999999999999" transform="translate(0,189.12)" style="font-family: 'Open Sans', verdana, arial, sans-serif; font-size: 12px; fill: rgb(42, 63, 95); fill-opacity: 1; white-space: pre;">0.869</text></g><g class="ytick"><text text-anchor="end" x="79" y="4.199999999999999" transform="translate(0,148.32999999999998)" style="font-family: 'Open Sans', verdana, arial, sans-serif; font-size: 12px; fill: rgb(42, 63, 95); fill-opacity: 1; white-space: pre;">0.87</text></g><g class="ytick"><text text-anchor="end" x="79" y="4.199999999999999" transform="translate(0,107.54)" style="font-family: 'Open Sans', verdana, arial, sans-serif; font-size: 12px; fill: rgb(42, 63, 95); fill-opacity: 1; white-space: pre;">0.871</text></g></g><g class="overaxes-above"/></g></g><g class="polarlayer"/><g class="ternarylayer"/><g class="geolayer"/><g class="funnelarealayer"/><g class="pielayer"/><g class="treemaplayer"/><g class="sunburstlayer"/><g class="glimages"/><defs id="topdefs-081c71"><g class="clips"/><clipPath id="legend081c71"><rect width="60" height="45" x="0" y="0"/></clipPath></defs><g class="layer-above"><g class="imagelayer"/><g class="shapelayer"/></g><g class="infolayer"><g class="legend" pointer-events="all" transform="translate(627.74,100)"><rect class="bg" shape-rendering="crispEdges" width="60" height="45" x="0" y="0" style="stroke: rgb(68, 68, 68); stroke-opacity: 1; fill: rgb(255, 255, 255); fill-opacity: 1; stroke-width: 0px;"/><g class="scrollbox" transform="" clip-path="url('#legend081c71')"><text class="legendtitletext" text-anchor="start" x="2" y="15.600000000000001" style="font-family: 'Open Sans', verdana, arial, sans-serif; font-size: 12px; fill: rgb(42, 63, 95); fill-opacity: 1; white-space: pre;">All</text><g class="groups" transform=""><g class="traces" transform="translate(0,30.1)" style="opacity: 1;"><text class="legendtext" text-anchor="start" x="40" y="4.680000000000001" style="font-family: 'Open Sans', verdana, arial, sans-serif; font-size: 12px; fill: rgb(42, 63, 95); fill-opacity: 1; white-space: pre;">All</text><g class="layers" style="opacity: 1;"><g class="legendfill"/><g class="legendlines"><path class="js-line" d="M5,0h30" style="fill: none; stroke: rgb(99, 110, 250); stroke-opacity: 1; stroke-width: 2px;"/></g><g class="legendsymbols"><g class="legendpoints"/></g></g><rect class="legendtoggle" x="0" y="-9.5" width="54.890625" height="19" style="fill: rgb(0, 0, 0); fill-opacity: 0;"/></g></g></g><rect class="scrollbar" rx="20" ry="3" width="0" height="0" x="0" y="0" style="fill: rgb(128, 139, 164); fill-opacity: 1;"/></g><g class="g-gtitle"><text class="gtitle" x="35" y="50" text-anchor="start" dy="0em" style="font-family: 'Open Sans', verdana, arial, sans-serif; font-size: 17px; fill: rgb(42, 63, 95); opacity: 1; font-weight: normal; white-space: pre;">Singapore Vaccination Centers</text></g><g class="g-xtitle"><text class="xtitle" x="348.5" y="476.409375" text-anchor="middle" style="font-family: 'Open Sans', verdana, arial, sans-serif; font-size: 14px; fill: rgb(42, 63, 95); opacity: 1; font-weight: normal; white-space: pre;">Time</text></g><g class="g-ytitle"><text class="ytitle" transform="rotate(-90,19.840625000000003,260)" x="19.840625000000003" y="260" text-anchor="middle" style="font-family: 'Open Sans', verdana, arial, sans-serif; font-size: 14px; fill: rgb(42, 63, 95); opacity: 1; font-weight: normal; white-space: pre;">Filled/%</text></g></g></svg>