<svg class="main-svg" xmlns="http://www.w3.org/2000/svg" xmlns:xlink="http://www.w3.org/1999/xlink" width="700" height="500" style="" viewBox="0 0 700 500"><rect x="0" y="0" width="700" height="500" style="fill: rgb(255, 255, 255); fill-opacity: 1;"/><defs id="defs-434afe"><g class="clips"><clipPath id="clip434afexyplot" class="plotclip"><rect width="537" height="320"/></clipPath><clipPath class="axesclip" id="clip434afex"><rect x="80" y="0" width="537" height="500"/></clipPath><clipPath class="axesclip" id="clip434afey"><rect x="0" y="100" width="700" height="320"/></clipPath><clipPath class="axesclip" id="clip434afexy"><rect x="80" y="100" width="537" height="320"/></clipPath></g><g class="gradients"/></defs><g class="bglayer"><rect class="bg" x="80" y="100" width="537" height="320" style="fill: rgb(229, 236, 246); fill-opacity: 1; stroke-width: 0;"/></g><g class="layer-below"><g class="imagelayer"/><g class="shapelayer"/></g><g class="cartesianlayer"><g class="subplot xy"><g class="layer-subplot"><g class="shapelayer"/><g class="imagelayer"/></g><g class="gridlayer"><g class="x"><path class="xgrid crisp" transform="translate(83.73,0)" d="M0,100v320" style="stroke: rgb(255, 255, 255); stroke-opacity: 1; stroke-width: 1px;"/><path class="xgrid crisp" transform="translate(155.61,0)" d="M0,100v320" style="stroke: rgb(255, 255, 255); stroke-opacity: 1; stroke-width: 1px;"/><path class="xgrid crisp" transform="translate(227.49,0)" d="M0,100v320" style="stroke: rgb(255, 255, 255); stroke-opacity: 1; stroke-width: 1px;"/><path class="xgrid crisp" transform="translate(299.37,0)" d="M0,100v320" style="stroke: rgb(255, 255, 255); stroke-opacity: 1; stroke-width: 1px;"/><path class="xgrid crisp" transform="translate(371.25,0)" d="M0,100v320" style="stroke: rgb(255, 255, 255); stroke-opacity: 1; stroke-width: 1px;"/><path class="xgrid crisp" transform="translate(443.13,0)" d="M0,100v320" style="stroke: rgb(255, 255, 255); stroke-opacity: 1; stroke-width: 1px;"/><path class="xgrid crisp" transform="translate(515.01,0)" d="M0,100v320" style="stroke: rgb(255, 255, 255); stroke-opacity: 1; stroke-width: 1px;"/><path class="xgrid crisp" transform="translate(586.89,0)" d="M0,100v320" style="stroke: rgb(255, 255, 255); stroke-opacity: 1; stroke-width: 1px;"/></g><g class="y"><path class="ygrid crisp" transform="translate(0,392.55)" d="M80,0h537" style="stroke: rgb(255, 255, 255); stroke-opacity: 1; stroke-width: 1px;"/><path class="ygrid crisp" transform="translate(0,349.77)" d="M80,0h537" style="stroke: rgb(255, 255, 255); stroke-opacity: 1; stroke-width: 1px;"/><path class="ygrid crisp" transform="translate(0,306.99)" d="M80,0h537" style="stroke: rgb(255, 255, 255); stroke-opacity: 1; stroke-width: 1px;"/><path class="ygrid crisp" transform="translate(0,264.21000000000004)" d="M80,0h537" style="stroke: rgb(255, 255, 255); stroke-opacity: 1; stroke-width: 1px;"/><path class="ygrid crisp" transform="translate(0,221.43)" d="M80,0h537" style="stroke: rgb(255, 255, 255); stroke-opacity: 1; stroke-width: 1px;"/><path class="ygrid crisp" transform="translate(0,178.65)" d="M80,0h537" style="stroke: rgb(255, 255, 255); stroke-opacity: 1; stroke-width: 1px;"/><path class="ygrid crisp" transform="translate(0,135.87)" d="M80,0h537" style="stroke: rgb(255, 255, 255); stroke-opacity: 1; stroke-width: 1px;"/></g></g><g class="zerolinelayer"/><path class="xlines-below"/><path class="ylines-below"/><g class="overlines-below"/><g class="xaxislayer-below"/><g class="yaxislayer-below"/><g class="overaxes-below"/><g class="plot" transform="translate(80,100)" clip-path="url('#clip434afexyplot')"><g class="scatterlayer mlayer"><g class="trace scatter tracea7ba20" style="stroke-miterlimit: 2; opacity: 1;"><g class="fills"/><g class="errorbars"/><g class="lines"><path class="js-line" d="M0,304L2.88,302.59L3.88,249.74L4.88,251.04L5.88,249.35L9.86,248.71L10.86,248.32L12.86,249.1L13.86,248.19L15.86,248.58L16.86,248.19L17.85,248.45L18.85,247.93L24.84,246.9L25.84,247.16L30.83,246.77L31.83,246.51L37.82,246.12L38.82,245.73L40.82,245.86L41.81,245.22L43.81,245.09L44.8,244.44L45.81,244.96L46.8,244.57L47.8,243.66L48.8,243.92L49.8,244.57L50.8,243.02L53.79,242.11L54.79,242.63L55.79,242.24L56.79,243.15L57.78,242.24L58.79,240.17L60.78,240.69L61.78,239.78L65.77,237.84L66.77,236.94L68.76,238.23L69.77,237.07L70.76,235L71.76,235.51L72.76,236.55L73.75,235L75.75,232.67L76.75,232.28L78.75,230.6L79.75,231.12L81.74,229.95L82.74,230.21L83.74,231.76L84.74,229.56L87.74,230.6L88.74,230.21L90.73,226.46L91.73,226.07L92.73,226.85L93.73,225.55L94.72,225.68L95.72,227.36L96.72,227.11L97.72,225.55L101.71,221.16L102.71,218.44L103.71,219.09L104.71,217.66L105.71,216.63L106.7,217.4L108.7,217.66L109.7,218.7L113.7,216.5L114.69,216.37L116.69,215.72L117.69,214.69L118.68,214.3L119.68,214.82L120.68,215.98L121.68,215.98L123.68,213.78L124.67,213.52L127.67,212.75L128.67,212.23L129.67,211.45L130.66,211.84L135.66,211.58L136.66,211.84L138.65,210.42L139.65,208.87L140.65,207.7L141.65,207.7L142.65,206.93L143.64,207.83L146.64,207.96L147.64,142.27L150.63,140.18L151.63,140.44L153.63,139.92L154.63,139.01L156.62,139.14L157.62,139.14L161.61,138.48L162.61,138.35L165.6,137.83L166.6,137.96L175.59,137.96L176.59,138.09L183.57,137.83L184.57,137.18L187.57,137.18L188.57,136.14L192.55,136.27L193.56,135.74L195.55,135.88L196.55,135.22L198.55,134.57L199.55,135.22L202.54,132.22L203.54,132.22L204.54,133.27L205.53,132.88L207.53,131.57L208.53,132.22L212.52,128.44L213.52,130.14L217.51,127.14L218.52,128.05L220.51,126.48L221.51,127.66L222.51,128.7L223.51,127.79L224.51,128.83L225.5,128.31L226.5,127.4L227.5,128.44L228.5,127.79L229.49,128.18L232.49,128.83L233.49,128.44L235.51,126.48L236.5,125.05L238.49,124.92L239.49,125.44L240.49,125.96L241.49,124.01L245.49,123.09L246.49,121.4L249.48,122.44L250.48,121.92L252.47,118.4L253.47,119.96L254.48,119.96L255.47,118.79L256.47,119.7L257.46,119.18L259.46,117.35L260.46,117.48L263.46,114.35L264.45,114.48L266.45,112.14L267.45,112.92L269.44,110.83L270.45,111.35L273.44,110.7L274.44,108.09L275.43,107.96L276.43,106.92L277.43,105.48L278.43,105.74L279.43,106L280.43,107.18L281.43,107.83L282.42,107.18L283.43,109.13L284.42,108.35L285.42,108.22L286.41,106.66L287.42,106.27L288.41,106.79L290.41,107.05L291.41,61.25L293.4,59.41L294.4,59.15L297.4,57.57L298.4,57.17L300.39,57.04L301.39,56.78L305.38,55.46L306.38,54.54L308.38,54.28L309.38,54.81L313.37,53.75L314.37,53.62L316.37,53.62L317.37,53.75L333.34,51.78L334.34,52.18L337.33,51.12L338.32,51.25L339.33,51.52L340.32,50.73L346.31,50.07L348.31,49.54L349.31,48.23L351.3,47.83L353.3,47.44L354.3,45.73L355.3,46.91L356.3,45.73L358.29,45.73L359.29,45.07L360.29,44.94L361.29,43.76L364.28,43.49L365.28,41.91L367.27,40.2L368.28,39.42L369.24,38.1L370.23,38.76L373.23,37.71L374.23,36L378.23,35.34L379.22,33.36L380.22,32.71L381.22,33.23L383.21,32.44L384.22,32.05L385.22,31.92L386.21,30.86L388.21,30.86L389.2,31.39L391.2,32.97L392.21,31.13L394.2,32.31L395.21,30.34L397.2,30.47L398.2,30.86L401.19,29.02L402.19,29.42L404.18,27.71L405.18,26.66L406.18,24.16L407.18,24.68L408.17,23.24L409.17,24.68L411.17,22.84L412.17,22.58L413.17,21.26L414.16,21.66L416.16,21.79L417.16,20.74L418.16,21.26L419.16,19.68L421.15,19.55L422.15,18.5L426.14,18.89L427.14,17.97L428.14,17.45L429.14,17.84L430.14,17.97L431.14,17.05L432.14,16L433.13,16.66L434.14,16.39L435.14,171.81L440.13,171.4L441.13,172.08L444.12,170.99L445.12,170.99L447.12,169.76L448.11,169.76L450.11,168.94L451.1,169.08L468.08,168.39L469.07,167.98L482.05,165.8L483.05,165.12L488.04,164.02L489.04,162.66L493.07,162.38L494.06,163.61L496.06,161.7L497.06,161.57L498.06,160.88L499.06,158.43L500.05,156.51L501.05,156.79L502.05,156.1L503.05,154.33L504.05,154.88L505.04,154.19L507.04,154.33L508.04,153.37L510.04,152.69L511.04,153.65L513.03,152.01L514.03,150.92L515.03,151.87L516.03,150.64L518.03,149.14L519.02,149.14L520.02,148.32L521.02,149.41L523.02,150.37L524.02,149.41L525.01,149.55L526.02,148.73L530.01,145.18L531.01,144.5L534,143.54L535,145.04L537,144.77" style="vector-effect: non-scaling-stroke; fill: none; stroke: rgb(99, 110, 250); stroke-opacity: 1; stroke-width: 2px; opacity: 1;"/></g><g class="points"/><g class="text"/></g></g></g><g class="overplot"/><path class="xlines-above crisp" d="M0,0" style="fill: none;"/><path class="ylines-above crisp" d="M0,0" style="fill: none;"/><g class="overlines-above"/><g class="xaxislayer-above"><g class="xtick"><text text-anchor="middle" x="0" y="433" transform="translate(83.73,0)" style="font-family: 'Open Sans', verdana, arial, sans-serif; font-size: 12px; fill: rgb(42, 63, 95); fill-opacity: 1; white-space: pre;"><tspan class="line" dy="0em" x="0" y="433">00:00</tspan><tspan class="line" dy="1.3em" x="0" y="433">Aug 3, 2021</tspan></text></g><g class="xtick"><text text-anchor="middle" x="0" y="433" transform="translate(155.61,0)" style="font-family: 'Open Sans', verdana, arial, sans-serif; font-size: 12px; fill: rgb(42, 63, 95); fill-opacity: 1; white-space: pre;">12:00</text></g><g class="xtick"><text text-anchor="middle" x="0" y="433" transform="translate(227.49,0)" style="font-family: 'Open Sans', verdana, arial, sans-serif; font-size: 12px; fill: rgb(42, 63, 95); fill-opacity: 1; white-space: pre;"><tspan class="line" dy="0em" x="0" y="433">00:00</tspan><tspan class="line" dy="1.3em" x="0" y="433">Aug 4, 2021</tspan></text></g><g class="xtick"><text text-anchor="middle" x="0" y="433" transform="translate(299.37,0)" style="font-family: 'Open Sans', verdana, arial, sans-serif; font-size: 12px; fill: rgb(42, 63, 95); fill-opacity: 1; white-space: pre;">12:00</text></g><g class="xtick"><text text-anchor="middle" x="0" y="433" transform="translate(371.25,0)" style="font-family: 'Open Sans', verdana, arial, sans-serif; font-size: 12px; fill: rgb(42, 63, 95); fill-opacity: 1; white-space: pre;"><tspan class="line" dy="0em" x="0" y="433">00:00</tspan><tspan class="line" dy="1.3em" x="0" y="433">Aug 5, 2021</tspan></text></g><g class="xtick"><text text-anchor="middle" x="0" y="433" transform="translate(443.13,0)" style="font-family: 'Open Sans', verdana, arial, sans-serif; font-size: 12px; fill: rgb(42, 63, 95); fill-opacity: 1; white-space: pre;">12:00</text></g><g class="xtick"><text text-anchor="middle" x="0" y="433" transform="translate(515.01,0)" style="font-family: 'Open Sans', verdana, arial, sans-serif; font-size: 12px; fill: rgb(42, 63, 95); fill-opacity: 1; white-space: pre;"><tspan class="line" dy="0em" x="0" y="433">00:00</tspan><tspan class="line" dy="1.3em" x="0" y="433">Aug 6, 2021</tspan></text></g><g class="xtick"><text text-anchor="middle" x="0" y="433" transform="translate(586.89,0)" style="font-family: 'Open Sans', verdana, arial, sans-serif; font-size: 12px; fill: rgb(42, 63, 95); fill-opacity: 1; white-space: pre;">12:00</text></g></g><g class="yaxislayer-above"><g class="ytick"><text text-anchor="end" x="79" y="4.199999999999999" transform="translate(0,392.55)" style="font-family: 'Open Sans', verdana, arial, sans-serif; font-size: 12px; fill: rgb(42, 63, 95); fill-opacity: 1; white-space: pre;">0.864</text></g><g class="ytick"><text text-anchor="end" x="79" y="4.199999999999999" transform="translate(0,349.77)" style="font-family: 'Open Sans', verdana, arial, sans-serif; font-size: 12px; fill: rgb(42, 63, 95); fill-opacity: 1; white-space: pre;">0.865</text></g><g class="ytick"><text text-anchor="end" x="79" y="4.199999999999999" transform="translate(0,306.99)" style="font-family: 'Open Sans', verdana, arial, sans-serif; font-size: 12px; fill: rgb(42, 63, 95); fill-opacity: 1; white-space: pre;">0.866</text></g><g class="ytick"><text text-anchor="end" x="79" y="4.199999999999999" transform="translate(0,264.21000000000004)" style="font-family: 'Open Sans', verdana, arial, sans-serif; font-size: 12px; fill: rgb(42, 63, 95); fill-opacity: 1; white-space: pre;">0.867</text></g><g class="ytick"><text text-anchor="end" x="79" y="4.199999999999999" transform="translate(0,221.43)" style="font-family: 'Open Sans', verdana, arial, sans-serif; font-size: 12px; fill: rgb(42, 63, 95); fill-opacity: 1; white-space: pre;">0.868</text></g><g class="ytick"><text text-anchor="end" x="79" y="4.199999999999999" transform="translate(0,178.65)" style="font-family: 'Open Sans', verdana, arial, sans-serif; font-size: 12px; fill: rgb(42, 63, 95); fill-opacity: 1; white-space: pre;">0.869</text></g><g class="ytick"><text text-anchor="end" x="79" y="4.199999999999999" transform="translate(0,135.87)" style="font-family: 'Open Sans', verdana, arial, sans-serif; font-size: 12px; fill: rgb(42, 63, 95); fill-opacity: 1; white-space: pre;">0.87</text></g></g><g class="overaxes-above"/></g></g><g class="polarlayer"/><g class="ternarylayer"/><g class="geolayer"/><g class="funnelarealayer"/><g class="pielayer"/><g class="treemaplayer"/><g class="sunburstlayer"/><g class="glimages"/><defs id="topdefs-434afe"><g class="clips"/><clipPath id="legend434afe"><rect width="60" height="45" x="0" y="0"/></clipPath></defs><g class="layer-above"><g class="imagelayer"/><g class="shapelayer"/></g><g class="infolayer"><g class="legend" pointer-events="all" transform="translate(627.74,100)"><rect class="bg" shape-rendering="crispEdges" width="60" height="45" x="0" y="0" style="stroke: rgb(68, 68, 68); stroke-opacity: 1; fill: rgb(255, 255, 255); fill-opacity: 1; stroke-width: 0px;"/><g class="scrollbox" transform="" clip-path="url('#legend434afe')"><text class="legendtitletext" text-anchor="start" x="2" y="15.600000000000001" style="font-family: 'Open Sans', verdana, arial, sans-serif; font-size: 12px; fill: rgb(42, 63, 95); fill-opacity: 1; white-space: pre;">All</text><g class="groups" transform=""><g class="traces" transform="translate(0,30.1)" style="opacity: 1;"><text class="legendtext" text-anchor="start" x="40" y="4.680000000000001" style="font-family: 'Open Sans', verdana, arial, sans-serif; font-size: 12px; fill: rgb(42, 63, 95); fill-opacity: 1; white-space: pre;">All</text><g class="layers" style="opacity: 1;"><g class="legendfill"/><g class="legendlines"><path class="js-line" d="M5,0h30" style="fill: none; stroke: rgb(99, 110, 250); stroke-opacity: 1; stroke-width: 2px;"/></g><g class="legendsymbols"><g class="legendpoints"/></g></g><rect class="legendtoggle" x="0" y="-9.5" width="54.890625" height="19" style="fill: rgb(0, 0, 0); fill-opacity: 0;"/></g></g></g><rect class="scrollbar" rx="20" ry="3" width="0" height="0" x="0" y="0" style="fill: rgb(128, 139, 164); fill-opacity: 1;"/></g><g class="g-gtitle"><text class="gtitle" x="35" y="50" text-anchor="start" dy="0em" style="font-family: 'Open Sans', verdana, arial, sans-serif; font-size: 17px; fill: rgb(42, 63, 95); opacity: 1; font-weight: normal; white-space: pre;">Singapore Vaccination Centers</text></g><g class="g-xtitle"><text class="xtitle" x="348.5" y="476.409375" text-anchor="middle" style="font-family: 'Open Sans', verdana, arial, sans-serif; font-size: 14px; fill: rgb(42, 63, 95); opacity: 1; font-weight: normal; white-space: pre;">Time</text></g><g class="g-ytitle"><text class="ytitle" transform="rotate(-90,19.840625000000003,260)" x="19.840625000000003" y="260" text-anchor="middle" style="font-family: 'Open Sans', verdana, arial, sans-serif; font-size: 14px; fill: rgb(42, 63, 95); opacity: 1; font-weight: normal; white-space: pre;">Filled/%</text></g></g></svg>