<svg class="main-svg" xmlns="http://www.w3.org/2000/svg" xmlns:xlink="http://www.w3.org/1999/xlink" width="700" height="500" style="" viewBox="0 0 700 500"><rect x="0" y="0" width="700" height="500" style="fill: rgb(255, 255, 255); fill-opacity: 1;"/><defs id="defs-390688"><g class="clips"><clipPath id="clip390688xyplot" class="plotclip"><rect width="537" height="320"/></clipPath><clipPath class="axesclip" id="clip390688x"><rect x="80" y="0" width="537" height="500"/></clipPath><clipPath class="axesclip" id="clip390688y"><rect x="0" y="100" width="700" height="320"/></clipPath><clipPath class="axesclip" id="clip390688xy"><rect x="80" y="100" width="537" height="320"/></clipPath></g><g class="gradients"/></defs><g class="bglayer"><rect class="bg" x="80" y="100" width="537" height="320" style="fill: rgb(229, 236, 246); fill-opacity: 1; stroke-width: 0;"/></g><g class="layer-below"><g class="imagelayer"/><g class="shapelayer"/></g><g class="cartesianlayer"><g class="subplot xy"><g class="layer-subplot"><g class="shapelayer"/><g class="imagelayer"/></g><g class="gridlayer"><g class="x"><path class="xgrid crisp" transform="translate(92.71000000000001,0)" d="M0,100v320" style="stroke: rgb(255, 255, 255); stroke-opacity: 1; stroke-width: 1px;"/><path class="xgrid crisp" transform="translate(229.59,0)" d="M0,100v320" style="stroke: rgb(255, 255, 255); stroke-opacity: 1; stroke-width: 1px;"/><path class="xgrid crisp" transform="translate(366.47,0)" d="M0,100v320" style="stroke: rgb(255, 255, 255); stroke-opacity: 1; stroke-width: 1px;"/><path class="xgrid crisp" transform="translate(503.35,0)" d="M0,100v320" style="stroke: rgb(255, 255, 255); stroke-opacity: 1; stroke-width: 1px;"/></g><g class="y"><path class="ygrid crisp" transform="translate(0,388.55)" d="M80,0h537" style="stroke: rgb(255, 255, 255); stroke-opacity: 1; stroke-width: 1px;"/><path class="ygrid crisp" transform="translate(0,328.59000000000003)" d="M80,0h537" style="stroke: rgb(255, 255, 255); stroke-opacity: 1; stroke-width: 1px;"/><path class="ygrid crisp" transform="translate(0,268.62)" d="M80,0h537" style="stroke: rgb(255, 255, 255); stroke-opacity: 1; stroke-width: 1px;"/><path class="ygrid crisp" transform="translate(0,208.65)" d="M80,0h537" style="stroke: rgb(255, 255, 255); stroke-opacity: 1; stroke-width: 1px;"/><path class="ygrid crisp" transform="translate(0,148.69)" d="M80,0h537" style="stroke: rgb(255, 255, 255); stroke-opacity: 1; stroke-width: 1px;"/></g></g><g class="zerolinelayer"/><path class="xlines-below"/><path class="ylines-below"/><g class="overlines-below"/><g class="xaxislayer-below"/><g class="yaxislayer-below"/><g class="overaxes-below"/><g class="plot" transform="translate(80,100)" clip-path="url('#clip390688xyplot')"><g class="scatterlayer mlayer"><g class="trace scatter trace06da97" style="stroke-miterlimit: 2; opacity: 1;"><g class="fills"/><g class="errorbars"/><g class="lines"><path class="js-line" d="M0,151.19L8.03,151.66L10.88,229.1L16.55,229.27L18.65,262.63L19.54,262.59L40.53,264.75L41.84,230.62L42.24,247.75L43.19,247.62L45.09,241.12L46.04,240.91L47.94,248.08L48.89,247.91L50.79,254.04L51.74,253.87L53.64,229.53L54.6,229.39L56.49,253.89L57.45,253.71L59.35,241.74L60.29,234.89L62.2,214.27L63.15,206.72L65.05,176.26L66,172.83L67.9,134.64L68.85,132L70.75,144.05L71.7,141.9L73.6,113.25L74.55,111.49L76.45,116.91L77.4,115.59L79.31,134.84L80.26,133.95L81.51,89.08L82.16,90.52L83.11,90.13L88.81,89.24L89.76,89.09L104.97,88.15L105.92,87.9L109.72,86.16L110.67,85.57L134.44,72.26L135.39,71.89L148.7,66.89L149.65,68.6L159.15,68.01L160.1,68L178.16,67.22L179.11,67.01L217.13,58.48L218.09,55.84L229.49,55.49L230.44,55.49L244.7,54.9L245.65,54.72L260.86,51.4L261.81,51.18L282.72,47.14L283.67,46.94L285.58,46.7L286.53,41.63L302.69,41.35L303.64,41.34L315.05,40.62L316,40.47L318.85,40.09L319.8,177.9L327.43,174.99L328.39,174.7L332.16,173.3L333.11,170.02L335.01,165.13L335.96,163.9L336.91,161.87L337.86,156.05L339.76,139.75L340.71,136.11L344.51,127.34L345.47,125.71L350.22,119.81L351.17,118.87L354.02,116.83L354.97,116.97L358.77,115.8L359.72,115.71L371.13,115.2L372.08,115.19L379.68,114.44L380.63,114.25L388.24,110.82L389.19,110.1L392.99,106.69L393.94,111.42L396.79,109.69L397.74,108.08L403.45,93.54L404.4,91.96L407.25,85.93L408.2,83.58L409.15,81.23L410.1,76.19L412.95,64.63L413.9,62.22L418.66,53.04L419.61,51.69L422.46,48.8L423.41,49.12L427.21,47.64L428.16,47.48L436.72,46.79L437.67,46.74L445.27,45.95L446.22,45.71L450.97,43.17L451.92,42.54L454.78,40.66L455.73,135.95L457.63,132.71L458.58,131.76L466.19,125.54L467.14,125.01L469.04,123.7L469.77,130.07L469.99,122.85L470.89,122.57L470.94,124.6L471.84,121.95L471.89,123.98L472.84,123.33L474.74,122.24L475.69,139.26L484.01,134.11L484.05,130.85L484.1,130.28L484.25,133.76L493.28,74.61L493.75,74.88L494.23,68.92L495.18,69.28L495.65,71.47L497.08,59.71L497.56,68.22L498.5,65.31L498.98,64.27L500.88,61.13L501.36,62.83L501.83,61.41L502.31,61.96L502.78,61.73L504.21,61.69L504.68,71.11L506.58,70.86L507.06,69.29L507.53,70.36L508.01,70.09L508.48,69.01L509.43,68.96L509.91,68.4L510.86,57.64L511.34,56.31L513.71,51.51L514.19,48.58L514.66,48.66L515.14,46.17L516.09,37.58L516.56,35.63L517.04,34.38L517.51,29.12L517.99,16L518.46,17.64L518.94,269.28L519.42,267.32L519.89,273.13L520.84,262.37L521.32,266.85L522.27,261.05L522.74,262.03L523.22,271.47L523.69,282.53L524.17,255.49L525.12,265.01L525.59,304L527.02,255.72L527.49,280.01L527.97,286.09L528.44,282.54L528.92,277.11L529.87,257.41L530.35,260.16L531.29,281.24L531.77,273.19L532.25,272.46L532.72,292.91L533.67,270.62L534.15,286.61L535.1,242.53L535.58,263.97L536.53,269.91L537,266.71" style="vector-effect: non-scaling-stroke; fill: none; stroke: rgb(99, 110, 250); stroke-opacity: 1; stroke-width: 2px; opacity: 1;"/></g><g class="points"/><g class="text"/></g></g></g><g class="overplot"/><path class="xlines-above crisp" d="M0,0" style="fill: none;"/><path class="ylines-above crisp" d="M0,0" style="fill: none;"/><g class="overlines-above"/><g class="xaxislayer-above"><g class="xtick"><text text-anchor="middle" x="0" y="433" transform="translate(92.71000000000001,0)" style="font-family: 'Open Sans', verdana, arial, sans-serif; font-size: 12px; fill: rgb(42, 63, 95); fill-opacity: 1; white-space: pre;"><tspan class="line" dy="0em" x="0" y="433">Jun 4</tspan><tspan class="line" dy="1.3em" x="0" y="433">2021</tspan></text></g><g class="xtick"><text text-anchor="middle" x="0" y="433" transform="translate(229.59,0)" style="font-family: 'Open Sans', verdana, arial, sans-serif; font-size: 12px; fill: rgb(42, 63, 95); fill-opacity: 1; white-space: pre;">Jun 6</text></g><g class="xtick"><text text-anchor="middle" x="0" y="433" transform="translate(366.47,0)" style="font-family: 'Open Sans', verdana, arial, sans-serif; font-size: 12px; fill: rgb(42, 63, 95); fill-opacity: 1; white-space: pre;">Jun 8</text></g><g class="xtick"><text text-anchor="middle" x="0" y="433" transform="translate(503.35,0)" style="font-family: 'Open Sans', verdana, arial, sans-serif; font-size: 12px; fill: rgb(42, 63, 95); fill-opacity: 1; white-space: pre;">Jun 10</text></g></g><g class="yaxislayer-above"><g class="ytick"><text text-anchor="end" x="79" y="4.199999999999999" transform="translate(0,388.55)" style="font-family: 'Open Sans', verdana, arial, sans-serif; font-size: 12px; fill: rgb(42, 63, 95); fill-opacity: 1; white-space: pre;">0.84</text></g><g class="ytick"><text text-anchor="end" x="79" y="4.199999999999999" transform="translate(0,328.59000000000003)" style="font-family: 'Open Sans', verdana, arial, sans-serif; font-size: 12px; fill: rgb(42, 63, 95); fill-opacity: 1; white-space: pre;">0.85</text></g><g class="ytick"><text text-anchor="end" x="79" y="4.199999999999999" transform="translate(0,268.62)" style="font-family: 'Open Sans', verdana, arial, sans-serif; font-size: 12px; fill: rgb(42, 63, 95); fill-opacity: 1; white-space: pre;">0.86</text></g><g class="ytick"><text text-anchor="end" x="79" y="4.199999999999999" transform="translate(0,208.65)" style="font-family: 'Open Sans', verdana, arial, sans-serif; font-size: 12px; fill: rgb(42, 63, 95); fill-opacity: 1; white-space: pre;">0.87</text></g><g class="ytick"><text text-anchor="end" x="79" y="4.199999999999999" transform="translate(0,148.69)" style="font-family: 'Open Sans', verdana, arial, sans-serif; font-size: 12px; fill: rgb(42, 63, 95); fill-opacity: 1; white-space: pre;">0.88</text></g></g><g class="overaxes-above"/></g></g><g class="polarlayer"/><g class="ternarylayer"/><g class="geolayer"/><g class="funnelarealayer"/><g class="pielayer"/><g class="treemaplayer"/><g class="sunburstlayer"/><g class="glimages"/><defs id="topdefs-390688"><g class="clips"/><clipPath id="legend390688"><rect width="60" height="45" x="0" y="0"/></clipPath></defs><g class="layer-above"><g class="imagelayer"/><g class="shapelayer"/></g><g class="infolayer"><g class="legend" pointer-events="all" transform="translate(627.74,100)"><rect class="bg" shape-rendering="crispEdges" width="60" height="45" x="0" y="0" style="stroke: rgb(68, 68, 68); stroke-opacity: 1; fill: rgb(255, 255, 255); fill-opacity: 1; stroke-width: 0px;"/><g class="scrollbox" transform="" clip-path="url('#legend390688')"><text class="legendtitletext" text-anchor="start" x="2" y="15.600000000000001" style="font-family: 'Open Sans', verdana, arial, sans-serif; font-size: 12px; fill: rgb(42, 63, 95); fill-opacity: 1; white-space: pre;">All</text><g class="groups" transform=""><g class="traces" transform="translate(0,30.1)" style="opacity: 1;"><text class="legendtext" text-anchor="start" x="40" y="4.680000000000001" style="font-family: 'Open Sans', verdana, arial, sans-serif; font-size: 12px; fill: rgb(42, 63, 95); fill-opacity: 1; white-space: pre;">All</text><g class="layers" style="opacity: 1;"><g class="legendfill"/><g class="legendlines"><path class="js-line" d="M5,0h30" style="fill: none; stroke: rgb(99, 110, 250); stroke-opacity: 1; stroke-width: 2px;"/></g><g class="legendsymbols"><g class="legendpoints"/></g></g><rect class="legendtoggle" x="0" y="-9.5" width="54.890625" height="19" style="fill: rgb(0, 0, 0); fill-opacity: 0;"/></g></g></g><rect class="scrollbar" rx="20" ry="3" width="0" height="0" x="0" y="0" style="fill: rgb(128, 139, 164); fill-opacity: 1;"/></g><g class="g-gtitle"><text class="gtitle" x="35" y="50" text-anchor="start" dy="0em" style="font-family: 'Open Sans', verdana, arial, sans-serif; font-size: 17px; fill: rgb(42, 63, 95); opacity: 1; font-weight: normal; white-space: pre;">Singapore Vaccination Centers</text></g><g class="g-xtitle"><text class="xtitle" x="348.5" y="476.409375" text-anchor="middle" style="font-family: 'Open Sans', verdana, arial, sans-serif; font-size: 14px; fill: rgb(42, 63, 95); opacity: 1; font-weight: normal; white-space: pre;">Time</text></g><g class="g-ytitle"><text class="ytitle" transform="rotate(-90,27.481250000000003,260)" x="27.481250000000003" y="260" text-anchor="middle" style="font-family: 'Open Sans', verdana, arial, sans-serif; font-size: 14px; fill: rgb(42, 63, 95); opacity: 1; font-weight: normal; white-space: pre;">Filled/%</text></g></g></svg>