<svg class="main-svg" xmlns="http://www.w3.org/2000/svg" xmlns:xlink="http://www.w3.org/1999/xlink" width="700" height="500" style="" viewBox="0 0 700 500"><rect x="0" y="0" width="700" height="500" style="fill: rgb(255, 255, 255); fill-opacity: 1;"/><defs id="defs-c8e636"><g class="clips"><clipPath id="clipc8e636xyplot" class="plotclip"><rect width="537" height="320"/></clipPath><clipPath class="axesclip" id="clipc8e636x"><rect x="80" y="0" width="537" height="500"/></clipPath><clipPath class="axesclip" id="clipc8e636y"><rect x="0" y="100" width="700" height="320"/></clipPath><clipPath class="axesclip" id="clipc8e636xy"><rect x="80" y="100" width="537" height="320"/></clipPath></g><g class="gradients"/></defs><g class="bglayer"><rect class="bg" x="80" y="100" width="537" height="320" style="fill: rgb(229, 236, 246); fill-opacity: 1; stroke-width: 0;"/></g><g class="layer-below"><g class="imagelayer"/><g class="shapelayer"/></g><g class="cartesianlayer"><g class="subplot xy"><g class="layer-subplot"><g class="shapelayer"/><g class="imagelayer"/></g><g class="gridlayer"><g class="x"><path class="xgrid crisp" transform="translate(82.65,0)" d="M0,100v320" style="stroke: rgb(255, 255, 255); stroke-opacity: 1; stroke-width: 1px;"/><path class="xgrid crisp" transform="translate(184.95999999999998,0)" d="M0,100v320" style="stroke: rgb(255, 255, 255); stroke-opacity: 1; stroke-width: 1px;"/><path class="xgrid crisp" transform="translate(287.26,0)" d="M0,100v320" style="stroke: rgb(255, 255, 255); stroke-opacity: 1; stroke-width: 1px;"/><path class="xgrid crisp" transform="translate(389.56,0)" d="M0,100v320" style="stroke: rgb(255, 255, 255); stroke-opacity: 1; stroke-width: 1px;"/><path class="xgrid crisp" transform="translate(491.86,0)" d="M0,100v320" style="stroke: rgb(255, 255, 255); stroke-opacity: 1; stroke-width: 1px;"/><path class="xgrid crisp" transform="translate(594.16,0)" d="M0,100v320" style="stroke: rgb(255, 255, 255); stroke-opacity: 1; stroke-width: 1px;"/></g><g class="y"><path class="ygrid crisp" transform="translate(0,392.55)" d="M80,0h537" style="stroke: rgb(255, 255, 255); stroke-opacity: 1; stroke-width: 1px;"/><path class="ygrid crisp" transform="translate(0,349.77)" d="M80,0h537" style="stroke: rgb(255, 255, 255); stroke-opacity: 1; stroke-width: 1px;"/><path class="ygrid crisp" transform="translate(0,306.99)" d="M80,0h537" style="stroke: rgb(255, 255, 255); stroke-opacity: 1; stroke-width: 1px;"/><path class="ygrid crisp" transform="translate(0,264.21000000000004)" d="M80,0h537" style="stroke: rgb(255, 255, 255); stroke-opacity: 1; stroke-width: 1px;"/><path class="ygrid crisp" transform="translate(0,221.43)" d="M80,0h537" style="stroke: rgb(255, 255, 255); stroke-opacity: 1; stroke-width: 1px;"/><path class="ygrid crisp" transform="translate(0,178.65)" d="M80,0h537" style="stroke: rgb(255, 255, 255); stroke-opacity: 1; stroke-width: 1px;"/><path class="ygrid crisp" transform="translate(0,135.87)" d="M80,0h537" style="stroke: rgb(255, 255, 255); stroke-opacity: 1; stroke-width: 1px;"/></g></g><g class="zerolinelayer"/><path class="xlines-below"/><path class="ylines-below"/><g class="overlines-below"/><g class="xaxislayer-below"/><g class="yaxislayer-below"/><g class="overaxes-below"/><g class="plot" transform="translate(80,100)" clip-path="url('#clipc8e636xyplot')"><g class="scatterlayer mlayer"><g class="trace scatter tracecfac9f" style="stroke-miterlimit: 2; opacity: 1;"><g class="fills"/><g class="errorbars"/><g class="lines"><path class="js-line" d="M0,304L2.05,302.59L2.76,249.74L3.47,251.04L4.18,249.35L7.02,248.71L7.73,248.32L9.15,249.1L9.86,248.19L11.28,248.58L11.99,248.19L13.41,247.93L14.12,247.67L15.55,247.41L16.26,247.16L21.94,246.77L22.65,246.51L26.91,246.12L27.62,245.73L29.05,245.86L29.76,245.22L31.17,245.09L31.88,244.44L33.31,244.57L34.01,243.66L35.44,244.57L36.15,243.02L38.28,242.11L38.99,242.63L39.7,242.24L40.41,243.15L41.83,240.17L42.54,240.69L43.25,240.69L43.96,239.78L47.51,236.94L48.22,237.97L48.93,238.23L49.65,237.07L50.35,235L51.07,235.51L51.77,236.55L52.48,235L53.91,232.67L54.62,232.28L56.04,230.6L56.75,231.12L58.17,229.95L58.88,230.21L59.59,231.76L60.3,229.56L62.43,230.6L63.14,230.21L65.28,226.07L65.99,226.85L67.41,225.68L68.12,227.36L68.83,227.11L69.54,225.55L72.38,221.16L73.09,218.44L73.8,219.09L74.51,217.66L75.22,216.63L75.93,217.4L77.35,217.66L78.06,218.7L80.91,216.5L81.61,216.37L83.04,215.72L83.75,214.69L84.46,214.3L85.17,214.82L86.59,215.98L87.3,214.43L89.43,213.39L90.14,212.88L91.56,212.23L92.27,211.45L94.4,212.23L95.11,211.84L96.53,211.58L97.25,211.84L98.66,210.42L99.38,208.87L100.8,207.7L101.51,206.93L102.93,207.96L103.64,207.44L104.35,207.96L105.06,142.27L107.19,140.18L107.9,140.44L109.32,139.92L110.03,139.01L111.45,139.14L112.17,139.14L115,138.48L115.71,138.35L117.84,137.83L118.56,137.96L124.95,137.96L125.66,138.09L130.63,137.83L131.34,137.18L133.47,137.18L134.18,136.14L137.02,136.27L137.74,135.74L139.16,135.88L139.86,135.22L141.29,134.57L142,135.22L144.84,132.22L145.55,133.27L147.68,131.57L148.39,132.22L151.23,128.44L151.94,130.14L154.78,127.14L155.5,128.05L156.92,126.48L157.63,127.66L158.34,128.7L159.05,127.79L159.76,128.83L160.47,128.31L161.18,127.4L161.89,128.44L162.6,127.79L163.31,128.18L165.44,128.83L166.15,128.44L169,124.79L169.71,124.92L171.14,125.96L171.85,124.01L174.69,123.09L175.4,121.4L178.24,121.92L178.95,120.61L179.66,118.4L180.37,119.96L181.09,119.96L181.79,118.79L182.5,119.7L183.21,119.18L184.64,117.35L185.35,117.48L187.48,114.35L188.19,114.48L189.61,112.14L190.32,112.92L191.74,110.83L192.45,111.35L194.58,110.7L195.29,108.09L196,107.96L196.71,106.92L197.42,105.48L198.13,105.74L198.84,106L199.55,107.18L200.27,107.83L200.97,107.18L201.69,109.13L202.4,108.35L203.11,108.22L203.81,106.66L204.53,106.27L205.24,106.79L206.66,107.05L207.37,61.25L209.5,59.15L210.21,58.88L214.47,56.78L215.18,56.52L218.02,54.54L218.73,54.28L220.87,54.41L221.58,53.75L225.13,53.62L225.84,53.75L237.2,51.78L237.92,52.18L240.05,51.12L240.75,51.25L241.47,51.52L242.17,50.73L246.44,50.07L247.86,49.54L248.57,48.23L249.99,47.83L251.41,47.44L252.12,45.73L252.83,46.91L253.54,45.73L254.96,45.73L255.67,45.07L256.38,44.94L257.09,43.76L259.22,43.49L259.94,41.91L261.35,40.2L262.07,39.42L262.76,38.1L263.46,38.76L265.59,37.71L266.3,36L269.15,35.34L269.85,33.36L270.57,32.71L271.28,33.23L272.7,32.44L273.41,32.05L274.12,31.92L274.83,30.86L276.25,30.86L276.96,31.39L278.38,32.97L279.1,31.13L280.52,32.31L281.24,30.34L282.65,30.47L283.36,30.86L285.49,29.02L286.2,29.42L287.62,27.71L288.33,26.66L289.04,24.16L289.75,24.68L290.46,23.24L291.17,24.68L292.59,22.84L293.3,22.58L294.01,21.26L294.72,21.66L296.14,21.79L296.85,20.74L297.56,21.26L298.28,19.68L299.69,19.55L300.41,18.5L303.25,18.89L303.96,17.97L305.38,17.84L306.09,17.97L307.51,16L308.22,16.66L308.93,16.39L309.65,171.81L313.2,171.4L313.91,172.08L316.04,170.99L316.75,170.99L318.17,169.76L318.88,169.76L320.3,168.94L321.01,169.08L333.09,168.39L333.8,167.98L343.03,165.8L343.74,165.12L347.29,164.02L348.01,162.66L350.87,162.38L351.58,163.61L353,161.7L353.71,161.57L354.42,160.88L355.13,158.43L355.84,156.51L356.55,156.79L357.26,156.1L357.97,154.33L358.68,154.88L359.39,154.19L360.82,154.33L361.53,153.37L362.95,152.69L363.66,153.65L365.79,150.92L366.5,151.87L368.63,149.14L369.34,149.14L370.05,148.32L370.76,149.41L372.18,150.37L372.89,149.41L373.6,149.55L374.32,148.73L377.16,145.18L377.87,144.5L380,143.54L380.71,145.04L384.97,141.9L385.68,143.68L387.1,121.97L387.81,121.56L389.23,120.88L389.95,116.1L390.65,116.24L391.36,112.28L392.08,112.55L392.79,109.96L393.5,106.95L394.21,107.91L396.33,101.22L397.05,98.08L398.47,97.53L399.18,95.35L399.89,94.8L400.6,92.07L402.02,89.34L402.73,89.34L404.86,85.65L405.57,84.7L406.99,82.78L407.71,80.19L411.26,75L411.97,88.44L415.52,84.03L416.23,84.45L416.94,84.31L417.65,85.14L419.07,84.72L419.78,85.41L421.2,84.59L421.91,84.45L423.34,84.03L424.05,84.03L425.47,84.17L426.18,83.62L431.15,84.03L431.86,83.62L436.13,83.21L436.83,83.48L439.67,83.48L440.38,83.35L441.8,83.35L442.51,83.35L444.64,83.35L445.36,83.9L448.91,79.9L449.62,80.18L451.75,78.8L452.46,78.94L453.17,78.53L453.88,76.87L455.3,77.15L456.01,75.63L459.57,72.47L460.27,72.88L462.4,69.44L463.12,69.02L465.25,66.41L465.96,66.41L467.38,63.79L468.09,63.79L469.51,61.86L470.22,59.66L472.35,54.29L473.06,54.43L474.48,53.6L475.19,51.4L478.04,49.47L478.74,47.82L483.01,46.85L483.72,45.75L484.43,46.16L485.14,45.48L485.85,45.89L491.53,41.21L495.08,38.59L495.8,39.28L498.64,35.97L499.35,35.84L500.06,34.46L500.77,35.01L502.19,33.91L502.9,34.18L503.61,35.28L504.32,34.32L507.16,32.94L507.88,33.91L510.72,33.22L511.43,32.12L513.56,29.78L514.27,81.26L515.69,81.68L516.4,80.56L517.11,79.86L517.82,80.42L519.95,80.42L520.66,81.4L522.79,81.12L523.5,81.12L527.06,81.4L527.77,81.12L530.61,79.86L531.32,80.28L537,79.72" style="vector-effect: non-scaling-stroke; fill: none; stroke: rgb(99, 110, 250); stroke-opacity: 1; stroke-width: 2px; opacity: 1;"/></g><g class="points"/><g class="text"/></g></g></g><g class="overplot"/><path class="xlines-above crisp" d="M0,0" style="fill: none;"/><path class="ylines-above crisp" d="M0,0" style="fill: none;"/><g class="overlines-above"/><g class="xaxislayer-above"><g class="xtick"><text text-anchor="middle" x="0" y="433" transform="translate(82.65,0)" style="font-family: 'Open Sans', verdana, arial, sans-serif; font-size: 12px; fill: rgb(42, 63, 95); fill-opacity: 1; white-space: pre;"><tspan class="line" dy="0em" x="0" y="433">Aug 3</tspan><tspan class="line" dy="1.3em" x="0" y="433">2021</tspan></text></g><g class="xtick"><text text-anchor="middle" x="0" y="433" transform="translate(184.95999999999998,0)" style="font-family: 'Open Sans', verdana, arial, sans-serif; font-size: 12px; fill: rgb(42, 63, 95); fill-opacity: 1; white-space: pre;">Aug 4</text></g><g class="xtick"><text text-anchor="middle" x="0" y="433" transform="translate(287.26,0)" style="font-family: 'Open Sans', verdana, arial, sans-serif; font-size: 12px; fill: rgb(42, 63, 95); fill-opacity: 1; white-space: pre;">Aug 5</text></g><g class="xtick"><text text-anchor="middle" x="0" y="433" transform="translate(389.56,0)" style="font-family: 'Open Sans', verdana, arial, sans-serif; font-size: 12px; fill: rgb(42, 63, 95); fill-opacity: 1; white-space: pre;">Aug 6</text></g><g class="xtick"><text text-anchor="middle" x="0" y="433" transform="translate(491.86,0)" style="font-family: 'Open Sans', verdana, arial, sans-serif; font-size: 12px; fill: rgb(42, 63, 95); fill-opacity: 1; white-space: pre;">Aug 7</text></g><g class="xtick"><text text-anchor="middle" x="0" y="433" transform="translate(594.16,0)" style="font-family: 'Open Sans', verdana, arial, sans-serif; font-size: 12px; fill: rgb(42, 63, 95); fill-opacity: 1; white-space: pre;">Aug 8</text></g></g><g class="yaxislayer-above"><g class="ytick"><text text-anchor="end" x="79" y="4.199999999999999" transform="translate(0,392.55)" style="font-family: 'Open Sans', verdana, arial, sans-serif; font-size: 12px; fill: rgb(42, 63, 95); fill-opacity: 1; white-space: pre;">0.864</text></g><g class="ytick"><text text-anchor="end" x="79" y="4.199999999999999" transform="translate(0,349.77)" style="font-family: 'Open Sans', verdana, arial, sans-serif; font-size: 12px; fill: rgb(42, 63, 95); fill-opacity: 1; white-space: pre;">0.865</text></g><g class="ytick"><text text-anchor="end" x="79" y="4.199999999999999" transform="translate(0,306.99)" style="font-family: 'Open Sans', verdana, arial, sans-serif; font-size: 12px; fill: rgb(42, 63, 95); fill-opacity: 1; white-space: pre;">0.866</text></g><g class="ytick"><text text-anchor="end" x="79" y="4.199999999999999" transform="translate(0,264.21000000000004)" style="font-family: 'Open Sans', verdana, arial, sans-serif; font-size: 12px; fill: rgb(42, 63, 95); fill-opacity: 1; white-space: pre;">0.867</text></g><g class="ytick"><text text-anchor="end" x="79" y="4.199999999999999" transform="translate(0,221.43)" style="font-family: 'Open Sans', verdana, arial, sans-serif; font-size: 12px; fill: rgb(42, 63, 95); fill-opacity: 1; white-space: pre;">0.868</text></g><g class="ytick"><text text-anchor="end" x="79" y="4.199999999999999" transform="translate(0,178.65)" style="font-family: 'Open Sans', verdana, arial, sans-serif; font-size: 12px; fill: rgb(42, 63, 95); fill-opacity: 1; white-space: pre;">0.869</text></g><g class="ytick"><text text-anchor="end" x="79" y="4.199999999999999" transform="translate(0,135.87)" style="font-family: 'Open Sans', verdana, arial, sans-serif; font-size: 12px; fill: rgb(42, 63, 95); fill-opacity: 1; white-space: pre;">0.87</text></g></g><g class="overaxes-above"/></g></g><g class="polarlayer"/><g class="ternarylayer"/><g class="geolayer"/><g class="funnelarealayer"/><g class="pielayer"/><g class="treemaplayer"/><g class="sunburstlayer"/><g class="glimages"/><defs id="topdefs-c8e636"><g class="clips"/><clipPath id="legendc8e636"><rect width="60" height="45" x="0" y="0"/></clipPath></defs><g class="layer-above"><g class="imagelayer"/><g class="shapelayer"/></g><g class="infolayer"><g class="legend" pointer-events="all" transform="translate(627.74,100)"><rect class="bg" shape-rendering="crispEdges" width="60" height="45" x="0" y="0" style="stroke: rgb(68, 68, 68); stroke-opacity: 1; fill: rgb(255, 255, 255); fill-opacity: 1; stroke-width: 0px;"/><g class="scrollbox" transform="" clip-path="url('#legendc8e636')"><text class="legendtitletext" text-anchor="start" x="2" y="15.600000000000001" style="font-family: 'Open Sans', verdana, arial, sans-serif; font-size: 12px; fill: rgb(42, 63, 95); fill-opacity: 1; white-space: pre;">All</text><g class="groups" transform=""><g class="traces" transform="translate(0,30.1)" style="opacity: 1;"><text class="legendtext" text-anchor="start" x="40" y="4.680000000000001" style="font-family: 'Open Sans', verdana, arial, sans-serif; font-size: 12px; fill: rgb(42, 63, 95); fill-opacity: 1; white-space: pre;">All</text><g class="layers" style="opacity: 1;"><g class="legendfill"/><g class="legendlines"><path class="js-line" d="M5,0h30" style="fill: none; stroke: rgb(99, 110, 250); stroke-opacity: 1; stroke-width: 2px;"/></g><g class="legendsymbols"><g class="legendpoints"/></g></g><rect class="legendtoggle" x="0" y="-9.5" width="54.890625" height="19" style="fill: rgb(0, 0, 0); fill-opacity: 0;"/></g></g></g><rect class="scrollbar" rx="20" ry="3" width="0" height="0" x="0" y="0" style="fill: rgb(128, 139, 164); fill-opacity: 1;"/></g><g class="g-gtitle"><text class="gtitle" x="35" y="50" text-anchor="start" dy="0em" style="font-family: 'Open Sans', verdana, arial, sans-serif; font-size: 17px; fill: rgb(42, 63, 95); opacity: 1; font-weight: normal; white-space: pre;">Singapore Vaccination Centers</text></g><g class="g-xtitle"><text class="xtitle" x="348.5" y="476.409375" text-anchor="middle" style="font-family: 'Open Sans', verdana, arial, sans-serif; font-size: 14px; fill: rgb(42, 63, 95); opacity: 1; font-weight: normal; white-space: pre;">Time</text></g><g class="g-ytitle"><text class="ytitle" transform="rotate(-90,19.840625000000003,260)" x="19.840625000000003" y="260" text-anchor="middle" style="font-family: 'Open Sans', verdana, arial, sans-serif; font-size: 14px; fill: rgb(42, 63, 95); opacity: 1; font-weight: normal; white-space: pre;">Filled/%</text></g></g></svg>