<svg class="main-svg" xmlns="http://www.w3.org/2000/svg" xmlns:xlink="http://www.w3.org/1999/xlink" width="700" height="500" style="" viewBox="0 0 700 500"><rect x="0" y="0" width="700" height="500" style="fill: rgb(255, 255, 255); fill-opacity: 1;"/><defs id="defs-649ee5"><g class="clips"><clipPath id="clip649ee5xyplot" class="plotclip"><rect width="537" height="320"/></clipPath><clipPath class="axesclip" id="clip649ee5x"><rect x="80" y="0" width="537" height="500"/></clipPath><clipPath class="axesclip" id="clip649ee5y"><rect x="0" y="100" width="700" height="320"/></clipPath><clipPath class="axesclip" id="clip649ee5xy"><rect x="80" y="100" width="537" height="320"/></clipPath></g><g class="gradients"/></defs><g class="bglayer"><rect class="bg" x="80" y="100" width="537" height="320" style="fill: rgb(229, 236, 246); fill-opacity: 1; stroke-width: 0;"/></g><g class="layer-below"><g class="imagelayer"/><g class="shapelayer"/></g><g class="cartesianlayer"><g class="subplot xy"><g class="layer-subplot"><g class="shapelayer"/><g class="imagelayer"/></g><g class="gridlayer"><g class="x"><path class="xgrid crisp" transform="translate(89.28999999999999,0)" d="M0,100v320" style="stroke: rgb(255, 255, 255); stroke-opacity: 1; stroke-width: 1px;"/><path class="xgrid crisp" transform="translate(189.32999999999998,0)" d="M0,100v320" style="stroke: rgb(255, 255, 255); stroke-opacity: 1; stroke-width: 1px;"/><path class="xgrid crisp" transform="translate(289.38,0)" d="M0,100v320" style="stroke: rgb(255, 255, 255); stroke-opacity: 1; stroke-width: 1px;"/><path class="xgrid crisp" transform="translate(389.42,0)" d="M0,100v320" style="stroke: rgb(255, 255, 255); stroke-opacity: 1; stroke-width: 1px;"/><path class="xgrid crisp" transform="translate(489.47,0)" d="M0,100v320" style="stroke: rgb(255, 255, 255); stroke-opacity: 1; stroke-width: 1px;"/><path class="xgrid crisp" transform="translate(589.51,0)" d="M0,100v320" style="stroke: rgb(255, 255, 255); stroke-opacity: 1; stroke-width: 1px;"/></g><g class="y"><path class="ygrid crisp" transform="translate(0,367.23)" d="M80,0h537" style="stroke: rgb(255, 255, 255); stroke-opacity: 1; stroke-width: 1px;"/><path class="ygrid crisp" transform="translate(0,308.43)" d="M80,0h537" style="stroke: rgb(255, 255, 255); stroke-opacity: 1; stroke-width: 1px;"/><path class="ygrid crisp" transform="translate(0,249.63)" d="M80,0h537" style="stroke: rgb(255, 255, 255); stroke-opacity: 1; stroke-width: 1px;"/><path class="ygrid crisp" transform="translate(0,190.82999999999998)" d="M80,0h537" style="stroke: rgb(255, 255, 255); stroke-opacity: 1; stroke-width: 1px;"/><path class="ygrid crisp" transform="translate(0,132.03)" d="M80,0h537" style="stroke: rgb(255, 255, 255); stroke-opacity: 1; stroke-width: 1px;"/></g></g><g class="zerolinelayer"/><path class="xlines-below"/><path class="ylines-below"/><g class="overlines-below"/><g class="xaxislayer-below"/><g class="yaxislayer-below"/><g class="overaxes-below"/><g class="plot" transform="translate(80,100)" clip-path="url('#clip649ee5xyplot')"><g class="scatterlayer mlayer"><g class="trace scatter trace904430" style="stroke-miterlimit: 2; opacity: 1;"><g class="fills"/><g class="errorbars"/><g class="lines"><path class="js-line" d="M0,82.28L5.87,82.51L7.95,120.48L12.09,120.57L13.63,136.92L14.28,136.9L29.62,137.96L30.58,121.23L30.87,129.62L31.57,129.56L32.95,126.37L33.65,126.27L35.04,129.79L35.73,129.7L37.12,132.71L37.82,132.63L39.21,120.69L39.9,120.62L41.29,132.64L41.99,132.55L43.38,126.68L46.15,109.51L47.54,94.58L48.24,92.89L49.63,74.17L50.32,72.87L51.71,78.78L52.41,77.73L53.8,63.68L54.49,62.82L55.88,65.47L56.57,64.83L57.96,74.27L58.66,73.83L59.58,51.83L60.74,52.34L61.44,52.21L69.08,51.78L69.78,51.77L78.11,51.11L78.81,50.91L101.73,42.67L102.43,42.44L108.68,40.95L109.38,41.79L121.19,41.47L121.88,41.46L132.3,40.8L133,40.69L158.7,36.83L159.4,35.53L186.49,34L187.19,33.87L208.73,31.05L209.42,28.56L233.05,27.81L233.74,95.38L241.41,93.57L242.08,93.44L242.77,93.12L243.47,91.51L245.55,88.51L246.25,87.52L249.72,73.59L250.41,72.39L254.58,67.88L255.28,67.37L258.75,65.43L259.45,65.5L264.31,64.8L265.01,64.77L280.29,63.66L280.98,63.48L285.85,61.32L286.54,60.89L287.24,60.46L287.93,62.78L290.71,61.15L291.41,59.94L295.57,53.24L296.27,52.44L299.05,47.98L299.74,45.51L302.52,38.66L303.21,37.65L307.38,32.89L308.1,32.47L310.16,31.98L310.86,31.8L316.42,31.18L317.11,31.16L327.53,30.17L328.23,29.9L332.39,28.09L333.09,74.81L335.17,72.76L335.87,72.32L342.82,68.8L343.35,71.93L344.17,68.25L344.21,69.25L344.87,67.95L344.9,68.94L345.6,68.62L346.29,68.35L346.99,68.09L347.68,76.43L353.76,73.91L353.79,72.31L353.83,72.03L353.93,73.74L360.53,44.74L360.88,44.87L361.23,41.95L361.92,42.12L362.27,43.2L363.31,37.43L363.66,41.6L364.7,39.66L365.05,39.05L366.09,38.13L366.44,38.96L367.48,38.42L367.83,38.33L368.53,38.4L368.87,43.02L372.69,41.69L373.04,36.5L373.73,35.76L374.08,35.39L375.82,31.97L376.16,32.01L378.25,22.43L378.6,16L378.94,16.8L379.29,140.18L379.64,139.22L379.99,142.07L380.68,136.79L381.03,138.99L381.38,137.43L381.73,136.15L382.07,136.63L382.42,141.25L382.76,146.68L383.11,133.42L383.81,138.09L384.16,157.2L385.2,133.53L385.54,145.44L385.89,148.42L386.24,146.68L386.59,144.02L387.28,134.36L387.63,135.71L387.97,141.84L388.32,146.05L388.67,142.1L389.02,141.74L389.36,151.77L389.71,141.68L390.06,140.84L390.41,148.68L390.75,138.39L391.1,127.07L391.45,137.58L391.8,139.13L392.14,140.49L392.49,138.92L392.84,134.18L393.88,129.31L394.23,138.25L394.58,134.05L394.92,138.68L395.27,138.81L395.97,131.42L396.31,140.05L397.01,132.48L397.36,138.41L398.05,141.46L398.4,128.79L399.09,142.96L399.44,264.58L400.48,293.12L400.83,304L401.18,286.22L401.52,301.52L401.87,291.75L402.22,292.1L402.57,291.07L402.92,294.16L403.26,293.46L403.61,276.02L403.96,283.67L404.3,262.28L405,272.54L405.34,248.89L406.04,241.71L406.39,229.6L406.74,224.98L407.08,228.24L407.43,227.36L408.47,215.22L408.82,217.06L409.17,216.4L410.21,228.38L410.56,228.68L410.9,224.72L411.25,233.57L411.6,224.28L411.95,225.36L412.29,227.75L412.64,223.07L412.99,225.77L413.34,226.33L413.68,223.26L414.03,224.52L414.38,234.01L414.72,220.81L415.07,231.91L415.42,224.2L417.5,212.72L417.85,220.76L418.55,220.72L418.89,223.7L419.24,223.67L419.59,219.37L419.94,223.08L420.28,218.62L420.63,226.76L420.98,225.2L421.32,224.19L421.67,219.51L422.02,225.16L423.06,225.11L423.41,216.49L423.76,225.05L424.1,220.43L424.45,220.57L424.8,218.19L425.15,220.92L425.5,219.84L425.84,227.36L426.19,216.65L427.23,220.31L427.58,220.98L427.92,218.78L428.27,222.11L428.62,223.64L428.96,218.66L429.31,205.85L429.66,215.25L430.01,220.32L430.36,206.18L430.7,206.81L431.05,214.16L431.4,214.11L431.75,206.99L432.45,212.47L432.79,202.23L433.14,199.24L433.49,208.71L433.83,224.84L434.18,215.2L434.52,214.49L434.87,205.74L435.22,219.6L435.91,195.82L436.26,209.77L436.61,208.24L436.96,203.32L437.3,202.05L437.65,205.17L438,200.81L438.34,208.16L438.69,206.35L439.04,209.96L439.39,207.44L439.73,196.45L440.08,195.36L440.43,196.45L440.78,201.41L441.82,210.92L442.17,197.09L442.51,197.31L442.86,191.05L443.21,191.24L443.55,196.07L443.9,200.65L444.25,194.37L445.29,210.5L445.64,204.27L446.33,191.94L446.68,193.62L447.03,197L447.38,205.03L447.72,197.14L448.07,198.57L449.46,184.28L449.81,189.51L450.5,194.59L450.85,189.23L451.2,191.91L451.55,189.81L451.89,182.31L452.24,187.7L452.59,187L452.93,183.28L453.28,186.18L453.63,185.69L453.98,181.61L454.33,182.61L454.68,186.54L455.37,187.68L455.71,186.58L456.06,181.49L456.41,187.81L457.1,185.81L457.45,187.22L458.15,187L458.5,190.98L458.85,190.65L459.19,194.82L459.54,189.57L459.88,183.36L460.23,189.2L460.58,186.45L461.62,187.85L461.97,183.53L463.01,187.65L463.36,184.59L464.05,184.25L464.4,185.71L465.44,187.29L465.79,197.68L466.14,197.68L466.49,195.53L466.83,195.52L467.18,190.33L467.53,190.33L467.87,186.49L469.26,194.95L469.61,194.95L469.96,195.4L470.3,193.58L470.65,193.58L471,187.5L471.69,187.5L472.04,190.84L473.08,186.75L473.43,187.03L473.78,187.03L474.13,188.23L476.9,181.13L477.25,187.27L477.6,190.9L477.95,187.7L478.29,181.79L478.64,180.91L478.99,182.93L479.34,184.81L479.68,179.55L480.38,190.44L480.73,182.8L481.08,183.07L481.42,174.64L482.46,185.09L482.81,181.21L483.16,181.99L483.5,185.79L483.85,171.39L484.2,177.83L484.55,175.21L484.89,180.5L485.24,179.53L485.59,177.22L486.98,187.84L487.33,182.58L487.67,175.16L488.02,180.33L488.37,178.23L489.06,176.4L489.41,185.95L489.76,175.93L490.1,196.82L491.15,173.22L491.49,177.47L491.84,180.21L492.19,180.03L492.54,179.15L493.23,179.35L493.58,181.21L494.97,176.9L495.32,176.97L496.01,169.69L496.36,173.52L496.7,176.28L497.05,172.21L497.4,173.97L497.75,171L498.44,180.19L498.79,175.33L499.14,171.32L500.18,183.64L500.53,176L501.57,181.54L501.91,176.71L502.26,173.38L502.61,176.61L502.96,186.68L503.31,171.47L503.65,173.34L504,176.71L504.35,180.06L504.7,191.51L505.39,169.64L505.74,179.24L506.09,185.08L506.43,178.84L506.78,180.35L507.48,173.52L508.04,177.41L508.52,175.84L508.86,172.35L509.56,178.87L509.91,178.77L510.25,176.54L511.29,180.35L511.64,181.62L511.99,181.6L512.34,184.49L512.68,177.62L513.03,178.94L513.38,178.93L513.73,178.92L514.07,174.71L514.77,182.31L515.12,181.81L515.47,181.81L515.81,181.29L516.16,185.14L516.85,181.68L517.2,185.76L517.9,177.83L518.24,178.11L518.59,178.11L519.98,178.1L520.33,181.35L521.37,177.13L521.72,180.97L522.07,182.3L522.41,178.08L522.76,173.89L523.11,174.32L523.45,178.07L523.8,178.06L524.15,182.07L524.5,173.86L524.84,174.82L525.19,179.2L525.88,175.06L526.23,180.13L526.93,171.51L527.27,183.74L527.62,184.31L527.97,181.03L528.32,176.05L528.66,182.38L529.01,173.59L529.36,174.64L529.71,179.55L530.05,177.66L530.4,183.56L531.44,174.61L531.79,173.28L532.83,177.46L533.18,174.3L533.53,174.68L533.88,176.52L534.22,174.45L534.57,184.13L534.92,183.4L535.26,178.51L535.61,178.68L535.96,173.73L536.31,179.49L536.65,178.98L537,177.09" style="vector-effect: non-scaling-stroke; fill: none; stroke: rgb(99, 110, 250); stroke-opacity: 1; stroke-width: 2px; opacity: 1;"/></g><g class="points"/><g class="text"/></g></g></g><g class="overplot"/><path class="xlines-above crisp" d="M0,0" style="fill: none;"/><path class="ylines-above crisp" d="M0,0" style="fill: none;"/><g class="overlines-above"/><g class="xaxislayer-above"><g class="xtick"><text text-anchor="middle" x="0" y="433" transform="translate(89.28999999999999,0)" style="font-family: 'Open Sans', verdana, arial, sans-serif; font-size: 12px; fill: rgb(42, 63, 95); fill-opacity: 1; white-space: pre;"><tspan class="line" dy="0em" x="0" y="433">Jun 4</tspan><tspan class="line" dy="1.3em" x="0" y="433">2021</tspan></text></g><g class="xtick"><text text-anchor="middle" x="0" y="433" transform="translate(189.32999999999998,0)" style="font-family: 'Open Sans', verdana, arial, sans-serif; font-size: 12px; fill: rgb(42, 63, 95); fill-opacity: 1; white-space: pre;">Jun 6</text></g><g class="xtick"><text text-anchor="middle" x="0" y="433" transform="translate(289.38,0)" style="font-family: 'Open Sans', verdana, arial, sans-serif; font-size: 12px; fill: rgb(42, 63, 95); fill-opacity: 1; white-space: pre;">Jun 8</text></g><g class="xtick"><text text-anchor="middle" x="0" y="433" transform="translate(389.42,0)" style="font-family: 'Open Sans', verdana, arial, sans-serif; font-size: 12px; fill: rgb(42, 63, 95); fill-opacity: 1; white-space: pre;">Jun 10</text></g><g class="xtick"><text text-anchor="middle" x="0" y="433" transform="translate(489.47,0)" style="font-family: 'Open Sans', verdana, arial, sans-serif; font-size: 12px; fill: rgb(42, 63, 95); fill-opacity: 1; white-space: pre;">Jun 12</text></g><g class="xtick"><text text-anchor="middle" x="0" y="433" transform="translate(589.51,0)" style="font-family: 'Open Sans', verdana, arial, sans-serif; font-size: 12px; fill: rgb(42, 63, 95); fill-opacity: 1; white-space: pre;">Jun 14</text></g></g><g class="yaxislayer-above"><g class="ytick"><text text-anchor="end" x="79" y="4.199999999999999" transform="translate(0,367.23)" style="font-family: 'Open Sans', verdana, arial, sans-serif; font-size: 12px; fill: rgb(42, 63, 95); fill-opacity: 1; white-space: pre;">0.8</text></g><g class="ytick"><text text-anchor="end" x="79" y="4.199999999999999" transform="translate(0,308.43)" style="font-family: 'Open Sans', verdana, arial, sans-serif; font-size: 12px; fill: rgb(42, 63, 95); fill-opacity: 1; white-space: pre;">0.82</text></g><g class="ytick"><text text-anchor="end" x="79" y="4.199999999999999" transform="translate(0,249.63)" style="font-family: 'Open Sans', verdana, arial, sans-serif; font-size: 12px; fill: rgb(42, 63, 95); fill-opacity: 1; white-space: pre;">0.84</text></g><g class="ytick"><text text-anchor="end" x="79" y="4.199999999999999" transform="translate(0,190.82999999999998)" style="font-family: 'Open Sans', verdana, arial, sans-serif; font-size: 12px; fill: rgb(42, 63, 95); fill-opacity: 1; white-space: pre;">0.86</text></g><g class="ytick"><text text-anchor="end" x="79" y="4.199999999999999" transform="translate(0,132.03)" style="font-family: 'Open Sans', verdana, arial, sans-serif; font-size: 12px; fill: rgb(42, 63, 95); fill-opacity: 1; white-space: pre;">0.88</text></g></g><g class="overaxes-above"/></g></g><g class="polarlayer"/><g class="ternarylayer"/><g class="geolayer"/><g class="funnelarealayer"/><g class="pielayer"/><g class="treemaplayer"/><g class="sunburstlayer"/><g class="glimages"/><defs id="topdefs-649ee5"><g class="clips"/><clipPath id="legend649ee5"><rect width="60" height="45" x="0" y="0"/></clipPath></defs><g class="layer-above"><g class="imagelayer"/><g class="shapelayer"/></g><g class="infolayer"><g class="legend" pointer-events="all" transform="translate(627.74,100)"><rect class="bg" shape-rendering="crispEdges" width="60" height="45" x="0" y="0" style="stroke: rgb(68, 68, 68); stroke-opacity: 1; fill: rgb(255, 255, 255); fill-opacity: 1; stroke-width: 0px;"/><g class="scrollbox" transform="" clip-path="url('#legend649ee5')"><text class="legendtitletext" text-anchor="start" x="2" y="15.600000000000001" style="font-family: 'Open Sans', verdana, arial, sans-serif; font-size: 12px; fill: rgb(42, 63, 95); fill-opacity: 1; white-space: pre;">All</text><g class="groups" transform=""><g class="traces" transform="translate(0,30.1)" style="opacity: 1;"><text class="legendtext" text-anchor="start" x="40" y="4.680000000000001" style="font-family: 'Open Sans', verdana, arial, sans-serif; font-size: 12px; fill: rgb(42, 63, 95); fill-opacity: 1; white-space: pre;">All</text><g class="layers" style="opacity: 1;"><g class="legendfill"/><g class="legendlines"><path class="js-line" d="M5,0h30" style="fill: none; stroke: rgb(99, 110, 250); stroke-opacity: 1; stroke-width: 2px;"/></g><g class="legendsymbols"><g class="legendpoints"/></g></g><rect class="legendtoggle" x="0" y="-9.5" width="54.890625" height="19" style="fill: rgb(0, 0, 0); fill-opacity: 0;"/></g></g></g><rect class="scrollbar" rx="20" ry="3" width="0" height="0" x="0" y="0" style="fill: rgb(128, 139, 164); fill-opacity: 1;"/></g><g class="g-gtitle"><text class="gtitle" x="35" y="50" text-anchor="start" dy="0em" style="font-family: 'Open Sans', verdana, arial, sans-serif; font-size: 17px; fill: rgb(42, 63, 95); opacity: 1; font-weight: normal; white-space: pre;">Singapore Vaccination Centers</text></g><g class="g-xtitle"><text class="xtitle" x="348.5" y="476.409375" text-anchor="middle" style="font-family: 'Open Sans', verdana, arial, sans-serif; font-size: 14px; fill: rgb(42, 63, 95); opacity: 1; font-weight: normal; white-space: pre;">Time</text></g><g class="g-ytitle"><text class="ytitle" transform="rotate(-90,27.481250000000003,260)" x="27.481250000000003" y="260" text-anchor="middle" style="font-family: 'Open Sans', verdana, arial, sans-serif; font-size: 14px; fill: rgb(42, 63, 95); opacity: 1; font-weight: normal; white-space: pre;">Filled/%</text></g></g></svg>