<svg class="main-svg" xmlns="http://www.w3.org/2000/svg" xmlns:xlink="http://www.w3.org/1999/xlink" width="700" height="500" style="" viewBox="0 0 700 500"><rect x="0" y="0" width="700" height="500" style="fill: rgb(255, 255, 255); fill-opacity: 1;"/><defs id="defs-a630d2"><g class="clips"><clipPath id="clipa630d2xyplot" class="plotclip"><rect width="537" height="320"/></clipPath><clipPath class="axesclip" id="clipa630d2x"><rect x="80" y="0" width="537" height="500"/></clipPath><clipPath class="axesclip" id="clipa630d2y"><rect x="0" y="100" width="700" height="320"/></clipPath><clipPath class="axesclip" id="clipa630d2xy"><rect x="80" y="100" width="537" height="320"/></clipPath></g><g class="gradients"/></defs><g class="bglayer"><rect class="bg" x="80" y="100" width="537" height="320" style="fill: rgb(229, 236, 246); fill-opacity: 1; stroke-width: 0;"/></g><g class="layer-below"><g class="imagelayer"/><g class="shapelayer"/></g><g class="cartesianlayer"><g class="subplot xy"><g class="layer-subplot"><g class="shapelayer"/><g class="imagelayer"/></g><g class="gridlayer"><g class="x"><path class="xgrid crisp" transform="translate(82.46,0)" d="M0,100v320" style="stroke: rgb(255, 255, 255); stroke-opacity: 1; stroke-width: 1px;"/><path class="xgrid crisp" transform="translate(177.12,0)" d="M0,100v320" style="stroke: rgb(255, 255, 255); stroke-opacity: 1; stroke-width: 1px;"/><path class="xgrid crisp" transform="translate(271.78,0)" d="M0,100v320" style="stroke: rgb(255, 255, 255); stroke-opacity: 1; stroke-width: 1px;"/><path class="xgrid crisp" transform="translate(366.44,0)" d="M0,100v320" style="stroke: rgb(255, 255, 255); stroke-opacity: 1; stroke-width: 1px;"/><path class="xgrid crisp" transform="translate(461.1,0)" d="M0,100v320" style="stroke: rgb(255, 255, 255); stroke-opacity: 1; stroke-width: 1px;"/><path class="xgrid crisp" transform="translate(555.76,0)" d="M0,100v320" style="stroke: rgb(255, 255, 255); stroke-opacity: 1; stroke-width: 1px;"/></g><g class="y"><path class="ygrid crisp" transform="translate(0,392.55)" d="M80,0h537" style="stroke: rgb(255, 255, 255); stroke-opacity: 1; stroke-width: 1px;"/><path class="ygrid crisp" transform="translate(0,349.77)" d="M80,0h537" style="stroke: rgb(255, 255, 255); stroke-opacity: 1; stroke-width: 1px;"/><path class="ygrid crisp" transform="translate(0,306.99)" d="M80,0h537" style="stroke: rgb(255, 255, 255); stroke-opacity: 1; stroke-width: 1px;"/><path class="ygrid crisp" transform="translate(0,264.21000000000004)" d="M80,0h537" style="stroke: rgb(255, 255, 255); stroke-opacity: 1; stroke-width: 1px;"/><path class="ygrid crisp" transform="translate(0,221.43)" d="M80,0h537" style="stroke: rgb(255, 255, 255); stroke-opacity: 1; stroke-width: 1px;"/><path class="ygrid crisp" transform="translate(0,178.65)" d="M80,0h537" style="stroke: rgb(255, 255, 255); stroke-opacity: 1; stroke-width: 1px;"/><path class="ygrid crisp" transform="translate(0,135.87)" d="M80,0h537" style="stroke: rgb(255, 255, 255); stroke-opacity: 1; stroke-width: 1px;"/></g></g><g class="zerolinelayer"/><path class="xlines-below"/><path class="ylines-below"/><g class="overlines-below"/><g class="xaxislayer-below"/><g class="yaxislayer-below"/><g class="overaxes-below"/><g class="plot" transform="translate(80,100)" clip-path="url('#clipa630d2xyplot')"><g class="scatterlayer mlayer"><g class="trace scatter traceead241" style="stroke-miterlimit: 2; opacity: 1;"><g class="fills"/><g class="errorbars"/><g class="lines"><path class="js-line" d="M0,304L1.89,302.59L2.55,249.74L3.21,251.04L3.87,249.35L6.5,248.71L7.15,248.32L8.47,249.1L9.13,248.19L10.44,248.58L11.1,248.19L12.41,247.93L13.07,247.67L14.38,247.41L15.05,247.16L20.3,246.77L20.96,246.51L24.9,246.12L25.56,245.73L26.88,245.86L27.53,245.22L28.84,245.09L29.5,244.44L30.82,244.57L31.47,243.66L32.79,244.57L33.45,243.02L35.42,242.11L36.08,242.63L36.73,242.24L37.39,243.15L38.71,240.17L39.36,240.69L40.02,240.69L40.68,239.78L43.97,236.94L44.62,237.97L45.28,238.23L45.94,237.07L46.59,235L47.25,235.51L47.91,236.55L48.56,235L49.88,232.67L50.54,232.28L51.86,230.6L52.51,231.12L53.82,229.95L54.48,230.21L55.14,231.76L55.8,229.56L57.77,230.6L58.43,230.21L60.4,226.07L61.06,226.85L62.37,225.68L63.03,227.36L63.69,227.11L64.34,225.55L66.97,221.16L67.63,218.44L68.29,219.09L68.95,217.66L69.6,216.63L70.26,217.4L71.57,217.66L72.23,218.7L75.52,216.37L76.18,216.11L78.15,214.3L78.81,214.82L80.12,215.98L80.78,214.43L83.41,212.88L84.07,212.75L86.04,211.84L86.69,211.71L88.01,211.84L88.67,211.45L90.64,211.32L91.29,210.42L93.27,207.7L93.93,206.93L95.24,207.96L95.9,207.44L96.55,207.96L97.21,142.27L99.84,140.44L100.5,140.31L102.47,138.75L103.13,139.14L106.42,138.48L107.07,138.35L109.04,137.83L109.7,137.96L115.62,137.96L116.28,138.09L120.88,137.83L121.54,137.18L123.51,137.18L124.16,136.14L126.79,136.27L127.45,135.74L128.76,135.88L129.42,135.22L130.74,134.57L131.39,135.22L134.02,132.22L134.68,133.27L136.65,131.57L137.31,132.22L139.94,128.44L140.6,130.14L143.23,127.14L143.89,128.05L145.2,126.48L145.85,127.66L146.51,128.7L147.17,127.79L147.83,128.83L148.49,128.31L149.14,127.4L149.8,128.44L151.11,128.18L151.77,128.57L153.09,128.83L153.75,128.44L156.38,124.79L157.04,124.92L158.36,125.96L159.01,124.01L161.64,123.09L162.3,121.4L164.93,121.92L165.59,120.61L166.24,118.4L166.9,119.96L167.56,119.96L168.22,118.79L168.87,119.7L169.53,119.18L170.85,117.35L171.5,117.48L173.48,114.35L174.13,114.48L175.45,112.14L176.11,112.92L177.42,110.83L178.08,111.35L180.05,110.7L180.71,108.09L181.36,107.96L182.02,106.92L183.34,105.74L183.99,106L185.31,107.83L185.97,107.18L186.63,109.13L187.28,108.35L187.94,108.22L188.59,106.66L189.25,106.27L189.91,106.79L191.23,107.05L191.88,61.25L193.85,59.15L194.51,58.88L198.45,56.78L199.11,56.52L202.4,54.28L203.06,54.28L204.37,54.41L205.03,53.75L208.32,53.62L208.97,53.75L219.49,51.78L220.15,52.18L222.12,51.12L222.77,51.25L223.44,51.52L224.09,50.73L228.03,50.07L229.35,49.54L230.01,48.23L231.32,47.83L232.63,47.44L233.29,45.73L233.95,46.91L234.61,45.73L235.92,45.73L236.58,45.07L237.24,44.94L237.89,43.76L239.86,43.49L240.52,41.91L241.84,40.2L242.5,39.42L243.13,38.1L243.79,38.76L245.76,37.71L246.42,36L249.05,35.34L249.7,33.36L250.36,32.71L251.02,33.23L252.33,32.44L252.99,32.05L253.65,31.92L254.31,30.86L255.62,30.86L256.28,31.39L257.59,32.97L258.25,31.13L259.57,32.31L260.23,30.34L261.54,30.47L262.2,30.86L264.17,29.02L264.83,29.42L266.14,27.71L266.8,26.66L267.46,24.16L268.12,24.68L268.77,23.24L269.43,24.68L270.74,22.84L271.4,22.58L272.06,21.26L272.71,21.66L274.03,21.79L274.68,20.74L275.34,21.26L276,19.68L277.31,19.55L277.97,18.5L280.6,18.89L281.26,17.97L282.58,17.84L283.23,17.97L284.55,16L285.2,16.66L285.86,16.39L286.52,171.81L289.81,171.4L290.47,172.08L292.44,170.99L293.09,170.99L294.41,169.76L295.06,169.76L297.04,169.08L297.7,169.08L302.3,168.67L302.96,168.67L307.55,168.39L308.21,168.39L310.84,167.44L311.5,167.71L315.44,166.89L316.1,166.75L318.72,164.98L319.38,164.43L321.36,164.02L322.02,162.66L324.67,162.38L325.32,163.61L326.64,161.7L327.3,161.57L327.95,160.88L328.61,158.43L329.27,156.51L329.92,156.79L330.58,156.1L331.24,154.33L331.9,154.88L333.21,154.47L333.87,154.33L335.84,152.69L336.5,153.65L338.47,150.92L339.13,151.87L341.1,149.14L341.76,149.14L342.41,148.32L343.07,149.41L344.39,150.37L345.05,149.41L345.7,149.55L346.36,148.73L348.99,145.18L349.65,144.5L351.62,143.54L352.28,145.04L356.22,141.9L356.88,143.68L358.2,121.97L358.85,121.56L360.17,120.88L360.82,116.1L361.48,116.24L362.14,112.28L362.8,112.55L363.45,109.96L364.11,106.95L364.77,107.91L366.74,101.22L367.4,98.08L368.71,97.53L369.37,95.35L370.03,94.8L370.69,92.07L372,89.34L372.65,89.34L374.63,85.65L375.29,84.7L380.54,75L381.2,88.44L384.49,84.03L385.15,84.45L385.81,84.31L386.46,85.14L387.78,84.72L388.43,85.41L389.75,84.59L390.4,84.45L391.72,84.03L392.38,84.03L393.69,84.17L394.35,83.62L398.95,84.03L399.61,83.62L403.56,83.21L404.21,83.48L406.84,83.48L407.49,83.35L409.47,83.35L410.12,83.21L412.1,83.9L412.75,83.21L413.41,82.66L414.07,81.01L416.7,79.49L417.36,78.53L418.67,78.94L419.33,78.53L419.98,76.87L420.64,77.29L421.3,77.15L421.96,75.63L425.25,72.47L425.9,72.88L427.87,69.44L428.53,69.02L430.5,66.41L431.16,66.41L432.48,63.79L433.13,63.79L434.45,61.86L435.1,59.66L437.74,54.43L438.39,54.01L439.05,53.6L439.71,51.4L442.34,49.47L442.99,47.82L446.94,46.85L447.59,45.75L448.25,46.16L448.91,45.48L449.57,45.89L454.83,41.21L458.11,38.59L458.77,39.28L461.4,35.97L462.06,35.84L462.72,34.46L463.37,35.01L464.69,33.91L465.35,34.18L466,35.28L466.66,34.32L469.29,32.94L469.95,33.91L472.58,33.22L473.23,32.12L475.21,29.78L475.86,81.26L477.18,81.68L477.84,80.56L478.49,79.86L479.15,80.42L481.12,80.42L481.78,81.4L483.75,81.12L484.41,81.12L487.7,81.4L488.36,81.12L490.98,79.86L491.64,80.28L498.21,79.58L498.87,79.58L506.1,79.3L506.76,79.16L510.05,78.74L510.7,78.31L512.02,77.75L512.67,76.77L513.99,76.35L514.65,74.95L515.3,73.55L515.96,74.95L518.59,73.97L519.25,73.97L520.56,71.86L521.22,71.58L523.19,68.64L523.85,68.5L524.51,68.22L525.16,68.78L527.79,66.53L528.45,66.67L529.77,65.13L530.42,64.43L533.05,63.45L533.71,63.87L534.37,63.31L535.03,64.01L536.34,60.5L537,60.78" style="vector-effect: non-scaling-stroke; fill: none; stroke: rgb(99, 110, 250); stroke-opacity: 1; stroke-width: 2px; opacity: 1;"/></g><g class="points"/><g class="text"/></g></g></g><g class="overplot"/><path class="xlines-above crisp" d="M0,0" style="fill: none;"/><path class="ylines-above crisp" d="M0,0" style="fill: none;"/><g class="overlines-above"/><g class="xaxislayer-above"><g class="xtick"><text text-anchor="middle" x="0" y="433" transform="translate(82.46,0)" style="font-family: 'Open Sans', verdana, arial, sans-serif; font-size: 12px; fill: rgb(42, 63, 95); fill-opacity: 1; white-space: pre;"><tspan class="line" dy="0em" x="0" y="433">Aug 3</tspan><tspan class="line" dy="1.3em" x="0" y="433">2021</tspan></text></g><g class="xtick"><text text-anchor="middle" x="0" y="433" transform="translate(177.12,0)" style="font-family: 'Open Sans', verdana, arial, sans-serif; font-size: 12px; fill: rgb(42, 63, 95); fill-opacity: 1; white-space: pre;">Aug 4</text></g><g class="xtick"><text text-anchor="middle" x="0" y="433" transform="translate(271.78,0)" style="font-family: 'Open Sans', verdana, arial, sans-serif; font-size: 12px; fill: rgb(42, 63, 95); fill-opacity: 1; white-space: pre;">Aug 5</text></g><g class="xtick"><text text-anchor="middle" x="0" y="433" transform="translate(366.44,0)" style="font-family: 'Open Sans', verdana, arial, sans-serif; font-size: 12px; fill: rgb(42, 63, 95); fill-opacity: 1; white-space: pre;">Aug 6</text></g><g class="xtick"><text text-anchor="middle" x="0" y="433" transform="translate(461.1,0)" style="font-family: 'Open Sans', verdana, arial, sans-serif; font-size: 12px; fill: rgb(42, 63, 95); fill-opacity: 1; white-space: pre;">Aug 7</text></g><g class="xtick"><text text-anchor="middle" x="0" y="433" transform="translate(555.76,0)" style="font-family: 'Open Sans', verdana, arial, sans-serif; font-size: 12px; fill: rgb(42, 63, 95); fill-opacity: 1; white-space: pre;">Aug 8</text></g></g><g class="yaxislayer-above"><g class="ytick"><text text-anchor="end" x="79" y="4.199999999999999" transform="translate(0,392.55)" style="font-family: 'Open Sans', verdana, arial, sans-serif; font-size: 12px; fill: rgb(42, 63, 95); fill-opacity: 1; white-space: pre;">0.864</text></g><g class="ytick"><text text-anchor="end" x="79" y="4.199999999999999" transform="translate(0,349.77)" style="font-family: 'Open Sans', verdana, arial, sans-serif; font-size: 12px; fill: rgb(42, 63, 95); fill-opacity: 1; white-space: pre;">0.865</text></g><g class="ytick"><text text-anchor="end" x="79" y="4.199999999999999" transform="translate(0,306.99)" style="font-family: 'Open Sans', verdana, arial, sans-serif; font-size: 12px; fill: rgb(42, 63, 95); fill-opacity: 1; white-space: pre;">0.866</text></g><g class="ytick"><text text-anchor="end" x="79" y="4.199999999999999" transform="translate(0,264.21000000000004)" style="font-family: 'Open Sans', verdana, arial, sans-serif; font-size: 12px; fill: rgb(42, 63, 95); fill-opacity: 1; white-space: pre;">0.867</text></g><g class="ytick"><text text-anchor="end" x="79" y="4.199999999999999" transform="translate(0,221.43)" style="font-family: 'Open Sans', verdana, arial, sans-serif; font-size: 12px; fill: rgb(42, 63, 95); fill-opacity: 1; white-space: pre;">0.868</text></g><g class="ytick"><text text-anchor="end" x="79" y="4.199999999999999" transform="translate(0,178.65)" style="font-family: 'Open Sans', verdana, arial, sans-serif; font-size: 12px; fill: rgb(42, 63, 95); fill-opacity: 1; white-space: pre;">0.869</text></g><g class="ytick"><text text-anchor="end" x="79" y="4.199999999999999" transform="translate(0,135.87)" style="font-family: 'Open Sans', verdana, arial, sans-serif; font-size: 12px; fill: rgb(42, 63, 95); fill-opacity: 1; white-space: pre;">0.87</text></g></g><g class="overaxes-above"/></g></g><g class="polarlayer"/><g class="ternarylayer"/><g class="geolayer"/><g class="funnelarealayer"/><g class="pielayer"/><g class="treemaplayer"/><g class="sunburstlayer"/><g class="glimages"/><defs id="topdefs-a630d2"><g class="clips"/><clipPath id="legenda630d2"><rect width="60" height="45" x="0" y="0"/></clipPath></defs><g class="layer-above"><g class="imagelayer"/><g class="shapelayer"/></g><g class="infolayer"><g class="legend" pointer-events="all" transform="translate(627.74,100)"><rect class="bg" shape-rendering="crispEdges" width="60" height="45" x="0" y="0" style="stroke: rgb(68, 68, 68); stroke-opacity: 1; fill: rgb(255, 255, 255); fill-opacity: 1; stroke-width: 0px;"/><g class="scrollbox" transform="" clip-path="url('#legenda630d2')"><text class="legendtitletext" text-anchor="start" x="2" y="15.600000000000001" style="font-family: 'Open Sans', verdana, arial, sans-serif; font-size: 12px; fill: rgb(42, 63, 95); fill-opacity: 1; white-space: pre;">All</text><g class="groups" transform=""><g class="traces" transform="translate(0,30.1)" style="opacity: 1;"><text class="legendtext" text-anchor="start" x="40" y="4.680000000000001" style="font-family: 'Open Sans', verdana, arial, sans-serif; font-size: 12px; fill: rgb(42, 63, 95); fill-opacity: 1; white-space: pre;">All</text><g class="layers" style="opacity: 1;"><g class="legendfill"/><g class="legendlines"><path class="js-line" d="M5,0h30" style="fill: none; stroke: rgb(99, 110, 250); stroke-opacity: 1; stroke-width: 2px;"/></g><g class="legendsymbols"><g class="legendpoints"/></g></g><rect class="legendtoggle" x="0" y="-9.5" width="54.890625" height="19" style="fill: rgb(0, 0, 0); fill-opacity: 0;"/></g></g></g><rect class="scrollbar" rx="20" ry="3" width="0" height="0" x="0" y="0" style="fill: rgb(128, 139, 164); fill-opacity: 1;"/></g><g class="g-gtitle"><text class="gtitle" x="35" y="50" text-anchor="start" dy="0em" style="font-family: 'Open Sans', verdana, arial, sans-serif; font-size: 17px; fill: rgb(42, 63, 95); opacity: 1; font-weight: normal; white-space: pre;">Singapore Vaccination Centers</text></g><g class="g-xtitle"><text class="xtitle" x="348.5" y="476.409375" text-anchor="middle" style="font-family: 'Open Sans', verdana, arial, sans-serif; font-size: 14px; fill: rgb(42, 63, 95); opacity: 1; font-weight: normal; white-space: pre;">Time</text></g><g class="g-ytitle"><text class="ytitle" transform="rotate(-90,19.840625000000003,260)" x="19.840625000000003" y="260" text-anchor="middle" style="font-family: 'Open Sans', verdana, arial, sans-serif; font-size: 14px; fill: rgb(42, 63, 95); opacity: 1; font-weight: normal; white-space: pre;">Filled/%</text></g></g></svg>