<svg class="main-svg" xmlns="http://www.w3.org/2000/svg" xmlns:xlink="http://www.w3.org/1999/xlink" width="700" height="500" style="" viewBox="0 0 700 500"><rect x="0" y="0" width="700" height="500" style="fill: rgb(255, 255, 255); fill-opacity: 1;"/><defs id="defs-2d1cc0"><g class="clips"><clipPath id="clip2d1cc0xyplot" class="plotclip"><rect width="537" height="320"/></clipPath><clipPath class="axesclip" id="clip2d1cc0x"><rect x="80" y="0" width="537" height="500"/></clipPath><clipPath class="axesclip" id="clip2d1cc0y"><rect x="0" y="100" width="700" height="320"/></clipPath><clipPath class="axesclip" id="clip2d1cc0xy"><rect x="80" y="100" width="537" height="320"/></clipPath></g><g class="gradients"/></defs><g class="bglayer"><rect class="bg" x="80" y="100" width="537" height="320" style="fill: rgb(229, 236, 246); fill-opacity: 1; stroke-width: 0;"/></g><g class="layer-below"><g class="imagelayer"/><g class="shapelayer"/></g><g class="cartesianlayer"><g class="subplot xy"><g class="layer-subplot"><g class="shapelayer"/><g class="imagelayer"/></g><g class="gridlayer"><g class="x"><path class="xgrid crisp" transform="translate(92.93,0)" d="M0,100v320" style="stroke: rgb(255, 255, 255); stroke-opacity: 1; stroke-width: 1px;"/><path class="xgrid crisp" transform="translate(232.15,0)" d="M0,100v320" style="stroke: rgb(255, 255, 255); stroke-opacity: 1; stroke-width: 1px;"/><path class="xgrid crisp" transform="translate(371.37,0)" d="M0,100v320" style="stroke: rgb(255, 255, 255); stroke-opacity: 1; stroke-width: 1px;"/><path class="xgrid crisp" transform="translate(510.59,0)" d="M0,100v320" style="stroke: rgb(255, 255, 255); stroke-opacity: 1; stroke-width: 1px;"/></g><g class="y"><path class="ygrid crisp" transform="translate(0,388.55)" d="M80,0h537" style="stroke: rgb(255, 255, 255); stroke-opacity: 1; stroke-width: 1px;"/><path class="ygrid crisp" transform="translate(0,328.59000000000003)" d="M80,0h537" style="stroke: rgb(255, 255, 255); stroke-opacity: 1; stroke-width: 1px;"/><path class="ygrid crisp" transform="translate(0,268.62)" d="M80,0h537" style="stroke: rgb(255, 255, 255); stroke-opacity: 1; stroke-width: 1px;"/><path class="ygrid crisp" transform="translate(0,208.65)" d="M80,0h537" style="stroke: rgb(255, 255, 255); stroke-opacity: 1; stroke-width: 1px;"/><path class="ygrid crisp" transform="translate(0,148.69)" d="M80,0h537" style="stroke: rgb(255, 255, 255); stroke-opacity: 1; stroke-width: 1px;"/></g></g><g class="zerolinelayer"/><path class="xlines-below"/><path class="ylines-below"/><g class="overlines-below"/><g class="xaxislayer-below"/><g class="yaxislayer-below"/><g class="overaxes-below"/><g class="plot" transform="translate(80,100)" clip-path="url('#clip2d1cc0xyplot')"><g class="scatterlayer mlayer"><g class="trace scatter tracecdf485" style="stroke-miterlimit: 2; opacity: 1;"><g class="fills"/><g class="errorbars"/><g class="lines"><path class="js-line" d="M0,151.19L8.17,151.66L11.06,229.1L16.83,229.27L18.97,262.63L19.87,262.59L41.22,264.75L42.55,230.62L42.96,247.75L43.93,247.62L45.86,241.12L46.83,240.91L48.76,248.08L49.73,247.91L51.66,254.04L52.62,253.87L54.56,229.53L55.53,229.39L57.46,253.89L58.43,253.71L60.36,241.74L61.33,234.89L63.26,214.27L64.23,206.72L66.16,176.26L67.13,172.83L69.06,134.64L70.03,132L71.96,144.05L72.93,141.9L74.86,113.25L75.83,111.49L77.76,116.91L78.73,115.59L80.66,134.84L81.63,133.95L82.91,89.08L83.56,90.52L84.53,90.13L90.33,89.24L91.3,89.09L106.76,88.15L107.73,87.9L111.6,86.16L112.57,85.57L136.74,72.26L137.7,71.89L151.24,66.89L152.21,68.6L161.87,68.01L162.84,68L181.21,67.22L182.17,67.01L220.85,58.48L221.82,55.84L233.42,55.49L234.39,55.49L248.89,54.9L249.85,54.72L264.35,51.59L265.32,51.4L286.59,47.34L287.56,47.14L290.46,46.7L291.43,41.63L307.87,41.35L308.83,41.34L320.44,40.62L321.4,40.47L324.3,40.09L325.27,177.9L333.03,174.99L334,174.7L337.84,173.3L338.8,170.02L340.74,165.13L341.71,163.9L342.67,161.87L343.64,156.05L345.57,139.75L346.54,136.11L350.41,127.34L351.37,125.71L356.21,119.81L357.17,118.87L360.08,116.83L361.04,116.97L364.91,115.8L365.88,115.71L377.48,115.2L378.44,115.19L386.18,114.44L387.14,114.25L394.88,110.82L395.85,110.1L399.71,106.69L400.68,111.42L403.58,109.69L404.55,108.08L410.35,93.54L411.31,91.96L414.22,85.93L415.18,83.58L416.15,81.23L417.11,76.19L420.02,64.63L420.98,62.22L425.82,53.04L426.78,51.69L429.68,48.8L430.65,49.12L434.52,47.64L435.49,47.48L444.19,46.79L445.16,46.74L452.89,45.95L453.86,45.71L458.69,43.17L459.65,42.54L462.56,40.66L463.52,135.95L465.46,132.71L466.42,131.76L474.16,125.54L475.13,125.01L477.06,123.7L477.8,130.07L478.03,122.85L478.95,122.57L478.99,124.6L479.91,121.95L479.96,123.98L480.93,123.33L482.86,122.24L483.83,139.26L492.29,134.11L492.33,130.85L492.38,130.28L492.53,133.76L501.71,74.61L502.19,74.88L502.68,68.92L503.65,69.28L504.13,71.47L505.58,59.71L506.07,68.22L507.03,65.31L507.51,64.27L509.45,61.13L509.93,62.83L510.42,61.41L510.9,61.96L511.38,61.73L512.83,61.69L513.32,71.11L515.25,70.86L515.73,69.29L516.21,70.36L516.7,70.09L517.18,69.01L518.15,68.96L518.63,68.4L519.6,57.64L520.08,56.31L522.5,51.51L522.98,48.58L523.46,48.66L523.95,46.17L524.92,37.58L525.4,35.63L525.88,34.38L526.37,29.12L526.85,16L527.33,17.64L527.82,269.28L528.3,267.32L528.78,273.13L529.75,262.37L530.23,266.85L531.2,261.05L531.69,262.03L532.17,271.47L532.65,282.53L533.14,255.49L534.1,265.01L534.58,304L536.03,255.72L536.52,280.01L537,286.09" style="vector-effect: non-scaling-stroke; fill: none; stroke: rgb(99, 110, 250); stroke-opacity: 1; stroke-width: 2px; opacity: 1;"/></g><g class="points"/><g class="text"/></g></g></g><g class="overplot"/><path class="xlines-above crisp" d="M0,0" style="fill: none;"/><path class="ylines-above crisp" d="M0,0" style="fill: none;"/><g class="overlines-above"/><g class="xaxislayer-above"><g class="xtick"><text text-anchor="middle" x="0" y="433" transform="translate(92.93,0)" style="font-family: 'Open Sans', verdana, arial, sans-serif; font-size: 12px; fill: rgb(42, 63, 95); fill-opacity: 1; white-space: pre;"><tspan class="line" dy="0em" x="0" y="433">Jun 4</tspan><tspan class="line" dy="1.3em" x="0" y="433">2021</tspan></text></g><g class="xtick"><text text-anchor="middle" x="0" y="433" transform="translate(232.15,0)" style="font-family: 'Open Sans', verdana, arial, sans-serif; font-size: 12px; fill: rgb(42, 63, 95); fill-opacity: 1; white-space: pre;">Jun 6</text></g><g class="xtick"><text text-anchor="middle" x="0" y="433" transform="translate(371.37,0)" style="font-family: 'Open Sans', verdana, arial, sans-serif; font-size: 12px; fill: rgb(42, 63, 95); fill-opacity: 1; white-space: pre;">Jun 8</text></g><g class="xtick"><text text-anchor="middle" x="0" y="433" transform="translate(510.59,0)" style="font-family: 'Open Sans', verdana, arial, sans-serif; font-size: 12px; fill: rgb(42, 63, 95); fill-opacity: 1; white-space: pre;">Jun 10</text></g></g><g class="yaxislayer-above"><g class="ytick"><text text-anchor="end" x="79" y="4.199999999999999" transform="translate(0,388.55)" style="font-family: 'Open Sans', verdana, arial, sans-serif; font-size: 12px; fill: rgb(42, 63, 95); fill-opacity: 1; white-space: pre;">0.84</text></g><g class="ytick"><text text-anchor="end" x="79" y="4.199999999999999" transform="translate(0,328.59000000000003)" style="font-family: 'Open Sans', verdana, arial, sans-serif; font-size: 12px; fill: rgb(42, 63, 95); fill-opacity: 1; white-space: pre;">0.85</text></g><g class="ytick"><text text-anchor="end" x="79" y="4.199999999999999" transform="translate(0,268.62)" style="font-family: 'Open Sans', verdana, arial, sans-serif; font-size: 12px; fill: rgb(42, 63, 95); fill-opacity: 1; white-space: pre;">0.86</text></g><g class="ytick"><text text-anchor="end" x="79" y="4.199999999999999" transform="translate(0,208.65)" style="font-family: 'Open Sans', verdana, arial, sans-serif; font-size: 12px; fill: rgb(42, 63, 95); fill-opacity: 1; white-space: pre;">0.87</text></g><g class="ytick"><text text-anchor="end" x="79" y="4.199999999999999" transform="translate(0,148.69)" style="font-family: 'Open Sans', verdana, arial, sans-serif; font-size: 12px; fill: rgb(42, 63, 95); fill-opacity: 1; white-space: pre;">0.88</text></g></g><g class="overaxes-above"/></g></g><g class="polarlayer"/><g class="ternarylayer"/><g class="geolayer"/><g class="funnelarealayer"/><g class="pielayer"/><g class="treemaplayer"/><g class="sunburstlayer"/><g class="glimages"/><defs id="topdefs-2d1cc0"><g class="clips"/><clipPath id="legend2d1cc0"><rect width="60" height="45" x="0" y="0"/></clipPath></defs><g class="layer-above"><g class="imagelayer"/><g class="shapelayer"/></g><g class="infolayer"><g class="legend" pointer-events="all" transform="translate(627.74,100)"><rect class="bg" shape-rendering="crispEdges" width="60" height="45" x="0" y="0" style="stroke: rgb(68, 68, 68); stroke-opacity: 1; fill: rgb(255, 255, 255); fill-opacity: 1; stroke-width: 0px;"/><g class="scrollbox" transform="" clip-path="url('#legend2d1cc0')"><text class="legendtitletext" text-anchor="start" x="2" y="15.600000000000001" style="font-family: 'Open Sans', verdana, arial, sans-serif; font-size: 12px; fill: rgb(42, 63, 95); fill-opacity: 1; white-space: pre;">All</text><g class="groups" transform=""><g class="traces" transform="translate(0,30.1)" style="opacity: 1;"><text class="legendtext" text-anchor="start" x="40" y="4.680000000000001" style="font-family: 'Open Sans', verdana, arial, sans-serif; font-size: 12px; fill: rgb(42, 63, 95); fill-opacity: 1; white-space: pre;">All</text><g class="layers" style="opacity: 1;"><g class="legendfill"/><g class="legendlines"><path class="js-line" d="M5,0h30" style="fill: none; stroke: rgb(99, 110, 250); stroke-opacity: 1; stroke-width: 2px;"/></g><g class="legendsymbols"><g class="legendpoints"/></g></g><rect class="legendtoggle" x="0" y="-9.5" width="54.890625" height="19" style="fill: rgb(0, 0, 0); fill-opacity: 0;"/></g></g></g><rect class="scrollbar" rx="20" ry="3" width="0" height="0" x="0" y="0" style="fill: rgb(128, 139, 164); fill-opacity: 1;"/></g><g class="g-gtitle"><text class="gtitle" x="35" y="50" text-anchor="start" dy="0em" style="font-family: 'Open Sans', verdana, arial, sans-serif; font-size: 17px; fill: rgb(42, 63, 95); opacity: 1; font-weight: normal; white-space: pre;">Singapore Vaccination Centers</text></g><g class="g-xtitle"><text class="xtitle" x="348.5" y="476.409375" text-anchor="middle" style="font-family: 'Open Sans', verdana, arial, sans-serif; font-size: 14px; fill: rgb(42, 63, 95); opacity: 1; font-weight: normal; white-space: pre;">Time</text></g><g class="g-ytitle"><text class="ytitle" transform="rotate(-90,27.481250000000003,260)" x="27.481250000000003" y="260" text-anchor="middle" style="font-family: 'Open Sans', verdana, arial, sans-serif; font-size: 14px; fill: rgb(42, 63, 95); opacity: 1; font-weight: normal; white-space: pre;">Filled/%</text></g></g></svg>