<svg class="main-svg" xmlns="http://www.w3.org/2000/svg" xmlns:xlink="http://www.w3.org/1999/xlink" width="700" height="500" style="" viewBox="0 0 700 500"><rect x="0" y="0" width="700" height="500" style="fill: rgb(255, 255, 255); fill-opacity: 1;"/><defs id="defs-8a16b8"><g class="clips"><clipPath id="clip8a16b8xyplot" class="plotclip"><rect width="537" height="320"/></clipPath><clipPath class="axesclip" id="clip8a16b8x"><rect x="80" y="0" width="537" height="500"/></clipPath><clipPath class="axesclip" id="clip8a16b8y"><rect x="0" y="100" width="700" height="320"/></clipPath><clipPath class="axesclip" id="clip8a16b8xy"><rect x="80" y="100" width="537" height="320"/></clipPath></g><g class="gradients"/></defs><g class="bglayer"><rect class="bg" x="80" y="100" width="537" height="320" style="fill: rgb(229, 236, 246); fill-opacity: 1; stroke-width: 0;"/></g><g class="layer-below"><g class="imagelayer"/><g class="shapelayer"/></g><g class="cartesianlayer"><g class="subplot xy"><g class="layer-subplot"><g class="shapelayer"/><g class="imagelayer"/></g><g class="gridlayer"><g class="x"><path class="xgrid crisp" transform="translate(90.38,0)" d="M0,100v320" style="stroke: rgb(255, 255, 255); stroke-opacity: 1; stroke-width: 1px;"/><path class="xgrid crisp" transform="translate(202.22,0)" d="M0,100v320" style="stroke: rgb(255, 255, 255); stroke-opacity: 1; stroke-width: 1px;"/><path class="xgrid crisp" transform="translate(314.06,0)" d="M0,100v320" style="stroke: rgb(255, 255, 255); stroke-opacity: 1; stroke-width: 1px;"/><path class="xgrid crisp" transform="translate(425.9,0)" d="M0,100v320" style="stroke: rgb(255, 255, 255); stroke-opacity: 1; stroke-width: 1px;"/><path class="xgrid crisp" transform="translate(537.73,0)" d="M0,100v320" style="stroke: rgb(255, 255, 255); stroke-opacity: 1; stroke-width: 1px;"/></g><g class="y"><path class="ygrid crisp" transform="translate(0,367.23)" d="M80,0h537" style="stroke: rgb(255, 255, 255); stroke-opacity: 1; stroke-width: 1px;"/><path class="ygrid crisp" transform="translate(0,308.43)" d="M80,0h537" style="stroke: rgb(255, 255, 255); stroke-opacity: 1; stroke-width: 1px;"/><path class="ygrid crisp" transform="translate(0,249.63)" d="M80,0h537" style="stroke: rgb(255, 255, 255); stroke-opacity: 1; stroke-width: 1px;"/><path class="ygrid crisp" transform="translate(0,190.82999999999998)" d="M80,0h537" style="stroke: rgb(255, 255, 255); stroke-opacity: 1; stroke-width: 1px;"/><path class="ygrid crisp" transform="translate(0,132.03)" d="M80,0h537" style="stroke: rgb(255, 255, 255); stroke-opacity: 1; stroke-width: 1px;"/></g></g><g class="zerolinelayer"/><path class="xlines-below"/><path class="ylines-below"/><g class="overlines-below"/><g class="xaxislayer-below"/><g class="yaxislayer-below"/><g class="overaxes-below"/><g class="plot" transform="translate(80,100)" clip-path="url('#clip8a16b8xyplot')"><g class="scatterlayer mlayer"><g class="trace scatter trace845d42" style="stroke-miterlimit: 2; opacity: 1;"><g class="fills"/><g class="errorbars"/><g class="lines"><path class="js-line" d="M0,82.28L6.56,82.51L8.89,120.48L13.52,120.57L15.24,136.92L15.96,136.9L33.12,137.96L34.18,121.23L34.51,129.62L35.29,129.56L36.84,126.37L37.62,126.27L39.17,129.79L39.94,129.7L41.5,132.71L42.27,132.63L43.83,120.69L44.61,120.62L46.16,132.64L46.94,132.55L48.49,126.68L50.82,113.21L51.6,109.51L55.48,74.17L56.25,72.87L57.81,78.78L58.58,77.73L60.91,62.82L62.47,65.47L63.24,64.83L64.8,74.27L65.57,73.83L66.6,51.83L67.9,52.34L68.68,52.21L78,51.77L78.78,51.77L88.09,50.91L88.87,50.65L116.05,42.03L116.83,41.83L121.49,40.95L122.27,41.79L136.25,41.46L137.02,41.46L149.45,40.58L150.23,40.48L174.3,37.17L175.08,37.08L177.41,36.83L178.19,35.53L208.47,34L209.25,33.87L233.33,31.05L234.11,28.56L260.51,27.81L261.29,95.38L269.86,93.57L270.61,93.44L271.39,93.12L272.16,91.51L274.49,88.51L275.27,87.52L279.15,73.59L279.93,72.39L284.59,67.88L285.37,67.37L289.25,65.43L290.03,65.5L295.46,64.8L296.24,64.77L313.33,63.66L314.1,63.48L319.54,61.32L320.32,60.89L321.09,60.46L321.87,62.78L324.98,61.15L325.75,59.94L330.41,53.24L331.19,52.44L334.3,47.98L335.07,45.51L338.18,38.66L338.95,37.65L343.61,32.89L344.42,32.47L346.72,31.98L347.5,31.8L353.71,31.18L354.49,31.16L366.14,30.17L366.91,29.9L371.57,28.09L372.35,74.81L373.91,73.22L374.68,72.76L382.45,69.16L383.23,68.8L383.82,71.93L384,68.39L384.74,68.25L384.78,69.25L385.52,67.95L385.56,68.94L386.33,68.62L387.89,68.09L388.66,76.43L395.46,73.91L395.49,72.31L395.53,72.03L395.65,73.74L403.03,44.74L403.42,44.87L403.81,41.95L404.58,42.12L404.97,43.2L406.14,37.43L406.53,41.6L407.69,39.66L408.08,39.05L409.24,38.13L409.63,38.96L410.02,38.26L410.41,38.53L410.8,38.42L411.96,38.4L412.35,43.02L416.62,41.69L417.01,36.5L417.79,35.76L418.17,35.39L419.34,33.79L419.73,33.41L422.83,22.43L423.22,16L423.61,16.8L424,140.18L424.39,139.22L424.78,142.07L425.55,136.79L425.94,138.99L426.72,136.15L427.11,136.63L427.49,141.25L427.88,146.68L428.27,133.42L429.05,138.09L429.44,157.2L430.6,133.53L430.99,145.44L431.38,148.42L431.76,146.68L432.15,144.02L432.93,134.36L433.32,135.71L433.71,141.84L434.09,146.05L434.48,142.1L434.87,141.74L435.26,151.77L435.65,141.68L436.04,140.84L436.42,148.68L437.2,127.07L437.59,137.58L438.37,140.49L438.75,138.92L439.53,130.34L439.92,131.67L440.31,129.31L440.7,138.25L441.09,134.05L441.47,138.68L441.86,138.81L442.25,131.49L442.64,131.42L443.03,140.05L443.8,132.48L444.19,138.41L444.97,141.46L445.36,128.79L446.13,142.96L446.52,264.58L447.69,293.12L448.08,304L448.47,286.22L448.85,301.52L449.24,291.75L449.63,292.1L450.02,291.07L450.41,294.16L450.79,293.46L451.18,276.02L451.57,283.67L451.96,262.28L452.73,272.54L453.12,248.89L453.9,241.71L454.29,229.6L454.68,224.98L455.07,228.24L455.45,227.36L456.62,215.22L457.01,217.06L457.39,216.4L457.78,227.08L458.17,226.08L458.56,228.38L458.95,228.68L459.34,224.72L459.72,233.57L460.11,224.28L460.89,227.75L461.28,223.07L462.06,226.33L462.45,223.26L462.83,224.52L463.22,234.01L463.61,220.81L464,231.91L464.39,224.2L466.72,212.72L467.1,220.76L467.88,220.72L468.27,223.7L468.66,223.67L469.04,219.37L469.43,223.08L469.82,218.62L470.21,226.76L470.6,225.2L470.99,224.19L471.38,219.51L471.76,225.16L472.93,225.11L473.31,216.49L473.71,225.05L474.09,220.43L474.48,220.57L474.87,218.19L475.26,220.92L475.65,219.84L476.03,227.36L476.42,216.65L476.81,220.1L477.2,220.01L477.98,220.98L478.36,218.78L479.14,223.64L479.53,218.66L479.92,205.85L480.31,215.25L480.69,220.32L481.08,206.18L481.47,206.81L481.86,214.16L482.25,214.11L482.64,206.99L483.42,212.47L483.8,202.23L484.19,199.24L484.58,208.71L484.97,224.84L485.35,215.2L485.74,214.49L486.13,205.74L486.52,219.6L487.3,195.82L487.68,209.77L488.07,208.24L488.46,203.32L488.85,202.05L489.24,205.17L489.63,200.81L490.01,208.16L490.4,206.35L490.79,209.96L491.18,207.44L491.56,196.45L491.95,195.36L492.34,196.45L492.73,201.41L493.9,210.92L494.28,197.09L494.67,197.31L495.06,191.05L495.45,191.24L495.84,196.07L496.23,200.65L496.61,194.37L497.78,210.5L498.17,204.27L498.94,191.94L499.33,193.62L499.72,197L500.11,205.03L500.5,197.14L500.88,198.57L501.27,192.99L502.44,184.28L502.83,189.51L503.6,194.59L503.99,189.23L504.38,191.91L504.77,189.81L505.16,182.31L505.55,187.7L505.93,187L506.32,183.28L506.71,186.18L507.1,185.69L507.49,181.61L507.88,182.61L508.27,186.54L509.04,187.68L509.43,186.58L509.82,181.49L510.21,187.81L510.98,185.81L511.37,187.22L511.76,189.17L512.15,187L513.32,194.82L513.71,189.57L514.09,183.36L514.48,189.2L514.87,186.45L516.03,187.85L516.42,183.53L517.59,187.65L517.98,184.59L518.75,184.25L519.14,185.71L519.92,187.3L520.3,187.29L521.08,197.68L521.47,195.53L521.86,195.52L522.25,190.33L522.63,190.33L523.02,186.49L524.58,194.95L524.96,194.95L525.35,195.4L525.74,193.58L526.13,193.58L526.52,187.5L527.29,187.5L527.68,190.84L528.07,186.76L528.46,190.68L528.85,186.75L529.23,187.03L529.62,187.03L530.01,188.23L530.4,187.2L530.79,186.53L531.18,186.53L531.56,184.4L532.34,184.18L532.73,183.02L533.12,181.13L533.51,187.27L533.89,190.9L534.28,187.7L534.67,181.79L535.06,180.91L535.45,182.93L535.83,184.81L536.22,179.55L537,190.44" style="vector-effect: non-scaling-stroke; fill: none; stroke: rgb(99, 110, 250); stroke-opacity: 1; stroke-width: 2px; opacity: 1;"/></g><g class="points"/><g class="text"/></g></g></g><g class="overplot"/><path class="xlines-above crisp" d="M0,0" style="fill: none;"/><path class="ylines-above crisp" d="M0,0" style="fill: none;"/><g class="overlines-above"/><g class="xaxislayer-above"><g class="xtick"><text text-anchor="middle" x="0" y="433" transform="translate(90.38,0)" style="font-family: 'Open Sans', verdana, arial, sans-serif; font-size: 12px; fill: rgb(42, 63, 95); fill-opacity: 1; white-space: pre;"><tspan class="line" dy="0em" x="0" y="433">Jun 4</tspan><tspan class="line" dy="1.3em" x="0" y="433">2021</tspan></text></g><g class="xtick"><text text-anchor="middle" x="0" y="433" transform="translate(202.22,0)" style="font-family: 'Open Sans', verdana, arial, sans-serif; font-size: 12px; fill: rgb(42, 63, 95); fill-opacity: 1; white-space: pre;">Jun 6</text></g><g class="xtick"><text text-anchor="middle" x="0" y="433" transform="translate(314.06,0)" style="font-family: 'Open Sans', verdana, arial, sans-serif; font-size: 12px; fill: rgb(42, 63, 95); fill-opacity: 1; white-space: pre;">Jun 8</text></g><g class="xtick"><text text-anchor="middle" x="0" y="433" transform="translate(425.9,0)" style="font-family: 'Open Sans', verdana, arial, sans-serif; font-size: 12px; fill: rgb(42, 63, 95); fill-opacity: 1; white-space: pre;">Jun 10</text></g><g class="xtick"><text text-anchor="middle" x="0" y="433" transform="translate(537.73,0)" style="font-family: 'Open Sans', verdana, arial, sans-serif; font-size: 12px; fill: rgb(42, 63, 95); fill-opacity: 1; white-space: pre;">Jun 12</text></g></g><g class="yaxislayer-above"><g class="ytick"><text text-anchor="end" x="79" y="4.199999999999999" transform="translate(0,367.23)" style="font-family: 'Open Sans', verdana, arial, sans-serif; font-size: 12px; fill: rgb(42, 63, 95); fill-opacity: 1; white-space: pre;">0.8</text></g><g class="ytick"><text text-anchor="end" x="79" y="4.199999999999999" transform="translate(0,308.43)" style="font-family: 'Open Sans', verdana, arial, sans-serif; font-size: 12px; fill: rgb(42, 63, 95); fill-opacity: 1; white-space: pre;">0.82</text></g><g class="ytick"><text text-anchor="end" x="79" y="4.199999999999999" transform="translate(0,249.63)" style="font-family: 'Open Sans', verdana, arial, sans-serif; font-size: 12px; fill: rgb(42, 63, 95); fill-opacity: 1; white-space: pre;">0.84</text></g><g class="ytick"><text text-anchor="end" x="79" y="4.199999999999999" transform="translate(0,190.82999999999998)" style="font-family: 'Open Sans', verdana, arial, sans-serif; font-size: 12px; fill: rgb(42, 63, 95); fill-opacity: 1; white-space: pre;">0.86</text></g><g class="ytick"><text text-anchor="end" x="79" y="4.199999999999999" transform="translate(0,132.03)" style="font-family: 'Open Sans', verdana, arial, sans-serif; font-size: 12px; fill: rgb(42, 63, 95); fill-opacity: 1; white-space: pre;">0.88</text></g></g><g class="overaxes-above"/></g></g><g class="polarlayer"/><g class="ternarylayer"/><g class="geolayer"/><g class="funnelarealayer"/><g class="pielayer"/><g class="treemaplayer"/><g class="sunburstlayer"/><g class="glimages"/><defs id="topdefs-8a16b8"><g class="clips"/><clipPath id="legend8a16b8"><rect width="60" height="45" x="0" y="0"/></clipPath></defs><g class="layer-above"><g class="imagelayer"/><g class="shapelayer"/></g><g class="infolayer"><g class="legend" pointer-events="all" transform="translate(627.74,100)"><rect class="bg" shape-rendering="crispEdges" width="60" height="45" x="0" y="0" style="stroke: rgb(68, 68, 68); stroke-opacity: 1; fill: rgb(255, 255, 255); fill-opacity: 1; stroke-width: 0px;"/><g class="scrollbox" transform="" clip-path="url('#legend8a16b8')"><text class="legendtitletext" text-anchor="start" x="2" y="15.600000000000001" style="font-family: 'Open Sans', verdana, arial, sans-serif; font-size: 12px; fill: rgb(42, 63, 95); fill-opacity: 1; white-space: pre;">All</text><g class="groups" transform=""><g class="traces" transform="translate(0,30.1)" style="opacity: 1;"><text class="legendtext" text-anchor="start" x="40" y="4.680000000000001" style="font-family: 'Open Sans', verdana, arial, sans-serif; font-size: 12px; fill: rgb(42, 63, 95); fill-opacity: 1; white-space: pre;">All</text><g class="layers" style="opacity: 1;"><g class="legendfill"/><g class="legendlines"><path class="js-line" d="M5,0h30" style="fill: none; stroke: rgb(99, 110, 250); stroke-opacity: 1; stroke-width: 2px;"/></g><g class="legendsymbols"><g class="legendpoints"/></g></g><rect class="legendtoggle" x="0" y="-9.5" width="54.890625" height="19" style="fill: rgb(0, 0, 0); fill-opacity: 0;"/></g></g></g><rect class="scrollbar" rx="20" ry="3" width="0" height="0" x="0" y="0" style="fill: rgb(128, 139, 164); fill-opacity: 1;"/></g><g class="g-gtitle"><text class="gtitle" x="35" y="50" text-anchor="start" dy="0em" style="font-family: 'Open Sans', verdana, arial, sans-serif; font-size: 17px; fill: rgb(42, 63, 95); opacity: 1; font-weight: normal; white-space: pre;">Singapore Vaccination Centers</text></g><g class="g-xtitle"><text class="xtitle" x="348.5" y="476.409375" text-anchor="middle" style="font-family: 'Open Sans', verdana, arial, sans-serif; font-size: 14px; fill: rgb(42, 63, 95); opacity: 1; font-weight: normal; white-space: pre;">Time</text></g><g class="g-ytitle"><text class="ytitle" transform="rotate(-90,27.481250000000003,260)" x="27.481250000000003" y="260" text-anchor="middle" style="font-family: 'Open Sans', verdana, arial, sans-serif; font-size: 14px; fill: rgb(42, 63, 95); opacity: 1; font-weight: normal; white-space: pre;">Filled/%</text></g></g></svg>