<svg class="main-svg" xmlns="http://www.w3.org/2000/svg" xmlns:xlink="http://www.w3.org/1999/xlink" width="700" height="500" style="" viewBox="0 0 700 500"><rect x="0" y="0" width="700" height="500" style="fill: rgb(255, 255, 255); fill-opacity: 1;"/><defs id="defs-a4f7d8"><g class="clips"><clipPath id="clipa4f7d8xyplot" class="plotclip"><rect width="537" height="320"/></clipPath><clipPath class="axesclip" id="clipa4f7d8x"><rect x="80" y="0" width="537" height="500"/></clipPath><clipPath class="axesclip" id="clipa4f7d8y"><rect x="0" y="100" width="700" height="320"/></clipPath><clipPath class="axesclip" id="clipa4f7d8xy"><rect x="80" y="100" width="537" height="320"/></clipPath></g><g class="gradients"/></defs><g class="bglayer"><rect class="bg" x="80" y="100" width="537" height="320" style="fill: rgb(229, 236, 246); fill-opacity: 1; stroke-width: 0;"/></g><g class="layer-below"><g class="imagelayer"/><g class="shapelayer"/></g><g class="cartesianlayer"><g class="subplot xy"><g class="layer-subplot"><g class="shapelayer"/><g class="imagelayer"/></g><g class="gridlayer"><g class="x"><path class="xgrid crisp" transform="translate(92.88,0)" d="M0,100v320" style="stroke: rgb(255, 255, 255); stroke-opacity: 1; stroke-width: 1px;"/><path class="xgrid crisp" transform="translate(231.6,0)" d="M0,100v320" style="stroke: rgb(255, 255, 255); stroke-opacity: 1; stroke-width: 1px;"/><path class="xgrid crisp" transform="translate(370.32,0)" d="M0,100v320" style="stroke: rgb(255, 255, 255); stroke-opacity: 1; stroke-width: 1px;"/><path class="xgrid crisp" transform="translate(509.04,0)" d="M0,100v320" style="stroke: rgb(255, 255, 255); stroke-opacity: 1; stroke-width: 1px;"/></g><g class="y"><path class="ygrid crisp" transform="translate(0,388.55)" d="M80,0h537" style="stroke: rgb(255, 255, 255); stroke-opacity: 1; stroke-width: 1px;"/><path class="ygrid crisp" transform="translate(0,328.59000000000003)" d="M80,0h537" style="stroke: rgb(255, 255, 255); stroke-opacity: 1; stroke-width: 1px;"/><path class="ygrid crisp" transform="translate(0,268.62)" d="M80,0h537" style="stroke: rgb(255, 255, 255); stroke-opacity: 1; stroke-width: 1px;"/><path class="ygrid crisp" transform="translate(0,208.65)" d="M80,0h537" style="stroke: rgb(255, 255, 255); stroke-opacity: 1; stroke-width: 1px;"/><path class="ygrid crisp" transform="translate(0,148.69)" d="M80,0h537" style="stroke: rgb(255, 255, 255); stroke-opacity: 1; stroke-width: 1px;"/></g></g><g class="zerolinelayer"/><path class="xlines-below"/><path class="ylines-below"/><g class="overlines-below"/><g class="xaxislayer-below"/><g class="yaxislayer-below"/><g class="overaxes-below"/><g class="plot" transform="translate(80,100)" clip-path="url('#clipa4f7d8xyplot')"><g class="scatterlayer mlayer"><g class="trace scatter tracec9597c" style="stroke-miterlimit: 2; opacity: 1;"><g class="fills"/><g class="errorbars"/><g class="lines"><path class="js-line" d="M0,151.19L8.14,151.66L11.02,229.1L16.77,229.27L18.9,262.63L19.8,262.59L41.08,264.75L42.4,230.62L42.8,247.75L43.77,247.62L45.69,241.12L46.66,240.91L48.58,248.08L49.55,247.91L51.47,254.04L52.43,253.87L54.36,229.53L55.33,229.39L57.25,253.89L58.22,253.71L60.14,241.74L61.11,234.89L63.04,214.27L64,206.72L65.92,176.26L66.89,172.83L68.81,134.64L69.78,132L71.7,144.05L72.67,141.9L74.59,113.25L75.55,111.49L77.48,116.91L78.44,115.59L80.37,134.84L81.34,133.95L82.61,89.08L83.26,90.52L84.23,90.13L90.01,89.24L90.97,89.09L106.38,88.15L107.34,87.9L111.2,86.16L112.16,85.57L129.5,75.25L130.47,74.69L136.25,72.26L137.21,71.89L150.7,66.89L151.66,68.6L161.29,68.01L162.25,68L180.56,67.22L181.52,67.01L220.06,58.48L221.02,55.84L232.58,55.49L233.54,55.49L247.99,54.9L248.96,54.72L264.37,51.4L265.34,51.18L286.52,47.14L287.49,46.94L289.42,46.7L290.39,41.63L306.76,41.35L307.73,41.34L319.29,40.62L320.25,40.47L323.14,40.09L324.1,177.9L331.84,174.99L332.81,174.7L336.63,173.3L337.59,170.02L339.52,165.13L340.48,163.9L341.44,161.87L342.41,156.05L344.33,139.75L345.3,136.11L349.15,127.34L350.11,125.71L354.93,119.81L355.89,118.87L358.78,116.83L359.75,116.97L363.6,115.8L364.56,115.71L376.12,115.2L377.09,115.19L384.79,114.44L385.75,114.25L393.46,110.82L394.43,110.1L398.28,106.69L399.24,111.42L402.13,109.69L403.1,108.08L408.88,93.54L409.84,91.96L412.73,85.93L413.69,83.58L414.66,81.23L415.62,76.19L418.51,64.63L419.47,62.22L425.25,51.69L426.22,50.45L428.14,48.8L429.11,49.12L432.96,47.64L433.92,47.48L442.59,46.79L443.56,46.74L451.26,45.95L452.23,45.71L457.04,43.17L458,42.54L460.9,40.66L461.86,135.95L463.79,132.71L464.75,131.76L472.46,125.54L473.42,125.01L475.35,123.7L476.09,130.07L476.31,122.85L477.23,122.57L477.28,124.6L478.19,121.95L478.24,123.98L479.2,123.33L481.13,122.24L482.09,139.26L490.53,134.11L490.56,130.85L490.61,130.28L490.76,133.76L499.91,74.61L500.39,74.88L500.88,68.92L501.84,69.28L502.32,71.47L503.77,59.71L504.25,68.22L505.21,65.31L505.69,64.27L507.62,61.13L508.1,62.83L508.59,61.41L509.07,61.96L509.55,61.73L510.99,61.69L511.47,71.11L513.4,70.86L513.88,69.29L514.36,70.36L514.84,70.09L515.33,69.01L516.29,68.96L516.77,68.4L517.73,57.64L518.22,56.31L520.62,51.51L521.11,48.58L521.59,48.66L522.07,46.17L523.03,37.58L523.51,35.63L524,34.38L524.48,29.12L524.96,16L525.44,17.64L525.92,269.28L526.4,267.32L526.89,273.13L527.85,262.37L528.33,266.85L529.3,261.05L529.78,262.03L530.26,271.47L530.74,282.53L531.22,255.49L532.19,265.01L532.67,304L534.11,255.72L534.59,280.01L535.07,286.09L535.56,282.54L536.04,277.11L536.52,263.01L537,257.41" style="vector-effect: non-scaling-stroke; fill: none; stroke: rgb(99, 110, 250); stroke-opacity: 1; stroke-width: 2px; opacity: 1;"/></g><g class="points"/><g class="text"/></g></g></g><g class="overplot"/><path class="xlines-above crisp" d="M0,0" style="fill: none;"/><path class="ylines-above crisp" d="M0,0" style="fill: none;"/><g class="overlines-above"/><g class="xaxislayer-above"><g class="xtick"><text text-anchor="middle" x="0" y="433" transform="translate(92.88,0)" style="font-family: 'Open Sans', verdana, arial, sans-serif; font-size: 12px; fill: rgb(42, 63, 95); fill-opacity: 1; white-space: pre;"><tspan class="line" dy="0em" x="0" y="433">Jun 4</tspan><tspan class="line" dy="1.3em" x="0" y="433">2021</tspan></text></g><g class="xtick"><text text-anchor="middle" x="0" y="433" transform="translate(231.6,0)" style="font-family: 'Open Sans', verdana, arial, sans-serif; font-size: 12px; fill: rgb(42, 63, 95); fill-opacity: 1; white-space: pre;">Jun 6</text></g><g class="xtick"><text text-anchor="middle" x="0" y="433" transform="translate(370.32,0)" style="font-family: 'Open Sans', verdana, arial, sans-serif; font-size: 12px; fill: rgb(42, 63, 95); fill-opacity: 1; white-space: pre;">Jun 8</text></g><g class="xtick"><text text-anchor="middle" x="0" y="433" transform="translate(509.04,0)" style="font-family: 'Open Sans', verdana, arial, sans-serif; font-size: 12px; fill: rgb(42, 63, 95); fill-opacity: 1; white-space: pre;">Jun 10</text></g></g><g class="yaxislayer-above"><g class="ytick"><text text-anchor="end" x="79" y="4.199999999999999" transform="translate(0,388.55)" style="font-family: 'Open Sans', verdana, arial, sans-serif; font-size: 12px; fill: rgb(42, 63, 95); fill-opacity: 1; white-space: pre;">0.84</text></g><g class="ytick"><text text-anchor="end" x="79" y="4.199999999999999" transform="translate(0,328.59000000000003)" style="font-family: 'Open Sans', verdana, arial, sans-serif; font-size: 12px; fill: rgb(42, 63, 95); fill-opacity: 1; white-space: pre;">0.85</text></g><g class="ytick"><text text-anchor="end" x="79" y="4.199999999999999" transform="translate(0,268.62)" style="font-family: 'Open Sans', verdana, arial, sans-serif; font-size: 12px; fill: rgb(42, 63, 95); fill-opacity: 1; white-space: pre;">0.86</text></g><g class="ytick"><text text-anchor="end" x="79" y="4.199999999999999" transform="translate(0,208.65)" style="font-family: 'Open Sans', verdana, arial, sans-serif; font-size: 12px; fill: rgb(42, 63, 95); fill-opacity: 1; white-space: pre;">0.87</text></g><g class="ytick"><text text-anchor="end" x="79" y="4.199999999999999" transform="translate(0,148.69)" style="font-family: 'Open Sans', verdana, arial, sans-serif; font-size: 12px; fill: rgb(42, 63, 95); fill-opacity: 1; white-space: pre;">0.88</text></g></g><g class="overaxes-above"/></g></g><g class="polarlayer"/><g class="ternarylayer"/><g class="geolayer"/><g class="funnelarealayer"/><g class="pielayer"/><g class="treemaplayer"/><g class="sunburstlayer"/><g class="glimages"/><defs id="topdefs-a4f7d8"><g class="clips"/><clipPath id="legenda4f7d8"><rect width="60" height="45" x="0" y="0"/></clipPath></defs><g class="layer-above"><g class="imagelayer"/><g class="shapelayer"/></g><g class="infolayer"><g class="legend" pointer-events="all" transform="translate(627.74,100)"><rect class="bg" shape-rendering="crispEdges" width="60" height="45" x="0" y="0" style="stroke: rgb(68, 68, 68); stroke-opacity: 1; fill: rgb(255, 255, 255); fill-opacity: 1; stroke-width: 0px;"/><g class="scrollbox" transform="" clip-path="url('#legenda4f7d8')"><text class="legendtitletext" text-anchor="start" x="2" y="15.600000000000001" style="font-family: 'Open Sans', verdana, arial, sans-serif; font-size: 12px; fill: rgb(42, 63, 95); fill-opacity: 1; white-space: pre;">All</text><g class="groups" transform=""><g class="traces" transform="translate(0,30.1)" style="opacity: 1;"><text class="legendtext" text-anchor="start" x="40" y="4.680000000000001" style="font-family: 'Open Sans', verdana, arial, sans-serif; font-size: 12px; fill: rgb(42, 63, 95); fill-opacity: 1; white-space: pre;">All</text><g class="layers" style="opacity: 1;"><g class="legendfill"/><g class="legendlines"><path class="js-line" d="M5,0h30" style="fill: none; stroke: rgb(99, 110, 250); stroke-opacity: 1; stroke-width: 2px;"/></g><g class="legendsymbols"><g class="legendpoints"/></g></g><rect class="legendtoggle" x="0" y="-9.5" width="54.890625" height="19" style="fill: rgb(0, 0, 0); fill-opacity: 0;"/></g></g></g><rect class="scrollbar" rx="20" ry="3" width="0" height="0" x="0" y="0" style="fill: rgb(128, 139, 164); fill-opacity: 1;"/></g><g class="g-gtitle"><text class="gtitle" x="35" y="50" text-anchor="start" dy="0em" style="font-family: 'Open Sans', verdana, arial, sans-serif; font-size: 17px; fill: rgb(42, 63, 95); opacity: 1; font-weight: normal; white-space: pre;">Singapore Vaccination Centers</text></g><g class="g-xtitle"><text class="xtitle" x="348.5" y="476.409375" text-anchor="middle" style="font-family: 'Open Sans', verdana, arial, sans-serif; font-size: 14px; fill: rgb(42, 63, 95); opacity: 1; font-weight: normal; white-space: pre;">Time</text></g><g class="g-ytitle"><text class="ytitle" transform="rotate(-90,27.481250000000003,260)" x="27.481250000000003" y="260" text-anchor="middle" style="font-family: 'Open Sans', verdana, arial, sans-serif; font-size: 14px; fill: rgb(42, 63, 95); opacity: 1; font-weight: normal; white-space: pre;">Filled/%</text></g></g></svg>