<svg class="main-svg" xmlns="http://www.w3.org/2000/svg" xmlns:xlink="http://www.w3.org/1999/xlink" width="700" height="500" style="" viewBox="0 0 700 500"><rect x="0" y="0" width="700" height="500" style="fill: rgb(255, 255, 255); fill-opacity: 1;"/><defs id="defs-4db8e4"><g class="clips"><clipPath id="clip4db8e4xyplot" class="plotclip"><rect width="537" height="320"/></clipPath><clipPath class="axesclip" id="clip4db8e4x"><rect x="80" y="0" width="537" height="500"/></clipPath><clipPath class="axesclip" id="clip4db8e4y"><rect x="0" y="100" width="700" height="320"/></clipPath><clipPath class="axesclip" id="clip4db8e4xy"><rect x="80" y="100" width="537" height="320"/></clipPath></g><g class="gradients"/></defs><g class="bglayer"><rect class="bg" x="80" y="100" width="537" height="320" style="fill: rgb(229, 236, 246); fill-opacity: 1; stroke-width: 0;"/></g><g class="layer-below"><g class="imagelayer"/><g class="shapelayer"/></g><g class="cartesianlayer"><g class="subplot xy"><g class="layer-subplot"><g class="shapelayer"/><g class="imagelayer"/></g><g class="gridlayer"><g class="x"><path class="xgrid crisp" transform="translate(92.63,0)" d="M0,100v320" style="stroke: rgb(255, 255, 255); stroke-opacity: 1; stroke-width: 1px;"/><path class="xgrid crisp" transform="translate(228.67,0)" d="M0,100v320" style="stroke: rgb(255, 255, 255); stroke-opacity: 1; stroke-width: 1px;"/><path class="xgrid crisp" transform="translate(364.71,0)" d="M0,100v320" style="stroke: rgb(255, 255, 255); stroke-opacity: 1; stroke-width: 1px;"/><path class="xgrid crisp" transform="translate(500.74,0)" d="M0,100v320" style="stroke: rgb(255, 255, 255); stroke-opacity: 1; stroke-width: 1px;"/></g><g class="y"><path class="ygrid crisp" transform="translate(0,388.55)" d="M80,0h537" style="stroke: rgb(255, 255, 255); stroke-opacity: 1; stroke-width: 1px;"/><path class="ygrid crisp" transform="translate(0,328.59000000000003)" d="M80,0h537" style="stroke: rgb(255, 255, 255); stroke-opacity: 1; stroke-width: 1px;"/><path class="ygrid crisp" transform="translate(0,268.62)" d="M80,0h537" style="stroke: rgb(255, 255, 255); stroke-opacity: 1; stroke-width: 1px;"/><path class="ygrid crisp" transform="translate(0,208.65)" d="M80,0h537" style="stroke: rgb(255, 255, 255); stroke-opacity: 1; stroke-width: 1px;"/><path class="ygrid crisp" transform="translate(0,148.69)" d="M80,0h537" style="stroke: rgb(255, 255, 255); stroke-opacity: 1; stroke-width: 1px;"/></g></g><g class="zerolinelayer"/><path class="xlines-below"/><path class="ylines-below"/><g class="overlines-below"/><g class="xaxislayer-below"/><g class="yaxislayer-below"/><g class="overaxes-below"/><g class="plot" transform="translate(80,100)" clip-path="url('#clip4db8e4xyplot')"><g class="scatterlayer mlayer"><g class="trace scatter traceb143b2" style="stroke-miterlimit: 2; opacity: 1;"><g class="fills"/><g class="errorbars"/><g class="lines"><path class="js-line" d="M0,151.19L7.98,151.66L10.81,229.1L16.44,229.27L18.54,262.63L19.42,262.59L40.28,264.75L41.58,230.62L41.98,247.75L42.92,247.62L44.81,241.12L45.76,240.91L47.64,248.08L48.59,247.91L50.48,254.04L51.42,253.87L53.31,229.53L54.26,229.39L56.14,253.89L57.09,253.71L58.98,241.74L59.92,234.89L61.82,214.27L62.76,206.72L64.65,176.26L65.59,172.83L67.48,134.64L68.43,132L70.32,144.05L71.26,141.9L73.15,113.25L74.09,111.49L75.98,116.91L76.93,115.59L78.82,134.84L79.76,133.95L81.01,89.08L81.65,90.52L82.6,90.13L88.26,89.24L89.21,89.09L104.32,88.15L105.27,87.9L109.05,86.16L109.99,85.57L126.99,75.25L127.94,74.69L133.61,72.26L134.56,71.89L147.78,66.89L148.73,68.6L158.17,68.01L159.12,68L177.06,67.22L178.01,67.01L215.8,58.48L216.74,55.84L228.08,55.49L229.03,55.49L243.19,54.9L244.14,54.72L259.25,51.4L260.2,51.18L280.98,47.14L281.93,46.94L283.82,46.7L284.77,41.63L300.82,41.35L301.77,41.34L313.11,40.62L314.05,40.47L316.89,40.09L317.83,177.9L325.42,174.99L326.37,174.7L330.11,173.3L331.06,170.02L332.95,165.13L333.89,163.9L334.84,161.87L335.78,156.05L337.67,139.75L338.62,136.11L342.39,127.34L343.34,125.71L348.06,119.81L349.01,118.87L351.84,116.83L352.79,116.97L356.57,115.8L357.51,115.71L368.84,115.2L369.79,115.19L377.35,114.44L378.29,114.25L385.85,110.82L386.79,110.1L390.57,106.69L391.52,111.42L394.35,109.69L395.3,108.08L400.96,93.54L401.91,91.96L404.74,85.93L405.69,83.58L406.63,81.23L407.58,76.19L410.41,64.63L411.36,62.22L416.08,53.04L417.02,51.69L419.86,48.8L420.8,49.12L424.58,47.64L425.53,47.48L434.03,46.79L434.98,46.74L442.53,45.95L443.48,45.71L448.2,43.17L449.14,42.54L451.98,40.66L452.92,135.95L454.81,132.71L455.76,131.76L463.32,125.54L464.26,125.01L466.15,123.7L466.87,130.07L467.1,122.85L468,122.57L468.04,124.6L468.94,121.95L468.99,123.98L469.93,123.33L471.82,122.24L472.76,139.26L481.03,134.11L481.07,130.85L481.12,130.28L481.27,133.76L490.24,74.61L490.71,74.88L491.19,68.92L492.13,69.28L492.6,71.47L494.02,59.71L494.49,68.22L495.44,65.31L495.91,64.27L497.8,61.13L498.27,62.83L498.74,61.41L499.22,61.96L499.69,61.73L501.11,61.69L501.58,71.11L503.47,70.86L503.94,69.29L504.41,70.36L504.88,70.09L505.35,69.01L506.3,68.96L506.77,68.4L507.72,57.64L508.19,56.31L510.55,51.51L511.02,48.58L511.49,48.66L511.97,46.17L512.91,37.58L513.38,35.63L513.86,34.38L514.33,29.12L514.8,16L515.27,17.64L515.75,269.28L516.22,267.32L516.69,273.13L517.63,262.37L518.11,266.85L519.06,261.05L519.53,262.03L520,271.47L520.47,282.53L520.94,255.49L521.89,265.01L522.36,304L523.78,255.72L524.25,280.01L524.72,286.09L525.19,282.54L525.67,277.11L526.61,257.41L527.08,260.16L528.02,281.24L528.5,273.19L528.97,272.46L529.44,292.91L530.39,270.62L530.86,286.61L531.8,242.53L532.28,263.97L533.22,269.91L533.69,266.71L534.64,249.22L535.11,251.93L535.58,247.11L536.06,265.33L536.53,256.77L537,266.22" style="vector-effect: non-scaling-stroke; fill: none; stroke: rgb(99, 110, 250); stroke-opacity: 1; stroke-width: 2px; opacity: 1;"/></g><g class="points"/><g class="text"/></g></g></g><g class="overplot"/><path class="xlines-above crisp" d="M0,0" style="fill: none;"/><path class="ylines-above crisp" d="M0,0" style="fill: none;"/><g class="overlines-above"/><g class="xaxislayer-above"><g class="xtick"><text text-anchor="middle" x="0" y="433" transform="translate(92.63,0)" style="font-family: 'Open Sans', verdana, arial, sans-serif; font-size: 12px; fill: rgb(42, 63, 95); fill-opacity: 1; white-space: pre;"><tspan class="line" dy="0em" x="0" y="433">Jun 4</tspan><tspan class="line" dy="1.3em" x="0" y="433">2021</tspan></text></g><g class="xtick"><text text-anchor="middle" x="0" y="433" transform="translate(228.67,0)" style="font-family: 'Open Sans', verdana, arial, sans-serif; font-size: 12px; fill: rgb(42, 63, 95); fill-opacity: 1; white-space: pre;">Jun 6</text></g><g class="xtick"><text text-anchor="middle" x="0" y="433" transform="translate(364.71,0)" style="font-family: 'Open Sans', verdana, arial, sans-serif; font-size: 12px; fill: rgb(42, 63, 95); fill-opacity: 1; white-space: pre;">Jun 8</text></g><g class="xtick"><text text-anchor="middle" x="0" y="433" transform="translate(500.74,0)" style="font-family: 'Open Sans', verdana, arial, sans-serif; font-size: 12px; fill: rgb(42, 63, 95); fill-opacity: 1; white-space: pre;">Jun 10</text></g></g><g class="yaxislayer-above"><g class="ytick"><text text-anchor="end" x="79" y="4.199999999999999" transform="translate(0,388.55)" style="font-family: 'Open Sans', verdana, arial, sans-serif; font-size: 12px; fill: rgb(42, 63, 95); fill-opacity: 1; white-space: pre;">0.84</text></g><g class="ytick"><text text-anchor="end" x="79" y="4.199999999999999" transform="translate(0,328.59000000000003)" style="font-family: 'Open Sans', verdana, arial, sans-serif; font-size: 12px; fill: rgb(42, 63, 95); fill-opacity: 1; white-space: pre;">0.85</text></g><g class="ytick"><text text-anchor="end" x="79" y="4.199999999999999" transform="translate(0,268.62)" style="font-family: 'Open Sans', verdana, arial, sans-serif; font-size: 12px; fill: rgb(42, 63, 95); fill-opacity: 1; white-space: pre;">0.86</text></g><g class="ytick"><text text-anchor="end" x="79" y="4.199999999999999" transform="translate(0,208.65)" style="font-family: 'Open Sans', verdana, arial, sans-serif; font-size: 12px; fill: rgb(42, 63, 95); fill-opacity: 1; white-space: pre;">0.87</text></g><g class="ytick"><text text-anchor="end" x="79" y="4.199999999999999" transform="translate(0,148.69)" style="font-family: 'Open Sans', verdana, arial, sans-serif; font-size: 12px; fill: rgb(42, 63, 95); fill-opacity: 1; white-space: pre;">0.88</text></g></g><g class="overaxes-above"/></g></g><g class="polarlayer"/><g class="ternarylayer"/><g class="geolayer"/><g class="funnelarealayer"/><g class="pielayer"/><g class="treemaplayer"/><g class="sunburstlayer"/><g class="glimages"/><defs id="topdefs-4db8e4"><g class="clips"/><clipPath id="legend4db8e4"><rect width="60" height="45" x="0" y="0"/></clipPath></defs><g class="layer-above"><g class="imagelayer"/><g class="shapelayer"/></g><g class="infolayer"><g class="legend" pointer-events="all" transform="translate(627.74,100)"><rect class="bg" shape-rendering="crispEdges" width="60" height="45" x="0" y="0" style="stroke: rgb(68, 68, 68); stroke-opacity: 1; fill: rgb(255, 255, 255); fill-opacity: 1; stroke-width: 0px;"/><g class="scrollbox" transform="" clip-path="url('#legend4db8e4')"><text class="legendtitletext" text-anchor="start" x="2" y="15.600000000000001" style="font-family: 'Open Sans', verdana, arial, sans-serif; font-size: 12px; fill: rgb(42, 63, 95); fill-opacity: 1; white-space: pre;">All</text><g class="groups" transform=""><g class="traces" transform="translate(0,30.1)" style="opacity: 1;"><text class="legendtext" text-anchor="start" x="40" y="4.680000000000001" style="font-family: 'Open Sans', verdana, arial, sans-serif; font-size: 12px; fill: rgb(42, 63, 95); fill-opacity: 1; white-space: pre;">All</text><g class="layers" style="opacity: 1;"><g class="legendfill"/><g class="legendlines"><path class="js-line" d="M5,0h30" style="fill: none; stroke: rgb(99, 110, 250); stroke-opacity: 1; stroke-width: 2px;"/></g><g class="legendsymbols"><g class="legendpoints"/></g></g><rect class="legendtoggle" x="0" y="-9.5" width="54.890625" height="19" style="fill: rgb(0, 0, 0); fill-opacity: 0;"/></g></g></g><rect class="scrollbar" rx="20" ry="3" width="0" height="0" x="0" y="0" style="fill: rgb(128, 139, 164); fill-opacity: 1;"/></g><g class="g-gtitle"><text class="gtitle" x="35" y="50" text-anchor="start" dy="0em" style="font-family: 'Open Sans', verdana, arial, sans-serif; font-size: 17px; fill: rgb(42, 63, 95); opacity: 1; font-weight: normal; white-space: pre;">Singapore Vaccination Centers</text></g><g class="g-xtitle"><text class="xtitle" x="348.5" y="476.409375" text-anchor="middle" style="font-family: 'Open Sans', verdana, arial, sans-serif; font-size: 14px; fill: rgb(42, 63, 95); opacity: 1; font-weight: normal; white-space: pre;">Time</text></g><g class="g-ytitle"><text class="ytitle" transform="rotate(-90,27.481250000000003,260)" x="27.481250000000003" y="260" text-anchor="middle" style="font-family: 'Open Sans', verdana, arial, sans-serif; font-size: 14px; fill: rgb(42, 63, 95); opacity: 1; font-weight: normal; white-space: pre;">Filled/%</text></g></g></svg>