<svg class="main-svg" xmlns="http://www.w3.org/2000/svg" xmlns:xlink="http://www.w3.org/1999/xlink" width="700" height="500" style="" viewBox="0 0 700 500"><rect x="0" y="0" width="700" height="500" style="fill: rgb(255, 255, 255); fill-opacity: 1;"/><defs id="defs-0d077f"><g class="clips"><clipPath id="clip0d077fxyplot" class="plotclip"><rect width="537" height="320"/></clipPath><clipPath class="axesclip" id="clip0d077fx"><rect x="80" y="0" width="537" height="500"/></clipPath><clipPath class="axesclip" id="clip0d077fy"><rect x="0" y="100" width="700" height="320"/></clipPath><clipPath class="axesclip" id="clip0d077fxy"><rect x="80" y="100" width="537" height="320"/></clipPath></g><g class="gradients"/></defs><g class="bglayer"><rect class="bg" x="80" y="100" width="537" height="320" style="fill: rgb(229, 236, 246); fill-opacity: 1; stroke-width: 0;"/></g><g class="layer-below"><g class="imagelayer"/><g class="shapelayer"/></g><g class="cartesianlayer"><g class="subplot xy"><g class="layer-subplot"><g class="shapelayer"/><g class="imagelayer"/></g><g class="gridlayer"><g class="x"><path class="xgrid crisp" transform="translate(85.09,0)" d="M0,100v320" style="stroke: rgb(255, 255, 255); stroke-opacity: 1; stroke-width: 1px;"/><path class="xgrid crisp" transform="translate(183.26,0)" d="M0,100v320" style="stroke: rgb(255, 255, 255); stroke-opacity: 1; stroke-width: 1px;"/><path class="xgrid crisp" transform="translate(281.43,0)" d="M0,100v320" style="stroke: rgb(255, 255, 255); stroke-opacity: 1; stroke-width: 1px;"/><path class="xgrid crisp" transform="translate(379.59,0)" d="M0,100v320" style="stroke: rgb(255, 255, 255); stroke-opacity: 1; stroke-width: 1px;"/><path class="xgrid crisp" transform="translate(477.76,0)" d="M0,100v320" style="stroke: rgb(255, 255, 255); stroke-opacity: 1; stroke-width: 1px;"/><path class="xgrid crisp" transform="translate(575.9300000000001,0)" d="M0,100v320" style="stroke: rgb(255, 255, 255); stroke-opacity: 1; stroke-width: 1px;"/></g><g class="y"><path class="ygrid crisp" transform="translate(0,391.94)" d="M80,0h537" style="stroke: rgb(255, 255, 255); stroke-opacity: 1; stroke-width: 1px;"/><path class="ygrid crisp" transform="translate(0,346.87)" d="M80,0h537" style="stroke: rgb(255, 255, 255); stroke-opacity: 1; stroke-width: 1px;"/><path class="ygrid crisp" transform="translate(0,301.81)" d="M80,0h537" style="stroke: rgb(255, 255, 255); stroke-opacity: 1; stroke-width: 1px;"/><path class="ygrid crisp" transform="translate(0,256.74)" d="M80,0h537" style="stroke: rgb(255, 255, 255); stroke-opacity: 1; stroke-width: 1px;"/><path class="ygrid crisp" transform="translate(0,211.68)" d="M80,0h537" style="stroke: rgb(255, 255, 255); stroke-opacity: 1; stroke-width: 1px;"/><path class="ygrid crisp" transform="translate(0,166.61)" d="M80,0h537" style="stroke: rgb(255, 255, 255); stroke-opacity: 1; stroke-width: 1px;"/><path class="ygrid crisp" transform="translate(0,121.55)" d="M80,0h537" style="stroke: rgb(255, 255, 255); stroke-opacity: 1; stroke-width: 1px;"/></g></g><g class="zerolinelayer"/><path class="xlines-below"/><path class="ylines-below"/><g class="overlines-below"/><g class="xaxislayer-below"/><g class="yaxislayer-below"/><g class="overaxes-below"/><g class="plot" transform="translate(80,100)" clip-path="url('#clip0d077fxyplot')"><g class="scatterlayer mlayer"><g class="trace scatter tracee1f166" style="stroke-miterlimit: 2; opacity: 1;"><g class="fills"/><g class="errorbars"/><g class="lines"><path class="js-line" d="M0,304L3.93,302.51L5.3,246.85L6.66,248.21L8.02,246.44L13.47,245.76L14.84,245.35L17.57,246.16L18.93,245.21L20.33,245.89L21.66,245.62L27.11,244.66L28.48,244.94L31.2,244.12L32.57,244.12L35.29,244.12L36.65,244.12L40.75,243.85L42.11,243.71L46.19,243.57L47.56,243.71L51.65,243.03L53.01,242.62L55.74,242.76L57.11,242.08L59.83,241.94L61.19,241.26L62.56,241.8L63.92,241.39L65.28,240.44L66.65,240.71L68.01,241.39L69.38,239.76L73.46,238.81L74.82,239.35L76.19,238.94L77.55,239.9L78.91,238.94L80.28,236.76L83,237.31L84.37,236.35L89.83,234.31L91.19,233.36L93.91,234.72L95.28,233.49L96.64,231.31L98,231.86L99.36,232.95L100.73,231.31L103.46,228.86L104.82,228.45L107.55,226.68L108.91,227.22L111.63,226L113,226.27L114.36,227.9L115.73,225.59L119.82,226.68L121.19,226.27L123.91,222.32L125.27,221.91L126.64,222.73L128,221.36L129.36,221.5L130.72,223.27L132.09,223L133.45,221.36L138.91,216.73L140.27,213.87L141.64,214.55L143,213.05L144.36,211.96L145.72,212.78L148.45,213.05L149.81,214.14L155.28,211.83L156.63,211.69L159.36,211.01L160.73,209.92L162.09,209.51L163.45,210.05L164.82,211.28L166.17,211.28L168.9,208.96L170.27,208.69L174.36,207.87L175.72,207.33L177.09,206.51L178.45,206.92L185.27,206.65L186.63,206.92L189.35,205.42L190.72,203.79L192.08,202.56L193.45,202.56L194.81,201.74L196.17,202.7L200.26,202.83L201.63,133.63L205.72,131.43L207.08,131.71L209.81,131.16L211.17,130.19L213.9,130.33L215.27,130.33L220.71,129.64L222.07,129.51L226.16,128.96L227.53,129.09L239.8,129.09L241.17,129.23L250.71,128.96L252.07,128.27L256.16,128.27L257.52,127.17L262.97,127.31L264.34,126.76L267.06,126.9L268.42,126.21L271.16,125.52L272.52,126.21L276.61,123.05L277.97,123.05L279.34,124.15L280.7,123.74L283.43,122.36L284.79,123.05L288.88,120.85L290.24,119.06L291.61,120.85L292.97,120.03L297.06,117.69L298.43,118.65L301.15,117L302.51,118.24L303.88,119.34L305.24,118.38L306.61,119.48L307.97,118.93L309.33,117.96L310.69,119.06L312.06,118.38L313.42,118.79L316.15,119.89L317.51,119.48L320.26,118.24L321.63,117L322.98,115.49L324.35,115.22L327.08,115.9L328.44,116.45L329.8,114.39L331.16,114.12L335.26,113.43L336.62,111.64L340.71,112.74L342.08,112.19L344.8,108.48L346.17,110.13L347.54,110.13L348.89,108.9L350.26,109.86L351.62,109.31L354.35,107.38L355.71,107.52L359.8,104.22L361.16,104.36L363.89,101.89L365.25,102.71L367.98,100.51L369.35,101.06L373.43,100.38L374.8,97.63L376.16,97.49L377.52,96.39L378.89,94.88L380.25,95.16L381.62,95.43L382.98,96.67L384.35,97.35L385.71,96.67L387.08,98.73L388.43,97.9L389.8,97.77L391.16,96.12L392.52,95.7L393.89,96.25L396.61,96.53L397.98,48.29L400.7,46.35L402.06,46.07L404.79,45.38L406.16,44.41L410.24,43.85L411.61,43.58L417.06,42.19L418.43,41.22L421.16,40.94L422.52,41.5L426.61,40.25L427.97,40.39L444.33,39L445.69,39.28L451.15,38.31L452.51,38.59L453.87,38.03L455.23,38.31L456.6,38.73L457.96,38.17L459.33,38.31L460.69,37.62L463.42,38.03L464.77,37.2L472.96,36.51L475.68,35.95L477.05,34.57L479.77,34.15L482.5,33.74L483.86,31.94L485.23,33.18L486.59,31.94L489.32,31.94L490.68,31.24L492.05,31.1L493.41,29.86L497.49,29.58L498.86,27.92L500.22,26.39L501.58,26.12L504.27,23.9L505.63,24.59L508.35,23.07L509.72,23.48L511.08,21.68L512.44,21.4L513.81,20.85L515.17,21.27L516.54,20.99L517.9,18.91L519.27,18.22L520.63,18.77L523.35,17.94L524.72,17.52L526.09,17.39L527.45,16.28L530.17,16.28L531.53,16.83L534.26,18.49L535.63,16.55L537,17.11" style="vector-effect: non-scaling-stroke; fill: none; stroke: rgb(99, 110, 250); stroke-opacity: 1; stroke-width: 2px; opacity: 1;"/></g><g class="points"/><g class="text"/></g></g></g><g class="overplot"/><path class="xlines-above crisp" d="M0,0" style="fill: none;"/><path class="ylines-above crisp" d="M0,0" style="fill: none;"/><g class="overlines-above"/><g class="xaxislayer-above"><g class="xtick"><text text-anchor="middle" x="0" y="433" transform="translate(85.09,0)" style="font-family: 'Open Sans', verdana, arial, sans-serif; font-size: 12px; fill: rgb(42, 63, 95); fill-opacity: 1; white-space: pre;"><tspan class="line" dy="0em" x="0" y="433">00:00</tspan><tspan class="line" dy="1.3em" x="0" y="433">Aug 3, 2021</tspan></text></g><g class="xtick"><text text-anchor="middle" x="0" y="433" transform="translate(183.26,0)" style="font-family: 'Open Sans', verdana, arial, sans-serif; font-size: 12px; fill: rgb(42, 63, 95); fill-opacity: 1; white-space: pre;">12:00</text></g><g class="xtick"><text text-anchor="middle" x="0" y="433" transform="translate(281.43,0)" style="font-family: 'Open Sans', verdana, arial, sans-serif; font-size: 12px; fill: rgb(42, 63, 95); fill-opacity: 1; white-space: pre;"><tspan class="line" dy="0em" x="0" y="433">00:00</tspan><tspan class="line" dy="1.3em" x="0" y="433">Aug 4, 2021</tspan></text></g><g class="xtick"><text text-anchor="middle" x="0" y="433" transform="translate(379.59,0)" style="font-family: 'Open Sans', verdana, arial, sans-serif; font-size: 12px; fill: rgb(42, 63, 95); fill-opacity: 1; white-space: pre;">12:00</text></g><g class="xtick"><text text-anchor="middle" x="0" y="433" transform="translate(477.76,0)" style="font-family: 'Open Sans', verdana, arial, sans-serif; font-size: 12px; fill: rgb(42, 63, 95); fill-opacity: 1; white-space: pre;"><tspan class="line" dy="0em" x="0" y="433">00:00</tspan><tspan class="line" dy="1.3em" x="0" y="433">Aug 5, 2021</tspan></text></g><g class="xtick"><text text-anchor="middle" x="0" y="433" transform="translate(575.9300000000001,0)" style="font-family: 'Open Sans', verdana, arial, sans-serif; font-size: 12px; fill: rgb(42, 63, 95); fill-opacity: 1; white-space: pre;">12:00</text></g></g><g class="yaxislayer-above"><g class="ytick"><text text-anchor="end" x="79" y="4.199999999999999" transform="translate(0,391.94)" style="font-family: 'Open Sans', verdana, arial, sans-serif; font-size: 12px; fill: rgb(42, 63, 95); fill-opacity: 1; white-space: pre;">0.864</text></g><g class="ytick"><text text-anchor="end" x="79" y="4.199999999999999" transform="translate(0,346.87)" style="font-family: 'Open Sans', verdana, arial, sans-serif; font-size: 12px; fill: rgb(42, 63, 95); fill-opacity: 1; white-space: pre;">0.865</text></g><g class="ytick"><text text-anchor="end" x="79" y="4.199999999999999" transform="translate(0,301.81)" style="font-family: 'Open Sans', verdana, arial, sans-serif; font-size: 12px; fill: rgb(42, 63, 95); fill-opacity: 1; white-space: pre;">0.866</text></g><g class="ytick"><text text-anchor="end" x="79" y="4.199999999999999" transform="translate(0,256.74)" style="font-family: 'Open Sans', verdana, arial, sans-serif; font-size: 12px; fill: rgb(42, 63, 95); fill-opacity: 1; white-space: pre;">0.867</text></g><g class="ytick"><text text-anchor="end" x="79" y="4.199999999999999" transform="translate(0,211.68)" style="font-family: 'Open Sans', verdana, arial, sans-serif; font-size: 12px; fill: rgb(42, 63, 95); fill-opacity: 1; white-space: pre;">0.868</text></g><g class="ytick"><text text-anchor="end" x="79" y="4.199999999999999" transform="translate(0,166.61)" style="font-family: 'Open Sans', verdana, arial, sans-serif; font-size: 12px; fill: rgb(42, 63, 95); fill-opacity: 1; white-space: pre;">0.869</text></g><g class="ytick"><text text-anchor="end" x="79" y="4.199999999999999" transform="translate(0,121.55)" style="font-family: 'Open Sans', verdana, arial, sans-serif; font-size: 12px; fill: rgb(42, 63, 95); fill-opacity: 1; white-space: pre;">0.87</text></g></g><g class="overaxes-above"/></g></g><g class="polarlayer"/><g class="ternarylayer"/><g class="geolayer"/><g class="funnelarealayer"/><g class="pielayer"/><g class="treemaplayer"/><g class="sunburstlayer"/><g class="glimages"/><defs id="topdefs-0d077f"><g class="clips"/><clipPath id="legend0d077f"><rect width="60" height="45" x="0" y="0"/></clipPath></defs><g class="layer-above"><g class="imagelayer"/><g class="shapelayer"/></g><g class="infolayer"><g class="legend" pointer-events="all" transform="translate(627.74,100)"><rect class="bg" shape-rendering="crispEdges" width="60" height="45" x="0" y="0" style="stroke: rgb(68, 68, 68); stroke-opacity: 1; fill: rgb(255, 255, 255); fill-opacity: 1; stroke-width: 0px;"/><g class="scrollbox" transform="" clip-path="url('#legend0d077f')"><text class="legendtitletext" text-anchor="start" x="2" y="15.600000000000001" style="font-family: 'Open Sans', verdana, arial, sans-serif; font-size: 12px; fill: rgb(42, 63, 95); fill-opacity: 1; white-space: pre;">All</text><g class="groups" transform=""><g class="traces" transform="translate(0,30.1)" style="opacity: 1;"><text class="legendtext" text-anchor="start" x="40" y="4.680000000000001" style="font-family: 'Open Sans', verdana, arial, sans-serif; font-size: 12px; fill: rgb(42, 63, 95); fill-opacity: 1; white-space: pre;">All</text><g class="layers" style="opacity: 1;"><g class="legendfill"/><g class="legendlines"><path class="js-line" d="M5,0h30" style="fill: none; stroke: rgb(99, 110, 250); stroke-opacity: 1; stroke-width: 2px;"/></g><g class="legendsymbols"><g class="legendpoints"/></g></g><rect class="legendtoggle" x="0" y="-9.5" width="54.890625" height="19" style="fill: rgb(0, 0, 0); fill-opacity: 0;"/></g></g></g><rect class="scrollbar" rx="20" ry="3" width="0" height="0" x="0" y="0" style="fill: rgb(128, 139, 164); fill-opacity: 1;"/></g><g class="g-gtitle"><text class="gtitle" x="35" y="50" text-anchor="start" dy="0em" style="font-family: 'Open Sans', verdana, arial, sans-serif; font-size: 17px; fill: rgb(42, 63, 95); opacity: 1; font-weight: normal; white-space: pre;">Singapore Vaccination Centers</text></g><g class="g-xtitle"><text class="xtitle" x="348.5" y="476.409375" text-anchor="middle" style="font-family: 'Open Sans', verdana, arial, sans-serif; font-size: 14px; fill: rgb(42, 63, 95); opacity: 1; font-weight: normal; white-space: pre;">Time</text></g><g class="g-ytitle"><text class="ytitle" transform="rotate(-90,19.840625000000003,260)" x="19.840625000000003" y="260" text-anchor="middle" style="font-family: 'Open Sans', verdana, arial, sans-serif; font-size: 14px; fill: rgb(42, 63, 95); opacity: 1; font-weight: normal; white-space: pre;">Filled/%</text></g></g></svg>