<svg class="main-svg" xmlns="http://www.w3.org/2000/svg" xmlns:xlink="http://www.w3.org/1999/xlink" width="700" height="500" style="" viewBox="0 0 700 500"><rect x="0" y="0" width="700" height="500" style="fill: rgb(255, 255, 255); fill-opacity: 1;"/><defs id="defs-2021fa"><g class="clips"><clipPath id="clip2021faxyplot" class="plotclip"><rect width="537" height="320"/></clipPath><clipPath class="axesclip" id="clip2021fax"><rect x="80" y="0" width="537" height="500"/></clipPath><clipPath class="axesclip" id="clip2021fay"><rect x="0" y="100" width="700" height="320"/></clipPath><clipPath class="axesclip" id="clip2021faxy"><rect x="80" y="100" width="537" height="320"/></clipPath></g><g class="gradients"/></defs><g class="bglayer"><rect class="bg" x="80" y="100" width="537" height="320" style="fill: rgb(229, 236, 246); fill-opacity: 1; stroke-width: 0;"/></g><g class="layer-below"><g class="imagelayer"/><g class="shapelayer"/></g><g class="cartesianlayer"><g class="subplot xy"><g class="layer-subplot"><g class="shapelayer"/><g class="imagelayer"/></g><g class="gridlayer"><g class="x"><path class="xgrid crisp" transform="translate(87.07,0)" d="M0,100v320" style="stroke: rgb(255, 255, 255); stroke-opacity: 1; stroke-width: 1px;"/><path class="xgrid crisp" transform="translate(223.26,0)" d="M0,100v320" style="stroke: rgb(255, 255, 255); stroke-opacity: 1; stroke-width: 1px;"/><path class="xgrid crisp" transform="translate(359.44,0)" d="M0,100v320" style="stroke: rgb(255, 255, 255); stroke-opacity: 1; stroke-width: 1px;"/><path class="xgrid crisp" transform="translate(495.63,0)" d="M0,100v320" style="stroke: rgb(255, 255, 255); stroke-opacity: 1; stroke-width: 1px;"/></g><g class="y"><path class="ygrid crisp" transform="translate(0,387.39)" d="M80,0h537" style="stroke: rgb(255, 255, 255); stroke-opacity: 1; stroke-width: 1px;"/><path class="ygrid crisp" transform="translate(0,325.32)" d="M80,0h537" style="stroke: rgb(255, 255, 255); stroke-opacity: 1; stroke-width: 1px;"/><path class="ygrid crisp" transform="translate(0,263.26)" d="M80,0h537" style="stroke: rgb(255, 255, 255); stroke-opacity: 1; stroke-width: 1px;"/><path class="ygrid crisp" transform="translate(0,201.2)" d="M80,0h537" style="stroke: rgb(255, 255, 255); stroke-opacity: 1; stroke-width: 1px;"/><path class="ygrid crisp" transform="translate(0,139.13)" d="M80,0h537" style="stroke: rgb(255, 255, 255); stroke-opacity: 1; stroke-width: 1px;"/></g></g><g class="zerolinelayer"/><path class="xlines-below"/><path class="ylines-below"/><g class="overlines-below"/><g class="xaxislayer-below"/><g class="yaxislayer-below"/><g class="overaxes-below"/><g class="plot" transform="translate(80,100)" clip-path="url('#clip2021faxyplot')"><g class="scatterlayer mlayer"><g class="trace scatter trace1766f2" style="stroke-miterlimit: 2; opacity: 1;"><g class="fills"/><g class="errorbars"/><g class="lines"><path class="js-line" d="M0,304L1.67,303.44L3.56,301.95L5.45,301.95L7.35,225.29L9.24,227.16L11.13,224.72L16.8,224.35L18.69,223.78L20.58,223.22L22.47,223.78L24.37,224.35L26.26,223.03L28.2,223.97L30.04,223.6L31.94,223.03L33.82,223.41L37.61,222.28L39.51,222.66L43.29,221.53L45.18,221.53L48.95,221.53L50.84,221.53L54.64,221.72L56.53,221.16L64.08,220.78L65.98,220.97L69.76,220.22L71.66,220.03L73.55,219.47L75.45,219.84L77.33,219.66L79.22,218.72L83,218.53L84.89,217.59L86.79,218.34L88.68,217.78L90.56,216.47L92.46,216.84L94.35,217.78L96.25,215.53L100.03,214.4L101.91,214.21L103.8,214.96L105.7,214.4L107.59,215.72L109.48,214.4L111.38,211.4L113.26,212.15L115.15,212.15L117.05,210.84L118.94,210.09L120.83,210.27L126.51,206.71L128.4,208.21L130.28,208.58L132.18,206.9L134.06,203.89L135.96,204.64L137.85,206.14L139.74,203.89L141.64,201.45L143.53,200.51L147.31,198.64L149.21,197.51L151.1,198.26L152.98,197.14L154.87,196.57L156.77,196.95L158.66,199.2L160.55,196.01L162.44,196.57L164.33,196.2L166.23,197.51L168.12,196.95L171.91,191.51L173.8,190.94L175.69,192.07L177.58,190.19L179.47,190.38L181.36,192.82L183.25,192.45L185.14,190.19L187.03,188.88L188.93,186.63L190.82,185.69L192.71,183.81L194.6,179.87L196.49,180.81L200.28,177.25L202.17,178.37L205.95,178.75L207.84,180.25L215.42,177.06L217.3,176.87L221.08,175.93L222.98,174.43L224.86,173.87L226.76,174.62L228.65,176.31L230.53,176.31L232.42,174.05L234.32,173.12L243.78,170.86L245.67,169.74L251.34,170.86L253.23,170.3L257.02,169.93L258.92,170.3L262.69,168.24L264.59,165.99L266.47,164.3L268.37,164.3L270.26,163.17L272.15,164.48L274.04,164.67L275.93,163.92L277.82,164.67L279.72,69.37L285.39,66.34L287.29,66.72L291.07,65.96L292.96,64.63L294.85,64.26L296.74,64.82L304.3,64.07L306.2,63.88L315.66,63.12L317.55,63.12L325.12,62.17L327.01,62.74L336.46,63.31L338.36,63.12L347.81,62.93L349.7,61.98L355.37,61.98L357.26,60.47L362.94,61.42L364.82,60.66L366.72,59.9L368.61,60.28L374.28,58.96L376.19,58.2L378.07,59.15L379.96,57.63L383.74,54.79L385.63,54.79L387.53,56.31L389.41,55.74L393.2,53.85L395.09,54.79L398.88,51.77L400.76,51.77L402.66,49.31L404.55,51.77L412.11,47.41L414.01,48.74L417.79,46.47L419.68,48.17L421.57,49.68L423.46,48.36L425.36,49.87L427.25,49.12L429.13,47.79L431.03,49.31L432.92,48.36L434.81,48.93L438.6,50.44L440.49,49.87L444.3,48.17L446.2,46.47L448.08,44.39L449.97,44.01L453.76,44.95L455.65,45.71L457.54,42.87L459.43,42.49L465.11,41.55L467,39.09L472.68,40.6L474.57,39.84L476.46,37.95L478.35,34.73L480.24,37.01L482.14,37.01L484.03,35.3L485.91,36.63L487.8,35.87L489.69,34.17L491.59,33.22L493.48,33.41L499.16,28.87L501.05,29.06L504.84,25.65L506.72,26.79L510.5,23.76L512.4,24.52L518.07,23.57L519.96,19.78L521.85,19.6L523.73,18.08L525.64,16L527.53,16.38L529.42,16.76L531.31,18.46L533.21,19.41L535.09,18.46L537,21.3" style="vector-effect: non-scaling-stroke; fill: none; stroke: rgb(99, 110, 250); stroke-opacity: 1; stroke-width: 2px; opacity: 1;"/></g><g class="points"/><g class="text"/></g></g></g><g class="overplot"/><path class="xlines-above crisp" d="M0,0" style="fill: none;"/><path class="ylines-above crisp" d="M0,0" style="fill: none;"/><g class="overlines-above"/><g class="xaxislayer-above"><g class="xtick"><text text-anchor="middle" x="0" y="433" transform="translate(87.07,0)" style="font-family: 'Open Sans', verdana, arial, sans-serif; font-size: 12px; fill: rgb(42, 63, 95); fill-opacity: 1; white-space: pre;"><tspan class="line" dy="0em" x="0" y="433">00:00</tspan><tspan class="line" dy="1.3em" x="0" y="433">Aug 3, 2021</tspan></text></g><g class="xtick"><text text-anchor="middle" x="0" y="433" transform="translate(223.26,0)" style="font-family: 'Open Sans', verdana, arial, sans-serif; font-size: 12px; fill: rgb(42, 63, 95); fill-opacity: 1; white-space: pre;">12:00</text></g><g class="xtick"><text text-anchor="middle" x="0" y="433" transform="translate(359.44,0)" style="font-family: 'Open Sans', verdana, arial, sans-serif; font-size: 12px; fill: rgb(42, 63, 95); fill-opacity: 1; white-space: pre;"><tspan class="line" dy="0em" x="0" y="433">00:00</tspan><tspan class="line" dy="1.3em" x="0" y="433">Aug 4, 2021</tspan></text></g><g class="xtick"><text text-anchor="middle" x="0" y="433" transform="translate(495.63,0)" style="font-family: 'Open Sans', verdana, arial, sans-serif; font-size: 12px; fill: rgb(42, 63, 95); fill-opacity: 1; white-space: pre;">12:00</text></g></g><g class="yaxislayer-above"><g class="ytick"><text text-anchor="end" x="79" y="4.199999999999999" transform="translate(0,387.39)" style="font-family: 'Open Sans', verdana, arial, sans-serif; font-size: 12px; fill: rgb(42, 63, 95); fill-opacity: 1; white-space: pre;">0.864</text></g><g class="ytick"><text text-anchor="end" x="79" y="4.199999999999999" transform="translate(0,325.32)" style="font-family: 'Open Sans', verdana, arial, sans-serif; font-size: 12px; fill: rgb(42, 63, 95); fill-opacity: 1; white-space: pre;">0.865</text></g><g class="ytick"><text text-anchor="end" x="79" y="4.199999999999999" transform="translate(0,263.26)" style="font-family: 'Open Sans', verdana, arial, sans-serif; font-size: 12px; fill: rgb(42, 63, 95); fill-opacity: 1; white-space: pre;">0.866</text></g><g class="ytick"><text text-anchor="end" x="79" y="4.199999999999999" transform="translate(0,201.2)" style="font-family: 'Open Sans', verdana, arial, sans-serif; font-size: 12px; fill: rgb(42, 63, 95); fill-opacity: 1; white-space: pre;">0.867</text></g><g class="ytick"><text text-anchor="end" x="79" y="4.199999999999999" transform="translate(0,139.13)" style="font-family: 'Open Sans', verdana, arial, sans-serif; font-size: 12px; fill: rgb(42, 63, 95); fill-opacity: 1; white-space: pre;">0.868</text></g></g><g class="overaxes-above"/></g></g><g class="polarlayer"/><g class="ternarylayer"/><g class="geolayer"/><g class="funnelarealayer"/><g class="pielayer"/><g class="treemaplayer"/><g class="sunburstlayer"/><g class="glimages"/><defs id="topdefs-2021fa"><g class="clips"/><clipPath id="legend2021fa"><rect width="60" height="45" x="0" y="0"/></clipPath></defs><g class="layer-above"><g class="imagelayer"/><g class="shapelayer"/></g><g class="infolayer"><g class="legend" pointer-events="all" transform="translate(627.74,100)"><rect class="bg" shape-rendering="crispEdges" width="60" height="45" x="0" y="0" style="stroke: rgb(68, 68, 68); stroke-opacity: 1; fill: rgb(255, 255, 255); fill-opacity: 1; stroke-width: 0px;"/><g class="scrollbox" transform="" clip-path="url('#legend2021fa')"><text class="legendtitletext" text-anchor="start" x="2" y="15.600000000000001" style="font-family: 'Open Sans', verdana, arial, sans-serif; font-size: 12px; fill: rgb(42, 63, 95); fill-opacity: 1; white-space: pre;">All</text><g class="groups" transform=""><g class="traces" transform="translate(0,30.1)" style="opacity: 1;"><text class="legendtext" text-anchor="start" x="40" y="4.680000000000001" style="font-family: 'Open Sans', verdana, arial, sans-serif; font-size: 12px; fill: rgb(42, 63, 95); fill-opacity: 1; white-space: pre;">All</text><g class="layers" style="opacity: 1;"><g class="legendfill"/><g class="legendlines"><path class="js-line" d="M5,0h30" style="fill: none; stroke: rgb(99, 110, 250); stroke-opacity: 1; stroke-width: 2px;"/></g><g class="legendsymbols"><g class="legendpoints"/></g></g><rect class="legendtoggle" x="0" y="-9.5" width="54.890625" height="19" style="fill: rgb(0, 0, 0); fill-opacity: 0;"/></g></g></g><rect class="scrollbar" rx="20" ry="3" width="0" height="0" x="0" y="0" style="fill: rgb(128, 139, 164); fill-opacity: 1;"/></g><g class="g-gtitle"><text class="gtitle" x="35" y="50" text-anchor="start" dy="0em" style="font-family: 'Open Sans', verdana, arial, sans-serif; font-size: 17px; fill: rgb(42, 63, 95); opacity: 1; font-weight: normal; white-space: pre;">Singapore Vaccination Centers</text></g><g class="g-xtitle"><text class="xtitle" x="348.5" y="476.409375" text-anchor="middle" style="font-family: 'Open Sans', verdana, arial, sans-serif; font-size: 14px; fill: rgb(42, 63, 95); opacity: 1; font-weight: normal; white-space: pre;">Time</text></g><g class="g-ytitle"><text class="ytitle" transform="rotate(-90,19.840625000000003,260)" x="19.840625000000003" y="260" text-anchor="middle" style="font-family: 'Open Sans', verdana, arial, sans-serif; font-size: 14px; fill: rgb(42, 63, 95); opacity: 1; font-weight: normal; white-space: pre;">Filled/%</text></g></g></svg>