<svg class="main-svg" xmlns="http://www.w3.org/2000/svg" xmlns:xlink="http://www.w3.org/1999/xlink" width="700" height="500" style="" viewBox="0 0 700 500"><rect x="0" y="0" width="700" height="500" style="fill: rgb(255, 255, 255); fill-opacity: 1;"/><defs id="defs-24ba29"><g class="clips"><clipPath id="clip24ba29xyplot" class="plotclip"><rect width="537" height="320"/></clipPath><clipPath class="axesclip" id="clip24ba29x"><rect x="80" y="0" width="537" height="500"/></clipPath><clipPath class="axesclip" id="clip24ba29y"><rect x="0" y="100" width="700" height="320"/></clipPath><clipPath class="axesclip" id="clip24ba29xy"><rect x="80" y="100" width="537" height="320"/></clipPath></g><g class="gradients"/></defs><g class="bglayer"><rect class="bg" x="80" y="100" width="537" height="320" style="fill: rgb(229, 236, 246); fill-opacity: 1; stroke-width: 0;"/></g><g class="layer-below"><g class="imagelayer"/><g class="shapelayer"/></g><g class="cartesianlayer"><g class="subplot xy"><g class="layer-subplot"><g class="shapelayer"/><g class="imagelayer"/></g><g class="gridlayer"><g class="x"><path class="xgrid crisp" transform="translate(89.66,0)" d="M0,100v320" style="stroke: rgb(255, 255, 255); stroke-opacity: 1; stroke-width: 1px;"/><path class="xgrid crisp" transform="translate(193.67000000000002,0)" d="M0,100v320" style="stroke: rgb(255, 255, 255); stroke-opacity: 1; stroke-width: 1px;"/><path class="xgrid crisp" transform="translate(297.69,0)" d="M0,100v320" style="stroke: rgb(255, 255, 255); stroke-opacity: 1; stroke-width: 1px;"/><path class="xgrid crisp" transform="translate(401.7,0)" d="M0,100v320" style="stroke: rgb(255, 255, 255); stroke-opacity: 1; stroke-width: 1px;"/><path class="xgrid crisp" transform="translate(505.71,0)" d="M0,100v320" style="stroke: rgb(255, 255, 255); stroke-opacity: 1; stroke-width: 1px;"/><path class="xgrid crisp" transform="translate(609.73,0)" d="M0,100v320" style="stroke: rgb(255, 255, 255); stroke-opacity: 1; stroke-width: 1px;"/></g><g class="y"><path class="ygrid crisp" transform="translate(0,367.23)" d="M80,0h537" style="stroke: rgb(255, 255, 255); stroke-opacity: 1; stroke-width: 1px;"/><path class="ygrid crisp" transform="translate(0,308.43)" d="M80,0h537" style="stroke: rgb(255, 255, 255); stroke-opacity: 1; stroke-width: 1px;"/><path class="ygrid crisp" transform="translate(0,249.63)" d="M80,0h537" style="stroke: rgb(255, 255, 255); stroke-opacity: 1; stroke-width: 1px;"/><path class="ygrid crisp" transform="translate(0,190.82999999999998)" d="M80,0h537" style="stroke: rgb(255, 255, 255); stroke-opacity: 1; stroke-width: 1px;"/><path class="ygrid crisp" transform="translate(0,132.03)" d="M80,0h537" style="stroke: rgb(255, 255, 255); stroke-opacity: 1; stroke-width: 1px;"/></g></g><g class="zerolinelayer"/><path class="xlines-below"/><path class="ylines-below"/><g class="overlines-below"/><g class="xaxislayer-below"/><g class="yaxislayer-below"/><g class="overaxes-below"/><g class="plot" transform="translate(80,100)" clip-path="url('#clip24ba29xyplot')"><g class="scatterlayer mlayer"><g class="trace scatter trace843e07" style="stroke-miterlimit: 2; opacity: 1;"><g class="fills"/><g class="errorbars"/><g class="lines"><path class="js-line" d="M0,82.28L6.1,82.51L8.26,120.48L12.57,120.57L14.17,136.92L14.85,136.9L30.8,137.96L31.79,121.23L32.09,129.62L32.82,129.56L34.26,126.37L34.98,126.27L36.43,129.79L37.15,129.7L38.6,132.71L39.32,132.63L40.76,120.69L41.49,120.62L42.93,132.64L43.65,132.55L45.1,126.68L47.26,113.21L47.99,109.51L51.6,74.17L52.32,72.87L53.76,78.78L54.49,77.73L56.65,62.82L58.1,65.47L58.82,64.83L60.26,74.27L60.99,73.83L61.94,51.83L63.15,52.34L63.88,52.21L71.82,51.78L72.54,51.77L81.21,51.11L81.93,50.91L106.49,42.44L107.21,42.24L112.99,40.95L113.72,41.79L125.99,41.47L126.72,41.46L137.55,40.8L138.27,40.69L165,36.83L165.72,35.53L193.89,34L194.61,33.87L217.01,31.05L217.73,28.56L242.29,27.81L243.01,95.38L250.98,93.57L251.68,93.44L252.4,93.12L253.13,91.51L255.29,88.51L256.02,87.52L259.63,73.59L260.35,72.39L264.68,67.88L265.41,67.37L269.02,65.43L269.74,65.5L274.8,64.8L275.52,64.77L291.41,63.66L292.13,63.48L297.19,61.32L297.91,60.89L298.63,60.46L299.35,62.78L302.24,61.15L302.97,59.94L307.3,53.24L308.02,52.44L310.91,47.98L311.63,45.51L314.52,38.66L315.24,37.65L319.58,32.89L320.33,32.47L322.47,31.98L323.19,31.8L328.97,31.18L329.69,31.16L340.53,30.17L341.25,29.9L345.58,28.09L346.3,74.81L348.47,72.76L349.2,72.32L355.7,69.16L356.42,68.8L356.97,71.93L357.14,68.39L357.83,68.25L357.86,69.25L358.55,67.95L358.59,68.94L359.31,68.62L360.75,68.09L361.48,76.43L367.8,73.91L367.83,72.31L367.86,72.03L367.98,73.74L374.84,44.74L375.2,44.87L375.56,41.95L376.28,42.12L376.64,43.2L377.73,37.43L378.09,41.6L379.17,39.66L379.53,39.05L380.62,38.13L380.98,38.96L382.06,38.42L382.42,38.33L383.15,38.4L383.51,43.02L387.48,41.69L387.84,36.5L388.56,35.76L388.92,35.39L390.73,31.97L391.09,32.01L393.26,22.43L393.62,16L393.98,16.8L394.34,140.18L394.7,139.22L395.06,142.07L395.78,136.79L396.15,138.99L396.51,137.43L396.87,136.15L397.23,136.63L397.59,141.25L397.95,146.68L398.31,133.42L399.04,138.09L399.4,157.2L400.48,133.53L400.84,145.44L401.2,148.42L401.56,146.68L401.92,144.02L402.65,134.36L403.01,135.71L403.37,141.84L403.73,146.05L404.09,142.1L404.45,141.74L404.81,151.77L405.17,141.68L405.53,140.84L405.9,148.68L406.26,138.39L406.62,127.07L406.98,137.58L407.34,139.13L407.7,140.49L408.06,138.92L408.43,134.18L409.51,129.31L409.87,138.25L410.23,134.05L410.59,138.68L410.95,138.81L411.31,131.49L411.68,131.42L412.04,140.05L412.76,132.48L413.12,138.41L413.84,141.46L414.2,128.79L414.93,142.96L415.29,264.58L416.37,293.12L416.73,304L417.1,286.22L417.45,301.52L417.82,291.75L418.18,292.1L418.54,291.07L418.9,294.16L419.26,293.46L419.62,276.02L419.98,283.67L420.34,262.28L421.07,272.54L421.43,248.89L422.15,241.71L422.51,229.6L422.87,224.98L423.23,228.24L423.59,227.36L424.68,215.22L425.04,217.06L425.4,216.4L425.76,227.08L426.12,226.08L426.48,228.38L426.85,228.68L427.2,224.72L427.57,233.57L427.93,224.28L428.29,225.36L428.65,227.75L429.01,223.07L429.73,226.33L430.1,223.26L430.46,224.52L430.82,234.01L431.18,220.81L431.54,231.91L431.9,224.2L434.07,212.72L434.43,220.76L435.15,220.72L435.51,223.7L435.87,223.67L436.23,219.37L436.6,223.08L436.96,218.62L437.32,226.76L437.68,225.2L438.04,224.19L438.4,219.51L438.76,225.16L439.85,225.11L440.21,216.49L440.57,225.05L440.93,220.43L441.29,220.57L441.65,218.19L442.01,220.92L442.38,219.84L442.73,227.36L443.1,216.65L443.46,220.1L443.82,220.01L444.54,220.98L444.9,218.78L445.62,223.64L445.98,218.66L446.34,205.85L446.71,215.25L447.07,220.32L447.43,206.18L447.79,206.81L448.15,214.16L448.51,214.11L448.87,206.99L449.6,212.47L449.96,202.23L450.32,199.24L450.68,208.71L451.05,224.84L451.4,215.2L451.76,214.49L452.13,205.74L452.49,219.6L453.21,195.82L453.57,209.77L453.93,208.24L454.29,203.32L454.65,202.05L455.01,205.17L455.38,200.81L455.74,208.16L456.1,206.35L456.46,209.96L456.82,207.44L457.18,196.45L457.54,195.36L457.9,196.45L458.26,201.41L459.35,210.92L459.71,197.09L460.07,197.31L460.43,191.05L460.79,191.24L461.15,196.07L461.52,200.65L461.88,194.37L462.96,210.5L463.32,204.27L464.04,191.94L464.4,193.62L464.76,197L465.13,205.03L465.49,197.14L465.85,198.57L467.29,184.28L467.65,189.51L468.38,194.59L468.74,189.23L469.1,191.91L469.46,189.81L469.82,182.31L470.18,187.7L470.54,187L470.9,183.28L471.27,186.18L471.63,185.69L471.99,181.61L472.35,182.61L472.71,186.54L473.43,187.68L473.79,186.58L474.16,181.49L474.52,187.81L475.24,185.81L475.6,187.22L475.96,189.17L476.33,187L477.41,194.82L477.77,189.57L478.13,183.36L478.49,189.2L478.85,186.45L479.94,187.85L480.3,183.53L481.38,187.65L481.74,184.59L482.46,184.25L482.82,185.71L483.91,187.29L484.27,197.68L484.63,197.68L484.99,195.53L485.35,195.52L485.71,190.33L486.08,190.33L486.44,186.49L487.88,194.95L488.24,194.95L488.6,195.4L488.96,193.58L489.33,193.58L489.69,187.5L490.41,187.5L490.77,190.84L491.85,186.75L492.21,187.03L492.58,187.03L492.94,188.23L495.83,181.13L496.19,187.27L496.55,190.9L496.91,187.7L497.27,181.79L497.63,180.91L497.99,182.93L498.35,184.81L498.71,179.55L499.44,190.44L499.8,182.8L500.16,183.07L500.52,174.64L501.6,185.09L501.96,181.21L502.33,181.99L502.69,185.79L503.05,171.39L503.41,177.83L503.77,175.21L504.13,180.5L504.49,179.53L504.85,177.22L506.3,187.84L506.66,182.58L507.02,175.16L507.38,180.33L507.74,178.23L508.47,176.4L508.83,185.95L509.19,175.93L509.55,196.82L510.63,173.22L510.99,177.47L511.35,180.21L511.72,180.03L512.08,179.15L512.8,179.35L513.16,181.21L514.61,176.9L514.97,176.97L515.69,169.69L516.05,173.52L516.41,176.28L516.77,172.21L517.14,173.97L517.5,171L518.22,180.19L518.58,175.33L518.94,171.32L519.3,174.66L519.66,174.4L520.02,183.64L520.39,176L520.75,180.08L521.11,179.71L521.47,181.54L522.19,173.38L522.55,176.61L522.91,186.68L523.27,171.47L523.63,173.34L523.99,176.71L524.36,180.06L524.72,191.51L525.45,169.64L525.81,179.24L526.17,185.08L526.52,178.84L526.89,180.35L527.61,173.52L528.2,177.41L528.69,175.84L529.05,172.35L529.78,178.87L530.14,178.77L530.5,176.54L531.58,180.35L531.94,181.62L532.3,181.6L532.67,184.49L533.03,177.62L533.39,178.94L533.75,178.93L534.11,178.92L534.47,174.71L535.19,182.31L535.56,181.81L535.92,181.81L536.28,181.29L536.64,185.14L537,181.69" style="vector-effect: non-scaling-stroke; fill: none; stroke: rgb(99, 110, 250); stroke-opacity: 1; stroke-width: 2px; opacity: 1;"/></g><g class="points"/><g class="text"/></g></g></g><g class="overplot"/><path class="xlines-above crisp" d="M0,0" style="fill: none;"/><path class="ylines-above crisp" d="M0,0" style="fill: none;"/><g class="overlines-above"/><g class="xaxislayer-above"><g class="xtick"><text text-anchor="middle" x="0" y="433" transform="translate(89.66,0)" style="font-family: 'Open Sans', verdana, arial, sans-serif; font-size: 12px; fill: rgb(42, 63, 95); fill-opacity: 1; white-space: pre;"><tspan class="line" dy="0em" x="0" y="433">Jun 4</tspan><tspan class="line" dy="1.3em" x="0" y="433">2021</tspan></text></g><g class="xtick"><text text-anchor="middle" x="0" y="433" transform="translate(193.67000000000002,0)" style="font-family: 'Open Sans', verdana, arial, sans-serif; font-size: 12px; fill: rgb(42, 63, 95); fill-opacity: 1; white-space: pre;">Jun 6</text></g><g class="xtick"><text text-anchor="middle" x="0" y="433" transform="translate(297.69,0)" style="font-family: 'Open Sans', verdana, arial, sans-serif; font-size: 12px; fill: rgb(42, 63, 95); fill-opacity: 1; white-space: pre;">Jun 8</text></g><g class="xtick"><text text-anchor="middle" x="0" y="433" transform="translate(401.7,0)" style="font-family: 'Open Sans', verdana, arial, sans-serif; font-size: 12px; fill: rgb(42, 63, 95); fill-opacity: 1; white-space: pre;">Jun 10</text></g><g class="xtick"><text text-anchor="middle" x="0" y="433" transform="translate(505.71,0)" style="font-family: 'Open Sans', verdana, arial, sans-serif; font-size: 12px; fill: rgb(42, 63, 95); fill-opacity: 1; white-space: pre;">Jun 12</text></g><g class="xtick"><text text-anchor="middle" x="0" y="433" transform="translate(609.73,0)" style="font-family: 'Open Sans', verdana, arial, sans-serif; font-size: 12px; fill: rgb(42, 63, 95); fill-opacity: 1; white-space: pre;">Jun 14</text></g></g><g class="yaxislayer-above"><g class="ytick"><text text-anchor="end" x="79" y="4.199999999999999" transform="translate(0,367.23)" style="font-family: 'Open Sans', verdana, arial, sans-serif; font-size: 12px; fill: rgb(42, 63, 95); fill-opacity: 1; white-space: pre;">0.8</text></g><g class="ytick"><text text-anchor="end" x="79" y="4.199999999999999" transform="translate(0,308.43)" style="font-family: 'Open Sans', verdana, arial, sans-serif; font-size: 12px; fill: rgb(42, 63, 95); fill-opacity: 1; white-space: pre;">0.82</text></g><g class="ytick"><text text-anchor="end" x="79" y="4.199999999999999" transform="translate(0,249.63)" style="font-family: 'Open Sans', verdana, arial, sans-serif; font-size: 12px; fill: rgb(42, 63, 95); fill-opacity: 1; white-space: pre;">0.84</text></g><g class="ytick"><text text-anchor="end" x="79" y="4.199999999999999" transform="translate(0,190.82999999999998)" style="font-family: 'Open Sans', verdana, arial, sans-serif; font-size: 12px; fill: rgb(42, 63, 95); fill-opacity: 1; white-space: pre;">0.86</text></g><g class="ytick"><text text-anchor="end" x="79" y="4.199999999999999" transform="translate(0,132.03)" style="font-family: 'Open Sans', verdana, arial, sans-serif; font-size: 12px; fill: rgb(42, 63, 95); fill-opacity: 1; white-space: pre;">0.88</text></g></g><g class="overaxes-above"/></g></g><g class="polarlayer"/><g class="ternarylayer"/><g class="geolayer"/><g class="funnelarealayer"/><g class="pielayer"/><g class="treemaplayer"/><g class="sunburstlayer"/><g class="glimages"/><defs id="topdefs-24ba29"><g class="clips"/><clipPath id="legend24ba29"><rect width="60" height="45" x="0" y="0"/></clipPath></defs><g class="layer-above"><g class="imagelayer"/><g class="shapelayer"/></g><g class="infolayer"><g class="legend" pointer-events="all" transform="translate(627.74,100)"><rect class="bg" shape-rendering="crispEdges" width="60" height="45" x="0" y="0" style="stroke: rgb(68, 68, 68); stroke-opacity: 1; fill: rgb(255, 255, 255); fill-opacity: 1; stroke-width: 0px;"/><g class="scrollbox" transform="" clip-path="url('#legend24ba29')"><text class="legendtitletext" text-anchor="start" x="2" y="15.600000000000001" style="font-family: 'Open Sans', verdana, arial, sans-serif; font-size: 12px; fill: rgb(42, 63, 95); fill-opacity: 1; white-space: pre;">All</text><g class="groups" transform=""><g class="traces" transform="translate(0,30.1)" style="opacity: 1;"><text class="legendtext" text-anchor="start" x="40" y="4.680000000000001" style="font-family: 'Open Sans', verdana, arial, sans-serif; font-size: 12px; fill: rgb(42, 63, 95); fill-opacity: 1; white-space: pre;">All</text><g class="layers" style="opacity: 1;"><g class="legendfill"/><g class="legendlines"><path class="js-line" d="M5,0h30" style="fill: none; stroke: rgb(99, 110, 250); stroke-opacity: 1; stroke-width: 2px;"/></g><g class="legendsymbols"><g class="legendpoints"/></g></g><rect class="legendtoggle" x="0" y="-9.5" width="54.890625" height="19" style="fill: rgb(0, 0, 0); fill-opacity: 0;"/></g></g></g><rect class="scrollbar" rx="20" ry="3" width="0" height="0" x="0" y="0" style="fill: rgb(128, 139, 164); fill-opacity: 1;"/></g><g class="g-gtitle"><text class="gtitle" x="35" y="50" text-anchor="start" dy="0em" style="font-family: 'Open Sans', verdana, arial, sans-serif; font-size: 17px; fill: rgb(42, 63, 95); opacity: 1; font-weight: normal; white-space: pre;">Singapore Vaccination Centers</text></g><g class="g-xtitle"><text class="xtitle" x="348.5" y="476.409375" text-anchor="middle" style="font-family: 'Open Sans', verdana, arial, sans-serif; font-size: 14px; fill: rgb(42, 63, 95); opacity: 1; font-weight: normal; white-space: pre;">Time</text></g><g class="g-ytitle"><text class="ytitle" transform="rotate(-90,27.481250000000003,260)" x="27.481250000000003" y="260" text-anchor="middle" style="font-family: 'Open Sans', verdana, arial, sans-serif; font-size: 14px; fill: rgb(42, 63, 95); opacity: 1; font-weight: normal; white-space: pre;">Filled/%</text></g></g></svg>