<svg class="main-svg" xmlns="http://www.w3.org/2000/svg" xmlns:xlink="http://www.w3.org/1999/xlink" width="700" height="500" style="" viewBox="0 0 700 500"><rect x="0" y="0" width="700" height="500" style="fill: rgb(255, 255, 255); fill-opacity: 1;"/><defs id="defs-cf53b2"><g class="clips"><clipPath id="clipcf53b2xyplot" class="plotclip"><rect width="537" height="320"/></clipPath><clipPath class="axesclip" id="clipcf53b2x"><rect x="80" y="0" width="537" height="500"/></clipPath><clipPath class="axesclip" id="clipcf53b2y"><rect x="0" y="100" width="700" height="320"/></clipPath><clipPath class="axesclip" id="clipcf53b2xy"><rect x="80" y="100" width="537" height="320"/></clipPath></g><g class="gradients"/></defs><g class="bglayer"><rect class="bg" x="80" y="100" width="537" height="320" style="fill: rgb(229, 236, 246); fill-opacity: 1; stroke-width: 0;"/></g><g class="layer-below"><g class="imagelayer"/><g class="shapelayer"/></g><g class="cartesianlayer"><g class="subplot xy"><g class="layer-subplot"><g class="shapelayer"/><g class="imagelayer"/></g><g class="gridlayer"><g class="x"><path class="xgrid crisp" transform="translate(82.73,0)" d="M0,100v320" style="stroke: rgb(255, 255, 255); stroke-opacity: 1; stroke-width: 1px;"/><path class="xgrid crisp" transform="translate(187.95,0)" d="M0,100v320" style="stroke: rgb(255, 255, 255); stroke-opacity: 1; stroke-width: 1px;"/><path class="xgrid crisp" transform="translate(293.18,0)" d="M0,100v320" style="stroke: rgb(255, 255, 255); stroke-opacity: 1; stroke-width: 1px;"/><path class="xgrid crisp" transform="translate(398.4,0)" d="M0,100v320" style="stroke: rgb(255, 255, 255); stroke-opacity: 1; stroke-width: 1px;"/><path class="xgrid crisp" transform="translate(503.62,0)" d="M0,100v320" style="stroke: rgb(255, 255, 255); stroke-opacity: 1; stroke-width: 1px;"/><path class="xgrid crisp" transform="translate(608.85,0)" d="M0,100v320" style="stroke: rgb(255, 255, 255); stroke-opacity: 1; stroke-width: 1px;"/></g><g class="y"><path class="ygrid crisp" transform="translate(0,392.55)" d="M80,0h537" style="stroke: rgb(255, 255, 255); stroke-opacity: 1; stroke-width: 1px;"/><path class="ygrid crisp" transform="translate(0,349.77)" d="M80,0h537" style="stroke: rgb(255, 255, 255); stroke-opacity: 1; stroke-width: 1px;"/><path class="ygrid crisp" transform="translate(0,306.99)" d="M80,0h537" style="stroke: rgb(255, 255, 255); stroke-opacity: 1; stroke-width: 1px;"/><path class="ygrid crisp" transform="translate(0,264.21000000000004)" d="M80,0h537" style="stroke: rgb(255, 255, 255); stroke-opacity: 1; stroke-width: 1px;"/><path class="ygrid crisp" transform="translate(0,221.43)" d="M80,0h537" style="stroke: rgb(255, 255, 255); stroke-opacity: 1; stroke-width: 1px;"/><path class="ygrid crisp" transform="translate(0,178.65)" d="M80,0h537" style="stroke: rgb(255, 255, 255); stroke-opacity: 1; stroke-width: 1px;"/><path class="ygrid crisp" transform="translate(0,135.87)" d="M80,0h537" style="stroke: rgb(255, 255, 255); stroke-opacity: 1; stroke-width: 1px;"/></g></g><g class="zerolinelayer"/><path class="xlines-below"/><path class="ylines-below"/><g class="overlines-below"/><g class="xaxislayer-below"/><g class="yaxislayer-below"/><g class="overaxes-below"/><g class="plot" transform="translate(80,100)" clip-path="url('#clipcf53b2xyplot')"><g class="scatterlayer mlayer"><g class="trace scatter tracefe1550" style="stroke-miterlimit: 2; opacity: 1;"><g class="fills"/><g class="errorbars"/><g class="lines"><path class="js-line" d="M0,304L2.11,302.59L2.84,249.74L3.57,251.04L4.3,249.35L7.22,248.71L7.95,248.32L9.41,249.1L10.15,248.19L11.61,248.58L12.34,248.19L13.8,247.93L14.53,247.67L15.99,247.41L16.72,247.16L22.57,246.77L23.3,246.51L27.68,246.12L28.41,245.73L29.88,245.86L30.61,245.22L32.06,245.09L32.79,244.44L34.26,244.57L34.99,243.66L36.45,244.57L37.18,243.02L39.37,242.11L40.1,242.63L40.83,242.24L41.56,243.15L43.03,240.17L43.75,240.69L44.49,240.69L45.22,239.78L48.14,237.84L48.87,236.94L50.33,238.23L51.06,237.07L51.79,235L52.52,235.51L53.25,236.55L53.98,235L55.45,232.67L56.18,232.28L57.64,230.6L58.37,231.12L59.83,229.95L60.56,230.21L61.29,231.76L62.02,229.56L64.22,230.6L64.95,230.21L67.14,226.07L67.87,226.85L69.33,225.68L70.06,227.36L70.79,227.11L71.52,225.55L74.45,221.16L75.18,218.44L75.91,219.09L76.64,217.66L77.37,216.63L78.1,217.4L79.56,217.66L80.29,218.7L83.22,216.5L83.95,216.37L85.41,215.72L86.14,214.69L86.87,214.3L87.6,214.82L89.06,215.98L89.79,214.43L91.98,213.39L92.72,212.88L94.18,212.23L94.91,211.45L97.1,212.23L97.83,211.84L99.29,211.58L100.02,211.84L101.48,210.42L102.22,208.87L103.68,207.7L104.41,206.93L105.87,207.96L106.6,207.44L107.33,207.96L108.06,142.27L110.25,140.18L110.99,140.44L112.45,139.92L113.18,139.01L114.64,139.14L115.37,139.14L118.29,138.48L119.02,138.35L121.21,137.83L121.94,137.96L128.52,137.96L129.25,138.09L134.36,137.83L135.1,137.18L137.29,137.18L138.02,136.14L140.94,136.27L141.67,135.74L143.13,135.88L143.86,135.22L145.33,134.57L146.05,135.22L148.98,132.22L149.71,133.27L151.9,131.57L152.63,132.22L155.55,128.44L156.28,130.14L159.21,127.14L159.94,128.05L161.4,126.48L162.13,127.66L162.86,128.7L163.59,127.79L164.32,128.83L165.05,128.31L165.78,127.4L166.51,128.44L167.24,127.79L167.97,128.18L170.17,128.83L170.9,128.44L173.83,124.79L174.56,124.92L176.02,125.96L176.76,124.01L179.68,123.09L180.41,121.4L183.33,121.92L184.06,120.61L184.79,118.4L185.53,119.96L186.26,119.96L186.99,118.79L187.72,119.7L188.45,119.18L189.91,117.35L190.64,117.48L192.83,114.35L193.56,114.48L195.03,112.14L195.76,112.92L197.22,110.83L197.95,111.35L200.14,110.7L200.87,108.09L201.6,107.96L202.33,106.92L203.06,105.48L203.79,105.74L204.52,106L205.25,107.18L205.99,107.83L206.72,107.18L207.45,109.13L208.18,108.35L208.91,108.22L209.64,106.66L210.37,106.27L211.1,106.79L212.56,107.05L213.29,61.25L214.75,59.41L215.48,59.15L217.68,57.57L218.41,57.17L219.87,57.04L220.6,56.78L223.52,55.46L224.25,54.54L225.72,54.28L226.45,54.81L229.37,53.75L230.1,53.62L231.56,53.62L232.29,53.75L243.98,51.78L244.71,52.18L246.9,51.12L247.63,51.25L248.37,51.52L249.09,50.73L253.48,50.07L254.94,49.54L255.67,48.23L257.13,47.83L258.59,47.44L259.32,45.73L260.05,46.91L260.79,45.73L262.25,45.73L262.98,45.07L263.71,44.94L264.44,43.76L266.63,43.49L267.36,41.91L268.82,40.2L269.55,39.42L270.26,38.1L270.99,38.76L273.18,37.71L273.91,36L276.84,35.34L277.56,33.36L278.3,32.71L279.03,33.23L280.49,32.44L281.22,32.05L281.95,31.92L282.68,30.86L284.14,30.86L284.87,31.39L286.33,32.97L287.07,31.13L288.53,32.31L289.27,30.34L290.72,30.47L291.45,30.86L293.64,29.02L294.38,29.42L295.83,27.71L296.57,26.66L297.3,24.16L298.03,24.68L298.76,23.24L299.49,24.68L300.95,22.84L301.68,22.58L302.41,21.26L303.14,21.66L304.61,21.79L305.33,20.74L306.06,21.26L306.8,19.68L308.26,19.55L308.99,18.5L311.91,18.89L312.64,17.97L314.11,17.84L314.84,17.97L316.3,16L317.02,16.66L317.76,16.39L318.49,171.81L322.14,171.4L322.88,172.08L325.07,170.99L325.8,170.99L327.26,169.76L327.99,169.76L329.45,168.94L330.18,169.08L342.6,168.39L343.33,167.98L352.83,165.8L353.56,165.12L357.21,164.02L357.95,162.66L360.89,162.38L361.62,163.61L363.09,161.7L363.82,161.57L364.55,160.88L365.28,158.43L366.01,156.51L366.74,156.79L367.47,156.1L368.2,154.33L368.93,154.88L369.66,154.19L371.12,154.33L371.86,153.37L373.31,152.69L374.05,153.65L376.24,150.92L376.97,151.87L379.16,149.14L379.89,149.14L380.62,148.32L381.35,149.41L382.82,150.37L383.55,149.41L384.28,149.55L385.01,148.73L387.93,145.18L388.66,144.5L390.85,143.54L391.59,145.04L395.97,141.9L396.7,143.68L398.16,121.97L398.89,121.56L400.35,120.88L401.09,116.1L401.81,116.24L402.54,112.28L403.28,112.55L404.01,109.96L404.74,106.95L405.47,107.91L407.66,101.22L408.39,98.08L409.85,97.53L410.58,95.35L411.31,94.8L412.05,92.07L413.51,89.34L414.24,89.34L416.43,85.65L417.16,84.7L418.62,82.78L419.35,80.19L423.01,75L423.74,88.44L427.39,84.03L428.12,84.45L428.85,84.31L429.58,85.14L431.05,84.72L431.78,85.41L433.24,84.59L433.96,84.45L435.43,84.03L436.16,84.03L437.62,84.17L438.35,83.62L443.47,84.03L444.2,83.62L448.58,83.21L449.31,83.48L452.23,83.48L452.96,83.35L454.43,83.35L455.16,83.35L457.35,83.35L458.08,83.9L461.73,79.9L462.46,80.18L464.66,78.8L465.38,78.94L466.12,78.53L466.85,76.87L468.31,77.15L469.04,75.63L472.69,72.47L473.42,72.88L475.61,69.44L476.35,69.02L478.54,66.41L479.27,66.41L480.73,63.79L481.46,63.79L482.92,61.86L483.65,59.66L485.85,54.29L486.58,54.43L488.04,53.6L488.77,51.4L491.69,49.47L492.42,47.82L496.81,46.85L497.54,45.75L498.27,46.16L499,45.48L499.73,45.89L505.58,41.21L509.23,38.59L509.96,39.28L512.88,35.97L513.62,35.84L514.35,34.46L515.08,35.01L516.54,33.91L517.27,34.18L518,35.28L518.73,34.32L521.65,32.94L522.39,33.91L525.31,33.22L526.04,32.12L528.23,29.78L528.96,81.26L530.42,81.68L531.15,80.56L531.88,79.86L532.61,80.42L534.8,80.42L535.54,81.4L537,81.26" style="vector-effect: non-scaling-stroke; fill: none; stroke: rgb(99, 110, 250); stroke-opacity: 1; stroke-width: 2px; opacity: 1;"/></g><g class="points"/><g class="text"/></g></g></g><g class="overplot"/><path class="xlines-above crisp" d="M0,0" style="fill: none;"/><path class="ylines-above crisp" d="M0,0" style="fill: none;"/><g class="overlines-above"/><g class="xaxislayer-above"><g class="xtick"><text text-anchor="middle" x="0" y="433" transform="translate(82.73,0)" style="font-family: 'Open Sans', verdana, arial, sans-serif; font-size: 12px; fill: rgb(42, 63, 95); fill-opacity: 1; white-space: pre;"><tspan class="line" dy="0em" x="0" y="433">Aug 3</tspan><tspan class="line" dy="1.3em" x="0" y="433">2021</tspan></text></g><g class="xtick"><text text-anchor="middle" x="0" y="433" transform="translate(187.95,0)" style="font-family: 'Open Sans', verdana, arial, sans-serif; font-size: 12px; fill: rgb(42, 63, 95); fill-opacity: 1; white-space: pre;">Aug 4</text></g><g class="xtick"><text text-anchor="middle" x="0" y="433" transform="translate(293.18,0)" style="font-family: 'Open Sans', verdana, arial, sans-serif; font-size: 12px; fill: rgb(42, 63, 95); fill-opacity: 1; white-space: pre;">Aug 5</text></g><g class="xtick"><text text-anchor="middle" x="0" y="433" transform="translate(398.4,0)" style="font-family: 'Open Sans', verdana, arial, sans-serif; font-size: 12px; fill: rgb(42, 63, 95); fill-opacity: 1; white-space: pre;">Aug 6</text></g><g class="xtick"><text text-anchor="middle" x="0" y="433" transform="translate(503.62,0)" style="font-family: 'Open Sans', verdana, arial, sans-serif; font-size: 12px; fill: rgb(42, 63, 95); fill-opacity: 1; white-space: pre;">Aug 7</text></g><g class="xtick"><text text-anchor="middle" x="0" y="433" transform="translate(608.85,0)" style="font-family: 'Open Sans', verdana, arial, sans-serif; font-size: 12px; fill: rgb(42, 63, 95); fill-opacity: 1; white-space: pre;">Aug 8</text></g></g><g class="yaxislayer-above"><g class="ytick"><text text-anchor="end" x="79" y="4.199999999999999" transform="translate(0,392.55)" style="font-family: 'Open Sans', verdana, arial, sans-serif; font-size: 12px; fill: rgb(42, 63, 95); fill-opacity: 1; white-space: pre;">0.864</text></g><g class="ytick"><text text-anchor="end" x="79" y="4.199999999999999" transform="translate(0,349.77)" style="font-family: 'Open Sans', verdana, arial, sans-serif; font-size: 12px; fill: rgb(42, 63, 95); fill-opacity: 1; white-space: pre;">0.865</text></g><g class="ytick"><text text-anchor="end" x="79" y="4.199999999999999" transform="translate(0,306.99)" style="font-family: 'Open Sans', verdana, arial, sans-serif; font-size: 12px; fill: rgb(42, 63, 95); fill-opacity: 1; white-space: pre;">0.866</text></g><g class="ytick"><text text-anchor="end" x="79" y="4.199999999999999" transform="translate(0,264.21000000000004)" style="font-family: 'Open Sans', verdana, arial, sans-serif; font-size: 12px; fill: rgb(42, 63, 95); fill-opacity: 1; white-space: pre;">0.867</text></g><g class="ytick"><text text-anchor="end" x="79" y="4.199999999999999" transform="translate(0,221.43)" style="font-family: 'Open Sans', verdana, arial, sans-serif; font-size: 12px; fill: rgb(42, 63, 95); fill-opacity: 1; white-space: pre;">0.868</text></g><g class="ytick"><text text-anchor="end" x="79" y="4.199999999999999" transform="translate(0,178.65)" style="font-family: 'Open Sans', verdana, arial, sans-serif; font-size: 12px; fill: rgb(42, 63, 95); fill-opacity: 1; white-space: pre;">0.869</text></g><g class="ytick"><text text-anchor="end" x="79" y="4.199999999999999" transform="translate(0,135.87)" style="font-family: 'Open Sans', verdana, arial, sans-serif; font-size: 12px; fill: rgb(42, 63, 95); fill-opacity: 1; white-space: pre;">0.87</text></g></g><g class="overaxes-above"/></g></g><g class="polarlayer"/><g class="ternarylayer"/><g class="geolayer"/><g class="funnelarealayer"/><g class="pielayer"/><g class="treemaplayer"/><g class="sunburstlayer"/><g class="glimages"/><defs id="topdefs-cf53b2"><g class="clips"/><clipPath id="legendcf53b2"><rect width="60" height="45" x="0" y="0"/></clipPath></defs><g class="layer-above"><g class="imagelayer"/><g class="shapelayer"/></g><g class="infolayer"><g class="legend" pointer-events="all" transform="translate(627.74,100)"><rect class="bg" shape-rendering="crispEdges" width="60" height="45" x="0" y="0" style="stroke: rgb(68, 68, 68); stroke-opacity: 1; fill: rgb(255, 255, 255); fill-opacity: 1; stroke-width: 0px;"/><g class="scrollbox" transform="" clip-path="url('#legendcf53b2')"><text class="legendtitletext" text-anchor="start" x="2" y="15.600000000000001" style="font-family: 'Open Sans', verdana, arial, sans-serif; font-size: 12px; fill: rgb(42, 63, 95); fill-opacity: 1; white-space: pre;">All</text><g class="groups" transform=""><g class="traces" transform="translate(0,30.1)" style="opacity: 1;"><text class="legendtext" text-anchor="start" x="40" y="4.680000000000001" style="font-family: 'Open Sans', verdana, arial, sans-serif; font-size: 12px; fill: rgb(42, 63, 95); fill-opacity: 1; white-space: pre;">All</text><g class="layers" style="opacity: 1;"><g class="legendfill"/><g class="legendlines"><path class="js-line" d="M5,0h30" style="fill: none; stroke: rgb(99, 110, 250); stroke-opacity: 1; stroke-width: 2px;"/></g><g class="legendsymbols"><g class="legendpoints"/></g></g><rect class="legendtoggle" x="0" y="-9.5" width="54.890625" height="19" style="fill: rgb(0, 0, 0); fill-opacity: 0;"/></g></g></g><rect class="scrollbar" rx="20" ry="3" width="0" height="0" x="0" y="0" style="fill: rgb(128, 139, 164); fill-opacity: 1;"/></g><g class="g-gtitle"><text class="gtitle" x="35" y="50" text-anchor="start" dy="0em" style="font-family: 'Open Sans', verdana, arial, sans-serif; font-size: 17px; fill: rgb(42, 63, 95); opacity: 1; font-weight: normal; white-space: pre;">Singapore Vaccination Centers</text></g><g class="g-xtitle"><text class="xtitle" x="348.5" y="476.409375" text-anchor="middle" style="font-family: 'Open Sans', verdana, arial, sans-serif; font-size: 14px; fill: rgb(42, 63, 95); opacity: 1; font-weight: normal; white-space: pre;">Time</text></g><g class="g-ytitle"><text class="ytitle" transform="rotate(-90,19.840625000000003,260)" x="19.840625000000003" y="260" text-anchor="middle" style="font-family: 'Open Sans', verdana, arial, sans-serif; font-size: 14px; fill: rgb(42, 63, 95); opacity: 1; font-weight: normal; white-space: pre;">Filled/%</text></g></g></svg>