<svg class="main-svg" xmlns="http://www.w3.org/2000/svg" xmlns:xlink="http://www.w3.org/1999/xlink" width="700" height="500" style="" viewBox="0 0 700 500"><rect x="0" y="0" width="700" height="500" style="fill: rgb(255, 255, 255); fill-opacity: 1;"/><defs id="defs-86a749"><g class="clips"><clipPath id="clip86a749xyplot" class="plotclip"><rect width="537" height="320"/></clipPath><clipPath class="axesclip" id="clip86a749x"><rect x="80" y="0" width="537" height="500"/></clipPath><clipPath class="axesclip" id="clip86a749y"><rect x="0" y="100" width="700" height="320"/></clipPath><clipPath class="axesclip" id="clip86a749xy"><rect x="80" y="100" width="537" height="320"/></clipPath></g><g class="gradients"/></defs><g class="bglayer"><rect class="bg" x="80" y="100" width="537" height="320" style="fill: rgb(229, 236, 246); fill-opacity: 1; stroke-width: 0;"/></g><g class="layer-below"><g class="imagelayer"/><g class="shapelayer"/></g><g class="cartesianlayer"><g class="subplot xy"><g class="layer-subplot"><g class="shapelayer"/><g class="imagelayer"/></g><g class="gridlayer"><g class="x"><path class="xgrid crisp" transform="translate(82.31,0)" d="M0,100v320" style="stroke: rgb(255, 255, 255); stroke-opacity: 1; stroke-width: 1px;"/><path class="xgrid crisp" transform="translate(171.31,0)" d="M0,100v320" style="stroke: rgb(255, 255, 255); stroke-opacity: 1; stroke-width: 1px;"/><path class="xgrid crisp" transform="translate(260.3,0)" d="M0,100v320" style="stroke: rgb(255, 255, 255); stroke-opacity: 1; stroke-width: 1px;"/><path class="xgrid crisp" transform="translate(349.3,0)" d="M0,100v320" style="stroke: rgb(255, 255, 255); stroke-opacity: 1; stroke-width: 1px;"/><path class="xgrid crisp" transform="translate(438.29,0)" d="M0,100v320" style="stroke: rgb(255, 255, 255); stroke-opacity: 1; stroke-width: 1px;"/><path class="xgrid crisp" transform="translate(527.29,0)" d="M0,100v320" style="stroke: rgb(255, 255, 255); stroke-opacity: 1; stroke-width: 1px;"/></g><g class="y"><path class="ygrid crisp" transform="translate(0,392.95)" d="M80,0h537" style="stroke: rgb(255, 255, 255); stroke-opacity: 1; stroke-width: 1px;"/><path class="ygrid crisp" transform="translate(0,351.65)" d="M80,0h537" style="stroke: rgb(255, 255, 255); stroke-opacity: 1; stroke-width: 1px;"/><path class="ygrid crisp" transform="translate(0,310.36)" d="M80,0h537" style="stroke: rgb(255, 255, 255); stroke-opacity: 1; stroke-width: 1px;"/><path class="ygrid crisp" transform="translate(0,269.06)" d="M80,0h537" style="stroke: rgb(255, 255, 255); stroke-opacity: 1; stroke-width: 1px;"/><path class="ygrid crisp" transform="translate(0,227.76999999999998)" d="M80,0h537" style="stroke: rgb(255, 255, 255); stroke-opacity: 1; stroke-width: 1px;"/><path class="ygrid crisp" transform="translate(0,186.47)" d="M80,0h537" style="stroke: rgb(255, 255, 255); stroke-opacity: 1; stroke-width: 1px;"/><path class="ygrid crisp" transform="translate(0,145.18)" d="M80,0h537" style="stroke: rgb(255, 255, 255); stroke-opacity: 1; stroke-width: 1px;"/><path class="ygrid crisp" transform="translate(0,103.89)" d="M80,0h537" style="stroke: rgb(255, 255, 255); stroke-opacity: 1; stroke-width: 1px;"/></g></g><g class="zerolinelayer"/><path class="xlines-below"/><path class="ylines-below"/><g class="overlines-below"/><g class="xaxislayer-below"/><g class="yaxislayer-below"/><g class="overaxes-below"/><g class="plot" transform="translate(80,100)" clip-path="url('#clip86a749xyplot')"><g class="scatterlayer mlayer"><g class="trace scatter tracef4644a" style="stroke-miterlimit: 2; opacity: 1;"><g class="fills"/><g class="errorbars"/><g class="lines"><path class="js-line" d="M0,304L1.78,302.64L2.4,251.63L3.02,252.88L3.64,251.25L6.11,250.63L6.73,250.25L7.96,251L8.58,250.13L9.82,250.5L10.43,250.13L11.67,249.88L12.29,249.63L13.52,249.38L14.14,249.13L22.17,248.76L22.79,248.26L27.12,247.13L27.74,246.51L28.97,246.63L29.59,245.76L30.83,246.63L31.45,245.13L33.3,244.26L33.92,244.76L34.54,244.39L35.15,245.26L36.39,242.39L37.01,242.89L37.62,242.89L38.24,242.01L41.33,239.27L41.95,240.26L42.57,240.51L43.19,239.39L43.8,237.39L44.42,237.89L45.04,238.89L46.9,235.15L47.51,234.77L48.75,233.15L49.37,233.65L50.6,232.52L51.22,232.77L51.84,234.27L52.46,232.15L54.93,232.77L55.55,230.78L56.79,228.78L57.4,229.53L58.64,228.4L59.26,230.03L59.88,229.78L60.49,228.28L62.97,224.03L63.58,221.41L64.2,222.03L64.82,220.66L65.44,219.66L66.06,220.41L67.29,220.66L67.91,221.66L71,219.41L71.62,219.16L74.09,217.91L74.71,219.04L75.32,219.04L75.94,217.54L78.42,216.04L79.03,215.92L80.89,215.04L81.5,214.92L82.74,215.04L83.36,214.67L85.21,214.54L85.83,213.67L87.69,211.05L88.31,210.3L89.54,211.3L90.16,210.8L90.78,211.3L91.4,147.88L93.87,146.12L94.48,146L96.34,144.48L96.96,144.86L100.66,144.11L101.28,143.73L106.23,143.1L106.85,143.48L111.79,143.73L112.41,143.6L115.5,142.97L116.11,142.97L117.35,142.09L117.97,142.47L119.2,142.09L119.82,141.59L121.06,141.71L121.67,141.08L123.53,141.08L124.15,140.08L126,138.19L126.62,139.2L128.48,137.56L129.09,138.19L131.56,134.54L132.18,136.17L134.65,133.28L135.28,134.16L136.51,132.65L137.13,133.78L137.75,134.79L138.36,133.91L138.98,134.91L139.6,134.41L140.22,133.53L140.83,134.54L142.07,134.29L142.69,134.66L143.92,134.91L144.54,134.54L147.02,131.01L147.64,131.14L148.88,132.14L149.5,130.26L151.97,129.37L152.59,127.74L155.06,128.24L155.68,126.98L156.3,124.84L156.91,126.35L157.54,126.35L158.15,125.22L158.77,126.1L159.38,125.6L160.62,123.83L161.24,123.96L163.1,120.94L163.71,121.06L164.95,118.8L165.57,119.55L166.8,117.54L167.42,118.04L169.27,117.41L169.89,114.9L170.51,114.77L171.13,113.76L172.36,112.63L172.98,112.88L174.22,114.64L174.84,114.01L175.46,115.9L176.07,115.15L176.69,115.02L177.31,113.51L177.93,113.13L178.55,113.64L179.78,113.89L180.4,69.68L182.25,67.65L182.87,67.4L186.58,65.37L187.2,65.11L190.29,62.95L190.91,62.95L192.14,63.08L192.76,62.44L201.41,61.17L202.03,61.43L205.74,60.29L206.35,60.54L206.97,60.92L207.59,60.41L208.21,60.54L208.83,59.9L210.06,60.29L210.68,59.52L214.39,58.89L215.62,58.38L216.24,57.11L217.48,56.73L218.71,56.35L219.33,54.7L219.95,55.84L220.57,54.7L221.8,54.7L222.42,54.06L223.04,53.94L223.66,52.79L225.51,52.54L226.13,51.02L228.58,47.33L229.2,47.97L231.05,46.95L231.67,45.3L234.14,44.67L234.76,42.76L235.38,42.13L236,42.64L238.47,41.37L239.09,40.35L240.32,40.35L240.94,40.86L242.18,42.38L242.8,40.6L244.03,41.75L244.66,39.84L245.89,39.97L246.51,40.35L248.36,38.57L248.98,38.95L250.21,37.3L250.83,36.29L251.45,33.87L252.07,34.38L252.68,32.99L253.3,34.38L253.92,32.86L255.16,32.35L255.78,31.08L257.63,31.59L258.24,30.57L258.86,31.08L259.48,29.56L260.72,29.43L261.34,28.41L263.81,28.8L264.43,27.91L265.66,27.78L266.28,27.91L267.52,26L268.13,26.64L268.76,26.38L269.37,176.4L272.46,176L273.08,176.66L274.94,175.61L275.55,175.61L276.79,174.42L277.41,174.42L279.26,173.76L279.88,173.76L284.21,173.37L284.83,173.37L289.15,173.1L289.77,173.1L292.24,172.18L292.86,172.44L296.56,171.65L297.18,171.52L299.65,169.81L300.27,169.28L302.13,168.88L302.75,167.57L305.24,167.3L305.85,168.49L307.09,166.64L307.71,166.51L308.33,165.85L308.95,163.48L309.56,161.64L310.18,161.9L310.8,161.24L311.41,159.53L312.04,160.05L313.27,159.66L313.89,159.53L315.74,157.95L316.36,158.87L318.22,156.23L318.83,157.15L320.69,154.52L321.31,154.52L321.92,153.73L322.54,154.78L323.78,155.71L324.4,154.78L325.01,154.91L325.63,154.12L328.73,150.04L329.34,149.51L330.58,149.12L331.2,150.57L334.9,147.53L335.52,149.25L336.76,128.29L337.38,127.9L338.61,127.24L339.23,122.63L339.85,122.76L340.46,118.93L341.08,119.2L341.7,116.69L342.32,113.79L342.94,114.72L344.79,108.26L345.41,105.23L346.65,104.7L347.27,102.59L347.88,102.07L348.5,99.43L349.74,96.79L350.35,96.79L352.21,93.24L352.83,92.31L357.77,82.96L358.39,95.93L361.48,91.67L362.1,92.07L362.72,91.94L363.33,92.74L364.57,92.34L365.19,93L367.04,92.07L367.66,92.21L368.9,91.67L369.52,91.81L376.31,91.14L376.93,91.01L386.82,91.01L387.44,91.54L390.52,87.69L391.14,87.95L393,86.62L393.61,86.76L394.23,86.36L394.85,84.76L396.09,85.03L396.7,83.57L399.8,80.51L400.41,80.91L402.27,77.58L402.88,77.18L404.74,74.66L405.36,74.66L406.6,72.13L407.21,72.13L408.45,70.27L409.07,68.15L411.54,63.09L412.16,62.7L412.77,62.3L413.39,60.17L415.87,58.31L416.48,56.71L420.19,55.78L420.81,54.72L421.43,55.12L422.04,54.45L422.66,54.85L427.61,50.33L430.7,47.81L431.32,48.47L433.79,45.28L434.41,45.15L435.03,43.82L435.64,44.35L436.88,43.29L437.5,43.55L438.12,44.62L438.73,43.69L441.21,42.36L441.83,43.29L444.3,42.62L444.91,41.56L446.77,39.3L447.38,89L448.62,89.4L449.24,88.32L449.86,87.64L450.47,88.18L452.33,88.18L452.95,89.13L455.42,88.86L456.04,89L457.89,89.13L458.51,89.13L461.6,87.64L462.22,88.05L468.4,87.37L469.02,87.37L475.81,87.1L476.43,86.97L479.52,86.56L480.14,86.15L481.38,85.61L481.99,84.66L483.23,84.26L483.85,82.9L484.47,81.55L485.09,82.9L487.55,81.96L488.17,81.96L489.41,79.92L490.03,79.65L491.88,76.81L492.5,76.67L493.12,76.4L493.74,76.95L496.21,74.78L496.83,74.91L498.06,73.43L498.68,72.75L501.15,71.8L501.77,72.21L502.39,71.66L503.01,72.34L504.24,68.96L504.86,69.23L505.48,69.23L507.33,68.69L507.95,67.47L511.04,65.03L511.66,65.3L515.37,62.86L515.98,61.92L516.61,62.32L517.22,61.51L518.46,61.65L519.08,61.51L520.31,60.7L520.93,59.89L522.78,58.8L523.4,57.31L525.88,55.82L526.49,54.06L527.73,52.17L528.34,52.84L531.44,50.95L532.06,50.95L533.29,49.59L533.91,49.59L535.76,49.59L536.38,16.55L537,16" style="vector-effect: non-scaling-stroke; fill: none; stroke: rgb(99, 110, 250); stroke-opacity: 1; stroke-width: 2px; opacity: 1;"/></g><g class="points"/><g class="text"/></g></g></g><g class="overplot"/><path class="xlines-above crisp" d="M0,0" style="fill: none;"/><path class="ylines-above crisp" d="M0,0" style="fill: none;"/><g class="overlines-above"/><g class="xaxislayer-above"><g class="xtick"><text text-anchor="middle" x="0" y="433" transform="translate(82.31,0)" style="font-family: 'Open Sans', verdana, arial, sans-serif; font-size: 12px; fill: rgb(42, 63, 95); fill-opacity: 1; white-space: pre;"><tspan class="line" dy="0em" x="0" y="433">Aug 3</tspan><tspan class="line" dy="1.3em" x="0" y="433">2021</tspan></text></g><g class="xtick"><text text-anchor="middle" x="0" y="433" transform="translate(171.31,0)" style="font-family: 'Open Sans', verdana, arial, sans-serif; font-size: 12px; fill: rgb(42, 63, 95); fill-opacity: 1; white-space: pre;">Aug 4</text></g><g class="xtick"><text text-anchor="middle" x="0" y="433" transform="translate(260.3,0)" style="font-family: 'Open Sans', verdana, arial, sans-serif; font-size: 12px; fill: rgb(42, 63, 95); fill-opacity: 1; white-space: pre;">Aug 5</text></g><g class="xtick"><text text-anchor="middle" x="0" y="433" transform="translate(349.3,0)" style="font-family: 'Open Sans', verdana, arial, sans-serif; font-size: 12px; fill: rgb(42, 63, 95); fill-opacity: 1; white-space: pre;">Aug 6</text></g><g class="xtick"><text text-anchor="middle" x="0" y="433" transform="translate(438.29,0)" style="font-family: 'Open Sans', verdana, arial, sans-serif; font-size: 12px; fill: rgb(42, 63, 95); fill-opacity: 1; white-space: pre;">Aug 7</text></g><g class="xtick"><text text-anchor="middle" x="0" y="433" transform="translate(527.29,0)" style="font-family: 'Open Sans', verdana, arial, sans-serif; font-size: 12px; fill: rgb(42, 63, 95); fill-opacity: 1; white-space: pre;">Aug 8</text></g><g class="xtick"><text text-anchor="middle" x="0" y="433" transform="translate(616.29,0)" style="font-family: 'Open Sans', verdana, arial, sans-serif; font-size: 12px; fill: rgb(42, 63, 95); fill-opacity: 1; white-space: pre;">Aug 9</text></g></g><g class="yaxislayer-above"><g class="ytick"><text text-anchor="end" x="79" y="4.199999999999999" transform="translate(0,392.95)" style="font-family: 'Open Sans', verdana, arial, sans-serif; font-size: 12px; fill: rgb(42, 63, 95); fill-opacity: 1; white-space: pre;">0.864</text></g><g class="ytick"><text text-anchor="end" x="79" y="4.199999999999999" transform="translate(0,351.65)" style="font-family: 'Open Sans', verdana, arial, sans-serif; font-size: 12px; fill: rgb(42, 63, 95); fill-opacity: 1; white-space: pre;">0.865</text></g><g class="ytick"><text text-anchor="end" x="79" y="4.199999999999999" transform="translate(0,310.36)" style="font-family: 'Open Sans', verdana, arial, sans-serif; font-size: 12px; fill: rgb(42, 63, 95); fill-opacity: 1; white-space: pre;">0.866</text></g><g class="ytick"><text text-anchor="end" x="79" y="4.199999999999999" transform="translate(0,269.06)" style="font-family: 'Open Sans', verdana, arial, sans-serif; font-size: 12px; fill: rgb(42, 63, 95); fill-opacity: 1; white-space: pre;">0.867</text></g><g class="ytick"><text text-anchor="end" x="79" y="4.199999999999999" transform="translate(0,227.76999999999998)" style="font-family: 'Open Sans', verdana, arial, sans-serif; font-size: 12px; fill: rgb(42, 63, 95); fill-opacity: 1; white-space: pre;">0.868</text></g><g class="ytick"><text text-anchor="end" x="79" y="4.199999999999999" transform="translate(0,186.47)" style="font-family: 'Open Sans', verdana, arial, sans-serif; font-size: 12px; fill: rgb(42, 63, 95); fill-opacity: 1; white-space: pre;">0.869</text></g><g class="ytick"><text text-anchor="end" x="79" y="4.199999999999999" transform="translate(0,145.18)" style="font-family: 'Open Sans', verdana, arial, sans-serif; font-size: 12px; fill: rgb(42, 63, 95); fill-opacity: 1; white-space: pre;">0.87</text></g><g class="ytick"><text text-anchor="end" x="79" y="4.199999999999999" transform="translate(0,103.89)" style="font-family: 'Open Sans', verdana, arial, sans-serif; font-size: 12px; fill: rgb(42, 63, 95); fill-opacity: 1; white-space: pre;">0.871</text></g></g><g class="overaxes-above"/></g></g><g class="polarlayer"/><g class="ternarylayer"/><g class="geolayer"/><g class="funnelarealayer"/><g class="pielayer"/><g class="treemaplayer"/><g class="sunburstlayer"/><g class="glimages"/><defs id="topdefs-86a749"><g class="clips"/><clipPath id="legend86a749"><rect width="60" height="45" x="0" y="0"/></clipPath></defs><g class="layer-above"><g class="imagelayer"/><g class="shapelayer"/></g><g class="infolayer"><g class="legend" pointer-events="all" transform="translate(627.74,100)"><rect class="bg" shape-rendering="crispEdges" width="60" height="45" x="0" y="0" style="stroke: rgb(68, 68, 68); stroke-opacity: 1; fill: rgb(255, 255, 255); fill-opacity: 1; stroke-width: 0px;"/><g class="scrollbox" transform="" clip-path="url('#legend86a749')"><text class="legendtitletext" text-anchor="start" x="2" y="15.600000000000001" style="font-family: 'Open Sans', verdana, arial, sans-serif; font-size: 12px; fill: rgb(42, 63, 95); fill-opacity: 1; white-space: pre;">All</text><g class="groups" transform=""><g class="traces" transform="translate(0,30.1)" style="opacity: 1;"><text class="legendtext" text-anchor="start" x="40" y="4.680000000000001" style="font-family: 'Open Sans', verdana, arial, sans-serif; font-size: 12px; fill: rgb(42, 63, 95); fill-opacity: 1; white-space: pre;">All</text><g class="layers" style="opacity: 1;"><g class="legendfill"/><g class="legendlines"><path class="js-line" d="M5,0h30" style="fill: none; stroke: rgb(99, 110, 250); stroke-opacity: 1; stroke-width: 2px;"/></g><g class="legendsymbols"><g class="legendpoints"/></g></g><rect class="legendtoggle" x="0" y="-9.5" width="54.890625" height="19" style="fill: rgb(0, 0, 0); fill-opacity: 0;"/></g></g></g><rect class="scrollbar" rx="20" ry="3" width="0" height="0" x="0" y="0" style="fill: rgb(128, 139, 164); fill-opacity: 1;"/></g><g class="g-gtitle"><text class="gtitle" x="35" y="50" text-anchor="start" dy="0em" style="font-family: 'Open Sans', verdana, arial, sans-serif; font-size: 17px; fill: rgb(42, 63, 95); opacity: 1; font-weight: normal; white-space: pre;">Singapore Vaccination Centers</text></g><g class="g-xtitle"><text class="xtitle" x="348.5" y="476.409375" text-anchor="middle" style="font-family: 'Open Sans', verdana, arial, sans-serif; font-size: 14px; fill: rgb(42, 63, 95); opacity: 1; font-weight: normal; white-space: pre;">Time</text></g><g class="g-ytitle"><text class="ytitle" transform="rotate(-90,19.840625000000003,260)" x="19.840625000000003" y="260" text-anchor="middle" style="font-family: 'Open Sans', verdana, arial, sans-serif; font-size: 14px; fill: rgb(42, 63, 95); opacity: 1; font-weight: normal; white-space: pre;">Filled/%</text></g></g></svg>