<svg class="main-svg" xmlns="http://www.w3.org/2000/svg" xmlns:xlink="http://www.w3.org/1999/xlink" width="700" height="500" style="" viewBox="0 0 700 500"><rect x="0" y="0" width="700" height="500" style="fill: rgb(255, 255, 255); fill-opacity: 1;"/><defs id="defs-aa078a"><g class="clips"><clipPath id="clipaa078axyplot" class="plotclip"><rect width="537" height="320"/></clipPath><clipPath class="axesclip" id="clipaa078ax"><rect x="80" y="0" width="537" height="500"/></clipPath><clipPath class="axesclip" id="clipaa078ay"><rect x="0" y="100" width="700" height="320"/></clipPath><clipPath class="axesclip" id="clipaa078axy"><rect x="80" y="100" width="537" height="320"/></clipPath></g><g class="gradients"/></defs><g class="bglayer"><rect class="bg" x="80" y="100" width="537" height="320" style="fill: rgb(229, 236, 246); fill-opacity: 1; stroke-width: 0;"/></g><g class="layer-below"><g class="imagelayer"/><g class="shapelayer"/></g><g class="cartesianlayer"><g class="subplot xy"><g class="layer-subplot"><g class="shapelayer"/><g class="imagelayer"/></g><g class="gridlayer"><g class="x"><path class="xgrid crisp" transform="translate(84.97,0)" d="M0,100v320" style="stroke: rgb(255, 255, 255); stroke-opacity: 1; stroke-width: 1px;"/><path class="xgrid crisp" transform="translate(180.70999999999998,0)" d="M0,100v320" style="stroke: rgb(255, 255, 255); stroke-opacity: 1; stroke-width: 1px;"/><path class="xgrid crisp" transform="translate(276.44,0)" d="M0,100v320" style="stroke: rgb(255, 255, 255); stroke-opacity: 1; stroke-width: 1px;"/><path class="xgrid crisp" transform="translate(372.18,0)" d="M0,100v320" style="stroke: rgb(255, 255, 255); stroke-opacity: 1; stroke-width: 1px;"/><path class="xgrid crisp" transform="translate(467.92,0)" d="M0,100v320" style="stroke: rgb(255, 255, 255); stroke-opacity: 1; stroke-width: 1px;"/><path class="xgrid crisp" transform="translate(563.6600000000001,0)" d="M0,100v320" style="stroke: rgb(255, 255, 255); stroke-opacity: 1; stroke-width: 1px;"/></g><g class="y"><path class="ygrid crisp" transform="translate(0,392.01)" d="M80,0h537" style="stroke: rgb(255, 255, 255); stroke-opacity: 1; stroke-width: 1px;"/><path class="ygrid crisp" transform="translate(0,347.23)" d="M80,0h537" style="stroke: rgb(255, 255, 255); stroke-opacity: 1; stroke-width: 1px;"/><path class="ygrid crisp" transform="translate(0,302.44)" d="M80,0h537" style="stroke: rgb(255, 255, 255); stroke-opacity: 1; stroke-width: 1px;"/><path class="ygrid crisp" transform="translate(0,257.65999999999997)" d="M80,0h537" style="stroke: rgb(255, 255, 255); stroke-opacity: 1; stroke-width: 1px;"/><path class="ygrid crisp" transform="translate(0,212.87)" d="M80,0h537" style="stroke: rgb(255, 255, 255); stroke-opacity: 1; stroke-width: 1px;"/><path class="ygrid crisp" transform="translate(0,168.09)" d="M80,0h537" style="stroke: rgb(255, 255, 255); stroke-opacity: 1; stroke-width: 1px;"/><path class="ygrid crisp" transform="translate(0,123.3)" d="M80,0h537" style="stroke: rgb(255, 255, 255); stroke-opacity: 1; stroke-width: 1px;"/></g></g><g class="zerolinelayer"/><path class="xlines-below"/><path class="ylines-below"/><g class="overlines-below"/><g class="xaxislayer-below"/><g class="yaxislayer-below"/><g class="overaxes-below"/><g class="plot" transform="translate(80,100)" clip-path="url('#clipaa078axyplot')"><g class="scatterlayer mlayer"><g class="trace scatter trace649a21" style="stroke-miterlimit: 2; opacity: 1;"><g class="fills"/><g class="errorbars"/><g class="lines"><path class="js-line" d="M0,304L3.83,302.52L5.16,247.2L6.49,248.55L7.83,246.79L13.14,246.12L14.47,245.71L17.13,246.52L18.46,245.58L19.83,246.25L21.12,245.98L26.44,245.03L27.77,245.3L30.43,244.49L31.76,244.49L34.41,244.49L35.74,244.49L39.74,244.22L41.07,244.09L45.05,243.95L46.38,244.09L50.38,243.41L51.7,243L54.36,243.14L55.69,242.46L58.35,242.33L59.67,241.65L61.01,242.19L62.34,241.78L63.66,240.84L65,241.11L66.33,241.78L67.66,240.16L71.64,239.21L72.97,239.75L74.3,239.35L75.64,240.29L76.96,239.35L78.3,237.18L80.95,237.72L82.28,236.77L87.6,234.74L88.93,233.79L91.58,235.15L92.92,233.93L94.25,231.76L95.58,232.3L96.91,233.39L98.23,231.76L100.9,229.33L102.23,228.92L104.89,227.16L106.22,227.7L108.87,226.48L110.21,226.75L111.53,228.38L112.86,226.08L116.86,227.16L118.19,226.75L120.85,222.83L122.18,222.42L123.5,223.23L124.83,221.88L126.16,222.01L127.49,223.77L128.82,223.5L130.15,221.88L135.47,217.27L136.8,214.43L138.13,215.11L139.46,213.62L140.79,212.53L142.12,213.35L144.78,213.62L146.1,214.7L151.43,212.4L152.76,212.26L155.42,211.59L156.75,210.5L158.08,210.1L159.41,210.64L160.74,211.86L162.06,211.86L164.73,209.55L166.05,209.28L170.04,208.47L171.37,207.93L172.7,207.12L174.03,207.52L180.68,207.25L182.01,207.52L184.66,206.03L186,204.41L187.33,203.19L188.66,203.19L189.99,202.38L191.32,203.33L195.31,203.46L196.64,134.69L200.63,132.5L201.96,132.78L204.62,132.23L205.95,131.27L208.61,131.41L209.94,131.41L215.25,130.73L216.58,130.59L220.57,130.05L221.9,130.18L233.86,130.18L235.2,130.32L244.5,130.05L245.83,129.36L249.82,129.36L251.15,128.27L256.46,128.41L257.8,127.86L260.46,128L261.78,127.31L264.45,126.63L265.78,127.31L269.76,124.17L271.09,124.17L272.43,125.27L273.75,124.86L276.42,123.49L277.74,124.17L281.73,121.99L283.06,120.21L284.39,121.99L285.72,121.17L289.71,118.85L291.04,119.8L293.7,118.17L295.03,119.39L296.36,120.49L297.69,119.53L299.02,120.62L300.35,120.08L301.67,119.12L303.01,120.21L304.34,119.53L305.66,119.94L308.33,121.03L309.65,120.62L312.33,119.39L313.67,118.17L314.99,116.66L316.32,116.39L318.98,117.07L320.31,117.62L321.64,115.57L322.97,115.3L326.97,114.61L328.3,112.84L332.28,113.93L333.61,113.39L336.27,109.7L337.6,111.34L338.94,111.34L340.26,110.11L341.59,111.06L342.92,110.52L345.58,108.61L346.91,108.74L350.9,105.47L352.23,105.6L354.89,103.14L356.22,103.96L358.87,101.78L360.21,102.33L364.19,101.64L365.52,98.91L366.85,98.77L368.18,97.68L369.52,96.18L370.84,96.45L372.17,96.73L373.5,97.96L374.84,98.64L376.16,97.96L377.5,100L378.82,99.18L380.15,99.05L381.48,97.41L382.81,97L384.14,97.55L386.8,97.82L388.13,49.88L390.78,47.95L392.12,47.67L394.77,46.98L396.11,46.02L400.09,45.47L401.42,45.19L406.74,43.82L408.07,42.85L410.74,42.58L412.06,43.13L416.05,41.89L417.38,42.03L433.33,40.65L434.66,40.93L439.99,39.96L441.32,40.24L442.64,39.69L443.97,39.96L445.3,40.37L446.63,39.82L447.96,39.96L449.29,39.27L451.95,39.69L453.27,38.86L461.25,38.17L463.91,37.62L465.24,36.24L467.9,35.83L470.56,35.42L471.89,33.63L473.22,34.87L474.55,33.63L477.21,33.63L478.54,32.94L479.87,32.8L481.2,31.56L485.18,31.29L486.52,29.63L487.85,28.12L489.17,27.84L491.8,25.64L493.12,26.33L495.78,24.81L497.11,25.23L498.44,23.44L499.76,23.16L501.1,22.61L502.42,23.02L503.76,22.75L505.08,20.68L506.42,19.99L507.75,20.54L510.4,19.72L511.74,19.31L513.07,19.17L514.39,18.07L517.06,18.07L518.38,18.62L521.04,20.27L522.38,18.34L525.04,19.58L526.38,17.51L529.03,17.65L530.36,18.07L534.35,16.14L535.68,16.55L537,16" style="vector-effect: non-scaling-stroke; fill: none; stroke: rgb(99, 110, 250); stroke-opacity: 1; stroke-width: 2px; opacity: 1;"/></g><g class="points"/><g class="text"/></g></g></g><g class="overplot"/><path class="xlines-above crisp" d="M0,0" style="fill: none;"/><path class="ylines-above crisp" d="M0,0" style="fill: none;"/><g class="overlines-above"/><g class="xaxislayer-above"><g class="xtick"><text text-anchor="middle" x="0" y="433" transform="translate(84.97,0)" style="font-family: 'Open Sans', verdana, arial, sans-serif; font-size: 12px; fill: rgb(42, 63, 95); fill-opacity: 1; white-space: pre;"><tspan class="line" dy="0em" x="0" y="433">00:00</tspan><tspan class="line" dy="1.3em" x="0" y="433">Aug 3, 2021</tspan></text></g><g class="xtick"><text text-anchor="middle" x="0" y="433" transform="translate(180.70999999999998,0)" style="font-family: 'Open Sans', verdana, arial, sans-serif; font-size: 12px; fill: rgb(42, 63, 95); fill-opacity: 1; white-space: pre;">12:00</text></g><g class="xtick"><text text-anchor="middle" x="0" y="433" transform="translate(276.44,0)" style="font-family: 'Open Sans', verdana, arial, sans-serif; font-size: 12px; fill: rgb(42, 63, 95); fill-opacity: 1; white-space: pre;"><tspan class="line" dy="0em" x="0" y="433">00:00</tspan><tspan class="line" dy="1.3em" x="0" y="433">Aug 4, 2021</tspan></text></g><g class="xtick"><text text-anchor="middle" x="0" y="433" transform="translate(372.18,0)" style="font-family: 'Open Sans', verdana, arial, sans-serif; font-size: 12px; fill: rgb(42, 63, 95); fill-opacity: 1; white-space: pre;">12:00</text></g><g class="xtick"><text text-anchor="middle" x="0" y="433" transform="translate(467.92,0)" style="font-family: 'Open Sans', verdana, arial, sans-serif; font-size: 12px; fill: rgb(42, 63, 95); fill-opacity: 1; white-space: pre;"><tspan class="line" dy="0em" x="0" y="433">00:00</tspan><tspan class="line" dy="1.3em" x="0" y="433">Aug 5, 2021</tspan></text></g><g class="xtick"><text text-anchor="middle" x="0" y="433" transform="translate(563.6600000000001,0)" style="font-family: 'Open Sans', verdana, arial, sans-serif; font-size: 12px; fill: rgb(42, 63, 95); fill-opacity: 1; white-space: pre;">12:00</text></g></g><g class="yaxislayer-above"><g class="ytick"><text text-anchor="end" x="79" y="4.199999999999999" transform="translate(0,392.01)" style="font-family: 'Open Sans', verdana, arial, sans-serif; font-size: 12px; fill: rgb(42, 63, 95); fill-opacity: 1; white-space: pre;">0.864</text></g><g class="ytick"><text text-anchor="end" x="79" y="4.199999999999999" transform="translate(0,347.23)" style="font-family: 'Open Sans', verdana, arial, sans-serif; font-size: 12px; fill: rgb(42, 63, 95); fill-opacity: 1; white-space: pre;">0.865</text></g><g class="ytick"><text text-anchor="end" x="79" y="4.199999999999999" transform="translate(0,302.44)" style="font-family: 'Open Sans', verdana, arial, sans-serif; font-size: 12px; fill: rgb(42, 63, 95); fill-opacity: 1; white-space: pre;">0.866</text></g><g class="ytick"><text text-anchor="end" x="79" y="4.199999999999999" transform="translate(0,257.65999999999997)" style="font-family: 'Open Sans', verdana, arial, sans-serif; font-size: 12px; fill: rgb(42, 63, 95); fill-opacity: 1; white-space: pre;">0.867</text></g><g class="ytick"><text text-anchor="end" x="79" y="4.199999999999999" transform="translate(0,212.87)" style="font-family: 'Open Sans', verdana, arial, sans-serif; font-size: 12px; fill: rgb(42, 63, 95); fill-opacity: 1; white-space: pre;">0.868</text></g><g class="ytick"><text text-anchor="end" x="79" y="4.199999999999999" transform="translate(0,168.09)" style="font-family: 'Open Sans', verdana, arial, sans-serif; font-size: 12px; fill: rgb(42, 63, 95); fill-opacity: 1; white-space: pre;">0.869</text></g><g class="ytick"><text text-anchor="end" x="79" y="4.199999999999999" transform="translate(0,123.3)" style="font-family: 'Open Sans', verdana, arial, sans-serif; font-size: 12px; fill: rgb(42, 63, 95); fill-opacity: 1; white-space: pre;">0.87</text></g></g><g class="overaxes-above"/></g></g><g class="polarlayer"/><g class="ternarylayer"/><g class="geolayer"/><g class="funnelarealayer"/><g class="pielayer"/><g class="treemaplayer"/><g class="sunburstlayer"/><g class="glimages"/><defs id="topdefs-aa078a"><g class="clips"/><clipPath id="legendaa078a"><rect width="60" height="45" x="0" y="0"/></clipPath></defs><g class="layer-above"><g class="imagelayer"/><g class="shapelayer"/></g><g class="infolayer"><g class="legend" pointer-events="all" transform="translate(627.74,100)"><rect class="bg" shape-rendering="crispEdges" width="60" height="45" x="0" y="0" style="stroke: rgb(68, 68, 68); stroke-opacity: 1; fill: rgb(255, 255, 255); fill-opacity: 1; stroke-width: 0px;"/><g class="scrollbox" transform="" clip-path="url('#legendaa078a')"><text class="legendtitletext" text-anchor="start" x="2" y="15.600000000000001" style="font-family: 'Open Sans', verdana, arial, sans-serif; font-size: 12px; fill: rgb(42, 63, 95); fill-opacity: 1; white-space: pre;">All</text><g class="groups" transform=""><g class="traces" transform="translate(0,30.1)" style="opacity: 1;"><text class="legendtext" text-anchor="start" x="40" y="4.680000000000001" style="font-family: 'Open Sans', verdana, arial, sans-serif; font-size: 12px; fill: rgb(42, 63, 95); fill-opacity: 1; white-space: pre;">All</text><g class="layers" style="opacity: 1;"><g class="legendfill"/><g class="legendlines"><path class="js-line" d="M5,0h30" style="fill: none; stroke: rgb(99, 110, 250); stroke-opacity: 1; stroke-width: 2px;"/></g><g class="legendsymbols"><g class="legendpoints"/></g></g><rect class="legendtoggle" x="0" y="-9.5" width="54.890625" height="19" style="fill: rgb(0, 0, 0); fill-opacity: 0;"/></g></g></g><rect class="scrollbar" rx="20" ry="3" width="0" height="0" x="0" y="0" style="fill: rgb(128, 139, 164); fill-opacity: 1;"/></g><g class="g-gtitle"><text class="gtitle" x="35" y="50" text-anchor="start" dy="0em" style="font-family: 'Open Sans', verdana, arial, sans-serif; font-size: 17px; fill: rgb(42, 63, 95); opacity: 1; font-weight: normal; white-space: pre;">Singapore Vaccination Centers</text></g><g class="g-xtitle"><text class="xtitle" x="348.5" y="476.409375" text-anchor="middle" style="font-family: 'Open Sans', verdana, arial, sans-serif; font-size: 14px; fill: rgb(42, 63, 95); opacity: 1; font-weight: normal; white-space: pre;">Time</text></g><g class="g-ytitle"><text class="ytitle" transform="rotate(-90,19.840625000000003,260)" x="19.840625000000003" y="260" text-anchor="middle" style="font-family: 'Open Sans', verdana, arial, sans-serif; font-size: 14px; fill: rgb(42, 63, 95); opacity: 1; font-weight: normal; white-space: pre;">Filled/%</text></g></g></svg>