<svg class="main-svg" xmlns="http://www.w3.org/2000/svg" xmlns:xlink="http://www.w3.org/1999/xlink" width="700" height="500" style="" viewBox="0 0 700 500"><rect x="0" y="0" width="700" height="500" style="fill: rgb(255, 255, 255); fill-opacity: 1;"/><defs id="defs-68d8da"><g class="clips"><clipPath id="clip68d8daxyplot" class="plotclip"><rect width="537" height="320"/></clipPath><clipPath class="axesclip" id="clip68d8dax"><rect x="80" y="0" width="537" height="500"/></clipPath><clipPath class="axesclip" id="clip68d8day"><rect x="0" y="100" width="700" height="320"/></clipPath><clipPath class="axesclip" id="clip68d8daxy"><rect x="80" y="100" width="537" height="320"/></clipPath></g><g class="gradients"/></defs><g class="bglayer"><rect class="bg" x="80" y="100" width="537" height="320" style="fill: rgb(229, 236, 246); fill-opacity: 1; stroke-width: 0;"/></g><g class="layer-below"><g class="imagelayer"/><g class="shapelayer"/></g><g class="cartesianlayer"><g class="subplot xy"><g class="layer-subplot"><g class="shapelayer"/><g class="imagelayer"/></g><g class="gridlayer"><g class="x"><path class="xgrid crisp" transform="translate(83.3,0)" d="M0,100v320" style="stroke: rgb(255, 255, 255); stroke-opacity: 1; stroke-width: 1px;"/><path class="xgrid crisp" transform="translate(210.29,0)" d="M0,100v320" style="stroke: rgb(255, 255, 255); stroke-opacity: 1; stroke-width: 1px;"/><path class="xgrid crisp" transform="translate(337.29,0)" d="M0,100v320" style="stroke: rgb(255, 255, 255); stroke-opacity: 1; stroke-width: 1px;"/><path class="xgrid crisp" transform="translate(464.29,0)" d="M0,100v320" style="stroke: rgb(255, 255, 255); stroke-opacity: 1; stroke-width: 1px;"/><path class="xgrid crisp" transform="translate(591.29,0)" d="M0,100v320" style="stroke: rgb(255, 255, 255); stroke-opacity: 1; stroke-width: 1px;"/></g><g class="y"><path class="ygrid crisp" transform="translate(0,392.55)" d="M80,0h537" style="stroke: rgb(255, 255, 255); stroke-opacity: 1; stroke-width: 1px;"/><path class="ygrid crisp" transform="translate(0,349.77)" d="M80,0h537" style="stroke: rgb(255, 255, 255); stroke-opacity: 1; stroke-width: 1px;"/><path class="ygrid crisp" transform="translate(0,306.99)" d="M80,0h537" style="stroke: rgb(255, 255, 255); stroke-opacity: 1; stroke-width: 1px;"/><path class="ygrid crisp" transform="translate(0,264.21000000000004)" d="M80,0h537" style="stroke: rgb(255, 255, 255); stroke-opacity: 1; stroke-width: 1px;"/><path class="ygrid crisp" transform="translate(0,221.43)" d="M80,0h537" style="stroke: rgb(255, 255, 255); stroke-opacity: 1; stroke-width: 1px;"/><path class="ygrid crisp" transform="translate(0,178.65)" d="M80,0h537" style="stroke: rgb(255, 255, 255); stroke-opacity: 1; stroke-width: 1px;"/><path class="ygrid crisp" transform="translate(0,135.87)" d="M80,0h537" style="stroke: rgb(255, 255, 255); stroke-opacity: 1; stroke-width: 1px;"/></g></g><g class="zerolinelayer"/><path class="xlines-below"/><path class="ylines-below"/><g class="overlines-below"/><g class="xaxislayer-below"/><g class="yaxislayer-below"/><g class="overaxes-below"/><g class="plot" transform="translate(80,100)" clip-path="url('#clip68d8daxyplot')"><g class="scatterlayer mlayer"><g class="trace scatter trace56ac77" style="stroke-miterlimit: 2; opacity: 1;"><g class="fills"/><g class="errorbars"/><g class="lines"><path class="js-line" d="M0,304L2.54,302.59L3.43,249.74L4.31,251.04L5.19,249.35L8.71,248.71L9.6,248.32L11.36,249.1L12.25,248.19L14.01,248.58L14.89,248.19L16.65,247.93L17.53,247.67L19.3,247.41L20.18,247.16L27.24,246.77L28.12,246.51L33.41,246.12L34.29,245.73L36.06,245.86L36.94,245.22L38.7,245.09L39.58,244.44L40.47,244.96L41.35,244.57L42.23,243.66L43.11,243.92L43.99,244.57L44.88,243.02L47.52,242.11L48.4,242.63L49.28,242.24L50.17,243.15L51.05,242.24L51.93,240.17L53.69,240.69L54.57,239.78L58.1,237.84L58.99,236.94L60.74,238.23L61.63,237.07L62.51,235L63.39,235.51L64.27,236.55L65.15,235L66.92,232.67L67.8,232.28L69.57,230.6L70.45,231.12L72.21,229.95L73.1,230.21L73.98,231.76L74.86,229.56L77.51,230.6L78.39,230.21L80.15,226.46L81.03,226.07L81.92,226.85L82.8,225.55L83.68,225.68L84.56,227.36L85.44,227.11L86.33,225.55L89.85,221.16L90.73,218.44L91.62,219.09L92.5,217.66L93.38,216.63L94.26,217.4L96.03,217.66L96.91,218.7L100.44,216.5L101.32,216.37L103.08,215.72L103.97,214.69L104.85,214.3L105.73,214.82L107.49,215.98L108.37,214.43L111.02,213.39L111.91,212.88L113.67,212.23L114.55,211.45L117.19,212.23L118.07,211.84L119.84,211.58L120.72,211.84L122.48,210.42L123.37,208.87L125.13,207.7L126.01,206.93L127.77,207.96L128.66,207.44L129.54,207.96L130.42,142.27L133.07,140.18L133.95,140.44L135.72,139.92L136.6,139.01L138.36,139.14L139.24,139.14L142.77,138.48L143.65,138.35L146.3,137.83L147.18,137.96L155.11,137.96L156,138.09L162.17,137.83L163.05,137.18L165.7,137.18L166.58,136.14L170.1,136.27L170.99,135.74L172.75,135.88L173.63,135.22L175.4,134.57L176.28,135.22L179.8,132.22L180.69,133.27L183.34,131.57L184.22,132.22L187.74,128.44L188.63,130.14L192.15,127.14L193.04,128.05L194.8,126.48L195.68,127.66L196.56,128.7L197.45,127.79L198.33,128.83L199.21,128.31L200.09,127.4L200.97,128.44L201.85,127.79L202.74,128.18L205.38,128.83L206.27,128.44L208.05,126.48L208.92,125.05L210.69,124.92L211.57,125.44L212.45,125.96L213.34,124.01L216.86,123.09L217.75,121.4L221.27,121.92L222.15,120.61L223.04,118.4L223.92,119.96L224.8,119.96L225.68,118.79L226.56,119.7L227.44,119.18L229.21,117.35L230.09,117.48L232.74,114.35L233.62,114.48L235.39,112.14L236.27,112.92L238.03,110.83L238.91,111.35L241.56,110.7L242.44,108.09L243.32,107.96L244.2,106.92L245.09,105.48L245.97,105.74L246.85,106L247.73,107.18L248.62,107.83L249.49,107.18L250.38,109.13L251.26,108.35L252.14,108.22L253.02,106.66L253.9,106.27L254.79,106.79L256.55,107.05L257.43,61.25L259.19,59.41L260.08,59.15L262.72,57.57L263.6,57.17L265.37,57.04L266.25,56.78L269.78,55.46L270.66,54.54L272.43,54.28L273.31,54.81L276.84,53.75L277.71,53.62L279.48,53.62L280.36,53.75L294.47,51.78L295.35,52.18L298,51.12L298.88,51.25L299.77,51.52L300.64,50.73L305.93,50.07L307.69,49.54L308.58,48.23L310.34,47.83L312.1,47.44L312.99,45.73L313.87,46.91L314.75,45.73L316.52,45.73L317.4,45.07L318.28,44.94L319.16,43.76L321.81,43.49L322.69,41.91L324.45,40.2L325.34,39.42L326.19,38.1L327.07,38.76L329.71,37.71L330.6,36L334.13,35.34L335,33.36L335.89,32.71L336.77,33.23L338.53,32.44L339.42,32.05L340.3,31.92L341.18,30.86L342.94,30.86L343.82,31.39L345.59,32.97L346.48,31.13L348.24,32.31L349.13,30.34L350.89,30.47L351.77,30.86L354.41,29.02L355.3,29.42L357.05,27.71L357.94,26.66L358.82,24.16L359.71,24.68L360.58,23.24L361.47,24.68L363.23,22.84L364.11,22.58L364.99,21.26L365.87,21.66L367.64,21.79L368.52,20.74L369.4,21.26L370.29,19.68L372.05,19.55L372.93,18.5L376.46,18.89L377.34,17.97L378.22,17.45L379.11,17.84L379.99,17.97L380.87,17.05L381.75,16L382.63,16.66L383.52,16.39L384.4,171.81L388.81,171.4L389.69,172.08L392.34,170.99L393.22,170.99L394.98,169.76L395.86,169.76L397.62,168.94L398.51,169.08L413.5,168.39L414.38,167.98L425.84,165.8L426.73,165.12L431.14,164.02L432.02,162.66L435.58,162.38L436.46,163.61L438.22,161.7L439.1,161.57L439.99,160.88L440.87,158.43L441.75,156.51L442.63,156.79L443.52,156.1L444.39,154.33L445.28,154.88L446.16,154.19L447.93,154.33L448.81,153.37L450.57,152.69L451.45,153.65L453.21,152.01L454.1,150.92L454.98,151.87L455.86,150.64L457.63,149.14L458.51,149.14L459.39,148.32L460.27,149.41L462.04,150.37L462.92,149.41L463.8,149.55L464.68,148.73L468.21,145.18L469.09,144.5L471.73,143.54L472.62,145.04L477.91,141.9L478.79,143.68L479.68,121.97L480.56,121.97L483.2,120.88L484.09,116.1L484.96,116.24L485.85,112.28L486.73,112.55L487.61,109.96L488.49,106.95L489.38,107.91L491.14,104.77L492.02,101.22L492.91,98.08L493.79,98.08L494.67,97.53L495.55,95.35L496.43,94.8L497.32,92.07L499.08,89.34L499.96,89.34L501.73,85.93L502.6,85.65L505.25,82.78L506.13,80.19L509.66,77.05L510.54,75L511.43,88.44L512.31,87.48L515.84,84.03L516.72,84.45L517.6,84.31L518.48,85.14L520.25,84.72L521.13,85.41L522.89,84.59L523.77,84.45L525.54,84.03L526.42,84.03L528.18,84.17L529.07,83.62L535.24,84.03L536.12,83.62L537,83.48" style="vector-effect: non-scaling-stroke; fill: none; stroke: rgb(99, 110, 250); stroke-opacity: 1; stroke-width: 2px; opacity: 1;"/></g><g class="points"/><g class="text"/></g></g></g><g class="overplot"/><path class="xlines-above crisp" d="M0,0" style="fill: none;"/><path class="ylines-above crisp" d="M0,0" style="fill: none;"/><g class="overlines-above"/><g class="xaxislayer-above"><g class="xtick"><text text-anchor="middle" x="0" y="433" transform="translate(83.3,0)" style="font-family: 'Open Sans', verdana, arial, sans-serif; font-size: 12px; fill: rgb(42, 63, 95); fill-opacity: 1; white-space: pre;"><tspan class="line" dy="0em" x="0" y="433">Aug 3</tspan><tspan class="line" dy="1.3em" x="0" y="433">2021</tspan></text></g><g class="xtick"><text text-anchor="middle" x="0" y="433" transform="translate(210.29,0)" style="font-family: 'Open Sans', verdana, arial, sans-serif; font-size: 12px; fill: rgb(42, 63, 95); fill-opacity: 1; white-space: pre;">Aug 4</text></g><g class="xtick"><text text-anchor="middle" x="0" y="433" transform="translate(337.29,0)" style="font-family: 'Open Sans', verdana, arial, sans-serif; font-size: 12px; fill: rgb(42, 63, 95); fill-opacity: 1; white-space: pre;">Aug 5</text></g><g class="xtick"><text text-anchor="middle" x="0" y="433" transform="translate(464.29,0)" style="font-family: 'Open Sans', verdana, arial, sans-serif; font-size: 12px; fill: rgb(42, 63, 95); fill-opacity: 1; white-space: pre;">Aug 6</text></g><g class="xtick"><text text-anchor="middle" x="0" y="433" transform="translate(591.29,0)" style="font-family: 'Open Sans', verdana, arial, sans-serif; font-size: 12px; fill: rgb(42, 63, 95); fill-opacity: 1; white-space: pre;">Aug 7</text></g></g><g class="yaxislayer-above"><g class="ytick"><text text-anchor="end" x="79" y="4.199999999999999" transform="translate(0,392.55)" style="font-family: 'Open Sans', verdana, arial, sans-serif; font-size: 12px; fill: rgb(42, 63, 95); fill-opacity: 1; white-space: pre;">0.864</text></g><g class="ytick"><text text-anchor="end" x="79" y="4.199999999999999" transform="translate(0,349.77)" style="font-family: 'Open Sans', verdana, arial, sans-serif; font-size: 12px; fill: rgb(42, 63, 95); fill-opacity: 1; white-space: pre;">0.865</text></g><g class="ytick"><text text-anchor="end" x="79" y="4.199999999999999" transform="translate(0,306.99)" style="font-family: 'Open Sans', verdana, arial, sans-serif; font-size: 12px; fill: rgb(42, 63, 95); fill-opacity: 1; white-space: pre;">0.866</text></g><g class="ytick"><text text-anchor="end" x="79" y="4.199999999999999" transform="translate(0,264.21000000000004)" style="font-family: 'Open Sans', verdana, arial, sans-serif; font-size: 12px; fill: rgb(42, 63, 95); fill-opacity: 1; white-space: pre;">0.867</text></g><g class="ytick"><text text-anchor="end" x="79" y="4.199999999999999" transform="translate(0,221.43)" style="font-family: 'Open Sans', verdana, arial, sans-serif; font-size: 12px; fill: rgb(42, 63, 95); fill-opacity: 1; white-space: pre;">0.868</text></g><g class="ytick"><text text-anchor="end" x="79" y="4.199999999999999" transform="translate(0,178.65)" style="font-family: 'Open Sans', verdana, arial, sans-serif; font-size: 12px; fill: rgb(42, 63, 95); fill-opacity: 1; white-space: pre;">0.869</text></g><g class="ytick"><text text-anchor="end" x="79" y="4.199999999999999" transform="translate(0,135.87)" style="font-family: 'Open Sans', verdana, arial, sans-serif; font-size: 12px; fill: rgb(42, 63, 95); fill-opacity: 1; white-space: pre;">0.87</text></g></g><g class="overaxes-above"/></g></g><g class="polarlayer"/><g class="ternarylayer"/><g class="geolayer"/><g class="funnelarealayer"/><g class="pielayer"/><g class="treemaplayer"/><g class="sunburstlayer"/><g class="glimages"/><defs id="topdefs-68d8da"><g class="clips"/><clipPath id="legend68d8da"><rect width="60" height="45" x="0" y="0"/></clipPath></defs><g class="layer-above"><g class="imagelayer"/><g class="shapelayer"/></g><g class="infolayer"><g class="legend" pointer-events="all" transform="translate(627.74,100)"><rect class="bg" shape-rendering="crispEdges" width="60" height="45" x="0" y="0" style="stroke: rgb(68, 68, 68); stroke-opacity: 1; fill: rgb(255, 255, 255); fill-opacity: 1; stroke-width: 0px;"/><g class="scrollbox" transform="" clip-path="url('#legend68d8da')"><text class="legendtitletext" text-anchor="start" x="2" y="15.600000000000001" style="font-family: 'Open Sans', verdana, arial, sans-serif; font-size: 12px; fill: rgb(42, 63, 95); fill-opacity: 1; white-space: pre;">All</text><g class="groups" transform=""><g class="traces" transform="translate(0,30.1)" style="opacity: 1;"><text class="legendtext" text-anchor="start" x="40" y="4.680000000000001" style="font-family: 'Open Sans', verdana, arial, sans-serif; font-size: 12px; fill: rgb(42, 63, 95); fill-opacity: 1; white-space: pre;">All</text><g class="layers" style="opacity: 1;"><g class="legendfill"/><g class="legendlines"><path class="js-line" d="M5,0h30" style="fill: none; stroke: rgb(99, 110, 250); stroke-opacity: 1; stroke-width: 2px;"/></g><g class="legendsymbols"><g class="legendpoints"/></g></g><rect class="legendtoggle" x="0" y="-9.5" width="54.890625" height="19" style="fill: rgb(0, 0, 0); fill-opacity: 0;"/></g></g></g><rect class="scrollbar" rx="20" ry="3" width="0" height="0" x="0" y="0" style="fill: rgb(128, 139, 164); fill-opacity: 1;"/></g><g class="g-gtitle"><text class="gtitle" x="35" y="50" text-anchor="start" dy="0em" style="font-family: 'Open Sans', verdana, arial, sans-serif; font-size: 17px; fill: rgb(42, 63, 95); opacity: 1; font-weight: normal; white-space: pre;">Singapore Vaccination Centers</text></g><g class="g-xtitle"><text class="xtitle" x="348.5" y="476.409375" text-anchor="middle" style="font-family: 'Open Sans', verdana, arial, sans-serif; font-size: 14px; fill: rgb(42, 63, 95); opacity: 1; font-weight: normal; white-space: pre;">Time</text></g><g class="g-ytitle"><text class="ytitle" transform="rotate(-90,19.840625000000003,260)" x="19.840625000000003" y="260" text-anchor="middle" style="font-family: 'Open Sans', verdana, arial, sans-serif; font-size: 14px; fill: rgb(42, 63, 95); opacity: 1; font-weight: normal; white-space: pre;">Filled/%</text></g></g></svg>