<svg class="main-svg" xmlns="http://www.w3.org/2000/svg" xmlns:xlink="http://www.w3.org/1999/xlink" width="700" height="500" style="" viewBox="0 0 700 500"><rect x="0" y="0" width="700" height="500" style="fill: rgb(255, 255, 255); fill-opacity: 1;"/><defs id="defs-9006f6"><g class="clips"><clipPath id="clip9006f6xyplot" class="plotclip"><rect width="537" height="320"/></clipPath><clipPath class="axesclip" id="clip9006f6x"><rect x="80" y="0" width="537" height="500"/></clipPath><clipPath class="axesclip" id="clip9006f6y"><rect x="0" y="100" width="700" height="320"/></clipPath><clipPath class="axesclip" id="clip9006f6xy"><rect x="80" y="100" width="537" height="320"/></clipPath></g><g class="gradients"/></defs><g class="bglayer"><rect class="bg" x="80" y="100" width="537" height="320" style="fill: rgb(229, 236, 246); fill-opacity: 1; stroke-width: 0;"/></g><g class="layer-below"><g class="imagelayer"/><g class="shapelayer"/></g><g class="cartesianlayer"><g class="subplot xy"><g class="layer-subplot"><g class="shapelayer"/><g class="imagelayer"/></g><g class="gridlayer"><g class="x"><path class="xgrid crisp" transform="translate(82.05,0)" d="M0,100v320" style="stroke: rgb(255, 255, 255); stroke-opacity: 1; stroke-width: 1px;"/><path class="xgrid crisp" transform="translate(161.20999999999998,0)" d="M0,100v320" style="stroke: rgb(255, 255, 255); stroke-opacity: 1; stroke-width: 1px;"/><path class="xgrid crisp" transform="translate(240.37,0)" d="M0,100v320" style="stroke: rgb(255, 255, 255); stroke-opacity: 1; stroke-width: 1px;"/><path class="xgrid crisp" transform="translate(319.53,0)" d="M0,100v320" style="stroke: rgb(255, 255, 255); stroke-opacity: 1; stroke-width: 1px;"/><path class="xgrid crisp" transform="translate(398.68,0)" d="M0,100v320" style="stroke: rgb(255, 255, 255); stroke-opacity: 1; stroke-width: 1px;"/><path class="xgrid crisp" transform="translate(477.84,0)" d="M0,100v320" style="stroke: rgb(255, 255, 255); stroke-opacity: 1; stroke-width: 1px;"/><path class="xgrid crisp" transform="translate(557,0)" d="M0,100v320" style="stroke: rgb(255, 255, 255); stroke-opacity: 1; stroke-width: 1px;"/></g><g class="y"><path class="ygrid crisp" transform="translate(0,393.96)" d="M80,0h537" style="stroke: rgb(255, 255, 255); stroke-opacity: 1; stroke-width: 1px;"/><path class="ygrid crisp" transform="translate(0,356.46)" d="M80,0h537" style="stroke: rgb(255, 255, 255); stroke-opacity: 1; stroke-width: 1px;"/><path class="ygrid crisp" transform="translate(0,318.95)" d="M80,0h537" style="stroke: rgb(255, 255, 255); stroke-opacity: 1; stroke-width: 1px;"/><path class="ygrid crisp" transform="translate(0,281.44)" d="M80,0h537" style="stroke: rgb(255, 255, 255); stroke-opacity: 1; stroke-width: 1px;"/><path class="ygrid crisp" transform="translate(0,243.94)" d="M80,0h537" style="stroke: rgb(255, 255, 255); stroke-opacity: 1; stroke-width: 1px;"/><path class="ygrid crisp" transform="translate(0,206.43)" d="M80,0h537" style="stroke: rgb(255, 255, 255); stroke-opacity: 1; stroke-width: 1px;"/><path class="ygrid crisp" transform="translate(0,168.93)" d="M80,0h537" style="stroke: rgb(255, 255, 255); stroke-opacity: 1; stroke-width: 1px;"/><path class="ygrid crisp" transform="translate(0,131.42000000000002)" d="M80,0h537" style="stroke: rgb(255, 255, 255); stroke-opacity: 1; stroke-width: 1px;"/></g></g><g class="zerolinelayer"/><path class="xlines-below"/><path class="ylines-below"/><g class="overlines-below"/><g class="xaxislayer-below"/><g class="yaxislayer-below"/><g class="overaxes-below"/><g class="plot" transform="translate(80,100)" clip-path="url('#clip9006f6xyplot')"><g class="scatterlayer mlayer"><g class="trace scatter trace659793" style="stroke-miterlimit: 2; opacity: 1;"><g class="fills"/><g class="errorbars"/><g class="lines"><path class="js-line" d="M0,304L1.58,302.76L2.14,256.43L2.68,257.57L3.23,256.09L5.43,255.53L5.98,255.18L7.08,255.87L7.63,255.07L8.73,255.41L9.28,255.07L10.38,254.84L10.93,254.62L12.03,254.39L12.58,254.16L19.72,253.82L20.27,253.37L24.12,252.35L24.67,251.78L25.77,251.9L26.32,251.1L27.42,251.9L27.97,250.54L29.62,249.74L30.17,250.2L30.72,249.85L31.27,250.65L32.37,248.04L32.92,248.49L33.47,248.49L35.12,247.36L35.66,246.68L36.77,245.21L37.31,246.11L37.86,246.34L38.41,245.32L38.96,243.5L39.51,243.96L40.06,244.86L42.26,241.12L42.81,240.33L44.46,239.42L45.01,239.08L45.56,239.31L46.11,240.67L46.66,238.74L47.21,239.08L47.76,238.85L48.86,239.31L49.41,237.49L50.51,235.68L51.06,236.36L52.16,235.34L52.71,236.81L53.26,236.59L53.81,235.23L56,231.37L56.55,228.99L57.11,229.56L57.65,228.31L58.2,227.4L58.75,228.08L59.85,228.31L60.4,229.21L63.15,227.17L63.7,226.95L65.9,225.81L66.45,226.83L67,226.83L67.55,225.47L69.75,224.11L70.3,224L71.95,223.2L72.49,223.09L73.59,223.2L74.15,222.86L75.79,222.75L76.34,221.96L77.99,219.58L78.54,218.9L79.64,219.8L80.19,219.35L80.74,219.8L81.29,162.21L83.49,160.61L84.04,160.49L86.24,159.46L86.79,159.46L89.53,158.78L90.09,158.43L95.04,158.2L95.58,158.32L101.08,158.32L101.63,157.75L103.28,157.75L103.83,156.83L106.02,156.95L106.58,156.49L107.67,156.6L108.22,156.03L109.87,156.03L110.42,155.12L112.07,153.4L112.62,154.32L114.27,152.83L114.82,153.4L117.02,150.09L117.57,151.57L119.77,148.94L120.32,149.74L121.42,148.37L121.97,149.4L122.52,150.31L123.07,149.51L123.62,150.43L124.17,149.97L124.71,149.17L125.27,150.09L125.81,149.51L128.01,150.43L128.56,150.09L130.77,146.88L131.32,147L132.42,147.91L132.97,146.2L135.17,145.4L135.72,143.91L137.92,144.37L138.47,143.22L139.02,141.28L139.57,142.65L140.12,142.65L140.67,141.62L141.22,142.42L141.76,141.97L142.31,140.94L146.16,136.93L146.72,135.79L147.26,136.48L147.81,135.68L148.36,134.65L148.91,135.1L149.46,134.76L150.56,134.53L151.11,132.25L151.66,132.13L152.21,131.22L153.31,130.19L153.86,130.42L154.96,132.02L155.51,131.44L156.06,133.16L156.61,132.47L157.16,132.36L158.26,130.64L158.81,131.1L159.91,131.33L160.46,91.18L162.1,89.34L162.65,89.1L169.8,85.07L170.35,85.53L172.55,84.61L173.1,84.49L174.75,84.61L175.3,84.49L179.14,83.45L179.69,83.68L182.99,82.65L183.54,82.88L184.64,82.76L185.19,82.88L186.29,82.42L186.84,82.65L187.94,81.95L188.49,81.84L189.04,81.38L190.69,81.38L191.78,80.92L192.34,79.76L194.53,79.07L195.08,77.57L195.63,78.61L196.18,77.57L197.28,77.57L197.83,77L198.38,76.88L198.93,75.84L200.58,75.61L201.13,74.23L203.31,70.88L203.86,71.46L205.51,70.54L206.06,69.04L208.26,68.46L208.81,66.73L209.91,66.62L210.46,66.5L213.21,64.31L213.76,64.54L215.4,66.39L215.96,64.77L217.06,65.81L217.61,64.08L218.71,64.19L219.26,64.54L221.45,63.27L222,62.81L224.75,57.85L225.3,59.12L226.4,57.51L226.95,57.27L227.5,56.12L228.05,56.47L228.6,56.58L229.15,56.58L229.69,55.66L230.25,56.12L230.8,54.74L231.9,54.62L232.45,53.7L234.64,54.05L235.19,53.24L236.3,53.12L236.85,53.24L237.95,51.51L238.49,52.08L239.04,51.85L239.59,188.1L243.99,187.75L244.54,187.39L245.09,187.39L245.64,186.43L252.24,185.23L252.79,185.35L258.83,184.63L259.38,184.51L263.23,183.56L263.78,183.8L265.42,182.84L265.98,182.24L268.73,181.28L269.28,180.08L271.49,179.84L272.04,180.92L273.14,179.25L273.69,179.13L274.24,178.53L274.79,176.37L275.34,174.7L275.89,174.94L276.44,174.34L276.99,172.78L277.54,173.26L278.09,172.66L279.19,172.78L279.74,171.94L280.84,171.35L281.39,172.18L283.04,169.79L283.59,170.63L285.24,168.23L285.79,168.23L286.33,167.52L286.88,168.47L287.98,169.31L288.53,168.47L289.08,168.59L289.64,167.87L292.38,164.16L292.93,163.69L294.03,163.33L294.58,164.64L297.88,161.89L298.43,163.45L299.53,144.41L300.08,144.05L301.18,143.46L301.73,139.27L302.28,139.39L302.82,135.91L303.38,136.15L303.93,133.88L304.48,131.25L305.03,132.08L305.58,130.53L306.12,129.33L306.67,126.22L307.78,123.47L308.33,122.99L311.07,115.8L311.62,115.8L313.27,112.57L313.82,111.73L318.22,103.24L318.77,115.02L321.52,111.15L322.07,111.52L322.62,111.4L323.17,112.12L324.27,111.76L324.82,112.36L326.46,111.52L327.01,111.64L328.11,111.15L328.66,111.28L336.36,110.67L336.91,110.31L341.31,110.79L341.86,110.55L345.15,110.43L345.7,109.95L347.35,107.53L347.9,107.77L349.55,106.57L350.1,106.69L350.65,106.33L351.2,104.88L352.3,105.12L352.85,103.79L355.6,101.01L356.15,101.38L357.8,98.36L358.35,97.99L360,95.7L360.54,95.7L361.65,93.41L362.19,93.41L363.29,91.72L363.84,89.79L366.04,85.2L366.59,84.84L367.14,84.47L367.69,82.54L369.89,80.85L370.44,79.4L373.74,78.56L374.29,77.59L374.84,77.95L375.39,77.35L375.94,77.71L380.34,73.61L383.08,71.31L383.63,71.92L385.83,69.02L386.38,68.9L386.93,67.69L387.48,68.17L388.03,67.57L389.13,67.45L389.68,68.42L391.33,67.21L391.88,66.97L392.43,66.36L392.98,67.21L395.18,66.6L395.73,65.64L397.38,63.59L397.93,108.72L399.02,109.09L399.58,108.11L400.12,107.49L400.67,107.98L401.24,107.86L402.32,107.98L402.87,108.85L405.07,108.6L405.62,108.72L407.27,108.85L407.82,108.85L410.57,107.49L411.12,107.86L417.17,107.25L417.72,107.25L424.31,106.88L424.86,106.51L426.51,106.51L427.06,106.14L428.16,105.65L428.71,104.79L429.81,104.42L430.36,103.19L430.91,101.96L431.46,103.19L433.65,102.33L434.2,102.33L435.31,100.48L435.86,100.24L437.5,97.65L438.05,97.53L439.7,97.16L440.25,96.42L441.35,95.81L441.9,95.93L443,94.58L443.55,93.97L445.75,93.1L446.3,93.47L446.85,92.98L447.4,93.6L448.5,90.52L449.05,90.77L449.6,90.77L451.25,90.28L451.8,89.17L455.09,87.2L455.65,86.83L456.74,86.46L457.3,86.09L460.04,83.76L460.59,84.13L464.44,82.28L464.99,81.3L466.64,79.09L467.19,78.35L467.74,78.59L468.29,76.99L469.39,75.27L469.94,75.89L475.43,72.69L475.98,72.69L476.53,72.94L477.08,42.92L481.48,39.69L482.03,39.82L487.53,39.94L488.08,40.31L490.83,39.69L491.38,39.69L495.23,39.57L495.77,39.69L500.74,39.32L501.27,39.57L502.37,39.69L502.92,39.45L504.57,39.57L505.12,38.7L506.22,39.69L506.77,38.95L508.42,37.71L508.97,36.97L510.06,37.34L510.61,36.22L511.71,35.6L512.26,35.85L512.81,35.1L513.36,33L513.91,33L514.46,32L515.01,32.62L515.56,31.88L516.66,30.39L517.21,28.9L517.76,28.28L518.31,29.27L519.41,26.67L519.96,26.92L521.06,25.43L521.61,25.55L524.91,24.06L525.46,24.19L526.56,23.57L527.11,22.57L528.76,23.32L529.31,21.95L530.96,21.58L531.51,21.71L533.15,17.98L533.7,18.36L534.25,17.98L536.45,16L537,16.5" style="vector-effect: non-scaling-stroke; fill: none; stroke: rgb(99, 110, 250); stroke-opacity: 1; stroke-width: 2px; opacity: 1;"/></g><g class="points"/><g class="text"/></g></g></g><g class="overplot"/><path class="xlines-above crisp" d="M0,0" style="fill: none;"/><path class="ylines-above crisp" d="M0,0" style="fill: none;"/><g class="overlines-above"/><g class="xaxislayer-above"><g class="xtick"><text text-anchor="middle" x="0" y="433" transform="translate(82.05,0)" style="font-family: 'Open Sans', verdana, arial, sans-serif; font-size: 12px; fill: rgb(42, 63, 95); fill-opacity: 1; white-space: pre;"><tspan class="line" dy="0em" x="0" y="433">Aug 3</tspan><tspan class="line" dy="1.3em" x="0" y="433">2021</tspan></text></g><g class="xtick"><text text-anchor="middle" x="0" y="433" transform="translate(161.20999999999998,0)" style="font-family: 'Open Sans', verdana, arial, sans-serif; font-size: 12px; fill: rgb(42, 63, 95); fill-opacity: 1; white-space: pre;">Aug 4</text></g><g class="xtick"><text text-anchor="middle" x="0" y="433" transform="translate(240.37,0)" style="font-family: 'Open Sans', verdana, arial, sans-serif; font-size: 12px; fill: rgb(42, 63, 95); fill-opacity: 1; white-space: pre;">Aug 5</text></g><g class="xtick"><text text-anchor="middle" x="0" y="433" transform="translate(319.53,0)" style="font-family: 'Open Sans', verdana, arial, sans-serif; font-size: 12px; fill: rgb(42, 63, 95); fill-opacity: 1; white-space: pre;">Aug 6</text></g><g class="xtick"><text text-anchor="middle" x="0" y="433" transform="translate(398.68,0)" style="font-family: 'Open Sans', verdana, arial, sans-serif; font-size: 12px; fill: rgb(42, 63, 95); fill-opacity: 1; white-space: pre;">Aug 7</text></g><g class="xtick"><text text-anchor="middle" x="0" y="433" transform="translate(477.84,0)" style="font-family: 'Open Sans', verdana, arial, sans-serif; font-size: 12px; fill: rgb(42, 63, 95); fill-opacity: 1; white-space: pre;">Aug 8</text></g><g class="xtick"><text text-anchor="middle" x="0" y="433" transform="translate(557,0)" style="font-family: 'Open Sans', verdana, arial, sans-serif; font-size: 12px; fill: rgb(42, 63, 95); fill-opacity: 1; white-space: pre;">Aug 9</text></g></g><g class="yaxislayer-above"><g class="ytick"><text text-anchor="end" x="79" y="4.199999999999999" transform="translate(0,393.96)" style="font-family: 'Open Sans', verdana, arial, sans-serif; font-size: 12px; fill: rgb(42, 63, 95); fill-opacity: 1; white-space: pre;">0.864</text></g><g class="ytick"><text text-anchor="end" x="79" y="4.199999999999999" transform="translate(0,356.46)" style="font-family: 'Open Sans', verdana, arial, sans-serif; font-size: 12px; fill: rgb(42, 63, 95); fill-opacity: 1; white-space: pre;">0.865</text></g><g class="ytick"><text text-anchor="end" x="79" y="4.199999999999999" transform="translate(0,318.95)" style="font-family: 'Open Sans', verdana, arial, sans-serif; font-size: 12px; fill: rgb(42, 63, 95); fill-opacity: 1; white-space: pre;">0.866</text></g><g class="ytick"><text text-anchor="end" x="79" y="4.199999999999999" transform="translate(0,281.44)" style="font-family: 'Open Sans', verdana, arial, sans-serif; font-size: 12px; fill: rgb(42, 63, 95); fill-opacity: 1; white-space: pre;">0.867</text></g><g class="ytick"><text text-anchor="end" x="79" y="4.199999999999999" transform="translate(0,243.94)" style="font-family: 'Open Sans', verdana, arial, sans-serif; font-size: 12px; fill: rgb(42, 63, 95); fill-opacity: 1; white-space: pre;">0.868</text></g><g class="ytick"><text text-anchor="end" x="79" y="4.199999999999999" transform="translate(0,206.43)" style="font-family: 'Open Sans', verdana, arial, sans-serif; font-size: 12px; fill: rgb(42, 63, 95); fill-opacity: 1; white-space: pre;">0.869</text></g><g class="ytick"><text text-anchor="end" x="79" y="4.199999999999999" transform="translate(0,168.93)" style="font-family: 'Open Sans', verdana, arial, sans-serif; font-size: 12px; fill: rgb(42, 63, 95); fill-opacity: 1; white-space: pre;">0.87</text></g><g class="ytick"><text text-anchor="end" x="79" y="4.199999999999999" transform="translate(0,131.42000000000002)" style="font-family: 'Open Sans', verdana, arial, sans-serif; font-size: 12px; fill: rgb(42, 63, 95); fill-opacity: 1; white-space: pre;">0.871</text></g></g><g class="overaxes-above"/></g></g><g class="polarlayer"/><g class="ternarylayer"/><g class="geolayer"/><g class="funnelarealayer"/><g class="pielayer"/><g class="treemaplayer"/><g class="sunburstlayer"/><g class="glimages"/><defs id="topdefs-9006f6"><g class="clips"/><clipPath id="legend9006f6"><rect width="60" height="45" x="0" y="0"/></clipPath></defs><g class="layer-above"><g class="imagelayer"/><g class="shapelayer"/></g><g class="infolayer"><g class="legend" pointer-events="all" transform="translate(627.74,100)"><rect class="bg" shape-rendering="crispEdges" width="60" height="45" x="0" y="0" style="stroke: rgb(68, 68, 68); stroke-opacity: 1; fill: rgb(255, 255, 255); fill-opacity: 1; stroke-width: 0px;"/><g class="scrollbox" transform="" clip-path="url('#legend9006f6')"><text class="legendtitletext" text-anchor="start" x="2" y="15.600000000000001" style="font-family: 'Open Sans', verdana, arial, sans-serif; font-size: 12px; fill: rgb(42, 63, 95); fill-opacity: 1; white-space: pre;">All</text><g class="groups" transform=""><g class="traces" transform="translate(0,30.1)" style="opacity: 1;"><text class="legendtext" text-anchor="start" x="40" y="4.680000000000001" style="font-family: 'Open Sans', verdana, arial, sans-serif; font-size: 12px; fill: rgb(42, 63, 95); fill-opacity: 1; white-space: pre;">All</text><g class="layers" style="opacity: 1;"><g class="legendfill"/><g class="legendlines"><path class="js-line" d="M5,0h30" style="fill: none; stroke: rgb(99, 110, 250); stroke-opacity: 1; stroke-width: 2px;"/></g><g class="legendsymbols"><g class="legendpoints"/></g></g><rect class="legendtoggle" x="0" y="-9.5" width="54.890625" height="19" style="fill: rgb(0, 0, 0); fill-opacity: 0;"/></g></g></g><rect class="scrollbar" rx="20" ry="3" width="0" height="0" x="0" y="0" style="fill: rgb(128, 139, 164); fill-opacity: 1;"/></g><g class="g-gtitle"><text class="gtitle" x="35" y="50" text-anchor="start" dy="0em" style="font-family: 'Open Sans', verdana, arial, sans-serif; font-size: 17px; fill: rgb(42, 63, 95); opacity: 1; font-weight: normal; white-space: pre;">Singapore Vaccination Centers</text></g><g class="g-xtitle"><text class="xtitle" x="348.5" y="476.409375" text-anchor="middle" style="font-family: 'Open Sans', verdana, arial, sans-serif; font-size: 14px; fill: rgb(42, 63, 95); opacity: 1; font-weight: normal; white-space: pre;">Time</text></g><g class="g-ytitle"><text class="ytitle" transform="rotate(-90,19.840625000000003,260)" x="19.840625000000003" y="260" text-anchor="middle" style="font-family: 'Open Sans', verdana, arial, sans-serif; font-size: 14px; fill: rgb(42, 63, 95); opacity: 1; font-weight: normal; white-space: pre;">Filled/%</text></g></g></svg>