<svg class="main-svg" xmlns="http://www.w3.org/2000/svg" xmlns:xlink="http://www.w3.org/1999/xlink" width="700" height="500" style="" viewBox="0 0 700 500"><rect x="0" y="0" width="700" height="500" style="fill: rgb(255, 255, 255); fill-opacity: 1;"/><defs id="defs-d89a54"><g class="clips"><clipPath id="clipd89a54xyplot" class="plotclip"><rect width="537" height="320"/></clipPath><clipPath class="axesclip" id="clipd89a54x"><rect x="80" y="0" width="537" height="500"/></clipPath><clipPath class="axesclip" id="clipd89a54y"><rect x="0" y="100" width="700" height="320"/></clipPath><clipPath class="axesclip" id="clipd89a54xy"><rect x="80" y="100" width="537" height="320"/></clipPath></g><g class="gradients"/></defs><g class="bglayer"><rect class="bg" x="80" y="100" width="537" height="320" style="fill: rgb(229, 236, 246); fill-opacity: 1; stroke-width: 0;"/></g><g class="layer-below"><g class="imagelayer"/><g class="shapelayer"/></g><g class="cartesianlayer"><g class="subplot xy"><g class="layer-subplot"><g class="shapelayer"/><g class="imagelayer"/></g><g class="gridlayer"><g class="x"><path class="xgrid crisp" transform="translate(86.06,0)" d="M0,100v320" style="stroke: rgb(255, 255, 255); stroke-opacity: 1; stroke-width: 1px;"/><path class="xgrid crisp" transform="translate(202.91,0)" d="M0,100v320" style="stroke: rgb(255, 255, 255); stroke-opacity: 1; stroke-width: 1px;"/><path class="xgrid crisp" transform="translate(319.76,0)" d="M0,100v320" style="stroke: rgb(255, 255, 255); stroke-opacity: 1; stroke-width: 1px;"/><path class="xgrid crisp" transform="translate(436.61,0)" d="M0,100v320" style="stroke: rgb(255, 255, 255); stroke-opacity: 1; stroke-width: 1px;"/><path class="xgrid crisp" transform="translate(553.45,0)" d="M0,100v320" style="stroke: rgb(255, 255, 255); stroke-opacity: 1; stroke-width: 1px;"/></g><g class="y"><path class="ygrid crisp" transform="translate(0,390.92)" d="M80,0h537" style="stroke: rgb(255, 255, 255); stroke-opacity: 1; stroke-width: 1px;"/><path class="ygrid crisp" transform="translate(0,342.08000000000004)" d="M80,0h537" style="stroke: rgb(255, 255, 255); stroke-opacity: 1; stroke-width: 1px;"/><path class="ygrid crisp" transform="translate(0,293.23)" d="M80,0h537" style="stroke: rgb(255, 255, 255); stroke-opacity: 1; stroke-width: 1px;"/><path class="ygrid crisp" transform="translate(0,244.38)" d="M80,0h537" style="stroke: rgb(255, 255, 255); stroke-opacity: 1; stroke-width: 1px;"/><path class="ygrid crisp" transform="translate(0,195.53)" d="M80,0h537" style="stroke: rgb(255, 255, 255); stroke-opacity: 1; stroke-width: 1px;"/><path class="ygrid crisp" transform="translate(0,146.68)" d="M80,0h537" style="stroke: rgb(255, 255, 255); stroke-opacity: 1; stroke-width: 1px;"/></g></g><g class="zerolinelayer"/><path class="xlines-below"/><path class="ylines-below"/><g class="overlines-below"/><g class="xaxislayer-below"/><g class="yaxislayer-below"/><g class="overaxes-below"/><g class="plot" transform="translate(80,100)" clip-path="url('#clipd89a54xyplot')"><g class="scatterlayer mlayer"><g class="trace scatter trace76cc50" style="stroke-miterlimit: 2; opacity: 1;"><g class="fills"/><g class="errorbars"/><g class="lines"><path class="js-line" d="M0,304L4.68,302.39L6.3,242.05L7.93,243.52L9.55,241.6L16.04,240.86L17.66,240.42L20.91,241.31L22.53,240.27L24.2,241.01L25.78,240.72L32.27,239.68L33.9,239.98L37.14,239.09L38.76,239.09L42,239.09L43.62,239.09L48.5,238.8L50.12,238.65L54.98,238.5L56.61,238.65L61.48,237.91L63.1,237.47L66.35,237.61L67.97,236.88L71.21,236.73L72.83,235.99L74.46,236.58L76.08,236.14L77.7,235.1L79.33,235.4L80.95,236.14L82.58,234.37L87.44,233.33L89.06,233.92L90.69,233.48L92.31,234.51L93.93,233.48L95.56,231.12L98.8,231.71L100.42,230.67L106.92,228.46L108.54,227.42L111.78,228.9L113.41,227.57L115.03,225.21L116.65,225.8L118.27,226.98L119.89,225.21L121.52,223.29L123.14,222.55L126.39,221.07L128.02,220.19L129.64,220.78L131.26,219.89L134.51,219.74L136.13,221.51L137.75,219L139.38,219.45L141,219.15L142.62,220.19L144.25,219.74L145.87,217.38L147.49,215.46L149.11,215.02L150.74,215.9L152.36,214.43L153.98,214.57L155.6,216.49L157.23,216.2L158.85,214.43L165.34,209.4L166.96,206.3L168.59,207.04L170.21,205.42L171.84,204.23L173.46,205.12L176.7,205.42L178.32,206.6L184.82,204.09L186.44,203.94L189.69,203.2L191.31,202.02L192.93,201.57L194.56,202.17L196.18,203.49L197.79,203.49L201.05,200.98L202.67,200.69L207.54,199.8L209.16,199.21L210.78,198.33L212.4,198.77L220.52,198.47L222.15,198.77L225.38,197.14L227.01,195.37L228.63,194.04L230.26,194.04L231.88,193.16L233.5,194.19L238.37,194.34L240,119.32L244.86,116.94L246.49,117.24L249.73,116.64L251.36,115.6L254.6,115.75L256.23,115.75L262.71,115L264.33,114.85L269.2,114.26L270.83,114.41L285.43,114.41L287.06,114.56L298.41,114.26L300.04,113.51L304.9,113.51L306.53,112.32L313.01,112.47L314.64,111.88L317.88,112.02L319.5,111.28L322.76,110.54L324.38,111.28L329.25,107.85L330.86,107.85L332.49,109.05L334.11,108.6L337.36,107.11L338.99,107.85L342.24,105.47L343.85,105.47L345.48,103.53L347.1,105.47L353.59,102.05L355.22,103.09L358.46,101.3L360.08,102.64L361.7,103.83L363.33,102.79L364.95,103.98L366.57,103.39L368.19,102.34L369.82,103.53L371.44,102.79L373.06,103.24L376.31,104.43L377.93,103.98L381.2,102.64L382.83,101.3L384.44,99.66L386.07,99.36L389.32,100.11L390.94,100.7L392.57,98.47L394.18,98.17L399.06,97.43L400.68,95.49L405.55,96.68L407.17,96.09L408.79,94.6L410.41,92.07L412.04,93.85L413.67,93.85L415.29,92.51L416.91,93.56L420.15,91.62L421.78,90.87L423.4,91.02L425.02,89.68L428.27,87.45L429.89,87.6L433.14,84.92L434.76,85.81L438,83.43L439.63,84.02L444.49,83.28L446.12,80.3L447.74,80.15L449.36,78.96L450.99,77.32L452.61,77.62L454.24,77.92L455.85,79.26L457.49,80L459.1,79.26L460.74,81.49L462.35,80.6L463.97,80.45L465.59,78.66L467.22,78.21L468.84,78.81L472.09,79.11L473.71,26.81L476.95,24.71L478.57,24.41L481.82,23.66L483.45,22.61L488.31,22.01L489.93,21.71L496.43,20.21L498.05,19.15L501.3,18.85L502.92,19.45L507.79,18.1L509.42,18.25L515.9,18.25L517.53,18.1L528.88,16.75L530.5,17.05L537,16" style="vector-effect: non-scaling-stroke; fill: none; stroke: rgb(99, 110, 250); stroke-opacity: 1; stroke-width: 2px; opacity: 1;"/></g><g class="points"/><g class="text"/></g></g></g><g class="overplot"/><path class="xlines-above crisp" d="M0,0" style="fill: none;"/><path class="ylines-above crisp" d="M0,0" style="fill: none;"/><g class="overlines-above"/><g class="xaxislayer-above"><g class="xtick"><text text-anchor="middle" x="0" y="433" transform="translate(86.06,0)" style="font-family: 'Open Sans', verdana, arial, sans-serif; font-size: 12px; fill: rgb(42, 63, 95); fill-opacity: 1; white-space: pre;"><tspan class="line" dy="0em" x="0" y="433">00:00</tspan><tspan class="line" dy="1.3em" x="0" y="433">Aug 3, 2021</tspan></text></g><g class="xtick"><text text-anchor="middle" x="0" y="433" transform="translate(202.91,0)" style="font-family: 'Open Sans', verdana, arial, sans-serif; font-size: 12px; fill: rgb(42, 63, 95); fill-opacity: 1; white-space: pre;">12:00</text></g><g class="xtick"><text text-anchor="middle" x="0" y="433" transform="translate(319.76,0)" style="font-family: 'Open Sans', verdana, arial, sans-serif; font-size: 12px; fill: rgb(42, 63, 95); fill-opacity: 1; white-space: pre;"><tspan class="line" dy="0em" x="0" y="433">00:00</tspan><tspan class="line" dy="1.3em" x="0" y="433">Aug 4, 2021</tspan></text></g><g class="xtick"><text text-anchor="middle" x="0" y="433" transform="translate(436.61,0)" style="font-family: 'Open Sans', verdana, arial, sans-serif; font-size: 12px; fill: rgb(42, 63, 95); fill-opacity: 1; white-space: pre;">12:00</text></g><g class="xtick"><text text-anchor="middle" x="0" y="433" transform="translate(553.45,0)" style="font-family: 'Open Sans', verdana, arial, sans-serif; font-size: 12px; fill: rgb(42, 63, 95); fill-opacity: 1; white-space: pre;"><tspan class="line" dy="0em" x="0" y="433">00:00</tspan><tspan class="line" dy="1.3em" x="0" y="433">Aug 5, 2021</tspan></text></g></g><g class="yaxislayer-above"><g class="ytick"><text text-anchor="end" x="79" y="4.199999999999999" transform="translate(0,390.92)" style="font-family: 'Open Sans', verdana, arial, sans-serif; font-size: 12px; fill: rgb(42, 63, 95); fill-opacity: 1; white-space: pre;">0.864</text></g><g class="ytick"><text text-anchor="end" x="79" y="4.199999999999999" transform="translate(0,342.08000000000004)" style="font-family: 'Open Sans', verdana, arial, sans-serif; font-size: 12px; fill: rgb(42, 63, 95); fill-opacity: 1; white-space: pre;">0.865</text></g><g class="ytick"><text text-anchor="end" x="79" y="4.199999999999999" transform="translate(0,293.23)" style="font-family: 'Open Sans', verdana, arial, sans-serif; font-size: 12px; fill: rgb(42, 63, 95); fill-opacity: 1; white-space: pre;">0.866</text></g><g class="ytick"><text text-anchor="end" x="79" y="4.199999999999999" transform="translate(0,244.38)" style="font-family: 'Open Sans', verdana, arial, sans-serif; font-size: 12px; fill: rgb(42, 63, 95); fill-opacity: 1; white-space: pre;">0.867</text></g><g class="ytick"><text text-anchor="end" x="79" y="4.199999999999999" transform="translate(0,195.53)" style="font-family: 'Open Sans', verdana, arial, sans-serif; font-size: 12px; fill: rgb(42, 63, 95); fill-opacity: 1; white-space: pre;">0.868</text></g><g class="ytick"><text text-anchor="end" x="79" y="4.199999999999999" transform="translate(0,146.68)" style="font-family: 'Open Sans', verdana, arial, sans-serif; font-size: 12px; fill: rgb(42, 63, 95); fill-opacity: 1; white-space: pre;">0.869</text></g></g><g class="overaxes-above"/></g></g><g class="polarlayer"/><g class="ternarylayer"/><g class="geolayer"/><g class="funnelarealayer"/><g class="pielayer"/><g class="treemaplayer"/><g class="sunburstlayer"/><g class="glimages"/><defs id="topdefs-d89a54"><g class="clips"/><clipPath id="legendd89a54"><rect width="60" height="45" x="0" y="0"/></clipPath></defs><g class="layer-above"><g class="imagelayer"/><g class="shapelayer"/></g><g class="infolayer"><g class="legend" pointer-events="all" transform="translate(627.74,100)"><rect class="bg" shape-rendering="crispEdges" width="60" height="45" x="0" y="0" style="stroke: rgb(68, 68, 68); stroke-opacity: 1; fill: rgb(255, 255, 255); fill-opacity: 1; stroke-width: 0px;"/><g class="scrollbox" transform="" clip-path="url('#legendd89a54')"><text class="legendtitletext" text-anchor="start" x="2" y="15.600000000000001" style="font-family: 'Open Sans', verdana, arial, sans-serif; font-size: 12px; fill: rgb(42, 63, 95); fill-opacity: 1; white-space: pre;">All</text><g class="groups" transform=""><g class="traces" transform="translate(0,30.1)" style="opacity: 1;"><text class="legendtext" text-anchor="start" x="40" y="4.680000000000001" style="font-family: 'Open Sans', verdana, arial, sans-serif; font-size: 12px; fill: rgb(42, 63, 95); fill-opacity: 1; white-space: pre;">All</text><g class="layers" style="opacity: 1;"><g class="legendfill"/><g class="legendlines"><path class="js-line" d="M5,0h30" style="fill: none; stroke: rgb(99, 110, 250); stroke-opacity: 1; stroke-width: 2px;"/></g><g class="legendsymbols"><g class="legendpoints"/></g></g><rect class="legendtoggle" x="0" y="-9.5" width="54.890625" height="19" style="fill: rgb(0, 0, 0); fill-opacity: 0;"/></g></g></g><rect class="scrollbar" rx="20" ry="3" width="0" height="0" x="0" y="0" style="fill: rgb(128, 139, 164); fill-opacity: 1;"/></g><g class="g-gtitle"><text class="gtitle" x="35" y="50" text-anchor="start" dy="0em" style="font-family: 'Open Sans', verdana, arial, sans-serif; font-size: 17px; fill: rgb(42, 63, 95); opacity: 1; font-weight: normal; white-space: pre;">Singapore Vaccination Centers</text></g><g class="g-xtitle"><text class="xtitle" x="348.5" y="476.409375" text-anchor="middle" style="font-family: 'Open Sans', verdana, arial, sans-serif; font-size: 14px; fill: rgb(42, 63, 95); opacity: 1; font-weight: normal; white-space: pre;">Time</text></g><g class="g-ytitle"><text class="ytitle" transform="rotate(-90,19.840625000000003,260)" x="19.840625000000003" y="260" text-anchor="middle" style="font-family: 'Open Sans', verdana, arial, sans-serif; font-size: 14px; fill: rgb(42, 63, 95); opacity: 1; font-weight: normal; white-space: pre;">Filled/%</text></g></g></svg>