<svg class="main-svg" xmlns="http://www.w3.org/2000/svg" xmlns:xlink="http://www.w3.org/1999/xlink" width="700" height="500" style="" viewBox="0 0 700 500"><rect x="0" y="0" width="700" height="500" style="fill: rgb(255, 255, 255); fill-opacity: 1;"/><defs id="defs-e7161e"><g class="clips"><clipPath id="clipe7161exyplot" class="plotclip"><rect width="537" height="320"/></clipPath><clipPath class="axesclip" id="clipe7161ex"><rect x="80" y="0" width="537" height="500"/></clipPath><clipPath class="axesclip" id="clipe7161ey"><rect x="0" y="100" width="700" height="320"/></clipPath><clipPath class="axesclip" id="clipe7161exy"><rect x="80" y="100" width="537" height="320"/></clipPath></g><g class="gradients"/></defs><g class="bglayer"><rect class="bg" x="80" y="100" width="537" height="320" style="fill: rgb(229, 236, 246); fill-opacity: 1; stroke-width: 0;"/></g><g class="layer-below"><g class="imagelayer"/><g class="shapelayer"/></g><g class="cartesianlayer"><g class="subplot xy"><g class="layer-subplot"><g class="shapelayer"/><g class="imagelayer"/></g><g class="gridlayer"><g class="x"><path class="xgrid crisp" transform="translate(87.14,0)" d="M0,100v320" style="stroke: rgb(255, 255, 255); stroke-opacity: 1; stroke-width: 1px;"/><path class="xgrid crisp" transform="translate(224.79,0)" d="M0,100v320" style="stroke: rgb(255, 255, 255); stroke-opacity: 1; stroke-width: 1px;"/><path class="xgrid crisp" transform="translate(362.44,0)" d="M0,100v320" style="stroke: rgb(255, 255, 255); stroke-opacity: 1; stroke-width: 1px;"/><path class="xgrid crisp" transform="translate(500.08,0)" d="M0,100v320" style="stroke: rgb(255, 255, 255); stroke-opacity: 1; stroke-width: 1px;"/></g><g class="y"><path class="ygrid crisp" transform="translate(0,387.39)" d="M80,0h537" style="stroke: rgb(255, 255, 255); stroke-opacity: 1; stroke-width: 1px;"/><path class="ygrid crisp" transform="translate(0,325.32)" d="M80,0h537" style="stroke: rgb(255, 255, 255); stroke-opacity: 1; stroke-width: 1px;"/><path class="ygrid crisp" transform="translate(0,263.26)" d="M80,0h537" style="stroke: rgb(255, 255, 255); stroke-opacity: 1; stroke-width: 1px;"/><path class="ygrid crisp" transform="translate(0,201.2)" d="M80,0h537" style="stroke: rgb(255, 255, 255); stroke-opacity: 1; stroke-width: 1px;"/><path class="ygrid crisp" transform="translate(0,139.13)" d="M80,0h537" style="stroke: rgb(255, 255, 255); stroke-opacity: 1; stroke-width: 1px;"/></g></g><g class="zerolinelayer"/><path class="xlines-below"/><path class="ylines-below"/><g class="overlines-below"/><g class="xaxislayer-below"/><g class="yaxislayer-below"/><g class="overaxes-below"/><g class="plot" transform="translate(80,100)" clip-path="url('#clipe7161exyplot')"><g class="scatterlayer mlayer"><g class="trace scatter trace86a26e" style="stroke-miterlimit: 2; opacity: 1;"><g class="fills"/><g class="errorbars"/><g class="lines"><path class="js-line" d="M0,304L1.69,303.44L3.6,301.95L5.51,301.95L7.43,225.29L9.34,227.16L11.25,224.72L16.98,224.35L18.89,223.78L20.8,223.22L22.71,223.78L24.63,224.35L26.55,223.03L28.5,223.97L30.37,223.6L32.28,223.03L34.18,223.41L38.01,222.28L39.93,222.66L43.75,221.53L45.66,221.53L49.48,221.53L51.39,221.53L55.22,221.72L57.13,221.16L64.77,220.78L66.69,220.97L70.51,220.22L72.43,220.03L74.34,219.47L76.26,219.84L78.16,219.66L80.07,218.72L83.89,218.53L85.8,217.59L87.72,218.34L89.63,217.78L91.53,216.47L93.45,216.84L95.36,217.78L97.28,215.53L101.1,214.4L103,214.21L104.92,214.96L106.83,214.4L108.74,215.72L110.65,214.4L112.57,211.4L114.47,212.15L116.39,212.15L118.3,210.84L120.22,210.09L122.12,210.27L127.86,206.71L129.77,208.21L131.67,208.58L133.6,206.9L135.5,203.89L137.42,204.64L139.33,206.14L141.24,203.89L143.16,201.45L145.06,200.51L148.89,198.64L150.81,197.51L152.71,198.26L154.62,197.14L156.53,196.57L158.45,196.95L160.36,199.2L162.27,196.01L164.19,196.57L166.1,196.2L168.01,197.51L169.92,196.95L173.75,191.51L175.66,190.94L177.57,192.07L179.48,190.19L181.39,190.38L183.3,192.82L185.21,192.45L187.13,190.19L189.03,188.88L190.96,186.63L192.87,185.69L194.77,183.81L196.68,179.87L198.6,180.81L202.42,177.25L204.33,178.37L208.15,178.75L210.06,180.25L217.72,177.06L219.62,176.87L223.45,175.93L225.37,174.43L227.27,173.87L229.19,174.62L231.1,176.31L233,176.31L234.91,174.05L236.83,173.12L246.39,170.86L248.3,169.74L254.04,170.86L255.94,170.3L259.78,169.93L261.69,170.3L265.5,168.24L267.42,165.99L269.33,164.3L271.24,164.3L273.16,163.17L275.07,164.48L276.97,164.67L278.89,163.92L280.8,164.67L282.72,69.37L288.45,66.34L290.37,66.72L294.19,65.96L296.1,64.63L298.01,64.26L299.92,64.82L307.57,64.07L309.48,63.88L319.04,63.12L320.95,63.12L328.6,62.17L330.52,62.74L340.07,63.31L341.99,63.12L351.53,62.93L353.45,61.98L359.18,61.98L361.09,60.47L366.83,61.42L368.73,60.66L370.65,59.9L372.56,60.28L378.29,58.96L380.22,58.2L382.12,59.15L384.03,57.63L387.85,54.79L389.76,54.79L391.68,56.31L393.58,55.74L397.42,53.85L399.33,54.79L403.16,51.77L405.05,51.77L406.97,49.31L408.88,51.77L416.53,47.41L418.45,48.74L422.27,46.47L424.17,48.17L426.09,49.68L428,48.36L429.92,49.87L431.83,49.12L433.73,47.79L435.65,49.31L437.56,48.36L439.47,48.93L443.3,50.44L445.21,49.87L449.06,48.17L450.98,46.47L452.88,44.39L454.79,44.01L458.62,44.95L460.53,45.71L462.44,42.87L464.35,42.49L470.09,41.55L472.01,39.09L477.74,40.6L479.65,39.84L481.56,37.95L483.47,34.73L485.39,37.01L487.31,37.01L489.21,35.3L491.12,36.63L493.03,35.87L494.94,34.17L496.86,33.22L498.77,33.41L504.51,28.87L506.42,29.06L510.24,25.65L512.15,26.79L515.97,23.76L517.89,24.52L523.62,23.57L525.53,19.78L527.44,19.6L529.34,18.08L531.27,16L533.18,16.38L535.09,16.76L537,18.46" style="vector-effect: non-scaling-stroke; fill: none; stroke: rgb(99, 110, 250); stroke-opacity: 1; stroke-width: 2px; opacity: 1;"/></g><g class="points"/><g class="text"/></g></g></g><g class="overplot"/><path class="xlines-above crisp" d="M0,0" style="fill: none;"/><path class="ylines-above crisp" d="M0,0" style="fill: none;"/><g class="overlines-above"/><g class="xaxislayer-above"><g class="xtick"><text text-anchor="middle" x="0" y="433" transform="translate(87.14,0)" style="font-family: 'Open Sans', verdana, arial, sans-serif; font-size: 12px; fill: rgb(42, 63, 95); fill-opacity: 1; white-space: pre;"><tspan class="line" dy="0em" x="0" y="433">00:00</tspan><tspan class="line" dy="1.3em" x="0" y="433">Aug 3, 2021</tspan></text></g><g class="xtick"><text text-anchor="middle" x="0" y="433" transform="translate(224.79,0)" style="font-family: 'Open Sans', verdana, arial, sans-serif; font-size: 12px; fill: rgb(42, 63, 95); fill-opacity: 1; white-space: pre;">12:00</text></g><g class="xtick"><text text-anchor="middle" x="0" y="433" transform="translate(362.44,0)" style="font-family: 'Open Sans', verdana, arial, sans-serif; font-size: 12px; fill: rgb(42, 63, 95); fill-opacity: 1; white-space: pre;"><tspan class="line" dy="0em" x="0" y="433">00:00</tspan><tspan class="line" dy="1.3em" x="0" y="433">Aug 4, 2021</tspan></text></g><g class="xtick"><text text-anchor="middle" x="0" y="433" transform="translate(500.08,0)" style="font-family: 'Open Sans', verdana, arial, sans-serif; font-size: 12px; fill: rgb(42, 63, 95); fill-opacity: 1; white-space: pre;">12:00</text></g></g><g class="yaxislayer-above"><g class="ytick"><text text-anchor="end" x="79" y="4.199999999999999" transform="translate(0,387.39)" style="font-family: 'Open Sans', verdana, arial, sans-serif; font-size: 12px; fill: rgb(42, 63, 95); fill-opacity: 1; white-space: pre;">0.864</text></g><g class="ytick"><text text-anchor="end" x="79" y="4.199999999999999" transform="translate(0,325.32)" style="font-family: 'Open Sans', verdana, arial, sans-serif; font-size: 12px; fill: rgb(42, 63, 95); fill-opacity: 1; white-space: pre;">0.865</text></g><g class="ytick"><text text-anchor="end" x="79" y="4.199999999999999" transform="translate(0,263.26)" style="font-family: 'Open Sans', verdana, arial, sans-serif; font-size: 12px; fill: rgb(42, 63, 95); fill-opacity: 1; white-space: pre;">0.866</text></g><g class="ytick"><text text-anchor="end" x="79" y="4.199999999999999" transform="translate(0,201.2)" style="font-family: 'Open Sans', verdana, arial, sans-serif; font-size: 12px; fill: rgb(42, 63, 95); fill-opacity: 1; white-space: pre;">0.867</text></g><g class="ytick"><text text-anchor="end" x="79" y="4.199999999999999" transform="translate(0,139.13)" style="font-family: 'Open Sans', verdana, arial, sans-serif; font-size: 12px; fill: rgb(42, 63, 95); fill-opacity: 1; white-space: pre;">0.868</text></g></g><g class="overaxes-above"/></g></g><g class="polarlayer"/><g class="ternarylayer"/><g class="geolayer"/><g class="funnelarealayer"/><g class="pielayer"/><g class="treemaplayer"/><g class="sunburstlayer"/><g class="glimages"/><defs id="topdefs-e7161e"><g class="clips"/><clipPath id="legende7161e"><rect width="60" height="45" x="0" y="0"/></clipPath></defs><g class="layer-above"><g class="imagelayer"/><g class="shapelayer"/></g><g class="infolayer"><g class="legend" pointer-events="all" transform="translate(627.74,100)"><rect class="bg" shape-rendering="crispEdges" width="60" height="45" x="0" y="0" style="stroke: rgb(68, 68, 68); stroke-opacity: 1; fill: rgb(255, 255, 255); fill-opacity: 1; stroke-width: 0px;"/><g class="scrollbox" transform="" clip-path="url('#legende7161e')"><text class="legendtitletext" text-anchor="start" x="2" y="15.600000000000001" style="font-family: 'Open Sans', verdana, arial, sans-serif; font-size: 12px; fill: rgb(42, 63, 95); fill-opacity: 1; white-space: pre;">All</text><g class="groups" transform=""><g class="traces" transform="translate(0,30.1)" style="opacity: 1;"><text class="legendtext" text-anchor="start" x="40" y="4.680000000000001" style="font-family: 'Open Sans', verdana, arial, sans-serif; font-size: 12px; fill: rgb(42, 63, 95); fill-opacity: 1; white-space: pre;">All</text><g class="layers" style="opacity: 1;"><g class="legendfill"/><g class="legendlines"><path class="js-line" d="M5,0h30" style="fill: none; stroke: rgb(99, 110, 250); stroke-opacity: 1; stroke-width: 2px;"/></g><g class="legendsymbols"><g class="legendpoints"/></g></g><rect class="legendtoggle" x="0" y="-9.5" width="54.890625" height="19" style="fill: rgb(0, 0, 0); fill-opacity: 0;"/></g></g></g><rect class="scrollbar" rx="20" ry="3" width="0" height="0" x="0" y="0" style="fill: rgb(128, 139, 164); fill-opacity: 1;"/></g><g class="g-gtitle"><text class="gtitle" x="35" y="50" text-anchor="start" dy="0em" style="font-family: 'Open Sans', verdana, arial, sans-serif; font-size: 17px; fill: rgb(42, 63, 95); opacity: 1; font-weight: normal; white-space: pre;">Singapore Vaccination Centers</text></g><g class="g-xtitle"><text class="xtitle" x="348.5" y="476.409375" text-anchor="middle" style="font-family: 'Open Sans', verdana, arial, sans-serif; font-size: 14px; fill: rgb(42, 63, 95); opacity: 1; font-weight: normal; white-space: pre;">Time</text></g><g class="g-ytitle"><text class="ytitle" transform="rotate(-90,19.840625000000003,260)" x="19.840625000000003" y="260" text-anchor="middle" style="font-family: 'Open Sans', verdana, arial, sans-serif; font-size: 14px; fill: rgb(42, 63, 95); opacity: 1; font-weight: normal; white-space: pre;">Filled/%</text></g></g></svg>