<svg class="main-svg" xmlns="http://www.w3.org/2000/svg" xmlns:xlink="http://www.w3.org/1999/xlink" width="700" height="500" style="" viewBox="0 0 700 500"><rect x="0" y="0" width="700" height="500" style="fill: rgb(255, 255, 255); fill-opacity: 1;"/><defs id="defs-37935f"><g class="clips"><clipPath id="clip37935fxyplot" class="plotclip"><rect width="537" height="320"/></clipPath><clipPath class="axesclip" id="clip37935fx"><rect x="80" y="0" width="537" height="500"/></clipPath><clipPath class="axesclip" id="clip37935fy"><rect x="0" y="100" width="700" height="320"/></clipPath><clipPath class="axesclip" id="clip37935fxy"><rect x="80" y="100" width="537" height="320"/></clipPath></g><g class="gradients"/></defs><g class="bglayer"><rect class="bg" x="80" y="100" width="537" height="320" style="fill: rgb(229, 236, 246); fill-opacity: 1; stroke-width: 0;"/></g><g class="layer-below"><g class="imagelayer"/><g class="shapelayer"/></g><g class="cartesianlayer"><g class="subplot xy"><g class="layer-subplot"><g class="shapelayer"/><g class="imagelayer"/></g><g class="gridlayer"><g class="x"><path class="xgrid crisp" transform="translate(82.01,0)" d="M0,100v320" style="stroke: rgb(255, 255, 255); stroke-opacity: 1; stroke-width: 1px;"/><path class="xgrid crisp" transform="translate(159.5,0)" d="M0,100v320" style="stroke: rgb(255, 255, 255); stroke-opacity: 1; stroke-width: 1px;"/><path class="xgrid crisp" transform="translate(236.99,0)" d="M0,100v320" style="stroke: rgb(255, 255, 255); stroke-opacity: 1; stroke-width: 1px;"/><path class="xgrid crisp" transform="translate(314.48,0)" d="M0,100v320" style="stroke: rgb(255, 255, 255); stroke-opacity: 1; stroke-width: 1px;"/><path class="xgrid crisp" transform="translate(391.98,0)" d="M0,100v320" style="stroke: rgb(255, 255, 255); stroke-opacity: 1; stroke-width: 1px;"/><path class="xgrid crisp" transform="translate(469.47,0)" d="M0,100v320" style="stroke: rgb(255, 255, 255); stroke-opacity: 1; stroke-width: 1px;"/><path class="xgrid crisp" transform="translate(546.96,0)" d="M0,100v320" style="stroke: rgb(255, 255, 255); stroke-opacity: 1; stroke-width: 1px;"/></g><g class="y"><path class="ygrid crisp" transform="translate(0,394.19)" d="M80,0h537" style="stroke: rgb(255, 255, 255); stroke-opacity: 1; stroke-width: 1px;"/><path class="ygrid crisp" transform="translate(0,357.54)" d="M80,0h537" style="stroke: rgb(255, 255, 255); stroke-opacity: 1; stroke-width: 1px;"/><path class="ygrid crisp" transform="translate(0,320.88)" d="M80,0h537" style="stroke: rgb(255, 255, 255); stroke-opacity: 1; stroke-width: 1px;"/><path class="ygrid crisp" transform="translate(0,284.23)" d="M80,0h537" style="stroke: rgb(255, 255, 255); stroke-opacity: 1; stroke-width: 1px;"/><path class="ygrid crisp" transform="translate(0,247.58)" d="M80,0h537" style="stroke: rgb(255, 255, 255); stroke-opacity: 1; stroke-width: 1px;"/><path class="ygrid crisp" transform="translate(0,210.92000000000002)" d="M80,0h537" style="stroke: rgb(255, 255, 255); stroke-opacity: 1; stroke-width: 1px;"/><path class="ygrid crisp" transform="translate(0,174.26999999999998)" d="M80,0h537" style="stroke: rgb(255, 255, 255); stroke-opacity: 1; stroke-width: 1px;"/><path class="ygrid crisp" transform="translate(0,137.62)" d="M80,0h537" style="stroke: rgb(255, 255, 255); stroke-opacity: 1; stroke-width: 1px;"/></g></g><g class="zerolinelayer"/><path class="xlines-below"/><path class="ylines-below"/><g class="overlines-below"/><g class="xaxislayer-below"/><g class="yaxislayer-below"/><g class="overaxes-below"/><g class="plot" transform="translate(80,100)" clip-path="url('#clip37935fxyplot')"><g class="scatterlayer mlayer"><g class="trace scatter tracecd0706" style="stroke-miterlimit: 2; opacity: 1;"><g class="fills"/><g class="errorbars"/><g class="lines"><path class="js-line" d="M0,304L1.55,302.79L2.09,257.51L2.63,258.62L3.17,257.18L5.32,256.63L5.86,256.29L6.93,256.96L7.47,256.18L8.55,256.52L9.09,256.18L10.16,255.96L10.7,255.74L11.78,255.52L12.32,255.3L19.31,254.96L19.85,254.52L23.61,253.52L24.15,252.97L25.23,253.08L25.77,252.3L26.84,253.08L27.38,251.75L28.99,250.97L29.53,251.42L30.07,251.09L30.61,251.86L31.69,249.31L32.22,249.76L32.76,249.76L34.38,248.65L34.91,247.98L35.99,246.54L36.53,247.43L37.06,247.65L37.61,246.65L38.14,244.88L38.68,245.32L39.22,246.21L41.37,242.55L41.91,241.78L43.52,240.89L44.06,240.56L44.6,240.78L45.14,242.11L45.68,240.22L46.22,240.56L46.75,240.34L47.83,240.78L48.37,239.01L49.45,237.23L49.98,237.9L51.06,236.9L51.6,238.34L52.14,238.12L52.67,236.79L54.83,233.02L55.36,230.69L55.9,231.25L56.44,230.03L56.98,229.14L57.52,229.81L58.59,230.03L59.13,230.91L61.82,228.92L62.36,228.7L64.51,227.59L65.05,228.59L65.59,228.59L66.13,227.26L68.28,225.93L68.82,225.82L70.43,225.04L70.97,224.93L72.04,225.04L72.59,224.71L74.2,224.6L74.74,223.82L76.35,221.49L76.89,220.83L77.96,221.72L78.5,221.27L79.04,221.72L79.58,165.43L81.73,163.87L82.27,163.75L84.42,162.75L84.96,162.75L87.65,162.08L88.19,161.74L92.5,161.18L93.04,161.52L97.34,161.74L97.88,161.63L102.18,160.29L102.72,160.62L103.79,160.29L104.33,159.84L105.41,159.95L105.95,159.4L107.56,159.4L108.1,158.5L109.71,156.83L110.25,157.72L111.87,156.27L112.41,156.83L114.56,153.58L115.1,155.04L117.25,152.47L117.79,153.25L118.86,151.91L119.4,152.91L119.94,153.81L120.48,153.03L121.02,153.92L121.55,153.47L122.09,152.69L122.63,153.58L123.17,153.03L123.7,153.36L125.32,153.92L125.86,153.58L128.02,150.45L128.55,150.57L129.63,151.46L130.17,149.78L132.33,149L132.86,147.55L135.02,148L135.55,146.88L136.09,144.98L136.63,146.32L137.17,146.32L137.71,145.31L138.24,146.1L138.78,145.65L139.32,144.64L143.09,140.73L143.63,139.61L144.16,140.28L144.7,139.5L145.24,138.5L145.78,138.94L146.32,138.61L147.39,138.38L147.93,136.15L148.47,136.04L149,135.14L150.08,134.14L150.62,134.36L151.7,135.93L152.24,135.37L152.78,137.04L153.31,136.37L153.85,136.26L154.93,134.59L155.46,135.03L156.54,135.26L157.08,96.02L158.69,94.22L159.23,93.99L164.07,91.17L164.61,91.06L165.69,90.05L166.23,90.05L167.3,90.16L167.84,89.59L179.68,87.9L180.22,88.24L181.83,87.34L182.37,87.45L182.91,87.68L183.44,87L186.67,86.44L187.75,85.99L188.29,84.86L189.36,84.52L190.44,84.18L190.98,82.72L191.52,83.73L192.06,82.72L193.13,82.72L193.67,82.16L194.21,82.04L194.74,81.03L196.36,80.8L196.9,79.45L199.03,76.18L199.57,76.75L201.18,75.84L201.72,74.38L203.88,73.82L204.41,72.12L205.49,72.01L206.03,71.9L208.72,69.76L209.26,69.98L210.87,71.79L211.41,70.21L212.49,71.22L213.03,69.53L214.1,69.65L214.64,69.98L216.79,68.74L217.33,68.29L220.02,63.45L220.56,64.69L221.64,63.11L222.17,62.88L222.71,61.76L223.25,62.09L223.79,62.21L224.33,62.21L224.86,61.31L225.4,61.76L225.94,60.4L227.01,60.29L227.55,59.39L229.71,59.73L230.24,58.94L231.32,58.83L231.86,58.94L232.94,57.25L233.47,57.81L234.01,57.59L234.55,190.74L238.86,190.39L239.39,190.04L239.93,190.04L240.47,189.1L246.93,187.93L247.47,188.05L253.38,187.35L253.92,187.23L257.69,186.29L258.22,186.53L259.84,185.59L260.38,185.01L263.07,184.07L263.61,182.9L265.78,182.67L266.32,183.72L267.39,182.08L267.93,181.97L268.47,181.38L269.01,179.27L269.54,177.64L270.08,177.87L270.62,177.29L271.16,175.77L271.7,176.23L272.23,175.65L273.31,175.77L273.85,174.95L274.93,174.36L275.47,175.18L277.08,172.84L277.62,173.66L279.23,171.32L279.77,171.32L280.31,170.62L280.85,171.55L281.92,172.37L282.46,171.55L283,171.67L283.54,170.97L286.23,167.34L286.77,166.87L287.84,166.52L288.38,167.81L291.61,165.12L292.15,166.64L293.23,148.04L293.76,147.69L294.84,147.11L295.38,143.01L295.91,143.13L296.45,139.74L296.99,139.97L297.53,137.75L298.07,135.17L298.61,135.99L299.14,134.47L299.68,133.3L300.22,130.26L301.3,127.57L301.84,127.1L304.52,120.08L305.06,120.08L306.68,116.92L307.22,116.11L311.52,107.8L312.06,119.31L314.75,115.54L315.29,115.89L315.83,115.77L316.36,116.48L317.44,116.13L317.98,116.72L319.59,115.89L320.13,116.01L321.21,115.54L321.75,115.66L329.28,115.07L329.82,114.71L334.12,115.18L334.66,114.95L337.89,114.83L338.43,114.36L340.04,112L340.58,112.23L342.19,111.06L342.73,111.17L343.27,110.82L343.81,109.4L344.88,109.64L345.42,108.34L348.11,105.63L348.65,105.98L350.26,103.03L350.8,102.68L352.42,100.44L352.96,100.44L354.03,98.19L354.57,98.19L355.65,96.54L356.19,94.65L358.34,90.17L358.88,89.82L359.41,89.46L359.95,87.58L362.11,85.92L362.64,84.51L365.87,83.68L366.41,82.74L366.95,83.09L367.49,82.5L368.03,82.86L372.33,78.84L375.02,76.6L375.56,77.19L377.71,74.36L378.25,74.24L378.79,73.06L379.33,73.53L379.86,72.94L380.94,72.83L381.48,73.77L383.09,72.59L383.63,72.35L384.17,71.76L384.71,72.59L386.86,72L387.4,71.06L389.01,69.05L389.55,113.16L390.63,113.52L391.17,112.56L391.7,111.96L392.24,112.44L392.8,112.32L393.86,112.44L394.39,113.28L396.55,113.04L397.09,113.16L398.7,113.28L399.24,113.28L401.93,111.96L402.47,112.32L408.39,111.72L408.92,111.72L415.38,111.36L415.92,111L417.53,111L418.07,110.64L419.15,110.16L419.68,109.32L420.76,108.96L421.3,107.75L421.84,106.55L422.38,107.75L424.53,106.91L425.07,106.91L426.14,105.11L426.68,104.87L428.3,102.35L428.83,102.23L430.45,101.86L430.98,101.14L432.06,100.54L432.6,100.66L433.68,99.34L434.21,98.74L436.37,97.9L436.91,98.26L437.44,97.78L437.98,98.38L439.06,95.37L439.6,95.62L440.14,95.62L441.75,95.13L442.29,94.05L445.52,92.13L446.06,91.77L447.13,91.41L447.67,91.05L450.36,88.76L450.9,89.13L454.66,87.32L455.2,86.36L456.82,84.2L457.36,83.48L457.89,83.72L458.43,82.15L459.51,80.47L460.04,81.07L465.43,77.95L465.97,77.95L466.5,78.19L467.04,48.85L471.35,45.7L471.88,45.82L477.27,45.95L477.81,46.31L480.5,45.7L481.03,45.7L484.8,45.58L485.34,45.7L490.2,45.34L490.72,45.58L491.8,45.7L492.33,45.46L493.95,45.58L494.49,44.73L495.56,45.7L496.1,44.98L497.72,43.76L498.25,43.04L499.33,43.4L499.87,42.31L500.94,41.7L501.48,41.94L502.02,41.22L502.56,39.16L503.1,39.16L503.63,38.19L504.17,38.79L504.71,38.06L505.79,36.61L506.32,35.16L506.86,34.55L507.4,35.52L508.48,32.97L509.01,33.22L510.09,31.76L510.63,31.88L513.86,30.43L514.4,30.55L515.48,29.94L516.01,28.97L517.63,29.7L518.17,28.37L519.78,28L520.32,28.12L521.93,24.49L522.47,24.85L523.01,24.49L525.16,22.55L525.7,23.03L526.24,23.03L526.77,21.94L527.31,21.82L527.85,20.49L528.39,20.73L528.93,20.12L529.47,20.73L530,20L531.08,18.3L531.62,17.94L532.16,17.7L532.7,18.42L534.85,17.94L535.38,16L537,17.58" style="vector-effect: non-scaling-stroke; fill: none; stroke: rgb(99, 110, 250); stroke-opacity: 1; stroke-width: 2px; opacity: 1;"/></g><g class="points"/><g class="text"/></g></g></g><g class="overplot"/><path class="xlines-above crisp" d="M0,0" style="fill: none;"/><path class="ylines-above crisp" d="M0,0" style="fill: none;"/><g class="overlines-above"/><g class="xaxislayer-above"><g class="xtick"><text text-anchor="middle" x="0" y="433" transform="translate(82.01,0)" style="font-family: 'Open Sans', verdana, arial, sans-serif; font-size: 12px; fill: rgb(42, 63, 95); fill-opacity: 1; white-space: pre;"><tspan class="line" dy="0em" x="0" y="433">Aug 3</tspan><tspan class="line" dy="1.3em" x="0" y="433">2021</tspan></text></g><g class="xtick"><text text-anchor="middle" x="0" y="433" transform="translate(159.5,0)" style="font-family: 'Open Sans', verdana, arial, sans-serif; font-size: 12px; fill: rgb(42, 63, 95); fill-opacity: 1; white-space: pre;">Aug 4</text></g><g class="xtick"><text text-anchor="middle" x="0" y="433" transform="translate(236.99,0)" style="font-family: 'Open Sans', verdana, arial, sans-serif; font-size: 12px; fill: rgb(42, 63, 95); fill-opacity: 1; white-space: pre;">Aug 5</text></g><g class="xtick"><text text-anchor="middle" x="0" y="433" transform="translate(314.48,0)" style="font-family: 'Open Sans', verdana, arial, sans-serif; font-size: 12px; fill: rgb(42, 63, 95); fill-opacity: 1; white-space: pre;">Aug 6</text></g><g class="xtick"><text text-anchor="middle" x="0" y="433" transform="translate(391.98,0)" style="font-family: 'Open Sans', verdana, arial, sans-serif; font-size: 12px; fill: rgb(42, 63, 95); fill-opacity: 1; white-space: pre;">Aug 7</text></g><g class="xtick"><text text-anchor="middle" x="0" y="433" transform="translate(469.47,0)" style="font-family: 'Open Sans', verdana, arial, sans-serif; font-size: 12px; fill: rgb(42, 63, 95); fill-opacity: 1; white-space: pre;">Aug 8</text></g><g class="xtick"><text text-anchor="middle" x="0" y="433" transform="translate(546.96,0)" style="font-family: 'Open Sans', verdana, arial, sans-serif; font-size: 12px; fill: rgb(42, 63, 95); fill-opacity: 1; white-space: pre;">Aug 9</text></g></g><g class="yaxislayer-above"><g class="ytick"><text text-anchor="end" x="79" y="4.199999999999999" transform="translate(0,394.19)" style="font-family: 'Open Sans', verdana, arial, sans-serif; font-size: 12px; fill: rgb(42, 63, 95); fill-opacity: 1; white-space: pre;">0.864</text></g><g class="ytick"><text text-anchor="end" x="79" y="4.199999999999999" transform="translate(0,357.54)" style="font-family: 'Open Sans', verdana, arial, sans-serif; font-size: 12px; fill: rgb(42, 63, 95); fill-opacity: 1; white-space: pre;">0.865</text></g><g class="ytick"><text text-anchor="end" x="79" y="4.199999999999999" transform="translate(0,320.88)" style="font-family: 'Open Sans', verdana, arial, sans-serif; font-size: 12px; fill: rgb(42, 63, 95); fill-opacity: 1; white-space: pre;">0.866</text></g><g class="ytick"><text text-anchor="end" x="79" y="4.199999999999999" transform="translate(0,284.23)" style="font-family: 'Open Sans', verdana, arial, sans-serif; font-size: 12px; fill: rgb(42, 63, 95); fill-opacity: 1; white-space: pre;">0.867</text></g><g class="ytick"><text text-anchor="end" x="79" y="4.199999999999999" transform="translate(0,247.58)" style="font-family: 'Open Sans', verdana, arial, sans-serif; font-size: 12px; fill: rgb(42, 63, 95); fill-opacity: 1; white-space: pre;">0.868</text></g><g class="ytick"><text text-anchor="end" x="79" y="4.199999999999999" transform="translate(0,210.92000000000002)" style="font-family: 'Open Sans', verdana, arial, sans-serif; font-size: 12px; fill: rgb(42, 63, 95); fill-opacity: 1; white-space: pre;">0.869</text></g><g class="ytick"><text text-anchor="end" x="79" y="4.199999999999999" transform="translate(0,174.26999999999998)" style="font-family: 'Open Sans', verdana, arial, sans-serif; font-size: 12px; fill: rgb(42, 63, 95); fill-opacity: 1; white-space: pre;">0.87</text></g><g class="ytick"><text text-anchor="end" x="79" y="4.199999999999999" transform="translate(0,137.62)" style="font-family: 'Open Sans', verdana, arial, sans-serif; font-size: 12px; fill: rgb(42, 63, 95); fill-opacity: 1; white-space: pre;">0.871</text></g><g class="ytick"><text text-anchor="end" x="79" y="4.199999999999999" transform="translate(0,100.96)" style="font-family: 'Open Sans', verdana, arial, sans-serif; font-size: 12px; fill: rgb(42, 63, 95); fill-opacity: 1; white-space: pre;">0.872</text></g></g><g class="overaxes-above"/></g></g><g class="polarlayer"/><g class="ternarylayer"/><g class="geolayer"/><g class="funnelarealayer"/><g class="pielayer"/><g class="treemaplayer"/><g class="sunburstlayer"/><g class="glimages"/><defs id="topdefs-37935f"><g class="clips"/><clipPath id="legend37935f"><rect width="60" height="45" x="0" y="0"/></clipPath></defs><g class="layer-above"><g class="imagelayer"/><g class="shapelayer"/></g><g class="infolayer"><g class="legend" pointer-events="all" transform="translate(627.74,100)"><rect class="bg" shape-rendering="crispEdges" width="60" height="45" x="0" y="0" style="stroke: rgb(68, 68, 68); stroke-opacity: 1; fill: rgb(255, 255, 255); fill-opacity: 1; stroke-width: 0px;"/><g class="scrollbox" transform="" clip-path="url('#legend37935f')"><text class="legendtitletext" text-anchor="start" x="2" y="15.600000000000001" style="font-family: 'Open Sans', verdana, arial, sans-serif; font-size: 12px; fill: rgb(42, 63, 95); fill-opacity: 1; white-space: pre;">All</text><g class="groups" transform=""><g class="traces" transform="translate(0,30.1)" style="opacity: 1;"><text class="legendtext" text-anchor="start" x="40" y="4.680000000000001" style="font-family: 'Open Sans', verdana, arial, sans-serif; font-size: 12px; fill: rgb(42, 63, 95); fill-opacity: 1; white-space: pre;">All</text><g class="layers" style="opacity: 1;"><g class="legendfill"/><g class="legendlines"><path class="js-line" d="M5,0h30" style="fill: none; stroke: rgb(99, 110, 250); stroke-opacity: 1; stroke-width: 2px;"/></g><g class="legendsymbols"><g class="legendpoints"/></g></g><rect class="legendtoggle" x="0" y="-9.5" width="54.890625" height="19" style="fill: rgb(0, 0, 0); fill-opacity: 0;"/></g></g></g><rect class="scrollbar" rx="20" ry="3" width="0" height="0" x="0" y="0" style="fill: rgb(128, 139, 164); fill-opacity: 1;"/></g><g class="g-gtitle"><text class="gtitle" x="35" y="50" text-anchor="start" dy="0em" style="font-family: 'Open Sans', verdana, arial, sans-serif; font-size: 17px; fill: rgb(42, 63, 95); opacity: 1; font-weight: normal; white-space: pre;">Singapore Vaccination Centers</text></g><g class="g-xtitle"><text class="xtitle" x="348.5" y="476.409375" text-anchor="middle" style="font-family: 'Open Sans', verdana, arial, sans-serif; font-size: 14px; fill: rgb(42, 63, 95); opacity: 1; font-weight: normal; white-space: pre;">Time</text></g><g class="g-ytitle"><text class="ytitle" transform="rotate(-90,19.840625000000003,260)" x="19.840625000000003" y="260" text-anchor="middle" style="font-family: 'Open Sans', verdana, arial, sans-serif; font-size: 14px; fill: rgb(42, 63, 95); opacity: 1; font-weight: normal; white-space: pre;">Filled/%</text></g></g></svg>