<svg class="main-svg" xmlns="http://www.w3.org/2000/svg" xmlns:xlink="http://www.w3.org/1999/xlink" width="700" height="500" style="" viewBox="0 0 700 500"><rect x="0" y="0" width="700" height="500" style="fill: rgb(255, 255, 255); fill-opacity: 1;"/><defs id="defs-6d1d2c"><g class="clips"><clipPath id="clip6d1d2cxyplot" class="plotclip"><rect width="537" height="320"/></clipPath><clipPath class="axesclip" id="clip6d1d2cx"><rect x="80" y="0" width="537" height="500"/></clipPath><clipPath class="axesclip" id="clip6d1d2cy"><rect x="0" y="100" width="700" height="320"/></clipPath><clipPath class="axesclip" id="clip6d1d2cxy"><rect x="80" y="100" width="537" height="320"/></clipPath></g><g class="gradients"/></defs><g class="bglayer"><rect class="bg" x="80" y="100" width="537" height="320" style="fill: rgb(229, 236, 246); fill-opacity: 1; stroke-width: 0;"/></g><g class="layer-below"><g class="imagelayer"/><g class="shapelayer"/></g><g class="cartesianlayer"><g class="subplot xy"><g class="layer-subplot"><g class="shapelayer"/><g class="imagelayer"/></g><g class="gridlayer"><g class="x"><path class="xgrid crisp" transform="translate(84.16,0)" d="M0,100v320" style="stroke: rgb(255, 255, 255); stroke-opacity: 1; stroke-width: 1px;"/><path class="xgrid crisp" transform="translate(164.23000000000002,0)" d="M0,100v320" style="stroke: rgb(255, 255, 255); stroke-opacity: 1; stroke-width: 1px;"/><path class="xgrid crisp" transform="translate(244.31,0)" d="M0,100v320" style="stroke: rgb(255, 255, 255); stroke-opacity: 1; stroke-width: 1px;"/><path class="xgrid crisp" transform="translate(324.38,0)" d="M0,100v320" style="stroke: rgb(255, 255, 255); stroke-opacity: 1; stroke-width: 1px;"/><path class="xgrid crisp" transform="translate(404.45,0)" d="M0,100v320" style="stroke: rgb(255, 255, 255); stroke-opacity: 1; stroke-width: 1px;"/><path class="xgrid crisp" transform="translate(484.53,0)" d="M0,100v320" style="stroke: rgb(255, 255, 255); stroke-opacity: 1; stroke-width: 1px;"/><path class="xgrid crisp" transform="translate(564.6,0)" d="M0,100v320" style="stroke: rgb(255, 255, 255); stroke-opacity: 1; stroke-width: 1px;"/></g><g class="y"><path class="ygrid crisp" transform="translate(0,392.55)" d="M80,0h537" style="stroke: rgb(255, 255, 255); stroke-opacity: 1; stroke-width: 1px;"/><path class="ygrid crisp" transform="translate(0,349.77)" d="M80,0h537" style="stroke: rgb(255, 255, 255); stroke-opacity: 1; stroke-width: 1px;"/><path class="ygrid crisp" transform="translate(0,306.99)" d="M80,0h537" style="stroke: rgb(255, 255, 255); stroke-opacity: 1; stroke-width: 1px;"/><path class="ygrid crisp" transform="translate(0,264.21000000000004)" d="M80,0h537" style="stroke: rgb(255, 255, 255); stroke-opacity: 1; stroke-width: 1px;"/><path class="ygrid crisp" transform="translate(0,221.43)" d="M80,0h537" style="stroke: rgb(255, 255, 255); stroke-opacity: 1; stroke-width: 1px;"/><path class="ygrid crisp" transform="translate(0,178.65)" d="M80,0h537" style="stroke: rgb(255, 255, 255); stroke-opacity: 1; stroke-width: 1px;"/><path class="ygrid crisp" transform="translate(0,135.87)" d="M80,0h537" style="stroke: rgb(255, 255, 255); stroke-opacity: 1; stroke-width: 1px;"/></g></g><g class="zerolinelayer"/><path class="xlines-below"/><path class="ylines-below"/><g class="overlines-below"/><g class="xaxislayer-below"/><g class="yaxislayer-below"/><g class="overaxes-below"/><g class="plot" transform="translate(80,100)" clip-path="url('#clip6d1d2cxyplot')"><g class="scatterlayer mlayer"><g class="trace scatter trace7894c7" style="stroke-miterlimit: 2; opacity: 1;"><g class="fills"/><g class="errorbars"/><g class="lines"><path class="js-line" d="M0,304L3.2,302.59L4.32,249.74L5.43,251.04L6.54,249.35L10.99,248.71L12.1,248.32L14.33,249.1L15.44,248.19L16.58,248.84L17.66,248.58L22.11,247.67L23.23,247.93L26.56,247.16L27.68,246.9L32.12,247.29L33.24,246.9L38.79,246.77L39.9,246.77L43.24,245.73L44.36,245.99L48.8,245.09L49.91,244.44L51.03,244.96L52.14,244.57L53.25,243.66L54.36,243.92L55.48,244.57L56.59,243.02L59.92,242.11L61.03,242.63L62.15,242.24L63.26,243.15L64.37,242.24L65.49,240.17L67.71,240.69L68.82,239.78L73.27,237.84L74.38,236.94L76.6,238.23L77.72,237.07L78.83,235L79.94,235.51L81.05,236.55L82.16,235L84.39,232.67L85.5,232.28L87.73,230.6L88.84,231.12L91.06,229.95L92.18,230.21L93.29,231.76L94.4,229.56L97.74,230.6L98.85,230.21L101.08,226.46L102.19,226.07L103.3,226.85L104.41,225.55L105.52,225.68L106.63,227.36L107.75,227.11L108.86,225.55L113.31,221.16L114.42,218.44L115.53,219.09L116.64,217.66L117.76,216.63L118.87,217.4L121.09,217.66L122.2,218.7L126.66,216.5L127.76,216.37L129.99,215.72L131.11,214.69L132.21,214.3L133.33,214.82L134.44,215.98L135.55,215.98L137.78,213.78L138.89,213.52L142.22,212.75L143.34,212.23L144.45,211.45L145.56,211.84L151.12,211.58L152.24,211.84L154.45,210.42L155.57,208.87L156.68,207.7L157.79,207.7L158.91,206.93L160.02,207.83L163.35,207.96L164.47,142.27L167.8,140.18L168.92,140.44L171.14,139.92L172.25,139.01L174.48,139.14L175.59,139.14L180.04,138.48L181.14,138.35L184.48,137.83L185.6,137.96L195.6,137.96L196.72,138.09L204.5,137.83L205.62,137.18L208.95,137.18L210.06,136.14L214.51,136.27L215.62,135.74L217.84,135.88L218.96,135.22L221.19,134.57L222.29,135.22L225.63,132.22L226.74,132.22L227.86,133.27L228.96,132.88L231.19,131.57L232.31,132.22L235.64,130.14L236.75,128.44L237.87,130.14L238.97,129.35L242.31,127.14L243.43,128.05L245.65,126.48L246.76,127.66L247.87,128.7L248.99,127.79L250.1,128.83L251.21,128.31L252.32,127.4L253.43,128.44L254.55,127.79L255.66,128.18L258.99,128.83L260.11,128.44L262.35,126.48L263.46,125.05L265.68,124.92L266.8,125.44L267.91,125.96L269.02,124.01L273.47,123.09L274.59,121.4L277.92,122.44L279.03,121.92L281.26,118.4L282.37,119.96L283.49,119.96L284.6,118.79L285.71,119.7L286.81,119.18L289.04,117.35L290.16,117.48L293.49,114.35L294.6,114.48L296.83,112.14L297.94,112.92L300.16,110.83L301.28,111.35L304.61,110.7L305.72,108.09L306.84,107.96L307.94,106.92L309.06,105.48L310.17,105.74L311.29,106L312.4,107.18L313.52,107.83L314.62,107.18L315.74,109.13L316.85,108.35L317.96,108.22L319.07,106.66L320.18,106.27L321.29,106.79L323.52,107.05L324.63,61.25L326.85,59.41L327.97,59.15L331.3,57.57L332.41,57.17L334.64,57.04L335.75,56.78L340.2,55.46L341.31,54.54L343.54,54.28L344.65,54.81L347.99,53.62L349.1,53.75L362.44,52.44L363.55,52.7L368,51.78L369.12,52.04L371.34,51.78L372.45,52.18L375.79,51.12L376.89,51.25L378.01,51.52L379.11,50.73L385.79,50.07L388.01,49.54L389.13,48.23L391.35,47.83L393.57,47.44L394.69,45.73L395.8,46.91L396.92,45.73L399.14,45.73L400.25,45.07L401.36,44.94L402.47,43.76L405.81,43.49L406.92,41.91L409.14,40.2L410.26,39.42L411.34,38.1L412.44,38.76L414.67,37.31L415.78,37.71L416.89,36L418,35.73L419.12,35.21L420.23,35.6L421.34,35.34L422.45,33.36L423.57,32.71L424.68,33.23L426.9,32.44L428.02,32.05L429.13,31.92L430.24,30.86L432.46,30.86L433.57,31.39L435.8,32.97L436.92,31.13L439.14,32.31L440.27,30.34L442.48,30.47L443.59,30.86L446.93,29.02L448.04,29.42L450.26,27.71L451.37,26.66L452.49,24.16L453.6,24.68L454.71,23.24L455.82,24.68L456.93,23.1L458.05,22.84L459.16,22.58L460.27,21.26L463.61,21.79L464.71,20.74L465.83,21.26L466.94,19.68L469.17,19.55L470.28,18.5L474.73,18.89L475.84,17.97L476.95,17.45L478.07,17.84L479.18,17.97L480.29,17.05L481.41,16L482.51,16.66L483.63,16.39L484.74,171.81L490.3,171.4L491.42,172.08L494.75,170.99L495.86,170.99L498.09,169.76L499.2,169.76L501.42,168.94L502.53,169.08L521.44,168.39L522.55,167.98L537,165.8" style="vector-effect: non-scaling-stroke; fill: none; stroke: rgb(99, 110, 250); stroke-opacity: 1; stroke-width: 2px; opacity: 1;"/></g><g class="points"/><g class="text"/></g></g></g><g class="overplot"/><path class="xlines-above crisp" d="M0,0" style="fill: none;"/><path class="ylines-above crisp" d="M0,0" style="fill: none;"/><g class="overlines-above"/><g class="xaxislayer-above"><g class="xtick"><text text-anchor="middle" x="0" y="433" transform="translate(84.16,0)" style="font-family: 'Open Sans', verdana, arial, sans-serif; font-size: 12px; fill: rgb(42, 63, 95); fill-opacity: 1; white-space: pre;"><tspan class="line" dy="0em" x="0" y="433">00:00</tspan><tspan class="line" dy="1.3em" x="0" y="433">Aug 3, 2021</tspan></text></g><g class="xtick"><text text-anchor="middle" x="0" y="433" transform="translate(164.23000000000002,0)" style="font-family: 'Open Sans', verdana, arial, sans-serif; font-size: 12px; fill: rgb(42, 63, 95); fill-opacity: 1; white-space: pre;">12:00</text></g><g class="xtick"><text text-anchor="middle" x="0" y="433" transform="translate(244.31,0)" style="font-family: 'Open Sans', verdana, arial, sans-serif; font-size: 12px; fill: rgb(42, 63, 95); fill-opacity: 1; white-space: pre;"><tspan class="line" dy="0em" x="0" y="433">00:00</tspan><tspan class="line" dy="1.3em" x="0" y="433">Aug 4, 2021</tspan></text></g><g class="xtick"><text text-anchor="middle" x="0" y="433" transform="translate(324.38,0)" style="font-family: 'Open Sans', verdana, arial, sans-serif; font-size: 12px; fill: rgb(42, 63, 95); fill-opacity: 1; white-space: pre;">12:00</text></g><g class="xtick"><text text-anchor="middle" x="0" y="433" transform="translate(404.45,0)" style="font-family: 'Open Sans', verdana, arial, sans-serif; font-size: 12px; fill: rgb(42, 63, 95); fill-opacity: 1; white-space: pre;"><tspan class="line" dy="0em" x="0" y="433">00:00</tspan><tspan class="line" dy="1.3em" x="0" y="433">Aug 5, 2021</tspan></text></g><g class="xtick"><text text-anchor="middle" x="0" y="433" transform="translate(484.53,0)" style="font-family: 'Open Sans', verdana, arial, sans-serif; font-size: 12px; fill: rgb(42, 63, 95); fill-opacity: 1; white-space: pre;">12:00</text></g><g class="xtick"><text text-anchor="middle" x="0" y="433" transform="translate(564.6,0)" style="font-family: 'Open Sans', verdana, arial, sans-serif; font-size: 12px; fill: rgb(42, 63, 95); fill-opacity: 1; white-space: pre;"><tspan class="line" dy="0em" x="0" y="433">00:00</tspan><tspan class="line" dy="1.3em" x="0" y="433">Aug 6, 2021</tspan></text></g></g><g class="yaxislayer-above"><g class="ytick"><text text-anchor="end" x="79" y="4.199999999999999" transform="translate(0,392.55)" style="font-family: 'Open Sans', verdana, arial, sans-serif; font-size: 12px; fill: rgb(42, 63, 95); fill-opacity: 1; white-space: pre;">0.864</text></g><g class="ytick"><text text-anchor="end" x="79" y="4.199999999999999" transform="translate(0,349.77)" style="font-family: 'Open Sans', verdana, arial, sans-serif; font-size: 12px; fill: rgb(42, 63, 95); fill-opacity: 1; white-space: pre;">0.865</text></g><g class="ytick"><text text-anchor="end" x="79" y="4.199999999999999" transform="translate(0,306.99)" style="font-family: 'Open Sans', verdana, arial, sans-serif; font-size: 12px; fill: rgb(42, 63, 95); fill-opacity: 1; white-space: pre;">0.866</text></g><g class="ytick"><text text-anchor="end" x="79" y="4.199999999999999" transform="translate(0,264.21000000000004)" style="font-family: 'Open Sans', verdana, arial, sans-serif; font-size: 12px; fill: rgb(42, 63, 95); fill-opacity: 1; white-space: pre;">0.867</text></g><g class="ytick"><text text-anchor="end" x="79" y="4.199999999999999" transform="translate(0,221.43)" style="font-family: 'Open Sans', verdana, arial, sans-serif; font-size: 12px; fill: rgb(42, 63, 95); fill-opacity: 1; white-space: pre;">0.868</text></g><g class="ytick"><text text-anchor="end" x="79" y="4.199999999999999" transform="translate(0,178.65)" style="font-family: 'Open Sans', verdana, arial, sans-serif; font-size: 12px; fill: rgb(42, 63, 95); fill-opacity: 1; white-space: pre;">0.869</text></g><g class="ytick"><text text-anchor="end" x="79" y="4.199999999999999" transform="translate(0,135.87)" style="font-family: 'Open Sans', verdana, arial, sans-serif; font-size: 12px; fill: rgb(42, 63, 95); fill-opacity: 1; white-space: pre;">0.87</text></g></g><g class="overaxes-above"/></g></g><g class="polarlayer"/><g class="ternarylayer"/><g class="geolayer"/><g class="funnelarealayer"/><g class="pielayer"/><g class="treemaplayer"/><g class="sunburstlayer"/><g class="glimages"/><defs id="topdefs-6d1d2c"><g class="clips"/><clipPath id="legend6d1d2c"><rect width="60" height="45" x="0" y="0"/></clipPath></defs><g class="layer-above"><g class="imagelayer"/><g class="shapelayer"/></g><g class="infolayer"><g class="legend" pointer-events="all" transform="translate(627.74,100)"><rect class="bg" shape-rendering="crispEdges" width="60" height="45" x="0" y="0" style="stroke: rgb(68, 68, 68); stroke-opacity: 1; fill: rgb(255, 255, 255); fill-opacity: 1; stroke-width: 0px;"/><g class="scrollbox" transform="" clip-path="url('#legend6d1d2c')"><text class="legendtitletext" text-anchor="start" x="2" y="15.600000000000001" style="font-family: 'Open Sans', verdana, arial, sans-serif; font-size: 12px; fill: rgb(42, 63, 95); fill-opacity: 1; white-space: pre;">All</text><g class="groups" transform=""><g class="traces" transform="translate(0,30.1)" style="opacity: 1;"><text class="legendtext" text-anchor="start" x="40" y="4.680000000000001" style="font-family: 'Open Sans', verdana, arial, sans-serif; font-size: 12px; fill: rgb(42, 63, 95); fill-opacity: 1; white-space: pre;">All</text><g class="layers" style="opacity: 1;"><g class="legendfill"/><g class="legendlines"><path class="js-line" d="M5,0h30" style="fill: none; stroke: rgb(99, 110, 250); stroke-opacity: 1; stroke-width: 2px;"/></g><g class="legendsymbols"><g class="legendpoints"/></g></g><rect class="legendtoggle" x="0" y="-9.5" width="54.890625" height="19" style="fill: rgb(0, 0, 0); fill-opacity: 0;"/></g></g></g><rect class="scrollbar" rx="20" ry="3" width="0" height="0" x="0" y="0" style="fill: rgb(128, 139, 164); fill-opacity: 1;"/></g><g class="g-gtitle"><text class="gtitle" x="35" y="50" text-anchor="start" dy="0em" style="font-family: 'Open Sans', verdana, arial, sans-serif; font-size: 17px; fill: rgb(42, 63, 95); opacity: 1; font-weight: normal; white-space: pre;">Singapore Vaccination Centers</text></g><g class="g-xtitle"><text class="xtitle" x="348.5" y="476.409375" text-anchor="middle" style="font-family: 'Open Sans', verdana, arial, sans-serif; font-size: 14px; fill: rgb(42, 63, 95); opacity: 1; font-weight: normal; white-space: pre;">Time</text></g><g class="g-ytitle"><text class="ytitle" transform="rotate(-90,19.840625000000003,260)" x="19.840625000000003" y="260" text-anchor="middle" style="font-family: 'Open Sans', verdana, arial, sans-serif; font-size: 14px; fill: rgb(42, 63, 95); opacity: 1; font-weight: normal; white-space: pre;">Filled/%</text></g></g></svg>