<svg class="main-svg" xmlns="http://www.w3.org/2000/svg" xmlns:xlink="http://www.w3.org/1999/xlink" width="700" height="500" style="" viewBox="0 0 700 500"><rect x="0" y="0" width="700" height="500" style="fill: rgb(255, 255, 255); fill-opacity: 1;"/><defs id="defs-1db8b2"><g class="clips"><clipPath id="clip1db8b2xyplot" class="plotclip"><rect width="537" height="320"/></clipPath><clipPath class="axesclip" id="clip1db8b2x"><rect x="80" y="0" width="537" height="500"/></clipPath><clipPath class="axesclip" id="clip1db8b2y"><rect x="0" y="100" width="700" height="320"/></clipPath><clipPath class="axesclip" id="clip1db8b2xy"><rect x="80" y="100" width="537" height="320"/></clipPath></g><g class="gradients"/></defs><g class="bglayer"><rect class="bg" x="80" y="100" width="537" height="320" style="fill: rgb(229, 236, 246); fill-opacity: 1; stroke-width: 0;"/></g><g class="layer-below"><g class="imagelayer"/><g class="shapelayer"/></g><g class="cartesianlayer"><g class="subplot xy"><g class="layer-subplot"><g class="shapelayer"/><g class="imagelayer"/></g><g class="gridlayer"><g class="x"><path class="xgrid crisp" transform="translate(92.53999999999999,0)" d="M0,100v320" style="stroke: rgb(255, 255, 255); stroke-opacity: 1; stroke-width: 1px;"/><path class="xgrid crisp" transform="translate(227.63,0)" d="M0,100v320" style="stroke: rgb(255, 255, 255); stroke-opacity: 1; stroke-width: 1px;"/><path class="xgrid crisp" transform="translate(362.72,0)" d="M0,100v320" style="stroke: rgb(255, 255, 255); stroke-opacity: 1; stroke-width: 1px;"/><path class="xgrid crisp" transform="translate(497.8,0)" d="M0,100v320" style="stroke: rgb(255, 255, 255); stroke-opacity: 1; stroke-width: 1px;"/></g><g class="y"><path class="ygrid crisp" transform="translate(0,388.55)" d="M80,0h537" style="stroke: rgb(255, 255, 255); stroke-opacity: 1; stroke-width: 1px;"/><path class="ygrid crisp" transform="translate(0,328.59000000000003)" d="M80,0h537" style="stroke: rgb(255, 255, 255); stroke-opacity: 1; stroke-width: 1px;"/><path class="ygrid crisp" transform="translate(0,268.62)" d="M80,0h537" style="stroke: rgb(255, 255, 255); stroke-opacity: 1; stroke-width: 1px;"/><path class="ygrid crisp" transform="translate(0,208.65)" d="M80,0h537" style="stroke: rgb(255, 255, 255); stroke-opacity: 1; stroke-width: 1px;"/><path class="ygrid crisp" transform="translate(0,148.69)" d="M80,0h537" style="stroke: rgb(255, 255, 255); stroke-opacity: 1; stroke-width: 1px;"/></g></g><g class="zerolinelayer"/><path class="xlines-below"/><path class="ylines-below"/><g class="overlines-below"/><g class="xaxislayer-below"/><g class="yaxislayer-below"/><g class="overaxes-below"/><g class="plot" transform="translate(80,100)" clip-path="url('#clip1db8b2xyplot')"><g class="scatterlayer mlayer"><g class="trace scatter trace58b039" style="stroke-miterlimit: 2; opacity: 1;"><g class="fills"/><g class="errorbars"/><g class="lines"><path class="js-line" d="M0,151.19L7.92,151.66L10.73,229.1L16.33,229.27L18.41,262.63L19.28,262.59L40,264.75L41.29,230.62L41.68,247.75L42.62,247.62L44.5,241.12L45.44,240.91L47.31,248.08L48.25,247.91L50.12,254.04L51.06,253.87L52.94,229.53L53.88,229.39L55.75,253.89L56.69,253.71L58.57,241.74L59.5,234.89L61.38,214.27L62.32,206.72L64.2,176.26L65.13,172.83L67.01,134.64L67.95,132L69.82,144.05L70.76,141.9L72.64,113.25L73.57,111.49L75.45,116.91L76.39,115.59L78.27,134.84L79.2,133.95L80.44,89.08L81.08,90.52L82.02,90.13L87.65,89.24L88.59,89.09L103.59,88.15L104.53,87.9L108.28,86.16L109.22,85.57L132.68,72.26L133.61,71.89L146.75,66.89L147.69,68.6L157.07,68.01L158,68L175.83,67.22L176.76,67.01L214.29,58.48L215.23,55.84L226.49,55.49L227.42,55.49L241.49,54.9L242.43,54.72L256.5,51.59L257.44,51.4L277.14,47.5L278.08,47.34L281.84,46.7L282.78,41.63L298.72,41.35L299.66,41.34L310.92,40.62L311.86,40.47L314.67,40.09L315.61,177.9L323.14,174.99L324.08,174.7L327.81,173.3L328.74,170.02L330.62,165.13L331.56,163.9L332.5,161.87L333.44,156.05L335.31,139.75L336.25,136.11L340,127.34L340.94,125.71L345.63,119.81L346.57,118.87L349.38,116.83L350.32,116.97L354.07,115.8L355.01,115.71L366.27,115.2L367.2,115.19L374.71,114.44L375.65,114.25L383.15,110.82L384.09,110.1L387.84,106.69L388.78,111.42L391.59,109.69L392.53,108.08L398.16,93.54L399.1,91.96L401.92,85.93L402.85,83.58L403.79,81.23L404.73,76.19L407.54,64.63L408.48,62.22L413.17,53.04L414.11,51.69L416.92,48.8L417.86,49.12L421.61,47.64L422.55,47.48L430.99,46.79L431.94,46.74L439.44,45.95L440.38,45.71L445.07,43.17L446,42.54L448.82,40.66L449.76,135.95L451.63,132.71L452.57,131.76L460.08,125.54L461.02,125.01L462.89,123.7L463.61,130.07L463.83,122.85L464.72,122.57L464.77,124.6L465.66,121.95L465.71,123.98L466.64,123.33L468.52,122.24L469.46,139.26L477.67,134.11L477.71,130.85L477.76,130.28L477.9,133.76L486.81,74.61L487.28,74.88L487.75,68.92L488.69,69.28L489.16,71.47L490.56,59.71L491.04,68.22L491.97,65.31L492.44,64.27L494.32,61.13L494.79,62.83L495.26,61.41L495.73,61.96L496.19,61.73L497.6,61.69L498.07,71.11L499.95,70.86L500.41,69.29L500.88,70.36L501.35,70.09L501.82,69.01L502.76,68.96L503.23,68.4L504.17,57.64L504.64,56.31L506.98,51.51L507.45,48.58L507.92,48.66L508.39,46.17L509.33,37.58L509.79,35.63L510.26,34.38L510.73,29.12L511.2,16L511.67,17.64L512.14,269.28L512.61,267.32L513.08,273.13L514.02,262.37L514.49,266.85L515.43,261.05L515.9,262.03L516.36,271.47L516.83,282.53L517.3,255.49L518.24,265.01L518.71,304L520.11,255.72L520.58,280.01L521.05,286.09L521.52,282.54L521.99,277.11L522.93,257.41L523.4,260.16L524.33,281.24L524.81,273.19L525.27,272.46L525.74,292.91L526.68,270.62L527.15,286.61L528.09,242.53L528.56,263.97L529.5,269.91L529.96,266.71L530.9,249.22L531.37,251.93L531.84,247.11L532.31,265.33L532.78,256.77L533.25,266.22L533.72,266.49L534.19,251.55L534.66,251.41L535.12,269.01L536.06,253.57L536.53,265.67L537,269.03" style="vector-effect: non-scaling-stroke; fill: none; stroke: rgb(99, 110, 250); stroke-opacity: 1; stroke-width: 2px; opacity: 1;"/></g><g class="points"/><g class="text"/></g></g></g><g class="overplot"/><path class="xlines-above crisp" d="M0,0" style="fill: none;"/><path class="ylines-above crisp" d="M0,0" style="fill: none;"/><g class="overlines-above"/><g class="xaxislayer-above"><g class="xtick"><text text-anchor="middle" x="0" y="433" transform="translate(92.53999999999999,0)" style="font-family: 'Open Sans', verdana, arial, sans-serif; font-size: 12px; fill: rgb(42, 63, 95); fill-opacity: 1; white-space: pre;"><tspan class="line" dy="0em" x="0" y="433">Jun 4</tspan><tspan class="line" dy="1.3em" x="0" y="433">2021</tspan></text></g><g class="xtick"><text text-anchor="middle" x="0" y="433" transform="translate(227.63,0)" style="font-family: 'Open Sans', verdana, arial, sans-serif; font-size: 12px; fill: rgb(42, 63, 95); fill-opacity: 1; white-space: pre;">Jun 6</text></g><g class="xtick"><text text-anchor="middle" x="0" y="433" transform="translate(362.72,0)" style="font-family: 'Open Sans', verdana, arial, sans-serif; font-size: 12px; fill: rgb(42, 63, 95); fill-opacity: 1; white-space: pre;">Jun 8</text></g><g class="xtick"><text text-anchor="middle" x="0" y="433" transform="translate(497.8,0)" style="font-family: 'Open Sans', verdana, arial, sans-serif; font-size: 12px; fill: rgb(42, 63, 95); fill-opacity: 1; white-space: pre;">Jun 10</text></g></g><g class="yaxislayer-above"><g class="ytick"><text text-anchor="end" x="79" y="4.199999999999999" transform="translate(0,388.55)" style="font-family: 'Open Sans', verdana, arial, sans-serif; font-size: 12px; fill: rgb(42, 63, 95); fill-opacity: 1; white-space: pre;">0.84</text></g><g class="ytick"><text text-anchor="end" x="79" y="4.199999999999999" transform="translate(0,328.59000000000003)" style="font-family: 'Open Sans', verdana, arial, sans-serif; font-size: 12px; fill: rgb(42, 63, 95); fill-opacity: 1; white-space: pre;">0.85</text></g><g class="ytick"><text text-anchor="end" x="79" y="4.199999999999999" transform="translate(0,268.62)" style="font-family: 'Open Sans', verdana, arial, sans-serif; font-size: 12px; fill: rgb(42, 63, 95); fill-opacity: 1; white-space: pre;">0.86</text></g><g class="ytick"><text text-anchor="end" x="79" y="4.199999999999999" transform="translate(0,208.65)" style="font-family: 'Open Sans', verdana, arial, sans-serif; font-size: 12px; fill: rgb(42, 63, 95); fill-opacity: 1; white-space: pre;">0.87</text></g><g class="ytick"><text text-anchor="end" x="79" y="4.199999999999999" transform="translate(0,148.69)" style="font-family: 'Open Sans', verdana, arial, sans-serif; font-size: 12px; fill: rgb(42, 63, 95); fill-opacity: 1; white-space: pre;">0.88</text></g></g><g class="overaxes-above"/></g></g><g class="polarlayer"/><g class="ternarylayer"/><g class="geolayer"/><g class="funnelarealayer"/><g class="pielayer"/><g class="treemaplayer"/><g class="sunburstlayer"/><g class="glimages"/><defs id="topdefs-1db8b2"><g class="clips"/><clipPath id="legend1db8b2"><rect width="60" height="45" x="0" y="0"/></clipPath></defs><g class="layer-above"><g class="imagelayer"/><g class="shapelayer"/></g><g class="infolayer"><g class="legend" pointer-events="all" transform="translate(627.74,100)"><rect class="bg" shape-rendering="crispEdges" width="60" height="45" x="0" y="0" style="stroke: rgb(68, 68, 68); stroke-opacity: 1; fill: rgb(255, 255, 255); fill-opacity: 1; stroke-width: 0px;"/><g class="scrollbox" transform="" clip-path="url('#legend1db8b2')"><text class="legendtitletext" text-anchor="start" x="2" y="15.600000000000001" style="font-family: 'Open Sans', verdana, arial, sans-serif; font-size: 12px; fill: rgb(42, 63, 95); fill-opacity: 1; white-space: pre;">All</text><g class="groups" transform=""><g class="traces" transform="translate(0,30.1)" style="opacity: 1;"><text class="legendtext" text-anchor="start" x="40" y="4.680000000000001" style="font-family: 'Open Sans', verdana, arial, sans-serif; font-size: 12px; fill: rgb(42, 63, 95); fill-opacity: 1; white-space: pre;">All</text><g class="layers" style="opacity: 1;"><g class="legendfill"/><g class="legendlines"><path class="js-line" d="M5,0h30" style="fill: none; stroke: rgb(99, 110, 250); stroke-opacity: 1; stroke-width: 2px;"/></g><g class="legendsymbols"><g class="legendpoints"/></g></g><rect class="legendtoggle" x="0" y="-9.5" width="54.890625" height="19" style="fill: rgb(0, 0, 0); fill-opacity: 0;"/></g></g></g><rect class="scrollbar" rx="20" ry="3" width="0" height="0" x="0" y="0" style="fill: rgb(128, 139, 164); fill-opacity: 1;"/></g><g class="g-gtitle"><text class="gtitle" x="35" y="50" text-anchor="start" dy="0em" style="font-family: 'Open Sans', verdana, arial, sans-serif; font-size: 17px; fill: rgb(42, 63, 95); opacity: 1; font-weight: normal; white-space: pre;">Singapore Vaccination Centers</text></g><g class="g-xtitle"><text class="xtitle" x="348.5" y="476.409375" text-anchor="middle" style="font-family: 'Open Sans', verdana, arial, sans-serif; font-size: 14px; fill: rgb(42, 63, 95); opacity: 1; font-weight: normal; white-space: pre;">Time</text></g><g class="g-ytitle"><text class="ytitle" transform="rotate(-90,27.481250000000003,260)" x="27.481250000000003" y="260" text-anchor="middle" style="font-family: 'Open Sans', verdana, arial, sans-serif; font-size: 14px; fill: rgb(42, 63, 95); opacity: 1; font-weight: normal; white-space: pre;">Filled/%</text></g></g></svg>