<svg class="main-svg" xmlns="http://www.w3.org/2000/svg" xmlns:xlink="http://www.w3.org/1999/xlink" width="700" height="500" style="" viewBox="0 0 700 500"><rect x="0" y="0" width="700" height="500" style="fill: rgb(255, 255, 255); fill-opacity: 1;"/><defs id="defs-551a63"><g class="clips"><clipPath id="clip551a63xyplot" class="plotclip"><rect width="537" height="320"/></clipPath><clipPath class="axesclip" id="clip551a63x"><rect x="80" y="0" width="537" height="500"/></clipPath><clipPath class="axesclip" id="clip551a63y"><rect x="0" y="100" width="700" height="320"/></clipPath><clipPath class="axesclip" id="clip551a63xy"><rect x="80" y="100" width="537" height="320"/></clipPath></g><g class="gradients"/></defs><g class="bglayer"><rect class="bg" x="80" y="100" width="537" height="320" style="fill: rgb(229, 236, 246); fill-opacity: 1; stroke-width: 0;"/></g><g class="layer-below"><g class="imagelayer"/><g class="shapelayer"/></g><g class="cartesianlayer"><g class="subplot xy"><g class="layer-subplot"><g class="shapelayer"/><g class="imagelayer"/></g><g class="gridlayer"><g class="x"><path class="xgrid crisp" transform="translate(82.83,0)" d="M0,100v320" style="stroke: rgb(255, 255, 255); stroke-opacity: 1; stroke-width: 1px;"/><path class="xgrid crisp" transform="translate(191.91,0)" d="M0,100v320" style="stroke: rgb(255, 255, 255); stroke-opacity: 1; stroke-width: 1px;"/><path class="xgrid crisp" transform="translate(301,0)" d="M0,100v320" style="stroke: rgb(255, 255, 255); stroke-opacity: 1; stroke-width: 1px;"/><path class="xgrid crisp" transform="translate(410.08,0)" d="M0,100v320" style="stroke: rgb(255, 255, 255); stroke-opacity: 1; stroke-width: 1px;"/><path class="xgrid crisp" transform="translate(519.1600000000001,0)" d="M0,100v320" style="stroke: rgb(255, 255, 255); stroke-opacity: 1; stroke-width: 1px;"/></g><g class="y"><path class="ygrid crisp" transform="translate(0,392.55)" d="M80,0h537" style="stroke: rgb(255, 255, 255); stroke-opacity: 1; stroke-width: 1px;"/><path class="ygrid crisp" transform="translate(0,349.77)" d="M80,0h537" style="stroke: rgb(255, 255, 255); stroke-opacity: 1; stroke-width: 1px;"/><path class="ygrid crisp" transform="translate(0,306.99)" d="M80,0h537" style="stroke: rgb(255, 255, 255); stroke-opacity: 1; stroke-width: 1px;"/><path class="ygrid crisp" transform="translate(0,264.21000000000004)" d="M80,0h537" style="stroke: rgb(255, 255, 255); stroke-opacity: 1; stroke-width: 1px;"/><path class="ygrid crisp" transform="translate(0,221.43)" d="M80,0h537" style="stroke: rgb(255, 255, 255); stroke-opacity: 1; stroke-width: 1px;"/><path class="ygrid crisp" transform="translate(0,178.65)" d="M80,0h537" style="stroke: rgb(255, 255, 255); stroke-opacity: 1; stroke-width: 1px;"/><path class="ygrid crisp" transform="translate(0,135.87)" d="M80,0h537" style="stroke: rgb(255, 255, 255); stroke-opacity: 1; stroke-width: 1px;"/></g></g><g class="zerolinelayer"/><path class="xlines-below"/><path class="ylines-below"/><g class="overlines-below"/><g class="xaxislayer-below"/><g class="yaxislayer-below"/><g class="overaxes-below"/><g class="plot" transform="translate(80,100)" clip-path="url('#clip551a63xyplot')"><g class="scatterlayer mlayer"><g class="trace scatter trace8cb492" style="stroke-miterlimit: 2; opacity: 1;"><g class="fills"/><g class="errorbars"/><g class="lines"><path class="js-line" d="M0,304L2.18,302.59L2.94,249.74L3.7,251.04L4.46,249.35L7.49,248.71L8.24,248.32L9.76,249.1L10.52,248.19L12.03,248.58L12.79,248.19L14.3,247.93L15.06,247.67L16.58,247.41L17.34,247.16L23.4,246.77L24.15,246.51L28.7,246.12L29.45,245.73L30.97,245.86L31.73,245.22L33.24,245.09L34,244.44L35.51,244.57L36.27,243.66L37.79,244.57L38.55,243.02L40.81,242.11L41.57,242.63L42.33,242.24L43.09,243.15L44.61,240.17L45.36,240.69L46.12,240.69L46.88,239.78L49.91,237.84L50.66,236.94L52.17,238.23L52.94,237.07L53.69,235L54.45,235.51L55.21,236.55L55.96,235L57.48,232.67L58.24,232.28L59.76,230.6L60.51,231.12L62.02,229.95L62.78,230.21L63.54,231.76L64.3,229.56L66.57,230.6L67.33,230.21L69.6,226.07L70.36,226.85L71.87,225.68L72.63,227.36L73.39,227.11L74.15,225.55L77.18,221.16L77.93,218.44L78.69,219.09L79.45,217.66L80.21,216.63L80.97,217.4L82.48,217.66L83.24,218.7L86.27,216.5L87.02,216.37L88.54,215.72L89.3,214.69L90.06,214.3L90.81,214.82L92.33,215.98L93.08,214.43L95.36,213.39L96.12,212.88L97.63,212.23L98.39,211.45L100.66,212.23L101.42,211.84L102.93,211.58L103.69,211.84L105.2,210.42L105.96,208.87L107.48,207.7L108.24,206.93L109.75,207.96L110.51,207.44L111.27,207.96L112.03,142.27L114.3,140.18L115.06,140.44L116.57,139.92L117.33,139.01L118.84,139.14L119.6,139.14L122.63,138.48L123.38,138.35L125.66,137.83L126.42,137.96L133.23,137.96L133.99,138.09L139.29,137.83L140.05,137.18L142.32,137.18L143.08,136.14L146.11,136.27L146.87,135.74L148.38,135.88L149.14,135.22L150.66,134.57L151.41,135.22L154.44,132.22L155.2,133.27L157.47,131.57L158.23,132.22L161.26,128.44L162.02,130.14L165.05,127.14L165.81,128.05L167.32,126.48L168.08,127.66L168.83,128.7L169.59,127.79L170.35,128.83L171.11,128.31L171.86,127.4L172.62,128.44L173.38,127.79L174.14,128.18L176.41,128.83L177.17,128.44L178.7,126.48L179.45,125.05L180.96,124.92L181.72,125.44L182.48,125.96L183.24,124.01L186.27,123.09L187.03,121.4L190.06,121.92L190.82,120.61L191.57,118.4L192.33,119.96L193.09,119.96L193.85,118.79L194.6,119.7L195.36,119.18L196.88,117.35L197.63,117.48L199.91,114.35L200.66,114.48L202.18,112.14L202.94,112.92L204.45,110.83L205.21,111.35L207.48,110.7L208.24,108.09L209,107.96L209.75,106.92L210.51,105.48L211.27,105.74L212.03,106L212.78,107.18L213.55,107.83L214.3,107.18L215.06,109.13L215.81,108.35L216.57,108.22L217.33,106.66L218.09,106.27L218.84,106.79L220.36,107.05L221.12,61.25L222.63,59.41L223.39,59.15L225.66,57.57L226.42,57.17L227.93,57.04L228.69,56.78L231.72,55.46L232.48,54.54L234,54.28L234.75,54.81L237.78,53.75L238.54,53.62L240.05,53.62L240.81,53.75L252.93,51.78L253.69,52.18L255.96,51.12L256.71,51.25L257.48,51.52L258.23,50.73L262.78,50.07L264.29,49.54L265.05,48.23L266.56,47.83L268.08,47.44L268.83,45.73L269.59,46.91L270.35,45.73L271.87,45.73L272.62,45.07L273.38,44.94L274.14,43.76L276.41,43.49L277.17,41.91L278.68,40.2L279.44,39.42L280.18,38.1L280.93,38.76L283.2,37.71L283.96,36L286.99,35.34L287.74,33.36L288.51,32.71L289.26,33.23L290.78,32.44L291.54,32.05L292.3,31.92L293.05,30.86L294.57,30.86L295.32,31.39L296.84,32.97L297.6,31.13L299.11,32.31L299.88,30.34L301.39,30.47L302.15,30.86L304.42,29.02L305.17,29.42L306.69,27.71L307.44,26.66L308.2,24.16L308.96,24.68L309.72,23.24L310.47,24.68L311.99,22.84L312.75,22.58L313.5,21.26L314.26,21.66L315.78,21.79L316.53,20.74L317.29,21.26L318.05,19.68L319.56,19.55L320.32,18.5L323.35,18.89L324.11,17.97L324.86,17.45L325.63,17.84L326.38,17.97L327.14,17.05L327.9,16L328.65,16.66L329.42,16.39L330.17,171.81L333.96,171.4L334.72,172.08L336.99,170.99L337.75,170.99L339.26,169.76L340.02,169.76L341.53,168.94L342.29,169.08L355.17,168.39L355.93,167.98L365.77,165.8L366.53,165.12L370.32,164.02L371.08,162.66L374.13,162.38L374.89,163.61L376.4,161.7L377.16,161.57L377.92,160.88L378.68,158.43L379.43,156.51L380.19,156.79L380.95,156.1L381.7,154.33L382.46,154.88L383.22,154.19L384.74,154.33L385.5,153.37L387.01,152.69L387.77,153.65L390.04,150.92L390.79,151.87L393.07,149.14L393.83,149.14L394.58,148.32L395.34,149.41L396.86,150.37L397.61,149.41L398.37,149.55L399.13,148.73L402.16,145.18L402.92,144.5L405.19,143.54L405.95,145.04L410.49,141.9L411.25,143.68L412.01,121.97L412.77,121.97L415.04,120.88L415.8,116.1L416.55,116.24L417.31,112.28L418.07,112.55L418.83,109.96L419.58,106.95L420.34,107.91L422.61,101.22L423.37,98.08L424.89,97.53L425.64,95.35L426.4,94.8L427.16,92.07L428.67,89.34L429.43,89.34L431.7,85.65L432.46,84.7L433.98,82.78L434.73,80.19L438.52,75L439.28,88.44L443.07,84.03L443.83,84.45L444.58,84.31L445.34,85.14L446.86,84.72L447.61,85.41L449.13,84.59L449.88,84.45L451.4,84.03L452.16,84.03L453.67,84.17L454.43,83.62L459.73,84.03L460.49,83.62L465.04,83.21L465.79,83.48L468.82,83.48L469.58,83.35L471.09,83.35L471.85,83.35L474.12,83.35L474.88,83.9L478.67,79.9L479.42,80.18L481.7,78.8L482.46,78.94L483.22,78.53L483.97,76.87L485.48,77.15L486.24,75.63L490.03,72.47L490.79,72.88L493.06,69.44L493.82,69.02L496.09,66.41L496.85,66.41L498.37,63.79L499.12,63.79L500.64,61.86L501.39,59.66L503.67,54.29L504.43,54.43L505.94,53.6L506.7,51.4L509.73,49.47L510.48,47.82L515.03,46.85L515.79,45.75L516.55,46.16L517.3,45.48L518.06,45.89L524.12,41.21L527.91,38.59L528.67,39.28L531.7,35.97L532.46,35.84L533.22,34.46L533.97,35.01L535.48,33.91L536.24,34.18L537,35.28" style="vector-effect: non-scaling-stroke; fill: none; stroke: rgb(99, 110, 250); stroke-opacity: 1; stroke-width: 2px; opacity: 1;"/></g><g class="points"/><g class="text"/></g></g></g><g class="overplot"/><path class="xlines-above crisp" d="M0,0" style="fill: none;"/><path class="ylines-above crisp" d="M0,0" style="fill: none;"/><g class="overlines-above"/><g class="xaxislayer-above"><g class="xtick"><text text-anchor="middle" x="0" y="433" transform="translate(82.83,0)" style="font-family: 'Open Sans', verdana, arial, sans-serif; font-size: 12px; fill: rgb(42, 63, 95); fill-opacity: 1; white-space: pre;"><tspan class="line" dy="0em" x="0" y="433">Aug 3</tspan><tspan class="line" dy="1.3em" x="0" y="433">2021</tspan></text></g><g class="xtick"><text text-anchor="middle" x="0" y="433" transform="translate(191.91,0)" style="font-family: 'Open Sans', verdana, arial, sans-serif; font-size: 12px; fill: rgb(42, 63, 95); fill-opacity: 1; white-space: pre;">Aug 4</text></g><g class="xtick"><text text-anchor="middle" x="0" y="433" transform="translate(301,0)" style="font-family: 'Open Sans', verdana, arial, sans-serif; font-size: 12px; fill: rgb(42, 63, 95); fill-opacity: 1; white-space: pre;">Aug 5</text></g><g class="xtick"><text text-anchor="middle" x="0" y="433" transform="translate(410.08,0)" style="font-family: 'Open Sans', verdana, arial, sans-serif; font-size: 12px; fill: rgb(42, 63, 95); fill-opacity: 1; white-space: pre;">Aug 6</text></g><g class="xtick"><text text-anchor="middle" x="0" y="433" transform="translate(519.1600000000001,0)" style="font-family: 'Open Sans', verdana, arial, sans-serif; font-size: 12px; fill: rgb(42, 63, 95); fill-opacity: 1; white-space: pre;">Aug 7</text></g></g><g class="yaxislayer-above"><g class="ytick"><text text-anchor="end" x="79" y="4.199999999999999" transform="translate(0,392.55)" style="font-family: 'Open Sans', verdana, arial, sans-serif; font-size: 12px; fill: rgb(42, 63, 95); fill-opacity: 1; white-space: pre;">0.864</text></g><g class="ytick"><text text-anchor="end" x="79" y="4.199999999999999" transform="translate(0,349.77)" style="font-family: 'Open Sans', verdana, arial, sans-serif; font-size: 12px; fill: rgb(42, 63, 95); fill-opacity: 1; white-space: pre;">0.865</text></g><g class="ytick"><text text-anchor="end" x="79" y="4.199999999999999" transform="translate(0,306.99)" style="font-family: 'Open Sans', verdana, arial, sans-serif; font-size: 12px; fill: rgb(42, 63, 95); fill-opacity: 1; white-space: pre;">0.866</text></g><g class="ytick"><text text-anchor="end" x="79" y="4.199999999999999" transform="translate(0,264.21000000000004)" style="font-family: 'Open Sans', verdana, arial, sans-serif; font-size: 12px; fill: rgb(42, 63, 95); fill-opacity: 1; white-space: pre;">0.867</text></g><g class="ytick"><text text-anchor="end" x="79" y="4.199999999999999" transform="translate(0,221.43)" style="font-family: 'Open Sans', verdana, arial, sans-serif; font-size: 12px; fill: rgb(42, 63, 95); fill-opacity: 1; white-space: pre;">0.868</text></g><g class="ytick"><text text-anchor="end" x="79" y="4.199999999999999" transform="translate(0,178.65)" style="font-family: 'Open Sans', verdana, arial, sans-serif; font-size: 12px; fill: rgb(42, 63, 95); fill-opacity: 1; white-space: pre;">0.869</text></g><g class="ytick"><text text-anchor="end" x="79" y="4.199999999999999" transform="translate(0,135.87)" style="font-family: 'Open Sans', verdana, arial, sans-serif; font-size: 12px; fill: rgb(42, 63, 95); fill-opacity: 1; white-space: pre;">0.87</text></g></g><g class="overaxes-above"/></g></g><g class="polarlayer"/><g class="ternarylayer"/><g class="geolayer"/><g class="funnelarealayer"/><g class="pielayer"/><g class="treemaplayer"/><g class="sunburstlayer"/><g class="glimages"/><defs id="topdefs-551a63"><g class="clips"/><clipPath id="legend551a63"><rect width="60" height="45" x="0" y="0"/></clipPath></defs><g class="layer-above"><g class="imagelayer"/><g class="shapelayer"/></g><g class="infolayer"><g class="legend" pointer-events="all" transform="translate(627.74,100)"><rect class="bg" shape-rendering="crispEdges" width="60" height="45" x="0" y="0" style="stroke: rgb(68, 68, 68); stroke-opacity: 1; fill: rgb(255, 255, 255); fill-opacity: 1; stroke-width: 0px;"/><g class="scrollbox" transform="" clip-path="url('#legend551a63')"><text class="legendtitletext" text-anchor="start" x="2" y="15.600000000000001" style="font-family: 'Open Sans', verdana, arial, sans-serif; font-size: 12px; fill: rgb(42, 63, 95); fill-opacity: 1; white-space: pre;">All</text><g class="groups" transform=""><g class="traces" transform="translate(0,30.1)" style="opacity: 1;"><text class="legendtext" text-anchor="start" x="40" y="4.680000000000001" style="font-family: 'Open Sans', verdana, arial, sans-serif; font-size: 12px; fill: rgb(42, 63, 95); fill-opacity: 1; white-space: pre;">All</text><g class="layers" style="opacity: 1;"><g class="legendfill"/><g class="legendlines"><path class="js-line" d="M5,0h30" style="fill: none; stroke: rgb(99, 110, 250); stroke-opacity: 1; stroke-width: 2px;"/></g><g class="legendsymbols"><g class="legendpoints"/></g></g><rect class="legendtoggle" x="0" y="-9.5" width="54.890625" height="19" style="fill: rgb(0, 0, 0); fill-opacity: 0;"/></g></g></g><rect class="scrollbar" rx="20" ry="3" width="0" height="0" x="0" y="0" style="fill: rgb(128, 139, 164); fill-opacity: 1;"/></g><g class="g-gtitle"><text class="gtitle" x="35" y="50" text-anchor="start" dy="0em" style="font-family: 'Open Sans', verdana, arial, sans-serif; font-size: 17px; fill: rgb(42, 63, 95); opacity: 1; font-weight: normal; white-space: pre;">Singapore Vaccination Centers</text></g><g class="g-xtitle"><text class="xtitle" x="348.5" y="476.409375" text-anchor="middle" style="font-family: 'Open Sans', verdana, arial, sans-serif; font-size: 14px; fill: rgb(42, 63, 95); opacity: 1; font-weight: normal; white-space: pre;">Time</text></g><g class="g-ytitle"><text class="ytitle" transform="rotate(-90,19.840625000000003,260)" x="19.840625000000003" y="260" text-anchor="middle" style="font-family: 'Open Sans', verdana, arial, sans-serif; font-size: 14px; fill: rgb(42, 63, 95); opacity: 1; font-weight: normal; white-space: pre;">Filled/%</text></g></g></svg>