<svg class="main-svg" xmlns="http://www.w3.org/2000/svg" xmlns:xlink="http://www.w3.org/1999/xlink" width="700" height="500" style="" viewBox="0 0 700 500"><rect x="0" y="0" width="700" height="500" style="fill: rgb(255, 255, 255); fill-opacity: 1;"/><defs id="defs-85e09d"><g class="clips"><clipPath id="clip85e09dxyplot" class="plotclip"><rect width="537" height="320"/></clipPath><clipPath class="axesclip" id="clip85e09dx"><rect x="80" y="0" width="537" height="500"/></clipPath><clipPath class="axesclip" id="clip85e09dy"><rect x="0" y="100" width="700" height="320"/></clipPath><clipPath class="axesclip" id="clip85e09dxy"><rect x="80" y="100" width="537" height="320"/></clipPath></g><g class="gradients"/></defs><g class="bglayer"><rect class="bg" x="80" y="100" width="537" height="320" style="fill: rgb(229, 236, 246); fill-opacity: 1; stroke-width: 0;"/></g><g class="layer-below"><g class="imagelayer"/><g class="shapelayer"/></g><g class="cartesianlayer"><g class="subplot xy"><g class="layer-subplot"><g class="shapelayer"/><g class="imagelayer"/></g><g class="gridlayer"><g class="x"><path class="xgrid crisp" transform="translate(84.67,0)" d="M0,100v320" style="stroke: rgb(255, 255, 255); stroke-opacity: 1; stroke-width: 1px;"/><path class="xgrid crisp" transform="translate(174.61,0)" d="M0,100v320" style="stroke: rgb(255, 255, 255); stroke-opacity: 1; stroke-width: 1px;"/><path class="xgrid crisp" transform="translate(264.56,0)" d="M0,100v320" style="stroke: rgb(255, 255, 255); stroke-opacity: 1; stroke-width: 1px;"/><path class="xgrid crisp" transform="translate(354.51,0)" d="M0,100v320" style="stroke: rgb(255, 255, 255); stroke-opacity: 1; stroke-width: 1px;"/><path class="xgrid crisp" transform="translate(444.45,0)" d="M0,100v320" style="stroke: rgb(255, 255, 255); stroke-opacity: 1; stroke-width: 1px;"/><path class="xgrid crisp" transform="translate(534.4,0)" d="M0,100v320" style="stroke: rgb(255, 255, 255); stroke-opacity: 1; stroke-width: 1px;"/></g><g class="y"><path class="ygrid crisp" transform="translate(0,392.49)" d="M80,0h537" style="stroke: rgb(255, 255, 255); stroke-opacity: 1; stroke-width: 1px;"/><path class="ygrid crisp" transform="translate(0,349.49)" d="M80,0h537" style="stroke: rgb(255, 255, 255); stroke-opacity: 1; stroke-width: 1px;"/><path class="ygrid crisp" transform="translate(0,306.5)" d="M80,0h537" style="stroke: rgb(255, 255, 255); stroke-opacity: 1; stroke-width: 1px;"/><path class="ygrid crisp" transform="translate(0,263.5)" d="M80,0h537" style="stroke: rgb(255, 255, 255); stroke-opacity: 1; stroke-width: 1px;"/><path class="ygrid crisp" transform="translate(0,220.51)" d="M80,0h537" style="stroke: rgb(255, 255, 255); stroke-opacity: 1; stroke-width: 1px;"/><path class="ygrid crisp" transform="translate(0,177.51)" d="M80,0h537" style="stroke: rgb(255, 255, 255); stroke-opacity: 1; stroke-width: 1px;"/><path class="ygrid crisp" transform="translate(0,134.51)" d="M80,0h537" style="stroke: rgb(255, 255, 255); stroke-opacity: 1; stroke-width: 1px;"/></g></g><g class="zerolinelayer"/><path class="xlines-below"/><path class="ylines-below"/><g class="overlines-below"/><g class="xaxislayer-below"/><g class="yaxislayer-below"/><g class="overaxes-below"/><g class="plot" transform="translate(80,100)" clip-path="url('#clip85e09dxyplot')"><g class="scatterlayer mlayer"><g class="trace scatter trace6d5929" style="stroke-miterlimit: 2; opacity: 1;"><g class="fills"/><g class="errorbars"/><g class="lines"><path class="js-line" d="M0,304L3.6,302.58L4.85,249.47L6.1,250.77L7.35,249.08L12.34,248.43L13.59,248.04L16.1,248.82L17.35,247.91L18.63,248.56L19.84,248.3L24.84,247.39L26.09,247.65L29.84,246.87L31.09,246.61L36.08,247L37.33,246.61L43.58,246.48L44.82,246.48L48.58,245.44L49.83,245.7L54.82,244.79L56.06,244.14L57.32,244.66L58.57,244.27L59.81,243.36L61.07,243.62L62.32,244.27L63.57,242.71L67.31,241.8L68.56,242.32L69.81,241.93L71.06,242.84L72.3,241.93L73.56,239.85L76.05,240.37L77.3,239.46L82.3,237.51L83.55,236.6L86.04,237.9L87.3,236.73L88.54,234.65L89.8,235.17L91.04,236.21L92.29,234.65L94.79,232.31L96.04,231.92L98.55,230.23L99.79,230.75L102.29,229.58L103.54,229.84L104.79,231.4L106.03,229.19L109.79,230.23L111.04,229.84L113.54,226.07L114.78,225.68L116.03,226.46L117.28,225.16L118.53,225.29L119.78,226.98L121.03,226.72L122.28,225.16L127.27,220.74L128.52,218.01L129.78,218.66L131.02,217.23L132.27,216.19L133.52,216.97L136.02,217.23L137.27,218.27L142.27,216.06L143.51,215.93L146.02,215.28L147.27,214.24L148.51,213.85L149.76,214.37L151.02,215.54L152.26,215.54L154.76,213.33L156.01,213.07L159.76,212.29L161.01,211.77L162.26,210.99L163.5,211.38L169.75,211.12L171,211.38L173.49,209.95L174.75,208.39L175.99,207.22L177.25,207.22L178.5,206.44L179.75,207.35L183.49,207.48L184.74,141.45L188.49,139.35L189.74,139.61L192.24,139.09L193.49,138.17L195.99,138.3L197.24,138.3L202.23,137.65L203.48,137.52L207.23,136.99L208.48,137.12L219.72,137.12L220.97,137.26L229.71,136.99L230.96,136.34L234.71,136.34L235.96,135.29L240.95,135.42L242.21,134.9L244.7,135.03L245.95,134.37L248.45,133.72L249.7,134.37L253.45,131.36L254.69,131.36L255.95,132.4L257.19,132.01L259.69,130.7L260.94,131.36L264.69,129.26L265.94,127.55L267.19,129.26L268.43,128.47L272.18,126.24L273.44,127.16L275.93,125.59L277.18,126.77L278.43,127.82L279.68,126.9L280.93,127.95L282.18,127.42L283.42,126.5L284.67,127.55L285.92,126.9L287.17,127.29L290.92,127.95L292.17,127.55L294.7,125.59L295.94,124.15L298.43,124.01L299.69,124.54L300.94,125.06L302.19,123.1L307.19,122.18L308.44,120.47L312.18,121.52L313.43,121L315.93,117.46L317.18,119.03L318.43,119.03L319.68,117.85L320.93,118.77L322.17,118.25L324.68,116.41L325.92,116.54L329.67,113.39L330.92,113.53L333.42,111.17L334.67,111.95L337.16,109.86L338.42,110.38L342.16,109.72L343.41,107.1L344.66,106.97L345.9,105.92L347.16,104.48L348.41,104.74L349.66,105L350.91,106.18L352.16,106.84L353.41,106.18L354.67,108.15L355.91,107.36L357.15,107.23L358.4,105.66L359.65,105.27L360.9,105.79L363.4,106.05L364.65,60.03L367.14,58.18L368.39,57.91L370.89,57.25L372.14,56.32L377.14,55.53L378.39,55.27L380.89,54.34L382.14,54.21L384.63,53.02L385.89,53.02L387.14,53.55L388.38,53.15L390.88,52.36L392.14,52.49L407.12,51.17L408.37,51.43L413.37,50.51L414.62,50.77L417.11,50.51L418.36,50.9L422.11,49.85L423.35,49.98L424.61,50.24L425.85,49.45L433.35,48.79L435.85,48.26L437.1,46.94L439.59,46.54L442.09,46.14L443.34,44.43L444.59,45.62L445.85,44.43L448.34,44.43L449.59,43.76L450.84,43.63L452.09,42.44L455.83,42.18L457.09,40.59L458.33,39.14L459.58,38.87L462.05,36.76L463.29,37.42L465.78,35.96L467.04,36.36L468.29,34.64L469.53,34.38L470.79,33.85L472.03,34.25L473.29,33.98L474.53,32L475.78,31.34L477.03,31.87L479.53,31.07L480.78,30.68L482.03,30.54L483.28,29.49L485.78,29.49L487.02,30.01L489.52,31.6L490.78,29.75L493.28,30.94L494.54,28.96L497.03,29.09L498.28,29.49L502.02,27.63L503.27,28.03L505.76,26.31L507.02,25.25L508.27,22.74L509.52,23.27L510.76,21.82L512.01,23.27L513.26,21.69L514.51,21.42L515.76,21.16L517.01,19.83L520.76,20.36L522,19.31L523.25,19.83L524.5,18.25L527,18.12L528.25,17.06L533.25,17.45L534.49,16.53L535.74,16L537,16.4" style="vector-effect: non-scaling-stroke; fill: none; stroke: rgb(99, 110, 250); stroke-opacity: 1; stroke-width: 2px; opacity: 1;"/></g><g class="points"/><g class="text"/></g></g></g><g class="overplot"/><path class="xlines-above crisp" d="M0,0" style="fill: none;"/><path class="ylines-above crisp" d="M0,0" style="fill: none;"/><g class="overlines-above"/><g class="xaxislayer-above"><g class="xtick"><text text-anchor="middle" x="0" y="433" transform="translate(84.67,0)" style="font-family: 'Open Sans', verdana, arial, sans-serif; font-size: 12px; fill: rgb(42, 63, 95); fill-opacity: 1; white-space: pre;"><tspan class="line" dy="0em" x="0" y="433">00:00</tspan><tspan class="line" dy="1.3em" x="0" y="433">Aug 3, 2021</tspan></text></g><g class="xtick"><text text-anchor="middle" x="0" y="433" transform="translate(174.61,0)" style="font-family: 'Open Sans', verdana, arial, sans-serif; font-size: 12px; fill: rgb(42, 63, 95); fill-opacity: 1; white-space: pre;">12:00</text></g><g class="xtick"><text text-anchor="middle" x="0" y="433" transform="translate(264.56,0)" style="font-family: 'Open Sans', verdana, arial, sans-serif; font-size: 12px; fill: rgb(42, 63, 95); fill-opacity: 1; white-space: pre;"><tspan class="line" dy="0em" x="0" y="433">00:00</tspan><tspan class="line" dy="1.3em" x="0" y="433">Aug 4, 2021</tspan></text></g><g class="xtick"><text text-anchor="middle" x="0" y="433" transform="translate(354.51,0)" style="font-family: 'Open Sans', verdana, arial, sans-serif; font-size: 12px; fill: rgb(42, 63, 95); fill-opacity: 1; white-space: pre;">12:00</text></g><g class="xtick"><text text-anchor="middle" x="0" y="433" transform="translate(444.45,0)" style="font-family: 'Open Sans', verdana, arial, sans-serif; font-size: 12px; fill: rgb(42, 63, 95); fill-opacity: 1; white-space: pre;"><tspan class="line" dy="0em" x="0" y="433">00:00</tspan><tspan class="line" dy="1.3em" x="0" y="433">Aug 5, 2021</tspan></text></g><g class="xtick"><text text-anchor="middle" x="0" y="433" transform="translate(534.4,0)" style="font-family: 'Open Sans', verdana, arial, sans-serif; font-size: 12px; fill: rgb(42, 63, 95); fill-opacity: 1; white-space: pre;">12:00</text></g></g><g class="yaxislayer-above"><g class="ytick"><text text-anchor="end" x="79" y="4.199999999999999" transform="translate(0,392.49)" style="font-family: 'Open Sans', verdana, arial, sans-serif; font-size: 12px; fill: rgb(42, 63, 95); fill-opacity: 1; white-space: pre;">0.864</text></g><g class="ytick"><text text-anchor="end" x="79" y="4.199999999999999" transform="translate(0,349.49)" style="font-family: 'Open Sans', verdana, arial, sans-serif; font-size: 12px; fill: rgb(42, 63, 95); fill-opacity: 1; white-space: pre;">0.865</text></g><g class="ytick"><text text-anchor="end" x="79" y="4.199999999999999" transform="translate(0,306.5)" style="font-family: 'Open Sans', verdana, arial, sans-serif; font-size: 12px; fill: rgb(42, 63, 95); fill-opacity: 1; white-space: pre;">0.866</text></g><g class="ytick"><text text-anchor="end" x="79" y="4.199999999999999" transform="translate(0,263.5)" style="font-family: 'Open Sans', verdana, arial, sans-serif; font-size: 12px; fill: rgb(42, 63, 95); fill-opacity: 1; white-space: pre;">0.867</text></g><g class="ytick"><text text-anchor="end" x="79" y="4.199999999999999" transform="translate(0,220.51)" style="font-family: 'Open Sans', verdana, arial, sans-serif; font-size: 12px; fill: rgb(42, 63, 95); fill-opacity: 1; white-space: pre;">0.868</text></g><g class="ytick"><text text-anchor="end" x="79" y="4.199999999999999" transform="translate(0,177.51)" style="font-family: 'Open Sans', verdana, arial, sans-serif; font-size: 12px; fill: rgb(42, 63, 95); fill-opacity: 1; white-space: pre;">0.869</text></g><g class="ytick"><text text-anchor="end" x="79" y="4.199999999999999" transform="translate(0,134.51)" style="font-family: 'Open Sans', verdana, arial, sans-serif; font-size: 12px; fill: rgb(42, 63, 95); fill-opacity: 1; white-space: pre;">0.87</text></g></g><g class="overaxes-above"/></g></g><g class="polarlayer"/><g class="ternarylayer"/><g class="geolayer"/><g class="funnelarealayer"/><g class="pielayer"/><g class="treemaplayer"/><g class="sunburstlayer"/><g class="glimages"/><defs id="topdefs-85e09d"><g class="clips"/><clipPath id="legend85e09d"><rect width="60" height="45" x="0" y="0"/></clipPath></defs><g class="layer-above"><g class="imagelayer"/><g class="shapelayer"/></g><g class="infolayer"><g class="legend" pointer-events="all" transform="translate(627.74,100)"><rect class="bg" shape-rendering="crispEdges" width="60" height="45" x="0" y="0" style="stroke: rgb(68, 68, 68); stroke-opacity: 1; fill: rgb(255, 255, 255); fill-opacity: 1; stroke-width: 0px;"/><g class="scrollbox" transform="" clip-path="url('#legend85e09d')"><text class="legendtitletext" text-anchor="start" x="2" y="15.600000000000001" style="font-family: 'Open Sans', verdana, arial, sans-serif; font-size: 12px; fill: rgb(42, 63, 95); fill-opacity: 1; white-space: pre;">All</text><g class="groups" transform=""><g class="traces" transform="translate(0,30.1)" style="opacity: 1;"><text class="legendtext" text-anchor="start" x="40" y="4.680000000000001" style="font-family: 'Open Sans', verdana, arial, sans-serif; font-size: 12px; fill: rgb(42, 63, 95); fill-opacity: 1; white-space: pre;">All</text><g class="layers" style="opacity: 1;"><g class="legendfill"/><g class="legendlines"><path class="js-line" d="M5,0h30" style="fill: none; stroke: rgb(99, 110, 250); stroke-opacity: 1; stroke-width: 2px;"/></g><g class="legendsymbols"><g class="legendpoints"/></g></g><rect class="legendtoggle" x="0" y="-9.5" width="54.890625" height="19" style="fill: rgb(0, 0, 0); fill-opacity: 0;"/></g></g></g><rect class="scrollbar" rx="20" ry="3" width="0" height="0" x="0" y="0" style="fill: rgb(128, 139, 164); fill-opacity: 1;"/></g><g class="g-gtitle"><text class="gtitle" x="35" y="50" text-anchor="start" dy="0em" style="font-family: 'Open Sans', verdana, arial, sans-serif; font-size: 17px; fill: rgb(42, 63, 95); opacity: 1; font-weight: normal; white-space: pre;">Singapore Vaccination Centers</text></g><g class="g-xtitle"><text class="xtitle" x="348.5" y="476.409375" text-anchor="middle" style="font-family: 'Open Sans', verdana, arial, sans-serif; font-size: 14px; fill: rgb(42, 63, 95); opacity: 1; font-weight: normal; white-space: pre;">Time</text></g><g class="g-ytitle"><text class="ytitle" transform="rotate(-90,19.840625000000003,260)" x="19.840625000000003" y="260" text-anchor="middle" style="font-family: 'Open Sans', verdana, arial, sans-serif; font-size: 14px; fill: rgb(42, 63, 95); opacity: 1; font-weight: normal; white-space: pre;">Filled/%</text></g></g></svg>