<svg class="main-svg" xmlns="http://www.w3.org/2000/svg" xmlns:xlink="http://www.w3.org/1999/xlink" width="700" height="500" style="" viewBox="0 0 700 500"><rect x="0" y="0" width="700" height="500" style="fill: rgb(255, 255, 255); fill-opacity: 1;"/><defs id="defs-1a14fe"><g class="clips"><clipPath id="clip1a14fexyplot" class="plotclip"><rect width="537" height="320"/></clipPath><clipPath class="axesclip" id="clip1a14fex"><rect x="80" y="0" width="537" height="500"/></clipPath><clipPath class="axesclip" id="clip1a14fey"><rect x="0" y="100" width="700" height="320"/></clipPath><clipPath class="axesclip" id="clip1a14fexy"><rect x="80" y="100" width="537" height="320"/></clipPath></g><g class="gradients"/></defs><g class="bglayer"><rect class="bg" x="80" y="100" width="537" height="320" style="fill: rgb(229, 236, 246); fill-opacity: 1; stroke-width: 0;"/></g><g class="layer-below"><g class="imagelayer"/><g class="shapelayer"/></g><g class="cartesianlayer"><g class="subplot xy"><g class="layer-subplot"><g class="shapelayer"/><g class="imagelayer"/></g><g class="gridlayer"><g class="x"><path class="xgrid crisp" transform="translate(84.37,0)" d="M0,100v320" style="stroke: rgb(255, 255, 255); stroke-opacity: 1; stroke-width: 1px;"/><path class="xgrid crisp" transform="translate(168.63,0)" d="M0,100v320" style="stroke: rgb(255, 255, 255); stroke-opacity: 1; stroke-width: 1px;"/><path class="xgrid crisp" transform="translate(252.9,0)" d="M0,100v320" style="stroke: rgb(255, 255, 255); stroke-opacity: 1; stroke-width: 1px;"/><path class="xgrid crisp" transform="translate(337.16,0)" d="M0,100v320" style="stroke: rgb(255, 255, 255); stroke-opacity: 1; stroke-width: 1px;"/><path class="xgrid crisp" transform="translate(421.42,0)" d="M0,100v320" style="stroke: rgb(255, 255, 255); stroke-opacity: 1; stroke-width: 1px;"/><path class="xgrid crisp" transform="translate(505.68,0)" d="M0,100v320" style="stroke: rgb(255, 255, 255); stroke-opacity: 1; stroke-width: 1px;"/><path class="xgrid crisp" transform="translate(589.94,0)" d="M0,100v320" style="stroke: rgb(255, 255, 255); stroke-opacity: 1; stroke-width: 1px;"/></g><g class="y"><path class="ygrid crisp" transform="translate(0,392.55)" d="M80,0h537" style="stroke: rgb(255, 255, 255); stroke-opacity: 1; stroke-width: 1px;"/><path class="ygrid crisp" transform="translate(0,349.77)" d="M80,0h537" style="stroke: rgb(255, 255, 255); stroke-opacity: 1; stroke-width: 1px;"/><path class="ygrid crisp" transform="translate(0,306.99)" d="M80,0h537" style="stroke: rgb(255, 255, 255); stroke-opacity: 1; stroke-width: 1px;"/><path class="ygrid crisp" transform="translate(0,264.21000000000004)" d="M80,0h537" style="stroke: rgb(255, 255, 255); stroke-opacity: 1; stroke-width: 1px;"/><path class="ygrid crisp" transform="translate(0,221.43)" d="M80,0h537" style="stroke: rgb(255, 255, 255); stroke-opacity: 1; stroke-width: 1px;"/><path class="ygrid crisp" transform="translate(0,178.65)" d="M80,0h537" style="stroke: rgb(255, 255, 255); stroke-opacity: 1; stroke-width: 1px;"/><path class="ygrid crisp" transform="translate(0,135.87)" d="M80,0h537" style="stroke: rgb(255, 255, 255); stroke-opacity: 1; stroke-width: 1px;"/></g></g><g class="zerolinelayer"/><path class="xlines-below"/><path class="ylines-below"/><g class="overlines-below"/><g class="xaxislayer-below"/><g class="yaxislayer-below"/><g class="overaxes-below"/><g class="plot" transform="translate(80,100)" clip-path="url('#clip1a14fexyplot')"><g class="scatterlayer mlayer"><g class="trace scatter trace587b1d" style="stroke-miterlimit: 2; opacity: 1;"><g class="fills"/><g class="errorbars"/><g class="lines"><path class="js-line" d="M0,304L3.37,302.59L4.55,249.74L5.72,251.04L6.89,249.35L11.56,248.71L12.73,248.32L15.08,249.1L16.25,248.19L17.45,248.84L18.59,248.58L23.27,247.67L24.44,247.93L27.95,247.16L29.12,246.9L33.8,247.29L34.97,246.9L40.82,246.77L41.99,246.77L45.51,245.73L46.68,245.99L51.35,245.09L52.52,244.44L53.7,244.96L54.87,244.57L56.03,243.66L57.21,243.92L58.38,244.57L59.55,243.02L63.05,242.11L64.23,242.63L65.4,242.24L66.57,243.15L67.74,242.24L68.91,240.17L71.25,240.69L72.42,239.78L77.1,237.84L78.27,236.94L80.61,238.23L81.78,237.07L82.95,235L84.12,235.51L85.29,236.55L86.46,235L88.8,232.67L89.97,232.28L92.32,230.6L93.49,231.12L95.82,229.95L97,230.21L98.17,231.76L99.33,229.56L102.85,230.6L104.02,230.21L106.36,226.46L107.53,226.07L108.7,226.85L109.87,225.55L111.04,225.68L112.21,227.36L113.38,227.11L114.55,225.55L119.23,221.16L120.4,218.44L121.57,219.09L122.74,217.66L123.92,216.63L125.08,217.4L127.42,217.66L128.59,218.7L133.28,216.5L134.45,216.37L136.79,215.72L137.96,214.69L139.13,214.3L140.3,214.82L141.47,215.98L142.63,215.98L144.98,213.78L146.15,213.52L149.66,212.75L150.83,212.23L152,211.45L153.17,211.84L159.03,211.58L160.2,211.84L162.53,210.42L163.71,208.87L164.87,207.7L166.05,207.7L167.22,206.93L168.39,207.83L171.9,207.96L173.07,142.27L176.58,140.18L177.75,140.44L180.09,139.92L181.26,139.01L183.6,139.14L184.77,139.14L189.45,138.48L190.62,138.35L194.13,137.83L195.3,137.96L205.83,137.96L207.01,138.09L215.19,137.83L216.37,137.18L219.87,137.18L221.05,136.14L225.72,136.27L226.9,135.74L229.24,135.88L230.4,135.22L232.75,134.57L233.92,135.22L237.43,132.22L238.6,132.22L239.77,133.27L240.94,132.88L243.28,131.57L244.45,132.22L247.96,130.14L249.13,128.44L250.3,130.14L251.47,129.35L254.98,127.14L256.16,128.05L258.49,126.48L259.66,127.66L260.83,128.7L262.01,127.79L263.18,128.83L264.35,128.31L265.51,127.4L266.69,128.44L267.86,127.79L269.02,128.18L272.54,128.83L273.71,128.44L276.07,126.48L277.23,125.05L279.57,124.92L280.75,125.44L281.92,125.96L283.09,124.01L287.77,123.09L288.94,121.4L292.45,122.44L293.62,121.92L295.96,118.4L297.13,119.96L298.31,119.96L299.48,118.79L300.64,119.7L301.81,119.18L304.16,117.35L305.33,117.48L308.84,114.35L310.01,114.48L312.35,112.14L313.52,112.92L315.86,110.83L317.03,111.35L320.54,110.7L321.71,108.09L322.88,107.96L324.04,106.92L325.22,105.48L326.39,105.74L327.56,106L328.73,107.18L329.91,107.83L331.07,107.18L332.25,109.13L333.41,108.35L334.58,108.22L335.75,106.66L336.92,106.27L338.09,106.79L340.44,107.05L341.61,61.25L343.94,59.41L345.11,59.15L348.63,57.57L349.79,57.17L352.14,57.04L353.3,56.78L357.99,55.46L359.16,54.54L361.5,54.28L362.67,54.81L366.18,53.62L367.35,53.75L381.39,52.44L382.56,52.7L387.25,51.78L388.42,52.04L390.75,51.78L391.93,52.18L395.43,51.12L396.6,51.25L397.78,51.52L398.94,50.73L405.96,50.07L408.3,49.54L409.48,48.23L411.81,47.83L414.15,47.44L415.33,45.73L416.5,46.91L417.67,45.73L420.01,45.73L421.18,45.07L422.35,44.94L423.52,43.76L427.03,43.49L428.2,41.91L430.54,40.2L431.71,39.42L432.85,38.1L434.01,38.76L436.35,37.31L437.52,37.71L438.69,36L439.86,35.73L441.03,35.21L442.2,35.6L443.38,35.34L444.54,33.36L445.72,32.71L446.88,33.23L449.22,32.44L450.4,32.05L451.57,31.92L452.74,30.86L455.08,30.86L456.24,31.39L458.59,32.97L459.77,31.13L462.1,32.31L463.29,30.34L465.62,30.47L466.79,30.86L470.3,29.02L471.47,29.42L473.8,27.71L474.98,26.66L476.15,24.16L477.32,24.68L478.48,23.24L479.66,24.68L480.82,23.1L482,22.84L483.17,22.58L484.34,21.26L487.85,21.79L489.01,20.74L490.19,21.26L491.36,19.68L493.7,19.55L494.87,18.5L499.55,18.89L500.72,17.97L501.89,17.45L503.06,17.84L504.24,17.97L505.4,17.05L506.58,16L507.74,16.66L508.92,16.39L510.09,171.81L515.94,171.4L517.11,172.08L520.62,170.99L521.79,170.99L524.13,169.76L525.3,169.76L527.64,168.94L528.81,169.08L537,168.53" style="vector-effect: non-scaling-stroke; fill: none; stroke: rgb(99, 110, 250); stroke-opacity: 1; stroke-width: 2px; opacity: 1;"/></g><g class="points"/><g class="text"/></g></g></g><g class="overplot"/><path class="xlines-above crisp" d="M0,0" style="fill: none;"/><path class="ylines-above crisp" d="M0,0" style="fill: none;"/><g class="overlines-above"/><g class="xaxislayer-above"><g class="xtick"><text text-anchor="middle" x="0" y="433" transform="translate(84.37,0)" style="font-family: 'Open Sans', verdana, arial, sans-serif; font-size: 12px; fill: rgb(42, 63, 95); fill-opacity: 1; white-space: pre;"><tspan class="line" dy="0em" x="0" y="433">00:00</tspan><tspan class="line" dy="1.3em" x="0" y="433">Aug 3, 2021</tspan></text></g><g class="xtick"><text text-anchor="middle" x="0" y="433" transform="translate(168.63,0)" style="font-family: 'Open Sans', verdana, arial, sans-serif; font-size: 12px; fill: rgb(42, 63, 95); fill-opacity: 1; white-space: pre;">12:00</text></g><g class="xtick"><text text-anchor="middle" x="0" y="433" transform="translate(252.9,0)" style="font-family: 'Open Sans', verdana, arial, sans-serif; font-size: 12px; fill: rgb(42, 63, 95); fill-opacity: 1; white-space: pre;"><tspan class="line" dy="0em" x="0" y="433">00:00</tspan><tspan class="line" dy="1.3em" x="0" y="433">Aug 4, 2021</tspan></text></g><g class="xtick"><text text-anchor="middle" x="0" y="433" transform="translate(337.16,0)" style="font-family: 'Open Sans', verdana, arial, sans-serif; font-size: 12px; fill: rgb(42, 63, 95); fill-opacity: 1; white-space: pre;">12:00</text></g><g class="xtick"><text text-anchor="middle" x="0" y="433" transform="translate(421.42,0)" style="font-family: 'Open Sans', verdana, arial, sans-serif; font-size: 12px; fill: rgb(42, 63, 95); fill-opacity: 1; white-space: pre;"><tspan class="line" dy="0em" x="0" y="433">00:00</tspan><tspan class="line" dy="1.3em" x="0" y="433">Aug 5, 2021</tspan></text></g><g class="xtick"><text text-anchor="middle" x="0" y="433" transform="translate(505.68,0)" style="font-family: 'Open Sans', verdana, arial, sans-serif; font-size: 12px; fill: rgb(42, 63, 95); fill-opacity: 1; white-space: pre;">12:00</text></g><g class="xtick"><text text-anchor="middle" x="0" y="433" transform="translate(589.94,0)" style="font-family: 'Open Sans', verdana, arial, sans-serif; font-size: 12px; fill: rgb(42, 63, 95); fill-opacity: 1; white-space: pre;"><tspan class="line" dy="0em" x="0" y="433">00:00</tspan><tspan class="line" dy="1.3em" x="0" y="433">Aug 6, 2021</tspan></text></g></g><g class="yaxislayer-above"><g class="ytick"><text text-anchor="end" x="79" y="4.199999999999999" transform="translate(0,392.55)" style="font-family: 'Open Sans', verdana, arial, sans-serif; font-size: 12px; fill: rgb(42, 63, 95); fill-opacity: 1; white-space: pre;">0.864</text></g><g class="ytick"><text text-anchor="end" x="79" y="4.199999999999999" transform="translate(0,349.77)" style="font-family: 'Open Sans', verdana, arial, sans-serif; font-size: 12px; fill: rgb(42, 63, 95); fill-opacity: 1; white-space: pre;">0.865</text></g><g class="ytick"><text text-anchor="end" x="79" y="4.199999999999999" transform="translate(0,306.99)" style="font-family: 'Open Sans', verdana, arial, sans-serif; font-size: 12px; fill: rgb(42, 63, 95); fill-opacity: 1; white-space: pre;">0.866</text></g><g class="ytick"><text text-anchor="end" x="79" y="4.199999999999999" transform="translate(0,264.21000000000004)" style="font-family: 'Open Sans', verdana, arial, sans-serif; font-size: 12px; fill: rgb(42, 63, 95); fill-opacity: 1; white-space: pre;">0.867</text></g><g class="ytick"><text text-anchor="end" x="79" y="4.199999999999999" transform="translate(0,221.43)" style="font-family: 'Open Sans', verdana, arial, sans-serif; font-size: 12px; fill: rgb(42, 63, 95); fill-opacity: 1; white-space: pre;">0.868</text></g><g class="ytick"><text text-anchor="end" x="79" y="4.199999999999999" transform="translate(0,178.65)" style="font-family: 'Open Sans', verdana, arial, sans-serif; font-size: 12px; fill: rgb(42, 63, 95); fill-opacity: 1; white-space: pre;">0.869</text></g><g class="ytick"><text text-anchor="end" x="79" y="4.199999999999999" transform="translate(0,135.87)" style="font-family: 'Open Sans', verdana, arial, sans-serif; font-size: 12px; fill: rgb(42, 63, 95); fill-opacity: 1; white-space: pre;">0.87</text></g></g><g class="overaxes-above"/></g></g><g class="polarlayer"/><g class="ternarylayer"/><g class="geolayer"/><g class="funnelarealayer"/><g class="pielayer"/><g class="treemaplayer"/><g class="sunburstlayer"/><g class="glimages"/><defs id="topdefs-1a14fe"><g class="clips"/><clipPath id="legend1a14fe"><rect width="60" height="45" x="0" y="0"/></clipPath></defs><g class="layer-above"><g class="imagelayer"/><g class="shapelayer"/></g><g class="infolayer"><g class="legend" pointer-events="all" transform="translate(627.74,100)"><rect class="bg" shape-rendering="crispEdges" width="60" height="45" x="0" y="0" style="stroke: rgb(68, 68, 68); stroke-opacity: 1; fill: rgb(255, 255, 255); fill-opacity: 1; stroke-width: 0px;"/><g class="scrollbox" transform="" clip-path="url('#legend1a14fe')"><text class="legendtitletext" text-anchor="start" x="2" y="15.600000000000001" style="font-family: 'Open Sans', verdana, arial, sans-serif; font-size: 12px; fill: rgb(42, 63, 95); fill-opacity: 1; white-space: pre;">All</text><g class="groups" transform=""><g class="traces" transform="translate(0,30.1)" style="opacity: 1;"><text class="legendtext" text-anchor="start" x="40" y="4.680000000000001" style="font-family: 'Open Sans', verdana, arial, sans-serif; font-size: 12px; fill: rgb(42, 63, 95); fill-opacity: 1; white-space: pre;">All</text><g class="layers" style="opacity: 1;"><g class="legendfill"/><g class="legendlines"><path class="js-line" d="M5,0h30" style="fill: none; stroke: rgb(99, 110, 250); stroke-opacity: 1; stroke-width: 2px;"/></g><g class="legendsymbols"><g class="legendpoints"/></g></g><rect class="legendtoggle" x="0" y="-9.5" width="54.890625" height="19" style="fill: rgb(0, 0, 0); fill-opacity: 0;"/></g></g></g><rect class="scrollbar" rx="20" ry="3" width="0" height="0" x="0" y="0" style="fill: rgb(128, 139, 164); fill-opacity: 1;"/></g><g class="g-gtitle"><text class="gtitle" x="35" y="50" text-anchor="start" dy="0em" style="font-family: 'Open Sans', verdana, arial, sans-serif; font-size: 17px; fill: rgb(42, 63, 95); opacity: 1; font-weight: normal; white-space: pre;">Singapore Vaccination Centers</text></g><g class="g-xtitle"><text class="xtitle" x="348.5" y="476.409375" text-anchor="middle" style="font-family: 'Open Sans', verdana, arial, sans-serif; font-size: 14px; fill: rgb(42, 63, 95); opacity: 1; font-weight: normal; white-space: pre;">Time</text></g><g class="g-ytitle"><text class="ytitle" transform="rotate(-90,19.840625000000003,260)" x="19.840625000000003" y="260" text-anchor="middle" style="font-family: 'Open Sans', verdana, arial, sans-serif; font-size: 14px; fill: rgb(42, 63, 95); opacity: 1; font-weight: normal; white-space: pre;">Filled/%</text></g></g></svg>