<svg class="main-svg" xmlns="http://www.w3.org/2000/svg" xmlns:xlink="http://www.w3.org/1999/xlink" width="700" height="500" style="" viewBox="0 0 700 500"><rect x="0" y="0" width="700" height="500" style="fill: rgb(255, 255, 255); fill-opacity: 1;"/><defs id="defs-d3b5dd"><g class="clips"><clipPath id="clipd3b5ddxyplot" class="plotclip"><rect width="537" height="320"/></clipPath><clipPath class="axesclip" id="clipd3b5ddx"><rect x="80" y="0" width="537" height="500"/></clipPath><clipPath class="axesclip" id="clipd3b5ddy"><rect x="0" y="100" width="700" height="320"/></clipPath><clipPath class="axesclip" id="clipd3b5ddxy"><rect x="80" y="100" width="537" height="320"/></clipPath></g><g class="gradients"/></defs><g class="bglayer"><rect class="bg" x="80" y="100" width="537" height="320" style="fill: rgb(229, 236, 246); fill-opacity: 1; stroke-width: 0;"/></g><g class="layer-below"><g class="imagelayer"/><g class="shapelayer"/></g><g class="cartesianlayer"><g class="subplot xy"><g class="layer-subplot"><g class="shapelayer"/><g class="imagelayer"/></g><g class="gridlayer"><g class="x"><path class="xgrid crisp" transform="translate(93.56,0)" d="M0,100v320" style="stroke: rgb(255, 255, 255); stroke-opacity: 1; stroke-width: 1px;"/><path class="xgrid crisp" transform="translate(166.59,0)" d="M0,100v320" style="stroke: rgb(255, 255, 255); stroke-opacity: 1; stroke-width: 1px;"/><path class="xgrid crisp" transform="translate(239.62,0)" d="M0,100v320" style="stroke: rgb(255, 255, 255); stroke-opacity: 1; stroke-width: 1px;"/><path class="xgrid crisp" transform="translate(312.65,0)" d="M0,100v320" style="stroke: rgb(255, 255, 255); stroke-opacity: 1; stroke-width: 1px;"/><path class="xgrid crisp" transform="translate(385.68,0)" d="M0,100v320" style="stroke: rgb(255, 255, 255); stroke-opacity: 1; stroke-width: 1px;"/><path class="xgrid crisp" transform="translate(458.7,0)" d="M0,100v320" style="stroke: rgb(255, 255, 255); stroke-opacity: 1; stroke-width: 1px;"/><path class="xgrid crisp" transform="translate(531.73,0)" d="M0,100v320" style="stroke: rgb(255, 255, 255); stroke-opacity: 1; stroke-width: 1px;"/><path class="xgrid crisp" transform="translate(604.76,0)" d="M0,100v320" style="stroke: rgb(255, 255, 255); stroke-opacity: 1; stroke-width: 1px;"/></g><g class="y"><path class="ygrid crisp" transform="translate(0,396.08)" d="M80,0h537" style="stroke: rgb(255, 255, 255); stroke-opacity: 1; stroke-width: 1px;"/><path class="ygrid crisp" transform="translate(0,357.65)" d="M80,0h537" style="stroke: rgb(255, 255, 255); stroke-opacity: 1; stroke-width: 1px;"/><path class="ygrid crisp" transform="translate(0,319.21000000000004)" d="M80,0h537" style="stroke: rgb(255, 255, 255); stroke-opacity: 1; stroke-width: 1px;"/><path class="ygrid crisp" transform="translate(0,280.77)" d="M80,0h537" style="stroke: rgb(255, 255, 255); stroke-opacity: 1; stroke-width: 1px;"/><path class="ygrid crisp" transform="translate(0,242.33)" d="M80,0h537" style="stroke: rgb(255, 255, 255); stroke-opacity: 1; stroke-width: 1px;"/><path class="ygrid crisp" transform="translate(0,203.9)" d="M80,0h537" style="stroke: rgb(255, 255, 255); stroke-opacity: 1; stroke-width: 1px;"/><path class="ygrid crisp" transform="translate(0,165.45999999999998)" d="M80,0h537" style="stroke: rgb(255, 255, 255); stroke-opacity: 1; stroke-width: 1px;"/><path class="ygrid crisp" transform="translate(0,127.02)" d="M80,0h537" style="stroke: rgb(255, 255, 255); stroke-opacity: 1; stroke-width: 1px;"/></g></g><g class="zerolinelayer"/><path class="xlines-below"/><path class="ylines-below"/><g class="overlines-below"/><g class="xaxislayer-below"/><g class="yaxislayer-below"/><g class="overaxes-below"/><g class="plot" transform="translate(80,100)" clip-path="url('#clipd3b5ddxyplot')"><g class="scatterlayer mlayer"><g class="trace scatter traced7b590" style="stroke-miterlimit: 2; opacity: 1;"><g class="fills"/><g class="errorbars"/><g class="lines"><path class="js-line" d="M0,158.43L8.57,159.03L11.61,258.3L17.66,258.53L19.9,301.29L20.85,301.24L43.25,304L44.64,260.25L45.07,282.21L46.08,282.04L48.11,273.71L49.13,273.45L51.15,282.63L52.17,282.41L54.2,290.28L55.21,290.06L57.24,258.86L58.26,258.67L60.28,290.09L61.3,289.85L63.32,274.51L64.34,265.73L66.37,239.29L67.38,229.62L69.41,190.57L70.42,186.17L72.45,137.21L73.47,133.82L75.49,149.27L76.51,146.52L78.54,109.79L79.55,107.53L81.58,114.48L82.59,112.78L84.62,137.47L85.64,136.32L86.98,78.81L87.67,80.65L88.68,80.15L93.75,79.1L94.77,79.01L99.84,78.7L100.85,78.68L110.99,77.87L112.01,77.61L116.06,75.72L117.08,75.06L139.39,59.07L140.41,58.56L158.67,50.36L159.68,52.55L167.79,51.84L168.81,51.82L190.11,50.78L191.12,50.51L224.59,41.22L225.61,40.94L231.69,39.57L232.71,36.2L241.84,35.78L242.85,35.77L261.11,34.98L262.12,34.76L275.31,31.31L276.32,31.04L287.48,28.46L288.49,28.3L304.72,24.47L305.74,17.97L318.93,17.64L319.94,17.64L334.14,17.02L335.15,16.87L340.23,16L341.24,192.67L348.34,189.35L349.38,188.93L354.43,186.77L355.44,182.56L357.47,176.29L358.48,174.72L359.5,172.11L360.51,164.66L362.54,143.76L363.56,139.09L367.61,127.85L368.63,125.76L373.7,118.2L374.71,116.99L377.76,114.37L378.77,114.55L382.83,113.06L383.84,112.94L393.99,112.35L395,112.32L405.14,111.31L406.15,111.07L413.25,107.6L414.27,106.68L419.34,101.38L420.35,107.44L423.39,105.22L424.41,103.17L430.5,84.52L431.51,82.49L434.56,74.76L435.57,71.75L436.58,68.73L437.6,62.28L440.64,47.45L441.65,44.37L446.72,32.6L447.74,30.87L450.78,27.16L451.8,27.58L455.85,25.68L456.87,25.47L464.98,24.63L466,24.59L475.13,23.52L476.14,23.2L480.19,20.72L481.21,19.95L485.27,16.73L486.28,138.89L488.31,134.74L489.32,133.52L496.43,126.28L497.44,125.54L500.48,123.19L501.26,131.35L501.5,122.1L502.47,121.74L502.51,124.34L503.48,120.94L503.53,123.55L504.54,122.71L506.57,121.32L507.58,143.13L516.46,136.53L516.5,132.35L516.55,131.62L516.71,136.08L526.35,60.26L526.85,60.6L527.36,52.97L528.38,53.42L528.88,56.23L530.4,41.15L530.91,52.06L531.42,48.26L531.93,48.33L532.43,46.99L534.46,42.97L534.97,45.15L535.48,43.33L535.98,44.04L536.49,43.74L537,43.5" style="vector-effect: non-scaling-stroke; fill: none; stroke: rgb(99, 110, 250); stroke-opacity: 1; stroke-width: 2px; opacity: 1;"/></g><g class="points"/><g class="text"/></g></g></g><g class="overplot"/><path class="xlines-above crisp" d="M0,0" style="fill: none;"/><path class="ylines-above crisp" d="M0,0" style="fill: none;"/><g class="overlines-above"/><g class="xaxislayer-above"><g class="xtick"><text text-anchor="middle" x="0" y="433" transform="translate(93.56,0)" style="font-family: 'Open Sans', verdana, arial, sans-serif; font-size: 12px; fill: rgb(42, 63, 95); fill-opacity: 1; white-space: pre;"><tspan class="line" dy="0em" x="0" y="433">Jun 4</tspan><tspan class="line" dy="1.3em" x="0" y="433">2021</tspan></text></g><g class="xtick"><text text-anchor="middle" x="0" y="433" transform="translate(166.59,0)" style="font-family: 'Open Sans', verdana, arial, sans-serif; font-size: 12px; fill: rgb(42, 63, 95); fill-opacity: 1; white-space: pre;">Jun 5</text></g><g class="xtick"><text text-anchor="middle" x="0" y="433" transform="translate(239.62,0)" style="font-family: 'Open Sans', verdana, arial, sans-serif; font-size: 12px; fill: rgb(42, 63, 95); fill-opacity: 1; white-space: pre;">Jun 6</text></g><g class="xtick"><text text-anchor="middle" x="0" y="433" transform="translate(312.65,0)" style="font-family: 'Open Sans', verdana, arial, sans-serif; font-size: 12px; fill: rgb(42, 63, 95); fill-opacity: 1; white-space: pre;">Jun 7</text></g><g class="xtick"><text text-anchor="middle" x="0" y="433" transform="translate(385.68,0)" style="font-family: 'Open Sans', verdana, arial, sans-serif; font-size: 12px; fill: rgb(42, 63, 95); fill-opacity: 1; white-space: pre;">Jun 8</text></g><g class="xtick"><text text-anchor="middle" x="0" y="433" transform="translate(458.7,0)" style="font-family: 'Open Sans', verdana, arial, sans-serif; font-size: 12px; fill: rgb(42, 63, 95); fill-opacity: 1; white-space: pre;">Jun 9</text></g><g class="xtick"><text text-anchor="middle" x="0" y="433" transform="translate(531.73,0)" style="font-family: 'Open Sans', verdana, arial, sans-serif; font-size: 12px; fill: rgb(42, 63, 95); fill-opacity: 1; white-space: pre;">Jun 10</text></g><g class="xtick"><text text-anchor="middle" x="0" y="433" transform="translate(604.76,0)" style="font-family: 'Open Sans', verdana, arial, sans-serif; font-size: 12px; fill: rgb(42, 63, 95); fill-opacity: 1; white-space: pre;">Jun 11</text></g></g><g class="yaxislayer-above"><g class="ytick"><text text-anchor="end" x="79" y="4.199999999999999" transform="translate(0,396.08)" style="font-family: 'Open Sans', verdana, arial, sans-serif; font-size: 12px; fill: rgb(42, 63, 95); fill-opacity: 1; white-space: pre;">0.845</text></g><g class="ytick"><text text-anchor="end" x="79" y="4.199999999999999" transform="translate(0,357.65)" style="font-family: 'Open Sans', verdana, arial, sans-serif; font-size: 12px; fill: rgb(42, 63, 95); fill-opacity: 1; white-space: pre;">0.85</text></g><g class="ytick"><text text-anchor="end" x="79" y="4.199999999999999" transform="translate(0,319.21000000000004)" style="font-family: 'Open Sans', verdana, arial, sans-serif; font-size: 12px; fill: rgb(42, 63, 95); fill-opacity: 1; white-space: pre;">0.855</text></g><g class="ytick"><text text-anchor="end" x="79" y="4.199999999999999" transform="translate(0,280.77)" style="font-family: 'Open Sans', verdana, arial, sans-serif; font-size: 12px; fill: rgb(42, 63, 95); fill-opacity: 1; white-space: pre;">0.86</text></g><g class="ytick"><text text-anchor="end" x="79" y="4.199999999999999" transform="translate(0,242.33)" style="font-family: 'Open Sans', verdana, arial, sans-serif; font-size: 12px; fill: rgb(42, 63, 95); fill-opacity: 1; white-space: pre;">0.865</text></g><g class="ytick"><text text-anchor="end" x="79" y="4.199999999999999" transform="translate(0,203.9)" style="font-family: 'Open Sans', verdana, arial, sans-serif; font-size: 12px; fill: rgb(42, 63, 95); fill-opacity: 1; white-space: pre;">0.87</text></g><g class="ytick"><text text-anchor="end" x="79" y="4.199999999999999" transform="translate(0,165.45999999999998)" style="font-family: 'Open Sans', verdana, arial, sans-serif; font-size: 12px; fill: rgb(42, 63, 95); fill-opacity: 1; white-space: pre;">0.875</text></g><g class="ytick"><text text-anchor="end" x="79" y="4.199999999999999" transform="translate(0,127.02)" style="font-family: 'Open Sans', verdana, arial, sans-serif; font-size: 12px; fill: rgb(42, 63, 95); fill-opacity: 1; white-space: pre;">0.88</text></g></g><g class="overaxes-above"/></g></g><g class="polarlayer"/><g class="ternarylayer"/><g class="geolayer"/><g class="funnelarealayer"/><g class="pielayer"/><g class="treemaplayer"/><g class="sunburstlayer"/><g class="glimages"/><defs id="topdefs-d3b5dd"><g class="clips"/><clipPath id="legendd3b5dd"><rect width="60" height="45" x="0" y="0"/></clipPath></defs><g class="layer-above"><g class="imagelayer"/><g class="shapelayer"/></g><g class="infolayer"><g class="legend" pointer-events="all" transform="translate(627.74,100)"><rect class="bg" shape-rendering="crispEdges" width="60" height="45" x="0" y="0" style="stroke: rgb(68, 68, 68); stroke-opacity: 1; fill: rgb(255, 255, 255); fill-opacity: 1; stroke-width: 0px;"/><g class="scrollbox" transform="" clip-path="url('#legendd3b5dd')"><text class="legendtitletext" text-anchor="start" x="2" y="15.600000000000001" style="font-family: 'Open Sans', verdana, arial, sans-serif; font-size: 12px; fill: rgb(42, 63, 95); fill-opacity: 1; white-space: pre;">All</text><g class="groups" transform=""><g class="traces" transform="translate(0,30.1)" style="opacity: 1;"><text class="legendtext" text-anchor="start" x="40" y="4.680000000000001" style="font-family: 'Open Sans', verdana, arial, sans-serif; font-size: 12px; fill: rgb(42, 63, 95); fill-opacity: 1; white-space: pre;">All</text><g class="layers" style="opacity: 1;"><g class="legendfill"/><g class="legendlines"><path class="js-line" d="M5,0h30" style="fill: none; stroke: rgb(99, 110, 250); stroke-opacity: 1; stroke-width: 2px;"/></g><g class="legendsymbols"><g class="legendpoints"/></g></g><rect class="legendtoggle" x="0" y="-9.5" width="54.890625" height="19" style="fill: rgb(0, 0, 0); fill-opacity: 0;"/></g></g></g><rect class="scrollbar" rx="20" ry="3" width="0" height="0" x="0" y="0" style="fill: rgb(128, 139, 164); fill-opacity: 1;"/></g><g class="g-gtitle"><text class="gtitle" x="35" y="50" text-anchor="start" dy="0em" style="font-family: 'Open Sans', verdana, arial, sans-serif; font-size: 17px; fill: rgb(42, 63, 95); opacity: 1; font-weight: normal; white-space: pre;">Singapore Vaccination Centers</text></g><g class="g-xtitle"><text class="xtitle" x="348.5" y="476.409375" text-anchor="middle" style="font-family: 'Open Sans', verdana, arial, sans-serif; font-size: 14px; fill: rgb(42, 63, 95); opacity: 1; font-weight: normal; white-space: pre;">Time</text></g><g class="g-ytitle"><text class="ytitle" transform="rotate(-90,19.840625000000003,260)" x="19.840625000000003" y="260" text-anchor="middle" style="font-family: 'Open Sans', verdana, arial, sans-serif; font-size: 14px; fill: rgb(42, 63, 95); opacity: 1; font-weight: normal; white-space: pre;">Filled/%</text></g></g></svg>