<svg class="main-svg" xmlns="http://www.w3.org/2000/svg" xmlns:xlink="http://www.w3.org/1999/xlink" width="700" height="500" style="" viewBox="0 0 700 500"><rect x="0" y="0" width="700" height="500" style="fill: rgb(255, 255, 255); fill-opacity: 1;"/><defs id="defs-54bfc4"><g class="clips"><clipPath id="clip54bfc4xyplot" class="plotclip"><rect width="537" height="320"/></clipPath><clipPath class="axesclip" id="clip54bfc4x"><rect x="80" y="0" width="537" height="500"/></clipPath><clipPath class="axesclip" id="clip54bfc4y"><rect x="0" y="100" width="700" height="320"/></clipPath><clipPath class="axesclip" id="clip54bfc4xy"><rect x="80" y="100" width="537" height="320"/></clipPath></g><g class="gradients"/></defs><g class="bglayer"><rect class="bg" x="80" y="100" width="537" height="320" style="fill: rgb(229, 236, 246); fill-opacity: 1; stroke-width: 0;"/></g><g class="layer-below"><g class="imagelayer"/><g class="shapelayer"/></g><g class="cartesianlayer"><g class="subplot xy"><g class="layer-subplot"><g class="shapelayer"/><g class="imagelayer"/></g><g class="gridlayer"><g class="x"><path class="xgrid crisp" transform="translate(84.99,0)" d="M0,100v320" style="stroke: rgb(255, 255, 255); stroke-opacity: 1; stroke-width: 1px;"/><path class="xgrid crisp" transform="translate(181.20999999999998,0)" d="M0,100v320" style="stroke: rgb(255, 255, 255); stroke-opacity: 1; stroke-width: 1px;"/><path class="xgrid crisp" transform="translate(277.41999999999996,0)" d="M0,100v320" style="stroke: rgb(255, 255, 255); stroke-opacity: 1; stroke-width: 1px;"/><path class="xgrid crisp" transform="translate(373.63,0)" d="M0,100v320" style="stroke: rgb(255, 255, 255); stroke-opacity: 1; stroke-width: 1px;"/><path class="xgrid crisp" transform="translate(469.85,0)" d="M0,100v320" style="stroke: rgb(255, 255, 255); stroke-opacity: 1; stroke-width: 1px;"/><path class="xgrid crisp" transform="translate(566.06,0)" d="M0,100v320" style="stroke: rgb(255, 255, 255); stroke-opacity: 1; stroke-width: 1px;"/></g><g class="y"><path class="ygrid crisp" transform="translate(0,392.01)" d="M80,0h537" style="stroke: rgb(255, 255, 255); stroke-opacity: 1; stroke-width: 1px;"/><path class="ygrid crisp" transform="translate(0,347.2)" d="M80,0h537" style="stroke: rgb(255, 255, 255); stroke-opacity: 1; stroke-width: 1px;"/><path class="ygrid crisp" transform="translate(0,302.39)" d="M80,0h537" style="stroke: rgb(255, 255, 255); stroke-opacity: 1; stroke-width: 1px;"/><path class="ygrid crisp" transform="translate(0,257.59000000000003)" d="M80,0h537" style="stroke: rgb(255, 255, 255); stroke-opacity: 1; stroke-width: 1px;"/><path class="ygrid crisp" transform="translate(0,212.78)" d="M80,0h537" style="stroke: rgb(255, 255, 255); stroke-opacity: 1; stroke-width: 1px;"/><path class="ygrid crisp" transform="translate(0,167.98000000000002)" d="M80,0h537" style="stroke: rgb(255, 255, 255); stroke-opacity: 1; stroke-width: 1px;"/><path class="ygrid crisp" transform="translate(0,123.17)" d="M80,0h537" style="stroke: rgb(255, 255, 255); stroke-opacity: 1; stroke-width: 1px;"/></g></g><g class="zerolinelayer"/><path class="xlines-below"/><path class="ylines-below"/><g class="overlines-below"/><g class="xaxislayer-below"/><g class="yaxislayer-below"/><g class="overaxes-below"/><g class="plot" transform="translate(80,100)" clip-path="url('#clip54bfc4xyplot')"><g class="scatterlayer mlayer"><g class="trace scatter trace635ce0" style="stroke-miterlimit: 2; opacity: 1;"><g class="fills"/><g class="errorbars"/><g class="lines"><path class="js-line" d="M0,304L3.85,302.52L5.19,247.17L6.53,248.53L7.86,246.77L13.2,246.09L14.54,245.68L17.22,246.5L18.56,245.55L19.92,246.22L21.22,245.95L26.57,245.01L27.91,245.28L30.58,244.46L31.92,244.46L34.59,244.46L35.92,244.46L39.94,244.19L41.27,244.06L45.27,243.92L46.61,244.06L50.63,243.38L51.96,242.97L54.63,243.11L55.97,242.43L58.64,242.3L59.97,241.62L61.31,242.16L62.65,241.75L63.98,240.81L65.32,241.08L66.66,241.75L68,240.13L72,239.18L73.33,239.72L74.67,239.32L76.01,240.26L77.34,239.32L78.69,237.15L81.35,237.69L82.69,236.74L88.04,234.71L89.37,233.76L92.04,235.12L93.38,233.9L94.71,231.73L96.05,232.27L97.39,233.35L98.72,231.73L101.4,229.29L102.74,228.88L105.41,227.12L106.75,227.66L109.41,226.44L110.75,226.72L112.09,228.34L113.42,226.04L117.44,227.12L118.77,226.72L121.45,222.79L122.78,222.38L124.12,223.19L125.45,221.84L126.79,221.97L128.12,223.74L129.46,223.46L130.8,221.84L136.14,217.23L137.48,214.39L138.82,215.06L140.15,213.57L141.49,212.49L142.83,213.3L145.5,213.57L146.83,214.66L152.19,212.35L153.51,212.22L156.19,211.54L157.53,210.46L158.86,210.05L160.2,210.59L161.54,211.81L162.87,211.81L165.54,209.51L166.88,209.24L170.89,208.43L172.22,207.88L173.56,207.07L174.9,207.48L181.58,207.21L182.92,207.48L185.58,205.99L186.93,204.36L188.26,203.14L189.6,203.14L190.94,202.33L192.27,203.28L196.28,203.41L197.62,134.61L201.62,132.42L202.96,132.69L205.63,132.15L206.97,131.19L209.64,131.33L210.98,131.33L216.32,130.65L217.65,130.51L221.66,129.96L223,130.1L235.03,130.1L236.37,130.24L245.72,129.96L247.06,129.28L251.06,129.28L252.4,128.19L257.74,128.32L259.08,127.78L261.75,127.91L263.08,127.23L265.77,126.55L267.1,127.23L271.11,124.09L272.44,124.09L273.78,125.18L275.11,124.77L277.79,123.4L279.12,124.09L283.13,121.9L284.47,120.13L285.8,121.9L287.14,121.08L291.15,118.76L292.49,119.72L295.16,118.08L296.49,119.31L297.83,120.4L299.17,119.44L300.51,120.54L301.84,119.99L303.17,119.03L304.51,120.13L305.85,119.44L307.18,119.85L309.86,120.95L311.19,120.54L313.89,119.31L315.23,118.08L316.56,116.57L317.89,116.3L320.57,116.98L321.9,117.53L323.24,115.48L324.57,115.21L328.59,114.52L329.93,112.75L333.94,113.84L335.27,113.29L337.94,109.61L339.28,111.25L340.62,111.25L341.95,110.02L343.29,110.97L344.62,110.43L347.3,108.51L348.63,108.65L352.64,105.37L353.98,105.51L356.65,103.05L357.99,103.87L360.66,101.68L362,102.23L366,101.55L367.34,98.81L368.68,98.68L370,97.58L371.35,96.08L372.69,96.35L374.02,96.63L375.36,97.86L376.7,98.54L378.03,97.86L379.38,99.91L380.7,99.09L382.04,98.95L383.37,97.31L384.71,96.9L386.05,97.45L388.72,97.72L390.06,49.76L392.73,47.83L394.06,47.55L396.74,46.86L398.08,45.9L402.08,45.35L403.42,45.07L408.76,43.69L410.1,42.73L412.78,42.45L414.11,43L418.12,41.76L419.46,41.9L435.49,40.52L436.82,40.8L442.17,39.84L443.51,40.11L444.84,39.56L446.18,39.84L447.52,40.25L448.85,39.7L450.19,39.84L451.52,39.15L454.2,39.56L455.52,38.73L463.55,38.04L466.21,37.49L467.55,36.12L470.22,35.7L472.9,35.29L474.23,33.5L475.57,34.74L476.91,33.5L479.58,33.5L480.91,32.81L482.26,32.67L483.59,31.43L487.59,31.16L488.94,29.5L490.27,27.99L491.6,27.71L494.24,25.51L495.57,26.2L498.24,24.68L499.58,25.09L500.91,23.3L502.24,23.03L503.59,22.48L504.92,22.89L506.26,22.61L507.59,20.55L508.93,19.86L510.27,20.41L512.94,19.58L514.28,19.17L515.62,19.03L516.95,17.93L519.62,17.93L520.96,18.48L523.63,20.13L524.98,18.2L527.65,19.44L529,17.38L531.66,17.52L533,17.93L537,16" style="vector-effect: non-scaling-stroke; fill: none; stroke: rgb(99, 110, 250); stroke-opacity: 1; stroke-width: 2px; opacity: 1;"/></g><g class="points"/><g class="text"/></g></g></g><g class="overplot"/><path class="xlines-above crisp" d="M0,0" style="fill: none;"/><path class="ylines-above crisp" d="M0,0" style="fill: none;"/><g class="overlines-above"/><g class="xaxislayer-above"><g class="xtick"><text text-anchor="middle" x="0" y="433" transform="translate(84.99,0)" style="font-family: 'Open Sans', verdana, arial, sans-serif; font-size: 12px; fill: rgb(42, 63, 95); fill-opacity: 1; white-space: pre;"><tspan class="line" dy="0em" x="0" y="433">00:00</tspan><tspan class="line" dy="1.3em" x="0" y="433">Aug 3, 2021</tspan></text></g><g class="xtick"><text text-anchor="middle" x="0" y="433" transform="translate(181.20999999999998,0)" style="font-family: 'Open Sans', verdana, arial, sans-serif; font-size: 12px; fill: rgb(42, 63, 95); fill-opacity: 1; white-space: pre;">12:00</text></g><g class="xtick"><text text-anchor="middle" x="0" y="433" transform="translate(277.41999999999996,0)" style="font-family: 'Open Sans', verdana, arial, sans-serif; font-size: 12px; fill: rgb(42, 63, 95); fill-opacity: 1; white-space: pre;"><tspan class="line" dy="0em" x="0" y="433">00:00</tspan><tspan class="line" dy="1.3em" x="0" y="433">Aug 4, 2021</tspan></text></g><g class="xtick"><text text-anchor="middle" x="0" y="433" transform="translate(373.63,0)" style="font-family: 'Open Sans', verdana, arial, sans-serif; font-size: 12px; fill: rgb(42, 63, 95); fill-opacity: 1; white-space: pre;">12:00</text></g><g class="xtick"><text text-anchor="middle" x="0" y="433" transform="translate(469.85,0)" style="font-family: 'Open Sans', verdana, arial, sans-serif; font-size: 12px; fill: rgb(42, 63, 95); fill-opacity: 1; white-space: pre;"><tspan class="line" dy="0em" x="0" y="433">00:00</tspan><tspan class="line" dy="1.3em" x="0" y="433">Aug 5, 2021</tspan></text></g><g class="xtick"><text text-anchor="middle" x="0" y="433" transform="translate(566.06,0)" style="font-family: 'Open Sans', verdana, arial, sans-serif; font-size: 12px; fill: rgb(42, 63, 95); fill-opacity: 1; white-space: pre;">12:00</text></g></g><g class="yaxislayer-above"><g class="ytick"><text text-anchor="end" x="79" y="4.199999999999999" transform="translate(0,392.01)" style="font-family: 'Open Sans', verdana, arial, sans-serif; font-size: 12px; fill: rgb(42, 63, 95); fill-opacity: 1; white-space: pre;">0.864</text></g><g class="ytick"><text text-anchor="end" x="79" y="4.199999999999999" transform="translate(0,347.2)" style="font-family: 'Open Sans', verdana, arial, sans-serif; font-size: 12px; fill: rgb(42, 63, 95); fill-opacity: 1; white-space: pre;">0.865</text></g><g class="ytick"><text text-anchor="end" x="79" y="4.199999999999999" transform="translate(0,302.39)" style="font-family: 'Open Sans', verdana, arial, sans-serif; font-size: 12px; fill: rgb(42, 63, 95); fill-opacity: 1; white-space: pre;">0.866</text></g><g class="ytick"><text text-anchor="end" x="79" y="4.199999999999999" transform="translate(0,257.59000000000003)" style="font-family: 'Open Sans', verdana, arial, sans-serif; font-size: 12px; fill: rgb(42, 63, 95); fill-opacity: 1; white-space: pre;">0.867</text></g><g class="ytick"><text text-anchor="end" x="79" y="4.199999999999999" transform="translate(0,212.78)" style="font-family: 'Open Sans', verdana, arial, sans-serif; font-size: 12px; fill: rgb(42, 63, 95); fill-opacity: 1; white-space: pre;">0.868</text></g><g class="ytick"><text text-anchor="end" x="79" y="4.199999999999999" transform="translate(0,167.98000000000002)" style="font-family: 'Open Sans', verdana, arial, sans-serif; font-size: 12px; fill: rgb(42, 63, 95); fill-opacity: 1; white-space: pre;">0.869</text></g><g class="ytick"><text text-anchor="end" x="79" y="4.199999999999999" transform="translate(0,123.17)" style="font-family: 'Open Sans', verdana, arial, sans-serif; font-size: 12px; fill: rgb(42, 63, 95); fill-opacity: 1; white-space: pre;">0.87</text></g></g><g class="overaxes-above"/></g></g><g class="polarlayer"/><g class="ternarylayer"/><g class="geolayer"/><g class="funnelarealayer"/><g class="pielayer"/><g class="treemaplayer"/><g class="sunburstlayer"/><g class="glimages"/><defs id="topdefs-54bfc4"><g class="clips"/><clipPath id="legend54bfc4"><rect width="60" height="45" x="0" y="0"/></clipPath></defs><g class="layer-above"><g class="imagelayer"/><g class="shapelayer"/></g><g class="infolayer"><g class="legend" pointer-events="all" transform="translate(627.74,100)"><rect class="bg" shape-rendering="crispEdges" width="60" height="45" x="0" y="0" style="stroke: rgb(68, 68, 68); stroke-opacity: 1; fill: rgb(255, 255, 255); fill-opacity: 1; stroke-width: 0px;"/><g class="scrollbox" transform="" clip-path="url('#legend54bfc4')"><text class="legendtitletext" text-anchor="start" x="2" y="15.600000000000001" style="font-family: 'Open Sans', verdana, arial, sans-serif; font-size: 12px; fill: rgb(42, 63, 95); fill-opacity: 1; white-space: pre;">All</text><g class="groups" transform=""><g class="traces" transform="translate(0,30.1)" style="opacity: 1;"><text class="legendtext" text-anchor="start" x="40" y="4.680000000000001" style="font-family: 'Open Sans', verdana, arial, sans-serif; font-size: 12px; fill: rgb(42, 63, 95); fill-opacity: 1; white-space: pre;">All</text><g class="layers" style="opacity: 1;"><g class="legendfill"/><g class="legendlines"><path class="js-line" d="M5,0h30" style="fill: none; stroke: rgb(99, 110, 250); stroke-opacity: 1; stroke-width: 2px;"/></g><g class="legendsymbols"><g class="legendpoints"/></g></g><rect class="legendtoggle" x="0" y="-9.5" width="54.890625" height="19" style="fill: rgb(0, 0, 0); fill-opacity: 0;"/></g></g></g><rect class="scrollbar" rx="20" ry="3" width="0" height="0" x="0" y="0" style="fill: rgb(128, 139, 164); fill-opacity: 1;"/></g><g class="g-gtitle"><text class="gtitle" x="35" y="50" text-anchor="start" dy="0em" style="font-family: 'Open Sans', verdana, arial, sans-serif; font-size: 17px; fill: rgb(42, 63, 95); opacity: 1; font-weight: normal; white-space: pre;">Singapore Vaccination Centers</text></g><g class="g-xtitle"><text class="xtitle" x="348.5" y="476.409375" text-anchor="middle" style="font-family: 'Open Sans', verdana, arial, sans-serif; font-size: 14px; fill: rgb(42, 63, 95); opacity: 1; font-weight: normal; white-space: pre;">Time</text></g><g class="g-ytitle"><text class="ytitle" transform="rotate(-90,19.840625000000003,260)" x="19.840625000000003" y="260" text-anchor="middle" style="font-family: 'Open Sans', verdana, arial, sans-serif; font-size: 14px; fill: rgb(42, 63, 95); opacity: 1; font-weight: normal; white-space: pre;">Filled/%</text></g></g></svg>