<svg class="main-svg" xmlns="http://www.w3.org/2000/svg" xmlns:xlink="http://www.w3.org/1999/xlink" width="700" height="500" style="" viewBox="0 0 700 500"><rect x="0" y="0" width="700" height="500" style="fill: rgb(255, 255, 255); fill-opacity: 1;"/><defs id="defs-a80431"><g class="clips"><clipPath id="clipa80431xyplot" class="plotclip"><rect width="537" height="320"/></clipPath><clipPath class="axesclip" id="clipa80431x"><rect x="80" y="0" width="537" height="500"/></clipPath><clipPath class="axesclip" id="clipa80431y"><rect x="0" y="100" width="700" height="320"/></clipPath><clipPath class="axesclip" id="clipa80431xy"><rect x="80" y="100" width="537" height="320"/></clipPath></g><g class="gradients"/></defs><g class="bglayer"><rect class="bg" x="80" y="100" width="537" height="320" style="fill: rgb(229, 236, 246); fill-opacity: 1; stroke-width: 0;"/></g><g class="layer-below"><g class="imagelayer"/><g class="shapelayer"/></g><g class="cartesianlayer"><g class="subplot xy"><g class="layer-subplot"><g class="shapelayer"/><g class="imagelayer"/></g><g class="gridlayer"><g class="x"><path class="xgrid crisp" transform="translate(84.91,0)" d="M0,100v320" style="stroke: rgb(255, 255, 255); stroke-opacity: 1; stroke-width: 1px;"/><path class="xgrid crisp" transform="translate(179.47,0)" d="M0,100v320" style="stroke: rgb(255, 255, 255); stroke-opacity: 1; stroke-width: 1px;"/><path class="xgrid crisp" transform="translate(274.03999999999996,0)" d="M0,100v320" style="stroke: rgb(255, 255, 255); stroke-opacity: 1; stroke-width: 1px;"/><path class="xgrid crisp" transform="translate(368.61,0)" d="M0,100v320" style="stroke: rgb(255, 255, 255); stroke-opacity: 1; stroke-width: 1px;"/><path class="xgrid crisp" transform="translate(463.17,0)" d="M0,100v320" style="stroke: rgb(255, 255, 255); stroke-opacity: 1; stroke-width: 1px;"/><path class="xgrid crisp" transform="translate(557.74,0)" d="M0,100v320" style="stroke: rgb(255, 255, 255); stroke-opacity: 1; stroke-width: 1px;"/></g><g class="y"><path class="ygrid crisp" transform="translate(0,392.25)" d="M80,0h537" style="stroke: rgb(255, 255, 255); stroke-opacity: 1; stroke-width: 1px;"/><path class="ygrid crisp" transform="translate(0,348.37)" d="M80,0h537" style="stroke: rgb(255, 255, 255); stroke-opacity: 1; stroke-width: 1px;"/><path class="ygrid crisp" transform="translate(0,304.49)" d="M80,0h537" style="stroke: rgb(255, 255, 255); stroke-opacity: 1; stroke-width: 1px;"/><path class="ygrid crisp" transform="translate(0,260.61)" d="M80,0h537" style="stroke: rgb(255, 255, 255); stroke-opacity: 1; stroke-width: 1px;"/><path class="ygrid crisp" transform="translate(0,216.72)" d="M80,0h537" style="stroke: rgb(255, 255, 255); stroke-opacity: 1; stroke-width: 1px;"/><path class="ygrid crisp" transform="translate(0,172.84)" d="M80,0h537" style="stroke: rgb(255, 255, 255); stroke-opacity: 1; stroke-width: 1px;"/><path class="ygrid crisp" transform="translate(0,128.96)" d="M80,0h537" style="stroke: rgb(255, 255, 255); stroke-opacity: 1; stroke-width: 1px;"/></g></g><g class="zerolinelayer"/><path class="xlines-below"/><path class="ylines-below"/><g class="overlines-below"/><g class="xaxislayer-below"/><g class="yaxislayer-below"/><g class="overaxes-below"/><g class="plot" transform="translate(80,100)" clip-path="url('#clipa80431xyplot')"><g class="scatterlayer mlayer"><g class="trace scatter trace537d96" style="stroke-miterlimit: 2; opacity: 1;"><g class="fills"/><g class="errorbars"/><g class="lines"><path class="js-line" d="M0,304L3.78,302.55L5.1,248.34L6.41,249.67L7.73,247.95L12.98,247.28L14.29,246.89L16.92,247.68L18.24,246.75L19.58,247.42L20.86,247.15L26.11,246.22L27.43,246.49L31.37,245.69L32.68,245.43L37.94,245.82L39.25,245.43L45.81,245.29L47.12,245.29L51.07,244.23L52.39,244.5L57.63,243.57L58.94,242.9L60.27,243.44L61.58,243.04L62.89,242.11L64.2,242.37L65.52,243.04L66.83,241.44L70.77,240.52L72.08,241.05L73.4,240.65L74.71,241.58L76.02,240.65L77.34,238.53L79.96,239.06L81.28,238.13L86.53,236.14L87.84,235.21L90.46,236.54L91.79,235.34L93.09,233.22L94.41,233.75L95.72,234.81L97.03,233.22L99.66,230.83L100.98,230.43L103.61,228.71L104.92,229.24L107.54,228.04L108.86,228.31L110.17,229.9L111.48,227.65L115.43,228.71L116.74,228.31L119.37,224.46L120.68,224.06L121.99,224.86L123.31,223.53L124.62,223.66L125.93,225.39L127.25,225.12L128.56,223.53L133.81,219.02L135.13,216.23L136.44,216.9L137.75,215.44L139.07,214.38L140.38,215.17L143.01,215.44L144.32,216.5L149.58,214.24L150.89,214.11L153.52,213.45L154.83,212.39L156.14,211.99L157.46,212.52L158.77,213.71L160.08,213.71L162.71,211.46L164.02,211.19L167.96,210.4L169.28,209.87L170.59,209.07L171.9,209.47L178.47,209.2L179.79,209.47L182.41,208.01L183.73,206.42L185.04,205.22L186.35,205.22L187.67,204.43L188.98,205.35L192.92,205.49L194.23,138.1L198.17,135.96L199.49,136.23L202.12,135.69L203.43,134.75L206.05,134.89L207.37,134.89L212.62,134.22L213.93,134.09L217.87,133.55L219.19,133.68L231,133.68L232.32,133.82L241.51,133.55L242.83,132.88L246.76,132.88L248.08,131.81L253.33,131.94L254.65,131.41L257.27,131.54L258.58,130.87L261.22,130.2L262.53,130.87L266.47,127.8L267.77,127.8L269.09,128.87L270.4,128.47L273.04,127.13L274.35,127.8L278.28,125.66L279.6,123.92L280.91,125.66L282.22,124.85L286.16,122.58L287.49,123.51L290.11,121.91L291.42,123.11L292.73,124.18L294.05,123.25L295.36,124.32L296.68,123.78L297.98,122.85L299.3,123.92L300.61,123.25L301.93,123.65L304.56,124.72L305.87,124.32L308.51,123.11L309.84,121.91L311.14,120.44L312.46,120.17L315.08,120.84L316.4,121.37L317.71,119.37L319.02,119.1L322.97,118.43L324.28,116.69L328.22,117.76L329.53,117.23L332.16,113.61L333.47,115.22L334.79,115.22L336.1,114.01L337.41,114.95L338.72,114.42L341.36,112.54L342.67,112.68L346.61,109.47L347.92,109.6L350.55,107.19L351.86,107.99L354.48,105.85L355.8,106.39L359.74,105.72L361.05,103.04L362.37,102.91L363.67,101.84L365,100.37L366.31,100.63L367.62,100.9L368.93,102.11L370.26,102.78L371.56,102.11L372.89,104.11L374.19,103.31L375.5,103.18L376.81,101.57L378.13,101.17L379.44,101.71L382.07,101.97L383.38,55L386.01,53.11L387.32,52.84L389.95,52.16L391.26,51.22L395.2,50.68L396.51,50.41L401.77,49.06L403.08,48.11L405.71,47.84L407.02,48.38L410.97,47.17L412.28,47.31L428.03,45.96L429.35,46.23L434.61,45.28L435.92,45.55L438.54,45.28L439.86,45.69L443.79,44.61L445.1,44.74L446.43,45.01L447.73,44.2L455.61,43.53L458.24,42.99L459.55,41.64L462.18,41.23L464.8,40.83L466.12,39.07L467.43,40.29L468.75,39.07L471.38,39.07L472.69,38.4L474,38.26L475.31,37.05L479.25,36.78L480.57,35.16L481.88,33.68L483.19,33.41L485.78,31.25L487.09,31.92L489.71,30.44L491.03,30.84L492.34,29.09L493.65,28.82L494.97,28.28L496.28,28.68L497.6,28.41L498.91,26.39L500.23,25.72L501.54,26.26L504.16,25.45L505.48,25.04L506.8,24.91L508.1,23.83L510.73,23.83L512.04,24.37L514.67,25.99L515.99,24.1L518.62,25.31L519.95,23.29L522.56,23.42L523.87,23.83L527.81,21.94L529.13,22.34L531.75,20.59L533.06,19.51L534.38,16.94L535.7,17.48L537,16" style="vector-effect: non-scaling-stroke; fill: none; stroke: rgb(99, 110, 250); stroke-opacity: 1; stroke-width: 2px; opacity: 1;"/></g><g class="points"/><g class="text"/></g></g></g><g class="overplot"/><path class="xlines-above crisp" d="M0,0" style="fill: none;"/><path class="ylines-above crisp" d="M0,0" style="fill: none;"/><g class="overlines-above"/><g class="xaxislayer-above"><g class="xtick"><text text-anchor="middle" x="0" y="433" transform="translate(84.91,0)" style="font-family: 'Open Sans', verdana, arial, sans-serif; font-size: 12px; fill: rgb(42, 63, 95); fill-opacity: 1; white-space: pre;"><tspan class="line" dy="0em" x="0" y="433">00:00</tspan><tspan class="line" dy="1.3em" x="0" y="433">Aug 3, 2021</tspan></text></g><g class="xtick"><text text-anchor="middle" x="0" y="433" transform="translate(179.47,0)" style="font-family: 'Open Sans', verdana, arial, sans-serif; font-size: 12px; fill: rgb(42, 63, 95); fill-opacity: 1; white-space: pre;">12:00</text></g><g class="xtick"><text text-anchor="middle" x="0" y="433" transform="translate(274.03999999999996,0)" style="font-family: 'Open Sans', verdana, arial, sans-serif; font-size: 12px; fill: rgb(42, 63, 95); fill-opacity: 1; white-space: pre;"><tspan class="line" dy="0em" x="0" y="433">00:00</tspan><tspan class="line" dy="1.3em" x="0" y="433">Aug 4, 2021</tspan></text></g><g class="xtick"><text text-anchor="middle" x="0" y="433" transform="translate(368.61,0)" style="font-family: 'Open Sans', verdana, arial, sans-serif; font-size: 12px; fill: rgb(42, 63, 95); fill-opacity: 1; white-space: pre;">12:00</text></g><g class="xtick"><text text-anchor="middle" x="0" y="433" transform="translate(463.17,0)" style="font-family: 'Open Sans', verdana, arial, sans-serif; font-size: 12px; fill: rgb(42, 63, 95); fill-opacity: 1; white-space: pre;"><tspan class="line" dy="0em" x="0" y="433">00:00</tspan><tspan class="line" dy="1.3em" x="0" y="433">Aug 5, 2021</tspan></text></g><g class="xtick"><text text-anchor="middle" x="0" y="433" transform="translate(557.74,0)" style="font-family: 'Open Sans', verdana, arial, sans-serif; font-size: 12px; fill: rgb(42, 63, 95); fill-opacity: 1; white-space: pre;">12:00</text></g></g><g class="yaxislayer-above"><g class="ytick"><text text-anchor="end" x="79" y="4.199999999999999" transform="translate(0,392.25)" style="font-family: 'Open Sans', verdana, arial, sans-serif; font-size: 12px; fill: rgb(42, 63, 95); fill-opacity: 1; white-space: pre;">0.864</text></g><g class="ytick"><text text-anchor="end" x="79" y="4.199999999999999" transform="translate(0,348.37)" style="font-family: 'Open Sans', verdana, arial, sans-serif; font-size: 12px; fill: rgb(42, 63, 95); fill-opacity: 1; white-space: pre;">0.865</text></g><g class="ytick"><text text-anchor="end" x="79" y="4.199999999999999" transform="translate(0,304.49)" style="font-family: 'Open Sans', verdana, arial, sans-serif; font-size: 12px; fill: rgb(42, 63, 95); fill-opacity: 1; white-space: pre;">0.866</text></g><g class="ytick"><text text-anchor="end" x="79" y="4.199999999999999" transform="translate(0,260.61)" style="font-family: 'Open Sans', verdana, arial, sans-serif; font-size: 12px; fill: rgb(42, 63, 95); fill-opacity: 1; white-space: pre;">0.867</text></g><g class="ytick"><text text-anchor="end" x="79" y="4.199999999999999" transform="translate(0,216.72)" style="font-family: 'Open Sans', verdana, arial, sans-serif; font-size: 12px; fill: rgb(42, 63, 95); fill-opacity: 1; white-space: pre;">0.868</text></g><g class="ytick"><text text-anchor="end" x="79" y="4.199999999999999" transform="translate(0,172.84)" style="font-family: 'Open Sans', verdana, arial, sans-serif; font-size: 12px; fill: rgb(42, 63, 95); fill-opacity: 1; white-space: pre;">0.869</text></g><g class="ytick"><text text-anchor="end" x="79" y="4.199999999999999" transform="translate(0,128.96)" style="font-family: 'Open Sans', verdana, arial, sans-serif; font-size: 12px; fill: rgb(42, 63, 95); fill-opacity: 1; white-space: pre;">0.87</text></g></g><g class="overaxes-above"/></g></g><g class="polarlayer"/><g class="ternarylayer"/><g class="geolayer"/><g class="funnelarealayer"/><g class="pielayer"/><g class="treemaplayer"/><g class="sunburstlayer"/><g class="glimages"/><defs id="topdefs-a80431"><g class="clips"/><clipPath id="legenda80431"><rect width="60" height="45" x="0" y="0"/></clipPath></defs><g class="layer-above"><g class="imagelayer"/><g class="shapelayer"/></g><g class="infolayer"><g class="legend" pointer-events="all" transform="translate(627.74,100)"><rect class="bg" shape-rendering="crispEdges" width="60" height="45" x="0" y="0" style="stroke: rgb(68, 68, 68); stroke-opacity: 1; fill: rgb(255, 255, 255); fill-opacity: 1; stroke-width: 0px;"/><g class="scrollbox" transform="" clip-path="url('#legenda80431')"><text class="legendtitletext" text-anchor="start" x="2" y="15.600000000000001" style="font-family: 'Open Sans', verdana, arial, sans-serif; font-size: 12px; fill: rgb(42, 63, 95); fill-opacity: 1; white-space: pre;">All</text><g class="groups" transform=""><g class="traces" transform="translate(0,30.1)" style="opacity: 1;"><text class="legendtext" text-anchor="start" x="40" y="4.680000000000001" style="font-family: 'Open Sans', verdana, arial, sans-serif; font-size: 12px; fill: rgb(42, 63, 95); fill-opacity: 1; white-space: pre;">All</text><g class="layers" style="opacity: 1;"><g class="legendfill"/><g class="legendlines"><path class="js-line" d="M5,0h30" style="fill: none; stroke: rgb(99, 110, 250); stroke-opacity: 1; stroke-width: 2px;"/></g><g class="legendsymbols"><g class="legendpoints"/></g></g><rect class="legendtoggle" x="0" y="-9.5" width="54.890625" height="19" style="fill: rgb(0, 0, 0); fill-opacity: 0;"/></g></g></g><rect class="scrollbar" rx="20" ry="3" width="0" height="0" x="0" y="0" style="fill: rgb(128, 139, 164); fill-opacity: 1;"/></g><g class="g-gtitle"><text class="gtitle" x="35" y="50" text-anchor="start" dy="0em" style="font-family: 'Open Sans', verdana, arial, sans-serif; font-size: 17px; fill: rgb(42, 63, 95); opacity: 1; font-weight: normal; white-space: pre;">Singapore Vaccination Centers</text></g><g class="g-xtitle"><text class="xtitle" x="348.5" y="476.409375" text-anchor="middle" style="font-family: 'Open Sans', verdana, arial, sans-serif; font-size: 14px; fill: rgb(42, 63, 95); opacity: 1; font-weight: normal; white-space: pre;">Time</text></g><g class="g-ytitle"><text class="ytitle" transform="rotate(-90,19.840625000000003,260)" x="19.840625000000003" y="260" text-anchor="middle" style="font-family: 'Open Sans', verdana, arial, sans-serif; font-size: 14px; fill: rgb(42, 63, 95); opacity: 1; font-weight: normal; white-space: pre;">Filled/%</text></g></g></svg>