<svg class="main-svg" xmlns="http://www.w3.org/2000/svg" xmlns:xlink="http://www.w3.org/1999/xlink" width="700" height="500" style="" viewBox="0 0 700 500"><rect x="0" y="0" width="700" height="500" style="fill: rgb(255, 255, 255); fill-opacity: 1;"/><defs id="defs-ece26e"><g class="clips"><clipPath id="clipece26exyplot" class="plotclip"><rect width="537" height="320"/></clipPath><clipPath class="axesclip" id="clipece26ex"><rect x="80" y="0" width="537" height="500"/></clipPath><clipPath class="axesclip" id="clipece26ey"><rect x="0" y="100" width="700" height="320"/></clipPath><clipPath class="axesclip" id="clipece26exy"><rect x="80" y="100" width="537" height="320"/></clipPath></g><g class="gradients"/></defs><g class="bglayer"><rect class="bg" x="80" y="100" width="537" height="320" style="fill: rgb(229, 236, 246); fill-opacity: 1; stroke-width: 0;"/></g><g class="layer-below"><g class="imagelayer"/><g class="shapelayer"/></g><g class="cartesianlayer"><g class="subplot xy"><g class="layer-subplot"><g class="shapelayer"/><g class="imagelayer"/></g><g class="gridlayer"><g class="x"><path class="xgrid crisp" transform="translate(82.62,0)" d="M0,100v320" style="stroke: rgb(255, 255, 255); stroke-opacity: 1; stroke-width: 1px;"/><path class="xgrid crisp" transform="translate(183.59,0)" d="M0,100v320" style="stroke: rgb(255, 255, 255); stroke-opacity: 1; stroke-width: 1px;"/><path class="xgrid crisp" transform="translate(284.55,0)" d="M0,100v320" style="stroke: rgb(255, 255, 255); stroke-opacity: 1; stroke-width: 1px;"/><path class="xgrid crisp" transform="translate(385.52,0)" d="M0,100v320" style="stroke: rgb(255, 255, 255); stroke-opacity: 1; stroke-width: 1px;"/><path class="xgrid crisp" transform="translate(486.48,0)" d="M0,100v320" style="stroke: rgb(255, 255, 255); stroke-opacity: 1; stroke-width: 1px;"/><path class="xgrid crisp" transform="translate(587.45,0)" d="M0,100v320" style="stroke: rgb(255, 255, 255); stroke-opacity: 1; stroke-width: 1px;"/></g><g class="y"><path class="ygrid crisp" transform="translate(0,392.55)" d="M80,0h537" style="stroke: rgb(255, 255, 255); stroke-opacity: 1; stroke-width: 1px;"/><path class="ygrid crisp" transform="translate(0,349.77)" d="M80,0h537" style="stroke: rgb(255, 255, 255); stroke-opacity: 1; stroke-width: 1px;"/><path class="ygrid crisp" transform="translate(0,306.99)" d="M80,0h537" style="stroke: rgb(255, 255, 255); stroke-opacity: 1; stroke-width: 1px;"/><path class="ygrid crisp" transform="translate(0,264.21000000000004)" d="M80,0h537" style="stroke: rgb(255, 255, 255); stroke-opacity: 1; stroke-width: 1px;"/><path class="ygrid crisp" transform="translate(0,221.43)" d="M80,0h537" style="stroke: rgb(255, 255, 255); stroke-opacity: 1; stroke-width: 1px;"/><path class="ygrid crisp" transform="translate(0,178.65)" d="M80,0h537" style="stroke: rgb(255, 255, 255); stroke-opacity: 1; stroke-width: 1px;"/><path class="ygrid crisp" transform="translate(0,135.87)" d="M80,0h537" style="stroke: rgb(255, 255, 255); stroke-opacity: 1; stroke-width: 1px;"/></g></g><g class="zerolinelayer"/><path class="xlines-below"/><path class="ylines-below"/><g class="overlines-below"/><g class="xaxislayer-below"/><g class="yaxislayer-below"/><g class="overaxes-below"/><g class="plot" transform="translate(80,100)" clip-path="url('#clipece26exyplot')"><g class="scatterlayer mlayer"><g class="trace scatter tracee060d2" style="stroke-miterlimit: 2; opacity: 1;"><g class="fills"/><g class="errorbars"/><g class="lines"><path class="js-line" d="M0,304L2.02,302.59L2.72,249.74L3.42,251.04L4.13,249.35L6.93,248.71L7.63,248.32L9.03,249.1L9.74,248.19L11.14,248.58L11.84,248.19L13.24,247.93L13.94,247.67L15.34,247.41L16.05,247.16L21.66,246.77L22.35,246.51L26.56,246.12L27.26,245.73L28.67,245.86L29.37,245.22L30.77,245.09L31.47,244.44L32.87,244.57L33.57,243.66L34.98,244.57L35.68,243.02L37.78,242.11L38.48,242.63L39.18,242.24L39.88,243.15L41.29,240.17L41.98,240.69L42.68,240.69L43.39,239.78L46.89,236.94L47.6,237.97L48.29,238.23L49,237.07L49.7,235L50.4,235.51L51.1,236.55L51.8,235L53.2,232.67L53.9,232.28L55.31,230.6L56.01,231.12L57.41,229.95L58.11,230.21L58.81,231.76L59.51,229.56L61.62,230.6L62.32,230.21L64.42,226.07L65.12,226.85L66.53,225.68L67.23,227.36L67.93,227.11L68.63,225.55L71.43,221.16L72.13,218.44L72.84,219.09L73.54,217.66L74.24,216.63L74.94,217.4L76.34,217.66L77.04,218.7L79.85,216.5L80.55,216.37L81.95,215.72L82.65,214.69L83.35,214.3L84.06,214.82L85.45,215.98L86.16,214.43L88.26,213.39L88.97,212.88L90.36,212.23L91.07,211.45L93.17,212.23L93.87,211.84L95.27,211.58L95.98,211.84L97.37,210.42L98.08,208.87L99.48,207.7L100.18,206.93L101.58,207.96L102.28,207.44L102.99,207.96L103.69,142.27L105.79,140.18L106.49,140.44L107.9,139.92L108.6,139.01L110,139.14L110.7,139.14L113.5,138.48L114.2,138.35L116.31,137.83L117.01,137.96L123.32,137.96L124.02,138.09L128.93,137.83L129.63,137.18L131.73,137.18L132.43,136.14L135.23,136.27L135.94,135.74L137.34,135.88L138.04,135.22L139.45,134.57L140.14,135.22L142.95,132.22L143.65,133.27L145.75,131.57L146.46,132.22L149.26,128.44L149.96,130.14L152.76,127.14L153.47,128.05L154.87,126.48L155.57,127.66L156.27,128.7L156.97,127.79L157.67,128.83L158.37,128.31L159.07,127.4L159.78,128.44L160.48,127.79L161.18,128.18L163.28,128.83L163.98,128.44L166.8,124.79L167.5,124.92L168.9,125.96L169.6,124.01L172.41,123.09L173.11,121.4L175.91,121.92L176.62,120.61L177.32,118.4L178.02,119.96L178.72,119.96L179.42,118.79L180.12,119.7L180.82,119.18L182.23,117.35L182.93,117.48L185.03,114.35L185.73,114.48L187.13,112.14L187.83,112.92L189.23,110.83L189.94,111.35L192.04,110.7L192.74,108.09L193.44,107.96L194.14,106.92L195.55,105.74L196.25,106L197.65,107.83L198.35,107.18L199.06,109.13L199.75,108.35L200.45,108.22L201.15,106.66L201.86,106.27L202.56,106.79L203.96,107.05L204.66,61.25L206.76,59.15L207.46,58.88L211.67,56.78L212.37,56.52L215.88,54.28L216.58,54.28L217.98,54.41L218.68,53.75L222.19,53.62L222.89,53.75L234.11,51.78L234.81,52.18L236.91,51.12L237.61,51.25L238.32,51.52L239.01,50.73L243.22,50.07L244.62,49.54L245.32,48.23L246.72,47.83L248.13,47.44L248.83,45.73L249.53,46.91L250.23,45.73L251.64,45.73L252.33,45.07L253.04,44.94L253.74,43.76L255.84,43.49L256.54,41.91L257.94,40.2L258.65,39.42L259.33,38.1L260.02,38.76L262.13,37.71L262.83,36L265.63,35.34L266.33,33.36L267.04,32.71L267.73,33.23L269.14,32.44L269.84,32.05L270.54,31.92L271.24,30.86L272.64,30.86L273.34,31.39L274.75,32.97L275.45,31.13L276.85,32.31L277.56,30.34L278.96,30.47L279.66,30.86L281.76,29.02L282.46,29.42L283.86,27.71L284.57,26.66L285.27,24.16L285.97,24.68L286.67,23.24L287.37,24.68L288.77,22.84L289.47,22.58L290.17,21.26L290.87,21.66L292.28,21.79L292.98,20.74L293.68,21.26L294.38,19.68L295.78,19.55L296.48,18.5L299.29,18.89L299.99,17.97L301.39,17.84L302.1,17.97L303.5,16L304.19,16.66L304.9,16.39L305.6,171.81L309.11,171.4L309.81,172.08L311.91,170.99L312.61,170.99L314.02,169.76L314.71,169.76L316.12,168.94L316.82,169.08L328.74,168.39L329.44,167.98L338.55,165.8L339.25,165.12L342.76,164.02L343.46,162.66L346.29,162.38L346.99,163.61L348.39,161.7L349.09,161.57L349.79,160.88L350.5,158.43L351.19,156.51L351.9,156.79L352.6,156.1L353.3,154.33L354,154.88L354.7,154.19L356.11,154.33L356.81,153.37L358.21,152.69L358.91,153.65L361.01,150.92L361.71,151.87L363.82,149.14L364.52,149.14L365.22,148.32L365.92,149.41L367.32,150.37L368.02,149.41L368.72,149.55L369.43,148.73L372.23,145.18L372.94,144.5L375.03,143.54L375.74,145.04L379.94,141.9L380.64,143.68L382.05,121.97L382.75,121.56L384.15,120.88L384.85,116.1L385.55,116.24L386.25,112.28L386.96,112.55L387.66,109.96L388.36,106.95L389.06,107.91L391.16,101.22L391.87,98.08L393.27,97.53L393.97,95.35L394.67,94.8L395.37,92.07L396.77,89.34L397.47,89.34L399.57,85.65L400.28,84.7L401.68,82.78L402.38,80.19L405.89,75L406.59,88.44L410.1,84.03L410.8,84.45L411.5,84.31L412.2,85.14L413.6,84.72L414.3,85.41L415.71,84.59L416.4,84.45L417.81,84.03L418.51,84.03L419.91,84.17L420.61,83.62L425.52,84.03L426.22,83.62L430.43,83.21L431.13,83.48L433.93,83.48L434.63,83.35L436.74,83.35L437.44,83.21L439.54,83.9L440.24,83.21L440.94,82.66L441.64,81.01L444.45,79.49L445.15,78.53L446.55,78.94L447.26,78.53L447.95,76.87L448.66,77.29L449.35,77.15L450.06,75.63L453.57,72.47L454.26,72.88L456.37,69.44L457.07,69.02L459.17,66.41L459.87,66.41L461.28,63.79L461.97,63.79L463.38,61.86L464.08,59.66L466.19,54.29L466.89,54.43L468.29,53.6L468.99,51.4L471.8,49.47L472.49,47.82L476.7,46.85L477.4,45.75L478.11,46.16L478.81,45.48L479.51,45.89L485.12,41.21L488.62,38.59L489.32,39.28L492.13,35.97L492.83,35.84L493.53,34.46L494.23,35.01L495.63,33.91L496.34,34.18L497.04,35.28L497.74,34.32L500.54,32.94L501.25,33.91L504.05,33.22L504.75,32.12L506.85,29.78L507.55,81.26L508.96,81.68L509.66,80.56L510.36,79.86L511.06,80.42L513.16,80.42L513.86,81.4L515.97,81.12L516.67,81.12L520.18,81.4L520.88,81.12L523.68,79.86L524.38,80.28L531.39,79.58L532.1,79.58L537,79.44" style="vector-effect: non-scaling-stroke; fill: none; stroke: rgb(99, 110, 250); stroke-opacity: 1; stroke-width: 2px; opacity: 1;"/></g><g class="points"/><g class="text"/></g></g></g><g class="overplot"/><path class="xlines-above crisp" d="M0,0" style="fill: none;"/><path class="ylines-above crisp" d="M0,0" style="fill: none;"/><g class="overlines-above"/><g class="xaxislayer-above"><g class="xtick"><text text-anchor="middle" x="0" y="433" transform="translate(82.62,0)" style="font-family: 'Open Sans', verdana, arial, sans-serif; font-size: 12px; fill: rgb(42, 63, 95); fill-opacity: 1; white-space: pre;"><tspan class="line" dy="0em" x="0" y="433">Aug 3</tspan><tspan class="line" dy="1.3em" x="0" y="433">2021</tspan></text></g><g class="xtick"><text text-anchor="middle" x="0" y="433" transform="translate(183.59,0)" style="font-family: 'Open Sans', verdana, arial, sans-serif; font-size: 12px; fill: rgb(42, 63, 95); fill-opacity: 1; white-space: pre;">Aug 4</text></g><g class="xtick"><text text-anchor="middle" x="0" y="433" transform="translate(284.55,0)" style="font-family: 'Open Sans', verdana, arial, sans-serif; font-size: 12px; fill: rgb(42, 63, 95); fill-opacity: 1; white-space: pre;">Aug 5</text></g><g class="xtick"><text text-anchor="middle" x="0" y="433" transform="translate(385.52,0)" style="font-family: 'Open Sans', verdana, arial, sans-serif; font-size: 12px; fill: rgb(42, 63, 95); fill-opacity: 1; white-space: pre;">Aug 6</text></g><g class="xtick"><text text-anchor="middle" x="0" y="433" transform="translate(486.48,0)" style="font-family: 'Open Sans', verdana, arial, sans-serif; font-size: 12px; fill: rgb(42, 63, 95); fill-opacity: 1; white-space: pre;">Aug 7</text></g><g class="xtick"><text text-anchor="middle" x="0" y="433" transform="translate(587.45,0)" style="font-family: 'Open Sans', verdana, arial, sans-serif; font-size: 12px; fill: rgb(42, 63, 95); fill-opacity: 1; white-space: pre;">Aug 8</text></g></g><g class="yaxislayer-above"><g class="ytick"><text text-anchor="end" x="79" y="4.199999999999999" transform="translate(0,392.55)" style="font-family: 'Open Sans', verdana, arial, sans-serif; font-size: 12px; fill: rgb(42, 63, 95); fill-opacity: 1; white-space: pre;">0.864</text></g><g class="ytick"><text text-anchor="end" x="79" y="4.199999999999999" transform="translate(0,349.77)" style="font-family: 'Open Sans', verdana, arial, sans-serif; font-size: 12px; fill: rgb(42, 63, 95); fill-opacity: 1; white-space: pre;">0.865</text></g><g class="ytick"><text text-anchor="end" x="79" y="4.199999999999999" transform="translate(0,306.99)" style="font-family: 'Open Sans', verdana, arial, sans-serif; font-size: 12px; fill: rgb(42, 63, 95); fill-opacity: 1; white-space: pre;">0.866</text></g><g class="ytick"><text text-anchor="end" x="79" y="4.199999999999999" transform="translate(0,264.21000000000004)" style="font-family: 'Open Sans', verdana, arial, sans-serif; font-size: 12px; fill: rgb(42, 63, 95); fill-opacity: 1; white-space: pre;">0.867</text></g><g class="ytick"><text text-anchor="end" x="79" y="4.199999999999999" transform="translate(0,221.43)" style="font-family: 'Open Sans', verdana, arial, sans-serif; font-size: 12px; fill: rgb(42, 63, 95); fill-opacity: 1; white-space: pre;">0.868</text></g><g class="ytick"><text text-anchor="end" x="79" y="4.199999999999999" transform="translate(0,178.65)" style="font-family: 'Open Sans', verdana, arial, sans-serif; font-size: 12px; fill: rgb(42, 63, 95); fill-opacity: 1; white-space: pre;">0.869</text></g><g class="ytick"><text text-anchor="end" x="79" y="4.199999999999999" transform="translate(0,135.87)" style="font-family: 'Open Sans', verdana, arial, sans-serif; font-size: 12px; fill: rgb(42, 63, 95); fill-opacity: 1; white-space: pre;">0.87</text></g></g><g class="overaxes-above"/></g></g><g class="polarlayer"/><g class="ternarylayer"/><g class="geolayer"/><g class="funnelarealayer"/><g class="pielayer"/><g class="treemaplayer"/><g class="sunburstlayer"/><g class="glimages"/><defs id="topdefs-ece26e"><g class="clips"/><clipPath id="legendece26e"><rect width="60" height="45" x="0" y="0"/></clipPath></defs><g class="layer-above"><g class="imagelayer"/><g class="shapelayer"/></g><g class="infolayer"><g class="legend" pointer-events="all" transform="translate(627.74,100)"><rect class="bg" shape-rendering="crispEdges" width="60" height="45" x="0" y="0" style="stroke: rgb(68, 68, 68); stroke-opacity: 1; fill: rgb(255, 255, 255); fill-opacity: 1; stroke-width: 0px;"/><g class="scrollbox" transform="" clip-path="url('#legendece26e')"><text class="legendtitletext" text-anchor="start" x="2" y="15.600000000000001" style="font-family: 'Open Sans', verdana, arial, sans-serif; font-size: 12px; fill: rgb(42, 63, 95); fill-opacity: 1; white-space: pre;">All</text><g class="groups" transform=""><g class="traces" transform="translate(0,30.1)" style="opacity: 1;"><text class="legendtext" text-anchor="start" x="40" y="4.680000000000001" style="font-family: 'Open Sans', verdana, arial, sans-serif; font-size: 12px; fill: rgb(42, 63, 95); fill-opacity: 1; white-space: pre;">All</text><g class="layers" style="opacity: 1;"><g class="legendfill"/><g class="legendlines"><path class="js-line" d="M5,0h30" style="fill: none; stroke: rgb(99, 110, 250); stroke-opacity: 1; stroke-width: 2px;"/></g><g class="legendsymbols"><g class="legendpoints"/></g></g><rect class="legendtoggle" x="0" y="-9.5" width="54.890625" height="19" style="fill: rgb(0, 0, 0); fill-opacity: 0;"/></g></g></g><rect class="scrollbar" rx="20" ry="3" width="0" height="0" x="0" y="0" style="fill: rgb(128, 139, 164); fill-opacity: 1;"/></g><g class="g-gtitle"><text class="gtitle" x="35" y="50" text-anchor="start" dy="0em" style="font-family: 'Open Sans', verdana, arial, sans-serif; font-size: 17px; fill: rgb(42, 63, 95); opacity: 1; font-weight: normal; white-space: pre;">Singapore Vaccination Centers</text></g><g class="g-xtitle"><text class="xtitle" x="348.5" y="476.409375" text-anchor="middle" style="font-family: 'Open Sans', verdana, arial, sans-serif; font-size: 14px; fill: rgb(42, 63, 95); opacity: 1; font-weight: normal; white-space: pre;">Time</text></g><g class="g-ytitle"><text class="ytitle" transform="rotate(-90,19.840625000000003,260)" x="19.840625000000003" y="260" text-anchor="middle" style="font-family: 'Open Sans', verdana, arial, sans-serif; font-size: 14px; fill: rgb(42, 63, 95); opacity: 1; font-weight: normal; white-space: pre;">Filled/%</text></g></g></svg>