<svg class="main-svg" xmlns="http://www.w3.org/2000/svg" xmlns:xlink="http://www.w3.org/1999/xlink" width="700" height="500" style="" viewBox="0 0 700 500"><rect x="0" y="0" width="700" height="500" style="fill: rgb(255, 255, 255); fill-opacity: 1;"/><defs id="defs-e8b6c5"><g class="clips"><clipPath id="clipe8b6c5xyplot" class="plotclip"><rect width="537" height="320"/></clipPath><clipPath class="axesclip" id="clipe8b6c5x"><rect x="80" y="0" width="537" height="500"/></clipPath><clipPath class="axesclip" id="clipe8b6c5y"><rect x="0" y="100" width="700" height="320"/></clipPath><clipPath class="axesclip" id="clipe8b6c5xy"><rect x="80" y="100" width="537" height="320"/></clipPath></g><g class="gradients"/></defs><g class="bglayer"><rect class="bg" x="80" y="100" width="537" height="320" style="fill: rgb(229, 236, 246); fill-opacity: 1; stroke-width: 0;"/></g><g class="layer-below"><g class="imagelayer"/><g class="shapelayer"/></g><g class="cartesianlayer"><g class="subplot xy"><g class="layer-subplot"><g class="shapelayer"/><g class="imagelayer"/></g><g class="gridlayer"><g class="x"><path class="xgrid crisp" transform="translate(90.2,0)" d="M0,100v320" style="stroke: rgb(255, 255, 255); stroke-opacity: 1; stroke-width: 1px;"/><path class="xgrid crisp" transform="translate(200.05,0)" d="M0,100v320" style="stroke: rgb(255, 255, 255); stroke-opacity: 1; stroke-width: 1px;"/><path class="xgrid crisp" transform="translate(309.9,0)" d="M0,100v320" style="stroke: rgb(255, 255, 255); stroke-opacity: 1; stroke-width: 1px;"/><path class="xgrid crisp" transform="translate(419.75,0)" d="M0,100v320" style="stroke: rgb(255, 255, 255); stroke-opacity: 1; stroke-width: 1px;"/><path class="xgrid crisp" transform="translate(529.6,0)" d="M0,100v320" style="stroke: rgb(255, 255, 255); stroke-opacity: 1; stroke-width: 1px;"/></g><g class="y"><path class="ygrid crisp" transform="translate(0,367.23)" d="M80,0h537" style="stroke: rgb(255, 255, 255); stroke-opacity: 1; stroke-width: 1px;"/><path class="ygrid crisp" transform="translate(0,308.43)" d="M80,0h537" style="stroke: rgb(255, 255, 255); stroke-opacity: 1; stroke-width: 1px;"/><path class="ygrid crisp" transform="translate(0,249.63)" d="M80,0h537" style="stroke: rgb(255, 255, 255); stroke-opacity: 1; stroke-width: 1px;"/><path class="ygrid crisp" transform="translate(0,190.82999999999998)" d="M80,0h537" style="stroke: rgb(255, 255, 255); stroke-opacity: 1; stroke-width: 1px;"/><path class="ygrid crisp" transform="translate(0,132.03)" d="M80,0h537" style="stroke: rgb(255, 255, 255); stroke-opacity: 1; stroke-width: 1px;"/></g></g><g class="zerolinelayer"/><path class="xlines-below"/><path class="ylines-below"/><g class="overlines-below"/><g class="xaxislayer-below"/><g class="yaxislayer-below"/><g class="overaxes-below"/><g class="plot" transform="translate(80,100)" clip-path="url('#clipe8b6c5xyplot')"><g class="scatterlayer mlayer"><g class="trace scatter trace1a148c" style="stroke-miterlimit: 2; opacity: 1;"><g class="fills"/><g class="errorbars"/><g class="lines"><path class="js-line" d="M0,82.28L6.44,82.51L8.73,120.48L13.28,120.57L14.97,136.92L15.68,136.9L32.53,137.96L33.58,121.23L33.9,129.62L34.66,129.56L36.18,126.37L36.95,126.27L38.47,129.79L39.24,129.7L40.76,132.71L41.52,132.63L43.05,120.69L43.81,120.62L45.34,132.64L46.1,132.55L47.63,126.68L49.92,113.21L50.68,109.51L54.49,74.17L55.25,72.87L56.78,78.78L57.54,77.73L59.83,62.82L61.36,65.47L62.12,64.83L63.65,74.27L64.41,73.83L65.42,51.83L66.7,52.34L67.46,52.21L75.85,51.78L76.61,51.77L85.77,51.11L86.53,50.91L111.71,42.67L112.47,42.44L119.34,40.95L120.1,41.79L133.07,41.47L133.83,41.46L145.27,40.8L146.03,40.69L174.26,36.83L175.02,35.53L204.77,34L205.54,33.87L229.19,31.05L229.95,28.56L255.89,27.81L256.65,95.38L265.07,93.57L265.81,93.44L266.57,93.12L267.33,91.51L269.62,88.51L270.38,87.52L274.2,73.59L274.96,72.39L279.54,67.88L280.3,67.37L284.11,65.43L284.88,65.5L290.22,64.8L290.98,64.77L307.76,63.66L308.53,63.48L313.86,61.32L314.63,60.89L315.39,60.46L316.15,62.78L319.21,61.15L319.97,59.94L324.55,53.24L325.31,52.44L328.36,47.98L329.12,45.51L332.17,38.66L332.94,37.65L336.75,33.5L337.51,32.89L340.57,31.98L341.33,31.8L347.43,31.18L348.2,31.16L359.64,30.17L360.4,29.9L364.98,28.09L365.74,74.81L367.27,73.22L368.03,72.76L375.66,69.16L376.42,68.8L377.01,71.93L377.18,68.39L377.91,68.25L377.95,69.25L378.67,67.95L378.71,68.94L379.47,68.62L381,68.09L381.76,76.43L388.44,73.91L388.47,72.31L388.51,72.03L388.63,73.74L395.87,44.74L396.25,44.87L396.64,41.95L397.4,42.12L397.78,43.2L398.92,37.43L399.31,41.6L400.45,39.66L400.83,39.05L401.98,38.13L402.36,38.96L403.5,38.42L403.88,38.33L404.65,38.4L405.03,43.02L409.22,41.69L409.6,36.5L410.37,35.76L410.75,35.39L411.89,33.79L412.27,33.41L415.33,22.43L415.71,16L416.09,16.8L416.47,140.18L416.85,139.22L417.23,142.07L417.99,136.79L418.38,138.99L419.14,136.15L419.52,136.63L419.9,141.25L420.28,146.68L420.67,133.42L421.43,138.09L421.81,157.2L422.95,133.53L423.33,145.44L423.72,148.42L424.1,146.68L424.48,144.02L425.24,134.36L425.62,135.71L426,141.84L426.38,146.05L426.77,142.1L427.15,141.74L427.53,151.77L427.91,141.68L428.29,140.84L428.67,148.68L429.44,127.07L429.82,137.58L430.58,140.49L430.96,138.92L432.49,129.31L432.87,138.25L433.25,134.05L433.63,138.68L434.02,138.81L434.4,131.49L434.78,131.42L435.16,140.05L435.92,132.48L436.31,138.41L437.07,141.46L437.45,128.79L438.21,142.96L438.6,264.58L439.74,293.12L440.12,304L440.5,286.22L440.88,301.52L441.26,291.75L441.64,292.1L442.03,291.07L442.41,294.16L442.79,293.46L443.17,276.02L443.55,283.67L443.93,262.28L444.7,272.54L445.08,248.89L445.84,241.71L446.22,229.6L446.6,224.98L446.98,228.24L447.37,227.36L448.51,215.22L448.89,217.06L449.27,216.4L449.65,227.08L450.04,226.08L450.42,228.38L450.8,228.68L451.18,224.72L451.56,233.57L451.94,224.28L452.71,227.75L453.09,223.07L453.85,226.33L454.23,223.26L454.61,224.52L455,234.01L455.38,220.81L455.76,231.91L456.14,224.2L458.43,212.72L458.81,220.76L459.57,220.72L459.95,223.7L460.34,223.67L460.72,219.37L461.1,223.08L461.48,218.62L461.86,226.76L462.24,225.2L462.62,224.19L463.01,219.51L463.39,225.16L464.53,225.11L464.91,216.49L465.29,225.05L465.67,220.43L466.05,220.57L466.44,218.19L466.82,220.92L467.2,219.84L467.58,227.36L467.96,216.65L468.34,220.1L468.73,220.01L469.49,220.98L469.87,218.78L470.63,223.64L471.01,218.66L471.39,205.85L471.78,215.25L472.16,220.32L472.54,206.18L472.92,206.81L473.3,214.16L473.68,214.11L474.07,206.99L474.83,212.47L475.21,202.23L475.59,199.24L475.98,208.71L476.36,224.84L476.73,215.2L477.12,214.49L477.5,205.74L477.88,219.6L478.64,195.82L479.02,209.77L479.4,208.24L479.79,203.32L480.17,202.05L480.55,205.17L480.93,200.81L481.31,208.16L481.69,206.35L482.07,209.96L482.46,207.44L482.84,196.45L483.22,195.36L483.6,196.45L483.98,201.41L485.13,210.92L485.51,197.09L485.89,197.31L486.27,191.05L486.65,191.24L487.03,196.07L487.41,200.65L487.8,194.37L488.94,210.5L489.32,204.27L490.08,191.94L490.47,193.62L490.85,197L491.23,205.03L491.61,197.14L491.99,198.57L492.37,192.99L493.52,184.28L493.9,189.51L494.66,194.59L495.04,189.23L495.43,191.91L495.81,189.81L496.19,182.31L496.57,187.7L496.95,187L497.33,183.28L497.71,186.18L498.09,185.69L498.48,181.61L498.86,182.61L499.24,186.54L500,187.68L500.38,186.58L500.76,181.49L501.15,187.81L501.91,185.81L502.29,187.22L502.67,189.17L503.06,187L504.2,194.82L504.58,189.57L504.96,183.36L505.34,189.2L505.73,186.45L506.87,187.85L507.25,183.53L508.4,187.65L508.78,184.59L509.54,184.25L509.92,185.71L511.06,187.29L511.45,197.68L511.83,197.68L512.21,195.53L512.59,195.52L512.97,190.33L513.35,190.33L513.73,186.49L515.26,194.95L515.64,194.95L516.02,195.4L516.4,193.58L516.79,193.58L517.17,187.5L517.93,187.5L518.31,190.84L518.69,186.76L519.07,190.68L519.46,186.75L520.6,188.23L520.98,187.2L523.27,183.02L523.65,181.13L524.41,190.9L524.79,187.7L525.18,181.79L525.56,180.91L525.94,182.93L526.32,184.81L526.7,179.55L527.46,190.44L527.85,182.8L528.23,183.07L528.61,174.64L529.75,185.09L530.13,181.21L530.52,181.99L530.9,185.79L531.28,171.39L531.66,177.83L532.04,175.21L532.42,180.5L532.81,179.53L533.19,177.22L534.71,187.84L535.09,182.58L535.47,175.16L535.86,180.33L536.24,178.23L537,176.4" style="vector-effect: non-scaling-stroke; fill: none; stroke: rgb(99, 110, 250); stroke-opacity: 1; stroke-width: 2px; opacity: 1;"/></g><g class="points"/><g class="text"/></g></g></g><g class="overplot"/><path class="xlines-above crisp" d="M0,0" style="fill: none;"/><path class="ylines-above crisp" d="M0,0" style="fill: none;"/><g class="overlines-above"/><g class="xaxislayer-above"><g class="xtick"><text text-anchor="middle" x="0" y="433" transform="translate(90.2,0)" style="font-family: 'Open Sans', verdana, arial, sans-serif; font-size: 12px; fill: rgb(42, 63, 95); fill-opacity: 1; white-space: pre;"><tspan class="line" dy="0em" x="0" y="433">Jun 4</tspan><tspan class="line" dy="1.3em" x="0" y="433">2021</tspan></text></g><g class="xtick"><text text-anchor="middle" x="0" y="433" transform="translate(200.05,0)" style="font-family: 'Open Sans', verdana, arial, sans-serif; font-size: 12px; fill: rgb(42, 63, 95); fill-opacity: 1; white-space: pre;">Jun 6</text></g><g class="xtick"><text text-anchor="middle" x="0" y="433" transform="translate(309.9,0)" style="font-family: 'Open Sans', verdana, arial, sans-serif; font-size: 12px; fill: rgb(42, 63, 95); fill-opacity: 1; white-space: pre;">Jun 8</text></g><g class="xtick"><text text-anchor="middle" x="0" y="433" transform="translate(419.75,0)" style="font-family: 'Open Sans', verdana, arial, sans-serif; font-size: 12px; fill: rgb(42, 63, 95); fill-opacity: 1; white-space: pre;">Jun 10</text></g><g class="xtick"><text text-anchor="middle" x="0" y="433" transform="translate(529.6,0)" style="font-family: 'Open Sans', verdana, arial, sans-serif; font-size: 12px; fill: rgb(42, 63, 95); fill-opacity: 1; white-space: pre;">Jun 12</text></g></g><g class="yaxislayer-above"><g class="ytick"><text text-anchor="end" x="79" y="4.199999999999999" transform="translate(0,367.23)" style="font-family: 'Open Sans', verdana, arial, sans-serif; font-size: 12px; fill: rgb(42, 63, 95); fill-opacity: 1; white-space: pre;">0.8</text></g><g class="ytick"><text text-anchor="end" x="79" y="4.199999999999999" transform="translate(0,308.43)" style="font-family: 'Open Sans', verdana, arial, sans-serif; font-size: 12px; fill: rgb(42, 63, 95); fill-opacity: 1; white-space: pre;">0.82</text></g><g class="ytick"><text text-anchor="end" x="79" y="4.199999999999999" transform="translate(0,249.63)" style="font-family: 'Open Sans', verdana, arial, sans-serif; font-size: 12px; fill: rgb(42, 63, 95); fill-opacity: 1; white-space: pre;">0.84</text></g><g class="ytick"><text text-anchor="end" x="79" y="4.199999999999999" transform="translate(0,190.82999999999998)" style="font-family: 'Open Sans', verdana, arial, sans-serif; font-size: 12px; fill: rgb(42, 63, 95); fill-opacity: 1; white-space: pre;">0.86</text></g><g class="ytick"><text text-anchor="end" x="79" y="4.199999999999999" transform="translate(0,132.03)" style="font-family: 'Open Sans', verdana, arial, sans-serif; font-size: 12px; fill: rgb(42, 63, 95); fill-opacity: 1; white-space: pre;">0.88</text></g></g><g class="overaxes-above"/></g></g><g class="polarlayer"/><g class="ternarylayer"/><g class="geolayer"/><g class="funnelarealayer"/><g class="pielayer"/><g class="treemaplayer"/><g class="sunburstlayer"/><g class="glimages"/><defs id="topdefs-e8b6c5"><g class="clips"/><clipPath id="legende8b6c5"><rect width="60" height="45" x="0" y="0"/></clipPath></defs><g class="layer-above"><g class="imagelayer"/><g class="shapelayer"/></g><g class="infolayer"><g class="legend" pointer-events="all" transform="translate(627.74,100)"><rect class="bg" shape-rendering="crispEdges" width="60" height="45" x="0" y="0" style="stroke: rgb(68, 68, 68); stroke-opacity: 1; fill: rgb(255, 255, 255); fill-opacity: 1; stroke-width: 0px;"/><g class="scrollbox" transform="" clip-path="url('#legende8b6c5')"><text class="legendtitletext" text-anchor="start" x="2" y="15.600000000000001" style="font-family: 'Open Sans', verdana, arial, sans-serif; font-size: 12px; fill: rgb(42, 63, 95); fill-opacity: 1; white-space: pre;">All</text><g class="groups" transform=""><g class="traces" transform="translate(0,30.1)" style="opacity: 1;"><text class="legendtext" text-anchor="start" x="40" y="4.680000000000001" style="font-family: 'Open Sans', verdana, arial, sans-serif; font-size: 12px; fill: rgb(42, 63, 95); fill-opacity: 1; white-space: pre;">All</text><g class="layers" style="opacity: 1;"><g class="legendfill"/><g class="legendlines"><path class="js-line" d="M5,0h30" style="fill: none; stroke: rgb(99, 110, 250); stroke-opacity: 1; stroke-width: 2px;"/></g><g class="legendsymbols"><g class="legendpoints"/></g></g><rect class="legendtoggle" x="0" y="-9.5" width="54.890625" height="19" style="fill: rgb(0, 0, 0); fill-opacity: 0;"/></g></g></g><rect class="scrollbar" rx="20" ry="3" width="0" height="0" x="0" y="0" style="fill: rgb(128, 139, 164); fill-opacity: 1;"/></g><g class="g-gtitle"><text class="gtitle" x="35" y="50" text-anchor="start" dy="0em" style="font-family: 'Open Sans', verdana, arial, sans-serif; font-size: 17px; fill: rgb(42, 63, 95); opacity: 1; font-weight: normal; white-space: pre;">Singapore Vaccination Centers</text></g><g class="g-xtitle"><text class="xtitle" x="348.5" y="476.409375" text-anchor="middle" style="font-family: 'Open Sans', verdana, arial, sans-serif; font-size: 14px; fill: rgb(42, 63, 95); opacity: 1; font-weight: normal; white-space: pre;">Time</text></g><g class="g-ytitle"><text class="ytitle" transform="rotate(-90,27.481250000000003,260)" x="27.481250000000003" y="260" text-anchor="middle" style="font-family: 'Open Sans', verdana, arial, sans-serif; font-size: 14px; fill: rgb(42, 63, 95); opacity: 1; font-weight: normal; white-space: pre;">Filled/%</text></g></g></svg>