<svg class="main-svg" xmlns="http://www.w3.org/2000/svg" xmlns:xlink="http://www.w3.org/1999/xlink" width="700" height="500" style="" viewBox="0 0 700 500"><rect x="0" y="0" width="700" height="500" style="fill: rgb(255, 255, 255); fill-opacity: 1;"/><defs id="defs-eb37fd"><g class="clips"><clipPath id="clipeb37fdxyplot" class="plotclip"><rect width="537" height="320"/></clipPath><clipPath class="axesclip" id="clipeb37fdx"><rect x="80" y="0" width="537" height="500"/></clipPath><clipPath class="axesclip" id="clipeb37fdy"><rect x="0" y="100" width="700" height="320"/></clipPath><clipPath class="axesclip" id="clipeb37fdxy"><rect x="80" y="100" width="537" height="320"/></clipPath></g><g class="gradients"/></defs><g class="bglayer"><rect class="bg" x="80" y="100" width="537" height="320" style="fill: rgb(229, 236, 246); fill-opacity: 1; stroke-width: 0;"/></g><g class="layer-below"><g class="imagelayer"/><g class="shapelayer"/></g><g class="cartesianlayer"><g class="subplot xy"><g class="layer-subplot"><g class="shapelayer"/><g class="imagelayer"/></g><g class="gridlayer"><g class="x"><path class="xgrid crisp" transform="translate(82.22,0)" d="M0,100v320" style="stroke: rgb(255, 255, 255); stroke-opacity: 1; stroke-width: 1px;"/><path class="xgrid crisp" transform="translate(167.95999999999998,0)" d="M0,100v320" style="stroke: rgb(255, 255, 255); stroke-opacity: 1; stroke-width: 1px;"/><path class="xgrid crisp" transform="translate(253.7,0)" d="M0,100v320" style="stroke: rgb(255, 255, 255); stroke-opacity: 1; stroke-width: 1px;"/><path class="xgrid crisp" transform="translate(339.44,0)" d="M0,100v320" style="stroke: rgb(255, 255, 255); stroke-opacity: 1; stroke-width: 1px;"/><path class="xgrid crisp" transform="translate(425.18,0)" d="M0,100v320" style="stroke: rgb(255, 255, 255); stroke-opacity: 1; stroke-width: 1px;"/><path class="xgrid crisp" transform="translate(510.92,0)" d="M0,100v320" style="stroke: rgb(255, 255, 255); stroke-opacity: 1; stroke-width: 1px;"/><path class="xgrid crisp" transform="translate(596.66,0)" d="M0,100v320" style="stroke: rgb(255, 255, 255); stroke-opacity: 1; stroke-width: 1px;"/></g><g class="y"><path class="ygrid crisp" transform="translate(0,393.08)" d="M80,0h537" style="stroke: rgb(255, 255, 255); stroke-opacity: 1; stroke-width: 1px;"/><path class="ygrid crisp" transform="translate(0,352.28999999999996)" d="M80,0h537" style="stroke: rgb(255, 255, 255); stroke-opacity: 1; stroke-width: 1px;"/><path class="ygrid crisp" transform="translate(0,311.5)" d="M80,0h537" style="stroke: rgb(255, 255, 255); stroke-opacity: 1; stroke-width: 1px;"/><path class="ygrid crisp" transform="translate(0,270.71000000000004)" d="M80,0h537" style="stroke: rgb(255, 255, 255); stroke-opacity: 1; stroke-width: 1px;"/><path class="ygrid crisp" transform="translate(0,229.92)" d="M80,0h537" style="stroke: rgb(255, 255, 255); stroke-opacity: 1; stroke-width: 1px;"/><path class="ygrid crisp" transform="translate(0,189.12)" d="M80,0h537" style="stroke: rgb(255, 255, 255); stroke-opacity: 1; stroke-width: 1px;"/><path class="ygrid crisp" transform="translate(0,148.32999999999998)" d="M80,0h537" style="stroke: rgb(255, 255, 255); stroke-opacity: 1; stroke-width: 1px;"/><path class="ygrid crisp" transform="translate(0,107.54)" d="M80,0h537" style="stroke: rgb(255, 255, 255); stroke-opacity: 1; stroke-width: 1px;"/></g></g><g class="zerolinelayer"/><path class="xlines-below"/><path class="ylines-below"/><g class="overlines-below"/><g class="xaxislayer-below"/><g class="yaxislayer-below"/><g class="overaxes-below"/><g class="plot" transform="translate(80,100)" clip-path="url('#clipeb37fdxyplot')"><g class="scatterlayer mlayer"><g class="trace scatter trace15ec2c" style="stroke-miterlimit: 2; opacity: 1;"><g class="fills"/><g class="errorbars"/><g class="lines"><path class="js-line" d="M0,304L1.72,302.65L2.31,252.27L2.91,253.5L3.5,251.9L5.88,251.28L6.48,250.91L7.67,251.65L8.27,250.79L9.46,251.16L10.05,250.79L11.24,250.54L11.84,250.29L13.03,250.04L13.63,249.8L21.36,249.43L21.96,248.93L26.13,247.82L26.72,247.21L27.91,247.33L28.51,246.47L29.7,247.33L30.3,245.85L32.08,244.99L32.68,245.48L33.27,245.11L33.87,245.97L35.06,243.14L35.65,243.63L36.25,243.63L36.84,242.77L39.82,240.05L40.42,241.04L41.01,241.29L41.61,240.18L42.2,238.2L42.8,238.7L43.39,239.68L45.78,235.61L46.37,234.75L46.97,234.01L47.56,234.5L48.75,233.39L49.35,233.64L49.94,235.12L50.54,233.02L52.92,233.64L53.52,231.67L54.71,229.69L55.3,230.43L56.49,229.32L57.09,230.93L57.68,230.68L58.28,229.2L60.66,225.01L61.26,222.42L61.85,223.03L62.45,221.68L63.04,220.69L63.64,221.43L64.83,221.68L65.42,222.66L68.4,220.44L69,220.2L71.38,218.96L71.98,220.07L72.57,220.07L73.16,218.59L75.55,217.11L76.14,216.99L77.93,216.13L78.52,216L79.71,216.13L80.31,215.76L82.1,215.63L82.69,214.77L84.48,212.18L85.08,211.44L86.26,212.43L86.86,211.93L87.46,212.43L88.05,149.79L90.43,148.04L91.03,147.92L93.41,146.8L94.01,146.8L96.98,146.05L97.58,145.68L102.34,145.06L102.94,145.43L107.1,145.68L107.7,145.68L111.87,144.93L112.46,143.94L114.84,144.06L115.44,143.57L116.63,143.69L117.22,143.07L119.01,143.07L119.61,142.07L121.39,140.21L121.99,141.2L123.78,139.59L124.37,140.21L126.75,136.6L127.35,138.22L129.73,135.36L130.33,136.23L131.51,134.74L132.11,135.86L132.71,136.85L133.3,135.98L133.9,136.97L134.49,136.48L135.09,135.61L135.68,136.6L136.87,136.35L137.47,136.73L138.66,136.97L139.26,136.6L141.65,133.12L142.24,133.24L143.43,134.24L144.03,132.37L146.41,131.5L147.01,129.88L149.39,130.38L149.98,129.14L150.58,127.02L151.17,128.52L151.77,128.52L152.36,127.4L152.96,128.27L153.55,127.77L154.75,126.03L155.34,126.15L157.72,123.29L158.32,122.3L158.92,121.05L159.51,121.8L160.7,119.81L161.3,120.31L163.08,119.69L163.68,117.2L164.27,117.07L164.86,116.08L166.06,114.96L166.65,115.21L167.85,116.95L168.44,116.33L169.04,118.19L169.63,117.45L170.23,117.32L170.82,115.83L172.01,115.95L172.61,115.83L173.2,116.2L173.8,72.54L175.58,70.53L176.18,70.28L179.75,68.27L180.35,68.02L183.32,65.89L183.92,65.89L185.11,66.01L185.71,65.39L188.68,65.26L189.28,65.39L198.8,63.51L199.4,63.88L201.19,62.88L201.78,63L202.38,63.25L202.97,62.5L206.54,61.87L207.73,61.37L208.33,60.12L209.52,59.74L210.71,59.37L211.31,57.74L211.9,58.86L212.5,57.74L213.69,57.74L214.28,57.11L214.88,56.98L215.47,55.85L217.26,55.6L217.86,54.1L220.22,50.46L220.81,51.09L222.6,50.08L223.19,48.45L225.58,47.83L226.17,45.94L226.77,45.32L227.36,45.82L229.75,44.57L230.34,43.56L231.53,43.56L232.12,44.06L233.32,45.57L233.92,43.81L235.11,44.94L235.71,43.06L236.89,43.19L237.49,43.56L239.27,41.81L239.87,42.18L241.06,40.55L241.65,39.55L242.25,37.16L242.85,37.67L243.44,36.29L244.03,37.67L244.63,36.16L245.82,35.66L246.42,34.41L248.2,34.91L248.8,33.9L249.39,34.41L249.99,32.9L251.18,32.77L251.78,31.77L254.16,32.15L254.75,31.27L255.94,31.14L256.54,31.27L257.73,29.39L258.32,30.02L258.92,29.76L259.52,177.95L262.49,177.56L263.09,178.21L264.88,177.17L265.47,177.17L266.66,176L267.26,176L269.04,175.35L269.64,175.35L273.81,174.96L274.4,174.96L278.57,174.7L279.17,174.7L281.55,173.79L282.14,174.05L285.71,173.26L286.31,173.13L288.69,171.44L289.28,170.92L291.07,170.53L291.67,169.23L294.07,168.97L294.66,170.14L295.86,168.32L296.45,168.19L297.05,167.54L297.64,165.19L298.23,163.37L298.83,163.63L299.43,162.98L300.02,161.29L300.62,161.81L301.21,161.16L302.41,161.29L303,160.38L304.19,159.72L304.79,160.64L306.57,158.03L307.17,158.94L308.96,156.34L309.55,156.34L310.14,155.56L310.74,156.6L311.93,157.51L312.53,156.6L313.12,156.73L313.72,155.95L316.7,151.91L317.29,151.39L318.48,151L319.08,152.43L322.65,149.44L323.24,151.13L324.44,130.43L325.03,130.04L326.22,129.39L326.82,124.83L327.41,124.96L328.01,121.19L328.6,121.45L329.2,118.98L329.8,116.11L330.39,117.02L332.17,110.64L332.77,107.65L333.96,107.13L334.56,105.05L335.15,104.52L335.75,101.92L338.73,96.06L339.32,95.8L341.11,93.07L341.7,90.59L344.68,85.65L345.28,98.46L348.26,94.26L348.85,94.65L349.45,94.52L350.04,95.31L351.23,94.92L351.83,95.57L353.61,94.65L354.21,94.79L355.4,94.26L356,94.39L362.54,93.74L363.14,93.6L372.66,93.6L373.26,94.13L376.24,90.32L376.83,90.58L378.62,89.27L379.21,89.4L379.81,89.01L380.4,87.43L381.59,87.69L382.19,86.25L385.17,83.23L385.76,83.62L387.55,80.34L388.14,79.95L389.93,77.45L390.53,77.45L391.72,74.96L392.31,74.96L393.5,73.12L394.1,71.02L396.48,66.03L397.08,65.63L397.67,65.24L398.27,63.14L400.65,61.3L401.24,59.73L404.82,58.81L405.41,57.76L406.01,58.15L406.6,57.49L407.2,57.89L411.96,53.42L414.94,50.93L415.54,51.58L417.92,48.43L418.51,48.3L419.11,46.99L419.7,47.51L420.89,46.46L421.49,46.73L422.09,47.78L422.68,46.86L425.06,45.54L425.66,46.46L428.04,45.81L428.64,44.76L430.42,42.52L431.02,91.61L432.21,92.02L432.8,90.95L433.4,90.28L433.99,90.81L435.78,90.81L436.38,91.75L438.76,91.48L439.35,91.61L441.14,91.75L441.74,91.75L444.71,90.28L445.31,90.68L451.26,90.01L451.86,90.01L458.4,89.74L459,89.61L461.98,89.21L462.57,88.81L463.76,88.27L464.36,87.33L465.55,86.93L466.14,85.6L466.74,84.26L467.34,85.6L469.72,84.66L470.31,84.66L471.5,82.65L472.1,82.39L473.89,79.58L474.48,79.44L476.27,79.04L476.86,78.24L478.05,77.57L478.65,77.7L479.84,76.23L480.43,75.56L482.82,74.63L483.41,75.03L484.01,74.49L484.6,75.16L485.79,71.82L486.39,72.09L486.99,72.09L488.77,71.55L489.37,70.35L492.35,67.94L492.94,68.21L496.51,65.8L497.11,64.86L497.7,65.27L498.3,64.46L499.49,64.6L500.08,64.46L501.27,63.66L501.87,62.86L503.65,61.79L504.25,60.32L506.63,58.85L507.23,57.11L508.42,55.23L509.01,55.9L511.99,54.03L512.59,54.03L513.78,52.69L514.38,52.69L516.16,52.69L516.76,20.05L521.52,16.54L522.11,16.67L523.9,16.4L524.5,16L526.88,16.81L527.48,16.81L532.24,16.54L532.83,16.4L537,16.54" style="vector-effect: non-scaling-stroke; fill: none; stroke: rgb(99, 110, 250); stroke-opacity: 1; stroke-width: 2px; opacity: 1;"/></g><g class="points"/><g class="text"/></g></g></g><g class="overplot"/><path class="xlines-above crisp" d="M0,0" style="fill: none;"/><path class="ylines-above crisp" d="M0,0" style="fill: none;"/><g class="overlines-above"/><g class="xaxislayer-above"><g class="xtick"><text text-anchor="middle" x="0" y="433" transform="translate(82.22,0)" style="font-family: 'Open Sans', verdana, arial, sans-serif; font-size: 12px; fill: rgb(42, 63, 95); fill-opacity: 1; white-space: pre;"><tspan class="line" dy="0em" x="0" y="433">Aug 3</tspan><tspan class="line" dy="1.3em" x="0" y="433">2021</tspan></text></g><g class="xtick"><text text-anchor="middle" x="0" y="433" transform="translate(167.95999999999998,0)" style="font-family: 'Open Sans', verdana, arial, sans-serif; font-size: 12px; fill: rgb(42, 63, 95); fill-opacity: 1; white-space: pre;">Aug 4</text></g><g class="xtick"><text text-anchor="middle" x="0" y="433" transform="translate(253.7,0)" style="font-family: 'Open Sans', verdana, arial, sans-serif; font-size: 12px; fill: rgb(42, 63, 95); fill-opacity: 1; white-space: pre;">Aug 5</text></g><g class="xtick"><text text-anchor="middle" x="0" y="433" transform="translate(339.44,0)" style="font-family: 'Open Sans', verdana, arial, sans-serif; font-size: 12px; fill: rgb(42, 63, 95); fill-opacity: 1; white-space: pre;">Aug 6</text></g><g class="xtick"><text text-anchor="middle" x="0" y="433" transform="translate(425.18,0)" style="font-family: 'Open Sans', verdana, arial, sans-serif; font-size: 12px; fill: rgb(42, 63, 95); fill-opacity: 1; white-space: pre;">Aug 7</text></g><g class="xtick"><text text-anchor="middle" x="0" y="433" transform="translate(510.92,0)" style="font-family: 'Open Sans', verdana, arial, sans-serif; font-size: 12px; fill: rgb(42, 63, 95); fill-opacity: 1; white-space: pre;">Aug 8</text></g><g class="xtick"><text text-anchor="middle" x="0" y="433" transform="translate(596.66,0)" style="font-family: 'Open Sans', verdana, arial, sans-serif; font-size: 12px; fill: rgb(42, 63, 95); fill-opacity: 1; white-space: pre;">Aug 9</text></g></g><g class="yaxislayer-above"><g class="ytick"><text text-anchor="end" x="79" y="4.199999999999999" transform="translate(0,393.08)" style="font-family: 'Open Sans', verdana, arial, sans-serif; font-size: 12px; fill: rgb(42, 63, 95); fill-opacity: 1; white-space: pre;">0.864</text></g><g class="ytick"><text text-anchor="end" x="79" y="4.199999999999999" transform="translate(0,352.28999999999996)" style="font-family: 'Open Sans', verdana, arial, sans-serif; font-size: 12px; fill: rgb(42, 63, 95); fill-opacity: 1; white-space: pre;">0.865</text></g><g class="ytick"><text text-anchor="end" x="79" y="4.199999999999999" transform="translate(0,311.5)" style="font-family: 'Open Sans', verdana, arial, sans-serif; font-size: 12px; fill: rgb(42, 63, 95); fill-opacity: 1; white-space: pre;">0.866</text></g><g class="ytick"><text text-anchor="end" x="79" y="4.199999999999999" transform="translate(0,270.71000000000004)" style="font-family: 'Open Sans', verdana, arial, sans-serif; font-size: 12px; fill: rgb(42, 63, 95); fill-opacity: 1; white-space: pre;">0.867</text></g><g class="ytick"><text text-anchor="end" x="79" y="4.199999999999999" transform="translate(0,229.92)" style="font-family: 'Open Sans', verdana, arial, sans-serif; font-size: 12px; fill: rgb(42, 63, 95); fill-opacity: 1; white-space: pre;">0.868</text></g><g class="ytick"><text text-anchor="end" x="79" y="4.199999999999999" transform="translate(0,189.12)" style="font-family: 'Open Sans', verdana, arial, sans-serif; font-size: 12px; fill: rgb(42, 63, 95); fill-opacity: 1; white-space: pre;">0.869</text></g><g class="ytick"><text text-anchor="end" x="79" y="4.199999999999999" transform="translate(0,148.32999999999998)" style="font-family: 'Open Sans', verdana, arial, sans-serif; font-size: 12px; fill: rgb(42, 63, 95); fill-opacity: 1; white-space: pre;">0.87</text></g><g class="ytick"><text text-anchor="end" x="79" y="4.199999999999999" transform="translate(0,107.54)" style="font-family: 'Open Sans', verdana, arial, sans-serif; font-size: 12px; fill: rgb(42, 63, 95); fill-opacity: 1; white-space: pre;">0.871</text></g></g><g class="overaxes-above"/></g></g><g class="polarlayer"/><g class="ternarylayer"/><g class="geolayer"/><g class="funnelarealayer"/><g class="pielayer"/><g class="treemaplayer"/><g class="sunburstlayer"/><g class="glimages"/><defs id="topdefs-eb37fd"><g class="clips"/><clipPath id="legendeb37fd"><rect width="60" height="45" x="0" y="0"/></clipPath></defs><g class="layer-above"><g class="imagelayer"/><g class="shapelayer"/></g><g class="infolayer"><g class="legend" pointer-events="all" transform="translate(627.74,100)"><rect class="bg" shape-rendering="crispEdges" width="60" height="45" x="0" y="0" style="stroke: rgb(68, 68, 68); stroke-opacity: 1; fill: rgb(255, 255, 255); fill-opacity: 1; stroke-width: 0px;"/><g class="scrollbox" transform="" clip-path="url('#legendeb37fd')"><text class="legendtitletext" text-anchor="start" x="2" y="15.600000000000001" style="font-family: 'Open Sans', verdana, arial, sans-serif; font-size: 12px; fill: rgb(42, 63, 95); fill-opacity: 1; white-space: pre;">All</text><g class="groups" transform=""><g class="traces" transform="translate(0,30.1)" style="opacity: 1;"><text class="legendtext" text-anchor="start" x="40" y="4.680000000000001" style="font-family: 'Open Sans', verdana, arial, sans-serif; font-size: 12px; fill: rgb(42, 63, 95); fill-opacity: 1; white-space: pre;">All</text><g class="layers" style="opacity: 1;"><g class="legendfill"/><g class="legendlines"><path class="js-line" d="M5,0h30" style="fill: none; stroke: rgb(99, 110, 250); stroke-opacity: 1; stroke-width: 2px;"/></g><g class="legendsymbols"><g class="legendpoints"/></g></g><rect class="legendtoggle" x="0" y="-9.5" width="54.890625" height="19" style="fill: rgb(0, 0, 0); fill-opacity: 0;"/></g></g></g><rect class="scrollbar" rx="20" ry="3" width="0" height="0" x="0" y="0" style="fill: rgb(128, 139, 164); fill-opacity: 1;"/></g><g class="g-gtitle"><text class="gtitle" x="35" y="50" text-anchor="start" dy="0em" style="font-family: 'Open Sans', verdana, arial, sans-serif; font-size: 17px; fill: rgb(42, 63, 95); opacity: 1; font-weight: normal; white-space: pre;">Singapore Vaccination Centers</text></g><g class="g-xtitle"><text class="xtitle" x="348.5" y="476.409375" text-anchor="middle" style="font-family: 'Open Sans', verdana, arial, sans-serif; font-size: 14px; fill: rgb(42, 63, 95); opacity: 1; font-weight: normal; white-space: pre;">Time</text></g><g class="g-ytitle"><text class="ytitle" transform="rotate(-90,19.840625000000003,260)" x="19.840625000000003" y="260" text-anchor="middle" style="font-family: 'Open Sans', verdana, arial, sans-serif; font-size: 14px; fill: rgb(42, 63, 95); opacity: 1; font-weight: normal; white-space: pre;">Filled/%</text></g></g></svg>