<svg class="main-svg" xmlns="http://www.w3.org/2000/svg" xmlns:xlink="http://www.w3.org/1999/xlink" width="700" height="500" style="" viewBox="0 0 700 500"><rect x="0" y="0" width="700" height="500" style="fill: rgb(255, 255, 255); fill-opacity: 1;"/><defs id="defs-56fac6"><g class="clips"><clipPath id="clip56fac6xyplot" class="plotclip"><rect width="537" height="320"/></clipPath><clipPath class="axesclip" id="clip56fac6x"><rect x="80" y="0" width="537" height="500"/></clipPath><clipPath class="axesclip" id="clip56fac6y"><rect x="0" y="100" width="700" height="320"/></clipPath><clipPath class="axesclip" id="clip56fac6xy"><rect x="80" y="100" width="537" height="320"/></clipPath></g><g class="gradients"/></defs><g class="bglayer"><rect class="bg" x="80" y="100" width="537" height="320" style="fill: rgb(229, 236, 246); fill-opacity: 1; stroke-width: 0;"/></g><g class="layer-below"><g class="imagelayer"/><g class="shapelayer"/></g><g class="cartesianlayer"><g class="subplot xy"><g class="layer-subplot"><g class="shapelayer"/><g class="imagelayer"/></g><g class="gridlayer"><g class="x"><path class="xgrid crisp" transform="translate(91.06,0)" d="M0,100v320" style="stroke: rgb(255, 255, 255); stroke-opacity: 1; stroke-width: 1px;"/><path class="xgrid crisp" transform="translate(210.13,0)" d="M0,100v320" style="stroke: rgb(255, 255, 255); stroke-opacity: 1; stroke-width: 1px;"/><path class="xgrid crisp" transform="translate(329.2,0)" d="M0,100v320" style="stroke: rgb(255, 255, 255); stroke-opacity: 1; stroke-width: 1px;"/><path class="xgrid crisp" transform="translate(448.27,0)" d="M0,100v320" style="stroke: rgb(255, 255, 255); stroke-opacity: 1; stroke-width: 1px;"/><path class="xgrid crisp" transform="translate(567.3299999999999,0)" d="M0,100v320" style="stroke: rgb(255, 255, 255); stroke-opacity: 1; stroke-width: 1px;"/></g><g class="y"><path class="ygrid crisp" transform="translate(0,367.23)" d="M80,0h537" style="stroke: rgb(255, 255, 255); stroke-opacity: 1; stroke-width: 1px;"/><path class="ygrid crisp" transform="translate(0,308.43)" d="M80,0h537" style="stroke: rgb(255, 255, 255); stroke-opacity: 1; stroke-width: 1px;"/><path class="ygrid crisp" transform="translate(0,249.63)" d="M80,0h537" style="stroke: rgb(255, 255, 255); stroke-opacity: 1; stroke-width: 1px;"/><path class="ygrid crisp" transform="translate(0,190.82999999999998)" d="M80,0h537" style="stroke: rgb(255, 255, 255); stroke-opacity: 1; stroke-width: 1px;"/><path class="ygrid crisp" transform="translate(0,132.03)" d="M80,0h537" style="stroke: rgb(255, 255, 255); stroke-opacity: 1; stroke-width: 1px;"/></g></g><g class="zerolinelayer"/><path class="xlines-below"/><path class="ylines-below"/><g class="overlines-below"/><g class="xaxislayer-below"/><g class="yaxislayer-below"/><g class="overaxes-below"/><g class="plot" transform="translate(80,100)" clip-path="url('#clip56fac6xyplot')"><g class="scatterlayer mlayer"><g class="trace scatter tracebc1aeb" style="stroke-miterlimit: 2; opacity: 1;"><g class="fills"/><g class="errorbars"/><g class="lines"><path class="js-line" d="M0,82.28L6.98,82.51L9.46,120.48L14.39,120.57L16.22,136.92L17,136.9L35.26,137.96L36.39,121.23L36.74,129.62L37.57,129.56L39.22,126.37L40.05,126.27L41.7,129.79L42.53,129.7L44.18,132.71L45.01,132.63L46.66,120.69L47.49,120.62L49.14,132.64L49.97,132.55L51.62,126.68L52.45,123.32L54.11,113.21L54.93,109.51L56.58,94.58L57.41,92.89L59.06,74.17L59.89,72.87L61.55,78.78L62.37,77.73L64.03,63.68L64.85,62.82L66.51,65.47L67.33,64.83L68.99,74.27L69.81,73.83L70.91,51.83L71.47,52.53L72.29,52.34L80.56,51.79L81.39,51.79L93.79,50.91L94.62,50.65L122.73,42.24L123.56,42.03L129.35,40.95L130.18,41.79L144.23,41.47L145.06,41.46L157.46,40.8L158.29,40.69L188.88,36.83L189.71,35.53L221.96,34L222.78,33.87L248.42,31.05L249.25,28.56L277.36,27.81L278.19,95.38L287.31,93.57L288.11,93.44L288.94,93.12L289.76,91.51L292.25,88.51L293.07,87.52L297.21,73.59L298.03,72.39L302.99,67.88L303.82,67.37L307.96,65.43L308.78,65.5L314.57,64.8L315.4,64.77L333.59,63.66L334.42,63.48L340.2,61.32L341.03,60.89L341.86,60.46L342.68,62.78L345.99,61.15L346.82,59.94L351.78,53.24L352.61,52.44L355.91,47.98L356.74,45.51L360.05,38.66L360.88,37.65L365.01,33.5L365.84,32.89L369.15,31.98L369.97,31.8L376.59,31.18L377.41,31.16L389.82,30.17L390.64,29.9L395.6,28.09L396.43,74.81L398.09,73.22L398.91,72.76L407.18,69.16L408.01,68.8L408.64,71.93L408.84,68.39L409.62,68.25L409.66,69.25L410.45,67.95L410.49,68.94L411.32,68.62L412.97,68.09L413.8,76.43L421.04,73.91L421.07,72.31L421.11,72.03L421.24,73.74L429.09,44.74L429.51,44.87L429.92,41.95L430.75,42.12L431.16,43.2L432.4,37.43L432.82,41.6L434.05,39.66L434.47,39.05L435.71,38.13L436.12,38.96L436.54,38.26L436.95,38.53L437.36,38.42L438.61,38.4L439.02,43.02L443.56,41.69L443.98,36.5L444.8,35.76L445.22,35.39L446.46,33.79L446.87,33.41L450.18,22.43L450.59,16L451,16.8L451.42,140.18L451.83,139.22L452.25,142.07L453.07,136.79L453.49,138.99L454.32,136.15L454.73,136.63L455.14,141.25L455.55,146.68L455.97,133.42L456.79,138.09L457.21,157.2L458.45,133.53L458.86,145.44L459.27,148.42L459.69,146.68L460.1,144.02L460.93,134.36L461.34,135.71L461.75,141.84L462.17,146.05L462.58,142.1L463,141.74L463.41,151.77L464.23,140.84L464.65,148.68L465.47,127.07L465.89,137.58L466.72,140.49L467.13,138.92L467.96,130.34L468.37,131.67L468.78,129.31L469.2,138.25L469.61,134.05L470.02,138.68L470.44,138.81L470.85,131.49L471.26,131.42L471.68,140.05L472.5,132.48L472.92,138.41L473.75,141.46L474.16,128.79L474.99,142.96L475.4,264.58L476.23,292.55L476.64,293.12L477.05,304L477.47,286.22L477.88,301.52L478.29,291.75L478.71,292.1L479.12,291.07L479.54,294.16L479.95,293.46L480.36,276.02L480.77,283.67L481.19,262.28L482.01,272.54L482.43,248.89L483.25,241.71L483.67,229.6L484.08,224.98L484.49,228.24L484.91,227.36L486.15,215.22L486.56,217.06L486.97,216.4L487.39,227.08L487.8,226.08L488.22,228.38L488.63,228.68L489.04,224.72L489.45,233.57L489.87,224.28L490.7,227.75L491.11,223.07L491.94,226.33L492.35,223.26L492.76,224.52L493.18,234.01L493.59,220.81L494.01,231.91L495.24,220.15L495.66,220.86L496.9,212.72L497.31,220.76L498.14,220.72L498.55,223.7L498.97,223.67L499.38,219.37L499.79,223.08L500.2,218.62L500.62,226.76L501.03,225.2L501.45,224.19L501.86,219.51L502.27,225.16L503.51,225.11L503.92,216.49L504.34,225.05L504.75,220.43L505.16,220.57L505.58,218.19L505.99,220.92L506.41,219.84L506.82,227.36L507.23,216.65L507.65,220.1L508.06,220.01L508.89,220.98L509.3,218.78L510.12,223.64L510.54,218.66L510.95,205.85L511.37,215.25L511.78,220.32L512.19,206.18L512.61,206.81L513.02,214.16L513.43,214.11L513.85,206.99L514.68,212.47L515.09,202.23L515.51,199.24L515.92,208.71L516.33,224.84L516.74,215.2L517.15,214.49L517.57,205.74L517.98,219.6L518.81,195.82L519.22,209.77L519.63,208.24L520.05,203.32L520.46,202.05L520.87,205.17L521.29,200.81L521.7,208.16L522.12,206.35L522.53,209.96L522.94,207.44L523.35,196.45L523.77,195.36L524.18,196.45L525.01,209.39L525.42,202.33L525.84,210.92L526.25,197.09L526.66,197.31L527.08,191.05L527.49,191.24L527.9,196.07L528.32,200.65L528.73,194.37L529.97,210.5L530.38,204.27L531.21,191.94L531.62,193.62L532.04,197L532.45,205.03L532.86,197.14L533.28,198.57L533.69,192.99L534.93,184.28L535.35,189.51L536.17,194.59L536.59,189.23L537,191.91" style="vector-effect: non-scaling-stroke; fill: none; stroke: rgb(99, 110, 250); stroke-opacity: 1; stroke-width: 2px; opacity: 1;"/></g><g class="points"/><g class="text"/></g></g></g><g class="overplot"/><path class="xlines-above crisp" d="M0,0" style="fill: none;"/><path class="ylines-above crisp" d="M0,0" style="fill: none;"/><g class="overlines-above"/><g class="xaxislayer-above"><g class="xtick"><text text-anchor="middle" x="0" y="433" transform="translate(91.06,0)" style="font-family: 'Open Sans', verdana, arial, sans-serif; font-size: 12px; fill: rgb(42, 63, 95); fill-opacity: 1; white-space: pre;"><tspan class="line" dy="0em" x="0" y="433">Jun 4</tspan><tspan class="line" dy="1.3em" x="0" y="433">2021</tspan></text></g><g class="xtick"><text text-anchor="middle" x="0" y="433" transform="translate(210.13,0)" style="font-family: 'Open Sans', verdana, arial, sans-serif; font-size: 12px; fill: rgb(42, 63, 95); fill-opacity: 1; white-space: pre;">Jun 6</text></g><g class="xtick"><text text-anchor="middle" x="0" y="433" transform="translate(329.2,0)" style="font-family: 'Open Sans', verdana, arial, sans-serif; font-size: 12px; fill: rgb(42, 63, 95); fill-opacity: 1; white-space: pre;">Jun 8</text></g><g class="xtick"><text text-anchor="middle" x="0" y="433" transform="translate(448.27,0)" style="font-family: 'Open Sans', verdana, arial, sans-serif; font-size: 12px; fill: rgb(42, 63, 95); fill-opacity: 1; white-space: pre;">Jun 10</text></g><g class="xtick"><text text-anchor="middle" x="0" y="433" transform="translate(567.3299999999999,0)" style="font-family: 'Open Sans', verdana, arial, sans-serif; font-size: 12px; fill: rgb(42, 63, 95); fill-opacity: 1; white-space: pre;">Jun 12</text></g></g><g class="yaxislayer-above"><g class="ytick"><text text-anchor="end" x="79" y="4.199999999999999" transform="translate(0,367.23)" style="font-family: 'Open Sans', verdana, arial, sans-serif; font-size: 12px; fill: rgb(42, 63, 95); fill-opacity: 1; white-space: pre;">0.8</text></g><g class="ytick"><text text-anchor="end" x="79" y="4.199999999999999" transform="translate(0,308.43)" style="font-family: 'Open Sans', verdana, arial, sans-serif; font-size: 12px; fill: rgb(42, 63, 95); fill-opacity: 1; white-space: pre;">0.82</text></g><g class="ytick"><text text-anchor="end" x="79" y="4.199999999999999" transform="translate(0,249.63)" style="font-family: 'Open Sans', verdana, arial, sans-serif; font-size: 12px; fill: rgb(42, 63, 95); fill-opacity: 1; white-space: pre;">0.84</text></g><g class="ytick"><text text-anchor="end" x="79" y="4.199999999999999" transform="translate(0,190.82999999999998)" style="font-family: 'Open Sans', verdana, arial, sans-serif; font-size: 12px; fill: rgb(42, 63, 95); fill-opacity: 1; white-space: pre;">0.86</text></g><g class="ytick"><text text-anchor="end" x="79" y="4.199999999999999" transform="translate(0,132.03)" style="font-family: 'Open Sans', verdana, arial, sans-serif; font-size: 12px; fill: rgb(42, 63, 95); fill-opacity: 1; white-space: pre;">0.88</text></g></g><g class="overaxes-above"/></g></g><g class="polarlayer"/><g class="ternarylayer"/><g class="geolayer"/><g class="funnelarealayer"/><g class="pielayer"/><g class="treemaplayer"/><g class="sunburstlayer"/><g class="glimages"/><defs id="topdefs-56fac6"><g class="clips"/><clipPath id="legend56fac6"><rect width="60" height="45" x="0" y="0"/></clipPath></defs><g class="layer-above"><g class="imagelayer"/><g class="shapelayer"/></g><g class="infolayer"><g class="legend" pointer-events="all" transform="translate(627.74,100)"><rect class="bg" shape-rendering="crispEdges" width="60" height="45" x="0" y="0" style="stroke: rgb(68, 68, 68); stroke-opacity: 1; fill: rgb(255, 255, 255); fill-opacity: 1; stroke-width: 0px;"/><g class="scrollbox" transform="" clip-path="url('#legend56fac6')"><text class="legendtitletext" text-anchor="start" x="2" y="15.600000000000001" style="font-family: 'Open Sans', verdana, arial, sans-serif; font-size: 12px; fill: rgb(42, 63, 95); fill-opacity: 1; white-space: pre;">All</text><g class="groups" transform=""><g class="traces" transform="translate(0,30.1)" style="opacity: 1;"><text class="legendtext" text-anchor="start" x="40" y="4.680000000000001" style="font-family: 'Open Sans', verdana, arial, sans-serif; font-size: 12px; fill: rgb(42, 63, 95); fill-opacity: 1; white-space: pre;">All</text><g class="layers" style="opacity: 1;"><g class="legendfill"/><g class="legendlines"><path class="js-line" d="M5,0h30" style="fill: none; stroke: rgb(99, 110, 250); stroke-opacity: 1; stroke-width: 2px;"/></g><g class="legendsymbols"><g class="legendpoints"/></g></g><rect class="legendtoggle" x="0" y="-9.5" width="54.890625" height="19" style="fill: rgb(0, 0, 0); fill-opacity: 0;"/></g></g></g><rect class="scrollbar" rx="20" ry="3" width="0" height="0" x="0" y="0" style="fill: rgb(128, 139, 164); fill-opacity: 1;"/></g><g class="g-gtitle"><text class="gtitle" x="35" y="50" text-anchor="start" dy="0em" style="font-family: 'Open Sans', verdana, arial, sans-serif; font-size: 17px; fill: rgb(42, 63, 95); opacity: 1; font-weight: normal; white-space: pre;">Singapore Vaccination Centers</text></g><g class="g-xtitle"><text class="xtitle" x="348.5" y="476.409375" text-anchor="middle" style="font-family: 'Open Sans', verdana, arial, sans-serif; font-size: 14px; fill: rgb(42, 63, 95); opacity: 1; font-weight: normal; white-space: pre;">Time</text></g><g class="g-ytitle"><text class="ytitle" transform="rotate(-90,27.481250000000003,260)" x="27.481250000000003" y="260" text-anchor="middle" style="font-family: 'Open Sans', verdana, arial, sans-serif; font-size: 14px; fill: rgb(42, 63, 95); opacity: 1; font-weight: normal; white-space: pre;">Filled/%</text></g></g></svg>