<svg class="main-svg" xmlns="http://www.w3.org/2000/svg" xmlns:xlink="http://www.w3.org/1999/xlink" width="700" height="500" style="" viewBox="0 0 700 500"><rect x="0" y="0" width="700" height="500" style="fill: rgb(255, 255, 255); fill-opacity: 1;"/><defs id="defs-6ba3a7"><g class="clips"><clipPath id="clip6ba3a7xyplot" class="plotclip"><rect width="537" height="320"/></clipPath><clipPath class="axesclip" id="clip6ba3a7x"><rect x="80" y="0" width="537" height="500"/></clipPath><clipPath class="axesclip" id="clip6ba3a7y"><rect x="0" y="100" width="700" height="320"/></clipPath><clipPath class="axesclip" id="clip6ba3a7xy"><rect x="80" y="100" width="537" height="320"/></clipPath></g><g class="gradients"/></defs><g class="bglayer"><rect class="bg" x="80" y="100" width="537" height="320" style="fill: rgb(229, 236, 246); fill-opacity: 1; stroke-width: 0;"/></g><g class="layer-below"><g class="imagelayer"/><g class="shapelayer"/></g><g class="cartesianlayer"><g class="subplot xy"><g class="layer-subplot"><g class="shapelayer"/><g class="imagelayer"/></g><g class="gridlayer"><g class="x"><path class="xgrid crisp" transform="translate(83.51,0)" d="M0,100v320" style="stroke: rgb(255, 255, 255); stroke-opacity: 1; stroke-width: 1px;"/><path class="xgrid crisp" transform="translate(218.72,0)" d="M0,100v320" style="stroke: rgb(255, 255, 255); stroke-opacity: 1; stroke-width: 1px;"/><path class="xgrid crisp" transform="translate(353.94,0)" d="M0,100v320" style="stroke: rgb(255, 255, 255); stroke-opacity: 1; stroke-width: 1px;"/><path class="xgrid crisp" transform="translate(489.16,0)" d="M0,100v320" style="stroke: rgb(255, 255, 255); stroke-opacity: 1; stroke-width: 1px;"/></g><g class="y"><path class="ygrid crisp" transform="translate(0,392.55)" d="M80,0h537" style="stroke: rgb(255, 255, 255); stroke-opacity: 1; stroke-width: 1px;"/><path class="ygrid crisp" transform="translate(0,349.77)" d="M80,0h537" style="stroke: rgb(255, 255, 255); stroke-opacity: 1; stroke-width: 1px;"/><path class="ygrid crisp" transform="translate(0,306.99)" d="M80,0h537" style="stroke: rgb(255, 255, 255); stroke-opacity: 1; stroke-width: 1px;"/><path class="ygrid crisp" transform="translate(0,264.21000000000004)" d="M80,0h537" style="stroke: rgb(255, 255, 255); stroke-opacity: 1; stroke-width: 1px;"/><path class="ygrid crisp" transform="translate(0,221.43)" d="M80,0h537" style="stroke: rgb(255, 255, 255); stroke-opacity: 1; stroke-width: 1px;"/><path class="ygrid crisp" transform="translate(0,178.65)" d="M80,0h537" style="stroke: rgb(255, 255, 255); stroke-opacity: 1; stroke-width: 1px;"/><path class="ygrid crisp" transform="translate(0,135.87)" d="M80,0h537" style="stroke: rgb(255, 255, 255); stroke-opacity: 1; stroke-width: 1px;"/></g></g><g class="zerolinelayer"/><path class="xlines-below"/><path class="ylines-below"/><g class="overlines-below"/><g class="xaxislayer-below"/><g class="yaxislayer-below"/><g class="overaxes-below"/><g class="plot" transform="translate(80,100)" clip-path="url('#clip6ba3a7xyplot')"><g class="scatterlayer mlayer"><g class="trace scatter traceb2a3c5" style="stroke-miterlimit: 2; opacity: 1;"><g class="fills"/><g class="errorbars"/><g class="lines"><path class="js-line" d="M0,304L2.71,302.59L3.65,249.74L4.59,251.04L5.53,249.35L9.28,248.71L10.22,248.32L12.1,249.1L13.04,248.19L14.91,248.58L15.85,248.19L16.79,248.45L17.73,247.93L23.37,246.9L24.3,247.16L29,246.77L29.94,246.51L35.57,246.12L36.51,245.73L38.39,245.86L39.33,245.22L41.2,245.09L42.14,244.44L43.08,244.96L44.02,244.57L44.96,243.66L45.9,243.92L46.84,244.57L47.78,243.02L50.59,242.11L51.53,242.63L52.47,242.24L53.41,243.15L54.35,242.24L55.29,240.17L57.17,240.69L58.11,239.78L61.86,237.84L62.8,236.94L64.67,238.23L65.62,237.07L66.55,235L67.5,235.51L68.43,236.55L69.37,235L71.25,232.67L72.19,232.28L74.07,230.6L75.01,231.12L76.88,229.95L77.82,230.21L78.76,231.76L79.7,229.56L82.52,230.6L83.46,230.21L85.34,226.46L86.28,226.07L87.22,226.85L88.15,225.55L89.09,225.68L90.03,227.36L90.97,227.11L91.91,225.55L95.67,221.16L96.6,218.44L97.55,219.09L98.48,217.66L99.42,216.63L100.36,217.4L102.24,217.66L103.18,218.7L106.94,216.5L107.87,216.37L109.75,215.72L110.69,214.69L111.63,214.3L112.57,214.82L114.44,215.98L115.38,214.43L118.2,213.39L119.15,212.88L121.02,212.23L121.96,211.45L124.77,212.23L125.71,211.84L127.59,211.58L128.54,211.84L130.41,210.42L131.35,208.87L133.23,207.7L134.17,206.93L136.04,207.96L136.98,207.44L137.92,207.96L138.86,142.27L141.68,140.18L142.62,140.44L144.5,139.92L145.44,139.01L147.31,139.14L148.25,139.14L152.01,138.48L152.94,138.35L155.76,137.83L156.7,137.96L165.15,137.96L166.09,138.09L172.66,137.83L173.6,137.18L176.42,137.18L177.36,136.14L181.11,136.27L182.05,135.74L183.93,135.88L184.87,135.22L186.75,134.57L187.69,135.22L190.5,132.22L191.44,132.22L192.38,133.27L193.32,132.88L195.2,131.57L196.14,132.22L199.89,128.44L200.83,130.14L204.59,127.14L205.53,128.05L207.4,126.48L208.34,127.66L209.28,128.7L210.22,127.79L211.16,128.83L212.1,128.31L213.04,127.4L213.98,128.44L214.92,127.79L215.85,128.18L218.67,128.83L219.61,128.44L221.51,126.48L222.44,125.05L224.32,124.92L225.26,125.44L226.2,125.96L227.14,124.01L230.9,123.09L231.84,121.4L234.65,122.44L235.59,121.92L237.47,118.4L238.41,119.96L239.35,119.96L240.29,118.79L241.22,119.7L242.16,119.18L244.04,117.35L244.98,117.48L247.8,114.35L248.74,114.48L250.62,112.14L251.55,112.92L253.43,110.83L254.37,111.35L257.19,110.7L258.12,108.09L259.06,107.96L260,106.92L260.94,105.48L261.88,105.74L262.82,106L263.76,107.18L264.7,107.83L265.64,107.18L266.58,109.13L267.52,108.35L268.45,108.22L269.39,106.66L270.33,106.27L271.27,106.79L273.15,107.05L274.09,61.25L275.96,59.41L276.9,59.15L279.72,57.57L280.66,57.17L282.54,57.04L283.48,56.78L287.23,55.46L288.17,54.54L290.05,54.28L290.99,54.81L294.75,53.75L295.68,53.62L297.56,53.62L298.5,53.75L313.52,51.78L314.46,52.18L317.28,51.12L318.21,51.25L319.16,51.52L320.09,50.73L325.73,50.07L327.6,49.54L328.54,48.23L330.42,47.83L332.3,47.44L333.24,45.73L334.18,46.91L335.12,45.73L337,45.73L337.93,45.07L338.88,44.94L339.81,43.76L342.63,43.49L343.57,41.91L345.44,40.2L346.39,39.42L347.3,38.1L348.23,38.76L351.05,37.71L351.99,36L355.75,35.34L356.68,33.36L357.62,32.71L358.56,33.23L360.44,32.44L361.38,32.05L362.32,31.92L363.26,30.86L365.13,30.86L366.07,31.39L367.95,32.97L368.9,31.13L370.77,32.31L371.72,30.34L373.59,30.47L374.53,30.86L377.34,29.02L378.28,29.42L380.16,27.71L381.1,26.66L382.04,24.16L382.98,24.68L383.91,23.24L384.85,24.68L386.74,22.84L387.67,22.58L388.61,21.26L389.55,21.66L391.43,21.79L392.36,20.74L393.3,21.26L394.24,19.68L396.12,19.55L397.06,18.5L400.82,18.89L401.75,17.97L402.69,17.45L403.64,17.84L404.58,17.97L405.51,17.05L406.46,16L407.39,16.66L408.33,16.39L409.27,171.81L413.97,171.4L414.91,172.08L417.72,170.99L418.66,170.99L420.54,169.76L421.48,169.76L423.35,168.94L424.29,169.08L440.26,168.39L441.19,167.98L453.39,165.8L454.34,165.12L459.03,164.02L459.97,162.66L463.76,162.38L464.7,163.61L466.58,161.7L467.52,161.57L468.46,160.88L469.39,158.43L470.33,156.51L471.27,156.79L472.21,156.1L473.15,154.33L474.09,154.88L475.03,154.19L476.91,154.33L477.85,153.37L479.72,152.69L480.66,153.65L482.54,152.01L483.48,150.92L484.42,151.87L485.36,150.64L487.24,149.14L488.17,149.14L489.11,148.32L490.05,149.41L491.93,150.37L492.87,149.41L493.81,149.55L494.75,148.73L498.51,145.18L499.45,144.5L502.26,143.54L503.2,145.04L508.83,141.9L509.77,143.68L510.71,121.97L511.65,121.97L514.47,120.88L515.41,116.1L516.34,116.24L517.28,112.28L518.22,112.55L519.16,109.96L520.1,106.95L521.04,107.91L522.92,104.77L523.85,101.22L524.8,98.08L525.74,98.08L526.68,97.53L527.62,95.35L528.55,94.8L529.5,92.07L531.37,89.34L532.31,89.34L534.19,85.93L535.12,85.65L537,83.6" style="vector-effect: non-scaling-stroke; fill: none; stroke: rgb(99, 110, 250); stroke-opacity: 1; stroke-width: 2px; opacity: 1;"/></g><g class="points"/><g class="text"/></g></g></g><g class="overplot"/><path class="xlines-above crisp" d="M0,0" style="fill: none;"/><path class="ylines-above crisp" d="M0,0" style="fill: none;"/><g class="overlines-above"/><g class="xaxislayer-above"><g class="xtick"><text text-anchor="middle" x="0" y="433" transform="translate(83.51,0)" style="font-family: 'Open Sans', verdana, arial, sans-serif; font-size: 12px; fill: rgb(42, 63, 95); fill-opacity: 1; white-space: pre;"><tspan class="line" dy="0em" x="0" y="433">Aug 3</tspan><tspan class="line" dy="1.3em" x="0" y="433">2021</tspan></text></g><g class="xtick"><text text-anchor="middle" x="0" y="433" transform="translate(218.72,0)" style="font-family: 'Open Sans', verdana, arial, sans-serif; font-size: 12px; fill: rgb(42, 63, 95); fill-opacity: 1; white-space: pre;">Aug 4</text></g><g class="xtick"><text text-anchor="middle" x="0" y="433" transform="translate(353.94,0)" style="font-family: 'Open Sans', verdana, arial, sans-serif; font-size: 12px; fill: rgb(42, 63, 95); fill-opacity: 1; white-space: pre;">Aug 5</text></g><g class="xtick"><text text-anchor="middle" x="0" y="433" transform="translate(489.16,0)" style="font-family: 'Open Sans', verdana, arial, sans-serif; font-size: 12px; fill: rgb(42, 63, 95); fill-opacity: 1; white-space: pre;">Aug 6</text></g></g><g class="yaxislayer-above"><g class="ytick"><text text-anchor="end" x="79" y="4.199999999999999" transform="translate(0,392.55)" style="font-family: 'Open Sans', verdana, arial, sans-serif; font-size: 12px; fill: rgb(42, 63, 95); fill-opacity: 1; white-space: pre;">0.864</text></g><g class="ytick"><text text-anchor="end" x="79" y="4.199999999999999" transform="translate(0,349.77)" style="font-family: 'Open Sans', verdana, arial, sans-serif; font-size: 12px; fill: rgb(42, 63, 95); fill-opacity: 1; white-space: pre;">0.865</text></g><g class="ytick"><text text-anchor="end" x="79" y="4.199999999999999" transform="translate(0,306.99)" style="font-family: 'Open Sans', verdana, arial, sans-serif; font-size: 12px; fill: rgb(42, 63, 95); fill-opacity: 1; white-space: pre;">0.866</text></g><g class="ytick"><text text-anchor="end" x="79" y="4.199999999999999" transform="translate(0,264.21000000000004)" style="font-family: 'Open Sans', verdana, arial, sans-serif; font-size: 12px; fill: rgb(42, 63, 95); fill-opacity: 1; white-space: pre;">0.867</text></g><g class="ytick"><text text-anchor="end" x="79" y="4.199999999999999" transform="translate(0,221.43)" style="font-family: 'Open Sans', verdana, arial, sans-serif; font-size: 12px; fill: rgb(42, 63, 95); fill-opacity: 1; white-space: pre;">0.868</text></g><g class="ytick"><text text-anchor="end" x="79" y="4.199999999999999" transform="translate(0,178.65)" style="font-family: 'Open Sans', verdana, arial, sans-serif; font-size: 12px; fill: rgb(42, 63, 95); fill-opacity: 1; white-space: pre;">0.869</text></g><g class="ytick"><text text-anchor="end" x="79" y="4.199999999999999" transform="translate(0,135.87)" style="font-family: 'Open Sans', verdana, arial, sans-serif; font-size: 12px; fill: rgb(42, 63, 95); fill-opacity: 1; white-space: pre;">0.87</text></g></g><g class="overaxes-above"/></g></g><g class="polarlayer"/><g class="ternarylayer"/><g class="geolayer"/><g class="funnelarealayer"/><g class="pielayer"/><g class="treemaplayer"/><g class="sunburstlayer"/><g class="glimages"/><defs id="topdefs-6ba3a7"><g class="clips"/><clipPath id="legend6ba3a7"><rect width="60" height="45" x="0" y="0"/></clipPath></defs><g class="layer-above"><g class="imagelayer"/><g class="shapelayer"/></g><g class="infolayer"><g class="legend" pointer-events="all" transform="translate(627.74,100)"><rect class="bg" shape-rendering="crispEdges" width="60" height="45" x="0" y="0" style="stroke: rgb(68, 68, 68); stroke-opacity: 1; fill: rgb(255, 255, 255); fill-opacity: 1; stroke-width: 0px;"/><g class="scrollbox" transform="" clip-path="url('#legend6ba3a7')"><text class="legendtitletext" text-anchor="start" x="2" y="15.600000000000001" style="font-family: 'Open Sans', verdana, arial, sans-serif; font-size: 12px; fill: rgb(42, 63, 95); fill-opacity: 1; white-space: pre;">All</text><g class="groups" transform=""><g class="traces" transform="translate(0,30.1)" style="opacity: 1;"><text class="legendtext" text-anchor="start" x="40" y="4.680000000000001" style="font-family: 'Open Sans', verdana, arial, sans-serif; font-size: 12px; fill: rgb(42, 63, 95); fill-opacity: 1; white-space: pre;">All</text><g class="layers" style="opacity: 1;"><g class="legendfill"/><g class="legendlines"><path class="js-line" d="M5,0h30" style="fill: none; stroke: rgb(99, 110, 250); stroke-opacity: 1; stroke-width: 2px;"/></g><g class="legendsymbols"><g class="legendpoints"/></g></g><rect class="legendtoggle" x="0" y="-9.5" width="54.890625" height="19" style="fill: rgb(0, 0, 0); fill-opacity: 0;"/></g></g></g><rect class="scrollbar" rx="20" ry="3" width="0" height="0" x="0" y="0" style="fill: rgb(128, 139, 164); fill-opacity: 1;"/></g><g class="g-gtitle"><text class="gtitle" x="35" y="50" text-anchor="start" dy="0em" style="font-family: 'Open Sans', verdana, arial, sans-serif; font-size: 17px; fill: rgb(42, 63, 95); opacity: 1; font-weight: normal; white-space: pre;">Singapore Vaccination Centers</text></g><g class="g-xtitle"><text class="xtitle" x="348.5" y="476.409375" text-anchor="middle" style="font-family: 'Open Sans', verdana, arial, sans-serif; font-size: 14px; fill: rgb(42, 63, 95); opacity: 1; font-weight: normal; white-space: pre;">Time</text></g><g class="g-ytitle"><text class="ytitle" transform="rotate(-90,19.840625000000003,260)" x="19.840625000000003" y="260" text-anchor="middle" style="font-family: 'Open Sans', verdana, arial, sans-serif; font-size: 14px; fill: rgb(42, 63, 95); opacity: 1; font-weight: normal; white-space: pre;">Filled/%</text></g></g></svg>