<svg class="main-svg" xmlns="http://www.w3.org/2000/svg" xmlns:xlink="http://www.w3.org/1999/xlink" width="700" height="500" style="" viewBox="0 0 700 500"><rect x="0" y="0" width="700" height="500" style="fill: rgb(255, 255, 255); fill-opacity: 1;"/><defs id="defs-edf3aa"><g class="clips"><clipPath id="clipedf3aaxyplot" class="plotclip"><rect width="537" height="320"/></clipPath><clipPath class="axesclip" id="clipedf3aax"><rect x="80" y="0" width="537" height="500"/></clipPath><clipPath class="axesclip" id="clipedf3aay"><rect x="0" y="100" width="700" height="320"/></clipPath><clipPath class="axesclip" id="clipedf3aaxy"><rect x="80" y="100" width="537" height="320"/></clipPath></g><g class="gradients"/></defs><g class="bglayer"><rect class="bg" x="80" y="100" width="537" height="320" style="fill: rgb(229, 236, 246); fill-opacity: 1; stroke-width: 0;"/></g><g class="layer-below"><g class="imagelayer"/><g class="shapelayer"/></g><g class="cartesianlayer"><g class="subplot xy"><g class="layer-subplot"><g class="shapelayer"/><g class="imagelayer"/></g><g class="gridlayer"><g class="x"><path class="xgrid crisp" transform="translate(91.25,0)" d="M0,100v320" style="stroke: rgb(255, 255, 255); stroke-opacity: 1; stroke-width: 1px;"/><path class="xgrid crisp" transform="translate(212.37,0)" d="M0,100v320" style="stroke: rgb(255, 255, 255); stroke-opacity: 1; stroke-width: 1px;"/><path class="xgrid crisp" transform="translate(333.49,0)" d="M0,100v320" style="stroke: rgb(255, 255, 255); stroke-opacity: 1; stroke-width: 1px;"/><path class="xgrid crisp" transform="translate(454.61,0)" d="M0,100v320" style="stroke: rgb(255, 255, 255); stroke-opacity: 1; stroke-width: 1px;"/><path class="xgrid crisp" transform="translate(575.73,0)" d="M0,100v320" style="stroke: rgb(255, 255, 255); stroke-opacity: 1; stroke-width: 1px;"/></g><g class="y"><path class="ygrid crisp" transform="translate(0,367.23)" d="M80,0h537" style="stroke: rgb(255, 255, 255); stroke-opacity: 1; stroke-width: 1px;"/><path class="ygrid crisp" transform="translate(0,308.43)" d="M80,0h537" style="stroke: rgb(255, 255, 255); stroke-opacity: 1; stroke-width: 1px;"/><path class="ygrid crisp" transform="translate(0,249.63)" d="M80,0h537" style="stroke: rgb(255, 255, 255); stroke-opacity: 1; stroke-width: 1px;"/><path class="ygrid crisp" transform="translate(0,190.82999999999998)" d="M80,0h537" style="stroke: rgb(255, 255, 255); stroke-opacity: 1; stroke-width: 1px;"/><path class="ygrid crisp" transform="translate(0,132.03)" d="M80,0h537" style="stroke: rgb(255, 255, 255); stroke-opacity: 1; stroke-width: 1px;"/></g></g><g class="zerolinelayer"/><path class="xlines-below"/><path class="ylines-below"/><g class="overlines-below"/><g class="xaxislayer-below"/><g class="yaxislayer-below"/><g class="overaxes-below"/><g class="plot" transform="translate(80,100)" clip-path="url('#clipedf3aaxyplot')"><g class="scatterlayer mlayer"><g class="trace scatter tracee51dcf" style="stroke-miterlimit: 2; opacity: 1;"><g class="fills"/><g class="errorbars"/><g class="lines"><path class="js-line" d="M0,82.28L7.1,82.51L9.62,120.48L14.64,120.57L16.5,136.92L17.29,136.9L35.87,137.96L37.02,121.23L37.37,129.62L38.22,129.56L39.9,126.37L40.74,126.27L42.42,129.79L43.26,129.7L44.94,132.71L45.78,132.63L47.47,120.69L48.31,120.62L49.99,132.64L50.83,132.55L52.51,126.68L53.35,123.32L55.04,113.21L55.88,109.51L57.56,94.58L58.4,92.89L60.08,74.17L60.92,72.87L62.61,78.78L63.45,77.73L65.13,63.68L65.97,62.82L67.65,65.47L68.49,64.83L70.18,74.27L71.02,73.83L72.13,51.83L72.7,52.53L73.54,52.34L81.95,51.79L82.79,51.79L95.41,50.91L96.25,50.65L125.69,42.03L126.53,41.83L131.58,40.95L132.42,41.79L147.56,41.46L148.4,41.46L161.86,40.58L162.7,40.48L188.77,37.17L189.61,37.08L192.14,36.83L192.98,35.53L225.78,34L226.62,33.87L252.7,31.05L253.55,28.56L282.14,27.81L282.98,95.38L292.26,93.57L293.08,93.44L293.92,93.12L294.76,91.51L297.28,88.51L298.12,87.52L302.33,73.59L303.17,72.39L308.22,67.88L309.06,67.37L313.26,65.43L314.11,65.5L319.99,64.8L320.84,64.77L339.34,63.66L340.18,63.48L346.07,61.32L346.91,60.89L347.75,60.46L348.59,62.78L351.95,61.15L352.8,59.94L357,54.01L357.84,53.24L361.21,49.13L362.05,47.98L365.41,39.84L366.25,38.66L371.3,33.5L372.14,32.89L375.51,31.98L376.35,31.8L383.08,31.18L383.92,31.16L396.53,30.17L397.37,29.9L402.42,28.09L403.26,74.81L404.95,73.22L405.79,72.76L414.2,69.16L415.04,68.8L415.69,71.93L415.88,68.39L416.68,68.25L416.72,69.25L417.52,67.95L417.57,68.94L418.4,68.62L420.09,68.09L420.93,76.43L428.29,73.91L428.33,72.31L428.37,72.03L428.5,73.74L436.49,44.74L436.91,44.87L437.33,41.95L438.17,42.12L438.59,43.2L439.85,37.43L440.28,41.6L441.53,39.66L441.96,39.05L443.22,38.13L443.64,38.96L444.06,38.26L444.48,38.53L444.9,38.42L446.16,38.4L446.58,43.02L451.21,41.69L451.63,36.5L452.47,35.76L452.89,35.39L454.15,33.79L454.57,33.41L457.94,22.43L458.36,16L458.78,16.8L459.2,140.18L459.62,139.22L460.04,142.07L460.88,136.79L461.3,138.99L462.15,136.15L462.56,136.63L462.98,141.25L463.4,146.68L463.83,133.42L464.67,138.09L465.09,157.2L466.35,133.53L466.77,145.44L467.19,148.42L467.61,146.68L468.03,144.02L468.87,134.36L469.29,135.71L470.13,146.05L470.55,142.1L470.97,141.74L471.39,151.77L472.23,140.84L472.65,148.68L473.5,127.07L473.92,137.58L474.76,140.49L475.18,138.92L476.02,130.34L476.44,131.67L476.86,129.31L477.28,138.25L477.7,134.05L478.12,138.68L478.54,138.81L478.96,131.49L479.39,131.42L479.81,140.05L480.65,132.48L481.07,138.41L481.91,141.46L482.33,128.79L483.17,142.96L483.59,264.58L484.43,292.55L484.85,293.12L485.27,304L485.7,286.22L486.12,301.52L486.54,291.75L486.96,292.1L487.38,291.07L487.8,294.16L488.22,293.46L488.64,276.02L489.06,283.67L489.48,262.28L490.32,272.54L490.74,248.89L491.58,241.71L492,229.6L492.42,224.98L492.84,228.24L493.26,227.36L494.53,215.22L494.95,217.06L495.37,216.4L495.79,227.08L496.21,226.08L496.63,228.38L497.05,228.68L497.47,224.72L497.89,233.57L498.31,224.28L499.15,227.75L499.57,223.07L500.41,226.33L500.84,223.26L501.25,224.52L501.68,234.01L502.1,220.81L502.52,231.91L503.78,220.15L504.2,220.86L505.46,212.72L505.88,220.76L506.72,220.72L507.14,223.7L507.56,223.67L507.98,219.37L508.41,223.08L508.82,218.62L509.24,226.76L509.67,225.2L510.09,224.19L510.51,219.51L510.93,225.16L512.19,225.11L512.61,216.49L513.03,225.05L513.45,220.43L513.87,220.57L514.29,218.19L514.71,220.92L515.14,219.84L515.55,227.36L515.97,216.65L516.39,220.1L516.82,220.01L517.66,220.98L518.08,218.78L518.92,223.64L519.34,218.66L519.76,205.85L520.18,215.25L520.6,220.32L521.02,206.18L521.44,206.81L521.86,214.16L522.28,214.11L522.7,206.99L523.55,212.47L523.97,202.23L524.39,199.24L524.81,208.71L525.23,224.84L525.65,215.2L526.07,214.49L526.49,205.74L526.91,219.6L527.75,195.82L528.17,209.77L528.59,208.24L529.01,203.32L529.43,202.05L529.85,205.17L530.27,200.81L530.69,208.16L531.11,206.35L531.53,209.96L531.95,207.44L532.37,196.45L532.79,195.36L533.22,196.45L534.06,209.39L534.48,202.33L534.9,210.92L535.32,197.09L535.74,197.31L536.16,191.05L536.58,191.24L537,196.07" style="vector-effect: non-scaling-stroke; fill: none; stroke: rgb(99, 110, 250); stroke-opacity: 1; stroke-width: 2px; opacity: 1;"/></g><g class="points"/><g class="text"/></g></g></g><g class="overplot"/><path class="xlines-above crisp" d="M0,0" style="fill: none;"/><path class="ylines-above crisp" d="M0,0" style="fill: none;"/><g class="overlines-above"/><g class="xaxislayer-above"><g class="xtick"><text text-anchor="middle" x="0" y="433" transform="translate(91.25,0)" style="font-family: 'Open Sans', verdana, arial, sans-serif; font-size: 12px; fill: rgb(42, 63, 95); fill-opacity: 1; white-space: pre;"><tspan class="line" dy="0em" x="0" y="433">Jun 4</tspan><tspan class="line" dy="1.3em" x="0" y="433">2021</tspan></text></g><g class="xtick"><text text-anchor="middle" x="0" y="433" transform="translate(212.37,0)" style="font-family: 'Open Sans', verdana, arial, sans-serif; font-size: 12px; fill: rgb(42, 63, 95); fill-opacity: 1; white-space: pre;">Jun 6</text></g><g class="xtick"><text text-anchor="middle" x="0" y="433" transform="translate(333.49,0)" style="font-family: 'Open Sans', verdana, arial, sans-serif; font-size: 12px; fill: rgb(42, 63, 95); fill-opacity: 1; white-space: pre;">Jun 8</text></g><g class="xtick"><text text-anchor="middle" x="0" y="433" transform="translate(454.61,0)" style="font-family: 'Open Sans', verdana, arial, sans-serif; font-size: 12px; fill: rgb(42, 63, 95); fill-opacity: 1; white-space: pre;">Jun 10</text></g><g class="xtick"><text text-anchor="middle" x="0" y="433" transform="translate(575.73,0)" style="font-family: 'Open Sans', verdana, arial, sans-serif; font-size: 12px; fill: rgb(42, 63, 95); fill-opacity: 1; white-space: pre;">Jun 12</text></g></g><g class="yaxislayer-above"><g class="ytick"><text text-anchor="end" x="79" y="4.199999999999999" transform="translate(0,367.23)" style="font-family: 'Open Sans', verdana, arial, sans-serif; font-size: 12px; fill: rgb(42, 63, 95); fill-opacity: 1; white-space: pre;">0.8</text></g><g class="ytick"><text text-anchor="end" x="79" y="4.199999999999999" transform="translate(0,308.43)" style="font-family: 'Open Sans', verdana, arial, sans-serif; font-size: 12px; fill: rgb(42, 63, 95); fill-opacity: 1; white-space: pre;">0.82</text></g><g class="ytick"><text text-anchor="end" x="79" y="4.199999999999999" transform="translate(0,249.63)" style="font-family: 'Open Sans', verdana, arial, sans-serif; font-size: 12px; fill: rgb(42, 63, 95); fill-opacity: 1; white-space: pre;">0.84</text></g><g class="ytick"><text text-anchor="end" x="79" y="4.199999999999999" transform="translate(0,190.82999999999998)" style="font-family: 'Open Sans', verdana, arial, sans-serif; font-size: 12px; fill: rgb(42, 63, 95); fill-opacity: 1; white-space: pre;">0.86</text></g><g class="ytick"><text text-anchor="end" x="79" y="4.199999999999999" transform="translate(0,132.03)" style="font-family: 'Open Sans', verdana, arial, sans-serif; font-size: 12px; fill: rgb(42, 63, 95); fill-opacity: 1; white-space: pre;">0.88</text></g></g><g class="overaxes-above"/></g></g><g class="polarlayer"/><g class="ternarylayer"/><g class="geolayer"/><g class="funnelarealayer"/><g class="pielayer"/><g class="treemaplayer"/><g class="sunburstlayer"/><g class="glimages"/><defs id="topdefs-edf3aa"><g class="clips"/><clipPath id="legendedf3aa"><rect width="60" height="45" x="0" y="0"/></clipPath></defs><g class="layer-above"><g class="imagelayer"/><g class="shapelayer"/></g><g class="infolayer"><g class="legend" pointer-events="all" transform="translate(627.74,100)"><rect class="bg" shape-rendering="crispEdges" width="60" height="45" x="0" y="0" style="stroke: rgb(68, 68, 68); stroke-opacity: 1; fill: rgb(255, 255, 255); fill-opacity: 1; stroke-width: 0px;"/><g class="scrollbox" transform="" clip-path="url('#legendedf3aa')"><text class="legendtitletext" text-anchor="start" x="2" y="15.600000000000001" style="font-family: 'Open Sans', verdana, arial, sans-serif; font-size: 12px; fill: rgb(42, 63, 95); fill-opacity: 1; white-space: pre;">All</text><g class="groups" transform=""><g class="traces" transform="translate(0,30.1)" style="opacity: 1;"><text class="legendtext" text-anchor="start" x="40" y="4.680000000000001" style="font-family: 'Open Sans', verdana, arial, sans-serif; font-size: 12px; fill: rgb(42, 63, 95); fill-opacity: 1; white-space: pre;">All</text><g class="layers" style="opacity: 1;"><g class="legendfill"/><g class="legendlines"><path class="js-line" d="M5,0h30" style="fill: none; stroke: rgb(99, 110, 250); stroke-opacity: 1; stroke-width: 2px;"/></g><g class="legendsymbols"><g class="legendpoints"/></g></g><rect class="legendtoggle" x="0" y="-9.5" width="54.890625" height="19" style="fill: rgb(0, 0, 0); fill-opacity: 0;"/></g></g></g><rect class="scrollbar" rx="20" ry="3" width="0" height="0" x="0" y="0" style="fill: rgb(128, 139, 164); fill-opacity: 1;"/></g><g class="g-gtitle"><text class="gtitle" x="35" y="50" text-anchor="start" dy="0em" style="font-family: 'Open Sans', verdana, arial, sans-serif; font-size: 17px; fill: rgb(42, 63, 95); opacity: 1; font-weight: normal; white-space: pre;">Singapore Vaccination Centers</text></g><g class="g-xtitle"><text class="xtitle" x="348.5" y="476.409375" text-anchor="middle" style="font-family: 'Open Sans', verdana, arial, sans-serif; font-size: 14px; fill: rgb(42, 63, 95); opacity: 1; font-weight: normal; white-space: pre;">Time</text></g><g class="g-ytitle"><text class="ytitle" transform="rotate(-90,27.481250000000003,260)" x="27.481250000000003" y="260" text-anchor="middle" style="font-family: 'Open Sans', verdana, arial, sans-serif; font-size: 14px; fill: rgb(42, 63, 95); opacity: 1; font-weight: normal; white-space: pre;">Filled/%</text></g></g></svg>