<svg class="main-svg" xmlns="http://www.w3.org/2000/svg" xmlns:xlink="http://www.w3.org/1999/xlink" width="700" height="500" style="" viewBox="0 0 700 500"><rect x="0" y="0" width="700" height="500" style="fill: rgb(255, 255, 255); fill-opacity: 1;"/><defs id="defs-08bf02"><g class="clips"><clipPath id="clip08bf02xyplot" class="plotclip"><rect width="537" height="320"/></clipPath><clipPath class="axesclip" id="clip08bf02x"><rect x="80" y="0" width="537" height="500"/></clipPath><clipPath class="axesclip" id="clip08bf02y"><rect x="0" y="100" width="700" height="320"/></clipPath><clipPath class="axesclip" id="clip08bf02xy"><rect x="80" y="100" width="537" height="320"/></clipPath></g><g class="gradients"/></defs><g class="bglayer"><rect class="bg" x="80" y="100" width="537" height="320" style="fill: rgb(229, 236, 246); fill-opacity: 1; stroke-width: 0;"/></g><g class="layer-below"><g class="imagelayer"/><g class="shapelayer"/></g><g class="cartesianlayer"><g class="subplot xy"><g class="layer-subplot"><g class="shapelayer"/><g class="imagelayer"/></g><g class="gridlayer"><g class="x"><path class="xgrid crisp" transform="translate(91.55,0)" d="M0,100v320" style="stroke: rgb(255, 255, 255); stroke-opacity: 1; stroke-width: 1px;"/><path class="xgrid crisp" transform="translate(215.88,0)" d="M0,100v320" style="stroke: rgb(255, 255, 255); stroke-opacity: 1; stroke-width: 1px;"/><path class="xgrid crisp" transform="translate(340.21,0)" d="M0,100v320" style="stroke: rgb(255, 255, 255); stroke-opacity: 1; stroke-width: 1px;"/><path class="xgrid crisp" transform="translate(464.55,0)" d="M0,100v320" style="stroke: rgb(255, 255, 255); stroke-opacity: 1; stroke-width: 1px;"/><path class="xgrid crisp" transform="translate(588.88,0)" d="M0,100v320" style="stroke: rgb(255, 255, 255); stroke-opacity: 1; stroke-width: 1px;"/></g><g class="y"><path class="ygrid crisp" transform="translate(0,367.23)" d="M80,0h537" style="stroke: rgb(255, 255, 255); stroke-opacity: 1; stroke-width: 1px;"/><path class="ygrid crisp" transform="translate(0,308.43)" d="M80,0h537" style="stroke: rgb(255, 255, 255); stroke-opacity: 1; stroke-width: 1px;"/><path class="ygrid crisp" transform="translate(0,249.63)" d="M80,0h537" style="stroke: rgb(255, 255, 255); stroke-opacity: 1; stroke-width: 1px;"/><path class="ygrid crisp" transform="translate(0,190.82999999999998)" d="M80,0h537" style="stroke: rgb(255, 255, 255); stroke-opacity: 1; stroke-width: 1px;"/><path class="ygrid crisp" transform="translate(0,132.03)" d="M80,0h537" style="stroke: rgb(255, 255, 255); stroke-opacity: 1; stroke-width: 1px;"/></g></g><g class="zerolinelayer"/><path class="xlines-below"/><path class="ylines-below"/><g class="overlines-below"/><g class="xaxislayer-below"/><g class="yaxislayer-below"/><g class="overaxes-below"/><g class="plot" transform="translate(80,100)" clip-path="url('#clip08bf02xyplot')"><g class="scatterlayer mlayer"><g class="trace scatter trace133482" style="stroke-miterlimit: 2; opacity: 1;"><g class="fills"/><g class="errorbars"/><g class="lines"><path class="js-line" d="M0,82.28L7.29,82.51L9.88,120.48L15.03,120.57L16.94,136.92L17.75,136.9L36.82,137.96L38,121.23L38.36,129.62L39.23,129.56L40.95,126.37L41.82,126.27L43.54,129.79L44.41,129.7L46.14,132.71L47,132.63L48.73,120.69L49.59,120.62L51.32,132.64L52.18,132.55L53.91,126.68L54.77,123.32L56.5,113.21L57.36,109.51L59.09,94.58L59.95,92.89L61.68,74.17L62.54,72.87L64.27,78.78L65.13,77.73L66.86,63.68L67.72,62.82L69.45,65.47L70.31,64.83L72.04,74.27L72.9,73.83L74.04,51.83L74.63,52.53L75.49,52.34L84.13,51.79L84.99,51.79L97.94,50.91L98.8,50.65L129.02,42.03L129.89,41.83L135.07,40.95L135.93,41.79L151.47,41.46L152.34,41.46L166.15,40.58L167.01,40.48L194.64,37.08L195.51,36.99L197.23,36.83L198.1,35.53L231.77,34L232.64,33.87L259.41,31.05L260.27,28.56L289.63,27.81L290.49,95.38L300.02,93.57L300.85,93.44L301.72,93.12L302.58,91.51L305.17,88.51L306.03,87.52L309.49,74.89L310.35,73.59L313.8,69.79L314.67,69.11L319.85,66.07L320.71,65.71L325.03,65.01L325.89,64.93L349.2,63.48L350.07,63.27L355.25,61.32L356.11,60.89L356.97,60.46L357.84,62.78L361.29,61.15L362.16,59.94L366.47,54.01L367.34,53.24L370.79,49.13L371.65,47.98L375.11,39.84L375.97,38.66L381.15,33.5L382.01,32.89L385.47,31.98L386.33,31.8L393.24,31.18L394.1,31.16L407.05,30.17L407.92,29.9L413.1,28.09L413.96,74.81L415.69,73.22L416.55,72.76L425.19,69.16L426.05,68.8L426.71,71.93L426.92,68.39L427.74,68.25L427.78,69.25L428.6,67.95L428.64,68.94L429.5,68.62L431.23,68.09L432.1,76.43L439.65,73.91L439.69,72.31L439.73,72.03L439.87,73.74L448.07,44.74L448.5,44.87L448.93,41.95L449.79,42.12L450.23,43.2L451.52,37.43L451.96,41.6L453.25,39.66L453.68,39.05L454.98,38.13L455.41,38.96L455.84,38.26L456.27,38.53L456.7,38.42L458,38.4L458.43,43.02L463.18,41.69L463.61,36.5L464.47,35.76L464.9,35.39L466.2,33.79L466.63,33.41L470.08,22.43L470.52,16L470.95,16.8L471.38,140.18L471.81,139.22L472.24,142.07L473.11,136.79L473.54,138.99L474.41,136.15L474.84,136.63L475.27,141.25L475.7,146.68L476.13,133.42L476.99,138.09L477.42,157.2L478.72,133.53L479.15,145.44L479.58,148.42L480.01,146.68L480.45,144.02L481.31,134.36L481.74,135.71L482.6,146.05L483.04,142.1L483.47,141.74L483.9,151.77L484.76,140.84L485.19,148.68L486.06,127.07L486.49,137.58L487.35,140.49L487.78,138.92L488.65,130.34L489.08,131.67L489.51,129.31L489.94,138.25L490.38,134.05L490.81,138.68L491.24,138.81L491.67,131.49L492.1,131.42L492.53,140.05L493.4,132.48L493.83,138.41L494.69,141.46L495.12,128.79L495.99,142.96L496.42,264.58L497.29,292.55L497.72,293.12L498.15,304L498.58,286.22L499.01,301.52L499.44,291.75L499.87,292.1L500.31,291.07L500.74,294.16L501.17,293.46L501.6,276.02L502.03,283.67L502.46,262.28L503.33,272.54L503.76,248.89L504.62,241.71L505.05,229.6L505.49,224.98L505.92,228.24L506.35,227.36L507.64,215.22L508.08,217.06L508.51,216.4L508.94,227.08L509.37,226.08L509.8,228.38L510.24,228.68L510.67,224.72L511.1,233.57L511.53,224.28L512.39,227.75L512.83,223.07L513.69,226.33L514.12,223.26L514.55,224.52L514.99,234.01L515.42,220.81L515.85,231.91L517.14,220.15L517.57,220.86L518.87,212.72L519.3,220.76L520.17,220.72L520.6,223.7L521.03,223.67L521.46,219.37L521.89,223.08L522.32,218.62L522.75,226.76L523.19,225.2L523.62,224.19L524.05,219.51L524.48,225.16L525.78,225.11L526.21,216.49L526.64,225.05L527.07,220.43L527.5,220.57L527.93,218.19L528.37,220.92L528.8,219.84L529.23,227.36L529.66,216.65L530.09,220.1L530.53,220.01L531.39,220.98L531.82,218.78L532.68,223.64L533.11,218.66L533.55,205.85L533.98,215.25L534.41,220.32L534.84,206.18L535.27,206.81L535.7,214.16L536.14,214.11L536.57,206.99L537,210.86" style="vector-effect: non-scaling-stroke; fill: none; stroke: rgb(99, 110, 250); stroke-opacity: 1; stroke-width: 2px; opacity: 1;"/></g><g class="points"/><g class="text"/></g></g></g><g class="overplot"/><path class="xlines-above crisp" d="M0,0" style="fill: none;"/><path class="ylines-above crisp" d="M0,0" style="fill: none;"/><g class="overlines-above"/><g class="xaxislayer-above"><g class="xtick"><text text-anchor="middle" x="0" y="433" transform="translate(91.55,0)" style="font-family: 'Open Sans', verdana, arial, sans-serif; font-size: 12px; fill: rgb(42, 63, 95); fill-opacity: 1; white-space: pre;"><tspan class="line" dy="0em" x="0" y="433">Jun 4</tspan><tspan class="line" dy="1.3em" x="0" y="433">2021</tspan></text></g><g class="xtick"><text text-anchor="middle" x="0" y="433" transform="translate(215.88,0)" style="font-family: 'Open Sans', verdana, arial, sans-serif; font-size: 12px; fill: rgb(42, 63, 95); fill-opacity: 1; white-space: pre;">Jun 6</text></g><g class="xtick"><text text-anchor="middle" x="0" y="433" transform="translate(340.21,0)" style="font-family: 'Open Sans', verdana, arial, sans-serif; font-size: 12px; fill: rgb(42, 63, 95); fill-opacity: 1; white-space: pre;">Jun 8</text></g><g class="xtick"><text text-anchor="middle" x="0" y="433" transform="translate(464.55,0)" style="font-family: 'Open Sans', verdana, arial, sans-serif; font-size: 12px; fill: rgb(42, 63, 95); fill-opacity: 1; white-space: pre;">Jun 10</text></g><g class="xtick"><text text-anchor="middle" x="0" y="433" transform="translate(588.88,0)" style="font-family: 'Open Sans', verdana, arial, sans-serif; font-size: 12px; fill: rgb(42, 63, 95); fill-opacity: 1; white-space: pre;">Jun 12</text></g></g><g class="yaxislayer-above"><g class="ytick"><text text-anchor="end" x="79" y="4.199999999999999" transform="translate(0,367.23)" style="font-family: 'Open Sans', verdana, arial, sans-serif; font-size: 12px; fill: rgb(42, 63, 95); fill-opacity: 1; white-space: pre;">0.8</text></g><g class="ytick"><text text-anchor="end" x="79" y="4.199999999999999" transform="translate(0,308.43)" style="font-family: 'Open Sans', verdana, arial, sans-serif; font-size: 12px; fill: rgb(42, 63, 95); fill-opacity: 1; white-space: pre;">0.82</text></g><g class="ytick"><text text-anchor="end" x="79" y="4.199999999999999" transform="translate(0,249.63)" style="font-family: 'Open Sans', verdana, arial, sans-serif; font-size: 12px; fill: rgb(42, 63, 95); fill-opacity: 1; white-space: pre;">0.84</text></g><g class="ytick"><text text-anchor="end" x="79" y="4.199999999999999" transform="translate(0,190.82999999999998)" style="font-family: 'Open Sans', verdana, arial, sans-serif; font-size: 12px; fill: rgb(42, 63, 95); fill-opacity: 1; white-space: pre;">0.86</text></g><g class="ytick"><text text-anchor="end" x="79" y="4.199999999999999" transform="translate(0,132.03)" style="font-family: 'Open Sans', verdana, arial, sans-serif; font-size: 12px; fill: rgb(42, 63, 95); fill-opacity: 1; white-space: pre;">0.88</text></g></g><g class="overaxes-above"/></g></g><g class="polarlayer"/><g class="ternarylayer"/><g class="geolayer"/><g class="funnelarealayer"/><g class="pielayer"/><g class="treemaplayer"/><g class="sunburstlayer"/><g class="glimages"/><defs id="topdefs-08bf02"><g class="clips"/><clipPath id="legend08bf02"><rect width="60" height="45" x="0" y="0"/></clipPath></defs><g class="layer-above"><g class="imagelayer"/><g class="shapelayer"/></g><g class="infolayer"><g class="legend" pointer-events="all" transform="translate(627.74,100)"><rect class="bg" shape-rendering="crispEdges" width="60" height="45" x="0" y="0" style="stroke: rgb(68, 68, 68); stroke-opacity: 1; fill: rgb(255, 255, 255); fill-opacity: 1; stroke-width: 0px;"/><g class="scrollbox" transform="" clip-path="url('#legend08bf02')"><text class="legendtitletext" text-anchor="start" x="2" y="15.600000000000001" style="font-family: 'Open Sans', verdana, arial, sans-serif; font-size: 12px; fill: rgb(42, 63, 95); fill-opacity: 1; white-space: pre;">All</text><g class="groups" transform=""><g class="traces" transform="translate(0,30.1)" style="opacity: 1;"><text class="legendtext" text-anchor="start" x="40" y="4.680000000000001" style="font-family: 'Open Sans', verdana, arial, sans-serif; font-size: 12px; fill: rgb(42, 63, 95); fill-opacity: 1; white-space: pre;">All</text><g class="layers" style="opacity: 1;"><g class="legendfill"/><g class="legendlines"><path class="js-line" d="M5,0h30" style="fill: none; stroke: rgb(99, 110, 250); stroke-opacity: 1; stroke-width: 2px;"/></g><g class="legendsymbols"><g class="legendpoints"/></g></g><rect class="legendtoggle" x="0" y="-9.5" width="54.890625" height="19" style="fill: rgb(0, 0, 0); fill-opacity: 0;"/></g></g></g><rect class="scrollbar" rx="20" ry="3" width="0" height="0" x="0" y="0" style="fill: rgb(128, 139, 164); fill-opacity: 1;"/></g><g class="g-gtitle"><text class="gtitle" x="35" y="50" text-anchor="start" dy="0em" style="font-family: 'Open Sans', verdana, arial, sans-serif; font-size: 17px; fill: rgb(42, 63, 95); opacity: 1; font-weight: normal; white-space: pre;">Singapore Vaccination Centers</text></g><g class="g-xtitle"><text class="xtitle" x="348.5" y="476.409375" text-anchor="middle" style="font-family: 'Open Sans', verdana, arial, sans-serif; font-size: 14px; fill: rgb(42, 63, 95); opacity: 1; font-weight: normal; white-space: pre;">Time</text></g><g class="g-ytitle"><text class="ytitle" transform="rotate(-90,27.481250000000003,260)" x="27.481250000000003" y="260" text-anchor="middle" style="font-family: 'Open Sans', verdana, arial, sans-serif; font-size: 14px; fill: rgb(42, 63, 95); opacity: 1; font-weight: normal; white-space: pre;">Filled/%</text></g></g></svg>