<svg class="main-svg" xmlns="http://www.w3.org/2000/svg" xmlns:xlink="http://www.w3.org/1999/xlink" width="700" height="500" style="" viewBox="0 0 700 500"><rect x="0" y="0" width="700" height="500" style="fill: rgb(255, 255, 255); fill-opacity: 1;"/><defs id="defs-ba065b"><g class="clips"><clipPath id="clipba065bxyplot" class="plotclip"><rect width="537" height="320"/></clipPath><clipPath class="axesclip" id="clipba065bx"><rect x="80" y="0" width="537" height="500"/></clipPath><clipPath class="axesclip" id="clipba065by"><rect x="0" y="100" width="700" height="320"/></clipPath><clipPath class="axesclip" id="clipba065bxy"><rect x="80" y="100" width="537" height="320"/></clipPath></g><g class="gradients"/></defs><g class="bglayer"><rect class="bg" x="80" y="100" width="537" height="320" style="fill: rgb(229, 236, 246); fill-opacity: 1; stroke-width: 0;"/></g><g class="layer-below"><g class="imagelayer"/><g class="shapelayer"/></g><g class="cartesianlayer"><g class="subplot xy"><g class="layer-subplot"><g class="shapelayer"/><g class="imagelayer"/></g><g class="gridlayer"><g class="x"><path class="xgrid crisp" transform="translate(87.33,0)" d="M0,100v320" style="stroke: rgb(255, 255, 255); stroke-opacity: 1; stroke-width: 1px;"/><path class="xgrid crisp" transform="translate(157.91,0)" d="M0,100v320" style="stroke: rgb(255, 255, 255); stroke-opacity: 1; stroke-width: 1px;"/><path class="xgrid crisp" transform="translate(228.49,0)" d="M0,100v320" style="stroke: rgb(255, 255, 255); stroke-opacity: 1; stroke-width: 1px;"/><path class="xgrid crisp" transform="translate(299.07,0)" d="M0,100v320" style="stroke: rgb(255, 255, 255); stroke-opacity: 1; stroke-width: 1px;"/><path class="xgrid crisp" transform="translate(369.66,0)" d="M0,100v320" style="stroke: rgb(255, 255, 255); stroke-opacity: 1; stroke-width: 1px;"/><path class="xgrid crisp" transform="translate(440.24,0)" d="M0,100v320" style="stroke: rgb(255, 255, 255); stroke-opacity: 1; stroke-width: 1px;"/><path class="xgrid crisp" transform="translate(510.82,0)" d="M0,100v320" style="stroke: rgb(255, 255, 255); stroke-opacity: 1; stroke-width: 1px;"/><path class="xgrid crisp" transform="translate(581.4,0)" d="M0,100v320" style="stroke: rgb(255, 255, 255); stroke-opacity: 1; stroke-width: 1px;"/></g><g class="y"><path class="ygrid crisp" transform="translate(0,386.95)" d="M80,0h537" style="stroke: rgb(255, 255, 255); stroke-opacity: 1; stroke-width: 1px;"/><path class="ygrid crisp" transform="translate(0,323.25)" d="M80,0h537" style="stroke: rgb(255, 255, 255); stroke-opacity: 1; stroke-width: 1px;"/><path class="ygrid crisp" transform="translate(0,259.56)" d="M80,0h537" style="stroke: rgb(255, 255, 255); stroke-opacity: 1; stroke-width: 1px;"/><path class="ygrid crisp" transform="translate(0,195.86)" d="M80,0h537" style="stroke: rgb(255, 255, 255); stroke-opacity: 1; stroke-width: 1px;"/><path class="ygrid crisp" transform="translate(0,132.17000000000002)" d="M80,0h537" style="stroke: rgb(255, 255, 255); stroke-opacity: 1; stroke-width: 1px;"/></g></g><g class="zerolinelayer"/><path class="xlines-below"/><path class="ylines-below"/><g class="overlines-below"/><g class="xaxislayer-below"/><g class="yaxislayer-below"/><g class="overaxes-below"/><g class="plot" transform="translate(80,100)" clip-path="url('#clipba065bxyplot')"><g class="scatterlayer mlayer"><g class="trace scatter tracea1047d" style="stroke-miterlimit: 2; opacity: 1;"><g class="fills"/><g class="errorbars"/><g class="lines"><path class="js-line" d="M0,304L1.73,303.43L3.69,301.9L5.65,301.9L7.62,223.22L9.58,225.14L11.54,222.64L17.42,222.25L19.37,221.68L21.33,221.1L23.29,221.68L25.26,222.25L27.22,220.9L29.23,221.87L31.14,221.48L33.1,220.9L35.06,221.29L38.98,220.13L40.95,220.52L44.87,219.36L46.83,219.36L50.74,219.36L52.7,219.36L56.63,219.56L58.59,218.98L66.42,218.59L68.39,218.79L70.34,218.79L72.31,218.02L80.16,217.44L82.12,216.48L86.03,216.28L87.99,215.32L89.96,216.09L91.92,215.51L93.87,214.16L95.84,214.55L97.8,215.51L99.76,213.2L103.68,212.05L105.63,211.85L107.6,212.62L109.56,212.05L111.52,213.39L113.48,212.05L115.45,208.96L117.4,209.73L119.36,209.73L121.32,208.39L123.29,207.62L125.25,207.81L131.13,204.15L133.09,205.69L135.04,206.07L137.01,204.34L138.96,201.26L140.93,202.03L142.89,203.57L144.84,201.26L146.81,198.76L148.77,197.79L152.69,195.87L154.66,194.71L156.62,195.48L158.57,194.33L160.53,193.75L162.5,194.13L164.46,196.45L166.41,193.17L168.38,193.75L170.34,193.36L172.31,194.71L174.27,194.13L178.19,188.55L180.15,187.97L182.11,189.13L184.07,187.2L186.03,187.39L187.98,189.9L189.95,189.51L191.91,187.2L193.87,185.85L195.84,183.54L197.8,182.58L199.75,180.65L201.71,176.61L203.68,177.57L207.6,173.91L209.55,175.07L213.47,175.45L215.43,176.99L223.29,173.72L225.24,173.53L229.16,172.56L231.13,171.02L233.08,170.44L235.05,171.22L237.01,172.95L238.96,172.95L240.92,170.64L242.89,169.67L252.69,167.36L254.65,166.21L260.53,167.36L262.48,166.79L266.42,166.4L268.38,166.79L272.29,164.67L274.26,162.36L276.21,160.62L278.18,160.62L280.14,159.47L282.1,160.81L284.05,161.01L286.01,160.24L287.98,161.01L289.94,63.19L295.82,60.09L297.79,60.48L301.71,59.7L303.67,58.34L305.63,57.95L307.59,58.53L311.51,58.53L313.47,57.76L319.34,57.37L321.31,56.79L327.19,56.79L329.16,56.79L337,55.81L338.97,56.4L348.76,56.98L350.73,56.79L360.52,56.59L362.48,55.62L368.36,55.62L370.32,54.07L376.2,55.04L378.15,54.26L380.13,53.48L382.08,53.87L384.04,53.68L386,52.71L389.93,51.74L391.88,52.71L397.77,48.24L399.72,48.24L401.69,49.79L403.64,49.21L407.57,47.27L409.53,48.24L413.46,45.13L415.41,45.13L417.37,42.61L419.33,45.13L427.17,40.67L429.14,42.02L433.06,39.69L435.02,41.44L436.98,43L438.94,41.64L440.9,43.19L442.86,42.41L444.82,41.05L446.78,42.61L448.74,41.64L450.7,42.22L454.63,43.77L456.58,43.19L460.53,41.44L462.51,39.69L464.45,37.56L466.42,37.17L470.34,38.14L472.3,38.92L474.26,36L476.22,35.62L482.11,34.64L484.07,32.12L489.95,33.67L491.91,32.9L493.87,30.95L495.83,27.65L497.79,29.98L499.76,29.98L501.71,28.24L503.67,29.6L505.63,28.82L507.59,27.07L509.56,26.1L511.52,26.29L517.4,21.63L519.36,21.83L523.29,18.33L525.24,19.5L529.16,16.39L531.12,17.17L535.05,16L537,16.19" style="vector-effect: non-scaling-stroke; fill: none; stroke: rgb(99, 110, 250); stroke-opacity: 1; stroke-width: 2px; opacity: 1;"/></g><g class="points"/><g class="text"/></g></g></g><g class="overplot"/><path class="xlines-above crisp" d="M0,0" style="fill: none;"/><path class="ylines-above crisp" d="M0,0" style="fill: none;"/><g class="overlines-above"/><g class="xaxislayer-above"><g class="xtick"><text text-anchor="middle" x="0" y="433" transform="translate(87.33,0)" style="font-family: 'Open Sans', verdana, arial, sans-serif; font-size: 12px; fill: rgb(42, 63, 95); fill-opacity: 1; white-space: pre;"><tspan class="line" dy="0em" x="0" y="433">00:00</tspan><tspan class="line" dy="1.3em" x="0" y="433">Aug 3, 2021</tspan></text></g><g class="xtick"><text text-anchor="middle" x="0" y="433" transform="translate(157.91,0)" style="font-family: 'Open Sans', verdana, arial, sans-serif; font-size: 12px; fill: rgb(42, 63, 95); fill-opacity: 1; white-space: pre;">06:00</text></g><g class="xtick"><text text-anchor="middle" x="0" y="433" transform="translate(228.49,0)" style="font-family: 'Open Sans', verdana, arial, sans-serif; font-size: 12px; fill: rgb(42, 63, 95); fill-opacity: 1; white-space: pre;">12:00</text></g><g class="xtick"><text text-anchor="middle" x="0" y="433" transform="translate(299.07,0)" style="font-family: 'Open Sans', verdana, arial, sans-serif; font-size: 12px; fill: rgb(42, 63, 95); fill-opacity: 1; white-space: pre;">18:00</text></g><g class="xtick"><text text-anchor="middle" x="0" y="433" transform="translate(369.66,0)" style="font-family: 'Open Sans', verdana, arial, sans-serif; font-size: 12px; fill: rgb(42, 63, 95); fill-opacity: 1; white-space: pre;"><tspan class="line" dy="0em" x="0" y="433">00:00</tspan><tspan class="line" dy="1.3em" x="0" y="433">Aug 4, 2021</tspan></text></g><g class="xtick"><text text-anchor="middle" x="0" y="433" transform="translate(440.24,0)" style="font-family: 'Open Sans', verdana, arial, sans-serif; font-size: 12px; fill: rgb(42, 63, 95); fill-opacity: 1; white-space: pre;">06:00</text></g><g class="xtick"><text text-anchor="middle" x="0" y="433" transform="translate(510.82,0)" style="font-family: 'Open Sans', verdana, arial, sans-serif; font-size: 12px; fill: rgb(42, 63, 95); fill-opacity: 1; white-space: pre;">12:00</text></g><g class="xtick"><text text-anchor="middle" x="0" y="433" transform="translate(581.4,0)" style="font-family: 'Open Sans', verdana, arial, sans-serif; font-size: 12px; fill: rgb(42, 63, 95); fill-opacity: 1; white-space: pre;">18:00</text></g></g><g class="yaxislayer-above"><g class="ytick"><text text-anchor="end" x="79" y="4.199999999999999" transform="translate(0,386.95)" style="font-family: 'Open Sans', verdana, arial, sans-serif; font-size: 12px; fill: rgb(42, 63, 95); fill-opacity: 1; white-space: pre;">0.864</text></g><g class="ytick"><text text-anchor="end" x="79" y="4.199999999999999" transform="translate(0,323.25)" style="font-family: 'Open Sans', verdana, arial, sans-serif; font-size: 12px; fill: rgb(42, 63, 95); fill-opacity: 1; white-space: pre;">0.865</text></g><g class="ytick"><text text-anchor="end" x="79" y="4.199999999999999" transform="translate(0,259.56)" style="font-family: 'Open Sans', verdana, arial, sans-serif; font-size: 12px; fill: rgb(42, 63, 95); fill-opacity: 1; white-space: pre;">0.866</text></g><g class="ytick"><text text-anchor="end" x="79" y="4.199999999999999" transform="translate(0,195.86)" style="font-family: 'Open Sans', verdana, arial, sans-serif; font-size: 12px; fill: rgb(42, 63, 95); fill-opacity: 1; white-space: pre;">0.867</text></g><g class="ytick"><text text-anchor="end" x="79" y="4.199999999999999" transform="translate(0,132.17000000000002)" style="font-family: 'Open Sans', verdana, arial, sans-serif; font-size: 12px; fill: rgb(42, 63, 95); fill-opacity: 1; white-space: pre;">0.868</text></g></g><g class="overaxes-above"/></g></g><g class="polarlayer"/><g class="ternarylayer"/><g class="geolayer"/><g class="funnelarealayer"/><g class="pielayer"/><g class="treemaplayer"/><g class="sunburstlayer"/><g class="glimages"/><defs id="topdefs-ba065b"><g class="clips"/><clipPath id="legendba065b"><rect width="60" height="45" x="0" y="0"/></clipPath></defs><g class="layer-above"><g class="imagelayer"/><g class="shapelayer"/></g><g class="infolayer"><g class="legend" pointer-events="all" transform="translate(627.74,100)"><rect class="bg" shape-rendering="crispEdges" width="60" height="45" x="0" y="0" style="stroke: rgb(68, 68, 68); stroke-opacity: 1; fill: rgb(255, 255, 255); fill-opacity: 1; stroke-width: 0px;"/><g class="scrollbox" transform="" clip-path="url('#legendba065b')"><text class="legendtitletext" text-anchor="start" x="2" y="15.600000000000001" style="font-family: 'Open Sans', verdana, arial, sans-serif; font-size: 12px; fill: rgb(42, 63, 95); fill-opacity: 1; white-space: pre;">All</text><g class="groups" transform=""><g class="traces" transform="translate(0,30.1)" style="opacity: 1;"><text class="legendtext" text-anchor="start" x="40" y="4.680000000000001" style="font-family: 'Open Sans', verdana, arial, sans-serif; font-size: 12px; fill: rgb(42, 63, 95); fill-opacity: 1; white-space: pre;">All</text><g class="layers" style="opacity: 1;"><g class="legendfill"/><g class="legendlines"><path class="js-line" d="M5,0h30" style="fill: none; stroke: rgb(99, 110, 250); stroke-opacity: 1; stroke-width: 2px;"/></g><g class="legendsymbols"><g class="legendpoints"/></g></g><rect class="legendtoggle" x="0" y="-9.5" width="54.890625" height="19" style="fill: rgb(0, 0, 0); fill-opacity: 0;"/></g></g></g><rect class="scrollbar" rx="20" ry="3" width="0" height="0" x="0" y="0" style="fill: rgb(128, 139, 164); fill-opacity: 1;"/></g><g class="g-gtitle"><text class="gtitle" x="35" y="50" text-anchor="start" dy="0em" style="font-family: 'Open Sans', verdana, arial, sans-serif; font-size: 17px; fill: rgb(42, 63, 95); opacity: 1; font-weight: normal; white-space: pre;">Singapore Vaccination Centers</text></g><g class="g-xtitle"><text class="xtitle" x="348.5" y="476.409375" text-anchor="middle" style="font-family: 'Open Sans', verdana, arial, sans-serif; font-size: 14px; fill: rgb(42, 63, 95); opacity: 1; font-weight: normal; white-space: pre;">Time</text></g><g class="g-ytitle"><text class="ytitle" transform="rotate(-90,19.840625000000003,260)" x="19.840625000000003" y="260" text-anchor="middle" style="font-family: 'Open Sans', verdana, arial, sans-serif; font-size: 14px; fill: rgb(42, 63, 95); opacity: 1; font-weight: normal; white-space: pre;">Filled/%</text></g></g></svg>