<svg class="main-svg" xmlns="http://www.w3.org/2000/svg" xmlns:xlink="http://www.w3.org/1999/xlink" width="700" height="500" style="" viewBox="0 0 700 500"><rect x="0" y="0" width="700" height="500" style="fill: rgb(255, 255, 255); fill-opacity: 1;"/><defs id="defs-3fe23e"><g class="clips"><clipPath id="clip3fe23exyplot" class="plotclip"><rect width="537" height="320"/></clipPath><clipPath class="axesclip" id="clip3fe23ex"><rect x="80" y="0" width="537" height="500"/></clipPath><clipPath class="axesclip" id="clip3fe23ey"><rect x="0" y="100" width="700" height="320"/></clipPath><clipPath class="axesclip" id="clip3fe23exy"><rect x="80" y="100" width="537" height="320"/></clipPath></g><g class="gradients"/></defs><g class="bglayer"><rect class="bg" x="80" y="100" width="537" height="320" style="fill: rgb(229, 236, 246); fill-opacity: 1; stroke-width: 0;"/></g><g class="layer-below"><g class="imagelayer"/><g class="shapelayer"/></g><g class="cartesianlayer"><g class="subplot xy"><g class="layer-subplot"><g class="shapelayer"/><g class="imagelayer"/></g><g class="gridlayer"><g class="x"><path class="xgrid crisp" transform="translate(87.12,0)" d="M0,100v320" style="stroke: rgb(255, 255, 255); stroke-opacity: 1; stroke-width: 1px;"/><path class="xgrid crisp" transform="translate(224.27,0)" d="M0,100v320" style="stroke: rgb(255, 255, 255); stroke-opacity: 1; stroke-width: 1px;"/><path class="xgrid crisp" transform="translate(361.43,0)" d="M0,100v320" style="stroke: rgb(255, 255, 255); stroke-opacity: 1; stroke-width: 1px;"/><path class="xgrid crisp" transform="translate(498.58,0)" d="M0,100v320" style="stroke: rgb(255, 255, 255); stroke-opacity: 1; stroke-width: 1px;"/></g><g class="y"><path class="ygrid crisp" transform="translate(0,387.39)" d="M80,0h537" style="stroke: rgb(255, 255, 255); stroke-opacity: 1; stroke-width: 1px;"/><path class="ygrid crisp" transform="translate(0,325.32)" d="M80,0h537" style="stroke: rgb(255, 255, 255); stroke-opacity: 1; stroke-width: 1px;"/><path class="ygrid crisp" transform="translate(0,263.26)" d="M80,0h537" style="stroke: rgb(255, 255, 255); stroke-opacity: 1; stroke-width: 1px;"/><path class="ygrid crisp" transform="translate(0,201.2)" d="M80,0h537" style="stroke: rgb(255, 255, 255); stroke-opacity: 1; stroke-width: 1px;"/><path class="ygrid crisp" transform="translate(0,139.13)" d="M80,0h537" style="stroke: rgb(255, 255, 255); stroke-opacity: 1; stroke-width: 1px;"/></g></g><g class="zerolinelayer"/><path class="xlines-below"/><path class="ylines-below"/><g class="overlines-below"/><g class="xaxislayer-below"/><g class="yaxislayer-below"/><g class="overaxes-below"/><g class="plot" transform="translate(80,100)" clip-path="url('#clip3fe23exyplot')"><g class="scatterlayer mlayer"><g class="trace scatter traced60a10" style="stroke-miterlimit: 2; opacity: 1;"><g class="fills"/><g class="errorbars"/><g class="lines"><path class="js-line" d="M0,304L1.68,303.44L3.59,301.95L5.49,301.95L7.4,225.29L9.3,227.16L11.21,224.72L16.92,224.35L18.82,223.78L20.73,223.22L22.63,223.78L24.54,224.35L26.45,223.03L28.4,223.97L30.26,223.6L32.16,223.03L34.06,223.41L37.87,222.28L39.79,222.66L43.6,221.53L45.5,221.53L49.3,221.53L51.2,221.53L55.02,221.72L56.93,221.16L64.54,220.78L66.45,220.97L70.26,220.22L72.17,220.03L74.07,219.47L75.98,219.84L77.88,219.66L79.79,218.72L83.59,218.53L85.49,217.59L87.41,218.34L89.31,217.78L91.21,216.47L93.12,216.84L95.02,217.78L96.93,215.53L100.74,214.4L102.63,214.21L104.54,214.96L106.45,214.4L108.36,215.72L110.25,214.4L112.17,211.4L114.07,212.15L115.97,212.15L117.88,210.84L119.79,210.09L121.69,210.27L127.41,206.71L129.31,208.21L131.2,208.58L133.12,206.9L135.02,203.89L136.93,204.64L138.83,206.14L140.73,203.89L142.64,201.45L144.55,200.51L148.36,198.64L150.27,197.51L152.17,198.26L154.07,197.14L155.97,196.57L157.88,196.95L159.79,199.2L161.69,196.01L163.6,196.57L165.5,196.2L167.41,197.51L169.32,196.95L173.13,191.51L175.03,190.94L176.93,192.07L178.84,190.19L180.74,190.38L182.64,192.82L184.55,192.45L186.46,190.19L188.36,188.88L190.28,186.63L192.18,185.69L194.08,183.81L195.98,179.87L197.89,180.81L201.7,177.25L203.6,178.37L207.41,178.75L209.31,180.25L216.95,177.06L218.84,176.87L222.65,175.93L224.56,174.43L226.46,173.87L228.37,174.62L230.28,176.31L232.17,176.31L234.07,174.05L235.99,173.12L245.51,170.86L247.42,169.74L253.13,170.86L255.03,170.3L258.85,169.93L260.76,170.3L264.55,168.24L266.47,165.99L268.37,164.3L270.28,164.3L272.18,163.17L274.09,164.48L275.98,164.67L277.89,163.92L279.8,164.67L281.71,69.37L287.42,66.34L289.33,66.72L293.14,65.96L295.04,64.63L296.95,64.26L298.85,64.82L306.47,64.07L308.37,63.88L317.9,63.12L319.81,63.12L327.43,62.17L329.34,62.74L338.85,63.31L340.76,63.12L350.28,62.93L352.19,61.98L357.9,61.98L359.8,60.47L365.52,61.42L367.41,60.66L369.33,59.9L371.23,60.28L376.94,58.96L378.86,58.2L380.75,59.15L382.66,57.63L386.47,54.79L388.37,54.79L390.28,56.31L392.18,55.74L396,53.85L397.9,54.79L401.72,51.77L403.61,51.77L405.52,49.31L407.42,51.77L415.04,47.41L416.95,48.74L420.76,46.47L422.66,48.17L424.57,49.68L426.47,48.36L428.38,49.87L430.28,49.12L432.18,47.79L434.09,49.31L435.99,48.36L437.9,48.93L441.71,50.44L443.61,49.87L447.45,48.17L449.37,46.47L451.26,44.39L453.17,44.01L456.98,44.95L458.88,45.71L460.79,42.87L462.69,42.49L468.41,41.55L470.32,39.09L476.03,40.6L477.94,39.84L479.84,37.95L481.74,34.73L483.65,37.01L485.56,37.01L487.46,35.3L489.37,36.63L491.27,35.87L493.17,34.17L495.08,33.22L496.99,33.41L502.7,28.87L504.61,29.06L508.42,25.65L510.32,26.79L514.13,23.76L516.04,24.52L521.75,23.57L523.65,19.78L525.56,19.6L527.45,18.08L529.37,16L531.27,16.38L533.18,16.76L535.08,18.46L537,19.41" style="vector-effect: non-scaling-stroke; fill: none; stroke: rgb(99, 110, 250); stroke-opacity: 1; stroke-width: 2px; opacity: 1;"/></g><g class="points"/><g class="text"/></g></g></g><g class="overplot"/><path class="xlines-above crisp" d="M0,0" style="fill: none;"/><path class="ylines-above crisp" d="M0,0" style="fill: none;"/><g class="overlines-above"/><g class="xaxislayer-above"><g class="xtick"><text text-anchor="middle" x="0" y="433" transform="translate(87.12,0)" style="font-family: 'Open Sans', verdana, arial, sans-serif; font-size: 12px; fill: rgb(42, 63, 95); fill-opacity: 1; white-space: pre;"><tspan class="line" dy="0em" x="0" y="433">00:00</tspan><tspan class="line" dy="1.3em" x="0" y="433">Aug 3, 2021</tspan></text></g><g class="xtick"><text text-anchor="middle" x="0" y="433" transform="translate(224.27,0)" style="font-family: 'Open Sans', verdana, arial, sans-serif; font-size: 12px; fill: rgb(42, 63, 95); fill-opacity: 1; white-space: pre;">12:00</text></g><g class="xtick"><text text-anchor="middle" x="0" y="433" transform="translate(361.43,0)" style="font-family: 'Open Sans', verdana, arial, sans-serif; font-size: 12px; fill: rgb(42, 63, 95); fill-opacity: 1; white-space: pre;"><tspan class="line" dy="0em" x="0" y="433">00:00</tspan><tspan class="line" dy="1.3em" x="0" y="433">Aug 4, 2021</tspan></text></g><g class="xtick"><text text-anchor="middle" x="0" y="433" transform="translate(498.58,0)" style="font-family: 'Open Sans', verdana, arial, sans-serif; font-size: 12px; fill: rgb(42, 63, 95); fill-opacity: 1; white-space: pre;">12:00</text></g></g><g class="yaxislayer-above"><g class="ytick"><text text-anchor="end" x="79" y="4.199999999999999" transform="translate(0,387.39)" style="font-family: 'Open Sans', verdana, arial, sans-serif; font-size: 12px; fill: rgb(42, 63, 95); fill-opacity: 1; white-space: pre;">0.864</text></g><g class="ytick"><text text-anchor="end" x="79" y="4.199999999999999" transform="translate(0,325.32)" style="font-family: 'Open Sans', verdana, arial, sans-serif; font-size: 12px; fill: rgb(42, 63, 95); fill-opacity: 1; white-space: pre;">0.865</text></g><g class="ytick"><text text-anchor="end" x="79" y="4.199999999999999" transform="translate(0,263.26)" style="font-family: 'Open Sans', verdana, arial, sans-serif; font-size: 12px; fill: rgb(42, 63, 95); fill-opacity: 1; white-space: pre;">0.866</text></g><g class="ytick"><text text-anchor="end" x="79" y="4.199999999999999" transform="translate(0,201.2)" style="font-family: 'Open Sans', verdana, arial, sans-serif; font-size: 12px; fill: rgb(42, 63, 95); fill-opacity: 1; white-space: pre;">0.867</text></g><g class="ytick"><text text-anchor="end" x="79" y="4.199999999999999" transform="translate(0,139.13)" style="font-family: 'Open Sans', verdana, arial, sans-serif; font-size: 12px; fill: rgb(42, 63, 95); fill-opacity: 1; white-space: pre;">0.868</text></g></g><g class="overaxes-above"/></g></g><g class="polarlayer"/><g class="ternarylayer"/><g class="geolayer"/><g class="funnelarealayer"/><g class="pielayer"/><g class="treemaplayer"/><g class="sunburstlayer"/><g class="glimages"/><defs id="topdefs-3fe23e"><g class="clips"/><clipPath id="legend3fe23e"><rect width="60" height="45" x="0" y="0"/></clipPath></defs><g class="layer-above"><g class="imagelayer"/><g class="shapelayer"/></g><g class="infolayer"><g class="legend" pointer-events="all" transform="translate(627.74,100)"><rect class="bg" shape-rendering="crispEdges" width="60" height="45" x="0" y="0" style="stroke: rgb(68, 68, 68); stroke-opacity: 1; fill: rgb(255, 255, 255); fill-opacity: 1; stroke-width: 0px;"/><g class="scrollbox" transform="" clip-path="url('#legend3fe23e')"><text class="legendtitletext" text-anchor="start" x="2" y="15.600000000000001" style="font-family: 'Open Sans', verdana, arial, sans-serif; font-size: 12px; fill: rgb(42, 63, 95); fill-opacity: 1; white-space: pre;">All</text><g class="groups" transform=""><g class="traces" transform="translate(0,30.1)" style="opacity: 1;"><text class="legendtext" text-anchor="start" x="40" y="4.680000000000001" style="font-family: 'Open Sans', verdana, arial, sans-serif; font-size: 12px; fill: rgb(42, 63, 95); fill-opacity: 1; white-space: pre;">All</text><g class="layers" style="opacity: 1;"><g class="legendfill"/><g class="legendlines"><path class="js-line" d="M5,0h30" style="fill: none; stroke: rgb(99, 110, 250); stroke-opacity: 1; stroke-width: 2px;"/></g><g class="legendsymbols"><g class="legendpoints"/></g></g><rect class="legendtoggle" x="0" y="-9.5" width="54.890625" height="19" style="fill: rgb(0, 0, 0); fill-opacity: 0;"/></g></g></g><rect class="scrollbar" rx="20" ry="3" width="0" height="0" x="0" y="0" style="fill: rgb(128, 139, 164); fill-opacity: 1;"/></g><g class="g-gtitle"><text class="gtitle" x="35" y="50" text-anchor="start" dy="0em" style="font-family: 'Open Sans', verdana, arial, sans-serif; font-size: 17px; fill: rgb(42, 63, 95); opacity: 1; font-weight: normal; white-space: pre;">Singapore Vaccination Centers</text></g><g class="g-xtitle"><text class="xtitle" x="348.5" y="476.409375" text-anchor="middle" style="font-family: 'Open Sans', verdana, arial, sans-serif; font-size: 14px; fill: rgb(42, 63, 95); opacity: 1; font-weight: normal; white-space: pre;">Time</text></g><g class="g-ytitle"><text class="ytitle" transform="rotate(-90,19.840625000000003,260)" x="19.840625000000003" y="260" text-anchor="middle" style="font-family: 'Open Sans', verdana, arial, sans-serif; font-size: 14px; fill: rgb(42, 63, 95); opacity: 1; font-weight: normal; white-space: pre;">Filled/%</text></g></g></svg>