<svg class="main-svg" xmlns="http://www.w3.org/2000/svg" xmlns:xlink="http://www.w3.org/1999/xlink" width="700" height="500" style="" viewBox="0 0 700 500"><rect x="0" y="0" width="700" height="500" style="fill: rgb(255, 255, 255); fill-opacity: 1;"/><defs id="defs-8b55a7"><g class="clips"><clipPath id="clip8b55a7xyplot" class="plotclip"><rect width="537" height="320"/></clipPath><clipPath class="axesclip" id="clip8b55a7x"><rect x="80" y="0" width="537" height="500"/></clipPath><clipPath class="axesclip" id="clip8b55a7y"><rect x="0" y="100" width="700" height="320"/></clipPath><clipPath class="axesclip" id="clip8b55a7xy"><rect x="80" y="100" width="537" height="320"/></clipPath></g><g class="gradients"/></defs><g class="bglayer"><rect class="bg" x="80" y="100" width="537" height="320" style="fill: rgb(229, 236, 246); fill-opacity: 1; stroke-width: 0;"/></g><g class="layer-below"><g class="imagelayer"/><g class="shapelayer"/></g><g class="cartesianlayer"><g class="subplot xy"><g class="layer-subplot"><g class="shapelayer"/><g class="imagelayer"/></g><g class="gridlayer"><g class="x"><path class="xgrid crisp" transform="translate(91.28,0)" d="M0,100v320" style="stroke: rgb(255, 255, 255); stroke-opacity: 1; stroke-width: 1px;"/><path class="xgrid crisp" transform="translate(212.78,0)" d="M0,100v320" style="stroke: rgb(255, 255, 255); stroke-opacity: 1; stroke-width: 1px;"/><path class="xgrid crisp" transform="translate(334.28999999999996,0)" d="M0,100v320" style="stroke: rgb(255, 255, 255); stroke-opacity: 1; stroke-width: 1px;"/><path class="xgrid crisp" transform="translate(455.79,0)" d="M0,100v320" style="stroke: rgb(255, 255, 255); stroke-opacity: 1; stroke-width: 1px;"/><path class="xgrid crisp" transform="translate(577.29,0)" d="M0,100v320" style="stroke: rgb(255, 255, 255); stroke-opacity: 1; stroke-width: 1px;"/></g><g class="y"><path class="ygrid crisp" transform="translate(0,367.23)" d="M80,0h537" style="stroke: rgb(255, 255, 255); stroke-opacity: 1; stroke-width: 1px;"/><path class="ygrid crisp" transform="translate(0,308.43)" d="M80,0h537" style="stroke: rgb(255, 255, 255); stroke-opacity: 1; stroke-width: 1px;"/><path class="ygrid crisp" transform="translate(0,249.63)" d="M80,0h537" style="stroke: rgb(255, 255, 255); stroke-opacity: 1; stroke-width: 1px;"/><path class="ygrid crisp" transform="translate(0,190.82999999999998)" d="M80,0h537" style="stroke: rgb(255, 255, 255); stroke-opacity: 1; stroke-width: 1px;"/><path class="ygrid crisp" transform="translate(0,132.03)" d="M80,0h537" style="stroke: rgb(255, 255, 255); stroke-opacity: 1; stroke-width: 1px;"/></g></g><g class="zerolinelayer"/><path class="xlines-below"/><path class="ylines-below"/><g class="overlines-below"/><g class="xaxislayer-below"/><g class="yaxislayer-below"/><g class="overaxes-below"/><g class="plot" transform="translate(80,100)" clip-path="url('#clip8b55a7xyplot')"><g class="scatterlayer mlayer"><g class="trace scatter trace3b3c2c" style="stroke-miterlimit: 2; opacity: 1;"><g class="fills"/><g class="errorbars"/><g class="lines"><path class="js-line" d="M0,82.28L7.13,82.51L9.65,120.48L14.69,120.57L16.56,136.92L17.34,136.9L35.98,137.96L37.14,121.23L37.49,129.62L38.34,129.56L40.02,126.37L40.87,126.27L42.55,129.79L43.4,129.7L45.08,132.71L45.93,132.63L47.62,120.69L48.46,120.62L50.15,132.64L50.99,132.55L52.68,126.68L53.52,123.32L55.21,113.21L56.05,109.51L57.74,94.58L58.58,92.89L60.27,74.17L61.11,72.87L62.8,78.78L63.65,77.73L65.33,63.68L66.18,62.82L67.86,65.47L68.71,64.83L70.4,74.27L71.24,73.83L72.35,51.83L72.93,52.53L73.77,52.34L82.21,51.79L83.05,51.79L95.71,50.91L96.55,50.65L126.08,42.03L126.93,41.83L131.99,40.95L132.84,41.79L147.18,41.47L148.02,41.46L160.68,40.8L161.52,40.69L192.74,36.83L193.59,35.53L226.49,34L227.34,33.87L253.5,31.05L254.34,28.56L283.03,27.81L283.87,95.38L293.18,93.57L294,93.44L294.84,93.12L295.68,91.51L298.22,88.51L299.06,87.52L303.28,73.59L304.12,72.39L309.18,67.88L310.03,67.37L314.25,65.43L315.09,65.5L321,64.8L321.85,64.77L340.41,63.66L341.25,63.48L347.15,61.32L348,60.89L348.84,60.46L349.69,62.78L353.06,61.15L353.91,59.94L358.12,54.01L358.97,53.24L362.34,49.13L363.19,47.98L366.56,39.84L367.4,38.66L372.47,33.5L373.31,32.89L376.69,31.98L377.53,31.8L384.28,31.18L385.13,31.16L397.78,30.17L398.62,29.9L403.69,28.09L404.53,74.81L406.22,73.22L407.06,72.76L415.5,69.16L416.34,68.8L416.99,71.93L417.19,68.39L417.99,68.25L418.03,69.25L418.84,67.95L418.88,68.94L419.72,68.62L421.41,68.09L422.25,76.43L429.64,73.91L429.67,72.31L429.71,72.03L429.85,73.74L437.86,44.74L438.28,44.87L438.71,41.95L439.55,42.12L439.97,43.2L441.23,37.43L441.66,41.6L442.92,39.66L443.35,39.05L444.61,38.13L445.03,38.96L445.46,38.26L445.88,38.53L446.3,38.42L447.57,38.4L447.99,43.02L452.63,41.69L453.05,36.5L453.89,35.76L454.31,35.39L455.58,33.79L456,33.41L459.38,22.43L459.8,16L460.22,16.8L460.64,140.18L461.06,139.22L461.49,142.07L462.33,136.79L462.75,138.99L463.6,136.15L464.02,136.63L464.44,141.25L464.86,146.68L465.28,133.42L466.13,138.09L466.55,157.2L467.81,133.53L468.23,145.44L468.66,148.42L469.08,146.68L469.5,144.02L470.34,134.36L470.77,135.71L471.61,146.05L472.03,142.1L472.45,141.74L472.87,151.77L473.72,140.84L474.14,148.68L474.98,127.07L475.41,137.58L476.25,140.49L476.67,138.92L477.52,130.34L477.94,131.67L478.36,129.31L478.78,138.25L479.2,134.05L479.62,138.68L480.05,138.81L480.47,131.49L480.89,131.42L481.31,140.05L482.16,132.48L482.58,138.41L483.42,141.46L483.85,128.79L484.69,142.96L485.11,264.58L485.96,292.55L486.38,293.12L486.8,304L487.22,286.22L487.64,301.52L488.06,291.75L488.49,292.1L488.91,291.07L489.33,294.16L489.75,293.46L490.17,276.02L490.6,283.67L491.02,262.28L491.86,272.54L492.28,248.89L493.13,241.71L493.55,229.6L493.97,224.98L494.39,228.24L494.81,227.36L496.08,215.22L496.5,217.06L496.92,216.4L497.34,227.08L497.77,226.08L498.19,228.38L498.61,228.68L499.03,224.72L499.45,233.57L499.88,224.28L500.72,227.75L501.14,223.07L501.99,226.33L502.41,223.26L502.83,224.52L503.25,234.01L503.67,220.81L504.1,231.91L505.36,220.15L505.78,220.86L507.05,212.72L507.47,220.76L508.32,220.72L508.74,223.7L509.16,223.67L509.58,219.37L510,223.08L510.42,218.62L510.84,226.76L511.27,225.2L511.69,224.19L512.11,219.51L512.53,225.16L513.8,225.11L514.22,216.49L514.64,225.05L515.07,220.43L515.48,220.57L515.91,218.19L516.33,220.92L516.76,219.84L517.17,227.36L517.59,216.65L518.02,220.1L518.44,220.01L519.28,220.98L519.7,218.78L520.55,223.64L520.97,218.66L521.39,205.85L521.82,215.25L522.24,220.32L522.66,206.18L523.08,206.81L523.5,214.16L523.92,214.11L524.35,206.99L525.2,212.47L525.62,202.23L526.04,199.24L526.46,208.71L526.88,224.84L527.3,215.2L527.72,214.49L528.14,205.74L528.56,219.6L529.41,195.82L529.83,209.77L530.25,208.24L530.67,203.32L531.09,202.05L531.52,205.17L531.94,200.81L532.36,208.16L532.78,206.35L533.2,209.96L533.63,207.44L534.05,196.45L534.47,195.36L534.89,196.45L535.74,209.39L536.16,202.33L536.58,210.92L537,197.09" style="vector-effect: non-scaling-stroke; fill: none; stroke: rgb(99, 110, 250); stroke-opacity: 1; stroke-width: 2px; opacity: 1;"/></g><g class="points"/><g class="text"/></g></g></g><g class="overplot"/><path class="xlines-above crisp" d="M0,0" style="fill: none;"/><path class="ylines-above crisp" d="M0,0" style="fill: none;"/><g class="overlines-above"/><g class="xaxislayer-above"><g class="xtick"><text text-anchor="middle" x="0" y="433" transform="translate(91.28,0)" style="font-family: 'Open Sans', verdana, arial, sans-serif; font-size: 12px; fill: rgb(42, 63, 95); fill-opacity: 1; white-space: pre;"><tspan class="line" dy="0em" x="0" y="433">Jun 4</tspan><tspan class="line" dy="1.3em" x="0" y="433">2021</tspan></text></g><g class="xtick"><text text-anchor="middle" x="0" y="433" transform="translate(212.78,0)" style="font-family: 'Open Sans', verdana, arial, sans-serif; font-size: 12px; fill: rgb(42, 63, 95); fill-opacity: 1; white-space: pre;">Jun 6</text></g><g class="xtick"><text text-anchor="middle" x="0" y="433" transform="translate(334.28999999999996,0)" style="font-family: 'Open Sans', verdana, arial, sans-serif; font-size: 12px; fill: rgb(42, 63, 95); fill-opacity: 1; white-space: pre;">Jun 8</text></g><g class="xtick"><text text-anchor="middle" x="0" y="433" transform="translate(455.79,0)" style="font-family: 'Open Sans', verdana, arial, sans-serif; font-size: 12px; fill: rgb(42, 63, 95); fill-opacity: 1; white-space: pre;">Jun 10</text></g><g class="xtick"><text text-anchor="middle" x="0" y="433" transform="translate(577.29,0)" style="font-family: 'Open Sans', verdana, arial, sans-serif; font-size: 12px; fill: rgb(42, 63, 95); fill-opacity: 1; white-space: pre;">Jun 12</text></g></g><g class="yaxislayer-above"><g class="ytick"><text text-anchor="end" x="79" y="4.199999999999999" transform="translate(0,367.23)" style="font-family: 'Open Sans', verdana, arial, sans-serif; font-size: 12px; fill: rgb(42, 63, 95); fill-opacity: 1; white-space: pre;">0.8</text></g><g class="ytick"><text text-anchor="end" x="79" y="4.199999999999999" transform="translate(0,308.43)" style="font-family: 'Open Sans', verdana, arial, sans-serif; font-size: 12px; fill: rgb(42, 63, 95); fill-opacity: 1; white-space: pre;">0.82</text></g><g class="ytick"><text text-anchor="end" x="79" y="4.199999999999999" transform="translate(0,249.63)" style="font-family: 'Open Sans', verdana, arial, sans-serif; font-size: 12px; fill: rgb(42, 63, 95); fill-opacity: 1; white-space: pre;">0.84</text></g><g class="ytick"><text text-anchor="end" x="79" y="4.199999999999999" transform="translate(0,190.82999999999998)" style="font-family: 'Open Sans', verdana, arial, sans-serif; font-size: 12px; fill: rgb(42, 63, 95); fill-opacity: 1; white-space: pre;">0.86</text></g><g class="ytick"><text text-anchor="end" x="79" y="4.199999999999999" transform="translate(0,132.03)" style="font-family: 'Open Sans', verdana, arial, sans-serif; font-size: 12px; fill: rgb(42, 63, 95); fill-opacity: 1; white-space: pre;">0.88</text></g></g><g class="overaxes-above"/></g></g><g class="polarlayer"/><g class="ternarylayer"/><g class="geolayer"/><g class="funnelarealayer"/><g class="pielayer"/><g class="treemaplayer"/><g class="sunburstlayer"/><g class="glimages"/><defs id="topdefs-8b55a7"><g class="clips"/><clipPath id="legend8b55a7"><rect width="60" height="45" x="0" y="0"/></clipPath></defs><g class="layer-above"><g class="imagelayer"/><g class="shapelayer"/></g><g class="infolayer"><g class="legend" pointer-events="all" transform="translate(627.74,100)"><rect class="bg" shape-rendering="crispEdges" width="60" height="45" x="0" y="0" style="stroke: rgb(68, 68, 68); stroke-opacity: 1; fill: rgb(255, 255, 255); fill-opacity: 1; stroke-width: 0px;"/><g class="scrollbox" transform="" clip-path="url('#legend8b55a7')"><text class="legendtitletext" text-anchor="start" x="2" y="15.600000000000001" style="font-family: 'Open Sans', verdana, arial, sans-serif; font-size: 12px; fill: rgb(42, 63, 95); fill-opacity: 1; white-space: pre;">All</text><g class="groups" transform=""><g class="traces" transform="translate(0,30.1)" style="opacity: 1;"><text class="legendtext" text-anchor="start" x="40" y="4.680000000000001" style="font-family: 'Open Sans', verdana, arial, sans-serif; font-size: 12px; fill: rgb(42, 63, 95); fill-opacity: 1; white-space: pre;">All</text><g class="layers" style="opacity: 1;"><g class="legendfill"/><g class="legendlines"><path class="js-line" d="M5,0h30" style="fill: none; stroke: rgb(99, 110, 250); stroke-opacity: 1; stroke-width: 2px;"/></g><g class="legendsymbols"><g class="legendpoints"/></g></g><rect class="legendtoggle" x="0" y="-9.5" width="54.890625" height="19" style="fill: rgb(0, 0, 0); fill-opacity: 0;"/></g></g></g><rect class="scrollbar" rx="20" ry="3" width="0" height="0" x="0" y="0" style="fill: rgb(128, 139, 164); fill-opacity: 1;"/></g><g class="g-gtitle"><text class="gtitle" x="35" y="50" text-anchor="start" dy="0em" style="font-family: 'Open Sans', verdana, arial, sans-serif; font-size: 17px; fill: rgb(42, 63, 95); opacity: 1; font-weight: normal; white-space: pre;">Singapore Vaccination Centers</text></g><g class="g-xtitle"><text class="xtitle" x="348.5" y="476.409375" text-anchor="middle" style="font-family: 'Open Sans', verdana, arial, sans-serif; font-size: 14px; fill: rgb(42, 63, 95); opacity: 1; font-weight: normal; white-space: pre;">Time</text></g><g class="g-ytitle"><text class="ytitle" transform="rotate(-90,27.481250000000003,260)" x="27.481250000000003" y="260" text-anchor="middle" style="font-family: 'Open Sans', verdana, arial, sans-serif; font-size: 14px; fill: rgb(42, 63, 95); opacity: 1; font-weight: normal; white-space: pre;">Filled/%</text></g></g></svg>