<svg class="main-svg" xmlns="http://www.w3.org/2000/svg" xmlns:xlink="http://www.w3.org/1999/xlink" width="700" height="500" style="" viewBox="0 0 700 500"><rect x="0" y="0" width="700" height="500" style="fill: rgb(255, 255, 255); fill-opacity: 1;"/><defs id="defs-693ae7"><g class="clips"><clipPath id="clip693ae7xyplot" class="plotclip"><rect width="537" height="320"/></clipPath><clipPath class="axesclip" id="clip693ae7x"><rect x="80" y="0" width="537" height="500"/></clipPath><clipPath class="axesclip" id="clip693ae7y"><rect x="0" y="100" width="700" height="320"/></clipPath><clipPath class="axesclip" id="clip693ae7xy"><rect x="80" y="100" width="537" height="320"/></clipPath></g><g class="gradients"/></defs><g class="bglayer"><rect class="bg" x="80" y="100" width="537" height="320" style="fill: rgb(229, 236, 246); fill-opacity: 1; stroke-width: 0;"/></g><g class="layer-below"><g class="imagelayer"/><g class="shapelayer"/></g><g class="cartesianlayer"><g class="subplot xy"><g class="layer-subplot"><g class="shapelayer"/><g class="imagelayer"/></g><g class="gridlayer"><g class="x"><path class="xgrid crisp" transform="translate(82.51,0)" d="M0,100v320" style="stroke: rgb(255, 255, 255); stroke-opacity: 1; stroke-width: 1px;"/><path class="xgrid crisp" transform="translate(179.18,0)" d="M0,100v320" style="stroke: rgb(255, 255, 255); stroke-opacity: 1; stroke-width: 1px;"/><path class="xgrid crisp" transform="translate(275.86,0)" d="M0,100v320" style="stroke: rgb(255, 255, 255); stroke-opacity: 1; stroke-width: 1px;"/><path class="xgrid crisp" transform="translate(372.53,0)" d="M0,100v320" style="stroke: rgb(255, 255, 255); stroke-opacity: 1; stroke-width: 1px;"/><path class="xgrid crisp" transform="translate(469.2,0)" d="M0,100v320" style="stroke: rgb(255, 255, 255); stroke-opacity: 1; stroke-width: 1px;"/><path class="xgrid crisp" transform="translate(565.88,0)" d="M0,100v320" style="stroke: rgb(255, 255, 255); stroke-opacity: 1; stroke-width: 1px;"/></g><g class="y"><path class="ygrid crisp" transform="translate(0,392.55)" d="M80,0h537" style="stroke: rgb(255, 255, 255); stroke-opacity: 1; stroke-width: 1px;"/><path class="ygrid crisp" transform="translate(0,349.77)" d="M80,0h537" style="stroke: rgb(255, 255, 255); stroke-opacity: 1; stroke-width: 1px;"/><path class="ygrid crisp" transform="translate(0,306.99)" d="M80,0h537" style="stroke: rgb(255, 255, 255); stroke-opacity: 1; stroke-width: 1px;"/><path class="ygrid crisp" transform="translate(0,264.21000000000004)" d="M80,0h537" style="stroke: rgb(255, 255, 255); stroke-opacity: 1; stroke-width: 1px;"/><path class="ygrid crisp" transform="translate(0,221.43)" d="M80,0h537" style="stroke: rgb(255, 255, 255); stroke-opacity: 1; stroke-width: 1px;"/><path class="ygrid crisp" transform="translate(0,178.65)" d="M80,0h537" style="stroke: rgb(255, 255, 255); stroke-opacity: 1; stroke-width: 1px;"/><path class="ygrid crisp" transform="translate(0,135.87)" d="M80,0h537" style="stroke: rgb(255, 255, 255); stroke-opacity: 1; stroke-width: 1px;"/></g></g><g class="zerolinelayer"/><path class="xlines-below"/><path class="ylines-below"/><g class="overlines-below"/><g class="xaxislayer-below"/><g class="yaxislayer-below"/><g class="overaxes-below"/><g class="plot" transform="translate(80,100)" clip-path="url('#clip693ae7xyplot')"><g class="scatterlayer mlayer"><g class="trace scatter tracecfd97d" style="stroke-miterlimit: 2; opacity: 1;"><g class="fills"/><g class="errorbars"/><g class="lines"><path class="js-line" d="M0,304L1.93,302.59L2.61,249.74L3.28,251.04L3.95,249.35L6.63,248.71L7.31,248.32L8.65,249.1L9.32,248.19L10.66,248.58L11.34,248.19L12.68,247.93L13.35,247.67L14.69,247.41L15.36,247.16L20.74,246.77L21.4,246.51L25.43,246.12L26.1,245.73L27.45,245.86L28.12,245.22L29.46,245.09L30.13,244.44L31.47,244.57L32.14,243.66L33.49,244.57L34.16,243.02L36.17,242.11L36.84,242.63L37.52,242.24L38.19,243.15L39.53,240.17L40.2,240.69L40.87,240.69L41.54,239.78L44.23,237.84L44.9,236.94L46.24,238.23L46.92,237.07L47.58,235L48.26,235.51L48.93,236.55L49.6,235L50.94,232.67L51.61,232.28L52.96,230.6L53.63,231.12L54.97,229.95L55.64,230.21L56.31,231.76L56.98,229.56L59,230.6L59.67,230.21L61.68,226.07L62.36,226.85L63.7,225.68L64.37,227.36L65.04,227.11L65.71,225.55L68.4,221.16L69.07,218.44L69.74,219.09L70.41,217.66L71.08,216.63L71.75,217.4L73.1,217.66L73.77,218.7L77.12,216.37L77.8,216.11L79.81,214.3L80.48,214.82L81.82,215.98L82.49,214.43L85.19,212.88L85.85,212.75L87.87,211.84L88.53,211.71L89.88,211.84L90.55,211.45L92.57,211.32L93.23,210.42L94.58,207.7L95.25,207.7L95.92,206.93L96.6,207.83L98.61,207.96L99.28,142.27L101.29,140.18L101.97,140.44L103.31,139.92L103.98,139.01L105.32,139.14L106,139.14L108.68,138.48L109.35,138.35L111.36,137.83L112.04,137.96L118.08,137.96L118.75,138.09L123.45,137.83L124.12,137.18L126.13,137.18L126.8,136.14L129.49,136.27L130.16,135.74L131.5,135.88L132.17,135.22L133.52,134.57L134.19,135.22L136.87,132.22L137.54,133.27L139.56,131.57L140.23,132.22L142.91,128.44L143.59,130.14L146.27,127.14L146.94,128.05L148.29,126.48L148.96,127.66L149.63,128.7L150.3,127.79L150.97,128.83L151.64,128.31L152.31,127.4L152.98,128.44L154.33,128.18L155,128.57L156.34,128.83L157.01,128.44L159.71,124.79L160.38,124.92L161.72,125.96L162.39,124.01L165.08,123.09L165.75,121.4L168.44,121.92L169.11,120.61L169.78,118.4L170.45,119.96L171.13,119.96L171.79,118.79L172.46,119.7L173.13,119.18L174.48,117.35L175.15,117.48L177.17,114.35L177.84,114.48L179.18,112.14L179.85,112.92L181.19,110.83L181.86,111.35L183.88,110.7L184.55,108.09L185.22,107.96L185.89,106.92L187.23,105.74L187.91,106L189.25,107.83L189.92,107.18L190.6,109.13L191.26,108.35L191.93,108.22L192.6,106.66L193.28,106.27L193.95,106.79L195.29,107.05L195.96,61.25L197.97,59.15L198.65,58.88L202.67,56.78L203.35,56.52L206.03,54.54L206.7,54.28L208.72,54.41L209.39,53.75L212.75,53.62L213.42,53.75L224.16,51.78L224.83,52.18L226.84,51.12L227.51,51.25L228.19,51.52L228.85,50.73L232.88,50.07L234.22,49.54L234.9,48.23L236.24,47.83L237.58,47.44L238.25,45.73L238.92,46.91L239.6,45.73L240.94,45.73L241.61,45.07L242.28,44.94L242.95,43.76L244.96,43.49L245.64,41.91L246.98,40.2L247.65,39.42L248.3,38.1L248.97,38.76L250.98,37.71L251.66,36L254.34,35.34L255.01,33.36L255.69,32.71L256.35,33.23L257.7,32.44L258.37,32.05L259.04,31.92L259.71,30.86L261.06,30.86L261.72,31.39L263.07,32.97L263.74,31.13L265.09,32.31L265.77,30.34L267.1,30.47L267.77,30.86L269.79,29.02L270.46,29.42L271.8,27.71L272.47,26.66L273.14,24.16L273.82,24.68L274.48,23.24L275.15,24.68L276.5,22.84L277.17,22.58L277.84,21.26L278.51,21.66L279.86,21.79L280.52,20.74L281.2,21.26L281.87,19.68L283.21,19.55L283.88,18.5L286.57,18.89L287.24,17.97L288.58,17.84L289.26,17.97L290.6,16L291.26,16.66L291.94,16.39L292.61,171.81L295.97,171.4L296.64,172.08L298.65,170.99L299.32,170.99L300.67,169.76L301.34,169.76L303.35,169.08L304.03,169.08L308.72,168.67L309.4,168.67L314.09,168.39L314.77,168.39L317.45,167.44L318.12,167.71L322.15,166.89L322.82,166.75L324.16,165.8L324.83,165.12L328.19,164.02L328.86,162.66L331.57,162.38L332.24,163.61L333.58,161.7L334.25,161.57L334.93,160.88L335.6,158.43L336.27,156.51L336.94,156.79L337.61,156.1L338.28,154.33L338.95,154.88L340.3,154.47L340.97,154.33L342.98,152.69L343.65,153.65L345.67,150.92L346.34,151.87L348.35,149.14L349.02,149.14L349.69,148.32L350.37,149.41L351.71,150.37L352.38,149.41L353.05,149.55L353.73,148.73L356.41,145.18L357.08,144.5L359.09,143.54L359.77,145.04L363.8,141.9L364.47,143.68L365.81,121.97L366.48,121.56L367.82,120.88L368.5,116.1L369.16,116.24L369.83,112.28L370.51,112.55L371.18,109.96L371.85,106.95L372.52,107.91L374.53,101.22L375.21,98.08L376.55,97.53L377.22,95.35L377.89,94.8L378.57,92.07L379.91,89.34L380.58,89.34L382.59,85.65L383.27,84.7L384.61,82.78L385.28,80.19L388.64,75L389.31,88.44L392.67,84.03L393.34,84.45L394.01,84.31L394.68,85.14L396.02,84.72L396.69,85.41L398.04,84.59L398.7,84.45L400.05,84.03L400.72,84.03L402.06,84.17L402.74,83.62L407.43,84.03L408.11,83.62L412.14,83.21L412.81,83.48L415.49,83.48L416.16,83.35L417.5,83.35L418.17,83.35L420.19,83.35L420.86,83.9L424.21,79.9L424.88,80.18L426.9,78.8L427.57,78.94L428.24,78.53L428.91,76.87L430.25,77.15L430.93,75.63L434.29,72.47L434.96,72.88L436.97,69.44L437.64,69.02L439.66,66.41L440.33,66.41L441.67,63.79L442.34,63.79L443.68,61.86L444.36,59.66L447.04,54.43L447.71,54.01L448.38,53.6L449.05,51.4L451.74,49.47L452.41,47.82L456.44,46.85L457.11,45.75L457.78,46.16L458.45,45.48L459.13,45.89L464.5,41.21L467.85,38.59L468.53,39.28L471.21,35.97L471.88,35.84L472.56,34.46L473.22,35.01L474.57,33.91L475.24,34.18L475.91,35.28L476.58,34.32L479.27,32.94L479.94,33.91L482.62,33.22L483.3,32.12L485.31,29.78L485.98,81.26L487.32,81.68L488,80.56L488.66,79.86L489.33,80.42L491.35,80.42L492.02,81.4L494.04,81.12L494.71,81.12L498.07,81.4L498.74,81.12L501.42,79.86L502.1,80.28L508.81,79.58L509.48,79.58L516.86,79.3L517.53,79.16L520.89,78.74L521.56,78.31L522.9,77.75L523.57,76.77L524.92,76.35L525.59,74.95L526.26,73.55L526.93,74.95L529.61,73.97L530.29,73.97L531.63,71.86L532.3,71.58L534.32,68.64L534.99,68.5L535.66,68.22L536.33,68.78L537,68.08" style="vector-effect: non-scaling-stroke; fill: none; stroke: rgb(99, 110, 250); stroke-opacity: 1; stroke-width: 2px; opacity: 1;"/></g><g class="points"/><g class="text"/></g></g></g><g class="overplot"/><path class="xlines-above crisp" d="M0,0" style="fill: none;"/><path class="ylines-above crisp" d="M0,0" style="fill: none;"/><g class="overlines-above"/><g class="xaxislayer-above"><g class="xtick"><text text-anchor="middle" x="0" y="433" transform="translate(82.51,0)" style="font-family: 'Open Sans', verdana, arial, sans-serif; font-size: 12px; fill: rgb(42, 63, 95); fill-opacity: 1; white-space: pre;"><tspan class="line" dy="0em" x="0" y="433">Aug 3</tspan><tspan class="line" dy="1.3em" x="0" y="433">2021</tspan></text></g><g class="xtick"><text text-anchor="middle" x="0" y="433" transform="translate(179.18,0)" style="font-family: 'Open Sans', verdana, arial, sans-serif; font-size: 12px; fill: rgb(42, 63, 95); fill-opacity: 1; white-space: pre;">Aug 4</text></g><g class="xtick"><text text-anchor="middle" x="0" y="433" transform="translate(275.86,0)" style="font-family: 'Open Sans', verdana, arial, sans-serif; font-size: 12px; fill: rgb(42, 63, 95); fill-opacity: 1; white-space: pre;">Aug 5</text></g><g class="xtick"><text text-anchor="middle" x="0" y="433" transform="translate(372.53,0)" style="font-family: 'Open Sans', verdana, arial, sans-serif; font-size: 12px; fill: rgb(42, 63, 95); fill-opacity: 1; white-space: pre;">Aug 6</text></g><g class="xtick"><text text-anchor="middle" x="0" y="433" transform="translate(469.2,0)" style="font-family: 'Open Sans', verdana, arial, sans-serif; font-size: 12px; fill: rgb(42, 63, 95); fill-opacity: 1; white-space: pre;">Aug 7</text></g><g class="xtick"><text text-anchor="middle" x="0" y="433" transform="translate(565.88,0)" style="font-family: 'Open Sans', verdana, arial, sans-serif; font-size: 12px; fill: rgb(42, 63, 95); fill-opacity: 1; white-space: pre;">Aug 8</text></g></g><g class="yaxislayer-above"><g class="ytick"><text text-anchor="end" x="79" y="4.199999999999999" transform="translate(0,392.55)" style="font-family: 'Open Sans', verdana, arial, sans-serif; font-size: 12px; fill: rgb(42, 63, 95); fill-opacity: 1; white-space: pre;">0.864</text></g><g class="ytick"><text text-anchor="end" x="79" y="4.199999999999999" transform="translate(0,349.77)" style="font-family: 'Open Sans', verdana, arial, sans-serif; font-size: 12px; fill: rgb(42, 63, 95); fill-opacity: 1; white-space: pre;">0.865</text></g><g class="ytick"><text text-anchor="end" x="79" y="4.199999999999999" transform="translate(0,306.99)" style="font-family: 'Open Sans', verdana, arial, sans-serif; font-size: 12px; fill: rgb(42, 63, 95); fill-opacity: 1; white-space: pre;">0.866</text></g><g class="ytick"><text text-anchor="end" x="79" y="4.199999999999999" transform="translate(0,264.21000000000004)" style="font-family: 'Open Sans', verdana, arial, sans-serif; font-size: 12px; fill: rgb(42, 63, 95); fill-opacity: 1; white-space: pre;">0.867</text></g><g class="ytick"><text text-anchor="end" x="79" y="4.199999999999999" transform="translate(0,221.43)" style="font-family: 'Open Sans', verdana, arial, sans-serif; font-size: 12px; fill: rgb(42, 63, 95); fill-opacity: 1; white-space: pre;">0.868</text></g><g class="ytick"><text text-anchor="end" x="79" y="4.199999999999999" transform="translate(0,178.65)" style="font-family: 'Open Sans', verdana, arial, sans-serif; font-size: 12px; fill: rgb(42, 63, 95); fill-opacity: 1; white-space: pre;">0.869</text></g><g class="ytick"><text text-anchor="end" x="79" y="4.199999999999999" transform="translate(0,135.87)" style="font-family: 'Open Sans', verdana, arial, sans-serif; font-size: 12px; fill: rgb(42, 63, 95); fill-opacity: 1; white-space: pre;">0.87</text></g></g><g class="overaxes-above"/></g></g><g class="polarlayer"/><g class="ternarylayer"/><g class="geolayer"/><g class="funnelarealayer"/><g class="pielayer"/><g class="treemaplayer"/><g class="sunburstlayer"/><g class="glimages"/><defs id="topdefs-693ae7"><g class="clips"/><clipPath id="legend693ae7"><rect width="60" height="45" x="0" y="0"/></clipPath></defs><g class="layer-above"><g class="imagelayer"/><g class="shapelayer"/></g><g class="infolayer"><g class="legend" pointer-events="all" transform="translate(627.74,100)"><rect class="bg" shape-rendering="crispEdges" width="60" height="45" x="0" y="0" style="stroke: rgb(68, 68, 68); stroke-opacity: 1; fill: rgb(255, 255, 255); fill-opacity: 1; stroke-width: 0px;"/><g class="scrollbox" transform="" clip-path="url('#legend693ae7')"><text class="legendtitletext" text-anchor="start" x="2" y="15.600000000000001" style="font-family: 'Open Sans', verdana, arial, sans-serif; font-size: 12px; fill: rgb(42, 63, 95); fill-opacity: 1; white-space: pre;">All</text><g class="groups" transform=""><g class="traces" transform="translate(0,30.1)" style="opacity: 1;"><text class="legendtext" text-anchor="start" x="40" y="4.680000000000001" style="font-family: 'Open Sans', verdana, arial, sans-serif; font-size: 12px; fill: rgb(42, 63, 95); fill-opacity: 1; white-space: pre;">All</text><g class="layers" style="opacity: 1;"><g class="legendfill"/><g class="legendlines"><path class="js-line" d="M5,0h30" style="fill: none; stroke: rgb(99, 110, 250); stroke-opacity: 1; stroke-width: 2px;"/></g><g class="legendsymbols"><g class="legendpoints"/></g></g><rect class="legendtoggle" x="0" y="-9.5" width="54.890625" height="19" style="fill: rgb(0, 0, 0); fill-opacity: 0;"/></g></g></g><rect class="scrollbar" rx="20" ry="3" width="0" height="0" x="0" y="0" style="fill: rgb(128, 139, 164); fill-opacity: 1;"/></g><g class="g-gtitle"><text class="gtitle" x="35" y="50" text-anchor="start" dy="0em" style="font-family: 'Open Sans', verdana, arial, sans-serif; font-size: 17px; fill: rgb(42, 63, 95); opacity: 1; font-weight: normal; white-space: pre;">Singapore Vaccination Centers</text></g><g class="g-xtitle"><text class="xtitle" x="348.5" y="476.409375" text-anchor="middle" style="font-family: 'Open Sans', verdana, arial, sans-serif; font-size: 14px; fill: rgb(42, 63, 95); opacity: 1; font-weight: normal; white-space: pre;">Time</text></g><g class="g-ytitle"><text class="ytitle" transform="rotate(-90,19.840625000000003,260)" x="19.840625000000003" y="260" text-anchor="middle" style="font-family: 'Open Sans', verdana, arial, sans-serif; font-size: 14px; fill: rgb(42, 63, 95); opacity: 1; font-weight: normal; white-space: pre;">Filled/%</text></g></g></svg>