<svg class="main-svg" xmlns="http://www.w3.org/2000/svg" xmlns:xlink="http://www.w3.org/1999/xlink" width="700" height="500" style="" viewBox="0 0 700 500"><rect x="0" y="0" width="700" height="500" style="fill: rgb(255, 255, 255); fill-opacity: 1;"/><defs id="defs-be4c91"><g class="clips"><clipPath id="clipbe4c91xyplot" class="plotclip"><rect width="537" height="320"/></clipPath><clipPath class="axesclip" id="clipbe4c91x"><rect x="80" y="0" width="537" height="500"/></clipPath><clipPath class="axesclip" id="clipbe4c91y"><rect x="0" y="100" width="700" height="320"/></clipPath><clipPath class="axesclip" id="clipbe4c91xy"><rect x="80" y="100" width="537" height="320"/></clipPath></g><g class="gradients"/></defs><g class="bglayer"><rect class="bg" x="80" y="100" width="537" height="320" style="fill: rgb(229, 236, 246); fill-opacity: 1; stroke-width: 0;"/></g><g class="layer-below"><g class="imagelayer"/><g class="shapelayer"/></g><g class="cartesianlayer"><g class="subplot xy"><g class="layer-subplot"><g class="shapelayer"/><g class="imagelayer"/></g><g class="gridlayer"><g class="x"><path class="xgrid crisp" transform="translate(82.89,0)" d="M0,100v320" style="stroke: rgb(255, 255, 255); stroke-opacity: 1; stroke-width: 1px;"/><path class="xgrid crisp" transform="translate(194.32999999999998,0)" d="M0,100v320" style="stroke: rgb(255, 255, 255); stroke-opacity: 1; stroke-width: 1px;"/><path class="xgrid crisp" transform="translate(305.77,0)" d="M0,100v320" style="stroke: rgb(255, 255, 255); stroke-opacity: 1; stroke-width: 1px;"/><path class="xgrid crisp" transform="translate(417.22,0)" d="M0,100v320" style="stroke: rgb(255, 255, 255); stroke-opacity: 1; stroke-width: 1px;"/><path class="xgrid crisp" transform="translate(528.6600000000001,0)" d="M0,100v320" style="stroke: rgb(255, 255, 255); stroke-opacity: 1; stroke-width: 1px;"/></g><g class="y"><path class="ygrid crisp" transform="translate(0,392.55)" d="M80,0h537" style="stroke: rgb(255, 255, 255); stroke-opacity: 1; stroke-width: 1px;"/><path class="ygrid crisp" transform="translate(0,349.77)" d="M80,0h537" style="stroke: rgb(255, 255, 255); stroke-opacity: 1; stroke-width: 1px;"/><path class="ygrid crisp" transform="translate(0,306.99)" d="M80,0h537" style="stroke: rgb(255, 255, 255); stroke-opacity: 1; stroke-width: 1px;"/><path class="ygrid crisp" transform="translate(0,264.21000000000004)" d="M80,0h537" style="stroke: rgb(255, 255, 255); stroke-opacity: 1; stroke-width: 1px;"/><path class="ygrid crisp" transform="translate(0,221.43)" d="M80,0h537" style="stroke: rgb(255, 255, 255); stroke-opacity: 1; stroke-width: 1px;"/><path class="ygrid crisp" transform="translate(0,178.65)" d="M80,0h537" style="stroke: rgb(255, 255, 255); stroke-opacity: 1; stroke-width: 1px;"/><path class="ygrid crisp" transform="translate(0,135.87)" d="M80,0h537" style="stroke: rgb(255, 255, 255); stroke-opacity: 1; stroke-width: 1px;"/></g></g><g class="zerolinelayer"/><path class="xlines-below"/><path class="ylines-below"/><g class="overlines-below"/><g class="xaxislayer-below"/><g class="yaxislayer-below"/><g class="overaxes-below"/><g class="plot" transform="translate(80,100)" clip-path="url('#clipbe4c91xyplot')"><g class="scatterlayer mlayer"><g class="trace scatter trace16d3ba" style="stroke-miterlimit: 2; opacity: 1;"><g class="fills"/><g class="errorbars"/><g class="lines"><path class="js-line" d="M0,304L2.23,302.59L3.01,249.74L3.78,251.04L4.55,249.35L7.65,248.71L8.42,248.32L9.97,249.1L10.75,248.19L12.29,248.58L13.07,248.19L14.61,247.93L15.39,247.67L16.93,247.41L17.71,247.16L23.9,246.77L24.67,246.51L29.32,246.12L30.09,245.73L31.64,245.86L32.41,245.22L33.96,245.09L34.73,244.44L35.51,244.96L36.28,244.57L37.05,243.66L37.83,243.92L38.6,244.57L39.38,243.02L41.7,242.11L42.47,242.63L43.25,242.24L44.02,243.15L45.57,240.17L46.34,240.69L47.11,240.69L47.89,239.78L50.99,237.84L51.76,236.94L53.3,238.23L54.08,237.07L54.85,235L55.63,235.51L56.4,236.55L57.17,235L58.72,232.67L59.5,232.28L61.05,230.6L61.82,231.12L63.36,229.95L64.14,230.21L64.91,231.76L65.69,229.56L68.01,230.6L68.79,230.21L71.11,226.07L71.88,226.85L73.43,225.68L74.2,227.36L74.98,227.11L75.75,225.55L78.85,221.16L79.62,218.44L80.39,219.09L81.17,217.66L81.94,216.63L82.72,217.4L84.26,217.66L85.04,218.7L88.14,216.5L88.91,216.37L90.46,215.72L91.23,214.69L92,214.3L92.78,214.82L94.32,215.98L95.1,214.43L97.42,213.39L98.2,212.88L99.74,212.23L100.52,211.45L102.84,212.23L103.61,211.84L105.16,211.58L105.94,211.84L107.48,210.42L108.26,208.87L109.8,207.7L110.58,206.93L112.12,207.96L112.9,207.44L113.67,207.96L114.45,142.27L116.77,140.18L117.54,140.44L119.09,139.92L119.86,139.01L121.41,139.14L122.19,139.14L125.28,138.48L126.05,138.35L128.37,137.83L129.15,137.96L136.11,137.96L136.89,138.09L142.3,137.83L143.08,137.18L145.4,137.18L146.17,136.14L149.27,136.27L150.04,135.74L151.59,135.88L152.36,135.22L153.91,134.57L154.69,135.22L157.78,132.22L158.56,133.27L160.88,131.57L161.65,132.22L164.75,128.44L165.52,130.14L168.61,127.14L169.39,128.05L170.94,126.48L171.71,127.66L172.48,128.7L173.26,127.79L174.03,128.83L174.81,128.31L175.58,127.4L176.35,128.44L177.13,127.79L177.9,128.18L180.22,128.83L181,128.44L184.1,124.79L184.88,124.92L186.43,125.96L187.2,124.01L190.3,123.09L191.07,121.4L194.17,121.92L194.94,120.61L195.71,118.4L196.49,119.96L197.27,119.96L198.04,118.79L198.81,119.7L199.58,119.18L201.13,117.35L201.91,117.48L204.23,114.35L205,114.48L206.55,112.14L207.32,112.92L208.87,110.83L209.65,111.35L211.97,110.7L212.74,108.09L213.51,107.96L214.28,106.92L215.06,105.48L215.84,105.74L216.61,106L217.38,107.18L218.16,107.83L218.93,107.18L219.71,109.13L220.48,108.35L221.25,108.22L222.02,106.66L222.8,106.27L223.58,106.79L225.12,107.05L225.9,61.25L227.44,59.41L228.22,59.15L230.54,57.57L231.31,57.17L232.86,57.04L233.63,56.78L236.73,55.46L237.5,54.54L239.05,54.28L239.83,54.81L242.92,53.75L243.69,53.62L245.24,53.62L246.02,53.75L258.4,51.78L259.17,52.18L261.49,51.12L262.26,51.25L263.04,51.52L263.81,50.73L268.46,50.07L270,49.54L270.78,48.23L272.32,47.83L273.87,47.44L274.65,45.73L275.42,46.91L276.2,45.73L277.74,45.73L278.52,45.07L279.29,44.94L280.06,43.76L282.38,43.49L283.16,41.91L284.71,40.2L285.48,39.42L286.23,38.1L287,38.76L289.32,37.71L290.1,36L293.2,35.34L293.97,33.36L294.74,32.71L295.51,33.23L297.06,32.44L297.84,32.05L298.61,31.92L299.39,30.86L300.93,30.86L301.7,31.39L303.25,32.97L304.03,31.13L305.58,32.31L306.36,30.34L307.9,30.47L308.68,30.86L311,29.02L311.77,29.42L313.32,27.71L314.09,26.66L314.87,24.16L315.64,24.68L316.41,23.24L317.19,24.68L318.74,22.84L319.51,22.58L320.28,21.26L321.05,21.66L322.6,21.79L323.37,20.74L324.15,21.26L324.93,19.68L326.47,19.55L327.25,18.5L330.34,18.89L331.11,17.97L331.89,17.45L332.67,17.84L333.44,17.97L334.21,17.05L334.99,16L335.76,16.66L336.54,16.39L337.31,171.81L341.18,171.4L341.96,172.08L344.28,170.99L345.05,170.99L346.6,169.76L347.37,169.76L348.92,168.94L349.69,169.08L362.85,168.39L363.62,167.98L373.68,165.8L374.45,165.12L378.32,164.02L379.1,162.66L382.22,162.38L382.99,163.61L384.54,161.7L385.31,161.57L386.09,160.88L386.86,158.43L387.63,156.51L388.41,156.79L389.19,156.1L389.95,154.33L390.73,154.88L391.5,154.19L393.05,154.33L393.83,153.37L395.37,152.69L396.15,153.65L398.47,150.92L399.24,151.87L401.57,149.14L402.34,149.14L403.11,148.32L403.89,149.41L405.44,150.37L406.21,149.41L406.98,149.55L407.76,148.73L410.86,145.18L411.63,144.5L413.95,143.54L414.72,145.04L419.37,141.9L420.14,143.68L420.92,121.97L421.69,121.97L424.01,120.88L424.79,116.1L425.56,116.24L426.33,112.28L427.11,112.55L427.88,109.96L428.65,106.95L429.43,107.91L431.75,101.22L432.53,98.08L434.07,97.53L434.85,95.35L435.62,94.8L436.4,92.07L437.94,89.34L438.71,89.34L440.27,85.93L441.03,85.65L443.36,82.78L444.13,80.19L448,75L448.78,88.44L452.65,84.03L453.42,84.45L454.2,84.31L454.97,85.14L456.52,84.72L457.29,85.41L458.84,84.59L459.61,84.45L461.16,84.03L461.93,84.03L463.48,84.17L464.26,83.62L469.67,84.03L470.45,83.62L475.09,83.21L475.86,83.48L478.95,83.48L479.73,83.35L481.28,83.35L482.05,83.35L484.37,83.35L485.15,83.9L489.02,79.9L489.79,80.18L492.11,78.8L492.89,78.94L493.66,78.53L494.43,76.87L495.98,77.15L496.75,75.63L500.63,72.47L501.4,72.88L502.95,69.99L503.72,69.44L505.27,68.06L506.04,66.27L507.59,66.41L508.36,64.2L510.69,63.1L511.46,61.86L514.56,54.29L515.33,54.43L516.88,53.6L517.65,51.4L520.75,49.47L521.52,47.82L526.17,46.85L526.94,45.75L527.71,46.16L528.49,45.48L529.26,45.89L535.45,41.21L537,39.97" style="vector-effect: non-scaling-stroke; fill: none; stroke: rgb(99, 110, 250); stroke-opacity: 1; stroke-width: 2px; opacity: 1;"/></g><g class="points"/><g class="text"/></g></g></g><g class="overplot"/><path class="xlines-above crisp" style="fill: none;" d="M0,0"/><path class="ylines-above crisp" style="fill: none;" d="M0,0"/><g class="overlines-above"/><g class="xaxislayer-above"><g class="xtick"><text text-anchor="middle" x="0" y="433" transform="translate(82.89,0)" style="font-family: 'Open Sans', verdana, arial, sans-serif; font-size: 12px; fill: rgb(42, 63, 95); fill-opacity: 1; white-space: pre;"><tspan class="line" dy="0em" x="0" y="433">Aug 3</tspan><tspan class="line" dy="1.3em" x="0" y="433">2021</tspan></text></g><g class="xtick"><text text-anchor="middle" x="0" y="433" transform="translate(194.32999999999998,0)" style="font-family: 'Open Sans', verdana, arial, sans-serif; font-size: 12px; fill: rgb(42, 63, 95); fill-opacity: 1; white-space: pre;">Aug 4</text></g><g class="xtick"><text text-anchor="middle" x="0" y="433" transform="translate(305.77,0)" style="font-family: 'Open Sans', verdana, arial, sans-serif; font-size: 12px; fill: rgb(42, 63, 95); fill-opacity: 1; white-space: pre;">Aug 5</text></g><g class="xtick"><text text-anchor="middle" x="0" y="433" transform="translate(417.22,0)" style="font-family: 'Open Sans', verdana, arial, sans-serif; font-size: 12px; fill: rgb(42, 63, 95); fill-opacity: 1; white-space: pre;">Aug 6</text></g><g class="xtick"><text text-anchor="middle" x="0" y="433" transform="translate(528.6600000000001,0)" style="font-family: 'Open Sans', verdana, arial, sans-serif; font-size: 12px; fill: rgb(42, 63, 95); fill-opacity: 1; white-space: pre;">Aug 7</text></g></g><g class="yaxislayer-above"><g class="ytick"><text text-anchor="end" x="79" y="4.199999999999999" transform="translate(0,392.55)" style="font-family: 'Open Sans', verdana, arial, sans-serif; font-size: 12px; fill: rgb(42, 63, 95); fill-opacity: 1; white-space: pre;">0.864</text></g><g class="ytick"><text text-anchor="end" x="79" y="4.199999999999999" transform="translate(0,349.77)" style="font-family: 'Open Sans', verdana, arial, sans-serif; font-size: 12px; fill: rgb(42, 63, 95); fill-opacity: 1; white-space: pre;">0.865</text></g><g class="ytick"><text text-anchor="end" x="79" y="4.199999999999999" transform="translate(0,306.99)" style="font-family: 'Open Sans', verdana, arial, sans-serif; font-size: 12px; fill: rgb(42, 63, 95); fill-opacity: 1; white-space: pre;">0.866</text></g><g class="ytick"><text text-anchor="end" x="79" y="4.199999999999999" transform="translate(0,264.21000000000004)" style="font-family: 'Open Sans', verdana, arial, sans-serif; font-size: 12px; fill: rgb(42, 63, 95); fill-opacity: 1; white-space: pre;">0.867</text></g><g class="ytick"><text text-anchor="end" x="79" y="4.199999999999999" transform="translate(0,221.43)" style="font-family: 'Open Sans', verdana, arial, sans-serif; font-size: 12px; fill: rgb(42, 63, 95); fill-opacity: 1; white-space: pre;">0.868</text></g><g class="ytick"><text text-anchor="end" x="79" y="4.199999999999999" transform="translate(0,178.65)" style="font-family: 'Open Sans', verdana, arial, sans-serif; font-size: 12px; fill: rgb(42, 63, 95); fill-opacity: 1; white-space: pre;">0.869</text></g><g class="ytick"><text text-anchor="end" x="79" y="4.199999999999999" transform="translate(0,135.87)" style="font-family: 'Open Sans', verdana, arial, sans-serif; font-size: 12px; fill: rgb(42, 63, 95); fill-opacity: 1; white-space: pre;">0.87</text></g></g><g class="overaxes-above"/></g></g><g class="polarlayer"/><g class="ternarylayer"/><g class="geolayer"/><g class="funnelarealayer"/><g class="pielayer"/><g class="treemaplayer"/><g class="sunburstlayer"/><g class="glimages"/><defs id="topdefs-be4c91"><g class="clips"/><clipPath id="legendbe4c91"><rect width="60" height="45" x="0" y="0"/></clipPath></defs><g class="layer-above"><g class="imagelayer"/><g class="shapelayer"/></g><g class="infolayer"><g class="legend" pointer-events="all" transform="translate(627.74,100)"><rect class="bg" shape-rendering="crispEdges" style="stroke: rgb(68, 68, 68); stroke-opacity: 1; fill: rgb(255, 255, 255); fill-opacity: 1; stroke-width: 0px;" width="60" height="45" x="0" y="0"/><g class="scrollbox" transform="" clip-path="url('#legendbe4c91')"><text class="legendtitletext" text-anchor="start" x="2" y="15.600000000000001" style="font-family: 'Open Sans', verdana, arial, sans-serif; font-size: 12px; fill: rgb(42, 63, 95); fill-opacity: 1; white-space: pre;">All</text><g class="groups" transform=""><g class="traces" transform="translate(0,30.1)" style="opacity: 1;"><text class="legendtext" text-anchor="start" x="40" y="4.680000000000001" style="font-family: 'Open Sans', verdana, arial, sans-serif; font-size: 12px; fill: rgb(42, 63, 95); fill-opacity: 1; white-space: pre;">All</text><g class="layers" style="opacity: 1;"><g class="legendfill"/><g class="legendlines"><path class="js-line" d="M5,0h30" style="fill: none; stroke: rgb(99, 110, 250); stroke-opacity: 1; stroke-width: 2px;"/></g><g class="legendsymbols"><g class="legendpoints"/></g></g><rect class="legendtoggle" x="0" y="-9.5" width="54.890625" height="19" style="fill: rgb(0, 0, 0); fill-opacity: 0;"/></g></g></g><rect class="scrollbar" rx="20" ry="3" width="0" height="0" x="0" y="0" style="fill: rgb(128, 139, 164); fill-opacity: 1;"/></g><g class="g-gtitle"><text class="gtitle" x="35" y="50" text-anchor="start" dy="0em" style="font-family: 'Open Sans', verdana, arial, sans-serif; font-size: 17px; fill: rgb(42, 63, 95); opacity: 1; font-weight: normal; white-space: pre;">Singapore Vaccination Centers</text></g><g class="g-xtitle"><text class="xtitle" x="348.5" y="476.409375" text-anchor="middle" style="font-family: 'Open Sans', verdana, arial, sans-serif; font-size: 14px; fill: rgb(42, 63, 95); opacity: 1; font-weight: normal; white-space: pre;">Time</text></g><g class="g-ytitle"><text class="ytitle" transform="rotate(-90,19.840625000000003,260)" x="19.840625000000003" y="260" text-anchor="middle" style="font-family: 'Open Sans', verdana, arial, sans-serif; font-size: 14px; fill: rgb(42, 63, 95); opacity: 1; font-weight: normal; white-space: pre;">Filled/%</text></g></g></svg>