<svg class="main-svg" xmlns="http://www.w3.org/2000/svg" xmlns:xlink="http://www.w3.org/1999/xlink" width="700" height="500" style="" viewBox="0 0 700 500"><rect x="0" y="0" width="700" height="500" style="fill: rgb(255, 255, 255); fill-opacity: 1;"/><defs id="defs-717d61"><g class="clips"><clipPath id="clip717d61xyplot" class="plotclip"><rect width="537" height="320"/></clipPath><clipPath class="axesclip" id="clip717d61x"><rect x="80" y="0" width="537" height="500"/></clipPath><clipPath class="axesclip" id="clip717d61y"><rect x="0" y="100" width="700" height="320"/></clipPath><clipPath class="axesclip" id="clip717d61xy"><rect x="80" y="100" width="537" height="320"/></clipPath></g><g class="gradients"/></defs><g class="bglayer"><rect class="bg" x="80" y="100" width="537" height="320" style="fill: rgb(229, 236, 246); fill-opacity: 1; stroke-width: 0;"/></g><g class="layer-below"><g class="imagelayer"/><g class="shapelayer"/></g><g class="cartesianlayer"><g class="subplot xy"><g class="layer-subplot"><g class="shapelayer"/><g class="imagelayer"/></g><g class="gridlayer"><g class="x"><path class="xgrid crisp" transform="translate(82.13,0)" d="M0,100v320" style="stroke: rgb(255, 255, 255); stroke-opacity: 1; stroke-width: 1px;"/><path class="xgrid crisp" transform="translate(164.05,0)" d="M0,100v320" style="stroke: rgb(255, 255, 255); stroke-opacity: 1; stroke-width: 1px;"/><path class="xgrid crisp" transform="translate(245.98,0)" d="M0,100v320" style="stroke: rgb(255, 255, 255); stroke-opacity: 1; stroke-width: 1px;"/><path class="xgrid crisp" transform="translate(327.9,0)" d="M0,100v320" style="stroke: rgb(255, 255, 255); stroke-opacity: 1; stroke-width: 1px;"/><path class="xgrid crisp" transform="translate(409.83,0)" d="M0,100v320" style="stroke: rgb(255, 255, 255); stroke-opacity: 1; stroke-width: 1px;"/><path class="xgrid crisp" transform="translate(491.75,0)" d="M0,100v320" style="stroke: rgb(255, 255, 255); stroke-opacity: 1; stroke-width: 1px;"/><path class="xgrid crisp" transform="translate(573.6800000000001,0)" d="M0,100v320" style="stroke: rgb(255, 255, 255); stroke-opacity: 1; stroke-width: 1px;"/></g><g class="y"><path class="ygrid crisp" transform="translate(0,393.54)" d="M80,0h537" style="stroke: rgb(255, 255, 255); stroke-opacity: 1; stroke-width: 1px;"/><path class="ygrid crisp" transform="translate(0,354.47)" d="M80,0h537" style="stroke: rgb(255, 255, 255); stroke-opacity: 1; stroke-width: 1px;"/><path class="ygrid crisp" transform="translate(0,315.4)" d="M80,0h537" style="stroke: rgb(255, 255, 255); stroke-opacity: 1; stroke-width: 1px;"/><path class="ygrid crisp" transform="translate(0,276.33000000000004)" d="M80,0h537" style="stroke: rgb(255, 255, 255); stroke-opacity: 1; stroke-width: 1px;"/><path class="ygrid crisp" transform="translate(0,237.26)" d="M80,0h537" style="stroke: rgb(255, 255, 255); stroke-opacity: 1; stroke-width: 1px;"/><path class="ygrid crisp" transform="translate(0,198.19)" d="M80,0h537" style="stroke: rgb(255, 255, 255); stroke-opacity: 1; stroke-width: 1px;"/><path class="ygrid crisp" transform="translate(0,159.12)" d="M80,0h537" style="stroke: rgb(255, 255, 255); stroke-opacity: 1; stroke-width: 1px;"/><path class="ygrid crisp" transform="translate(0,120.05)" d="M80,0h537" style="stroke: rgb(255, 255, 255); stroke-opacity: 1; stroke-width: 1px;"/></g></g><g class="zerolinelayer"/><path class="xlines-below"/><path class="ylines-below"/><g class="overlines-below"/><g class="xaxislayer-below"/><g class="yaxislayer-below"/><g class="overaxes-below"/><g class="plot" transform="translate(80,100)" clip-path="url('#clip717d61xyplot')"><g class="scatterlayer mlayer"><g class="trace scatter tracef63eeb" style="stroke-miterlimit: 2; opacity: 1;"><g class="fills"/><g class="errorbars"/><g class="lines"><path class="js-line" d="M0,304L1.64,302.71L2.21,254.45L2.78,255.63L3.35,254.09L5.62,253.5L6.19,253.15L7.33,253.86L7.9,253.03L9.04,253.38L9.61,253.03L10.74,252.79L11.31,252.56L12.45,252.32L13.02,252.08L20.41,251.73L20.98,251.26L24.96,250.19L25.53,249.6L26.67,249.72L27.24,248.89L28.38,249.72L28.95,248.3L30.65,247.48L31.22,247.95L31.79,247.6L32.36,248.42L33.5,245.71L34.07,246.18L34.64,246.18L36.34,245L36.91,244.29L38.05,242.75L38.62,243.7L39.19,243.93L39.76,242.87L40.32,240.98L40.89,241.45L41.46,242.4L43.74,238.5L44.31,237.67L46.01,236.73L46.58,236.37L47.15,236.61L47.72,238.03L48.29,236.02L48.86,236.37L49.43,236.14L50.57,236.61L51.14,234.72L52.27,232.83L52.84,233.54L53.98,232.47L54.55,234.01L55.12,233.77L55.69,232.36L57.96,228.34L58.53,225.86L59.1,226.45L59.67,225.15L60.24,224.2L60.81,224.91L61.95,225.15L62.51,226.09L65.36,223.97L65.93,223.73L68.2,222.55L68.77,223.61L69.34,223.61L69.91,222.2L72.19,220.78L72.76,220.66L74.46,219.83L75.03,219.71L76.17,219.83L76.74,219.48L78.44,219.36L79.01,218.53L80.72,216.05L81.29,215.34L82.43,216.29L82.99,215.82L83.56,216.29L84.13,156.29L86.41,154.62L86.98,154.5L89.25,153.43L89.83,153.43L92.67,152.72L93.24,152.36L97.79,151.76L98.36,152.12L102.91,152.36L103.48,152.24L106.32,151.64L106.89,151.64L108.03,150.81L108.6,151.17L109.73,150.81L110.3,150.33L111.44,150.45L112.01,149.86L113.72,149.86L114.28,148.9L115.99,147.12L116.56,148.07L118.27,146.52L118.84,147.12L121.11,143.66L121.68,145.21L123.96,142.47L124.53,143.3L125.66,141.88L126.23,142.95L126.8,143.9L127.37,143.07L127.94,144.02L128.51,143.54L129.07,142.71L129.64,143.66L130.21,143.07L132.49,144.02L133.06,143.66L135.34,140.33L135.91,140.45L137.05,141.4L137.62,139.61L139.9,138.78L140.47,137.23L142.74,137.71L143.31,136.51L143.88,134.49L144.45,135.92L145.02,135.92L145.59,134.85L146.15,135.68L146.72,135.2L147.29,134.13L149.57,131.75L150.14,130.8L150.71,130.92L151.27,129.96L151.84,128.77L152.41,129.49L153.55,127.58L154.12,128.06L154.69,127.7L155.82,127.46L156.39,125.08L156.96,124.96L157.53,124.01L158.67,122.93L159.24,123.17L160.38,124.84L160.95,124.24L161.52,126.03L162.08,125.32L162.65,125.2L163.79,123.41L164.36,123.89L165.5,124.12L166.07,82.3L167.77,80.38L168.34,80.14L173.46,77.13L174.03,77.01L175.17,75.93L175.74,75.93L176.87,76.05L177.44,75.45L185.41,74.25L185.98,74.49L189.39,73.41L189.96,73.65L191.1,73.53L191.67,73.65L192.8,73.17L193.37,73.41L194.51,72.69L195.08,72.57L195.65,72.09L197.35,72.09L198.49,71.61L199.06,70.41L201.33,69.68L201.9,68.12L202.47,69.2L203.04,68.12L204.18,68.12L204.75,67.52L205.32,67.4L205.89,66.32L207.59,66.08L208.16,64.64L210.42,61.15L210.99,61.76L212.69,60.79L213.26,59.23L215.54,58.63L216.11,56.83L217.25,56.71L217.82,56.59L220.66,54.31L221.23,54.55L222.93,56.47L223.51,54.79L224.64,55.87L225.22,54.07L226.35,54.19L226.92,54.55L229.2,53.23L229.76,52.75L232.61,47.58L233.18,48.9L234.32,47.22L234.89,46.98L235.45,45.78L236.02,46.14L236.59,46.26L237.16,46.26L237.73,45.3L238.3,45.78L238.87,44.34L240,44.22L240.57,43.25L242.85,43.61L243.42,42.77L244.56,42.65L245.13,42.77L246.26,40.97L246.83,41.57L247.4,41.33L247.97,183.27L252.52,182.89L253.09,182.52L253.66,182.52L254.23,181.52L261.05,180.28L261.63,180.4L267.88,179.65L268.45,179.53L272.43,178.53L273,178.78L274.7,177.78L275.28,177.16L278.12,176.16L278.69,174.91L280.99,174.66L281.55,175.79L282.69,174.04L283.26,173.92L283.83,173.29L284.4,171.05L284.97,169.3L285.54,169.55L286.11,168.93L286.67,167.31L287.24,167.81L287.81,167.18L288.95,167.31L289.52,166.43L290.66,165.81L291.23,166.68L292.93,164.19L293.5,165.06L295.21,162.57L295.78,162.57L296.34,161.82L296.92,162.82L298.05,163.69L298.62,162.82L299.19,162.94L299.76,162.19L302.61,158.33L303.17,157.83L304.31,157.46L304.88,158.83L308.29,155.96L308.86,157.58L310,137.75L310.57,137.38L311.71,136.76L312.28,132.39L312.84,132.52L313.41,128.9L313.98,129.15L314.55,126.78L315.12,124.04L315.69,124.91L316.26,123.29L316.83,122.04L317.4,118.8L318.54,115.93L319.11,115.43L321.95,107.95L322.52,107.95L324.22,104.58L324.79,103.71L329.35,94.86L329.91,107.13L332.76,103.11L333.33,103.48L333.9,103.36L334.47,104.11L335.61,103.74L336.17,104.36L337.88,103.48L338.45,103.61L339.59,103.11L340.16,103.23L348.12,102.6L348.69,102.23L353.24,102.73L353.81,102.48L357.22,102.35L357.79,101.85L359.5,99.33L360.06,99.59L361.77,98.33L362.34,98.45L362.91,98.08L363.48,96.57L364.61,96.82L365.18,95.44L368.03,92.54L368.6,92.92L370.31,89.78L370.87,89.4L372.58,87.01L373.15,87.01L374.29,84.62L374.85,84.62L376,82.86L376.56,80.85L378.84,76.07L379.41,75.69L379.98,75.31L380.55,73.3L382.82,71.54L383.39,70.03L386.81,69.15L387.37,68.14L387.94,68.52L388.51,67.89L389.08,68.27L393.63,63.99L396.48,61.6L397.05,62.23L399.32,59.21L399.89,59.09L400.46,57.83L401.03,58.33L401.6,57.7L402.74,57.58L403.31,58.58L404.45,57.45L405.01,57.33L406.15,56.45L406.72,57.33L408.99,56.7L409.56,55.69L411.27,53.55L411.84,100.57L412.98,100.96L413.55,99.93L414.11,99.29L414.68,99.8L416.39,99.8L416.96,100.7L419.24,100.45L419.8,100.57L421.51,100.7L422.08,100.7L424.93,99.29L425.5,99.68L431.18,99.04L431.75,99.04L438.01,98.78L438.58,98.65L441.42,98.27L441.99,97.88L443.13,97.37L443.7,96.47L444.83,96.09L445.4,94.81L445.97,93.53L446.54,94.81L448.82,93.91L449.39,93.91L450.53,91.99L451.09,91.73L452.8,89.04L453.37,88.92L455.07,88.53L455.64,87.76L456.78,87.12L457.35,87.25L458.49,85.84L459.06,85.2L461.34,84.3L461.9,84.69L462.47,84.18L463.04,84.82L464.18,81.61L464.75,81.87L465.32,81.87L467.02,81.36L467.59,80.2L470.44,77.9L471.01,78.15L474.42,75.85L474.99,74.95L475.56,75.34L476.13,74.57L477.27,74.7L477.83,74.57L478.97,73.8L479.54,73.03L481.24,72.01L481.82,70.6L484.09,69.19L484.66,67.52L485.8,65.73L486.37,66.37L491.49,63.29L492.06,63.04L493.2,63.29L493.77,32.02L498.32,28.66L498.88,28.79L500.59,28.54L501.16,28.15L503.44,28.92L504.01,28.92L508.56,28.66L509.13,28.54L518.8,28.54L519.37,28.92L521.64,28.41L522.21,28.54L522.78,27.63L523.35,28.79L524.48,27.89L525.05,26.98L527.33,25.82L527.9,26.21L529.6,24.4L530.17,24.66L530.74,23.88L531.31,21.69L531.88,21.69L532.45,20.65L533.02,21.3L533.59,20.52L534.73,18.97L535.29,17.42L535.86,16.78L536.43,17.81L537,16" style="vector-effect: non-scaling-stroke; fill: none; stroke: rgb(99, 110, 250); stroke-opacity: 1; stroke-width: 2px; opacity: 1;"/></g><g class="points"/><g class="text"/></g></g></g><g class="overplot"/><path class="xlines-above crisp" d="M0,0" style="fill: none;"/><path class="ylines-above crisp" d="M0,0" style="fill: none;"/><g class="overlines-above"/><g class="xaxislayer-above"><g class="xtick"><text text-anchor="middle" x="0" y="433" transform="translate(82.13,0)" style="font-family: 'Open Sans', verdana, arial, sans-serif; font-size: 12px; fill: rgb(42, 63, 95); fill-opacity: 1; white-space: pre;"><tspan class="line" dy="0em" x="0" y="433">Aug 3</tspan><tspan class="line" dy="1.3em" x="0" y="433">2021</tspan></text></g><g class="xtick"><text text-anchor="middle" x="0" y="433" transform="translate(164.05,0)" style="font-family: 'Open Sans', verdana, arial, sans-serif; font-size: 12px; fill: rgb(42, 63, 95); fill-opacity: 1; white-space: pre;">Aug 4</text></g><g class="xtick"><text text-anchor="middle" x="0" y="433" transform="translate(245.98,0)" style="font-family: 'Open Sans', verdana, arial, sans-serif; font-size: 12px; fill: rgb(42, 63, 95); fill-opacity: 1; white-space: pre;">Aug 5</text></g><g class="xtick"><text text-anchor="middle" x="0" y="433" transform="translate(327.9,0)" style="font-family: 'Open Sans', verdana, arial, sans-serif; font-size: 12px; fill: rgb(42, 63, 95); fill-opacity: 1; white-space: pre;">Aug 6</text></g><g class="xtick"><text text-anchor="middle" x="0" y="433" transform="translate(409.83,0)" style="font-family: 'Open Sans', verdana, arial, sans-serif; font-size: 12px; fill: rgb(42, 63, 95); fill-opacity: 1; white-space: pre;">Aug 7</text></g><g class="xtick"><text text-anchor="middle" x="0" y="433" transform="translate(491.75,0)" style="font-family: 'Open Sans', verdana, arial, sans-serif; font-size: 12px; fill: rgb(42, 63, 95); fill-opacity: 1; white-space: pre;">Aug 8</text></g><g class="xtick"><text text-anchor="middle" x="0" y="433" transform="translate(573.6800000000001,0)" style="font-family: 'Open Sans', verdana, arial, sans-serif; font-size: 12px; fill: rgb(42, 63, 95); fill-opacity: 1; white-space: pre;">Aug 9</text></g></g><g class="yaxislayer-above"><g class="ytick"><text text-anchor="end" x="79" y="4.199999999999999" transform="translate(0,393.54)" style="font-family: 'Open Sans', verdana, arial, sans-serif; font-size: 12px; fill: rgb(42, 63, 95); fill-opacity: 1; white-space: pre;">0.864</text></g><g class="ytick"><text text-anchor="end" x="79" y="4.199999999999999" transform="translate(0,354.47)" style="font-family: 'Open Sans', verdana, arial, sans-serif; font-size: 12px; fill: rgb(42, 63, 95); fill-opacity: 1; white-space: pre;">0.865</text></g><g class="ytick"><text text-anchor="end" x="79" y="4.199999999999999" transform="translate(0,315.4)" style="font-family: 'Open Sans', verdana, arial, sans-serif; font-size: 12px; fill: rgb(42, 63, 95); fill-opacity: 1; white-space: pre;">0.866</text></g><g class="ytick"><text text-anchor="end" x="79" y="4.199999999999999" transform="translate(0,276.33000000000004)" style="font-family: 'Open Sans', verdana, arial, sans-serif; font-size: 12px; fill: rgb(42, 63, 95); fill-opacity: 1; white-space: pre;">0.867</text></g><g class="ytick"><text text-anchor="end" x="79" y="4.199999999999999" transform="translate(0,237.26)" style="font-family: 'Open Sans', verdana, arial, sans-serif; font-size: 12px; fill: rgb(42, 63, 95); fill-opacity: 1; white-space: pre;">0.868</text></g><g class="ytick"><text text-anchor="end" x="79" y="4.199999999999999" transform="translate(0,198.19)" style="font-family: 'Open Sans', verdana, arial, sans-serif; font-size: 12px; fill: rgb(42, 63, 95); fill-opacity: 1; white-space: pre;">0.869</text></g><g class="ytick"><text text-anchor="end" x="79" y="4.199999999999999" transform="translate(0,159.12)" style="font-family: 'Open Sans', verdana, arial, sans-serif; font-size: 12px; fill: rgb(42, 63, 95); fill-opacity: 1; white-space: pre;">0.87</text></g><g class="ytick"><text text-anchor="end" x="79" y="4.199999999999999" transform="translate(0,120.05)" style="font-family: 'Open Sans', verdana, arial, sans-serif; font-size: 12px; fill: rgb(42, 63, 95); fill-opacity: 1; white-space: pre;">0.871</text></g></g><g class="overaxes-above"/></g></g><g class="polarlayer"/><g class="ternarylayer"/><g class="geolayer"/><g class="funnelarealayer"/><g class="pielayer"/><g class="treemaplayer"/><g class="sunburstlayer"/><g class="glimages"/><defs id="topdefs-717d61"><g class="clips"/><clipPath id="legend717d61"><rect width="60" height="45" x="0" y="0"/></clipPath></defs><g class="layer-above"><g class="imagelayer"/><g class="shapelayer"/></g><g class="infolayer"><g class="legend" pointer-events="all" transform="translate(627.74,100)"><rect class="bg" shape-rendering="crispEdges" width="60" height="45" x="0" y="0" style="stroke: rgb(68, 68, 68); stroke-opacity: 1; fill: rgb(255, 255, 255); fill-opacity: 1; stroke-width: 0px;"/><g class="scrollbox" transform="" clip-path="url('#legend717d61')"><text class="legendtitletext" text-anchor="start" x="2" y="15.600000000000001" style="font-family: 'Open Sans', verdana, arial, sans-serif; font-size: 12px; fill: rgb(42, 63, 95); fill-opacity: 1; white-space: pre;">All</text><g class="groups" transform=""><g class="traces" transform="translate(0,30.1)" style="opacity: 1;"><text class="legendtext" text-anchor="start" x="40" y="4.680000000000001" style="font-family: 'Open Sans', verdana, arial, sans-serif; font-size: 12px; fill: rgb(42, 63, 95); fill-opacity: 1; white-space: pre;">All</text><g class="layers" style="opacity: 1;"><g class="legendfill"/><g class="legendlines"><path class="js-line" d="M5,0h30" style="fill: none; stroke: rgb(99, 110, 250); stroke-opacity: 1; stroke-width: 2px;"/></g><g class="legendsymbols"><g class="legendpoints"/></g></g><rect class="legendtoggle" x="0" y="-9.5" width="54.890625" height="19" style="fill: rgb(0, 0, 0); fill-opacity: 0;"/></g></g></g><rect class="scrollbar" rx="20" ry="3" width="0" height="0" x="0" y="0" style="fill: rgb(128, 139, 164); fill-opacity: 1;"/></g><g class="g-gtitle"><text class="gtitle" x="35" y="50" text-anchor="start" dy="0em" style="font-family: 'Open Sans', verdana, arial, sans-serif; font-size: 17px; fill: rgb(42, 63, 95); opacity: 1; font-weight: normal; white-space: pre;">Singapore Vaccination Centers</text></g><g class="g-xtitle"><text class="xtitle" x="348.5" y="476.409375" text-anchor="middle" style="font-family: 'Open Sans', verdana, arial, sans-serif; font-size: 14px; fill: rgb(42, 63, 95); opacity: 1; font-weight: normal; white-space: pre;">Time</text></g><g class="g-ytitle"><text class="ytitle" transform="rotate(-90,19.840625000000003,260)" x="19.840625000000003" y="260" text-anchor="middle" style="font-family: 'Open Sans', verdana, arial, sans-serif; font-size: 14px; fill: rgb(42, 63, 95); opacity: 1; font-weight: normal; white-space: pre;">Filled/%</text></g></g></svg>