<svg class="main-svg" xmlns="http://www.w3.org/2000/svg" xmlns:xlink="http://www.w3.org/1999/xlink" width="700" height="500" style="" viewBox="0 0 700 500"><rect x="0" y="0" width="700" height="500" style="fill: rgb(255, 255, 255); fill-opacity: 1;"/><defs id="defs-da54d6"><g class="clips"><clipPath id="clipda54d6xyplot" class="plotclip"><rect width="537" height="320"/></clipPath><clipPath class="axesclip" id="clipda54d6x"><rect x="80" y="0" width="537" height="500"/></clipPath><clipPath class="axesclip" id="clipda54d6y"><rect x="0" y="100" width="700" height="320"/></clipPath><clipPath class="axesclip" id="clipda54d6xy"><rect x="80" y="100" width="537" height="320"/></clipPath></g><g class="gradients"/></defs><g class="bglayer"><rect class="bg" x="80" y="100" width="537" height="320" style="fill: rgb(229, 236, 246); fill-opacity: 1; stroke-width: 0;"/></g><g class="layer-below"><g class="imagelayer"/><g class="shapelayer"/></g><g class="cartesianlayer"><g class="subplot xy"><g class="layer-subplot"><g class="shapelayer"/><g class="imagelayer"/></g><g class="gridlayer"><g class="x"><path class="xgrid crisp" transform="translate(84.26,0)" d="M0,100v320" style="stroke: rgb(255, 255, 255); stroke-opacity: 1; stroke-width: 1px;"/><path class="xgrid crisp" transform="translate(166.38,0)" d="M0,100v320" style="stroke: rgb(255, 255, 255); stroke-opacity: 1; stroke-width: 1px;"/><path class="xgrid crisp" transform="translate(248.49,0)" d="M0,100v320" style="stroke: rgb(255, 255, 255); stroke-opacity: 1; stroke-width: 1px;"/><path class="xgrid crisp" transform="translate(330.6,0)" d="M0,100v320" style="stroke: rgb(255, 255, 255); stroke-opacity: 1; stroke-width: 1px;"/><path class="xgrid crisp" transform="translate(412.72,0)" d="M0,100v320" style="stroke: rgb(255, 255, 255); stroke-opacity: 1; stroke-width: 1px;"/><path class="xgrid crisp" transform="translate(494.83,0)" d="M0,100v320" style="stroke: rgb(255, 255, 255); stroke-opacity: 1; stroke-width: 1px;"/><path class="xgrid crisp" transform="translate(576.95,0)" d="M0,100v320" style="stroke: rgb(255, 255, 255); stroke-opacity: 1; stroke-width: 1px;"/></g><g class="y"><path class="ygrid crisp" transform="translate(0,392.55)" d="M80,0h537" style="stroke: rgb(255, 255, 255); stroke-opacity: 1; stroke-width: 1px;"/><path class="ygrid crisp" transform="translate(0,349.77)" d="M80,0h537" style="stroke: rgb(255, 255, 255); stroke-opacity: 1; stroke-width: 1px;"/><path class="ygrid crisp" transform="translate(0,306.99)" d="M80,0h537" style="stroke: rgb(255, 255, 255); stroke-opacity: 1; stroke-width: 1px;"/><path class="ygrid crisp" transform="translate(0,264.21000000000004)" d="M80,0h537" style="stroke: rgb(255, 255, 255); stroke-opacity: 1; stroke-width: 1px;"/><path class="ygrid crisp" transform="translate(0,221.43)" d="M80,0h537" style="stroke: rgb(255, 255, 255); stroke-opacity: 1; stroke-width: 1px;"/><path class="ygrid crisp" transform="translate(0,178.65)" d="M80,0h537" style="stroke: rgb(255, 255, 255); stroke-opacity: 1; stroke-width: 1px;"/><path class="ygrid crisp" transform="translate(0,135.87)" d="M80,0h537" style="stroke: rgb(255, 255, 255); stroke-opacity: 1; stroke-width: 1px;"/></g></g><g class="zerolinelayer"/><path class="xlines-below"/><path class="ylines-below"/><g class="overlines-below"/><g class="xaxislayer-below"/><g class="yaxislayer-below"/><g class="overaxes-below"/><g class="plot" transform="translate(80,100)" clip-path="url('#clipda54d6xyplot')"><g class="scatterlayer mlayer"><g class="trace scatter trace37b849" style="stroke-miterlimit: 2; opacity: 1;"><g class="fills"/><g class="errorbars"/><g class="lines"><path class="js-line" d="M0,304L3.29,302.59L4.43,249.74L5.57,251.04L6.71,249.35L11.27,248.71L12.41,248.32L14.69,249.1L15.84,248.19L17,248.84L18.11,248.58L22.67,247.67L23.82,247.93L27.24,247.16L28.38,246.9L32.94,247.29L34.08,246.9L39.78,246.77L40.92,246.77L44.35,245.73L45.49,245.99L50.04,245.09L51.18,244.44L52.33,244.96L53.47,244.57L54.6,243.66L55.75,243.92L56.89,244.57L58.03,243.02L61.45,242.11L62.59,242.63L63.73,242.24L64.87,243.15L66.01,242.24L67.16,240.17L69.43,240.69L70.57,239.78L75.14,237.84L76.28,236.94L78.55,238.23L79.7,237.07L80.83,235L81.98,235.51L83.12,236.55L84.26,235L86.54,232.67L87.68,232.28L89.97,230.6L91.1,231.12L93.38,229.95L94.52,230.21L95.66,231.76L96.8,229.56L100.23,230.6L101.37,230.21L103.65,226.46L104.79,226.07L105.93,226.85L107.07,225.55L108.21,225.68L109.35,227.36L110.49,227.11L111.63,225.55L116.19,221.16L117.33,218.44L118.48,219.09L119.61,217.66L120.76,216.63L121.9,217.4L124.18,217.66L125.31,218.7L129.89,216.5L131.02,216.37L133.3,215.72L134.45,214.69L135.58,214.3L136.72,214.82L137.87,215.98L139,215.98L141.29,213.78L142.42,213.52L145.85,212.75L146.99,212.23L148.13,211.45L149.27,211.84L154.97,211.58L156.11,211.84L158.39,210.42L159.53,208.87L160.67,207.7L161.81,207.7L162.96,206.93L164.1,207.83L167.51,207.96L168.66,142.27L172.08,140.18L173.22,140.44L175.5,139.92L176.64,139.01L178.92,139.14L180.07,139.14L184.62,138.48L185.76,138.35L189.18,137.83L190.32,137.96L200.59,137.96L201.73,138.09L209.71,137.83L210.85,137.18L214.27,137.18L215.41,136.14L219.97,136.27L221.12,135.74L223.39,135.88L224.53,135.22L226.82,134.57L227.96,135.22L231.38,132.22L232.51,132.22L233.66,133.27L234.8,132.88L237.08,131.57L238.22,132.22L241.64,130.14L242.78,128.44L243.92,130.14L245.06,129.35L248.48,127.14L249.63,128.05L251.91,126.48L253.05,127.66L254.19,128.7L255.33,127.79L256.47,128.83L257.61,128.31L258.75,127.4L259.89,128.44L261.03,127.79L262.17,128.18L265.59,128.83L266.73,128.44L269.04,126.48L270.17,125.05L272.45,124.92L273.59,125.44L274.73,125.96L275.88,124.01L280.44,123.09L281.58,121.4L285,122.44L286.14,121.92L288.42,118.4L289.56,119.96L290.71,119.96L291.84,118.79L292.98,119.7L294.12,119.18L296.41,117.35L297.55,117.48L300.97,114.35L302.11,114.48L304.39,112.14L305.53,112.92L307.81,110.83L308.95,111.35L312.37,110.7L313.51,108.09L314.65,107.96L315.79,106.92L316.93,105.48L318.07,105.74L319.21,106L320.35,107.18L321.5,107.83L322.64,107.18L323.78,109.13L324.92,108.35L326.06,108.22L327.19,106.66L328.34,106.27L329.48,106.79L331.76,107.05L332.9,61.25L335.18,59.41L336.32,59.15L339.74,57.57L340.88,57.17L343.16,57.04L344.3,56.78L348.86,55.46L350.01,54.54L352.29,54.28L353.43,54.81L356.85,53.62L357.99,53.75L371.67,52.44L372.81,52.7L377.38,51.78L378.52,52.04L380.8,51.78L381.94,52.18L385.36,51.12L386.49,51.25L387.64,51.52L388.77,50.73L395.62,50.07L397.9,49.54L399.04,48.23L401.32,47.83L403.6,47.44L404.74,45.73L405.88,46.91L407.03,45.73L409.31,45.73L410.44,45.07L411.59,44.94L412.72,43.76L416.14,43.49L417.29,41.91L419.57,40.2L420.71,39.42L421.82,38.1L422.95,38.76L425.23,37.31L426.37,37.71L427.51,36L428.65,35.73L429.79,35.21L430.93,35.6L432.08,35.34L433.21,33.36L434.36,32.71L435.49,33.23L437.78,32.44L438.92,32.05L440.06,31.92L441.2,30.86L443.48,30.86L444.62,31.39L446.9,32.97L448.05,31.13L450.33,32.31L451.48,30.34L453.75,30.47L454.89,30.86L458.31,29.02L459.45,29.42L461.73,27.71L462.87,26.66L464.01,24.16L465.16,24.68L466.29,23.24L467.43,24.68L468.57,23.1L469.72,22.84L470.86,22.58L471.99,21.26L475.42,21.79L476.55,20.74L477.69,21.26L478.84,19.68L481.12,19.55L482.26,18.5L486.82,18.89L487.96,17.97L489.1,17.45L490.24,17.84L491.39,17.97L492.52,17.05L493.67,16L494.8,16.66L495.95,16.39L497.09,171.81L502.79,171.4L503.93,172.08L507.35,170.99L508.49,170.99L510.77,169.76L511.91,169.76L514.19,168.94L515.33,169.08L534.72,168.39L535.86,167.98L537,167.85" style="vector-effect: non-scaling-stroke; fill: none; stroke: rgb(99, 110, 250); stroke-opacity: 1; stroke-width: 2px; opacity: 1;"/></g><g class="points"/><g class="text"/></g></g></g><g class="overplot"/><path class="xlines-above crisp" d="M0,0" style="fill: none;"/><path class="ylines-above crisp" d="M0,0" style="fill: none;"/><g class="overlines-above"/><g class="xaxislayer-above"><g class="xtick"><text text-anchor="middle" x="0" y="433" transform="translate(84.26,0)" style="font-family: 'Open Sans', verdana, arial, sans-serif; font-size: 12px; fill: rgb(42, 63, 95); fill-opacity: 1; white-space: pre;"><tspan class="line" dy="0em" x="0" y="433">00:00</tspan><tspan class="line" dy="1.3em" x="0" y="433">Aug 3, 2021</tspan></text></g><g class="xtick"><text text-anchor="middle" x="0" y="433" transform="translate(166.38,0)" style="font-family: 'Open Sans', verdana, arial, sans-serif; font-size: 12px; fill: rgb(42, 63, 95); fill-opacity: 1; white-space: pre;">12:00</text></g><g class="xtick"><text text-anchor="middle" x="0" y="433" transform="translate(248.49,0)" style="font-family: 'Open Sans', verdana, arial, sans-serif; font-size: 12px; fill: rgb(42, 63, 95); fill-opacity: 1; white-space: pre;"><tspan class="line" dy="0em" x="0" y="433">00:00</tspan><tspan class="line" dy="1.3em" x="0" y="433">Aug 4, 2021</tspan></text></g><g class="xtick"><text text-anchor="middle" x="0" y="433" transform="translate(330.6,0)" style="font-family: 'Open Sans', verdana, arial, sans-serif; font-size: 12px; fill: rgb(42, 63, 95); fill-opacity: 1; white-space: pre;">12:00</text></g><g class="xtick"><text text-anchor="middle" x="0" y="433" transform="translate(412.72,0)" style="font-family: 'Open Sans', verdana, arial, sans-serif; font-size: 12px; fill: rgb(42, 63, 95); fill-opacity: 1; white-space: pre;"><tspan class="line" dy="0em" x="0" y="433">00:00</tspan><tspan class="line" dy="1.3em" x="0" y="433">Aug 5, 2021</tspan></text></g><g class="xtick"><text text-anchor="middle" x="0" y="433" transform="translate(494.83,0)" style="font-family: 'Open Sans', verdana, arial, sans-serif; font-size: 12px; fill: rgb(42, 63, 95); fill-opacity: 1; white-space: pre;">12:00</text></g><g class="xtick"><text text-anchor="middle" x="0" y="433" transform="translate(576.95,0)" style="font-family: 'Open Sans', verdana, arial, sans-serif; font-size: 12px; fill: rgb(42, 63, 95); fill-opacity: 1; white-space: pre;"><tspan class="line" dy="0em" x="0" y="433">00:00</tspan><tspan class="line" dy="1.3em" x="0" y="433">Aug 6, 2021</tspan></text></g></g><g class="yaxislayer-above"><g class="ytick"><text text-anchor="end" x="79" y="4.199999999999999" transform="translate(0,392.55)" style="font-family: 'Open Sans', verdana, arial, sans-serif; font-size: 12px; fill: rgb(42, 63, 95); fill-opacity: 1; white-space: pre;">0.864</text></g><g class="ytick"><text text-anchor="end" x="79" y="4.199999999999999" transform="translate(0,349.77)" style="font-family: 'Open Sans', verdana, arial, sans-serif; font-size: 12px; fill: rgb(42, 63, 95); fill-opacity: 1; white-space: pre;">0.865</text></g><g class="ytick"><text text-anchor="end" x="79" y="4.199999999999999" transform="translate(0,306.99)" style="font-family: 'Open Sans', verdana, arial, sans-serif; font-size: 12px; fill: rgb(42, 63, 95); fill-opacity: 1; white-space: pre;">0.866</text></g><g class="ytick"><text text-anchor="end" x="79" y="4.199999999999999" transform="translate(0,264.21000000000004)" style="font-family: 'Open Sans', verdana, arial, sans-serif; font-size: 12px; fill: rgb(42, 63, 95); fill-opacity: 1; white-space: pre;">0.867</text></g><g class="ytick"><text text-anchor="end" x="79" y="4.199999999999999" transform="translate(0,221.43)" style="font-family: 'Open Sans', verdana, arial, sans-serif; font-size: 12px; fill: rgb(42, 63, 95); fill-opacity: 1; white-space: pre;">0.868</text></g><g class="ytick"><text text-anchor="end" x="79" y="4.199999999999999" transform="translate(0,178.65)" style="font-family: 'Open Sans', verdana, arial, sans-serif; font-size: 12px; fill: rgb(42, 63, 95); fill-opacity: 1; white-space: pre;">0.869</text></g><g class="ytick"><text text-anchor="end" x="79" y="4.199999999999999" transform="translate(0,135.87)" style="font-family: 'Open Sans', verdana, arial, sans-serif; font-size: 12px; fill: rgb(42, 63, 95); fill-opacity: 1; white-space: pre;">0.87</text></g></g><g class="overaxes-above"/></g></g><g class="polarlayer"/><g class="ternarylayer"/><g class="geolayer"/><g class="funnelarealayer"/><g class="pielayer"/><g class="treemaplayer"/><g class="sunburstlayer"/><g class="glimages"/><defs id="topdefs-da54d6"><g class="clips"/><clipPath id="legendda54d6"><rect width="60" height="45" x="0" y="0"/></clipPath></defs><g class="layer-above"><g class="imagelayer"/><g class="shapelayer"/></g><g class="infolayer"><g class="legend" pointer-events="all" transform="translate(627.74,100)"><rect class="bg" shape-rendering="crispEdges" width="60" height="45" x="0" y="0" style="stroke: rgb(68, 68, 68); stroke-opacity: 1; fill: rgb(255, 255, 255); fill-opacity: 1; stroke-width: 0px;"/><g class="scrollbox" transform="" clip-path="url('#legendda54d6')"><text class="legendtitletext" text-anchor="start" x="2" y="15.600000000000001" style="font-family: 'Open Sans', verdana, arial, sans-serif; font-size: 12px; fill: rgb(42, 63, 95); fill-opacity: 1; white-space: pre;">All</text><g class="groups" transform=""><g class="traces" transform="translate(0,30.1)" style="opacity: 1;"><text class="legendtext" text-anchor="start" x="40" y="4.680000000000001" style="font-family: 'Open Sans', verdana, arial, sans-serif; font-size: 12px; fill: rgb(42, 63, 95); fill-opacity: 1; white-space: pre;">All</text><g class="layers" style="opacity: 1;"><g class="legendfill"/><g class="legendlines"><path class="js-line" d="M5,0h30" style="fill: none; stroke: rgb(99, 110, 250); stroke-opacity: 1; stroke-width: 2px;"/></g><g class="legendsymbols"><g class="legendpoints"/></g></g><rect class="legendtoggle" x="0" y="-9.5" width="54.890625" height="19" style="fill: rgb(0, 0, 0); fill-opacity: 0;"/></g></g></g><rect class="scrollbar" rx="20" ry="3" width="0" height="0" x="0" y="0" style="fill: rgb(128, 139, 164); fill-opacity: 1;"/></g><g class="g-gtitle"><text class="gtitle" x="35" y="50" text-anchor="start" dy="0em" style="font-family: 'Open Sans', verdana, arial, sans-serif; font-size: 17px; fill: rgb(42, 63, 95); opacity: 1; font-weight: normal; white-space: pre;">Singapore Vaccination Centers</text></g><g class="g-xtitle"><text class="xtitle" x="348.5" y="476.409375" text-anchor="middle" style="font-family: 'Open Sans', verdana, arial, sans-serif; font-size: 14px; fill: rgb(42, 63, 95); opacity: 1; font-weight: normal; white-space: pre;">Time</text></g><g class="g-ytitle"><text class="ytitle" transform="rotate(-90,19.840625000000003,260)" x="19.840625000000003" y="260" text-anchor="middle" style="font-family: 'Open Sans', verdana, arial, sans-serif; font-size: 14px; fill: rgb(42, 63, 95); opacity: 1; font-weight: normal; white-space: pre;">Filled/%</text></g></g></svg>