<svg class="main-svg" xmlns="http://www.w3.org/2000/svg" xmlns:xlink="http://www.w3.org/1999/xlink" width="700" height="500" style="" viewBox="0 0 700 500"><rect x="0" y="0" width="700" height="500" style="fill: rgb(255, 255, 255); fill-opacity: 1;"/><defs id="defs-efaba9"><g class="clips"><clipPath id="clipefaba9xyplot" class="plotclip"><rect width="537" height="320"/></clipPath><clipPath class="axesclip" id="clipefaba9x"><rect x="80" y="0" width="537" height="500"/></clipPath><clipPath class="axesclip" id="clipefaba9y"><rect x="0" y="100" width="700" height="320"/></clipPath><clipPath class="axesclip" id="clipefaba9xy"><rect x="80" y="100" width="537" height="320"/></clipPath></g><g class="gradients"/></defs><g class="bglayer"><rect class="bg" x="80" y="100" width="537" height="320" style="fill: rgb(229, 236, 246); fill-opacity: 1; stroke-width: 0;"/></g><g class="layer-below"><g class="imagelayer"/><g class="shapelayer"/></g><g class="cartesianlayer"><g class="subplot xy"><g class="layer-subplot"><g class="shapelayer"/><g class="imagelayer"/></g><g class="gridlayer"><g class="x"><path class="xgrid crisp" transform="translate(92.13,0)" d="M0,100v320" style="stroke: rgb(255, 255, 255); stroke-opacity: 1; stroke-width: 1px;"/><path class="xgrid crisp" transform="translate(222.77,0)" d="M0,100v320" style="stroke: rgb(255, 255, 255); stroke-opacity: 1; stroke-width: 1px;"/><path class="xgrid crisp" transform="translate(353.4,0)" d="M0,100v320" style="stroke: rgb(255, 255, 255); stroke-opacity: 1; stroke-width: 1px;"/><path class="xgrid crisp" transform="translate(484.04,0)" d="M0,100v320" style="stroke: rgb(255, 255, 255); stroke-opacity: 1; stroke-width: 1px;"/><path class="xgrid crisp" transform="translate(614.67,0)" d="M0,100v320" style="stroke: rgb(255, 255, 255); stroke-opacity: 1; stroke-width: 1px;"/></g><g class="y"><path class="ygrid crisp" transform="translate(0,367.23)" d="M80,0h537" style="stroke: rgb(255, 255, 255); stroke-opacity: 1; stroke-width: 1px;"/><path class="ygrid crisp" transform="translate(0,308.43)" d="M80,0h537" style="stroke: rgb(255, 255, 255); stroke-opacity: 1; stroke-width: 1px;"/><path class="ygrid crisp" transform="translate(0,249.63)" d="M80,0h537" style="stroke: rgb(255, 255, 255); stroke-opacity: 1; stroke-width: 1px;"/><path class="ygrid crisp" transform="translate(0,190.82999999999998)" d="M80,0h537" style="stroke: rgb(255, 255, 255); stroke-opacity: 1; stroke-width: 1px;"/><path class="ygrid crisp" transform="translate(0,132.03)" d="M80,0h537" style="stroke: rgb(255, 255, 255); stroke-opacity: 1; stroke-width: 1px;"/></g></g><g class="zerolinelayer"/><path class="xlines-below"/><path class="ylines-below"/><g class="overlines-below"/><g class="xaxislayer-below"/><g class="yaxislayer-below"/><g class="overaxes-below"/><g class="plot" transform="translate(80,100)" clip-path="url('#clipefaba9xyplot')"><g class="scatterlayer mlayer"><g class="trace scatter trace6df02d" style="stroke-miterlimit: 2; opacity: 1;"><g class="fills"/><g class="errorbars"/><g class="lines"><path class="js-line" d="M0,82.28L7.66,82.51L10.38,120.48L15.79,120.57L17.8,136.92L18.65,136.9L38.68,137.96L39.93,121.23L40.31,129.62L41.22,129.56L43.03,126.37L43.94,126.27L45.75,129.79L46.66,129.7L48.47,132.71L49.38,132.63L51.2,120.69L52.1,120.62L53.92,132.64L54.82,132.55L56.64,126.68L57.54,123.32L59.36,113.21L60.27,109.51L62.08,94.58L62.99,92.89L64.8,74.17L65.71,72.87L67.52,78.78L68.43,77.73L70.25,63.68L71.15,62.82L72.97,65.47L73.87,64.83L75.69,74.27L76.6,73.83L77.79,51.83L78.41,52.53L79.32,52.34L88.39,51.79L89.3,51.79L102.9,50.91L103.81,50.65L135.56,42.03L136.47,41.83L141.91,40.95L142.82,41.79L159.15,41.46L160.06,41.46L174.57,40.58L175.48,40.48L204.51,37.08L205.42,36.99L207.23,36.83L208.14,35.53L243.52,34L244.43,33.87L272.55,31.05L273.46,28.56L304.3,27.81L305.21,95.38L315.22,93.57L316.1,93.44L317.01,93.12L317.91,91.51L320.64,88.51L321.54,87.52L325.17,74.89L326.08,73.59L329.71,69.79L330.62,69.11L336.06,66.07L336.97,65.71L341.5,65.01L342.41,64.93L366.9,63.48L367.81,63.27L373.25,61.32L374.16,60.89L375.07,60.46L375.97,62.78L379.6,61.15L380.51,59.94L385.04,54.01L385.95,53.24L389.58,49.13L390.49,47.98L394.12,39.84L395.02,38.66L400.47,33.5L401.37,32.89L405,31.98L405.91,31.8L413.17,31.18L414.08,31.16L427.68,30.17L428.59,29.9L434.03,28.09L434.94,74.81L436.76,73.22L437.66,72.76L446.74,69.16L447.64,68.8L448.34,71.93L448.55,68.39L449.42,68.25L449.46,69.25L450.32,67.95L450.37,68.94L451.27,68.62L453.09,68.09L453.99,76.43L461.94,73.91L461.97,72.31L462.02,72.03L462.16,73.74L470.78,44.74L471.23,44.87L471.69,41.95L472.59,42.12L473.04,43.2L474.4,37.43L474.86,41.6L476.22,39.66L476.67,39.05L478.03,38.13L478.49,38.96L479.4,38.53L479.85,38.42L481.21,38.4L481.66,43.02L486.65,41.69L487.11,36.5L488.01,35.76L488.46,35.39L489.82,33.79L490.28,33.41L493.91,22.43L494.36,16L494.81,16.8L495.27,140.18L495.72,139.22L496.18,142.07L497.08,136.79L497.54,138.99L498.45,136.15L498.9,136.63L499.35,141.25L499.81,146.68L500.26,133.42L501.17,138.09L501.62,157.2L502.98,133.53L503.43,145.44L503.89,148.42L504.34,146.68L504.8,144.02L505.7,134.36L506.15,135.71L507.06,146.05L507.52,142.1L507.97,141.74L508.42,151.77L509.33,140.84L509.78,148.68L510.69,127.07L511.15,137.58L512.05,140.49L512.51,138.92L513.41,130.34L513.87,131.67L514.32,129.31L514.77,138.25L515.23,134.05L515.68,138.68L516.14,138.81L516.59,131.49L517.04,131.42L517.5,140.05L518.4,132.48L518.86,138.41L519.76,141.46L520.22,128.79L521.13,142.96L521.58,264.58L522.49,292.55L522.94,293.12L523.39,304L523.85,286.22L524.3,301.52L524.75,291.75L525.21,292.1L525.66,291.07L526.12,294.16L526.57,293.46L527.02,276.02L527.48,283.67L527.93,262.28L528.84,272.54L529.29,248.89L530.2,241.71L530.65,229.6L531.11,224.98L531.56,228.24L532.01,227.36L532.46,223.79L533.37,215.22L533.83,217.06L534.28,216.4L534.73,227.08L535.19,226.08L535.64,228.38L536.1,228.68L536.55,224.72L537,233.57" style="vector-effect: non-scaling-stroke; fill: none; stroke: rgb(99, 110, 250); stroke-opacity: 1; stroke-width: 2px; opacity: 1;"/></g><g class="points"/><g class="text"/></g></g></g><g class="overplot"/><path class="xlines-above crisp" d="M0,0" style="fill: none;"/><path class="ylines-above crisp" d="M0,0" style="fill: none;"/><g class="overlines-above"/><g class="xaxislayer-above"><g class="xtick"><text text-anchor="middle" x="0" y="433" transform="translate(92.13,0)" style="font-family: 'Open Sans', verdana, arial, sans-serif; font-size: 12px; fill: rgb(42, 63, 95); fill-opacity: 1; white-space: pre;"><tspan class="line" dy="0em" x="0" y="433">Jun 4</tspan><tspan class="line" dy="1.3em" x="0" y="433">2021</tspan></text></g><g class="xtick"><text text-anchor="middle" x="0" y="433" transform="translate(222.77,0)" style="font-family: 'Open Sans', verdana, arial, sans-serif; font-size: 12px; fill: rgb(42, 63, 95); fill-opacity: 1; white-space: pre;">Jun 6</text></g><g class="xtick"><text text-anchor="middle" x="0" y="433" transform="translate(353.4,0)" style="font-family: 'Open Sans', verdana, arial, sans-serif; font-size: 12px; fill: rgb(42, 63, 95); fill-opacity: 1; white-space: pre;">Jun 8</text></g><g class="xtick"><text text-anchor="middle" x="0" y="433" transform="translate(484.04,0)" style="font-family: 'Open Sans', verdana, arial, sans-serif; font-size: 12px; fill: rgb(42, 63, 95); fill-opacity: 1; white-space: pre;">Jun 10</text></g><g class="xtick"><text text-anchor="middle" x="0" y="433" transform="translate(614.67,0)" style="font-family: 'Open Sans', verdana, arial, sans-serif; font-size: 12px; fill: rgb(42, 63, 95); fill-opacity: 1; white-space: pre;">Jun 12</text></g></g><g class="yaxislayer-above"><g class="ytick"><text text-anchor="end" x="79" y="4.199999999999999" transform="translate(0,367.23)" style="font-family: 'Open Sans', verdana, arial, sans-serif; font-size: 12px; fill: rgb(42, 63, 95); fill-opacity: 1; white-space: pre;">0.8</text></g><g class="ytick"><text text-anchor="end" x="79" y="4.199999999999999" transform="translate(0,308.43)" style="font-family: 'Open Sans', verdana, arial, sans-serif; font-size: 12px; fill: rgb(42, 63, 95); fill-opacity: 1; white-space: pre;">0.82</text></g><g class="ytick"><text text-anchor="end" x="79" y="4.199999999999999" transform="translate(0,249.63)" style="font-family: 'Open Sans', verdana, arial, sans-serif; font-size: 12px; fill: rgb(42, 63, 95); fill-opacity: 1; white-space: pre;">0.84</text></g><g class="ytick"><text text-anchor="end" x="79" y="4.199999999999999" transform="translate(0,190.82999999999998)" style="font-family: 'Open Sans', verdana, arial, sans-serif; font-size: 12px; fill: rgb(42, 63, 95); fill-opacity: 1; white-space: pre;">0.86</text></g><g class="ytick"><text text-anchor="end" x="79" y="4.199999999999999" transform="translate(0,132.03)" style="font-family: 'Open Sans', verdana, arial, sans-serif; font-size: 12px; fill: rgb(42, 63, 95); fill-opacity: 1; white-space: pre;">0.88</text></g></g><g class="overaxes-above"/></g></g><g class="polarlayer"/><g class="ternarylayer"/><g class="geolayer"/><g class="funnelarealayer"/><g class="pielayer"/><g class="treemaplayer"/><g class="sunburstlayer"/><g class="glimages"/><defs id="topdefs-efaba9"><g class="clips"/><clipPath id="legendefaba9"><rect width="60" height="45" x="0" y="0"/></clipPath></defs><g class="layer-above"><g class="imagelayer"/><g class="shapelayer"/></g><g class="infolayer"><g class="legend" pointer-events="all" transform="translate(627.74,100)"><rect class="bg" shape-rendering="crispEdges" width="60" height="45" x="0" y="0" style="stroke: rgb(68, 68, 68); stroke-opacity: 1; fill: rgb(255, 255, 255); fill-opacity: 1; stroke-width: 0px;"/><g class="scrollbox" transform="" clip-path="url('#legendefaba9')"><text class="legendtitletext" text-anchor="start" x="2" y="15.600000000000001" style="font-family: 'Open Sans', verdana, arial, sans-serif; font-size: 12px; fill: rgb(42, 63, 95); fill-opacity: 1; white-space: pre;">All</text><g class="groups" transform=""><g class="traces" transform="translate(0,30.1)" style="opacity: 1;"><text class="legendtext" text-anchor="start" x="40" y="4.680000000000001" style="font-family: 'Open Sans', verdana, arial, sans-serif; font-size: 12px; fill: rgb(42, 63, 95); fill-opacity: 1; white-space: pre;">All</text><g class="layers" style="opacity: 1;"><g class="legendfill"/><g class="legendlines"><path class="js-line" d="M5,0h30" style="fill: none; stroke: rgb(99, 110, 250); stroke-opacity: 1; stroke-width: 2px;"/></g><g class="legendsymbols"><g class="legendpoints"/></g></g><rect class="legendtoggle" x="0" y="-9.5" width="54.890625" height="19" style="fill: rgb(0, 0, 0); fill-opacity: 0;"/></g></g></g><rect class="scrollbar" rx="20" ry="3" width="0" height="0" x="0" y="0" style="fill: rgb(128, 139, 164); fill-opacity: 1;"/></g><g class="g-gtitle"><text class="gtitle" x="35" y="50" text-anchor="start" dy="0em" style="font-family: 'Open Sans', verdana, arial, sans-serif; font-size: 17px; fill: rgb(42, 63, 95); opacity: 1; font-weight: normal; white-space: pre;">Singapore Vaccination Centers</text></g><g class="g-xtitle"><text class="xtitle" x="348.5" y="476.409375" text-anchor="middle" style="font-family: 'Open Sans', verdana, arial, sans-serif; font-size: 14px; fill: rgb(42, 63, 95); opacity: 1; font-weight: normal; white-space: pre;">Time</text></g><g class="g-ytitle"><text class="ytitle" transform="rotate(-90,27.481250000000003,260)" x="27.481250000000003" y="260" text-anchor="middle" style="font-family: 'Open Sans', verdana, arial, sans-serif; font-size: 14px; fill: rgb(42, 63, 95); opacity: 1; font-weight: normal; white-space: pre;">Filled/%</text></g></g></svg>