<svg class="main-svg" xmlns="http://www.w3.org/2000/svg" xmlns:xlink="http://www.w3.org/1999/xlink" width="700" height="500" style="" viewBox="0 0 700 500"><rect x="0" y="0" width="700" height="500" style="fill: rgb(255, 255, 255); fill-opacity: 1;"/><defs id="defs-2c07e6"><g class="clips"><clipPath id="clip2c07e6xyplot" class="plotclip"><rect width="537" height="320"/></clipPath><clipPath class="axesclip" id="clip2c07e6x"><rect x="80" y="0" width="537" height="500"/></clipPath><clipPath class="axesclip" id="clip2c07e6y"><rect x="0" y="100" width="700" height="320"/></clipPath><clipPath class="axesclip" id="clip2c07e6xy"><rect x="80" y="100" width="537" height="320"/></clipPath></g><g class="gradients"/></defs><g class="bglayer"><rect class="bg" x="80" y="100" width="537" height="320" style="fill: rgb(229, 236, 246); fill-opacity: 1; stroke-width: 0;"/></g><g class="layer-below"><g class="imagelayer"/><g class="shapelayer"/></g><g class="cartesianlayer"><g class="subplot xy"><g class="layer-subplot"><g class="shapelayer"/><g class="imagelayer"/></g><g class="gridlayer"><g class="x"><path class="xgrid crisp" transform="translate(82.7,0)" d="M0,100v320" style="stroke: rgb(255, 255, 255); stroke-opacity: 1; stroke-width: 1px;"/><path class="xgrid crisp" transform="translate(186.93,0)" d="M0,100v320" style="stroke: rgb(255, 255, 255); stroke-opacity: 1; stroke-width: 1px;"/><path class="xgrid crisp" transform="translate(291.16999999999996,0)" d="M0,100v320" style="stroke: rgb(255, 255, 255); stroke-opacity: 1; stroke-width: 1px;"/><path class="xgrid crisp" transform="translate(395.4,0)" d="M0,100v320" style="stroke: rgb(255, 255, 255); stroke-opacity: 1; stroke-width: 1px;"/><path class="xgrid crisp" transform="translate(499.63,0)" d="M0,100v320" style="stroke: rgb(255, 255, 255); stroke-opacity: 1; stroke-width: 1px;"/><path class="xgrid crisp" transform="translate(603.86,0)" d="M0,100v320" style="stroke: rgb(255, 255, 255); stroke-opacity: 1; stroke-width: 1px;"/></g><g class="y"><path class="ygrid crisp" transform="translate(0,392.55)" d="M80,0h537" style="stroke: rgb(255, 255, 255); stroke-opacity: 1; stroke-width: 1px;"/><path class="ygrid crisp" transform="translate(0,349.77)" d="M80,0h537" style="stroke: rgb(255, 255, 255); stroke-opacity: 1; stroke-width: 1px;"/><path class="ygrid crisp" transform="translate(0,306.99)" d="M80,0h537" style="stroke: rgb(255, 255, 255); stroke-opacity: 1; stroke-width: 1px;"/><path class="ygrid crisp" transform="translate(0,264.21000000000004)" d="M80,0h537" style="stroke: rgb(255, 255, 255); stroke-opacity: 1; stroke-width: 1px;"/><path class="ygrid crisp" transform="translate(0,221.43)" d="M80,0h537" style="stroke: rgb(255, 255, 255); stroke-opacity: 1; stroke-width: 1px;"/><path class="ygrid crisp" transform="translate(0,178.65)" d="M80,0h537" style="stroke: rgb(255, 255, 255); stroke-opacity: 1; stroke-width: 1px;"/><path class="ygrid crisp" transform="translate(0,135.87)" d="M80,0h537" style="stroke: rgb(255, 255, 255); stroke-opacity: 1; stroke-width: 1px;"/></g></g><g class="zerolinelayer"/><path class="xlines-below"/><path class="ylines-below"/><g class="overlines-below"/><g class="xaxislayer-below"/><g class="yaxislayer-below"/><g class="overaxes-below"/><g class="plot" transform="translate(80,100)" clip-path="url('#clip2c07e6xyplot')"><g class="scatterlayer mlayer"><g class="trace scatter trace3e20b7" style="stroke-miterlimit: 2; opacity: 1;"><g class="fills"/><g class="errorbars"/><g class="lines"><path class="js-line" d="M0,304L2.09,302.59L2.81,249.74L3.54,251.04L4.26,249.35L7.15,248.71L7.88,248.32L9.33,249.1L10.05,248.19L11.5,248.58L12.22,248.19L13.67,247.93L14.39,247.67L15.84,247.41L16.57,247.16L22.36,246.77L23.08,246.51L27.42,246.12L28.14,245.73L29.59,245.86L30.32,245.22L31.76,245.09L32.48,244.44L33.93,244.57L34.66,243.66L36.11,244.57L36.83,243.02L39,242.11L39.72,242.63L40.45,242.24L41.17,243.15L42.62,240.17L43.34,240.69L44.07,240.69L44.79,239.78L47.69,237.84L48.41,236.94L49.85,238.23L50.58,237.07L51.3,235L52.03,235.51L52.75,236.55L53.47,235L54.92,232.67L55.65,232.28L57.1,230.6L57.82,231.12L59.26,229.95L59.99,230.21L60.71,231.76L61.44,229.56L63.61,230.6L64.34,230.21L66.51,226.07L67.23,226.85L68.68,225.68L69.4,227.36L70.12,227.11L70.85,225.55L73.74,221.16L74.47,218.44L75.19,219.09L75.91,217.66L76.64,216.63L77.36,217.4L78.81,217.66L79.53,218.7L82.43,216.5L83.15,216.37L84.6,215.72L85.33,214.69L86.05,214.3L86.77,214.82L88.22,215.98L88.94,214.43L91.11,213.39L91.84,212.88L93.29,212.23L94.01,211.45L96.18,212.23L96.9,211.84L98.36,211.58L99.08,211.84L100.52,210.42L101.25,208.87L102.7,207.7L103.42,206.93L104.87,207.96L105.59,207.44L106.32,207.96L107.04,142.27L109.21,140.18L109.94,140.44L111.38,139.92L112.11,139.01L113.56,139.14L114.28,139.14L117.17,138.48L117.89,138.35L120.07,137.83L120.79,137.96L127.3,137.96L128.03,138.09L133.1,137.83L133.82,137.18L135.99,137.18L136.71,136.14L139.61,136.27L140.33,135.74L141.78,135.88L142.5,135.22L143.96,134.57L144.68,135.22L147.57,132.22L148.3,133.27L150.47,131.57L151.19,132.22L154.09,128.44L154.81,130.14L157.7,127.14L158.43,128.05L159.88,126.48L160.6,127.66L161.32,128.7L162.05,127.79L162.77,128.83L163.5,128.31L164.22,127.4L164.94,128.44L165.67,127.79L166.39,128.18L168.56,128.83L169.29,128.44L172.19,124.79L172.91,124.92L174.36,125.96L175.09,124.01L177.98,123.09L178.71,121.4L181.6,121.92L182.33,120.61L183.05,118.4L183.77,119.96L184.5,119.96L185.22,118.79L185.95,119.7L186.67,119.18L188.12,117.35L188.84,117.48L191.01,114.35L191.74,114.48L193.19,112.14L193.91,112.92L195.35,110.83L196.08,111.35L198.25,110.7L198.97,108.09L199.7,107.96L200.42,106.92L201.15,105.48L201.87,105.74L202.59,106L203.32,107.18L204.05,107.83L204.77,107.18L205.49,109.13L206.21,108.35L206.94,108.22L207.66,106.66L208.38,106.27L209.11,106.79L210.56,107.05L211.28,61.25L212.73,59.41L213.45,59.15L215.62,57.57L216.34,57.17L217.79,57.04L218.52,56.78L221.41,55.46L222.14,54.54L223.59,54.28L224.31,54.81L227.21,53.75L227.93,53.62L229.37,53.62L230.1,53.75L241.68,51.78L242.4,52.18L244.57,51.12L245.29,51.25L246.02,51.52L246.74,50.73L251.09,50.07L252.53,49.54L253.26,48.23L254.7,47.83L256.15,47.44L256.87,45.73L257.6,46.91L258.33,45.73L259.77,45.73L260.49,45.07L261.22,44.94L261.94,43.76L264.11,43.49L264.84,41.91L266.28,40.2L267.01,39.42L267.71,38.1L268.43,38.76L270.6,37.71L271.33,36L274.22,35.34L274.94,33.36L275.67,32.71L276.39,33.23L277.84,32.44L278.57,32.05L279.29,31.92L280.01,30.86L281.46,30.86L282.18,31.39L283.63,32.97L284.36,31.13L285.81,32.31L286.54,30.34L287.98,30.47L288.7,30.86L290.87,29.02L291.6,29.42L293.04,27.71L293.77,26.66L294.49,24.16L295.22,24.68L295.94,23.24L296.66,24.68L298.11,22.84L298.84,22.58L299.56,21.26L300.28,21.66L301.73,21.79L302.45,20.74L303.18,21.26L303.9,19.68L305.35,19.55L306.07,18.5L308.97,18.89L309.69,17.97L311.14,17.84L311.86,17.97L313.31,16L314.03,16.66L314.76,16.39L315.49,171.81L319.1,171.4L319.83,172.08L322,170.99L322.72,170.99L324.17,169.76L324.89,169.76L326.34,168.94L327.06,169.08L339.37,168.39L340.09,167.98L349.5,165.8L350.22,165.12L353.84,164.02L354.57,162.66L357.49,162.38L358.21,163.61L359.66,161.7L360.38,161.57L361.11,160.88L361.83,158.43L362.55,156.51L363.28,156.79L364,156.1L364.72,154.33L365.45,154.88L366.17,154.19L367.62,154.33L368.35,153.37L369.79,152.69L370.52,153.65L372.69,150.92L373.41,151.87L375.58,149.14L376.31,149.14L377.03,148.32L377.75,149.41L379.2,150.37L379.93,149.41L380.65,149.55L381.38,148.73L384.27,145.18L385,144.5L387.16,143.54L387.89,145.04L392.23,141.9L392.95,143.68L394.41,121.97L395.13,121.56L396.57,120.88L397.3,116.1L398.02,116.24L398.74,112.28L399.47,112.55L400.19,109.96L400.92,106.95L401.64,107.91L403.81,101.22L404.54,98.08L405.99,97.53L406.71,95.35L407.43,94.8L408.16,92.07L409.6,89.34L410.33,89.34L412.5,85.65L413.22,84.7L414.67,82.78L415.39,80.19L419.01,75L419.74,88.44L423.36,84.03L424.08,84.45L424.81,84.31L425.53,85.14L426.98,84.72L427.7,85.41L429.15,84.59L429.87,84.45L431.32,84.03L432.04,84.03L433.49,84.17L434.22,83.62L439.28,84.03L440.01,83.62L444.35,83.21L445.07,83.48L447.96,83.48L448.69,83.35L450.14,83.35L450.86,83.35L453.03,83.35L453.76,83.9L457.37,79.9L458.1,80.18L460.27,78.8L460.99,78.94L461.72,78.53L462.44,76.87L463.89,77.15L464.61,75.63L468.23,72.47L468.95,72.88L471.13,69.44L471.85,69.02L474.02,66.41L474.75,66.41L476.19,63.79L476.91,63.79L478.36,61.86L479.09,59.66L481.26,54.29L481.99,54.43L483.43,53.6L484.15,51.4L487.05,49.47L487.77,47.82L492.12,46.85L492.84,45.75L493.57,46.16L494.29,45.48L495.01,45.89L500.8,41.21L504.42,38.59L505.15,39.28L508.04,35.97L508.77,35.84L509.49,34.46L510.21,35.01L511.66,33.91L512.39,34.18L513.11,35.28L513.83,34.32L516.73,32.94L517.46,33.91L520.35,33.22L521.07,32.12L523.24,29.78L523.97,81.26L525.41,81.68L526.14,80.56L526.86,79.86L527.58,80.42L529.76,80.42L530.48,81.4L532.65,81.12L533.38,81.12L537,81.4" style="vector-effect: non-scaling-stroke; fill: none; stroke: rgb(99, 110, 250); stroke-opacity: 1; stroke-width: 2px; opacity: 1;"/></g><g class="points"/><g class="text"/></g></g></g><g class="overplot"/><path class="xlines-above crisp" d="M0,0" style="fill: none;"/><path class="ylines-above crisp" d="M0,0" style="fill: none;"/><g class="overlines-above"/><g class="xaxislayer-above"><g class="xtick"><text text-anchor="middle" x="0" y="433" transform="translate(82.7,0)" style="font-family: 'Open Sans', verdana, arial, sans-serif; font-size: 12px; fill: rgb(42, 63, 95); fill-opacity: 1; white-space: pre;"><tspan class="line" dy="0em" x="0" y="433">Aug 3</tspan><tspan class="line" dy="1.3em" x="0" y="433">2021</tspan></text></g><g class="xtick"><text text-anchor="middle" x="0" y="433" transform="translate(186.93,0)" style="font-family: 'Open Sans', verdana, arial, sans-serif; font-size: 12px; fill: rgb(42, 63, 95); fill-opacity: 1; white-space: pre;">Aug 4</text></g><g class="xtick"><text text-anchor="middle" x="0" y="433" transform="translate(291.16999999999996,0)" style="font-family: 'Open Sans', verdana, arial, sans-serif; font-size: 12px; fill: rgb(42, 63, 95); fill-opacity: 1; white-space: pre;">Aug 5</text></g><g class="xtick"><text text-anchor="middle" x="0" y="433" transform="translate(395.4,0)" style="font-family: 'Open Sans', verdana, arial, sans-serif; font-size: 12px; fill: rgb(42, 63, 95); fill-opacity: 1; white-space: pre;">Aug 6</text></g><g class="xtick"><text text-anchor="middle" x="0" y="433" transform="translate(499.63,0)" style="font-family: 'Open Sans', verdana, arial, sans-serif; font-size: 12px; fill: rgb(42, 63, 95); fill-opacity: 1; white-space: pre;">Aug 7</text></g><g class="xtick"><text text-anchor="middle" x="0" y="433" transform="translate(603.86,0)" style="font-family: 'Open Sans', verdana, arial, sans-serif; font-size: 12px; fill: rgb(42, 63, 95); fill-opacity: 1; white-space: pre;">Aug 8</text></g></g><g class="yaxislayer-above"><g class="ytick"><text text-anchor="end" x="79" y="4.199999999999999" transform="translate(0,392.55)" style="font-family: 'Open Sans', verdana, arial, sans-serif; font-size: 12px; fill: rgb(42, 63, 95); fill-opacity: 1; white-space: pre;">0.864</text></g><g class="ytick"><text text-anchor="end" x="79" y="4.199999999999999" transform="translate(0,349.77)" style="font-family: 'Open Sans', verdana, arial, sans-serif; font-size: 12px; fill: rgb(42, 63, 95); fill-opacity: 1; white-space: pre;">0.865</text></g><g class="ytick"><text text-anchor="end" x="79" y="4.199999999999999" transform="translate(0,306.99)" style="font-family: 'Open Sans', verdana, arial, sans-serif; font-size: 12px; fill: rgb(42, 63, 95); fill-opacity: 1; white-space: pre;">0.866</text></g><g class="ytick"><text text-anchor="end" x="79" y="4.199999999999999" transform="translate(0,264.21000000000004)" style="font-family: 'Open Sans', verdana, arial, sans-serif; font-size: 12px; fill: rgb(42, 63, 95); fill-opacity: 1; white-space: pre;">0.867</text></g><g class="ytick"><text text-anchor="end" x="79" y="4.199999999999999" transform="translate(0,221.43)" style="font-family: 'Open Sans', verdana, arial, sans-serif; font-size: 12px; fill: rgb(42, 63, 95); fill-opacity: 1; white-space: pre;">0.868</text></g><g class="ytick"><text text-anchor="end" x="79" y="4.199999999999999" transform="translate(0,178.65)" style="font-family: 'Open Sans', verdana, arial, sans-serif; font-size: 12px; fill: rgb(42, 63, 95); fill-opacity: 1; white-space: pre;">0.869</text></g><g class="ytick"><text text-anchor="end" x="79" y="4.199999999999999" transform="translate(0,135.87)" style="font-family: 'Open Sans', verdana, arial, sans-serif; font-size: 12px; fill: rgb(42, 63, 95); fill-opacity: 1; white-space: pre;">0.87</text></g></g><g class="overaxes-above"/></g></g><g class="polarlayer"/><g class="ternarylayer"/><g class="geolayer"/><g class="funnelarealayer"/><g class="pielayer"/><g class="treemaplayer"/><g class="sunburstlayer"/><g class="glimages"/><defs id="topdefs-2c07e6"><g class="clips"/><clipPath id="legend2c07e6"><rect width="60" height="45" x="0" y="0"/></clipPath></defs><g class="layer-above"><g class="imagelayer"/><g class="shapelayer"/></g><g class="infolayer"><g class="legend" pointer-events="all" transform="translate(627.74,100)"><rect class="bg" shape-rendering="crispEdges" width="60" height="45" x="0" y="0" style="stroke: rgb(68, 68, 68); stroke-opacity: 1; fill: rgb(255, 255, 255); fill-opacity: 1; stroke-width: 0px;"/><g class="scrollbox" transform="" clip-path="url('#legend2c07e6')"><text class="legendtitletext" text-anchor="start" x="2" y="15.600000000000001" style="font-family: 'Open Sans', verdana, arial, sans-serif; font-size: 12px; fill: rgb(42, 63, 95); fill-opacity: 1; white-space: pre;">All</text><g class="groups" transform=""><g class="traces" transform="translate(0,30.1)" style="opacity: 1;"><text class="legendtext" text-anchor="start" x="40" y="4.680000000000001" style="font-family: 'Open Sans', verdana, arial, sans-serif; font-size: 12px; fill: rgb(42, 63, 95); fill-opacity: 1; white-space: pre;">All</text><g class="layers" style="opacity: 1;"><g class="legendfill"/><g class="legendlines"><path class="js-line" d="M5,0h30" style="fill: none; stroke: rgb(99, 110, 250); stroke-opacity: 1; stroke-width: 2px;"/></g><g class="legendsymbols"><g class="legendpoints"/></g></g><rect class="legendtoggle" x="0" y="-9.5" width="54.890625" height="19" style="fill: rgb(0, 0, 0); fill-opacity: 0;"/></g></g></g><rect class="scrollbar" rx="20" ry="3" width="0" height="0" x="0" y="0" style="fill: rgb(128, 139, 164); fill-opacity: 1;"/></g><g class="g-gtitle"><text class="gtitle" x="35" y="50" text-anchor="start" dy="0em" style="font-family: 'Open Sans', verdana, arial, sans-serif; font-size: 17px; fill: rgb(42, 63, 95); opacity: 1; font-weight: normal; white-space: pre;">Singapore Vaccination Centers</text></g><g class="g-xtitle"><text class="xtitle" x="348.5" y="476.409375" text-anchor="middle" style="font-family: 'Open Sans', verdana, arial, sans-serif; font-size: 14px; fill: rgb(42, 63, 95); opacity: 1; font-weight: normal; white-space: pre;">Time</text></g><g class="g-ytitle"><text class="ytitle" transform="rotate(-90,19.840625000000003,260)" x="19.840625000000003" y="260" text-anchor="middle" style="font-family: 'Open Sans', verdana, arial, sans-serif; font-size: 14px; fill: rgb(42, 63, 95); opacity: 1; font-weight: normal; white-space: pre;">Filled/%</text></g></g></svg>