<svg class="main-svg" xmlns="http://www.w3.org/2000/svg" xmlns:xlink="http://www.w3.org/1999/xlink" width="700" height="500" style="" viewBox="0 0 700 500"><rect x="0" y="0" width="700" height="500" style="fill: rgb(255, 255, 255); fill-opacity: 1;"/><defs id="defs-b9e973"><g class="clips"><clipPath id="clipb9e973xyplot" class="plotclip"><rect width="537" height="320"/></clipPath><clipPath class="axesclip" id="clipb9e973x"><rect x="80" y="0" width="537" height="500"/></clipPath><clipPath class="axesclip" id="clipb9e973y"><rect x="0" y="100" width="700" height="320"/></clipPath><clipPath class="axesclip" id="clipb9e973xy"><rect x="80" y="100" width="537" height="320"/></clipPath></g><g class="gradients"/></defs><g class="bglayer"><rect class="bg" x="80" y="100" width="537" height="320" style="fill: rgb(229, 236, 246); fill-opacity: 1; stroke-width: 0;"/></g><g class="layer-below"><g class="imagelayer"/><g class="shapelayer"/></g><g class="cartesianlayer"><g class="subplot xy"><g class="layer-subplot"><g class="shapelayer"/><g class="imagelayer"/></g><g class="gridlayer"><g class="x"><path class="xgrid crisp" transform="translate(90.14,0)" d="M0,100v320" style="stroke: rgb(255, 255, 255); stroke-opacity: 1; stroke-width: 1px;"/><path class="xgrid crisp" transform="translate(199.29000000000002,0)" d="M0,100v320" style="stroke: rgb(255, 255, 255); stroke-opacity: 1; stroke-width: 1px;"/><path class="xgrid crisp" transform="translate(308.44,0)" d="M0,100v320" style="stroke: rgb(255, 255, 255); stroke-opacity: 1; stroke-width: 1px;"/><path class="xgrid crisp" transform="translate(417.6,0)" d="M0,100v320" style="stroke: rgb(255, 255, 255); stroke-opacity: 1; stroke-width: 1px;"/><path class="xgrid crisp" transform="translate(526.75,0)" d="M0,100v320" style="stroke: rgb(255, 255, 255); stroke-opacity: 1; stroke-width: 1px;"/></g><g class="y"><path class="ygrid crisp" transform="translate(0,367.23)" d="M80,0h537" style="stroke: rgb(255, 255, 255); stroke-opacity: 1; stroke-width: 1px;"/><path class="ygrid crisp" transform="translate(0,308.43)" d="M80,0h537" style="stroke: rgb(255, 255, 255); stroke-opacity: 1; stroke-width: 1px;"/><path class="ygrid crisp" transform="translate(0,249.63)" d="M80,0h537" style="stroke: rgb(255, 255, 255); stroke-opacity: 1; stroke-width: 1px;"/><path class="ygrid crisp" transform="translate(0,190.82999999999998)" d="M80,0h537" style="stroke: rgb(255, 255, 255); stroke-opacity: 1; stroke-width: 1px;"/><path class="ygrid crisp" transform="translate(0,132.03)" d="M80,0h537" style="stroke: rgb(255, 255, 255); stroke-opacity: 1; stroke-width: 1px;"/></g></g><g class="zerolinelayer"/><path class="xlines-below"/><path class="ylines-below"/><g class="overlines-below"/><g class="xaxislayer-below"/><g class="yaxislayer-below"/><g class="overaxes-below"/><g class="plot" transform="translate(80,100)" clip-path="url('#clipb9e973xyplot')"><g class="scatterlayer mlayer"><g class="trace scatter trace7587af" style="stroke-miterlimit: 2; opacity: 1;"><g class="fills"/><g class="errorbars"/><g class="lines"><path class="js-line" d="M0,82.28L6.4,82.51L8.67,120.48L13.19,120.57L14.87,136.92L15.58,136.9L32.32,137.96L33.36,121.23L33.68,129.62L34.44,129.56L35.95,126.37L36.71,126.27L38.23,129.79L38.99,129.7L40.5,132.71L41.26,132.63L42.78,120.69L43.54,120.62L45.05,132.64L45.81,132.55L47.32,126.68L49.6,113.21L50.36,109.51L54.14,74.17L54.9,72.87L56.42,78.78L57.18,77.73L59.45,62.82L60.97,65.47L61.72,64.83L63.24,74.27L64,73.83L65,51.83L66.27,52.34L67.03,52.21L75.37,51.78L76.13,51.77L85.22,51.11L85.98,50.91L111.75,42.44L112.51,42.24L118.58,40.95L119.34,41.79L132.22,41.47L132.98,41.46L144.35,40.8L145.11,40.69L173.15,36.83L173.91,35.53L203.47,34L204.23,33.87L227.73,31.05L228.49,28.56L254.26,27.81L255.02,95.38L263.38,93.57L264.12,93.44L264.88,93.12L265.63,91.51L267.91,88.51L268.67,87.52L272.46,73.59L273.21,72.39L277.76,67.88L278.52,67.37L282.31,65.43L283.07,65.5L288.37,64.8L289.14,64.77L305.81,63.66L306.57,63.48L311.87,61.32L312.63,60.89L313.39,60.46L314.15,62.78L317.18,61.15L317.94,59.94L322.48,53.24L323.24,52.44L326.27,47.98L327.03,45.51L330.06,38.66L330.82,37.65L335.37,32.89L336.15,32.47L338.4,31.98L339.16,31.8L345.22,31.18L345.98,31.16L357.35,30.17L358.11,29.9L362.66,28.09L363.42,74.81L365.69,72.76L366.45,72.32L373.27,69.16L374.03,68.8L374.61,71.93L374.79,68.39L375.51,68.25L375.55,69.25L376.27,67.95L376.31,68.94L377.06,68.62L378.58,68.09L379.34,76.43L385.97,73.91L386,72.31L386.04,72.03L386.16,73.74L393.36,44.74L393.74,44.87L394.12,41.95L394.87,42.12L395.25,43.2L396.39,37.43L396.77,41.6L397.91,39.66L398.29,39.05L399.42,38.13L399.8,38.96L400.94,38.42L401.32,38.33L402.08,38.4L402.46,43.02L406.62,41.69L407,36.5L407.76,35.76L408.14,35.39L409.28,33.79L409.66,33.41L412.69,22.43L413.07,16L413.44,16.8L413.82,140.18L414.2,139.22L414.58,142.07L415.34,136.79L415.72,138.99L416.48,136.15L416.86,136.63L417.24,141.25L417.61,146.68L418,133.42L418.75,138.09L419.13,157.2L420.27,133.53L420.65,145.44L421.03,148.42L421.4,146.68L421.78,144.02L422.54,134.36L422.92,135.71L423.3,141.84L423.68,146.05L424.06,142.1L424.44,141.74L424.81,151.77L425.19,141.68L425.57,140.84L425.95,148.68L426.71,127.07L427.09,137.58L427.85,140.49L428.23,138.92L429.74,129.31L430.12,138.25L430.5,134.05L430.88,138.68L431.26,138.81L431.64,131.49L432.02,131.42L432.4,140.05L433.15,132.48L433.53,138.41L434.29,141.46L434.67,128.79L435.43,142.96L435.81,264.58L436.95,293.12L437.32,304L437.71,286.22L438.08,301.52L438.46,291.75L438.84,292.1L439.22,291.07L439.6,294.16L439.98,293.46L440.36,276.02L440.74,283.67L441.11,262.28L441.87,272.54L442.25,248.89L443.01,241.71L443.39,229.6L443.77,224.98L444.15,228.24L444.53,227.36L445.66,215.22L446.04,217.06L446.42,216.4L446.8,227.08L447.18,226.08L447.56,228.38L447.94,228.68L448.31,224.72L448.69,233.57L449.07,224.28L449.83,227.75L450.21,223.07L450.97,226.33L451.35,223.26L451.73,224.52L452.11,234.01L452.48,220.81L452.87,231.91L453.24,224.2L455.52,212.72L455.9,220.76L456.65,220.72L457.03,223.7L457.41,223.67L457.79,219.37L458.17,223.08L458.55,218.62L458.93,226.76L459.31,225.2L459.69,224.19L460.06,219.51L460.44,225.16L461.58,225.11L461.96,216.49L462.34,225.05L462.72,220.43L463.09,220.57L463.47,218.19L463.85,220.92L464.24,219.84L464.61,227.36L464.99,216.65L465.37,220.1L465.75,220.01L466.51,220.98L466.88,218.78L467.64,223.64L468.02,218.66L468.4,205.85L468.78,215.25L469.16,220.32L469.54,206.18L469.92,206.81L470.3,214.16L470.68,214.11L471.05,206.99L471.82,212.47L472.2,202.23L472.57,199.24L472.95,208.71L473.33,224.84L473.71,215.2L474.09,214.49L474.47,205.74L474.84,219.6L475.6,195.82L475.98,209.77L476.36,208.24L476.74,203.32L477.12,202.05L477.5,205.17L477.88,200.81L478.25,208.16L478.63,206.35L479.01,209.96L479.39,207.44L479.77,196.45L480.15,195.36L480.53,196.45L480.91,201.41L482.04,210.92L482.42,197.09L482.8,197.31L483.18,191.05L483.56,191.24L483.94,196.07L484.32,200.65L484.7,194.37L485.83,210.5L486.21,204.27L486.97,191.94L487.35,193.62L487.73,197L488.11,205.03L488.49,197.14L488.86,198.57L489.25,192.99L490.38,184.28L490.76,189.51L491.52,194.59L491.9,189.23L492.28,191.91L492.66,189.81L493.04,182.31L493.42,187.7L493.79,187L494.17,183.28L494.55,186.18L494.93,185.69L495.32,181.61L495.69,182.61L496.07,186.54L496.83,187.68L497.21,186.58L497.58,181.49L497.96,187.81L498.72,185.81L499.1,187.22L499.48,189.17L499.87,187L501,194.82L501.38,189.57L501.75,183.36L502.13,189.2L502.51,186.45L503.65,187.85L504.03,183.53L505.17,187.65L505.55,184.59L506.3,184.25L506.68,185.71L507.82,187.29L508.2,197.68L508.58,197.68L508.96,195.53L509.34,195.52L509.71,190.33L510.09,190.33L510.47,186.49L511.99,194.95L512.37,194.95L512.75,195.4L513.12,193.58L513.51,193.58L513.88,187.5L514.64,187.5L515.02,190.84L515.4,186.76L515.78,190.68L516.16,186.75L517.29,188.23L517.67,187.2L519.95,183.02L520.32,181.13L521.08,190.9L521.46,187.7L521.84,181.79L522.22,180.91L522.6,182.93L522.98,184.81L523.36,179.55L524.11,190.44L524.49,182.8L524.88,183.07L525.25,174.64L526.39,185.09L526.77,181.21L527.15,181.99L527.52,185.79L527.9,171.39L528.28,177.83L528.66,175.21L529.04,180.5L529.42,179.53L529.8,177.22L531.31,187.84L531.69,182.58L532.07,175.16L532.45,180.33L532.83,178.23L533.59,176.4L533.97,185.95L534.35,175.93L534.73,196.82L535.86,173.22L536.24,177.47L536.62,180.21L537,180.03" style="vector-effect: non-scaling-stroke; fill: none; stroke: rgb(99, 110, 250); stroke-opacity: 1; stroke-width: 2px; opacity: 1;"/></g><g class="points"/><g class="text"/></g></g></g><g class="overplot"/><path class="xlines-above crisp" d="M0,0" style="fill: none;"/><path class="ylines-above crisp" d="M0,0" style="fill: none;"/><g class="overlines-above"/><g class="xaxislayer-above"><g class="xtick"><text text-anchor="middle" x="0" y="433" transform="translate(90.14,0)" style="font-family: 'Open Sans', verdana, arial, sans-serif; font-size: 12px; fill: rgb(42, 63, 95); fill-opacity: 1; white-space: pre;"><tspan class="line" dy="0em" x="0" y="433">Jun 4</tspan><tspan class="line" dy="1.3em" x="0" y="433">2021</tspan></text></g><g class="xtick"><text text-anchor="middle" x="0" y="433" transform="translate(199.29000000000002,0)" style="font-family: 'Open Sans', verdana, arial, sans-serif; font-size: 12px; fill: rgb(42, 63, 95); fill-opacity: 1; white-space: pre;">Jun 6</text></g><g class="xtick"><text text-anchor="middle" x="0" y="433" transform="translate(308.44,0)" style="font-family: 'Open Sans', verdana, arial, sans-serif; font-size: 12px; fill: rgb(42, 63, 95); fill-opacity: 1; white-space: pre;">Jun 8</text></g><g class="xtick"><text text-anchor="middle" x="0" y="433" transform="translate(417.6,0)" style="font-family: 'Open Sans', verdana, arial, sans-serif; font-size: 12px; fill: rgb(42, 63, 95); fill-opacity: 1; white-space: pre;">Jun 10</text></g><g class="xtick"><text text-anchor="middle" x="0" y="433" transform="translate(526.75,0)" style="font-family: 'Open Sans', verdana, arial, sans-serif; font-size: 12px; fill: rgb(42, 63, 95); fill-opacity: 1; white-space: pre;">Jun 12</text></g></g><g class="yaxislayer-above"><g class="ytick"><text text-anchor="end" x="79" y="4.199999999999999" transform="translate(0,367.23)" style="font-family: 'Open Sans', verdana, arial, sans-serif; font-size: 12px; fill: rgb(42, 63, 95); fill-opacity: 1; white-space: pre;">0.8</text></g><g class="ytick"><text text-anchor="end" x="79" y="4.199999999999999" transform="translate(0,308.43)" style="font-family: 'Open Sans', verdana, arial, sans-serif; font-size: 12px; fill: rgb(42, 63, 95); fill-opacity: 1; white-space: pre;">0.82</text></g><g class="ytick"><text text-anchor="end" x="79" y="4.199999999999999" transform="translate(0,249.63)" style="font-family: 'Open Sans', verdana, arial, sans-serif; font-size: 12px; fill: rgb(42, 63, 95); fill-opacity: 1; white-space: pre;">0.84</text></g><g class="ytick"><text text-anchor="end" x="79" y="4.199999999999999" transform="translate(0,190.82999999999998)" style="font-family: 'Open Sans', verdana, arial, sans-serif; font-size: 12px; fill: rgb(42, 63, 95); fill-opacity: 1; white-space: pre;">0.86</text></g><g class="ytick"><text text-anchor="end" x="79" y="4.199999999999999" transform="translate(0,132.03)" style="font-family: 'Open Sans', verdana, arial, sans-serif; font-size: 12px; fill: rgb(42, 63, 95); fill-opacity: 1; white-space: pre;">0.88</text></g></g><g class="overaxes-above"/></g></g><g class="polarlayer"/><g class="ternarylayer"/><g class="geolayer"/><g class="funnelarealayer"/><g class="pielayer"/><g class="treemaplayer"/><g class="sunburstlayer"/><g class="glimages"/><defs id="topdefs-b9e973"><g class="clips"/><clipPath id="legendb9e973"><rect width="60" height="45" x="0" y="0"/></clipPath></defs><g class="layer-above"><g class="imagelayer"/><g class="shapelayer"/></g><g class="infolayer"><g class="legend" pointer-events="all" transform="translate(627.74,100)"><rect class="bg" shape-rendering="crispEdges" width="60" height="45" x="0" y="0" style="stroke: rgb(68, 68, 68); stroke-opacity: 1; fill: rgb(255, 255, 255); fill-opacity: 1; stroke-width: 0px;"/><g class="scrollbox" transform="" clip-path="url('#legendb9e973')"><text class="legendtitletext" text-anchor="start" x="2" y="15.600000000000001" style="font-family: 'Open Sans', verdana, arial, sans-serif; font-size: 12px; fill: rgb(42, 63, 95); fill-opacity: 1; white-space: pre;">All</text><g class="groups" transform=""><g class="traces" transform="translate(0,30.1)" style="opacity: 1;"><text class="legendtext" text-anchor="start" x="40" y="4.680000000000001" style="font-family: 'Open Sans', verdana, arial, sans-serif; font-size: 12px; fill: rgb(42, 63, 95); fill-opacity: 1; white-space: pre;">All</text><g class="layers" style="opacity: 1;"><g class="legendfill"/><g class="legendlines"><path class="js-line" d="M5,0h30" style="fill: none; stroke: rgb(99, 110, 250); stroke-opacity: 1; stroke-width: 2px;"/></g><g class="legendsymbols"><g class="legendpoints"/></g></g><rect class="legendtoggle" x="0" y="-9.5" width="54.890625" height="19" style="fill: rgb(0, 0, 0); fill-opacity: 0;"/></g></g></g><rect class="scrollbar" rx="20" ry="3" width="0" height="0" x="0" y="0" style="fill: rgb(128, 139, 164); fill-opacity: 1;"/></g><g class="g-gtitle"><text class="gtitle" x="35" y="50" text-anchor="start" dy="0em" style="font-family: 'Open Sans', verdana, arial, sans-serif; font-size: 17px; fill: rgb(42, 63, 95); opacity: 1; font-weight: normal; white-space: pre;">Singapore Vaccination Centers</text></g><g class="g-xtitle"><text class="xtitle" x="348.5" y="476.409375" text-anchor="middle" style="font-family: 'Open Sans', verdana, arial, sans-serif; font-size: 14px; fill: rgb(42, 63, 95); opacity: 1; font-weight: normal; white-space: pre;">Time</text></g><g class="g-ytitle"><text class="ytitle" transform="rotate(-90,27.481250000000003,260)" x="27.481250000000003" y="260" text-anchor="middle" style="font-family: 'Open Sans', verdana, arial, sans-serif; font-size: 14px; fill: rgb(42, 63, 95); opacity: 1; font-weight: normal; white-space: pre;">Filled/%</text></g></g></svg>