<svg class="main-svg" xmlns="http://www.w3.org/2000/svg" xmlns:xlink="http://www.w3.org/1999/xlink" width="700" height="500" style="" viewBox="0 0 700 500"><rect x="0" y="0" width="700" height="500" style="fill: rgb(255, 255, 255); fill-opacity: 1;"/><defs id="defs-e94a7f"><g class="clips"><clipPath id="clipe94a7fxyplot" class="plotclip"><rect width="537" height="320"/></clipPath><clipPath class="axesclip" id="clipe94a7fx"><rect x="80" y="0" width="537" height="500"/></clipPath><clipPath class="axesclip" id="clipe94a7fy"><rect x="0" y="100" width="700" height="320"/></clipPath><clipPath class="axesclip" id="clipe94a7fxy"><rect x="80" y="100" width="537" height="320"/></clipPath></g><g class="gradients"/></defs><g class="bglayer"><rect class="bg" x="80" y="100" width="537" height="320" style="fill: rgb(229, 236, 246); fill-opacity: 1; stroke-width: 0;"/></g><g class="layer-below"><g class="imagelayer"/><g class="shapelayer"/></g><g class="cartesianlayer"><g class="subplot xy"><g class="layer-subplot"><g class="shapelayer"/><g class="imagelayer"/></g><g class="gridlayer"><g class="x"><path class="xgrid crisp" transform="translate(82.58,0)" d="M0,100v320" style="stroke: rgb(255, 255, 255); stroke-opacity: 1; stroke-width: 1px;"/><path class="xgrid crisp" transform="translate(181.86,0)" d="M0,100v320" style="stroke: rgb(255, 255, 255); stroke-opacity: 1; stroke-width: 1px;"/><path class="xgrid crisp" transform="translate(281.14,0)" d="M0,100v320" style="stroke: rgb(255, 255, 255); stroke-opacity: 1; stroke-width: 1px;"/><path class="xgrid crisp" transform="translate(380.42,0)" d="M0,100v320" style="stroke: rgb(255, 255, 255); stroke-opacity: 1; stroke-width: 1px;"/><path class="xgrid crisp" transform="translate(479.69,0)" d="M0,100v320" style="stroke: rgb(255, 255, 255); stroke-opacity: 1; stroke-width: 1px;"/><path class="xgrid crisp" transform="translate(578.97,0)" d="M0,100v320" style="stroke: rgb(255, 255, 255); stroke-opacity: 1; stroke-width: 1px;"/></g><g class="y"><path class="ygrid crisp" transform="translate(0,392.55)" d="M80,0h537" style="stroke: rgb(255, 255, 255); stroke-opacity: 1; stroke-width: 1px;"/><path class="ygrid crisp" transform="translate(0,349.77)" d="M80,0h537" style="stroke: rgb(255, 255, 255); stroke-opacity: 1; stroke-width: 1px;"/><path class="ygrid crisp" transform="translate(0,306.99)" d="M80,0h537" style="stroke: rgb(255, 255, 255); stroke-opacity: 1; stroke-width: 1px;"/><path class="ygrid crisp" transform="translate(0,264.21000000000004)" d="M80,0h537" style="stroke: rgb(255, 255, 255); stroke-opacity: 1; stroke-width: 1px;"/><path class="ygrid crisp" transform="translate(0,221.43)" d="M80,0h537" style="stroke: rgb(255, 255, 255); stroke-opacity: 1; stroke-width: 1px;"/><path class="ygrid crisp" transform="translate(0,178.65)" d="M80,0h537" style="stroke: rgb(255, 255, 255); stroke-opacity: 1; stroke-width: 1px;"/><path class="ygrid crisp" transform="translate(0,135.87)" d="M80,0h537" style="stroke: rgb(255, 255, 255); stroke-opacity: 1; stroke-width: 1px;"/></g></g><g class="zerolinelayer"/><path class="xlines-below"/><path class="ylines-below"/><g class="overlines-below"/><g class="xaxislayer-below"/><g class="yaxislayer-below"/><g class="overaxes-below"/><g class="plot" transform="translate(80,100)" clip-path="url('#clipe94a7fxyplot')"><g class="scatterlayer mlayer"><g class="trace scatter trace063735" style="stroke-miterlimit: 2; opacity: 1;"><g class="fills"/><g class="errorbars"/><g class="lines"><path class="js-line" d="M0,304L1.99,302.59L2.68,249.74L3.37,251.04L4.06,249.35L6.81,248.71L7.5,248.32L8.88,249.1L9.57,248.19L10.95,248.58L11.64,248.19L13.02,247.93L13.71,247.67L15.09,247.41L15.78,247.16L21.29,246.77L21.98,246.51L26.12,246.12L26.81,245.73L28.19,245.86L28.88,245.22L30.25,245.09L30.94,244.44L32.32,244.57L33.01,243.66L34.39,244.57L35.08,243.02L37.15,242.11L37.84,242.63L38.53,242.24L39.22,243.15L40.6,240.17L41.28,240.69L41.97,240.69L42.66,239.78L46.11,236.94L46.8,237.97L47.49,238.23L48.18,237.07L48.87,235L49.56,235.51L50.25,236.55L50.93,235L52.31,232.67L53.01,232.28L54.39,230.6L55.07,231.12L56.45,229.95L57.14,230.21L57.83,231.76L58.52,229.56L60.59,230.6L61.28,230.21L63.35,226.07L64.04,226.85L65.42,225.68L66.1,227.36L66.79,227.11L67.48,225.55L70.24,221.16L70.93,218.44L71.62,219.09L72.31,217.66L73,216.63L73.69,217.4L75.07,217.66L75.76,218.7L78.52,216.5L79.2,216.37L80.58,215.72L81.27,214.69L81.96,214.3L82.65,214.82L84.03,215.98L84.72,214.43L86.79,213.39L87.48,212.88L88.86,212.23L89.55,211.45L91.61,212.23L92.3,211.84L93.68,211.58L94.37,211.84L95.75,210.42L96.44,208.87L97.82,207.7L98.51,206.93L99.89,207.96L100.58,207.44L101.27,207.96L101.96,142.27L104.03,140.18L104.72,140.44L106.09,139.92L106.78,139.01L108.16,139.14L108.85,139.14L111.61,138.48L112.3,138.35L114.36,137.83L115.06,137.96L121.26,137.96L121.95,138.09L126.77,137.83L127.46,137.18L129.53,137.18L130.22,136.14L132.98,136.27L133.67,135.74L135.05,135.88L135.73,135.22L137.12,134.57L137.8,135.22L140.56,132.22L141.25,133.27L143.32,131.57L144.01,132.22L146.77,128.44L147.46,130.14L150.21,127.14L150.91,128.05L152.28,126.48L152.97,127.66L153.66,128.7L154.35,127.79L155.04,128.83L155.73,128.31L156.42,127.4L157.11,128.44L157.8,127.79L158.49,128.18L160.56,128.83L161.25,128.44L164.01,124.79L164.7,124.92L166.08,125.96L166.77,124.01L169.53,123.09L170.22,121.4L172.98,121.92L173.67,120.61L174.36,118.4L175.05,119.96L175.74,119.96L176.43,118.79L177.11,119.7L177.8,119.18L179.18,117.35L179.87,117.48L181.94,114.35L182.63,114.48L184.01,112.14L184.7,112.92L186.08,110.83L186.77,111.35L188.83,110.7L189.52,108.09L190.21,107.96L190.9,106.92L192.28,105.74L192.97,106L194.35,107.83L195.04,107.18L195.73,109.13L196.42,108.35L197.11,108.22L197.8,106.66L198.49,106.27L199.18,106.79L200.56,107.05L201.25,61.25L203.31,59.15L204,58.88L208.14,56.78L208.83,56.52L211.59,54.54L212.27,54.28L214.34,54.41L215.03,53.75L218.48,53.62L219.17,53.75L230.2,51.78L230.89,52.18L232.96,51.12L233.64,51.25L234.34,51.52L235.02,50.73L239.16,50.07L240.54,49.54L241.23,48.23L242.6,47.83L243.98,47.44L244.67,45.73L245.36,46.91L246.06,45.73L247.43,45.73L248.12,45.07L248.81,44.94L249.5,43.76L251.57,43.49L252.26,41.91L253.64,40.2L254.33,39.42L255,38.1L255.68,38.76L257.75,37.71L258.44,36L261.2,35.34L261.88,33.36L262.58,32.71L263.27,33.23L264.64,32.44L265.34,32.05L266.03,31.92L266.71,30.86L268.09,30.86L268.78,31.39L270.16,32.97L270.85,31.13L272.23,32.31L272.93,30.34L274.3,30.47L274.99,30.86L277.06,29.02L277.75,29.42L279.12,27.71L279.81,26.66L280.51,24.16L281.2,24.68L281.88,23.24L282.57,24.68L283.95,22.84L284.64,22.58L285.33,21.26L286.02,21.66L287.4,21.79L288.08,20.74L288.78,21.26L289.47,19.68L290.84,19.55L291.54,18.5L294.29,18.89L294.98,17.97L296.36,17.84L297.05,17.97L298.43,16L299.12,16.66L299.81,16.39L300.5,171.81L303.95,171.4L304.64,172.08L306.7,170.99L307.39,170.99L308.77,169.76L309.46,169.76L310.84,168.94L311.53,169.08L323.25,168.39L323.94,167.98L332.9,165.8L333.59,165.12L337.04,164.02L337.73,162.66L340.51,162.38L341.2,163.61L342.58,161.7L343.26,161.57L343.96,160.88L344.64,158.43L345.33,156.51L346.02,156.79L346.71,156.1L347.4,154.33L348.09,154.88L349.47,154.47L350.16,154.33L352.23,152.69L352.92,153.65L354.99,150.92L355.67,151.87L357.74,149.14L358.43,149.14L359.12,148.32L359.81,149.41L361.19,150.37L361.88,149.41L362.57,149.55L363.26,148.73L366.02,145.18L366.71,144.5L368.77,143.54L369.47,145.04L373.6,141.9L374.29,143.68L375.67,121.97L376.36,121.56L377.74,120.88L378.43,116.1L379.12,116.24L379.8,112.28L380.5,112.55L381.19,109.96L381.88,106.95L382.57,107.91L384.63,101.22L385.32,98.08L386.7,97.53L387.39,95.35L388.08,94.8L388.77,92.07L390.15,89.34L390.84,89.34L392.9,85.65L393.6,84.7L394.97,82.78L395.67,80.19L399.11,75L399.8,88.44L403.25,84.03L403.94,84.45L404.63,84.31L405.32,85.14L406.7,84.72L407.39,85.41L408.77,84.59L409.45,84.45L410.83,84.03L411.52,84.03L412.9,84.17L413.59,83.62L418.42,84.03L419.11,83.62L423.25,83.21L423.93,83.48L426.69,83.48L427.38,83.35L428.76,83.35L429.45,83.35L431.51,83.35L432.21,83.9L435.65,79.9L436.34,80.18L438.41,78.8L439.1,78.94L439.79,78.53L440.48,76.87L441.85,77.15L442.54,75.63L445.99,72.47L446.68,72.88L448.75,69.44L449.44,69.02L451.51,66.41L452.2,66.41L453.58,63.79L454.26,63.79L455.64,61.86L456.33,59.66L459.09,54.43L459.78,54.01L460.47,53.6L461.16,51.4L463.92,49.47L464.61,47.82L468.75,46.85L469.43,45.75L470.12,46.16L470.81,45.48L471.5,45.89L477.02,41.21L480.46,38.59L481.16,39.28L483.91,35.97L484.6,35.84L485.29,34.46L485.98,35.01L487.36,33.91L488.05,34.18L488.74,35.28L489.43,34.32L492.19,32.94L492.88,33.91L495.63,33.22L496.32,32.12L498.39,29.78L499.08,81.26L500.46,81.68L501.15,80.56L501.84,79.86L502.53,80.42L504.6,80.42L505.29,81.4L507.35,81.12L508.04,81.12L511.49,81.4L512.18,81.12L514.94,79.86L515.63,80.28L522.52,79.58L523.21,79.58L530.79,79.3L531.48,79.16L534.93,78.74L535.62,78.31L537,77.75" style="vector-effect: non-scaling-stroke; fill: none; stroke: rgb(99, 110, 250); stroke-opacity: 1; stroke-width: 2px; opacity: 1;"/></g><g class="points"/><g class="text"/></g></g></g><g class="overplot"/><path class="xlines-above crisp" d="M0,0" style="fill: none;"/><path class="ylines-above crisp" d="M0,0" style="fill: none;"/><g class="overlines-above"/><g class="xaxislayer-above"><g class="xtick"><text text-anchor="middle" x="0" y="433" transform="translate(82.58,0)" style="font-family: 'Open Sans', verdana, arial, sans-serif; font-size: 12px; fill: rgb(42, 63, 95); fill-opacity: 1; white-space: pre;"><tspan class="line" dy="0em" x="0" y="433">Aug 3</tspan><tspan class="line" dy="1.3em" x="0" y="433">2021</tspan></text></g><g class="xtick"><text text-anchor="middle" x="0" y="433" transform="translate(181.86,0)" style="font-family: 'Open Sans', verdana, arial, sans-serif; font-size: 12px; fill: rgb(42, 63, 95); fill-opacity: 1; white-space: pre;">Aug 4</text></g><g class="xtick"><text text-anchor="middle" x="0" y="433" transform="translate(281.14,0)" style="font-family: 'Open Sans', verdana, arial, sans-serif; font-size: 12px; fill: rgb(42, 63, 95); fill-opacity: 1; white-space: pre;">Aug 5</text></g><g class="xtick"><text text-anchor="middle" x="0" y="433" transform="translate(380.42,0)" style="font-family: 'Open Sans', verdana, arial, sans-serif; font-size: 12px; fill: rgb(42, 63, 95); fill-opacity: 1; white-space: pre;">Aug 6</text></g><g class="xtick"><text text-anchor="middle" x="0" y="433" transform="translate(479.69,0)" style="font-family: 'Open Sans', verdana, arial, sans-serif; font-size: 12px; fill: rgb(42, 63, 95); fill-opacity: 1; white-space: pre;">Aug 7</text></g><g class="xtick"><text text-anchor="middle" x="0" y="433" transform="translate(578.97,0)" style="font-family: 'Open Sans', verdana, arial, sans-serif; font-size: 12px; fill: rgb(42, 63, 95); fill-opacity: 1; white-space: pre;">Aug 8</text></g></g><g class="yaxislayer-above"><g class="ytick"><text text-anchor="end" x="79" y="4.199999999999999" transform="translate(0,392.55)" style="font-family: 'Open Sans', verdana, arial, sans-serif; font-size: 12px; fill: rgb(42, 63, 95); fill-opacity: 1; white-space: pre;">0.864</text></g><g class="ytick"><text text-anchor="end" x="79" y="4.199999999999999" transform="translate(0,349.77)" style="font-family: 'Open Sans', verdana, arial, sans-serif; font-size: 12px; fill: rgb(42, 63, 95); fill-opacity: 1; white-space: pre;">0.865</text></g><g class="ytick"><text text-anchor="end" x="79" y="4.199999999999999" transform="translate(0,306.99)" style="font-family: 'Open Sans', verdana, arial, sans-serif; font-size: 12px; fill: rgb(42, 63, 95); fill-opacity: 1; white-space: pre;">0.866</text></g><g class="ytick"><text text-anchor="end" x="79" y="4.199999999999999" transform="translate(0,264.21000000000004)" style="font-family: 'Open Sans', verdana, arial, sans-serif; font-size: 12px; fill: rgb(42, 63, 95); fill-opacity: 1; white-space: pre;">0.867</text></g><g class="ytick"><text text-anchor="end" x="79" y="4.199999999999999" transform="translate(0,221.43)" style="font-family: 'Open Sans', verdana, arial, sans-serif; font-size: 12px; fill: rgb(42, 63, 95); fill-opacity: 1; white-space: pre;">0.868</text></g><g class="ytick"><text text-anchor="end" x="79" y="4.199999999999999" transform="translate(0,178.65)" style="font-family: 'Open Sans', verdana, arial, sans-serif; font-size: 12px; fill: rgb(42, 63, 95); fill-opacity: 1; white-space: pre;">0.869</text></g><g class="ytick"><text text-anchor="end" x="79" y="4.199999999999999" transform="translate(0,135.87)" style="font-family: 'Open Sans', verdana, arial, sans-serif; font-size: 12px; fill: rgb(42, 63, 95); fill-opacity: 1; white-space: pre;">0.87</text></g></g><g class="overaxes-above"/></g></g><g class="polarlayer"/><g class="ternarylayer"/><g class="geolayer"/><g class="funnelarealayer"/><g class="pielayer"/><g class="treemaplayer"/><g class="sunburstlayer"/><g class="glimages"/><defs id="topdefs-e94a7f"><g class="clips"/><clipPath id="legende94a7f"><rect width="60" height="45" x="0" y="0"/></clipPath></defs><g class="layer-above"><g class="imagelayer"/><g class="shapelayer"/></g><g class="infolayer"><g class="legend" pointer-events="all" transform="translate(627.74,100)"><rect class="bg" shape-rendering="crispEdges" width="60" height="45" x="0" y="0" style="stroke: rgb(68, 68, 68); stroke-opacity: 1; fill: rgb(255, 255, 255); fill-opacity: 1; stroke-width: 0px;"/><g class="scrollbox" transform="" clip-path="url('#legende94a7f')"><text class="legendtitletext" text-anchor="start" x="2" y="15.600000000000001" style="font-family: 'Open Sans', verdana, arial, sans-serif; font-size: 12px; fill: rgb(42, 63, 95); fill-opacity: 1; white-space: pre;">All</text><g class="groups" transform=""><g class="traces" transform="translate(0,30.1)" style="opacity: 1;"><text class="legendtext" text-anchor="start" x="40" y="4.680000000000001" style="font-family: 'Open Sans', verdana, arial, sans-serif; font-size: 12px; fill: rgb(42, 63, 95); fill-opacity: 1; white-space: pre;">All</text><g class="layers" style="opacity: 1;"><g class="legendfill"/><g class="legendlines"><path class="js-line" d="M5,0h30" style="fill: none; stroke: rgb(99, 110, 250); stroke-opacity: 1; stroke-width: 2px;"/></g><g class="legendsymbols"><g class="legendpoints"/></g></g><rect class="legendtoggle" x="0" y="-9.5" width="54.890625" height="19" style="fill: rgb(0, 0, 0); fill-opacity: 0;"/></g></g></g><rect class="scrollbar" rx="20" ry="3" width="0" height="0" x="0" y="0" style="fill: rgb(128, 139, 164); fill-opacity: 1;"/></g><g class="g-gtitle"><text class="gtitle" x="35" y="50" text-anchor="start" dy="0em" style="font-family: 'Open Sans', verdana, arial, sans-serif; font-size: 17px; fill: rgb(42, 63, 95); opacity: 1; font-weight: normal; white-space: pre;">Singapore Vaccination Centers</text></g><g class="g-xtitle"><text class="xtitle" x="348.5" y="476.409375" text-anchor="middle" style="font-family: 'Open Sans', verdana, arial, sans-serif; font-size: 14px; fill: rgb(42, 63, 95); opacity: 1; font-weight: normal; white-space: pre;">Time</text></g><g class="g-ytitle"><text class="ytitle" transform="rotate(-90,19.840625000000003,260)" x="19.840625000000003" y="260" text-anchor="middle" style="font-family: 'Open Sans', verdana, arial, sans-serif; font-size: 14px; fill: rgb(42, 63, 95); opacity: 1; font-weight: normal; white-space: pre;">Filled/%</text></g></g></svg>