<svg class="main-svg" xmlns="http://www.w3.org/2000/svg" xmlns:xlink="http://www.w3.org/1999/xlink" width="700" height="500" style="" viewBox="0 0 700 500"><rect x="0" y="0" width="700" height="500" style="fill: rgb(255, 255, 255); fill-opacity: 1;"/><defs id="defs-7e6d94"><g class="clips"><clipPath id="clip7e6d94xyplot" class="plotclip"><rect width="537" height="320"/></clipPath><clipPath class="axesclip" id="clip7e6d94x"><rect x="80" y="0" width="537" height="500"/></clipPath><clipPath class="axesclip" id="clip7e6d94y"><rect x="0" y="100" width="700" height="320"/></clipPath><clipPath class="axesclip" id="clip7e6d94xy"><rect x="80" y="100" width="537" height="320"/></clipPath></g><g class="gradients"/></defs><g class="bglayer"><rect class="bg" x="80" y="100" width="537" height="320" style="fill: rgb(229, 236, 246); fill-opacity: 1; stroke-width: 0;"/></g><g class="layer-below"><g class="imagelayer"/><g class="shapelayer"/></g><g class="cartesianlayer"><g class="subplot xy"><g class="layer-subplot"><g class="shapelayer"/><g class="imagelayer"/></g><g class="gridlayer"><g class="x"><path class="xgrid crisp" transform="translate(82.73,0)" d="M0,100v320" style="stroke: rgb(255, 255, 255); stroke-opacity: 1; stroke-width: 1px;"/><path class="xgrid crisp" transform="translate(188.1,0)" d="M0,100v320" style="stroke: rgb(255, 255, 255); stroke-opacity: 1; stroke-width: 1px;"/><path class="xgrid crisp" transform="translate(293.47,0)" d="M0,100v320" style="stroke: rgb(255, 255, 255); stroke-opacity: 1; stroke-width: 1px;"/><path class="xgrid crisp" transform="translate(398.84,0)" d="M0,100v320" style="stroke: rgb(255, 255, 255); stroke-opacity: 1; stroke-width: 1px;"/><path class="xgrid crisp" transform="translate(504.2,0)" d="M0,100v320" style="stroke: rgb(255, 255, 255); stroke-opacity: 1; stroke-width: 1px;"/><path class="xgrid crisp" transform="translate(609.57,0)" d="M0,100v320" style="stroke: rgb(255, 255, 255); stroke-opacity: 1; stroke-width: 1px;"/></g><g class="y"><path class="ygrid crisp" transform="translate(0,392.55)" d="M80,0h537" style="stroke: rgb(255, 255, 255); stroke-opacity: 1; stroke-width: 1px;"/><path class="ygrid crisp" transform="translate(0,349.77)" d="M80,0h537" style="stroke: rgb(255, 255, 255); stroke-opacity: 1; stroke-width: 1px;"/><path class="ygrid crisp" transform="translate(0,306.99)" d="M80,0h537" style="stroke: rgb(255, 255, 255); stroke-opacity: 1; stroke-width: 1px;"/><path class="ygrid crisp" transform="translate(0,264.21000000000004)" d="M80,0h537" style="stroke: rgb(255, 255, 255); stroke-opacity: 1; stroke-width: 1px;"/><path class="ygrid crisp" transform="translate(0,221.43)" d="M80,0h537" style="stroke: rgb(255, 255, 255); stroke-opacity: 1; stroke-width: 1px;"/><path class="ygrid crisp" transform="translate(0,178.65)" d="M80,0h537" style="stroke: rgb(255, 255, 255); stroke-opacity: 1; stroke-width: 1px;"/><path class="ygrid crisp" transform="translate(0,135.87)" d="M80,0h537" style="stroke: rgb(255, 255, 255); stroke-opacity: 1; stroke-width: 1px;"/></g></g><g class="zerolinelayer"/><path class="xlines-below"/><path class="ylines-below"/><g class="overlines-below"/><g class="xaxislayer-below"/><g class="yaxislayer-below"/><g class="overaxes-below"/><g class="plot" transform="translate(80,100)" clip-path="url('#clip7e6d94xyplot')"><g class="scatterlayer mlayer"><g class="trace scatter trace2630c0" style="stroke-miterlimit: 2; opacity: 1;"><g class="fills"/><g class="errorbars"/><g class="lines"><path class="js-line" d="M0,304L2.11,302.59L2.84,249.74L3.57,251.04L4.31,249.35L7.23,248.71L7.96,248.32L9.43,249.1L10.16,248.19L11.62,248.58L12.35,248.19L13.82,247.93L14.55,247.67L16.01,247.41L16.75,247.16L22.6,246.77L23.33,246.51L27.72,246.12L28.45,245.73L29.92,245.86L30.65,245.22L32.11,245.09L32.84,244.44L34.3,244.57L35.03,243.66L36.5,244.57L37.23,243.02L39.42,242.11L40.16,242.63L40.89,242.24L41.62,243.15L43.09,240.17L43.81,240.69L44.55,240.69L45.28,239.78L48.94,236.94L49.67,237.97L50.4,238.23L51.13,237.07L51.86,235L52.6,235.51L53.33,236.55L54.06,235L55.52,232.67L56.26,232.28L57.72,230.6L58.45,231.12L59.91,229.95L60.65,230.21L61.38,231.76L62.11,229.56L64.31,230.6L65.04,230.21L67.23,226.07L67.96,226.85L69.43,225.68L70.16,227.36L70.89,227.11L71.62,225.55L74.55,221.16L75.28,218.44L76.01,219.09L76.74,217.66L77.48,216.63L78.21,217.4L79.67,217.66L80.4,218.7L83.33,216.5L84.06,216.37L85.53,215.72L86.26,214.69L86.99,214.3L87.72,214.82L89.18,215.98L89.91,214.43L92.11,213.39L92.85,212.88L94.3,212.23L95.04,211.45L97.23,212.23L97.96,211.84L99.43,211.58L100.16,211.84L101.62,210.42L102.36,208.87L103.82,207.7L104.55,206.93L106.01,207.96L106.74,207.44L107.48,207.96L108.21,142.27L110.4,140.18L111.14,140.44L112.6,139.92L113.33,139.01L114.79,139.14L115.53,139.14L118.45,138.48L119.18,138.35L121.38,137.83L122.11,137.96L128.69,137.96L129.43,138.09L134.55,137.83L135.28,137.18L137.47,137.18L138.21,136.14L141.13,136.27L141.87,135.74L143.33,135.88L144.06,135.22L145.53,134.57L146.25,135.22L149.18,132.22L149.91,133.27L152.11,131.57L152.84,132.22L155.77,128.44L156.5,130.14L159.42,127.14L160.16,128.05L161.62,126.48L162.35,127.66L163.08,128.7L163.82,127.79L164.55,128.83L165.28,128.31L166.01,127.4L166.74,128.44L167.47,127.79L168.2,128.18L170.4,128.83L171.13,128.44L174.07,124.79L174.8,124.92L176.27,125.96L177,124.01L179.93,123.09L180.66,121.4L183.58,121.92L184.32,120.61L185.05,118.4L185.78,119.96L186.51,119.96L187.24,118.79L187.97,119.7L188.7,119.18L190.17,117.35L190.9,117.48L193.1,114.35L193.83,114.48L195.29,112.14L196.02,112.92L197.49,110.83L198.22,111.35L200.41,110.7L201.14,108.09L201.88,107.96L202.6,106.92L203.34,105.48L204.07,105.74L204.8,106L205.53,107.18L206.27,107.83L207,107.18L207.74,109.13L208.46,108.35L209.19,108.22L209.92,106.66L210.66,106.27L211.39,106.79L212.85,107.05L213.59,61.25L215.05,59.41L215.78,59.15L217.97,57.57L218.7,57.17L220.17,57.04L220.9,56.78L223.83,55.46L224.56,54.54L226.03,54.28L226.76,54.81L229.68,53.75L230.41,53.62L231.88,53.62L232.61,53.75L244.31,51.78L245.05,52.18L247.24,51.12L247.97,51.25L248.71,51.52L249.43,50.73L253.82,50.07L255.29,49.54L256.02,48.23L257.48,47.83L258.94,47.44L259.68,45.73L260.41,46.91L261.14,45.73L262.61,45.73L263.34,45.07L264.07,44.94L264.8,43.76L266.99,43.49L267.73,41.91L269.19,40.2L269.92,39.42L270.63,38.1L271.36,38.76L273.56,37.71L274.29,36L277.22,35.34L277.94,33.36L278.68,32.71L279.41,33.23L280.87,32.44L281.61,32.05L282.34,31.92L283.07,30.86L284.53,30.86L285.26,31.39L286.72,32.97L287.46,31.13L288.92,32.31L289.67,30.34L291.12,30.47L291.85,30.86L294.05,29.02L294.78,29.42L296.24,27.71L296.97,26.66L297.7,24.16L298.44,24.68L299.17,23.24L299.9,24.68L301.36,22.84L302.1,22.58L302.83,21.26L303.55,21.66L305.02,21.79L305.75,20.74L306.48,21.26L307.22,19.68L308.68,19.55L309.41,18.5L312.34,18.89L313.07,17.97L314.53,17.84L315.27,17.97L316.73,16L317.46,16.66L318.19,16.39L318.93,171.81L322.58,171.4L323.32,172.08L325.51,170.99L326.24,170.99L327.71,169.76L328.44,169.76L329.9,168.94L330.63,169.08L343.07,168.39L343.8,167.98L353.31,165.8L354.04,165.12L357.7,164.02L358.44,162.66L361.39,162.38L362.12,163.61L363.58,161.7L364.31,161.57L365.05,160.88L365.78,158.43L366.51,156.51L367.24,156.79L367.97,156.1L368.7,154.33L369.44,154.88L370.17,154.19L371.63,154.33L372.36,153.37L373.82,152.69L374.56,153.65L376.75,150.92L377.48,151.87L379.68,149.14L380.41,149.14L381.14,148.32L381.88,149.41L383.34,150.37L384.07,149.41L384.8,149.55L385.54,148.73L388.46,145.18L389.19,144.5L391.39,143.54L392.12,145.04L396.51,141.9L397.24,143.68L398.71,121.97L399.44,121.56L400.9,120.88L401.63,116.1L402.36,116.24L403.09,112.28L403.83,112.55L404.56,109.96L405.29,106.95L406.02,107.91L408.21,101.22L408.95,98.08L410.41,97.53L411.15,95.35L411.88,94.8L412.61,92.07L414.07,89.34L414.8,89.34L417,85.65L417.73,84.7L419.19,82.78L419.93,80.19L423.58,75L424.32,88.44L427.98,84.03L428.71,84.45L429.44,84.31L430.17,85.14L431.64,84.72L432.37,85.41L433.83,84.59L434.56,84.45L436.02,84.03L436.76,84.03L438.22,84.17L438.95,83.62L444.07,84.03L444.81,83.62L449.2,83.21L449.93,83.48L452.85,83.48L453.58,83.35L455.05,83.35L455.78,83.35L457.97,83.35L458.71,83.9L462.36,79.9L463.09,80.18L465.29,78.8L466.02,78.94L466.76,78.53L467.48,76.87L468.95,77.15L469.68,75.63L473.34,72.47L474.07,72.88L476.26,69.44L477,69.02L479.19,66.41L479.92,66.41L481.39,63.79L482.12,63.79L483.58,61.86L484.31,59.66L486.51,54.29L487.24,54.43L488.7,53.6L489.44,51.4L492.37,49.47L493.09,47.82L497.49,46.85L498.22,45.75L498.95,46.16L499.68,45.48L500.41,45.89L506.27,41.21L509.92,38.59L510.66,39.28L513.58,35.97L514.32,35.84L515.05,34.46L515.78,35.01L517.24,33.91L517.98,34.18L518.71,35.28L519.44,34.32L522.37,32.94L523.1,33.91L526.02,33.22L526.76,32.12L528.95,29.78L529.68,81.26L531.15,81.68L531.88,80.56L532.61,79.86L533.34,80.42L535.54,80.42L536.27,81.4L537,81.12" style="vector-effect: non-scaling-stroke; fill: none; stroke: rgb(99, 110, 250); stroke-opacity: 1; stroke-width: 2px; opacity: 1;"/></g><g class="points"/><g class="text"/></g></g></g><g class="overplot"/><path class="xlines-above crisp" d="M0,0" style="fill: none;"/><path class="ylines-above crisp" d="M0,0" style="fill: none;"/><g class="overlines-above"/><g class="xaxislayer-above"><g class="xtick"><text text-anchor="middle" x="0" y="433" transform="translate(82.73,0)" style="font-family: 'Open Sans', verdana, arial, sans-serif; font-size: 12px; fill: rgb(42, 63, 95); fill-opacity: 1; white-space: pre;"><tspan class="line" dy="0em" x="0" y="433">Aug 3</tspan><tspan class="line" dy="1.3em" x="0" y="433">2021</tspan></text></g><g class="xtick"><text text-anchor="middle" x="0" y="433" transform="translate(188.1,0)" style="font-family: 'Open Sans', verdana, arial, sans-serif; font-size: 12px; fill: rgb(42, 63, 95); fill-opacity: 1; white-space: pre;">Aug 4</text></g><g class="xtick"><text text-anchor="middle" x="0" y="433" transform="translate(293.47,0)" style="font-family: 'Open Sans', verdana, arial, sans-serif; font-size: 12px; fill: rgb(42, 63, 95); fill-opacity: 1; white-space: pre;">Aug 5</text></g><g class="xtick"><text text-anchor="middle" x="0" y="433" transform="translate(398.84,0)" style="font-family: 'Open Sans', verdana, arial, sans-serif; font-size: 12px; fill: rgb(42, 63, 95); fill-opacity: 1; white-space: pre;">Aug 6</text></g><g class="xtick"><text text-anchor="middle" x="0" y="433" transform="translate(504.2,0)" style="font-family: 'Open Sans', verdana, arial, sans-serif; font-size: 12px; fill: rgb(42, 63, 95); fill-opacity: 1; white-space: pre;">Aug 7</text></g><g class="xtick"><text text-anchor="middle" x="0" y="433" transform="translate(609.57,0)" style="font-family: 'Open Sans', verdana, arial, sans-serif; font-size: 12px; fill: rgb(42, 63, 95); fill-opacity: 1; white-space: pre;">Aug 8</text></g></g><g class="yaxislayer-above"><g class="ytick"><text text-anchor="end" x="79" y="4.199999999999999" transform="translate(0,392.55)" style="font-family: 'Open Sans', verdana, arial, sans-serif; font-size: 12px; fill: rgb(42, 63, 95); fill-opacity: 1; white-space: pre;">0.864</text></g><g class="ytick"><text text-anchor="end" x="79" y="4.199999999999999" transform="translate(0,349.77)" style="font-family: 'Open Sans', verdana, arial, sans-serif; font-size: 12px; fill: rgb(42, 63, 95); fill-opacity: 1; white-space: pre;">0.865</text></g><g class="ytick"><text text-anchor="end" x="79" y="4.199999999999999" transform="translate(0,306.99)" style="font-family: 'Open Sans', verdana, arial, sans-serif; font-size: 12px; fill: rgb(42, 63, 95); fill-opacity: 1; white-space: pre;">0.866</text></g><g class="ytick"><text text-anchor="end" x="79" y="4.199999999999999" transform="translate(0,264.21000000000004)" style="font-family: 'Open Sans', verdana, arial, sans-serif; font-size: 12px; fill: rgb(42, 63, 95); fill-opacity: 1; white-space: pre;">0.867</text></g><g class="ytick"><text text-anchor="end" x="79" y="4.199999999999999" transform="translate(0,221.43)" style="font-family: 'Open Sans', verdana, arial, sans-serif; font-size: 12px; fill: rgb(42, 63, 95); fill-opacity: 1; white-space: pre;">0.868</text></g><g class="ytick"><text text-anchor="end" x="79" y="4.199999999999999" transform="translate(0,178.65)" style="font-family: 'Open Sans', verdana, arial, sans-serif; font-size: 12px; fill: rgb(42, 63, 95); fill-opacity: 1; white-space: pre;">0.869</text></g><g class="ytick"><text text-anchor="end" x="79" y="4.199999999999999" transform="translate(0,135.87)" style="font-family: 'Open Sans', verdana, arial, sans-serif; font-size: 12px; fill: rgb(42, 63, 95); fill-opacity: 1; white-space: pre;">0.87</text></g></g><g class="overaxes-above"/></g></g><g class="polarlayer"/><g class="ternarylayer"/><g class="geolayer"/><g class="funnelarealayer"/><g class="pielayer"/><g class="treemaplayer"/><g class="sunburstlayer"/><g class="glimages"/><defs id="topdefs-7e6d94"><g class="clips"/><clipPath id="legend7e6d94"><rect width="60" height="45" x="0" y="0"/></clipPath></defs><g class="layer-above"><g class="imagelayer"/><g class="shapelayer"/></g><g class="infolayer"><g class="legend" pointer-events="all" transform="translate(627.74,100)"><rect class="bg" shape-rendering="crispEdges" width="60" height="45" x="0" y="0" style="stroke: rgb(68, 68, 68); stroke-opacity: 1; fill: rgb(255, 255, 255); fill-opacity: 1; stroke-width: 0px;"/><g class="scrollbox" transform="" clip-path="url('#legend7e6d94')"><text class="legendtitletext" text-anchor="start" x="2" y="15.600000000000001" style="font-family: 'Open Sans', verdana, arial, sans-serif; font-size: 12px; fill: rgb(42, 63, 95); fill-opacity: 1; white-space: pre;">All</text><g class="groups" transform=""><g class="traces" transform="translate(0,30.1)" style="opacity: 1;"><text class="legendtext" text-anchor="start" x="40" y="4.680000000000001" style="font-family: 'Open Sans', verdana, arial, sans-serif; font-size: 12px; fill: rgb(42, 63, 95); fill-opacity: 1; white-space: pre;">All</text><g class="layers" style="opacity: 1;"><g class="legendfill"/><g class="legendlines"><path class="js-line" d="M5,0h30" style="fill: none; stroke: rgb(99, 110, 250); stroke-opacity: 1; stroke-width: 2px;"/></g><g class="legendsymbols"><g class="legendpoints"/></g></g><rect class="legendtoggle" x="0" y="-9.5" width="54.890625" height="19" style="fill: rgb(0, 0, 0); fill-opacity: 0;"/></g></g></g><rect class="scrollbar" rx="20" ry="3" width="0" height="0" x="0" y="0" style="fill: rgb(128, 139, 164); fill-opacity: 1;"/></g><g class="g-gtitle"><text class="gtitle" x="35" y="50" text-anchor="start" dy="0em" style="font-family: 'Open Sans', verdana, arial, sans-serif; font-size: 17px; fill: rgb(42, 63, 95); opacity: 1; font-weight: normal; white-space: pre;">Singapore Vaccination Centers</text></g><g class="g-xtitle"><text class="xtitle" x="348.5" y="476.409375" text-anchor="middle" style="font-family: 'Open Sans', verdana, arial, sans-serif; font-size: 14px; fill: rgb(42, 63, 95); opacity: 1; font-weight: normal; white-space: pre;">Time</text></g><g class="g-ytitle"><text class="ytitle" transform="rotate(-90,19.840625000000003,260)" x="19.840625000000003" y="260" text-anchor="middle" style="font-family: 'Open Sans', verdana, arial, sans-serif; font-size: 14px; fill: rgb(42, 63, 95); opacity: 1; font-weight: normal; white-space: pre;">Filled/%</text></g></g></svg>