<svg class="main-svg" xmlns="http://www.w3.org/2000/svg" xmlns:xlink="http://www.w3.org/1999/xlink" width="700" height="500" style="" viewBox="0 0 700 500"><rect x="0" y="0" width="700" height="500" style="fill: rgb(255, 255, 255); fill-opacity: 1;"/><defs id="defs-921af9"><g class="clips"><clipPath id="clip921af9xyplot" class="plotclip"><rect width="537" height="320"/></clipPath><clipPath class="axesclip" id="clip921af9x"><rect x="80" y="0" width="537" height="500"/></clipPath><clipPath class="axesclip" id="clip921af9y"><rect x="0" y="100" width="700" height="320"/></clipPath><clipPath class="axesclip" id="clip921af9xy"><rect x="80" y="100" width="537" height="320"/></clipPath></g><g class="gradients"/></defs><g class="bglayer"><rect class="bg" x="80" y="100" width="537" height="320" style="fill: rgb(229, 236, 246); fill-opacity: 1; stroke-width: 0;"/></g><g class="layer-below"><g class="imagelayer"/><g class="shapelayer"/></g><g class="cartesianlayer"><g class="subplot xy"><g class="layer-subplot"><g class="shapelayer"/><g class="imagelayer"/></g><g class="gridlayer"><g class="x"><path class="xgrid crisp" transform="translate(92.25,0)" d="M0,100v320" style="stroke: rgb(255, 255, 255); stroke-opacity: 1; stroke-width: 1px;"/><path class="xgrid crisp" transform="translate(224.23,0)" d="M0,100v320" style="stroke: rgb(255, 255, 255); stroke-opacity: 1; stroke-width: 1px;"/><path class="xgrid crisp" transform="translate(356.2,0)" d="M0,100v320" style="stroke: rgb(255, 255, 255); stroke-opacity: 1; stroke-width: 1px;"/><path class="xgrid crisp" transform="translate(488.17,0)" d="M0,100v320" style="stroke: rgb(255, 255, 255); stroke-opacity: 1; stroke-width: 1px;"/></g><g class="y"><path class="ygrid crisp" transform="translate(0,367.23)" d="M80,0h537" style="stroke: rgb(255, 255, 255); stroke-opacity: 1; stroke-width: 1px;"/><path class="ygrid crisp" transform="translate(0,308.43)" d="M80,0h537" style="stroke: rgb(255, 255, 255); stroke-opacity: 1; stroke-width: 1px;"/><path class="ygrid crisp" transform="translate(0,249.63)" d="M80,0h537" style="stroke: rgb(255, 255, 255); stroke-opacity: 1; stroke-width: 1px;"/><path class="ygrid crisp" transform="translate(0,190.82999999999998)" d="M80,0h537" style="stroke: rgb(255, 255, 255); stroke-opacity: 1; stroke-width: 1px;"/><path class="ygrid crisp" transform="translate(0,132.03)" d="M80,0h537" style="stroke: rgb(255, 255, 255); stroke-opacity: 1; stroke-width: 1px;"/></g></g><g class="zerolinelayer"/><path class="xlines-below"/><path class="ylines-below"/><g class="overlines-below"/><g class="xaxislayer-below"/><g class="yaxislayer-below"/><g class="overaxes-below"/><g class="plot" transform="translate(80,100)" clip-path="url('#clip921af9xyplot')"><g class="scatterlayer mlayer"><g class="trace scatter trace389ce5" style="stroke-miterlimit: 2; opacity: 1;"><g class="fills"/><g class="errorbars"/><g class="lines"><path class="js-line" d="M0,82.28L7.74,82.51L10.49,120.48L15.95,120.57L17.98,136.92L18.84,136.9L39.08,137.96L40.34,121.23L40.72,129.62L41.64,129.56L43.47,126.37L44.39,126.27L46.22,129.79L47.14,129.7L48.97,132.71L49.88,132.63L51.72,120.69L52.64,120.62L54.47,132.64L55.39,132.55L57.22,126.68L58.13,123.32L59.97,113.21L60.88,109.51L62.72,94.58L63.63,92.89L65.46,74.17L66.38,72.87L68.21,78.78L69.13,77.73L70.96,63.68L71.88,62.82L73.71,65.47L74.63,64.83L76.46,74.27L77.38,73.83L78.59,51.83L79.21,52.53L80.13,52.34L89.29,51.79L90.21,51.79L103.96,50.91L104.87,50.65L136.95,42.03L137.87,41.83L143.37,40.95L144.28,41.79L160.78,41.46L161.7,41.46L176.36,40.58L177.28,40.48L205.69,37.17L206.6,37.08L209.35,36.83L210.27,35.53L246.01,34L246.93,33.87L275.34,31.05L276.26,28.56L307.42,27.81L308.34,95.38L318.45,93.57L319.34,93.44L320.25,93.12L321.17,91.51L323.92,88.51L324.84,87.52L328.5,74.89L329.42,73.59L333.08,69.79L334,69.11L339.5,66.07L340.41,65.71L345,65.01L345.91,64.93L370.66,63.48L371.57,63.27L377.07,61.32L377.99,60.89L378.91,60.46L379.82,62.78L383.49,61.15L384.41,59.94L388.99,54.01L389.9,53.24L393.57,49.13L394.49,47.98L398.15,39.84L399.07,38.66L404.57,33.5L405.48,32.89L409.15,31.98L410.07,31.8L417.4,31.18L418.32,31.16L432.06,30.17L432.98,29.9L438.48,28.09L439.39,74.81L441.23,73.22L442.14,72.76L451.31,69.16L452.23,68.8L452.93,71.93L453.14,68.39L454.02,68.25L454.06,69.25L454.93,67.95L454.98,68.94L455.89,68.62L457.73,68.09L458.64,76.43L466.67,73.91L466.7,72.31L466.75,72.03L466.89,73.74L475.6,44.74L476.05,44.87L476.52,41.95L477.43,42.12L477.89,43.2L479.26,37.43L479.72,41.6L481.09,39.66L481.55,39.05L482.93,38.13L483.39,38.96L484.3,38.53L484.76,38.42L486.14,38.4L486.6,43.02L491.64,41.69L492.09,36.5L493.01,35.76L493.47,35.39L494.84,33.79L495.3,33.41L498.97,22.43L499.42,16L499.88,16.8L500.34,140.18L500.8,139.22L501.26,142.07L502.17,136.79L502.63,138.99L503.55,136.15L504.01,136.63L504.47,141.25L504.92,146.68L505.38,133.42L506.3,138.09L506.76,157.2L508.13,133.53L508.59,145.44L509.05,148.42L509.5,146.68L509.96,144.02L510.88,134.36L511.34,135.71L512.25,146.05L512.71,142.1L513.17,141.74L513.63,151.77L514.54,140.84L515,148.68L515.92,127.07L516.38,137.58L517.3,140.49L517.75,138.92L518.67,130.34L519.13,131.67L519.59,129.31L520.04,138.25L520.5,134.05L520.96,138.68L521.42,138.81L521.88,131.49L522.34,131.42L522.79,140.05L523.71,132.48L524.17,138.41L525.09,141.46L525.54,128.79L526.46,142.96L526.92,264.58L527.84,292.55L528.3,293.12L528.75,304L529.21,286.22L529.67,301.52L530.13,291.75L530.59,292.1L531.04,291.07L531.5,294.16L531.96,293.46L532.42,276.02L532.88,283.67L533.33,262.28L534.25,272.54L534.71,248.89L535.62,241.71L536.08,229.6L536.54,224.98L537,228.24" style="vector-effect: non-scaling-stroke; fill: none; stroke: rgb(99, 110, 250); stroke-opacity: 1; stroke-width: 2px; opacity: 1;"/></g><g class="points"/><g class="text"/></g></g></g><g class="overplot"/><path class="xlines-above crisp" d="M0,0" style="fill: none;"/><path class="ylines-above crisp" d="M0,0" style="fill: none;"/><g class="overlines-above"/><g class="xaxislayer-above"><g class="xtick"><text text-anchor="middle" x="0" y="433" transform="translate(92.25,0)" style="font-family: 'Open Sans', verdana, arial, sans-serif; font-size: 12px; fill: rgb(42, 63, 95); fill-opacity: 1; white-space: pre;"><tspan class="line" dy="0em" x="0" y="433">Jun 4</tspan><tspan class="line" dy="1.3em" x="0" y="433">2021</tspan></text></g><g class="xtick"><text text-anchor="middle" x="0" y="433" transform="translate(224.23,0)" style="font-family: 'Open Sans', verdana, arial, sans-serif; font-size: 12px; fill: rgb(42, 63, 95); fill-opacity: 1; white-space: pre;">Jun 6</text></g><g class="xtick"><text text-anchor="middle" x="0" y="433" transform="translate(356.2,0)" style="font-family: 'Open Sans', verdana, arial, sans-serif; font-size: 12px; fill: rgb(42, 63, 95); fill-opacity: 1; white-space: pre;">Jun 8</text></g><g class="xtick"><text text-anchor="middle" x="0" y="433" transform="translate(488.17,0)" style="font-family: 'Open Sans', verdana, arial, sans-serif; font-size: 12px; fill: rgb(42, 63, 95); fill-opacity: 1; white-space: pre;">Jun 10</text></g></g><g class="yaxislayer-above"><g class="ytick"><text text-anchor="end" x="79" y="4.199999999999999" transform="translate(0,367.23)" style="font-family: 'Open Sans', verdana, arial, sans-serif; font-size: 12px; fill: rgb(42, 63, 95); fill-opacity: 1; white-space: pre;">0.8</text></g><g class="ytick"><text text-anchor="end" x="79" y="4.199999999999999" transform="translate(0,308.43)" style="font-family: 'Open Sans', verdana, arial, sans-serif; font-size: 12px; fill: rgb(42, 63, 95); fill-opacity: 1; white-space: pre;">0.82</text></g><g class="ytick"><text text-anchor="end" x="79" y="4.199999999999999" transform="translate(0,249.63)" style="font-family: 'Open Sans', verdana, arial, sans-serif; font-size: 12px; fill: rgb(42, 63, 95); fill-opacity: 1; white-space: pre;">0.84</text></g><g class="ytick"><text text-anchor="end" x="79" y="4.199999999999999" transform="translate(0,190.82999999999998)" style="font-family: 'Open Sans', verdana, arial, sans-serif; font-size: 12px; fill: rgb(42, 63, 95); fill-opacity: 1; white-space: pre;">0.86</text></g><g class="ytick"><text text-anchor="end" x="79" y="4.199999999999999" transform="translate(0,132.03)" style="font-family: 'Open Sans', verdana, arial, sans-serif; font-size: 12px; fill: rgb(42, 63, 95); fill-opacity: 1; white-space: pre;">0.88</text></g></g><g class="overaxes-above"/></g></g><g class="polarlayer"/><g class="ternarylayer"/><g class="geolayer"/><g class="funnelarealayer"/><g class="pielayer"/><g class="treemaplayer"/><g class="sunburstlayer"/><g class="glimages"/><defs id="topdefs-921af9"><g class="clips"/><clipPath id="legend921af9"><rect width="60" height="45" x="0" y="0"/></clipPath></defs><g class="layer-above"><g class="imagelayer"/><g class="shapelayer"/></g><g class="infolayer"><g class="legend" pointer-events="all" transform="translate(627.74,100)"><rect class="bg" shape-rendering="crispEdges" width="60" height="45" x="0" y="0" style="stroke: rgb(68, 68, 68); stroke-opacity: 1; fill: rgb(255, 255, 255); fill-opacity: 1; stroke-width: 0px;"/><g class="scrollbox" transform="" clip-path="url('#legend921af9')"><text class="legendtitletext" text-anchor="start" x="2" y="15.600000000000001" style="font-family: 'Open Sans', verdana, arial, sans-serif; font-size: 12px; fill: rgb(42, 63, 95); fill-opacity: 1; white-space: pre;">All</text><g class="groups" transform=""><g class="traces" transform="translate(0,30.1)" style="opacity: 1;"><text class="legendtext" text-anchor="start" x="40" y="4.680000000000001" style="font-family: 'Open Sans', verdana, arial, sans-serif; font-size: 12px; fill: rgb(42, 63, 95); fill-opacity: 1; white-space: pre;">All</text><g class="layers" style="opacity: 1;"><g class="legendfill"/><g class="legendlines"><path class="js-line" d="M5,0h30" style="fill: none; stroke: rgb(99, 110, 250); stroke-opacity: 1; stroke-width: 2px;"/></g><g class="legendsymbols"><g class="legendpoints"/></g></g><rect class="legendtoggle" x="0" y="-9.5" width="54.890625" height="19" style="fill: rgb(0, 0, 0); fill-opacity: 0;"/></g></g></g><rect class="scrollbar" rx="20" ry="3" width="0" height="0" x="0" y="0" style="fill: rgb(128, 139, 164); fill-opacity: 1;"/></g><g class="g-gtitle"><text class="gtitle" x="35" y="50" text-anchor="start" dy="0em" style="font-family: 'Open Sans', verdana, arial, sans-serif; font-size: 17px; fill: rgb(42, 63, 95); opacity: 1; font-weight: normal; white-space: pre;">Singapore Vaccination Centers</text></g><g class="g-xtitle"><text class="xtitle" x="348.5" y="476.409375" text-anchor="middle" style="font-family: 'Open Sans', verdana, arial, sans-serif; font-size: 14px; fill: rgb(42, 63, 95); opacity: 1; font-weight: normal; white-space: pre;">Time</text></g><g class="g-ytitle"><text class="ytitle" transform="rotate(-90,27.481250000000003,260)" x="27.481250000000003" y="260" text-anchor="middle" style="font-family: 'Open Sans', verdana, arial, sans-serif; font-size: 14px; fill: rgb(42, 63, 95); opacity: 1; font-weight: normal; white-space: pre;">Filled/%</text></g></g></svg>