<svg class="main-svg" xmlns="http://www.w3.org/2000/svg" xmlns:xlink="http://www.w3.org/1999/xlink" width="700" height="500" style="" viewBox="0 0 700 500"><rect x="0" y="0" width="700" height="500" style="fill: rgb(255, 255, 255); fill-opacity: 1;"/><defs id="defs-000c2c"><g class="clips"><clipPath id="clip000c2cxyplot" class="plotclip"><rect width="537" height="320"/></clipPath><clipPath class="axesclip" id="clip000c2cx"><rect x="80" y="0" width="537" height="500"/></clipPath><clipPath class="axesclip" id="clip000c2cy"><rect x="0" y="100" width="700" height="320"/></clipPath><clipPath class="axesclip" id="clip000c2cxy"><rect x="80" y="100" width="537" height="320"/></clipPath></g><g class="gradients"/></defs><g class="bglayer"><rect class="bg" x="80" y="100" width="537" height="320" style="fill: rgb(229, 236, 246); fill-opacity: 1; stroke-width: 0;"/></g><g class="layer-below"><g class="imagelayer"/><g class="shapelayer"/></g><g class="cartesianlayer"><g class="subplot xy"><g class="layer-subplot"><g class="shapelayer"/><g class="imagelayer"/></g><g class="gridlayer"><g class="x"><path class="xgrid crisp" transform="translate(85.2,0)" d="M0,100v320" style="stroke: rgb(255, 255, 255); stroke-opacity: 1; stroke-width: 1px;"/><path class="xgrid crisp" transform="translate(185.4,0)" d="M0,100v320" style="stroke: rgb(255, 255, 255); stroke-opacity: 1; stroke-width: 1px;"/><path class="xgrid crisp" transform="translate(285.61,0)" d="M0,100v320" style="stroke: rgb(255, 255, 255); stroke-opacity: 1; stroke-width: 1px;"/><path class="xgrid crisp" transform="translate(385.81,0)" d="M0,100v320" style="stroke: rgb(255, 255, 255); stroke-opacity: 1; stroke-width: 1px;"/><path class="xgrid crisp" transform="translate(486.01,0)" d="M0,100v320" style="stroke: rgb(255, 255, 255); stroke-opacity: 1; stroke-width: 1px;"/><path class="xgrid crisp" transform="translate(586.21,0)" d="M0,100v320" style="stroke: rgb(255, 255, 255); stroke-opacity: 1; stroke-width: 1px;"/></g><g class="y"><path class="ygrid crisp" transform="translate(0,391.88)" d="M80,0h537" style="stroke: rgb(255, 255, 255); stroke-opacity: 1; stroke-width: 1px;"/><path class="ygrid crisp" transform="translate(0,346.6)" d="M80,0h537" style="stroke: rgb(255, 255, 255); stroke-opacity: 1; stroke-width: 1px;"/><path class="ygrid crisp" transform="translate(0,301.31)" d="M80,0h537" style="stroke: rgb(255, 255, 255); stroke-opacity: 1; stroke-width: 1px;"/><path class="ygrid crisp" transform="translate(0,256.03)" d="M80,0h537" style="stroke: rgb(255, 255, 255); stroke-opacity: 1; stroke-width: 1px;"/><path class="ygrid crisp" transform="translate(0,210.75)" d="M80,0h537" style="stroke: rgb(255, 255, 255); stroke-opacity: 1; stroke-width: 1px;"/><path class="ygrid crisp" transform="translate(0,165.47)" d="M80,0h537" style="stroke: rgb(255, 255, 255); stroke-opacity: 1; stroke-width: 1px;"/><path class="ygrid crisp" transform="translate(0,120.18)" d="M80,0h537" style="stroke: rgb(255, 255, 255); stroke-opacity: 1; stroke-width: 1px;"/></g></g><g class="zerolinelayer"/><path class="xlines-below"/><path class="ylines-below"/><g class="overlines-below"/><g class="xaxislayer-below"/><g class="yaxislayer-below"/><g class="overaxes-below"/><g class="plot" transform="translate(80,100)" clip-path="url('#clip000c2cxyplot')"><g class="scatterlayer mlayer"><g class="trace scatter tracebe4b87" style="stroke-miterlimit: 2; opacity: 1;"><g class="fills"/><g class="errorbars"/><g class="lines"><path class="js-line" d="M0,304L4.01,302.51L5.41,246.57L6.8,247.94L8.19,246.16L13.75,245.47L15.14,245.06L17.93,245.88L19.32,244.93L20.75,245.61L22.1,245.34L27.67,244.38L29.07,244.65L31.85,243.83L33.24,243.83L36.02,243.83L37.41,243.83L41.59,243.56L42.98,243.42L47.15,243.28L48.54,243.42L52.72,242.73L54.11,242.32L56.9,242.46L58.29,241.78L61.07,241.64L62.46,240.96L63.86,241.5L65.25,241.09L66.63,240.13L68.03,240.41L69.42,241.09L70.81,239.45L74.98,238.49L76.38,239.04L77.77,238.63L79.16,239.59L80.55,238.63L81.95,236.44L84.73,236.98L86.12,236.03L91.69,233.97L93.08,233.01L95.86,234.38L97.26,233.15L98.64,230.96L100.04,231.51L101.43,232.6L102.81,230.96L105.6,228.5L107,228.08L109.78,226.3L111.17,226.85L113.95,225.62L115.35,225.89L116.74,227.54L118.13,225.21L122.31,226.3L123.7,225.89L126.48,221.92L127.87,221.51L129.26,222.33L130.66,220.96L132.05,221.1L133.44,222.88L134.83,222.61L136.22,220.96L141.79,216.31L143.18,213.43L144.57,214.12L145.96,212.61L147.36,211.52L148.75,212.34L151.53,212.61L152.92,213.71L158.5,211.38L159.88,211.24L162.67,210.56L164.06,209.46L165.45,209.05L166.84,209.6L168.24,210.83L169.62,210.83L172.41,208.5L173.8,208.23L177.97,207.41L179.37,206.86L180.76,206.04L182.15,206.45L189.11,206.18L190.5,206.45L193.28,204.94L194.68,203.3L196.06,202.07L197.46,202.07L198.85,201.25L200.24,202.21L204.42,202.34L205.81,132.81L209.98,130.6L211.38,130.87L214.16,130.32L215.55,129.35L218.33,129.49L219.73,129.49L225.29,128.8L226.68,128.66L230.86,128.11L232.25,128.25L244.77,128.25L246.17,128.39L255.91,128.11L257.3,127.42L261.47,127.42L262.86,126.32L268.43,126.45L269.82,125.9L272.6,126.04L273.99,125.35L276.79,124.66L278.17,125.35L282.35,122.17L283.73,122.17L285.13,123.28L286.52,122.86L289.31,121.48L290.7,122.17L294.87,119.96L296.26,118.17L297.66,119.96L299.04,119.14L303.22,116.79L304.62,117.76L307.4,116.1L308.79,117.34L310.18,118.45L311.57,117.48L312.97,118.58L314.36,118.03L315.74,117.07L317.14,118.17L318.53,117.48L319.92,117.89L322.71,119L324.1,118.58L326.9,117.34L328.3,116.1L329.68,114.58L331.08,114.3L333.86,114.99L335.25,115.55L336.65,113.48L338.03,113.2L342.21,112.51L343.61,110.71L347.78,111.82L349.17,111.27L351.95,107.54L353.35,109.2L354.74,109.2L356.13,107.95L357.52,108.92L358.91,108.37L361.7,106.43L363.09,106.57L367.27,103.26L368.66,103.4L371.44,100.91L372.83,101.74L375.61,99.53L377.01,100.08L381.18,99.39L382.57,96.63L383.96,96.49L385.35,95.39L386.75,93.87L388.14,94.15L389.53,94.42L390.92,95.66L392.32,96.35L393.71,95.66L395.11,97.74L396.49,96.91L397.88,96.77L399.27,95.11L400.66,94.7L402.06,95.25L404.84,95.53L406.23,47.05L409.01,45.1L410.4,44.82L413.19,44.13L414.58,43.15L418.75,42.6L420.14,42.32L425.71,40.92L427.11,39.95L429.89,39.67L431.28,40.23L435.46,38.97L436.85,39.11L453.54,37.72L454.94,38L460.51,37.03L461.9,37.3L463.28,36.75L464.68,37.03L466.07,37.44L467.46,36.89L468.85,37.03L470.24,36.33L473.03,36.75L474.41,35.91L482.77,35.22L485.55,34.66L486.94,33.27L489.72,32.85L492.5,32.43L493.9,30.62L495.29,31.87L496.69,30.62L499.47,30.62L500.86,29.92L502.25,29.78L503.64,28.53L507.81,28.25L509.21,26.58L510.6,25.05L511.99,24.77L514.73,22.54L516.12,23.24L518.9,21.71L520.29,22.13L521.69,20.32L523.07,20.04L524.47,19.48L525.86,19.9L527.26,19.62L528.64,17.53L530.04,16.84L531.43,17.39L534.21,16.56L535.61,16.14L537,16" style="vector-effect: non-scaling-stroke; fill: none; stroke: rgb(99, 110, 250); stroke-opacity: 1; stroke-width: 2px; opacity: 1;"/></g><g class="points"/><g class="text"/></g></g></g><g class="overplot"/><path class="xlines-above crisp" d="M0,0" style="fill: none;"/><path class="ylines-above crisp" d="M0,0" style="fill: none;"/><g class="overlines-above"/><g class="xaxislayer-above"><g class="xtick"><text text-anchor="middle" x="0" y="433" transform="translate(85.2,0)" style="font-family: 'Open Sans', verdana, arial, sans-serif; font-size: 12px; fill: rgb(42, 63, 95); fill-opacity: 1; white-space: pre;"><tspan class="line" dy="0em" x="0" y="433">00:00</tspan><tspan class="line" dy="1.3em" x="0" y="433">Aug 3, 2021</tspan></text></g><g class="xtick"><text text-anchor="middle" x="0" y="433" transform="translate(185.4,0)" style="font-family: 'Open Sans', verdana, arial, sans-serif; font-size: 12px; fill: rgb(42, 63, 95); fill-opacity: 1; white-space: pre;">12:00</text></g><g class="xtick"><text text-anchor="middle" x="0" y="433" transform="translate(285.61,0)" style="font-family: 'Open Sans', verdana, arial, sans-serif; font-size: 12px; fill: rgb(42, 63, 95); fill-opacity: 1; white-space: pre;"><tspan class="line" dy="0em" x="0" y="433">00:00</tspan><tspan class="line" dy="1.3em" x="0" y="433">Aug 4, 2021</tspan></text></g><g class="xtick"><text text-anchor="middle" x="0" y="433" transform="translate(385.81,0)" style="font-family: 'Open Sans', verdana, arial, sans-serif; font-size: 12px; fill: rgb(42, 63, 95); fill-opacity: 1; white-space: pre;">12:00</text></g><g class="xtick"><text text-anchor="middle" x="0" y="433" transform="translate(486.01,0)" style="font-family: 'Open Sans', verdana, arial, sans-serif; font-size: 12px; fill: rgb(42, 63, 95); fill-opacity: 1; white-space: pre;"><tspan class="line" dy="0em" x="0" y="433">00:00</tspan><tspan class="line" dy="1.3em" x="0" y="433">Aug 5, 2021</tspan></text></g><g class="xtick"><text text-anchor="middle" x="0" y="433" transform="translate(586.21,0)" style="font-family: 'Open Sans', verdana, arial, sans-serif; font-size: 12px; fill: rgb(42, 63, 95); fill-opacity: 1; white-space: pre;">12:00</text></g></g><g class="yaxislayer-above"><g class="ytick"><text text-anchor="end" x="79" y="4.199999999999999" transform="translate(0,391.88)" style="font-family: 'Open Sans', verdana, arial, sans-serif; font-size: 12px; fill: rgb(42, 63, 95); fill-opacity: 1; white-space: pre;">0.864</text></g><g class="ytick"><text text-anchor="end" x="79" y="4.199999999999999" transform="translate(0,346.6)" style="font-family: 'Open Sans', verdana, arial, sans-serif; font-size: 12px; fill: rgb(42, 63, 95); fill-opacity: 1; white-space: pre;">0.865</text></g><g class="ytick"><text text-anchor="end" x="79" y="4.199999999999999" transform="translate(0,301.31)" style="font-family: 'Open Sans', verdana, arial, sans-serif; font-size: 12px; fill: rgb(42, 63, 95); fill-opacity: 1; white-space: pre;">0.866</text></g><g class="ytick"><text text-anchor="end" x="79" y="4.199999999999999" transform="translate(0,256.03)" style="font-family: 'Open Sans', verdana, arial, sans-serif; font-size: 12px; fill: rgb(42, 63, 95); fill-opacity: 1; white-space: pre;">0.867</text></g><g class="ytick"><text text-anchor="end" x="79" y="4.199999999999999" transform="translate(0,210.75)" style="font-family: 'Open Sans', verdana, arial, sans-serif; font-size: 12px; fill: rgb(42, 63, 95); fill-opacity: 1; white-space: pre;">0.868</text></g><g class="ytick"><text text-anchor="end" x="79" y="4.199999999999999" transform="translate(0,165.47)" style="font-family: 'Open Sans', verdana, arial, sans-serif; font-size: 12px; fill: rgb(42, 63, 95); fill-opacity: 1; white-space: pre;">0.869</text></g><g class="ytick"><text text-anchor="end" x="79" y="4.199999999999999" transform="translate(0,120.18)" style="font-family: 'Open Sans', verdana, arial, sans-serif; font-size: 12px; fill: rgb(42, 63, 95); fill-opacity: 1; white-space: pre;">0.87</text></g></g><g class="overaxes-above"/></g></g><g class="polarlayer"/><g class="ternarylayer"/><g class="geolayer"/><g class="funnelarealayer"/><g class="pielayer"/><g class="treemaplayer"/><g class="sunburstlayer"/><g class="glimages"/><defs id="topdefs-000c2c"><g class="clips"/><clipPath id="legend000c2c"><rect width="60" height="45" x="0" y="0"/></clipPath></defs><g class="layer-above"><g class="imagelayer"/><g class="shapelayer"/></g><g class="infolayer"><g class="legend" pointer-events="all" transform="translate(627.74,100)"><rect class="bg" shape-rendering="crispEdges" width="60" height="45" x="0" y="0" style="stroke: rgb(68, 68, 68); stroke-opacity: 1; fill: rgb(255, 255, 255); fill-opacity: 1; stroke-width: 0px;"/><g class="scrollbox" transform="" clip-path="url('#legend000c2c')"><text class="legendtitletext" text-anchor="start" x="2" y="15.600000000000001" style="font-family: 'Open Sans', verdana, arial, sans-serif; font-size: 12px; fill: rgb(42, 63, 95); fill-opacity: 1; white-space: pre;">All</text><g class="groups" transform=""><g class="traces" transform="translate(0,30.1)" style="opacity: 1;"><text class="legendtext" text-anchor="start" x="40" y="4.680000000000001" style="font-family: 'Open Sans', verdana, arial, sans-serif; font-size: 12px; fill: rgb(42, 63, 95); fill-opacity: 1; white-space: pre;">All</text><g class="layers" style="opacity: 1;"><g class="legendfill"/><g class="legendlines"><path class="js-line" d="M5,0h30" style="fill: none; stroke: rgb(99, 110, 250); stroke-opacity: 1; stroke-width: 2px;"/></g><g class="legendsymbols"><g class="legendpoints"/></g></g><rect class="legendtoggle" x="0" y="-9.5" width="54.890625" height="19" style="fill: rgb(0, 0, 0); fill-opacity: 0;"/></g></g></g><rect class="scrollbar" rx="20" ry="3" width="0" height="0" x="0" y="0" style="fill: rgb(128, 139, 164); fill-opacity: 1;"/></g><g class="g-gtitle"><text class="gtitle" x="35" y="50" text-anchor="start" dy="0em" style="font-family: 'Open Sans', verdana, arial, sans-serif; font-size: 17px; fill: rgb(42, 63, 95); opacity: 1; font-weight: normal; white-space: pre;">Singapore Vaccination Centers</text></g><g class="g-xtitle"><text class="xtitle" x="348.5" y="476.409375" text-anchor="middle" style="font-family: 'Open Sans', verdana, arial, sans-serif; font-size: 14px; fill: rgb(42, 63, 95); opacity: 1; font-weight: normal; white-space: pre;">Time</text></g><g class="g-ytitle"><text class="ytitle" transform="rotate(-90,19.840625000000003,260)" x="19.840625000000003" y="260" text-anchor="middle" style="font-family: 'Open Sans', verdana, arial, sans-serif; font-size: 14px; fill: rgb(42, 63, 95); opacity: 1; font-weight: normal; white-space: pre;">Filled/%</text></g></g></svg>