<svg class="main-svg" xmlns="http://www.w3.org/2000/svg" xmlns:xlink="http://www.w3.org/1999/xlink" width="700" height="500" style="" viewBox="0 0 700 500"><rect x="0" y="0" width="700" height="500" style="fill: rgb(255, 255, 255); fill-opacity: 1;"/><defs id="defs-1aa78a"><g class="clips"><clipPath id="clip1aa78axyplot" class="plotclip"><rect width="537" height="320"/></clipPath><clipPath class="axesclip" id="clip1aa78ax"><rect x="80" y="0" width="537" height="500"/></clipPath><clipPath class="axesclip" id="clip1aa78ay"><rect x="0" y="100" width="700" height="320"/></clipPath><clipPath class="axesclip" id="clip1aa78axy"><rect x="80" y="100" width="537" height="320"/></clipPath></g><g class="gradients"/></defs><g class="bglayer"><rect class="bg" x="80" y="100" width="537" height="320" style="fill: rgb(229, 236, 246); fill-opacity: 1; stroke-width: 0;"/></g><g class="layer-below"><g class="imagelayer"/><g class="shapelayer"/></g><g class="cartesianlayer"><g class="subplot xy"><g class="layer-subplot"><g class="shapelayer"/><g class="imagelayer"/></g><g class="gridlayer"><g class="x"><path class="xgrid crisp" transform="translate(83.72,0)" d="M0,100v320" style="stroke: rgb(255, 255, 255); stroke-opacity: 1; stroke-width: 1px;"/><path class="xgrid crisp" transform="translate(155.47,0)" d="M0,100v320" style="stroke: rgb(255, 255, 255); stroke-opacity: 1; stroke-width: 1px;"/><path class="xgrid crisp" transform="translate(227.22,0)" d="M0,100v320" style="stroke: rgb(255, 255, 255); stroke-opacity: 1; stroke-width: 1px;"/><path class="xgrid crisp" transform="translate(298.97,0)" d="M0,100v320" style="stroke: rgb(255, 255, 255); stroke-opacity: 1; stroke-width: 1px;"/><path class="xgrid crisp" transform="translate(370.71,0)" d="M0,100v320" style="stroke: rgb(255, 255, 255); stroke-opacity: 1; stroke-width: 1px;"/><path class="xgrid crisp" transform="translate(442.46,0)" d="M0,100v320" style="stroke: rgb(255, 255, 255); stroke-opacity: 1; stroke-width: 1px;"/><path class="xgrid crisp" transform="translate(514.21,0)" d="M0,100v320" style="stroke: rgb(255, 255, 255); stroke-opacity: 1; stroke-width: 1px;"/><path class="xgrid crisp" transform="translate(585.95,0)" d="M0,100v320" style="stroke: rgb(255, 255, 255); stroke-opacity: 1; stroke-width: 1px;"/></g><g class="y"><path class="ygrid crisp" transform="translate(0,392.55)" d="M80,0h537" style="stroke: rgb(255, 255, 255); stroke-opacity: 1; stroke-width: 1px;"/><path class="ygrid crisp" transform="translate(0,349.77)" d="M80,0h537" style="stroke: rgb(255, 255, 255); stroke-opacity: 1; stroke-width: 1px;"/><path class="ygrid crisp" transform="translate(0,306.99)" d="M80,0h537" style="stroke: rgb(255, 255, 255); stroke-opacity: 1; stroke-width: 1px;"/><path class="ygrid crisp" transform="translate(0,264.21000000000004)" d="M80,0h537" style="stroke: rgb(255, 255, 255); stroke-opacity: 1; stroke-width: 1px;"/><path class="ygrid crisp" transform="translate(0,221.43)" d="M80,0h537" style="stroke: rgb(255, 255, 255); stroke-opacity: 1; stroke-width: 1px;"/><path class="ygrid crisp" transform="translate(0,178.65)" d="M80,0h537" style="stroke: rgb(255, 255, 255); stroke-opacity: 1; stroke-width: 1px;"/><path class="ygrid crisp" transform="translate(0,135.87)" d="M80,0h537" style="stroke: rgb(255, 255, 255); stroke-opacity: 1; stroke-width: 1px;"/></g></g><g class="zerolinelayer"/><path class="xlines-below"/><path class="ylines-below"/><g class="overlines-below"/><g class="xaxislayer-below"/><g class="yaxislayer-below"/><g class="overaxes-below"/><g class="plot" transform="translate(80,100)" clip-path="url('#clip1aa78axyplot')"><g class="scatterlayer mlayer"><g class="trace scatter traceeafdc6" style="stroke-miterlimit: 2; opacity: 1;"><g class="fills"/><g class="errorbars"/><g class="lines"><path class="js-line" d="M0,304L2.87,302.59L3.87,249.74L4.87,251.04L5.86,249.35L9.85,248.71L10.84,248.32L12.84,249.1L13.84,248.19L15.83,248.58L16.82,248.19L17.82,248.45L18.81,247.93L24.8,246.9L25.79,247.16L30.78,246.77L31.77,246.51L37.75,246.12L38.75,245.73L40.74,245.86L41.74,245.22L43.73,245.09L44.72,244.44L45.72,244.96L46.72,244.57L47.71,243.66L48.71,243.92L49.71,244.57L50.7,243.02L53.69,242.11L54.69,242.63L55.68,242.24L56.68,243.15L57.68,242.24L58.68,240.17L60.67,240.69L61.66,239.78L65.65,237.84L66.65,236.94L68.63,238.23L69.64,237.07L70.63,235L71.63,235.51L72.62,236.55L73.62,235L75.61,232.67L76.61,232.28L78.61,230.6L79.6,231.12L81.59,229.95L82.59,230.21L83.59,231.76L84.58,229.56L87.57,230.6L88.57,230.21L90.57,226.46L91.56,226.07L92.56,226.85L93.55,225.55L94.55,225.68L95.54,227.36L96.54,227.11L97.54,225.55L101.52,221.16L102.52,218.44L103.52,219.09L104.51,217.66L105.51,216.63L106.51,217.4L108.5,217.66L109.49,218.7L113.49,216.5L114.48,216.37L116.47,215.72L117.47,214.69L118.46,214.3L119.46,214.82L121.45,215.98L122.45,214.43L124.44,213.52L125.44,213.39L129.43,211.45L130.42,211.84L135.41,211.58L136.4,211.84L138.39,210.42L139.39,208.87L140.39,207.7L141.38,207.7L142.38,206.93L143.38,207.83L146.37,207.96L147.36,142.27L150.35,140.18L151.35,140.44L153.34,139.92L154.34,139.01L156.33,139.14L157.33,139.14L161.31,138.48L162.31,138.35L165.3,137.83L166.3,137.96L175.26,137.96L176.26,138.09L183.23,137.83L184.23,137.18L187.22,137.18L188.22,136.14L192.2,136.27L193.2,135.74L195.19,135.88L196.18,135.22L198.18,134.57L199.18,135.22L202.17,132.22L203.16,132.22L204.16,133.27L205.15,132.88L207.15,131.57L208.15,132.22L212.13,128.44L213.13,130.14L217.11,127.14L218.11,128.05L220.1,126.48L221.1,127.66L222.1,128.7L223.09,127.79L224.09,128.83L225.09,128.31L226.08,127.4L227.08,128.44L228.07,127.79L229.07,128.18L232.06,128.83L233.06,128.44L235.07,126.48L236.06,125.05L238.05,124.92L239.05,125.44L240.05,125.96L241.05,124.01L245.03,123.09L246.03,121.4L249.02,122.44L250.01,121.92L252.01,118.4L253,119.96L254,119.96L255,118.79L255.99,119.7L256.99,119.18L258.98,117.35L259.98,117.48L262.97,114.35L263.97,114.48L265.96,112.14L266.95,112.92L268.95,110.83L269.95,111.35L272.93,110.7L273.93,108.09L274.93,107.96L275.92,106.92L276.92,105.48L277.92,105.74L278.91,106L279.91,107.18L280.91,107.83L281.9,107.18L282.91,109.13L283.9,108.35L284.89,108.22L285.88,106.66L286.88,106.27L287.88,106.79L289.87,107.05L290.87,61.25L292.86,59.41L293.86,59.15L296.85,57.57L297.84,57.17L299.84,57.04L300.83,56.78L304.82,55.46L305.82,54.54L307.81,54.28L308.81,54.81L312.79,53.75L313.79,53.62L315.78,53.62L316.78,53.75L332.72,51.78L333.72,52.18L336.7,51.12L337.7,51.25L338.7,51.52L339.69,50.73L345.67,50.07L347.66,49.54L348.66,48.23L350.65,47.83L352.64,47.44L353.64,45.73L354.64,46.91L355.64,45.73L357.63,45.73L358.62,45.07L359.62,44.94L360.62,43.76L363.6,43.49L364.6,41.91L366.59,40.2L367.59,39.42L368.56,38.1L369.55,38.76L372.54,37.71L373.54,36L377.53,35.34L378.52,33.36L379.52,32.71L380.51,33.23L382.5,32.44L383.5,32.05L384.5,31.92L385.5,30.86L387.49,30.86L388.48,31.39L390.48,32.97L391.48,31.13L393.47,32.31L394.48,30.34L396.46,30.47L397.46,30.86L400.45,29.02L401.44,29.42L403.43,27.71L404.43,26.66L405.43,24.16L406.43,24.68L407.42,23.24L408.42,24.68L410.41,22.84L411.41,22.58L412.4,21.26L413.4,21.66L415.39,21.79L416.38,20.74L417.38,21.26L418.38,19.68L420.37,19.55L421.37,18.5L425.36,18.89L426.35,17.97L427.35,17.45L428.35,17.84L429.35,17.97L430.34,17.05L431.34,16L432.33,16.66L433.33,16.39L434.33,171.81L439.31,171.4L440.31,172.08L443.3,170.99L444.29,170.99L446.29,169.76L447.28,169.76L449.27,168.94L450.27,169.08L467.21,168.39L468.21,167.98L481.15,165.8L482.16,165.12L487.14,164.02L488.14,162.66L492.15,162.38L493.15,163.61L495.14,161.7L496.14,161.57L497.14,160.88L498.13,158.43L499.13,156.51L500.12,156.79L501.12,156.1L502.11,154.33L503.12,154.88L504.11,154.19L506.11,154.33L507.1,153.37L509.09,152.69L510.09,153.65L512.08,152.01L513.08,150.92L514.08,151.87L515.07,150.64L517.07,149.14L518.06,149.14L519.06,148.32L520.06,149.41L522.05,150.37L523.05,149.41L524.04,149.55L525.04,148.73L529.03,145.18L530.03,144.5L533.01,143.54L534.01,145.04L537,144.23" style="vector-effect: non-scaling-stroke; fill: none; stroke: rgb(99, 110, 250); stroke-opacity: 1; stroke-width: 2px; opacity: 1;"/></g><g class="points"/><g class="text"/></g></g></g><g class="overplot"/><path class="xlines-above crisp" d="M0,0" style="fill: none;"/><path class="ylines-above crisp" d="M0,0" style="fill: none;"/><g class="overlines-above"/><g class="xaxislayer-above"><g class="xtick"><text text-anchor="middle" x="0" y="433" transform="translate(83.72,0)" style="font-family: 'Open Sans', verdana, arial, sans-serif; font-size: 12px; fill: rgb(42, 63, 95); fill-opacity: 1; white-space: pre;"><tspan class="line" dy="0em" x="0" y="433">00:00</tspan><tspan class="line" dy="1.3em" x="0" y="433">Aug 3, 2021</tspan></text></g><g class="xtick"><text text-anchor="middle" x="0" y="433" transform="translate(155.47,0)" style="font-family: 'Open Sans', verdana, arial, sans-serif; font-size: 12px; fill: rgb(42, 63, 95); fill-opacity: 1; white-space: pre;">12:00</text></g><g class="xtick"><text text-anchor="middle" x="0" y="433" transform="translate(227.22,0)" style="font-family: 'Open Sans', verdana, arial, sans-serif; font-size: 12px; fill: rgb(42, 63, 95); fill-opacity: 1; white-space: pre;"><tspan class="line" dy="0em" x="0" y="433">00:00</tspan><tspan class="line" dy="1.3em" x="0" y="433">Aug 4, 2021</tspan></text></g><g class="xtick"><text text-anchor="middle" x="0" y="433" transform="translate(298.97,0)" style="font-family: 'Open Sans', verdana, arial, sans-serif; font-size: 12px; fill: rgb(42, 63, 95); fill-opacity: 1; white-space: pre;">12:00</text></g><g class="xtick"><text text-anchor="middle" x="0" y="433" transform="translate(370.71,0)" style="font-family: 'Open Sans', verdana, arial, sans-serif; font-size: 12px; fill: rgb(42, 63, 95); fill-opacity: 1; white-space: pre;"><tspan class="line" dy="0em" x="0" y="433">00:00</tspan><tspan class="line" dy="1.3em" x="0" y="433">Aug 5, 2021</tspan></text></g><g class="xtick"><text text-anchor="middle" x="0" y="433" transform="translate(442.46,0)" style="font-family: 'Open Sans', verdana, arial, sans-serif; font-size: 12px; fill: rgb(42, 63, 95); fill-opacity: 1; white-space: pre;">12:00</text></g><g class="xtick"><text text-anchor="middle" x="0" y="433" transform="translate(514.21,0)" style="font-family: 'Open Sans', verdana, arial, sans-serif; font-size: 12px; fill: rgb(42, 63, 95); fill-opacity: 1; white-space: pre;"><tspan class="line" dy="0em" x="0" y="433">00:00</tspan><tspan class="line" dy="1.3em" x="0" y="433">Aug 6, 2021</tspan></text></g><g class="xtick"><text text-anchor="middle" x="0" y="433" transform="translate(585.95,0)" style="font-family: 'Open Sans', verdana, arial, sans-serif; font-size: 12px; fill: rgb(42, 63, 95); fill-opacity: 1; white-space: pre;">12:00</text></g></g><g class="yaxislayer-above"><g class="ytick"><text text-anchor="end" x="79" y="4.199999999999999" transform="translate(0,392.55)" style="font-family: 'Open Sans', verdana, arial, sans-serif; font-size: 12px; fill: rgb(42, 63, 95); fill-opacity: 1; white-space: pre;">0.864</text></g><g class="ytick"><text text-anchor="end" x="79" y="4.199999999999999" transform="translate(0,349.77)" style="font-family: 'Open Sans', verdana, arial, sans-serif; font-size: 12px; fill: rgb(42, 63, 95); fill-opacity: 1; white-space: pre;">0.865</text></g><g class="ytick"><text text-anchor="end" x="79" y="4.199999999999999" transform="translate(0,306.99)" style="font-family: 'Open Sans', verdana, arial, sans-serif; font-size: 12px; fill: rgb(42, 63, 95); fill-opacity: 1; white-space: pre;">0.866</text></g><g class="ytick"><text text-anchor="end" x="79" y="4.199999999999999" transform="translate(0,264.21000000000004)" style="font-family: 'Open Sans', verdana, arial, sans-serif; font-size: 12px; fill: rgb(42, 63, 95); fill-opacity: 1; white-space: pre;">0.867</text></g><g class="ytick"><text text-anchor="end" x="79" y="4.199999999999999" transform="translate(0,221.43)" style="font-family: 'Open Sans', verdana, arial, sans-serif; font-size: 12px; fill: rgb(42, 63, 95); fill-opacity: 1; white-space: pre;">0.868</text></g><g class="ytick"><text text-anchor="end" x="79" y="4.199999999999999" transform="translate(0,178.65)" style="font-family: 'Open Sans', verdana, arial, sans-serif; font-size: 12px; fill: rgb(42, 63, 95); fill-opacity: 1; white-space: pre;">0.869</text></g><g class="ytick"><text text-anchor="end" x="79" y="4.199999999999999" transform="translate(0,135.87)" style="font-family: 'Open Sans', verdana, arial, sans-serif; font-size: 12px; fill: rgb(42, 63, 95); fill-opacity: 1; white-space: pre;">0.87</text></g></g><g class="overaxes-above"/></g></g><g class="polarlayer"/><g class="ternarylayer"/><g class="geolayer"/><g class="funnelarealayer"/><g class="pielayer"/><g class="treemaplayer"/><g class="sunburstlayer"/><g class="glimages"/><defs id="topdefs-1aa78a"><g class="clips"/><clipPath id="legend1aa78a"><rect width="60" height="45" x="0" y="0"/></clipPath></defs><g class="layer-above"><g class="imagelayer"/><g class="shapelayer"/></g><g class="infolayer"><g class="legend" pointer-events="all" transform="translate(627.74,100)"><rect class="bg" shape-rendering="crispEdges" width="60" height="45" x="0" y="0" style="stroke: rgb(68, 68, 68); stroke-opacity: 1; fill: rgb(255, 255, 255); fill-opacity: 1; stroke-width: 0px;"/><g class="scrollbox" transform="" clip-path="url('#legend1aa78a')"><text class="legendtitletext" text-anchor="start" x="2" y="15.600000000000001" style="font-family: 'Open Sans', verdana, arial, sans-serif; font-size: 12px; fill: rgb(42, 63, 95); fill-opacity: 1; white-space: pre;">All</text><g class="groups" transform=""><g class="traces" transform="translate(0,30.1)" style="opacity: 1;"><text class="legendtext" text-anchor="start" x="40" y="4.680000000000001" style="font-family: 'Open Sans', verdana, arial, sans-serif; font-size: 12px; fill: rgb(42, 63, 95); fill-opacity: 1; white-space: pre;">All</text><g class="layers" style="opacity: 1;"><g class="legendfill"/><g class="legendlines"><path class="js-line" d="M5,0h30" style="fill: none; stroke: rgb(99, 110, 250); stroke-opacity: 1; stroke-width: 2px;"/></g><g class="legendsymbols"><g class="legendpoints"/></g></g><rect class="legendtoggle" x="0" y="-9.5" width="54.890625" height="19" style="fill: rgb(0, 0, 0); fill-opacity: 0;"/></g></g></g><rect class="scrollbar" rx="20" ry="3" width="0" height="0" x="0" y="0" style="fill: rgb(128, 139, 164); fill-opacity: 1;"/></g><g class="g-gtitle"><text class="gtitle" x="35" y="50" text-anchor="start" dy="0em" style="font-family: 'Open Sans', verdana, arial, sans-serif; font-size: 17px; fill: rgb(42, 63, 95); opacity: 1; font-weight: normal; white-space: pre;">Singapore Vaccination Centers</text></g><g class="g-xtitle"><text class="xtitle" x="348.5" y="476.409375" text-anchor="middle" style="font-family: 'Open Sans', verdana, arial, sans-serif; font-size: 14px; fill: rgb(42, 63, 95); opacity: 1; font-weight: normal; white-space: pre;">Time</text></g><g class="g-ytitle"><text class="ytitle" transform="rotate(-90,19.840625000000003,260)" x="19.840625000000003" y="260" text-anchor="middle" style="font-family: 'Open Sans', verdana, arial, sans-serif; font-size: 14px; fill: rgb(42, 63, 95); opacity: 1; font-weight: normal; white-space: pre;">Filled/%</text></g></g></svg>