<svg class="main-svg" xmlns="http://www.w3.org/2000/svg" xmlns:xlink="http://www.w3.org/1999/xlink" width="700" height="500" style="" viewBox="0 0 700 500"><rect x="0" y="0" width="700" height="500" style="fill: rgb(255, 255, 255); fill-opacity: 1;"/><defs id="defs-c5fe4d"><g class="clips"><clipPath id="clipc5fe4dxyplot" class="plotclip"><rect width="537" height="320"/></clipPath><clipPath class="axesclip" id="clipc5fe4dx"><rect x="80" y="0" width="537" height="500"/></clipPath><clipPath class="axesclip" id="clipc5fe4dy"><rect x="0" y="100" width="700" height="320"/></clipPath><clipPath class="axesclip" id="clipc5fe4dxy"><rect x="80" y="100" width="537" height="320"/></clipPath></g><g class="gradients"/></defs><g class="bglayer"><rect class="bg" x="80" y="100" width="537" height="320" style="fill: rgb(229, 236, 246); fill-opacity: 1; stroke-width: 0;"/></g><g class="layer-below"><g class="imagelayer"/><g class="shapelayer"/></g><g class="cartesianlayer"><g class="subplot xy"><g class="layer-subplot"><g class="shapelayer"/><g class="imagelayer"/></g><g class="gridlayer"><g class="x"><path class="xgrid crisp" transform="translate(91.33,0)" d="M0,100v320" style="stroke: rgb(255, 255, 255); stroke-opacity: 1; stroke-width: 1px;"/><path class="xgrid crisp" transform="translate(213.31,0)" d="M0,100v320" style="stroke: rgb(255, 255, 255); stroke-opacity: 1; stroke-width: 1px;"/><path class="xgrid crisp" transform="translate(335.28999999999996,0)" d="M0,100v320" style="stroke: rgb(255, 255, 255); stroke-opacity: 1; stroke-width: 1px;"/><path class="xgrid crisp" transform="translate(457.27,0)" d="M0,100v320" style="stroke: rgb(255, 255, 255); stroke-opacity: 1; stroke-width: 1px;"/><path class="xgrid crisp" transform="translate(579.25,0)" d="M0,100v320" style="stroke: rgb(255, 255, 255); stroke-opacity: 1; stroke-width: 1px;"/></g><g class="y"><path class="ygrid crisp" transform="translate(0,367.23)" d="M80,0h537" style="stroke: rgb(255, 255, 255); stroke-opacity: 1; stroke-width: 1px;"/><path class="ygrid crisp" transform="translate(0,308.43)" d="M80,0h537" style="stroke: rgb(255, 255, 255); stroke-opacity: 1; stroke-width: 1px;"/><path class="ygrid crisp" transform="translate(0,249.63)" d="M80,0h537" style="stroke: rgb(255, 255, 255); stroke-opacity: 1; stroke-width: 1px;"/><path class="ygrid crisp" transform="translate(0,190.82999999999998)" d="M80,0h537" style="stroke: rgb(255, 255, 255); stroke-opacity: 1; stroke-width: 1px;"/><path class="ygrid crisp" transform="translate(0,132.03)" d="M80,0h537" style="stroke: rgb(255, 255, 255); stroke-opacity: 1; stroke-width: 1px;"/></g></g><g class="zerolinelayer"/><path class="xlines-below"/><path class="ylines-below"/><g class="overlines-below"/><g class="xaxislayer-below"/><g class="yaxislayer-below"/><g class="overaxes-below"/><g class="plot" transform="translate(80,100)" clip-path="url('#clipc5fe4dxyplot')"><g class="scatterlayer mlayer"><g class="trace scatter tracec57182" style="stroke-miterlimit: 2; opacity: 1;"><g class="fills"/><g class="errorbars"/><g class="lines"><path class="js-line" d="M0,82.28L7.15,82.51L9.69,120.48L14.75,120.57L16.62,136.92L17.41,136.9L36.12,137.96L37.28,121.23L37.64,129.62L38.49,129.56L40.18,126.37L41.03,126.27L42.72,129.79L43.57,129.7L45.26,132.71L46.11,132.63L47.8,120.69L48.65,120.62L50.34,132.64L51.19,132.55L52.89,126.68L53.73,123.32L55.43,113.21L56.27,109.51L57.97,94.58L58.82,92.89L60.51,74.17L61.36,72.87L63.05,78.78L63.9,77.73L65.59,63.68L66.44,62.82L68.13,65.47L68.98,64.83L70.67,74.27L71.52,73.83L72.64,51.83L73.22,52.53L74.06,52.34L82.53,51.79L83.38,51.79L96.09,50.91L96.93,50.65L126.58,42.03L127.43,41.83L132.51,40.95L133.36,41.79L148.61,41.46L149.45,41.46L163.01,40.58L163.85,40.48L190.96,37.08L191.81,36.99L193.5,36.83L194.35,35.53L227.38,34L228.23,33.87L254.49,31.05L255.34,28.56L284.14,27.81L284.99,95.38L294.34,93.57L295.16,93.44L296,93.12L296.85,91.51L299.39,88.51L300.24,87.52L304.47,73.59L305.32,72.39L310.4,67.88L311.25,67.37L315.49,65.43L316.33,65.5L322.26,64.8L323.11,64.77L341.75,63.66L342.59,63.48L348.52,61.32L349.37,60.89L350.22,60.46L351.06,62.78L354.45,61.15L355.3,59.94L360.38,53.24L361.23,52.44L364.62,47.98L365.46,45.51L368.85,38.66L369.7,37.65L373.93,33.5L374.78,32.89L378.17,31.98L379.02,31.8L385.79,31.18L386.64,31.16L399.35,30.17L400.19,29.9L405.28,28.09L406.12,74.81L407.82,73.22L408.67,72.76L417.14,69.16L417.99,68.8L418.64,71.93L418.83,68.39L419.64,68.25L419.68,69.25L420.49,67.95L420.53,68.94L421.37,68.62L423.07,68.09L423.92,76.43L431.33,73.91L431.36,72.31L431.41,72.03L431.54,73.74L439.59,44.74L440.01,44.87L440.44,41.95L441.28,42.12L441.7,43.2L442.97,37.43L443.4,41.6L444.67,39.66L445.09,39.05L446.36,38.13L446.79,38.96L447.21,38.26L447.63,38.53L448.06,38.42L449.33,38.4L449.75,43.02L454.41,41.69L454.83,36.5L455.68,35.76L456.1,35.39L457.37,33.79L457.8,33.41L461.19,22.43L461.61,16L462.03,16.8L462.46,140.18L462.88,139.22L463.3,142.07L464.15,136.79L464.58,138.99L465.42,136.15L465.85,136.63L466.27,141.25L466.69,146.68L467.12,133.42L467.96,138.09L468.39,157.2L469.66,133.53L470.08,145.44L470.5,148.42L470.93,146.68L471.35,144.02L472.2,134.36L472.62,135.71L473.47,146.05L473.89,142.1L474.32,141.74L474.74,151.77L475.58,140.84L476.01,148.68L476.86,127.07L477.28,137.58L478.13,140.49L478.55,138.92L479.4,130.34L479.82,131.67L480.24,129.31L480.67,138.25L481.09,134.05L481.51,138.68L481.94,138.81L482.36,131.49L482.79,131.42L483.21,140.05L484.06,132.48L484.48,138.41L485.33,141.46L485.75,128.79L486.6,142.96L487.02,264.58L487.87,292.55L488.3,293.12L488.72,304L489.14,286.22L489.56,301.52L489.99,291.75L490.41,292.1L490.83,291.07L491.26,294.16L491.68,293.46L492.11,276.02L492.53,283.67L492.95,262.28L493.8,272.54L494.22,248.89L495.07,241.71L495.49,229.6L495.92,224.98L496.34,228.24L496.76,227.36L498.03,215.22L498.46,217.06L498.88,216.4L499.3,227.08L499.73,226.08L500.15,228.38L500.58,228.68L501,224.72L501.42,233.57L501.85,224.28L502.69,227.75L503.12,223.07L503.96,226.33L504.39,223.26L504.81,224.52L505.24,234.01L505.66,220.81L506.09,231.91L507.35,220.15L507.78,220.86L509.05,212.72L509.47,220.76L510.32,220.72L510.74,223.7L511.17,223.67L511.59,219.37L512.01,223.08L512.43,218.62L512.86,226.76L513.28,225.2L513.71,224.19L514.13,219.51L514.55,225.16L515.82,225.11L516.25,216.49L516.67,225.05L517.09,220.43L517.52,220.57L517.94,218.19L518.36,220.92L518.79,219.84L519.21,227.36L519.63,216.65L520.06,220.1L520.48,220.01L521.33,220.98L521.75,218.78L522.6,223.64L523.02,218.66L523.44,205.85L523.87,215.25L524.29,220.32L524.72,206.18L525.14,206.81L525.56,214.16L525.99,214.11L526.41,206.99L527.26,212.47L527.69,202.23L528.11,199.24L528.53,208.71L528.96,224.84L529.37,215.2L529.8,214.49L530.22,205.74L530.65,219.6L531.49,195.82L531.92,209.77L532.34,208.24L532.76,203.32L533.19,202.05L533.61,205.17L534.04,200.81L534.46,208.16L534.88,206.35L535.31,209.96L535.73,207.44L536.15,196.45L536.57,195.36L537,196.45" style="vector-effect: non-scaling-stroke; fill: none; stroke: rgb(99, 110, 250); stroke-opacity: 1; stroke-width: 2px; opacity: 1;"/></g><g class="points"/><g class="text"/></g></g></g><g class="overplot"/><path class="xlines-above crisp" d="M0,0" style="fill: none;"/><path class="ylines-above crisp" d="M0,0" style="fill: none;"/><g class="overlines-above"/><g class="xaxislayer-above"><g class="xtick"><text text-anchor="middle" x="0" y="433" transform="translate(91.33,0)" style="font-family: 'Open Sans', verdana, arial, sans-serif; font-size: 12px; fill: rgb(42, 63, 95); fill-opacity: 1; white-space: pre;"><tspan class="line" dy="0em" x="0" y="433">Jun 4</tspan><tspan class="line" dy="1.3em" x="0" y="433">2021</tspan></text></g><g class="xtick"><text text-anchor="middle" x="0" y="433" transform="translate(213.31,0)" style="font-family: 'Open Sans', verdana, arial, sans-serif; font-size: 12px; fill: rgb(42, 63, 95); fill-opacity: 1; white-space: pre;">Jun 6</text></g><g class="xtick"><text text-anchor="middle" x="0" y="433" transform="translate(335.28999999999996,0)" style="font-family: 'Open Sans', verdana, arial, sans-serif; font-size: 12px; fill: rgb(42, 63, 95); fill-opacity: 1; white-space: pre;">Jun 8</text></g><g class="xtick"><text text-anchor="middle" x="0" y="433" transform="translate(457.27,0)" style="font-family: 'Open Sans', verdana, arial, sans-serif; font-size: 12px; fill: rgb(42, 63, 95); fill-opacity: 1; white-space: pre;">Jun 10</text></g><g class="xtick"><text text-anchor="middle" x="0" y="433" transform="translate(579.25,0)" style="font-family: 'Open Sans', verdana, arial, sans-serif; font-size: 12px; fill: rgb(42, 63, 95); fill-opacity: 1; white-space: pre;">Jun 12</text></g></g><g class="yaxislayer-above"><g class="ytick"><text text-anchor="end" x="79" y="4.199999999999999" transform="translate(0,367.23)" style="font-family: 'Open Sans', verdana, arial, sans-serif; font-size: 12px; fill: rgb(42, 63, 95); fill-opacity: 1; white-space: pre;">0.8</text></g><g class="ytick"><text text-anchor="end" x="79" y="4.199999999999999" transform="translate(0,308.43)" style="font-family: 'Open Sans', verdana, arial, sans-serif; font-size: 12px; fill: rgb(42, 63, 95); fill-opacity: 1; white-space: pre;">0.82</text></g><g class="ytick"><text text-anchor="end" x="79" y="4.199999999999999" transform="translate(0,249.63)" style="font-family: 'Open Sans', verdana, arial, sans-serif; font-size: 12px; fill: rgb(42, 63, 95); fill-opacity: 1; white-space: pre;">0.84</text></g><g class="ytick"><text text-anchor="end" x="79" y="4.199999999999999" transform="translate(0,190.82999999999998)" style="font-family: 'Open Sans', verdana, arial, sans-serif; font-size: 12px; fill: rgb(42, 63, 95); fill-opacity: 1; white-space: pre;">0.86</text></g><g class="ytick"><text text-anchor="end" x="79" y="4.199999999999999" transform="translate(0,132.03)" style="font-family: 'Open Sans', verdana, arial, sans-serif; font-size: 12px; fill: rgb(42, 63, 95); fill-opacity: 1; white-space: pre;">0.88</text></g></g><g class="overaxes-above"/></g></g><g class="polarlayer"/><g class="ternarylayer"/><g class="geolayer"/><g class="funnelarealayer"/><g class="pielayer"/><g class="treemaplayer"/><g class="sunburstlayer"/><g class="glimages"/><defs id="topdefs-c5fe4d"><g class="clips"/><clipPath id="legendc5fe4d"><rect width="60" height="45" x="0" y="0"/></clipPath></defs><g class="layer-above"><g class="imagelayer"/><g class="shapelayer"/></g><g class="infolayer"><g class="legend" pointer-events="all" transform="translate(627.74,100)"><rect class="bg" shape-rendering="crispEdges" width="60" height="45" x="0" y="0" style="stroke: rgb(68, 68, 68); stroke-opacity: 1; fill: rgb(255, 255, 255); fill-opacity: 1; stroke-width: 0px;"/><g class="scrollbox" transform="" clip-path="url('#legendc5fe4d')"><text class="legendtitletext" text-anchor="start" x="2" y="15.600000000000001" style="font-family: 'Open Sans', verdana, arial, sans-serif; font-size: 12px; fill: rgb(42, 63, 95); fill-opacity: 1; white-space: pre;">All</text><g class="groups" transform=""><g class="traces" transform="translate(0,30.1)" style="opacity: 1;"><text class="legendtext" text-anchor="start" x="40" y="4.680000000000001" style="font-family: 'Open Sans', verdana, arial, sans-serif; font-size: 12px; fill: rgb(42, 63, 95); fill-opacity: 1; white-space: pre;">All</text><g class="layers" style="opacity: 1;"><g class="legendfill"/><g class="legendlines"><path class="js-line" d="M5,0h30" style="fill: none; stroke: rgb(99, 110, 250); stroke-opacity: 1; stroke-width: 2px;"/></g><g class="legendsymbols"><g class="legendpoints"/></g></g><rect class="legendtoggle" x="0" y="-9.5" width="54.890625" height="19" style="fill: rgb(0, 0, 0); fill-opacity: 0;"/></g></g></g><rect class="scrollbar" rx="20" ry="3" width="0" height="0" x="0" y="0" style="fill: rgb(128, 139, 164); fill-opacity: 1;"/></g><g class="g-gtitle"><text class="gtitle" x="35" y="50" text-anchor="start" dy="0em" style="font-family: 'Open Sans', verdana, arial, sans-serif; font-size: 17px; fill: rgb(42, 63, 95); opacity: 1; font-weight: normal; white-space: pre;">Singapore Vaccination Centers</text></g><g class="g-xtitle"><text class="xtitle" x="348.5" y="476.409375" text-anchor="middle" style="font-family: 'Open Sans', verdana, arial, sans-serif; font-size: 14px; fill: rgb(42, 63, 95); opacity: 1; font-weight: normal; white-space: pre;">Time</text></g><g class="g-ytitle"><text class="ytitle" transform="rotate(-90,27.481250000000003,260)" x="27.481250000000003" y="260" text-anchor="middle" style="font-family: 'Open Sans', verdana, arial, sans-serif; font-size: 14px; fill: rgb(42, 63, 95); opacity: 1; font-weight: normal; white-space: pre;">Filled/%</text></g></g></svg>