<svg class="main-svg" xmlns="http://www.w3.org/2000/svg" xmlns:xlink="http://www.w3.org/1999/xlink" width="700" height="500" style="" viewBox="0 0 700 500"><rect x="0" y="0" width="700" height="500" style="fill: rgb(255, 255, 255); fill-opacity: 1;"/><defs id="defs-8cd202"><g class="clips"><clipPath id="clip8cd202xyplot" class="plotclip"><rect width="537" height="320"/></clipPath><clipPath class="axesclip" id="clip8cd202x"><rect x="80" y="0" width="537" height="500"/></clipPath><clipPath class="axesclip" id="clip8cd202y"><rect x="0" y="100" width="700" height="320"/></clipPath><clipPath class="axesclip" id="clip8cd202xy"><rect x="80" y="100" width="537" height="320"/></clipPath></g><g class="gradients"/></defs><g class="bglayer"><rect class="bg" x="80" y="100" width="537" height="320" style="fill: rgb(229, 236, 246); fill-opacity: 1; stroke-width: 0;"/></g><g class="layer-below"><g class="imagelayer"/><g class="shapelayer"/></g><g class="cartesianlayer"><g class="subplot xy"><g class="layer-subplot"><g class="shapelayer"/><g class="imagelayer"/></g><g class="gridlayer"><g class="x"><path class="xgrid crisp" transform="translate(83.79,0)" d="M0,100v320" style="stroke: rgb(255, 255, 255); stroke-opacity: 1; stroke-width: 1px;"/><path class="xgrid crisp" transform="translate(156.75,0)" d="M0,100v320" style="stroke: rgb(255, 255, 255); stroke-opacity: 1; stroke-width: 1px;"/><path class="xgrid crisp" transform="translate(229.72,0)" d="M0,100v320" style="stroke: rgb(255, 255, 255); stroke-opacity: 1; stroke-width: 1px;"/><path class="xgrid crisp" transform="translate(302.69,0)" d="M0,100v320" style="stroke: rgb(255, 255, 255); stroke-opacity: 1; stroke-width: 1px;"/><path class="xgrid crisp" transform="translate(375.65,0)" d="M0,100v320" style="stroke: rgb(255, 255, 255); stroke-opacity: 1; stroke-width: 1px;"/><path class="xgrid crisp" transform="translate(448.62,0)" d="M0,100v320" style="stroke: rgb(255, 255, 255); stroke-opacity: 1; stroke-width: 1px;"/><path class="xgrid crisp" transform="translate(521.5899999999999,0)" d="M0,100v320" style="stroke: rgb(255, 255, 255); stroke-opacity: 1; stroke-width: 1px;"/><path class="xgrid crisp" transform="translate(594.55,0)" d="M0,100v320" style="stroke: rgb(255, 255, 255); stroke-opacity: 1; stroke-width: 1px;"/></g><g class="y"><path class="ygrid crisp" transform="translate(0,392.55)" d="M80,0h537" style="stroke: rgb(255, 255, 255); stroke-opacity: 1; stroke-width: 1px;"/><path class="ygrid crisp" transform="translate(0,349.77)" d="M80,0h537" style="stroke: rgb(255, 255, 255); stroke-opacity: 1; stroke-width: 1px;"/><path class="ygrid crisp" transform="translate(0,306.99)" d="M80,0h537" style="stroke: rgb(255, 255, 255); stroke-opacity: 1; stroke-width: 1px;"/><path class="ygrid crisp" transform="translate(0,264.21000000000004)" d="M80,0h537" style="stroke: rgb(255, 255, 255); stroke-opacity: 1; stroke-width: 1px;"/><path class="ygrid crisp" transform="translate(0,221.43)" d="M80,0h537" style="stroke: rgb(255, 255, 255); stroke-opacity: 1; stroke-width: 1px;"/><path class="ygrid crisp" transform="translate(0,178.65)" d="M80,0h537" style="stroke: rgb(255, 255, 255); stroke-opacity: 1; stroke-width: 1px;"/><path class="ygrid crisp" transform="translate(0,135.87)" d="M80,0h537" style="stroke: rgb(255, 255, 255); stroke-opacity: 1; stroke-width: 1px;"/></g></g><g class="zerolinelayer"/><path class="xlines-below"/><path class="ylines-below"/><g class="overlines-below"/><g class="xaxislayer-below"/><g class="yaxislayer-below"/><g class="overaxes-below"/><g class="plot" transform="translate(80,100)" clip-path="url('#clip8cd202xyplot')"><g class="scatterlayer mlayer"><g class="trace scatter trace30eb78" style="stroke-miterlimit: 2; opacity: 1;"><g class="fills"/><g class="errorbars"/><g class="lines"><path class="js-line" d="M0,304L2.92,302.59L3.94,249.74L4.95,251.04L5.96,249.35L10.01,248.71L11.03,248.32L13.06,249.1L14.07,248.19L16.1,248.58L17.11,248.19L18.12,248.45L19.13,247.93L25.22,246.9L26.23,247.16L31.3,246.77L32.31,246.51L38.39,246.12L39.41,245.73L41.43,245.86L42.45,245.22L44.47,245.09L45.48,244.44L46.5,244.96L47.51,244.57L48.52,243.66L49.54,243.92L50.55,244.57L51.57,243.02L54.6,242.11L55.62,242.63L56.63,242.24L57.65,243.15L58.66,242.24L59.67,240.17L61.7,240.69L62.71,239.78L66.77,237.84L67.78,236.94L69.8,238.23L70.82,237.07L71.83,235L72.85,235.51L73.86,236.55L74.87,235L76.9,232.67L77.91,232.28L79.94,230.6L80.95,231.12L82.98,229.95L83.99,230.21L85.01,231.76L86.02,229.56L89.06,230.6L90.08,230.21L92.1,226.46L93.12,226.07L94.13,226.85L95.14,225.55L96.16,225.68L97.17,227.36L98.18,227.11L99.2,225.55L103.25,221.16L104.26,218.44L105.28,219.09L106.29,217.66L107.31,216.63L108.32,217.4L110.34,217.66L111.35,218.7L115.42,216.5L116.42,216.37L118.45,215.72L119.47,214.69L120.48,214.3L121.49,214.82L122.51,215.98L123.52,215.98L125.55,213.78L126.56,213.52L129.6,212.75L130.61,212.23L131.63,211.45L132.64,211.84L137.71,211.58L138.72,211.84L140.74,210.42L141.76,208.87L142.77,207.7L143.79,207.7L144.8,206.93L145.82,207.83L148.85,207.96L149.87,142.27L152.91,140.18L153.92,140.44L155.95,139.92L156.96,139.01L158.99,139.14L160.01,139.14L164.06,138.48L165.07,138.35L168.11,137.83L169.12,137.96L178.24,137.96L179.26,138.09L186.35,137.83L187.36,137.18L190.4,137.18L191.42,136.14L195.46,136.27L196.48,135.74L198.51,135.88L199.52,135.22L201.55,134.57L202.56,135.22L205.6,132.22L206.61,132.22L207.63,133.27L208.64,132.88L210.67,131.57L211.68,132.22L215.74,128.44L216.75,130.14L220.8,127.14L221.82,128.05L223.84,126.48L224.86,127.66L225.87,128.7L226.88,127.79L227.9,128.83L228.91,128.31L229.92,127.4L230.94,128.44L231.95,127.79L232.96,128.18L236,128.83L237.02,128.44L239.07,126.48L240.07,125.05L242.1,124.92L243.11,125.44L244.13,125.96L245.14,124.01L249.2,123.09L250.21,121.4L253.25,122.44L254.26,121.92L256.29,118.4L257.3,119.96L258.32,119.96L259.33,118.79L260.34,119.7L261.35,119.18L263.39,117.35L264.4,117.48L267.44,114.35L268.45,114.48L270.48,112.14L271.49,112.92L273.52,110.83L274.53,111.35L277.57,110.7L278.58,108.09L279.6,107.96L280.61,106.92L281.63,105.48L282.64,105.74L283.65,106L284.66,107.18L285.69,107.83L286.69,107.18L287.71,109.13L288.72,108.35L289.73,108.22L290.74,106.66L291.76,106.27L292.77,106.79L294.8,107.05L295.82,61.25L297.84,59.41L298.85,59.15L301.89,57.57L302.91,57.17L304.93,57.04L305.94,56.78L310,55.46L311.01,54.54L313.04,54.28L314.06,54.81L318.11,53.75L319.12,53.62L321.15,53.62L322.16,53.75L338.37,51.78L339.39,52.18L342.43,51.12L343.44,51.25L344.46,51.52L345.46,50.73L351.55,50.07L353.57,49.54L354.59,48.23L356.61,47.83L358.64,47.44L359.65,45.73L360.67,46.91L361.68,45.73L363.71,45.73L364.72,45.07L365.74,44.94L366.75,43.76L369.78,43.49L370.8,41.91L372.83,40.2L373.84,39.42L374.83,38.1L375.83,38.76L378.87,37.71L379.89,36L383.94,35.34L384.95,33.36L385.97,32.71L386.98,33.23L389.01,32.44L390.02,32.05L391.04,31.92L392.05,30.86L394.08,30.86L395.09,31.39L397.11,32.97L398.14,31.13L400.16,32.31L401.19,30.34L403.2,30.47L404.22,30.86L407.25,29.02L408.27,29.42L410.29,27.71L411.31,26.66L412.32,24.16L413.34,24.68L414.34,23.24L415.36,24.68L417.39,22.84L418.4,22.58L419.41,21.26L420.42,21.66L422.45,21.79L423.46,20.74L424.48,21.26L425.49,19.68L427.52,19.55L428.53,18.5L432.59,18.89L433.6,17.97L434.61,17.45L435.63,17.84L436.64,17.97L437.66,17.05L438.67,16L439.68,16.66L440.7,16.39L441.71,171.81L446.78,171.4L447.8,172.08L450.83,170.99L451.85,170.99L453.87,169.76L454.88,169.76L456.91,168.94L457.92,169.08L475.16,168.39L476.16,167.98L489.33,165.8L490.35,165.12L495.42,164.02L496.43,162.66L500.52,162.38L501.53,163.61L503.56,161.7L504.57,161.57L505.59,160.88L506.6,158.43L507.61,156.51L508.63,156.79L509.64,156.1L510.65,154.33L511.67,154.88L512.68,154.19L514.71,154.33L515.72,153.37L517.75,152.69L518.76,153.65L520.79,152.01L521.8,150.92L522.81,151.87L523.83,150.64L525.86,149.14L526.87,149.14L527.88,148.32L528.9,149.41L530.92,150.37L531.94,149.41L532.95,149.55L533.97,148.73L537,145.45" style="vector-effect: non-scaling-stroke; fill: none; stroke: rgb(99, 110, 250); stroke-opacity: 1; stroke-width: 2px; opacity: 1;"/></g><g class="points"/><g class="text"/></g></g></g><g class="overplot"/><path class="xlines-above crisp" d="M0,0" style="fill: none;"/><path class="ylines-above crisp" d="M0,0" style="fill: none;"/><g class="overlines-above"/><g class="xaxislayer-above"><g class="xtick"><text text-anchor="middle" x="0" y="433" transform="translate(83.79,0)" style="font-family: 'Open Sans', verdana, arial, sans-serif; font-size: 12px; fill: rgb(42, 63, 95); fill-opacity: 1; white-space: pre;"><tspan class="line" dy="0em" x="0" y="433">00:00</tspan><tspan class="line" dy="1.3em" x="0" y="433">Aug 3, 2021</tspan></text></g><g class="xtick"><text text-anchor="middle" x="0" y="433" transform="translate(156.75,0)" style="font-family: 'Open Sans', verdana, arial, sans-serif; font-size: 12px; fill: rgb(42, 63, 95); fill-opacity: 1; white-space: pre;">12:00</text></g><g class="xtick"><text text-anchor="middle" x="0" y="433" transform="translate(229.72,0)" style="font-family: 'Open Sans', verdana, arial, sans-serif; font-size: 12px; fill: rgb(42, 63, 95); fill-opacity: 1; white-space: pre;"><tspan class="line" dy="0em" x="0" y="433">00:00</tspan><tspan class="line" dy="1.3em" x="0" y="433">Aug 4, 2021</tspan></text></g><g class="xtick"><text text-anchor="middle" x="0" y="433" transform="translate(302.69,0)" style="font-family: 'Open Sans', verdana, arial, sans-serif; font-size: 12px; fill: rgb(42, 63, 95); fill-opacity: 1; white-space: pre;">12:00</text></g><g class="xtick"><text text-anchor="middle" x="0" y="433" transform="translate(375.65,0)" style="font-family: 'Open Sans', verdana, arial, sans-serif; font-size: 12px; fill: rgb(42, 63, 95); fill-opacity: 1; white-space: pre;"><tspan class="line" dy="0em" x="0" y="433">00:00</tspan><tspan class="line" dy="1.3em" x="0" y="433">Aug 5, 2021</tspan></text></g><g class="xtick"><text text-anchor="middle" x="0" y="433" transform="translate(448.62,0)" style="font-family: 'Open Sans', verdana, arial, sans-serif; font-size: 12px; fill: rgb(42, 63, 95); fill-opacity: 1; white-space: pre;">12:00</text></g><g class="xtick"><text text-anchor="middle" x="0" y="433" transform="translate(521.5899999999999,0)" style="font-family: 'Open Sans', verdana, arial, sans-serif; font-size: 12px; fill: rgb(42, 63, 95); fill-opacity: 1; white-space: pre;"><tspan class="line" dy="0em" x="0" y="433">00:00</tspan><tspan class="line" dy="1.3em" x="0" y="433">Aug 6, 2021</tspan></text></g><g class="xtick"><text text-anchor="middle" x="0" y="433" transform="translate(594.55,0)" style="font-family: 'Open Sans', verdana, arial, sans-serif; font-size: 12px; fill: rgb(42, 63, 95); fill-opacity: 1; white-space: pre;">12:00</text></g></g><g class="yaxislayer-above"><g class="ytick"><text text-anchor="end" x="79" y="4.199999999999999" transform="translate(0,392.55)" style="font-family: 'Open Sans', verdana, arial, sans-serif; font-size: 12px; fill: rgb(42, 63, 95); fill-opacity: 1; white-space: pre;">0.864</text></g><g class="ytick"><text text-anchor="end" x="79" y="4.199999999999999" transform="translate(0,349.77)" style="font-family: 'Open Sans', verdana, arial, sans-serif; font-size: 12px; fill: rgb(42, 63, 95); fill-opacity: 1; white-space: pre;">0.865</text></g><g class="ytick"><text text-anchor="end" x="79" y="4.199999999999999" transform="translate(0,306.99)" style="font-family: 'Open Sans', verdana, arial, sans-serif; font-size: 12px; fill: rgb(42, 63, 95); fill-opacity: 1; white-space: pre;">0.866</text></g><g class="ytick"><text text-anchor="end" x="79" y="4.199999999999999" transform="translate(0,264.21000000000004)" style="font-family: 'Open Sans', verdana, arial, sans-serif; font-size: 12px; fill: rgb(42, 63, 95); fill-opacity: 1; white-space: pre;">0.867</text></g><g class="ytick"><text text-anchor="end" x="79" y="4.199999999999999" transform="translate(0,221.43)" style="font-family: 'Open Sans', verdana, arial, sans-serif; font-size: 12px; fill: rgb(42, 63, 95); fill-opacity: 1; white-space: pre;">0.868</text></g><g class="ytick"><text text-anchor="end" x="79" y="4.199999999999999" transform="translate(0,178.65)" style="font-family: 'Open Sans', verdana, arial, sans-serif; font-size: 12px; fill: rgb(42, 63, 95); fill-opacity: 1; white-space: pre;">0.869</text></g><g class="ytick"><text text-anchor="end" x="79" y="4.199999999999999" transform="translate(0,135.87)" style="font-family: 'Open Sans', verdana, arial, sans-serif; font-size: 12px; fill: rgb(42, 63, 95); fill-opacity: 1; white-space: pre;">0.87</text></g></g><g class="overaxes-above"/></g></g><g class="polarlayer"/><g class="ternarylayer"/><g class="geolayer"/><g class="funnelarealayer"/><g class="pielayer"/><g class="treemaplayer"/><g class="sunburstlayer"/><g class="glimages"/><defs id="topdefs-8cd202"><g class="clips"/><clipPath id="legend8cd202"><rect width="60" height="45" x="0" y="0"/></clipPath></defs><g class="layer-above"><g class="imagelayer"/><g class="shapelayer"/></g><g class="infolayer"><g class="legend" pointer-events="all" transform="translate(627.74,100)"><rect class="bg" shape-rendering="crispEdges" width="60" height="45" x="0" y="0" style="stroke: rgb(68, 68, 68); stroke-opacity: 1; fill: rgb(255, 255, 255); fill-opacity: 1; stroke-width: 0px;"/><g class="scrollbox" transform="" clip-path="url('#legend8cd202')"><text class="legendtitletext" text-anchor="start" x="2" y="15.600000000000001" style="font-family: 'Open Sans', verdana, arial, sans-serif; font-size: 12px; fill: rgb(42, 63, 95); fill-opacity: 1; white-space: pre;">All</text><g class="groups" transform=""><g class="traces" transform="translate(0,30.1)" style="opacity: 1;"><text class="legendtext" text-anchor="start" x="40" y="4.680000000000001" style="font-family: 'Open Sans', verdana, arial, sans-serif; font-size: 12px; fill: rgb(42, 63, 95); fill-opacity: 1; white-space: pre;">All</text><g class="layers" style="opacity: 1;"><g class="legendfill"/><g class="legendlines"><path class="js-line" d="M5,0h30" style="fill: none; stroke: rgb(99, 110, 250); stroke-opacity: 1; stroke-width: 2px;"/></g><g class="legendsymbols"><g class="legendpoints"/></g></g><rect class="legendtoggle" x="0" y="-9.5" width="54.890625" height="19" style="fill: rgb(0, 0, 0); fill-opacity: 0;"/></g></g></g><rect class="scrollbar" rx="20" ry="3" width="0" height="0" x="0" y="0" style="fill: rgb(128, 139, 164); fill-opacity: 1;"/></g><g class="g-gtitle"><text class="gtitle" x="35" y="50" text-anchor="start" dy="0em" style="font-family: 'Open Sans', verdana, arial, sans-serif; font-size: 17px; fill: rgb(42, 63, 95); opacity: 1; font-weight: normal; white-space: pre;">Singapore Vaccination Centers</text></g><g class="g-xtitle"><text class="xtitle" x="348.5" y="476.409375" text-anchor="middle" style="font-family: 'Open Sans', verdana, arial, sans-serif; font-size: 14px; fill: rgb(42, 63, 95); opacity: 1; font-weight: normal; white-space: pre;">Time</text></g><g class="g-ytitle"><text class="ytitle" transform="rotate(-90,19.840625000000003,260)" x="19.840625000000003" y="260" text-anchor="middle" style="font-family: 'Open Sans', verdana, arial, sans-serif; font-size: 14px; fill: rgb(42, 63, 95); opacity: 1; font-weight: normal; white-space: pre;">Filled/%</text></g></g></svg>