<svg class="main-svg" xmlns="http://www.w3.org/2000/svg" xmlns:xlink="http://www.w3.org/1999/xlink" width="700" height="500" style="" viewBox="0 0 700 500"><rect x="0" y="0" width="700" height="500" style="fill: rgb(255, 255, 255); fill-opacity: 1;"/><defs id="defs-418d70"><g class="clips"><clipPath id="clip418d70xyplot" class="plotclip"><rect width="537" height="320"/></clipPath><clipPath class="axesclip" id="clip418d70x"><rect x="80" y="0" width="537" height="500"/></clipPath><clipPath class="axesclip" id="clip418d70y"><rect x="0" y="100" width="700" height="320"/></clipPath><clipPath class="axesclip" id="clip418d70xy"><rect x="80" y="100" width="537" height="320"/></clipPath></g><g class="gradients"/></defs><g class="bglayer"><rect class="bg" x="80" y="100" width="537" height="320" style="fill: rgb(229, 236, 246); fill-opacity: 1; stroke-width: 0;"/></g><g class="layer-below"><g class="imagelayer"/><g class="shapelayer"/></g><g class="cartesianlayer"><g class="subplot xy"><g class="layer-subplot"><g class="shapelayer"/><g class="imagelayer"/></g><g class="gridlayer"><g class="x"><path class="xgrid crisp" transform="translate(91.93,0)" d="M0,100v320" style="stroke: rgb(255, 255, 255); stroke-opacity: 1; stroke-width: 1px;"/><path class="xgrid crisp" transform="translate(220.39,0)" d="M0,100v320" style="stroke: rgb(255, 255, 255); stroke-opacity: 1; stroke-width: 1px;"/><path class="xgrid crisp" transform="translate(348.86,0)" d="M0,100v320" style="stroke: rgb(255, 255, 255); stroke-opacity: 1; stroke-width: 1px;"/><path class="xgrid crisp" transform="translate(477.33,0)" d="M0,100v320" style="stroke: rgb(255, 255, 255); stroke-opacity: 1; stroke-width: 1px;"/><path class="xgrid crisp" transform="translate(605.79,0)" d="M0,100v320" style="stroke: rgb(255, 255, 255); stroke-opacity: 1; stroke-width: 1px;"/></g><g class="y"><path class="ygrid crisp" transform="translate(0,367.23)" d="M80,0h537" style="stroke: rgb(255, 255, 255); stroke-opacity: 1; stroke-width: 1px;"/><path class="ygrid crisp" transform="translate(0,308.43)" d="M80,0h537" style="stroke: rgb(255, 255, 255); stroke-opacity: 1; stroke-width: 1px;"/><path class="ygrid crisp" transform="translate(0,249.63)" d="M80,0h537" style="stroke: rgb(255, 255, 255); stroke-opacity: 1; stroke-width: 1px;"/><path class="ygrid crisp" transform="translate(0,190.82999999999998)" d="M80,0h537" style="stroke: rgb(255, 255, 255); stroke-opacity: 1; stroke-width: 1px;"/><path class="ygrid crisp" transform="translate(0,132.03)" d="M80,0h537" style="stroke: rgb(255, 255, 255); stroke-opacity: 1; stroke-width: 1px;"/></g></g><g class="zerolinelayer"/><path class="xlines-below"/><path class="ylines-below"/><g class="overlines-below"/><g class="xaxislayer-below"/><g class="yaxislayer-below"/><g class="overaxes-below"/><g class="plot" transform="translate(80,100)" clip-path="url('#clip418d70xyplot')"><g class="scatterlayer mlayer"><g class="trace scatter trace503ed2" style="stroke-miterlimit: 2; opacity: 1;"><g class="fills"/><g class="errorbars"/><g class="lines"><path class="js-line" d="M0,82.28L7.53,82.51L10.21,120.48L15.53,120.57L17.5,136.92L18.34,136.9L38.04,137.96L39.27,121.23L39.64,129.62L40.53,129.56L42.32,126.37L43.21,126.27L44.99,129.79L45.88,129.7L47.67,132.71L48.56,132.63L50.34,120.69L51.24,120.62L53.02,132.64L53.91,132.55L55.7,126.68L56.59,123.32L58.37,113.21L59.27,109.51L61.05,94.58L61.94,92.89L63.72,74.17L64.62,72.87L66.4,78.78L67.29,77.73L69.08,63.68L69.97,62.82L71.75,65.47L72.64,64.83L74.43,74.27L75.32,73.83L76.5,51.83L77.11,52.53L78,52.34L86.92,51.79L87.81,51.79L101.19,50.91L102.08,50.65L133.31,42.03L134.2,41.83L139.56,40.95L140.45,41.79L155.61,41.47L156.51,41.46L169.89,40.8L170.78,40.69L203.79,36.83L204.68,35.53L239.47,34L240.36,33.87L268.02,31.05L268.92,28.56L299.25,27.81L300.14,95.38L309.98,93.57L310.85,93.44L311.74,93.12L312.63,91.51L315.31,88.51L316.2,87.52L319.77,74.89L320.66,73.59L324.23,69.79L325.12,69.11L330.47,66.07L331.37,65.71L335.83,65.01L336.72,64.93L360.81,63.48L361.7,63.27L367.05,61.32L367.94,60.89L368.83,60.46L369.73,62.78L373.29,61.15L374.19,59.94L378.65,54.01L379.54,53.24L383.11,49.13L384,47.98L387.57,39.84L388.46,38.66L393.81,33.5L394.7,32.89L398.27,31.98L399.17,31.8L406.3,31.18L407.2,31.16L420.58,30.17L421.47,29.9L426.82,28.09L427.71,74.81L429.5,73.22L430.39,72.76L439.31,69.16L440.21,68.8L440.89,71.93L441.1,68.39L441.95,68.25L441.99,69.25L442.84,67.95L442.88,68.94L443.77,68.62L445.56,68.09L446.45,76.43L454.26,73.91L454.3,72.31L454.34,72.03L454.48,73.74L462.95,44.74L463.4,44.87L463.85,41.95L464.74,42.12L465.18,43.2L466.52,37.43L466.97,41.6L468.31,39.66L468.75,39.05L470.09,38.13L470.54,38.96L471.43,38.53L471.88,38.42L473.22,38.4L473.66,43.02L478.57,41.69L479.01,36.5L479.9,35.76L480.35,35.39L481.69,33.79L482.13,33.41L485.7,22.43L486.15,16L486.59,16.8L487.04,140.18L487.49,139.22L487.93,142.07L488.82,136.79L489.27,138.99L490.17,136.15L490.61,136.63L491.06,141.25L491.5,146.68L491.95,133.42L492.84,138.09L493.29,157.2L494.62,133.53L495.07,145.44L495.52,148.42L495.96,146.68L496.41,144.02L497.3,134.36L497.75,135.71L498.64,146.05L499.08,142.1L499.53,141.74L499.97,151.77L500.87,140.84L501.31,148.68L502.21,127.07L502.65,137.58L503.55,140.49L503.99,138.92L504.88,130.34L505.33,131.67L505.77,129.31L506.22,138.25L506.67,134.05L507.11,138.68L507.56,138.81L508,131.49L508.45,131.42L508.9,140.05L509.79,132.48L510.24,138.41L511.13,141.46L511.57,128.79L512.47,142.96L512.92,264.58L513.81,292.55L514.25,293.12L514.7,304L515.15,286.22L515.59,301.52L516.04,291.75L516.48,292.1L516.93,291.07L517.38,294.16L517.82,293.46L518.27,276.02L518.71,283.67L519.16,262.28L520.05,272.54L520.5,248.89L521.39,241.71L521.83,229.6L522.28,224.98L522.73,228.24L523.17,227.36L523.62,223.79L524.51,215.22L524.96,217.06L525.4,216.4L525.85,227.08L526.29,226.08L526.74,228.38L527.19,228.68L527.63,224.72L528.08,233.57L528.52,224.28L529.42,227.75L529.86,223.07L530.76,226.33L531.2,223.26L531.65,224.52L532.09,234.01L532.54,220.81L532.99,231.91L534.33,220.15L534.77,220.86L536.11,212.72L536.56,220.76L537,220.74" style="vector-effect: non-scaling-stroke; fill: none; stroke: rgb(99, 110, 250); stroke-opacity: 1; stroke-width: 2px; opacity: 1;"/></g><g class="points"/><g class="text"/></g></g></g><g class="overplot"/><path class="xlines-above crisp" d="M0,0" style="fill: none;"/><path class="ylines-above crisp" d="M0,0" style="fill: none;"/><g class="overlines-above"/><g class="xaxislayer-above"><g class="xtick"><text text-anchor="middle" x="0" y="433" transform="translate(91.93,0)" style="font-family: 'Open Sans', verdana, arial, sans-serif; font-size: 12px; fill: rgb(42, 63, 95); fill-opacity: 1; white-space: pre;"><tspan class="line" dy="0em" x="0" y="433">Jun 4</tspan><tspan class="line" dy="1.3em" x="0" y="433">2021</tspan></text></g><g class="xtick"><text text-anchor="middle" x="0" y="433" transform="translate(220.39,0)" style="font-family: 'Open Sans', verdana, arial, sans-serif; font-size: 12px; fill: rgb(42, 63, 95); fill-opacity: 1; white-space: pre;">Jun 6</text></g><g class="xtick"><text text-anchor="middle" x="0" y="433" transform="translate(348.86,0)" style="font-family: 'Open Sans', verdana, arial, sans-serif; font-size: 12px; fill: rgb(42, 63, 95); fill-opacity: 1; white-space: pre;">Jun 8</text></g><g class="xtick"><text text-anchor="middle" x="0" y="433" transform="translate(477.33,0)" style="font-family: 'Open Sans', verdana, arial, sans-serif; font-size: 12px; fill: rgb(42, 63, 95); fill-opacity: 1; white-space: pre;">Jun 10</text></g><g class="xtick"><text text-anchor="middle" x="0" y="433" transform="translate(605.79,0)" style="font-family: 'Open Sans', verdana, arial, sans-serif; font-size: 12px; fill: rgb(42, 63, 95); fill-opacity: 1; white-space: pre;">Jun 12</text></g></g><g class="yaxislayer-above"><g class="ytick"><text text-anchor="end" x="79" y="4.199999999999999" transform="translate(0,367.23)" style="font-family: 'Open Sans', verdana, arial, sans-serif; font-size: 12px; fill: rgb(42, 63, 95); fill-opacity: 1; white-space: pre;">0.8</text></g><g class="ytick"><text text-anchor="end" x="79" y="4.199999999999999" transform="translate(0,308.43)" style="font-family: 'Open Sans', verdana, arial, sans-serif; font-size: 12px; fill: rgb(42, 63, 95); fill-opacity: 1; white-space: pre;">0.82</text></g><g class="ytick"><text text-anchor="end" x="79" y="4.199999999999999" transform="translate(0,249.63)" style="font-family: 'Open Sans', verdana, arial, sans-serif; font-size: 12px; fill: rgb(42, 63, 95); fill-opacity: 1; white-space: pre;">0.84</text></g><g class="ytick"><text text-anchor="end" x="79" y="4.199999999999999" transform="translate(0,190.82999999999998)" style="font-family: 'Open Sans', verdana, arial, sans-serif; font-size: 12px; fill: rgb(42, 63, 95); fill-opacity: 1; white-space: pre;">0.86</text></g><g class="ytick"><text text-anchor="end" x="79" y="4.199999999999999" transform="translate(0,132.03)" style="font-family: 'Open Sans', verdana, arial, sans-serif; font-size: 12px; fill: rgb(42, 63, 95); fill-opacity: 1; white-space: pre;">0.88</text></g></g><g class="overaxes-above"/></g></g><g class="polarlayer"/><g class="ternarylayer"/><g class="geolayer"/><g class="funnelarealayer"/><g class="pielayer"/><g class="treemaplayer"/><g class="sunburstlayer"/><g class="glimages"/><defs id="topdefs-418d70"><g class="clips"/><clipPath id="legend418d70"><rect width="60" height="45" x="0" y="0"/></clipPath></defs><g class="layer-above"><g class="imagelayer"/><g class="shapelayer"/></g><g class="infolayer"><g class="legend" pointer-events="all" transform="translate(627.74,100)"><rect class="bg" shape-rendering="crispEdges" width="60" height="45" x="0" y="0" style="stroke: rgb(68, 68, 68); stroke-opacity: 1; fill: rgb(255, 255, 255); fill-opacity: 1; stroke-width: 0px;"/><g class="scrollbox" transform="" clip-path="url('#legend418d70')"><text class="legendtitletext" text-anchor="start" x="2" y="15.600000000000001" style="font-family: 'Open Sans', verdana, arial, sans-serif; font-size: 12px; fill: rgb(42, 63, 95); fill-opacity: 1; white-space: pre;">All</text><g class="groups" transform=""><g class="traces" transform="translate(0,30.1)" style="opacity: 1;"><text class="legendtext" text-anchor="start" x="40" y="4.680000000000001" style="font-family: 'Open Sans', verdana, arial, sans-serif; font-size: 12px; fill: rgb(42, 63, 95); fill-opacity: 1; white-space: pre;">All</text><g class="layers" style="opacity: 1;"><g class="legendfill"/><g class="legendlines"><path class="js-line" d="M5,0h30" style="fill: none; stroke: rgb(99, 110, 250); stroke-opacity: 1; stroke-width: 2px;"/></g><g class="legendsymbols"><g class="legendpoints"/></g></g><rect class="legendtoggle" x="0" y="-9.5" width="54.890625" height="19" style="fill: rgb(0, 0, 0); fill-opacity: 0;"/></g></g></g><rect class="scrollbar" rx="20" ry="3" width="0" height="0" x="0" y="0" style="fill: rgb(128, 139, 164); fill-opacity: 1;"/></g><g class="g-gtitle"><text class="gtitle" x="35" y="50" text-anchor="start" dy="0em" style="font-family: 'Open Sans', verdana, arial, sans-serif; font-size: 17px; fill: rgb(42, 63, 95); opacity: 1; font-weight: normal; white-space: pre;">Singapore Vaccination Centers</text></g><g class="g-xtitle"><text class="xtitle" x="348.5" y="476.409375" text-anchor="middle" style="font-family: 'Open Sans', verdana, arial, sans-serif; font-size: 14px; fill: rgb(42, 63, 95); opacity: 1; font-weight: normal; white-space: pre;">Time</text></g><g class="g-ytitle"><text class="ytitle" transform="rotate(-90,27.481250000000003,260)" x="27.481250000000003" y="260" text-anchor="middle" style="font-family: 'Open Sans', verdana, arial, sans-serif; font-size: 14px; fill: rgb(42, 63, 95); opacity: 1; font-weight: normal; white-space: pre;">Filled/%</text></g></g></svg>