<svg class="main-svg" xmlns="http://www.w3.org/2000/svg" xmlns:xlink="http://www.w3.org/1999/xlink" width="700" height="500" style="" viewBox="0 0 700 500"><rect x="0" y="0" width="700" height="500" style="fill: rgb(255, 255, 255); fill-opacity: 1;"/><defs id="defs-275947"><g class="clips"><clipPath id="clip275947xyplot" class="plotclip"><rect width="537" height="320"/></clipPath><clipPath class="axesclip" id="clip275947x"><rect x="80" y="0" width="537" height="500"/></clipPath><clipPath class="axesclip" id="clip275947y"><rect x="0" y="100" width="700" height="320"/></clipPath><clipPath class="axesclip" id="clip275947xy"><rect x="80" y="100" width="537" height="320"/></clipPath></g><g class="gradients"/></defs><g class="bglayer"><rect class="bg" x="80" y="100" width="537" height="320" style="fill: rgb(229, 236, 246); fill-opacity: 1; stroke-width: 0;"/></g><g class="layer-below"><g class="imagelayer"/><g class="shapelayer"/></g><g class="cartesianlayer"><g class="subplot xy"><g class="layer-subplot"><g class="shapelayer"/><g class="imagelayer"/></g><g class="gridlayer"><g class="x"><path class="xgrid crisp" transform="translate(91.16,0)" d="M0,100v320" style="stroke: rgb(255, 255, 255); stroke-opacity: 1; stroke-width: 1px;"/><path class="xgrid crisp" transform="translate(211.34,0)" d="M0,100v320" style="stroke: rgb(255, 255, 255); stroke-opacity: 1; stroke-width: 1px;"/><path class="xgrid crisp" transform="translate(331.52,0)" d="M0,100v320" style="stroke: rgb(255, 255, 255); stroke-opacity: 1; stroke-width: 1px;"/><path class="xgrid crisp" transform="translate(451.7,0)" d="M0,100v320" style="stroke: rgb(255, 255, 255); stroke-opacity: 1; stroke-width: 1px;"/><path class="xgrid crisp" transform="translate(571.88,0)" d="M0,100v320" style="stroke: rgb(255, 255, 255); stroke-opacity: 1; stroke-width: 1px;"/></g><g class="y"><path class="ygrid crisp" transform="translate(0,367.23)" d="M80,0h537" style="stroke: rgb(255, 255, 255); stroke-opacity: 1; stroke-width: 1px;"/><path class="ygrid crisp" transform="translate(0,308.43)" d="M80,0h537" style="stroke: rgb(255, 255, 255); stroke-opacity: 1; stroke-width: 1px;"/><path class="ygrid crisp" transform="translate(0,249.63)" d="M80,0h537" style="stroke: rgb(255, 255, 255); stroke-opacity: 1; stroke-width: 1px;"/><path class="ygrid crisp" transform="translate(0,190.82999999999998)" d="M80,0h537" style="stroke: rgb(255, 255, 255); stroke-opacity: 1; stroke-width: 1px;"/><path class="ygrid crisp" transform="translate(0,132.03)" d="M80,0h537" style="stroke: rgb(255, 255, 255); stroke-opacity: 1; stroke-width: 1px;"/></g></g><g class="zerolinelayer"/><path class="xlines-below"/><path class="ylines-below"/><g class="overlines-below"/><g class="xaxislayer-below"/><g class="yaxislayer-below"/><g class="overaxes-below"/><g class="plot" transform="translate(80,100)" clip-path="url('#clip275947xyplot')"><g class="scatterlayer mlayer"><g class="trace scatter trace031a21" style="stroke-miterlimit: 2; opacity: 1;"><g class="fills"/><g class="errorbars"/><g class="lines"><path class="js-line" d="M0,82.28L7.05,82.51L9.55,120.48L14.53,120.57L16.38,136.92L17.15,136.9L35.59,137.96L36.73,121.23L37.08,129.62L37.92,129.56L39.59,126.37L40.42,126.27L42.09,129.79L42.92,129.7L44.59,132.71L45.43,132.63L47.1,120.69L47.93,120.62L49.6,132.64L50.44,132.55L52.11,126.68L52.94,123.32L54.61,113.21L55.44,109.51L57.11,94.58L57.95,92.89L59.61,74.17L60.45,72.87L62.12,78.78L62.95,77.73L64.62,63.68L65.46,62.82L67.13,65.47L67.96,64.83L69.63,74.27L70.47,73.83L71.57,51.83L72.13,52.53L72.97,52.34L81.31,51.79L82.15,51.79L94.67,50.91L95.5,50.65L124.71,42.03L125.55,41.83L130.56,40.95L131.39,41.79L145.58,41.47L146.41,41.46L158.93,40.8L159.76,40.69L190.64,36.83L191.48,35.53L224.03,34L224.86,33.87L250.74,31.05L251.57,28.56L279.95,27.81L280.78,95.38L289.99,93.57L290.8,93.44L291.63,93.12L292.47,91.51L294.97,88.51L295.81,87.52L299.98,73.59L300.81,72.39L305.82,67.88L306.66,67.37L310.83,65.43L311.66,65.5L317.51,64.8L318.34,64.77L336.7,63.66L337.54,63.48L343.38,61.32L344.21,60.89L345.05,60.46L345.88,62.78L349.22,61.15L350.05,59.94L355.06,53.24L355.9,52.44L359.23,47.98L360.07,45.51L363.41,38.66L364.24,37.65L368.41,33.5L369.25,32.89L372.59,31.98L373.42,31.8L380.1,31.18L380.94,31.16L393.45,30.17L394.29,29.9L399.29,28.09L400.13,74.81L401.8,73.22L402.63,72.76L410.98,69.16L411.81,68.8L412.45,71.93L412.65,68.39L413.44,68.25L413.48,69.25L414.28,67.95L414.32,68.94L415.15,68.62L416.82,68.09L417.66,76.43L424.96,73.91L425,72.31L425.04,72.03L425.17,73.74L433.1,44.74L433.51,44.87L433.93,41.95L434.76,42.12L435.18,43.2L436.43,37.43L436.85,41.6L438.1,39.66L438.52,39.05L439.77,38.13L440.19,38.96L440.61,38.26L441.03,38.53L441.44,38.42L442.7,38.4L443.11,43.02L447.7,41.69L448.12,36.5L448.95,35.76L449.37,35.39L450.62,33.79L451.04,33.41L454.38,22.43L454.79,16L455.21,16.8L455.63,140.18L456.05,139.22L456.46,142.07L457.3,136.79L457.72,138.99L458.55,136.15L458.97,136.63L459.39,141.25L459.8,146.68L460.22,133.42L461.05,138.09L461.47,157.2L462.72,133.53L463.14,145.44L463.56,148.42L463.97,146.68L464.39,144.02L465.23,134.36L465.64,135.71L466.06,141.84L466.48,146.05L466.9,142.1L467.31,141.74L467.73,151.77L468.56,140.84L468.98,148.68L469.82,127.07L470.24,137.58L471.07,140.49L471.49,138.92L472.32,130.34L472.74,131.67L473.15,129.31L473.57,138.25L473.99,134.05L474.41,138.68L474.83,138.81L475.24,131.49L475.66,131.42L476.08,140.05L476.91,132.48L477.33,138.41L478.16,141.46L478.58,128.79L479.42,142.96L479.84,264.58L480.67,292.55L481.09,293.12L481.5,304L481.92,286.22L482.34,301.52L482.75,291.75L483.17,292.1L483.59,291.07L484.01,294.16L484.42,293.46L484.84,276.02L485.26,283.67L485.68,262.28L486.51,272.54L486.93,248.89L487.76,241.71L488.18,229.6L488.6,224.98L489.01,228.24L489.43,227.36L490.68,215.22L491.1,217.06L491.52,216.4L491.93,227.08L492.35,226.08L492.77,228.38L493.19,228.68L493.6,224.72L494.02,233.57L494.44,224.28L495.27,227.75L495.69,223.07L496.52,226.33L496.94,223.26L497.36,224.52L497.78,234.01L498.19,220.81L498.61,231.91L499.86,220.15L500.28,220.86L501.53,212.72L501.95,220.76L502.79,220.72L503.2,223.7L503.62,223.67L504.04,219.37L504.45,223.08L504.87,218.62L505.29,226.76L505.71,225.2L506.12,224.19L506.54,219.51L506.96,225.16L508.21,225.11L508.62,216.49L509.04,225.05L509.46,220.43L509.88,220.57L510.29,218.19L510.71,220.92L511.13,219.84L511.55,227.36L511.96,216.65L512.38,220.1L512.8,220.01L513.63,220.98L514.05,218.78L514.88,223.64L515.3,218.66L515.72,205.85L516.14,215.25L516.55,220.32L516.97,206.18L517.39,206.81L517.8,214.16L518.22,214.11L518.64,206.99L519.48,212.47L519.9,202.23L520.31,199.24L520.73,208.71L521.15,224.84L521.56,215.2L521.98,214.49L522.4,205.74L522.81,219.6L523.65,195.82L524.06,209.77L524.48,208.24L524.9,203.32L525.32,202.05L525.73,205.17L526.15,200.81L526.57,208.16L526.98,206.35L527.4,209.96L527.82,207.44L528.24,196.45L528.65,195.36L529.07,196.45L529.91,209.39L530.32,202.33L530.74,210.92L531.16,197.09L531.57,197.31L531.99,191.05L532.41,191.24L532.83,196.07L533.25,200.65L533.66,194.37L534.91,210.5L535.33,204.27L536.16,191.94L536.58,193.62L537,197" style="vector-effect: non-scaling-stroke; fill: none; stroke: rgb(99, 110, 250); stroke-opacity: 1; stroke-width: 2px; opacity: 1;"/></g><g class="points"/><g class="text"/></g></g></g><g class="overplot"/><path class="xlines-above crisp" d="M0,0" style="fill: none;"/><path class="ylines-above crisp" d="M0,0" style="fill: none;"/><g class="overlines-above"/><g class="xaxislayer-above"><g class="xtick"><text text-anchor="middle" x="0" y="433" transform="translate(91.16,0)" style="font-family: 'Open Sans', verdana, arial, sans-serif; font-size: 12px; fill: rgb(42, 63, 95); fill-opacity: 1; white-space: pre;"><tspan class="line" dy="0em" x="0" y="433">Jun 4</tspan><tspan class="line" dy="1.3em" x="0" y="433">2021</tspan></text></g><g class="xtick"><text text-anchor="middle" x="0" y="433" transform="translate(211.34,0)" style="font-family: 'Open Sans', verdana, arial, sans-serif; font-size: 12px; fill: rgb(42, 63, 95); fill-opacity: 1; white-space: pre;">Jun 6</text></g><g class="xtick"><text text-anchor="middle" x="0" y="433" transform="translate(331.52,0)" style="font-family: 'Open Sans', verdana, arial, sans-serif; font-size: 12px; fill: rgb(42, 63, 95); fill-opacity: 1; white-space: pre;">Jun 8</text></g><g class="xtick"><text text-anchor="middle" x="0" y="433" transform="translate(451.7,0)" style="font-family: 'Open Sans', verdana, arial, sans-serif; font-size: 12px; fill: rgb(42, 63, 95); fill-opacity: 1; white-space: pre;">Jun 10</text></g><g class="xtick"><text text-anchor="middle" x="0" y="433" transform="translate(571.88,0)" style="font-family: 'Open Sans', verdana, arial, sans-serif; font-size: 12px; fill: rgb(42, 63, 95); fill-opacity: 1; white-space: pre;">Jun 12</text></g></g><g class="yaxislayer-above"><g class="ytick"><text text-anchor="end" x="79" y="4.199999999999999" transform="translate(0,367.23)" style="font-family: 'Open Sans', verdana, arial, sans-serif; font-size: 12px; fill: rgb(42, 63, 95); fill-opacity: 1; white-space: pre;">0.8</text></g><g class="ytick"><text text-anchor="end" x="79" y="4.199999999999999" transform="translate(0,308.43)" style="font-family: 'Open Sans', verdana, arial, sans-serif; font-size: 12px; fill: rgb(42, 63, 95); fill-opacity: 1; white-space: pre;">0.82</text></g><g class="ytick"><text text-anchor="end" x="79" y="4.199999999999999" transform="translate(0,249.63)" style="font-family: 'Open Sans', verdana, arial, sans-serif; font-size: 12px; fill: rgb(42, 63, 95); fill-opacity: 1; white-space: pre;">0.84</text></g><g class="ytick"><text text-anchor="end" x="79" y="4.199999999999999" transform="translate(0,190.82999999999998)" style="font-family: 'Open Sans', verdana, arial, sans-serif; font-size: 12px; fill: rgb(42, 63, 95); fill-opacity: 1; white-space: pre;">0.86</text></g><g class="ytick"><text text-anchor="end" x="79" y="4.199999999999999" transform="translate(0,132.03)" style="font-family: 'Open Sans', verdana, arial, sans-serif; font-size: 12px; fill: rgb(42, 63, 95); fill-opacity: 1; white-space: pre;">0.88</text></g></g><g class="overaxes-above"/></g></g><g class="polarlayer"/><g class="ternarylayer"/><g class="geolayer"/><g class="funnelarealayer"/><g class="pielayer"/><g class="treemaplayer"/><g class="sunburstlayer"/><g class="glimages"/><defs id="topdefs-275947"><g class="clips"/><clipPath id="legend275947"><rect width="60" height="45" x="0" y="0"/></clipPath></defs><g class="layer-above"><g class="imagelayer"/><g class="shapelayer"/></g><g class="infolayer"><g class="legend" pointer-events="all" transform="translate(627.74,100)"><rect class="bg" shape-rendering="crispEdges" width="60" height="45" x="0" y="0" style="stroke: rgb(68, 68, 68); stroke-opacity: 1; fill: rgb(255, 255, 255); fill-opacity: 1; stroke-width: 0px;"/><g class="scrollbox" transform="" clip-path="url('#legend275947')"><text class="legendtitletext" text-anchor="start" x="2" y="15.600000000000001" style="font-family: 'Open Sans', verdana, arial, sans-serif; font-size: 12px; fill: rgb(42, 63, 95); fill-opacity: 1; white-space: pre;">All</text><g class="groups" transform=""><g class="traces" transform="translate(0,30.1)" style="opacity: 1;"><text class="legendtext" text-anchor="start" x="40" y="4.680000000000001" style="font-family: 'Open Sans', verdana, arial, sans-serif; font-size: 12px; fill: rgb(42, 63, 95); fill-opacity: 1; white-space: pre;">All</text><g class="layers" style="opacity: 1;"><g class="legendfill"/><g class="legendlines"><path class="js-line" d="M5,0h30" style="fill: none; stroke: rgb(99, 110, 250); stroke-opacity: 1; stroke-width: 2px;"/></g><g class="legendsymbols"><g class="legendpoints"/></g></g><rect class="legendtoggle" x="0" y="-9.5" width="54.890625" height="19" style="fill: rgb(0, 0, 0); fill-opacity: 0;"/></g></g></g><rect class="scrollbar" rx="20" ry="3" width="0" height="0" x="0" y="0" style="fill: rgb(128, 139, 164); fill-opacity: 1;"/></g><g class="g-gtitle"><text class="gtitle" x="35" y="50" text-anchor="start" dy="0em" style="font-family: 'Open Sans', verdana, arial, sans-serif; font-size: 17px; fill: rgb(42, 63, 95); opacity: 1; font-weight: normal; white-space: pre;">Singapore Vaccination Centers</text></g><g class="g-xtitle"><text class="xtitle" x="348.5" y="476.409375" text-anchor="middle" style="font-family: 'Open Sans', verdana, arial, sans-serif; font-size: 14px; fill: rgb(42, 63, 95); opacity: 1; font-weight: normal; white-space: pre;">Time</text></g><g class="g-ytitle"><text class="ytitle" transform="rotate(-90,27.481250000000003,260)" x="27.481250000000003" y="260" text-anchor="middle" style="font-family: 'Open Sans', verdana, arial, sans-serif; font-size: 14px; fill: rgb(42, 63, 95); opacity: 1; font-weight: normal; white-space: pre;">Filled/%</text></g></g></svg>