<svg class="main-svg" xmlns="http://www.w3.org/2000/svg" xmlns:xlink="http://www.w3.org/1999/xlink" width="700" height="500" style="" viewBox="0 0 700 500"><rect x="0" y="0" width="700" height="500" style="fill: rgb(255, 255, 255); fill-opacity: 1;"/><defs id="defs-85012d"><g class="clips"><clipPath id="clip85012dxyplot" class="plotclip"><rect width="537" height="320"/></clipPath><clipPath class="axesclip" id="clip85012dx"><rect x="80" y="0" width="537" height="500"/></clipPath><clipPath class="axesclip" id="clip85012dy"><rect x="0" y="100" width="700" height="320"/></clipPath><clipPath class="axesclip" id="clip85012dxy"><rect x="80" y="100" width="537" height="320"/></clipPath></g><g class="gradients"/></defs><g class="bglayer"><rect class="bg" x="80" y="100" width="537" height="320" style="fill: rgb(229, 236, 246); fill-opacity: 1; stroke-width: 0;"/></g><g class="layer-below"><g class="imagelayer"/><g class="shapelayer"/></g><g class="cartesianlayer"><g class="subplot xy"><g class="layer-subplot"><g class="shapelayer"/><g class="imagelayer"/></g><g class="gridlayer"><g class="x"><path class="xgrid crisp" transform="translate(82.42,0)" d="M0,100v320" style="stroke: rgb(255, 255, 255); stroke-opacity: 1; stroke-width: 1px;"/><path class="xgrid crisp" transform="translate(175.48000000000002,0)" d="M0,100v320" style="stroke: rgb(255, 255, 255); stroke-opacity: 1; stroke-width: 1px;"/><path class="xgrid crisp" transform="translate(268.55,0)" d="M0,100v320" style="stroke: rgb(255, 255, 255); stroke-opacity: 1; stroke-width: 1px;"/><path class="xgrid crisp" transform="translate(361.61,0)" d="M0,100v320" style="stroke: rgb(255, 255, 255); stroke-opacity: 1; stroke-width: 1px;"/><path class="xgrid crisp" transform="translate(454.68,0)" d="M0,100v320" style="stroke: rgb(255, 255, 255); stroke-opacity: 1; stroke-width: 1px;"/><path class="xgrid crisp" transform="translate(547.75,0)" d="M0,100v320" style="stroke: rgb(255, 255, 255); stroke-opacity: 1; stroke-width: 1px;"/></g><g class="y"><path class="ygrid crisp" transform="translate(0,392.55)" d="M80,0h537" style="stroke: rgb(255, 255, 255); stroke-opacity: 1; stroke-width: 1px;"/><path class="ygrid crisp" transform="translate(0,349.77)" d="M80,0h537" style="stroke: rgb(255, 255, 255); stroke-opacity: 1; stroke-width: 1px;"/><path class="ygrid crisp" transform="translate(0,306.99)" d="M80,0h537" style="stroke: rgb(255, 255, 255); stroke-opacity: 1; stroke-width: 1px;"/><path class="ygrid crisp" transform="translate(0,264.21000000000004)" d="M80,0h537" style="stroke: rgb(255, 255, 255); stroke-opacity: 1; stroke-width: 1px;"/><path class="ygrid crisp" transform="translate(0,221.43)" d="M80,0h537" style="stroke: rgb(255, 255, 255); stroke-opacity: 1; stroke-width: 1px;"/><path class="ygrid crisp" transform="translate(0,178.65)" d="M80,0h537" style="stroke: rgb(255, 255, 255); stroke-opacity: 1; stroke-width: 1px;"/><path class="ygrid crisp" transform="translate(0,135.87)" d="M80,0h537" style="stroke: rgb(255, 255, 255); stroke-opacity: 1; stroke-width: 1px;"/></g></g><g class="zerolinelayer"/><path class="xlines-below"/><path class="ylines-below"/><g class="overlines-below"/><g class="xaxislayer-below"/><g class="yaxislayer-below"/><g class="overaxes-below"/><g class="plot" transform="translate(80,100)" clip-path="url('#clip85012dxyplot')"><g class="scatterlayer mlayer"><g class="trace scatter tracea4d4ce" style="stroke-miterlimit: 2; opacity: 1;"><g class="fills"/><g class="errorbars"/><g class="lines"><path class="js-line" d="M0,304L1.86,302.59L2.51,249.74L3.16,251.04L3.8,249.35L6.39,248.71L7.03,248.32L8.33,249.1L8.97,248.19L10.27,248.58L10.91,248.19L12.2,247.93L12.85,247.67L14.14,247.41L14.79,247.16L19.96,246.77L20.61,246.51L24.48,246.12L25.13,245.73L26.42,245.86L27.07,245.22L28.36,245.09L29,244.44L30.3,244.57L30.94,243.66L32.24,244.57L32.89,243.02L34.82,242.11L35.47,242.63L36.12,242.24L36.76,243.15L38.06,240.17L38.7,240.69L39.35,240.69L39.99,239.78L43.23,236.94L43.87,237.97L44.51,238.23L45.16,237.07L45.81,235L46.46,235.51L47.1,236.55L47.75,235L49.04,232.67L49.69,232.28L50.98,230.6L51.63,231.12L52.92,229.95L53.57,230.21L54.21,231.76L54.86,229.56L56.8,230.6L57.44,230.21L59.38,226.07L60.03,226.85L61.32,225.68L61.97,227.36L62.61,227.11L63.26,225.55L65.85,221.16L66.49,218.44L67.14,219.09L67.78,217.66L68.43,216.63L69.08,217.4L70.37,217.66L71.01,218.7L74.25,216.37L74.89,216.11L76.83,214.3L77.48,214.82L78.77,215.98L79.42,214.43L81.36,213.39L82.01,212.88L83.3,212.23L83.94,211.45L85.88,212.23L86.53,211.84L87.82,211.58L88.47,211.84L89.76,210.42L90.41,208.87L91.7,207.7L92.35,206.93L93.63,207.96L94.28,207.44L94.93,207.96L95.58,142.27L98.16,140.44L98.81,140.31L100.75,138.75L101.39,139.14L104.62,138.48L105.27,138.35L107.21,137.83L107.85,137.96L113.67,137.96L114.32,138.09L118.84,137.83L119.49,137.18L121.43,137.18L122.07,136.14L124.65,136.27L125.3,135.74L126.59,135.88L127.24,135.22L128.54,134.57L129.18,135.22L131.76,132.22L132.41,133.27L134.35,131.57L135,132.22L137.58,128.44L138.23,130.14L140.81,127.14L141.46,128.05L142.75,126.48L143.4,127.66L144.05,128.7L144.69,127.79L145.34,128.83L145.98,128.31L146.63,127.4L147.28,128.44L148.57,128.18L149.22,128.57L150.51,128.83L151.16,128.44L153.75,124.79L154.39,124.92L155.69,125.96L156.34,124.01L158.92,123.09L159.57,121.4L162.15,121.92L162.8,120.61L163.44,118.4L164.09,119.96L164.74,119.96L165.38,118.79L166.03,119.7L166.67,119.18L167.97,117.35L168.62,117.48L170.56,114.35L171.2,114.48L172.5,112.14L173.14,112.92L174.43,110.83L175.08,111.35L177.02,110.7L177.66,108.09L178.31,107.96L178.95,106.92L180.25,105.74L180.9,106L182.19,107.83L182.83,107.18L183.49,109.13L184.13,108.35L184.77,108.22L185.42,106.66L186.07,106.27L186.71,106.79L188,107.05L188.65,61.25L190.59,59.15L191.23,58.88L195.11,56.78L195.76,56.52L198.99,54.28L199.64,54.28L200.93,54.41L201.58,53.75L204.81,53.62L205.45,53.75L215.79,51.78L216.44,52.18L218.38,51.12L219.02,51.25L219.67,51.52L220.31,50.73L224.19,50.07L225.48,49.54L226.13,48.23L227.42,47.83L228.71,47.44L229.36,45.73L230.01,46.91L230.66,45.73L231.95,45.73L232.59,45.07L233.24,44.94L233.89,43.76L235.82,43.49L236.47,41.91L238.41,39.42L239.04,38.1L240.33,38.36L240.97,37.31L241.62,37.71L242.27,36L244.85,35.34L245.5,33.36L246.15,32.71L246.79,33.23L248.08,32.44L248.73,32.05L249.38,31.92L250.02,30.86L251.32,30.86L251.96,31.39L253.25,32.97L253.9,31.13L255.2,32.31L255.85,30.34L257.14,30.47L257.78,30.86L259.72,29.02L260.37,29.42L261.66,27.71L262.3,26.66L262.95,24.16L263.6,24.68L264.24,23.24L264.89,24.68L266.18,22.84L266.83,22.58L267.47,21.26L268.12,21.66L269.41,21.79L270.06,20.74L270.7,21.26L271.35,19.68L272.64,19.55L273.29,18.5L275.87,18.89L276.52,17.97L277.82,17.84L278.46,17.97L279.76,16L280.4,16.66L281.05,16.39L281.69,171.81L284.92,171.4L285.57,172.08L287.51,170.99L288.16,170.99L289.45,169.76L290.09,169.76L292.03,169.08L292.68,169.08L297.21,168.67L297.85,168.67L302.37,168.39L303.02,168.39L305.6,167.44L306.25,167.71L310.13,166.89L310.77,166.75L312.06,165.8L312.71,165.12L315.94,164.02L316.59,162.66L319.2,162.38L319.84,163.61L321.14,161.7L321.78,161.57L322.43,160.88L323.08,158.43L323.72,156.51L324.37,156.79L325.02,156.1L325.66,154.33L326.31,154.88L327.6,154.47L328.25,154.33L330.18,152.69L330.83,153.65L332.77,150.92L333.42,151.87L335.36,149.14L336,149.14L336.65,148.32L337.29,149.41L338.59,150.37L339.23,149.41L339.88,149.55L340.53,148.73L343.11,145.18L343.76,144.5L345.69,143.54L346.34,145.04L350.22,141.9L350.87,143.68L352.16,121.97L352.81,121.56L354.1,120.88L354.75,116.1L355.39,116.24L356.04,112.28L356.68,112.55L357.33,109.96L357.98,106.95L358.62,107.91L360.56,101.22L361.21,98.08L362.5,97.53L363.15,95.35L363.79,94.8L364.44,92.07L365.73,89.34L366.38,89.34L368.32,85.65L368.97,84.7L374.14,75L374.78,88.44L378.02,84.03L378.66,84.45L379.31,84.31L379.95,85.14L381.25,84.72L381.89,85.41L383.18,84.59L383.83,84.45L385.12,84.03L385.77,84.03L387.06,84.17L387.71,83.62L392.23,84.03L392.88,83.62L396.76,83.21L397.4,83.48L399.98,83.48L400.63,83.35L402.57,83.35L403.22,83.21L405.16,83.9L405.8,83.21L406.45,82.66L407.09,81.01L409.68,79.49L410.33,78.53L411.62,78.94L412.27,78.53L412.91,76.87L413.56,77.29L414.2,77.15L414.85,75.63L418.08,72.47L418.73,72.88L420.67,69.44L421.31,69.02L423.25,66.41L423.9,66.41L425.19,63.79L425.83,63.79L427.13,61.86L427.78,59.66L430.36,54.43L431.01,54.01L431.65,53.6L432.3,51.4L434.89,49.47L435.53,47.82L439.41,46.85L440.06,45.75L440.7,46.16L441.35,45.48L442,45.89L447.17,41.21L450.4,38.59L451.04,39.28L453.63,35.97L454.28,35.84L454.92,34.46L455.57,35.01L456.86,33.91L457.51,34.18L458.15,35.28L458.8,34.32L461.39,32.94L462.03,33.91L464.62,33.22L465.26,32.12L467.2,29.78L467.85,81.26L469.14,81.68L469.79,80.56L470.43,79.86L471.08,80.42L473.02,80.42L473.66,81.4L475.6,81.12L476.25,81.12L479.48,81.4L480.13,81.12L482.71,79.86L483.36,80.28L489.82,79.58L490.47,79.58L497.58,79.3L498.22,79.16L501.45,78.74L502.1,78.31L503.39,77.75L504.04,76.77L505.33,76.35L505.98,74.95L506.62,73.55L507.27,74.95L509.85,73.97L510.5,73.97L511.8,71.86L512.44,71.58L514.38,68.64L515.03,68.5L515.67,68.22L516.32,68.78L518.9,66.53L519.55,66.67L520.84,65.13L521.49,64.43L524.08,63.45L524.72,63.87L525.37,63.31L526.01,64.01L527.31,60.5L527.95,60.78L528.6,60.78L530.54,60.22L531.19,58.96L534.42,56.43L535.06,56.71L537,55.87" style="vector-effect: non-scaling-stroke; fill: none; stroke: rgb(99, 110, 250); stroke-opacity: 1; stroke-width: 2px; opacity: 1;"/></g><g class="points"/><g class="text"/></g></g></g><g class="overplot"/><path class="xlines-above crisp" d="M0,0" style="fill: none;"/><path class="ylines-above crisp" d="M0,0" style="fill: none;"/><g class="overlines-above"/><g class="xaxislayer-above"><g class="xtick"><text text-anchor="middle" x="0" y="433" transform="translate(82.42,0)" style="font-family: 'Open Sans', verdana, arial, sans-serif; font-size: 12px; fill: rgb(42, 63, 95); fill-opacity: 1; white-space: pre;"><tspan class="line" dy="0em" x="0" y="433">Aug 3</tspan><tspan class="line" dy="1.3em" x="0" y="433">2021</tspan></text></g><g class="xtick"><text text-anchor="middle" x="0" y="433" transform="translate(175.48000000000002,0)" style="font-family: 'Open Sans', verdana, arial, sans-serif; font-size: 12px; fill: rgb(42, 63, 95); fill-opacity: 1; white-space: pre;">Aug 4</text></g><g class="xtick"><text text-anchor="middle" x="0" y="433" transform="translate(268.55,0)" style="font-family: 'Open Sans', verdana, arial, sans-serif; font-size: 12px; fill: rgb(42, 63, 95); fill-opacity: 1; white-space: pre;">Aug 5</text></g><g class="xtick"><text text-anchor="middle" x="0" y="433" transform="translate(361.61,0)" style="font-family: 'Open Sans', verdana, arial, sans-serif; font-size: 12px; fill: rgb(42, 63, 95); fill-opacity: 1; white-space: pre;">Aug 6</text></g><g class="xtick"><text text-anchor="middle" x="0" y="433" transform="translate(454.68,0)" style="font-family: 'Open Sans', verdana, arial, sans-serif; font-size: 12px; fill: rgb(42, 63, 95); fill-opacity: 1; white-space: pre;">Aug 7</text></g><g class="xtick"><text text-anchor="middle" x="0" y="433" transform="translate(547.75,0)" style="font-family: 'Open Sans', verdana, arial, sans-serif; font-size: 12px; fill: rgb(42, 63, 95); fill-opacity: 1; white-space: pre;">Aug 8</text></g></g><g class="yaxislayer-above"><g class="ytick"><text text-anchor="end" x="79" y="4.199999999999999" transform="translate(0,392.55)" style="font-family: 'Open Sans', verdana, arial, sans-serif; font-size: 12px; fill: rgb(42, 63, 95); fill-opacity: 1; white-space: pre;">0.864</text></g><g class="ytick"><text text-anchor="end" x="79" y="4.199999999999999" transform="translate(0,349.77)" style="font-family: 'Open Sans', verdana, arial, sans-serif; font-size: 12px; fill: rgb(42, 63, 95); fill-opacity: 1; white-space: pre;">0.865</text></g><g class="ytick"><text text-anchor="end" x="79" y="4.199999999999999" transform="translate(0,306.99)" style="font-family: 'Open Sans', verdana, arial, sans-serif; font-size: 12px; fill: rgb(42, 63, 95); fill-opacity: 1; white-space: pre;">0.866</text></g><g class="ytick"><text text-anchor="end" x="79" y="4.199999999999999" transform="translate(0,264.21000000000004)" style="font-family: 'Open Sans', verdana, arial, sans-serif; font-size: 12px; fill: rgb(42, 63, 95); fill-opacity: 1; white-space: pre;">0.867</text></g><g class="ytick"><text text-anchor="end" x="79" y="4.199999999999999" transform="translate(0,221.43)" style="font-family: 'Open Sans', verdana, arial, sans-serif; font-size: 12px; fill: rgb(42, 63, 95); fill-opacity: 1; white-space: pre;">0.868</text></g><g class="ytick"><text text-anchor="end" x="79" y="4.199999999999999" transform="translate(0,178.65)" style="font-family: 'Open Sans', verdana, arial, sans-serif; font-size: 12px; fill: rgb(42, 63, 95); fill-opacity: 1; white-space: pre;">0.869</text></g><g class="ytick"><text text-anchor="end" x="79" y="4.199999999999999" transform="translate(0,135.87)" style="font-family: 'Open Sans', verdana, arial, sans-serif; font-size: 12px; fill: rgb(42, 63, 95); fill-opacity: 1; white-space: pre;">0.87</text></g></g><g class="overaxes-above"/></g></g><g class="polarlayer"/><g class="ternarylayer"/><g class="geolayer"/><g class="funnelarealayer"/><g class="pielayer"/><g class="treemaplayer"/><g class="sunburstlayer"/><g class="glimages"/><defs id="topdefs-85012d"><g class="clips"/><clipPath id="legend85012d"><rect width="60" height="45" x="0" y="0"/></clipPath></defs><g class="layer-above"><g class="imagelayer"/><g class="shapelayer"/></g><g class="infolayer"><g class="legend" pointer-events="all" transform="translate(627.74,100)"><rect class="bg" shape-rendering="crispEdges" width="60" height="45" x="0" y="0" style="stroke: rgb(68, 68, 68); stroke-opacity: 1; fill: rgb(255, 255, 255); fill-opacity: 1; stroke-width: 0px;"/><g class="scrollbox" transform="" clip-path="url('#legend85012d')"><text class="legendtitletext" text-anchor="start" x="2" y="15.600000000000001" style="font-family: 'Open Sans', verdana, arial, sans-serif; font-size: 12px; fill: rgb(42, 63, 95); fill-opacity: 1; white-space: pre;">All</text><g class="groups" transform=""><g class="traces" transform="translate(0,30.1)" style="opacity: 1;"><text class="legendtext" text-anchor="start" x="40" y="4.680000000000001" style="font-family: 'Open Sans', verdana, arial, sans-serif; font-size: 12px; fill: rgb(42, 63, 95); fill-opacity: 1; white-space: pre;">All</text><g class="layers" style="opacity: 1;"><g class="legendfill"/><g class="legendlines"><path class="js-line" d="M5,0h30" style="fill: none; stroke: rgb(99, 110, 250); stroke-opacity: 1; stroke-width: 2px;"/></g><g class="legendsymbols"><g class="legendpoints"/></g></g><rect class="legendtoggle" x="0" y="-9.5" width="54.890625" height="19" style="fill: rgb(0, 0, 0); fill-opacity: 0;"/></g></g></g><rect class="scrollbar" rx="20" ry="3" width="0" height="0" x="0" y="0" style="fill: rgb(128, 139, 164); fill-opacity: 1;"/></g><g class="g-gtitle"><text class="gtitle" x="35" y="50" text-anchor="start" dy="0em" style="font-family: 'Open Sans', verdana, arial, sans-serif; font-size: 17px; fill: rgb(42, 63, 95); opacity: 1; font-weight: normal; white-space: pre;">Singapore Vaccination Centers</text></g><g class="g-xtitle"><text class="xtitle" x="348.5" y="476.409375" text-anchor="middle" style="font-family: 'Open Sans', verdana, arial, sans-serif; font-size: 14px; fill: rgb(42, 63, 95); opacity: 1; font-weight: normal; white-space: pre;">Time</text></g><g class="g-ytitle"><text class="ytitle" transform="rotate(-90,19.840625000000003,260)" x="19.840625000000003" y="260" text-anchor="middle" style="font-family: 'Open Sans', verdana, arial, sans-serif; font-size: 14px; fill: rgb(42, 63, 95); opacity: 1; font-weight: normal; white-space: pre;">Filled/%</text></g></g></svg>