<svg class="main-svg" xmlns="http://www.w3.org/2000/svg" xmlns:xlink="http://www.w3.org/1999/xlink" width="700" height="500" style="" viewBox="0 0 700 500"><rect x="0" y="0" width="700" height="500" style="fill: rgb(255, 255, 255); fill-opacity: 1;"/><defs id="defs-72e888"><g class="clips"><clipPath id="clip72e888xyplot" class="plotclip"><rect width="537" height="320"/></clipPath><clipPath class="axesclip" id="clip72e888x"><rect x="80" y="0" width="537" height="500"/></clipPath><clipPath class="axesclip" id="clip72e888y"><rect x="0" y="100" width="700" height="320"/></clipPath><clipPath class="axesclip" id="clip72e888xy"><rect x="80" y="100" width="537" height="320"/></clipPath></g><g class="gradients"/></defs><g class="bglayer"><rect class="bg" x="80" y="100" width="537" height="320" style="fill: rgb(229, 236, 246); fill-opacity: 1; stroke-width: 0;"/></g><g class="layer-below"><g class="imagelayer"/><g class="shapelayer"/></g><g class="cartesianlayer"><g class="subplot xy"><g class="layer-subplot"><g class="shapelayer"/><g class="imagelayer"/></g><g class="gridlayer"><g class="x"><path class="xgrid crisp" transform="translate(91.14,0)" d="M0,100v320" style="stroke: rgb(255, 255, 255); stroke-opacity: 1; stroke-width: 1px;"/><path class="xgrid crisp" transform="translate(211.14,0)" d="M0,100v320" style="stroke: rgb(255, 255, 255); stroke-opacity: 1; stroke-width: 1px;"/><path class="xgrid crisp" transform="translate(331.13,0)" d="M0,100v320" style="stroke: rgb(255, 255, 255); stroke-opacity: 1; stroke-width: 1px;"/><path class="xgrid crisp" transform="translate(451.12,0)" d="M0,100v320" style="stroke: rgb(255, 255, 255); stroke-opacity: 1; stroke-width: 1px;"/><path class="xgrid crisp" transform="translate(571.12,0)" d="M0,100v320" style="stroke: rgb(255, 255, 255); stroke-opacity: 1; stroke-width: 1px;"/></g><g class="y"><path class="ygrid crisp" transform="translate(0,367.23)" d="M80,0h537" style="stroke: rgb(255, 255, 255); stroke-opacity: 1; stroke-width: 1px;"/><path class="ygrid crisp" transform="translate(0,308.43)" d="M80,0h537" style="stroke: rgb(255, 255, 255); stroke-opacity: 1; stroke-width: 1px;"/><path class="ygrid crisp" transform="translate(0,249.63)" d="M80,0h537" style="stroke: rgb(255, 255, 255); stroke-opacity: 1; stroke-width: 1px;"/><path class="ygrid crisp" transform="translate(0,190.82999999999998)" d="M80,0h537" style="stroke: rgb(255, 255, 255); stroke-opacity: 1; stroke-width: 1px;"/><path class="ygrid crisp" transform="translate(0,132.03)" d="M80,0h537" style="stroke: rgb(255, 255, 255); stroke-opacity: 1; stroke-width: 1px;"/></g></g><g class="zerolinelayer"/><path class="xlines-below"/><path class="ylines-below"/><g class="overlines-below"/><g class="xaxislayer-below"/><g class="yaxislayer-below"/><g class="overaxes-below"/><g class="plot" transform="translate(80,100)" clip-path="url('#clip72e888xyplot')"><g class="scatterlayer mlayer"><g class="trace scatter trace54c739" style="stroke-miterlimit: 2; opacity: 1;"><g class="fills"/><g class="errorbars"/><g class="lines"><path class="js-line" d="M0,82.28L7.04,82.51L9.53,120.48L14.5,120.57L16.35,136.92L17.13,136.9L35.53,137.96L36.68,121.23L37.02,129.62L37.86,129.56L39.52,126.37L40.36,126.27L42.02,129.79L42.86,129.7L44.52,132.71L45.36,132.63L47.02,120.69L47.86,120.62L49.52,132.64L50.36,132.55L52.02,126.68L52.86,123.32L54.53,113.21L55.36,109.51L57.02,94.58L57.86,92.89L59.52,74.17L60.36,72.87L62.02,78.78L62.86,77.73L64.52,63.68L65.35,62.82L67.02,65.47L67.85,64.83L69.52,74.27L70.36,73.83L71.46,51.83L72.02,52.53L72.85,52.34L81.19,51.79L82.02,51.79L94.52,50.91L95.35,50.65L124.52,42.03L125.35,41.83L130.35,40.95L131.19,41.79L145.35,41.47L146.18,41.46L158.68,40.8L159.52,40.69L190.35,36.83L191.18,35.53L223.68,34L224.51,33.87L250.35,31.05L251.18,28.56L279.51,27.81L280.35,95.38L289.54,93.57L290.35,93.44L291.18,93.12L292.01,91.51L294.51,88.51L295.35,87.52L299.51,73.59L300.34,72.39L305.35,67.88L306.18,67.37L310.35,65.43L311.18,65.5L317.01,64.8L317.85,64.77L336.18,63.66L337.01,63.48L342.84,61.32L343.68,60.89L344.51,60.46L345.34,62.78L348.68,61.15L349.51,59.94L353.68,54.01L354.51,53.24L357.84,49.13L358.68,47.98L362.01,39.84L362.84,38.66L367.84,33.5L368.68,32.89L372.01,31.98L372.84,31.8L379.51,31.18L380.34,31.16L392.84,30.17L393.67,29.9L398.67,28.09L399.51,74.81L401.18,73.22L402.01,72.76L410.34,69.16L411.18,68.8L411.81,71.93L412.01,68.39L412.8,68.25L412.84,69.25L413.64,67.95L413.68,68.94L414.51,68.62L416.18,68.09L417.01,76.43L424.3,73.91L424.34,72.31L424.38,72.03L424.51,73.74L432.42,44.74L432.84,44.87L433.26,41.95L434.09,42.12L434.51,43.2L435.76,37.43L436.18,41.6L437.42,39.66L437.84,39.05L439.09,38.13L439.51,38.96L439.93,38.26L440.34,38.53L440.76,38.42L442.01,38.4L442.42,43.02L447.01,41.69L447.42,36.5L448.26,35.76L448.67,35.39L449.92,33.79L450.34,33.41L453.67,22.43L454.09,16L454.5,16.8L454.92,140.18L455.34,139.22L455.76,142.07L456.59,136.79L457.01,138.99L457.84,136.15L458.26,136.63L458.67,141.25L459.09,146.68L459.51,133.42L460.34,138.09L460.76,157.2L462,133.53L462.42,145.44L462.84,148.42L463.25,146.68L463.67,144.02L464.5,134.36L464.92,135.71L465.34,141.84L465.75,146.05L466.17,142.1L466.59,141.74L467,151.77L467.84,140.84L468.25,148.68L469.09,127.07L469.51,137.58L470.34,140.49L470.75,138.92L471.59,130.34L472,131.67L472.42,129.31L472.84,138.25L473.25,134.05L473.67,138.68L474.09,138.81L474.5,131.49L474.92,131.42L475.34,140.05L476.17,132.48L476.59,138.41L477.42,141.46L477.84,128.79L478.67,142.96L479.09,264.58L479.92,292.55L480.34,293.12L480.76,304L481.18,286.22L481.59,301.52L482,291.75L482.42,292.1L482.84,291.07L483.26,294.16L483.67,293.46L484.09,276.02L484.51,283.67L484.92,262.28L485.75,272.54L486.17,248.89L487,241.71L487.42,229.6L487.84,224.98L488.25,228.24L488.67,227.36L489.92,215.22L490.34,217.06L490.75,216.4L491.17,227.08L491.59,226.08L492,228.38L492.42,228.68L492.84,224.72L493.25,233.57L493.67,224.28L494.5,227.75L494.92,223.07L495.75,226.33L496.17,223.26L496.59,224.52L497,234.01L497.42,220.81L497.84,231.91L499.09,220.15L499.5,220.86L500.76,212.72L501.17,220.76L502.01,220.72L502.42,223.7L502.84,223.67L503.25,219.37L503.67,223.08L504.09,218.62L504.5,226.76L504.92,225.2L505.34,224.19L505.75,219.51L506.17,225.16L507.42,225.11L507.83,216.49L508.25,225.05L508.67,220.43L509.08,220.57L509.5,218.19L509.92,220.92L510.34,219.84L510.75,227.36L511.17,216.65L511.59,220.1L512,220.01L512.84,220.98L513.25,218.78L514.08,223.64L514.5,218.66L514.92,205.85L515.34,215.25L515.75,220.32L516.17,206.18L516.58,206.81L517,214.16L517.42,214.11L517.84,206.99L518.67,212.47L519.09,202.23L519.51,199.24L519.92,208.71L520.34,224.84L520.75,215.2L521.17,214.49L521.59,205.74L522,219.6L522.83,195.82L523.25,209.77L523.67,208.24L524.08,203.32L524.5,202.05L524.92,205.17L525.34,200.81L525.75,208.16L526.17,206.35L526.58,209.96L527,207.44L527.42,196.45L527.83,195.36L528.25,196.45L529.09,209.39L529.5,202.33L529.92,210.92L530.33,197.09L530.75,197.31L531.17,191.05L531.58,191.24L532,196.07L532.42,200.65L532.83,194.37L534.08,210.5L534.5,204.27L535.33,191.94L535.75,193.62L536.17,197L536.58,205.03L537,197.14" style="vector-effect: non-scaling-stroke; fill: none; stroke: rgb(99, 110, 250); stroke-opacity: 1; stroke-width: 2px; opacity: 1;"/></g><g class="points"/><g class="text"/></g></g></g><g class="overplot"/><path class="xlines-above crisp" d="M0,0" style="fill: none;"/><path class="ylines-above crisp" d="M0,0" style="fill: none;"/><g class="overlines-above"/><g class="xaxislayer-above"><g class="xtick"><text text-anchor="middle" x="0" y="433" transform="translate(91.14,0)" style="font-family: 'Open Sans', verdana, arial, sans-serif; font-size: 12px; fill: rgb(42, 63, 95); fill-opacity: 1; white-space: pre;"><tspan class="line" dy="0em" x="0" y="433">Jun 4</tspan><tspan class="line" dy="1.3em" x="0" y="433">2021</tspan></text></g><g class="xtick"><text text-anchor="middle" x="0" y="433" transform="translate(211.14,0)" style="font-family: 'Open Sans', verdana, arial, sans-serif; font-size: 12px; fill: rgb(42, 63, 95); fill-opacity: 1; white-space: pre;">Jun 6</text></g><g class="xtick"><text text-anchor="middle" x="0" y="433" transform="translate(331.13,0)" style="font-family: 'Open Sans', verdana, arial, sans-serif; font-size: 12px; fill: rgb(42, 63, 95); fill-opacity: 1; white-space: pre;">Jun 8</text></g><g class="xtick"><text text-anchor="middle" x="0" y="433" transform="translate(451.12,0)" style="font-family: 'Open Sans', verdana, arial, sans-serif; font-size: 12px; fill: rgb(42, 63, 95); fill-opacity: 1; white-space: pre;">Jun 10</text></g><g class="xtick"><text text-anchor="middle" x="0" y="433" transform="translate(571.12,0)" style="font-family: 'Open Sans', verdana, arial, sans-serif; font-size: 12px; fill: rgb(42, 63, 95); fill-opacity: 1; white-space: pre;">Jun 12</text></g></g><g class="yaxislayer-above"><g class="ytick"><text text-anchor="end" x="79" y="4.199999999999999" transform="translate(0,367.23)" style="font-family: 'Open Sans', verdana, arial, sans-serif; font-size: 12px; fill: rgb(42, 63, 95); fill-opacity: 1; white-space: pre;">0.8</text></g><g class="ytick"><text text-anchor="end" x="79" y="4.199999999999999" transform="translate(0,308.43)" style="font-family: 'Open Sans', verdana, arial, sans-serif; font-size: 12px; fill: rgb(42, 63, 95); fill-opacity: 1; white-space: pre;">0.82</text></g><g class="ytick"><text text-anchor="end" x="79" y="4.199999999999999" transform="translate(0,249.63)" style="font-family: 'Open Sans', verdana, arial, sans-serif; font-size: 12px; fill: rgb(42, 63, 95); fill-opacity: 1; white-space: pre;">0.84</text></g><g class="ytick"><text text-anchor="end" x="79" y="4.199999999999999" transform="translate(0,190.82999999999998)" style="font-family: 'Open Sans', verdana, arial, sans-serif; font-size: 12px; fill: rgb(42, 63, 95); fill-opacity: 1; white-space: pre;">0.86</text></g><g class="ytick"><text text-anchor="end" x="79" y="4.199999999999999" transform="translate(0,132.03)" style="font-family: 'Open Sans', verdana, arial, sans-serif; font-size: 12px; fill: rgb(42, 63, 95); fill-opacity: 1; white-space: pre;">0.88</text></g></g><g class="overaxes-above"/></g></g><g class="polarlayer"/><g class="ternarylayer"/><g class="geolayer"/><g class="funnelarealayer"/><g class="pielayer"/><g class="treemaplayer"/><g class="sunburstlayer"/><g class="glimages"/><defs id="topdefs-72e888"><g class="clips"/><clipPath id="legend72e888"><rect width="60" height="45" x="0" y="0"/></clipPath></defs><g class="layer-above"><g class="imagelayer"/><g class="shapelayer"/></g><g class="infolayer"><g class="legend" pointer-events="all" transform="translate(627.74,100)"><rect class="bg" shape-rendering="crispEdges" width="60" height="45" x="0" y="0" style="stroke: rgb(68, 68, 68); stroke-opacity: 1; fill: rgb(255, 255, 255); fill-opacity: 1; stroke-width: 0px;"/><g class="scrollbox" transform="" clip-path="url('#legend72e888')"><text class="legendtitletext" text-anchor="start" x="2" y="15.600000000000001" style="font-family: 'Open Sans', verdana, arial, sans-serif; font-size: 12px; fill: rgb(42, 63, 95); fill-opacity: 1; white-space: pre;">All</text><g class="groups" transform=""><g class="traces" transform="translate(0,30.1)" style="opacity: 1;"><text class="legendtext" text-anchor="start" x="40" y="4.680000000000001" style="font-family: 'Open Sans', verdana, arial, sans-serif; font-size: 12px; fill: rgb(42, 63, 95); fill-opacity: 1; white-space: pre;">All</text><g class="layers" style="opacity: 1;"><g class="legendfill"/><g class="legendlines"><path class="js-line" d="M5,0h30" style="fill: none; stroke: rgb(99, 110, 250); stroke-opacity: 1; stroke-width: 2px;"/></g><g class="legendsymbols"><g class="legendpoints"/></g></g><rect class="legendtoggle" x="0" y="-9.5" width="54.890625" height="19" style="fill: rgb(0, 0, 0); fill-opacity: 0;"/></g></g></g><rect class="scrollbar" rx="20" ry="3" width="0" height="0" x="0" y="0" style="fill: rgb(128, 139, 164); fill-opacity: 1;"/></g><g class="g-gtitle"><text class="gtitle" x="35" y="50" text-anchor="start" dy="0em" style="font-family: 'Open Sans', verdana, arial, sans-serif; font-size: 17px; fill: rgb(42, 63, 95); opacity: 1; font-weight: normal; white-space: pre;">Singapore Vaccination Centers</text></g><g class="g-xtitle"><text class="xtitle" x="348.5" y="476.409375" text-anchor="middle" style="font-family: 'Open Sans', verdana, arial, sans-serif; font-size: 14px; fill: rgb(42, 63, 95); opacity: 1; font-weight: normal; white-space: pre;">Time</text></g><g class="g-ytitle"><text class="ytitle" transform="rotate(-90,27.481250000000003,260)" x="27.481250000000003" y="260" text-anchor="middle" style="font-family: 'Open Sans', verdana, arial, sans-serif; font-size: 14px; fill: rgb(42, 63, 95); opacity: 1; font-weight: normal; white-space: pre;">Filled/%</text></g></g></svg>