<svg class="main-svg" xmlns="http://www.w3.org/2000/svg" xmlns:xlink="http://www.w3.org/1999/xlink" width="700" height="500" style="" viewBox="0 0 700 500"><rect x="0" y="0" width="700" height="500" style="fill: rgb(255, 255, 255); fill-opacity: 1;"/><defs id="defs-fa2fd4"><g class="clips"><clipPath id="clipfa2fd4xyplot" class="plotclip"><rect width="537" height="320"/></clipPath><clipPath class="axesclip" id="clipfa2fd4x"><rect x="80" y="0" width="537" height="500"/></clipPath><clipPath class="axesclip" id="clipfa2fd4y"><rect x="0" y="100" width="700" height="320"/></clipPath><clipPath class="axesclip" id="clipfa2fd4xy"><rect x="80" y="100" width="537" height="320"/></clipPath></g><g class="gradients"/></defs><g class="bglayer"><rect class="bg" x="80" y="100" width="537" height="320" style="fill: rgb(229, 236, 246); fill-opacity: 1; stroke-width: 0;"/></g><g class="layer-below"><g class="imagelayer"/><g class="shapelayer"/></g><g class="cartesianlayer"><g class="subplot xy"><g class="layer-subplot"><g class="shapelayer"/><g class="imagelayer"/></g><g class="gridlayer"><g class="x"><path class="xgrid crisp" transform="translate(89.91,0)" d="M0,100v320" style="stroke: rgb(255, 255, 255); stroke-opacity: 1; stroke-width: 1px;"/><path class="xgrid crisp" transform="translate(196.65,0)" d="M0,100v320" style="stroke: rgb(255, 255, 255); stroke-opacity: 1; stroke-width: 1px;"/><path class="xgrid crisp" transform="translate(303.4,0)" d="M0,100v320" style="stroke: rgb(255, 255, 255); stroke-opacity: 1; stroke-width: 1px;"/><path class="xgrid crisp" transform="translate(410.14,0)" d="M0,100v320" style="stroke: rgb(255, 255, 255); stroke-opacity: 1; stroke-width: 1px;"/><path class="xgrid crisp" transform="translate(516.88,0)" d="M0,100v320" style="stroke: rgb(255, 255, 255); stroke-opacity: 1; stroke-width: 1px;"/></g><g class="y"><path class="ygrid crisp" transform="translate(0,367.23)" d="M80,0h537" style="stroke: rgb(255, 255, 255); stroke-opacity: 1; stroke-width: 1px;"/><path class="ygrid crisp" transform="translate(0,308.43)" d="M80,0h537" style="stroke: rgb(255, 255, 255); stroke-opacity: 1; stroke-width: 1px;"/><path class="ygrid crisp" transform="translate(0,249.63)" d="M80,0h537" style="stroke: rgb(255, 255, 255); stroke-opacity: 1; stroke-width: 1px;"/><path class="ygrid crisp" transform="translate(0,190.82999999999998)" d="M80,0h537" style="stroke: rgb(255, 255, 255); stroke-opacity: 1; stroke-width: 1px;"/><path class="ygrid crisp" transform="translate(0,132.03)" d="M80,0h537" style="stroke: rgb(255, 255, 255); stroke-opacity: 1; stroke-width: 1px;"/></g></g><g class="zerolinelayer"/><path class="xlines-below"/><path class="ylines-below"/><g class="overlines-below"/><g class="xaxislayer-below"/><g class="yaxislayer-below"/><g class="overaxes-below"/><g class="plot" transform="translate(80,100)" clip-path="url('#clipfa2fd4xyplot')"><g class="scatterlayer mlayer"><g class="trace scatter trace285dfe" style="stroke-miterlimit: 2; opacity: 1;"><g class="fills"/><g class="errorbars"/><g class="lines"><path class="js-line" d="M0,82.28L6.26,82.51L8.48,120.48L12.9,120.57L14.54,136.92L15.24,136.9L31.61,137.96L32.63,121.23L32.94,129.62L33.68,129.56L35.16,126.37L35.9,126.27L37.38,129.79L38.13,129.7L39.61,132.71L40.35,132.63L41.83,120.69L42.57,120.62L44.05,132.64L44.8,132.55L46.28,126.68L48.5,113.21L49.24,109.51L52.95,74.17L53.69,72.87L55.17,78.78L55.91,77.73L58.14,62.82L59.62,65.47L60.36,64.83L61.84,74.27L62.59,73.83L63.56,51.83L64.81,52.34L65.55,52.21L73.71,51.78L74.45,51.77L83.34,51.11L84.08,50.91L108.54,42.67L109.29,42.44L115.96,40.95L116.7,41.79L130.04,41.46L130.78,41.46L142.64,40.58L143.38,40.48L166.36,37.17L167.1,37.08L169.33,36.83L170.07,35.53L198.98,34L199.72,33.87L222.7,31.05L223.45,28.56L248.65,27.81L249.39,95.38L257.57,93.57L258.29,93.44L259.03,93.12L259.77,91.51L261.99,88.51L262.73,87.52L266.44,73.59L267.18,72.39L271.63,67.88L272.37,67.37L276.07,65.43L276.82,65.5L282,64.8L282.75,64.77L299.05,63.66L299.79,63.48L304.98,61.32L305.72,60.89L306.47,60.46L307.21,62.78L310.17,61.15L310.91,59.94L315.36,53.24L316.1,52.44L319.07,47.98L319.81,45.51L322.77,38.66L323.51,37.65L327.96,32.89L328.73,32.47L330.93,31.98L331.67,31.8L337.6,31.18L338.34,31.16L349.46,30.17L350.2,29.9L354.65,28.09L355.39,74.81L357.61,72.76L358.36,72.32L365.03,69.16L365.77,68.8L366.34,71.93L366.51,68.39L367.22,68.25L367.25,69.25L367.96,67.95L367.99,68.94L368.73,68.62L370.22,68.09L370.96,76.43L377.45,73.91L377.48,72.31L377.51,72.03L377.63,73.74L384.67,44.74L385.04,44.87L385.41,41.95L386.15,42.12L386.52,43.2L387.63,37.43L388.01,41.6L389.12,39.66L389.49,39.05L390.6,38.13L390.97,38.96L392.08,38.42L392.46,38.33L393.2,38.4L393.57,43.02L397.64,41.69L398.01,36.5L398.75,35.76L399.12,35.39L400.23,33.79L400.61,33.41L403.57,22.43L403.94,16L404.31,16.8L404.68,140.18L405.05,139.22L405.43,142.07L406.17,136.79L406.54,138.99L406.91,137.43L407.28,136.15L407.65,136.63L408.02,141.25L408.39,146.68L408.76,133.42L409.5,138.09L409.87,157.2L410.98,133.53L411.35,145.44L411.72,148.42L412.1,146.68L412.47,144.02L413.21,134.36L413.58,135.71L413.95,141.84L414.32,146.05L414.69,142.1L415.06,141.74L415.43,151.77L415.8,141.68L416.17,140.84L416.54,148.68L416.91,138.39L417.28,127.07L417.66,137.58L418.02,139.13L418.4,140.49L418.77,138.92L420.25,129.31L420.62,138.25L420.99,134.05L421.36,138.68L421.73,138.81L422.1,131.49L422.47,131.42L422.84,140.05L423.58,132.48L423.96,138.41L424.7,141.46L425.07,128.79L425.81,142.96L426.18,264.58L427.29,293.12L427.66,304L428.04,286.22L428.41,301.52L428.78,291.75L429.15,292.1L429.52,291.07L429.89,294.16L430.26,293.46L430.63,276.02L431,283.67L431.37,262.28L432.11,272.54L432.48,248.89L433.22,241.71L433.59,229.6L433.96,224.98L434.33,228.24L434.71,227.36L435.82,215.22L436.19,217.06L436.56,216.4L436.93,227.08L437.3,226.08L437.67,228.38L438.04,228.68L438.41,224.72L438.78,233.57L439.15,224.28L439.89,227.75L440.27,223.07L441.01,226.33L441.38,223.26L441.75,224.52L442.12,234.01L442.49,220.81L442.86,231.91L443.23,224.2L445.46,212.72L445.83,220.76L446.57,220.72L446.94,223.7L447.31,223.67L447.68,219.37L448.05,223.08L448.42,218.62L448.79,226.76L449.16,225.2L449.53,224.19L449.9,219.51L450.27,225.16L451.38,225.11L451.75,216.49L452.13,225.05L452.5,220.43L452.86,220.57L453.24,218.19L453.61,220.92L453.98,219.84L454.35,227.36L454.72,216.65L455.09,220.1L455.46,220.01L456.2,220.98L456.57,218.78L457.31,223.64L457.68,218.66L458.05,205.85L458.43,215.25L458.8,220.32L459.17,206.18L459.54,206.81L459.91,214.16L460.28,214.11L460.65,206.99L461.4,212.47L461.76,202.23L462.14,199.24L462.51,208.71L462.88,224.84L463.24,215.2L463.61,214.49L463.99,205.74L464.35,219.6L465.1,195.82L465.47,209.77L465.84,208.24L466.21,203.32L466.58,202.05L466.95,205.17L467.32,200.81L467.69,208.16L468.06,206.35L468.43,209.96L468.8,207.44L469.17,196.45L469.54,195.36L469.91,196.45L470.29,201.41L471.4,210.92L471.77,197.09L472.14,197.31L472.51,191.05L472.88,191.24L473.25,196.07L473.62,200.65L473.99,194.37L475.1,210.5L475.47,204.27L476.21,191.94L476.59,193.62L476.96,197L477.33,205.03L477.7,197.14L478.07,198.57L479.55,184.28L479.92,189.51L480.66,194.59L481.03,189.23L481.4,191.91L481.77,189.81L482.15,182.31L482.52,187.7L482.89,187L483.26,183.28L483.63,186.18L484,185.69L484.38,181.61L484.75,182.61L485.11,186.54L485.85,187.68L486.22,186.58L486.59,181.49L486.96,187.81L487.71,185.81L488.08,187.22L488.45,189.17L488.82,187L489.93,194.82L490.3,189.57L490.67,183.36L491.04,189.2L491.41,186.45L492.53,187.85L492.9,183.53L494.01,187.65L494.38,184.59L495.12,184.25L495.49,185.71L496.6,187.29L496.97,197.68L497.34,197.68L497.71,195.53L498.08,195.52L498.45,190.33L498.83,190.33L499.2,186.49L500.68,194.95L501.05,194.95L501.42,195.4L501.79,193.58L502.16,193.58L502.53,187.5L503.27,187.5L503.64,190.84L504.75,186.75L505.13,187.03L505.5,187.03L505.87,188.23L508.83,181.13L509.2,187.27L509.57,190.9L509.94,187.7L510.31,181.79L510.68,180.91L511.05,182.93L511.42,184.81L511.79,179.55L512.54,190.44L512.91,182.8L513.28,183.07L513.65,174.64L514.76,185.09L515.13,181.21L515.5,181.99L515.87,185.79L516.24,171.39L516.61,177.83L516.98,175.21L517.35,180.5L517.73,179.53L518.1,177.22L519.58,187.84L519.95,182.58L520.32,175.16L520.69,180.33L521.06,178.23L521.8,176.4L522.17,185.95L522.54,175.93L522.91,196.82L524.03,173.22L524.4,177.47L524.77,180.21L525.14,180.03L525.51,179.15L526.25,179.35L526.62,181.21L527.73,177.14L528.11,176.9L528.47,176.97L528.85,172.16L529.22,169.69L529.59,173.52L529.96,176.28L530.33,172.21L530.7,173.97L531.07,171L531.81,180.19L532.18,175.33L532.55,171.32L532.92,174.66L533.29,174.4L533.66,183.64L534.04,176L534.41,180.08L534.78,179.71L535.15,181.54L535.89,173.38L536.26,176.61L536.63,186.68L537,171.47" style="vector-effect: non-scaling-stroke; fill: none; stroke: rgb(99, 110, 250); stroke-opacity: 1; stroke-width: 2px; opacity: 1;"/></g><g class="points"/><g class="text"/></g></g></g><g class="overplot"/><path class="xlines-above crisp" d="M0,0" style="fill: none;"/><path class="ylines-above crisp" d="M0,0" style="fill: none;"/><g class="overlines-above"/><g class="xaxislayer-above"><g class="xtick"><text text-anchor="middle" x="0" y="433" transform="translate(89.91,0)" style="font-family: 'Open Sans', verdana, arial, sans-serif; font-size: 12px; fill: rgb(42, 63, 95); fill-opacity: 1; white-space: pre;"><tspan class="line" dy="0em" x="0" y="433">Jun 4</tspan><tspan class="line" dy="1.3em" x="0" y="433">2021</tspan></text></g><g class="xtick"><text text-anchor="middle" x="0" y="433" transform="translate(196.65,0)" style="font-family: 'Open Sans', verdana, arial, sans-serif; font-size: 12px; fill: rgb(42, 63, 95); fill-opacity: 1; white-space: pre;">Jun 6</text></g><g class="xtick"><text text-anchor="middle" x="0" y="433" transform="translate(303.4,0)" style="font-family: 'Open Sans', verdana, arial, sans-serif; font-size: 12px; fill: rgb(42, 63, 95); fill-opacity: 1; white-space: pre;">Jun 8</text></g><g class="xtick"><text text-anchor="middle" x="0" y="433" transform="translate(410.14,0)" style="font-family: 'Open Sans', verdana, arial, sans-serif; font-size: 12px; fill: rgb(42, 63, 95); fill-opacity: 1; white-space: pre;">Jun 10</text></g><g class="xtick"><text text-anchor="middle" x="0" y="433" transform="translate(516.88,0)" style="font-family: 'Open Sans', verdana, arial, sans-serif; font-size: 12px; fill: rgb(42, 63, 95); fill-opacity: 1; white-space: pre;">Jun 12</text></g></g><g class="yaxislayer-above"><g class="ytick"><text text-anchor="end" x="79" y="4.199999999999999" transform="translate(0,367.23)" style="font-family: 'Open Sans', verdana, arial, sans-serif; font-size: 12px; fill: rgb(42, 63, 95); fill-opacity: 1; white-space: pre;">0.8</text></g><g class="ytick"><text text-anchor="end" x="79" y="4.199999999999999" transform="translate(0,308.43)" style="font-family: 'Open Sans', verdana, arial, sans-serif; font-size: 12px; fill: rgb(42, 63, 95); fill-opacity: 1; white-space: pre;">0.82</text></g><g class="ytick"><text text-anchor="end" x="79" y="4.199999999999999" transform="translate(0,249.63)" style="font-family: 'Open Sans', verdana, arial, sans-serif; font-size: 12px; fill: rgb(42, 63, 95); fill-opacity: 1; white-space: pre;">0.84</text></g><g class="ytick"><text text-anchor="end" x="79" y="4.199999999999999" transform="translate(0,190.82999999999998)" style="font-family: 'Open Sans', verdana, arial, sans-serif; font-size: 12px; fill: rgb(42, 63, 95); fill-opacity: 1; white-space: pre;">0.86</text></g><g class="ytick"><text text-anchor="end" x="79" y="4.199999999999999" transform="translate(0,132.03)" style="font-family: 'Open Sans', verdana, arial, sans-serif; font-size: 12px; fill: rgb(42, 63, 95); fill-opacity: 1; white-space: pre;">0.88</text></g></g><g class="overaxes-above"/></g></g><g class="polarlayer"/><g class="ternarylayer"/><g class="geolayer"/><g class="funnelarealayer"/><g class="pielayer"/><g class="treemaplayer"/><g class="sunburstlayer"/><g class="glimages"/><defs id="topdefs-fa2fd4"><g class="clips"/><clipPath id="legendfa2fd4"><rect width="60" height="45" x="0" y="0"/></clipPath></defs><g class="layer-above"><g class="imagelayer"/><g class="shapelayer"/></g><g class="infolayer"><g class="legend" pointer-events="all" transform="translate(627.74,100)"><rect class="bg" shape-rendering="crispEdges" width="60" height="45" x="0" y="0" style="stroke: rgb(68, 68, 68); stroke-opacity: 1; fill: rgb(255, 255, 255); fill-opacity: 1; stroke-width: 0px;"/><g class="scrollbox" transform="" clip-path="url('#legendfa2fd4')"><text class="legendtitletext" text-anchor="start" x="2" y="15.600000000000001" style="font-family: 'Open Sans', verdana, arial, sans-serif; font-size: 12px; fill: rgb(42, 63, 95); fill-opacity: 1; white-space: pre;">All</text><g class="groups" transform=""><g class="traces" transform="translate(0,30.1)" style="opacity: 1;"><text class="legendtext" text-anchor="start" x="40" y="4.680000000000001" style="font-family: 'Open Sans', verdana, arial, sans-serif; font-size: 12px; fill: rgb(42, 63, 95); fill-opacity: 1; white-space: pre;">All</text><g class="layers" style="opacity: 1;"><g class="legendfill"/><g class="legendlines"><path class="js-line" d="M5,0h30" style="fill: none; stroke: rgb(99, 110, 250); stroke-opacity: 1; stroke-width: 2px;"/></g><g class="legendsymbols"><g class="legendpoints"/></g></g><rect class="legendtoggle" x="0" y="-9.5" width="54.890625" height="19" style="fill: rgb(0, 0, 0); fill-opacity: 0;"/></g></g></g><rect class="scrollbar" rx="20" ry="3" width="0" height="0" x="0" y="0" style="fill: rgb(128, 139, 164); fill-opacity: 1;"/></g><g class="g-gtitle"><text class="gtitle" x="35" y="50" text-anchor="start" dy="0em" style="font-family: 'Open Sans', verdana, arial, sans-serif; font-size: 17px; fill: rgb(42, 63, 95); opacity: 1; font-weight: normal; white-space: pre;">Singapore Vaccination Centers</text></g><g class="g-xtitle"><text class="xtitle" x="348.5" y="476.409375" text-anchor="middle" style="font-family: 'Open Sans', verdana, arial, sans-serif; font-size: 14px; fill: rgb(42, 63, 95); opacity: 1; font-weight: normal; white-space: pre;">Time</text></g><g class="g-ytitle"><text class="ytitle" transform="rotate(-90,27.481250000000003,260)" x="27.481250000000003" y="260" text-anchor="middle" style="font-family: 'Open Sans', verdana, arial, sans-serif; font-size: 14px; fill: rgb(42, 63, 95); opacity: 1; font-weight: normal; white-space: pre;">Filled/%</text></g></g></svg>