<svg class="main-svg" xmlns="http://www.w3.org/2000/svg" xmlns:xlink="http://www.w3.org/1999/xlink" width="700" height="500" style="" viewBox="0 0 700 500"><rect x="0" y="0" width="700" height="500" style="fill: rgb(255, 255, 255); fill-opacity: 1;"/><defs id="defs-347d03"><g class="clips"><clipPath id="clip347d03xyplot" class="plotclip"><rect width="537" height="320"/></clipPath><clipPath class="axesclip" id="clip347d03x"><rect x="80" y="0" width="537" height="500"/></clipPath><clipPath class="axesclip" id="clip347d03y"><rect x="0" y="100" width="700" height="320"/></clipPath><clipPath class="axesclip" id="clip347d03xy"><rect x="80" y="100" width="537" height="320"/></clipPath></g><g class="gradients"/></defs><g class="bglayer"><rect class="bg" x="80" y="100" width="537" height="320" style="fill: rgb(229, 236, 246); fill-opacity: 1; stroke-width: 0;"/></g><g class="layer-below"><g class="imagelayer"/><g class="shapelayer"/></g><g class="cartesianlayer"><g class="subplot xy"><g class="layer-subplot"><g class="shapelayer"/><g class="imagelayer"/></g><g class="gridlayer"><g class="x"><path class="xgrid crisp" transform="translate(83.05,0)" d="M0,100v320" style="stroke: rgb(255, 255, 255); stroke-opacity: 1; stroke-width: 1px;"/><path class="xgrid crisp" transform="translate(200.41,0)" d="M0,100v320" style="stroke: rgb(255, 255, 255); stroke-opacity: 1; stroke-width: 1px;"/><path class="xgrid crisp" transform="translate(317.77,0)" d="M0,100v320" style="stroke: rgb(255, 255, 255); stroke-opacity: 1; stroke-width: 1px;"/><path class="xgrid crisp" transform="translate(435.13,0)" d="M0,100v320" style="stroke: rgb(255, 255, 255); stroke-opacity: 1; stroke-width: 1px;"/><path class="xgrid crisp" transform="translate(552.49,0)" d="M0,100v320" style="stroke: rgb(255, 255, 255); stroke-opacity: 1; stroke-width: 1px;"/></g><g class="y"><path class="ygrid crisp" transform="translate(0,392.55)" d="M80,0h537" style="stroke: rgb(255, 255, 255); stroke-opacity: 1; stroke-width: 1px;"/><path class="ygrid crisp" transform="translate(0,349.77)" d="M80,0h537" style="stroke: rgb(255, 255, 255); stroke-opacity: 1; stroke-width: 1px;"/><path class="ygrid crisp" transform="translate(0,306.99)" d="M80,0h537" style="stroke: rgb(255, 255, 255); stroke-opacity: 1; stroke-width: 1px;"/><path class="ygrid crisp" transform="translate(0,264.21000000000004)" d="M80,0h537" style="stroke: rgb(255, 255, 255); stroke-opacity: 1; stroke-width: 1px;"/><path class="ygrid crisp" transform="translate(0,221.43)" d="M80,0h537" style="stroke: rgb(255, 255, 255); stroke-opacity: 1; stroke-width: 1px;"/><path class="ygrid crisp" transform="translate(0,178.65)" d="M80,0h537" style="stroke: rgb(255, 255, 255); stroke-opacity: 1; stroke-width: 1px;"/><path class="ygrid crisp" transform="translate(0,135.87)" d="M80,0h537" style="stroke: rgb(255, 255, 255); stroke-opacity: 1; stroke-width: 1px;"/></g></g><g class="zerolinelayer"/><path class="xlines-below"/><path class="ylines-below"/><g class="overlines-below"/><g class="xaxislayer-below"/><g class="yaxislayer-below"/><g class="overaxes-below"/><g class="plot" transform="translate(80,100)" clip-path="url('#clip347d03xyplot')"><g class="scatterlayer mlayer"><g class="trace scatter trace342950" style="stroke-miterlimit: 2; opacity: 1;"><g class="fills"/><g class="errorbars"/><g class="lines"><path class="js-line" d="M0,304L2.35,302.59L3.17,249.74L3.98,251.04L4.8,249.35L8.05,248.71L8.87,248.32L10.5,249.1L11.32,248.19L12.95,248.58L13.76,248.19L15.39,247.93L16.2,247.67L17.83,247.41L18.65,247.16L25.17,246.77L25.98,246.51L30.88,246.12L31.69,245.73L33.32,245.86L34.14,245.22L35.76,245.09L36.58,244.44L37.4,244.96L38.21,244.57L39.02,243.66L39.84,243.92L40.66,244.57L41.47,243.02L43.91,242.11L44.73,242.63L45.54,242.24L46.36,243.15L47.17,242.24L47.99,240.17L49.62,240.69L50.43,239.78L53.7,237.84L54.51,236.94L56.13,238.23L56.96,237.07L57.77,235L58.58,235.51L59.4,236.55L60.21,235L61.84,232.67L62.66,232.28L64.29,230.6L65.1,231.12L66.73,229.95L67.55,230.21L68.36,231.76L69.18,229.56L71.63,230.6L72.44,230.21L74.07,226.46L74.89,226.07L75.7,226.85L76.51,225.55L77.33,225.68L78.14,227.36L78.96,227.11L79.78,225.55L83.03,221.16L83.85,218.44L84.67,219.09L85.48,217.66L86.3,216.63L87.11,217.4L88.74,217.66L89.55,218.7L92.82,216.5L93.63,216.37L95.26,215.72L96.08,214.69L96.89,214.3L97.71,214.82L99.33,215.98L100.15,214.43L102.59,213.39L103.41,212.88L105.04,212.23L105.86,211.45L108.3,212.23L109.11,211.84L110.75,211.58L111.56,211.84L113.19,210.42L114.01,208.87L115.64,207.7L116.45,206.93L118.08,207.96L118.89,207.44L119.71,207.96L120.53,142.27L122.97,140.18L123.79,140.44L125.42,139.92L126.23,139.01L127.86,139.14L128.68,139.14L131.94,138.48L132.75,138.35L135.19,137.83L136.01,137.96L143.34,137.96L144.16,138.09L149.86,137.83L150.68,137.18L153.12,137.18L153.94,136.14L157.2,136.27L158.02,135.74L159.64,135.88L160.46,135.22L162.09,134.57L162.9,135.22L166.16,132.22L166.98,133.27L169.43,131.57L170.24,132.22L173.5,128.44L174.31,130.14L177.57,127.14L178.39,128.05L180.02,126.48L180.83,127.66L181.65,128.7L182.46,127.79L183.28,128.83L184.09,128.31L184.91,127.4L185.72,128.44L186.54,127.79L187.35,128.18L189.8,128.83L190.62,128.44L192.26,126.48L193.07,125.05L194.7,124.92L195.52,125.44L196.33,125.96L197.15,124.01L200.41,123.09L201.22,121.4L204.48,121.92L205.3,120.61L206.11,118.4L206.93,119.96L207.75,119.96L208.56,118.79L209.37,119.7L210.19,119.18L211.82,117.35L212.63,117.48L215.08,114.35L215.89,114.48L217.53,112.14L218.34,112.92L219.97,110.83L220.78,111.35L223.23,110.7L224.04,108.09L224.86,107.96L225.67,106.92L226.49,105.48L227.3,105.74L228.12,106L228.93,107.18L229.75,107.83L230.56,107.18L231.39,109.13L232.19,108.35L233.01,108.22L233.82,106.66L234.64,106.27L235.45,106.79L237.08,107.05L237.9,61.25L239.53,59.41L240.34,59.15L242.79,57.57L243.6,57.17L245.23,57.04L246.05,56.78L249.31,55.46L250.12,54.54L251.76,54.28L252.57,54.81L255.83,53.75L256.64,53.62L258.27,53.62L259.09,53.75L272.13,51.78L272.94,52.18L275.39,51.12L276.2,51.25L277.02,51.52L277.83,50.73L282.72,50.07L284.35,49.54L285.16,48.23L286.79,47.83L288.42,47.44L289.24,45.73L290.05,46.91L290.87,45.73L292.5,45.73L293.31,45.07L294.13,44.94L294.94,43.76L297.39,43.49L298.21,41.91L299.83,40.2L300.65,39.42L301.44,38.1L302.25,38.76L304.7,37.71L305.51,36L308.77,35.34L309.58,33.36L310.4,32.71L311.22,33.23L312.85,32.44L313.66,32.05L314.48,31.92L315.29,30.86L316.92,30.86L317.73,31.39L319.37,32.97L320.19,31.13L321.82,32.31L322.64,30.34L324.26,30.47L325.08,30.86L327.52,29.02L328.34,29.42L329.96,27.71L330.78,26.66L331.6,24.16L332.41,24.68L333.22,23.24L334.04,24.68L335.67,22.84L336.49,22.58L337.3,21.26L338.11,21.66L339.75,21.79L340.56,20.74L341.37,21.26L342.19,19.68L343.82,19.55L344.64,18.5L347.89,18.89L348.71,17.97L349.52,17.45L350.34,17.84L351.16,17.97L351.97,17.05L352.79,16L353.6,16.66L354.42,16.39L355.23,171.81L359.31,171.4L360.12,172.08L362.57,170.99L363.38,170.99L365.01,169.76L365.83,169.76L367.45,168.94L368.27,169.08L382.13,168.39L382.94,167.98L393.53,165.8L394.35,165.12L398.42,164.02L399.24,162.66L402.53,162.38L403.34,163.61L404.97,161.7L405.79,161.57L406.6,160.88L407.42,158.43L408.23,156.51L409.05,156.79L409.86,156.1L410.67,154.33L411.49,154.88L412.3,154.19L413.94,154.33L414.75,153.37L416.38,152.69L417.2,153.65L419.64,150.92L420.46,151.87L422.9,149.14L423.72,149.14L424.53,148.32L425.35,149.41L426.98,150.37L427.79,149.41L428.61,149.55L429.43,148.73L432.69,145.18L433.5,144.5L435.94,143.54L436.76,145.04L441.65,141.9L442.46,143.68L443.28,121.97L444.1,121.97L446.54,120.88L447.36,116.1L448.17,116.24L448.98,112.28L449.8,112.55L450.61,109.96L451.43,106.95L452.24,107.91L454.69,101.22L455.51,98.08L457.14,97.53L457.95,95.35L458.76,94.8L459.58,92.07L461.21,89.34L462.02,89.34L463.66,85.93L464.47,85.65L466.91,82.78L467.73,80.19L471.81,75L472.62,88.44L476.7,84.03L477.51,84.45L478.33,84.31L479.14,85.14L480.77,84.72L481.59,85.41L483.22,84.59L484.03,84.45L485.66,84.03L486.48,84.03L488.11,84.17L488.92,83.62L494.63,84.03L495.44,83.62L500.33,83.21L501.15,83.48L504.4,83.48L505.22,83.35L506.85,83.35L507.66,83.35L510.11,83.35L510.93,83.9L515,79.9L515.81,80.18L518.26,78.8L519.07,78.94L519.89,78.53L520.7,76.87L522.33,77.15L523.15,75.63L527.23,72.47L528.04,72.88L529.67,69.99L530.48,69.44L532.11,68.06L532.93,66.27L534.56,66.41L535.37,64.2L537,63.79" style="vector-effect: non-scaling-stroke; fill: none; stroke: rgb(99, 110, 250); stroke-opacity: 1; stroke-width: 2px; opacity: 1;"/></g><g class="points"/><g class="text"/></g></g></g><g class="overplot"/><path class="xlines-above crisp" d="M0,0" style="fill: none;"/><path class="ylines-above crisp" d="M0,0" style="fill: none;"/><g class="overlines-above"/><g class="xaxislayer-above"><g class="xtick"><text text-anchor="middle" x="0" y="433" transform="translate(83.05,0)" style="font-family: 'Open Sans', verdana, arial, sans-serif; font-size: 12px; fill: rgb(42, 63, 95); fill-opacity: 1; white-space: pre;"><tspan class="line" dy="0em" x="0" y="433">Aug 3</tspan><tspan class="line" dy="1.3em" x="0" y="433">2021</tspan></text></g><g class="xtick"><text text-anchor="middle" x="0" y="433" transform="translate(200.41,0)" style="font-family: 'Open Sans', verdana, arial, sans-serif; font-size: 12px; fill: rgb(42, 63, 95); fill-opacity: 1; white-space: pre;">Aug 4</text></g><g class="xtick"><text text-anchor="middle" x="0" y="433" transform="translate(317.77,0)" style="font-family: 'Open Sans', verdana, arial, sans-serif; font-size: 12px; fill: rgb(42, 63, 95); fill-opacity: 1; white-space: pre;">Aug 5</text></g><g class="xtick"><text text-anchor="middle" x="0" y="433" transform="translate(435.13,0)" style="font-family: 'Open Sans', verdana, arial, sans-serif; font-size: 12px; fill: rgb(42, 63, 95); fill-opacity: 1; white-space: pre;">Aug 6</text></g><g class="xtick"><text text-anchor="middle" x="0" y="433" transform="translate(552.49,0)" style="font-family: 'Open Sans', verdana, arial, sans-serif; font-size: 12px; fill: rgb(42, 63, 95); fill-opacity: 1; white-space: pre;">Aug 7</text></g></g><g class="yaxislayer-above"><g class="ytick"><text text-anchor="end" x="79" y="4.199999999999999" transform="translate(0,392.55)" style="font-family: 'Open Sans', verdana, arial, sans-serif; font-size: 12px; fill: rgb(42, 63, 95); fill-opacity: 1; white-space: pre;">0.864</text></g><g class="ytick"><text text-anchor="end" x="79" y="4.199999999999999" transform="translate(0,349.77)" style="font-family: 'Open Sans', verdana, arial, sans-serif; font-size: 12px; fill: rgb(42, 63, 95); fill-opacity: 1; white-space: pre;">0.865</text></g><g class="ytick"><text text-anchor="end" x="79" y="4.199999999999999" transform="translate(0,306.99)" style="font-family: 'Open Sans', verdana, arial, sans-serif; font-size: 12px; fill: rgb(42, 63, 95); fill-opacity: 1; white-space: pre;">0.866</text></g><g class="ytick"><text text-anchor="end" x="79" y="4.199999999999999" transform="translate(0,264.21000000000004)" style="font-family: 'Open Sans', verdana, arial, sans-serif; font-size: 12px; fill: rgb(42, 63, 95); fill-opacity: 1; white-space: pre;">0.867</text></g><g class="ytick"><text text-anchor="end" x="79" y="4.199999999999999" transform="translate(0,221.43)" style="font-family: 'Open Sans', verdana, arial, sans-serif; font-size: 12px; fill: rgb(42, 63, 95); fill-opacity: 1; white-space: pre;">0.868</text></g><g class="ytick"><text text-anchor="end" x="79" y="4.199999999999999" transform="translate(0,178.65)" style="font-family: 'Open Sans', verdana, arial, sans-serif; font-size: 12px; fill: rgb(42, 63, 95); fill-opacity: 1; white-space: pre;">0.869</text></g><g class="ytick"><text text-anchor="end" x="79" y="4.199999999999999" transform="translate(0,135.87)" style="font-family: 'Open Sans', verdana, arial, sans-serif; font-size: 12px; fill: rgb(42, 63, 95); fill-opacity: 1; white-space: pre;">0.87</text></g></g><g class="overaxes-above"/></g></g><g class="polarlayer"/><g class="ternarylayer"/><g class="geolayer"/><g class="funnelarealayer"/><g class="pielayer"/><g class="treemaplayer"/><g class="sunburstlayer"/><g class="glimages"/><defs id="topdefs-347d03"><g class="clips"/><clipPath id="legend347d03"><rect width="60" height="45" x="0" y="0"/></clipPath></defs><g class="layer-above"><g class="imagelayer"/><g class="shapelayer"/></g><g class="infolayer"><g class="legend" pointer-events="all" transform="translate(627.74,100)"><rect class="bg" shape-rendering="crispEdges" width="60" height="45" x="0" y="0" style="stroke: rgb(68, 68, 68); stroke-opacity: 1; fill: rgb(255, 255, 255); fill-opacity: 1; stroke-width: 0px;"/><g class="scrollbox" transform="" clip-path="url('#legend347d03')"><text class="legendtitletext" text-anchor="start" x="2" y="15.600000000000001" style="font-family: 'Open Sans', verdana, arial, sans-serif; font-size: 12px; fill: rgb(42, 63, 95); fill-opacity: 1; white-space: pre;">All</text><g class="groups" transform=""><g class="traces" transform="translate(0,30.1)" style="opacity: 1;"><text class="legendtext" text-anchor="start" x="40" y="4.680000000000001" style="font-family: 'Open Sans', verdana, arial, sans-serif; font-size: 12px; fill: rgb(42, 63, 95); fill-opacity: 1; white-space: pre;">All</text><g class="layers" style="opacity: 1;"><g class="legendfill"/><g class="legendlines"><path class="js-line" d="M5,0h30" style="fill: none; stroke: rgb(99, 110, 250); stroke-opacity: 1; stroke-width: 2px;"/></g><g class="legendsymbols"><g class="legendpoints"/></g></g><rect class="legendtoggle" x="0" y="-9.5" width="54.890625" height="19" style="fill: rgb(0, 0, 0); fill-opacity: 0;"/></g></g></g><rect class="scrollbar" rx="20" ry="3" width="0" height="0" x="0" y="0" style="fill: rgb(128, 139, 164); fill-opacity: 1;"/></g><g class="g-gtitle"><text class="gtitle" x="35" y="50" text-anchor="start" dy="0em" style="font-family: 'Open Sans', verdana, arial, sans-serif; font-size: 17px; fill: rgb(42, 63, 95); opacity: 1; font-weight: normal; white-space: pre;">Singapore Vaccination Centers</text></g><g class="g-xtitle"><text class="xtitle" x="348.5" y="476.409375" text-anchor="middle" style="font-family: 'Open Sans', verdana, arial, sans-serif; font-size: 14px; fill: rgb(42, 63, 95); opacity: 1; font-weight: normal; white-space: pre;">Time</text></g><g class="g-ytitle"><text class="ytitle" transform="rotate(-90,19.840625000000003,260)" x="19.840625000000003" y="260" text-anchor="middle" style="font-family: 'Open Sans', verdana, arial, sans-serif; font-size: 14px; fill: rgb(42, 63, 95); opacity: 1; font-weight: normal; white-space: pre;">Filled/%</text></g></g></svg>