<svg class="main-svg" xmlns="http://www.w3.org/2000/svg" xmlns:xlink="http://www.w3.org/1999/xlink" width="700" height="500" style="" viewBox="0 0 700 500"><rect x="0" y="0" width="700" height="500" style="fill: rgb(255, 255, 255); fill-opacity: 1;"/><defs id="defs-1bd3bc"><g class="clips"><clipPath id="clip1bd3bcxyplot" class="plotclip"><rect width="537" height="320"/></clipPath><clipPath class="axesclip" id="clip1bd3bcx"><rect x="80" y="0" width="537" height="500"/></clipPath><clipPath class="axesclip" id="clip1bd3bcy"><rect x="0" y="100" width="700" height="320"/></clipPath><clipPath class="axesclip" id="clip1bd3bcxy"><rect x="80" y="100" width="537" height="320"/></clipPath></g><g class="gradients"/></defs><g class="bglayer"><rect class="bg" x="80" y="100" width="537" height="320" style="fill: rgb(229, 236, 246); fill-opacity: 1; stroke-width: 0;"/></g><g class="layer-below"><g class="imagelayer"/><g class="shapelayer"/></g><g class="cartesianlayer"><g class="subplot xy"><g class="layer-subplot"><g class="shapelayer"/><g class="imagelayer"/></g><g class="gridlayer"><g class="x"><path class="xgrid crisp" transform="translate(83.2,0)" d="M0,100v320" style="stroke: rgb(255, 255, 255); stroke-opacity: 1; stroke-width: 1px;"/><path class="xgrid crisp" transform="translate(206.55,0)" d="M0,100v320" style="stroke: rgb(255, 255, 255); stroke-opacity: 1; stroke-width: 1px;"/><path class="xgrid crisp" transform="translate(329.9,0)" d="M0,100v320" style="stroke: rgb(255, 255, 255); stroke-opacity: 1; stroke-width: 1px;"/><path class="xgrid crisp" transform="translate(453.25,0)" d="M0,100v320" style="stroke: rgb(255, 255, 255); stroke-opacity: 1; stroke-width: 1px;"/><path class="xgrid crisp" transform="translate(576.61,0)" d="M0,100v320" style="stroke: rgb(255, 255, 255); stroke-opacity: 1; stroke-width: 1px;"/></g><g class="y"><path class="ygrid crisp" transform="translate(0,392.55)" d="M80,0h537" style="stroke: rgb(255, 255, 255); stroke-opacity: 1; stroke-width: 1px;"/><path class="ygrid crisp" transform="translate(0,349.77)" d="M80,0h537" style="stroke: rgb(255, 255, 255); stroke-opacity: 1; stroke-width: 1px;"/><path class="ygrid crisp" transform="translate(0,306.99)" d="M80,0h537" style="stroke: rgb(255, 255, 255); stroke-opacity: 1; stroke-width: 1px;"/><path class="ygrid crisp" transform="translate(0,264.21000000000004)" d="M80,0h537" style="stroke: rgb(255, 255, 255); stroke-opacity: 1; stroke-width: 1px;"/><path class="ygrid crisp" transform="translate(0,221.43)" d="M80,0h537" style="stroke: rgb(255, 255, 255); stroke-opacity: 1; stroke-width: 1px;"/><path class="ygrid crisp" transform="translate(0,178.65)" d="M80,0h537" style="stroke: rgb(255, 255, 255); stroke-opacity: 1; stroke-width: 1px;"/><path class="ygrid crisp" transform="translate(0,135.87)" d="M80,0h537" style="stroke: rgb(255, 255, 255); stroke-opacity: 1; stroke-width: 1px;"/></g></g><g class="zerolinelayer"/><path class="xlines-below"/><path class="ylines-below"/><g class="overlines-below"/><g class="xaxislayer-below"/><g class="yaxislayer-below"/><g class="overaxes-below"/><g class="plot" transform="translate(80,100)" clip-path="url('#clip1bd3bcxyplot')"><g class="scatterlayer mlayer"><g class="trace scatter tracedc7f33" style="stroke-miterlimit: 2; opacity: 1;"><g class="fills"/><g class="errorbars"/><g class="lines"><path class="js-line" d="M0,304L2.47,302.59L3.33,249.74L4.18,251.04L5.04,249.35L8.46,248.71L9.32,248.32L11.04,249.1L11.89,248.19L13.61,248.58L14.46,248.19L16.17,247.93L17.03,247.67L18.74,247.41L19.6,247.16L26.46,246.77L27.31,246.51L32.45,246.12L33.31,245.73L35.02,245.86L35.88,245.22L37.59,245.09L38.44,244.44L39.3,244.96L40.16,244.57L41.01,243.66L41.87,243.92L42.73,244.57L43.59,243.02L46.15,242.11L47.01,242.63L47.87,242.24L48.73,243.15L49.58,242.24L50.44,240.17L52.15,240.69L53.01,239.78L56.44,237.84L57.29,236.94L59,238.23L59.86,237.07L60.71,235L61.57,235.51L62.43,236.55L63.28,235L65,232.67L65.86,232.28L67.57,230.6L68.43,231.12L70.14,229.95L71,230.21L71.85,231.76L72.71,229.56L75.28,230.6L76.14,230.21L77.85,226.46L78.71,226.07L79.56,226.85L80.42,225.55L81.28,225.68L82.13,227.36L82.99,227.11L83.85,225.55L87.27,221.16L88.13,218.44L88.99,219.09L89.84,217.66L90.7,216.63L91.56,217.4L93.27,217.66L94.12,218.7L97.56,216.5L98.41,216.37L100.12,215.72L100.98,214.69L101.83,214.3L102.69,214.82L104.4,215.98L105.26,214.43L107.83,213.39L108.69,212.88L110.4,212.23L111.26,211.45L113.83,212.23L114.68,211.84L116.4,211.58L117.26,211.84L118.96,210.42L119.83,208.87L121.54,207.7L122.4,206.93L124.1,207.96L124.96,207.44L125.82,207.96L126.68,142.27L129.25,140.18L130.11,140.44L131.82,139.92L132.67,139.01L134.39,139.14L135.25,139.14L138.67,138.48L139.52,138.35L142.09,137.83L142.95,137.96L150.66,137.96L151.52,138.09L157.51,137.83L158.37,137.18L160.94,137.18L161.79,136.14L165.22,136.27L166.08,135.74L167.79,135.88L168.64,135.22L170.36,134.57L171.22,135.22L174.64,132.22L175.5,133.27L178.07,131.57L178.93,132.22L182.35,128.44L183.21,130.14L186.63,127.14L187.5,128.05L189.21,126.48L190.06,127.66L190.92,128.7L191.77,127.79L192.63,128.83L193.49,128.31L194.34,127.4L195.2,128.44L196.06,127.79L196.91,128.18L199.48,128.83L200.34,128.44L202.07,126.48L202.92,125.05L204.63,124.92L205.49,125.44L206.35,125.96L207.21,124.01L210.64,123.09L211.49,121.4L214.92,121.92L215.77,120.61L216.63,118.4L217.49,119.96L218.35,119.96L219.2,118.79L220.06,119.7L220.91,119.18L222.63,117.35L223.48,117.48L226.05,114.35L226.91,114.48L228.63,112.14L229.48,112.92L231.19,110.83L232.05,111.35L234.62,110.7L235.48,108.09L236.33,107.96L237.18,106.92L238.05,105.48L238.9,105.74L239.76,106L240.61,107.18L241.48,107.83L242.33,107.18L243.19,109.13L244.04,108.35L244.9,108.22L245.75,106.66L246.61,106.27L247.47,106.79L249.18,107.05L250.04,61.25L251.75,59.41L252.61,59.15L255.18,57.57L256.03,57.17L257.75,57.04L258.6,56.78L262.03,55.46L262.89,54.54L264.6,54.28L265.46,54.81L268.89,53.75L269.74,53.62L271.45,53.62L272.31,53.75L286.01,51.78L286.87,52.18L289.44,51.12L290.29,51.25L291.16,51.52L292,50.73L297.15,50.07L298.86,49.54L299.72,48.23L301.43,47.83L303.14,47.44L304,45.73L304.86,46.91L305.71,45.73L307.43,45.73L308.28,45.07L309.14,44.94L309.99,43.76L312.56,43.49L313.42,41.91L315.13,40.2L315.99,39.42L316.82,38.1L317.67,38.76L320.25,37.71L321.1,36L324.53,35.34L325.38,33.36L326.24,32.71L327.1,33.23L328.81,32.44L329.67,32.05L330.53,31.92L331.38,30.86L333.1,30.86L333.95,31.39L335.66,32.97L336.53,31.13L338.24,32.31L339.1,30.34L340.81,30.47L341.67,30.86L344.23,29.02L345.09,29.42L346.8,27.71L347.66,26.66L348.52,24.16L349.38,24.68L350.23,23.24L351.08,24.68L352.8,22.84L353.66,22.58L354.51,21.26L355.36,21.66L357.08,21.79L357.93,20.74L358.79,21.26L359.65,19.68L361.36,19.55L362.22,18.5L365.65,18.89L366.5,17.97L367.36,17.45L368.22,17.84L369.08,17.97L369.93,17.05L370.79,16L371.64,16.66L372.5,16.39L373.36,171.81L377.64,171.4L378.5,172.08L381.07,170.99L381.92,170.99L383.64,169.76L384.49,169.76L386.21,168.94L387.06,169.08L401.63,168.39L402.48,167.98L413.61,165.8L414.47,165.12L418.76,164.02L419.61,162.66L423.07,162.38L423.92,163.61L425.64,161.7L426.49,161.57L427.35,160.88L428.21,158.43L429.06,156.51L429.92,156.79L430.78,156.1L431.63,154.33L432.49,154.88L433.34,154.19L435.06,154.33L435.92,153.37L437.63,152.69L438.49,153.65L441.06,150.92L441.91,151.87L444.48,149.14L445.34,149.14L446.19,148.32L447.05,149.41L448.77,150.37L449.62,149.41L450.48,149.55L451.34,148.73L454.77,145.18L455.62,144.5L458.19,143.54L459.05,145.04L464.19,141.9L465.04,143.68L465.9,121.97L466.76,121.97L469.33,120.88L470.18,116.1L471.04,116.24L471.89,112.28L472.75,112.55L473.61,109.96L474.47,106.95L475.32,107.91L477.03,104.77L477.89,101.22L478.75,98.08L479.61,98.08L480.46,97.53L481.32,95.35L482.17,94.8L483.04,92.07L484.74,89.34L485.6,89.34L487.32,85.93L488.17,85.65L490.74,82.78L491.6,80.19L495.88,75L496.74,88.44L501.03,84.03L501.88,84.45L502.74,84.31L503.59,85.14L505.31,84.72L506.16,85.41L507.88,84.59L508.73,84.45L510.44,84.03L511.3,84.03L513.02,84.17L513.87,83.62L519.87,84.03L520.72,83.62L525.87,83.21L526.72,83.48L530.14,83.48L531,83.35L532.71,83.35L533.57,83.35L536.14,83.35L537,83.9" style="vector-effect: non-scaling-stroke; fill: none; stroke: rgb(99, 110, 250); stroke-opacity: 1; stroke-width: 2px; opacity: 1;"/></g><g class="points"/><g class="text"/></g></g></g><g class="overplot"/><path class="xlines-above crisp" d="M0,0" style="fill: none;"/><path class="ylines-above crisp" d="M0,0" style="fill: none;"/><g class="overlines-above"/><g class="xaxislayer-above"><g class="xtick"><text text-anchor="middle" x="0" y="433" transform="translate(83.2,0)" style="font-family: 'Open Sans', verdana, arial, sans-serif; font-size: 12px; fill: rgb(42, 63, 95); fill-opacity: 1; white-space: pre;"><tspan class="line" dy="0em" x="0" y="433">Aug 3</tspan><tspan class="line" dy="1.3em" x="0" y="433">2021</tspan></text></g><g class="xtick"><text text-anchor="middle" x="0" y="433" transform="translate(206.55,0)" style="font-family: 'Open Sans', verdana, arial, sans-serif; font-size: 12px; fill: rgb(42, 63, 95); fill-opacity: 1; white-space: pre;">Aug 4</text></g><g class="xtick"><text text-anchor="middle" x="0" y="433" transform="translate(329.9,0)" style="font-family: 'Open Sans', verdana, arial, sans-serif; font-size: 12px; fill: rgb(42, 63, 95); fill-opacity: 1; white-space: pre;">Aug 5</text></g><g class="xtick"><text text-anchor="middle" x="0" y="433" transform="translate(453.25,0)" style="font-family: 'Open Sans', verdana, arial, sans-serif; font-size: 12px; fill: rgb(42, 63, 95); fill-opacity: 1; white-space: pre;">Aug 6</text></g><g class="xtick"><text text-anchor="middle" x="0" y="433" transform="translate(576.61,0)" style="font-family: 'Open Sans', verdana, arial, sans-serif; font-size: 12px; fill: rgb(42, 63, 95); fill-opacity: 1; white-space: pre;">Aug 7</text></g></g><g class="yaxislayer-above"><g class="ytick"><text text-anchor="end" x="79" y="4.199999999999999" transform="translate(0,392.55)" style="font-family: 'Open Sans', verdana, arial, sans-serif; font-size: 12px; fill: rgb(42, 63, 95); fill-opacity: 1; white-space: pre;">0.864</text></g><g class="ytick"><text text-anchor="end" x="79" y="4.199999999999999" transform="translate(0,349.77)" style="font-family: 'Open Sans', verdana, arial, sans-serif; font-size: 12px; fill: rgb(42, 63, 95); fill-opacity: 1; white-space: pre;">0.865</text></g><g class="ytick"><text text-anchor="end" x="79" y="4.199999999999999" transform="translate(0,306.99)" style="font-family: 'Open Sans', verdana, arial, sans-serif; font-size: 12px; fill: rgb(42, 63, 95); fill-opacity: 1; white-space: pre;">0.866</text></g><g class="ytick"><text text-anchor="end" x="79" y="4.199999999999999" transform="translate(0,264.21000000000004)" style="font-family: 'Open Sans', verdana, arial, sans-serif; font-size: 12px; fill: rgb(42, 63, 95); fill-opacity: 1; white-space: pre;">0.867</text></g><g class="ytick"><text text-anchor="end" x="79" y="4.199999999999999" transform="translate(0,221.43)" style="font-family: 'Open Sans', verdana, arial, sans-serif; font-size: 12px; fill: rgb(42, 63, 95); fill-opacity: 1; white-space: pre;">0.868</text></g><g class="ytick"><text text-anchor="end" x="79" y="4.199999999999999" transform="translate(0,178.65)" style="font-family: 'Open Sans', verdana, arial, sans-serif; font-size: 12px; fill: rgb(42, 63, 95); fill-opacity: 1; white-space: pre;">0.869</text></g><g class="ytick"><text text-anchor="end" x="79" y="4.199999999999999" transform="translate(0,135.87)" style="font-family: 'Open Sans', verdana, arial, sans-serif; font-size: 12px; fill: rgb(42, 63, 95); fill-opacity: 1; white-space: pre;">0.87</text></g></g><g class="overaxes-above"/></g></g><g class="polarlayer"/><g class="ternarylayer"/><g class="geolayer"/><g class="funnelarealayer"/><g class="pielayer"/><g class="treemaplayer"/><g class="sunburstlayer"/><g class="glimages"/><defs id="topdefs-1bd3bc"><g class="clips"/><clipPath id="legend1bd3bc"><rect width="60" height="45" x="0" y="0"/></clipPath></defs><g class="layer-above"><g class="imagelayer"/><g class="shapelayer"/></g><g class="infolayer"><g class="legend" pointer-events="all" transform="translate(627.74,100)"><rect class="bg" shape-rendering="crispEdges" width="60" height="45" x="0" y="0" style="stroke: rgb(68, 68, 68); stroke-opacity: 1; fill: rgb(255, 255, 255); fill-opacity: 1; stroke-width: 0px;"/><g class="scrollbox" transform="" clip-path="url('#legend1bd3bc')"><text class="legendtitletext" text-anchor="start" x="2" y="15.600000000000001" style="font-family: 'Open Sans', verdana, arial, sans-serif; font-size: 12px; fill: rgb(42, 63, 95); fill-opacity: 1; white-space: pre;">All</text><g class="groups" transform=""><g class="traces" transform="translate(0,30.1)" style="opacity: 1;"><text class="legendtext" text-anchor="start" x="40" y="4.680000000000001" style="font-family: 'Open Sans', verdana, arial, sans-serif; font-size: 12px; fill: rgb(42, 63, 95); fill-opacity: 1; white-space: pre;">All</text><g class="layers" style="opacity: 1;"><g class="legendfill"/><g class="legendlines"><path class="js-line" d="M5,0h30" style="fill: none; stroke: rgb(99, 110, 250); stroke-opacity: 1; stroke-width: 2px;"/></g><g class="legendsymbols"><g class="legendpoints"/></g></g><rect class="legendtoggle" x="0" y="-9.5" width="54.890625" height="19" style="fill: rgb(0, 0, 0); fill-opacity: 0;"/></g></g></g><rect class="scrollbar" rx="20" ry="3" width="0" height="0" x="0" y="0" style="fill: rgb(128, 139, 164); fill-opacity: 1;"/></g><g class="g-gtitle"><text class="gtitle" x="35" y="50" text-anchor="start" dy="0em" style="font-family: 'Open Sans', verdana, arial, sans-serif; font-size: 17px; fill: rgb(42, 63, 95); opacity: 1; font-weight: normal; white-space: pre;">Singapore Vaccination Centers</text></g><g class="g-xtitle"><text class="xtitle" x="348.5" y="476.409375" text-anchor="middle" style="font-family: 'Open Sans', verdana, arial, sans-serif; font-size: 14px; fill: rgb(42, 63, 95); opacity: 1; font-weight: normal; white-space: pre;">Time</text></g><g class="g-ytitle"><text class="ytitle" transform="rotate(-90,19.840625000000003,260)" x="19.840625000000003" y="260" text-anchor="middle" style="font-family: 'Open Sans', verdana, arial, sans-serif; font-size: 14px; fill: rgb(42, 63, 95); opacity: 1; font-weight: normal; white-space: pre;">Filled/%</text></g></g></svg>