<svg class="main-svg" xmlns="http://www.w3.org/2000/svg" xmlns:xlink="http://www.w3.org/1999/xlink" width="700" height="500" style="" viewBox="0 0 700 500"><rect x="0" y="0" width="700" height="500" style="fill: rgb(255, 255, 255); fill-opacity: 1;"/><defs id="defs-3e0314"><g class="clips"><clipPath id="clip3e0314xyplot" class="plotclip"><rect width="537" height="320"/></clipPath><clipPath class="axesclip" id="clip3e0314x"><rect x="80" y="0" width="537" height="500"/></clipPath><clipPath class="axesclip" id="clip3e0314y"><rect x="0" y="100" width="700" height="320"/></clipPath><clipPath class="axesclip" id="clip3e0314xy"><rect x="80" y="100" width="537" height="320"/></clipPath></g><g class="gradients"/></defs><g class="bglayer"><rect class="bg" x="80" y="100" width="537" height="320" style="fill: rgb(229, 236, 246); fill-opacity: 1; stroke-width: 0;"/></g><g class="layer-below"><g class="imagelayer"/><g class="shapelayer"/></g><g class="cartesianlayer"><g class="subplot xy"><g class="layer-subplot"><g class="shapelayer"/><g class="imagelayer"/></g><g class="gridlayer"><g class="x"><path class="xgrid crisp" transform="translate(82.01,0)" d="M0,100v320" style="stroke: rgb(255, 255, 255); stroke-opacity: 1; stroke-width: 1px;"/><path class="xgrid crisp" transform="translate(159.34,0)" d="M0,100v320" style="stroke: rgb(255, 255, 255); stroke-opacity: 1; stroke-width: 1px;"/><path class="xgrid crisp" transform="translate(236.68,0)" d="M0,100v320" style="stroke: rgb(255, 255, 255); stroke-opacity: 1; stroke-width: 1px;"/><path class="xgrid crisp" transform="translate(314.02,0)" d="M0,100v320" style="stroke: rgb(255, 255, 255); stroke-opacity: 1; stroke-width: 1px;"/><path class="xgrid crisp" transform="translate(391.35,0)" d="M0,100v320" style="stroke: rgb(255, 255, 255); stroke-opacity: 1; stroke-width: 1px;"/><path class="xgrid crisp" transform="translate(468.69,0)" d="M0,100v320" style="stroke: rgb(255, 255, 255); stroke-opacity: 1; stroke-width: 1px;"/><path class="xgrid crisp" transform="translate(546.02,0)" d="M0,100v320" style="stroke: rgb(255, 255, 255); stroke-opacity: 1; stroke-width: 1px;"/></g><g class="y"><path class="ygrid crisp" transform="translate(0,394.19)" d="M80,0h537" style="stroke: rgb(255, 255, 255); stroke-opacity: 1; stroke-width: 1px;"/><path class="ygrid crisp" transform="translate(0,357.54)" d="M80,0h537" style="stroke: rgb(255, 255, 255); stroke-opacity: 1; stroke-width: 1px;"/><path class="ygrid crisp" transform="translate(0,320.88)" d="M80,0h537" style="stroke: rgb(255, 255, 255); stroke-opacity: 1; stroke-width: 1px;"/><path class="ygrid crisp" transform="translate(0,284.23)" d="M80,0h537" style="stroke: rgb(255, 255, 255); stroke-opacity: 1; stroke-width: 1px;"/><path class="ygrid crisp" transform="translate(0,247.58)" d="M80,0h537" style="stroke: rgb(255, 255, 255); stroke-opacity: 1; stroke-width: 1px;"/><path class="ygrid crisp" transform="translate(0,210.92000000000002)" d="M80,0h537" style="stroke: rgb(255, 255, 255); stroke-opacity: 1; stroke-width: 1px;"/><path class="ygrid crisp" transform="translate(0,174.26999999999998)" d="M80,0h537" style="stroke: rgb(255, 255, 255); stroke-opacity: 1; stroke-width: 1px;"/><path class="ygrid crisp" transform="translate(0,137.62)" d="M80,0h537" style="stroke: rgb(255, 255, 255); stroke-opacity: 1; stroke-width: 1px;"/></g></g><g class="zerolinelayer"/><path class="xlines-below"/><path class="ylines-below"/><g class="overlines-below"/><g class="xaxislayer-below"/><g class="yaxislayer-below"/><g class="overaxes-below"/><g class="plot" transform="translate(80,100)" clip-path="url('#clip3e0314xyplot')"><g class="scatterlayer mlayer"><g class="trace scatter trace71598f" style="stroke-miterlimit: 2; opacity: 1;"><g class="fills"/><g class="errorbars"/><g class="lines"><path class="js-line" d="M0,304L1.55,302.79L2.09,257.51L2.62,258.62L3.16,257.18L5.31,256.63L5.84,256.29L6.92,256.96L7.46,256.18L8.53,256.52L9.07,256.18L10.14,255.96L10.68,255.74L11.75,255.52L12.29,255.3L19.27,254.96L19.81,254.52L23.57,253.52L24.1,252.97L25.18,253.08L25.71,252.3L26.79,253.08L27.33,251.75L28.94,250.97L29.47,251.42L30.01,251.09L30.55,251.86L31.62,249.31L32.16,249.76L32.7,249.76L34.31,248.65L34.84,247.98L35.92,246.54L36.46,247.43L36.99,247.65L37.53,246.65L38.07,244.88L38.6,245.32L39.14,246.21L41.29,242.55L41.83,241.78L43.44,240.89L43.97,240.56L44.51,240.78L45.05,242.11L45.58,240.22L46.12,240.56L46.66,240.34L47.74,240.78L48.27,239.01L49.35,237.23L49.88,237.9L50.96,236.9L51.49,238.34L52.03,238.12L52.57,236.79L54.72,233.02L55.25,230.69L55.79,231.25L56.33,230.03L56.87,229.14L57.4,229.81L58.48,230.03L59.01,230.91L61.7,228.92L62.23,228.7L64.38,227.59L64.92,228.59L65.46,228.59L65.99,227.26L68.15,225.93L68.68,225.82L70.29,225.04L70.83,224.93L71.9,225.04L72.44,224.71L74.05,224.6L74.59,223.82L76.2,221.49L76.74,220.83L77.81,221.72L78.35,221.27L78.88,221.72L79.42,165.43L81.57,163.87L82.11,163.75L84.26,162.75L84.79,162.75L87.47,162.08L88.01,161.74L92.31,161.18L92.85,161.52L97.14,161.74L97.68,161.63L101.98,160.29L102.51,160.62L103.58,160.29L104.12,159.84L105.2,159.95L105.73,159.4L107.35,159.4L107.88,158.5L109.49,156.83L110.03,157.72L111.64,156.27L112.18,156.83L114.33,153.58L114.86,155.04L117.01,152.47L117.55,153.25L118.62,151.91L119.16,152.91L119.7,153.81L120.24,153.03L120.77,153.92L121.31,153.47L121.85,152.69L122.38,153.58L122.92,153.03L123.46,153.36L125.07,153.92L125.61,153.58L127.76,150.45L128.3,150.57L129.37,151.46L129.91,149.78L132.06,149L132.6,147.55L134.74,148L135.28,146.88L135.82,144.98L136.36,146.32L136.9,146.32L137.43,145.31L137.97,146.1L138.5,145.65L139.04,144.64L142.8,140.73L143.34,139.61L143.87,140.28L144.41,139.5L144.95,138.5L145.49,138.94L146.02,138.61L147.1,138.38L147.63,136.15L148.17,136.04L148.7,135.14L149.78,134.14L150.32,134.36L151.4,135.93L151.93,135.37L152.47,137.04L153.01,136.37L153.54,136.26L154.62,134.59L155.15,135.03L156.23,135.26L156.76,96.02L158.37,94.22L158.91,93.99L163.74,91.17L164.28,91.06L165.36,90.05L165.9,90.05L166.97,90.16L167.51,89.59L175.02,88.47L175.56,88.69L178.78,87.68L179.32,87.9L180.39,87.79L180.93,87.9L182,87.45L182.54,87.68L183.61,87L184.15,86.89L184.69,86.44L186.3,86.44L187.37,85.99L187.91,84.86L190.06,84.18L190.59,82.72L191.13,83.73L191.67,82.72L192.74,82.72L193.28,82.16L193.82,82.04L194.35,81.03L195.96,80.8L196.5,79.45L198.64,76.18L199.17,76.75L200.78,75.84L201.32,74.38L203.47,73.82L204,72.12L205.08,72.01L205.61,71.9L208.3,69.76L208.84,69.98L210.45,71.79L210.99,70.21L212.06,71.22L212.61,69.53L213.67,69.65L214.21,69.98L216.36,68.74L216.89,68.29L219.58,63.45L220.12,64.69L221.19,63.11L221.73,62.88L222.26,61.76L222.8,62.09L223.34,62.21L223.88,62.21L224.41,61.31L224.95,61.76L225.49,60.4L226.56,60.29L227.1,59.39L229.25,59.73L229.78,58.94L230.86,58.83L231.4,58.94L232.47,57.25L233,57.81L233.54,57.59L234.08,190.74L238.38,190.39L238.91,190.04L239.45,190.04L239.99,189.1L246.43,187.93L246.97,188.05L252.88,187.35L253.41,187.23L257.17,186.29L257.71,186.53L259.32,185.59L259.86,185.01L262.54,184.07L263.08,182.9L265.25,182.67L265.78,183.72L266.86,182.08L267.39,181.97L267.93,181.38L268.47,179.27L269,177.64L269.54,177.87L270.08,177.29L270.61,175.77L271.15,176.23L271.69,175.65L272.77,175.77L273.3,174.95L274.38,174.36L274.91,175.18L276.52,172.84L277.06,173.66L278.67,171.32L279.21,171.32L279.75,170.62L280.28,171.55L281.36,172.37L281.9,171.55L282.43,171.67L282.97,170.97L285.66,167.34L286.19,166.87L287.26,166.52L287.8,167.81L291.03,165.12L291.56,166.64L292.64,148.04L293.18,147.69L294.25,147.11L294.79,143.01L295.32,143.13L295.86,139.74L296.4,139.97L296.93,137.75L297.47,135.17L298.01,135.99L298.54,134.47L299.08,133.3L299.62,130.26L300.69,127.57L301.23,127.1L303.92,120.08L304.45,120.08L306.06,116.92L306.6,116.11L310.9,107.8L311.44,119.31L314.12,115.54L314.66,115.89L315.2,115.77L315.73,116.48L316.81,116.13L317.34,116.72L318.95,115.89L319.49,116.01L320.57,115.54L321.1,115.66L328.62,115.07L329.16,114.71L333.45,115.18L333.99,114.95L337.21,114.83L337.75,114.36L339.36,112L339.9,112.23L341.51,111.06L342.04,111.17L342.58,110.82L343.12,109.4L344.19,109.64L344.73,108.34L347.42,105.63L347.95,105.98L349.56,103.03L350.1,102.68L351.71,100.44L352.25,100.44L353.32,98.19L353.86,98.19L354.93,96.54L355.47,94.65L357.62,90.17L358.16,89.82L358.69,89.46L359.23,87.58L361.38,85.92L361.92,84.51L365.14,83.68L365.68,82.74L366.21,83.09L366.75,82.5L367.29,82.86L371.58,78.84L374.27,76.6L374.81,77.19L376.95,74.36L377.49,74.24L378.03,73.06L378.57,73.53L379.1,72.94L380.18,72.83L380.72,73.77L382.33,72.59L382.86,72.35L383.4,71.76L383.94,72.59L386.09,72L386.62,71.06L388.23,69.05L388.77,113.16L389.84,113.52L390.38,112.56L390.92,111.96L391.45,112.44L392.01,112.32L393.07,112.44L393.6,113.28L395.75,113.04L396.29,113.16L397.9,113.28L398.44,113.28L401.12,111.96L401.66,112.32L407.57,111.72L408.1,111.72L414.55,111.36L415.08,111L416.7,111L417.23,110.64L418.31,110.16L418.84,109.32L419.92,108.96L420.46,107.75L420.99,106.55L421.53,107.75L423.68,106.91L424.21,106.91L425.29,105.11L425.83,104.87L427.44,102.35L427.98,102.23L430.12,101.14L430.66,100.3L431.74,100.66L432.27,99.34L433.35,98.74L433.88,98.38L437.11,98.38L437.64,97.06L438.18,95.37L438.72,95.62L439.25,95.62L440.86,95.13L441.4,94.05L444.62,92.13L445.16,91.77L446.23,91.41L446.77,91.05L449.46,88.76L450,89.13L453.75,87.32L454.29,86.36L455.9,84.2L456.44,83.48L456.98,83.72L457.51,82.15L458.59,80.47L459.12,81.07L464.49,77.95L465.03,77.95L465.57,78.19L466.11,48.85L470.4,45.7L470.94,45.82L476.31,45.95L476.85,46.31L479.54,45.7L480.07,45.7L483.83,45.58L484.37,45.7L489.21,45.34L489.74,45.58L490.81,45.7L491.35,45.46L492.96,45.58L493.5,44.73L494.57,45.7L495.11,44.98L496.72,43.76L497.26,43.04L498.33,43.4L498.87,42.31L499.94,41.7L500.48,41.94L501.01,41.22L501.55,39.16L502.09,39.16L502.63,38.19L503.16,38.79L503.7,38.06L504.77,36.61L505.31,35.16L505.85,34.55L506.39,35.52L507.46,32.97L507.99,33.22L509.07,31.76L509.61,31.88L512.83,30.43L513.37,30.55L514.44,29.94L514.98,28.97L516.59,29.7L517.13,28.37L518.74,28L519.28,28.12L520.89,24.49L521.43,24.85L521.96,24.49L524.11,22.55L524.64,23.03L525.18,23.03L525.72,21.94L526.26,21.82L526.8,20.49L527.33,20.73L527.87,20.12L528.4,20.73L528.94,20L530.02,18.3L530.55,17.94L531.09,17.7L531.63,18.42L533.78,17.94L534.31,16L535.92,17.58L536.46,19.03L537,17.7" style="vector-effect: non-scaling-stroke; fill: none; stroke: rgb(99, 110, 250); stroke-opacity: 1; stroke-width: 2px; opacity: 1;"/></g><g class="points"/><g class="text"/></g></g></g><g class="overplot"/><path class="xlines-above crisp" d="M0,0" style="fill: none;"/><path class="ylines-above crisp" d="M0,0" style="fill: none;"/><g class="overlines-above"/><g class="xaxislayer-above"><g class="xtick"><text text-anchor="middle" x="0" y="433" transform="translate(82.01,0)" style="font-family: 'Open Sans', verdana, arial, sans-serif; font-size: 12px; fill: rgb(42, 63, 95); fill-opacity: 1; white-space: pre;"><tspan class="line" dy="0em" x="0" y="433">Aug 3</tspan><tspan class="line" dy="1.3em" x="0" y="433">2021</tspan></text></g><g class="xtick"><text text-anchor="middle" x="0" y="433" transform="translate(159.34,0)" style="font-family: 'Open Sans', verdana, arial, sans-serif; font-size: 12px; fill: rgb(42, 63, 95); fill-opacity: 1; white-space: pre;">Aug 4</text></g><g class="xtick"><text text-anchor="middle" x="0" y="433" transform="translate(236.68,0)" style="font-family: 'Open Sans', verdana, arial, sans-serif; font-size: 12px; fill: rgb(42, 63, 95); fill-opacity: 1; white-space: pre;">Aug 5</text></g><g class="xtick"><text text-anchor="middle" x="0" y="433" transform="translate(314.02,0)" style="font-family: 'Open Sans', verdana, arial, sans-serif; font-size: 12px; fill: rgb(42, 63, 95); fill-opacity: 1; white-space: pre;">Aug 6</text></g><g class="xtick"><text text-anchor="middle" x="0" y="433" transform="translate(391.35,0)" style="font-family: 'Open Sans', verdana, arial, sans-serif; font-size: 12px; fill: rgb(42, 63, 95); fill-opacity: 1; white-space: pre;">Aug 7</text></g><g class="xtick"><text text-anchor="middle" x="0" y="433" transform="translate(468.69,0)" style="font-family: 'Open Sans', verdana, arial, sans-serif; font-size: 12px; fill: rgb(42, 63, 95); fill-opacity: 1; white-space: pre;">Aug 8</text></g><g class="xtick"><text text-anchor="middle" x="0" y="433" transform="translate(546.02,0)" style="font-family: 'Open Sans', verdana, arial, sans-serif; font-size: 12px; fill: rgb(42, 63, 95); fill-opacity: 1; white-space: pre;">Aug 9</text></g></g><g class="yaxislayer-above"><g class="ytick"><text text-anchor="end" x="79" y="4.199999999999999" transform="translate(0,394.19)" style="font-family: 'Open Sans', verdana, arial, sans-serif; font-size: 12px; fill: rgb(42, 63, 95); fill-opacity: 1; white-space: pre;">0.864</text></g><g class="ytick"><text text-anchor="end" x="79" y="4.199999999999999" transform="translate(0,357.54)" style="font-family: 'Open Sans', verdana, arial, sans-serif; font-size: 12px; fill: rgb(42, 63, 95); fill-opacity: 1; white-space: pre;">0.865</text></g><g class="ytick"><text text-anchor="end" x="79" y="4.199999999999999" transform="translate(0,320.88)" style="font-family: 'Open Sans', verdana, arial, sans-serif; font-size: 12px; fill: rgb(42, 63, 95); fill-opacity: 1; white-space: pre;">0.866</text></g><g class="ytick"><text text-anchor="end" x="79" y="4.199999999999999" transform="translate(0,284.23)" style="font-family: 'Open Sans', verdana, arial, sans-serif; font-size: 12px; fill: rgb(42, 63, 95); fill-opacity: 1; white-space: pre;">0.867</text></g><g class="ytick"><text text-anchor="end" x="79" y="4.199999999999999" transform="translate(0,247.58)" style="font-family: 'Open Sans', verdana, arial, sans-serif; font-size: 12px; fill: rgb(42, 63, 95); fill-opacity: 1; white-space: pre;">0.868</text></g><g class="ytick"><text text-anchor="end" x="79" y="4.199999999999999" transform="translate(0,210.92000000000002)" style="font-family: 'Open Sans', verdana, arial, sans-serif; font-size: 12px; fill: rgb(42, 63, 95); fill-opacity: 1; white-space: pre;">0.869</text></g><g class="ytick"><text text-anchor="end" x="79" y="4.199999999999999" transform="translate(0,174.26999999999998)" style="font-family: 'Open Sans', verdana, arial, sans-serif; font-size: 12px; fill: rgb(42, 63, 95); fill-opacity: 1; white-space: pre;">0.87</text></g><g class="ytick"><text text-anchor="end" x="79" y="4.199999999999999" transform="translate(0,137.62)" style="font-family: 'Open Sans', verdana, arial, sans-serif; font-size: 12px; fill: rgb(42, 63, 95); fill-opacity: 1; white-space: pre;">0.871</text></g><g class="ytick"><text text-anchor="end" x="79" y="4.199999999999999" transform="translate(0,100.96)" style="font-family: 'Open Sans', verdana, arial, sans-serif; font-size: 12px; fill: rgb(42, 63, 95); fill-opacity: 1; white-space: pre;">0.872</text></g></g><g class="overaxes-above"/></g></g><g class="polarlayer"/><g class="ternarylayer"/><g class="geolayer"/><g class="funnelarealayer"/><g class="pielayer"/><g class="treemaplayer"/><g class="sunburstlayer"/><g class="glimages"/><defs id="topdefs-3e0314"><g class="clips"/><clipPath id="legend3e0314"><rect width="60" height="45" x="0" y="0"/></clipPath></defs><g class="layer-above"><g class="imagelayer"/><g class="shapelayer"/></g><g class="infolayer"><g class="legend" pointer-events="all" transform="translate(627.74,100)"><rect class="bg" shape-rendering="crispEdges" width="60" height="45" x="0" y="0" style="stroke: rgb(68, 68, 68); stroke-opacity: 1; fill: rgb(255, 255, 255); fill-opacity: 1; stroke-width: 0px;"/><g class="scrollbox" transform="" clip-path="url('#legend3e0314')"><text class="legendtitletext" text-anchor="start" x="2" y="15.600000000000001" style="font-family: 'Open Sans', verdana, arial, sans-serif; font-size: 12px; fill: rgb(42, 63, 95); fill-opacity: 1; white-space: pre;">All</text><g class="groups" transform=""><g class="traces" transform="translate(0,30.1)" style="opacity: 1;"><text class="legendtext" text-anchor="start" x="40" y="4.680000000000001" style="font-family: 'Open Sans', verdana, arial, sans-serif; font-size: 12px; fill: rgb(42, 63, 95); fill-opacity: 1; white-space: pre;">All</text><g class="layers" style="opacity: 1;"><g class="legendfill"/><g class="legendlines"><path class="js-line" d="M5,0h30" style="fill: none; stroke: rgb(99, 110, 250); stroke-opacity: 1; stroke-width: 2px;"/></g><g class="legendsymbols"><g class="legendpoints"/></g></g><rect class="legendtoggle" x="0" y="-9.5" width="54.890625" height="19" style="fill: rgb(0, 0, 0); fill-opacity: 0;"/></g></g></g><rect class="scrollbar" rx="20" ry="3" width="0" height="0" x="0" y="0" style="fill: rgb(128, 139, 164); fill-opacity: 1;"/></g><g class="g-gtitle"><text class="gtitle" x="35" y="50" text-anchor="start" dy="0em" style="font-family: 'Open Sans', verdana, arial, sans-serif; font-size: 17px; fill: rgb(42, 63, 95); opacity: 1; font-weight: normal; white-space: pre;">Singapore Vaccination Centers</text></g><g class="g-xtitle"><text class="xtitle" x="348.5" y="476.409375" text-anchor="middle" style="font-family: 'Open Sans', verdana, arial, sans-serif; font-size: 14px; fill: rgb(42, 63, 95); opacity: 1; font-weight: normal; white-space: pre;">Time</text></g><g class="g-ytitle"><text class="ytitle" transform="rotate(-90,19.840625000000003,260)" x="19.840625000000003" y="260" text-anchor="middle" style="font-family: 'Open Sans', verdana, arial, sans-serif; font-size: 14px; fill: rgb(42, 63, 95); opacity: 1; font-weight: normal; white-space: pre;">Filled/%</text></g></g></svg>