<svg class="main-svg" xmlns="http://www.w3.org/2000/svg" xmlns:xlink="http://www.w3.org/1999/xlink" width="700" height="500" style="" viewBox="0 0 700 500"><rect x="0" y="0" width="700" height="500" style="fill: rgb(255, 255, 255); fill-opacity: 1;"/><defs id="defs-622a8d"><g class="clips"><clipPath id="clip622a8dxyplot" class="plotclip"><rect width="537" height="320"/></clipPath><clipPath class="axesclip" id="clip622a8dx"><rect x="80" y="0" width="537" height="500"/></clipPath><clipPath class="axesclip" id="clip622a8dy"><rect x="0" y="100" width="700" height="320"/></clipPath><clipPath class="axesclip" id="clip622a8dxy"><rect x="80" y="100" width="537" height="320"/></clipPath></g><g class="gradients"/></defs><g class="bglayer"><rect class="bg" x="80" y="100" width="537" height="320" style="fill: rgb(229, 236, 246); fill-opacity: 1; stroke-width: 0;"/></g><g class="layer-below"><g class="imagelayer"/><g class="shapelayer"/></g><g class="cartesianlayer"><g class="subplot xy"><g class="layer-subplot"><g class="shapelayer"/><g class="imagelayer"/></g><g class="gridlayer"><g class="x"><path class="xgrid crisp" transform="translate(83.61,0)" d="M0,100v320" style="stroke: rgb(255, 255, 255); stroke-opacity: 1; stroke-width: 1px;"/><path class="xgrid crisp" transform="translate(222.72,0)" d="M0,100v320" style="stroke: rgb(255, 255, 255); stroke-opacity: 1; stroke-width: 1px;"/><path class="xgrid crisp" transform="translate(361.82,0)" d="M0,100v320" style="stroke: rgb(255, 255, 255); stroke-opacity: 1; stroke-width: 1px;"/><path class="xgrid crisp" transform="translate(500.93,0)" d="M0,100v320" style="stroke: rgb(255, 255, 255); stroke-opacity: 1; stroke-width: 1px;"/></g><g class="y"><path class="ygrid crisp" transform="translate(0,392.55)" d="M80,0h537" style="stroke: rgb(255, 255, 255); stroke-opacity: 1; stroke-width: 1px;"/><path class="ygrid crisp" transform="translate(0,349.77)" d="M80,0h537" style="stroke: rgb(255, 255, 255); stroke-opacity: 1; stroke-width: 1px;"/><path class="ygrid crisp" transform="translate(0,306.99)" d="M80,0h537" style="stroke: rgb(255, 255, 255); stroke-opacity: 1; stroke-width: 1px;"/><path class="ygrid crisp" transform="translate(0,264.21000000000004)" d="M80,0h537" style="stroke: rgb(255, 255, 255); stroke-opacity: 1; stroke-width: 1px;"/><path class="ygrid crisp" transform="translate(0,221.43)" d="M80,0h537" style="stroke: rgb(255, 255, 255); stroke-opacity: 1; stroke-width: 1px;"/><path class="ygrid crisp" transform="translate(0,178.65)" d="M80,0h537" style="stroke: rgb(255, 255, 255); stroke-opacity: 1; stroke-width: 1px;"/><path class="ygrid crisp" transform="translate(0,135.87)" d="M80,0h537" style="stroke: rgb(255, 255, 255); stroke-opacity: 1; stroke-width: 1px;"/></g></g><g class="zerolinelayer"/><path class="xlines-below"/><path class="ylines-below"/><g class="overlines-below"/><g class="xaxislayer-below"/><g class="yaxislayer-below"/><g class="overaxes-below"/><g class="plot" transform="translate(80,100)" clip-path="url('#clip622a8dxyplot')"><g class="scatterlayer mlayer"><g class="trace scatter trace0afca4" style="stroke-miterlimit: 2; opacity: 1;"><g class="fills"/><g class="errorbars"/><g class="lines"><path class="js-line" d="M0,304L2.78,302.59L3.75,249.74L4.72,251.04L5.68,249.35L9.55,248.71L10.51,248.32L12.45,249.1L13.41,248.19L15.34,248.58L16.31,248.19L17.27,248.45L18.24,247.93L24.04,246.9L25,247.16L29.84,246.77L30.8,246.51L36.6,246.12L37.56,245.73L39.5,245.86L40.46,245.22L42.39,245.09L43.35,244.44L44.32,244.96L45.29,244.57L46.25,243.66L47.22,243.92L48.19,244.57L49.15,243.02L52.05,242.11L53.01,242.63L53.98,242.24L54.95,243.15L55.91,242.24L56.88,240.17L58.81,240.69L59.78,239.78L63.64,237.84L64.61,236.94L66.54,238.23L67.51,237.07L68.47,235L69.44,235.51L70.4,236.55L71.37,235L73.3,232.67L74.27,232.28L76.2,230.6L77.17,231.12L79.1,229.95L80.06,230.21L81.03,231.76L81.99,229.56L84.9,230.6L85.86,230.21L87.8,226.46L88.76,226.07L89.73,226.85L90.69,225.55L91.66,225.68L92.62,227.36L93.59,227.11L94.56,225.55L98.42,221.16L99.38,218.44L100.35,219.09L101.32,217.66L102.29,216.63L103.25,217.4L105.18,217.66L106.15,218.7L110.02,216.5L110.98,216.37L112.91,215.72L113.88,214.69L114.84,214.3L115.81,214.82L117.74,215.98L118.7,214.43L120.64,213.52L121.6,213.39L125.47,211.45L126.43,211.84L131.27,211.58L132.23,211.84L134.16,210.42L135.13,208.87L137.06,207.7L138.03,206.93L139.96,207.96L140.92,207.44L141.89,207.96L142.86,142.27L145.76,140.18L146.72,140.44L148.65,139.92L149.62,139.01L151.55,139.14L152.52,139.14L156.38,138.48L157.34,138.35L160.24,137.83L161.21,137.96L169.9,137.96L170.87,138.09L177.63,137.83L178.6,137.18L181.49,137.18L182.46,136.14L186.32,136.27L187.29,135.74L189.22,135.88L190.19,135.22L192.12,134.57L193.09,135.22L195.98,132.22L196.95,132.22L197.92,133.27L198.88,132.88L200.82,131.57L201.78,132.22L205.64,128.44L206.61,130.14L210.47,127.14L211.44,128.05L213.37,126.48L214.34,127.66L215.3,128.7L216.27,127.79L217.24,128.83L218.2,128.31L219.17,127.4L220.13,128.44L221.1,127.79L222.06,128.18L224.96,128.83L225.93,128.44L227.88,126.48L228.84,125.05L230.77,124.92L231.74,125.44L232.71,125.96L233.67,124.01L237.54,123.09L238.51,121.4L241.4,122.44L242.37,121.92L244.3,118.4L245.27,119.96L246.24,119.96L247.2,118.79L248.17,119.7L249.13,119.18L251.07,117.35L252.03,117.48L254.93,114.35L255.89,114.48L257.83,112.14L258.79,112.92L260.72,110.83L261.69,111.35L264.59,110.7L265.55,108.09L266.52,107.96L267.48,106.92L268.45,105.48L269.42,105.74L270.38,106L271.35,107.18L272.32,107.83L273.28,107.18L274.26,109.13L275.21,108.35L276.18,108.22L277.14,106.66L278.11,106.27L279.08,106.79L281.01,107.05L281.98,61.25L283.91,59.41L284.87,59.15L287.77,57.57L288.74,57.17L290.67,57.04L291.63,56.78L295.5,55.46L296.47,54.54L298.4,54.28L299.36,54.81L303.23,53.75L304.19,53.62L306.13,53.62L307.09,53.75L322.55,51.78L323.51,52.18L326.41,51.12L327.37,51.25L328.35,51.52L329.3,50.73L335.1,50.07L337.03,49.54L338,48.23L339.93,47.83L341.86,47.44L342.83,45.73L343.8,46.91L344.76,45.73L346.7,45.73L347.66,45.07L348.63,44.94L349.59,43.76L352.49,43.49L353.46,41.91L355.38,40.2L356.35,39.42L357.29,38.1L358.25,38.76L361.15,37.71L362.12,36L365.98,35.34L366.94,33.36L367.91,32.71L368.88,33.23L370.81,32.44L371.78,32.05L372.75,31.92L373.71,30.86L375.64,30.86L376.6,31.39L378.54,32.97L379.51,31.13L381.44,32.31L382.42,30.34L384.34,30.47L385.31,30.86L388.2,29.02L389.17,29.42L391.1,27.71L392.07,26.66L393.03,24.16L394,24.68L394.96,23.24L395.93,24.68L397.86,22.84L398.83,22.58L399.79,21.26L400.76,21.66L402.69,21.79L403.65,20.74L404.62,21.26L405.59,19.68L407.52,19.55L408.49,18.5L412.35,18.89L413.31,17.97L414.28,17.45L415.25,17.84L416.22,17.97L417.18,17.05L418.15,16L419.11,16.66L420.08,16.39L421.05,171.81L425.88,171.4L426.85,172.08L429.74,170.99L430.71,170.99L432.64,169.76L433.6,169.76L435.54,168.94L436.5,169.08L452.93,168.39L453.89,167.98L466.44,165.8L467.41,165.12L472.24,164.02L473.21,162.66L477.11,162.38L478.07,163.61L480,161.7L480.97,161.57L481.94,160.88L482.9,158.43L483.86,156.51L484.83,156.79L485.8,156.1L486.76,154.33L487.73,154.88L488.7,154.19L490.63,154.33L491.6,153.37L493.53,152.69L494.5,153.65L496.42,152.01L497.39,150.92L498.36,151.87L499.32,150.64L501.26,149.14L502.22,149.14L503.19,148.32L504.16,149.41L506.09,150.37L507.05,149.41L508.02,149.55L508.99,148.73L512.85,145.18L513.82,144.5L516.71,143.54L517.68,145.04L523.48,141.9L524.44,143.68L525.41,121.97L526.38,121.97L529.27,120.88L530.24,116.1L531.2,116.24L532.17,112.28L533.14,112.55L534.1,109.96L535.07,106.95L536.04,107.91L537,106.13" style="vector-effect: non-scaling-stroke; fill: none; stroke: rgb(99, 110, 250); stroke-opacity: 1; stroke-width: 2px; opacity: 1;"/></g><g class="points"/><g class="text"/></g></g></g><g class="overplot"/><path class="xlines-above crisp" d="M0,0" style="fill: none;"/><path class="ylines-above crisp" d="M0,0" style="fill: none;"/><g class="overlines-above"/><g class="xaxislayer-above"><g class="xtick"><text text-anchor="middle" x="0" y="433" transform="translate(83.61,0)" style="font-family: 'Open Sans', verdana, arial, sans-serif; font-size: 12px; fill: rgb(42, 63, 95); fill-opacity: 1; white-space: pre;"><tspan class="line" dy="0em" x="0" y="433">Aug 3</tspan><tspan class="line" dy="1.3em" x="0" y="433">2021</tspan></text></g><g class="xtick"><text text-anchor="middle" x="0" y="433" transform="translate(222.72,0)" style="font-family: 'Open Sans', verdana, arial, sans-serif; font-size: 12px; fill: rgb(42, 63, 95); fill-opacity: 1; white-space: pre;">Aug 4</text></g><g class="xtick"><text text-anchor="middle" x="0" y="433" transform="translate(361.82,0)" style="font-family: 'Open Sans', verdana, arial, sans-serif; font-size: 12px; fill: rgb(42, 63, 95); fill-opacity: 1; white-space: pre;">Aug 5</text></g><g class="xtick"><text text-anchor="middle" x="0" y="433" transform="translate(500.93,0)" style="font-family: 'Open Sans', verdana, arial, sans-serif; font-size: 12px; fill: rgb(42, 63, 95); fill-opacity: 1; white-space: pre;">Aug 6</text></g></g><g class="yaxislayer-above"><g class="ytick"><text text-anchor="end" x="79" y="4.199999999999999" transform="translate(0,392.55)" style="font-family: 'Open Sans', verdana, arial, sans-serif; font-size: 12px; fill: rgb(42, 63, 95); fill-opacity: 1; white-space: pre;">0.864</text></g><g class="ytick"><text text-anchor="end" x="79" y="4.199999999999999" transform="translate(0,349.77)" style="font-family: 'Open Sans', verdana, arial, sans-serif; font-size: 12px; fill: rgb(42, 63, 95); fill-opacity: 1; white-space: pre;">0.865</text></g><g class="ytick"><text text-anchor="end" x="79" y="4.199999999999999" transform="translate(0,306.99)" style="font-family: 'Open Sans', verdana, arial, sans-serif; font-size: 12px; fill: rgb(42, 63, 95); fill-opacity: 1; white-space: pre;">0.866</text></g><g class="ytick"><text text-anchor="end" x="79" y="4.199999999999999" transform="translate(0,264.21000000000004)" style="font-family: 'Open Sans', verdana, arial, sans-serif; font-size: 12px; fill: rgb(42, 63, 95); fill-opacity: 1; white-space: pre;">0.867</text></g><g class="ytick"><text text-anchor="end" x="79" y="4.199999999999999" transform="translate(0,221.43)" style="font-family: 'Open Sans', verdana, arial, sans-serif; font-size: 12px; fill: rgb(42, 63, 95); fill-opacity: 1; white-space: pre;">0.868</text></g><g class="ytick"><text text-anchor="end" x="79" y="4.199999999999999" transform="translate(0,178.65)" style="font-family: 'Open Sans', verdana, arial, sans-serif; font-size: 12px; fill: rgb(42, 63, 95); fill-opacity: 1; white-space: pre;">0.869</text></g><g class="ytick"><text text-anchor="end" x="79" y="4.199999999999999" transform="translate(0,135.87)" style="font-family: 'Open Sans', verdana, arial, sans-serif; font-size: 12px; fill: rgb(42, 63, 95); fill-opacity: 1; white-space: pre;">0.87</text></g></g><g class="overaxes-above"/></g></g><g class="polarlayer"/><g class="ternarylayer"/><g class="geolayer"/><g class="funnelarealayer"/><g class="pielayer"/><g class="treemaplayer"/><g class="sunburstlayer"/><g class="glimages"/><defs id="topdefs-622a8d"><g class="clips"/><clipPath id="legend622a8d"><rect width="60" height="45" x="0" y="0"/></clipPath></defs><g class="layer-above"><g class="imagelayer"/><g class="shapelayer"/></g><g class="infolayer"><g class="legend" pointer-events="all" transform="translate(627.74,100)"><rect class="bg" shape-rendering="crispEdges" width="60" height="45" x="0" y="0" style="stroke: rgb(68, 68, 68); stroke-opacity: 1; fill: rgb(255, 255, 255); fill-opacity: 1; stroke-width: 0px;"/><g class="scrollbox" transform="" clip-path="url('#legend622a8d')"><text class="legendtitletext" text-anchor="start" x="2" y="15.600000000000001" style="font-family: 'Open Sans', verdana, arial, sans-serif; font-size: 12px; fill: rgb(42, 63, 95); fill-opacity: 1; white-space: pre;">All</text><g class="groups" transform=""><g class="traces" transform="translate(0,30.1)" style="opacity: 1;"><text class="legendtext" text-anchor="start" x="40" y="4.680000000000001" style="font-family: 'Open Sans', verdana, arial, sans-serif; font-size: 12px; fill: rgb(42, 63, 95); fill-opacity: 1; white-space: pre;">All</text><g class="layers" style="opacity: 1;"><g class="legendfill"/><g class="legendlines"><path class="js-line" d="M5,0h30" style="fill: none; stroke: rgb(99, 110, 250); stroke-opacity: 1; stroke-width: 2px;"/></g><g class="legendsymbols"><g class="legendpoints"/></g></g><rect class="legendtoggle" x="0" y="-9.5" width="54.890625" height="19" style="fill: rgb(0, 0, 0); fill-opacity: 0;"/></g></g></g><rect class="scrollbar" rx="20" ry="3" width="0" height="0" x="0" y="0" style="fill: rgb(128, 139, 164); fill-opacity: 1;"/></g><g class="g-gtitle"><text class="gtitle" x="35" y="50" text-anchor="start" dy="0em" style="font-family: 'Open Sans', verdana, arial, sans-serif; font-size: 17px; fill: rgb(42, 63, 95); opacity: 1; font-weight: normal; white-space: pre;">Singapore Vaccination Centers</text></g><g class="g-xtitle"><text class="xtitle" x="348.5" y="476.409375" text-anchor="middle" style="font-family: 'Open Sans', verdana, arial, sans-serif; font-size: 14px; fill: rgb(42, 63, 95); opacity: 1; font-weight: normal; white-space: pre;">Time</text></g><g class="g-ytitle"><text class="ytitle" transform="rotate(-90,19.840625000000003,260)" x="19.840625000000003" y="260" text-anchor="middle" style="font-family: 'Open Sans', verdana, arial, sans-serif; font-size: 14px; fill: rgb(42, 63, 95); opacity: 1; font-weight: normal; white-space: pre;">Filled/%</text></g></g></svg>