<svg class="main-svg" xmlns="http://www.w3.org/2000/svg" xmlns:xlink="http://www.w3.org/1999/xlink" width="700" height="500" style="" viewBox="0 0 700 500"><rect x="0" y="0" width="700" height="500" style="fill: rgb(255, 255, 255); fill-opacity: 1;"/><defs id="defs-ac3c07"><g class="clips"><clipPath id="clipac3c07xyplot" class="plotclip"><rect width="537" height="320"/></clipPath><clipPath class="axesclip" id="clipac3c07x"><rect x="80" y="0" width="537" height="500"/></clipPath><clipPath class="axesclip" id="clipac3c07y"><rect x="0" y="100" width="700" height="320"/></clipPath><clipPath class="axesclip" id="clipac3c07xy"><rect x="80" y="100" width="537" height="320"/></clipPath></g><g class="gradients"/></defs><g class="bglayer"><rect class="bg" x="80" y="100" width="537" height="320" style="fill: rgb(229, 236, 246); fill-opacity: 1; stroke-width: 0;"/></g><g class="layer-below"><g class="imagelayer"/><g class="shapelayer"/></g><g class="cartesianlayer"><g class="subplot xy"><g class="layer-subplot"><g class="shapelayer"/><g class="imagelayer"/></g><g class="gridlayer"><g class="x"><path class="xgrid crisp" transform="translate(84.77,0)" d="M0,100v320" style="stroke: rgb(255, 255, 255); stroke-opacity: 1; stroke-width: 1px;"/><path class="xgrid crisp" transform="translate(176.64,0)" d="M0,100v320" style="stroke: rgb(255, 255, 255); stroke-opacity: 1; stroke-width: 1px;"/><path class="xgrid crisp" transform="translate(268.51,0)" d="M0,100v320" style="stroke: rgb(255, 255, 255); stroke-opacity: 1; stroke-width: 1px;"/><path class="xgrid crisp" transform="translate(360.38,0)" d="M0,100v320" style="stroke: rgb(255, 255, 255); stroke-opacity: 1; stroke-width: 1px;"/><path class="xgrid crisp" transform="translate(452.25,0)" d="M0,100v320" style="stroke: rgb(255, 255, 255); stroke-opacity: 1; stroke-width: 1px;"/><path class="xgrid crisp" transform="translate(544.12,0)" d="M0,100v320" style="stroke: rgb(255, 255, 255); stroke-opacity: 1; stroke-width: 1px;"/></g><g class="y"><path class="ygrid crisp" transform="translate(0,392.4)" d="M80,0h537" style="stroke: rgb(255, 255, 255); stroke-opacity: 1; stroke-width: 1px;"/><path class="ygrid crisp" transform="translate(0,349.07)" d="M80,0h537" style="stroke: rgb(255, 255, 255); stroke-opacity: 1; stroke-width: 1px;"/><path class="ygrid crisp" transform="translate(0,305.73)" d="M80,0h537" style="stroke: rgb(255, 255, 255); stroke-opacity: 1; stroke-width: 1px;"/><path class="ygrid crisp" transform="translate(0,262.4)" d="M80,0h537" style="stroke: rgb(255, 255, 255); stroke-opacity: 1; stroke-width: 1px;"/><path class="ygrid crisp" transform="translate(0,219.06)" d="M80,0h537" style="stroke: rgb(255, 255, 255); stroke-opacity: 1; stroke-width: 1px;"/><path class="ygrid crisp" transform="translate(0,175.73000000000002)" d="M80,0h537" style="stroke: rgb(255, 255, 255); stroke-opacity: 1; stroke-width: 1px;"/><path class="ygrid crisp" transform="translate(0,132.4)" d="M80,0h537" style="stroke: rgb(255, 255, 255); stroke-opacity: 1; stroke-width: 1px;"/></g></g><g class="zerolinelayer"/><path class="xlines-below"/><path class="ylines-below"/><g class="overlines-below"/><g class="xaxislayer-below"/><g class="yaxislayer-below"/><g class="overaxes-below"/><g class="plot" transform="translate(80,100)" clip-path="url('#clipac3c07xyplot')"><g class="scatterlayer mlayer"><g class="trace scatter trace642f40" style="stroke-miterlimit: 2; opacity: 1;"><g class="fills"/><g class="errorbars"/><g class="lines"><path class="js-line" d="M0,304L3.68,302.57L4.96,249.04L6.23,250.35L7.51,248.65L12.61,247.99L13.88,247.6L16.44,248.38L17.72,247.47L19.02,248.12L20.27,247.86L25.37,246.94L26.65,247.21L30.48,246.42L31.75,246.16L36.86,246.55L38.13,246.16L44.51,246.03L45.78,246.03L49.61,244.98L50.9,245.24L55.99,244.32L57.26,243.67L58.55,244.19L59.82,243.8L61.09,242.88L62.37,243.14L63.65,243.8L64.93,242.23L68.75,241.31L70.02,241.83L71.3,241.44L72.58,242.36L73.85,241.44L75.13,239.34L77.68,239.87L78.96,238.95L84.06,236.99L85.34,236.07L87.88,237.38L89.17,236.2L90.44,234.1L91.72,234.63L92.99,235.67L94.26,234.1L96.82,231.74L98.1,231.35L100.65,229.65L101.93,230.17L104.47,228.99L105.75,229.25L107.03,230.83L108.3,228.6L112.14,229.65L113.41,229.25L115.97,225.45L117.24,225.06L118.51,225.85L119.79,224.54L121.07,224.67L122.34,226.37L123.62,226.11L124.89,224.54L130,220.08L131.27,217.33L132.55,217.99L133.82,216.54L135.1,215.5L136.38,216.28L138.93,216.54L140.2,217.59L145.32,215.37L146.58,215.23L149.14,214.58L150.42,213.53L151.69,213.14L152.97,213.66L154.25,214.84L155.51,214.84L158.07,212.61L159.35,212.35L163.17,211.57L164.45,211.04L165.73,210.26L167,210.65L173.38,210.39L174.66,210.65L177.2,209.21L178.49,207.63L179.76,206.46L181.04,206.46L182.32,205.67L183.59,206.59L187.42,206.72L188.7,140.17L192.52,138.06L193.8,138.32L196.35,137.79L197.63,136.87L200.18,137L201.46,137L206.56,136.34L207.83,136.21L211.66,135.68L212.94,135.81L224.42,135.81L225.7,135.94L234.62,135.68L235.9,135.02L239.73,135.02L241,133.96L246.1,134.09L247.39,133.57L249.93,133.7L251.21,133.04L253.77,132.38L255.04,133.04L258.87,130L260.14,130L261.42,131.05L262.69,130.66L265.25,129.34L266.52,130L270.35,127.88L271.63,126.17L272.9,127.88L274.18,127.09L278,124.84L279.29,125.77L281.83,124.18L283.11,125.37L284.39,126.43L285.66,125.51L286.94,126.56L288.21,126.03L289.49,125.11L290.76,126.17L292.04,125.51L293.32,125.9L295.87,126.96L297.14,126.56L299.72,125.37L301,124.18L302.27,122.73L303.54,122.47L306.1,123.13L307.37,123.66L308.65,121.67L309.92,121.41L313.76,120.75L315.03,119.03L318.86,120.09L320.13,119.56L322.68,115.99L323.96,117.58L325.24,117.58L326.52,116.39L327.79,117.31L329.06,116.78L331.62,114.93L332.9,115.07L336.72,111.9L338,112.03L340.55,109.65L341.83,110.44L344.38,108.33L345.66,108.86L349.48,108.2L350.76,105.55L352.03,105.42L353.3,104.36L354.59,102.91L355.86,103.18L357.14,103.44L358.41,104.63L359.7,105.29L360.97,104.63L362.25,106.61L363.52,105.82L364.79,105.69L366.07,104.1L367.35,103.7L368.62,104.23L371.17,104.5L372.45,58.11L375,56.24L376.28,55.98L378.83,55.31L380.11,54.38L383.93,53.84L385.2,53.58L390.31,52.24L391.59,51.31L394.14,51.04L395.42,51.58L399.25,50.38L400.52,50.51L415.83,49.18L417.1,49.45L422.21,48.51L423.49,48.78L426.04,48.51L427.31,48.91L431.14,47.85L432.41,47.98L433.7,48.25L434.96,47.45L442.62,46.78L445.17,46.25L446.45,44.92L449,44.52L451.55,44.12L452.83,42.38L454.1,43.58L455.38,42.38L457.93,42.38L459.21,41.72L460.49,41.58L461.76,40.38L465.58,40.12L466.86,38.52L468.14,37.05L469.41,36.79L471.93,34.66L473.2,35.32L475.75,33.86L477.03,34.26L478.3,32.52L479.57,32.26L480.86,31.72L482.13,32.12L483.41,31.86L484.68,29.86L485.96,29.19L487.23,29.72L489.79,28.93L491.07,28.53L492.34,28.39L493.61,27.33L496.17,27.33L497.44,27.86L499.99,29.46L501.28,27.59L503.83,28.79L505.12,26.79L507.66,26.93L508.94,27.33L512.76,25.46L514.04,25.86L516.58,24.13L517.86,23.06L519.14,20.53L520.42,21.06L521.69,19.6L522.96,21.06L524.24,19.46L525.52,19.2L526.8,18.93L528.07,17.6L531.9,18.13L533.17,17.07L534.45,17.6L535.72,16L537,16" style="vector-effect: non-scaling-stroke; fill: none; stroke: rgb(99, 110, 250); stroke-opacity: 1; stroke-width: 2px; opacity: 1;"/></g><g class="points"/><g class="text"/></g></g></g><g class="overplot"/><path class="xlines-above crisp" d="M0,0" style="fill: none;"/><path class="ylines-above crisp" d="M0,0" style="fill: none;"/><g class="overlines-above"/><g class="xaxislayer-above"><g class="xtick"><text text-anchor="middle" x="0" y="433" transform="translate(84.77,0)" style="font-family: 'Open Sans', verdana, arial, sans-serif; font-size: 12px; fill: rgb(42, 63, 95); fill-opacity: 1; white-space: pre;"><tspan class="line" dy="0em" x="0" y="433">00:00</tspan><tspan class="line" dy="1.3em" x="0" y="433">Aug 3, 2021</tspan></text></g><g class="xtick"><text text-anchor="middle" x="0" y="433" transform="translate(176.64,0)" style="font-family: 'Open Sans', verdana, arial, sans-serif; font-size: 12px; fill: rgb(42, 63, 95); fill-opacity: 1; white-space: pre;">12:00</text></g><g class="xtick"><text text-anchor="middle" x="0" y="433" transform="translate(268.51,0)" style="font-family: 'Open Sans', verdana, arial, sans-serif; font-size: 12px; fill: rgb(42, 63, 95); fill-opacity: 1; white-space: pre;"><tspan class="line" dy="0em" x="0" y="433">00:00</tspan><tspan class="line" dy="1.3em" x="0" y="433">Aug 4, 2021</tspan></text></g><g class="xtick"><text text-anchor="middle" x="0" y="433" transform="translate(360.38,0)" style="font-family: 'Open Sans', verdana, arial, sans-serif; font-size: 12px; fill: rgb(42, 63, 95); fill-opacity: 1; white-space: pre;">12:00</text></g><g class="xtick"><text text-anchor="middle" x="0" y="433" transform="translate(452.25,0)" style="font-family: 'Open Sans', verdana, arial, sans-serif; font-size: 12px; fill: rgb(42, 63, 95); fill-opacity: 1; white-space: pre;"><tspan class="line" dy="0em" x="0" y="433">00:00</tspan><tspan class="line" dy="1.3em" x="0" y="433">Aug 5, 2021</tspan></text></g><g class="xtick"><text text-anchor="middle" x="0" y="433" transform="translate(544.12,0)" style="font-family: 'Open Sans', verdana, arial, sans-serif; font-size: 12px; fill: rgb(42, 63, 95); fill-opacity: 1; white-space: pre;">12:00</text></g></g><g class="yaxislayer-above"><g class="ytick"><text text-anchor="end" x="79" y="4.199999999999999" transform="translate(0,392.4)" style="font-family: 'Open Sans', verdana, arial, sans-serif; font-size: 12px; fill: rgb(42, 63, 95); fill-opacity: 1; white-space: pre;">0.864</text></g><g class="ytick"><text text-anchor="end" x="79" y="4.199999999999999" transform="translate(0,349.07)" style="font-family: 'Open Sans', verdana, arial, sans-serif; font-size: 12px; fill: rgb(42, 63, 95); fill-opacity: 1; white-space: pre;">0.865</text></g><g class="ytick"><text text-anchor="end" x="79" y="4.199999999999999" transform="translate(0,305.73)" style="font-family: 'Open Sans', verdana, arial, sans-serif; font-size: 12px; fill: rgb(42, 63, 95); fill-opacity: 1; white-space: pre;">0.866</text></g><g class="ytick"><text text-anchor="end" x="79" y="4.199999999999999" transform="translate(0,262.4)" style="font-family: 'Open Sans', verdana, arial, sans-serif; font-size: 12px; fill: rgb(42, 63, 95); fill-opacity: 1; white-space: pre;">0.867</text></g><g class="ytick"><text text-anchor="end" x="79" y="4.199999999999999" transform="translate(0,219.06)" style="font-family: 'Open Sans', verdana, arial, sans-serif; font-size: 12px; fill: rgb(42, 63, 95); fill-opacity: 1; white-space: pre;">0.868</text></g><g class="ytick"><text text-anchor="end" x="79" y="4.199999999999999" transform="translate(0,175.73000000000002)" style="font-family: 'Open Sans', verdana, arial, sans-serif; font-size: 12px; fill: rgb(42, 63, 95); fill-opacity: 1; white-space: pre;">0.869</text></g><g class="ytick"><text text-anchor="end" x="79" y="4.199999999999999" transform="translate(0,132.4)" style="font-family: 'Open Sans', verdana, arial, sans-serif; font-size: 12px; fill: rgb(42, 63, 95); fill-opacity: 1; white-space: pre;">0.87</text></g></g><g class="overaxes-above"/></g></g><g class="polarlayer"/><g class="ternarylayer"/><g class="geolayer"/><g class="funnelarealayer"/><g class="pielayer"/><g class="treemaplayer"/><g class="sunburstlayer"/><g class="glimages"/><defs id="topdefs-ac3c07"><g class="clips"/><clipPath id="legendac3c07"><rect width="60" height="45" x="0" y="0"/></clipPath></defs><g class="layer-above"><g class="imagelayer"/><g class="shapelayer"/></g><g class="infolayer"><g class="legend" pointer-events="all" transform="translate(627.74,100)"><rect class="bg" shape-rendering="crispEdges" width="60" height="45" x="0" y="0" style="stroke: rgb(68, 68, 68); stroke-opacity: 1; fill: rgb(255, 255, 255); fill-opacity: 1; stroke-width: 0px;"/><g class="scrollbox" transform="" clip-path="url('#legendac3c07')"><text class="legendtitletext" text-anchor="start" x="2" y="15.600000000000001" style="font-family: 'Open Sans', verdana, arial, sans-serif; font-size: 12px; fill: rgb(42, 63, 95); fill-opacity: 1; white-space: pre;">All</text><g class="groups" transform=""><g class="traces" transform="translate(0,30.1)" style="opacity: 1;"><text class="legendtext" text-anchor="start" x="40" y="4.680000000000001" style="font-family: 'Open Sans', verdana, arial, sans-serif; font-size: 12px; fill: rgb(42, 63, 95); fill-opacity: 1; white-space: pre;">All</text><g class="layers" style="opacity: 1;"><g class="legendfill"/><g class="legendlines"><path class="js-line" d="M5,0h30" style="fill: none; stroke: rgb(99, 110, 250); stroke-opacity: 1; stroke-width: 2px;"/></g><g class="legendsymbols"><g class="legendpoints"/></g></g><rect class="legendtoggle" x="0" y="-9.5" width="54.890625" height="19" style="fill: rgb(0, 0, 0); fill-opacity: 0;"/></g></g></g><rect class="scrollbar" rx="20" ry="3" width="0" height="0" x="0" y="0" style="fill: rgb(128, 139, 164); fill-opacity: 1;"/></g><g class="g-gtitle"><text class="gtitle" x="35" y="50" text-anchor="start" dy="0em" style="font-family: 'Open Sans', verdana, arial, sans-serif; font-size: 17px; fill: rgb(42, 63, 95); opacity: 1; font-weight: normal; white-space: pre;">Singapore Vaccination Centers</text></g><g class="g-xtitle"><text class="xtitle" x="348.5" y="476.409375" text-anchor="middle" style="font-family: 'Open Sans', verdana, arial, sans-serif; font-size: 14px; fill: rgb(42, 63, 95); opacity: 1; font-weight: normal; white-space: pre;">Time</text></g><g class="g-ytitle"><text class="ytitle" transform="rotate(-90,19.840625000000003,260)" x="19.840625000000003" y="260" text-anchor="middle" style="font-family: 'Open Sans', verdana, arial, sans-serif; font-size: 14px; fill: rgb(42, 63, 95); opacity: 1; font-weight: normal; white-space: pre;">Filled/%</text></g></g></svg>