<svg class="main-svg" xmlns="http://www.w3.org/2000/svg" xmlns:xlink="http://www.w3.org/1999/xlink" width="700" height="500" style="" viewBox="0 0 700 500"><rect x="0" y="0" width="700" height="500" style="fill: rgb(255, 255, 255); fill-opacity: 1;"/><defs id="defs-d1b4fa"><g class="clips"><clipPath id="clipd1b4faxyplot" class="plotclip"><rect width="537" height="320"/></clipPath><clipPath class="axesclip" id="clipd1b4fax"><rect x="80" y="0" width="537" height="500"/></clipPath><clipPath class="axesclip" id="clipd1b4fay"><rect x="0" y="100" width="700" height="320"/></clipPath><clipPath class="axesclip" id="clipd1b4faxy"><rect x="80" y="100" width="537" height="320"/></clipPath></g><g class="gradients"/></defs><g class="bglayer"><rect class="bg" x="80" y="100" width="537" height="320" style="fill: rgb(229, 236, 246); fill-opacity: 1; stroke-width: 0;"/></g><g class="layer-below"><g class="imagelayer"/><g class="shapelayer"/></g><g class="cartesianlayer"><g class="subplot xy"><g class="layer-subplot"><g class="shapelayer"/><g class="imagelayer"/></g><g class="gridlayer"><g class="x"><path class="xgrid crisp" transform="translate(84.12,0)" d="M0,100v320" style="stroke: rgb(255, 255, 255); stroke-opacity: 1; stroke-width: 1px;"/><path class="xgrid crisp" transform="translate(163.54000000000002,0)" d="M0,100v320" style="stroke: rgb(255, 255, 255); stroke-opacity: 1; stroke-width: 1px;"/><path class="xgrid crisp" transform="translate(242.95,0)" d="M0,100v320" style="stroke: rgb(255, 255, 255); stroke-opacity: 1; stroke-width: 1px;"/><path class="xgrid crisp" transform="translate(322.37,0)" d="M0,100v320" style="stroke: rgb(255, 255, 255); stroke-opacity: 1; stroke-width: 1px;"/><path class="xgrid crisp" transform="translate(401.79,0)" d="M0,100v320" style="stroke: rgb(255, 255, 255); stroke-opacity: 1; stroke-width: 1px;"/><path class="xgrid crisp" transform="translate(481.2,0)" d="M0,100v320" style="stroke: rgb(255, 255, 255); stroke-opacity: 1; stroke-width: 1px;"/><path class="xgrid crisp" transform="translate(560.62,0)" d="M0,100v320" style="stroke: rgb(255, 255, 255); stroke-opacity: 1; stroke-width: 1px;"/></g><g class="y"><path class="ygrid crisp" transform="translate(0,392.55)" d="M80,0h537" style="stroke: rgb(255, 255, 255); stroke-opacity: 1; stroke-width: 1px;"/><path class="ygrid crisp" transform="translate(0,349.77)" d="M80,0h537" style="stroke: rgb(255, 255, 255); stroke-opacity: 1; stroke-width: 1px;"/><path class="ygrid crisp" transform="translate(0,306.99)" d="M80,0h537" style="stroke: rgb(255, 255, 255); stroke-opacity: 1; stroke-width: 1px;"/><path class="ygrid crisp" transform="translate(0,264.21000000000004)" d="M80,0h537" style="stroke: rgb(255, 255, 255); stroke-opacity: 1; stroke-width: 1px;"/><path class="ygrid crisp" transform="translate(0,221.43)" d="M80,0h537" style="stroke: rgb(255, 255, 255); stroke-opacity: 1; stroke-width: 1px;"/><path class="ygrid crisp" transform="translate(0,178.65)" d="M80,0h537" style="stroke: rgb(255, 255, 255); stroke-opacity: 1; stroke-width: 1px;"/><path class="ygrid crisp" transform="translate(0,135.87)" d="M80,0h537" style="stroke: rgb(255, 255, 255); stroke-opacity: 1; stroke-width: 1px;"/></g></g><g class="zerolinelayer"/><path class="xlines-below"/><path class="ylines-below"/><g class="overlines-below"/><g class="xaxislayer-below"/><g class="yaxislayer-below"/><g class="overaxes-below"/><g class="plot" transform="translate(80,100)" clip-path="url('#clipd1b4faxyplot')"><g class="scatterlayer mlayer"><g class="trace scatter trace8d5f36" style="stroke-miterlimit: 2; opacity: 1;"><g class="fills"/><g class="errorbars"/><g class="lines"><path class="js-line" d="M0,304L3.18,302.59L4.28,249.74L5.39,251.04L6.49,249.35L10.9,248.71L12,248.32L14.21,249.1L15.32,248.19L16.45,248.84L17.52,248.58L21.93,247.67L23.04,247.93L26.35,247.16L27.45,246.9L31.86,247.29L32.96,246.9L38.47,246.77L39.57,246.77L42.89,245.73L44,245.99L48.4,245.09L49.5,244.44L50.61,244.96L51.71,244.57L52.81,243.66L53.92,243.92L55.02,244.57L56.12,243.02L59.43,242.11L60.53,242.63L61.64,242.24L62.74,243.15L63.84,242.24L64.95,240.17L67.15,240.69L68.25,239.78L72.67,237.84L73.77,236.94L75.97,238.23L77.08,237.07L78.18,235L79.28,235.51L80.39,236.55L81.49,235L83.7,232.67L84.8,232.28L87.01,230.6L88.11,231.12L90.31,229.95L91.42,230.21L92.52,231.76L93.62,229.56L96.94,230.6L98.04,230.21L100.25,226.46L101.35,226.07L102.45,226.85L103.55,225.55L104.66,225.68L105.76,227.36L106.86,227.11L107.96,225.55L112.38,221.16L113.48,218.44L114.58,219.09L115.68,217.66L116.79,216.63L117.89,217.4L120.1,217.66L121.2,218.7L125.62,216.5L126.71,216.37L128.92,215.72L130.03,214.69L131.13,214.3L132.23,214.82L133.34,215.98L134.43,215.98L136.64,213.78L137.75,213.52L141.06,212.75L142.16,212.23L143.26,211.45L144.36,211.84L149.88,211.58L150.99,211.84L153.18,210.42L154.29,208.87L155.39,207.7L156.5,207.7L157.6,206.93L158.7,207.83L162.01,207.96L163.12,142.27L166.43,140.18L167.53,140.44L169.73,139.92L170.84,139.01L173.04,139.14L174.15,139.14L178.56,138.48L179.66,138.35L182.97,137.83L184.07,137.96L194,137.96L195.1,138.09L202.82,137.83L203.93,137.18L207.23,137.18L208.34,136.14L212.74,136.27L213.85,135.74L216.05,135.88L217.16,135.22L219.37,134.57L220.47,135.22L223.78,132.22L224.88,132.22L225.98,133.27L227.08,132.88L229.29,131.57L230.4,132.22L234.81,128.44L235.91,130.14L240.32,127.14L241.43,128.05L243.63,126.48L244.73,127.66L245.84,128.7L246.94,127.79L248.04,128.83L249.15,128.31L250.25,127.4L251.35,128.44L252.45,127.79L253.55,128.18L256.87,128.83L257.97,128.44L260.2,126.48L261.29,125.05L263.5,124.92L264.6,125.44L265.71,125.96L266.81,124.01L271.23,123.09L272.33,121.4L275.64,122.44L276.74,121.92L278.94,118.4L280.05,119.96L281.16,119.96L282.26,118.79L283.36,119.7L284.46,119.18L286.67,117.35L287.77,117.48L291.08,114.35L292.18,114.48L294.39,112.14L295.49,112.92L297.69,110.83L298.8,111.35L302.11,110.7L303.21,108.09L304.31,107.96L305.41,106.92L306.52,105.48L307.62,105.74L308.73,106L309.83,107.18L310.94,107.83L312.04,107.18L313.15,109.13L314.24,108.35L315.34,108.22L316.44,106.66L317.55,106.27L318.65,106.79L320.86,107.05L321.96,61.25L324.16,59.41L325.27,59.15L328.58,57.57L329.68,57.17L331.89,57.04L332.99,56.78L337.4,55.46L338.51,54.54L340.72,54.28L341.82,54.81L345.13,53.62L346.23,53.75L359.46,52.44L360.56,52.7L364.98,51.78L366.08,52.04L368.28,51.78L369.39,52.18L372.7,51.12L373.79,51.25L374.91,51.52L376,50.73L382.62,50.07L384.82,49.54L385.93,48.23L388.13,47.83L390.34,47.44L391.44,45.73L392.55,46.91L393.65,45.73L395.86,45.73L396.96,45.07L398.07,44.94L399.16,43.76L402.47,43.49L403.58,41.91L405.78,40.2L406.89,39.42L407.96,38.1L409.05,38.76L412.36,37.71L413.47,36L417.88,35.34L418.98,33.36L420.09,32.71L421.19,33.23L423.39,32.44L424.5,32.05L425.6,31.92L426.7,30.86L428.91,30.86L430.01,31.39L432.22,32.97L433.33,31.13L435.53,32.31L436.65,30.34L438.84,30.47L439.95,30.86L443.25,29.02L444.36,29.42L446.56,27.71L447.66,26.66L448.77,24.16L449.87,24.68L450.97,23.24L452.07,24.68L453.17,23.1L454.28,22.84L455.39,22.58L456.49,21.26L459.8,21.79L460.89,20.74L462,21.26L463.1,19.68L465.31,19.55L466.41,18.5L470.82,18.89L471.93,17.97L473.03,17.45L474.14,17.84L475.24,17.97L476.34,17.05L477.45,16L478.54,16.66L479.65,16.39L480.76,171.81L486.27,171.4L487.38,172.08L490.68,170.99L491.79,170.99L493.99,169.76L495.09,169.76L497.3,168.94L498.4,169.08L517.16,168.39L518.25,167.98L532.59,165.8L533.7,165.12L537,164.3" style="vector-effect: non-scaling-stroke; fill: none; stroke: rgb(99, 110, 250); stroke-opacity: 1; stroke-width: 2px; opacity: 1;"/></g><g class="points"/><g class="text"/></g></g></g><g class="overplot"/><path class="xlines-above crisp" d="M0,0" style="fill: none;"/><path class="ylines-above crisp" d="M0,0" style="fill: none;"/><g class="overlines-above"/><g class="xaxislayer-above"><g class="xtick"><text text-anchor="middle" x="0" y="433" transform="translate(84.12,0)" style="font-family: 'Open Sans', verdana, arial, sans-serif; font-size: 12px; fill: rgb(42, 63, 95); fill-opacity: 1; white-space: pre;"><tspan class="line" dy="0em" x="0" y="433">00:00</tspan><tspan class="line" dy="1.3em" x="0" y="433">Aug 3, 2021</tspan></text></g><g class="xtick"><text text-anchor="middle" x="0" y="433" transform="translate(163.54000000000002,0)" style="font-family: 'Open Sans', verdana, arial, sans-serif; font-size: 12px; fill: rgb(42, 63, 95); fill-opacity: 1; white-space: pre;">12:00</text></g><g class="xtick"><text text-anchor="middle" x="0" y="433" transform="translate(242.95,0)" style="font-family: 'Open Sans', verdana, arial, sans-serif; font-size: 12px; fill: rgb(42, 63, 95); fill-opacity: 1; white-space: pre;"><tspan class="line" dy="0em" x="0" y="433">00:00</tspan><tspan class="line" dy="1.3em" x="0" y="433">Aug 4, 2021</tspan></text></g><g class="xtick"><text text-anchor="middle" x="0" y="433" transform="translate(322.37,0)" style="font-family: 'Open Sans', verdana, arial, sans-serif; font-size: 12px; fill: rgb(42, 63, 95); fill-opacity: 1; white-space: pre;">12:00</text></g><g class="xtick"><text text-anchor="middle" x="0" y="433" transform="translate(401.79,0)" style="font-family: 'Open Sans', verdana, arial, sans-serif; font-size: 12px; fill: rgb(42, 63, 95); fill-opacity: 1; white-space: pre;"><tspan class="line" dy="0em" x="0" y="433">00:00</tspan><tspan class="line" dy="1.3em" x="0" y="433">Aug 5, 2021</tspan></text></g><g class="xtick"><text text-anchor="middle" x="0" y="433" transform="translate(481.2,0)" style="font-family: 'Open Sans', verdana, arial, sans-serif; font-size: 12px; fill: rgb(42, 63, 95); fill-opacity: 1; white-space: pre;">12:00</text></g><g class="xtick"><text text-anchor="middle" x="0" y="433" transform="translate(560.62,0)" style="font-family: 'Open Sans', verdana, arial, sans-serif; font-size: 12px; fill: rgb(42, 63, 95); fill-opacity: 1; white-space: pre;"><tspan class="line" dy="0em" x="0" y="433">00:00</tspan><tspan class="line" dy="1.3em" x="0" y="433">Aug 6, 2021</tspan></text></g></g><g class="yaxislayer-above"><g class="ytick"><text text-anchor="end" x="79" y="4.199999999999999" transform="translate(0,392.55)" style="font-family: 'Open Sans', verdana, arial, sans-serif; font-size: 12px; fill: rgb(42, 63, 95); fill-opacity: 1; white-space: pre;">0.864</text></g><g class="ytick"><text text-anchor="end" x="79" y="4.199999999999999" transform="translate(0,349.77)" style="font-family: 'Open Sans', verdana, arial, sans-serif; font-size: 12px; fill: rgb(42, 63, 95); fill-opacity: 1; white-space: pre;">0.865</text></g><g class="ytick"><text text-anchor="end" x="79" y="4.199999999999999" transform="translate(0,306.99)" style="font-family: 'Open Sans', verdana, arial, sans-serif; font-size: 12px; fill: rgb(42, 63, 95); fill-opacity: 1; white-space: pre;">0.866</text></g><g class="ytick"><text text-anchor="end" x="79" y="4.199999999999999" transform="translate(0,264.21000000000004)" style="font-family: 'Open Sans', verdana, arial, sans-serif; font-size: 12px; fill: rgb(42, 63, 95); fill-opacity: 1; white-space: pre;">0.867</text></g><g class="ytick"><text text-anchor="end" x="79" y="4.199999999999999" transform="translate(0,221.43)" style="font-family: 'Open Sans', verdana, arial, sans-serif; font-size: 12px; fill: rgb(42, 63, 95); fill-opacity: 1; white-space: pre;">0.868</text></g><g class="ytick"><text text-anchor="end" x="79" y="4.199999999999999" transform="translate(0,178.65)" style="font-family: 'Open Sans', verdana, arial, sans-serif; font-size: 12px; fill: rgb(42, 63, 95); fill-opacity: 1; white-space: pre;">0.869</text></g><g class="ytick"><text text-anchor="end" x="79" y="4.199999999999999" transform="translate(0,135.87)" style="font-family: 'Open Sans', verdana, arial, sans-serif; font-size: 12px; fill: rgb(42, 63, 95); fill-opacity: 1; white-space: pre;">0.87</text></g></g><g class="overaxes-above"/></g></g><g class="polarlayer"/><g class="ternarylayer"/><g class="geolayer"/><g class="funnelarealayer"/><g class="pielayer"/><g class="treemaplayer"/><g class="sunburstlayer"/><g class="glimages"/><defs id="topdefs-d1b4fa"><g class="clips"/><clipPath id="legendd1b4fa"><rect width="60" height="45" x="0" y="0"/></clipPath></defs><g class="layer-above"><g class="imagelayer"/><g class="shapelayer"/></g><g class="infolayer"><g class="legend" pointer-events="all" transform="translate(627.74,100)"><rect class="bg" shape-rendering="crispEdges" width="60" height="45" x="0" y="0" style="stroke: rgb(68, 68, 68); stroke-opacity: 1; fill: rgb(255, 255, 255); fill-opacity: 1; stroke-width: 0px;"/><g class="scrollbox" transform="" clip-path="url('#legendd1b4fa')"><text class="legendtitletext" text-anchor="start" x="2" y="15.600000000000001" style="font-family: 'Open Sans', verdana, arial, sans-serif; font-size: 12px; fill: rgb(42, 63, 95); fill-opacity: 1; white-space: pre;">All</text><g class="groups" transform=""><g class="traces" transform="translate(0,30.1)" style="opacity: 1;"><text class="legendtext" text-anchor="start" x="40" y="4.680000000000001" style="font-family: 'Open Sans', verdana, arial, sans-serif; font-size: 12px; fill: rgb(42, 63, 95); fill-opacity: 1; white-space: pre;">All</text><g class="layers" style="opacity: 1;"><g class="legendfill"/><g class="legendlines"><path class="js-line" d="M5,0h30" style="fill: none; stroke: rgb(99, 110, 250); stroke-opacity: 1; stroke-width: 2px;"/></g><g class="legendsymbols"><g class="legendpoints"/></g></g><rect class="legendtoggle" x="0" y="-9.5" width="54.890625" height="19" style="fill: rgb(0, 0, 0); fill-opacity: 0;"/></g></g></g><rect class="scrollbar" rx="20" ry="3" width="0" height="0" x="0" y="0" style="fill: rgb(128, 139, 164); fill-opacity: 1;"/></g><g class="g-gtitle"><text class="gtitle" x="35" y="50" text-anchor="start" dy="0em" style="font-family: 'Open Sans', verdana, arial, sans-serif; font-size: 17px; fill: rgb(42, 63, 95); opacity: 1; font-weight: normal; white-space: pre;">Singapore Vaccination Centers</text></g><g class="g-xtitle"><text class="xtitle" x="348.5" y="476.409375" text-anchor="middle" style="font-family: 'Open Sans', verdana, arial, sans-serif; font-size: 14px; fill: rgb(42, 63, 95); opacity: 1; font-weight: normal; white-space: pre;">Time</text></g><g class="g-ytitle"><text class="ytitle" transform="rotate(-90,19.840625000000003,260)" x="19.840625000000003" y="260" text-anchor="middle" style="font-family: 'Open Sans', verdana, arial, sans-serif; font-size: 14px; fill: rgb(42, 63, 95); opacity: 1; font-weight: normal; white-space: pre;">Filled/%</text></g></g></svg>