<svg class="main-svg" xmlns="http://www.w3.org/2000/svg" xmlns:xlink="http://www.w3.org/1999/xlink" width="700" height="500" style="" viewBox="0 0 700 500"><rect x="0" y="0" width="700" height="500" style="fill: rgb(255, 255, 255); fill-opacity: 1;"/><defs id="defs-96aa9a"><g class="clips"><clipPath id="clip96aa9axyplot" class="plotclip"><rect width="537" height="320"/></clipPath><clipPath class="axesclip" id="clip96aa9ax"><rect x="80" y="0" width="537" height="500"/></clipPath><clipPath class="axesclip" id="clip96aa9ay"><rect x="0" y="100" width="700" height="320"/></clipPath><clipPath class="axesclip" id="clip96aa9axy"><rect x="80" y="100" width="537" height="320"/></clipPath></g><g class="gradients"/></defs><g class="bglayer"><rect class="bg" x="80" y="100" width="537" height="320" style="fill: rgb(229, 236, 246); fill-opacity: 1; stroke-width: 0;"/></g><g class="layer-below"><g class="imagelayer"/><g class="shapelayer"/></g><g class="cartesianlayer"><g class="subplot xy"><g class="layer-subplot"><g class="shapelayer"/><g class="imagelayer"/></g><g class="gridlayer"><g class="x"><path class="xgrid crisp" transform="translate(82.24,0)" d="M0,100v320" style="stroke: rgb(255, 255, 255); stroke-opacity: 1; stroke-width: 1px;"/><path class="xgrid crisp" transform="translate(168.45999999999998,0)" d="M0,100v320" style="stroke: rgb(255, 255, 255); stroke-opacity: 1; stroke-width: 1px;"/><path class="xgrid crisp" transform="translate(254.67,0)" d="M0,100v320" style="stroke: rgb(255, 255, 255); stroke-opacity: 1; stroke-width: 1px;"/><path class="xgrid crisp" transform="translate(340.89,0)" d="M0,100v320" style="stroke: rgb(255, 255, 255); stroke-opacity: 1; stroke-width: 1px;"/><path class="xgrid crisp" transform="translate(427.11,0)" d="M0,100v320" style="stroke: rgb(255, 255, 255); stroke-opacity: 1; stroke-width: 1px;"/><path class="xgrid crisp" transform="translate(513.3299999999999,0)" d="M0,100v320" style="stroke: rgb(255, 255, 255); stroke-opacity: 1; stroke-width: 1px;"/><path class="xgrid crisp" transform="translate(599.54,0)" d="M0,100v320" style="stroke: rgb(255, 255, 255); stroke-opacity: 1; stroke-width: 1px;"/></g><g class="y"><path class="ygrid crisp" transform="translate(0,393.08)" d="M80,0h537" style="stroke: rgb(255, 255, 255); stroke-opacity: 1; stroke-width: 1px;"/><path class="ygrid crisp" transform="translate(0,352.28999999999996)" d="M80,0h537" style="stroke: rgb(255, 255, 255); stroke-opacity: 1; stroke-width: 1px;"/><path class="ygrid crisp" transform="translate(0,311.5)" d="M80,0h537" style="stroke: rgb(255, 255, 255); stroke-opacity: 1; stroke-width: 1px;"/><path class="ygrid crisp" transform="translate(0,270.71000000000004)" d="M80,0h537" style="stroke: rgb(255, 255, 255); stroke-opacity: 1; stroke-width: 1px;"/><path class="ygrid crisp" transform="translate(0,229.92)" d="M80,0h537" style="stroke: rgb(255, 255, 255); stroke-opacity: 1; stroke-width: 1px;"/><path class="ygrid crisp" transform="translate(0,189.12)" d="M80,0h537" style="stroke: rgb(255, 255, 255); stroke-opacity: 1; stroke-width: 1px;"/><path class="ygrid crisp" transform="translate(0,148.32999999999998)" d="M80,0h537" style="stroke: rgb(255, 255, 255); stroke-opacity: 1; stroke-width: 1px;"/><path class="ygrid crisp" transform="translate(0,107.54)" d="M80,0h537" style="stroke: rgb(255, 255, 255); stroke-opacity: 1; stroke-width: 1px;"/></g></g><g class="zerolinelayer"/><path class="xlines-below"/><path class="ylines-below"/><g class="overlines-below"/><g class="xaxislayer-below"/><g class="yaxislayer-below"/><g class="overaxes-below"/><g class="plot" transform="translate(80,100)" clip-path="url('#clip96aa9axyplot')"><g class="scatterlayer mlayer"><g class="trace scatter trace2e3c78" style="stroke-miterlimit: 2; opacity: 1;"><g class="fills"/><g class="errorbars"/><g class="lines"><path class="js-line" d="M0,304L1.73,302.65L2.33,252.27L2.92,253.5L3.52,251.9L5.92,251.28L6.52,250.91L7.71,251.65L8.31,250.79L9.51,251.16L10.11,250.79L11.3,250.54L11.9,250.29L13.1,250.04L13.7,249.8L21.48,249.43L22.08,248.93L26.27,247.82L26.87,247.21L28.07,247.33L28.67,246.47L29.87,247.33L30.47,245.85L32.26,244.99L32.86,245.48L33.46,245.11L34.06,245.97L35.26,243.14L35.85,243.63L36.45,243.63L37.05,242.77L40.04,240.05L40.64,241.04L41.24,241.29L41.84,240.18L42.44,238.2L43.04,238.7L43.64,239.68L46.03,235.61L46.63,234.75L47.23,234.01L47.83,234.5L49.02,233.39L49.62,233.64L50.22,235.12L50.82,233.02L53.22,233.64L53.82,231.67L55.01,229.69L55.61,230.43L56.81,229.32L57.41,230.93L58.01,230.68L58.61,229.2L61,225.01L61.6,222.42L62.2,223.03L62.8,221.68L63.4,220.69L63.99,221.43L65.19,221.68L65.79,222.66L68.78,220.44L69.38,220.2L71.78,218.96L72.38,220.07L72.97,220.07L73.57,218.59L75.97,217.11L76.57,216.99L78.36,216.13L78.96,216L80.16,216.13L80.76,215.76L82.55,215.63L83.15,214.77L84.95,212.18L85.55,211.44L86.74,212.43L87.34,211.93L87.94,212.43L88.54,149.79L90.94,148.04L91.53,147.92L93.93,146.8L94.53,146.8L97.52,146.05L98.12,145.68L102.91,145.06L103.51,145.43L107.7,145.68L108.3,145.68L112.49,144.93L113.09,143.94L115.48,144.06L116.08,143.57L117.28,143.69L117.88,143.07L119.67,143.07L120.27,142.07L122.07,140.21L122.67,141.2L124.47,139.59L125.06,140.21L127.46,136.6L128.06,138.22L130.45,135.36L131.05,136.23L132.25,134.74L132.85,135.86L133.44,136.85L134.04,135.98L134.64,136.97L135.24,136.48L135.84,135.61L136.44,136.6L137.63,136.35L138.24,136.73L139.43,136.97L140.03,136.6L142.43,133.12L143.03,133.24L144.23,134.24L144.83,132.37L147.23,131.5L147.83,129.88L150.22,130.38L150.82,129.14L151.42,127.02L152.02,128.52L152.62,128.52L153.21,127.4L153.81,128.27L154.41,127.77L155.61,126.03L156.21,126.15L158,123.17L158.6,123.29L159.8,121.05L160.4,121.8L161.59,119.81L162.19,120.31L163.99,119.69L164.59,117.2L165.19,117.07L165.78,116.08L166.98,114.96L167.58,115.21L168.78,116.95L169.38,116.33L169.98,118.19L170.58,117.45L171.18,117.32L171.77,115.83L172.97,115.95L173.57,115.83L174.17,116.2L174.77,72.54L176.56,70.53L177.16,70.28L180.75,68.27L181.35,68.02L184.35,65.89L184.95,65.89L186.14,66.01L186.74,65.39L189.74,65.26L190.33,65.39L199.91,63.51L200.51,63.88L202.31,62.88L202.9,63L203.51,63.25L204.1,62.5L207.69,61.87L208.89,61.37L209.49,60.12L210.69,59.74L211.88,59.37L212.48,57.74L213.08,58.86L213.68,57.74L214.88,57.74L215.48,57.11L216.08,56.98L216.67,55.85L218.47,55.6L219.07,54.1L221.45,50.46L222.04,51.09L223.84,50.08L224.44,48.45L226.83,47.83L227.43,45.94L228.03,45.32L228.63,45.82L231.03,44.57L231.62,43.56L232.82,43.56L233.42,44.06L234.62,45.57L235.22,43.81L236.42,44.94L237.02,43.06L238.21,43.19L238.81,43.56L240.61,41.81L241.21,42.18L242.4,40.55L243,39.55L243.6,37.16L244.2,37.67L244.79,36.29L245.39,37.67L245.99,36.16L247.19,35.66L247.79,34.41L249.59,34.91L250.18,33.9L250.78,34.41L251.38,32.9L252.58,32.77L253.18,31.77L255.57,32.15L256.17,31.27L257.37,31.14L257.97,31.27L259.17,29.39L259.76,30.02L260.37,29.76L260.96,177.95L263.96,177.56L264.56,178.21L266.35,177.17L266.95,177.17L268.15,176L268.75,176L270.54,175.35L271.14,175.35L275.33,174.96L275.93,174.96L280.12,174.7L280.72,174.7L283.11,173.79L283.72,174.05L287.3,173.26L287.9,173.13L290.3,171.44L290.89,170.92L292.69,170.53L293.29,169.23L295.71,168.97L296.31,170.14L297.5,168.32L298.1,168.19L298.7,167.54L299.3,165.19L299.9,163.37L300.5,163.63L301.1,162.98L301.69,161.29L302.29,161.81L302.89,161.16L304.09,161.29L304.69,160.38L305.89,159.72L306.49,160.64L308.28,158.03L308.88,158.94L310.68,156.34L311.28,156.34L311.87,155.56L312.47,156.6L313.67,157.51L314.27,156.6L314.87,156.73L315.47,155.95L318.46,151.91L319.06,151.39L320.25,151L320.86,152.43L324.45,149.44L325.05,151.13L326.25,130.43L326.84,130.04L328.04,129.39L328.64,124.83L329.24,124.96L329.83,121.19L330.44,121.45L331.03,118.98L331.63,116.11L332.23,117.02L334.03,110.64L334.63,107.65L335.83,107.13L336.42,105.05L337.02,104.52L337.62,101.92L340.62,96.06L341.21,95.8L343.01,93.07L343.61,90.59L346.6,85.65L347.2,98.46L350.2,94.26L350.8,94.65L351.39,94.52L351.99,95.31L353.19,94.92L353.79,95.57L355.58,94.65L356.18,94.79L357.38,94.26L357.98,94.39L364.56,93.74L365.17,93.6L374.74,93.6L375.34,94.13L378.33,90.32L378.93,90.58L380.73,89.27L381.33,89.4L381.93,89.01L382.52,87.43L383.72,87.69L384.32,86.25L387.32,83.23L387.91,83.62L389.71,80.34L390.31,79.95L392.1,77.45L392.7,77.45L393.9,74.96L394.5,74.96L395.7,73.12L396.3,71.02L398.69,66.03L399.29,65.63L399.89,65.24L400.49,63.14L402.88,61.3L403.48,59.73L407.07,58.81L407.67,57.76L408.27,58.15L408.87,57.49L409.47,57.89L414.26,53.42L417.25,50.93L417.85,51.58L420.25,48.43L420.85,48.3L421.45,46.99L422.04,47.51L423.24,46.46L423.84,46.73L424.44,47.78L425.04,46.86L427.43,45.54L428.03,46.46L430.42,45.81L431.02,44.76L432.82,42.52L433.42,91.61L434.61,92.02L435.22,90.95L435.81,90.28L436.41,90.81L438.21,90.81L438.81,91.75L441.2,91.48L441.8,91.61L443.6,91.75L444.2,91.75L447.19,90.28L447.79,90.68L453.78,90.01L454.38,90.01L460.96,89.74L461.56,89.61L464.55,89.21L465.15,88.81L466.35,88.27L466.95,87.33L468.14,86.93L468.74,85.6L469.34,84.26L469.94,85.6L472.33,84.66L472.93,84.66L474.13,82.65L474.73,82.39L476.53,79.58L477.13,79.44L478.92,79.04L479.52,78.24L480.72,77.57L481.32,77.7L482.51,76.23L483.11,75.56L485.51,74.63L486.11,75.03L486.7,74.49L487.3,75.16L488.5,71.82L489.1,72.09L489.7,72.09L491.49,71.55L492.09,70.35L495.09,67.94L495.69,68.21L499.28,65.8L499.88,64.86L500.48,65.27L501.07,64.46L502.27,64.6L502.87,64.46L504.07,63.66L504.67,62.86L506.46,61.79L507.06,60.32L509.46,58.85L510.06,57.11L511.26,55.23L511.85,55.9L514.85,54.03L515.44,54.03L516.64,52.69L517.24,52.69L519.04,52.69L519.64,20.05L524.43,16.54L525.02,16.67L526.82,16.4L527.42,16L529.82,16.81L530.41,16.81L535.2,16.54L535.8,16.4L537,16.27" style="vector-effect: non-scaling-stroke; fill: none; stroke: rgb(99, 110, 250); stroke-opacity: 1; stroke-width: 2px; opacity: 1;"/></g><g class="points"/><g class="text"/></g></g></g><g class="overplot"/><path class="xlines-above crisp" d="M0,0" style="fill: none;"/><path class="ylines-above crisp" d="M0,0" style="fill: none;"/><g class="overlines-above"/><g class="xaxislayer-above"><g class="xtick"><text text-anchor="middle" x="0" y="433" transform="translate(82.24,0)" style="font-family: 'Open Sans', verdana, arial, sans-serif; font-size: 12px; fill: rgb(42, 63, 95); fill-opacity: 1; white-space: pre;"><tspan class="line" dy="0em" x="0" y="433">Aug 3</tspan><tspan class="line" dy="1.3em" x="0" y="433">2021</tspan></text></g><g class="xtick"><text text-anchor="middle" x="0" y="433" transform="translate(168.45999999999998,0)" style="font-family: 'Open Sans', verdana, arial, sans-serif; font-size: 12px; fill: rgb(42, 63, 95); fill-opacity: 1; white-space: pre;">Aug 4</text></g><g class="xtick"><text text-anchor="middle" x="0" y="433" transform="translate(254.67,0)" style="font-family: 'Open Sans', verdana, arial, sans-serif; font-size: 12px; fill: rgb(42, 63, 95); fill-opacity: 1; white-space: pre;">Aug 5</text></g><g class="xtick"><text text-anchor="middle" x="0" y="433" transform="translate(340.89,0)" style="font-family: 'Open Sans', verdana, arial, sans-serif; font-size: 12px; fill: rgb(42, 63, 95); fill-opacity: 1; white-space: pre;">Aug 6</text></g><g class="xtick"><text text-anchor="middle" x="0" y="433" transform="translate(427.11,0)" style="font-family: 'Open Sans', verdana, arial, sans-serif; font-size: 12px; fill: rgb(42, 63, 95); fill-opacity: 1; white-space: pre;">Aug 7</text></g><g class="xtick"><text text-anchor="middle" x="0" y="433" transform="translate(513.3299999999999,0)" style="font-family: 'Open Sans', verdana, arial, sans-serif; font-size: 12px; fill: rgb(42, 63, 95); fill-opacity: 1; white-space: pre;">Aug 8</text></g><g class="xtick"><text text-anchor="middle" x="0" y="433" transform="translate(599.54,0)" style="font-family: 'Open Sans', verdana, arial, sans-serif; font-size: 12px; fill: rgb(42, 63, 95); fill-opacity: 1; white-space: pre;">Aug 9</text></g></g><g class="yaxislayer-above"><g class="ytick"><text text-anchor="end" x="79" y="4.199999999999999" transform="translate(0,393.08)" style="font-family: 'Open Sans', verdana, arial, sans-serif; font-size: 12px; fill: rgb(42, 63, 95); fill-opacity: 1; white-space: pre;">0.864</text></g><g class="ytick"><text text-anchor="end" x="79" y="4.199999999999999" transform="translate(0,352.28999999999996)" style="font-family: 'Open Sans', verdana, arial, sans-serif; font-size: 12px; fill: rgb(42, 63, 95); fill-opacity: 1; white-space: pre;">0.865</text></g><g class="ytick"><text text-anchor="end" x="79" y="4.199999999999999" transform="translate(0,311.5)" style="font-family: 'Open Sans', verdana, arial, sans-serif; font-size: 12px; fill: rgb(42, 63, 95); fill-opacity: 1; white-space: pre;">0.866</text></g><g class="ytick"><text text-anchor="end" x="79" y="4.199999999999999" transform="translate(0,270.71000000000004)" style="font-family: 'Open Sans', verdana, arial, sans-serif; font-size: 12px; fill: rgb(42, 63, 95); fill-opacity: 1; white-space: pre;">0.867</text></g><g class="ytick"><text text-anchor="end" x="79" y="4.199999999999999" transform="translate(0,229.92)" style="font-family: 'Open Sans', verdana, arial, sans-serif; font-size: 12px; fill: rgb(42, 63, 95); fill-opacity: 1; white-space: pre;">0.868</text></g><g class="ytick"><text text-anchor="end" x="79" y="4.199999999999999" transform="translate(0,189.12)" style="font-family: 'Open Sans', verdana, arial, sans-serif; font-size: 12px; fill: rgb(42, 63, 95); fill-opacity: 1; white-space: pre;">0.869</text></g><g class="ytick"><text text-anchor="end" x="79" y="4.199999999999999" transform="translate(0,148.32999999999998)" style="font-family: 'Open Sans', verdana, arial, sans-serif; font-size: 12px; fill: rgb(42, 63, 95); fill-opacity: 1; white-space: pre;">0.87</text></g><g class="ytick"><text text-anchor="end" x="79" y="4.199999999999999" transform="translate(0,107.54)" style="font-family: 'Open Sans', verdana, arial, sans-serif; font-size: 12px; fill: rgb(42, 63, 95); fill-opacity: 1; white-space: pre;">0.871</text></g></g><g class="overaxes-above"/></g></g><g class="polarlayer"/><g class="ternarylayer"/><g class="geolayer"/><g class="funnelarealayer"/><g class="pielayer"/><g class="treemaplayer"/><g class="sunburstlayer"/><g class="glimages"/><defs id="topdefs-96aa9a"><g class="clips"/><clipPath id="legend96aa9a"><rect width="60" height="45" x="0" y="0"/></clipPath></defs><g class="layer-above"><g class="imagelayer"/><g class="shapelayer"/></g><g class="infolayer"><g class="legend" pointer-events="all" transform="translate(627.74,100)"><rect class="bg" shape-rendering="crispEdges" width="60" height="45" x="0" y="0" style="stroke: rgb(68, 68, 68); stroke-opacity: 1; fill: rgb(255, 255, 255); fill-opacity: 1; stroke-width: 0px;"/><g class="scrollbox" transform="" clip-path="url('#legend96aa9a')"><text class="legendtitletext" text-anchor="start" x="2" y="15.600000000000001" style="font-family: 'Open Sans', verdana, arial, sans-serif; font-size: 12px; fill: rgb(42, 63, 95); fill-opacity: 1; white-space: pre;">All</text><g class="groups" transform=""><g class="traces" transform="translate(0,30.1)" style="opacity: 1;"><text class="legendtext" text-anchor="start" x="40" y="4.680000000000001" style="font-family: 'Open Sans', verdana, arial, sans-serif; font-size: 12px; fill: rgb(42, 63, 95); fill-opacity: 1; white-space: pre;">All</text><g class="layers" style="opacity: 1;"><g class="legendfill"/><g class="legendlines"><path class="js-line" d="M5,0h30" style="fill: none; stroke: rgb(99, 110, 250); stroke-opacity: 1; stroke-width: 2px;"/></g><g class="legendsymbols"><g class="legendpoints"/></g></g><rect class="legendtoggle" x="0" y="-9.5" width="54.890625" height="19" style="fill: rgb(0, 0, 0); fill-opacity: 0;"/></g></g></g><rect class="scrollbar" rx="20" ry="3" width="0" height="0" x="0" y="0" style="fill: rgb(128, 139, 164); fill-opacity: 1;"/></g><g class="g-gtitle"><text class="gtitle" x="35" y="50" text-anchor="start" dy="0em" style="font-family: 'Open Sans', verdana, arial, sans-serif; font-size: 17px; fill: rgb(42, 63, 95); opacity: 1; font-weight: normal; white-space: pre;">Singapore Vaccination Centers</text></g><g class="g-xtitle"><text class="xtitle" x="348.5" y="476.409375" text-anchor="middle" style="font-family: 'Open Sans', verdana, arial, sans-serif; font-size: 14px; fill: rgb(42, 63, 95); opacity: 1; font-weight: normal; white-space: pre;">Time</text></g><g class="g-ytitle"><text class="ytitle" transform="rotate(-90,19.840625000000003,260)" x="19.840625000000003" y="260" text-anchor="middle" style="font-family: 'Open Sans', verdana, arial, sans-serif; font-size: 14px; fill: rgb(42, 63, 95); opacity: 1; font-weight: normal; white-space: pre;">Filled/%</text></g></g></svg>