<svg class="main-svg" xmlns="http://www.w3.org/2000/svg" xmlns:xlink="http://www.w3.org/1999/xlink" width="700" height="500" style="" viewBox="0 0 700 500"><rect x="0" y="0" width="700" height="500" style="fill: rgb(255, 255, 255); fill-opacity: 1;"/><defs id="defs-a8f81a"><g class="clips"><clipPath id="clipa8f81axyplot" class="plotclip"><rect width="537" height="320"/></clipPath><clipPath class="axesclip" id="clipa8f81ax"><rect x="80" y="0" width="537" height="500"/></clipPath><clipPath class="axesclip" id="clipa8f81ay"><rect x="0" y="100" width="700" height="320"/></clipPath><clipPath class="axesclip" id="clipa8f81axy"><rect x="80" y="100" width="537" height="320"/></clipPath></g><g class="gradients"/></defs><g class="bglayer"><rect class="bg" x="80" y="100" width="537" height="320" style="fill: rgb(229, 236, 246); fill-opacity: 1; stroke-width: 0;"/></g><g class="layer-below"><g class="imagelayer"/><g class="shapelayer"/></g><g class="cartesianlayer"><g class="subplot xy"><g class="layer-subplot"><g class="shapelayer"/><g class="imagelayer"/></g><g class="gridlayer"><g class="x"><path class="xgrid crisp" transform="translate(90.99,0)" d="M0,100v320" style="stroke: rgb(255, 255, 255); stroke-opacity: 1; stroke-width: 1px;"/><path class="xgrid crisp" transform="translate(209.33,0)" d="M0,100v320" style="stroke: rgb(255, 255, 255); stroke-opacity: 1; stroke-width: 1px;"/><path class="xgrid crisp" transform="translate(327.66999999999996,0)" d="M0,100v320" style="stroke: rgb(255, 255, 255); stroke-opacity: 1; stroke-width: 1px;"/><path class="xgrid crisp" transform="translate(446.01,0)" d="M0,100v320" style="stroke: rgb(255, 255, 255); stroke-opacity: 1; stroke-width: 1px;"/><path class="xgrid crisp" transform="translate(564.35,0)" d="M0,100v320" style="stroke: rgb(255, 255, 255); stroke-opacity: 1; stroke-width: 1px;"/></g><g class="y"><path class="ygrid crisp" transform="translate(0,367.23)" d="M80,0h537" style="stroke: rgb(255, 255, 255); stroke-opacity: 1; stroke-width: 1px;"/><path class="ygrid crisp" transform="translate(0,308.43)" d="M80,0h537" style="stroke: rgb(255, 255, 255); stroke-opacity: 1; stroke-width: 1px;"/><path class="ygrid crisp" transform="translate(0,249.63)" d="M80,0h537" style="stroke: rgb(255, 255, 255); stroke-opacity: 1; stroke-width: 1px;"/><path class="ygrid crisp" transform="translate(0,190.82999999999998)" d="M80,0h537" style="stroke: rgb(255, 255, 255); stroke-opacity: 1; stroke-width: 1px;"/><path class="ygrid crisp" transform="translate(0,132.03)" d="M80,0h537" style="stroke: rgb(255, 255, 255); stroke-opacity: 1; stroke-width: 1px;"/></g></g><g class="zerolinelayer"/><path class="xlines-below"/><path class="ylines-below"/><g class="overlines-below"/><g class="xaxislayer-below"/><g class="yaxislayer-below"/><g class="overaxes-below"/><g class="plot" transform="translate(80,100)" clip-path="url('#clipa8f81axyplot')"><g class="scatterlayer mlayer"><g class="trace scatter trace94e1fc" style="stroke-miterlimit: 2; opacity: 1;"><g class="fills"/><g class="errorbars"/><g class="lines"><path class="js-line" d="M0,82.28L6.94,82.51L9.4,120.48L14.31,120.57L16.12,136.92L16.89,136.9L35.04,137.96L36.17,121.23L36.51,129.62L37.34,129.56L38.98,126.37L39.8,126.27L41.45,129.79L42.27,129.7L43.91,132.71L44.73,132.63L46.38,120.69L47.2,120.62L48.84,132.64L49.66,132.55L51.31,126.68L52.13,123.32L53.77,113.21L54.59,109.51L56.24,94.58L57.06,92.89L58.7,74.17L59.52,72.87L61.17,78.78L61.99,77.73L63.63,63.68L64.45,62.82L66.1,65.47L66.92,64.83L68.56,74.27L69.39,73.83L70.47,51.83L71.03,52.53L71.85,52.34L80.07,51.79L80.89,51.79L93.22,50.91L94.04,50.65L122.8,42.03L123.62,41.83L128.56,40.95L129.38,41.79L143.35,41.47L144.17,41.46L156.49,40.8L157.32,40.69L187.72,36.83L188.55,35.53L220.6,34L221.42,33.87L246.9,31.05L247.72,28.56L275.66,27.81L276.48,95.38L285.55,93.57L286.35,93.44L287.17,93.12L287.99,91.51L290.45,88.51L291.28,87.52L295.38,73.59L296.2,72.39L301.14,67.88L301.96,67.37L306.07,65.43L306.89,65.5L312.64,64.8L313.47,64.77L331.54,63.66L332.37,63.48L338.12,61.32L338.94,60.89L339.76,60.46L340.58,62.78L343.87,61.15L344.69,59.94L349.62,53.24L350.45,52.44L353.73,47.98L354.55,45.51L357.84,38.66L358.66,37.65L362.77,33.5L363.59,32.89L366.88,31.98L367.7,31.8L374.28,31.18L375.1,31.16L387.43,30.17L388.25,29.9L393.18,28.09L394,74.81L395.64,73.22L396.47,72.76L404.68,69.16L405.51,68.8L406.14,71.93L406.33,68.39L407.11,68.25L407.15,69.25L407.93,67.95L407.97,68.94L408.79,68.62L410.44,68.09L411.26,76.43L418.45,73.91L418.49,72.31L418.53,72.03L418.66,73.74L426.46,44.74L426.87,44.87L427.29,41.95L428.11,42.12L428.52,43.2L429.75,37.43L430.16,41.6L431.39,39.66L431.81,39.05L433.04,38.13L433.45,38.96L433.86,38.26L434.27,38.53L434.68,38.42L435.92,38.4L436.33,43.02L440.84,41.69L441.25,36.5L442.08,35.76L442.49,35.39L443.72,33.79L444.13,33.41L447.42,22.43L447.83,16L448.24,16.8L448.65,140.18L449.06,139.22L449.47,142.07L450.29,136.79L450.71,138.99L451.53,136.15L451.94,136.63L452.35,141.25L452.76,146.68L453.17,133.42L453.99,138.09L454.4,157.2L455.64,133.53L456.05,145.44L456.46,148.42L456.87,146.68L457.28,144.02L458.1,134.36L458.51,135.71L458.92,141.84L459.33,146.05L459.74,142.1L460.16,141.74L460.56,151.77L461.39,140.84L461.8,148.68L462.62,127.07L463.03,137.58L463.85,140.49L464.26,138.92L465.09,130.34L465.5,131.67L465.91,129.31L466.32,138.25L466.73,134.05L467.14,138.68L467.55,138.81L467.96,131.49L468.37,131.42L468.78,140.05L469.61,132.48L470.02,138.41L470.84,141.46L471.25,128.79L472.07,142.96L472.49,264.58L473.31,292.55L473.72,293.12L474.13,304L474.54,286.22L474.95,301.52L475.36,291.75L475.77,292.1L476.18,291.07L476.59,294.16L477,293.46L477.41,276.02L477.83,283.67L478.24,262.28L479.06,272.54L479.47,248.89L480.29,241.71L480.7,229.6L481.11,224.98L481.52,228.24L481.93,227.36L483.17,215.22L483.58,217.06L483.99,216.4L484.4,227.08L484.81,226.08L485.22,228.38L485.63,228.68L486.04,224.72L486.45,233.57L486.86,224.28L487.69,227.75L488.1,223.07L488.92,226.33L489.33,223.26L489.74,224.52L490.15,234.01L490.56,220.81L490.98,231.91L492.21,220.15L492.62,220.86L493.85,212.72L494.26,220.76L495.09,220.72L495.49,223.7L495.91,223.67L496.32,219.37L496.73,223.08L497.14,218.62L497.55,226.76L497.96,225.2L498.37,224.19L498.78,219.51L499.19,225.16L500.42,225.11L500.83,216.49L501.25,225.05L501.66,220.43L502.07,220.57L502.48,218.19L502.89,220.92L503.3,219.84L503.71,227.36L504.12,216.65L504.53,220.1L504.94,220.01L505.77,220.98L506.17,218.78L507,223.64L507.41,218.66L507.82,205.85L508.23,215.25L508.64,220.32L509.05,206.18L509.46,206.81L509.87,214.16L510.29,214.11L510.7,206.99L511.52,212.47L511.93,202.23L512.34,199.24L512.76,208.71L513.17,224.84L513.57,215.2L513.98,214.49L514.4,205.74L514.8,219.6L515.63,195.82L516.04,209.77L516.45,208.24L516.86,203.32L517.27,202.05L517.68,205.17L518.09,200.81L518.5,208.16L518.91,206.35L519.33,209.96L519.74,207.44L520.14,196.45L520.56,195.36L520.97,196.45L521.79,209.39L522.2,202.33L522.61,210.92L523.02,197.09L523.43,197.31L523.84,191.05L524.25,191.24L524.67,196.07L525.08,200.65L525.49,194.37L526.72,210.5L527.13,204.27L527.95,191.94L528.36,193.62L528.77,197L529.19,205.03L529.6,197.14L530.01,198.57L530.42,192.99L531.65,184.28L532.06,189.51L532.88,194.59L533.3,189.23L533.71,191.91L534.12,189.81L534.53,182.31L534.94,187.7L535.35,187L535.76,183.28L536.17,186.18L536.58,185.69L537,181.61" style="vector-effect: non-scaling-stroke; fill: none; stroke: rgb(99, 110, 250); stroke-opacity: 1; stroke-width: 2px; opacity: 1;"/></g><g class="points"/><g class="text"/></g></g></g><g class="overplot"/><path class="xlines-above crisp" d="M0,0" style="fill: none;"/><path class="ylines-above crisp" d="M0,0" style="fill: none;"/><g class="overlines-above"/><g class="xaxislayer-above"><g class="xtick"><text text-anchor="middle" x="0" y="433" transform="translate(90.99,0)" style="font-family: 'Open Sans', verdana, arial, sans-serif; font-size: 12px; fill: rgb(42, 63, 95); fill-opacity: 1; white-space: pre;"><tspan class="line" dy="0em" x="0" y="433">Jun 4</tspan><tspan class="line" dy="1.3em" x="0" y="433">2021</tspan></text></g><g class="xtick"><text text-anchor="middle" x="0" y="433" transform="translate(209.33,0)" style="font-family: 'Open Sans', verdana, arial, sans-serif; font-size: 12px; fill: rgb(42, 63, 95); fill-opacity: 1; white-space: pre;">Jun 6</text></g><g class="xtick"><text text-anchor="middle" x="0" y="433" transform="translate(327.66999999999996,0)" style="font-family: 'Open Sans', verdana, arial, sans-serif; font-size: 12px; fill: rgb(42, 63, 95); fill-opacity: 1; white-space: pre;">Jun 8</text></g><g class="xtick"><text text-anchor="middle" x="0" y="433" transform="translate(446.01,0)" style="font-family: 'Open Sans', verdana, arial, sans-serif; font-size: 12px; fill: rgb(42, 63, 95); fill-opacity: 1; white-space: pre;">Jun 10</text></g><g class="xtick"><text text-anchor="middle" x="0" y="433" transform="translate(564.35,0)" style="font-family: 'Open Sans', verdana, arial, sans-serif; font-size: 12px; fill: rgb(42, 63, 95); fill-opacity: 1; white-space: pre;">Jun 12</text></g></g><g class="yaxislayer-above"><g class="ytick"><text text-anchor="end" x="79" y="4.199999999999999" transform="translate(0,367.23)" style="font-family: 'Open Sans', verdana, arial, sans-serif; font-size: 12px; fill: rgb(42, 63, 95); fill-opacity: 1; white-space: pre;">0.8</text></g><g class="ytick"><text text-anchor="end" x="79" y="4.199999999999999" transform="translate(0,308.43)" style="font-family: 'Open Sans', verdana, arial, sans-serif; font-size: 12px; fill: rgb(42, 63, 95); fill-opacity: 1; white-space: pre;">0.82</text></g><g class="ytick"><text text-anchor="end" x="79" y="4.199999999999999" transform="translate(0,249.63)" style="font-family: 'Open Sans', verdana, arial, sans-serif; font-size: 12px; fill: rgb(42, 63, 95); fill-opacity: 1; white-space: pre;">0.84</text></g><g class="ytick"><text text-anchor="end" x="79" y="4.199999999999999" transform="translate(0,190.82999999999998)" style="font-family: 'Open Sans', verdana, arial, sans-serif; font-size: 12px; fill: rgb(42, 63, 95); fill-opacity: 1; white-space: pre;">0.86</text></g><g class="ytick"><text text-anchor="end" x="79" y="4.199999999999999" transform="translate(0,132.03)" style="font-family: 'Open Sans', verdana, arial, sans-serif; font-size: 12px; fill: rgb(42, 63, 95); fill-opacity: 1; white-space: pre;">0.88</text></g></g><g class="overaxes-above"/></g></g><g class="polarlayer"/><g class="ternarylayer"/><g class="geolayer"/><g class="funnelarealayer"/><g class="pielayer"/><g class="treemaplayer"/><g class="sunburstlayer"/><g class="glimages"/><defs id="topdefs-a8f81a"><g class="clips"/><clipPath id="legenda8f81a"><rect width="60" height="45" x="0" y="0"/></clipPath></defs><g class="layer-above"><g class="imagelayer"/><g class="shapelayer"/></g><g class="infolayer"><g class="legend" pointer-events="all" transform="translate(627.74,100)"><rect class="bg" shape-rendering="crispEdges" width="60" height="45" x="0" y="0" style="stroke: rgb(68, 68, 68); stroke-opacity: 1; fill: rgb(255, 255, 255); fill-opacity: 1; stroke-width: 0px;"/><g class="scrollbox" transform="" clip-path="url('#legenda8f81a')"><text class="legendtitletext" text-anchor="start" x="2" y="15.600000000000001" style="font-family: 'Open Sans', verdana, arial, sans-serif; font-size: 12px; fill: rgb(42, 63, 95); fill-opacity: 1; white-space: pre;">All</text><g class="groups" transform=""><g class="traces" transform="translate(0,30.1)" style="opacity: 1;"><text class="legendtext" text-anchor="start" x="40" y="4.680000000000001" style="font-family: 'Open Sans', verdana, arial, sans-serif; font-size: 12px; fill: rgb(42, 63, 95); fill-opacity: 1; white-space: pre;">All</text><g class="layers" style="opacity: 1;"><g class="legendfill"/><g class="legendlines"><path class="js-line" d="M5,0h30" style="fill: none; stroke: rgb(99, 110, 250); stroke-opacity: 1; stroke-width: 2px;"/></g><g class="legendsymbols"><g class="legendpoints"/></g></g><rect class="legendtoggle" x="0" y="-9.5" width="54.890625" height="19" style="fill: rgb(0, 0, 0); fill-opacity: 0;"/></g></g></g><rect class="scrollbar" rx="20" ry="3" width="0" height="0" x="0" y="0" style="fill: rgb(128, 139, 164); fill-opacity: 1;"/></g><g class="g-gtitle"><text class="gtitle" x="35" y="50" text-anchor="start" dy="0em" style="font-family: 'Open Sans', verdana, arial, sans-serif; font-size: 17px; fill: rgb(42, 63, 95); opacity: 1; font-weight: normal; white-space: pre;">Singapore Vaccination Centers</text></g><g class="g-xtitle"><text class="xtitle" x="348.5" y="476.409375" text-anchor="middle" style="font-family: 'Open Sans', verdana, arial, sans-serif; font-size: 14px; fill: rgb(42, 63, 95); opacity: 1; font-weight: normal; white-space: pre;">Time</text></g><g class="g-ytitle"><text class="ytitle" transform="rotate(-90,27.481250000000003,260)" x="27.481250000000003" y="260" text-anchor="middle" style="font-family: 'Open Sans', verdana, arial, sans-serif; font-size: 14px; fill: rgb(42, 63, 95); opacity: 1; font-weight: normal; white-space: pre;">Filled/%</text></g></g></svg>