<svg class="main-svg" xmlns="http://www.w3.org/2000/svg" xmlns:xlink="http://www.w3.org/1999/xlink" width="700" height="500" style="" viewBox="0 0 700 500"><rect x="0" y="0" width="700" height="500" style="fill: rgb(255, 255, 255); fill-opacity: 1;"/><defs id="defs-a59a79"><g class="clips"><clipPath id="clipa59a79xyplot" class="plotclip"><rect width="537" height="320"/></clipPath><clipPath class="axesclip" id="clipa59a79x"><rect x="80" y="0" width="537" height="500"/></clipPath><clipPath class="axesclip" id="clipa59a79y"><rect x="0" y="100" width="700" height="320"/></clipPath><clipPath class="axesclip" id="clipa59a79xy"><rect x="80" y="100" width="537" height="320"/></clipPath></g><g class="gradients"/></defs><g class="bglayer"><rect class="bg" x="80" y="100" width="537" height="320" style="fill: rgb(229, 236, 246); fill-opacity: 1; stroke-width: 0;"/></g><g class="layer-below"><g class="imagelayer"/><g class="shapelayer"/></g><g class="cartesianlayer"><g class="subplot xy"><g class="layer-subplot"><g class="shapelayer"/><g class="imagelayer"/></g><g class="gridlayer"><g class="x"><path class="xgrid crisp" transform="translate(82.04,0)" d="M0,100v320" style="stroke: rgb(255, 255, 255); stroke-opacity: 1; stroke-width: 1px;"/><path class="xgrid crisp" transform="translate(160.8,0)" d="M0,100v320" style="stroke: rgb(255, 255, 255); stroke-opacity: 1; stroke-width: 1px;"/><path class="xgrid crisp" transform="translate(239.55,0)" d="M0,100v320" style="stroke: rgb(255, 255, 255); stroke-opacity: 1; stroke-width: 1px;"/><path class="xgrid crisp" transform="translate(318.31,0)" d="M0,100v320" style="stroke: rgb(255, 255, 255); stroke-opacity: 1; stroke-width: 1px;"/><path class="xgrid crisp" transform="translate(397.06,0)" d="M0,100v320" style="stroke: rgb(255, 255, 255); stroke-opacity: 1; stroke-width: 1px;"/><path class="xgrid crisp" transform="translate(475.81,0)" d="M0,100v320" style="stroke: rgb(255, 255, 255); stroke-opacity: 1; stroke-width: 1px;"/><path class="xgrid crisp" transform="translate(554.5699999999999,0)" d="M0,100v320" style="stroke: rgb(255, 255, 255); stroke-opacity: 1; stroke-width: 1px;"/></g><g class="y"><path class="ygrid crisp" transform="translate(0,394.03)" d="M80,0h537" style="stroke: rgb(255, 255, 255); stroke-opacity: 1; stroke-width: 1px;"/><path class="ygrid crisp" transform="translate(0,356.8)" d="M80,0h537" style="stroke: rgb(255, 255, 255); stroke-opacity: 1; stroke-width: 1px;"/><path class="ygrid crisp" transform="translate(0,319.57)" d="M80,0h537" style="stroke: rgb(255, 255, 255); stroke-opacity: 1; stroke-width: 1px;"/><path class="ygrid crisp" transform="translate(0,282.33000000000004)" d="M80,0h537" style="stroke: rgb(255, 255, 255); stroke-opacity: 1; stroke-width: 1px;"/><path class="ygrid crisp" transform="translate(0,245.1)" d="M80,0h537" style="stroke: rgb(255, 255, 255); stroke-opacity: 1; stroke-width: 1px;"/><path class="ygrid crisp" transform="translate(0,207.87)" d="M80,0h537" style="stroke: rgb(255, 255, 255); stroke-opacity: 1; stroke-width: 1px;"/><path class="ygrid crisp" transform="translate(0,170.64)" d="M80,0h537" style="stroke: rgb(255, 255, 255); stroke-opacity: 1; stroke-width: 1px;"/><path class="ygrid crisp" transform="translate(0,133.4)" d="M80,0h537" style="stroke: rgb(255, 255, 255); stroke-opacity: 1; stroke-width: 1px;"/></g></g><g class="zerolinelayer"/><path class="xlines-below"/><path class="ylines-below"/><g class="overlines-below"/><g class="xaxislayer-below"/><g class="yaxislayer-below"/><g class="overaxes-below"/><g class="plot" transform="translate(80,100)" clip-path="url('#clipa59a79xyplot')"><g class="scatterlayer mlayer"><g class="trace scatter trace5f67d5" style="stroke-miterlimit: 2; opacity: 1;"><g class="fills"/><g class="errorbars"/><g class="lines"><path class="js-line" d="M0,304L1.58,302.77L2.12,256.78L2.67,257.9L3.22,256.44L5.4,255.88L5.95,255.54L7.05,256.22L7.59,255.43L8.69,255.76L9.23,255.43L10.33,255.2L10.87,254.98L11.97,254.75L12.52,254.53L19.62,254.19L20.17,253.74L24,252.73L24.54,252.16L25.64,252.27L26.18,251.49L27.28,252.27L27.83,250.92L29.47,250.14L30.01,250.59L30.56,250.25L31.11,251.04L32.2,248.45L32.75,248.9L33.29,248.9L34.94,247.77L35.48,247.1L36.58,245.63L37.12,246.53L37.67,246.76L38.22,245.75L38.76,243.94L39.31,244.39L39.86,245.29L42.05,241.58L42.59,240.79L44.23,239.89L44.78,239.55L45.33,239.78L45.87,241.13L46.42,239.22L46.97,239.55L47.52,239.33L48.61,239.78L49.16,237.98L50.25,236.18L50.8,236.85L51.89,235.84L52.44,237.3L52.98,237.08L53.53,235.73L55.72,231.9L56.27,229.53L56.81,230.1L57.36,228.86L57.91,227.96L58.45,228.63L59.55,228.86L60.09,229.76L62.83,227.73L63.38,227.51L65.56,226.38L66.11,227.39L66.66,227.39L67.2,226.04L69.39,224.69L69.94,224.58L71.58,223.79L72.12,223.68L73.22,223.79L73.77,223.45L75.41,223.34L75.95,222.55L77.6,220.19L78.14,219.51L79.23,220.41L79.78,219.96L80.33,220.41L80.88,163.24L83.07,161.65L83.61,161.54L85.8,160.51L86.35,160.51L89.08,159.83L89.63,159.49L94.55,159.26L95.1,159.38L100.56,159.38L101.11,158.81L102.75,158.81L103.3,157.9L105.48,158.02L106.03,157.56L107.13,157.68L107.67,157.11L109.31,157.11L109.86,156.2L111.5,154.5L112.05,155.4L113.69,153.93L114.24,154.5L116.42,151.2L116.97,152.68L119.16,150.07L119.71,150.86L120.8,149.5L121.34,150.52L121.89,151.43L122.44,150.64L122.99,151.54L123.53,151.09L124.08,150.3L124.63,151.2L125.17,150.64L127.36,151.54L127.91,151.2L130.1,148.03L130.65,148.14L131.74,149.05L132.29,147.34L134.48,146.55L135.03,145.07L137.21,145.53L137.76,144.39L138.31,142.46L138.86,143.82L139.41,143.82L139.95,142.8L140.5,143.6L141.04,143.14L141.59,142.12L145.42,138.15L145.97,137.01L146.51,137.69L147.06,136.9L147.61,135.88L148.15,136.33L148.7,135.99L149.79,135.76L150.34,133.49L150.89,133.38L151.43,132.47L152.53,131.45L153.08,131.68L154.17,133.27L154.72,132.7L155.27,134.4L155.81,133.72L156.36,133.61L157.45,131.9L158,132.36L159.09,132.59L159.64,92.73L161.28,90.9L161.82,90.67L166.75,87.8L167.29,87.69L168.39,86.66L168.94,86.66L170.03,86.77L170.58,86.2L182.61,84.48L183.15,84.83L184.79,83.91L185.34,84.03L185.89,84.26L186.43,83.57L189.71,83L190.81,82.54L191.36,81.39L192.45,81.05L193.54,80.71L194.09,79.22L194.64,80.25L195.18,79.22L196.28,79.22L196.82,78.65L197.37,78.53L197.92,77.5L199.56,77.27L200.11,75.9L202.28,72.58L202.82,73.15L204.46,72.23L205.01,70.75L207.2,70.17L207.74,68.46L208.84,68.34L209.38,68.23L212.12,66.05L212.67,66.28L214.31,68.11L214.86,66.51L215.95,67.54L216.5,65.82L217.59,65.94L218.14,66.28L220.32,65.02L220.87,64.56L223.6,59.64L224.15,60.9L225.25,59.3L225.79,59.07L226.34,57.92L226.88,58.27L227.43,58.38L227.98,58.38L228.52,57.47L229.07,57.92L229.62,56.55L230.71,56.43L231.26,55.52L233.45,55.86L233.99,55.06L235.09,54.95L235.64,55.06L236.73,53.34L237.27,53.92L237.83,53.69L238.37,188.95L242.75,188.59L243.29,188.23L243.84,188.23L244.39,187.28L250.95,186.09L251.5,186.21L257.51,185.5L258.06,185.38L261.89,184.43L262.43,184.67L264.07,183.72L264.62,183.12L267.36,182.17L267.9,180.99L270.11,180.75L270.66,181.82L271.75,180.15L272.3,180.03L272.84,179.44L273.39,177.3L273.93,175.64L274.48,175.88L275.03,175.28L275.58,173.74L276.13,174.21L276.67,173.62L277.77,173.74L278.31,172.9L279.41,172.31L279.95,173.14L281.59,170.77L282.14,171.6L283.78,169.22L284.33,169.22L284.87,168.51L285.42,169.46L286.52,170.29L287.06,169.46L287.61,169.58L288.16,168.86L290.89,165.18L291.44,164.71L292.53,164.35L293.08,165.66L296.36,162.92L296.91,164.47L298,145.57L298.55,145.22L299.64,144.62L300.19,140.46L300.74,140.58L301.28,137.14L301.83,137.37L302.38,135.12L302.92,132.5L303.47,133.33L304.02,131.79L304.56,130.6L305.11,127.51L306.21,124.78L306.75,124.3L309.49,117.17L310.03,117.17L311.67,113.96L312.22,113.13L316.6,104.7L317.14,116.39L319.88,112.56L320.43,112.92L320.97,112.8L321.52,113.52L322.61,113.16L323.16,113.76L324.8,112.92L325.35,113.04L326.44,112.56L326.99,112.68L334.64,112.08L335.19,111.72L339.57,112.2L340.11,111.96L343.39,111.84L343.94,111.36L345.58,108.96L346.13,109.2L347.77,108L348.32,108.12L348.86,107.76L349.41,106.32L350.5,106.56L351.05,105.25L353.79,102.49L354.33,102.85L355.97,99.85L356.52,99.49L358.16,97.22L358.71,97.22L359.8,94.94L360.35,94.94L361.44,93.26L361.99,91.34L364.18,86.79L364.72,86.43L365.27,86.07L365.82,84.15L368.01,82.47L368.55,81.03L371.83,80.2L372.38,79.24L372.93,79.6L373.47,79L374.02,79.36L378.4,75.28L381.13,73L381.68,73.6L383.87,70.73L384.41,70.61L384.96,69.41L385.51,69.89L386.05,69.29L387.15,69.17L387.69,70.13L389.34,68.93L389.88,68.69L390.43,68.09L390.98,68.93L393.16,68.33L393.71,67.37L395.35,65.33L395.9,110.14L396.99,110.51L397.54,109.53L398.08,108.92L398.63,109.41L399.2,109.29L400.27,109.41L400.82,110.26L403.01,110.02L403.56,110.14L405.19,110.26L405.75,110.26L408.48,108.92L409.03,109.29L415.04,108.68L415.59,108.68L422.15,108.31L422.69,107.94L424.34,107.94L424.88,107.58L425.98,107.09L426.52,106.24L427.62,105.87L428.16,104.65L428.71,103.43L429.26,104.65L431.44,103.79L431.99,103.79L433.09,101.96L433.63,101.72L435.27,99.15L435.82,99.03L437.46,98.67L438.01,97.93L439.1,97.32L439.65,97.45L440.74,96.1L441.29,95.49L443.48,94.64L444.03,95L444.57,94.52L445.12,95.13L446.21,92.07L446.76,92.32L447.31,92.32L448.95,91.83L449.49,90.73L452.77,88.78L453.32,88.41L454.42,88.05L454.97,87.68L457.7,85.36L458.25,85.73L462.07,83.89L462.62,82.92L464.26,80.72L464.81,79.99L465.35,80.23L465.9,78.64L467,76.94L467.54,77.55L473.01,74.37L473.56,74.37L474.11,74.62L474.65,44.82L479.03,41.62L479.57,41.74L485.04,41.86L485.59,42.23L488.33,41.62L488.87,41.62L492.15,41.37L492.7,41.49L494.89,41.25L495.43,41.25L498.18,41.25L498.72,41.49L499.81,41.62L500.36,41.37L502,41.49L502.54,40.63L503.64,41.62L504.18,40.88L505.83,39.65L506.37,38.91L507.46,39.28L508.01,38.17L509.1,37.55L509.65,37.8L510.2,37.06L510.75,34.97L511.29,34.97L511.84,33.98L512.39,34.6L512.93,33.86L514.03,32.38L514.57,30.9L515.12,30.29L515.67,31.27L516.76,28.68L517.31,28.93L518.4,27.45L518.95,27.58L522.23,26.1L522.78,26.22L523.87,25.61L524.42,24.62L526.06,25.36L526.61,24.01L528.25,23.64L528.8,23.76L530.44,20.06L530.98,20.43L531.53,20.06L533.72,18.09L534.26,18.59L534.81,18.59L535.36,17.48L535.91,17.35L536.45,16L537,16.25" style="vector-effect: non-scaling-stroke; fill: none; stroke: rgb(99, 110, 250); stroke-opacity: 1; stroke-width: 2px; opacity: 1;"/></g><g class="points"/><g class="text"/></g></g></g><g class="overplot"/><path class="xlines-above crisp" d="M0,0" style="fill: none;"/><path class="ylines-above crisp" d="M0,0" style="fill: none;"/><g class="overlines-above"/><g class="xaxislayer-above"><g class="xtick"><text text-anchor="middle" x="0" y="433" transform="translate(82.04,0)" style="font-family: 'Open Sans', verdana, arial, sans-serif; font-size: 12px; fill: rgb(42, 63, 95); fill-opacity: 1; white-space: pre;"><tspan class="line" dy="0em" x="0" y="433">Aug 3</tspan><tspan class="line" dy="1.3em" x="0" y="433">2021</tspan></text></g><g class="xtick"><text text-anchor="middle" x="0" y="433" transform="translate(160.8,0)" style="font-family: 'Open Sans', verdana, arial, sans-serif; font-size: 12px; fill: rgb(42, 63, 95); fill-opacity: 1; white-space: pre;">Aug 4</text></g><g class="xtick"><text text-anchor="middle" x="0" y="433" transform="translate(239.55,0)" style="font-family: 'Open Sans', verdana, arial, sans-serif; font-size: 12px; fill: rgb(42, 63, 95); fill-opacity: 1; white-space: pre;">Aug 5</text></g><g class="xtick"><text text-anchor="middle" x="0" y="433" transform="translate(318.31,0)" style="font-family: 'Open Sans', verdana, arial, sans-serif; font-size: 12px; fill: rgb(42, 63, 95); fill-opacity: 1; white-space: pre;">Aug 6</text></g><g class="xtick"><text text-anchor="middle" x="0" y="433" transform="translate(397.06,0)" style="font-family: 'Open Sans', verdana, arial, sans-serif; font-size: 12px; fill: rgb(42, 63, 95); fill-opacity: 1; white-space: pre;">Aug 7</text></g><g class="xtick"><text text-anchor="middle" x="0" y="433" transform="translate(475.81,0)" style="font-family: 'Open Sans', verdana, arial, sans-serif; font-size: 12px; fill: rgb(42, 63, 95); fill-opacity: 1; white-space: pre;">Aug 8</text></g><g class="xtick"><text text-anchor="middle" x="0" y="433" transform="translate(554.5699999999999,0)" style="font-family: 'Open Sans', verdana, arial, sans-serif; font-size: 12px; fill: rgb(42, 63, 95); fill-opacity: 1; white-space: pre;">Aug 9</text></g></g><g class="yaxislayer-above"><g class="ytick"><text text-anchor="end" x="79" y="4.199999999999999" transform="translate(0,394.03)" style="font-family: 'Open Sans', verdana, arial, sans-serif; font-size: 12px; fill: rgb(42, 63, 95); fill-opacity: 1; white-space: pre;">0.864</text></g><g class="ytick"><text text-anchor="end" x="79" y="4.199999999999999" transform="translate(0,356.8)" style="font-family: 'Open Sans', verdana, arial, sans-serif; font-size: 12px; fill: rgb(42, 63, 95); fill-opacity: 1; white-space: pre;">0.865</text></g><g class="ytick"><text text-anchor="end" x="79" y="4.199999999999999" transform="translate(0,319.57)" style="font-family: 'Open Sans', verdana, arial, sans-serif; font-size: 12px; fill: rgb(42, 63, 95); fill-opacity: 1; white-space: pre;">0.866</text></g><g class="ytick"><text text-anchor="end" x="79" y="4.199999999999999" transform="translate(0,282.33000000000004)" style="font-family: 'Open Sans', verdana, arial, sans-serif; font-size: 12px; fill: rgb(42, 63, 95); fill-opacity: 1; white-space: pre;">0.867</text></g><g class="ytick"><text text-anchor="end" x="79" y="4.199999999999999" transform="translate(0,245.1)" style="font-family: 'Open Sans', verdana, arial, sans-serif; font-size: 12px; fill: rgb(42, 63, 95); fill-opacity: 1; white-space: pre;">0.868</text></g><g class="ytick"><text text-anchor="end" x="79" y="4.199999999999999" transform="translate(0,207.87)" style="font-family: 'Open Sans', verdana, arial, sans-serif; font-size: 12px; fill: rgb(42, 63, 95); fill-opacity: 1; white-space: pre;">0.869</text></g><g class="ytick"><text text-anchor="end" x="79" y="4.199999999999999" transform="translate(0,170.64)" style="font-family: 'Open Sans', verdana, arial, sans-serif; font-size: 12px; fill: rgb(42, 63, 95); fill-opacity: 1; white-space: pre;">0.87</text></g><g class="ytick"><text text-anchor="end" x="79" y="4.199999999999999" transform="translate(0,133.4)" style="font-family: 'Open Sans', verdana, arial, sans-serif; font-size: 12px; fill: rgb(42, 63, 95); fill-opacity: 1; white-space: pre;">0.871</text></g></g><g class="overaxes-above"/></g></g><g class="polarlayer"/><g class="ternarylayer"/><g class="geolayer"/><g class="funnelarealayer"/><g class="pielayer"/><g class="treemaplayer"/><g class="sunburstlayer"/><g class="glimages"/><defs id="topdefs-a59a79"><g class="clips"/><clipPath id="legenda59a79"><rect width="60" height="45" x="0" y="0"/></clipPath></defs><g class="layer-above"><g class="imagelayer"/><g class="shapelayer"/></g><g class="infolayer"><g class="legend" pointer-events="all" transform="translate(627.74,100)"><rect class="bg" shape-rendering="crispEdges" width="60" height="45" x="0" y="0" style="stroke: rgb(68, 68, 68); stroke-opacity: 1; fill: rgb(255, 255, 255); fill-opacity: 1; stroke-width: 0px;"/><g class="scrollbox" transform="" clip-path="url('#legenda59a79')"><text class="legendtitletext" text-anchor="start" x="2" y="15.600000000000001" style="font-family: 'Open Sans', verdana, arial, sans-serif; font-size: 12px; fill: rgb(42, 63, 95); fill-opacity: 1; white-space: pre;">All</text><g class="groups" transform=""><g class="traces" transform="translate(0,30.1)" style="opacity: 1;"><text class="legendtext" text-anchor="start" x="40" y="4.680000000000001" style="font-family: 'Open Sans', verdana, arial, sans-serif; font-size: 12px; fill: rgb(42, 63, 95); fill-opacity: 1; white-space: pre;">All</text><g class="layers" style="opacity: 1;"><g class="legendfill"/><g class="legendlines"><path class="js-line" d="M5,0h30" style="fill: none; stroke: rgb(99, 110, 250); stroke-opacity: 1; stroke-width: 2px;"/></g><g class="legendsymbols"><g class="legendpoints"/></g></g><rect class="legendtoggle" x="0" y="-9.5" width="54.890625" height="19" style="fill: rgb(0, 0, 0); fill-opacity: 0;"/></g></g></g><rect class="scrollbar" rx="20" ry="3" width="0" height="0" x="0" y="0" style="fill: rgb(128, 139, 164); fill-opacity: 1;"/></g><g class="g-gtitle"><text class="gtitle" x="35" y="50" text-anchor="start" dy="0em" style="font-family: 'Open Sans', verdana, arial, sans-serif; font-size: 17px; fill: rgb(42, 63, 95); opacity: 1; font-weight: normal; white-space: pre;">Singapore Vaccination Centers</text></g><g class="g-xtitle"><text class="xtitle" x="348.5" y="476.409375" text-anchor="middle" style="font-family: 'Open Sans', verdana, arial, sans-serif; font-size: 14px; fill: rgb(42, 63, 95); opacity: 1; font-weight: normal; white-space: pre;">Time</text></g><g class="g-ytitle"><text class="ytitle" transform="rotate(-90,19.840625000000003,260)" x="19.840625000000003" y="260" text-anchor="middle" style="font-family: 'Open Sans', verdana, arial, sans-serif; font-size: 14px; fill: rgb(42, 63, 95); opacity: 1; font-weight: normal; white-space: pre;">Filled/%</text></g></g></svg>