<svg class="main-svg" xmlns="http://www.w3.org/2000/svg" xmlns:xlink="http://www.w3.org/1999/xlink" width="700" height="500" style="" viewBox="0 0 700 500"><rect x="0" y="0" width="700" height="500" style="fill: rgb(255, 255, 255); fill-opacity: 1;"/><defs id="defs-2462ab"><g class="clips"><clipPath id="clip2462abxyplot" class="plotclip"><rect width="537" height="320"/></clipPath><clipPath class="axesclip" id="clip2462abx"><rect x="80" y="0" width="537" height="500"/></clipPath><clipPath class="axesclip" id="clip2462aby"><rect x="0" y="100" width="700" height="320"/></clipPath><clipPath class="axesclip" id="clip2462abxy"><rect x="80" y="100" width="537" height="320"/></clipPath></g><g class="gradients"/></defs><g class="bglayer"><rect class="bg" x="80" y="100" width="537" height="320" style="fill: rgb(229, 236, 246); fill-opacity: 1; stroke-width: 0;"/></g><g class="layer-below"><g class="imagelayer"/><g class="shapelayer"/></g><g class="cartesianlayer"><g class="subplot xy"><g class="layer-subplot"><g class="shapelayer"/><g class="imagelayer"/></g><g class="gridlayer"><g class="x"><path class="xgrid crisp" transform="translate(83.64,0)" d="M0,100v320" style="stroke: rgb(255, 255, 255); stroke-opacity: 1; stroke-width: 1px;"/><path class="xgrid crisp" transform="translate(153.82999999999998,0)" d="M0,100v320" style="stroke: rgb(255, 255, 255); stroke-opacity: 1; stroke-width: 1px;"/><path class="xgrid crisp" transform="translate(224.01,0)" d="M0,100v320" style="stroke: rgb(255, 255, 255); stroke-opacity: 1; stroke-width: 1px;"/><path class="xgrid crisp" transform="translate(294.2,0)" d="M0,100v320" style="stroke: rgb(255, 255, 255); stroke-opacity: 1; stroke-width: 1px;"/><path class="xgrid crisp" transform="translate(364.38,0)" d="M0,100v320" style="stroke: rgb(255, 255, 255); stroke-opacity: 1; stroke-width: 1px;"/><path class="xgrid crisp" transform="translate(434.57,0)" d="M0,100v320" style="stroke: rgb(255, 255, 255); stroke-opacity: 1; stroke-width: 1px;"/><path class="xgrid crisp" transform="translate(504.75,0)" d="M0,100v320" style="stroke: rgb(255, 255, 255); stroke-opacity: 1; stroke-width: 1px;"/><path class="xgrid crisp" transform="translate(574.94,0)" d="M0,100v320" style="stroke: rgb(255, 255, 255); stroke-opacity: 1; stroke-width: 1px;"/></g><g class="y"><path class="ygrid crisp" transform="translate(0,392.55)" d="M80,0h537" style="stroke: rgb(255, 255, 255); stroke-opacity: 1; stroke-width: 1px;"/><path class="ygrid crisp" transform="translate(0,349.77)" d="M80,0h537" style="stroke: rgb(255, 255, 255); stroke-opacity: 1; stroke-width: 1px;"/><path class="ygrid crisp" transform="translate(0,306.99)" d="M80,0h537" style="stroke: rgb(255, 255, 255); stroke-opacity: 1; stroke-width: 1px;"/><path class="ygrid crisp" transform="translate(0,264.21000000000004)" d="M80,0h537" style="stroke: rgb(255, 255, 255); stroke-opacity: 1; stroke-width: 1px;"/><path class="ygrid crisp" transform="translate(0,221.43)" d="M80,0h537" style="stroke: rgb(255, 255, 255); stroke-opacity: 1; stroke-width: 1px;"/><path class="ygrid crisp" transform="translate(0,178.65)" d="M80,0h537" style="stroke: rgb(255, 255, 255); stroke-opacity: 1; stroke-width: 1px;"/><path class="ygrid crisp" transform="translate(0,135.87)" d="M80,0h537" style="stroke: rgb(255, 255, 255); stroke-opacity: 1; stroke-width: 1px;"/></g></g><g class="zerolinelayer"/><path class="xlines-below"/><path class="ylines-below"/><g class="overlines-below"/><g class="xaxislayer-below"/><g class="yaxislayer-below"/><g class="overaxes-below"/><g class="plot" transform="translate(80,100)" clip-path="url('#clip2462abxyplot')"><g class="scatterlayer mlayer"><g class="trace scatter trace3bbc89" style="stroke-miterlimit: 2; opacity: 1;"><g class="fills"/><g class="errorbars"/><g class="lines"><path class="js-line" d="M0,304L2.81,302.59L3.79,249.74L4.76,251.04L5.74,249.35L9.63,248.71L10.61,248.32L12.56,249.1L13.54,248.19L15.48,248.58L16.46,248.19L17.43,248.45L18.4,247.93L24.26,246.9L25.23,247.16L30.11,246.77L31.08,246.51L36.93,246.12L37.9,245.73L39.85,245.86L40.83,245.22L42.77,245.09L43.75,244.44L44.73,244.96L45.7,244.57L46.67,243.66L47.65,243.92L48.63,244.57L49.6,243.02L52.52,242.11L53.5,242.63L54.47,242.24L55.45,243.15L56.42,242.24L57.4,240.17L59.34,240.69L60.32,239.78L64.22,237.84L65.2,236.94L67.14,238.23L68.12,237.07L69.09,235L70.07,235.51L71.04,236.55L72.01,235L73.97,232.67L74.94,232.28L76.9,230.6L77.87,231.12L79.81,229.95L80.79,230.21L81.77,231.76L82.74,229.56L85.67,230.6L86.64,230.21L88.59,226.46L89.57,226.07L90.54,226.85L91.51,225.55L92.49,225.68L93.46,227.36L94.44,227.11L95.41,225.55L99.31,221.16L100.29,218.44L101.26,219.09L102.24,217.66L103.21,216.63L104.19,217.4L106.14,217.66L107.11,218.7L111.02,216.5L111.98,216.37L113.94,215.72L114.91,214.69L115.89,214.3L116.86,214.82L118.81,215.98L119.78,214.43L121.73,213.52L122.71,213.39L126.61,211.45L127.58,211.84L132.46,211.58L133.43,211.84L135.38,210.42L136.36,208.87L137.33,207.7L138.31,207.7L139.28,206.93L140.26,207.83L143.18,207.96L144.16,142.27L147.08,140.18L148.06,140.44L150,139.92L150.98,139.01L152.93,139.14L153.91,139.14L157.8,138.48L158.77,138.35L161.7,137.83L162.67,137.96L171.44,137.96L172.43,138.09L179.24,137.83L180.22,137.18L183.14,137.18L184.12,136.14L188.01,136.27L188.99,135.74L190.94,135.88L191.91,135.22L193.87,134.57L194.84,135.22L197.76,132.22L198.74,132.22L199.71,133.27L200.69,132.88L202.64,131.57L203.61,132.22L207.51,128.44L208.49,130.14L212.38,127.14L213.36,128.05L215.31,126.48L216.28,127.66L217.26,128.7L218.23,127.79L219.21,128.83L220.18,128.31L221.16,127.4L222.13,128.44L223.11,127.79L224.08,128.18L227.01,128.83L227.98,128.44L229.95,126.48L230.92,125.05L232.87,124.92L233.85,125.44L234.82,125.96L235.8,124.01L239.7,123.09L240.67,121.4L243.6,122.44L244.57,121.92L246.52,118.4L247.5,119.96L248.47,119.96L249.45,118.79L250.42,119.7L251.39,119.18L253.35,117.35L254.32,117.48L257.24,114.35L258.22,114.48L260.17,112.14L261.14,112.92L263.09,110.83L264.07,111.35L266.99,110.7L267.96,108.09L268.94,107.96L269.91,106.92L270.89,105.48L271.86,105.74L272.84,106L273.81,107.18L274.79,107.83L275.76,107.18L276.75,109.13L277.71,108.35L278.69,108.22L279.66,106.66L280.64,106.27L281.61,106.79L283.56,107.05L284.54,61.25L286.48,59.41L287.46,59.15L290.39,57.57L291.36,57.17L293.31,57.04L294.28,56.78L298.18,55.46L299.16,54.54L301.11,54.28L302.08,54.81L305.98,53.75L306.95,53.62L308.91,53.62L309.88,53.75L325.47,51.78L326.45,52.18L329.37,51.12L330.34,51.25L331.33,51.52L332.29,50.73L338.14,50.07L340.09,49.54L341.07,48.23L343.01,47.83L344.97,47.44L345.94,45.73L346.92,46.91L347.89,45.73L349.84,45.73L350.81,45.07L351.79,44.94L352.76,43.76L355.69,43.49L356.67,41.91L358.61,40.2L359.59,39.42L360.54,38.1L361.5,38.76L364.43,37.71L365.4,36L369.31,35.34L370.28,33.36L371.25,32.71L372.23,33.23L374.18,32.44L375.15,32.05L376.13,31.92L377.1,30.86L379.05,30.86L380.02,31.39L381.97,32.97L382.96,31.13L384.9,32.31L385.89,30.34L387.83,30.47L388.81,30.86L391.73,29.02L392.7,29.42L394.65,27.71L395.63,26.66L396.6,24.16L397.58,24.68L398.55,23.24L399.52,24.68L401.48,22.84L402.45,22.58L403.42,21.26L404.4,21.66L406.35,21.79L407.32,20.74L408.3,21.26L409.27,19.68L411.22,19.55L412.2,18.5L416.09,18.89L417.07,17.97L418.04,17.45L419.02,17.84L420,17.97L420.97,17.05L421.95,16L422.92,16.66L423.9,16.39L424.87,171.81L429.75,171.4L430.72,172.08L433.65,170.99L434.62,170.99L436.57,169.76L437.54,169.76L439.49,168.94L440.46,169.08L457.04,168.39L458.01,167.98L470.68,165.8L471.66,165.12L476.53,164.02L477.51,162.66L481.44,162.38L482.41,163.61L484.36,161.7L485.34,161.57L486.31,160.88L487.29,158.43L488.26,156.51L489.24,156.79L490.21,156.1L491.18,154.33L492.16,154.88L493.13,154.19L495.09,154.33L496.06,153.37L498.01,152.69L498.99,153.65L500.93,152.01L501.91,150.92L502.88,151.87L503.86,150.64L505.81,149.14L506.78,149.14L507.76,148.32L508.73,149.41L510.68,150.37L511.66,149.41L512.63,149.55L513.61,148.73L517.51,145.18L518.49,144.5L521.4,143.54L522.38,145.04L528.23,141.9L529.2,143.68L530.18,121.97L531.16,121.97L534.08,120.88L535.06,116.1L536.03,116.24L537,112.28" style="vector-effect: non-scaling-stroke; fill: none; stroke: rgb(99, 110, 250); stroke-opacity: 1; stroke-width: 2px; opacity: 1;"/></g><g class="points"/><g class="text"/></g></g></g><g class="overplot"/><path class="xlines-above crisp" d="M0,0" style="fill: none;"/><path class="ylines-above crisp" d="M0,0" style="fill: none;"/><g class="overlines-above"/><g class="xaxislayer-above"><g class="xtick"><text text-anchor="middle" x="0" y="433" transform="translate(83.64,0)" style="font-family: 'Open Sans', verdana, arial, sans-serif; font-size: 12px; fill: rgb(42, 63, 95); fill-opacity: 1; white-space: pre;"><tspan class="line" dy="0em" x="0" y="433">00:00</tspan><tspan class="line" dy="1.3em" x="0" y="433">Aug 3, 2021</tspan></text></g><g class="xtick"><text text-anchor="middle" x="0" y="433" transform="translate(153.82999999999998,0)" style="font-family: 'Open Sans', verdana, arial, sans-serif; font-size: 12px; fill: rgb(42, 63, 95); fill-opacity: 1; white-space: pre;">12:00</text></g><g class="xtick"><text text-anchor="middle" x="0" y="433" transform="translate(224.01,0)" style="font-family: 'Open Sans', verdana, arial, sans-serif; font-size: 12px; fill: rgb(42, 63, 95); fill-opacity: 1; white-space: pre;"><tspan class="line" dy="0em" x="0" y="433">00:00</tspan><tspan class="line" dy="1.3em" x="0" y="433">Aug 4, 2021</tspan></text></g><g class="xtick"><text text-anchor="middle" x="0" y="433" transform="translate(294.2,0)" style="font-family: 'Open Sans', verdana, arial, sans-serif; font-size: 12px; fill: rgb(42, 63, 95); fill-opacity: 1; white-space: pre;">12:00</text></g><g class="xtick"><text text-anchor="middle" x="0" y="433" transform="translate(364.38,0)" style="font-family: 'Open Sans', verdana, arial, sans-serif; font-size: 12px; fill: rgb(42, 63, 95); fill-opacity: 1; white-space: pre;"><tspan class="line" dy="0em" x="0" y="433">00:00</tspan><tspan class="line" dy="1.3em" x="0" y="433">Aug 5, 2021</tspan></text></g><g class="xtick"><text text-anchor="middle" x="0" y="433" transform="translate(434.57,0)" style="font-family: 'Open Sans', verdana, arial, sans-serif; font-size: 12px; fill: rgb(42, 63, 95); fill-opacity: 1; white-space: pre;">12:00</text></g><g class="xtick"><text text-anchor="middle" x="0" y="433" transform="translate(504.75,0)" style="font-family: 'Open Sans', verdana, arial, sans-serif; font-size: 12px; fill: rgb(42, 63, 95); fill-opacity: 1; white-space: pre;"><tspan class="line" dy="0em" x="0" y="433">00:00</tspan><tspan class="line" dy="1.3em" x="0" y="433">Aug 6, 2021</tspan></text></g><g class="xtick"><text text-anchor="middle" x="0" y="433" transform="translate(574.94,0)" style="font-family: 'Open Sans', verdana, arial, sans-serif; font-size: 12px; fill: rgb(42, 63, 95); fill-opacity: 1; white-space: pre;">12:00</text></g></g><g class="yaxislayer-above"><g class="ytick"><text text-anchor="end" x="79" y="4.199999999999999" transform="translate(0,392.55)" style="font-family: 'Open Sans', verdana, arial, sans-serif; font-size: 12px; fill: rgb(42, 63, 95); fill-opacity: 1; white-space: pre;">0.864</text></g><g class="ytick"><text text-anchor="end" x="79" y="4.199999999999999" transform="translate(0,349.77)" style="font-family: 'Open Sans', verdana, arial, sans-serif; font-size: 12px; fill: rgb(42, 63, 95); fill-opacity: 1; white-space: pre;">0.865</text></g><g class="ytick"><text text-anchor="end" x="79" y="4.199999999999999" transform="translate(0,306.99)" style="font-family: 'Open Sans', verdana, arial, sans-serif; font-size: 12px; fill: rgb(42, 63, 95); fill-opacity: 1; white-space: pre;">0.866</text></g><g class="ytick"><text text-anchor="end" x="79" y="4.199999999999999" transform="translate(0,264.21000000000004)" style="font-family: 'Open Sans', verdana, arial, sans-serif; font-size: 12px; fill: rgb(42, 63, 95); fill-opacity: 1; white-space: pre;">0.867</text></g><g class="ytick"><text text-anchor="end" x="79" y="4.199999999999999" transform="translate(0,221.43)" style="font-family: 'Open Sans', verdana, arial, sans-serif; font-size: 12px; fill: rgb(42, 63, 95); fill-opacity: 1; white-space: pre;">0.868</text></g><g class="ytick"><text text-anchor="end" x="79" y="4.199999999999999" transform="translate(0,178.65)" style="font-family: 'Open Sans', verdana, arial, sans-serif; font-size: 12px; fill: rgb(42, 63, 95); fill-opacity: 1; white-space: pre;">0.869</text></g><g class="ytick"><text text-anchor="end" x="79" y="4.199999999999999" transform="translate(0,135.87)" style="font-family: 'Open Sans', verdana, arial, sans-serif; font-size: 12px; fill: rgb(42, 63, 95); fill-opacity: 1; white-space: pre;">0.87</text></g></g><g class="overaxes-above"/></g></g><g class="polarlayer"/><g class="ternarylayer"/><g class="geolayer"/><g class="funnelarealayer"/><g class="pielayer"/><g class="treemaplayer"/><g class="sunburstlayer"/><g class="glimages"/><defs id="topdefs-2462ab"><g class="clips"/><clipPath id="legend2462ab"><rect width="60" height="45" x="0" y="0"/></clipPath></defs><g class="layer-above"><g class="imagelayer"/><g class="shapelayer"/></g><g class="infolayer"><g class="legend" pointer-events="all" transform="translate(627.74,100)"><rect class="bg" shape-rendering="crispEdges" width="60" height="45" x="0" y="0" style="stroke: rgb(68, 68, 68); stroke-opacity: 1; fill: rgb(255, 255, 255); fill-opacity: 1; stroke-width: 0px;"/><g class="scrollbox" transform="" clip-path="url('#legend2462ab')"><text class="legendtitletext" text-anchor="start" x="2" y="15.600000000000001" style="font-family: 'Open Sans', verdana, arial, sans-serif; font-size: 12px; fill: rgb(42, 63, 95); fill-opacity: 1; white-space: pre;">All</text><g class="groups" transform=""><g class="traces" transform="translate(0,30.1)" style="opacity: 1;"><text class="legendtext" text-anchor="start" x="40" y="4.680000000000001" style="font-family: 'Open Sans', verdana, arial, sans-serif; font-size: 12px; fill: rgb(42, 63, 95); fill-opacity: 1; white-space: pre;">All</text><g class="layers" style="opacity: 1;"><g class="legendfill"/><g class="legendlines"><path class="js-line" d="M5,0h30" style="fill: none; stroke: rgb(99, 110, 250); stroke-opacity: 1; stroke-width: 2px;"/></g><g class="legendsymbols"><g class="legendpoints"/></g></g><rect class="legendtoggle" x="0" y="-9.5" width="54.890625" height="19" style="fill: rgb(0, 0, 0); fill-opacity: 0;"/></g></g></g><rect class="scrollbar" rx="20" ry="3" width="0" height="0" x="0" y="0" style="fill: rgb(128, 139, 164); fill-opacity: 1;"/></g><g class="g-gtitle"><text class="gtitle" x="35" y="50" text-anchor="start" dy="0em" style="font-family: 'Open Sans', verdana, arial, sans-serif; font-size: 17px; fill: rgb(42, 63, 95); opacity: 1; font-weight: normal; white-space: pre;">Singapore Vaccination Centers</text></g><g class="g-xtitle"><text class="xtitle" x="348.5" y="476.409375" text-anchor="middle" style="font-family: 'Open Sans', verdana, arial, sans-serif; font-size: 14px; fill: rgb(42, 63, 95); opacity: 1; font-weight: normal; white-space: pre;">Time</text></g><g class="g-ytitle"><text class="ytitle" transform="rotate(-90,19.840625000000003,260)" x="19.840625000000003" y="260" text-anchor="middle" style="font-family: 'Open Sans', verdana, arial, sans-serif; font-size: 14px; fill: rgb(42, 63, 95); opacity: 1; font-weight: normal; white-space: pre;">Filled/%</text></g></g></svg>