<svg class="main-svg" xmlns="http://www.w3.org/2000/svg" xmlns:xlink="http://www.w3.org/1999/xlink" width="700" height="500" style="" viewBox="0 0 700 500"><rect x="0" y="0" width="700" height="500" style="fill: rgb(255, 255, 255); fill-opacity: 1;"/><defs id="defs-e11d8b"><g class="clips"><clipPath id="clipe11d8bxyplot" class="plotclip"><rect width="537" height="320"/></clipPath><clipPath class="axesclip" id="clipe11d8bx"><rect x="80" y="0" width="537" height="500"/></clipPath><clipPath class="axesclip" id="clipe11d8by"><rect x="0" y="100" width="700" height="320"/></clipPath><clipPath class="axesclip" id="clipe11d8bxy"><rect x="80" y="100" width="537" height="320"/></clipPath></g><g class="gradients"/></defs><g class="bglayer"><rect class="bg" x="80" y="100" width="537" height="320" style="fill: rgb(229, 236, 246); fill-opacity: 1; stroke-width: 0;"/></g><g class="layer-below"><g class="imagelayer"/><g class="shapelayer"/></g><g class="cartesianlayer"><g class="subplot xy"><g class="layer-subplot"><g class="shapelayer"/><g class="imagelayer"/></g><g class="gridlayer"><g class="x"><path class="xgrid crisp" transform="translate(89.35,0)" d="M0,100v320" style="stroke: rgb(255, 255, 255); stroke-opacity: 1; stroke-width: 1px;"/><path class="xgrid crisp" transform="translate(190.05,0)" d="M0,100v320" style="stroke: rgb(255, 255, 255); stroke-opacity: 1; stroke-width: 1px;"/><path class="xgrid crisp" transform="translate(290.74,0)" d="M0,100v320" style="stroke: rgb(255, 255, 255); stroke-opacity: 1; stroke-width: 1px;"/><path class="xgrid crisp" transform="translate(391.44,0)" d="M0,100v320" style="stroke: rgb(255, 255, 255); stroke-opacity: 1; stroke-width: 1px;"/><path class="xgrid crisp" transform="translate(492.13,0)" d="M0,100v320" style="stroke: rgb(255, 255, 255); stroke-opacity: 1; stroke-width: 1px;"/><path class="xgrid crisp" transform="translate(592.83,0)" d="M0,100v320" style="stroke: rgb(255, 255, 255); stroke-opacity: 1; stroke-width: 1px;"/></g><g class="y"><path class="ygrid crisp" transform="translate(0,367.23)" d="M80,0h537" style="stroke: rgb(255, 255, 255); stroke-opacity: 1; stroke-width: 1px;"/><path class="ygrid crisp" transform="translate(0,308.43)" d="M80,0h537" style="stroke: rgb(255, 255, 255); stroke-opacity: 1; stroke-width: 1px;"/><path class="ygrid crisp" transform="translate(0,249.63)" d="M80,0h537" style="stroke: rgb(255, 255, 255); stroke-opacity: 1; stroke-width: 1px;"/><path class="ygrid crisp" transform="translate(0,190.82999999999998)" d="M80,0h537" style="stroke: rgb(255, 255, 255); stroke-opacity: 1; stroke-width: 1px;"/><path class="ygrid crisp" transform="translate(0,132.03)" d="M80,0h537" style="stroke: rgb(255, 255, 255); stroke-opacity: 1; stroke-width: 1px;"/></g></g><g class="zerolinelayer"/><path class="xlines-below"/><path class="ylines-below"/><g class="overlines-below"/><g class="xaxislayer-below"/><g class="yaxislayer-below"/><g class="overaxes-below"/><g class="plot" transform="translate(80,100)" clip-path="url('#clipe11d8bxyplot')"><g class="scatterlayer mlayer"><g class="trace scatter trace3397ea" style="stroke-miterlimit: 2; opacity: 1;"><g class="fills"/><g class="errorbars"/><g class="lines"><path class="js-line" d="M0,82.28L5.91,82.51L8,120.48L12.17,120.57L13.72,136.92L14.37,136.9L29.82,137.96L30.78,121.23L31.07,129.62L31.77,129.56L33.17,126.37L33.87,126.27L35.27,129.79L35.97,129.7L37.36,132.71L38.06,132.63L39.46,120.69L40.16,120.62L41.56,132.64L42.26,132.55L43.66,126.68L45.76,113.21L46.46,109.51L49.95,74.17L50.65,72.87L52.05,78.78L52.75,77.73L54.84,62.82L56.24,65.47L56.94,64.83L58.34,74.27L59.04,73.83L59.96,51.83L61.14,52.34L61.84,52.21L69.53,51.78L70.23,51.77L78.62,51.11L79.32,50.91L103.09,42.44L103.79,42.24L109.39,40.95L110.09,41.79L122.68,41.46L123.37,41.46L134.56,40.58L135.26,40.48L157.64,37.08L158.34,36.99L159.74,36.83L160.44,35.53L187.71,34L188.41,33.87L210.09,31.05L210.79,28.56L234.56,27.81L235.26,95.38L242.98,93.57L243.65,93.44L244.35,93.12L245.05,91.51L247.15,88.51L247.85,87.52L251.35,73.59L252.04,72.39L256.24,67.88L256.94,67.37L260.44,65.43L261.14,65.5L266.03,64.8L266.73,64.77L282.11,63.66L282.81,63.48L287.71,61.32L288.41,60.89L289.11,60.46L289.81,62.78L292.6,61.15L293.3,59.94L297.5,53.24L298.2,52.44L300.99,47.98L301.69,45.51L304.49,38.66L305.19,37.65L309.38,32.89L310.11,32.47L312.18,31.98L312.88,31.8L318.48,31.18L319.18,31.16L329.66,30.17L330.36,29.9L334.56,28.09L335.26,74.81L337.36,72.76L338.06,72.32L345.05,68.8L345.59,71.93L346.42,68.25L346.45,69.25L347.11,67.95L347.15,68.94L347.85,68.62L348.55,68.35L349.25,68.09L349.94,76.43L356.07,73.91L356.09,72.31L356.13,72.03L356.24,73.74L362.88,44.74L363.23,44.87L363.58,41.95L364.28,42.12L364.63,43.2L365.68,37.43L366.03,41.6L367.08,39.66L367.43,39.05L368.48,38.13L368.83,38.96L369.87,38.42L370.22,38.33L370.92,38.4L371.27,43.02L375.12,41.69L375.47,36.5L376.17,35.76L376.52,35.39L378.26,31.97L378.61,32.01L380.71,22.43L381.06,16L381.41,16.8L381.76,140.18L382.11,139.22L382.46,142.07L383.16,136.79L383.51,138.99L383.86,137.43L384.21,136.15L384.56,136.63L384.91,141.25L385.26,146.68L385.61,133.42L386.31,138.09L386.66,157.2L387.7,133.53L388.05,145.44L388.4,148.42L388.75,146.68L389.1,144.02L389.8,134.36L390.15,135.71L390.5,141.84L390.85,146.05L391.2,142.1L391.55,141.74L391.9,151.77L392.25,141.68L392.6,140.84L392.95,148.68L393.3,138.39L393.65,127.07L394,137.58L394.35,139.13L394.7,140.49L395.05,138.92L395.4,134.18L396.45,129.31L396.79,138.25L397.15,134.05L397.49,138.68L397.84,138.81L398.54,131.42L398.89,140.05L399.59,132.48L399.94,138.41L400.64,141.46L400.99,128.79L401.69,142.96L402.04,264.58L403.09,293.12L403.44,304L403.79,286.22L404.14,301.52L404.49,291.75L404.84,292.1L405.19,291.07L405.54,294.16L405.89,293.46L406.24,276.02L406.59,283.67L406.94,262.28L407.63,272.54L407.98,248.89L408.68,241.71L409.03,229.6L409.38,224.98L409.73,228.24L410.08,227.36L411.13,215.22L411.48,217.06L411.83,216.4L412.88,228.38L413.23,228.68L413.58,224.72L413.93,233.57L414.28,224.28L414.63,225.36L414.98,227.75L415.33,223.07L415.68,225.77L416.03,226.33L416.38,223.26L416.72,224.52L417.08,234.01L417.42,220.81L417.78,231.91L418.12,224.2L420.22,212.72L420.57,220.76L421.27,220.72L421.62,223.7L421.97,223.67L422.32,219.37L422.67,223.08L423.02,218.62L423.37,226.76L423.72,225.2L424.07,224.19L424.42,219.51L424.77,225.16L425.81,225.11L426.16,216.49L426.52,225.05L426.87,220.43L427.21,220.57L427.56,218.19L427.91,220.92L428.27,219.84L428.61,227.36L428.96,216.65L430.01,220.31L430.36,220.98L430.71,218.78L431.06,222.11L431.41,223.64L431.76,218.66L432.11,205.85L432.46,215.25L432.81,220.32L433.16,206.18L433.51,206.81L433.86,214.16L434.21,214.11L434.56,206.99L435.26,212.47L435.61,202.23L435.96,199.24L436.31,208.71L436.66,224.84L437,215.2L437.35,214.49L437.7,205.74L438.05,219.6L438.75,195.82L439.1,209.77L439.45,208.24L439.8,203.32L440.15,202.05L440.5,205.17L440.85,200.81L441.2,208.16L441.55,206.35L441.9,209.96L442.25,207.44L442.6,196.45L442.95,195.36L443.3,196.45L443.65,201.41L444.69,210.92L445.04,197.09L445.39,197.31L445.74,191.05L446.09,191.24L446.44,196.07L446.79,200.65L447.14,194.37L448.19,210.5L448.54,204.27L449.24,191.94L449.59,193.62L449.94,197L450.29,205.03L450.64,197.14L450.99,198.57L452.39,184.28L452.74,189.51L453.44,194.59L453.79,189.23L454.14,191.91L454.48,189.81L454.84,182.31L455.19,187.7L455.53,187L455.88,183.28L456.23,186.18L456.58,185.69L456.94,181.61L457.29,182.61L457.64,186.54L458.33,187.68L458.68,186.58L459.03,181.49L459.38,187.81L460.08,185.81L460.43,187.22L461.13,187L461.48,190.98L461.83,190.65L462.18,194.82L462.53,189.57L462.88,183.36L463.23,189.2L463.58,186.45L464.63,187.85L464.98,183.53L466.03,187.65L466.38,184.59L467.07,184.25L467.42,185.71L468.47,187.29L468.82,197.68L469.17,197.68L469.52,195.53L469.87,195.52L470.22,190.33L470.57,190.33L470.92,186.49L472.32,194.95L472.67,194.95L473.02,195.4L473.37,193.58L473.72,193.58L474.07,187.5L474.77,187.5L475.12,190.84L476.16,186.75L476.51,187.03L476.86,187.03L477.21,188.23L480.01,181.13L480.36,187.27L480.71,190.9L481.06,187.7L481.41,181.79L481.76,180.91L482.11,182.93L482.46,184.81L482.8,179.55L483.5,190.44L483.86,182.8L484.21,183.07L484.55,174.64L485.6,185.09L485.95,181.21L486.3,181.99L486.65,185.79L487,171.39L487.35,177.83L487.7,175.21L488.05,180.5L488.4,179.53L488.75,177.22L490.15,187.84L490.5,182.58L490.85,175.16L491.2,180.33L491.55,178.23L492.25,176.4L492.6,185.95L492.94,175.93L493.29,196.82L494.34,173.22L494.69,177.47L495.04,180.21L495.39,180.03L495.74,179.15L496.44,179.35L496.79,181.21L498.19,176.9L498.54,176.97L499.24,169.69L499.59,173.52L499.94,176.28L500.29,172.21L500.64,173.97L500.99,171L501.69,180.19L502.04,175.33L502.39,171.32L503.44,183.64L503.79,176L504.83,181.54L505.18,176.71L505.53,173.38L505.88,176.61L506.23,186.68L506.58,171.47L506.93,173.34L507.28,176.71L507.63,180.06L507.99,191.51L508.68,169.64L509.03,179.24L509.38,185.08L509.73,178.84L510.08,180.35L510.78,173.52L511.35,177.41L511.83,175.84L512.18,172.35L512.88,178.87L513.23,178.77L513.58,176.54L514.62,180.35L514.97,181.62L515.32,181.6L515.67,184.49L516.02,177.62L516.37,178.94L516.72,178.93L517.07,178.92L517.42,174.71L518.12,182.31L518.47,181.81L518.82,181.81L519.17,181.29L519.52,185.14L520.22,181.68L520.57,185.76L521.27,177.83L521.62,178.11L521.97,178.11L523.37,178.1L523.72,181.35L524.76,177.13L525.11,180.97L525.46,182.3L525.81,178.08L526.16,173.89L526.51,174.32L526.86,178.07L527.21,178.06L527.56,182.07L527.91,173.86L528.26,174.82L528.61,179.2L529.31,175.06L529.66,180.13L530.36,171.51L530.71,183.74L531.06,184.31L531.4,181.03L531.76,176.05L532.1,182.38L532.45,173.59L532.8,174.64L533.15,179.55L533.5,177.66L533.85,183.56L534.9,174.61L535.25,173.28L536.3,177.46L536.65,174.3L537,174.68" style="vector-effect: non-scaling-stroke; fill: none; stroke: rgb(99, 110, 250); stroke-opacity: 1; stroke-width: 2px; opacity: 1;"/></g><g class="points"/><g class="text"/></g></g></g><g class="overplot"/><path class="xlines-above crisp" d="M0,0" style="fill: none;"/><path class="ylines-above crisp" d="M0,0" style="fill: none;"/><g class="overlines-above"/><g class="xaxislayer-above"><g class="xtick"><text text-anchor="middle" x="0" y="433" transform="translate(89.35,0)" style="font-family: 'Open Sans', verdana, arial, sans-serif; font-size: 12px; fill: rgb(42, 63, 95); fill-opacity: 1; white-space: pre;"><tspan class="line" dy="0em" x="0" y="433">Jun 4</tspan><tspan class="line" dy="1.3em" x="0" y="433">2021</tspan></text></g><g class="xtick"><text text-anchor="middle" x="0" y="433" transform="translate(190.05,0)" style="font-family: 'Open Sans', verdana, arial, sans-serif; font-size: 12px; fill: rgb(42, 63, 95); fill-opacity: 1; white-space: pre;">Jun 6</text></g><g class="xtick"><text text-anchor="middle" x="0" y="433" transform="translate(290.74,0)" style="font-family: 'Open Sans', verdana, arial, sans-serif; font-size: 12px; fill: rgb(42, 63, 95); fill-opacity: 1; white-space: pre;">Jun 8</text></g><g class="xtick"><text text-anchor="middle" x="0" y="433" transform="translate(391.44,0)" style="font-family: 'Open Sans', verdana, arial, sans-serif; font-size: 12px; fill: rgb(42, 63, 95); fill-opacity: 1; white-space: pre;">Jun 10</text></g><g class="xtick"><text text-anchor="middle" x="0" y="433" transform="translate(492.13,0)" style="font-family: 'Open Sans', verdana, arial, sans-serif; font-size: 12px; fill: rgb(42, 63, 95); fill-opacity: 1; white-space: pre;">Jun 12</text></g><g class="xtick"><text text-anchor="middle" x="0" y="433" transform="translate(592.83,0)" style="font-family: 'Open Sans', verdana, arial, sans-serif; font-size: 12px; fill: rgb(42, 63, 95); fill-opacity: 1; white-space: pre;">Jun 14</text></g></g><g class="yaxislayer-above"><g class="ytick"><text text-anchor="end" x="79" y="4.199999999999999" transform="translate(0,367.23)" style="font-family: 'Open Sans', verdana, arial, sans-serif; font-size: 12px; fill: rgb(42, 63, 95); fill-opacity: 1; white-space: pre;">0.8</text></g><g class="ytick"><text text-anchor="end" x="79" y="4.199999999999999" transform="translate(0,308.43)" style="font-family: 'Open Sans', verdana, arial, sans-serif; font-size: 12px; fill: rgb(42, 63, 95); fill-opacity: 1; white-space: pre;">0.82</text></g><g class="ytick"><text text-anchor="end" x="79" y="4.199999999999999" transform="translate(0,249.63)" style="font-family: 'Open Sans', verdana, arial, sans-serif; font-size: 12px; fill: rgb(42, 63, 95); fill-opacity: 1; white-space: pre;">0.84</text></g><g class="ytick"><text text-anchor="end" x="79" y="4.199999999999999" transform="translate(0,190.82999999999998)" style="font-family: 'Open Sans', verdana, arial, sans-serif; font-size: 12px; fill: rgb(42, 63, 95); fill-opacity: 1; white-space: pre;">0.86</text></g><g class="ytick"><text text-anchor="end" x="79" y="4.199999999999999" transform="translate(0,132.03)" style="font-family: 'Open Sans', verdana, arial, sans-serif; font-size: 12px; fill: rgb(42, 63, 95); fill-opacity: 1; white-space: pre;">0.88</text></g></g><g class="overaxes-above"/></g></g><g class="polarlayer"/><g class="ternarylayer"/><g class="geolayer"/><g class="funnelarealayer"/><g class="pielayer"/><g class="treemaplayer"/><g class="sunburstlayer"/><g class="glimages"/><defs id="topdefs-e11d8b"><g class="clips"/><clipPath id="legende11d8b"><rect width="60" height="45" x="0" y="0"/></clipPath></defs><g class="layer-above"><g class="imagelayer"/><g class="shapelayer"/></g><g class="infolayer"><g class="legend" pointer-events="all" transform="translate(627.74,100)"><rect class="bg" shape-rendering="crispEdges" width="60" height="45" x="0" y="0" style="stroke: rgb(68, 68, 68); stroke-opacity: 1; fill: rgb(255, 255, 255); fill-opacity: 1; stroke-width: 0px;"/><g class="scrollbox" transform="" clip-path="url('#legende11d8b')"><text class="legendtitletext" text-anchor="start" x="2" y="15.600000000000001" style="font-family: 'Open Sans', verdana, arial, sans-serif; font-size: 12px; fill: rgb(42, 63, 95); fill-opacity: 1; white-space: pre;">All</text><g class="groups" transform=""><g class="traces" transform="translate(0,30.1)" style="opacity: 1;"><text class="legendtext" text-anchor="start" x="40" y="4.680000000000001" style="font-family: 'Open Sans', verdana, arial, sans-serif; font-size: 12px; fill: rgb(42, 63, 95); fill-opacity: 1; white-space: pre;">All</text><g class="layers" style="opacity: 1;"><g class="legendfill"/><g class="legendlines"><path class="js-line" d="M5,0h30" style="fill: none; stroke: rgb(99, 110, 250); stroke-opacity: 1; stroke-width: 2px;"/></g><g class="legendsymbols"><g class="legendpoints"/></g></g><rect class="legendtoggle" x="0" y="-9.5" width="54.890625" height="19" style="fill: rgb(0, 0, 0); fill-opacity: 0;"/></g></g></g><rect class="scrollbar" rx="20" ry="3" width="0" height="0" x="0" y="0" style="fill: rgb(128, 139, 164); fill-opacity: 1;"/></g><g class="g-gtitle"><text class="gtitle" x="35" y="50" text-anchor="start" dy="0em" style="font-family: 'Open Sans', verdana, arial, sans-serif; font-size: 17px; fill: rgb(42, 63, 95); opacity: 1; font-weight: normal; white-space: pre;">Singapore Vaccination Centers</text></g><g class="g-xtitle"><text class="xtitle" x="348.5" y="476.409375" text-anchor="middle" style="font-family: 'Open Sans', verdana, arial, sans-serif; font-size: 14px; fill: rgb(42, 63, 95); opacity: 1; font-weight: normal; white-space: pre;">Time</text></g><g class="g-ytitle"><text class="ytitle" transform="rotate(-90,27.481250000000003,260)" x="27.481250000000003" y="260" text-anchor="middle" style="font-family: 'Open Sans', verdana, arial, sans-serif; font-size: 14px; fill: rgb(42, 63, 95); opacity: 1; font-weight: normal; white-space: pre;">Filled/%</text></g></g></svg>