<svg class="main-svg" xmlns="http://www.w3.org/2000/svg" xmlns:xlink="http://www.w3.org/1999/xlink" width="700" height="500" style="" viewBox="0 0 700 500"><rect x="0" y="0" width="700" height="500" style="fill: rgb(255, 255, 255); fill-opacity: 1;"/><defs id="defs-939bae"><g class="clips"><clipPath id="clip939baexyplot" class="plotclip"><rect width="537" height="320"/></clipPath><clipPath class="axesclip" id="clip939baex"><rect x="80" y="0" width="537" height="500"/></clipPath><clipPath class="axesclip" id="clip939baey"><rect x="0" y="100" width="700" height="320"/></clipPath><clipPath class="axesclip" id="clip939baexy"><rect x="80" y="100" width="537" height="320"/></clipPath></g><g class="gradients"/></defs><g class="bglayer"><rect class="bg" x="80" y="100" width="537" height="320" style="fill: rgb(229, 236, 246); fill-opacity: 1; stroke-width: 0;"/></g><g class="layer-below"><g class="imagelayer"/><g class="shapelayer"/></g><g class="cartesianlayer"><g class="subplot xy"><g class="layer-subplot"><g class="shapelayer"/><g class="imagelayer"/></g><g class="gridlayer"><g class="x"><path class="xgrid crisp" transform="translate(89.46000000000001,0)" d="M0,100v320" style="stroke: rgb(255, 255, 255); stroke-opacity: 1; stroke-width: 1px;"/><path class="xgrid crisp" transform="translate(191.35,0)" d="M0,100v320" style="stroke: rgb(255, 255, 255); stroke-opacity: 1; stroke-width: 1px;"/><path class="xgrid crisp" transform="translate(293.24,0)" d="M0,100v320" style="stroke: rgb(255, 255, 255); stroke-opacity: 1; stroke-width: 1px;"/><path class="xgrid crisp" transform="translate(395.13,0)" d="M0,100v320" style="stroke: rgb(255, 255, 255); stroke-opacity: 1; stroke-width: 1px;"/><path class="xgrid crisp" transform="translate(497.02,0)" d="M0,100v320" style="stroke: rgb(255, 255, 255); stroke-opacity: 1; stroke-width: 1px;"/><path class="xgrid crisp" transform="translate(598.91,0)" d="M0,100v320" style="stroke: rgb(255, 255, 255); stroke-opacity: 1; stroke-width: 1px;"/></g><g class="y"><path class="ygrid crisp" transform="translate(0,367.23)" d="M80,0h537" style="stroke: rgb(255, 255, 255); stroke-opacity: 1; stroke-width: 1px;"/><path class="ygrid crisp" transform="translate(0,308.43)" d="M80,0h537" style="stroke: rgb(255, 255, 255); stroke-opacity: 1; stroke-width: 1px;"/><path class="ygrid crisp" transform="translate(0,249.63)" d="M80,0h537" style="stroke: rgb(255, 255, 255); stroke-opacity: 1; stroke-width: 1px;"/><path class="ygrid crisp" transform="translate(0,190.82999999999998)" d="M80,0h537" style="stroke: rgb(255, 255, 255); stroke-opacity: 1; stroke-width: 1px;"/><path class="ygrid crisp" transform="translate(0,132.03)" d="M80,0h537" style="stroke: rgb(255, 255, 255); stroke-opacity: 1; stroke-width: 1px;"/></g></g><g class="zerolinelayer"/><path class="xlines-below"/><path class="ylines-below"/><g class="overlines-below"/><g class="xaxislayer-below"/><g class="yaxislayer-below"/><g class="overaxes-below"/><g class="plot" transform="translate(80,100)" clip-path="url('#clip939baexyplot')"><g class="scatterlayer mlayer"><g class="trace scatter trace73bac5" style="stroke-miterlimit: 2; opacity: 1;"><g class="fills"/><g class="errorbars"/><g class="lines"><path class="js-line" d="M0,82.28L5.98,82.51L8.1,120.48L12.32,120.57L13.88,136.92L14.54,136.9L30.17,137.96L31.14,121.23L31.44,129.62L32.15,129.56L33.56,126.37L34.27,126.27L35.68,129.79L36.39,129.7L37.81,132.71L38.51,132.63L39.93,120.69L40.64,120.62L42.05,132.64L42.76,132.55L44.18,126.68L47.01,109.51L48.42,94.58L49.13,92.89L50.54,74.17L51.25,72.87L52.67,78.78L53.37,77.73L54.79,63.68L55.49,62.82L56.91,65.47L57.62,64.83L59.03,74.27L59.74,73.83L60.68,51.83L61.86,52.34L62.57,52.21L71.06,51.77L71.77,51.77L80.26,50.91L80.97,50.65L105.03,42.24L105.73,42.03L110.69,40.95L111.4,41.79L123.42,41.47L124.13,41.46L134.74,40.8L135.45,40.69L161.63,36.83L162.34,35.53L189.93,34L190.64,33.87L212.58,31.05L213.29,28.56L237.34,27.81L238.05,95.38L245.86,93.57L246.54,93.44L247.25,93.12L247.96,91.51L250.08,88.51L250.79,87.52L254.33,73.59L255.03,72.39L259.28,67.88L259.99,67.37L263.53,65.43L264.23,65.5L269.19,64.8L269.9,64.77L285.46,63.66L286.17,63.48L291.12,61.32L291.83,60.89L292.54,60.46L293.24,62.78L296.07,61.15L296.78,59.94L301.03,53.24L301.73,52.44L304.56,47.98L305.27,45.51L308.1,38.66L308.81,37.65L313.05,32.89L313.79,32.47L315.89,31.98L316.59,31.8L322.25,31.18L322.96,31.16L333.57,30.17L334.28,29.9L338.53,28.09L339.23,74.81L341.36,72.76L342.07,72.32L348.43,69.16L349.14,68.8L349.68,71.93L349.85,68.39L350.52,68.25L350.56,69.25L351.23,67.95L351.27,68.94L351.97,68.62L353.39,68.09L354.1,76.43L360.29,73.91L360.32,72.31L360.35,72.03L360.46,73.74L367.18,44.74L367.54,44.87L367.89,41.95L368.6,42.12L368.95,43.2L370.01,37.43L370.37,41.6L371.43,39.66L371.78,39.05L372.85,38.13L373.2,38.96L374.26,38.42L374.62,38.33L375.32,38.4L375.68,43.02L379.57,41.69L379.92,36.5L380.63,35.76L380.98,35.39L382.75,31.97L383.1,32.01L385.23,22.43L385.58,16L385.93,16.8L386.29,140.18L386.64,139.22L387,142.07L387.7,136.79L388.06,138.99L388.41,137.43L388.77,136.15L389.12,136.63L389.47,141.25L389.83,146.68L390.18,133.42L390.89,138.09L391.24,157.2L392.3,133.53L392.66,145.44L393.01,148.42L393.36,146.68L393.72,144.02L394.42,134.36L394.78,135.71L395.13,141.84L395.49,146.05L395.84,142.1L396.2,141.74L396.55,151.77L396.9,141.68L397.25,140.84L397.61,148.68L397.96,138.39L398.32,127.07L398.67,137.58L399.02,139.13L399.38,140.49L399.73,138.92L400.09,134.18L401.15,129.31L401.5,138.25L401.86,134.05L402.21,138.68L402.56,138.81L403.27,131.42L403.62,140.05L404.33,132.48L404.69,138.41L405.39,141.46L405.75,128.79L406.45,142.96L406.81,264.58L407.87,293.12L408.22,304L408.58,286.22L408.93,301.52L409.29,291.75L409.64,292.1L409.99,291.07L410.35,294.16L410.7,293.46L411.05,276.02L411.41,283.67L411.76,262.28L412.47,272.54L412.82,248.89L413.53,241.71L413.88,229.6L414.24,224.98L414.59,228.24L414.95,227.36L416.01,215.22L416.36,217.06L416.71,216.4L417.78,228.38L418.13,228.68L418.48,224.72L418.84,233.57L419.19,224.28L419.54,225.36L419.9,227.75L420.25,223.07L420.61,225.77L420.96,226.33L421.32,223.26L421.67,224.52L422.02,234.01L422.37,220.81L422.73,231.91L423.08,224.2L425.21,212.72L425.56,220.76L426.27,220.72L426.62,223.7L426.98,223.67L427.33,219.37L427.68,223.08L428.03,218.62L428.39,226.76L428.74,225.2L429.1,224.19L429.45,219.51L429.8,225.16L430.87,225.11L431.22,216.49L431.57,225.05L431.93,220.43L432.28,220.57L432.63,218.19L432.99,220.92L433.35,219.84L433.7,227.36L434.05,216.65L434.4,220.1L434.76,220.01L435.46,220.98L435.82,218.78L436.52,223.64L436.88,218.66L437.23,205.85L437.59,215.25L437.94,220.32L438.3,206.18L438.65,206.81L439,214.16L439.36,214.11L439.71,206.99L440.42,212.47L440.78,202.23L441.13,199.24L441.48,208.71L441.84,224.84L442.19,215.2L442.54,214.49L442.9,205.74L443.25,219.6L443.96,195.82L444.31,209.77L445.37,202.05L445.72,205.17L446.08,200.81L446.43,208.16L446.78,206.35L447.14,209.96L447.49,207.44L447.85,196.45L448.2,195.36L448.55,196.45L448.91,201.41L449.97,210.92L450.32,197.09L450.68,197.31L451.03,191.05L451.38,191.24L451.74,196.07L452.09,200.65L452.45,194.37L453.51,210.5L453.86,204.27L454.57,191.94L454.92,193.62L455.28,197L455.63,205.03L455.98,197.14L456.34,198.57L457.75,184.28L458.11,189.51L458.81,194.59L459.17,189.23L459.52,191.91L459.88,189.81L460.23,182.31L460.58,187.7L460.94,187L461.29,183.28L461.64,186.18L462,185.69L462.36,181.61L462.71,182.61L463.06,186.54L463.77,187.68L464.12,186.58L464.48,181.49L464.83,187.81L465.54,185.81L465.89,187.22L466.6,187L466.96,190.98L467.31,190.65L467.66,194.82L468.02,189.57L468.37,183.36L468.72,189.2L469.08,186.45L470.14,187.85L470.49,183.53L471.55,187.65L471.91,184.59L472.61,184.25L472.97,185.71L474.03,187.29L474.38,197.68L474.74,197.68L475.09,195.53L475.44,195.52L475.8,190.33L476.15,190.33L476.51,186.49L477.92,194.95L478.27,194.95L478.63,195.4L478.98,193.58L479.34,193.58L479.69,187.5L480.4,187.5L480.75,190.84L481.81,186.75L482.16,187.03L482.52,187.03L482.87,188.23L485.7,181.13L486.06,187.27L486.41,190.9L486.76,187.7L487.12,181.79L487.47,180.91L487.82,182.93L488.18,184.81L488.53,179.55L489.24,190.44L489.59,182.8L489.95,183.07L490.3,174.64L491.36,185.09L491.72,181.21L492.07,181.99L492.42,185.79L492.78,171.39L493.13,177.83L493.48,175.21L493.84,180.5L494.19,179.53L494.55,177.22L495.96,187.84L496.32,182.58L496.67,175.16L497.02,180.33L497.38,178.23L498.08,176.4L498.44,185.95L498.79,175.93L499.14,196.82L500.21,173.22L500.56,177.47L500.91,180.21L501.27,180.03L501.62,179.15L502.33,179.35L502.68,181.21L504.1,176.9L504.45,176.97L505.16,169.69L505.51,173.52L505.87,176.28L506.22,172.21L506.58,173.97L506.93,171L507.64,180.19L507.99,175.33L508.34,171.32L509.41,183.64L509.76,176L510.82,181.54L511.17,176.71L511.53,173.38L511.88,176.61L512.24,186.68L512.59,171.47L512.94,173.34L513.3,176.71L513.65,180.06L514.01,191.51L514.72,169.64L515.07,179.24L515.42,185.08L515.77,178.84L516.13,180.35L516.84,173.52L517.41,177.41L517.9,175.84L518.25,172.35L518.96,178.87L519.31,178.77L519.67,176.54L520.73,180.35L521.08,181.62L521.44,181.6L521.79,184.49L522.14,177.62L522.5,178.94L522.85,178.93L523.21,178.92L523.56,174.71L524.26,182.31L524.62,181.81L524.98,181.81L525.33,181.29L525.68,185.14L526.39,181.68L526.74,185.76L527.45,177.83L527.8,178.11L528.16,178.11L529.57,178.1L529.93,181.35L530.99,177.13L531.34,180.97L531.7,182.3L532.05,178.08L532.4,173.89L532.76,174.32L533.11,178.07L533.46,178.06L533.82,182.07L534.17,173.86L534.52,174.82L534.88,179.2L535.59,175.06L535.94,180.13L536.65,171.51L537,183.74" style="vector-effect: non-scaling-stroke; fill: none; stroke: rgb(99, 110, 250); stroke-opacity: 1; stroke-width: 2px; opacity: 1;"/></g><g class="points"/><g class="text"/></g></g></g><g class="overplot"/><path class="xlines-above crisp" d="M0,0" style="fill: none;"/><path class="ylines-above crisp" d="M0,0" style="fill: none;"/><g class="overlines-above"/><g class="xaxislayer-above"><g class="xtick"><text text-anchor="middle" x="0" y="433" transform="translate(89.46000000000001,0)" style="font-family: 'Open Sans', verdana, arial, sans-serif; font-size: 12px; fill: rgb(42, 63, 95); fill-opacity: 1; white-space: pre;"><tspan class="line" dy="0em" x="0" y="433">Jun 4</tspan><tspan class="line" dy="1.3em" x="0" y="433">2021</tspan></text></g><g class="xtick"><text text-anchor="middle" x="0" y="433" transform="translate(191.35,0)" style="font-family: 'Open Sans', verdana, arial, sans-serif; font-size: 12px; fill: rgb(42, 63, 95); fill-opacity: 1; white-space: pre;">Jun 6</text></g><g class="xtick"><text text-anchor="middle" x="0" y="433" transform="translate(293.24,0)" style="font-family: 'Open Sans', verdana, arial, sans-serif; font-size: 12px; fill: rgb(42, 63, 95); fill-opacity: 1; white-space: pre;">Jun 8</text></g><g class="xtick"><text text-anchor="middle" x="0" y="433" transform="translate(395.13,0)" style="font-family: 'Open Sans', verdana, arial, sans-serif; font-size: 12px; fill: rgb(42, 63, 95); fill-opacity: 1; white-space: pre;">Jun 10</text></g><g class="xtick"><text text-anchor="middle" x="0" y="433" transform="translate(497.02,0)" style="font-family: 'Open Sans', verdana, arial, sans-serif; font-size: 12px; fill: rgb(42, 63, 95); fill-opacity: 1; white-space: pre;">Jun 12</text></g><g class="xtick"><text text-anchor="middle" x="0" y="433" transform="translate(598.91,0)" style="font-family: 'Open Sans', verdana, arial, sans-serif; font-size: 12px; fill: rgb(42, 63, 95); fill-opacity: 1; white-space: pre;">Jun 14</text></g></g><g class="yaxislayer-above"><g class="ytick"><text text-anchor="end" x="79" y="4.199999999999999" transform="translate(0,367.23)" style="font-family: 'Open Sans', verdana, arial, sans-serif; font-size: 12px; fill: rgb(42, 63, 95); fill-opacity: 1; white-space: pre;">0.8</text></g><g class="ytick"><text text-anchor="end" x="79" y="4.199999999999999" transform="translate(0,308.43)" style="font-family: 'Open Sans', verdana, arial, sans-serif; font-size: 12px; fill: rgb(42, 63, 95); fill-opacity: 1; white-space: pre;">0.82</text></g><g class="ytick"><text text-anchor="end" x="79" y="4.199999999999999" transform="translate(0,249.63)" style="font-family: 'Open Sans', verdana, arial, sans-serif; font-size: 12px; fill: rgb(42, 63, 95); fill-opacity: 1; white-space: pre;">0.84</text></g><g class="ytick"><text text-anchor="end" x="79" y="4.199999999999999" transform="translate(0,190.82999999999998)" style="font-family: 'Open Sans', verdana, arial, sans-serif; font-size: 12px; fill: rgb(42, 63, 95); fill-opacity: 1; white-space: pre;">0.86</text></g><g class="ytick"><text text-anchor="end" x="79" y="4.199999999999999" transform="translate(0,132.03)" style="font-family: 'Open Sans', verdana, arial, sans-serif; font-size: 12px; fill: rgb(42, 63, 95); fill-opacity: 1; white-space: pre;">0.88</text></g></g><g class="overaxes-above"/></g></g><g class="polarlayer"/><g class="ternarylayer"/><g class="geolayer"/><g class="funnelarealayer"/><g class="pielayer"/><g class="treemaplayer"/><g class="sunburstlayer"/><g class="glimages"/><defs id="topdefs-939bae"><g class="clips"/><clipPath id="legend939bae"><rect width="60" height="45" x="0" y="0"/></clipPath></defs><g class="layer-above"><g class="imagelayer"/><g class="shapelayer"/></g><g class="infolayer"><g class="legend" pointer-events="all" transform="translate(627.74,100)"><rect class="bg" shape-rendering="crispEdges" width="60" height="45" x="0" y="0" style="stroke: rgb(68, 68, 68); stroke-opacity: 1; fill: rgb(255, 255, 255); fill-opacity: 1; stroke-width: 0px;"/><g class="scrollbox" transform="" clip-path="url('#legend939bae')"><text class="legendtitletext" text-anchor="start" x="2" y="15.600000000000001" style="font-family: 'Open Sans', verdana, arial, sans-serif; font-size: 12px; fill: rgb(42, 63, 95); fill-opacity: 1; white-space: pre;">All</text><g class="groups" transform=""><g class="traces" transform="translate(0,30.1)" style="opacity: 1;"><text class="legendtext" text-anchor="start" x="40" y="4.680000000000001" style="font-family: 'Open Sans', verdana, arial, sans-serif; font-size: 12px; fill: rgb(42, 63, 95); fill-opacity: 1; white-space: pre;">All</text><g class="layers" style="opacity: 1;"><g class="legendfill"/><g class="legendlines"><path class="js-line" d="M5,0h30" style="fill: none; stroke: rgb(99, 110, 250); stroke-opacity: 1; stroke-width: 2px;"/></g><g class="legendsymbols"><g class="legendpoints"/></g></g><rect class="legendtoggle" x="0" y="-9.5" width="54.890625" height="19" style="fill: rgb(0, 0, 0); fill-opacity: 0;"/></g></g></g><rect class="scrollbar" rx="20" ry="3" width="0" height="0" x="0" y="0" style="fill: rgb(128, 139, 164); fill-opacity: 1;"/></g><g class="g-gtitle"><text class="gtitle" x="35" y="50" text-anchor="start" dy="0em" style="font-family: 'Open Sans', verdana, arial, sans-serif; font-size: 17px; fill: rgb(42, 63, 95); opacity: 1; font-weight: normal; white-space: pre;">Singapore Vaccination Centers</text></g><g class="g-xtitle"><text class="xtitle" x="348.5" y="476.409375" text-anchor="middle" style="font-family: 'Open Sans', verdana, arial, sans-serif; font-size: 14px; fill: rgb(42, 63, 95); opacity: 1; font-weight: normal; white-space: pre;">Time</text></g><g class="g-ytitle"><text class="ytitle" transform="rotate(-90,27.481250000000003,260)" x="27.481250000000003" y="260" text-anchor="middle" style="font-family: 'Open Sans', verdana, arial, sans-serif; font-size: 14px; fill: rgb(42, 63, 95); opacity: 1; font-weight: normal; white-space: pre;">Filled/%</text></g></g></svg>