<svg class="main-svg" xmlns="http://www.w3.org/2000/svg" xmlns:xlink="http://www.w3.org/1999/xlink" width="700" height="500" style="" viewBox="0 0 700 500"><rect x="0" y="0" width="700" height="500" style="fill: rgb(255, 255, 255); fill-opacity: 1;"/><defs id="defs-686ba0"><g class="clips"><clipPath id="clip686ba0xyplot" class="plotclip"><rect width="537" height="320"/></clipPath><clipPath class="axesclip" id="clip686ba0x"><rect x="80" y="0" width="537" height="500"/></clipPath><clipPath class="axesclip" id="clip686ba0y"><rect x="0" y="100" width="700" height="320"/></clipPath><clipPath class="axesclip" id="clip686ba0xy"><rect x="80" y="100" width="537" height="320"/></clipPath></g><g class="gradients"/></defs><g class="bglayer"><rect class="bg" x="80" y="100" width="537" height="320" style="fill: rgb(229, 236, 246); fill-opacity: 1; stroke-width: 0;"/></g><g class="layer-below"><g class="imagelayer"/><g class="shapelayer"/></g><g class="cartesianlayer"><g class="subplot xy"><g class="layer-subplot"><g class="shapelayer"/><g class="imagelayer"/></g><g class="gridlayer"><g class="x"><path class="xgrid crisp" transform="translate(92.41,0)" d="M0,100v320" style="stroke: rgb(255, 255, 255); stroke-opacity: 1; stroke-width: 1px;"/><path class="xgrid crisp" transform="translate(226.1,0)" d="M0,100v320" style="stroke: rgb(255, 255, 255); stroke-opacity: 1; stroke-width: 1px;"/><path class="xgrid crisp" transform="translate(359.78,0)" d="M0,100v320" style="stroke: rgb(255, 255, 255); stroke-opacity: 1; stroke-width: 1px;"/><path class="xgrid crisp" transform="translate(493.47,0)" d="M0,100v320" style="stroke: rgb(255, 255, 255); stroke-opacity: 1; stroke-width: 1px;"/></g><g class="y"><path class="ygrid crisp" transform="translate(0,367.23)" d="M80,0h537" style="stroke: rgb(255, 255, 255); stroke-opacity: 1; stroke-width: 1px;"/><path class="ygrid crisp" transform="translate(0,308.43)" d="M80,0h537" style="stroke: rgb(255, 255, 255); stroke-opacity: 1; stroke-width: 1px;"/><path class="ygrid crisp" transform="translate(0,249.63)" d="M80,0h537" style="stroke: rgb(255, 255, 255); stroke-opacity: 1; stroke-width: 1px;"/><path class="ygrid crisp" transform="translate(0,190.82999999999998)" d="M80,0h537" style="stroke: rgb(255, 255, 255); stroke-opacity: 1; stroke-width: 1px;"/><path class="ygrid crisp" transform="translate(0,132.03)" d="M80,0h537" style="stroke: rgb(255, 255, 255); stroke-opacity: 1; stroke-width: 1px;"/></g></g><g class="zerolinelayer"/><path class="xlines-below"/><path class="ylines-below"/><g class="overlines-below"/><g class="xaxislayer-below"/><g class="yaxislayer-below"/><g class="overaxes-below"/><g class="plot" transform="translate(80,100)" clip-path="url('#clip686ba0xyplot')"><g class="scatterlayer mlayer"><g class="trace scatter tracec65637" style="stroke-miterlimit: 2; opacity: 1;"><g class="fills"/><g class="errorbars"/><g class="lines"><path class="js-line" d="M0,82.28L7.84,82.51L10.62,120.48L16.16,120.57L18.22,136.92L19.08,136.9L39.59,137.96L40.86,121.23L41.25,129.62L42.18,129.56L44.03,126.37L44.96,126.27L46.82,129.79L47.75,129.7L49.6,132.71L50.53,132.63L52.39,120.69L53.32,120.62L55.17,132.64L56.1,132.55L57.96,126.68L58.89,123.32L60.75,113.21L61.67,109.51L63.53,94.58L64.46,92.89L66.31,74.17L67.24,72.87L69.1,78.78L70.03,77.73L71.88,63.68L72.81,62.82L74.67,65.47L75.6,64.83L77.45,74.27L78.38,73.83L79.61,51.83L80.24,52.53L81.17,52.34L90.45,51.79L91.38,51.79L105.3,50.91L106.23,50.65L138.72,42.03L139.65,41.83L145.23,40.95L146.16,41.79L161.94,41.47L162.86,41.46L176.79,40.8L177.72,40.69L212.07,36.83L213,35.53L249.2,34L250.13,33.87L278.91,31.05L279.84,28.56L311.41,27.81L312.34,95.38L322.58,93.57L323.48,93.44L324.4,93.12L325.33,91.51L328.12,88.51L329.05,87.52L332.76,74.89L333.69,73.59L337.4,69.79L338.33,69.11L343.9,66.07L344.83,65.71L349.47,65.01L350.4,64.93L375.46,63.48L376.39,63.27L381.96,61.32L382.89,60.89L383.82,60.46L384.75,62.78L388.46,61.15L389.39,59.94L394.03,54.01L394.96,53.24L398.67,49.13L399.6,47.98L403.31,39.84L404.24,38.66L409.81,33.5L410.74,32.89L414.46,31.98L415.38,31.8L422.81,31.18L423.74,31.16L437.66,30.17L438.59,29.9L444.16,28.09L445.09,74.81L446.95,73.22L447.88,72.76L457.16,69.16L458.09,68.8L458.8,71.93L459.02,68.39L459.9,68.25L459.95,69.25L460.83,67.95L460.88,68.94L461.8,68.62L463.66,68.09L464.59,76.43L472.72,73.91L472.75,72.31L472.8,72.03L472.94,73.74L481.76,44.74L482.22,44.87L482.69,41.95L483.62,42.12L484.08,43.2L485.48,37.43L485.94,41.6L487.33,39.66L487.8,39.05L489.19,38.13L489.65,38.96L490.58,38.53L491.05,38.42L492.44,38.4L492.9,43.02L498.01,41.69L498.47,36.5L499.4,35.76L499.86,35.39L501.26,33.79L501.72,33.41L505.43,22.43L505.9,16L506.36,16.8L506.83,140.18L507.29,139.22L507.76,142.07L508.68,136.79L509.15,138.99L510.08,136.15L510.54,136.63L511.01,141.25L511.47,146.68L511.93,133.42L512.86,138.09L513.33,157.2L514.72,133.53L515.18,145.44L515.65,148.42L516.11,146.68L516.58,144.02L517.5,134.36L517.97,135.71L518.89,146.05L519.36,142.1L519.82,141.74L520.29,151.77L521.21,140.84L521.68,148.68L522.61,127.07L523.07,137.58L524,140.49L524.47,138.92L525.4,130.34L525.86,131.67L526.32,129.31L526.79,138.25L527.25,134.05L527.71,138.68L528.18,138.81L528.64,131.49L529.11,131.42L529.57,140.05L530.5,132.48L530.97,138.41L531.89,141.46L532.36,128.79L533.29,142.96L533.75,264.58L534.68,292.55L535.15,293.12L535.61,304L536.08,286.22L536.54,301.52L537,291.75" style="vector-effect: non-scaling-stroke; fill: none; stroke: rgb(99, 110, 250); stroke-opacity: 1; stroke-width: 2px; opacity: 1;"/></g><g class="points"/><g class="text"/></g></g></g><g class="overplot"/><path class="xlines-above crisp" d="M0,0" style="fill: none;"/><path class="ylines-above crisp" d="M0,0" style="fill: none;"/><g class="overlines-above"/><g class="xaxislayer-above"><g class="xtick"><text text-anchor="middle" x="0" y="433" transform="translate(92.41,0)" style="font-family: 'Open Sans', verdana, arial, sans-serif; font-size: 12px; fill: rgb(42, 63, 95); fill-opacity: 1; white-space: pre;"><tspan class="line" dy="0em" x="0" y="433">Jun 4</tspan><tspan class="line" dy="1.3em" x="0" y="433">2021</tspan></text></g><g class="xtick"><text text-anchor="middle" x="0" y="433" transform="translate(226.1,0)" style="font-family: 'Open Sans', verdana, arial, sans-serif; font-size: 12px; fill: rgb(42, 63, 95); fill-opacity: 1; white-space: pre;">Jun 6</text></g><g class="xtick"><text text-anchor="middle" x="0" y="433" transform="translate(359.78,0)" style="font-family: 'Open Sans', verdana, arial, sans-serif; font-size: 12px; fill: rgb(42, 63, 95); fill-opacity: 1; white-space: pre;">Jun 8</text></g><g class="xtick"><text text-anchor="middle" x="0" y="433" transform="translate(493.47,0)" style="font-family: 'Open Sans', verdana, arial, sans-serif; font-size: 12px; fill: rgb(42, 63, 95); fill-opacity: 1; white-space: pre;">Jun 10</text></g></g><g class="yaxislayer-above"><g class="ytick"><text text-anchor="end" x="79" y="4.199999999999999" transform="translate(0,367.23)" style="font-family: 'Open Sans', verdana, arial, sans-serif; font-size: 12px; fill: rgb(42, 63, 95); fill-opacity: 1; white-space: pre;">0.8</text></g><g class="ytick"><text text-anchor="end" x="79" y="4.199999999999999" transform="translate(0,308.43)" style="font-family: 'Open Sans', verdana, arial, sans-serif; font-size: 12px; fill: rgb(42, 63, 95); fill-opacity: 1; white-space: pre;">0.82</text></g><g class="ytick"><text text-anchor="end" x="79" y="4.199999999999999" transform="translate(0,249.63)" style="font-family: 'Open Sans', verdana, arial, sans-serif; font-size: 12px; fill: rgb(42, 63, 95); fill-opacity: 1; white-space: pre;">0.84</text></g><g class="ytick"><text text-anchor="end" x="79" y="4.199999999999999" transform="translate(0,190.82999999999998)" style="font-family: 'Open Sans', verdana, arial, sans-serif; font-size: 12px; fill: rgb(42, 63, 95); fill-opacity: 1; white-space: pre;">0.86</text></g><g class="ytick"><text text-anchor="end" x="79" y="4.199999999999999" transform="translate(0,132.03)" style="font-family: 'Open Sans', verdana, arial, sans-serif; font-size: 12px; fill: rgb(42, 63, 95); fill-opacity: 1; white-space: pre;">0.88</text></g></g><g class="overaxes-above"/></g></g><g class="polarlayer"/><g class="ternarylayer"/><g class="geolayer"/><g class="funnelarealayer"/><g class="pielayer"/><g class="treemaplayer"/><g class="sunburstlayer"/><g class="glimages"/><defs id="topdefs-686ba0"><g class="clips"/><clipPath id="legend686ba0"><rect width="60" height="45" x="0" y="0"/></clipPath></defs><g class="layer-above"><g class="imagelayer"/><g class="shapelayer"/></g><g class="infolayer"><g class="legend" pointer-events="all" transform="translate(627.74,100)"><rect class="bg" shape-rendering="crispEdges" width="60" height="45" x="0" y="0" style="stroke: rgb(68, 68, 68); stroke-opacity: 1; fill: rgb(255, 255, 255); fill-opacity: 1; stroke-width: 0px;"/><g class="scrollbox" transform="" clip-path="url('#legend686ba0')"><text class="legendtitletext" text-anchor="start" x="2" y="15.600000000000001" style="font-family: 'Open Sans', verdana, arial, sans-serif; font-size: 12px; fill: rgb(42, 63, 95); fill-opacity: 1; white-space: pre;">All</text><g class="groups" transform=""><g class="traces" transform="translate(0,30.1)" style="opacity: 1;"><text class="legendtext" text-anchor="start" x="40" y="4.680000000000001" style="font-family: 'Open Sans', verdana, arial, sans-serif; font-size: 12px; fill: rgb(42, 63, 95); fill-opacity: 1; white-space: pre;">All</text><g class="layers" style="opacity: 1;"><g class="legendfill"/><g class="legendlines"><path class="js-line" d="M5,0h30" style="fill: none; stroke: rgb(99, 110, 250); stroke-opacity: 1; stroke-width: 2px;"/></g><g class="legendsymbols"><g class="legendpoints"/></g></g><rect class="legendtoggle" x="0" y="-9.5" width="54.890625" height="19" style="fill: rgb(0, 0, 0); fill-opacity: 0;"/></g></g></g><rect class="scrollbar" rx="20" ry="3" width="0" height="0" x="0" y="0" style="fill: rgb(128, 139, 164); fill-opacity: 1;"/></g><g class="g-gtitle"><text class="gtitle" x="35" y="50" text-anchor="start" dy="0em" style="font-family: 'Open Sans', verdana, arial, sans-serif; font-size: 17px; fill: rgb(42, 63, 95); opacity: 1; font-weight: normal; white-space: pre;">Singapore Vaccination Centers</text></g><g class="g-xtitle"><text class="xtitle" x="348.5" y="476.409375" text-anchor="middle" style="font-family: 'Open Sans', verdana, arial, sans-serif; font-size: 14px; fill: rgb(42, 63, 95); opacity: 1; font-weight: normal; white-space: pre;">Time</text></g><g class="g-ytitle"><text class="ytitle" transform="rotate(-90,27.481250000000003,260)" x="27.481250000000003" y="260" text-anchor="middle" style="font-family: 'Open Sans', verdana, arial, sans-serif; font-size: 14px; fill: rgb(42, 63, 95); opacity: 1; font-weight: normal; white-space: pre;">Filled/%</text></g></g></svg>