<svg class="main-svg" xmlns="http://www.w3.org/2000/svg" xmlns:xlink="http://www.w3.org/1999/xlink" width="700" height="500" style="" viewBox="0 0 700 500"><rect x="0" y="0" width="700" height="500" style="fill: rgb(255, 255, 255); fill-opacity: 1;"/><defs id="defs-4d10ee"><g class="clips"><clipPath id="clip4d10eexyplot" class="plotclip"><rect width="537" height="320"/></clipPath><clipPath class="axesclip" id="clip4d10eex"><rect x="80" y="0" width="537" height="500"/></clipPath><clipPath class="axesclip" id="clip4d10eey"><rect x="0" y="100" width="700" height="320"/></clipPath><clipPath class="axesclip" id="clip4d10eexy"><rect x="80" y="100" width="537" height="320"/></clipPath></g><g class="gradients"/></defs><g class="bglayer"><rect class="bg" x="80" y="100" width="537" height="320" style="fill: rgb(229, 236, 246); fill-opacity: 1; stroke-width: 0;"/></g><g class="layer-below"><g class="imagelayer"/><g class="shapelayer"/></g><g class="cartesianlayer"><g class="subplot xy"><g class="layer-subplot"><g class="shapelayer"/><g class="imagelayer"/></g><g class="gridlayer"><g class="x"><path class="xgrid crisp" transform="translate(92.16,0)" d="M0,100v320" style="stroke: rgb(255, 255, 255); stroke-opacity: 1; stroke-width: 1px;"/><path class="xgrid crisp" transform="translate(223.13,0)" d="M0,100v320" style="stroke: rgb(255, 255, 255); stroke-opacity: 1; stroke-width: 1px;"/><path class="xgrid crisp" transform="translate(354.1,0)" d="M0,100v320" style="stroke: rgb(255, 255, 255); stroke-opacity: 1; stroke-width: 1px;"/><path class="xgrid crisp" transform="translate(485.06,0)" d="M0,100v320" style="stroke: rgb(255, 255, 255); stroke-opacity: 1; stroke-width: 1px;"/></g><g class="y"><path class="ygrid crisp" transform="translate(0,367.23)" d="M80,0h537" style="stroke: rgb(255, 255, 255); stroke-opacity: 1; stroke-width: 1px;"/><path class="ygrid crisp" transform="translate(0,308.43)" d="M80,0h537" style="stroke: rgb(255, 255, 255); stroke-opacity: 1; stroke-width: 1px;"/><path class="ygrid crisp" transform="translate(0,249.63)" d="M80,0h537" style="stroke: rgb(255, 255, 255); stroke-opacity: 1; stroke-width: 1px;"/><path class="ygrid crisp" transform="translate(0,190.82999999999998)" d="M80,0h537" style="stroke: rgb(255, 255, 255); stroke-opacity: 1; stroke-width: 1px;"/><path class="ygrid crisp" transform="translate(0,132.03)" d="M80,0h537" style="stroke: rgb(255, 255, 255); stroke-opacity: 1; stroke-width: 1px;"/></g></g><g class="zerolinelayer"/><path class="xlines-below"/><path class="ylines-below"/><g class="overlines-below"/><g class="xaxislayer-below"/><g class="yaxislayer-below"/><g class="overaxes-below"/><g class="plot" transform="translate(80,100)" clip-path="url('#clip4d10eexyplot')"><g class="scatterlayer mlayer"><g class="trace scatter trace647be9" style="stroke-miterlimit: 2; opacity: 1;"><g class="fills"/><g class="errorbars"/><g class="lines"><path class="js-line" d="M0,82.28L7.68,82.51L10.41,120.48L15.83,120.57L17.85,136.92L18.69,136.9L38.78,137.96L40.03,121.23L40.41,129.62L41.32,129.56L43.14,126.37L44.05,126.27L45.87,129.79L46.78,129.7L48.6,132.71L49.5,132.63L51.33,120.69L52.24,120.62L54.05,132.64L54.96,132.55L56.78,126.68L57.69,123.32L59.51,113.21L60.42,109.51L62.24,94.58L63.15,92.89L64.97,74.17L65.88,72.87L67.69,78.78L68.6,77.73L70.42,63.68L71.33,62.82L73.15,65.47L74.06,64.83L75.88,74.27L76.79,73.83L77.99,51.83L78.61,52.53L79.52,52.34L88.61,51.79L89.52,51.79L103.16,50.91L104.07,50.65L135.91,42.03L136.82,41.83L142.27,40.95L143.18,41.79L159.55,41.46L160.46,41.46L175.02,40.58L175.92,40.48L204.12,37.17L205.03,37.08L207.76,36.83L208.67,35.53L244.14,34L245.05,33.87L273.24,31.05L274.16,28.56L305.08,27.81L305.99,95.38L316.02,93.57L316.9,93.44L317.81,93.12L318.72,91.51L321.45,88.51L322.36,87.52L326,74.89L326.91,73.59L330.55,69.79L331.45,69.11L336.91,66.07L337.82,65.71L342.37,65.01L343.28,64.93L367.83,63.48L368.74,63.27L374.2,61.32L375.11,60.89L376.02,60.46L376.93,62.78L380.57,61.15L381.48,59.94L386.02,54.01L386.93,53.24L390.57,49.13L391.48,47.98L395.12,39.84L396.03,38.66L401.48,33.5L402.39,32.89L406.03,31.98L406.94,31.8L414.22,31.18L415.13,31.16L428.77,30.17L429.68,29.9L435.14,28.09L436.04,74.81L437.86,73.22L438.77,72.76L447.87,69.16L448.78,68.8L449.48,71.93L449.69,68.39L450.56,68.25L450.6,69.25L451.47,67.95L451.51,68.94L452.42,68.62L454.24,68.09L455.15,76.43L463.11,73.91L463.14,72.31L463.19,72.03L463.33,73.74L471.97,44.74L472.42,44.87L472.88,41.95L473.79,42.12L474.24,43.2L475.61,37.43L476.07,41.6L477.43,39.66L477.88,39.05L479.25,38.13L479.7,38.96L480.61,38.53L481.07,38.42L482.43,38.4L482.89,43.02L487.89,41.69L488.34,36.5L489.25,35.76L489.7,35.39L491.07,33.79L491.53,33.41L495.16,22.43L495.62,16L496.07,16.8L496.53,140.18L496.98,139.22L497.44,142.07L498.35,136.79L498.8,138.99L499.71,136.15L500.17,136.63L500.62,141.25L501.07,146.68L501.53,133.42L502.44,138.09L502.89,157.2L504.26,133.53L504.71,145.44L505.17,148.42L505.62,146.68L506.08,144.02L506.99,134.36L507.44,135.71L508.35,146.05L508.81,142.1L509.26,141.74L509.71,151.77L510.62,140.84L511.08,148.68L511.99,127.07L512.44,137.58L513.35,140.49L513.81,138.92L514.72,130.34L515.17,131.67L515.63,129.31L516.08,138.25L516.54,134.05L516.99,138.68L517.45,138.81L517.9,131.49L518.36,131.42L518.81,140.05L519.72,132.48L520.18,138.41L521.08,141.46L521.54,128.79L522.45,142.96L522.91,264.58L523.82,292.55L524.27,293.12L524.72,304L525.18,286.22L525.63,301.52L526.09,291.75L526.54,292.1L527,291.07L527.45,294.16L527.91,293.46L528.36,276.02L528.82,283.67L529.27,262.28L530.18,272.54L530.63,248.89L531.54,241.71L532,229.6L532.45,224.98L532.91,228.24L533.36,227.36L533.82,223.79L534.73,215.22L535.18,217.06L535.63,216.4L536.09,227.08L536.55,226.08L537,228.38" style="vector-effect: non-scaling-stroke; fill: none; stroke: rgb(99, 110, 250); stroke-opacity: 1; stroke-width: 2px; opacity: 1;"/></g><g class="points"/><g class="text"/></g></g></g><g class="overplot"/><path class="xlines-above crisp" d="M0,0" style="fill: none;"/><path class="ylines-above crisp" d="M0,0" style="fill: none;"/><g class="overlines-above"/><g class="xaxislayer-above"><g class="xtick"><text text-anchor="middle" x="0" y="433" transform="translate(92.16,0)" style="font-family: 'Open Sans', verdana, arial, sans-serif; font-size: 12px; fill: rgb(42, 63, 95); fill-opacity: 1; white-space: pre;"><tspan class="line" dy="0em" x="0" y="433">Jun 4</tspan><tspan class="line" dy="1.3em" x="0" y="433">2021</tspan></text></g><g class="xtick"><text text-anchor="middle" x="0" y="433" transform="translate(223.13,0)" style="font-family: 'Open Sans', verdana, arial, sans-serif; font-size: 12px; fill: rgb(42, 63, 95); fill-opacity: 1; white-space: pre;">Jun 6</text></g><g class="xtick"><text text-anchor="middle" x="0" y="433" transform="translate(354.1,0)" style="font-family: 'Open Sans', verdana, arial, sans-serif; font-size: 12px; fill: rgb(42, 63, 95); fill-opacity: 1; white-space: pre;">Jun 8</text></g><g class="xtick"><text text-anchor="middle" x="0" y="433" transform="translate(485.06,0)" style="font-family: 'Open Sans', verdana, arial, sans-serif; font-size: 12px; fill: rgb(42, 63, 95); fill-opacity: 1; white-space: pre;">Jun 10</text></g><g class="xtick"><text text-anchor="middle" x="0" y="433" transform="translate(616.03,0)" style="font-family: 'Open Sans', verdana, arial, sans-serif; font-size: 12px; fill: rgb(42, 63, 95); fill-opacity: 1; white-space: pre;">Jun 12</text></g></g><g class="yaxislayer-above"><g class="ytick"><text text-anchor="end" x="79" y="4.199999999999999" transform="translate(0,367.23)" style="font-family: 'Open Sans', verdana, arial, sans-serif; font-size: 12px; fill: rgb(42, 63, 95); fill-opacity: 1; white-space: pre;">0.8</text></g><g class="ytick"><text text-anchor="end" x="79" y="4.199999999999999" transform="translate(0,308.43)" style="font-family: 'Open Sans', verdana, arial, sans-serif; font-size: 12px; fill: rgb(42, 63, 95); fill-opacity: 1; white-space: pre;">0.82</text></g><g class="ytick"><text text-anchor="end" x="79" y="4.199999999999999" transform="translate(0,249.63)" style="font-family: 'Open Sans', verdana, arial, sans-serif; font-size: 12px; fill: rgb(42, 63, 95); fill-opacity: 1; white-space: pre;">0.84</text></g><g class="ytick"><text text-anchor="end" x="79" y="4.199999999999999" transform="translate(0,190.82999999999998)" style="font-family: 'Open Sans', verdana, arial, sans-serif; font-size: 12px; fill: rgb(42, 63, 95); fill-opacity: 1; white-space: pre;">0.86</text></g><g class="ytick"><text text-anchor="end" x="79" y="4.199999999999999" transform="translate(0,132.03)" style="font-family: 'Open Sans', verdana, arial, sans-serif; font-size: 12px; fill: rgb(42, 63, 95); fill-opacity: 1; white-space: pre;">0.88</text></g></g><g class="overaxes-above"/></g></g><g class="polarlayer"/><g class="ternarylayer"/><g class="geolayer"/><g class="funnelarealayer"/><g class="pielayer"/><g class="treemaplayer"/><g class="sunburstlayer"/><g class="glimages"/><defs id="topdefs-4d10ee"><g class="clips"/><clipPath id="legend4d10ee"><rect width="60" height="45" x="0" y="0"/></clipPath></defs><g class="layer-above"><g class="imagelayer"/><g class="shapelayer"/></g><g class="infolayer"><g class="legend" pointer-events="all" transform="translate(627.74,100)"><rect class="bg" shape-rendering="crispEdges" width="60" height="45" x="0" y="0" style="stroke: rgb(68, 68, 68); stroke-opacity: 1; fill: rgb(255, 255, 255); fill-opacity: 1; stroke-width: 0px;"/><g class="scrollbox" transform="" clip-path="url('#legend4d10ee')"><text class="legendtitletext" text-anchor="start" x="2" y="15.600000000000001" style="font-family: 'Open Sans', verdana, arial, sans-serif; font-size: 12px; fill: rgb(42, 63, 95); fill-opacity: 1; white-space: pre;">All</text><g class="groups" transform=""><g class="traces" transform="translate(0,30.1)" style="opacity: 1;"><text class="legendtext" text-anchor="start" x="40" y="4.680000000000001" style="font-family: 'Open Sans', verdana, arial, sans-serif; font-size: 12px; fill: rgb(42, 63, 95); fill-opacity: 1; white-space: pre;">All</text><g class="layers" style="opacity: 1;"><g class="legendfill"/><g class="legendlines"><path class="js-line" d="M5,0h30" style="fill: none; stroke: rgb(99, 110, 250); stroke-opacity: 1; stroke-width: 2px;"/></g><g class="legendsymbols"><g class="legendpoints"/></g></g><rect class="legendtoggle" x="0" y="-9.5" width="54.890625" height="19" style="fill: rgb(0, 0, 0); fill-opacity: 0;"/></g></g></g><rect class="scrollbar" rx="20" ry="3" width="0" height="0" x="0" y="0" style="fill: rgb(128, 139, 164); fill-opacity: 1;"/></g><g class="g-gtitle"><text class="gtitle" x="35" y="50" text-anchor="start" dy="0em" style="font-family: 'Open Sans', verdana, arial, sans-serif; font-size: 17px; fill: rgb(42, 63, 95); opacity: 1; font-weight: normal; white-space: pre;">Singapore Vaccination Centers</text></g><g class="g-xtitle"><text class="xtitle" x="348.5" y="476.409375" text-anchor="middle" style="font-family: 'Open Sans', verdana, arial, sans-serif; font-size: 14px; fill: rgb(42, 63, 95); opacity: 1; font-weight: normal; white-space: pre;">Time</text></g><g class="g-ytitle"><text class="ytitle" transform="rotate(-90,27.481250000000003,260)" x="27.481250000000003" y="260" text-anchor="middle" style="font-family: 'Open Sans', verdana, arial, sans-serif; font-size: 14px; fill: rgb(42, 63, 95); opacity: 1; font-weight: normal; white-space: pre;">Filled/%</text></g></g></svg>