<svg class="main-svg" xmlns="http://www.w3.org/2000/svg" xmlns:xlink="http://www.w3.org/1999/xlink" width="700" height="500" style="" viewBox="0 0 700 500"><rect x="0" y="0" width="700" height="500" style="fill: rgb(255, 255, 255); fill-opacity: 1;"/><defs id="defs-7a3678"><g class="clips"><clipPath id="clip7a3678xyplot" class="plotclip"><rect width="537" height="320"/></clipPath><clipPath class="axesclip" id="clip7a3678x"><rect x="80" y="0" width="537" height="500"/></clipPath><clipPath class="axesclip" id="clip7a3678y"><rect x="0" y="100" width="700" height="320"/></clipPath><clipPath class="axesclip" id="clip7a3678xy"><rect x="80" y="100" width="537" height="320"/></clipPath></g><g class="gradients"/></defs><g class="bglayer"><rect class="bg" x="80" y="100" width="537" height="320" style="fill: rgb(229, 236, 246); fill-opacity: 1; stroke-width: 0;"/></g><g class="layer-below"><g class="imagelayer"/><g class="shapelayer"/></g><g class="cartesianlayer"><g class="subplot xy"><g class="layer-subplot"><g class="shapelayer"/><g class="imagelayer"/></g><g class="gridlayer"><g class="x"><path class="xgrid crisp" transform="translate(92.78999999999999,0)" d="M0,100v320" style="stroke: rgb(255, 255, 255); stroke-opacity: 1; stroke-width: 1px;"/><path class="xgrid crisp" transform="translate(230.52,0)" d="M0,100v320" style="stroke: rgb(255, 255, 255); stroke-opacity: 1; stroke-width: 1px;"/><path class="xgrid crisp" transform="translate(368.26,0)" d="M0,100v320" style="stroke: rgb(255, 255, 255); stroke-opacity: 1; stroke-width: 1px;"/><path class="xgrid crisp" transform="translate(505.99,0)" d="M0,100v320" style="stroke: rgb(255, 255, 255); stroke-opacity: 1; stroke-width: 1px;"/></g><g class="y"><path class="ygrid crisp" transform="translate(0,388.55)" d="M80,0h537" style="stroke: rgb(255, 255, 255); stroke-opacity: 1; stroke-width: 1px;"/><path class="ygrid crisp" transform="translate(0,328.59000000000003)" d="M80,0h537" style="stroke: rgb(255, 255, 255); stroke-opacity: 1; stroke-width: 1px;"/><path class="ygrid crisp" transform="translate(0,268.62)" d="M80,0h537" style="stroke: rgb(255, 255, 255); stroke-opacity: 1; stroke-width: 1px;"/><path class="ygrid crisp" transform="translate(0,208.65)" d="M80,0h537" style="stroke: rgb(255, 255, 255); stroke-opacity: 1; stroke-width: 1px;"/><path class="ygrid crisp" transform="translate(0,148.69)" d="M80,0h537" style="stroke: rgb(255, 255, 255); stroke-opacity: 1; stroke-width: 1px;"/></g></g><g class="zerolinelayer"/><path class="xlines-below"/><path class="ylines-below"/><g class="overlines-below"/><g class="xaxislayer-below"/><g class="yaxislayer-below"/><g class="overaxes-below"/><g class="plot" transform="translate(80,100)" clip-path="url('#clip7a3678xyplot')"><g class="scatterlayer mlayer"><g class="trace scatter tracecd86a5" style="stroke-miterlimit: 2; opacity: 1;"><g class="fills"/><g class="errorbars"/><g class="lines"><path class="js-line" d="M0,151.19L8.08,151.66L10.94,229.1L16.65,229.27L18.77,262.63L19.66,262.59L40.78,264.75L42.1,230.62L42.5,247.75L43.46,247.62L45.37,241.12L46.33,240.91L48.24,248.08L49.19,247.91L51.11,254.04L52.06,253.87L53.98,229.53L54.94,229.39L56.84,253.89L57.8,253.71L59.72,241.74L60.67,234.89L62.59,214.27L63.54,206.72L65.45,176.26L66.41,172.83L68.32,134.64L69.28,132L71.19,144.05L72.15,141.9L74.06,113.25L75.02,111.49L76.93,116.91L77.89,115.59L79.8,134.84L80.76,133.95L82.02,89.08L82.67,90.52L83.63,90.13L89.37,89.24L90.32,89.09L105.62,88.15L106.58,87.9L110.41,86.16L111.36,85.57L135.28,72.26L136.23,71.89L149.62,66.89L150.58,68.6L160.15,68.01L161.1,68L179.27,67.22L180.23,67.01L218.49,58.48L219.45,55.84L230.93,55.49L231.88,55.49L246.23,54.9L247.18,54.72L261.53,51.59L262.49,51.4L283.53,47.34L284.48,47.14L287.36,46.7L288.32,41.63L304.58,41.35L305.53,41.34L317.01,40.62L317.97,40.47L320.84,40.09L321.79,177.9L329.47,174.99L330.44,174.7L334.23,173.3L335.18,170.02L337.1,165.13L338.05,163.9L339.01,161.87L339.97,156.05L341.88,139.75L342.84,136.11L346.66,127.34L347.62,125.71L352.4,119.81L353.36,118.87L356.23,116.83L357.18,116.97L361.01,115.8L361.97,115.71L373.44,115.2L374.4,115.19L382.05,114.44L383.01,114.25L390.66,110.82L391.62,110.1L395.44,106.69L396.4,111.42L399.27,109.69L400.22,108.08L405.96,93.54L406.92,91.96L409.79,85.93L410.74,83.58L411.7,81.23L412.66,76.19L415.53,64.63L416.49,62.22L421.27,53.04L422.22,51.69L425.09,48.8L426.05,49.12L429.87,47.64L430.83,47.48L439.44,46.79L440.4,46.74L448.05,45.95L449.01,45.71L453.79,43.17L454.74,42.54L457.61,40.66L458.57,135.95L460.48,132.71L461.44,131.76L469.09,125.54L470.05,125.01L471.96,123.7L472.7,130.07L472.92,122.85L473.83,122.57L473.88,124.6L474.79,121.95L474.83,123.98L475.79,123.33L477.7,122.24L478.66,139.26L487.03,134.11L487.07,130.85L487.12,130.28L487.27,133.76L496.35,74.61L496.83,74.88L497.31,68.92L498.26,69.28L498.74,71.47L500.18,59.71L500.66,68.22L501.61,65.31L502.09,64.27L504,61.13L504.48,62.83L504.96,61.41L505.44,61.96L505.92,61.73L507.35,61.69L507.83,71.11L509.74,70.86L510.22,69.29L510.7,70.36L511.18,70.09L511.65,69.01L512.61,68.96L513.09,68.4L514.05,57.64L514.52,56.31L516.92,51.51L517.39,48.58L517.87,48.66L518.35,46.17L519.31,37.58L519.78,35.63L520.26,34.38L520.74,29.12L521.22,16L521.7,17.64L522.18,269.28L522.66,267.32L523.13,273.13L524.09,262.37L524.57,266.85L525.53,261.05L526.01,262.03L526.48,271.47L526.96,282.53L527.44,255.49L528.39,265.01L528.87,304L530.31,255.72L530.78,280.01L531.26,286.09L531.74,282.54L532.22,277.11L532.7,263.01L533.18,257.41L533.65,260.16L534.13,272.66L534.61,281.24L535.09,273.19L535.57,272.46L536.04,292.91L537,270.62" style="vector-effect: non-scaling-stroke; fill: none; stroke: rgb(99, 110, 250); stroke-opacity: 1; stroke-width: 2px; opacity: 1;"/></g><g class="points"/><g class="text"/></g></g></g><g class="overplot"/><path class="xlines-above crisp" d="M0,0" style="fill: none;"/><path class="ylines-above crisp" d="M0,0" style="fill: none;"/><g class="overlines-above"/><g class="xaxislayer-above"><g class="xtick"><text text-anchor="middle" x="0" y="433" transform="translate(92.78999999999999,0)" style="font-family: 'Open Sans', verdana, arial, sans-serif; font-size: 12px; fill: rgb(42, 63, 95); fill-opacity: 1; white-space: pre;"><tspan class="line" dy="0em" x="0" y="433">Jun 4</tspan><tspan class="line" dy="1.3em" x="0" y="433">2021</tspan></text></g><g class="xtick"><text text-anchor="middle" x="0" y="433" transform="translate(230.52,0)" style="font-family: 'Open Sans', verdana, arial, sans-serif; font-size: 12px; fill: rgb(42, 63, 95); fill-opacity: 1; white-space: pre;">Jun 6</text></g><g class="xtick"><text text-anchor="middle" x="0" y="433" transform="translate(368.26,0)" style="font-family: 'Open Sans', verdana, arial, sans-serif; font-size: 12px; fill: rgb(42, 63, 95); fill-opacity: 1; white-space: pre;">Jun 8</text></g><g class="xtick"><text text-anchor="middle" x="0" y="433" transform="translate(505.99,0)" style="font-family: 'Open Sans', verdana, arial, sans-serif; font-size: 12px; fill: rgb(42, 63, 95); fill-opacity: 1; white-space: pre;">Jun 10</text></g></g><g class="yaxislayer-above"><g class="ytick"><text text-anchor="end" x="79" y="4.199999999999999" transform="translate(0,388.55)" style="font-family: 'Open Sans', verdana, arial, sans-serif; font-size: 12px; fill: rgb(42, 63, 95); fill-opacity: 1; white-space: pre;">0.84</text></g><g class="ytick"><text text-anchor="end" x="79" y="4.199999999999999" transform="translate(0,328.59000000000003)" style="font-family: 'Open Sans', verdana, arial, sans-serif; font-size: 12px; fill: rgb(42, 63, 95); fill-opacity: 1; white-space: pre;">0.85</text></g><g class="ytick"><text text-anchor="end" x="79" y="4.199999999999999" transform="translate(0,268.62)" style="font-family: 'Open Sans', verdana, arial, sans-serif; font-size: 12px; fill: rgb(42, 63, 95); fill-opacity: 1; white-space: pre;">0.86</text></g><g class="ytick"><text text-anchor="end" x="79" y="4.199999999999999" transform="translate(0,208.65)" style="font-family: 'Open Sans', verdana, arial, sans-serif; font-size: 12px; fill: rgb(42, 63, 95); fill-opacity: 1; white-space: pre;">0.87</text></g><g class="ytick"><text text-anchor="end" x="79" y="4.199999999999999" transform="translate(0,148.69)" style="font-family: 'Open Sans', verdana, arial, sans-serif; font-size: 12px; fill: rgb(42, 63, 95); fill-opacity: 1; white-space: pre;">0.88</text></g></g><g class="overaxes-above"/></g></g><g class="polarlayer"/><g class="ternarylayer"/><g class="geolayer"/><g class="funnelarealayer"/><g class="pielayer"/><g class="treemaplayer"/><g class="sunburstlayer"/><g class="glimages"/><defs id="topdefs-7a3678"><g class="clips"/><clipPath id="legend7a3678"><rect width="60" height="45" x="0" y="0"/></clipPath></defs><g class="layer-above"><g class="imagelayer"/><g class="shapelayer"/></g><g class="infolayer"><g class="legend" pointer-events="all" transform="translate(627.74,100)"><rect class="bg" shape-rendering="crispEdges" width="60" height="45" x="0" y="0" style="stroke: rgb(68, 68, 68); stroke-opacity: 1; fill: rgb(255, 255, 255); fill-opacity: 1; stroke-width: 0px;"/><g class="scrollbox" transform="" clip-path="url('#legend7a3678')"><text class="legendtitletext" text-anchor="start" x="2" y="15.600000000000001" style="font-family: 'Open Sans', verdana, arial, sans-serif; font-size: 12px; fill: rgb(42, 63, 95); fill-opacity: 1; white-space: pre;">All</text><g class="groups" transform=""><g class="traces" transform="translate(0,30.1)" style="opacity: 1;"><text class="legendtext" text-anchor="start" x="40" y="4.680000000000001" style="font-family: 'Open Sans', verdana, arial, sans-serif; font-size: 12px; fill: rgb(42, 63, 95); fill-opacity: 1; white-space: pre;">All</text><g class="layers" style="opacity: 1;"><g class="legendfill"/><g class="legendlines"><path class="js-line" d="M5,0h30" style="fill: none; stroke: rgb(99, 110, 250); stroke-opacity: 1; stroke-width: 2px;"/></g><g class="legendsymbols"><g class="legendpoints"/></g></g><rect class="legendtoggle" x="0" y="-9.5" width="54.890625" height="19" style="fill: rgb(0, 0, 0); fill-opacity: 0;"/></g></g></g><rect class="scrollbar" rx="20" ry="3" width="0" height="0" x="0" y="0" style="fill: rgb(128, 139, 164); fill-opacity: 1;"/></g><g class="g-gtitle"><text class="gtitle" x="35" y="50" text-anchor="start" dy="0em" style="font-family: 'Open Sans', verdana, arial, sans-serif; font-size: 17px; fill: rgb(42, 63, 95); opacity: 1; font-weight: normal; white-space: pre;">Singapore Vaccination Centers</text></g><g class="g-xtitle"><text class="xtitle" x="348.5" y="476.409375" text-anchor="middle" style="font-family: 'Open Sans', verdana, arial, sans-serif; font-size: 14px; fill: rgb(42, 63, 95); opacity: 1; font-weight: normal; white-space: pre;">Time</text></g><g class="g-ytitle"><text class="ytitle" transform="rotate(-90,27.481250000000003,260)" x="27.481250000000003" y="260" text-anchor="middle" style="font-family: 'Open Sans', verdana, arial, sans-serif; font-size: 14px; fill: rgb(42, 63, 95); opacity: 1; font-weight: normal; white-space: pre;">Filled/%</text></g></g></svg>