<svg class="main-svg" xmlns="http://www.w3.org/2000/svg" xmlns:xlink="http://www.w3.org/1999/xlink" width="700" height="500" style="" viewBox="0 0 700 500"><rect x="0" y="0" width="700" height="500" style="fill: rgb(255, 255, 255); fill-opacity: 1;"/><defs id="defs-224be6"><g class="clips"><clipPath id="clip224be6xyplot" class="plotclip"><rect width="537" height="320"/></clipPath><clipPath class="axesclip" id="clip224be6x"><rect x="80" y="0" width="537" height="500"/></clipPath><clipPath class="axesclip" id="clip224be6y"><rect x="0" y="100" width="700" height="320"/></clipPath><clipPath class="axesclip" id="clip224be6xy"><rect x="80" y="100" width="537" height="320"/></clipPath></g><g class="gradients"/></defs><g class="bglayer"><rect class="bg" x="80" y="100" width="537" height="320" style="fill: rgb(229, 236, 246); fill-opacity: 1; stroke-width: 0;"/></g><g class="layer-below"><g class="imagelayer"/><g class="shapelayer"/></g><g class="cartesianlayer"><g class="subplot xy"><g class="layer-subplot"><g class="shapelayer"/><g class="imagelayer"/></g><g class="gridlayer"><g class="x"><path class="xgrid crisp" transform="translate(91.08,0)" d="M0,100v320" style="stroke: rgb(255, 255, 255); stroke-opacity: 1; stroke-width: 1px;"/><path class="xgrid crisp" transform="translate(210.43,0)" d="M0,100v320" style="stroke: rgb(255, 255, 255); stroke-opacity: 1; stroke-width: 1px;"/><path class="xgrid crisp" transform="translate(329.77,0)" d="M0,100v320" style="stroke: rgb(255, 255, 255); stroke-opacity: 1; stroke-width: 1px;"/><path class="xgrid crisp" transform="translate(449.12,0)" d="M0,100v320" style="stroke: rgb(255, 255, 255); stroke-opacity: 1; stroke-width: 1px;"/><path class="xgrid crisp" transform="translate(568.46,0)" d="M0,100v320" style="stroke: rgb(255, 255, 255); stroke-opacity: 1; stroke-width: 1px;"/></g><g class="y"><path class="ygrid crisp" transform="translate(0,367.23)" d="M80,0h537" style="stroke: rgb(255, 255, 255); stroke-opacity: 1; stroke-width: 1px;"/><path class="ygrid crisp" transform="translate(0,308.43)" d="M80,0h537" style="stroke: rgb(255, 255, 255); stroke-opacity: 1; stroke-width: 1px;"/><path class="ygrid crisp" transform="translate(0,249.63)" d="M80,0h537" style="stroke: rgb(255, 255, 255); stroke-opacity: 1; stroke-width: 1px;"/><path class="ygrid crisp" transform="translate(0,190.82999999999998)" d="M80,0h537" style="stroke: rgb(255, 255, 255); stroke-opacity: 1; stroke-width: 1px;"/><path class="ygrid crisp" transform="translate(0,132.03)" d="M80,0h537" style="stroke: rgb(255, 255, 255); stroke-opacity: 1; stroke-width: 1px;"/></g></g><g class="zerolinelayer"/><path class="xlines-below"/><path class="ylines-below"/><g class="overlines-below"/><g class="xaxislayer-below"/><g class="yaxislayer-below"/><g class="overaxes-below"/><g class="plot" transform="translate(80,100)" clip-path="url('#clip224be6xyplot')"><g class="scatterlayer mlayer"><g class="trace scatter trace12656f" style="stroke-miterlimit: 2; opacity: 1;"><g class="fills"/><g class="errorbars"/><g class="lines"><path class="js-line" d="M0,82.28L7,82.51L9.48,120.48L14.43,120.57L16.26,136.92L17.04,136.9L35.34,137.96L36.48,121.23L36.82,129.62L37.65,129.56L39.31,126.37L40.14,126.27L41.8,129.79L42.63,129.7L44.28,132.71L45.11,132.63L46.77,120.69L47.6,120.62L49.26,132.64L50.09,132.55L51.74,126.68L52.57,123.32L54.23,113.21L55.06,109.51L56.72,94.58L57.54,92.89L59.2,74.17L60.03,72.87L61.69,78.78L62.52,77.73L64.17,63.68L65,62.82L66.66,65.47L67.49,64.83L69.15,74.27L69.98,73.83L71.07,51.83L71.63,52.53L72.46,52.34L80.75,51.79L81.58,51.79L94.01,50.91L94.84,50.65L123.84,42.03L124.67,41.83L129.65,40.95L130.48,41.79L145.39,41.46L146.22,41.46L159.48,40.58L160.31,40.48L186.83,37.08L187.66,36.99L189.32,36.83L190.15,35.53L222.47,34L223.3,33.87L249,31.05L249.83,28.56L278,27.81L278.83,95.38L287.98,93.57L288.78,93.44L289.61,93.12L290.44,91.51L292.92,88.51L293.75,87.52L297.9,73.59L298.72,72.39L303.7,67.88L304.53,67.37L308.67,65.43L309.5,65.5L315.3,64.8L316.13,64.77L334.36,63.66L335.19,63.48L340.99,61.32L341.82,60.89L342.65,60.46L343.48,62.78L346.79,61.15L347.62,59.94L352.59,53.24L353.42,52.44L356.74,47.98L357.57,45.51L360.88,38.66L361.71,37.65L365.85,33.5L366.68,32.89L370,31.98L370.83,31.8L377.46,31.18L378.29,31.16L390.72,30.17L391.55,29.9L396.52,28.09L397.35,74.81L399.01,73.22L399.84,72.76L408.12,69.16L408.95,68.8L409.59,71.93L409.78,68.39L410.57,68.25L410.61,69.25L411.4,67.95L411.44,68.94L412.27,68.62L413.93,68.09L414.76,76.43L422.01,73.91L422.04,72.31L422.09,72.03L422.22,73.74L430.09,44.74L430.5,44.87L430.92,41.95L431.74,42.12L432.16,43.2L433.4,37.43L433.82,41.6L435.06,39.66L435.48,39.05L436.72,38.13L437.13,38.96L437.55,38.26L437.96,38.53L438.38,38.42L439.62,38.4L440.03,43.02L444.59,41.69L445.01,36.5L445.83,35.76L446.25,35.39L447.49,33.79L447.91,33.41L451.22,22.43L451.63,16L452.05,16.8L452.46,140.18L452.88,139.22L453.29,142.07L454.12,136.79L454.54,138.99L455.37,136.15L455.78,136.63L456.19,141.25L456.61,146.68L457.02,133.42L457.85,138.09L458.27,157.2L459.51,133.53L459.92,145.44L460.34,148.42L460.75,146.68L461.17,144.02L461.99,134.36L462.41,135.71L462.82,141.84L463.24,146.05L463.65,142.1L464.07,141.74L464.48,151.77L465.31,140.84L465.72,148.68L466.55,127.07L466.97,137.58L467.8,140.49L468.21,138.92L469.04,130.34L469.45,131.67L469.87,129.31L470.28,138.25L470.7,134.05L471.11,138.68L471.53,138.81L471.94,131.49L472.36,131.42L472.77,140.05L473.6,132.48L474.01,138.41L474.84,141.46L475.26,128.79L476.08,142.96L476.5,264.58L477.33,292.55L477.74,293.12L478.16,304L478.58,286.22L478.99,301.52L479.4,291.75L479.81,292.1L480.23,291.07L480.65,294.16L481.06,293.46L481.47,276.02L481.89,283.67L482.3,262.28L483.13,272.54L483.54,248.89L484.37,241.71L484.79,229.6L485.2,224.98L485.62,228.24L486.03,227.36L487.27,215.22L487.69,217.06L488.1,216.4L488.52,227.08L488.93,226.08L489.35,228.38L489.76,228.68L490.17,224.72L490.59,233.57L491,224.28L491.83,227.75L492.25,223.07L493.08,226.33L493.49,223.26L493.9,224.52L494.32,234.01L494.73,220.81L495.15,231.91L496.39,220.15L496.8,220.86L498.05,212.72L498.46,220.76L499.29,220.72L499.71,223.7L500.12,223.67L500.53,219.37L500.95,223.08L501.36,218.62L501.78,226.76L502.19,225.2L502.61,224.19L503.02,219.51L503.44,225.16L504.68,225.11L505.09,216.49L505.51,225.05L505.92,220.43L506.33,220.57L506.75,218.19L507.16,220.92L507.58,219.84L507.99,227.36L508.41,216.65L508.82,220.1L509.24,220.01L510.06,220.98L510.48,218.78L511.31,223.64L511.72,218.66L512.13,205.85L512.55,215.25L512.96,220.32L513.38,206.18L513.79,206.81L514.21,214.16L514.62,214.11L515.04,206.99L515.87,212.47L516.28,202.23L516.7,199.24L517.11,208.71L517.53,224.84L517.94,215.2L518.35,214.49L518.77,205.74L519.18,219.6L520.01,195.82L520.42,209.77L520.84,208.24L521.25,203.32L521.67,202.05L522.08,205.17L522.5,200.81L522.91,208.16L523.32,206.35L523.74,209.96L524.15,207.44L524.57,196.45L524.98,195.36L525.4,196.45L526.23,209.39L526.64,202.33L527.05,210.92L527.47,197.09L527.88,197.31L528.3,191.05L528.71,191.24L529.12,196.07L529.54,200.65L529.95,194.37L531.2,210.5L531.61,204.27L532.44,191.94L532.86,193.62L533.27,197L533.68,205.03L534.1,197.14L534.51,198.57L534.93,192.99L536.17,184.28L536.59,189.51L537,193.62" style="vector-effect: non-scaling-stroke; fill: none; stroke: rgb(99, 110, 250); stroke-opacity: 1; stroke-width: 2px; opacity: 1;"/></g><g class="points"/><g class="text"/></g></g></g><g class="overplot"/><path class="xlines-above crisp" d="M0,0" style="fill: none;"/><path class="ylines-above crisp" d="M0,0" style="fill: none;"/><g class="overlines-above"/><g class="xaxislayer-above"><g class="xtick"><text text-anchor="middle" x="0" y="433" transform="translate(91.08,0)" style="font-family: 'Open Sans', verdana, arial, sans-serif; font-size: 12px; fill: rgb(42, 63, 95); fill-opacity: 1; white-space: pre;"><tspan class="line" dy="0em" x="0" y="433">Jun 4</tspan><tspan class="line" dy="1.3em" x="0" y="433">2021</tspan></text></g><g class="xtick"><text text-anchor="middle" x="0" y="433" transform="translate(210.43,0)" style="font-family: 'Open Sans', verdana, arial, sans-serif; font-size: 12px; fill: rgb(42, 63, 95); fill-opacity: 1; white-space: pre;">Jun 6</text></g><g class="xtick"><text text-anchor="middle" x="0" y="433" transform="translate(329.77,0)" style="font-family: 'Open Sans', verdana, arial, sans-serif; font-size: 12px; fill: rgb(42, 63, 95); fill-opacity: 1; white-space: pre;">Jun 8</text></g><g class="xtick"><text text-anchor="middle" x="0" y="433" transform="translate(449.12,0)" style="font-family: 'Open Sans', verdana, arial, sans-serif; font-size: 12px; fill: rgb(42, 63, 95); fill-opacity: 1; white-space: pre;">Jun 10</text></g><g class="xtick"><text text-anchor="middle" x="0" y="433" transform="translate(568.46,0)" style="font-family: 'Open Sans', verdana, arial, sans-serif; font-size: 12px; fill: rgb(42, 63, 95); fill-opacity: 1; white-space: pre;">Jun 12</text></g></g><g class="yaxislayer-above"><g class="ytick"><text text-anchor="end" x="79" y="4.199999999999999" transform="translate(0,367.23)" style="font-family: 'Open Sans', verdana, arial, sans-serif; font-size: 12px; fill: rgb(42, 63, 95); fill-opacity: 1; white-space: pre;">0.8</text></g><g class="ytick"><text text-anchor="end" x="79" y="4.199999999999999" transform="translate(0,308.43)" style="font-family: 'Open Sans', verdana, arial, sans-serif; font-size: 12px; fill: rgb(42, 63, 95); fill-opacity: 1; white-space: pre;">0.82</text></g><g class="ytick"><text text-anchor="end" x="79" y="4.199999999999999" transform="translate(0,249.63)" style="font-family: 'Open Sans', verdana, arial, sans-serif; font-size: 12px; fill: rgb(42, 63, 95); fill-opacity: 1; white-space: pre;">0.84</text></g><g class="ytick"><text text-anchor="end" x="79" y="4.199999999999999" transform="translate(0,190.82999999999998)" style="font-family: 'Open Sans', verdana, arial, sans-serif; font-size: 12px; fill: rgb(42, 63, 95); fill-opacity: 1; white-space: pre;">0.86</text></g><g class="ytick"><text text-anchor="end" x="79" y="4.199999999999999" transform="translate(0,132.03)" style="font-family: 'Open Sans', verdana, arial, sans-serif; font-size: 12px; fill: rgb(42, 63, 95); fill-opacity: 1; white-space: pre;">0.88</text></g></g><g class="overaxes-above"/></g></g><g class="polarlayer"/><g class="ternarylayer"/><g class="geolayer"/><g class="funnelarealayer"/><g class="pielayer"/><g class="treemaplayer"/><g class="sunburstlayer"/><g class="glimages"/><defs id="topdefs-224be6"><g class="clips"/><clipPath id="legend224be6"><rect width="60" height="45" x="0" y="0"/></clipPath></defs><g class="layer-above"><g class="imagelayer"/><g class="shapelayer"/></g><g class="infolayer"><g class="legend" pointer-events="all" transform="translate(627.74,100)"><rect class="bg" shape-rendering="crispEdges" width="60" height="45" x="0" y="0" style="stroke: rgb(68, 68, 68); stroke-opacity: 1; fill: rgb(255, 255, 255); fill-opacity: 1; stroke-width: 0px;"/><g class="scrollbox" transform="" clip-path="url('#legend224be6')"><text class="legendtitletext" text-anchor="start" x="2" y="15.600000000000001" style="font-family: 'Open Sans', verdana, arial, sans-serif; font-size: 12px; fill: rgb(42, 63, 95); fill-opacity: 1; white-space: pre;">All</text><g class="groups" transform=""><g class="traces" transform="translate(0,30.1)" style="opacity: 1;"><text class="legendtext" text-anchor="start" x="40" y="4.680000000000001" style="font-family: 'Open Sans', verdana, arial, sans-serif; font-size: 12px; fill: rgb(42, 63, 95); fill-opacity: 1; white-space: pre;">All</text><g class="layers" style="opacity: 1;"><g class="legendfill"/><g class="legendlines"><path class="js-line" d="M5,0h30" style="fill: none; stroke: rgb(99, 110, 250); stroke-opacity: 1; stroke-width: 2px;"/></g><g class="legendsymbols"><g class="legendpoints"/></g></g><rect class="legendtoggle" x="0" y="-9.5" width="54.890625" height="19" style="fill: rgb(0, 0, 0); fill-opacity: 0;"/></g></g></g><rect class="scrollbar" rx="20" ry="3" width="0" height="0" x="0" y="0" style="fill: rgb(128, 139, 164); fill-opacity: 1;"/></g><g class="g-gtitle"><text class="gtitle" x="35" y="50" text-anchor="start" dy="0em" style="font-family: 'Open Sans', verdana, arial, sans-serif; font-size: 17px; fill: rgb(42, 63, 95); opacity: 1; font-weight: normal; white-space: pre;">Singapore Vaccination Centers</text></g><g class="g-xtitle"><text class="xtitle" x="348.5" y="476.409375" text-anchor="middle" style="font-family: 'Open Sans', verdana, arial, sans-serif; font-size: 14px; fill: rgb(42, 63, 95); opacity: 1; font-weight: normal; white-space: pre;">Time</text></g><g class="g-ytitle"><text class="ytitle" transform="rotate(-90,27.481250000000003,260)" x="27.481250000000003" y="260" text-anchor="middle" style="font-family: 'Open Sans', verdana, arial, sans-serif; font-size: 14px; fill: rgb(42, 63, 95); opacity: 1; font-weight: normal; white-space: pre;">Filled/%</text></g></g></svg>