<svg class="main-svg" xmlns="http://www.w3.org/2000/svg" xmlns:xlink="http://www.w3.org/1999/xlink" width="700" height="500" style="" viewBox="0 0 700 500"><rect x="0" y="0" width="700" height="500" style="fill: rgb(255, 255, 255); fill-opacity: 1;"/><defs id="defs-dae875"><g class="clips"><clipPath id="clipdae875xyplot" class="plotclip"><rect width="537" height="320"/></clipPath><clipPath class="axesclip" id="clipdae875x"><rect x="80" y="0" width="537" height="500"/></clipPath><clipPath class="axesclip" id="clipdae875y"><rect x="0" y="100" width="700" height="320"/></clipPath><clipPath class="axesclip" id="clipdae875xy"><rect x="80" y="100" width="537" height="320"/></clipPath></g><g class="gradients"/></defs><g class="bglayer"><rect class="bg" x="80" y="100" width="537" height="320" style="fill: rgb(229, 236, 246); fill-opacity: 1; stroke-width: 0;"/></g><g class="layer-below"><g class="imagelayer"/><g class="shapelayer"/></g><g class="cartesianlayer"><g class="subplot xy"><g class="layer-subplot"><g class="shapelayer"/><g class="imagelayer"/></g><g class="gridlayer"><g class="x"><path class="xgrid crisp" transform="translate(82.22,0)" d="M0,100v320" style="stroke: rgb(255, 255, 255); stroke-opacity: 1; stroke-width: 1px;"/><path class="xgrid crisp" transform="translate(167.76999999999998,0)" d="M0,100v320" style="stroke: rgb(255, 255, 255); stroke-opacity: 1; stroke-width: 1px;"/><path class="xgrid crisp" transform="translate(253.32,0)" d="M0,100v320" style="stroke: rgb(255, 255, 255); stroke-opacity: 1; stroke-width: 1px;"/><path class="xgrid crisp" transform="translate(338.87,0)" d="M0,100v320" style="stroke: rgb(255, 255, 255); stroke-opacity: 1; stroke-width: 1px;"/><path class="xgrid crisp" transform="translate(424.42,0)" d="M0,100v320" style="stroke: rgb(255, 255, 255); stroke-opacity: 1; stroke-width: 1px;"/><path class="xgrid crisp" transform="translate(509.97,0)" d="M0,100v320" style="stroke: rgb(255, 255, 255); stroke-opacity: 1; stroke-width: 1px;"/><path class="xgrid crisp" transform="translate(595.52,0)" d="M0,100v320" style="stroke: rgb(255, 255, 255); stroke-opacity: 1; stroke-width: 1px;"/></g><g class="y"><path class="ygrid crisp" transform="translate(0,393.08)" d="M80,0h537" style="stroke: rgb(255, 255, 255); stroke-opacity: 1; stroke-width: 1px;"/><path class="ygrid crisp" transform="translate(0,352.28999999999996)" d="M80,0h537" style="stroke: rgb(255, 255, 255); stroke-opacity: 1; stroke-width: 1px;"/><path class="ygrid crisp" transform="translate(0,311.5)" d="M80,0h537" style="stroke: rgb(255, 255, 255); stroke-opacity: 1; stroke-width: 1px;"/><path class="ygrid crisp" transform="translate(0,270.71000000000004)" d="M80,0h537" style="stroke: rgb(255, 255, 255); stroke-opacity: 1; stroke-width: 1px;"/><path class="ygrid crisp" transform="translate(0,229.92)" d="M80,0h537" style="stroke: rgb(255, 255, 255); stroke-opacity: 1; stroke-width: 1px;"/><path class="ygrid crisp" transform="translate(0,189.12)" d="M80,0h537" style="stroke: rgb(255, 255, 255); stroke-opacity: 1; stroke-width: 1px;"/><path class="ygrid crisp" transform="translate(0,148.32999999999998)" d="M80,0h537" style="stroke: rgb(255, 255, 255); stroke-opacity: 1; stroke-width: 1px;"/><path class="ygrid crisp" transform="translate(0,107.54)" d="M80,0h537" style="stroke: rgb(255, 255, 255); stroke-opacity: 1; stroke-width: 1px;"/></g></g><g class="zerolinelayer"/><path class="xlines-below"/><path class="ylines-below"/><g class="overlines-below"/><g class="xaxislayer-below"/><g class="yaxislayer-below"/><g class="overaxes-below"/><g class="plot" transform="translate(80,100)" clip-path="url('#clipdae875xyplot')"><g class="scatterlayer mlayer"><g class="trace scatter trace46df56" style="stroke-miterlimit: 2; opacity: 1;"><g class="fills"/><g class="errorbars"/><g class="lines"><path class="js-line" d="M0,304L1.71,302.65L2.31,252.27L2.9,253.5L3.5,251.9L5.87,251.28L6.46,250.91L7.65,251.65L8.25,250.79L9.44,251.16L10.03,250.79L11.22,250.54L11.81,250.29L13,250.04L13.6,249.8L21.32,249.43L21.91,248.93L26.07,247.82L26.66,247.21L27.85,247.33L28.44,246.47L29.64,247.33L30.23,245.85L32.01,244.99L32.6,245.48L33.2,245.11L33.79,245.97L34.98,243.14L35.57,243.63L36.17,243.63L36.76,242.77L39.73,240.05L40.33,241.04L40.92,241.29L41.52,240.18L42.11,238.2L42.7,238.7L43.3,239.68L45.67,235.61L46.27,234.75L46.86,234.01L47.46,234.5L48.64,233.39L49.24,233.64L49.83,235.12L50.43,233.02L52.81,233.64L53.4,231.67L54.59,229.69L55.18,230.43L56.37,229.32L56.96,230.93L57.56,230.68L58.15,229.2L60.53,225.01L61.12,222.42L61.72,223.03L62.31,221.68L62.91,220.69L63.5,221.43L64.69,221.68L65.28,222.66L68.25,220.44L68.84,220.2L71.22,218.96L71.82,220.07L72.41,220.07L73,218.59L75.38,217.11L75.97,216.99L77.76,216.13L78.35,216L79.54,216.13L80.13,215.76L81.92,215.63L82.51,214.77L84.29,212.18L84.89,211.44L86.07,212.43L86.67,211.93L87.26,212.43L87.86,149.79L90.23,148.04L90.83,147.92L93.2,146.8L93.8,146.8L96.77,146.05L97.36,145.68L102.12,145.06L102.71,145.43L106.87,145.68L107.46,145.68L111.62,144.93L112.21,143.94L114.59,144.06L115.18,143.57L116.37,143.69L116.96,143.07L118.75,143.07L119.34,142.07L121.12,140.21L121.72,141.2L123.5,139.59L124.1,140.21L126.47,136.6L127.06,138.22L129.44,135.36L130.04,136.23L131.22,134.74L131.82,135.86L132.41,136.85L133.01,135.98L133.6,136.97L134.19,136.48L134.79,135.61L135.38,136.6L136.57,136.35L137.17,136.73L138.35,136.97L138.95,136.6L141.33,133.12L141.92,133.24L143.11,134.24L143.71,132.37L146.09,131.5L146.68,129.88L149.06,130.38L149.65,129.14L150.24,127.02L150.84,128.52L151.44,128.52L152.03,127.4L152.62,128.27L153.21,127.77L154.4,126.03L155,126.15L156.78,123.17L157.37,123.29L158.56,121.05L159.16,121.8L160.34,119.81L160.94,120.31L162.72,119.69L163.31,117.2L163.91,117.07L164.5,116.08L165.69,114.96L166.29,115.21L167.48,116.95L168.07,116.33L168.67,118.19L169.26,117.45L169.85,117.32L170.44,115.83L171.63,115.95L172.23,115.83L172.82,116.2L173.41,72.54L175.2,70.53L175.79,70.28L179.35,68.27L179.95,68.02L182.92,65.89L183.52,65.89L184.7,66.01L185.3,65.39L188.27,65.26L188.86,65.39L198.36,63.51L198.96,63.88L200.74,62.88L201.33,63L201.93,63.25L202.52,62.5L206.09,61.87L207.27,61.37L207.87,60.12L209.05,59.74L210.24,59.37L210.84,57.74L211.43,58.86L212.03,57.74L213.22,57.74L213.81,57.11L214.4,56.98L215,55.85L216.78,55.6L217.37,54.1L219.73,50.46L220.32,51.09L222.11,50.08L222.7,48.45L225.08,47.83L225.67,45.94L226.27,45.32L226.86,45.82L229.24,44.57L229.83,43.56L231.02,43.56L231.61,44.06L232.8,45.57L233.4,43.81L234.58,44.94L235.19,43.06L236.37,43.19L236.96,43.56L238.74,41.81L239.34,42.18L240.52,40.55L241.12,39.55L241.71,37.16L242.31,37.67L242.9,36.29L243.49,37.67L244.09,36.16L245.28,35.66L245.87,34.41L247.65,34.91L248.24,33.9L248.84,34.41L249.44,32.9L250.62,32.77L251.22,31.77L253.59,32.15L254.19,31.27L255.38,31.14L255.97,31.27L257.16,29.39L257.75,30.02L258.35,29.76L258.94,177.95L261.91,177.56L262.51,178.21L264.29,177.17L264.88,177.17L266.07,176L266.67,176L268.45,175.35L269.04,175.35L273.2,174.96L273.8,174.96L277.95,174.7L278.55,174.7L280.92,173.79L281.52,174.05L285.08,173.26L285.67,173.13L288.05,171.44L288.64,170.92L290.43,170.53L291.02,169.23L293.42,168.97L294.01,170.14L295.2,168.32L295.79,168.19L296.39,167.54L296.98,165.19L297.57,163.37L298.17,163.63L298.77,162.98L299.36,161.29L299.95,161.81L300.55,161.16L301.74,161.29L302.33,160.38L303.52,159.72L304.11,160.64L305.89,158.03L306.49,158.94L308.27,156.34L308.87,156.34L309.46,155.56L310.05,156.6L311.24,157.51L311.84,156.6L312.43,156.73L313.03,155.95L316,151.91L316.59,151.39L317.78,151L318.37,152.43L321.94,149.44L322.53,151.13L323.72,130.43L324.31,130.04L325.5,129.39L326.1,124.83L326.69,124.96L327.28,121.19L327.88,121.45L328.47,118.98L329.07,116.11L329.66,117.02L331.44,110.64L332.04,107.65L333.23,107.13L333.82,105.05L334.41,104.52L335.01,101.92L337.98,96.06L338.57,95.8L340.35,93.07L340.95,90.59L343.92,85.65L344.51,98.46L347.49,94.26L348.08,94.65L348.67,94.52L349.27,95.31L350.46,94.92L351.05,95.57L352.83,94.65L353.42,94.79L354.61,94.26L355.21,94.39L361.74,93.74L362.34,93.6L371.84,93.6L372.44,94.13L375.4,90.32L376,90.58L377.78,89.27L378.37,89.4L378.97,89.01L379.56,87.43L380.75,87.69L381.34,86.25L384.32,83.23L384.91,83.62L386.69,80.34L387.29,79.95L389.07,77.45L389.66,77.45L390.85,74.96L391.44,74.96L392.63,73.12L393.23,71.02L395.6,66.03L396.2,65.63L396.79,65.24L397.39,63.14L399.76,61.3L400.36,59.73L403.92,58.81L404.51,57.76L405.11,58.15L405.7,57.49L406.3,57.89L411.05,53.42L414.02,50.93L414.62,51.58L416.99,48.43L417.59,48.3L418.18,46.99L418.77,47.51L419.96,46.46L420.56,46.73L421.15,47.78L421.74,46.86L424.12,45.54L424.72,46.46L427.09,45.81L427.69,44.76L429.47,42.52L430.06,91.61L431.25,92.02L431.85,90.95L432.44,90.28L433.03,90.81L434.81,90.81L435.41,91.75L437.79,91.48L438.38,91.61L440.16,91.75L440.76,91.75L443.73,90.28L444.32,90.68L450.26,90.01L450.86,90.01L457.39,89.74L457.98,89.61L460.96,89.21L461.55,88.81L462.74,88.27L463.33,87.33L464.52,86.93L465.11,85.6L465.71,84.26L466.3,85.6L468.68,84.66L469.27,84.66L470.46,82.65L471.06,82.39L472.84,79.58L473.43,79.44L475.21,79.04L475.81,78.24L476.99,77.57L477.59,77.7L478.78,76.23L479.37,75.56L481.75,74.63L482.34,75.03L482.94,74.49L483.53,75.16L484.72,71.82L485.32,72.09L485.91,72.09L487.69,71.55L488.28,70.35L491.26,67.94L491.85,68.21L495.41,65.8L496.01,64.86L496.6,65.27L497.19,64.46L498.39,64.6L498.98,64.46L500.17,63.66L500.76,62.86L502.54,61.79L503.14,60.32L505.51,58.85L506.11,57.11L507.3,55.23L507.89,55.9L510.86,54.03L511.45,54.03L512.64,52.69L513.24,52.69L515.02,52.69L515.61,20.05L520.37,16.54L520.96,16.67L522.74,16.4L523.34,16L525.71,16.81L526.31,16.81L531.06,16.54L531.65,16.4L537,16.54" style="vector-effect: non-scaling-stroke; fill: none; stroke: rgb(99, 110, 250); stroke-opacity: 1; stroke-width: 2px; opacity: 1;"/></g><g class="points"/><g class="text"/></g></g></g><g class="overplot"/><path class="xlines-above crisp" d="M0,0" style="fill: none;"/><path class="ylines-above crisp" d="M0,0" style="fill: none;"/><g class="overlines-above"/><g class="xaxislayer-above"><g class="xtick"><text text-anchor="middle" x="0" y="433" transform="translate(82.22,0)" style="font-family: 'Open Sans', verdana, arial, sans-serif; font-size: 12px; fill: rgb(42, 63, 95); fill-opacity: 1; white-space: pre;"><tspan class="line" dy="0em" x="0" y="433">Aug 3</tspan><tspan class="line" dy="1.3em" x="0" y="433">2021</tspan></text></g><g class="xtick"><text text-anchor="middle" x="0" y="433" transform="translate(167.76999999999998,0)" style="font-family: 'Open Sans', verdana, arial, sans-serif; font-size: 12px; fill: rgb(42, 63, 95); fill-opacity: 1; white-space: pre;">Aug 4</text></g><g class="xtick"><text text-anchor="middle" x="0" y="433" transform="translate(253.32,0)" style="font-family: 'Open Sans', verdana, arial, sans-serif; font-size: 12px; fill: rgb(42, 63, 95); fill-opacity: 1; white-space: pre;">Aug 5</text></g><g class="xtick"><text text-anchor="middle" x="0" y="433" transform="translate(338.87,0)" style="font-family: 'Open Sans', verdana, arial, sans-serif; font-size: 12px; fill: rgb(42, 63, 95); fill-opacity: 1; white-space: pre;">Aug 6</text></g><g class="xtick"><text text-anchor="middle" x="0" y="433" transform="translate(424.42,0)" style="font-family: 'Open Sans', verdana, arial, sans-serif; font-size: 12px; fill: rgb(42, 63, 95); fill-opacity: 1; white-space: pre;">Aug 7</text></g><g class="xtick"><text text-anchor="middle" x="0" y="433" transform="translate(509.97,0)" style="font-family: 'Open Sans', verdana, arial, sans-serif; font-size: 12px; fill: rgb(42, 63, 95); fill-opacity: 1; white-space: pre;">Aug 8</text></g><g class="xtick"><text text-anchor="middle" x="0" y="433" transform="translate(595.52,0)" style="font-family: 'Open Sans', verdana, arial, sans-serif; font-size: 12px; fill: rgb(42, 63, 95); fill-opacity: 1; white-space: pre;">Aug 9</text></g></g><g class="yaxislayer-above"><g class="ytick"><text text-anchor="end" x="79" y="4.199999999999999" transform="translate(0,393.08)" style="font-family: 'Open Sans', verdana, arial, sans-serif; font-size: 12px; fill: rgb(42, 63, 95); fill-opacity: 1; white-space: pre;">0.864</text></g><g class="ytick"><text text-anchor="end" x="79" y="4.199999999999999" transform="translate(0,352.28999999999996)" style="font-family: 'Open Sans', verdana, arial, sans-serif; font-size: 12px; fill: rgb(42, 63, 95); fill-opacity: 1; white-space: pre;">0.865</text></g><g class="ytick"><text text-anchor="end" x="79" y="4.199999999999999" transform="translate(0,311.5)" style="font-family: 'Open Sans', verdana, arial, sans-serif; font-size: 12px; fill: rgb(42, 63, 95); fill-opacity: 1; white-space: pre;">0.866</text></g><g class="ytick"><text text-anchor="end" x="79" y="4.199999999999999" transform="translate(0,270.71000000000004)" style="font-family: 'Open Sans', verdana, arial, sans-serif; font-size: 12px; fill: rgb(42, 63, 95); fill-opacity: 1; white-space: pre;">0.867</text></g><g class="ytick"><text text-anchor="end" x="79" y="4.199999999999999" transform="translate(0,229.92)" style="font-family: 'Open Sans', verdana, arial, sans-serif; font-size: 12px; fill: rgb(42, 63, 95); fill-opacity: 1; white-space: pre;">0.868</text></g><g class="ytick"><text text-anchor="end" x="79" y="4.199999999999999" transform="translate(0,189.12)" style="font-family: 'Open Sans', verdana, arial, sans-serif; font-size: 12px; fill: rgb(42, 63, 95); fill-opacity: 1; white-space: pre;">0.869</text></g><g class="ytick"><text text-anchor="end" x="79" y="4.199999999999999" transform="translate(0,148.32999999999998)" style="font-family: 'Open Sans', verdana, arial, sans-serif; font-size: 12px; fill: rgb(42, 63, 95); fill-opacity: 1; white-space: pre;">0.87</text></g><g class="ytick"><text text-anchor="end" x="79" y="4.199999999999999" transform="translate(0,107.54)" style="font-family: 'Open Sans', verdana, arial, sans-serif; font-size: 12px; fill: rgb(42, 63, 95); fill-opacity: 1; white-space: pre;">0.871</text></g></g><g class="overaxes-above"/></g></g><g class="polarlayer"/><g class="ternarylayer"/><g class="geolayer"/><g class="funnelarealayer"/><g class="pielayer"/><g class="treemaplayer"/><g class="sunburstlayer"/><g class="glimages"/><defs id="topdefs-dae875"><g class="clips"/><clipPath id="legenddae875"><rect width="60" height="45" x="0" y="0"/></clipPath></defs><g class="layer-above"><g class="imagelayer"/><g class="shapelayer"/></g><g class="infolayer"><g class="legend" pointer-events="all" transform="translate(627.74,100)"><rect class="bg" shape-rendering="crispEdges" width="60" height="45" x="0" y="0" style="stroke: rgb(68, 68, 68); stroke-opacity: 1; fill: rgb(255, 255, 255); fill-opacity: 1; stroke-width: 0px;"/><g class="scrollbox" transform="" clip-path="url('#legenddae875')"><text class="legendtitletext" text-anchor="start" x="2" y="15.600000000000001" style="font-family: 'Open Sans', verdana, arial, sans-serif; font-size: 12px; fill: rgb(42, 63, 95); fill-opacity: 1; white-space: pre;">All</text><g class="groups" transform=""><g class="traces" transform="translate(0,30.1)" style="opacity: 1;"><text class="legendtext" text-anchor="start" x="40" y="4.680000000000001" style="font-family: 'Open Sans', verdana, arial, sans-serif; font-size: 12px; fill: rgb(42, 63, 95); fill-opacity: 1; white-space: pre;">All</text><g class="layers" style="opacity: 1;"><g class="legendfill"/><g class="legendlines"><path class="js-line" d="M5,0h30" style="fill: none; stroke: rgb(99, 110, 250); stroke-opacity: 1; stroke-width: 2px;"/></g><g class="legendsymbols"><g class="legendpoints"/></g></g><rect class="legendtoggle" x="0" y="-9.5" width="54.890625" height="19" style="fill: rgb(0, 0, 0); fill-opacity: 0;"/></g></g></g><rect class="scrollbar" rx="20" ry="3" width="0" height="0" x="0" y="0" style="fill: rgb(128, 139, 164); fill-opacity: 1;"/></g><g class="g-gtitle"><text class="gtitle" x="35" y="50" text-anchor="start" dy="0em" style="font-family: 'Open Sans', verdana, arial, sans-serif; font-size: 17px; fill: rgb(42, 63, 95); opacity: 1; font-weight: normal; white-space: pre;">Singapore Vaccination Centers</text></g><g class="g-xtitle"><text class="xtitle" x="348.5" y="476.409375" text-anchor="middle" style="font-family: 'Open Sans', verdana, arial, sans-serif; font-size: 14px; fill: rgb(42, 63, 95); opacity: 1; font-weight: normal; white-space: pre;">Time</text></g><g class="g-ytitle"><text class="ytitle" transform="rotate(-90,19.840625000000003,260)" x="19.840625000000003" y="260" text-anchor="middle" style="font-family: 'Open Sans', verdana, arial, sans-serif; font-size: 14px; fill: rgb(42, 63, 95); opacity: 1; font-weight: normal; white-space: pre;">Filled/%</text></g></g></svg>