<svg class="main-svg" xmlns="http://www.w3.org/2000/svg" xmlns:xlink="http://www.w3.org/1999/xlink" width="700" height="500" style="" viewBox="0 0 700 500"><rect x="0" y="0" width="700" height="500" style="fill: rgb(255, 255, 255); fill-opacity: 1;"/><defs id="defs-b252b0"><g class="clips"><clipPath id="clipb252b0xyplot" class="plotclip"><rect width="537" height="320"/></clipPath><clipPath class="axesclip" id="clipb252b0x"><rect x="80" y="0" width="537" height="500"/></clipPath><clipPath class="axesclip" id="clipb252b0y"><rect x="0" y="100" width="700" height="320"/></clipPath><clipPath class="axesclip" id="clipb252b0xy"><rect x="80" y="100" width="537" height="320"/></clipPath></g><g class="gradients"/></defs><g class="bglayer"><rect class="bg" x="80" y="100" width="537" height="320" style="fill: rgb(229, 236, 246); fill-opacity: 1; stroke-width: 0;"/></g><g class="layer-below"><g class="imagelayer"/><g class="shapelayer"/></g><g class="cartesianlayer"><g class="subplot xy"><g class="layer-subplot"><g class="shapelayer"/><g class="imagelayer"/></g><g class="gridlayer"><g class="x"><path class="xgrid crisp" transform="translate(83.69,0)" d="M0,100v320" style="stroke: rgb(255, 255, 255); stroke-opacity: 1; stroke-width: 1px;"/><path class="xgrid crisp" transform="translate(154.78,0)" d="M0,100v320" style="stroke: rgb(255, 255, 255); stroke-opacity: 1; stroke-width: 1px;"/><path class="xgrid crisp" transform="translate(225.86,0)" d="M0,100v320" style="stroke: rgb(255, 255, 255); stroke-opacity: 1; stroke-width: 1px;"/><path class="xgrid crisp" transform="translate(296.95,0)" d="M0,100v320" style="stroke: rgb(255, 255, 255); stroke-opacity: 1; stroke-width: 1px;"/><path class="xgrid crisp" transform="translate(368.04,0)" d="M0,100v320" style="stroke: rgb(255, 255, 255); stroke-opacity: 1; stroke-width: 1px;"/><path class="xgrid crisp" transform="translate(439.13,0)" d="M0,100v320" style="stroke: rgb(255, 255, 255); stroke-opacity: 1; stroke-width: 1px;"/><path class="xgrid crisp" transform="translate(510.21,0)" d="M0,100v320" style="stroke: rgb(255, 255, 255); stroke-opacity: 1; stroke-width: 1px;"/><path class="xgrid crisp" transform="translate(581.3,0)" d="M0,100v320" style="stroke: rgb(255, 255, 255); stroke-opacity: 1; stroke-width: 1px;"/></g><g class="y"><path class="ygrid crisp" transform="translate(0,392.55)" d="M80,0h537" style="stroke: rgb(255, 255, 255); stroke-opacity: 1; stroke-width: 1px;"/><path class="ygrid crisp" transform="translate(0,349.77)" d="M80,0h537" style="stroke: rgb(255, 255, 255); stroke-opacity: 1; stroke-width: 1px;"/><path class="ygrid crisp" transform="translate(0,306.99)" d="M80,0h537" style="stroke: rgb(255, 255, 255); stroke-opacity: 1; stroke-width: 1px;"/><path class="ygrid crisp" transform="translate(0,264.21000000000004)" d="M80,0h537" style="stroke: rgb(255, 255, 255); stroke-opacity: 1; stroke-width: 1px;"/><path class="ygrid crisp" transform="translate(0,221.43)" d="M80,0h537" style="stroke: rgb(255, 255, 255); stroke-opacity: 1; stroke-width: 1px;"/><path class="ygrid crisp" transform="translate(0,178.65)" d="M80,0h537" style="stroke: rgb(255, 255, 255); stroke-opacity: 1; stroke-width: 1px;"/><path class="ygrid crisp" transform="translate(0,135.87)" d="M80,0h537" style="stroke: rgb(255, 255, 255); stroke-opacity: 1; stroke-width: 1px;"/></g></g><g class="zerolinelayer"/><path class="xlines-below"/><path class="ylines-below"/><g class="overlines-below"/><g class="xaxislayer-below"/><g class="yaxislayer-below"/><g class="overaxes-below"/><g class="plot" transform="translate(80,100)" clip-path="url('#clipb252b0xyplot')"><g class="scatterlayer mlayer"><g class="trace scatter tracee7c1bc" style="stroke-miterlimit: 2; opacity: 1;"><g class="fills"/><g class="errorbars"/><g class="lines"><path class="js-line" d="M0,304L2.85,302.59L3.83,249.74L4.82,251.04L5.81,249.35L9.76,248.71L10.74,248.32L12.72,249.1L13.71,248.19L15.68,248.58L16.67,248.19L17.65,248.45L18.64,247.93L24.57,246.9L25.55,247.16L30.49,246.77L31.48,246.51L37.4,246.12L38.39,245.73L40.37,245.86L41.35,245.22L43.32,245.09L44.31,244.44L45.3,244.96L46.29,244.57L47.27,243.66L48.26,243.92L49.25,244.57L50.24,243.02L53.2,242.11L54.18,242.63L55.17,242.24L56.16,243.15L57.15,242.24L58.14,240.17L60.11,240.69L61.1,239.78L65.05,237.84L66.03,236.94L68,238.23L69,237.07L69.98,235L70.97,235.51L71.96,236.55L72.94,235L74.92,232.67L75.91,232.28L77.88,230.6L78.87,231.12L80.84,229.95L81.83,230.21L82.82,231.76L83.8,229.56L86.77,230.6L87.76,230.21L89.73,226.46L90.72,226.07L91.7,226.85L92.69,225.55L93.68,225.68L94.66,227.36L95.65,227.11L96.64,225.55L100.59,221.16L101.58,218.44L102.57,219.09L103.55,217.66L104.54,216.63L105.53,217.4L107.5,217.66L108.49,218.7L112.44,216.5L113.42,216.37L115.4,215.72L116.39,214.69L117.38,214.3L118.36,214.82L120.33,215.98L121.32,214.43L123.3,213.52L124.28,213.39L128.24,211.45L129.22,211.84L134.16,211.58L135.15,211.84L137.12,210.42L138.11,208.87L140.08,207.7L141.07,206.93L143.04,207.96L144.03,207.44L145.02,207.96L146.01,142.27L148.97,140.18L149.96,140.44L151.93,139.92L152.92,139.01L154.89,139.14L155.88,139.14L159.83,138.48L160.81,138.35L163.78,137.83L164.77,137.96L173.65,137.96L174.64,138.09L181.55,137.83L182.54,137.18L185.5,137.18L186.49,136.14L190.43,136.27L191.42,135.74L193.39,135.88L194.38,135.22L196.36,134.57L197.35,135.22L200.31,132.22L201.29,132.22L202.28,133.27L203.27,132.88L205.25,131.57L206.23,132.22L210.18,128.44L211.17,130.14L215.12,127.14L216.11,128.05L218.08,126.48L219.06,127.66L220.05,128.7L221.04,127.79L222.03,128.83L223.02,128.31L224,127.4L224.99,128.44L225.98,127.79L226.96,128.18L229.93,128.83L230.92,128.44L232.91,126.48L233.89,125.05L235.86,124.92L236.85,125.44L237.84,125.96L238.83,124.01L242.78,123.09L243.77,121.4L246.73,122.44L247.72,121.92L249.69,118.4L250.68,119.96L251.67,119.96L252.65,118.79L253.64,119.7L254.62,119.18L256.6,117.35L257.59,117.48L260.55,114.35L261.54,114.48L263.52,112.14L264.5,112.92L266.47,110.83L267.46,111.35L270.42,110.7L271.41,108.09L272.4,107.96L273.38,106.92L274.37,105.48L275.36,105.74L276.35,106L277.33,107.18L278.33,107.83L279.31,107.18L280.31,109.13L281.29,108.35L282.27,108.22L283.26,106.66L284.25,106.27L285.23,106.79L287.21,107.05L288.2,61.25L290.17,59.41L291.16,59.15L294.12,57.57L295.1,57.17L297.08,57.04L298.07,56.78L302.02,55.46L303,54.54L304.98,54.28L305.97,54.81L309.92,53.75L310.9,53.62L312.88,53.62L313.87,53.75L329.66,51.78L330.65,52.18L333.61,51.12L334.59,51.25L335.59,51.52L336.56,50.73L342.49,50.07L344.47,49.54L345.45,48.23L347.43,47.83L349.4,47.44L350.39,45.73L351.38,46.91L352.37,45.73L354.34,45.73L355.33,45.07L356.32,44.94L357.3,43.76L360.26,43.49L361.25,41.91L363.22,40.2L364.21,39.42L365.17,38.1L366.15,38.76L369.12,37.71L370.1,36L374.05,35.34L375.04,33.36L376.03,32.71L377.01,33.23L378.99,32.44L379.98,32.05L380.97,31.92L381.95,30.86L383.93,30.86L384.91,31.39L386.89,32.97L387.88,31.13L389.85,32.31L390.85,30.34L392.82,30.47L393.81,30.86L396.77,29.02L397.75,29.42L399.72,27.71L400.71,26.66L401.7,24.16L402.69,24.68L403.67,23.24L404.66,24.68L406.64,22.84L407.63,22.58L408.61,21.26L409.6,21.66L411.57,21.79L412.56,20.74L413.55,21.26L414.54,19.68L416.51,19.55L417.5,18.5L421.45,18.89L422.43,17.97L423.42,17.45L424.41,17.84L425.4,17.97L426.38,17.05L427.38,16L428.35,16.66L429.35,16.39L430.34,171.81L435.27,171.4L436.26,172.08L439.22,170.99L440.21,170.99L442.18,169.76L443.17,169.76L445.14,168.94L446.13,169.08L462.92,168.39L463.9,167.98L476.73,165.8L477.72,165.12L482.66,164.02L483.65,162.66L487.63,162.38L488.62,163.61L490.59,161.7L491.58,161.57L492.57,160.88L493.55,158.43L494.54,156.51L495.53,156.79L496.52,156.1L497.5,154.33L498.49,154.88L499.47,154.19L501.45,154.33L502.44,153.37L504.41,152.69L505.4,153.65L507.37,152.01L508.36,150.92L509.35,151.87L510.34,150.64L512.31,149.14L513.3,149.14L514.29,148.32L515.28,149.41L517.25,150.37L518.24,149.41L519.22,149.55L520.22,148.73L524.17,145.18L525.15,144.5L528.11,143.54L529.1,145.04L535.02,141.9L536.01,143.68L537,121.97" style="vector-effect: non-scaling-stroke; fill: none; stroke: rgb(99, 110, 250); stroke-opacity: 1; stroke-width: 2px; opacity: 1;"/></g><g class="points"/><g class="text"/></g></g></g><g class="overplot"/><path class="xlines-above crisp" d="M0,0" style="fill: none;"/><path class="ylines-above crisp" d="M0,0" style="fill: none;"/><g class="overlines-above"/><g class="xaxislayer-above"><g class="xtick"><text text-anchor="middle" x="0" y="433" transform="translate(83.69,0)" style="font-family: 'Open Sans', verdana, arial, sans-serif; font-size: 12px; fill: rgb(42, 63, 95); fill-opacity: 1; white-space: pre;"><tspan class="line" dy="0em" x="0" y="433">00:00</tspan><tspan class="line" dy="1.3em" x="0" y="433">Aug 3, 2021</tspan></text></g><g class="xtick"><text text-anchor="middle" x="0" y="433" transform="translate(154.78,0)" style="font-family: 'Open Sans', verdana, arial, sans-serif; font-size: 12px; fill: rgb(42, 63, 95); fill-opacity: 1; white-space: pre;">12:00</text></g><g class="xtick"><text text-anchor="middle" x="0" y="433" transform="translate(225.86,0)" style="font-family: 'Open Sans', verdana, arial, sans-serif; font-size: 12px; fill: rgb(42, 63, 95); fill-opacity: 1; white-space: pre;"><tspan class="line" dy="0em" x="0" y="433">00:00</tspan><tspan class="line" dy="1.3em" x="0" y="433">Aug 4, 2021</tspan></text></g><g class="xtick"><text text-anchor="middle" x="0" y="433" transform="translate(296.95,0)" style="font-family: 'Open Sans', verdana, arial, sans-serif; font-size: 12px; fill: rgb(42, 63, 95); fill-opacity: 1; white-space: pre;">12:00</text></g><g class="xtick"><text text-anchor="middle" x="0" y="433" transform="translate(368.04,0)" style="font-family: 'Open Sans', verdana, arial, sans-serif; font-size: 12px; fill: rgb(42, 63, 95); fill-opacity: 1; white-space: pre;"><tspan class="line" dy="0em" x="0" y="433">00:00</tspan><tspan class="line" dy="1.3em" x="0" y="433">Aug 5, 2021</tspan></text></g><g class="xtick"><text text-anchor="middle" x="0" y="433" transform="translate(439.13,0)" style="font-family: 'Open Sans', verdana, arial, sans-serif; font-size: 12px; fill: rgb(42, 63, 95); fill-opacity: 1; white-space: pre;">12:00</text></g><g class="xtick"><text text-anchor="middle" x="0" y="433" transform="translate(510.21,0)" style="font-family: 'Open Sans', verdana, arial, sans-serif; font-size: 12px; fill: rgb(42, 63, 95); fill-opacity: 1; white-space: pre;"><tspan class="line" dy="0em" x="0" y="433">00:00</tspan><tspan class="line" dy="1.3em" x="0" y="433">Aug 6, 2021</tspan></text></g><g class="xtick"><text text-anchor="middle" x="0" y="433" transform="translate(581.3,0)" style="font-family: 'Open Sans', verdana, arial, sans-serif; font-size: 12px; fill: rgb(42, 63, 95); fill-opacity: 1; white-space: pre;">12:00</text></g></g><g class="yaxislayer-above"><g class="ytick"><text text-anchor="end" x="79" y="4.199999999999999" transform="translate(0,392.55)" style="font-family: 'Open Sans', verdana, arial, sans-serif; font-size: 12px; fill: rgb(42, 63, 95); fill-opacity: 1; white-space: pre;">0.864</text></g><g class="ytick"><text text-anchor="end" x="79" y="4.199999999999999" transform="translate(0,349.77)" style="font-family: 'Open Sans', verdana, arial, sans-serif; font-size: 12px; fill: rgb(42, 63, 95); fill-opacity: 1; white-space: pre;">0.865</text></g><g class="ytick"><text text-anchor="end" x="79" y="4.199999999999999" transform="translate(0,306.99)" style="font-family: 'Open Sans', verdana, arial, sans-serif; font-size: 12px; fill: rgb(42, 63, 95); fill-opacity: 1; white-space: pre;">0.866</text></g><g class="ytick"><text text-anchor="end" x="79" y="4.199999999999999" transform="translate(0,264.21000000000004)" style="font-family: 'Open Sans', verdana, arial, sans-serif; font-size: 12px; fill: rgb(42, 63, 95); fill-opacity: 1; white-space: pre;">0.867</text></g><g class="ytick"><text text-anchor="end" x="79" y="4.199999999999999" transform="translate(0,221.43)" style="font-family: 'Open Sans', verdana, arial, sans-serif; font-size: 12px; fill: rgb(42, 63, 95); fill-opacity: 1; white-space: pre;">0.868</text></g><g class="ytick"><text text-anchor="end" x="79" y="4.199999999999999" transform="translate(0,178.65)" style="font-family: 'Open Sans', verdana, arial, sans-serif; font-size: 12px; fill: rgb(42, 63, 95); fill-opacity: 1; white-space: pre;">0.869</text></g><g class="ytick"><text text-anchor="end" x="79" y="4.199999999999999" transform="translate(0,135.87)" style="font-family: 'Open Sans', verdana, arial, sans-serif; font-size: 12px; fill: rgb(42, 63, 95); fill-opacity: 1; white-space: pre;">0.87</text></g></g><g class="overaxes-above"/></g></g><g class="polarlayer"/><g class="ternarylayer"/><g class="geolayer"/><g class="funnelarealayer"/><g class="pielayer"/><g class="treemaplayer"/><g class="sunburstlayer"/><g class="glimages"/><defs id="topdefs-b252b0"><g class="clips"/><clipPath id="legendb252b0"><rect width="60" height="45" x="0" y="0"/></clipPath></defs><g class="layer-above"><g class="imagelayer"/><g class="shapelayer"/></g><g class="infolayer"><g class="legend" pointer-events="all" transform="translate(627.74,100)"><rect class="bg" shape-rendering="crispEdges" width="60" height="45" x="0" y="0" style="stroke: rgb(68, 68, 68); stroke-opacity: 1; fill: rgb(255, 255, 255); fill-opacity: 1; stroke-width: 0px;"/><g class="scrollbox" transform="" clip-path="url('#legendb252b0')"><text class="legendtitletext" text-anchor="start" x="2" y="15.600000000000001" style="font-family: 'Open Sans', verdana, arial, sans-serif; font-size: 12px; fill: rgb(42, 63, 95); fill-opacity: 1; white-space: pre;">All</text><g class="groups" transform=""><g class="traces" transform="translate(0,30.1)" style="opacity: 1;"><text class="legendtext" text-anchor="start" x="40" y="4.680000000000001" style="font-family: 'Open Sans', verdana, arial, sans-serif; font-size: 12px; fill: rgb(42, 63, 95); fill-opacity: 1; white-space: pre;">All</text><g class="layers" style="opacity: 1;"><g class="legendfill"/><g class="legendlines"><path class="js-line" d="M5,0h30" style="fill: none; stroke: rgb(99, 110, 250); stroke-opacity: 1; stroke-width: 2px;"/></g><g class="legendsymbols"><g class="legendpoints"/></g></g><rect class="legendtoggle" x="0" y="-9.5" width="54.890625" height="19" style="fill: rgb(0, 0, 0); fill-opacity: 0;"/></g></g></g><rect class="scrollbar" rx="20" ry="3" width="0" height="0" x="0" y="0" style="fill: rgb(128, 139, 164); fill-opacity: 1;"/></g><g class="g-gtitle"><text class="gtitle" x="35" y="50" text-anchor="start" dy="0em" style="font-family: 'Open Sans', verdana, arial, sans-serif; font-size: 17px; fill: rgb(42, 63, 95); opacity: 1; font-weight: normal; white-space: pre;">Singapore Vaccination Centers</text></g><g class="g-xtitle"><text class="xtitle" x="348.5" y="476.409375" text-anchor="middle" style="font-family: 'Open Sans', verdana, arial, sans-serif; font-size: 14px; fill: rgb(42, 63, 95); opacity: 1; font-weight: normal; white-space: pre;">Time</text></g><g class="g-ytitle"><text class="ytitle" transform="rotate(-90,19.840625000000003,260)" x="19.840625000000003" y="260" text-anchor="middle" style="font-family: 'Open Sans', verdana, arial, sans-serif; font-size: 14px; fill: rgb(42, 63, 95); opacity: 1; font-weight: normal; white-space: pre;">Filled/%</text></g></g></svg>