<svg class="main-svg" xmlns="http://www.w3.org/2000/svg" xmlns:xlink="http://www.w3.org/1999/xlink" width="700" height="500" style="" viewBox="0 0 700 500"><rect x="0" y="0" width="700" height="500" style="fill: rgb(255, 255, 255); fill-opacity: 1;"/><defs id="defs-7a1e1b"><g class="clips"><clipPath id="clip7a1e1bxyplot" class="plotclip"><rect width="537" height="320"/></clipPath><clipPath class="axesclip" id="clip7a1e1bx"><rect x="80" y="0" width="537" height="500"/></clipPath><clipPath class="axesclip" id="clip7a1e1by"><rect x="0" y="100" width="700" height="320"/></clipPath><clipPath class="axesclip" id="clip7a1e1bxy"><rect x="80" y="100" width="537" height="320"/></clipPath></g><g class="gradients"/></defs><g class="bglayer"><rect class="bg" x="80" y="100" width="537" height="320" style="fill: rgb(229, 236, 246); fill-opacity: 1; stroke-width: 0;"/></g><g class="layer-below"><g class="imagelayer"/><g class="shapelayer"/></g><g class="cartesianlayer"><g class="subplot xy"><g class="layer-subplot"><g class="shapelayer"/><g class="imagelayer"/></g><g class="gridlayer"><g class="x"><path class="xgrid crisp" transform="translate(82.05,0)" d="M0,100v320" style="stroke: rgb(255, 255, 255); stroke-opacity: 1; stroke-width: 1px;"/><path class="xgrid crisp" transform="translate(160.88,0)" d="M0,100v320" style="stroke: rgb(255, 255, 255); stroke-opacity: 1; stroke-width: 1px;"/><path class="xgrid crisp" transform="translate(239.71,0)" d="M0,100v320" style="stroke: rgb(255, 255, 255); stroke-opacity: 1; stroke-width: 1px;"/><path class="xgrid crisp" transform="translate(318.55,0)" d="M0,100v320" style="stroke: rgb(255, 255, 255); stroke-opacity: 1; stroke-width: 1px;"/><path class="xgrid crisp" transform="translate(397.38,0)" d="M0,100v320" style="stroke: rgb(255, 255, 255); stroke-opacity: 1; stroke-width: 1px;"/><path class="xgrid crisp" transform="translate(476.22,0)" d="M0,100v320" style="stroke: rgb(255, 255, 255); stroke-opacity: 1; stroke-width: 1px;"/><path class="xgrid crisp" transform="translate(555.05,0)" d="M0,100v320" style="stroke: rgb(255, 255, 255); stroke-opacity: 1; stroke-width: 1px;"/></g><g class="y"><path class="ygrid crisp" transform="translate(0,394.03)" d="M80,0h537" style="stroke: rgb(255, 255, 255); stroke-opacity: 1; stroke-width: 1px;"/><path class="ygrid crisp" transform="translate(0,356.8)" d="M80,0h537" style="stroke: rgb(255, 255, 255); stroke-opacity: 1; stroke-width: 1px;"/><path class="ygrid crisp" transform="translate(0,319.57)" d="M80,0h537" style="stroke: rgb(255, 255, 255); stroke-opacity: 1; stroke-width: 1px;"/><path class="ygrid crisp" transform="translate(0,282.33000000000004)" d="M80,0h537" style="stroke: rgb(255, 255, 255); stroke-opacity: 1; stroke-width: 1px;"/><path class="ygrid crisp" transform="translate(0,245.1)" d="M80,0h537" style="stroke: rgb(255, 255, 255); stroke-opacity: 1; stroke-width: 1px;"/><path class="ygrid crisp" transform="translate(0,207.87)" d="M80,0h537" style="stroke: rgb(255, 255, 255); stroke-opacity: 1; stroke-width: 1px;"/><path class="ygrid crisp" transform="translate(0,170.64)" d="M80,0h537" style="stroke: rgb(255, 255, 255); stroke-opacity: 1; stroke-width: 1px;"/><path class="ygrid crisp" transform="translate(0,133.4)" d="M80,0h537" style="stroke: rgb(255, 255, 255); stroke-opacity: 1; stroke-width: 1px;"/></g></g><g class="zerolinelayer"/><path class="xlines-below"/><path class="ylines-below"/><g class="overlines-below"/><g class="xaxislayer-below"/><g class="yaxislayer-below"/><g class="overaxes-below"/><g class="plot" transform="translate(80,100)" clip-path="url('#clip7a1e1bxyplot')"><g class="scatterlayer mlayer"><g class="trace scatter trace07d7c4" style="stroke-miterlimit: 2; opacity: 1;"><g class="fills"/><g class="errorbars"/><g class="lines"><path class="js-line" d="M0,304L1.58,302.77L2.13,256.78L2.67,257.9L3.22,256.44L5.41,255.88L5.96,255.54L7.05,256.22L7.6,255.43L8.7,255.76L9.24,255.43L10.34,255.2L10.88,254.98L11.98,254.75L12.53,254.53L19.64,254.19L20.19,253.74L24.02,252.73L24.57,252.16L25.67,252.27L26.21,251.49L27.31,252.27L27.86,250.92L29.5,250.14L30.04,250.59L30.59,250.25L31.14,251.04L32.24,248.45L32.78,248.9L33.33,248.9L34.97,247.77L35.52,247.1L36.62,245.63L37.16,246.53L37.71,246.76L38.26,245.75L38.8,243.94L39.35,244.39L39.9,245.29L42.09,241.58L42.64,240.79L44.28,239.89L44.82,239.55L45.37,239.78L45.92,241.13L46.47,239.22L47.02,239.55L47.56,239.33L48.66,239.78L49.21,237.98L50.3,236.18L50.85,236.85L51.94,235.84L52.49,237.3L53.04,237.08L53.59,235.73L55.78,231.9L56.32,229.53L56.87,230.1L57.42,228.86L57.97,227.96L58.51,228.63L59.61,228.86L60.15,229.76L62.89,227.73L63.44,227.51L65.63,226.38L66.18,227.39L66.72,227.39L67.27,226.04L69.47,224.69L70.01,224.58L71.65,223.79L72.2,223.68L73.29,223.79L73.84,223.45L75.48,223.34L76.03,222.55L77.67,220.19L78.22,219.51L79.32,220.41L79.86,219.96L80.41,220.41L80.96,163.24L83.15,161.65L83.7,161.54L85.89,160.51L86.44,160.51L89.17,159.83L89.72,159.49L94.65,159.26L95.19,159.38L100.67,159.38L101.22,158.81L102.86,158.81L103.4,157.9L105.59,158.02L106.14,157.56L107.23,157.68L107.78,157.11L109.43,157.11L109.97,156.2L111.61,154.5L112.16,155.4L113.81,153.93L114.35,154.5L116.54,151.2L117.09,152.68L119.28,150.07L119.83,150.86L120.92,149.5L121.47,150.52L122.02,151.43L122.56,150.64L123.11,151.54L123.66,151.09L124.21,150.3L124.75,151.2L125.3,150.64L127.49,151.54L128.04,151.2L130.24,148.03L130.78,148.14L131.88,149.05L132.43,147.34L134.62,146.55L135.17,145.07L137.35,145.53L137.9,144.39L138.45,142.46L139,143.82L139.55,143.82L140.09,142.8L140.64,143.6L141.19,143.14L141.73,142.12L145.57,138.15L146.12,137.01L146.66,137.69L147.21,136.9L147.76,135.88L148.31,136.33L148.85,135.99L149.95,135.76L150.49,133.49L151.04,133.38L151.59,132.47L152.68,131.45L153.23,131.68L154.33,133.27L154.87,132.7L155.43,134.4L155.97,133.72L156.52,133.61L157.61,131.9L158.16,132.36L159.25,132.59L159.8,92.73L161.44,90.9L161.99,90.67L166.92,87.8L167.46,87.69L168.56,86.66L169.11,86.66L170.2,86.77L170.75,86.2L182.79,84.48L183.34,84.83L184.98,83.91L185.53,84.03L186.08,84.26L186.62,83.57L189.91,83L191,82.54L191.55,81.39L192.64,81.05L193.74,80.71L194.29,79.22L194.84,80.25L195.38,79.22L196.48,79.22L197.02,78.65L197.57,78.53L198.12,77.5L199.76,77.27L200.31,75.9L202.48,72.58L203.03,73.15L204.67,72.23L205.22,70.75L207.41,70.17L207.95,68.46L209.05,68.34L209.6,68.23L212.33,66.05L212.88,66.28L214.52,68.11L215.08,66.51L216.17,67.54L216.72,65.82L217.81,65.94L218.36,66.28L220.55,65.02L221.09,64.56L223.83,59.64L224.38,60.9L225.48,59.3L226.02,59.07L226.57,57.92L227.12,58.27L227.66,58.38L228.21,58.38L228.76,57.47L229.31,57.92L229.85,56.55L230.95,56.43L231.5,55.52L233.69,55.86L234.23,55.06L235.33,54.95L235.88,55.06L236.97,53.34L237.52,53.92L238.07,53.69L238.62,188.95L243,188.59L243.54,188.23L244.09,188.23L244.64,187.28L251.21,186.09L251.76,186.21L257.77,185.5L258.32,185.38L262.16,184.43L262.7,184.67L264.34,183.72L264.89,183.12L267.63,182.17L268.18,180.99L270.38,180.75L270.93,181.82L272.03,180.15L272.57,180.03L273.12,179.44L273.67,177.3L274.21,175.64L274.76,175.88L275.31,175.28L275.86,173.74L276.41,174.21L276.95,173.62L278.05,173.74L278.6,172.9L279.69,172.31L280.24,173.14L281.88,170.77L282.43,171.6L284.07,169.22L284.62,169.22L285.16,168.51L285.71,169.46L286.81,170.29L287.36,169.46L287.9,169.58L288.45,168.86L291.19,165.18L291.73,164.71L292.83,164.35L293.38,165.66L296.66,162.92L297.21,164.47L298.31,145.57L298.85,145.22L299.95,144.62L300.5,140.46L301.04,140.58L301.59,137.14L302.14,137.37L302.69,135.12L303.23,132.5L303.78,133.33L304.33,131.79L304.87,130.6L305.42,127.51L306.52,124.78L307.07,124.3L309.8,117.17L310.35,117.17L311.99,113.96L312.54,113.13L316.92,104.7L317.47,116.39L320.21,112.56L320.75,112.92L321.3,112.8L321.85,113.52L322.94,113.16L323.49,113.76L325.13,112.92L325.68,113.04L326.78,112.56L327.32,112.68L334.98,112.08L335.53,111.72L339.91,112.2L340.46,111.96L343.74,111.84L344.29,111.36L345.93,108.96L346.48,109.2L348.12,108L348.67,108.12L349.22,107.76L349.77,106.32L350.86,106.56L351.41,105.25L354.15,102.49L354.69,102.85L356.33,99.85L356.88,99.49L358.53,97.22L359.07,97.22L360.17,94.94L360.71,94.94L361.81,93.26L362.36,91.34L364.55,86.79L365.1,86.43L365.64,86.07L366.19,84.15L368.38,82.47L368.93,81.03L372.21,80.2L372.76,79.24L373.31,79.6L373.85,79L374.4,79.36L378.78,75.28L381.52,73L382.07,73.6L384.26,70.73L384.81,70.61L385.35,69.41L385.9,69.89L386.45,69.29L387.54,69.17L388.09,70.13L389.73,68.93L390.28,68.69L390.83,68.09L391.38,68.93L393.56,68.33L394.11,67.37L395.75,65.33L396.3,110.14L397.4,110.51L397.95,109.53L398.49,108.92L399.04,109.41L399.6,109.29L400.68,109.41L401.23,110.26L403.42,110.02L403.97,110.14L405.61,110.26L406.16,110.26L408.89,108.92L409.44,109.29L415.46,108.68L416.01,108.68L422.58,108.31L423.12,107.94L424.77,107.94L425.32,107.58L426.41,107.09L426.96,106.24L428.05,105.87L428.6,104.65L429.15,103.43L429.7,104.65L431.88,103.79L432.43,103.79L433.53,101.96L434.08,101.72L435.72,99.15L436.27,99.03L437.91,98.67L438.45,97.93L439.55,97.32L440.1,97.45L441.19,96.1L441.74,95.49L443.93,94.64L444.48,95L445.02,94.52L445.57,95.13L446.67,92.07L447.22,92.32L447.76,92.32L449.4,91.83L449.95,90.73L453.24,88.78L453.79,88.41L454.88,88.05L455.43,87.68L458.16,85.36L458.71,85.73L462.54,83.89L463.09,82.92L464.73,80.72L465.28,79.99L465.83,80.23L466.38,78.64L467.47,76.94L468.02,77.55L473.49,74.37L474.04,74.37L474.59,74.62L475.14,44.82L479.52,41.62L480.06,41.74L485.54,41.86L486.09,42.23L488.82,41.62L489.37,41.62L492.65,41.37L493.2,41.49L495.39,41.25L495.94,41.25L498.69,41.25L499.23,41.49L500.32,41.62L500.87,41.37L502.51,41.49L503.06,40.63L504.15,41.62L504.7,40.88L506.34,39.65L506.89,38.91L507.98,39.28L508.53,38.17L509.62,37.55L510.17,37.8L510.72,37.06L511.27,34.97L511.81,34.97L512.36,33.98L512.91,34.6L513.46,33.86L514.55,32.38L515.1,30.9L515.65,30.29L516.19,31.27L517.29,28.68L517.83,28.93L518.93,27.45L519.48,27.58L522.77,26.1L523.31,26.22L524.41,25.61L524.95,24.62L526.6,25.36L527.15,24.01L528.79,23.64L529.34,23.76L530.98,20.06L531.53,20.43L532.07,20.06L534.26,18.09L534.81,18.59L535.36,18.59L535.9,17.48L536.45,17.35L537,16" style="vector-effect: non-scaling-stroke; fill: none; stroke: rgb(99, 110, 250); stroke-opacity: 1; stroke-width: 2px; opacity: 1;"/></g><g class="points"/><g class="text"/></g></g></g><g class="overplot"/><path class="xlines-above crisp" d="M0,0" style="fill: none;"/><path class="ylines-above crisp" d="M0,0" style="fill: none;"/><g class="overlines-above"/><g class="xaxislayer-above"><g class="xtick"><text text-anchor="middle" x="0" y="433" transform="translate(82.05,0)" style="font-family: 'Open Sans', verdana, arial, sans-serif; font-size: 12px; fill: rgb(42, 63, 95); fill-opacity: 1; white-space: pre;"><tspan class="line" dy="0em" x="0" y="433">Aug 3</tspan><tspan class="line" dy="1.3em" x="0" y="433">2021</tspan></text></g><g class="xtick"><text text-anchor="middle" x="0" y="433" transform="translate(160.88,0)" style="font-family: 'Open Sans', verdana, arial, sans-serif; font-size: 12px; fill: rgb(42, 63, 95); fill-opacity: 1; white-space: pre;">Aug 4</text></g><g class="xtick"><text text-anchor="middle" x="0" y="433" transform="translate(239.71,0)" style="font-family: 'Open Sans', verdana, arial, sans-serif; font-size: 12px; fill: rgb(42, 63, 95); fill-opacity: 1; white-space: pre;">Aug 5</text></g><g class="xtick"><text text-anchor="middle" x="0" y="433" transform="translate(318.55,0)" style="font-family: 'Open Sans', verdana, arial, sans-serif; font-size: 12px; fill: rgb(42, 63, 95); fill-opacity: 1; white-space: pre;">Aug 6</text></g><g class="xtick"><text text-anchor="middle" x="0" y="433" transform="translate(397.38,0)" style="font-family: 'Open Sans', verdana, arial, sans-serif; font-size: 12px; fill: rgb(42, 63, 95); fill-opacity: 1; white-space: pre;">Aug 7</text></g><g class="xtick"><text text-anchor="middle" x="0" y="433" transform="translate(476.22,0)" style="font-family: 'Open Sans', verdana, arial, sans-serif; font-size: 12px; fill: rgb(42, 63, 95); fill-opacity: 1; white-space: pre;">Aug 8</text></g><g class="xtick"><text text-anchor="middle" x="0" y="433" transform="translate(555.05,0)" style="font-family: 'Open Sans', verdana, arial, sans-serif; font-size: 12px; fill: rgb(42, 63, 95); fill-opacity: 1; white-space: pre;">Aug 9</text></g></g><g class="yaxislayer-above"><g class="ytick"><text text-anchor="end" x="79" y="4.199999999999999" transform="translate(0,394.03)" style="font-family: 'Open Sans', verdana, arial, sans-serif; font-size: 12px; fill: rgb(42, 63, 95); fill-opacity: 1; white-space: pre;">0.864</text></g><g class="ytick"><text text-anchor="end" x="79" y="4.199999999999999" transform="translate(0,356.8)" style="font-family: 'Open Sans', verdana, arial, sans-serif; font-size: 12px; fill: rgb(42, 63, 95); fill-opacity: 1; white-space: pre;">0.865</text></g><g class="ytick"><text text-anchor="end" x="79" y="4.199999999999999" transform="translate(0,319.57)" style="font-family: 'Open Sans', verdana, arial, sans-serif; font-size: 12px; fill: rgb(42, 63, 95); fill-opacity: 1; white-space: pre;">0.866</text></g><g class="ytick"><text text-anchor="end" x="79" y="4.199999999999999" transform="translate(0,282.33000000000004)" style="font-family: 'Open Sans', verdana, arial, sans-serif; font-size: 12px; fill: rgb(42, 63, 95); fill-opacity: 1; white-space: pre;">0.867</text></g><g class="ytick"><text text-anchor="end" x="79" y="4.199999999999999" transform="translate(0,245.1)" style="font-family: 'Open Sans', verdana, arial, sans-serif; font-size: 12px; fill: rgb(42, 63, 95); fill-opacity: 1; white-space: pre;">0.868</text></g><g class="ytick"><text text-anchor="end" x="79" y="4.199999999999999" transform="translate(0,207.87)" style="font-family: 'Open Sans', verdana, arial, sans-serif; font-size: 12px; fill: rgb(42, 63, 95); fill-opacity: 1; white-space: pre;">0.869</text></g><g class="ytick"><text text-anchor="end" x="79" y="4.199999999999999" transform="translate(0,170.64)" style="font-family: 'Open Sans', verdana, arial, sans-serif; font-size: 12px; fill: rgb(42, 63, 95); fill-opacity: 1; white-space: pre;">0.87</text></g><g class="ytick"><text text-anchor="end" x="79" y="4.199999999999999" transform="translate(0,133.4)" style="font-family: 'Open Sans', verdana, arial, sans-serif; font-size: 12px; fill: rgb(42, 63, 95); fill-opacity: 1; white-space: pre;">0.871</text></g></g><g class="overaxes-above"/></g></g><g class="polarlayer"/><g class="ternarylayer"/><g class="geolayer"/><g class="funnelarealayer"/><g class="pielayer"/><g class="treemaplayer"/><g class="sunburstlayer"/><g class="glimages"/><defs id="topdefs-7a1e1b"><g class="clips"/><clipPath id="legend7a1e1b"><rect width="60" height="45" x="0" y="0"/></clipPath></defs><g class="layer-above"><g class="imagelayer"/><g class="shapelayer"/></g><g class="infolayer"><g class="legend" pointer-events="all" transform="translate(627.74,100)"><rect class="bg" shape-rendering="crispEdges" width="60" height="45" x="0" y="0" style="stroke: rgb(68, 68, 68); stroke-opacity: 1; fill: rgb(255, 255, 255); fill-opacity: 1; stroke-width: 0px;"/><g class="scrollbox" transform="" clip-path="url('#legend7a1e1b')"><text class="legendtitletext" text-anchor="start" x="2" y="15.600000000000001" style="font-family: 'Open Sans', verdana, arial, sans-serif; font-size: 12px; fill: rgb(42, 63, 95); fill-opacity: 1; white-space: pre;">All</text><g class="groups" transform=""><g class="traces" transform="translate(0,30.1)" style="opacity: 1;"><text class="legendtext" text-anchor="start" x="40" y="4.680000000000001" style="font-family: 'Open Sans', verdana, arial, sans-serif; font-size: 12px; fill: rgb(42, 63, 95); fill-opacity: 1; white-space: pre;">All</text><g class="layers" style="opacity: 1;"><g class="legendfill"/><g class="legendlines"><path class="js-line" d="M5,0h30" style="fill: none; stroke: rgb(99, 110, 250); stroke-opacity: 1; stroke-width: 2px;"/></g><g class="legendsymbols"><g class="legendpoints"/></g></g><rect class="legendtoggle" x="0" y="-9.5" width="54.890625" height="19" style="fill: rgb(0, 0, 0); fill-opacity: 0;"/></g></g></g><rect class="scrollbar" rx="20" ry="3" width="0" height="0" x="0" y="0" style="fill: rgb(128, 139, 164); fill-opacity: 1;"/></g><g class="g-gtitle"><text class="gtitle" x="35" y="50" text-anchor="start" dy="0em" style="font-family: 'Open Sans', verdana, arial, sans-serif; font-size: 17px; fill: rgb(42, 63, 95); opacity: 1; font-weight: normal; white-space: pre;">Singapore Vaccination Centers</text></g><g class="g-xtitle"><text class="xtitle" x="348.5" y="476.409375" text-anchor="middle" style="font-family: 'Open Sans', verdana, arial, sans-serif; font-size: 14px; fill: rgb(42, 63, 95); opacity: 1; font-weight: normal; white-space: pre;">Time</text></g><g class="g-ytitle"><text class="ytitle" transform="rotate(-90,19.840625000000003,260)" x="19.840625000000003" y="260" text-anchor="middle" style="font-family: 'Open Sans', verdana, arial, sans-serif; font-size: 14px; fill: rgb(42, 63, 95); opacity: 1; font-weight: normal; white-space: pre;">Filled/%</text></g></g></svg>