<svg class="main-svg" xmlns="http://www.w3.org/2000/svg" xmlns:xlink="http://www.w3.org/1999/xlink" width="700" height="500" style="" viewBox="0 0 700 500"><rect x="0" y="0" width="700" height="500" style="fill: rgb(255, 255, 255); fill-opacity: 1;"/><defs id="defs-ef7e22"><g class="clips"><clipPath id="clipef7e22xyplot" class="plotclip"><rect width="537" height="320"/></clipPath><clipPath class="axesclip" id="clipef7e22x"><rect x="80" y="0" width="537" height="500"/></clipPath><clipPath class="axesclip" id="clipef7e22y"><rect x="0" y="100" width="700" height="320"/></clipPath><clipPath class="axesclip" id="clipef7e22xy"><rect x="80" y="100" width="537" height="320"/></clipPath></g><g class="gradients"/></defs><g class="bglayer"><rect class="bg" x="80" y="100" width="537" height="320" style="fill: rgb(229, 236, 246); fill-opacity: 1; stroke-width: 0;"/></g><g class="layer-below"><g class="imagelayer"/><g class="shapelayer"/></g><g class="cartesianlayer"><g class="subplot xy"><g class="layer-subplot"><g class="shapelayer"/><g class="imagelayer"/></g><g class="gridlayer"><g class="x"><path class="xgrid crisp" transform="translate(90.42,0)" d="M0,100v320" style="stroke: rgb(255, 255, 255); stroke-opacity: 1; stroke-width: 1px;"/><path class="xgrid crisp" transform="translate(202.67000000000002,0)" d="M0,100v320" style="stroke: rgb(255, 255, 255); stroke-opacity: 1; stroke-width: 1px;"/><path class="xgrid crisp" transform="translate(314.90999999999997,0)" d="M0,100v320" style="stroke: rgb(255, 255, 255); stroke-opacity: 1; stroke-width: 1px;"/><path class="xgrid crisp" transform="translate(427.15,0)" d="M0,100v320" style="stroke: rgb(255, 255, 255); stroke-opacity: 1; stroke-width: 1px;"/><path class="xgrid crisp" transform="translate(539.39,0)" d="M0,100v320" style="stroke: rgb(255, 255, 255); stroke-opacity: 1; stroke-width: 1px;"/></g><g class="y"><path class="ygrid crisp" transform="translate(0,367.23)" d="M80,0h537" style="stroke: rgb(255, 255, 255); stroke-opacity: 1; stroke-width: 1px;"/><path class="ygrid crisp" transform="translate(0,308.43)" d="M80,0h537" style="stroke: rgb(255, 255, 255); stroke-opacity: 1; stroke-width: 1px;"/><path class="ygrid crisp" transform="translate(0,249.63)" d="M80,0h537" style="stroke: rgb(255, 255, 255); stroke-opacity: 1; stroke-width: 1px;"/><path class="ygrid crisp" transform="translate(0,190.82999999999998)" d="M80,0h537" style="stroke: rgb(255, 255, 255); stroke-opacity: 1; stroke-width: 1px;"/><path class="ygrid crisp" transform="translate(0,132.03)" d="M80,0h537" style="stroke: rgb(255, 255, 255); stroke-opacity: 1; stroke-width: 1px;"/></g></g><g class="zerolinelayer"/><path class="xlines-below"/><path class="ylines-below"/><g class="overlines-below"/><g class="xaxislayer-below"/><g class="yaxislayer-below"/><g class="overaxes-below"/><g class="plot" transform="translate(80,100)" clip-path="url('#clipef7e22xyplot')"><g class="scatterlayer mlayer"><g class="trace scatter trace164009" style="stroke-miterlimit: 2; opacity: 1;"><g class="fills"/><g class="errorbars"/><g class="lines"><path class="js-line" d="M0,82.28L6.58,82.51L8.92,120.48L13.57,120.57L15.29,136.92L16.02,136.9L33.24,137.96L34.31,121.23L34.63,129.62L35.41,129.56L36.97,126.37L37.75,126.27L39.31,129.79L40.09,129.7L41.65,132.71L42.43,132.63L43.99,120.69L44.77,120.62L46.32,132.64L47.11,132.55L48.66,126.68L49.44,123.32L51,113.21L51.78,109.51L53.34,94.58L54.12,92.89L55.68,74.17L56.46,72.87L58.02,78.78L58.8,77.73L60.35,63.68L61.13,62.82L62.69,65.47L63.47,64.83L65.03,74.27L65.81,73.83L66.84,51.83L68.15,52.34L68.93,52.21L77.5,51.78L78.28,51.77L87.63,51.11L88.41,50.91L114.92,42.44L115.7,42.24L121.93,40.95L122.71,41.79L136.74,41.46L137.52,41.46L149.99,40.58L150.77,40.48L175.71,37.08L176.49,36.99L178.05,36.83L178.83,35.53L209.23,34L210.01,33.87L234.18,31.05L234.96,28.56L261.46,27.81L262.24,95.38L270.84,93.57L271.59,93.44L272.37,93.12L273.15,91.51L275.49,88.51L276.27,87.52L280.17,73.59L280.94,72.39L285.62,67.88L286.4,67.37L290.3,65.43L291.08,65.5L296.54,64.8L297.32,64.77L314.46,63.66L315.24,63.48L320.7,61.32L321.48,60.89L322.26,60.46L323.04,62.78L326.15,61.15L326.94,59.94L331.61,53.24L332.39,52.44L335.51,47.98L336.29,45.51L339.41,38.66L340.18,37.65L344.86,32.89L345.67,32.47L347.98,31.98L348.76,31.8L355,31.18L355.78,31.16L367.47,30.17L368.25,29.9L372.92,28.09L373.7,74.81L375.26,73.22L376.04,72.76L383.84,69.16L384.62,68.8L385.21,71.93L385.4,68.39L386.14,68.25L386.18,69.25L386.92,67.95L386.96,68.94L387.73,68.62L389.29,68.09L390.07,76.43L396.9,73.91L396.93,72.31L396.97,72.03L397.09,73.74L404.49,44.74L404.88,44.87L405.27,41.95L406.05,42.12L406.44,43.2L407.61,37.43L408,41.6L409.17,39.66L409.56,39.05L410.73,38.13L411.12,38.96L411.51,38.26L411.9,38.53L412.29,38.42L413.46,38.4L413.85,43.02L418.13,41.69L418.52,36.5L419.3,35.76L419.69,35.39L420.86,33.79L421.25,33.41L424.37,22.43L424.76,16L425.15,16.8L425.54,140.18L425.93,139.22L426.32,142.07L427.1,136.79L427.49,138.99L428.27,136.15L428.66,136.63L429.05,141.25L429.43,146.68L429.83,133.42L430.6,138.09L430.99,157.2L432.16,133.53L432.55,145.44L432.94,148.42L433.33,146.68L433.72,144.02L434.5,134.36L434.89,135.71L435.28,141.84L435.67,146.05L436.06,142.1L436.45,141.74L436.84,151.77L437.62,140.84L438.01,148.68L438.79,127.07L439.18,137.58L439.96,140.49L440.35,138.92L441.13,130.34L441.52,131.67L441.91,129.31L442.29,138.25L442.69,134.05L443.07,138.68L443.47,138.81L443.85,131.49L444.25,131.42L444.63,140.05L445.41,132.48L445.8,138.41L446.58,141.46L446.97,128.79L447.75,142.96L448.14,264.58L449.31,293.12L449.7,304L450.09,286.22L450.48,301.52L450.87,291.75L451.26,292.1L451.65,291.07L452.04,294.16L452.43,293.46L452.82,276.02L453.21,283.67L453.6,262.28L454.38,272.54L454.77,248.89L455.55,241.71L455.94,229.6L456.33,224.98L456.72,228.24L457.11,227.36L458.27,215.22L458.66,217.06L459.05,216.4L459.44,227.08L459.83,226.08L460.22,228.38L460.61,228.68L461,224.72L461.39,233.57L461.78,224.28L462.56,227.75L462.95,223.07L463.73,226.33L464.12,223.26L464.51,224.52L464.9,234.01L465.29,220.81L465.68,231.91L466.07,224.2L468.41,212.72L468.8,220.76L469.58,220.72L469.97,223.7L470.36,223.67L470.75,219.37L471.14,223.08L471.52,218.62L471.91,226.76L472.31,225.2L472.7,224.19L473.09,219.51L473.47,225.16L474.64,225.11L475.03,216.49L475.42,225.05L475.81,220.43L476.2,220.57L476.59,218.19L476.98,220.92L477.38,219.84L477.76,227.36L478.15,216.65L478.54,220.1L478.93,220.01L479.71,220.98L480.1,218.78L480.88,223.64L481.27,218.66L481.66,205.85L482.05,215.25L482.44,220.32L482.83,206.18L483.22,206.81L483.61,214.16L484,214.11L484.39,206.99L485.17,212.47L485.56,202.23L485.95,199.24L486.34,208.71L486.73,224.84L487.11,215.2L487.5,214.49L487.9,205.74L488.28,219.6L489.06,195.82L489.45,209.77L489.84,208.24L490.23,203.32L490.62,202.05L491.01,205.17L491.4,200.81L491.79,208.16L492.18,206.35L492.57,209.96L492.96,207.44L493.35,196.45L493.74,195.36L494.13,196.45L494.52,201.41L495.69,210.92L496.08,197.09L496.47,197.31L496.86,191.05L497.25,191.24L497.64,196.07L498.03,200.65L498.42,194.37L499.59,210.5L499.97,204.27L500.75,191.94L501.14,193.62L501.53,197L501.92,205.03L502.31,197.14L502.7,198.57L503.09,192.99L504.26,184.28L504.65,189.51L505.43,194.59L505.82,189.23L506.21,191.91L506.6,189.81L506.99,182.31L507.38,187.7L507.77,187L508.16,183.28L508.55,186.18L508.94,185.69L509.34,181.61L509.72,182.61L510.11,186.54L510.89,187.68L511.28,186.58L511.67,181.49L512.06,187.81L512.84,185.81L513.23,187.22L513.62,189.17L514.01,187L515.18,194.82L515.57,189.57L515.96,183.36L516.35,189.2L516.74,186.45L517.13,187.34L517.51,187.88L517.91,187.85L518.29,183.53L519.47,187.65L519.85,184.59L520.63,184.25L521.02,185.71L521.8,187.3L522.19,187.29L522.97,197.68L523.36,195.53L523.75,195.52L524.14,190.33L524.53,190.33L524.92,186.49L526.48,194.95L526.87,194.95L527.26,195.4L527.65,193.58L528.04,193.58L528.43,187.5L529.21,187.5L529.6,190.84L529.99,186.76L530.37,190.68L530.77,186.75L531.15,187.03L531.54,187.03L531.93,188.23L532.32,187.2L532.71,186.53L533.1,186.53L533.49,184.4L534.27,184.18L534.66,183.02L535.05,181.13L535.44,187.27L535.83,190.9L536.22,187.7L536.61,181.79L537,180.91" style="vector-effect: non-scaling-stroke; fill: none; stroke: rgb(99, 110, 250); stroke-opacity: 1; stroke-width: 2px; opacity: 1;"/></g><g class="points"/><g class="text"/></g></g></g><g class="overplot"/><path class="xlines-above crisp" d="M0,0" style="fill: none;"/><path class="ylines-above crisp" d="M0,0" style="fill: none;"/><g class="overlines-above"/><g class="xaxislayer-above"><g class="xtick"><text text-anchor="middle" x="0" y="433" transform="translate(90.42,0)" style="font-family: 'Open Sans', verdana, arial, sans-serif; font-size: 12px; fill: rgb(42, 63, 95); fill-opacity: 1; white-space: pre;"><tspan class="line" dy="0em" x="0" y="433">Jun 4</tspan><tspan class="line" dy="1.3em" x="0" y="433">2021</tspan></text></g><g class="xtick"><text text-anchor="middle" x="0" y="433" transform="translate(202.67000000000002,0)" style="font-family: 'Open Sans', verdana, arial, sans-serif; font-size: 12px; fill: rgb(42, 63, 95); fill-opacity: 1; white-space: pre;">Jun 6</text></g><g class="xtick"><text text-anchor="middle" x="0" y="433" transform="translate(314.90999999999997,0)" style="font-family: 'Open Sans', verdana, arial, sans-serif; font-size: 12px; fill: rgb(42, 63, 95); fill-opacity: 1; white-space: pre;">Jun 8</text></g><g class="xtick"><text text-anchor="middle" x="0" y="433" transform="translate(427.15,0)" style="font-family: 'Open Sans', verdana, arial, sans-serif; font-size: 12px; fill: rgb(42, 63, 95); fill-opacity: 1; white-space: pre;">Jun 10</text></g><g class="xtick"><text text-anchor="middle" x="0" y="433" transform="translate(539.39,0)" style="font-family: 'Open Sans', verdana, arial, sans-serif; font-size: 12px; fill: rgb(42, 63, 95); fill-opacity: 1; white-space: pre;">Jun 12</text></g></g><g class="yaxislayer-above"><g class="ytick"><text text-anchor="end" x="79" y="4.199999999999999" transform="translate(0,367.23)" style="font-family: 'Open Sans', verdana, arial, sans-serif; font-size: 12px; fill: rgb(42, 63, 95); fill-opacity: 1; white-space: pre;">0.8</text></g><g class="ytick"><text text-anchor="end" x="79" y="4.199999999999999" transform="translate(0,308.43)" style="font-family: 'Open Sans', verdana, arial, sans-serif; font-size: 12px; fill: rgb(42, 63, 95); fill-opacity: 1; white-space: pre;">0.82</text></g><g class="ytick"><text text-anchor="end" x="79" y="4.199999999999999" transform="translate(0,249.63)" style="font-family: 'Open Sans', verdana, arial, sans-serif; font-size: 12px; fill: rgb(42, 63, 95); fill-opacity: 1; white-space: pre;">0.84</text></g><g class="ytick"><text text-anchor="end" x="79" y="4.199999999999999" transform="translate(0,190.82999999999998)" style="font-family: 'Open Sans', verdana, arial, sans-serif; font-size: 12px; fill: rgb(42, 63, 95); fill-opacity: 1; white-space: pre;">0.86</text></g><g class="ytick"><text text-anchor="end" x="79" y="4.199999999999999" transform="translate(0,132.03)" style="font-family: 'Open Sans', verdana, arial, sans-serif; font-size: 12px; fill: rgb(42, 63, 95); fill-opacity: 1; white-space: pre;">0.88</text></g></g><g class="overaxes-above"/></g></g><g class="polarlayer"/><g class="ternarylayer"/><g class="geolayer"/><g class="funnelarealayer"/><g class="pielayer"/><g class="treemaplayer"/><g class="sunburstlayer"/><g class="glimages"/><defs id="topdefs-ef7e22"><g class="clips"/><clipPath id="legendef7e22"><rect width="60" height="45" x="0" y="0"/></clipPath></defs><g class="layer-above"><g class="imagelayer"/><g class="shapelayer"/></g><g class="infolayer"><g class="legend" pointer-events="all" transform="translate(627.74,100)"><rect class="bg" shape-rendering="crispEdges" width="60" height="45" x="0" y="0" style="stroke: rgb(68, 68, 68); stroke-opacity: 1; fill: rgb(255, 255, 255); fill-opacity: 1; stroke-width: 0px;"/><g class="scrollbox" transform="" clip-path="url('#legendef7e22')"><text class="legendtitletext" text-anchor="start" x="2" y="15.600000000000001" style="font-family: 'Open Sans', verdana, arial, sans-serif; font-size: 12px; fill: rgb(42, 63, 95); fill-opacity: 1; white-space: pre;">All</text><g class="groups" transform=""><g class="traces" transform="translate(0,30.1)" style="opacity: 1;"><text class="legendtext" text-anchor="start" x="40" y="4.680000000000001" style="font-family: 'Open Sans', verdana, arial, sans-serif; font-size: 12px; fill: rgb(42, 63, 95); fill-opacity: 1; white-space: pre;">All</text><g class="layers" style="opacity: 1;"><g class="legendfill"/><g class="legendlines"><path class="js-line" d="M5,0h30" style="fill: none; stroke: rgb(99, 110, 250); stroke-opacity: 1; stroke-width: 2px;"/></g><g class="legendsymbols"><g class="legendpoints"/></g></g><rect class="legendtoggle" x="0" y="-9.5" width="54.890625" height="19" style="fill: rgb(0, 0, 0); fill-opacity: 0;"/></g></g></g><rect class="scrollbar" rx="20" ry="3" width="0" height="0" x="0" y="0" style="fill: rgb(128, 139, 164); fill-opacity: 1;"/></g><g class="g-gtitle"><text class="gtitle" x="35" y="50" text-anchor="start" dy="0em" style="font-family: 'Open Sans', verdana, arial, sans-serif; font-size: 17px; fill: rgb(42, 63, 95); opacity: 1; font-weight: normal; white-space: pre;">Singapore Vaccination Centers</text></g><g class="g-xtitle"><text class="xtitle" x="348.5" y="476.409375" text-anchor="middle" style="font-family: 'Open Sans', verdana, arial, sans-serif; font-size: 14px; fill: rgb(42, 63, 95); opacity: 1; font-weight: normal; white-space: pre;">Time</text></g><g class="g-ytitle"><text class="ytitle" transform="rotate(-90,27.481250000000003,260)" x="27.481250000000003" y="260" text-anchor="middle" style="font-family: 'Open Sans', verdana, arial, sans-serif; font-size: 14px; fill: rgb(42, 63, 95); opacity: 1; font-weight: normal; white-space: pre;">Filled/%</text></g></g></svg>