<svg class="main-svg" xmlns="http://www.w3.org/2000/svg" xmlns:xlink="http://www.w3.org/1999/xlink" width="700" height="500" style="" viewBox="0 0 700 500"><rect x="0" y="0" width="700" height="500" style="fill: rgb(255, 255, 255); fill-opacity: 1;"/><defs id="defs-ef3ed3"><g class="clips"><clipPath id="clipef3ed3xyplot" class="plotclip"><rect width="537" height="320"/></clipPath><clipPath class="axesclip" id="clipef3ed3x"><rect x="80" y="0" width="537" height="500"/></clipPath><clipPath class="axesclip" id="clipef3ed3y"><rect x="0" y="100" width="700" height="320"/></clipPath><clipPath class="axesclip" id="clipef3ed3xy"><rect x="80" y="100" width="537" height="320"/></clipPath></g><g class="gradients"/></defs><g class="bglayer"><rect class="bg" x="80" y="100" width="537" height="320" style="fill: rgb(229, 236, 246); fill-opacity: 1; stroke-width: 0;"/></g><g class="layer-below"><g class="imagelayer"/><g class="shapelayer"/></g><g class="cartesianlayer"><g class="subplot xy"><g class="layer-subplot"><g class="shapelayer"/><g class="imagelayer"/></g><g class="gridlayer"><g class="x"><path class="xgrid crisp" transform="translate(92.12,0)" d="M0,100v320" style="stroke: rgb(255, 255, 255); stroke-opacity: 1; stroke-width: 1px;"/><path class="xgrid crisp" transform="translate(222.65,0)" d="M0,100v320" style="stroke: rgb(255, 255, 255); stroke-opacity: 1; stroke-width: 1px;"/><path class="xgrid crisp" transform="translate(353.17,0)" d="M0,100v320" style="stroke: rgb(255, 255, 255); stroke-opacity: 1; stroke-width: 1px;"/><path class="xgrid crisp" transform="translate(483.7,0)" d="M0,100v320" style="stroke: rgb(255, 255, 255); stroke-opacity: 1; stroke-width: 1px;"/><path class="xgrid crisp" transform="translate(614.22,0)" d="M0,100v320" style="stroke: rgb(255, 255, 255); stroke-opacity: 1; stroke-width: 1px;"/></g><g class="y"><path class="ygrid crisp" transform="translate(0,367.23)" d="M80,0h537" style="stroke: rgb(255, 255, 255); stroke-opacity: 1; stroke-width: 1px;"/><path class="ygrid crisp" transform="translate(0,308.43)" d="M80,0h537" style="stroke: rgb(255, 255, 255); stroke-opacity: 1; stroke-width: 1px;"/><path class="ygrid crisp" transform="translate(0,249.63)" d="M80,0h537" style="stroke: rgb(255, 255, 255); stroke-opacity: 1; stroke-width: 1px;"/><path class="ygrid crisp" transform="translate(0,190.82999999999998)" d="M80,0h537" style="stroke: rgb(255, 255, 255); stroke-opacity: 1; stroke-width: 1px;"/><path class="ygrid crisp" transform="translate(0,132.03)" d="M80,0h537" style="stroke: rgb(255, 255, 255); stroke-opacity: 1; stroke-width: 1px;"/></g></g><g class="zerolinelayer"/><path class="xlines-below"/><path class="ylines-below"/><g class="overlines-below"/><g class="xaxislayer-below"/><g class="yaxislayer-below"/><g class="overaxes-below"/><g class="plot" transform="translate(80,100)" clip-path="url('#clipef3ed3xyplot')"><g class="scatterlayer mlayer"><g class="trace scatter tracec97eb8" style="stroke-miterlimit: 2; opacity: 1;"><g class="fills"/><g class="errorbars"/><g class="lines"><path class="js-line" d="M0,82.28L7.66,82.51L10.37,120.48L15.78,120.57L17.78,136.92L18.63,136.9L38.65,137.96L39.9,121.23L40.27,129.62L41.18,129.56L42.99,126.37L43.9,126.27L45.71,129.79L46.62,129.7L48.43,132.71L49.34,132.63L51.15,120.69L52.06,120.62L53.87,132.64L54.78,132.55L56.59,126.68L57.5,123.32L59.31,113.21L60.22,109.51L62.03,94.58L62.94,92.89L64.75,74.17L65.65,72.87L67.47,78.78L68.37,77.73L70.19,63.68L71.09,62.82L72.9,65.47L73.81,64.83L75.62,74.27L76.53,73.83L77.73,51.83L78.34,52.53L79.25,52.34L88.31,51.79L89.22,51.79L102.82,50.91L103.72,50.65L135.45,42.03L136.35,41.83L141.79,40.95L142.7,41.79L159.02,41.46L159.92,41.46L174.43,40.58L175.33,40.48L204.34,37.08L205.24,36.99L207.05,36.83L207.96,35.53L243.31,34L244.22,33.87L272.32,31.05L273.23,28.56L304.05,27.81L304.96,95.38L314.95,93.57L315.83,93.44L316.74,93.12L317.64,91.51L320.36,88.51L321.27,87.52L324.9,74.89L325.8,73.59L329.43,69.79L330.34,69.11L335.77,66.07L336.68,65.71L341.21,65.01L342.12,64.93L366.59,63.48L367.5,63.27L372.93,61.32L373.84,60.89L374.75,60.46L375.66,62.78L379.28,61.15L380.19,59.94L384.72,54.01L385.63,53.24L389.25,49.13L390.16,47.98L393.78,39.84L394.69,38.66L400.13,33.5L401.03,32.89L404.66,31.98L405.57,31.8L412.82,31.18L413.73,31.16L427.32,30.17L428.23,29.9L433.67,28.09L434.57,74.81L436.39,73.22L437.29,72.76L446.36,69.16L447.27,68.8L447.96,71.93L448.17,68.39L449.04,68.25L449.08,69.25L449.94,67.95L449.99,68.94L450.89,68.62L452.7,68.09L453.61,76.43L461.55,73.91L461.58,72.31L461.63,72.03L461.77,73.74L470.38,44.74L470.83,44.87L471.29,41.95L472.19,42.12L472.64,43.2L474,37.43L474.46,41.6L475.82,39.66L476.27,39.05L477.63,38.13L478.08,38.96L478.99,38.53L479.44,38.42L480.8,38.4L481.26,43.02L486.24,41.69L486.69,36.5L487.6,35.76L488.05,35.39L489.41,33.79L489.87,33.41L493.49,22.43L493.94,16L494.4,16.8L494.85,140.18L495.3,139.22L495.76,142.07L496.66,136.79L497.12,138.99L498.03,136.15L498.48,136.63L498.93,141.25L499.38,146.68L499.84,133.42L500.74,138.09L501.2,157.2L502.56,133.53L503.01,145.44L503.46,148.42L503.91,146.68L504.37,144.02L505.27,134.36L505.73,135.71L506.63,146.05L507.09,142.1L507.54,141.74L507.99,151.77L508.9,140.84L509.35,148.68L510.26,127.07L510.71,137.58L511.62,140.49L512.07,138.92L512.98,130.34L513.43,131.67L513.89,129.31L514.34,138.25L514.79,134.05L515.24,138.68L515.7,138.81L516.15,131.49L516.61,131.42L517.06,140.05L517.96,132.48L518.42,138.41L519.33,141.46L519.78,128.79L520.68,142.96L521.14,264.58L522.05,292.55L522.5,293.12L522.95,304L523.41,286.22L523.86,301.52L524.31,291.75L524.76,292.1L525.22,291.07L525.67,294.16L526.12,293.46L526.58,276.02L527.03,283.67L527.48,262.28L528.39,272.54L528.84,248.89L529.75,241.71L530.2,229.6L530.66,224.98L531.11,228.24L531.56,227.36L532.01,223.79L532.92,215.22L533.37,217.06L533.83,216.4L534.28,227.08L534.73,226.08L535.19,228.38L535.64,228.68L536.09,224.72L536.55,233.57L537,224.28" style="vector-effect: non-scaling-stroke; fill: none; stroke: rgb(99, 110, 250); stroke-opacity: 1; stroke-width: 2px; opacity: 1;"/></g><g class="points"/><g class="text"/></g></g></g><g class="overplot"/><path class="xlines-above crisp" d="M0,0" style="fill: none;"/><path class="ylines-above crisp" d="M0,0" style="fill: none;"/><g class="overlines-above"/><g class="xaxislayer-above"><g class="xtick"><text text-anchor="middle" x="0" y="433" transform="translate(92.12,0)" style="font-family: 'Open Sans', verdana, arial, sans-serif; font-size: 12px; fill: rgb(42, 63, 95); fill-opacity: 1; white-space: pre;"><tspan class="line" dy="0em" x="0" y="433">Jun 4</tspan><tspan class="line" dy="1.3em" x="0" y="433">2021</tspan></text></g><g class="xtick"><text text-anchor="middle" x="0" y="433" transform="translate(222.65,0)" style="font-family: 'Open Sans', verdana, arial, sans-serif; font-size: 12px; fill: rgb(42, 63, 95); fill-opacity: 1; white-space: pre;">Jun 6</text></g><g class="xtick"><text text-anchor="middle" x="0" y="433" transform="translate(353.17,0)" style="font-family: 'Open Sans', verdana, arial, sans-serif; font-size: 12px; fill: rgb(42, 63, 95); fill-opacity: 1; white-space: pre;">Jun 8</text></g><g class="xtick"><text text-anchor="middle" x="0" y="433" transform="translate(483.7,0)" style="font-family: 'Open Sans', verdana, arial, sans-serif; font-size: 12px; fill: rgb(42, 63, 95); fill-opacity: 1; white-space: pre;">Jun 10</text></g><g class="xtick"><text text-anchor="middle" x="0" y="433" transform="translate(614.22,0)" style="font-family: 'Open Sans', verdana, arial, sans-serif; font-size: 12px; fill: rgb(42, 63, 95); fill-opacity: 1; white-space: pre;">Jun 12</text></g></g><g class="yaxislayer-above"><g class="ytick"><text text-anchor="end" x="79" y="4.199999999999999" transform="translate(0,367.23)" style="font-family: 'Open Sans', verdana, arial, sans-serif; font-size: 12px; fill: rgb(42, 63, 95); fill-opacity: 1; white-space: pre;">0.8</text></g><g class="ytick"><text text-anchor="end" x="79" y="4.199999999999999" transform="translate(0,308.43)" style="font-family: 'Open Sans', verdana, arial, sans-serif; font-size: 12px; fill: rgb(42, 63, 95); fill-opacity: 1; white-space: pre;">0.82</text></g><g class="ytick"><text text-anchor="end" x="79" y="4.199999999999999" transform="translate(0,249.63)" style="font-family: 'Open Sans', verdana, arial, sans-serif; font-size: 12px; fill: rgb(42, 63, 95); fill-opacity: 1; white-space: pre;">0.84</text></g><g class="ytick"><text text-anchor="end" x="79" y="4.199999999999999" transform="translate(0,190.82999999999998)" style="font-family: 'Open Sans', verdana, arial, sans-serif; font-size: 12px; fill: rgb(42, 63, 95); fill-opacity: 1; white-space: pre;">0.86</text></g><g class="ytick"><text text-anchor="end" x="79" y="4.199999999999999" transform="translate(0,132.03)" style="font-family: 'Open Sans', verdana, arial, sans-serif; font-size: 12px; fill: rgb(42, 63, 95); fill-opacity: 1; white-space: pre;">0.88</text></g></g><g class="overaxes-above"/></g></g><g class="polarlayer"/><g class="ternarylayer"/><g class="geolayer"/><g class="funnelarealayer"/><g class="pielayer"/><g class="treemaplayer"/><g class="sunburstlayer"/><g class="glimages"/><defs id="topdefs-ef3ed3"><g class="clips"/><clipPath id="legendef3ed3"><rect width="60" height="45" x="0" y="0"/></clipPath></defs><g class="layer-above"><g class="imagelayer"/><g class="shapelayer"/></g><g class="infolayer"><g class="legend" pointer-events="all" transform="translate(627.74,100)"><rect class="bg" shape-rendering="crispEdges" width="60" height="45" x="0" y="0" style="stroke: rgb(68, 68, 68); stroke-opacity: 1; fill: rgb(255, 255, 255); fill-opacity: 1; stroke-width: 0px;"/><g class="scrollbox" transform="" clip-path="url('#legendef3ed3')"><text class="legendtitletext" text-anchor="start" x="2" y="15.600000000000001" style="font-family: 'Open Sans', verdana, arial, sans-serif; font-size: 12px; fill: rgb(42, 63, 95); fill-opacity: 1; white-space: pre;">All</text><g class="groups" transform=""><g class="traces" transform="translate(0,30.1)" style="opacity: 1;"><text class="legendtext" text-anchor="start" x="40" y="4.680000000000001" style="font-family: 'Open Sans', verdana, arial, sans-serif; font-size: 12px; fill: rgb(42, 63, 95); fill-opacity: 1; white-space: pre;">All</text><g class="layers" style="opacity: 1;"><g class="legendfill"/><g class="legendlines"><path class="js-line" d="M5,0h30" style="fill: none; stroke: rgb(99, 110, 250); stroke-opacity: 1; stroke-width: 2px;"/></g><g class="legendsymbols"><g class="legendpoints"/></g></g><rect class="legendtoggle" x="0" y="-9.5" width="54.890625" height="19" style="fill: rgb(0, 0, 0); fill-opacity: 0;"/></g></g></g><rect class="scrollbar" rx="20" ry="3" width="0" height="0" x="0" y="0" style="fill: rgb(128, 139, 164); fill-opacity: 1;"/></g><g class="g-gtitle"><text class="gtitle" x="35" y="50" text-anchor="start" dy="0em" style="font-family: 'Open Sans', verdana, arial, sans-serif; font-size: 17px; fill: rgb(42, 63, 95); opacity: 1; font-weight: normal; white-space: pre;">Singapore Vaccination Centers</text></g><g class="g-xtitle"><text class="xtitle" x="348.5" y="476.409375" text-anchor="middle" style="font-family: 'Open Sans', verdana, arial, sans-serif; font-size: 14px; fill: rgb(42, 63, 95); opacity: 1; font-weight: normal; white-space: pre;">Time</text></g><g class="g-ytitle"><text class="ytitle" transform="rotate(-90,27.481250000000003,260)" x="27.481250000000003" y="260" text-anchor="middle" style="font-family: 'Open Sans', verdana, arial, sans-serif; font-size: 14px; fill: rgb(42, 63, 95); opacity: 1; font-weight: normal; white-space: pre;">Filled/%</text></g></g></svg>