<svg class="main-svg" xmlns="http://www.w3.org/2000/svg" xmlns:xlink="http://www.w3.org/1999/xlink" width="700" height="500" style="" viewBox="0 0 700 500"><rect x="0" y="0" width="700" height="500" style="fill: rgb(255, 255, 255); fill-opacity: 1;"/><defs id="defs-41f2c9"><g class="clips"><clipPath id="clip41f2c9xyplot" class="plotclip"><rect width="537" height="320"/></clipPath><clipPath class="axesclip" id="clip41f2c9x"><rect x="80" y="0" width="537" height="500"/></clipPath><clipPath class="axesclip" id="clip41f2c9y"><rect x="0" y="100" width="700" height="320"/></clipPath><clipPath class="axesclip" id="clip41f2c9xy"><rect x="80" y="100" width="537" height="320"/></clipPath></g><g class="gradients"/></defs><g class="bglayer"><rect class="bg" x="80" y="100" width="537" height="320" style="fill: rgb(229, 236, 246); fill-opacity: 1; stroke-width: 0;"/></g><g class="layer-below"><g class="imagelayer"/><g class="shapelayer"/></g><g class="cartesianlayer"><g class="subplot xy"><g class="layer-subplot"><g class="shapelayer"/><g class="imagelayer"/></g><g class="gridlayer"><g class="x"><path class="xgrid crisp" transform="translate(92.28,0)" d="M0,100v320" style="stroke: rgb(255, 255, 255); stroke-opacity: 1; stroke-width: 1px;"/><path class="xgrid crisp" transform="translate(224.47,0)" d="M0,100v320" style="stroke: rgb(255, 255, 255); stroke-opacity: 1; stroke-width: 1px;"/><path class="xgrid crisp" transform="translate(356.67,0)" d="M0,100v320" style="stroke: rgb(255, 255, 255); stroke-opacity: 1; stroke-width: 1px;"/><path class="xgrid crisp" transform="translate(488.87,0)" d="M0,100v320" style="stroke: rgb(255, 255, 255); stroke-opacity: 1; stroke-width: 1px;"/></g><g class="y"><path class="ygrid crisp" transform="translate(0,367.23)" d="M80,0h537" style="stroke: rgb(255, 255, 255); stroke-opacity: 1; stroke-width: 1px;"/><path class="ygrid crisp" transform="translate(0,308.43)" d="M80,0h537" style="stroke: rgb(255, 255, 255); stroke-opacity: 1; stroke-width: 1px;"/><path class="ygrid crisp" transform="translate(0,249.63)" d="M80,0h537" style="stroke: rgb(255, 255, 255); stroke-opacity: 1; stroke-width: 1px;"/><path class="ygrid crisp" transform="translate(0,190.82999999999998)" d="M80,0h537" style="stroke: rgb(255, 255, 255); stroke-opacity: 1; stroke-width: 1px;"/><path class="ygrid crisp" transform="translate(0,132.03)" d="M80,0h537" style="stroke: rgb(255, 255, 255); stroke-opacity: 1; stroke-width: 1px;"/></g></g><g class="zerolinelayer"/><path class="xlines-below"/><path class="ylines-below"/><g class="overlines-below"/><g class="xaxislayer-below"/><g class="yaxislayer-below"/><g class="overaxes-below"/><g class="plot" transform="translate(80,100)" clip-path="url('#clip41f2c9xyplot')"><g class="scatterlayer mlayer"><g class="trace scatter trace5ee040" style="stroke-miterlimit: 2; opacity: 1;"><g class="fills"/><g class="errorbars"/><g class="lines"><path class="js-line" d="M0,82.28L7.75,82.51L10.5,120.48L15.98,120.57L18.01,136.92L18.87,136.9L39.15,137.96L40.41,121.23L40.79,129.62L41.71,129.56L43.55,126.37L44.47,126.27L46.3,129.79L47.22,129.7L49.05,132.71L49.97,132.63L51.81,120.69L52.73,120.62L54.56,132.64L55.48,132.55L57.32,126.68L58.23,123.32L60.07,113.21L60.99,109.51L62.82,94.58L63.74,92.89L65.58,74.17L66.5,72.87L68.33,78.78L69.25,77.73L71.09,63.68L72,62.82L73.84,65.47L74.76,64.83L76.59,74.27L77.51,73.83L78.72,51.83L79.35,52.53L80.27,52.34L89.45,51.79L90.37,51.79L104.13,50.91L105.05,50.65L137.18,42.03L138.1,41.83L143.61,40.95L144.53,41.79L161.05,41.46L161.97,41.46L176.66,40.58L177.58,40.48L206.96,37.08L207.87,36.99L209.71,36.83L210.63,35.53L246.43,34L247.35,33.87L275.81,31.05L276.73,28.56L307.95,27.81L308.87,95.38L318.99,93.57L319.88,93.44L320.8,93.12L321.72,91.51L324.47,88.51L325.39,87.52L329.06,74.89L329.98,73.59L333.65,69.79L334.57,69.11L340.08,66.07L341,65.71L345.59,65.01L346.51,64.93L371.29,63.48L372.21,63.27L377.72,61.32L378.64,60.89L379.55,60.46L380.47,62.78L384.14,61.15L385.06,59.94L389.65,54.01L390.57,53.24L394.24,49.13L395.16,47.98L398.83,39.84L399.75,38.66L405.26,33.5L406.18,32.89L409.85,31.98L410.77,31.8L418.11,31.18L419.03,31.16L432.8,30.17L433.72,29.9L439.23,28.09L440.15,74.81L441.98,73.22L442.9,72.76L452.08,69.16L453,68.8L453.7,71.93L453.92,68.39L454.79,68.25L454.84,69.25L455.71,67.95L455.76,68.94L456.67,68.62L458.51,68.09L459.43,76.43L467.46,73.91L467.5,72.31L467.55,72.03L467.69,73.74L476.41,44.74L476.87,44.87L477.33,41.95L478.25,42.12L478.7,43.2L480.08,37.43L480.54,41.6L481.92,39.66L482.38,39.05L483.75,38.13L484.21,38.96L485.13,38.53L485.59,38.42L486.97,38.4L487.43,43.02L492.48,41.69L492.93,36.5L493.85,35.76L494.31,35.39L495.69,33.79L496.15,33.41L499.82,22.43L500.28,16L500.74,16.8L501.2,140.18L501.66,139.22L502.11,142.07L503.03,136.79L503.49,138.99L504.41,136.15L504.87,136.63L505.33,141.25L505.79,146.68L506.25,133.42L507.16,138.09L507.62,157.2L509,133.53L509.46,145.44L509.92,148.42L510.38,146.68L510.84,144.02L511.75,134.36L512.21,135.71L513.13,146.05L513.59,142.1L514.05,141.74L514.51,151.77L515.42,140.84L515.88,148.68L516.8,127.07L517.26,137.58L518.18,140.49L518.64,138.92L519.56,130.34L520.02,131.67L520.47,129.31L520.93,138.25L521.39,134.05L521.85,138.68L522.31,138.81L522.77,131.49L523.23,131.42L523.69,140.05L524.61,132.48L525.07,138.41L525.98,141.46L526.44,128.79L527.36,142.96L527.82,264.58L528.74,292.55L529.2,293.12L529.66,304L530.12,286.22L530.58,301.52L531.03,291.75L531.49,292.1L531.95,291.07L532.41,294.16L532.87,293.46L533.33,276.02L533.79,283.67L534.25,262.28L535.16,272.54L535.62,248.89L536.54,241.71L537,229.6" style="vector-effect: non-scaling-stroke; fill: none; stroke: rgb(99, 110, 250); stroke-opacity: 1; stroke-width: 2px; opacity: 1;"/></g><g class="points"/><g class="text"/></g></g></g><g class="overplot"/><path class="xlines-above crisp" d="M0,0" style="fill: none;"/><path class="ylines-above crisp" d="M0,0" style="fill: none;"/><g class="overlines-above"/><g class="xaxislayer-above"><g class="xtick"><text text-anchor="middle" x="0" y="433" transform="translate(92.28,0)" style="font-family: 'Open Sans', verdana, arial, sans-serif; font-size: 12px; fill: rgb(42, 63, 95); fill-opacity: 1; white-space: pre;"><tspan class="line" dy="0em" x="0" y="433">Jun 4</tspan><tspan class="line" dy="1.3em" x="0" y="433">2021</tspan></text></g><g class="xtick"><text text-anchor="middle" x="0" y="433" transform="translate(224.47,0)" style="font-family: 'Open Sans', verdana, arial, sans-serif; font-size: 12px; fill: rgb(42, 63, 95); fill-opacity: 1; white-space: pre;">Jun 6</text></g><g class="xtick"><text text-anchor="middle" x="0" y="433" transform="translate(356.67,0)" style="font-family: 'Open Sans', verdana, arial, sans-serif; font-size: 12px; fill: rgb(42, 63, 95); fill-opacity: 1; white-space: pre;">Jun 8</text></g><g class="xtick"><text text-anchor="middle" x="0" y="433" transform="translate(488.87,0)" style="font-family: 'Open Sans', verdana, arial, sans-serif; font-size: 12px; fill: rgb(42, 63, 95); fill-opacity: 1; white-space: pre;">Jun 10</text></g></g><g class="yaxislayer-above"><g class="ytick"><text text-anchor="end" x="79" y="4.199999999999999" transform="translate(0,367.23)" style="font-family: 'Open Sans', verdana, arial, sans-serif; font-size: 12px; fill: rgb(42, 63, 95); fill-opacity: 1; white-space: pre;">0.8</text></g><g class="ytick"><text text-anchor="end" x="79" y="4.199999999999999" transform="translate(0,308.43)" style="font-family: 'Open Sans', verdana, arial, sans-serif; font-size: 12px; fill: rgb(42, 63, 95); fill-opacity: 1; white-space: pre;">0.82</text></g><g class="ytick"><text text-anchor="end" x="79" y="4.199999999999999" transform="translate(0,249.63)" style="font-family: 'Open Sans', verdana, arial, sans-serif; font-size: 12px; fill: rgb(42, 63, 95); fill-opacity: 1; white-space: pre;">0.84</text></g><g class="ytick"><text text-anchor="end" x="79" y="4.199999999999999" transform="translate(0,190.82999999999998)" style="font-family: 'Open Sans', verdana, arial, sans-serif; font-size: 12px; fill: rgb(42, 63, 95); fill-opacity: 1; white-space: pre;">0.86</text></g><g class="ytick"><text text-anchor="end" x="79" y="4.199999999999999" transform="translate(0,132.03)" style="font-family: 'Open Sans', verdana, arial, sans-serif; font-size: 12px; fill: rgb(42, 63, 95); fill-opacity: 1; white-space: pre;">0.88</text></g></g><g class="overaxes-above"/></g></g><g class="polarlayer"/><g class="ternarylayer"/><g class="geolayer"/><g class="funnelarealayer"/><g class="pielayer"/><g class="treemaplayer"/><g class="sunburstlayer"/><g class="glimages"/><defs id="topdefs-41f2c9"><g class="clips"/><clipPath id="legend41f2c9"><rect width="60" height="45" x="0" y="0"/></clipPath></defs><g class="layer-above"><g class="imagelayer"/><g class="shapelayer"/></g><g class="infolayer"><g class="legend" pointer-events="all" transform="translate(627.74,100)"><rect class="bg" shape-rendering="crispEdges" width="60" height="45" x="0" y="0" style="stroke: rgb(68, 68, 68); stroke-opacity: 1; fill: rgb(255, 255, 255); fill-opacity: 1; stroke-width: 0px;"/><g class="scrollbox" transform="" clip-path="url('#legend41f2c9')"><text class="legendtitletext" text-anchor="start" x="2" y="15.600000000000001" style="font-family: 'Open Sans', verdana, arial, sans-serif; font-size: 12px; fill: rgb(42, 63, 95); fill-opacity: 1; white-space: pre;">All</text><g class="groups" transform=""><g class="traces" transform="translate(0,30.1)" style="opacity: 1;"><text class="legendtext" text-anchor="start" x="40" y="4.680000000000001" style="font-family: 'Open Sans', verdana, arial, sans-serif; font-size: 12px; fill: rgb(42, 63, 95); fill-opacity: 1; white-space: pre;">All</text><g class="layers" style="opacity: 1;"><g class="legendfill"/><g class="legendlines"><path class="js-line" d="M5,0h30" style="fill: none; stroke: rgb(99, 110, 250); stroke-opacity: 1; stroke-width: 2px;"/></g><g class="legendsymbols"><g class="legendpoints"/></g></g><rect class="legendtoggle" x="0" y="-9.5" width="54.890625" height="19" style="fill: rgb(0, 0, 0); fill-opacity: 0;"/></g></g></g><rect class="scrollbar" rx="20" ry="3" width="0" height="0" x="0" y="0" style="fill: rgb(128, 139, 164); fill-opacity: 1;"/></g><g class="g-gtitle"><text class="gtitle" x="35" y="50" text-anchor="start" dy="0em" style="font-family: 'Open Sans', verdana, arial, sans-serif; font-size: 17px; fill: rgb(42, 63, 95); opacity: 1; font-weight: normal; white-space: pre;">Singapore Vaccination Centers</text></g><g class="g-xtitle"><text class="xtitle" x="348.5" y="476.409375" text-anchor="middle" style="font-family: 'Open Sans', verdana, arial, sans-serif; font-size: 14px; fill: rgb(42, 63, 95); opacity: 1; font-weight: normal; white-space: pre;">Time</text></g><g class="g-ytitle"><text class="ytitle" transform="rotate(-90,27.481250000000003,260)" x="27.481250000000003" y="260" text-anchor="middle" style="font-family: 'Open Sans', verdana, arial, sans-serif; font-size: 14px; fill: rgb(42, 63, 95); opacity: 1; font-weight: normal; white-space: pre;">Filled/%</text></g></g></svg>