<svg class="main-svg" xmlns="http://www.w3.org/2000/svg" xmlns:xlink="http://www.w3.org/1999/xlink" width="700" height="500" style="" viewBox="0 0 700 500"><rect x="0" y="0" width="700" height="500" style="fill: rgb(255, 255, 255); fill-opacity: 1;"/><defs id="defs-aff83a"><g class="clips"><clipPath id="clipaff83axyplot" class="plotclip"><rect width="537" height="320"/></clipPath><clipPath class="axesclip" id="clipaff83ax"><rect x="80" y="0" width="537" height="500"/></clipPath><clipPath class="axesclip" id="clipaff83ay"><rect x="0" y="100" width="700" height="320"/></clipPath><clipPath class="axesclip" id="clipaff83axy"><rect x="80" y="100" width="537" height="320"/></clipPath></g><g class="gradients"/></defs><g class="bglayer"><rect class="bg" x="80" y="100" width="537" height="320" style="fill: rgb(229, 236, 246); fill-opacity: 1; stroke-width: 0;"/></g><g class="layer-below"><g class="imagelayer"/><g class="shapelayer"/></g><g class="cartesianlayer"><g class="subplot xy"><g class="layer-subplot"><g class="shapelayer"/><g class="imagelayer"/></g><g class="gridlayer"><g class="x"><path class="xgrid crisp" transform="translate(91.64,0)" d="M0,100v320" style="stroke: rgb(255, 255, 255); stroke-opacity: 1; stroke-width: 1px;"/><path class="xgrid crisp" transform="translate(216.98,0)" d="M0,100v320" style="stroke: rgb(255, 255, 255); stroke-opacity: 1; stroke-width: 1px;"/><path class="xgrid crisp" transform="translate(342.32,0)" d="M0,100v320" style="stroke: rgb(255, 255, 255); stroke-opacity: 1; stroke-width: 1px;"/><path class="xgrid crisp" transform="translate(467.67,0)" d="M0,100v320" style="stroke: rgb(255, 255, 255); stroke-opacity: 1; stroke-width: 1px;"/><path class="xgrid crisp" transform="translate(593.01,0)" d="M0,100v320" style="stroke: rgb(255, 255, 255); stroke-opacity: 1; stroke-width: 1px;"/></g><g class="y"><path class="ygrid crisp" transform="translate(0,367.23)" d="M80,0h537" style="stroke: rgb(255, 255, 255); stroke-opacity: 1; stroke-width: 1px;"/><path class="ygrid crisp" transform="translate(0,308.43)" d="M80,0h537" style="stroke: rgb(255, 255, 255); stroke-opacity: 1; stroke-width: 1px;"/><path class="ygrid crisp" transform="translate(0,249.63)" d="M80,0h537" style="stroke: rgb(255, 255, 255); stroke-opacity: 1; stroke-width: 1px;"/><path class="ygrid crisp" transform="translate(0,190.82999999999998)" d="M80,0h537" style="stroke: rgb(255, 255, 255); stroke-opacity: 1; stroke-width: 1px;"/><path class="ygrid crisp" transform="translate(0,132.03)" d="M80,0h537" style="stroke: rgb(255, 255, 255); stroke-opacity: 1; stroke-width: 1px;"/></g></g><g class="zerolinelayer"/><path class="xlines-below"/><path class="ylines-below"/><g class="overlines-below"/><g class="xaxislayer-below"/><g class="yaxislayer-below"/><g class="overaxes-below"/><g class="plot" transform="translate(80,100)" clip-path="url('#clipaff83axyplot')"><g class="scatterlayer mlayer"><g class="trace scatter trace6373b4" style="stroke-miterlimit: 2; opacity: 1;"><g class="fills"/><g class="errorbars"/><g class="lines"><path class="js-line" d="M0,82.28L7.35,82.51L9.96,120.48L15.15,120.57L17.08,136.92L17.89,136.9L37.11,137.96L38.31,121.23L38.68,129.62L39.55,129.56L41.29,126.37L42.16,126.27L43.9,129.79L44.77,129.7L46.51,132.71L47.38,132.63L49.12,120.69L49.99,120.62L51.73,132.64L52.6,132.55L54.34,126.68L55.21,123.32L56.96,113.21L57.83,109.51L59.57,94.58L60.44,92.89L62.18,74.17L63.05,72.87L64.79,78.78L65.66,77.73L67.4,63.68L68.27,62.82L70.01,65.47L70.88,64.83L72.62,74.27L73.49,73.83L74.64,51.83L75.23,52.53L76.1,52.34L84.81,51.79L85.68,51.79L98.73,50.91L99.6,50.65L130.07,42.03L130.94,41.83L136.16,40.95L137.04,41.79L151.83,41.47L152.7,41.46L165.76,40.8L166.63,40.69L198.83,36.83L199.7,35.53L233.65,34L234.52,33.87L261.51,31.05L262.38,28.56L291.97,27.81L292.85,95.38L302.45,93.57L303.29,93.44L304.16,93.12L305.03,91.51L307.64,88.51L308.51,87.52L312,74.89L312.87,73.59L316.35,69.79L317.22,69.11L322.44,66.07L323.31,65.71L327.66,65.01L328.53,64.93L352.03,63.48L352.9,63.27L358.13,61.32L359,60.89L359.87,60.46L360.74,62.78L364.22,61.15L365.09,59.94L369.44,54.01L370.31,53.24L373.79,49.13L374.67,47.98L378.15,39.84L379.02,38.66L384.24,33.5L385.11,32.89L388.59,31.98L389.46,31.8L396.43,31.18L397.3,31.16L410.35,30.17L411.22,29.9L416.45,28.09L417.32,74.81L419.06,73.22L419.93,72.76L428.63,69.16L429.5,68.8L430.17,71.93L430.38,68.39L431.2,68.25L431.25,69.25L432.07,67.95L432.12,68.94L432.99,68.62L434.73,68.09L435.6,76.43L443.22,73.91L443.25,72.31L443.3,72.03L443.43,73.74L451.7,44.74L452.13,44.87L452.57,41.95L453.44,42.12L453.88,43.2L455.18,37.43L455.62,41.6L456.92,39.66L457.36,39.05L458.66,38.13L459.1,38.96L459.97,38.53L460.41,38.42L461.71,38.4L462.15,43.02L466.93,41.69L467.37,36.5L468.24,35.76L468.67,35.39L469.98,33.79L470.41,33.41L473.9,22.43L474.33,16L474.76,16.8L475.2,140.18L475.64,139.22L476.07,142.07L476.94,136.79L477.38,138.99L478.25,136.15L478.69,136.63L479.12,141.25L479.55,146.68L479.99,133.42L480.86,138.09L481.29,157.2L482.6,133.53L483.03,145.44L483.47,148.42L483.9,146.68L484.34,144.02L485.21,134.36L485.65,135.71L486.51,146.05L486.95,142.1L487.39,141.74L487.82,151.77L488.69,140.84L489.13,148.68L490,127.07L490.43,137.58L491.31,140.49L491.74,138.92L492.61,130.34L493.04,131.67L493.48,129.31L493.91,138.25L494.35,134.05L494.78,138.68L495.22,138.81L495.66,131.49L496.09,131.42L496.53,140.05L497.4,132.48L497.83,138.41L498.7,141.46L499.14,128.79L500.01,142.96L500.45,264.58L501.32,292.55L501.75,293.12L502.19,304L502.63,286.22L503.06,301.52L503.49,291.75L503.93,292.1L504.36,291.07L504.8,294.16L505.23,293.46L505.67,276.02L506.1,283.67L506.54,262.28L507.41,272.54L507.84,248.89L508.71,241.71L509.15,229.6L509.58,224.98L510.02,228.24L510.46,227.36L511.76,215.22L512.2,217.06L512.63,216.4L513.06,227.08L513.5,226.08L513.94,228.38L514.37,228.68L514.81,224.72L515.24,233.57L515.68,224.28L516.55,227.75L516.98,223.07L517.85,226.33L518.29,223.26L518.72,224.52L519.16,234.01L519.59,220.81L520.03,231.91L521.34,220.15L521.77,220.86L523.08,212.72L523.51,220.76L524.38,220.72L524.82,223.7L525.25,223.67L525.69,219.37L526.12,223.08L526.56,218.62L526.99,226.76L527.43,225.2L527.86,224.19L528.3,219.51L528.73,225.16L530.04,225.11L530.47,216.49L530.91,225.05L531.35,220.43L531.78,220.57L532.21,218.19L532.65,220.92L533.09,219.84L533.52,227.36L533.95,216.65L534.39,220.1L534.83,220.01L535.7,220.98L536.13,218.78L537,223.64" style="vector-effect: non-scaling-stroke; fill: none; stroke: rgb(99, 110, 250); stroke-opacity: 1; stroke-width: 2px; opacity: 1;"/></g><g class="points"/><g class="text"/></g></g></g><g class="overplot"/><path class="xlines-above crisp" d="M0,0" style="fill: none;"/><path class="ylines-above crisp" d="M0,0" style="fill: none;"/><g class="overlines-above"/><g class="xaxislayer-above"><g class="xtick"><text text-anchor="middle" x="0" y="433" transform="translate(91.64,0)" style="font-family: 'Open Sans', verdana, arial, sans-serif; font-size: 12px; fill: rgb(42, 63, 95); fill-opacity: 1; white-space: pre;"><tspan class="line" dy="0em" x="0" y="433">Jun 4</tspan><tspan class="line" dy="1.3em" x="0" y="433">2021</tspan></text></g><g class="xtick"><text text-anchor="middle" x="0" y="433" transform="translate(216.98,0)" style="font-family: 'Open Sans', verdana, arial, sans-serif; font-size: 12px; fill: rgb(42, 63, 95); fill-opacity: 1; white-space: pre;">Jun 6</text></g><g class="xtick"><text text-anchor="middle" x="0" y="433" transform="translate(342.32,0)" style="font-family: 'Open Sans', verdana, arial, sans-serif; font-size: 12px; fill: rgb(42, 63, 95); fill-opacity: 1; white-space: pre;">Jun 8</text></g><g class="xtick"><text text-anchor="middle" x="0" y="433" transform="translate(467.67,0)" style="font-family: 'Open Sans', verdana, arial, sans-serif; font-size: 12px; fill: rgb(42, 63, 95); fill-opacity: 1; white-space: pre;">Jun 10</text></g><g class="xtick"><text text-anchor="middle" x="0" y="433" transform="translate(593.01,0)" style="font-family: 'Open Sans', verdana, arial, sans-serif; font-size: 12px; fill: rgb(42, 63, 95); fill-opacity: 1; white-space: pre;">Jun 12</text></g></g><g class="yaxislayer-above"><g class="ytick"><text text-anchor="end" x="79" y="4.199999999999999" transform="translate(0,367.23)" style="font-family: 'Open Sans', verdana, arial, sans-serif; font-size: 12px; fill: rgb(42, 63, 95); fill-opacity: 1; white-space: pre;">0.8</text></g><g class="ytick"><text text-anchor="end" x="79" y="4.199999999999999" transform="translate(0,308.43)" style="font-family: 'Open Sans', verdana, arial, sans-serif; font-size: 12px; fill: rgb(42, 63, 95); fill-opacity: 1; white-space: pre;">0.82</text></g><g class="ytick"><text text-anchor="end" x="79" y="4.199999999999999" transform="translate(0,249.63)" style="font-family: 'Open Sans', verdana, arial, sans-serif; font-size: 12px; fill: rgb(42, 63, 95); fill-opacity: 1; white-space: pre;">0.84</text></g><g class="ytick"><text text-anchor="end" x="79" y="4.199999999999999" transform="translate(0,190.82999999999998)" style="font-family: 'Open Sans', verdana, arial, sans-serif; font-size: 12px; fill: rgb(42, 63, 95); fill-opacity: 1; white-space: pre;">0.86</text></g><g class="ytick"><text text-anchor="end" x="79" y="4.199999999999999" transform="translate(0,132.03)" style="font-family: 'Open Sans', verdana, arial, sans-serif; font-size: 12px; fill: rgb(42, 63, 95); fill-opacity: 1; white-space: pre;">0.88</text></g></g><g class="overaxes-above"/></g></g><g class="polarlayer"/><g class="ternarylayer"/><g class="geolayer"/><g class="funnelarealayer"/><g class="pielayer"/><g class="treemaplayer"/><g class="sunburstlayer"/><g class="glimages"/><defs id="topdefs-aff83a"><g class="clips"/><clipPath id="legendaff83a"><rect width="60" height="45" x="0" y="0"/></clipPath></defs><g class="layer-above"><g class="imagelayer"/><g class="shapelayer"/></g><g class="infolayer"><g class="legend" pointer-events="all" transform="translate(627.74,100)"><rect class="bg" shape-rendering="crispEdges" width="60" height="45" x="0" y="0" style="stroke: rgb(68, 68, 68); stroke-opacity: 1; fill: rgb(255, 255, 255); fill-opacity: 1; stroke-width: 0px;"/><g class="scrollbox" transform="" clip-path="url('#legendaff83a')"><text class="legendtitletext" text-anchor="start" x="2" y="15.600000000000001" style="font-family: 'Open Sans', verdana, arial, sans-serif; font-size: 12px; fill: rgb(42, 63, 95); fill-opacity: 1; white-space: pre;">All</text><g class="groups" transform=""><g class="traces" transform="translate(0,30.1)" style="opacity: 1;"><text class="legendtext" text-anchor="start" x="40" y="4.680000000000001" style="font-family: 'Open Sans', verdana, arial, sans-serif; font-size: 12px; fill: rgb(42, 63, 95); fill-opacity: 1; white-space: pre;">All</text><g class="layers" style="opacity: 1;"><g class="legendfill"/><g class="legendlines"><path class="js-line" d="M5,0h30" style="fill: none; stroke: rgb(99, 110, 250); stroke-opacity: 1; stroke-width: 2px;"/></g><g class="legendsymbols"><g class="legendpoints"/></g></g><rect class="legendtoggle" x="0" y="-9.5" width="54.890625" height="19" style="fill: rgb(0, 0, 0); fill-opacity: 0;"/></g></g></g><rect class="scrollbar" rx="20" ry="3" width="0" height="0" x="0" y="0" style="fill: rgb(128, 139, 164); fill-opacity: 1;"/></g><g class="g-gtitle"><text class="gtitle" x="35" y="50" text-anchor="start" dy="0em" style="font-family: 'Open Sans', verdana, arial, sans-serif; font-size: 17px; fill: rgb(42, 63, 95); opacity: 1; font-weight: normal; white-space: pre;">Singapore Vaccination Centers</text></g><g class="g-xtitle"><text class="xtitle" x="348.5" y="476.409375" text-anchor="middle" style="font-family: 'Open Sans', verdana, arial, sans-serif; font-size: 14px; fill: rgb(42, 63, 95); opacity: 1; font-weight: normal; white-space: pre;">Time</text></g><g class="g-ytitle"><text class="ytitle" transform="rotate(-90,27.481250000000003,260)" x="27.481250000000003" y="260" text-anchor="middle" style="font-family: 'Open Sans', verdana, arial, sans-serif; font-size: 14px; fill: rgb(42, 63, 95); opacity: 1; font-weight: normal; white-space: pre;">Filled/%</text></g></g></svg>