<svg class="main-svg" xmlns="http://www.w3.org/2000/svg" xmlns:xlink="http://www.w3.org/1999/xlink" width="700" height="500" style="" viewBox="0 0 700 500"><rect x="0" y="0" width="700" height="500" style="fill: rgb(255, 255, 255); fill-opacity: 1;"/><defs id="defs-ff8b53"><g class="clips"><clipPath id="clipff8b53xyplot" class="plotclip"><rect width="537" height="320"/></clipPath><clipPath class="axesclip" id="clipff8b53x"><rect x="80" y="0" width="537" height="500"/></clipPath><clipPath class="axesclip" id="clipff8b53y"><rect x="0" y="100" width="700" height="320"/></clipPath><clipPath class="axesclip" id="clipff8b53xy"><rect x="80" y="100" width="537" height="320"/></clipPath></g><g class="gradients"/></defs><g class="bglayer"><rect class="bg" x="80" y="100" width="537" height="320" style="fill: rgb(229, 236, 246); fill-opacity: 1; stroke-width: 0;"/></g><g class="layer-below"><g class="imagelayer"/><g class="shapelayer"/></g><g class="cartesianlayer"><g class="subplot xy"><g class="layer-subplot"><g class="shapelayer"/><g class="imagelayer"/></g><g class="gridlayer"><g class="x"><path class="xgrid crisp" transform="translate(89.83,0)" d="M0,100v320" style="stroke: rgb(255, 255, 255); stroke-opacity: 1; stroke-width: 1px;"/><path class="xgrid crisp" transform="translate(195.7,0)" d="M0,100v320" style="stroke: rgb(255, 255, 255); stroke-opacity: 1; stroke-width: 1px;"/><path class="xgrid crisp" transform="translate(301.56,0)" d="M0,100v320" style="stroke: rgb(255, 255, 255); stroke-opacity: 1; stroke-width: 1px;"/><path class="xgrid crisp" transform="translate(407.43,0)" d="M0,100v320" style="stroke: rgb(255, 255, 255); stroke-opacity: 1; stroke-width: 1px;"/><path class="xgrid crisp" transform="translate(513.29,0)" d="M0,100v320" style="stroke: rgb(255, 255, 255); stroke-opacity: 1; stroke-width: 1px;"/></g><g class="y"><path class="ygrid crisp" transform="translate(0,367.23)" d="M80,0h537" style="stroke: rgb(255, 255, 255); stroke-opacity: 1; stroke-width: 1px;"/><path class="ygrid crisp" transform="translate(0,308.43)" d="M80,0h537" style="stroke: rgb(255, 255, 255); stroke-opacity: 1; stroke-width: 1px;"/><path class="ygrid crisp" transform="translate(0,249.63)" d="M80,0h537" style="stroke: rgb(255, 255, 255); stroke-opacity: 1; stroke-width: 1px;"/><path class="ygrid crisp" transform="translate(0,190.82999999999998)" d="M80,0h537" style="stroke: rgb(255, 255, 255); stroke-opacity: 1; stroke-width: 1px;"/><path class="ygrid crisp" transform="translate(0,132.03)" d="M80,0h537" style="stroke: rgb(255, 255, 255); stroke-opacity: 1; stroke-width: 1px;"/></g></g><g class="zerolinelayer"/><path class="xlines-below"/><path class="ylines-below"/><g class="overlines-below"/><g class="xaxislayer-below"/><g class="yaxislayer-below"/><g class="overaxes-below"/><g class="plot" transform="translate(80,100)" clip-path="url('#clipff8b53xyplot')"><g class="scatterlayer mlayer"><g class="trace scatter trace8d484c" style="stroke-miterlimit: 2; opacity: 1;"><g class="fills"/><g class="errorbars"/><g class="lines"><path class="js-line" d="M0,82.28L6.21,82.51L8.41,120.48L12.8,120.57L14.42,136.92L15.11,136.9L31.35,137.96L32.36,121.23L32.67,129.62L33.4,129.56L34.87,126.37L35.61,126.27L37.08,129.79L37.81,129.7L39.28,132.71L40.02,132.63L41.49,120.69L42.22,120.62L43.69,132.64L44.43,132.55L45.9,126.68L48.11,113.21L48.84,109.51L52.51,74.17L53.25,72.87L54.72,78.78L55.46,77.73L57.66,62.82L59.13,65.47L59.86,64.83L61.34,74.27L62.07,73.83L63.04,51.83L64.28,52.34L65.01,52.21L73.83,51.77L74.57,51.77L83.39,50.91L84.12,50.65L109.86,42.03L110.59,41.83L115.01,40.95L115.74,41.79L128.24,41.47L128.97,41.46L140,40.8L140.73,40.69L167.94,36.83L168.67,35.53L197.34,34L198.08,33.87L220.87,31.05L221.61,28.56L246.6,27.81L247.34,95.38L255.45,93.57L256.16,93.44L256.9,93.12L257.63,91.51L259.84,88.51L260.57,87.52L264.25,73.59L264.98,72.39L269.39,67.88L270.13,67.37L273.81,65.43L274.54,65.5L279.69,64.8L280.43,64.77L296.6,63.66L297.33,63.48L302.48,61.32L303.21,60.89L303.95,60.46L304.68,62.78L307.62,61.15L308.36,59.94L312.77,53.24L313.51,52.44L316.45,47.98L317.18,45.51L320.12,38.66L320.86,37.65L324.53,33.5L325.27,32.89L328.21,31.98L328.94,31.8L334.82,31.18L335.56,31.16L346.59,30.17L347.32,29.9L351.73,28.09L352.47,74.81L354.67,72.76L355.41,72.32L362.76,68.8L363.33,71.93L364.2,68.25L364.23,69.25L364.93,67.95L364.97,68.94L365.7,68.62L367.17,68.09L367.91,76.43L374.35,73.91L374.37,72.31L374.41,72.03L374.53,73.74L381.51,44.74L381.88,44.87L382.25,41.95L382.98,42.12L383.35,43.2L384.45,37.43L384.82,41.6L385.92,39.66L386.29,39.05L387.39,38.13L387.76,38.96L388.86,38.42L389.23,38.33L389.97,38.4L390.33,43.02L394.38,41.69L394.74,36.5L395.48,35.76L395.84,35.39L397.68,31.97L398.05,32.01L398.42,30.79L398.79,26.97L399.89,25.01L400.26,22.43L400.62,16L400.99,16.8L401.36,140.18L401.73,139.22L402.09,142.07L402.83,136.79L403.2,138.99L403.56,137.43L403.93,136.15L404.3,136.63L404.67,141.25L405.03,146.68L405.4,133.42L406.14,138.09L406.5,157.2L407.61,133.53L407.97,145.44L408.34,148.42L408.71,146.68L409.08,144.02L409.81,134.36L410.18,135.71L410.55,141.84L410.91,146.05L411.28,142.1L411.65,141.74L412.02,151.77L412.38,141.68L412.75,140.84L413.12,148.68L413.49,138.39L413.86,127.07L414.22,137.58L414.59,139.13L414.96,140.49L415.33,138.92L416.8,129.31L417.16,138.25L417.53,134.05L417.9,138.68L418.27,138.81L418.63,131.49L419,131.42L419.37,140.05L420.1,132.48L420.47,138.41L421.21,141.46L421.58,128.79L422.31,142.96L422.68,264.58L423.78,293.12L424.15,304L424.52,286.22L424.89,301.52L425.25,291.75L425.62,292.1L425.99,291.07L426.36,294.16L426.72,293.46L427.09,276.02L427.46,283.67L427.83,262.28L428.56,272.54L428.93,248.89L429.66,241.71L430.03,229.6L430.4,224.98L430.77,228.24L431.13,227.36L432.24,215.22L432.6,217.06L432.97,216.4L433.34,227.08L433.71,226.08L434.07,228.38L434.44,228.68L434.81,224.72L435.18,233.57L435.54,224.28L435.91,225.36L436.28,227.75L436.65,223.07L437.38,226.33L437.75,223.26L438.12,224.52L438.49,234.01L438.85,220.81L439.22,231.91L439.59,224.2L441.8,212.72L442.16,220.76L442.9,220.72L443.26,223.7L443.63,223.67L444,219.37L444.37,223.08L444.73,218.62L445.1,226.76L445.47,225.2L445.84,224.19L446.21,219.51L446.57,225.16L447.67,225.11L448.04,216.49L448.41,225.05L448.78,220.43L449.14,220.57L449.51,218.19L449.88,220.92L450.25,219.84L450.61,227.36L450.98,216.65L451.35,220.1L451.72,220.01L452.45,220.98L452.82,218.78L453.55,223.64L453.92,218.66L454.29,205.85L454.66,215.25L455.03,220.32L455.39,206.18L455.76,206.81L456.13,214.16L456.5,214.11L456.86,206.99L457.6,212.47L457.97,202.23L458.34,199.24L458.71,208.71L459.07,224.84L459.44,215.2L459.8,214.49L460.17,205.74L460.54,219.6L461.28,195.82L461.64,209.77L462.01,208.24L462.38,203.32L462.74,202.05L463.11,205.17L463.48,200.81L463.85,208.16L464.21,206.35L464.58,209.96L464.95,207.44L465.32,196.45L465.68,195.36L466.05,196.45L466.42,201.41L467.52,210.92L467.89,197.09L468.26,197.31L468.63,191.05L468.99,191.24L469.36,196.07L469.73,200.65L470.1,194.37L471.2,210.5L471.57,204.27L472.3,191.94L472.67,193.62L473.04,197L473.41,205.03L473.77,197.14L474.14,198.57L475.61,184.28L475.98,189.51L476.71,194.59L477.08,189.23L477.45,191.91L477.82,189.81L478.18,182.31L478.55,187.7L478.92,187L479.29,183.28L479.65,186.18L480.02,185.69L480.4,181.61L480.76,182.61L481.13,186.54L481.86,187.68L482.23,186.58L482.6,181.49L482.96,187.81L483.7,185.81L484.07,187.22L484.43,189.17L484.81,187L485.91,194.82L486.28,189.57L486.64,183.36L487.01,189.2L487.38,186.45L488.48,187.85L488.85,183.53L489.95,187.65L490.32,184.59L491.05,184.25L491.42,185.71L492.52,187.29L492.89,197.68L493.26,197.68L493.63,195.53L493.99,195.52L494.36,190.33L494.73,190.33L495.09,186.49L496.57,194.95L496.93,194.95L497.3,195.4L497.67,193.58L498.04,193.58L498.4,187.5L499.14,187.5L499.51,190.84L500.61,186.75L500.98,187.03L501.34,187.03L501.71,188.23L504.65,181.13L505.02,187.27L505.39,190.9L505.75,187.7L506.12,181.79L506.49,180.91L506.86,182.93L507.22,184.81L507.59,179.55L508.33,190.44L508.69,182.8L509.07,183.07L509.43,174.64L510.53,185.09L510.9,181.21L511.27,181.99L511.63,185.79L512,171.39L512.37,177.83L512.74,175.21L513.1,180.5L513.47,179.53L513.84,177.22L515.31,187.84L515.68,182.58L516.04,175.16L516.41,180.33L516.78,178.23L517.52,176.4L517.88,185.95L518.25,175.93L518.62,196.82L519.72,173.22L520.09,177.47L520.46,180.21L520.82,180.03L521.19,179.15L521.93,179.35L522.3,181.21L523.4,177.14L523.77,176.9L524.13,176.97L524.5,172.16L524.87,169.69L525.24,173.52L525.6,176.28L525.97,172.21L526.34,173.97L526.71,171L527.44,180.19L527.81,175.33L528.18,171.32L528.54,174.66L528.91,174.4L529.28,183.64L529.65,176L530.02,180.08L530.38,179.71L530.75,181.54L531.48,173.38L531.85,176.61L532.22,186.68L532.59,171.47L532.95,173.34L533.32,176.71L533.69,180.06L534.06,191.51L534.8,169.64L535.17,179.24L535.53,185.08L535.9,178.84L536.26,180.35L536.63,174.99L537,173.52" style="vector-effect: non-scaling-stroke; fill: none; stroke: rgb(99, 110, 250); stroke-opacity: 1; stroke-width: 2px; opacity: 1;"/></g><g class="points"/><g class="text"/></g></g></g><g class="overplot"/><path class="xlines-above crisp" d="M0,0" style="fill: none;"/><path class="ylines-above crisp" d="M0,0" style="fill: none;"/><g class="overlines-above"/><g class="xaxislayer-above"><g class="xtick"><text text-anchor="middle" x="0" y="433" transform="translate(89.83,0)" style="font-family: 'Open Sans', verdana, arial, sans-serif; font-size: 12px; fill: rgb(42, 63, 95); fill-opacity: 1; white-space: pre;"><tspan class="line" dy="0em" x="0" y="433">Jun 4</tspan><tspan class="line" dy="1.3em" x="0" y="433">2021</tspan></text></g><g class="xtick"><text text-anchor="middle" x="0" y="433" transform="translate(195.7,0)" style="font-family: 'Open Sans', verdana, arial, sans-serif; font-size: 12px; fill: rgb(42, 63, 95); fill-opacity: 1; white-space: pre;">Jun 6</text></g><g class="xtick"><text text-anchor="middle" x="0" y="433" transform="translate(301.56,0)" style="font-family: 'Open Sans', verdana, arial, sans-serif; font-size: 12px; fill: rgb(42, 63, 95); fill-opacity: 1; white-space: pre;">Jun 8</text></g><g class="xtick"><text text-anchor="middle" x="0" y="433" transform="translate(407.43,0)" style="font-family: 'Open Sans', verdana, arial, sans-serif; font-size: 12px; fill: rgb(42, 63, 95); fill-opacity: 1; white-space: pre;">Jun 10</text></g><g class="xtick"><text text-anchor="middle" x="0" y="433" transform="translate(513.29,0)" style="font-family: 'Open Sans', verdana, arial, sans-serif; font-size: 12px; fill: rgb(42, 63, 95); fill-opacity: 1; white-space: pre;">Jun 12</text></g></g><g class="yaxislayer-above"><g class="ytick"><text text-anchor="end" x="79" y="4.199999999999999" transform="translate(0,367.23)" style="font-family: 'Open Sans', verdana, arial, sans-serif; font-size: 12px; fill: rgb(42, 63, 95); fill-opacity: 1; white-space: pre;">0.8</text></g><g class="ytick"><text text-anchor="end" x="79" y="4.199999999999999" transform="translate(0,308.43)" style="font-family: 'Open Sans', verdana, arial, sans-serif; font-size: 12px; fill: rgb(42, 63, 95); fill-opacity: 1; white-space: pre;">0.82</text></g><g class="ytick"><text text-anchor="end" x="79" y="4.199999999999999" transform="translate(0,249.63)" style="font-family: 'Open Sans', verdana, arial, sans-serif; font-size: 12px; fill: rgb(42, 63, 95); fill-opacity: 1; white-space: pre;">0.84</text></g><g class="ytick"><text text-anchor="end" x="79" y="4.199999999999999" transform="translate(0,190.82999999999998)" style="font-family: 'Open Sans', verdana, arial, sans-serif; font-size: 12px; fill: rgb(42, 63, 95); fill-opacity: 1; white-space: pre;">0.86</text></g><g class="ytick"><text text-anchor="end" x="79" y="4.199999999999999" transform="translate(0,132.03)" style="font-family: 'Open Sans', verdana, arial, sans-serif; font-size: 12px; fill: rgb(42, 63, 95); fill-opacity: 1; white-space: pre;">0.88</text></g></g><g class="overaxes-above"/></g></g><g class="polarlayer"/><g class="ternarylayer"/><g class="geolayer"/><g class="funnelarealayer"/><g class="pielayer"/><g class="treemaplayer"/><g class="sunburstlayer"/><g class="glimages"/><defs id="topdefs-ff8b53"><g class="clips"/><clipPath id="legendff8b53"><rect width="60" height="45" x="0" y="0"/></clipPath></defs><g class="layer-above"><g class="imagelayer"/><g class="shapelayer"/></g><g class="infolayer"><g class="legend" pointer-events="all" transform="translate(627.74,100)"><rect class="bg" shape-rendering="crispEdges" width="60" height="45" x="0" y="0" style="stroke: rgb(68, 68, 68); stroke-opacity: 1; fill: rgb(255, 255, 255); fill-opacity: 1; stroke-width: 0px;"/><g class="scrollbox" transform="" clip-path="url('#legendff8b53')"><text class="legendtitletext" text-anchor="start" x="2" y="15.600000000000001" style="font-family: 'Open Sans', verdana, arial, sans-serif; font-size: 12px; fill: rgb(42, 63, 95); fill-opacity: 1; white-space: pre;">All</text><g class="groups" transform=""><g class="traces" transform="translate(0,30.1)" style="opacity: 1;"><text class="legendtext" text-anchor="start" x="40" y="4.680000000000001" style="font-family: 'Open Sans', verdana, arial, sans-serif; font-size: 12px; fill: rgb(42, 63, 95); fill-opacity: 1; white-space: pre;">All</text><g class="layers" style="opacity: 1;"><g class="legendfill"/><g class="legendlines"><path class="js-line" d="M5,0h30" style="fill: none; stroke: rgb(99, 110, 250); stroke-opacity: 1; stroke-width: 2px;"/></g><g class="legendsymbols"><g class="legendpoints"/></g></g><rect class="legendtoggle" x="0" y="-9.5" width="54.890625" height="19" style="fill: rgb(0, 0, 0); fill-opacity: 0;"/></g></g></g><rect class="scrollbar" rx="20" ry="3" width="0" height="0" x="0" y="0" style="fill: rgb(128, 139, 164); fill-opacity: 1;"/></g><g class="g-gtitle"><text class="gtitle" x="35" y="50" text-anchor="start" dy="0em" style="font-family: 'Open Sans', verdana, arial, sans-serif; font-size: 17px; fill: rgb(42, 63, 95); opacity: 1; font-weight: normal; white-space: pre;">Singapore Vaccination Centers</text></g><g class="g-xtitle"><text class="xtitle" x="348.5" y="476.409375" text-anchor="middle" style="font-family: 'Open Sans', verdana, arial, sans-serif; font-size: 14px; fill: rgb(42, 63, 95); opacity: 1; font-weight: normal; white-space: pre;">Time</text></g><g class="g-ytitle"><text class="ytitle" transform="rotate(-90,27.481250000000003,260)" x="27.481250000000003" y="260" text-anchor="middle" style="font-family: 'Open Sans', verdana, arial, sans-serif; font-size: 14px; fill: rgb(42, 63, 95); opacity: 1; font-weight: normal; white-space: pre;">Filled/%</text></g></g></svg>