<svg class="main-svg" xmlns="http://www.w3.org/2000/svg" xmlns:xlink="http://www.w3.org/1999/xlink" width="700" height="500" style="" viewBox="0 0 700 500"><rect x="0" y="0" width="700" height="500" style="fill: rgb(255, 255, 255); fill-opacity: 1;"/><defs id="defs-633ef5"><g class="clips"><clipPath id="clip633ef5xyplot" class="plotclip"><rect width="537" height="320"/></clipPath><clipPath class="axesclip" id="clip633ef5x"><rect x="80" y="0" width="537" height="500"/></clipPath><clipPath class="axesclip" id="clip633ef5y"><rect x="0" y="100" width="700" height="320"/></clipPath><clipPath class="axesclip" id="clip633ef5xy"><rect x="80" y="100" width="537" height="320"/></clipPath></g><g class="gradients"/></defs><g class="bglayer"><rect class="bg" x="80" y="100" width="537" height="320" style="fill: rgb(229, 236, 246); fill-opacity: 1; stroke-width: 0;"/></g><g class="layer-below"><g class="imagelayer"/><g class="shapelayer"/></g><g class="cartesianlayer"><g class="subplot xy"><g class="layer-subplot"><g class="shapelayer"/><g class="imagelayer"/></g><g class="gridlayer"><g class="x"><path class="xgrid crisp" transform="translate(91.17,0)" d="M0,100v320" style="stroke: rgb(255, 255, 255); stroke-opacity: 1; stroke-width: 1px;"/><path class="xgrid crisp" transform="translate(211.44,0)" d="M0,100v320" style="stroke: rgb(255, 255, 255); stroke-opacity: 1; stroke-width: 1px;"/><path class="xgrid crisp" transform="translate(331.72,0)" d="M0,100v320" style="stroke: rgb(255, 255, 255); stroke-opacity: 1; stroke-width: 1px;"/><path class="xgrid crisp" transform="translate(451.99,0)" d="M0,100v320" style="stroke: rgb(255, 255, 255); stroke-opacity: 1; stroke-width: 1px;"/><path class="xgrid crisp" transform="translate(572.26,0)" d="M0,100v320" style="stroke: rgb(255, 255, 255); stroke-opacity: 1; stroke-width: 1px;"/></g><g class="y"><path class="ygrid crisp" transform="translate(0,367.23)" d="M80,0h537" style="stroke: rgb(255, 255, 255); stroke-opacity: 1; stroke-width: 1px;"/><path class="ygrid crisp" transform="translate(0,308.43)" d="M80,0h537" style="stroke: rgb(255, 255, 255); stroke-opacity: 1; stroke-width: 1px;"/><path class="ygrid crisp" transform="translate(0,249.63)" d="M80,0h537" style="stroke: rgb(255, 255, 255); stroke-opacity: 1; stroke-width: 1px;"/><path class="ygrid crisp" transform="translate(0,190.82999999999998)" d="M80,0h537" style="stroke: rgb(255, 255, 255); stroke-opacity: 1; stroke-width: 1px;"/><path class="ygrid crisp" transform="translate(0,132.03)" d="M80,0h537" style="stroke: rgb(255, 255, 255); stroke-opacity: 1; stroke-width: 1px;"/></g></g><g class="zerolinelayer"/><path class="xlines-below"/><path class="ylines-below"/><g class="overlines-below"/><g class="xaxislayer-below"/><g class="yaxislayer-below"/><g class="overaxes-below"/><g class="plot" transform="translate(80,100)" clip-path="url('#clip633ef5xyplot')"><g class="scatterlayer mlayer"><g class="trace scatter tracedcb73d" style="stroke-miterlimit: 2; opacity: 1;"><g class="fills"/><g class="errorbars"/><g class="lines"><path class="js-line" d="M0,82.28L7.05,82.51L9.56,120.48L14.54,120.57L16.39,136.92L17.17,136.9L35.61,137.96L36.76,121.23L37.11,129.62L37.95,129.56L39.62,126.37L40.45,126.27L42.12,129.79L42.96,129.7L44.63,132.71L45.46,132.63L47.13,120.69L47.97,120.62L49.64,132.64L50.48,132.55L52.15,126.68L52.98,123.32L54.65,113.21L55.49,109.51L57.16,94.58L57.99,92.89L59.66,74.17L60.5,72.87L62.17,78.78L63,77.73L64.67,63.68L65.51,62.82L67.18,65.47L68.01,64.83L69.68,74.27L70.52,73.83L71.62,51.83L72.19,52.53L73.02,52.34L81.38,51.79L82.21,51.79L94.74,50.91L95.57,50.65L124.81,42.03L125.64,41.83L130.66,40.95L131.49,41.79L146.53,41.46L147.36,41.46L160.73,40.58L161.56,40.48L187.45,37.17L188.29,37.08L190.79,36.83L191.63,35.53L224.2,34L225.04,33.87L250.93,31.05L251.77,28.56L280.17,27.81L281,95.38L290.22,93.57L291.03,93.44L291.86,93.12L292.69,91.51L295.2,88.51L296.04,87.52L300.21,73.59L301.05,72.39L306.06,67.88L306.89,67.37L311.07,65.43L311.91,65.5L317.75,64.8L318.59,64.77L336.96,63.66L337.8,63.48L343.64,61.32L344.48,60.89L345.31,60.46L346.15,62.78L349.49,61.15L350.33,59.94L354.5,54.01L355.34,53.24L358.68,49.13L359.51,47.98L362.85,39.84L363.69,38.66L368.7,33.5L369.54,32.89L372.88,31.98L373.71,31.8L380.39,31.18L381.23,31.16L393.76,30.17L394.59,29.9L399.6,28.09L400.44,74.81L402.11,73.22L402.95,72.76L411.3,69.16L412.13,68.8L412.78,71.93L412.97,68.39L413.77,68.25L413.81,69.25L414.6,67.95L414.64,68.94L415.47,68.62L417.15,68.09L417.98,76.43L425.29,73.91L425.33,72.31L425.37,72.03L425.5,73.74L433.43,44.74L433.85,44.87L434.27,41.95L435.1,42.12L435.52,43.2L436.77,37.43L437.19,41.6L438.44,39.66L438.86,39.05L440.11,38.13L440.53,38.96L440.95,38.26L441.37,38.53L441.79,38.42L443.04,38.4L443.46,43.02L448.05,41.69L448.47,36.5L449.3,35.76L449.72,35.39L450.97,33.79L451.39,33.41L454.73,22.43L455.15,16L455.56,16.8L455.98,140.18L456.4,139.22L456.82,142.07L457.65,136.79L458.07,138.99L458.91,136.15L459.33,136.63L459.74,141.25L460.16,146.68L460.58,133.42L461.41,138.09L461.83,157.2L463.08,133.53L463.5,145.44L463.92,148.42L464.33,146.68L464.75,144.02L465.59,134.36L466.01,135.71L466.84,146.05L467.26,142.1L467.68,141.74L468.09,151.77L468.93,140.84L469.35,148.68L470.18,127.07L470.6,137.58L471.44,140.49L471.85,138.92L472.69,130.34L473.11,131.67L473.52,129.31L473.94,138.25L474.36,134.05L474.77,138.68L475.19,138.81L475.61,131.49L476.03,131.42L476.45,140.05L477.28,132.48L477.7,138.41L478.54,141.46L478.95,128.79L479.79,142.96L480.21,264.58L481.04,292.55L481.46,293.12L481.88,304L482.3,286.22L482.71,301.52L483.13,291.75L483.55,292.1L483.96,291.07L484.38,294.16L484.8,293.46L485.22,276.02L485.64,283.67L486.05,262.28L486.89,272.54L487.3,248.89L488.14,241.71L488.56,229.6L488.98,224.98L489.39,228.24L489.81,227.36L491.06,215.22L491.48,217.06L491.9,216.4L492.32,227.08L492.73,226.08L493.15,228.38L493.57,228.68L493.99,224.72L494.4,233.57L494.82,224.28L495.66,227.75L496.08,223.07L496.91,226.33L497.33,223.26L497.75,224.52L498.16,234.01L498.58,220.81L499,231.91L500.25,220.15L500.67,220.86L501.92,212.72L502.34,220.76L503.18,220.72L503.59,223.7L504.01,223.67L504.43,219.37L504.85,223.08L505.26,218.62L505.68,226.76L506.1,225.2L506.52,224.19L506.93,219.51L507.35,225.16L508.6,225.11L509.02,216.49L509.44,225.05L509.86,220.43L510.27,220.57L510.69,218.19L511.11,220.92L511.53,219.84L511.94,227.36L512.36,216.65L512.78,220.1L513.2,220.01L514.03,220.98L514.45,218.78L515.28,223.64L515.7,218.66L516.12,205.85L516.54,215.25L516.95,220.32L517.37,206.18L517.79,206.81L518.21,214.16L518.63,214.11L519.04,206.99L519.88,212.47L520.3,202.23L520.72,199.24L521.14,208.71L521.55,224.84L521.97,215.2L522.38,214.49L522.8,205.74L523.22,219.6L524.05,195.82L524.47,209.77L524.89,208.24L525.31,203.32L525.72,202.05L526.14,205.17L526.56,200.81L526.98,208.16L527.39,206.35L527.81,209.96L528.23,207.44L528.65,196.45L529.06,195.36L529.48,196.45L530.32,209.39L530.74,202.33L531.15,210.92L531.57,197.09L531.99,197.31L532.41,191.05L532.82,191.24L533.24,196.07L533.66,200.65L534.08,194.37L535.33,210.5L535.75,204.27L536.58,191.94L537,193.62" style="vector-effect: non-scaling-stroke; fill: none; stroke: rgb(99, 110, 250); stroke-opacity: 1; stroke-width: 2px; opacity: 1;"/></g><g class="points"/><g class="text"/></g></g></g><g class="overplot"/><path class="xlines-above crisp" d="M0,0" style="fill: none;"/><path class="ylines-above crisp" d="M0,0" style="fill: none;"/><g class="overlines-above"/><g class="xaxislayer-above"><g class="xtick"><text text-anchor="middle" x="0" y="433" transform="translate(91.17,0)" style="font-family: 'Open Sans', verdana, arial, sans-serif; font-size: 12px; fill: rgb(42, 63, 95); fill-opacity: 1; white-space: pre;"><tspan class="line" dy="0em" x="0" y="433">Jun 4</tspan><tspan class="line" dy="1.3em" x="0" y="433">2021</tspan></text></g><g class="xtick"><text text-anchor="middle" x="0" y="433" transform="translate(211.44,0)" style="font-family: 'Open Sans', verdana, arial, sans-serif; font-size: 12px; fill: rgb(42, 63, 95); fill-opacity: 1; white-space: pre;">Jun 6</text></g><g class="xtick"><text text-anchor="middle" x="0" y="433" transform="translate(331.72,0)" style="font-family: 'Open Sans', verdana, arial, sans-serif; font-size: 12px; fill: rgb(42, 63, 95); fill-opacity: 1; white-space: pre;">Jun 8</text></g><g class="xtick"><text text-anchor="middle" x="0" y="433" transform="translate(451.99,0)" style="font-family: 'Open Sans', verdana, arial, sans-serif; font-size: 12px; fill: rgb(42, 63, 95); fill-opacity: 1; white-space: pre;">Jun 10</text></g><g class="xtick"><text text-anchor="middle" x="0" y="433" transform="translate(572.26,0)" style="font-family: 'Open Sans', verdana, arial, sans-serif; font-size: 12px; fill: rgb(42, 63, 95); fill-opacity: 1; white-space: pre;">Jun 12</text></g></g><g class="yaxislayer-above"><g class="ytick"><text text-anchor="end" x="79" y="4.199999999999999" transform="translate(0,367.23)" style="font-family: 'Open Sans', verdana, arial, sans-serif; font-size: 12px; fill: rgb(42, 63, 95); fill-opacity: 1; white-space: pre;">0.8</text></g><g class="ytick"><text text-anchor="end" x="79" y="4.199999999999999" transform="translate(0,308.43)" style="font-family: 'Open Sans', verdana, arial, sans-serif; font-size: 12px; fill: rgb(42, 63, 95); fill-opacity: 1; white-space: pre;">0.82</text></g><g class="ytick"><text text-anchor="end" x="79" y="4.199999999999999" transform="translate(0,249.63)" style="font-family: 'Open Sans', verdana, arial, sans-serif; font-size: 12px; fill: rgb(42, 63, 95); fill-opacity: 1; white-space: pre;">0.84</text></g><g class="ytick"><text text-anchor="end" x="79" y="4.199999999999999" transform="translate(0,190.82999999999998)" style="font-family: 'Open Sans', verdana, arial, sans-serif; font-size: 12px; fill: rgb(42, 63, 95); fill-opacity: 1; white-space: pre;">0.86</text></g><g class="ytick"><text text-anchor="end" x="79" y="4.199999999999999" transform="translate(0,132.03)" style="font-family: 'Open Sans', verdana, arial, sans-serif; font-size: 12px; fill: rgb(42, 63, 95); fill-opacity: 1; white-space: pre;">0.88</text></g></g><g class="overaxes-above"/></g></g><g class="polarlayer"/><g class="ternarylayer"/><g class="geolayer"/><g class="funnelarealayer"/><g class="pielayer"/><g class="treemaplayer"/><g class="sunburstlayer"/><g class="glimages"/><defs id="topdefs-633ef5"><g class="clips"/><clipPath id="legend633ef5"><rect width="60" height="45" x="0" y="0"/></clipPath></defs><g class="layer-above"><g class="imagelayer"/><g class="shapelayer"/></g><g class="infolayer"><g class="legend" pointer-events="all" transform="translate(627.74,100)"><rect class="bg" shape-rendering="crispEdges" width="60" height="45" x="0" y="0" style="stroke: rgb(68, 68, 68); stroke-opacity: 1; fill: rgb(255, 255, 255); fill-opacity: 1; stroke-width: 0px;"/><g class="scrollbox" transform="" clip-path="url('#legend633ef5')"><text class="legendtitletext" text-anchor="start" x="2" y="15.600000000000001" style="font-family: 'Open Sans', verdana, arial, sans-serif; font-size: 12px; fill: rgb(42, 63, 95); fill-opacity: 1; white-space: pre;">All</text><g class="groups" transform=""><g class="traces" transform="translate(0,30.1)" style="opacity: 1;"><text class="legendtext" text-anchor="start" x="40" y="4.680000000000001" style="font-family: 'Open Sans', verdana, arial, sans-serif; font-size: 12px; fill: rgb(42, 63, 95); fill-opacity: 1; white-space: pre;">All</text><g class="layers" style="opacity: 1;"><g class="legendfill"/><g class="legendlines"><path class="js-line" d="M5,0h30" style="fill: none; stroke: rgb(99, 110, 250); stroke-opacity: 1; stroke-width: 2px;"/></g><g class="legendsymbols"><g class="legendpoints"/></g></g><rect class="legendtoggle" x="0" y="-9.5" width="54.890625" height="19" style="fill: rgb(0, 0, 0); fill-opacity: 0;"/></g></g></g><rect class="scrollbar" rx="20" ry="3" width="0" height="0" x="0" y="0" style="fill: rgb(128, 139, 164); fill-opacity: 1;"/></g><g class="g-gtitle"><text class="gtitle" x="35" y="50" text-anchor="start" dy="0em" style="font-family: 'Open Sans', verdana, arial, sans-serif; font-size: 17px; fill: rgb(42, 63, 95); opacity: 1; font-weight: normal; white-space: pre;">Singapore Vaccination Centers</text></g><g class="g-xtitle"><text class="xtitle" x="348.5" y="476.409375" text-anchor="middle" style="font-family: 'Open Sans', verdana, arial, sans-serif; font-size: 14px; fill: rgb(42, 63, 95); opacity: 1; font-weight: normal; white-space: pre;">Time</text></g><g class="g-ytitle"><text class="ytitle" transform="rotate(-90,27.481250000000003,260)" x="27.481250000000003" y="260" text-anchor="middle" style="font-family: 'Open Sans', verdana, arial, sans-serif; font-size: 14px; fill: rgb(42, 63, 95); opacity: 1; font-weight: normal; white-space: pre;">Filled/%</text></g></g></svg>