<svg class="main-svg" xmlns="http://www.w3.org/2000/svg" xmlns:xlink="http://www.w3.org/1999/xlink" width="700" height="500" style="" viewBox="0 0 700 500"><rect x="0" y="0" width="700" height="500" style="fill: rgb(255, 255, 255); fill-opacity: 1;"/><defs id="defs-c456bd"><g class="clips"><clipPath id="clipc456bdxyplot" class="plotclip"><rect width="537" height="320"/></clipPath><clipPath class="axesclip" id="clipc456bdx"><rect x="80" y="0" width="537" height="500"/></clipPath><clipPath class="axesclip" id="clipc456bdy"><rect x="0" y="100" width="700" height="320"/></clipPath><clipPath class="axesclip" id="clipc456bdxy"><rect x="80" y="100" width="537" height="320"/></clipPath></g><g class="gradients"/></defs><g class="bglayer"><rect class="bg" x="80" y="100" width="537" height="320" style="fill: rgb(229, 236, 246); fill-opacity: 1; stroke-width: 0;"/></g><g class="layer-below"><g class="imagelayer"/><g class="shapelayer"/></g><g class="cartesianlayer"><g class="subplot xy"><g class="layer-subplot"><g class="shapelayer"/><g class="imagelayer"/></g><g class="gridlayer"><g class="x"><path class="xgrid crisp" transform="translate(85.27,0)" d="M0,100v320" style="stroke: rgb(255, 255, 255); stroke-opacity: 1; stroke-width: 1px;"/><path class="xgrid crisp" transform="translate(186.79000000000002,0)" d="M0,100v320" style="stroke: rgb(255, 255, 255); stroke-opacity: 1; stroke-width: 1px;"/><path class="xgrid crisp" transform="translate(288.31,0)" d="M0,100v320" style="stroke: rgb(255, 255, 255); stroke-opacity: 1; stroke-width: 1px;"/><path class="xgrid crisp" transform="translate(389.83,0)" d="M0,100v320" style="stroke: rgb(255, 255, 255); stroke-opacity: 1; stroke-width: 1px;"/><path class="xgrid crisp" transform="translate(491.34,0)" d="M0,100v320" style="stroke: rgb(255, 255, 255); stroke-opacity: 1; stroke-width: 1px;"/><path class="xgrid crisp" transform="translate(592.86,0)" d="M0,100v320" style="stroke: rgb(255, 255, 255); stroke-opacity: 1; stroke-width: 1px;"/></g><g class="y"><path class="ygrid crisp" transform="translate(0,391.84)" d="M80,0h537" style="stroke: rgb(255, 255, 255); stroke-opacity: 1; stroke-width: 1px;"/><path class="ygrid crisp" transform="translate(0,346.43)" d="M80,0h537" style="stroke: rgb(255, 255, 255); stroke-opacity: 1; stroke-width: 1px;"/><path class="ygrid crisp" transform="translate(0,301.01)" d="M80,0h537" style="stroke: rgb(255, 255, 255); stroke-opacity: 1; stroke-width: 1px;"/><path class="ygrid crisp" transform="translate(0,255.6)" d="M80,0h537" style="stroke: rgb(255, 255, 255); stroke-opacity: 1; stroke-width: 1px;"/><path class="ygrid crisp" transform="translate(0,210.19)" d="M80,0h537" style="stroke: rgb(255, 255, 255); stroke-opacity: 1; stroke-width: 1px;"/><path class="ygrid crisp" transform="translate(0,164.76999999999998)" d="M80,0h537" style="stroke: rgb(255, 255, 255); stroke-opacity: 1; stroke-width: 1px;"/><path class="ygrid crisp" transform="translate(0,119.36)" d="M80,0h537" style="stroke: rgb(255, 255, 255); stroke-opacity: 1; stroke-width: 1px;"/></g></g><g class="zerolinelayer"/><path class="xlines-below"/><path class="ylines-below"/><g class="overlines-below"/><g class="xaxislayer-below"/><g class="yaxislayer-below"/><g class="overaxes-below"/><g class="plot" transform="translate(80,100)" clip-path="url('#clipc456bdxyplot')"><g class="scatterlayer mlayer"><g class="trace scatter trace85a5f5" style="stroke-miterlimit: 2; opacity: 1;"><g class="fills"/><g class="errorbars"/><g class="lines"><path class="js-line" d="M0,304L4.06,302.5L5.48,246.4L6.89,247.77L8.3,245.99L13.93,245.3L15.34,244.89L18.17,245.72L19.58,244.75L21.02,245.44L22.4,245.17L28.03,244.2L29.45,244.48L32.27,243.66L33.68,243.66L36.49,243.66L37.9,243.66L42.14,243.38L43.55,243.24L47.77,243.11L49.18,243.24L53.42,242.56L54.82,242.14L57.65,242.28L59.06,241.6L61.87,241.46L63.28,240.77L64.7,241.32L66.1,240.91L67.51,239.95L68.92,240.22L70.33,240.91L71.74,239.26L75.97,238.3L77.38,238.85L78.79,238.44L80.2,239.4L81.61,238.44L83.03,236.24L85.84,236.79L87.25,235.83L92.89,233.77L94.3,232.81L97.11,234.18L98.53,232.94L99.94,230.75L101.35,231.3L102.76,232.4L104.17,230.75L106.99,228.28L108.4,227.86L111.22,226.08L112.63,226.63L115.45,225.39L116.86,225.67L118.27,227.31L119.68,224.98L123.91,226.08L125.32,225.67L128.15,221.68L129.55,221.27L130.96,222.1L132.37,220.72L133.78,220.86L135.19,222.65L136.6,222.37L138.01,220.72L143.65,216.05L145.06,213.17L146.47,213.86L147.88,212.35L149.29,211.25L150.7,212.07L153.52,212.35L154.93,213.44L160.58,211.11L161.98,210.97L164.8,210.29L166.22,209.19L167.62,208.78L169.03,209.33L170.45,210.56L171.85,210.56L174.67,208.23L176.08,207.95L180.31,207.13L181.72,206.58L183.13,205.76L184.54,206.17L191.59,205.89L193.01,206.17L195.82,204.66L197.23,203.01L198.64,201.77L200.05,201.77L201.46,200.95L202.87,201.91L207.1,202.05L208.51,132.31L212.74,130.09L214.16,130.37L216.97,129.81L218.38,128.85L221.2,128.98L222.62,128.98L228.25,128.29L229.66,128.15L233.89,127.6L235.3,127.74L247.99,127.74L249.4,127.88L259.27,127.6L260.68,126.91L264.91,126.91L266.32,125.8L271.95,125.94L273.37,125.38L276.18,125.52L277.59,124.83L280.42,124.14L281.83,124.83L286.06,121.64L287.46,121.64L288.88,122.75L290.28,122.34L293.11,120.95L294.52,121.64L298.74,119.43L300.16,117.63L301.57,119.43L302.97,118.6L307.2,116.24L308.62,117.21L311.43,115.55L312.84,116.8L314.25,117.91L315.66,116.94L317.08,118.04L318.49,117.49L319.89,116.52L321.3,117.63L322.71,116.94L324.12,117.35L326.95,118.46L328.35,118.04L331.19,116.8L332.61,115.55L334.01,114.03L335.43,113.75L338.25,114.44L339.66,115L341.07,112.92L342.47,112.64L346.71,111.95L348.12,110.15L352.35,111.26L353.76,110.71L356.58,106.97L357.99,108.63L359.4,108.63L360.81,107.38L362.22,108.35L363.62,107.8L366.45,105.86L367.86,106L372.09,102.67L373.5,102.81L376.32,100.32L377.73,101.15L380.54,98.94L381.96,99.49L386.19,98.8L387.6,96.03L389.01,95.89L390.41,94.78L391.83,93.26L393.24,93.53L394.65,93.81L396.05,95.06L397.48,95.75L398.88,95.06L400.3,97.14L401.7,96.3L403.11,96.17L404.51,94.5L405.93,94.09L407.34,94.64L410.16,94.92L411.57,46.3L414.38,44.35L415.79,44.07L418.61,43.37L420.03,42.39L424.25,41.83L425.66,41.56L431.3,40.16L432.72,39.18L435.54,38.9L436.95,39.46L441.18,38.2L442.59,38.34L459.5,36.95L460.91,37.23L466.56,36.25L467.97,36.53L469.37,35.97L470.78,36.25L472.19,36.67L473.6,36.11L475.01,36.25L476.42,35.55L479.25,35.97L480.64,35.13L489.11,34.43L491.92,33.87L493.34,32.48L496.15,32.06L498.97,31.64L500.39,29.83L501.8,31.08L503.21,29.83L506.03,29.83L507.43,29.13L508.85,28.99L510.26,27.73L514.48,27.45L515.9,25.78L517.31,24.24L518.71,23.96L521.5,21.73L522.89,22.42L525.71,20.89L527.13,21.31L528.54,19.49L529.94,19.21L531.36,18.65L532.76,19.07L534.18,18.79L535.58,16.7L537,16" style="vector-effect: non-scaling-stroke; fill: none; stroke: rgb(99, 110, 250); stroke-opacity: 1; stroke-width: 2px; opacity: 1;"/></g><g class="points"/><g class="text"/></g></g></g><g class="overplot"/><path class="xlines-above crisp" d="M0,0" style="fill: none;"/><path class="ylines-above crisp" d="M0,0" style="fill: none;"/><g class="overlines-above"/><g class="xaxislayer-above"><g class="xtick"><text text-anchor="middle" x="0" y="433" transform="translate(85.27,0)" style="font-family: 'Open Sans', verdana, arial, sans-serif; font-size: 12px; fill: rgb(42, 63, 95); fill-opacity: 1; white-space: pre;"><tspan class="line" dy="0em" x="0" y="433">00:00</tspan><tspan class="line" dy="1.3em" x="0" y="433">Aug 3, 2021</tspan></text></g><g class="xtick"><text text-anchor="middle" x="0" y="433" transform="translate(186.79000000000002,0)" style="font-family: 'Open Sans', verdana, arial, sans-serif; font-size: 12px; fill: rgb(42, 63, 95); fill-opacity: 1; white-space: pre;">12:00</text></g><g class="xtick"><text text-anchor="middle" x="0" y="433" transform="translate(288.31,0)" style="font-family: 'Open Sans', verdana, arial, sans-serif; font-size: 12px; fill: rgb(42, 63, 95); fill-opacity: 1; white-space: pre;"><tspan class="line" dy="0em" x="0" y="433">00:00</tspan><tspan class="line" dy="1.3em" x="0" y="433">Aug 4, 2021</tspan></text></g><g class="xtick"><text text-anchor="middle" x="0" y="433" transform="translate(389.83,0)" style="font-family: 'Open Sans', verdana, arial, sans-serif; font-size: 12px; fill: rgb(42, 63, 95); fill-opacity: 1; white-space: pre;">12:00</text></g><g class="xtick"><text text-anchor="middle" x="0" y="433" transform="translate(491.34,0)" style="font-family: 'Open Sans', verdana, arial, sans-serif; font-size: 12px; fill: rgb(42, 63, 95); fill-opacity: 1; white-space: pre;"><tspan class="line" dy="0em" x="0" y="433">00:00</tspan><tspan class="line" dy="1.3em" x="0" y="433">Aug 5, 2021</tspan></text></g><g class="xtick"><text text-anchor="middle" x="0" y="433" transform="translate(592.86,0)" style="font-family: 'Open Sans', verdana, arial, sans-serif; font-size: 12px; fill: rgb(42, 63, 95); fill-opacity: 1; white-space: pre;">12:00</text></g></g><g class="yaxislayer-above"><g class="ytick"><text text-anchor="end" x="79" y="4.199999999999999" transform="translate(0,391.84)" style="font-family: 'Open Sans', verdana, arial, sans-serif; font-size: 12px; fill: rgb(42, 63, 95); fill-opacity: 1; white-space: pre;">0.864</text></g><g class="ytick"><text text-anchor="end" x="79" y="4.199999999999999" transform="translate(0,346.43)" style="font-family: 'Open Sans', verdana, arial, sans-serif; font-size: 12px; fill: rgb(42, 63, 95); fill-opacity: 1; white-space: pre;">0.865</text></g><g class="ytick"><text text-anchor="end" x="79" y="4.199999999999999" transform="translate(0,301.01)" style="font-family: 'Open Sans', verdana, arial, sans-serif; font-size: 12px; fill: rgb(42, 63, 95); fill-opacity: 1; white-space: pre;">0.866</text></g><g class="ytick"><text text-anchor="end" x="79" y="4.199999999999999" transform="translate(0,255.6)" style="font-family: 'Open Sans', verdana, arial, sans-serif; font-size: 12px; fill: rgb(42, 63, 95); fill-opacity: 1; white-space: pre;">0.867</text></g><g class="ytick"><text text-anchor="end" x="79" y="4.199999999999999" transform="translate(0,210.19)" style="font-family: 'Open Sans', verdana, arial, sans-serif; font-size: 12px; fill: rgb(42, 63, 95); fill-opacity: 1; white-space: pre;">0.868</text></g><g class="ytick"><text text-anchor="end" x="79" y="4.199999999999999" transform="translate(0,164.76999999999998)" style="font-family: 'Open Sans', verdana, arial, sans-serif; font-size: 12px; fill: rgb(42, 63, 95); fill-opacity: 1; white-space: pre;">0.869</text></g><g class="ytick"><text text-anchor="end" x="79" y="4.199999999999999" transform="translate(0,119.36)" style="font-family: 'Open Sans', verdana, arial, sans-serif; font-size: 12px; fill: rgb(42, 63, 95); fill-opacity: 1; white-space: pre;">0.87</text></g></g><g class="overaxes-above"/></g></g><g class="polarlayer"/><g class="ternarylayer"/><g class="geolayer"/><g class="funnelarealayer"/><g class="pielayer"/><g class="treemaplayer"/><g class="sunburstlayer"/><g class="glimages"/><defs id="topdefs-c456bd"><g class="clips"/><clipPath id="legendc456bd"><rect width="60" height="45" x="0" y="0"/></clipPath></defs><g class="layer-above"><g class="imagelayer"/><g class="shapelayer"/></g><g class="infolayer"><g class="legend" pointer-events="all" transform="translate(627.74,100)"><rect class="bg" shape-rendering="crispEdges" width="60" height="45" x="0" y="0" style="stroke: rgb(68, 68, 68); stroke-opacity: 1; fill: rgb(255, 255, 255); fill-opacity: 1; stroke-width: 0px;"/><g class="scrollbox" transform="" clip-path="url('#legendc456bd')"><text class="legendtitletext" text-anchor="start" x="2" y="15.600000000000001" style="font-family: 'Open Sans', verdana, arial, sans-serif; font-size: 12px; fill: rgb(42, 63, 95); fill-opacity: 1; white-space: pre;">All</text><g class="groups" transform=""><g class="traces" transform="translate(0,30.1)" style="opacity: 1;"><text class="legendtext" text-anchor="start" x="40" y="4.680000000000001" style="font-family: 'Open Sans', verdana, arial, sans-serif; font-size: 12px; fill: rgb(42, 63, 95); fill-opacity: 1; white-space: pre;">All</text><g class="layers" style="opacity: 1;"><g class="legendfill"/><g class="legendlines"><path class="js-line" d="M5,0h30" style="fill: none; stroke: rgb(99, 110, 250); stroke-opacity: 1; stroke-width: 2px;"/></g><g class="legendsymbols"><g class="legendpoints"/></g></g><rect class="legendtoggle" x="0" y="-9.5" width="54.890625" height="19" style="fill: rgb(0, 0, 0); fill-opacity: 0;"/></g></g></g><rect class="scrollbar" rx="20" ry="3" width="0" height="0" x="0" y="0" style="fill: rgb(128, 139, 164); fill-opacity: 1;"/></g><g class="g-gtitle"><text class="gtitle" x="35" y="50" text-anchor="start" dy="0em" style="font-family: 'Open Sans', verdana, arial, sans-serif; font-size: 17px; fill: rgb(42, 63, 95); opacity: 1; font-weight: normal; white-space: pre;">Singapore Vaccination Centers</text></g><g class="g-xtitle"><text class="xtitle" x="348.5" y="476.409375" text-anchor="middle" style="font-family: 'Open Sans', verdana, arial, sans-serif; font-size: 14px; fill: rgb(42, 63, 95); opacity: 1; font-weight: normal; white-space: pre;">Time</text></g><g class="g-ytitle"><text class="ytitle" transform="rotate(-90,19.840625000000003,260)" x="19.840625000000003" y="260" text-anchor="middle" style="font-family: 'Open Sans', verdana, arial, sans-serif; font-size: 14px; fill: rgb(42, 63, 95); opacity: 1; font-weight: normal; white-space: pre;">Filled/%</text></g></g></svg>