<svg class="main-svg" xmlns="http://www.w3.org/2000/svg" xmlns:xlink="http://www.w3.org/1999/xlink" width="700" height="500" style="" viewBox="0 0 700 500"><rect x="0" y="0" width="700" height="500" style="fill: rgb(255, 255, 255); fill-opacity: 1;"/><defs id="defs-79a0b3"><g class="clips"><clipPath id="clip79a0b3xyplot" class="plotclip"><rect width="537" height="320"/></clipPath><clipPath class="axesclip" id="clip79a0b3x"><rect x="80" y="0" width="537" height="500"/></clipPath><clipPath class="axesclip" id="clip79a0b3y"><rect x="0" y="100" width="700" height="320"/></clipPath><clipPath class="axesclip" id="clip79a0b3xy"><rect x="80" y="100" width="537" height="320"/></clipPath></g><g class="gradients"/></defs><g class="bglayer"><rect class="bg" x="80" y="100" width="537" height="320" style="fill: rgb(229, 236, 246); fill-opacity: 1; stroke-width: 0;"/></g><g class="layer-below"><g class="imagelayer"/><g class="shapelayer"/></g><g class="cartesianlayer"><g class="subplot xy"><g class="layer-subplot"><g class="shapelayer"/><g class="imagelayer"/></g><g class="gridlayer"><g class="x"><path class="xgrid crisp" transform="translate(82.01,0)" d="M0,100v320" style="stroke: rgb(255, 255, 255); stroke-opacity: 1; stroke-width: 1px;"/><path class="xgrid crisp" transform="translate(159.57999999999998,0)" d="M0,100v320" style="stroke: rgb(255, 255, 255); stroke-opacity: 1; stroke-width: 1px;"/><path class="xgrid crisp" transform="translate(237.15,0)" d="M0,100v320" style="stroke: rgb(255, 255, 255); stroke-opacity: 1; stroke-width: 1px;"/><path class="xgrid crisp" transform="translate(314.72,0)" d="M0,100v320" style="stroke: rgb(255, 255, 255); stroke-opacity: 1; stroke-width: 1px;"/><path class="xgrid crisp" transform="translate(392.29,0)" d="M0,100v320" style="stroke: rgb(255, 255, 255); stroke-opacity: 1; stroke-width: 1px;"/><path class="xgrid crisp" transform="translate(469.86,0)" d="M0,100v320" style="stroke: rgb(255, 255, 255); stroke-opacity: 1; stroke-width: 1px;"/><path class="xgrid crisp" transform="translate(547.4300000000001,0)" d="M0,100v320" style="stroke: rgb(255, 255, 255); stroke-opacity: 1; stroke-width: 1px;"/></g><g class="y"><path class="ygrid crisp" transform="translate(0,394.19)" d="M80,0h537" style="stroke: rgb(255, 255, 255); stroke-opacity: 1; stroke-width: 1px;"/><path class="ygrid crisp" transform="translate(0,357.54)" d="M80,0h537" style="stroke: rgb(255, 255, 255); stroke-opacity: 1; stroke-width: 1px;"/><path class="ygrid crisp" transform="translate(0,320.88)" d="M80,0h537" style="stroke: rgb(255, 255, 255); stroke-opacity: 1; stroke-width: 1px;"/><path class="ygrid crisp" transform="translate(0,284.23)" d="M80,0h537" style="stroke: rgb(255, 255, 255); stroke-opacity: 1; stroke-width: 1px;"/><path class="ygrid crisp" transform="translate(0,247.58)" d="M80,0h537" style="stroke: rgb(255, 255, 255); stroke-opacity: 1; stroke-width: 1px;"/><path class="ygrid crisp" transform="translate(0,210.92000000000002)" d="M80,0h537" style="stroke: rgb(255, 255, 255); stroke-opacity: 1; stroke-width: 1px;"/><path class="ygrid crisp" transform="translate(0,174.26999999999998)" d="M80,0h537" style="stroke: rgb(255, 255, 255); stroke-opacity: 1; stroke-width: 1px;"/><path class="ygrid crisp" transform="translate(0,137.62)" d="M80,0h537" style="stroke: rgb(255, 255, 255); stroke-opacity: 1; stroke-width: 1px;"/></g></g><g class="zerolinelayer"/><path class="xlines-below"/><path class="ylines-below"/><g class="overlines-below"/><g class="xaxislayer-below"/><g class="yaxislayer-below"/><g class="overaxes-below"/><g class="plot" transform="translate(80,100)" clip-path="url('#clip79a0b3xyplot')"><g class="scatterlayer mlayer"><g class="trace scatter tracef4b71c" style="stroke-miterlimit: 2; opacity: 1;"><g class="fills"/><g class="errorbars"/><g class="lines"><path class="js-line" d="M0,304L1.55,302.79L2.09,257.51L2.63,258.62L3.17,257.18L5.32,256.63L5.86,256.29L6.94,256.96L7.48,256.18L8.56,256.52L9.1,256.18L10.17,255.96L10.71,255.74L11.79,255.52L12.33,255.3L19.33,254.96L19.87,254.52L23.64,253.52L24.17,252.97L25.25,253.08L25.79,252.3L26.87,253.08L27.41,251.75L29.02,250.97L29.56,251.42L30.1,251.09L30.64,251.86L31.72,249.31L32.26,249.76L32.79,249.76L34.41,248.65L34.95,247.98L36.03,246.54L36.57,247.43L37.1,247.65L37.64,246.65L38.18,244.88L38.72,245.32L39.26,246.21L41.41,242.55L41.95,241.78L43.57,240.89L44.11,240.56L44.65,240.78L45.18,242.11L45.72,240.22L46.26,240.56L46.8,240.34L47.88,240.78L48.42,239.01L49.5,237.23L50.03,237.9L51.11,236.9L51.65,238.34L52.19,238.12L52.73,236.79L54.88,233.02L55.42,230.69L55.96,231.25L56.5,230.03L57.04,229.14L57.57,229.81L58.65,230.03L59.19,230.91L61.88,228.92L62.42,228.7L64.58,227.59L65.12,228.59L65.65,228.59L66.19,227.26L68.35,225.93L68.89,225.82L70.5,225.04L71.04,224.93L72.12,225.04L72.66,224.71L74.27,224.6L74.81,223.82L76.43,221.49L76.97,220.83L78.04,221.72L78.58,221.27L79.12,221.72L79.66,165.43L81.82,163.87L82.35,163.75L84.51,162.75L85.05,162.75L87.74,162.08L88.28,161.74L92.59,161.18L93.13,161.52L97.44,161.74L97.97,161.63L102.28,160.29L102.82,160.62L103.9,160.29L104.44,159.84L105.51,159.95L106.05,159.4L107.67,159.4L108.21,158.5L109.82,156.83L110.36,157.72L111.98,156.27L112.52,156.83L114.67,153.58L115.21,155.04L117.36,152.47L117.91,153.25L118.98,151.91L119.52,152.91L120.06,153.81L120.6,153.03L121.14,153.92L121.68,153.47L122.21,152.69L122.75,153.58L123.29,153.03L123.83,153.36L125.45,153.92L125.99,153.58L128.15,150.45L128.68,150.57L129.76,151.46L130.3,149.78L132.46,149L133,147.55L135.15,148L135.69,146.88L136.23,144.98L136.77,146.32L137.31,146.32L137.85,145.31L138.38,146.1L138.92,145.65L139.46,144.64L143.23,140.73L143.77,139.61L144.31,140.28L144.84,139.5L145.38,138.5L145.93,138.94L146.46,138.61L147.54,138.38L148.08,136.15L148.62,136.04L149.15,135.14L150.23,134.14L150.77,134.36L151.85,135.93L152.39,135.37L152.93,137.04L153.47,136.37L154,136.26L155.08,134.59L155.62,135.03L156.7,135.26L157.24,96.02L158.85,94.22L159.39,93.99L164.24,91.17L164.78,91.06L165.85,90.05L166.4,90.05L167.47,90.16L168.01,89.59L179.86,87.9L180.4,88.24L182.01,87.34L182.55,87.45L183.09,87.68L183.63,87L186.86,86.44L187.94,85.99L188.48,84.86L189.55,84.52L190.63,84.18L191.17,82.72L191.71,83.73L192.25,82.72L193.33,82.72L193.86,82.16L194.4,82.04L194.94,81.03L196.56,80.8L197.1,79.45L199.23,76.18L199.77,76.75L201.39,75.84L201.92,74.38L204.08,73.82L204.62,72.12L205.7,72.01L206.23,71.9L208.93,69.76L209.47,69.98L211.08,71.79L211.62,70.21L212.7,71.22L213.25,69.53L214.32,69.65L214.86,69.98L217.01,68.74L217.55,68.29L220.24,63.45L220.78,64.69L221.86,63.11L222.4,62.88L222.93,61.76L223.47,62.09L224.01,62.21L224.55,62.21L225.09,61.31L225.63,61.76L226.17,60.4L227.24,60.29L227.78,59.39L229.94,59.73L230.47,58.94L231.55,58.83L232.09,58.94L233.17,57.25L233.71,57.81L234.25,57.59L234.79,190.74L239.1,190.39L239.64,190.04L240.17,190.04L240.71,189.1L247.17,187.93L247.72,188.05L253.64,187.35L254.18,187.23L257.95,186.29L258.48,186.53L260.1,185.59L260.64,185.01L263.33,184.07L263.87,182.9L266.05,182.67L266.58,183.72L267.66,182.08L268.2,181.97L268.74,181.38L269.28,179.27L269.81,177.64L270.35,177.87L270.9,177.29L271.43,175.77L271.97,176.23L272.51,175.65L273.59,175.77L274.13,174.95L275.2,174.36L275.74,175.18L277.36,172.84L277.9,173.66L279.51,171.32L280.05,171.32L280.59,170.62L281.13,171.55L282.21,172.37L282.75,171.55L283.28,171.67L283.82,170.97L286.52,167.34L287.05,166.87L288.13,166.52L288.67,167.81L291.9,165.12L292.44,166.64L293.52,148.04L294.06,147.69L295.14,147.11L295.68,143.01L296.21,143.13L296.75,139.74L297.29,139.97L297.83,137.75L298.37,135.17L298.91,135.99L299.44,134.47L299.98,133.3L300.52,130.26L301.6,127.57L302.14,127.1L304.83,120.08L305.37,120.08L306.99,116.92L307.53,116.11L311.84,107.8L312.37,119.31L315.07,115.54L315.61,115.89L316.15,115.77L316.68,116.48L317.76,116.13L318.3,116.72L319.91,115.89L320.45,116.01L321.53,115.54L322.07,115.66L329.61,115.07L330.15,114.71L334.46,115.18L335,114.95L338.23,114.83L338.77,114.36L340.38,112L340.92,112.23L342.54,111.06L343.08,111.17L343.62,110.82L344.15,109.4L345.23,109.64L345.77,108.34L348.46,105.63L349,105.98L350.62,103.03L351.16,102.68L352.77,100.44L353.31,100.44L354.39,98.19L354.93,98.19L356.01,96.54L356.54,94.65L358.7,90.17L359.24,89.82L359.78,89.46L360.31,87.58L362.47,85.92L363.01,84.51L366.24,83.68L366.78,82.74L367.32,83.09L367.86,82.5L368.4,82.86L372.7,78.84L375.4,76.6L375.94,77.19L378.09,74.36L378.63,74.24L379.17,73.06L379.71,73.53L380.25,72.94L381.33,72.83L381.86,73.77L383.48,72.59L384.02,72.35L384.56,71.76L385.1,72.59L387.25,72L387.79,71.06L389.4,69.05L389.94,113.16L391.02,113.52L391.56,112.56L392.1,111.96L392.63,112.44L393.19,112.32L394.25,112.44L394.79,113.28L396.95,113.04L397.49,113.16L399.1,113.28L399.64,113.28L402.33,111.96L402.87,112.32L408.8,111.72L409.34,111.72L415.8,111.36L416.34,111L417.95,111L418.49,110.64L419.57,110.16L420.11,109.32L421.18,108.96L421.72,107.75L422.26,106.55L422.8,107.75L424.95,106.91L425.49,106.91L426.57,105.11L427.11,104.87L428.73,102.35L429.27,102.23L431.42,101.14L431.96,100.3L433.04,100.66L433.57,99.34L434.65,98.74L435.19,98.38L438.42,98.38L438.96,97.06L439.5,95.37L440.04,95.62L440.58,95.62L442.19,95.13L442.73,94.05L445.96,92.13L446.51,91.77L447.58,91.41L448.12,91.05L450.81,88.76L451.35,89.13L455.12,87.32L455.66,86.36L457.28,84.2L457.82,83.48L458.36,83.72L458.89,82.15L459.97,80.47L460.51,81.07L465.9,77.95L466.43,77.95L466.97,78.19L467.51,48.85L471.82,45.7L472.36,45.82L477.75,45.95L478.29,46.31L480.98,45.7L481.52,45.7L485.29,45.58L485.83,45.7L490.69,45.34L491.22,45.58L492.29,45.7L492.83,45.46L494.45,45.58L494.99,44.73L496.06,45.7L496.6,44.98L498.22,43.76L498.76,43.04L499.83,43.4L500.37,42.31L501.45,41.7L501.99,41.94L502.52,41.22L503.06,39.16L503.6,39.16L504.14,38.19L504.68,38.79L505.22,38.06L506.3,36.61L506.83,35.16L507.37,34.55L507.91,35.52L508.99,32.97L509.53,33.22L510.6,31.76L511.14,31.88L514.38,30.43L514.92,30.55L515.99,29.94L516.53,28.97L518.15,29.7L518.69,28.37L520.3,28L520.84,28.12L522.46,24.49L523,24.85L523.53,24.49L525.69,22.55L526.23,23.03L526.77,23.03L527.3,21.94L527.84,21.82L528.38,20.49L528.92,20.73L529.46,20.12L530,20.73L530.54,20L531.62,18.3L532.15,17.94L532.69,17.7L533.23,18.42L535.39,17.94L535.92,16L537,16.61" style="vector-effect: non-scaling-stroke; fill: none; stroke: rgb(99, 110, 250); stroke-opacity: 1; stroke-width: 2px; opacity: 1;"/></g><g class="points"/><g class="text"/></g></g></g><g class="overplot"/><path class="xlines-above crisp" d="M0,0" style="fill: none;"/><path class="ylines-above crisp" d="M0,0" style="fill: none;"/><g class="overlines-above"/><g class="xaxislayer-above"><g class="xtick"><text text-anchor="middle" x="0" y="433" transform="translate(82.01,0)" style="font-family: 'Open Sans', verdana, arial, sans-serif; font-size: 12px; fill: rgb(42, 63, 95); fill-opacity: 1; white-space: pre;"><tspan class="line" dy="0em" x="0" y="433">Aug 3</tspan><tspan class="line" dy="1.3em" x="0" y="433">2021</tspan></text></g><g class="xtick"><text text-anchor="middle" x="0" y="433" transform="translate(159.57999999999998,0)" style="font-family: 'Open Sans', verdana, arial, sans-serif; font-size: 12px; fill: rgb(42, 63, 95); fill-opacity: 1; white-space: pre;">Aug 4</text></g><g class="xtick"><text text-anchor="middle" x="0" y="433" transform="translate(237.15,0)" style="font-family: 'Open Sans', verdana, arial, sans-serif; font-size: 12px; fill: rgb(42, 63, 95); fill-opacity: 1; white-space: pre;">Aug 5</text></g><g class="xtick"><text text-anchor="middle" x="0" y="433" transform="translate(314.72,0)" style="font-family: 'Open Sans', verdana, arial, sans-serif; font-size: 12px; fill: rgb(42, 63, 95); fill-opacity: 1; white-space: pre;">Aug 6</text></g><g class="xtick"><text text-anchor="middle" x="0" y="433" transform="translate(392.29,0)" style="font-family: 'Open Sans', verdana, arial, sans-serif; font-size: 12px; fill: rgb(42, 63, 95); fill-opacity: 1; white-space: pre;">Aug 7</text></g><g class="xtick"><text text-anchor="middle" x="0" y="433" transform="translate(469.86,0)" style="font-family: 'Open Sans', verdana, arial, sans-serif; font-size: 12px; fill: rgb(42, 63, 95); fill-opacity: 1; white-space: pre;">Aug 8</text></g><g class="xtick"><text text-anchor="middle" x="0" y="433" transform="translate(547.4300000000001,0)" style="font-family: 'Open Sans', verdana, arial, sans-serif; font-size: 12px; fill: rgb(42, 63, 95); fill-opacity: 1; white-space: pre;">Aug 9</text></g></g><g class="yaxislayer-above"><g class="ytick"><text text-anchor="end" x="79" y="4.199999999999999" transform="translate(0,394.19)" style="font-family: 'Open Sans', verdana, arial, sans-serif; font-size: 12px; fill: rgb(42, 63, 95); fill-opacity: 1; white-space: pre;">0.864</text></g><g class="ytick"><text text-anchor="end" x="79" y="4.199999999999999" transform="translate(0,357.54)" style="font-family: 'Open Sans', verdana, arial, sans-serif; font-size: 12px; fill: rgb(42, 63, 95); fill-opacity: 1; white-space: pre;">0.865</text></g><g class="ytick"><text text-anchor="end" x="79" y="4.199999999999999" transform="translate(0,320.88)" style="font-family: 'Open Sans', verdana, arial, sans-serif; font-size: 12px; fill: rgb(42, 63, 95); fill-opacity: 1; white-space: pre;">0.866</text></g><g class="ytick"><text text-anchor="end" x="79" y="4.199999999999999" transform="translate(0,284.23)" style="font-family: 'Open Sans', verdana, arial, sans-serif; font-size: 12px; fill: rgb(42, 63, 95); fill-opacity: 1; white-space: pre;">0.867</text></g><g class="ytick"><text text-anchor="end" x="79" y="4.199999999999999" transform="translate(0,247.58)" style="font-family: 'Open Sans', verdana, arial, sans-serif; font-size: 12px; fill: rgb(42, 63, 95); fill-opacity: 1; white-space: pre;">0.868</text></g><g class="ytick"><text text-anchor="end" x="79" y="4.199999999999999" transform="translate(0,210.92000000000002)" style="font-family: 'Open Sans', verdana, arial, sans-serif; font-size: 12px; fill: rgb(42, 63, 95); fill-opacity: 1; white-space: pre;">0.869</text></g><g class="ytick"><text text-anchor="end" x="79" y="4.199999999999999" transform="translate(0,174.26999999999998)" style="font-family: 'Open Sans', verdana, arial, sans-serif; font-size: 12px; fill: rgb(42, 63, 95); fill-opacity: 1; white-space: pre;">0.87</text></g><g class="ytick"><text text-anchor="end" x="79" y="4.199999999999999" transform="translate(0,137.62)" style="font-family: 'Open Sans', verdana, arial, sans-serif; font-size: 12px; fill: rgb(42, 63, 95); fill-opacity: 1; white-space: pre;">0.871</text></g><g class="ytick"><text text-anchor="end" x="79" y="4.199999999999999" transform="translate(0,100.96)" style="font-family: 'Open Sans', verdana, arial, sans-serif; font-size: 12px; fill: rgb(42, 63, 95); fill-opacity: 1; white-space: pre;">0.872</text></g></g><g class="overaxes-above"/></g></g><g class="polarlayer"/><g class="ternarylayer"/><g class="geolayer"/><g class="funnelarealayer"/><g class="pielayer"/><g class="treemaplayer"/><g class="sunburstlayer"/><g class="glimages"/><defs id="topdefs-79a0b3"><g class="clips"/><clipPath id="legend79a0b3"><rect width="60" height="45" x="0" y="0"/></clipPath></defs><g class="layer-above"><g class="imagelayer"/><g class="shapelayer"/></g><g class="infolayer"><g class="legend" pointer-events="all" transform="translate(627.74,100)"><rect class="bg" shape-rendering="crispEdges" width="60" height="45" x="0" y="0" style="stroke: rgb(68, 68, 68); stroke-opacity: 1; fill: rgb(255, 255, 255); fill-opacity: 1; stroke-width: 0px;"/><g class="scrollbox" transform="" clip-path="url('#legend79a0b3')"><text class="legendtitletext" text-anchor="start" x="2" y="15.600000000000001" style="font-family: 'Open Sans', verdana, arial, sans-serif; font-size: 12px; fill: rgb(42, 63, 95); fill-opacity: 1; white-space: pre;">All</text><g class="groups" transform=""><g class="traces" transform="translate(0,30.1)" style="opacity: 1;"><text class="legendtext" text-anchor="start" x="40" y="4.680000000000001" style="font-family: 'Open Sans', verdana, arial, sans-serif; font-size: 12px; fill: rgb(42, 63, 95); fill-opacity: 1; white-space: pre;">All</text><g class="layers" style="opacity: 1;"><g class="legendfill"/><g class="legendlines"><path class="js-line" d="M5,0h30" style="fill: none; stroke: rgb(99, 110, 250); stroke-opacity: 1; stroke-width: 2px;"/></g><g class="legendsymbols"><g class="legendpoints"/></g></g><rect class="legendtoggle" x="0" y="-9.5" width="54.890625" height="19" style="fill: rgb(0, 0, 0); fill-opacity: 0;"/></g></g></g><rect class="scrollbar" rx="20" ry="3" width="0" height="0" x="0" y="0" style="fill: rgb(128, 139, 164); fill-opacity: 1;"/></g><g class="g-gtitle"><text class="gtitle" x="35" y="50" text-anchor="start" dy="0em" style="font-family: 'Open Sans', verdana, arial, sans-serif; font-size: 17px; fill: rgb(42, 63, 95); opacity: 1; font-weight: normal; white-space: pre;">Singapore Vaccination Centers</text></g><g class="g-xtitle"><text class="xtitle" x="348.5" y="476.409375" text-anchor="middle" style="font-family: 'Open Sans', verdana, arial, sans-serif; font-size: 14px; fill: rgb(42, 63, 95); opacity: 1; font-weight: normal; white-space: pre;">Time</text></g><g class="g-ytitle"><text class="ytitle" transform="rotate(-90,19.840625000000003,260)" x="19.840625000000003" y="260" text-anchor="middle" style="font-family: 'Open Sans', verdana, arial, sans-serif; font-size: 14px; fill: rgb(42, 63, 95); opacity: 1; font-weight: normal; white-space: pre;">Filled/%</text></g></g></svg>