<svg class="main-svg" xmlns="http://www.w3.org/2000/svg" xmlns:xlink="http://www.w3.org/1999/xlink" width="700" height="500" style="" viewBox="0 0 700 500"><rect x="0" y="0" width="700" height="500" style="fill: rgb(255, 255, 255); fill-opacity: 1;"/><defs id="defs-e12a54"><g class="clips"><clipPath id="clipe12a54xyplot" class="plotclip"><rect width="537" height="320"/></clipPath><clipPath class="axesclip" id="clipe12a54x"><rect x="80" y="0" width="537" height="500"/></clipPath><clipPath class="axesclip" id="clipe12a54y"><rect x="0" y="100" width="700" height="320"/></clipPath><clipPath class="axesclip" id="clipe12a54xy"><rect x="80" y="100" width="537" height="320"/></clipPath></g><g class="gradients"/></defs><g class="bglayer"><rect class="bg" x="80" y="100" width="537" height="320" style="fill: rgb(229, 236, 246); fill-opacity: 1; stroke-width: 0;"/></g><g class="layer-below"><g class="imagelayer"/><g class="shapelayer"/></g><g class="cartesianlayer"><g class="subplot xy"><g class="layer-subplot"><g class="shapelayer"/><g class="imagelayer"/></g><g class="gridlayer"><g class="x"><path class="xgrid crisp" transform="translate(82.85,0)" d="M0,100v320" style="stroke: rgb(255, 255, 255); stroke-opacity: 1; stroke-width: 1px;"/><path class="xgrid crisp" transform="translate(192.70999999999998,0)" d="M0,100v320" style="stroke: rgb(255, 255, 255); stroke-opacity: 1; stroke-width: 1px;"/><path class="xgrid crisp" transform="translate(302.57,0)" d="M0,100v320" style="stroke: rgb(255, 255, 255); stroke-opacity: 1; stroke-width: 1px;"/><path class="xgrid crisp" transform="translate(412.42,0)" d="M0,100v320" style="stroke: rgb(255, 255, 255); stroke-opacity: 1; stroke-width: 1px;"/><path class="xgrid crisp" transform="translate(522.28,0)" d="M0,100v320" style="stroke: rgb(255, 255, 255); stroke-opacity: 1; stroke-width: 1px;"/></g><g class="y"><path class="ygrid crisp" transform="translate(0,392.55)" d="M80,0h537" style="stroke: rgb(255, 255, 255); stroke-opacity: 1; stroke-width: 1px;"/><path class="ygrid crisp" transform="translate(0,349.77)" d="M80,0h537" style="stroke: rgb(255, 255, 255); stroke-opacity: 1; stroke-width: 1px;"/><path class="ygrid crisp" transform="translate(0,306.99)" d="M80,0h537" style="stroke: rgb(255, 255, 255); stroke-opacity: 1; stroke-width: 1px;"/><path class="ygrid crisp" transform="translate(0,264.21000000000004)" d="M80,0h537" style="stroke: rgb(255, 255, 255); stroke-opacity: 1; stroke-width: 1px;"/><path class="ygrid crisp" transform="translate(0,221.43)" d="M80,0h537" style="stroke: rgb(255, 255, 255); stroke-opacity: 1; stroke-width: 1px;"/><path class="ygrid crisp" transform="translate(0,178.65)" d="M80,0h537" style="stroke: rgb(255, 255, 255); stroke-opacity: 1; stroke-width: 1px;"/><path class="ygrid crisp" transform="translate(0,135.87)" d="M80,0h537" style="stroke: rgb(255, 255, 255); stroke-opacity: 1; stroke-width: 1px;"/></g></g><g class="zerolinelayer"/><path class="xlines-below"/><path class="ylines-below"/><g class="overlines-below"/><g class="xaxislayer-below"/><g class="yaxislayer-below"/><g class="overaxes-below"/><g class="plot" transform="translate(80,100)" clip-path="url('#clipe12a54xyplot')"><g class="scatterlayer mlayer"><g class="trace scatter trace87f928" style="stroke-miterlimit: 2; opacity: 1;"><g class="fills"/><g class="errorbars"/><g class="lines"><path class="js-line" d="M0,304L2.2,302.59L2.96,249.74L3.73,251.04L4.49,249.35L7.54,248.71L8.3,248.32L9.83,249.1L10.59,248.19L12.12,248.58L12.88,248.19L14.4,247.93L15.17,247.67L16.69,247.41L17.46,247.16L23.56,246.77L24.32,246.51L28.9,246.12L29.66,245.73L31.19,245.86L31.95,245.22L33.48,245.09L34.24,244.44L35,244.96L35.77,244.57L37.29,243.92L38.06,244.57L39.58,242.5L40.34,242.24L42.63,242.24L43.4,243.15L44.92,240.17L45.68,240.69L46.44,240.69L47.21,239.78L50.26,237.84L51.02,236.94L52.55,238.23L53.31,237.07L54.07,235L54.84,235.51L55.6,236.55L56.36,235L57.89,232.67L58.65,232.28L60.18,230.6L60.94,231.12L62.46,229.95L63.23,230.21L63.99,231.76L64.75,229.56L67.05,230.6L67.81,230.21L70.1,226.07L70.86,226.85L72.38,225.68L73.15,227.36L73.91,227.11L74.67,225.55L77.72,221.16L78.49,218.44L79.25,219.09L80.01,217.66L80.78,216.63L81.54,217.4L83.07,217.66L83.83,218.7L86.88,216.5L87.64,216.37L89.17,215.72L89.93,214.69L90.69,214.3L91.46,214.82L92.98,215.98L93.74,214.43L96.03,213.39L96.8,212.88L98.32,212.23L99.09,211.45L101.37,212.23L102.14,211.84L103.67,211.58L104.43,211.84L105.95,210.42L106.72,208.87L108.24,207.7L109.01,206.93L110.53,207.96L111.29,207.44L112.06,207.96L112.82,142.27L115.11,140.18L115.87,140.44L117.4,139.92L118.16,139.01L119.69,139.14L120.45,139.14L123.5,138.48L124.26,138.35L126.55,137.83L127.31,137.96L134.18,137.96L134.94,138.09L140.28,137.83L141.05,137.18L143.33,137.18L144.1,136.14L147.14,136.27L147.91,135.74L149.43,135.88L150.2,135.22L151.73,134.57L152.49,135.22L155.54,132.22L156.3,133.27L158.59,131.57L159.35,132.22L162.4,128.44L163.17,130.14L166.22,127.14L166.98,128.05L168.51,126.48L169.27,127.66L170.03,128.7L170.8,127.79L171.56,128.83L172.32,128.31L173.08,127.4L173.85,128.44L174.61,127.79L175.37,128.18L177.66,128.83L178.43,128.44L179.97,126.48L180.72,125.05L182.25,124.92L183.01,125.44L183.78,125.96L184.54,124.01L187.59,123.09L188.36,121.4L191.41,121.92L192.17,120.61L192.93,118.4L193.7,119.96L194.46,119.96L195.22,118.79L195.98,119.7L196.75,119.18L198.27,117.35L199.04,117.48L201.33,114.35L202.09,114.48L203.62,112.14L204.38,112.92L205.9,110.83L206.67,111.35L208.95,110.7L209.72,108.09L210.48,107.96L211.24,106.92L212.01,105.48L212.77,105.74L213.53,106L214.29,107.18L215.06,107.83L215.82,107.18L216.59,109.13L217.35,108.35L218.11,108.22L218.87,106.66L219.63,106.27L220.4,106.79L221.92,107.05L222.69,61.25L224.21,59.41L224.97,59.15L227.26,57.57L228.02,57.17L229.55,57.04L230.31,56.78L233.36,55.46L234.13,54.54L235.66,54.28L236.42,54.81L239.47,53.75L240.23,53.62L241.76,53.62L242.52,53.75L254.72,51.78L255.49,52.18L257.78,51.12L258.54,51.25L259.31,51.52L260.06,50.73L264.64,50.07L266.16,49.54L266.93,48.23L268.45,47.83L269.98,47.44L270.74,45.73L271.51,46.91L272.27,45.73L273.8,45.73L274.56,45.07L275.32,44.94L276.08,43.76L278.37,43.49L279.14,41.91L280.66,40.2L281.42,39.42L282.16,38.1L282.92,38.76L285.21,37.71L285.97,36L289.03,35.34L289.79,33.36L290.55,32.71L291.31,33.23L292.84,32.44L293.61,32.05L294.37,31.92L295.13,30.86L296.66,30.86L297.42,31.39L298.94,32.97L299.71,31.13L301.24,32.31L302.01,30.34L303.53,30.47L304.29,30.86L306.58,29.02L307.34,29.42L308.86,27.71L309.63,26.66L310.39,24.16L311.16,24.68L311.91,23.24L312.68,24.68L314.21,22.84L314.97,22.58L315.73,21.26L316.49,21.66L318.02,21.79L318.78,20.74L319.54,21.26L320.31,19.68L321.83,19.55L322.6,18.5L325.65,18.89L326.41,17.97L327.17,17.45L327.94,17.84L328.7,17.97L329.46,17.05L330.23,16L330.98,16.66L331.75,16.39L332.52,171.81L336.33,171.4L337.1,172.08L339.38,170.99L340.14,170.99L341.67,169.76L342.43,169.76L343.96,168.94L344.72,169.08L357.69,168.39L358.45,167.98L368.36,165.8L369.13,165.12L372.95,164.02L373.71,162.66L376.79,162.38L377.55,163.61L379.08,161.7L379.84,161.57L380.6,160.88L381.36,158.43L382.12,156.51L382.89,156.79L383.65,156.1L384.41,154.33L385.18,154.88L385.94,154.19L387.47,154.33L388.23,153.37L389.75,152.69L390.52,153.65L392.81,150.92L393.57,151.87L395.86,149.14L396.62,149.14L397.38,148.32L398.15,149.41L399.67,150.37L400.44,149.41L401.2,149.55L401.97,148.73L405.02,145.18L405.78,144.5L408.06,143.54L408.83,145.04L413.41,141.9L414.17,143.68L414.93,121.97L415.7,121.97L417.98,120.88L418.75,116.1L419.51,116.24L420.27,112.28L421.04,112.55L421.8,109.96L422.56,106.95L423.33,107.91L425.61,101.22L426.38,98.08L427.9,97.53L428.67,95.35L429.43,94.8L430.19,92.07L431.72,89.34L432.48,89.34L434.77,85.65L435.53,84.7L437.06,82.78L437.82,80.19L441.63,75L442.4,88.44L446.22,84.03L446.98,84.45L447.74,84.31L448.5,85.14L450.03,84.72L450.79,85.41L452.32,84.59L453.07,84.45L454.61,84.03L455.37,84.03L456.89,84.17L457.66,83.62L463,84.03L463.76,83.62L468.34,83.21L469.1,83.48L472.15,83.48L472.91,83.35L474.44,83.35L475.2,83.35L477.49,83.35L478.26,83.9L482.06,79.9L482.83,80.18L485.12,78.8L485.88,78.94L486.65,78.53L487.41,76.87L488.93,77.15L489.69,75.63L493.51,72.47L494.27,72.88L496.56,69.44L497.32,69.02L499.61,66.41L500.38,66.41L501.9,63.79L502.66,63.79L504.19,61.86L504.95,59.66L507.24,54.29L508.01,54.43L509.53,53.6L510.29,51.4L513.35,49.47L514.11,47.82L518.69,46.85L519.45,45.75L520.21,46.16L520.97,45.48L521.74,45.89L527.84,41.21L531.65,38.59L532.42,39.28L535.47,35.97L536.24,35.84L537,34.46" style="vector-effect: non-scaling-stroke; fill: none; stroke: rgb(99, 110, 250); stroke-opacity: 1; stroke-width: 2px; opacity: 1;"/></g><g class="points"/><g class="text"/></g></g></g><g class="overplot"/><path class="xlines-above crisp" d="M0,0" style="fill: none;"/><path class="ylines-above crisp" d="M0,0" style="fill: none;"/><g class="overlines-above"/><g class="xaxislayer-above"><g class="xtick"><text text-anchor="middle" x="0" y="433" transform="translate(82.85,0)" style="font-family: 'Open Sans', verdana, arial, sans-serif; font-size: 12px; fill: rgb(42, 63, 95); fill-opacity: 1; white-space: pre;"><tspan class="line" dy="0em" x="0" y="433">Aug 3</tspan><tspan class="line" dy="1.3em" x="0" y="433">2021</tspan></text></g><g class="xtick"><text text-anchor="middle" x="0" y="433" transform="translate(192.70999999999998,0)" style="font-family: 'Open Sans', verdana, arial, sans-serif; font-size: 12px; fill: rgb(42, 63, 95); fill-opacity: 1; white-space: pre;">Aug 4</text></g><g class="xtick"><text text-anchor="middle" x="0" y="433" transform="translate(302.57,0)" style="font-family: 'Open Sans', verdana, arial, sans-serif; font-size: 12px; fill: rgb(42, 63, 95); fill-opacity: 1; white-space: pre;">Aug 5</text></g><g class="xtick"><text text-anchor="middle" x="0" y="433" transform="translate(412.42,0)" style="font-family: 'Open Sans', verdana, arial, sans-serif; font-size: 12px; fill: rgb(42, 63, 95); fill-opacity: 1; white-space: pre;">Aug 6</text></g><g class="xtick"><text text-anchor="middle" x="0" y="433" transform="translate(522.28,0)" style="font-family: 'Open Sans', verdana, arial, sans-serif; font-size: 12px; fill: rgb(42, 63, 95); fill-opacity: 1; white-space: pre;">Aug 7</text></g></g><g class="yaxislayer-above"><g class="ytick"><text text-anchor="end" x="79" y="4.199999999999999" transform="translate(0,392.55)" style="font-family: 'Open Sans', verdana, arial, sans-serif; font-size: 12px; fill: rgb(42, 63, 95); fill-opacity: 1; white-space: pre;">0.864</text></g><g class="ytick"><text text-anchor="end" x="79" y="4.199999999999999" transform="translate(0,349.77)" style="font-family: 'Open Sans', verdana, arial, sans-serif; font-size: 12px; fill: rgb(42, 63, 95); fill-opacity: 1; white-space: pre;">0.865</text></g><g class="ytick"><text text-anchor="end" x="79" y="4.199999999999999" transform="translate(0,306.99)" style="font-family: 'Open Sans', verdana, arial, sans-serif; font-size: 12px; fill: rgb(42, 63, 95); fill-opacity: 1; white-space: pre;">0.866</text></g><g class="ytick"><text text-anchor="end" x="79" y="4.199999999999999" transform="translate(0,264.21000000000004)" style="font-family: 'Open Sans', verdana, arial, sans-serif; font-size: 12px; fill: rgb(42, 63, 95); fill-opacity: 1; white-space: pre;">0.867</text></g><g class="ytick"><text text-anchor="end" x="79" y="4.199999999999999" transform="translate(0,221.43)" style="font-family: 'Open Sans', verdana, arial, sans-serif; font-size: 12px; fill: rgb(42, 63, 95); fill-opacity: 1; white-space: pre;">0.868</text></g><g class="ytick"><text text-anchor="end" x="79" y="4.199999999999999" transform="translate(0,178.65)" style="font-family: 'Open Sans', verdana, arial, sans-serif; font-size: 12px; fill: rgb(42, 63, 95); fill-opacity: 1; white-space: pre;">0.869</text></g><g class="ytick"><text text-anchor="end" x="79" y="4.199999999999999" transform="translate(0,135.87)" style="font-family: 'Open Sans', verdana, arial, sans-serif; font-size: 12px; fill: rgb(42, 63, 95); fill-opacity: 1; white-space: pre;">0.87</text></g></g><g class="overaxes-above"/></g></g><g class="polarlayer"/><g class="ternarylayer"/><g class="geolayer"/><g class="funnelarealayer"/><g class="pielayer"/><g class="treemaplayer"/><g class="sunburstlayer"/><g class="glimages"/><defs id="topdefs-e12a54"><g class="clips"/><clipPath id="legende12a54"><rect width="60" height="45" x="0" y="0"/></clipPath></defs><g class="layer-above"><g class="imagelayer"/><g class="shapelayer"/></g><g class="infolayer"><g class="legend" pointer-events="all" transform="translate(627.74,100)"><rect class="bg" shape-rendering="crispEdges" width="60" height="45" x="0" y="0" style="stroke: rgb(68, 68, 68); stroke-opacity: 1; fill: rgb(255, 255, 255); fill-opacity: 1; stroke-width: 0px;"/><g class="scrollbox" transform="" clip-path="url('#legende12a54')"><text class="legendtitletext" text-anchor="start" x="2" y="15.600000000000001" style="font-family: 'Open Sans', verdana, arial, sans-serif; font-size: 12px; fill: rgb(42, 63, 95); fill-opacity: 1; white-space: pre;">All</text><g class="groups" transform=""><g class="traces" transform="translate(0,30.1)" style="opacity: 1;"><text class="legendtext" text-anchor="start" x="40" y="4.680000000000001" style="font-family: 'Open Sans', verdana, arial, sans-serif; font-size: 12px; fill: rgb(42, 63, 95); fill-opacity: 1; white-space: pre;">All</text><g class="layers" style="opacity: 1;"><g class="legendfill"/><g class="legendlines"><path class="js-line" d="M5,0h30" style="fill: none; stroke: rgb(99, 110, 250); stroke-opacity: 1; stroke-width: 2px;"/></g><g class="legendsymbols"><g class="legendpoints"/></g></g><rect class="legendtoggle" x="0" y="-9.5" width="54.890625" height="19" style="fill: rgb(0, 0, 0); fill-opacity: 0;"/></g></g></g><rect class="scrollbar" rx="20" ry="3" width="0" height="0" x="0" y="0" style="fill: rgb(128, 139, 164); fill-opacity: 1;"/></g><g class="g-gtitle"><text class="gtitle" x="35" y="50" text-anchor="start" dy="0em" style="font-family: 'Open Sans', verdana, arial, sans-serif; font-size: 17px; fill: rgb(42, 63, 95); opacity: 1; font-weight: normal; white-space: pre;">Singapore Vaccination Centers</text></g><g class="g-xtitle"><text class="xtitle" x="348.5" y="476.409375" text-anchor="middle" style="font-family: 'Open Sans', verdana, arial, sans-serif; font-size: 14px; fill: rgb(42, 63, 95); opacity: 1; font-weight: normal; white-space: pre;">Time</text></g><g class="g-ytitle"><text class="ytitle" transform="rotate(-90,19.840625000000003,260)" x="19.840625000000003" y="260" text-anchor="middle" style="font-family: 'Open Sans', verdana, arial, sans-serif; font-size: 14px; fill: rgb(42, 63, 95); opacity: 1; font-weight: normal; white-space: pre;">Filled/%</text></g></g></svg>