<svg class="main-svg" xmlns="http://www.w3.org/2000/svg" xmlns:xlink="http://www.w3.org/1999/xlink" width="700" height="500" style="" viewBox="0 0 700 500"><rect x="0" y="0" width="700" height="500" style="fill: rgb(255, 255, 255); fill-opacity: 1;"/><defs id="defs-e80a9b"><g class="clips"><clipPath id="clipe80a9bxyplot" class="plotclip"><rect width="537" height="320"/></clipPath><clipPath class="axesclip" id="clipe80a9bx"><rect x="80" y="0" width="537" height="500"/></clipPath><clipPath class="axesclip" id="clipe80a9by"><rect x="0" y="100" width="700" height="320"/></clipPath><clipPath class="axesclip" id="clipe80a9bxy"><rect x="80" y="100" width="537" height="320"/></clipPath></g><g class="gradients"/></defs><g class="bglayer"><rect class="bg" x="80" y="100" width="537" height="320" style="fill: rgb(229, 236, 246); fill-opacity: 1; stroke-width: 0;"/></g><g class="layer-below"><g class="imagelayer"/><g class="shapelayer"/></g><g class="cartesianlayer"><g class="subplot xy"><g class="layer-subplot"><g class="shapelayer"/><g class="imagelayer"/></g><g class="gridlayer"><g class="x"><path class="xgrid crisp" transform="translate(83.79,0)" d="M0,100v320" style="stroke: rgb(255, 255, 255); stroke-opacity: 1; stroke-width: 1px;"/><path class="xgrid crisp" transform="translate(156.9,0)" d="M0,100v320" style="stroke: rgb(255, 255, 255); stroke-opacity: 1; stroke-width: 1px;"/><path class="xgrid crisp" transform="translate(230,0)" d="M0,100v320" style="stroke: rgb(255, 255, 255); stroke-opacity: 1; stroke-width: 1px;"/><path class="xgrid crisp" transform="translate(303.11,0)" d="M0,100v320" style="stroke: rgb(255, 255, 255); stroke-opacity: 1; stroke-width: 1px;"/><path class="xgrid crisp" transform="translate(376.21,0)" d="M0,100v320" style="stroke: rgb(255, 255, 255); stroke-opacity: 1; stroke-width: 1px;"/><path class="xgrid crisp" transform="translate(449.31,0)" d="M0,100v320" style="stroke: rgb(255, 255, 255); stroke-opacity: 1; stroke-width: 1px;"/><path class="xgrid crisp" transform="translate(522.4200000000001,0)" d="M0,100v320" style="stroke: rgb(255, 255, 255); stroke-opacity: 1; stroke-width: 1px;"/><path class="xgrid crisp" transform="translate(595.52,0)" d="M0,100v320" style="stroke: rgb(255, 255, 255); stroke-opacity: 1; stroke-width: 1px;"/></g><g class="y"><path class="ygrid crisp" transform="translate(0,392.55)" d="M80,0h537" style="stroke: rgb(255, 255, 255); stroke-opacity: 1; stroke-width: 1px;"/><path class="ygrid crisp" transform="translate(0,349.77)" d="M80,0h537" style="stroke: rgb(255, 255, 255); stroke-opacity: 1; stroke-width: 1px;"/><path class="ygrid crisp" transform="translate(0,306.99)" d="M80,0h537" style="stroke: rgb(255, 255, 255); stroke-opacity: 1; stroke-width: 1px;"/><path class="ygrid crisp" transform="translate(0,264.21000000000004)" d="M80,0h537" style="stroke: rgb(255, 255, 255); stroke-opacity: 1; stroke-width: 1px;"/><path class="ygrid crisp" transform="translate(0,221.43)" d="M80,0h537" style="stroke: rgb(255, 255, 255); stroke-opacity: 1; stroke-width: 1px;"/><path class="ygrid crisp" transform="translate(0,178.65)" d="M80,0h537" style="stroke: rgb(255, 255, 255); stroke-opacity: 1; stroke-width: 1px;"/><path class="ygrid crisp" transform="translate(0,135.87)" d="M80,0h537" style="stroke: rgb(255, 255, 255); stroke-opacity: 1; stroke-width: 1px;"/></g></g><g class="zerolinelayer"/><path class="xlines-below"/><path class="ylines-below"/><g class="overlines-below"/><g class="xaxislayer-below"/><g class="yaxislayer-below"/><g class="overaxes-below"/><g class="plot" transform="translate(80,100)" clip-path="url('#clipe80a9bxyplot')"><g class="scatterlayer mlayer"><g class="trace scatter trace31cf0f" style="stroke-miterlimit: 2; opacity: 1;"><g class="fills"/><g class="errorbars"/><g class="lines"><path class="js-line" d="M0,304L2.93,302.59L3.94,249.74L4.96,251.04L5.98,249.35L10.03,248.71L11.05,248.32L13.08,249.1L14.1,248.19L16.13,248.58L17.14,248.19L18.15,248.45L19.17,247.93L25.27,246.9L26.28,247.16L31.36,246.77L32.37,246.51L38.47,246.12L39.48,245.73L41.51,245.86L42.53,245.22L44.55,245.09L45.57,244.44L46.59,244.96L47.6,244.57L48.61,243.66L49.63,243.92L50.65,244.57L51.66,243.02L54.7,242.11L55.72,242.63L56.74,242.24L57.75,243.15L58.77,242.24L59.79,240.17L61.81,240.69L62.83,239.78L66.89,237.84L67.91,236.94L69.93,238.23L70.95,237.07L71.96,235L72.98,235.51L74,236.55L75.01,235L77.04,232.67L78.06,232.28L80.09,230.6L81.11,231.12L83.13,229.95L84.15,230.21L85.17,231.76L86.18,229.56L89.23,230.6L90.25,230.21L92.28,226.46L93.29,226.07L94.31,226.85L95.32,225.55L96.34,225.68L97.35,227.36L98.37,227.11L99.38,225.55L103.44,221.16L104.46,218.44L105.48,219.09L106.49,217.66L107.51,216.63L108.52,217.4L110.55,217.66L111.56,218.7L115.63,216.5L116.64,216.37L118.67,215.72L119.69,214.69L120.7,214.3L121.72,214.82L122.74,215.98L123.75,215.98L125.78,213.78L126.8,213.52L129.84,212.75L130.86,212.23L131.87,211.45L132.89,211.84L137.97,211.58L138.98,211.84L141.01,210.42L142.03,208.87L143.04,207.7L144.06,207.7L145.08,206.93L146.09,207.83L149.13,207.96L150.15,142.27L153.2,140.18L154.21,140.44L156.24,139.92L157.26,139.01L159.29,139.14L160.31,139.14L164.36,138.48L165.38,138.35L168.42,137.83L169.44,137.96L178.57,137.96L179.6,138.09L186.7,137.83L187.72,137.18L190.76,137.18L191.77,136.14L195.83,136.27L196.85,135.74L198.88,135.88L199.89,135.22L201.93,134.57L202.94,135.22L205.99,132.22L207,132.22L208.02,133.27L209.03,132.88L211.07,131.57L212.08,132.22L216.14,128.44L217.16,130.14L221.22,127.14L222.24,128.05L224.26,126.48L225.28,127.66L226.29,128.7L227.31,127.79L228.33,128.83L229.34,128.31L230.35,127.4L231.37,128.44L232.39,127.79L233.4,128.18L236.45,128.83L237.47,128.44L239.51,126.48L240.52,125.05L242.55,124.92L243.57,125.44L244.59,125.96L245.6,124.01L249.67,123.09L250.68,121.4L253.73,122.44L254.74,121.92L256.77,118.4L257.79,119.96L258.81,119.96L259.82,118.79L260.83,119.7L261.85,119.18L263.88,117.35L264.9,117.48L267.94,114.35L268.96,114.48L270.99,112.14L272,112.92L274.03,110.83L275.05,111.35L278.09,110.7L279.11,108.09L280.12,107.96L281.13,106.92L282.16,105.48L283.17,105.74L284.19,106L285.2,107.18L286.22,107.83L287.23,107.18L288.26,109.13L289.26,108.35L290.28,108.22L291.29,106.66L292.31,106.27L293.32,106.79L295.35,107.05L296.37,61.25L298.4,59.41L299.41,59.15L302.46,57.57L303.47,57.17L305.51,57.04L306.52,56.78L310.58,55.46L311.6,54.54L313.63,54.28L314.65,54.81L318.71,53.75L319.72,53.62L321.75,53.62L322.77,53.75L339.01,51.78L340.03,52.18L343.07,51.12L344.08,51.25L345.11,51.52L346.11,50.73L352.21,50.07L354.23,49.54L355.25,48.23L357.28,47.83L359.31,47.44L360.33,45.73L361.34,46.91L362.36,45.73L364.39,45.73L365.4,45.07L366.42,44.94L367.44,43.76L370.48,43.49L371.5,41.91L373.53,40.2L374.54,39.42L375.53,38.1L376.54,38.76L379.59,37.71L380.6,36L384.66,35.34L385.67,33.36L386.69,32.71L387.71,33.23L389.74,32.44L390.76,32.05L391.77,31.92L392.78,30.86L394.82,30.86L395.83,31.39L397.86,32.97L398.88,31.13L400.91,32.31L401.94,30.34L403.96,30.47L404.98,30.86L408.02,29.02L409.04,29.42L411.06,27.71L412.08,26.66L413.1,24.16L414.11,24.68L415.12,23.24L416.14,24.68L418.17,22.84L419.19,22.58L420.2,21.26L421.21,21.66L423.25,21.79L424.26,20.74L425.28,21.26L426.29,19.68L428.32,19.55L429.34,18.5L433.4,18.89L434.41,17.97L435.43,17.45L436.45,17.84L437.46,17.97L438.48,17.05L439.5,16L440.5,16.66L441.53,16.39L442.54,171.81L447.62,171.4L448.64,172.08L451.68,170.99L452.69,170.99L454.73,169.76L455.74,169.76L457.77,168.94L458.78,169.08L476.05,168.39L477.06,167.98L490.25,165.8L491.27,165.12L496.35,164.02L497.37,162.66L501.46,162.38L502.47,163.61L504.51,161.7L505.52,161.57L506.54,160.88L507.55,158.43L508.56,156.51L509.58,156.79L510.6,156.1L511.61,154.33L512.63,154.88L513.64,154.19L515.68,154.33L516.69,153.37L518.72,152.69L519.74,153.65L521.76,152.01L522.78,150.92L523.8,151.87L524.81,150.64L526.84,149.14L527.86,149.14L528.87,148.32L529.89,149.41L531.92,150.37L532.94,149.41L533.95,149.55L534.97,148.73L537,146.27" style="vector-effect: non-scaling-stroke; fill: none; stroke: rgb(99, 110, 250); stroke-opacity: 1; stroke-width: 2px; opacity: 1;"/></g><g class="points"/><g class="text"/></g></g></g><g class="overplot"/><path class="xlines-above crisp" d="M0,0" style="fill: none;"/><path class="ylines-above crisp" d="M0,0" style="fill: none;"/><g class="overlines-above"/><g class="xaxislayer-above"><g class="xtick"><text text-anchor="middle" x="0" y="433" transform="translate(83.79,0)" style="font-family: 'Open Sans', verdana, arial, sans-serif; font-size: 12px; fill: rgb(42, 63, 95); fill-opacity: 1; white-space: pre;"><tspan class="line" dy="0em" x="0" y="433">00:00</tspan><tspan class="line" dy="1.3em" x="0" y="433">Aug 3, 2021</tspan></text></g><g class="xtick"><text text-anchor="middle" x="0" y="433" transform="translate(156.9,0)" style="font-family: 'Open Sans', verdana, arial, sans-serif; font-size: 12px; fill: rgb(42, 63, 95); fill-opacity: 1; white-space: pre;">12:00</text></g><g class="xtick"><text text-anchor="middle" x="0" y="433" transform="translate(230,0)" style="font-family: 'Open Sans', verdana, arial, sans-serif; font-size: 12px; fill: rgb(42, 63, 95); fill-opacity: 1; white-space: pre;"><tspan class="line" dy="0em" x="0" y="433">00:00</tspan><tspan class="line" dy="1.3em" x="0" y="433">Aug 4, 2021</tspan></text></g><g class="xtick"><text text-anchor="middle" x="0" y="433" transform="translate(303.11,0)" style="font-family: 'Open Sans', verdana, arial, sans-serif; font-size: 12px; fill: rgb(42, 63, 95); fill-opacity: 1; white-space: pre;">12:00</text></g><g class="xtick"><text text-anchor="middle" x="0" y="433" transform="translate(376.21,0)" style="font-family: 'Open Sans', verdana, arial, sans-serif; font-size: 12px; fill: rgb(42, 63, 95); fill-opacity: 1; white-space: pre;"><tspan class="line" dy="0em" x="0" y="433">00:00</tspan><tspan class="line" dy="1.3em" x="0" y="433">Aug 5, 2021</tspan></text></g><g class="xtick"><text text-anchor="middle" x="0" y="433" transform="translate(449.31,0)" style="font-family: 'Open Sans', verdana, arial, sans-serif; font-size: 12px; fill: rgb(42, 63, 95); fill-opacity: 1; white-space: pre;">12:00</text></g><g class="xtick"><text text-anchor="middle" x="0" y="433" transform="translate(522.4200000000001,0)" style="font-family: 'Open Sans', verdana, arial, sans-serif; font-size: 12px; fill: rgb(42, 63, 95); fill-opacity: 1; white-space: pre;"><tspan class="line" dy="0em" x="0" y="433">00:00</tspan><tspan class="line" dy="1.3em" x="0" y="433">Aug 6, 2021</tspan></text></g><g class="xtick"><text text-anchor="middle" x="0" y="433" transform="translate(595.52,0)" style="font-family: 'Open Sans', verdana, arial, sans-serif; font-size: 12px; fill: rgb(42, 63, 95); fill-opacity: 1; white-space: pre;">12:00</text></g></g><g class="yaxislayer-above"><g class="ytick"><text text-anchor="end" x="79" y="4.199999999999999" transform="translate(0,392.55)" style="font-family: 'Open Sans', verdana, arial, sans-serif; font-size: 12px; fill: rgb(42, 63, 95); fill-opacity: 1; white-space: pre;">0.864</text></g><g class="ytick"><text text-anchor="end" x="79" y="4.199999999999999" transform="translate(0,349.77)" style="font-family: 'Open Sans', verdana, arial, sans-serif; font-size: 12px; fill: rgb(42, 63, 95); fill-opacity: 1; white-space: pre;">0.865</text></g><g class="ytick"><text text-anchor="end" x="79" y="4.199999999999999" transform="translate(0,306.99)" style="font-family: 'Open Sans', verdana, arial, sans-serif; font-size: 12px; fill: rgb(42, 63, 95); fill-opacity: 1; white-space: pre;">0.866</text></g><g class="ytick"><text text-anchor="end" x="79" y="4.199999999999999" transform="translate(0,264.21000000000004)" style="font-family: 'Open Sans', verdana, arial, sans-serif; font-size: 12px; fill: rgb(42, 63, 95); fill-opacity: 1; white-space: pre;">0.867</text></g><g class="ytick"><text text-anchor="end" x="79" y="4.199999999999999" transform="translate(0,221.43)" style="font-family: 'Open Sans', verdana, arial, sans-serif; font-size: 12px; fill: rgb(42, 63, 95); fill-opacity: 1; white-space: pre;">0.868</text></g><g class="ytick"><text text-anchor="end" x="79" y="4.199999999999999" transform="translate(0,178.65)" style="font-family: 'Open Sans', verdana, arial, sans-serif; font-size: 12px; fill: rgb(42, 63, 95); fill-opacity: 1; white-space: pre;">0.869</text></g><g class="ytick"><text text-anchor="end" x="79" y="4.199999999999999" transform="translate(0,135.87)" style="font-family: 'Open Sans', verdana, arial, sans-serif; font-size: 12px; fill: rgb(42, 63, 95); fill-opacity: 1; white-space: pre;">0.87</text></g></g><g class="overaxes-above"/></g></g><g class="polarlayer"/><g class="ternarylayer"/><g class="geolayer"/><g class="funnelarealayer"/><g class="pielayer"/><g class="treemaplayer"/><g class="sunburstlayer"/><g class="glimages"/><defs id="topdefs-e80a9b"><g class="clips"/><clipPath id="legende80a9b"><rect width="60" height="45" x="0" y="0"/></clipPath></defs><g class="layer-above"><g class="imagelayer"/><g class="shapelayer"/></g><g class="infolayer"><g class="legend" pointer-events="all" transform="translate(627.74,100)"><rect class="bg" shape-rendering="crispEdges" width="60" height="45" x="0" y="0" style="stroke: rgb(68, 68, 68); stroke-opacity: 1; fill: rgb(255, 255, 255); fill-opacity: 1; stroke-width: 0px;"/><g class="scrollbox" transform="" clip-path="url('#legende80a9b')"><text class="legendtitletext" text-anchor="start" x="2" y="15.600000000000001" style="font-family: 'Open Sans', verdana, arial, sans-serif; font-size: 12px; fill: rgb(42, 63, 95); fill-opacity: 1; white-space: pre;">All</text><g class="groups" transform=""><g class="traces" transform="translate(0,30.1)" style="opacity: 1;"><text class="legendtext" text-anchor="start" x="40" y="4.680000000000001" style="font-family: 'Open Sans', verdana, arial, sans-serif; font-size: 12px; fill: rgb(42, 63, 95); fill-opacity: 1; white-space: pre;">All</text><g class="layers" style="opacity: 1;"><g class="legendfill"/><g class="legendlines"><path class="js-line" d="M5,0h30" style="fill: none; stroke: rgb(99, 110, 250); stroke-opacity: 1; stroke-width: 2px;"/></g><g class="legendsymbols"><g class="legendpoints"/></g></g><rect class="legendtoggle" x="0" y="-9.5" width="54.890625" height="19" style="fill: rgb(0, 0, 0); fill-opacity: 0;"/></g></g></g><rect class="scrollbar" rx="20" ry="3" width="0" height="0" x="0" y="0" style="fill: rgb(128, 139, 164); fill-opacity: 1;"/></g><g class="g-gtitle"><text class="gtitle" x="35" y="50" text-anchor="start" dy="0em" style="font-family: 'Open Sans', verdana, arial, sans-serif; font-size: 17px; fill: rgb(42, 63, 95); opacity: 1; font-weight: normal; white-space: pre;">Singapore Vaccination Centers</text></g><g class="g-xtitle"><text class="xtitle" x="348.5" y="476.409375" text-anchor="middle" style="font-family: 'Open Sans', verdana, arial, sans-serif; font-size: 14px; fill: rgb(42, 63, 95); opacity: 1; font-weight: normal; white-space: pre;">Time</text></g><g class="g-ytitle"><text class="ytitle" transform="rotate(-90,19.840625000000003,260)" x="19.840625000000003" y="260" text-anchor="middle" style="font-family: 'Open Sans', verdana, arial, sans-serif; font-size: 14px; fill: rgb(42, 63, 95); opacity: 1; font-weight: normal; white-space: pre;">Filled/%</text></g></g></svg>