<svg class="main-svg" xmlns="http://www.w3.org/2000/svg" xmlns:xlink="http://www.w3.org/1999/xlink" width="700" height="500" style="" viewBox="0 0 700 500"><rect x="0" y="0" width="700" height="500" style="fill: rgb(255, 255, 255); fill-opacity: 1;"/><defs id="defs-68bf4c"><g class="clips"><clipPath id="clip68bf4cxyplot" class="plotclip"><rect width="537" height="320"/></clipPath><clipPath class="axesclip" id="clip68bf4cx"><rect x="80" y="0" width="537" height="500"/></clipPath><clipPath class="axesclip" id="clip68bf4cy"><rect x="0" y="100" width="700" height="320"/></clipPath><clipPath class="axesclip" id="clip68bf4cxy"><rect x="80" y="100" width="537" height="320"/></clipPath></g><g class="gradients"/></defs><g class="bglayer"><rect class="bg" x="80" y="100" width="537" height="320" style="fill: rgb(229, 236, 246); fill-opacity: 1; stroke-width: 0;"/></g><g class="layer-below"><g class="imagelayer"/><g class="shapelayer"/></g><g class="cartesianlayer"><g class="subplot xy"><g class="layer-subplot"><g class="shapelayer"/><g class="imagelayer"/></g><g class="gridlayer"><g class="x"><path class="xgrid crisp" transform="translate(92.77,0)" d="M0,100v320" style="stroke: rgb(255, 255, 255); stroke-opacity: 1; stroke-width: 1px;"/><path class="xgrid crisp" transform="translate(230.25,0)" d="M0,100v320" style="stroke: rgb(255, 255, 255); stroke-opacity: 1; stroke-width: 1px;"/><path class="xgrid crisp" transform="translate(367.74,0)" d="M0,100v320" style="stroke: rgb(255, 255, 255); stroke-opacity: 1; stroke-width: 1px;"/><path class="xgrid crisp" transform="translate(505.23,0)" d="M0,100v320" style="stroke: rgb(255, 255, 255); stroke-opacity: 1; stroke-width: 1px;"/></g><g class="y"><path class="ygrid crisp" transform="translate(0,388.55)" d="M80,0h537" style="stroke: rgb(255, 255, 255); stroke-opacity: 1; stroke-width: 1px;"/><path class="ygrid crisp" transform="translate(0,328.59000000000003)" d="M80,0h537" style="stroke: rgb(255, 255, 255); stroke-opacity: 1; stroke-width: 1px;"/><path class="ygrid crisp" transform="translate(0,268.62)" d="M80,0h537" style="stroke: rgb(255, 255, 255); stroke-opacity: 1; stroke-width: 1px;"/><path class="ygrid crisp" transform="translate(0,208.65)" d="M80,0h537" style="stroke: rgb(255, 255, 255); stroke-opacity: 1; stroke-width: 1px;"/><path class="ygrid crisp" transform="translate(0,148.69)" d="M80,0h537" style="stroke: rgb(255, 255, 255); stroke-opacity: 1; stroke-width: 1px;"/></g></g><g class="zerolinelayer"/><path class="xlines-below"/><path class="ylines-below"/><g class="overlines-below"/><g class="xaxislayer-below"/><g class="yaxislayer-below"/><g class="overaxes-below"/><g class="plot" transform="translate(80,100)" clip-path="url('#clip68bf4cxyplot')"><g class="scatterlayer mlayer"><g class="trace scatter tracea5a2a3" style="stroke-miterlimit: 2; opacity: 1;"><g class="fills"/><g class="errorbars"/><g class="lines"><path class="js-line" d="M0,151.19L8.06,151.66L10.92,229.1L16.62,229.27L18.73,262.63L19.62,262.59L40.71,264.75L42.02,230.62L42.42,247.75L43.38,247.62L45.29,241.12L46.24,240.91L48.15,248.08L49.11,247.91L51.02,254.04L51.97,253.87L53.88,229.53L54.84,229.39L56.74,253.89L57.7,253.71L59.61,241.74L60.56,234.89L62.47,214.27L63.43,206.72L65.34,176.26L66.29,172.83L68.2,134.64L69.16,132L71.07,144.05L72.02,141.9L73.93,113.25L74.88,111.49L76.79,116.91L77.75,115.59L79.66,134.84L80.61,133.95L81.87,89.08L82.52,90.52L83.48,90.13L89.21,89.24L90.16,89.09L105.43,88.15L106.39,87.9L110.21,86.16L111.16,85.57L128.35,75.25L129.31,74.69L135.03,72.26L135.99,71.89L149.36,66.89L150.31,68.6L159.86,68.01L160.81,68L178.95,67.22L179.91,67.01L218.1,58.48L219.06,55.84L230.51,55.49L231.47,55.49L245.79,54.9L246.74,54.72L261.06,51.59L262.02,51.4L283.02,47.34L283.98,47.14L286.85,46.7L287.81,41.63L304.03,41.35L304.99,41.34L316.45,40.62L317.4,40.47L320.27,40.09L321.22,177.9L328.89,174.99L329.85,174.7L333.63,173.3L334.59,170.02L336.5,165.13L337.45,163.9L338.41,161.87L339.36,156.05L341.27,139.75L342.23,136.11L346.05,127.34L347,125.71L351.78,119.81L352.73,118.87L355.59,116.83L356.55,116.97L360.37,115.8L361.32,115.71L372.78,115.2L373.73,115.19L381.37,114.44L382.32,114.25L389.97,110.82L390.92,110.1L394.74,106.69L395.69,111.42L398.56,109.69L399.51,108.08L405.24,93.54L406.2,91.96L409.06,85.93L410.01,83.58L410.97,81.23L411.92,76.19L414.79,64.63L415.74,62.22L420.52,53.04L421.47,51.69L424.34,48.8L425.29,49.12L429.11,47.64L430.07,47.48L438.66,46.79L439.62,46.74L447.25,45.95L448.21,45.71L452.98,43.17L453.93,42.54L456.8,40.66L457.75,135.95L459.66,132.71L460.62,131.76L468.26,125.54L469.21,125.01L471.12,123.7L471.86,130.07L472.08,122.85L472.99,122.57L473.03,124.6L473.94,121.95L473.99,123.98L474.94,123.33L476.85,122.24L477.81,139.26L486.17,134.11L486.2,130.85L486.25,130.28L486.4,133.76L495.47,74.61L495.94,74.88L496.43,68.92L497.38,69.28L497.86,71.47L499.29,59.71L499.77,68.22L500.72,65.31L501.2,64.27L503.11,61.13L503.59,62.83L504.07,61.41L504.54,61.96L505.02,61.73L506.45,61.69L506.93,71.11L508.84,70.86L509.31,69.29L509.79,70.36L510.27,70.09L510.74,69.01L511.7,68.96L512.18,68.4L513.13,57.64L513.61,56.31L516,51.51L516.47,48.58L516.95,48.66L517.43,46.17L518.38,37.58L518.86,35.63L519.34,34.38L519.82,29.12L520.29,16L520.77,17.64L521.25,269.28L521.73,267.32L522.2,273.13L523.16,262.37L523.64,266.85L524.59,261.05L525.07,262.03L525.55,271.47L526.02,282.53L526.5,255.49L527.45,265.01L527.93,304L529.36,255.72L529.84,280.01L530.32,286.09L530.79,282.54L531.27,277.11L532.23,257.41L532.7,260.16L533.66,281.24L534.14,273.19L534.61,272.46L535.09,292.91L536.04,270.62L536.52,286.61L537,265.62" style="vector-effect: non-scaling-stroke; fill: none; stroke: rgb(99, 110, 250); stroke-opacity: 1; stroke-width: 2px; opacity: 1;"/></g><g class="points"/><g class="text"/></g></g></g><g class="overplot"/><path class="xlines-above crisp" d="M0,0" style="fill: none;"/><path class="ylines-above crisp" d="M0,0" style="fill: none;"/><g class="overlines-above"/><g class="xaxislayer-above"><g class="xtick"><text text-anchor="middle" x="0" y="433" transform="translate(92.77,0)" style="font-family: 'Open Sans', verdana, arial, sans-serif; font-size: 12px; fill: rgb(42, 63, 95); fill-opacity: 1; white-space: pre;"><tspan class="line" dy="0em" x="0" y="433">Jun 4</tspan><tspan class="line" dy="1.3em" x="0" y="433">2021</tspan></text></g><g class="xtick"><text text-anchor="middle" x="0" y="433" transform="translate(230.25,0)" style="font-family: 'Open Sans', verdana, arial, sans-serif; font-size: 12px; fill: rgb(42, 63, 95); fill-opacity: 1; white-space: pre;">Jun 6</text></g><g class="xtick"><text text-anchor="middle" x="0" y="433" transform="translate(367.74,0)" style="font-family: 'Open Sans', verdana, arial, sans-serif; font-size: 12px; fill: rgb(42, 63, 95); fill-opacity: 1; white-space: pre;">Jun 8</text></g><g class="xtick"><text text-anchor="middle" x="0" y="433" transform="translate(505.23,0)" style="font-family: 'Open Sans', verdana, arial, sans-serif; font-size: 12px; fill: rgb(42, 63, 95); fill-opacity: 1; white-space: pre;">Jun 10</text></g></g><g class="yaxislayer-above"><g class="ytick"><text text-anchor="end" x="79" y="4.199999999999999" transform="translate(0,388.55)" style="font-family: 'Open Sans', verdana, arial, sans-serif; font-size: 12px; fill: rgb(42, 63, 95); fill-opacity: 1; white-space: pre;">0.84</text></g><g class="ytick"><text text-anchor="end" x="79" y="4.199999999999999" transform="translate(0,328.59000000000003)" style="font-family: 'Open Sans', verdana, arial, sans-serif; font-size: 12px; fill: rgb(42, 63, 95); fill-opacity: 1; white-space: pre;">0.85</text></g><g class="ytick"><text text-anchor="end" x="79" y="4.199999999999999" transform="translate(0,268.62)" style="font-family: 'Open Sans', verdana, arial, sans-serif; font-size: 12px; fill: rgb(42, 63, 95); fill-opacity: 1; white-space: pre;">0.86</text></g><g class="ytick"><text text-anchor="end" x="79" y="4.199999999999999" transform="translate(0,208.65)" style="font-family: 'Open Sans', verdana, arial, sans-serif; font-size: 12px; fill: rgb(42, 63, 95); fill-opacity: 1; white-space: pre;">0.87</text></g><g class="ytick"><text text-anchor="end" x="79" y="4.199999999999999" transform="translate(0,148.69)" style="font-family: 'Open Sans', verdana, arial, sans-serif; font-size: 12px; fill: rgb(42, 63, 95); fill-opacity: 1; white-space: pre;">0.88</text></g></g><g class="overaxes-above"/></g></g><g class="polarlayer"/><g class="ternarylayer"/><g class="geolayer"/><g class="funnelarealayer"/><g class="pielayer"/><g class="treemaplayer"/><g class="sunburstlayer"/><g class="glimages"/><defs id="topdefs-68bf4c"><g class="clips"/><clipPath id="legend68bf4c"><rect width="60" height="45" x="0" y="0"/></clipPath></defs><g class="layer-above"><g class="imagelayer"/><g class="shapelayer"/></g><g class="infolayer"><g class="legend" pointer-events="all" transform="translate(627.74,100)"><rect class="bg" shape-rendering="crispEdges" width="60" height="45" x="0" y="0" style="stroke: rgb(68, 68, 68); stroke-opacity: 1; fill: rgb(255, 255, 255); fill-opacity: 1; stroke-width: 0px;"/><g class="scrollbox" transform="" clip-path="url('#legend68bf4c')"><text class="legendtitletext" text-anchor="start" x="2" y="15.600000000000001" style="font-family: 'Open Sans', verdana, arial, sans-serif; font-size: 12px; fill: rgb(42, 63, 95); fill-opacity: 1; white-space: pre;">All</text><g class="groups" transform=""><g class="traces" transform="translate(0,30.1)" style="opacity: 1;"><text class="legendtext" text-anchor="start" x="40" y="4.680000000000001" style="font-family: 'Open Sans', verdana, arial, sans-serif; font-size: 12px; fill: rgb(42, 63, 95); fill-opacity: 1; white-space: pre;">All</text><g class="layers" style="opacity: 1;"><g class="legendfill"/><g class="legendlines"><path class="js-line" d="M5,0h30" style="fill: none; stroke: rgb(99, 110, 250); stroke-opacity: 1; stroke-width: 2px;"/></g><g class="legendsymbols"><g class="legendpoints"/></g></g><rect class="legendtoggle" x="0" y="-9.5" width="54.890625" height="19" style="fill: rgb(0, 0, 0); fill-opacity: 0;"/></g></g></g><rect class="scrollbar" rx="20" ry="3" width="0" height="0" x="0" y="0" style="fill: rgb(128, 139, 164); fill-opacity: 1;"/></g><g class="g-gtitle"><text class="gtitle" x="35" y="50" text-anchor="start" dy="0em" style="font-family: 'Open Sans', verdana, arial, sans-serif; font-size: 17px; fill: rgb(42, 63, 95); opacity: 1; font-weight: normal; white-space: pre;">Singapore Vaccination Centers</text></g><g class="g-xtitle"><text class="xtitle" x="348.5" y="476.409375" text-anchor="middle" style="font-family: 'Open Sans', verdana, arial, sans-serif; font-size: 14px; fill: rgb(42, 63, 95); opacity: 1; font-weight: normal; white-space: pre;">Time</text></g><g class="g-ytitle"><text class="ytitle" transform="rotate(-90,27.481250000000003,260)" x="27.481250000000003" y="260" text-anchor="middle" style="font-family: 'Open Sans', verdana, arial, sans-serif; font-size: 14px; fill: rgb(42, 63, 95); opacity: 1; font-weight: normal; white-space: pre;">Filled/%</text></g></g></svg>