<svg class="main-svg" xmlns="http://www.w3.org/2000/svg" xmlns:xlink="http://www.w3.org/1999/xlink" width="700" height="500" style="" viewBox="0 0 700 500"><rect x="0" y="0" width="700" height="500" style="fill: rgb(255, 255, 255); fill-opacity: 1;"/><defs id="defs-050b7d"><g class="clips"><clipPath id="clip050b7dxyplot" class="plotclip"><rect width="537" height="320"/></clipPath><clipPath class="axesclip" id="clip050b7dx"><rect x="80" y="0" width="537" height="500"/></clipPath><clipPath class="axesclip" id="clip050b7dy"><rect x="0" y="100" width="700" height="320"/></clipPath><clipPath class="axesclip" id="clip050b7dxy"><rect x="80" y="100" width="537" height="320"/></clipPath></g><g class="gradients"/></defs><g class="bglayer"><rect class="bg" x="80" y="100" width="537" height="320" style="fill: rgb(229, 236, 246); fill-opacity: 1; stroke-width: 0;"/></g><g class="layer-below"><g class="imagelayer"/><g class="shapelayer"/></g><g class="cartesianlayer"><g class="subplot xy"><g class="layer-subplot"><g class="shapelayer"/><g class="imagelayer"/></g><g class="gridlayer"><g class="x"><path class="xgrid crisp" transform="translate(86.01,0)" d="M0,100v320" style="stroke: rgb(255, 255, 255); stroke-opacity: 1; stroke-width: 1px;"/><path class="xgrid crisp" transform="translate(201.81,0)" d="M0,100v320" style="stroke: rgb(255, 255, 255); stroke-opacity: 1; stroke-width: 1px;"/><path class="xgrid crisp" transform="translate(317.61,0)" d="M0,100v320" style="stroke: rgb(255, 255, 255); stroke-opacity: 1; stroke-width: 1px;"/><path class="xgrid crisp" transform="translate(433.4,0)" d="M0,100v320" style="stroke: rgb(255, 255, 255); stroke-opacity: 1; stroke-width: 1px;"/><path class="xgrid crisp" transform="translate(549.2,0)" d="M0,100v320" style="stroke: rgb(255, 255, 255); stroke-opacity: 1; stroke-width: 1px;"/></g><g class="y"><path class="ygrid crisp" transform="translate(0,390.94)" d="M80,0h537" style="stroke: rgb(255, 255, 255); stroke-opacity: 1; stroke-width: 1px;"/><path class="ygrid crisp" transform="translate(0,342.14)" d="M80,0h537" style="stroke: rgb(255, 255, 255); stroke-opacity: 1; stroke-width: 1px;"/><path class="ygrid crisp" transform="translate(0,293.34000000000003)" d="M80,0h537" style="stroke: rgb(255, 255, 255); stroke-opacity: 1; stroke-width: 1px;"/><path class="ygrid crisp" transform="translate(0,244.54)" d="M80,0h537" style="stroke: rgb(255, 255, 255); stroke-opacity: 1; stroke-width: 1px;"/><path class="ygrid crisp" transform="translate(0,195.75)" d="M80,0h537" style="stroke: rgb(255, 255, 255); stroke-opacity: 1; stroke-width: 1px;"/><path class="ygrid crisp" transform="translate(0,146.95)" d="M80,0h537" style="stroke: rgb(255, 255, 255); stroke-opacity: 1; stroke-width: 1px;"/></g></g><g class="zerolinelayer"/><path class="xlines-below"/><path class="ylines-below"/><g class="overlines-below"/><g class="xaxislayer-below"/><g class="yaxislayer-below"/><g class="overaxes-below"/><g class="plot" transform="translate(80,100)" clip-path="url('#clip050b7dxyplot')"><g class="scatterlayer mlayer"><g class="trace scatter trace00f48b" style="stroke-miterlimit: 2; opacity: 1;"><g class="fills"/><g class="errorbars"/><g class="lines"><path class="js-line" d="M0,304L4.63,302.39L6.25,242.11L7.85,243.59L9.46,241.67L15.89,240.93L17.5,240.49L20.72,241.37L22.33,240.34L23.98,241.08L25.55,240.78L31.98,239.75L33.59,240.04L36.81,239.16L38.41,239.16L41.63,239.16L43.23,239.16L48.06,238.86L49.67,238.72L54.49,238.57L56.1,238.72L60.93,237.98L62.54,237.54L65.75,237.68L67.36,236.95L70.57,236.8L72.18,236.06L73.8,236.65L75.4,236.21L77,235.18L78.62,235.47L80.23,236.21L81.84,234.44L86.65,233.4L88.26,234L89.87,233.55L91.48,234.59L93.09,233.55L94.7,231.19L97.91,231.78L99.52,230.75L105.96,228.54L107.57,227.5L110.77,228.98L112.39,227.65L113.99,225.29L115.61,225.88L117.21,227.06L118.82,225.29L120.43,223.37L122.04,222.63L125.25,221.16L126.87,220.27L128.47,220.86L130.08,219.98L133.3,219.83L134.91,221.6L136.51,219.09L138.12,219.54L139.73,219.24L141.34,220.27L142.95,219.83L144.56,217.47L146.17,215.55L147.78,215.11L149.38,215.99L150.99,214.52L152.6,214.67L154.2,216.58L155.82,216.29L157.42,214.52L162.25,210.98L163.86,209.5L165.46,206.4L167.08,207.14L170.29,204.34L171.9,205.22L175.11,205.52L176.72,206.7L183.17,204.19L184.76,204.04L187.98,203.3L189.6,202.12L191.2,201.68L192.81,202.27L194.42,203.6L196.02,203.6L199.24,201.09L200.85,200.8L205.67,199.91L207.28,199.32L208.89,198.44L210.5,198.88L218.54,198.58L220.15,198.88L223.36,197.25L224.98,195.48L226.58,194.16L228.19,194.16L229.8,193.27L231.41,194.3L236.23,194.45L237.84,119.52L242.67,117.13L244.28,117.43L247.49,116.84L249.1,115.8L252.32,115.94L253.93,115.94L260.36,115.2L261.96,115.05L266.79,114.46L268.4,114.61L282.87,114.61L284.48,114.75L295.73,114.46L297.35,113.71L302.17,113.71L303.78,112.52L310.2,112.67L311.82,112.08L315.03,112.22L316.64,111.48L319.87,110.74L321.47,111.48L326.29,108.06L327.89,108.06L329.51,109.25L331.11,108.8L334.34,107.31L335.94,108.06L339.16,105.68L340.76,105.68L342.37,103.74L343.98,105.68L350.41,102.26L352.03,103.3L355.24,101.51L356.85,102.85L358.46,104.04L360.06,103L361.68,104.19L363.28,103.59L364.89,102.55L366.5,103.74L368.11,103L369.71,103.45L372.93,104.64L374.54,104.19L377.78,102.85L379.4,101.51L380.99,99.88L382.61,99.58L385.82,100.32L387.43,100.92L389.04,98.68L390.64,98.39L395.48,97.64L397.09,95.71L401.91,96.9L403.52,96.3L405.13,94.82L406.73,92.29L408.34,94.07L409.96,94.07L411.56,92.73L413.17,93.77L416.38,91.84L417.99,91.1L419.6,91.25L421.21,89.91L424.43,87.67L426.03,87.82L429.25,85.14L430.86,86.04L434.07,83.66L435.69,84.25L440.5,83.51L442.11,80.53L443.72,80.38L445.32,79.19L446.94,77.56L448.55,77.85L450.16,78.15L451.76,79.49L453.38,80.23L454.98,79.49L456.6,81.72L458.2,80.83L459.81,80.68L461.41,78.9L463.02,78.45L464.63,79.04L467.85,79.34L469.46,27.1L472.67,25L474.28,24.7L477.49,23.95L479.11,22.9L483.93,22.3L485.53,22L491.97,20.5L493.58,19.45L496.8,19.15L498.41,19.75L503.23,18.4L504.84,18.55L514.49,18.1L516.1,18.1L524.13,17.05L525.74,17.35L532.18,16.3L533.79,16.6L535.39,16L537,16.3" style="vector-effect: non-scaling-stroke; fill: none; stroke: rgb(99, 110, 250); stroke-opacity: 1; stroke-width: 2px; opacity: 1;"/></g><g class="points"/><g class="text"/></g></g></g><g class="overplot"/><path class="xlines-above crisp" d="M0,0" style="fill: none;"/><path class="ylines-above crisp" d="M0,0" style="fill: none;"/><g class="overlines-above"/><g class="xaxislayer-above"><g class="xtick"><text text-anchor="middle" x="0" y="433" transform="translate(86.01,0)" style="font-family: 'Open Sans', verdana, arial, sans-serif; font-size: 12px; fill: rgb(42, 63, 95); fill-opacity: 1; white-space: pre;"><tspan class="line" dy="0em" x="0" y="433">00:00</tspan><tspan class="line" dy="1.3em" x="0" y="433">Aug 3, 2021</tspan></text></g><g class="xtick"><text text-anchor="middle" x="0" y="433" transform="translate(201.81,0)" style="font-family: 'Open Sans', verdana, arial, sans-serif; font-size: 12px; fill: rgb(42, 63, 95); fill-opacity: 1; white-space: pre;">12:00</text></g><g class="xtick"><text text-anchor="middle" x="0" y="433" transform="translate(317.61,0)" style="font-family: 'Open Sans', verdana, arial, sans-serif; font-size: 12px; fill: rgb(42, 63, 95); fill-opacity: 1; white-space: pre;"><tspan class="line" dy="0em" x="0" y="433">00:00</tspan><tspan class="line" dy="1.3em" x="0" y="433">Aug 4, 2021</tspan></text></g><g class="xtick"><text text-anchor="middle" x="0" y="433" transform="translate(433.4,0)" style="font-family: 'Open Sans', verdana, arial, sans-serif; font-size: 12px; fill: rgb(42, 63, 95); fill-opacity: 1; white-space: pre;">12:00</text></g><g class="xtick"><text text-anchor="middle" x="0" y="433" transform="translate(549.2,0)" style="font-family: 'Open Sans', verdana, arial, sans-serif; font-size: 12px; fill: rgb(42, 63, 95); fill-opacity: 1; white-space: pre;"><tspan class="line" dy="0em" x="0" y="433">00:00</tspan><tspan class="line" dy="1.3em" x="0" y="433">Aug 5, 2021</tspan></text></g></g><g class="yaxislayer-above"><g class="ytick"><text text-anchor="end" x="79" y="4.199999999999999" transform="translate(0,390.94)" style="font-family: 'Open Sans', verdana, arial, sans-serif; font-size: 12px; fill: rgb(42, 63, 95); fill-opacity: 1; white-space: pre;">0.864</text></g><g class="ytick"><text text-anchor="end" x="79" y="4.199999999999999" transform="translate(0,342.14)" style="font-family: 'Open Sans', verdana, arial, sans-serif; font-size: 12px; fill: rgb(42, 63, 95); fill-opacity: 1; white-space: pre;">0.865</text></g><g class="ytick"><text text-anchor="end" x="79" y="4.199999999999999" transform="translate(0,293.34000000000003)" style="font-family: 'Open Sans', verdana, arial, sans-serif; font-size: 12px; fill: rgb(42, 63, 95); fill-opacity: 1; white-space: pre;">0.866</text></g><g class="ytick"><text text-anchor="end" x="79" y="4.199999999999999" transform="translate(0,244.54)" style="font-family: 'Open Sans', verdana, arial, sans-serif; font-size: 12px; fill: rgb(42, 63, 95); fill-opacity: 1; white-space: pre;">0.867</text></g><g class="ytick"><text text-anchor="end" x="79" y="4.199999999999999" transform="translate(0,195.75)" style="font-family: 'Open Sans', verdana, arial, sans-serif; font-size: 12px; fill: rgb(42, 63, 95); fill-opacity: 1; white-space: pre;">0.868</text></g><g class="ytick"><text text-anchor="end" x="79" y="4.199999999999999" transform="translate(0,146.95)" style="font-family: 'Open Sans', verdana, arial, sans-serif; font-size: 12px; fill: rgb(42, 63, 95); fill-opacity: 1; white-space: pre;">0.869</text></g></g><g class="overaxes-above"/></g></g><g class="polarlayer"/><g class="ternarylayer"/><g class="geolayer"/><g class="funnelarealayer"/><g class="pielayer"/><g class="treemaplayer"/><g class="sunburstlayer"/><g class="glimages"/><defs id="topdefs-050b7d"><g class="clips"/><clipPath id="legend050b7d"><rect width="60" height="45" x="0" y="0"/></clipPath></defs><g class="layer-above"><g class="imagelayer"/><g class="shapelayer"/></g><g class="infolayer"><g class="legend" pointer-events="all" transform="translate(627.74,100)"><rect class="bg" shape-rendering="crispEdges" width="60" height="45" x="0" y="0" style="stroke: rgb(68, 68, 68); stroke-opacity: 1; fill: rgb(255, 255, 255); fill-opacity: 1; stroke-width: 0px;"/><g class="scrollbox" transform="" clip-path="url('#legend050b7d')"><text class="legendtitletext" text-anchor="start" x="2" y="15.600000000000001" style="font-family: 'Open Sans', verdana, arial, sans-serif; font-size: 12px; fill: rgb(42, 63, 95); fill-opacity: 1; white-space: pre;">All</text><g class="groups" transform=""><g class="traces" transform="translate(0,30.1)" style="opacity: 1;"><text class="legendtext" text-anchor="start" x="40" y="4.680000000000001" style="font-family: 'Open Sans', verdana, arial, sans-serif; font-size: 12px; fill: rgb(42, 63, 95); fill-opacity: 1; white-space: pre;">All</text><g class="layers" style="opacity: 1;"><g class="legendfill"/><g class="legendlines"><path class="js-line" d="M5,0h30" style="fill: none; stroke: rgb(99, 110, 250); stroke-opacity: 1; stroke-width: 2px;"/></g><g class="legendsymbols"><g class="legendpoints"/></g></g><rect class="legendtoggle" x="0" y="-9.5" width="54.890625" height="19" style="fill: rgb(0, 0, 0); fill-opacity: 0;"/></g></g></g><rect class="scrollbar" rx="20" ry="3" width="0" height="0" x="0" y="0" style="fill: rgb(128, 139, 164); fill-opacity: 1;"/></g><g class="g-gtitle"><text class="gtitle" x="35" y="50" text-anchor="start" dy="0em" style="font-family: 'Open Sans', verdana, arial, sans-serif; font-size: 17px; fill: rgb(42, 63, 95); opacity: 1; font-weight: normal; white-space: pre;">Singapore Vaccination Centers</text></g><g class="g-xtitle"><text class="xtitle" x="348.5" y="476.409375" text-anchor="middle" style="font-family: 'Open Sans', verdana, arial, sans-serif; font-size: 14px; fill: rgb(42, 63, 95); opacity: 1; font-weight: normal; white-space: pre;">Time</text></g><g class="g-ytitle"><text class="ytitle" transform="rotate(-90,19.840625000000003,260)" x="19.840625000000003" y="260" text-anchor="middle" style="font-family: 'Open Sans', verdana, arial, sans-serif; font-size: 14px; fill: rgb(42, 63, 95); opacity: 1; font-weight: normal; white-space: pre;">Filled/%</text></g></g></svg>