<svg class="main-svg" xmlns="http://www.w3.org/2000/svg" xmlns:xlink="http://www.w3.org/1999/xlink" width="700" height="500" style="" viewBox="0 0 700 500"><rect x="0" y="0" width="700" height="500" style="fill: rgb(255, 255, 255); fill-opacity: 1;"/><defs id="defs-1677d5"><g class="clips"><clipPath id="clip1677d5xyplot" class="plotclip"><rect width="537" height="320"/></clipPath><clipPath class="axesclip" id="clip1677d5x"><rect x="80" y="0" width="537" height="500"/></clipPath><clipPath class="axesclip" id="clip1677d5y"><rect x="0" y="100" width="700" height="320"/></clipPath><clipPath class="axesclip" id="clip1677d5xy"><rect x="80" y="100" width="537" height="320"/></clipPath></g><g class="gradients"/></defs><g class="bglayer"><rect class="bg" x="80" y="100" width="537" height="320" style="fill: rgb(229, 236, 246); fill-opacity: 1; stroke-width: 0;"/></g><g class="layer-below"><g class="imagelayer"/><g class="shapelayer"/></g><g class="cartesianlayer"><g class="subplot xy"><g class="layer-subplot"><g class="shapelayer"/><g class="imagelayer"/></g><g class="gridlayer"><g class="x"><path class="xgrid crisp" transform="translate(82.22,0)" d="M0,100v320" style="stroke: rgb(255, 255, 255); stroke-opacity: 1; stroke-width: 1px;"/><path class="xgrid crisp" transform="translate(167.67000000000002,0)" d="M0,100v320" style="stroke: rgb(255, 255, 255); stroke-opacity: 1; stroke-width: 1px;"/><path class="xgrid crisp" transform="translate(253.13,0)" d="M0,100v320" style="stroke: rgb(255, 255, 255); stroke-opacity: 1; stroke-width: 1px;"/><path class="xgrid crisp" transform="translate(338.58,0)" d="M0,100v320" style="stroke: rgb(255, 255, 255); stroke-opacity: 1; stroke-width: 1px;"/><path class="xgrid crisp" transform="translate(424.04,0)" d="M0,100v320" style="stroke: rgb(255, 255, 255); stroke-opacity: 1; stroke-width: 1px;"/><path class="xgrid crisp" transform="translate(509.49,0)" d="M0,100v320" style="stroke: rgb(255, 255, 255); stroke-opacity: 1; stroke-width: 1px;"/><path class="xgrid crisp" transform="translate(594.95,0)" d="M0,100v320" style="stroke: rgb(255, 255, 255); stroke-opacity: 1; stroke-width: 1px;"/></g><g class="y"><path class="ygrid crisp" transform="translate(0,393.08)" d="M80,0h537" style="stroke: rgb(255, 255, 255); stroke-opacity: 1; stroke-width: 1px;"/><path class="ygrid crisp" transform="translate(0,352.28999999999996)" d="M80,0h537" style="stroke: rgb(255, 255, 255); stroke-opacity: 1; stroke-width: 1px;"/><path class="ygrid crisp" transform="translate(0,311.5)" d="M80,0h537" style="stroke: rgb(255, 255, 255); stroke-opacity: 1; stroke-width: 1px;"/><path class="ygrid crisp" transform="translate(0,270.71000000000004)" d="M80,0h537" style="stroke: rgb(255, 255, 255); stroke-opacity: 1; stroke-width: 1px;"/><path class="ygrid crisp" transform="translate(0,229.92)" d="M80,0h537" style="stroke: rgb(255, 255, 255); stroke-opacity: 1; stroke-width: 1px;"/><path class="ygrid crisp" transform="translate(0,189.12)" d="M80,0h537" style="stroke: rgb(255, 255, 255); stroke-opacity: 1; stroke-width: 1px;"/><path class="ygrid crisp" transform="translate(0,148.32999999999998)" d="M80,0h537" style="stroke: rgb(255, 255, 255); stroke-opacity: 1; stroke-width: 1px;"/><path class="ygrid crisp" transform="translate(0,107.54)" d="M80,0h537" style="stroke: rgb(255, 255, 255); stroke-opacity: 1; stroke-width: 1px;"/></g></g><g class="zerolinelayer"/><path class="xlines-below"/><path class="ylines-below"/><g class="overlines-below"/><g class="xaxislayer-below"/><g class="yaxislayer-below"/><g class="overaxes-below"/><g class="plot" transform="translate(80,100)" clip-path="url('#clip1677d5xyplot')"><g class="scatterlayer mlayer"><g class="trace scatter tracef7dd3a" style="stroke-miterlimit: 2; opacity: 1;"><g class="fills"/><g class="errorbars"/><g class="lines"><path class="js-line" d="M0,304L1.71,302.65L2.3,252.27L2.9,253.5L3.49,251.9L5.86,251.28L6.46,250.91L7.65,251.65L8.24,250.79L9.43,251.16L10.02,250.79L11.2,250.54L11.8,250.29L12.99,250.04L13.58,249.8L21.29,249.43L21.89,248.93L26.04,247.82L26.63,247.21L27.82,247.33L28.41,246.47L29.6,247.33L30.2,245.85L31.97,244.99L32.57,245.48L33.16,245.11L33.76,245.97L34.94,243.14L35.53,243.63L36.13,243.63L36.72,242.77L39.69,240.05L40.28,241.04L40.87,241.29L41.47,240.18L42.06,238.2L42.66,238.7L43.25,239.68L45.62,235.61L46.22,234.75L46.81,234.01L47.4,234.5L48.59,233.39L49.18,233.64L49.78,235.12L50.37,233.02L52.75,233.64L53.34,231.67L54.53,229.69L55.12,230.43L56.31,229.32L56.9,230.93L57.49,230.68L58.09,229.2L60.46,225.01L61.05,222.42L61.65,223.03L62.24,221.68L62.84,220.69L63.43,221.43L64.61,221.68L65.21,222.66L68.17,220.44L68.77,220.2L71.14,218.96L71.74,220.07L72.33,220.07L72.92,218.59L75.3,217.11L75.89,216.99L77.67,216.13L78.26,216L79.45,216.13L80.04,215.76L81.82,215.63L82.42,214.77L84.2,212.18L84.79,211.44L85.98,212.43L86.57,211.93L87.17,212.43L87.76,149.79L90.13,148.04L90.73,147.92L93.1,146.8L93.7,146.8L96.66,146.05L97.25,145.68L102,145.06L102.6,145.43L106.75,145.68L107.34,145.68L111.49,144.93L112.09,143.94L114.46,144.06L115.06,143.57L116.24,143.69L116.83,143.07L118.62,143.07L119.21,142.07L120.99,140.21L121.58,141.2L123.36,139.59L123.96,140.21L126.33,136.6L126.92,138.22L129.3,135.36L129.89,136.23L131.08,134.74L131.67,135.86L132.26,136.85L132.86,135.98L133.45,136.97L134.05,136.48L134.64,135.61L135.23,136.6L136.42,136.35L137.01,136.73L138.2,136.97L138.79,136.6L141.18,133.12L141.77,133.24L142.96,134.24L143.55,132.37L145.92,131.5L146.52,129.88L148.89,130.38L149.48,129.14L150.08,127.02L150.67,128.52L151.27,128.52L151.86,127.4L152.45,128.27L153.04,127.77L154.23,126.03L154.83,126.15L156.61,123.17L157.2,123.29L158.39,121.05L158.98,121.8L160.17,119.81L160.76,120.31L162.54,119.69L163.13,117.2L163.73,117.07L164.32,116.08L165.51,114.96L166.1,115.21L167.29,116.95L167.88,116.33L168.48,118.19L169.07,117.45L169.66,117.32L170.25,115.83L171.44,115.95L172.04,115.83L172.63,116.2L173.22,72.54L175,70.53L175.59,70.28L180.94,67.14L181.53,67.02L182.72,65.89L183.31,65.89L184.5,66.01L185.09,65.39L188.06,65.26L188.65,65.39L198.14,63.51L198.74,63.88L200.52,62.88L201.11,63L201.71,63.25L202.29,62.5L205.86,61.87L207.04,61.37L207.64,60.12L208.82,59.74L210.01,59.37L210.6,57.74L211.2,58.86L211.79,57.74L212.98,57.74L213.57,57.11L214.17,56.98L214.76,55.85L216.54,55.6L217.13,54.1L219.49,50.46L220.08,51.09L221.86,50.08L222.45,48.45L224.83,47.83L225.42,45.94L226.01,45.32L226.61,45.82L228.98,44.57L229.57,43.56L230.76,43.56L231.35,44.06L232.54,45.57L233.14,43.81L234.32,44.94L234.93,43.06L236.11,43.19L236.7,43.56L238.48,41.81L239.07,42.18L240.26,40.55L240.85,39.55L241.45,37.16L242.04,37.67L242.63,36.29L243.22,37.67L243.82,36.16L245.01,35.66L245.6,34.41L247.38,34.91L247.97,33.9L248.56,34.41L249.16,32.9L250.35,32.77L250.94,31.77L253.31,32.15L253.9,31.27L255.09,31.14L255.69,31.27L256.88,29.39L257.46,30.02L258.06,29.76L258.66,177.95L261.62,177.56L262.22,178.21L264,177.17L264.59,177.17L265.78,176L266.37,176L268.15,175.35L268.75,175.35L272.9,174.96L273.49,174.96L277.64,174.7L278.24,174.7L280.61,173.79L281.21,174.05L284.76,173.26L285.36,173.13L287.73,171.44L288.32,170.92L290.11,170.53L290.7,169.23L293.09,168.97L293.69,170.14L294.87,168.32L295.47,168.19L296.06,167.54L296.65,165.19L297.24,163.37L297.84,163.63L298.43,162.98L299.02,161.29L299.62,161.81L300.21,161.16L301.4,161.29L302,160.38L303.18,159.72L303.78,160.64L305.56,158.03L306.15,158.94L307.93,156.34L308.52,156.34L309.11,155.56L309.71,156.6L310.9,157.51L311.49,156.6L312.08,156.73L312.68,155.95L315.65,151.91L316.24,151.39L317.42,151L318.02,152.43L321.58,149.44L322.17,151.13L323.36,130.43L323.95,130.04L325.14,129.39L325.73,124.83L326.33,124.96L326.92,121.19L327.51,121.45L328.11,118.98L328.7,116.11L329.29,117.02L331.07,110.64L331.67,107.65L332.86,107.13L333.45,105.05L334.04,104.52L334.64,101.92L337.6,96.06L338.19,95.8L339.98,93.07L340.57,90.59L343.54,85.65L344.13,98.46L347.1,94.26L347.69,94.65L348.29,94.52L348.88,95.31L350.07,94.92L350.66,95.57L352.44,94.65L353.03,94.79L354.22,94.26L354.81,94.39L361.34,93.74L361.94,93.6L371.43,93.6L372.02,94.13L374.99,90.32L375.58,90.58L377.36,89.27L377.95,89.4L378.55,89.01L379.14,87.43L380.33,87.69L380.92,86.25L383.89,83.23L384.48,83.62L386.26,80.34L386.86,79.95L388.64,77.45L389.23,77.45L390.42,74.96L391.01,74.96L392.2,73.12L392.79,71.02L395.17,66.03L395.76,65.63L396.35,65.24L396.94,63.14L399.32,61.3L399.91,59.73L403.47,58.81L404.07,57.76L404.66,58.15L405.25,57.49L405.85,57.89L410.59,53.42L413.56,50.93L414.16,51.58L416.53,48.43L417.12,48.3L417.72,46.99L418.31,47.51L419.5,46.46L420.09,46.73L420.68,47.78L421.28,46.86L423.65,45.54L424.25,46.46L426.62,45.81L427.21,44.76L428.99,42.52L429.59,91.61L430.77,92.02L431.37,90.95L431.96,90.28L432.55,90.81L434.33,90.81L434.93,91.75L437.3,91.48L437.89,91.61L439.67,91.75L440.27,91.75L443.24,90.28L443.83,90.68L449.76,90.01L450.36,90.01L456.88,89.74L457.48,89.61L460.44,89.21L461.04,88.81L462.22,88.27L462.82,87.33L464,86.93L464.6,85.6L465.19,84.26L465.79,85.6L468.16,84.66L468.75,84.66L469.94,82.65L470.53,82.39L472.31,79.58L472.91,79.44L474.68,79.04L475.28,78.24L476.47,77.57L477.06,77.7L478.25,76.23L478.84,75.56L481.21,74.63L481.81,75.03L482.4,74.49L482.99,75.16L484.18,71.82L484.78,72.09L485.37,72.09L487.15,71.55L487.74,70.35L490.71,67.94L491.3,68.21L494.86,65.8L495.46,64.86L496.05,65.27L496.64,64.46L497.83,64.6L498.42,64.46L499.61,63.66L500.21,62.86L501.98,61.79L502.58,60.32L504.95,58.85L505.55,57.11L506.73,55.23L507.32,55.9L510.29,54.03L510.89,54.03L512.07,52.69L512.67,52.69L514.45,52.69L515.04,20.05L519.79,16.54L520.38,16.67L522.16,16.4L522.76,16L525.13,16.81L525.72,16.81L530.47,16.54L531.06,16.4L537,16.13" style="vector-effect: non-scaling-stroke; fill: none; stroke: rgb(99, 110, 250); stroke-opacity: 1; stroke-width: 2px; opacity: 1;"/></g><g class="points"/><g class="text"/></g></g></g><g class="overplot"/><path class="xlines-above crisp" d="M0,0" style="fill: none;"/><path class="ylines-above crisp" d="M0,0" style="fill: none;"/><g class="overlines-above"/><g class="xaxislayer-above"><g class="xtick"><text text-anchor="middle" x="0" y="433" transform="translate(82.22,0)" style="font-family: 'Open Sans', verdana, arial, sans-serif; font-size: 12px; fill: rgb(42, 63, 95); fill-opacity: 1; white-space: pre;"><tspan class="line" dy="0em" x="0" y="433">Aug 3</tspan><tspan class="line" dy="1.3em" x="0" y="433">2021</tspan></text></g><g class="xtick"><text text-anchor="middle" x="0" y="433" transform="translate(167.67000000000002,0)" style="font-family: 'Open Sans', verdana, arial, sans-serif; font-size: 12px; fill: rgb(42, 63, 95); fill-opacity: 1; white-space: pre;">Aug 4</text></g><g class="xtick"><text text-anchor="middle" x="0" y="433" transform="translate(253.13,0)" style="font-family: 'Open Sans', verdana, arial, sans-serif; font-size: 12px; fill: rgb(42, 63, 95); fill-opacity: 1; white-space: pre;">Aug 5</text></g><g class="xtick"><text text-anchor="middle" x="0" y="433" transform="translate(338.58,0)" style="font-family: 'Open Sans', verdana, arial, sans-serif; font-size: 12px; fill: rgb(42, 63, 95); fill-opacity: 1; white-space: pre;">Aug 6</text></g><g class="xtick"><text text-anchor="middle" x="0" y="433" transform="translate(424.04,0)" style="font-family: 'Open Sans', verdana, arial, sans-serif; font-size: 12px; fill: rgb(42, 63, 95); fill-opacity: 1; white-space: pre;">Aug 7</text></g><g class="xtick"><text text-anchor="middle" x="0" y="433" transform="translate(509.49,0)" style="font-family: 'Open Sans', verdana, arial, sans-serif; font-size: 12px; fill: rgb(42, 63, 95); fill-opacity: 1; white-space: pre;">Aug 8</text></g><g class="xtick"><text text-anchor="middle" x="0" y="433" transform="translate(594.95,0)" style="font-family: 'Open Sans', verdana, arial, sans-serif; font-size: 12px; fill: rgb(42, 63, 95); fill-opacity: 1; white-space: pre;">Aug 9</text></g></g><g class="yaxislayer-above"><g class="ytick"><text text-anchor="end" x="79" y="4.199999999999999" transform="translate(0,393.08)" style="font-family: 'Open Sans', verdana, arial, sans-serif; font-size: 12px; fill: rgb(42, 63, 95); fill-opacity: 1; white-space: pre;">0.864</text></g><g class="ytick"><text text-anchor="end" x="79" y="4.199999999999999" transform="translate(0,352.28999999999996)" style="font-family: 'Open Sans', verdana, arial, sans-serif; font-size: 12px; fill: rgb(42, 63, 95); fill-opacity: 1; white-space: pre;">0.865</text></g><g class="ytick"><text text-anchor="end" x="79" y="4.199999999999999" transform="translate(0,311.5)" style="font-family: 'Open Sans', verdana, arial, sans-serif; font-size: 12px; fill: rgb(42, 63, 95); fill-opacity: 1; white-space: pre;">0.866</text></g><g class="ytick"><text text-anchor="end" x="79" y="4.199999999999999" transform="translate(0,270.71000000000004)" style="font-family: 'Open Sans', verdana, arial, sans-serif; font-size: 12px; fill: rgb(42, 63, 95); fill-opacity: 1; white-space: pre;">0.867</text></g><g class="ytick"><text text-anchor="end" x="79" y="4.199999999999999" transform="translate(0,229.92)" style="font-family: 'Open Sans', verdana, arial, sans-serif; font-size: 12px; fill: rgb(42, 63, 95); fill-opacity: 1; white-space: pre;">0.868</text></g><g class="ytick"><text text-anchor="end" x="79" y="4.199999999999999" transform="translate(0,189.12)" style="font-family: 'Open Sans', verdana, arial, sans-serif; font-size: 12px; fill: rgb(42, 63, 95); fill-opacity: 1; white-space: pre;">0.869</text></g><g class="ytick"><text text-anchor="end" x="79" y="4.199999999999999" transform="translate(0,148.32999999999998)" style="font-family: 'Open Sans', verdana, arial, sans-serif; font-size: 12px; fill: rgb(42, 63, 95); fill-opacity: 1; white-space: pre;">0.87</text></g><g class="ytick"><text text-anchor="end" x="79" y="4.199999999999999" transform="translate(0,107.54)" style="font-family: 'Open Sans', verdana, arial, sans-serif; font-size: 12px; fill: rgb(42, 63, 95); fill-opacity: 1; white-space: pre;">0.871</text></g></g><g class="overaxes-above"/></g></g><g class="polarlayer"/><g class="ternarylayer"/><g class="geolayer"/><g class="funnelarealayer"/><g class="pielayer"/><g class="treemaplayer"/><g class="sunburstlayer"/><g class="glimages"/><defs id="topdefs-1677d5"><g class="clips"/><clipPath id="legend1677d5"><rect width="60" height="45" x="0" y="0"/></clipPath></defs><g class="layer-above"><g class="imagelayer"/><g class="shapelayer"/></g><g class="infolayer"><g class="legend" pointer-events="all" transform="translate(627.74,100)"><rect class="bg" shape-rendering="crispEdges" width="60" height="45" x="0" y="0" style="stroke: rgb(68, 68, 68); stroke-opacity: 1; fill: rgb(255, 255, 255); fill-opacity: 1; stroke-width: 0px;"/><g class="scrollbox" transform="" clip-path="url('#legend1677d5')"><text class="legendtitletext" text-anchor="start" x="2" y="15.600000000000001" style="font-family: 'Open Sans', verdana, arial, sans-serif; font-size: 12px; fill: rgb(42, 63, 95); fill-opacity: 1; white-space: pre;">All</text><g class="groups" transform=""><g class="traces" transform="translate(0,30.1)" style="opacity: 1;"><text class="legendtext" text-anchor="start" x="40" y="4.680000000000001" style="font-family: 'Open Sans', verdana, arial, sans-serif; font-size: 12px; fill: rgb(42, 63, 95); fill-opacity: 1; white-space: pre;">All</text><g class="layers" style="opacity: 1;"><g class="legendfill"/><g class="legendlines"><path class="js-line" d="M5,0h30" style="fill: none; stroke: rgb(99, 110, 250); stroke-opacity: 1; stroke-width: 2px;"/></g><g class="legendsymbols"><g class="legendpoints"/></g></g><rect class="legendtoggle" x="0" y="-9.5" width="54.890625" height="19" style="fill: rgb(0, 0, 0); fill-opacity: 0;"/></g></g></g><rect class="scrollbar" rx="20" ry="3" width="0" height="0" x="0" y="0" style="fill: rgb(128, 139, 164); fill-opacity: 1;"/></g><g class="g-gtitle"><text class="gtitle" x="35" y="50" text-anchor="start" dy="0em" style="font-family: 'Open Sans', verdana, arial, sans-serif; font-size: 17px; fill: rgb(42, 63, 95); opacity: 1; font-weight: normal; white-space: pre;">Singapore Vaccination Centers</text></g><g class="g-xtitle"><text class="xtitle" x="348.5" y="476.409375" text-anchor="middle" style="font-family: 'Open Sans', verdana, arial, sans-serif; font-size: 14px; fill: rgb(42, 63, 95); opacity: 1; font-weight: normal; white-space: pre;">Time</text></g><g class="g-ytitle"><text class="ytitle" transform="rotate(-90,19.840625000000003,260)" x="19.840625000000003" y="260" text-anchor="middle" style="font-family: 'Open Sans', verdana, arial, sans-serif; font-size: 14px; fill: rgb(42, 63, 95); opacity: 1; font-weight: normal; white-space: pre;">Filled/%</text></g></g></svg>