<svg class="main-svg" xmlns="http://www.w3.org/2000/svg" xmlns:xlink="http://www.w3.org/1999/xlink" width="700" height="500" style="" viewBox="0 0 700 500"><rect x="0" y="0" width="700" height="500" style="fill: rgb(255, 255, 255); fill-opacity: 1;"/><defs id="defs-09826d"><g class="clips"><clipPath id="clip09826dxyplot" class="plotclip"><rect width="537" height="320"/></clipPath><clipPath class="axesclip" id="clip09826dx"><rect x="80" y="0" width="537" height="500"/></clipPath><clipPath class="axesclip" id="clip09826dy"><rect x="0" y="100" width="700" height="320"/></clipPath><clipPath class="axesclip" id="clip09826dxy"><rect x="80" y="100" width="537" height="320"/></clipPath></g><g class="gradients"/></defs><g class="bglayer"><rect class="bg" x="80" y="100" width="537" height="320" style="fill: rgb(229, 236, 246); fill-opacity: 1; stroke-width: 0;"/></g><g class="layer-below"><g class="imagelayer"/><g class="shapelayer"/></g><g class="cartesianlayer"><g class="subplot xy"><g class="layer-subplot"><g class="shapelayer"/><g class="imagelayer"/></g><g class="gridlayer"><g class="x"><path class="xgrid crisp" transform="translate(83.52,0)" d="M0,100v320" style="stroke: rgb(255, 255, 255); stroke-opacity: 1; stroke-width: 1px;"/><path class="xgrid crisp" transform="translate(219.21,0)" d="M0,100v320" style="stroke: rgb(255, 255, 255); stroke-opacity: 1; stroke-width: 1px;"/><path class="xgrid crisp" transform="translate(354.9,0)" d="M0,100v320" style="stroke: rgb(255, 255, 255); stroke-opacity: 1; stroke-width: 1px;"/><path class="xgrid crisp" transform="translate(490.59,0)" d="M0,100v320" style="stroke: rgb(255, 255, 255); stroke-opacity: 1; stroke-width: 1px;"/></g><g class="y"><path class="ygrid crisp" transform="translate(0,392.55)" d="M80,0h537" style="stroke: rgb(255, 255, 255); stroke-opacity: 1; stroke-width: 1px;"/><path class="ygrid crisp" transform="translate(0,349.77)" d="M80,0h537" style="stroke: rgb(255, 255, 255); stroke-opacity: 1; stroke-width: 1px;"/><path class="ygrid crisp" transform="translate(0,306.99)" d="M80,0h537" style="stroke: rgb(255, 255, 255); stroke-opacity: 1; stroke-width: 1px;"/><path class="ygrid crisp" transform="translate(0,264.21000000000004)" d="M80,0h537" style="stroke: rgb(255, 255, 255); stroke-opacity: 1; stroke-width: 1px;"/><path class="ygrid crisp" transform="translate(0,221.43)" d="M80,0h537" style="stroke: rgb(255, 255, 255); stroke-opacity: 1; stroke-width: 1px;"/><path class="ygrid crisp" transform="translate(0,178.65)" d="M80,0h537" style="stroke: rgb(255, 255, 255); stroke-opacity: 1; stroke-width: 1px;"/><path class="ygrid crisp" transform="translate(0,135.87)" d="M80,0h537" style="stroke: rgb(255, 255, 255); stroke-opacity: 1; stroke-width: 1px;"/></g></g><g class="zerolinelayer"/><path class="xlines-below"/><path class="ylines-below"/><g class="overlines-below"/><g class="xaxislayer-below"/><g class="yaxislayer-below"/><g class="overaxes-below"/><g class="plot" transform="translate(80,100)" clip-path="url('#clip09826dxyplot')"><g class="scatterlayer mlayer"><g class="trace scatter tracea1cf4a" style="stroke-miterlimit: 2; opacity: 1;"><g class="fills"/><g class="errorbars"/><g class="lines"><path class="js-line" d="M0,304L2.72,302.59L3.66,249.74L4.6,251.04L5.55,249.35L9.31,248.71L10.25,248.32L12.14,249.1L13.08,248.19L14.97,248.58L15.91,248.19L16.85,248.45L17.79,247.93L23.45,246.9L24.39,247.16L29.1,246.77L30.04,246.51L35.7,246.12L36.64,245.73L38.53,245.86L39.47,245.22L41.35,245.09L42.29,244.44L43.24,244.96L44.18,244.57L45.12,243.66L46.06,243.92L47,244.57L47.95,243.02L50.77,242.11L51.71,242.63L52.66,242.24L53.6,243.15L54.54,242.24L55.49,240.17L57.37,240.69L58.31,239.78L62.08,237.84L63.02,236.94L64.9,238.23L65.85,237.07L66.79,235L67.73,235.51L68.67,236.55L69.61,235L71.5,232.67L72.44,232.28L74.33,230.6L75.27,231.12L77.15,229.95L78.1,230.21L79.04,231.76L79.98,229.56L82.81,230.6L83.75,230.21L85.64,226.46L86.58,226.07L87.52,226.85L88.46,225.55L89.41,225.68L90.35,227.36L91.29,227.11L92.23,225.55L96,221.16L96.94,218.44L97.89,219.09L98.83,217.66L99.77,216.63L100.71,217.4L102.6,217.66L103.54,218.7L107.31,216.5L108.25,216.37L110.14,215.72L111.08,214.69L112.02,214.3L112.96,214.82L114.85,215.98L115.79,214.43L117.67,213.52L118.62,213.39L122.39,211.45L123.33,211.84L128.04,211.58L128.99,211.84L130.86,210.42L131.81,208.87L133.69,207.7L134.64,206.93L136.52,207.96L137.46,207.44L138.4,207.96L139.35,142.27L142.18,140.18L143.12,140.44L145,139.92L145.95,139.01L147.83,139.14L148.77,139.14L152.54,138.48L153.48,138.35L156.31,137.83L157.25,137.96L165.73,137.96L166.68,138.09L173.27,137.83L174.21,137.18L177.04,137.18L177.98,136.14L181.74,136.27L182.69,135.74L184.57,135.88L185.51,135.22L187.41,134.57L188.34,135.22L191.17,132.22L192.11,132.22L193.06,133.27L193.99,132.88L195.88,131.57L196.83,132.22L200.59,128.44L201.54,130.14L205.3,127.14L206.25,128.05L208.13,126.48L209.07,127.66L210.02,128.7L210.96,127.79L211.9,128.83L212.84,128.31L213.78,127.4L214.73,128.44L215.67,127.79L216.61,128.18L219.44,128.83L220.38,128.44L222.28,126.48L223.22,125.05L225.1,124.92L226.05,125.44L226.99,125.96L227.94,124.01L231.71,123.09L232.65,121.4L235.48,122.44L236.42,121.92L238.3,118.4L239.24,119.96L240.19,119.96L241.13,118.79L242.07,119.7L243.01,119.18L244.9,117.35L245.84,117.48L248.67,114.35L249.61,114.48L251.5,112.14L252.43,112.92L254.32,110.83L255.26,111.35L258.09,110.7L259.03,108.09L259.97,107.96L260.91,106.92L261.86,105.48L262.8,105.74L263.74,106L264.68,107.18L265.63,107.83L266.57,107.18L267.52,109.13L268.45,108.35L269.4,108.22L270.34,106.66L271.28,106.27L272.22,106.79L274.11,107.05L275.05,61.25L276.93,59.41L277.88,59.15L280.7,57.57L281.64,57.17L283.53,57.04L284.47,56.78L288.24,55.46L289.18,54.54L291.07,54.28L292.01,54.81L295.78,53.75L296.72,53.62L298.61,53.62L299.55,53.75L314.62,51.78L315.57,52.18L318.39,51.12L319.33,51.25L320.28,51.52L321.21,50.73L326.87,50.07L328.75,49.54L329.7,48.23L331.58,47.83L333.46,47.44L334.41,45.73L335.35,46.91L336.3,45.73L338.18,45.73L339.12,45.07L340.06,44.94L341,43.76L343.83,43.49L344.77,41.91L346.66,40.2L347.6,39.42L348.52,38.1L349.45,38.76L352.28,37.71L353.22,36L356.99,35.34L357.93,33.36L358.88,32.71L359.82,33.23L361.7,32.44L362.65,32.05L363.59,31.92L364.53,30.86L366.41,30.86L367.35,31.39L369.24,32.97L370.19,31.13L372.07,32.31L373.03,30.34L374.9,30.47L375.84,30.86L378.67,29.02L379.61,29.42L381.49,27.71L382.44,26.66L383.38,24.16L384.32,24.68L385.26,23.24L386.2,24.68L388.09,22.84L389.03,22.58L389.97,21.26L390.91,21.66L392.8,21.79L393.74,20.74L394.68,21.26L395.63,19.68L397.51,19.55L398.45,18.5L402.22,18.89L403.16,17.97L404.1,17.45L405.05,17.84L405.99,17.97L406.94,17.05L407.88,16L408.81,16.66L409.76,16.39L410.71,171.81L415.42,171.4L416.36,172.08L419.19,170.99L420.13,170.99L422.01,169.76L422.95,169.76L424.84,168.94L425.78,169.08L441.8,168.39L442.74,167.98L454.98,165.8L455.93,165.12L460.64,164.02L461.59,162.66L465.39,162.38L466.33,163.61L468.21,161.7L469.15,161.57L470.1,160.88L471.04,158.43L471.98,156.51L472.92,156.79L473.87,156.1L474.81,154.33L475.75,154.88L476.69,154.19L478.58,154.33L479.52,153.37L481.4,152.69L482.35,153.65L484.23,152.01L485.18,150.92L486.12,151.87L487.06,150.64L488.94,149.14L489.89,149.14L490.83,148.32L491.77,149.41L493.66,150.37L494.6,149.41L495.54,149.55L496.49,148.73L500.26,145.18L501.2,144.5L504.02,143.54L504.97,145.04L510.62,141.9L511.56,143.68L512.51,121.97L513.45,121.97L516.27,120.88L517.22,116.1L518.15,116.24L519.1,112.28L520.04,112.55L520.98,109.96L521.93,106.95L522.87,107.91L524.75,104.77L525.69,101.22L526.64,98.08L527.58,98.08L528.52,97.53L529.47,95.35L530.41,94.8L531.35,92.07L533.23,89.34L534.17,89.34L536.06,85.93L537,85.65" style="vector-effect: non-scaling-stroke; fill: none; stroke: rgb(99, 110, 250); stroke-opacity: 1; stroke-width: 2px; opacity: 1;"/></g><g class="points"/><g class="text"/></g></g></g><g class="overplot"/><path class="xlines-above crisp" d="M0,0" style="fill: none;"/><path class="ylines-above crisp" d="M0,0" style="fill: none;"/><g class="overlines-above"/><g class="xaxislayer-above"><g class="xtick"><text text-anchor="middle" x="0" y="433" transform="translate(83.52,0)" style="font-family: 'Open Sans', verdana, arial, sans-serif; font-size: 12px; fill: rgb(42, 63, 95); fill-opacity: 1; white-space: pre;"><tspan class="line" dy="0em" x="0" y="433">Aug 3</tspan><tspan class="line" dy="1.3em" x="0" y="433">2021</tspan></text></g><g class="xtick"><text text-anchor="middle" x="0" y="433" transform="translate(219.21,0)" style="font-family: 'Open Sans', verdana, arial, sans-serif; font-size: 12px; fill: rgb(42, 63, 95); fill-opacity: 1; white-space: pre;">Aug 4</text></g><g class="xtick"><text text-anchor="middle" x="0" y="433" transform="translate(354.9,0)" style="font-family: 'Open Sans', verdana, arial, sans-serif; font-size: 12px; fill: rgb(42, 63, 95); fill-opacity: 1; white-space: pre;">Aug 5</text></g><g class="xtick"><text text-anchor="middle" x="0" y="433" transform="translate(490.59,0)" style="font-family: 'Open Sans', verdana, arial, sans-serif; font-size: 12px; fill: rgb(42, 63, 95); fill-opacity: 1; white-space: pre;">Aug 6</text></g></g><g class="yaxislayer-above"><g class="ytick"><text text-anchor="end" x="79" y="4.199999999999999" transform="translate(0,392.55)" style="font-family: 'Open Sans', verdana, arial, sans-serif; font-size: 12px; fill: rgb(42, 63, 95); fill-opacity: 1; white-space: pre;">0.864</text></g><g class="ytick"><text text-anchor="end" x="79" y="4.199999999999999" transform="translate(0,349.77)" style="font-family: 'Open Sans', verdana, arial, sans-serif; font-size: 12px; fill: rgb(42, 63, 95); fill-opacity: 1; white-space: pre;">0.865</text></g><g class="ytick"><text text-anchor="end" x="79" y="4.199999999999999" transform="translate(0,306.99)" style="font-family: 'Open Sans', verdana, arial, sans-serif; font-size: 12px; fill: rgb(42, 63, 95); fill-opacity: 1; white-space: pre;">0.866</text></g><g class="ytick"><text text-anchor="end" x="79" y="4.199999999999999" transform="translate(0,264.21000000000004)" style="font-family: 'Open Sans', verdana, arial, sans-serif; font-size: 12px; fill: rgb(42, 63, 95); fill-opacity: 1; white-space: pre;">0.867</text></g><g class="ytick"><text text-anchor="end" x="79" y="4.199999999999999" transform="translate(0,221.43)" style="font-family: 'Open Sans', verdana, arial, sans-serif; font-size: 12px; fill: rgb(42, 63, 95); fill-opacity: 1; white-space: pre;">0.868</text></g><g class="ytick"><text text-anchor="end" x="79" y="4.199999999999999" transform="translate(0,178.65)" style="font-family: 'Open Sans', verdana, arial, sans-serif; font-size: 12px; fill: rgb(42, 63, 95); fill-opacity: 1; white-space: pre;">0.869</text></g><g class="ytick"><text text-anchor="end" x="79" y="4.199999999999999" transform="translate(0,135.87)" style="font-family: 'Open Sans', verdana, arial, sans-serif; font-size: 12px; fill: rgb(42, 63, 95); fill-opacity: 1; white-space: pre;">0.87</text></g></g><g class="overaxes-above"/></g></g><g class="polarlayer"/><g class="ternarylayer"/><g class="geolayer"/><g class="funnelarealayer"/><g class="pielayer"/><g class="treemaplayer"/><g class="sunburstlayer"/><g class="glimages"/><defs id="topdefs-09826d"><g class="clips"/><clipPath id="legend09826d"><rect width="60" height="45" x="0" y="0"/></clipPath></defs><g class="layer-above"><g class="imagelayer"/><g class="shapelayer"/></g><g class="infolayer"><g class="legend" pointer-events="all" transform="translate(627.74,100)"><rect class="bg" shape-rendering="crispEdges" width="60" height="45" x="0" y="0" style="stroke: rgb(68, 68, 68); stroke-opacity: 1; fill: rgb(255, 255, 255); fill-opacity: 1; stroke-width: 0px;"/><g class="scrollbox" transform="" clip-path="url('#legend09826d')"><text class="legendtitletext" text-anchor="start" x="2" y="15.600000000000001" style="font-family: 'Open Sans', verdana, arial, sans-serif; font-size: 12px; fill: rgb(42, 63, 95); fill-opacity: 1; white-space: pre;">All</text><g class="groups" transform=""><g class="traces" transform="translate(0,30.1)" style="opacity: 1;"><text class="legendtext" text-anchor="start" x="40" y="4.680000000000001" style="font-family: 'Open Sans', verdana, arial, sans-serif; font-size: 12px; fill: rgb(42, 63, 95); fill-opacity: 1; white-space: pre;">All</text><g class="layers" style="opacity: 1;"><g class="legendfill"/><g class="legendlines"><path class="js-line" d="M5,0h30" style="fill: none; stroke: rgb(99, 110, 250); stroke-opacity: 1; stroke-width: 2px;"/></g><g class="legendsymbols"><g class="legendpoints"/></g></g><rect class="legendtoggle" x="0" y="-9.5" width="54.890625" height="19" style="fill: rgb(0, 0, 0); fill-opacity: 0;"/></g></g></g><rect class="scrollbar" rx="20" ry="3" width="0" height="0" x="0" y="0" style="fill: rgb(128, 139, 164); fill-opacity: 1;"/></g><g class="g-gtitle"><text class="gtitle" x="35" y="50" text-anchor="start" dy="0em" style="font-family: 'Open Sans', verdana, arial, sans-serif; font-size: 17px; fill: rgb(42, 63, 95); opacity: 1; font-weight: normal; white-space: pre;">Singapore Vaccination Centers</text></g><g class="g-xtitle"><text class="xtitle" x="348.5" y="476.409375" text-anchor="middle" style="font-family: 'Open Sans', verdana, arial, sans-serif; font-size: 14px; fill: rgb(42, 63, 95); opacity: 1; font-weight: normal; white-space: pre;">Time</text></g><g class="g-ytitle"><text class="ytitle" transform="rotate(-90,19.840625000000003,260)" x="19.840625000000003" y="260" text-anchor="middle" style="font-family: 'Open Sans', verdana, arial, sans-serif; font-size: 14px; fill: rgb(42, 63, 95); opacity: 1; font-weight: normal; white-space: pre;">Filled/%</text></g></g></svg>