<svg class="main-svg" xmlns="http://www.w3.org/2000/svg" xmlns:xlink="http://www.w3.org/1999/xlink" width="700" height="500" style="" viewBox="0 0 700 500"><rect x="0" y="0" width="700" height="500" style="fill: rgb(255, 255, 255); fill-opacity: 1;"/><defs id="defs-24c966"><g class="clips"><clipPath id="clip24c966xyplot" class="plotclip"><rect width="537" height="320"/></clipPath><clipPath class="axesclip" id="clip24c966x"><rect x="80" y="0" width="537" height="500"/></clipPath><clipPath class="axesclip" id="clip24c966y"><rect x="0" y="100" width="700" height="320"/></clipPath><clipPath class="axesclip" id="clip24c966xy"><rect x="80" y="100" width="537" height="320"/></clipPath></g><g class="gradients"/></defs><g class="bglayer"><rect class="bg" x="80" y="100" width="537" height="320" style="fill: rgb(229, 236, 246); fill-opacity: 1; stroke-width: 0;"/></g><g class="layer-below"><g class="imagelayer"/><g class="shapelayer"/></g><g class="cartesianlayer"><g class="subplot xy"><g class="layer-subplot"><g class="shapelayer"/><g class="imagelayer"/></g><g class="gridlayer"><g class="x"><path class="xgrid crisp" transform="translate(85.85,0)" d="M0,100v320" style="stroke: rgb(255, 255, 255); stroke-opacity: 1; stroke-width: 1px;"/><path class="xgrid crisp" transform="translate(198.61,0)" d="M0,100v320" style="stroke: rgb(255, 255, 255); stroke-opacity: 1; stroke-width: 1px;"/><path class="xgrid crisp" transform="translate(311.37,0)" d="M0,100v320" style="stroke: rgb(255, 255, 255); stroke-opacity: 1; stroke-width: 1px;"/><path class="xgrid crisp" transform="translate(424.13,0)" d="M0,100v320" style="stroke: rgb(255, 255, 255); stroke-opacity: 1; stroke-width: 1px;"/><path class="xgrid crisp" transform="translate(536.89,0)" d="M0,100v320" style="stroke: rgb(255, 255, 255); stroke-opacity: 1; stroke-width: 1px;"/></g><g class="y"><path class="ygrid crisp" transform="translate(0,390.99)" d="M80,0h537" style="stroke: rgb(255, 255, 255); stroke-opacity: 1; stroke-width: 1px;"/><path class="ygrid crisp" transform="translate(0,342.36)" d="M80,0h537" style="stroke: rgb(255, 255, 255); stroke-opacity: 1; stroke-width: 1px;"/><path class="ygrid crisp" transform="translate(0,293.74)" d="M80,0h537" style="stroke: rgb(255, 255, 255); stroke-opacity: 1; stroke-width: 1px;"/><path class="ygrid crisp" transform="translate(0,245.12)" d="M80,0h537" style="stroke: rgb(255, 255, 255); stroke-opacity: 1; stroke-width: 1px;"/><path class="ygrid crisp" transform="translate(0,196.5)" d="M80,0h537" style="stroke: rgb(255, 255, 255); stroke-opacity: 1; stroke-width: 1px;"/><path class="ygrid crisp" transform="translate(0,147.88)" d="M80,0h537" style="stroke: rgb(255, 255, 255); stroke-opacity: 1; stroke-width: 1px;"/></g></g><g class="zerolinelayer"/><path class="xlines-below"/><path class="ylines-below"/><g class="overlines-below"/><g class="xaxislayer-below"/><g class="yaxislayer-below"/><g class="overaxes-below"/><g class="plot" transform="translate(80,100)" clip-path="url('#clip24c966xyplot')"><g class="scatterlayer mlayer"><g class="trace scatter trace382aff" style="stroke-miterlimit: 2; opacity: 1;"><g class="fills"/><g class="errorbars"/><g class="lines"><path class="js-line" d="M0,304L4.51,302.4L6.08,242.34L7.65,243.81L9.22,241.89L15.47,241.16L17.04,240.72L20.18,241.6L21.75,240.57L23.35,241.31L24.87,241.01L31.14,239.98L32.71,240.28L35.84,239.39L37.41,239.39L40.53,239.39L42.1,239.39L46.8,239.1L48.37,238.95L53.06,238.81L54.63,238.95L59.33,238.22L60.9,237.78L64.03,237.92L65.59,237.19L68.72,237.04L70.28,236.31L71.86,236.9L73.42,236.45L74.98,235.43L76.55,235.72L78.12,236.45L79.69,234.69L84.38,233.66L85.95,234.25L87.51,233.81L89.08,234.84L90.64,233.81L92.22,231.46L95.34,232.04L96.91,231.02L103.18,228.81L104.74,227.78L107.87,229.25L109.44,227.93L111,225.58L112.57,226.16L114.14,227.34L115.7,225.58L117.27,223.66L118.84,222.93L121.97,221.46L123.54,220.58L125.1,221.17L126.66,220.28L129.8,220.14L131.37,221.9L132.93,219.4L134.5,219.84L136.06,219.55L137.63,220.58L139.2,220.14L140.76,217.78L142.33,215.87L143.9,215.43L145.46,216.31L147.03,214.84L148.59,214.99L150.16,216.9L151.73,216.61L153.29,214.84L159.56,209.85L161.12,206.76L162.69,207.49L164.25,205.88L165.82,204.7L167.39,205.58L170.52,205.88L172.08,207.05L178.36,204.55L179.91,204.41L183.05,203.67L184.62,202.49L186.18,202.05L187.75,202.64L189.32,203.96L190.87,203.96L194.01,201.47L195.58,201.17L200.28,200.29L201.84,199.7L203.41,198.82L204.97,199.26L212.81,198.97L214.38,199.26L217.5,197.64L219.07,195.88L220.63,194.56L222.2,194.56L223.77,193.67L225.34,194.7L230.03,194.85L231.6,120.19L236.3,117.81L237.87,118.11L241,117.52L242.56,116.48L245.69,116.63L247.27,116.63L253.52,115.89L255.08,115.74L259.79,115.15L261.35,115.29L275.44,115.29L277.02,115.44L287.97,115.15L289.54,114.4L294.24,114.4L295.8,113.22L302.06,113.37L303.64,112.77L306.76,112.92L308.33,112.18L311.47,111.44L313.03,112.18L317.73,108.77L319.29,108.77L320.86,109.96L322.42,109.51L325.56,108.03L327.13,108.77L330.26,106.4L331.82,106.4L333.39,104.47L334.96,106.4L341.22,102.99L342.79,104.03L345.92,102.25L347.48,103.58L349.05,104.77L350.62,103.73L352.19,104.92L353.75,104.32L355.31,103.29L356.88,104.47L358.44,103.73L360.01,104.17L363.15,105.36L364.71,104.92L367.86,103.58L369.44,102.25L370.99,100.62L372.56,100.32L375.7,101.06L377.26,101.65L378.83,99.43L380.39,99.13L385.1,98.39L386.67,96.47L391.36,97.65L392.93,97.06L396.06,93.06L397.63,94.84L399.2,94.84L400.76,93.5L402.32,94.54L403.89,93.95L407.02,91.87L408.59,92.02L413.29,88.46L414.85,88.61L417.99,85.94L419.55,86.83L422.68,84.46L424.25,85.05L428.94,84.31L430.51,81.34L432.08,81.2L433.64,80.01L435.21,78.38L436.78,78.68L438.34,78.97L439.91,80.31L441.48,81.05L443.04,80.31L444.62,82.53L446.18,81.64L447.74,81.49L449.3,79.71L450.87,79.27L452.44,79.86L455.57,80.16L457.14,28.11L460.26,26.02L461.83,25.72L464.96,24.97L466.53,23.92L471.23,23.33L472.79,23.03L479.06,21.53L480.63,20.49L483.76,20.19L485.33,20.78L490.03,19.44L491.59,19.59L510.38,18.09L511.94,18.39L518.21,17.35L519.78,17.64L521.34,17.05L522.91,17.35L524.48,17.79L526.04,17.2L527.61,17.35L529.17,16.6L532.31,17.05L533.86,16.15L537,16" style="vector-effect: non-scaling-stroke; fill: none; stroke: rgb(99, 110, 250); stroke-opacity: 1; stroke-width: 2px; opacity: 1;"/></g><g class="points"/><g class="text"/></g></g></g><g class="overplot"/><path class="xlines-above crisp" d="M0,0" style="fill: none;"/><path class="ylines-above crisp" d="M0,0" style="fill: none;"/><g class="overlines-above"/><g class="xaxislayer-above"><g class="xtick"><text text-anchor="middle" x="0" y="433" transform="translate(85.85,0)" style="font-family: 'Open Sans', verdana, arial, sans-serif; font-size: 12px; fill: rgb(42, 63, 95); fill-opacity: 1; white-space: pre;"><tspan class="line" dy="0em" x="0" y="433">00:00</tspan><tspan class="line" dy="1.3em" x="0" y="433">Aug 3, 2021</tspan></text></g><g class="xtick"><text text-anchor="middle" x="0" y="433" transform="translate(198.61,0)" style="font-family: 'Open Sans', verdana, arial, sans-serif; font-size: 12px; fill: rgb(42, 63, 95); fill-opacity: 1; white-space: pre;">12:00</text></g><g class="xtick"><text text-anchor="middle" x="0" y="433" transform="translate(311.37,0)" style="font-family: 'Open Sans', verdana, arial, sans-serif; font-size: 12px; fill: rgb(42, 63, 95); fill-opacity: 1; white-space: pre;"><tspan class="line" dy="0em" x="0" y="433">00:00</tspan><tspan class="line" dy="1.3em" x="0" y="433">Aug 4, 2021</tspan></text></g><g class="xtick"><text text-anchor="middle" x="0" y="433" transform="translate(424.13,0)" style="font-family: 'Open Sans', verdana, arial, sans-serif; font-size: 12px; fill: rgb(42, 63, 95); fill-opacity: 1; white-space: pre;">12:00</text></g><g class="xtick"><text text-anchor="middle" x="0" y="433" transform="translate(536.89,0)" style="font-family: 'Open Sans', verdana, arial, sans-serif; font-size: 12px; fill: rgb(42, 63, 95); fill-opacity: 1; white-space: pre;"><tspan class="line" dy="0em" x="0" y="433">00:00</tspan><tspan class="line" dy="1.3em" x="0" y="433">Aug 5, 2021</tspan></text></g></g><g class="yaxislayer-above"><g class="ytick"><text text-anchor="end" x="79" y="4.199999999999999" transform="translate(0,390.99)" style="font-family: 'Open Sans', verdana, arial, sans-serif; font-size: 12px; fill: rgb(42, 63, 95); fill-opacity: 1; white-space: pre;">0.864</text></g><g class="ytick"><text text-anchor="end" x="79" y="4.199999999999999" transform="translate(0,342.36)" style="font-family: 'Open Sans', verdana, arial, sans-serif; font-size: 12px; fill: rgb(42, 63, 95); fill-opacity: 1; white-space: pre;">0.865</text></g><g class="ytick"><text text-anchor="end" x="79" y="4.199999999999999" transform="translate(0,293.74)" style="font-family: 'Open Sans', verdana, arial, sans-serif; font-size: 12px; fill: rgb(42, 63, 95); fill-opacity: 1; white-space: pre;">0.866</text></g><g class="ytick"><text text-anchor="end" x="79" y="4.199999999999999" transform="translate(0,245.12)" style="font-family: 'Open Sans', verdana, arial, sans-serif; font-size: 12px; fill: rgb(42, 63, 95); fill-opacity: 1; white-space: pre;">0.867</text></g><g class="ytick"><text text-anchor="end" x="79" y="4.199999999999999" transform="translate(0,196.5)" style="font-family: 'Open Sans', verdana, arial, sans-serif; font-size: 12px; fill: rgb(42, 63, 95); fill-opacity: 1; white-space: pre;">0.868</text></g><g class="ytick"><text text-anchor="end" x="79" y="4.199999999999999" transform="translate(0,147.88)" style="font-family: 'Open Sans', verdana, arial, sans-serif; font-size: 12px; fill: rgb(42, 63, 95); fill-opacity: 1; white-space: pre;">0.869</text></g></g><g class="overaxes-above"/></g></g><g class="polarlayer"/><g class="ternarylayer"/><g class="geolayer"/><g class="funnelarealayer"/><g class="pielayer"/><g class="treemaplayer"/><g class="sunburstlayer"/><g class="glimages"/><defs id="topdefs-24c966"><g class="clips"/><clipPath id="legend24c966"><rect width="60" height="45" x="0" y="0"/></clipPath></defs><g class="layer-above"><g class="imagelayer"/><g class="shapelayer"/></g><g class="infolayer"><g class="legend" pointer-events="all" transform="translate(627.74,100)"><rect class="bg" shape-rendering="crispEdges" width="60" height="45" x="0" y="0" style="stroke: rgb(68, 68, 68); stroke-opacity: 1; fill: rgb(255, 255, 255); fill-opacity: 1; stroke-width: 0px;"/><g class="scrollbox" transform="" clip-path="url('#legend24c966')"><text class="legendtitletext" text-anchor="start" x="2" y="15.600000000000001" style="font-family: 'Open Sans', verdana, arial, sans-serif; font-size: 12px; fill: rgb(42, 63, 95); fill-opacity: 1; white-space: pre;">All</text><g class="groups" transform=""><g class="traces" transform="translate(0,30.1)" style="opacity: 1;"><text class="legendtext" text-anchor="start" x="40" y="4.680000000000001" style="font-family: 'Open Sans', verdana, arial, sans-serif; font-size: 12px; fill: rgb(42, 63, 95); fill-opacity: 1; white-space: pre;">All</text><g class="layers" style="opacity: 1;"><g class="legendfill"/><g class="legendlines"><path class="js-line" d="M5,0h30" style="fill: none; stroke: rgb(99, 110, 250); stroke-opacity: 1; stroke-width: 2px;"/></g><g class="legendsymbols"><g class="legendpoints"/></g></g><rect class="legendtoggle" x="0" y="-9.5" width="54.890625" height="19" style="fill: rgb(0, 0, 0); fill-opacity: 0;"/></g></g></g><rect class="scrollbar" rx="20" ry="3" width="0" height="0" x="0" y="0" style="fill: rgb(128, 139, 164); fill-opacity: 1;"/></g><g class="g-gtitle"><text class="gtitle" x="35" y="50" text-anchor="start" dy="0em" style="font-family: 'Open Sans', verdana, arial, sans-serif; font-size: 17px; fill: rgb(42, 63, 95); opacity: 1; font-weight: normal; white-space: pre;">Singapore Vaccination Centers</text></g><g class="g-xtitle"><text class="xtitle" x="348.5" y="476.409375" text-anchor="middle" style="font-family: 'Open Sans', verdana, arial, sans-serif; font-size: 14px; fill: rgb(42, 63, 95); opacity: 1; font-weight: normal; white-space: pre;">Time</text></g><g class="g-ytitle"><text class="ytitle" transform="rotate(-90,19.840625000000003,260)" x="19.840625000000003" y="260" text-anchor="middle" style="font-family: 'Open Sans', verdana, arial, sans-serif; font-size: 14px; fill: rgb(42, 63, 95); opacity: 1; font-weight: normal; white-space: pre;">Filled/%</text></g></g></svg>