<svg class="main-svg" xmlns="http://www.w3.org/2000/svg" xmlns:xlink="http://www.w3.org/1999/xlink" width="700" height="500" style="" viewBox="0 0 700 500"><rect x="0" y="0" width="700" height="500" style="fill: rgb(255, 255, 255); fill-opacity: 1;"/><defs id="defs-e55c0f"><g class="clips"><clipPath id="clipe55c0fxyplot" class="plotclip"><rect width="537" height="320"/></clipPath><clipPath class="axesclip" id="clipe55c0fx"><rect x="80" y="0" width="537" height="500"/></clipPath><clipPath class="axesclip" id="clipe55c0fy"><rect x="0" y="100" width="700" height="320"/></clipPath><clipPath class="axesclip" id="clipe55c0fxy"><rect x="80" y="100" width="537" height="320"/></clipPath></g><g class="gradients"/></defs><g class="bglayer"><rect class="bg" x="80" y="100" width="537" height="320" style="fill: rgb(229, 236, 246); fill-opacity: 1; stroke-width: 0;"/></g><g class="layer-below"><g class="imagelayer"/><g class="shapelayer"/></g><g class="cartesianlayer"><g class="subplot xy"><g class="layer-subplot"><g class="shapelayer"/><g class="imagelayer"/></g><g class="gridlayer"><g class="x"><path class="xgrid crisp" transform="translate(82.54,0)" d="M0,100v320" style="stroke: rgb(255, 255, 255); stroke-opacity: 1; stroke-width: 1px;"/><path class="xgrid crisp" transform="translate(180.57,0)" d="M0,100v320" style="stroke: rgb(255, 255, 255); stroke-opacity: 1; stroke-width: 1px;"/><path class="xgrid crisp" transform="translate(278.59000000000003,0)" d="M0,100v320" style="stroke: rgb(255, 255, 255); stroke-opacity: 1; stroke-width: 1px;"/><path class="xgrid crisp" transform="translate(376.61,0)" d="M0,100v320" style="stroke: rgb(255, 255, 255); stroke-opacity: 1; stroke-width: 1px;"/><path class="xgrid crisp" transform="translate(474.63,0)" d="M0,100v320" style="stroke: rgb(255, 255, 255); stroke-opacity: 1; stroke-width: 1px;"/><path class="xgrid crisp" transform="translate(572.65,0)" d="M0,100v320" style="stroke: rgb(255, 255, 255); stroke-opacity: 1; stroke-width: 1px;"/></g><g class="y"><path class="ygrid crisp" transform="translate(0,392.55)" d="M80,0h537" style="stroke: rgb(255, 255, 255); stroke-opacity: 1; stroke-width: 1px;"/><path class="ygrid crisp" transform="translate(0,349.77)" d="M80,0h537" style="stroke: rgb(255, 255, 255); stroke-opacity: 1; stroke-width: 1px;"/><path class="ygrid crisp" transform="translate(0,306.99)" d="M80,0h537" style="stroke: rgb(255, 255, 255); stroke-opacity: 1; stroke-width: 1px;"/><path class="ygrid crisp" transform="translate(0,264.21000000000004)" d="M80,0h537" style="stroke: rgb(255, 255, 255); stroke-opacity: 1; stroke-width: 1px;"/><path class="ygrid crisp" transform="translate(0,221.43)" d="M80,0h537" style="stroke: rgb(255, 255, 255); stroke-opacity: 1; stroke-width: 1px;"/><path class="ygrid crisp" transform="translate(0,178.65)" d="M80,0h537" style="stroke: rgb(255, 255, 255); stroke-opacity: 1; stroke-width: 1px;"/><path class="ygrid crisp" transform="translate(0,135.87)" d="M80,0h537" style="stroke: rgb(255, 255, 255); stroke-opacity: 1; stroke-width: 1px;"/></g></g><g class="zerolinelayer"/><path class="xlines-below"/><path class="ylines-below"/><g class="overlines-below"/><g class="xaxislayer-below"/><g class="yaxislayer-below"/><g class="overaxes-below"/><g class="plot" transform="translate(80,100)" clip-path="url('#clipe55c0fxyplot')"><g class="scatterlayer mlayer"><g class="trace scatter tracefd5af9" style="stroke-miterlimit: 2; opacity: 1;"><g class="fills"/><g class="errorbars"/><g class="lines"><path class="js-line" d="M0,304L1.96,302.59L2.64,249.74L3.32,251.04L4.01,249.35L6.73,248.71L7.41,248.32L8.77,249.1L9.45,248.19L10.81,248.58L11.49,248.19L12.85,247.93L13.53,247.67L14.9,247.41L15.58,247.16L21.02,246.77L21.7,246.51L25.79,246.12L26.47,245.73L27.83,245.86L28.51,245.22L29.87,245.09L30.55,244.44L31.91,244.57L32.59,243.66L33.96,244.57L34.64,243.02L36.68,242.11L37.36,242.63L38.04,242.24L38.72,243.15L40.08,240.17L40.76,240.69L41.44,240.69L42.12,239.78L44.85,237.84L45.53,236.94L46.88,238.23L47.57,237.07L48.25,235L48.93,235.51L49.61,236.55L50.29,235L51.65,232.67L52.33,232.28L53.7,230.6L54.38,231.12L55.73,229.95L56.42,230.21L57.1,231.76L57.78,229.56L59.82,230.6L60.5,230.21L62.55,226.07L63.23,226.85L64.59,225.68L65.27,227.36L65.95,227.11L66.63,225.55L69.35,221.16L70.03,218.44L70.71,219.09L71.39,217.66L72.08,216.63L72.76,217.4L74.12,217.66L74.8,218.7L77.52,216.5L78.2,216.37L79.56,215.72L80.25,214.69L80.92,214.3L81.61,214.82L82.96,215.98L83.64,214.43L86.37,212.88L87.05,212.75L89.09,211.84L89.77,211.71L91.13,211.84L91.82,211.45L93.86,211.32L94.54,210.42L95.9,207.7L96.58,207.7L97.26,206.93L97.94,207.83L99.98,207.96L100.67,142.27L102.71,140.18L103.39,140.44L104.75,139.92L105.43,139.01L106.79,139.14L107.47,139.14L110.19,138.48L110.87,138.35L112.92,137.83L113.6,137.96L119.72,137.96L120.41,138.09L125.17,137.83L125.85,137.18L127.89,137.18L128.57,136.14L131.29,136.27L131.98,135.74L133.33,135.88L134.01,135.22L135.38,134.57L136.06,135.22L138.78,132.22L139.46,133.27L141.51,131.57L142.19,132.22L144.91,128.44L145.59,130.14L148.31,127.14L148.99,128.05L150.35,126.48L151.03,127.66L151.71,128.7L152.4,127.79L153.08,128.83L153.76,128.31L154.44,127.4L155.12,128.44L155.8,127.79L156.48,128.18L158.52,128.83L159.2,128.44L161.94,124.79L162.61,124.92L163.98,125.96L164.66,124.01L167.38,123.09L168.06,121.4L170.79,121.92L171.47,120.61L172.15,118.4L172.83,119.96L173.51,119.96L174.19,118.79L174.87,119.7L175.55,119.18L176.91,117.35L177.59,117.48L179.64,114.35L180.32,114.48L181.68,112.14L182.36,112.92L183.72,110.83L184.4,111.35L186.44,110.7L187.12,108.09L187.8,107.96L188.48,106.92L189.85,105.74L190.53,106L191.89,107.83L192.57,107.18L193.25,109.13L193.93,108.35L194.61,108.22L195.29,106.66L195.97,106.27L196.65,106.79L198.01,107.05L198.7,61.25L200.74,59.15L201.42,58.88L205.5,56.78L206.18,56.52L208.9,54.54L209.58,54.28L211.63,54.41L212.31,53.75L215.71,53.62L216.39,53.75L227.28,51.78L227.96,52.18L230,51.12L230.68,51.25L231.37,51.52L232.04,50.73L236.13,50.07L237.49,49.54L238.17,48.23L239.53,47.83L240.89,47.44L241.57,45.73L242.26,46.91L242.94,45.73L244.3,45.73L244.98,45.07L245.66,44.94L246.34,43.76L248.38,43.49L249.06,41.91L250.42,40.2L251.11,39.42L251.77,38.1L252.44,38.76L254.49,37.71L255.17,36L257.89,35.34L258.57,33.36L259.25,32.71L259.93,33.23L261.29,32.44L261.97,32.05L262.66,31.92L263.33,30.86L264.7,30.86L265.37,31.39L266.74,32.97L267.42,31.13L268.78,32.31L269.47,30.34L270.83,30.47L271.51,30.86L273.55,29.02L274.23,29.42L275.59,27.71L276.27,26.66L276.95,24.16L277.63,24.68L278.31,23.24L278.99,24.68L280.36,22.84L281.04,22.58L281.72,21.26L282.39,21.66L283.76,21.79L284.43,20.74L285.12,21.26L285.8,19.68L287.16,19.55L287.84,18.5L290.56,18.89L291.24,17.97L292.61,17.84L293.29,17.97L294.65,16L295.33,16.66L296.01,16.39L296.69,171.81L300.1,171.4L300.78,172.08L302.82,170.99L303.5,170.99L304.86,169.76L305.54,169.76L306.9,168.94L307.58,169.08L319.16,168.39L319.83,167.98L328.68,165.8L329.36,165.12L332.77,164.02L333.45,162.66L336.19,162.38L336.87,163.61L338.24,161.7L338.92,161.57L339.6,160.88L340.28,158.43L340.96,156.51L341.64,156.79L342.32,156.1L343,154.33L343.68,154.88L345.04,154.47L345.72,154.33L347.76,152.69L348.45,153.65L350.49,150.92L351.17,151.87L353.21,149.14L353.89,149.14L354.57,148.32L355.25,149.41L356.62,150.37L357.3,149.41L357.98,149.55L358.66,148.73L361.38,145.18L362.06,144.5L364.1,143.54L364.79,145.04L368.87,141.9L369.55,143.68L370.91,121.97L371.59,121.56L372.95,120.88L373.64,116.1L374.31,116.24L374.99,112.28L375.68,112.55L376.36,109.96L377.04,106.95L377.72,107.91L379.76,101.22L380.44,98.08L381.8,97.53L382.48,95.35L383.16,94.8L383.85,92.07L385.21,89.34L385.88,89.34L387.93,85.65L388.61,84.7L389.97,82.78L390.65,80.19L394.06,75L394.74,88.44L398.14,84.03L398.82,84.45L399.5,84.31L400.18,85.14L401.55,84.72L402.23,85.41L403.59,84.59L404.26,84.45L405.63,84.03L406.31,84.03L407.67,84.17L408.35,83.62L413.12,84.03L413.8,83.62L417.88,83.21L418.56,83.48L421.28,83.48L421.96,83.35L423.33,83.35L424,83.35L426.05,83.35L426.73,83.9L430.13,79.9L430.81,80.18L432.86,78.8L433.53,78.94L434.22,78.53L434.9,76.87L436.26,77.15L436.94,75.63L440.34,72.47L441.02,72.88L443.06,69.44L443.74,69.02L445.79,66.41L446.47,66.41L447.83,63.79L448.51,63.79L449.87,61.86L450.55,59.66L453.28,54.43L453.96,54.01L454.64,53.6L455.32,51.4L458.04,49.47L458.72,47.82L462.81,46.85L463.49,45.75L464.17,46.16L464.85,45.48L465.53,45.89L470.97,41.21L474.38,38.59L475.06,39.28L477.78,35.97L478.46,35.84L479.15,34.46L479.82,35.01L481.18,33.91L481.87,34.18L482.55,35.28L483.23,34.32L485.95,32.94L486.64,33.91L489.35,33.22L490.04,32.12L492.08,29.78L492.76,81.26L494.12,81.68L494.8,80.56L495.48,79.86L496.16,80.42L498.2,80.42L498.88,81.4L500.93,81.12L501.61,81.12L505.01,81.4L505.69,81.12L508.42,79.86L509.1,80.28L515.9,79.58L516.59,79.58L524.07,79.3L524.75,79.16L528.15,78.74L528.83,78.31L530.2,77.75L530.88,76.77L532.24,76.35L532.92,74.95L533.6,73.55L534.28,74.95L537,73.97" style="vector-effect: non-scaling-stroke; fill: none; stroke: rgb(99, 110, 250); stroke-opacity: 1; stroke-width: 2px; opacity: 1;"/></g><g class="points"/><g class="text"/></g></g></g><g class="overplot"/><path class="xlines-above crisp" d="M0,0" style="fill: none;"/><path class="ylines-above crisp" d="M0,0" style="fill: none;"/><g class="overlines-above"/><g class="xaxislayer-above"><g class="xtick"><text text-anchor="middle" x="0" y="433" transform="translate(82.54,0)" style="font-family: 'Open Sans', verdana, arial, sans-serif; font-size: 12px; fill: rgb(42, 63, 95); fill-opacity: 1; white-space: pre;"><tspan class="line" dy="0em" x="0" y="433">Aug 3</tspan><tspan class="line" dy="1.3em" x="0" y="433">2021</tspan></text></g><g class="xtick"><text text-anchor="middle" x="0" y="433" transform="translate(180.57,0)" style="font-family: 'Open Sans', verdana, arial, sans-serif; font-size: 12px; fill: rgb(42, 63, 95); fill-opacity: 1; white-space: pre;">Aug 4</text></g><g class="xtick"><text text-anchor="middle" x="0" y="433" transform="translate(278.59000000000003,0)" style="font-family: 'Open Sans', verdana, arial, sans-serif; font-size: 12px; fill: rgb(42, 63, 95); fill-opacity: 1; white-space: pre;">Aug 5</text></g><g class="xtick"><text text-anchor="middle" x="0" y="433" transform="translate(376.61,0)" style="font-family: 'Open Sans', verdana, arial, sans-serif; font-size: 12px; fill: rgb(42, 63, 95); fill-opacity: 1; white-space: pre;">Aug 6</text></g><g class="xtick"><text text-anchor="middle" x="0" y="433" transform="translate(474.63,0)" style="font-family: 'Open Sans', verdana, arial, sans-serif; font-size: 12px; fill: rgb(42, 63, 95); fill-opacity: 1; white-space: pre;">Aug 7</text></g><g class="xtick"><text text-anchor="middle" x="0" y="433" transform="translate(572.65,0)" style="font-family: 'Open Sans', verdana, arial, sans-serif; font-size: 12px; fill: rgb(42, 63, 95); fill-opacity: 1; white-space: pre;">Aug 8</text></g></g><g class="yaxislayer-above"><g class="ytick"><text text-anchor="end" x="79" y="4.199999999999999" transform="translate(0,392.55)" style="font-family: 'Open Sans', verdana, arial, sans-serif; font-size: 12px; fill: rgb(42, 63, 95); fill-opacity: 1; white-space: pre;">0.864</text></g><g class="ytick"><text text-anchor="end" x="79" y="4.199999999999999" transform="translate(0,349.77)" style="font-family: 'Open Sans', verdana, arial, sans-serif; font-size: 12px; fill: rgb(42, 63, 95); fill-opacity: 1; white-space: pre;">0.865</text></g><g class="ytick"><text text-anchor="end" x="79" y="4.199999999999999" transform="translate(0,306.99)" style="font-family: 'Open Sans', verdana, arial, sans-serif; font-size: 12px; fill: rgb(42, 63, 95); fill-opacity: 1; white-space: pre;">0.866</text></g><g class="ytick"><text text-anchor="end" x="79" y="4.199999999999999" transform="translate(0,264.21000000000004)" style="font-family: 'Open Sans', verdana, arial, sans-serif; font-size: 12px; fill: rgb(42, 63, 95); fill-opacity: 1; white-space: pre;">0.867</text></g><g class="ytick"><text text-anchor="end" x="79" y="4.199999999999999" transform="translate(0,221.43)" style="font-family: 'Open Sans', verdana, arial, sans-serif; font-size: 12px; fill: rgb(42, 63, 95); fill-opacity: 1; white-space: pre;">0.868</text></g><g class="ytick"><text text-anchor="end" x="79" y="4.199999999999999" transform="translate(0,178.65)" style="font-family: 'Open Sans', verdana, arial, sans-serif; font-size: 12px; fill: rgb(42, 63, 95); fill-opacity: 1; white-space: pre;">0.869</text></g><g class="ytick"><text text-anchor="end" x="79" y="4.199999999999999" transform="translate(0,135.87)" style="font-family: 'Open Sans', verdana, arial, sans-serif; font-size: 12px; fill: rgb(42, 63, 95); fill-opacity: 1; white-space: pre;">0.87</text></g></g><g class="overaxes-above"/></g></g><g class="polarlayer"/><g class="ternarylayer"/><g class="geolayer"/><g class="funnelarealayer"/><g class="pielayer"/><g class="treemaplayer"/><g class="sunburstlayer"/><g class="glimages"/><defs id="topdefs-e55c0f"><g class="clips"/><clipPath id="legende55c0f"><rect width="60" height="45" x="0" y="0"/></clipPath></defs><g class="layer-above"><g class="imagelayer"/><g class="shapelayer"/></g><g class="infolayer"><g class="legend" pointer-events="all" transform="translate(627.74,100)"><rect class="bg" shape-rendering="crispEdges" width="60" height="45" x="0" y="0" style="stroke: rgb(68, 68, 68); stroke-opacity: 1; fill: rgb(255, 255, 255); fill-opacity: 1; stroke-width: 0px;"/><g class="scrollbox" transform="" clip-path="url('#legende55c0f')"><text class="legendtitletext" text-anchor="start" x="2" y="15.600000000000001" style="font-family: 'Open Sans', verdana, arial, sans-serif; font-size: 12px; fill: rgb(42, 63, 95); fill-opacity: 1; white-space: pre;">All</text><g class="groups" transform=""><g class="traces" transform="translate(0,30.1)" style="opacity: 1;"><text class="legendtext" text-anchor="start" x="40" y="4.680000000000001" style="font-family: 'Open Sans', verdana, arial, sans-serif; font-size: 12px; fill: rgb(42, 63, 95); fill-opacity: 1; white-space: pre;">All</text><g class="layers" style="opacity: 1;"><g class="legendfill"/><g class="legendlines"><path class="js-line" d="M5,0h30" style="fill: none; stroke: rgb(99, 110, 250); stroke-opacity: 1; stroke-width: 2px;"/></g><g class="legendsymbols"><g class="legendpoints"/></g></g><rect class="legendtoggle" x="0" y="-9.5" width="54.890625" height="19" style="fill: rgb(0, 0, 0); fill-opacity: 0;"/></g></g></g><rect class="scrollbar" rx="20" ry="3" width="0" height="0" x="0" y="0" style="fill: rgb(128, 139, 164); fill-opacity: 1;"/></g><g class="g-gtitle"><text class="gtitle" x="35" y="50" text-anchor="start" dy="0em" style="font-family: 'Open Sans', verdana, arial, sans-serif; font-size: 17px; fill: rgb(42, 63, 95); opacity: 1; font-weight: normal; white-space: pre;">Singapore Vaccination Centers</text></g><g class="g-xtitle"><text class="xtitle" x="348.5" y="476.409375" text-anchor="middle" style="font-family: 'Open Sans', verdana, arial, sans-serif; font-size: 14px; fill: rgb(42, 63, 95); opacity: 1; font-weight: normal; white-space: pre;">Time</text></g><g class="g-ytitle"><text class="ytitle" transform="rotate(-90,19.840625000000003,260)" x="19.840625000000003" y="260" text-anchor="middle" style="font-family: 'Open Sans', verdana, arial, sans-serif; font-size: 14px; fill: rgb(42, 63, 95); opacity: 1; font-weight: normal; white-space: pre;">Filled/%</text></g></g></svg>