<svg class="main-svg" xmlns="http://www.w3.org/2000/svg" xmlns:xlink="http://www.w3.org/1999/xlink" width="700" height="500" style="" viewBox="0 0 700 500"><rect x="0" y="0" width="700" height="500" style="fill: rgb(255, 255, 255); fill-opacity: 1;"/><defs id="defs-ad26af"><g class="clips"><clipPath id="clipad26afxyplot" class="plotclip"><rect width="537" height="320"/></clipPath><clipPath class="axesclip" id="clipad26afx"><rect x="80" y="0" width="537" height="500"/></clipPath><clipPath class="axesclip" id="clipad26afy"><rect x="0" y="100" width="700" height="320"/></clipPath><clipPath class="axesclip" id="clipad26afxy"><rect x="80" y="100" width="537" height="320"/></clipPath></g><g class="gradients"/></defs><g class="bglayer"><rect class="bg" x="80" y="100" width="537" height="320" style="fill: rgb(229, 236, 246); fill-opacity: 1; stroke-width: 0;"/></g><g class="layer-below"><g class="imagelayer"/><g class="shapelayer"/></g><g class="cartesianlayer"><g class="subplot xy"><g class="layer-subplot"><g class="shapelayer"/><g class="imagelayer"/></g><g class="gridlayer"><g class="x"><path class="xgrid crisp" transform="translate(82.02,0)" d="M0,100v320" style="stroke: rgb(255, 255, 255); stroke-opacity: 1; stroke-width: 1px;"/><path class="xgrid crisp" transform="translate(159.98000000000002,0)" d="M0,100v320" style="stroke: rgb(255, 255, 255); stroke-opacity: 1; stroke-width: 1px;"/><path class="xgrid crisp" transform="translate(237.94,0)" d="M0,100v320" style="stroke: rgb(255, 255, 255); stroke-opacity: 1; stroke-width: 1px;"/><path class="xgrid crisp" transform="translate(315.9,0)" d="M0,100v320" style="stroke: rgb(255, 255, 255); stroke-opacity: 1; stroke-width: 1px;"/><path class="xgrid crisp" transform="translate(393.86,0)" d="M0,100v320" style="stroke: rgb(255, 255, 255); stroke-opacity: 1; stroke-width: 1px;"/><path class="xgrid crisp" transform="translate(471.82,0)" d="M0,100v320" style="stroke: rgb(255, 255, 255); stroke-opacity: 1; stroke-width: 1px;"/><path class="xgrid crisp" transform="translate(549.78,0)" d="M0,100v320" style="stroke: rgb(255, 255, 255); stroke-opacity: 1; stroke-width: 1px;"/></g><g class="y"><path class="ygrid crisp" transform="translate(0,394.13)" d="M80,0h537" style="stroke: rgb(255, 255, 255); stroke-opacity: 1; stroke-width: 1px;"/><path class="ygrid crisp" transform="translate(0,357.26)" d="M80,0h537" style="stroke: rgb(255, 255, 255); stroke-opacity: 1; stroke-width: 1px;"/><path class="ygrid crisp" transform="translate(0,320.39)" d="M80,0h537" style="stroke: rgb(255, 255, 255); stroke-opacity: 1; stroke-width: 1px;"/><path class="ygrid crisp" transform="translate(0,283.52)" d="M80,0h537" style="stroke: rgb(255, 255, 255); stroke-opacity: 1; stroke-width: 1px;"/><path class="ygrid crisp" transform="translate(0,246.65)" d="M80,0h537" style="stroke: rgb(255, 255, 255); stroke-opacity: 1; stroke-width: 1px;"/><path class="ygrid crisp" transform="translate(0,209.78)" d="M80,0h537" style="stroke: rgb(255, 255, 255); stroke-opacity: 1; stroke-width: 1px;"/><path class="ygrid crisp" transform="translate(0,172.91)" d="M80,0h537" style="stroke: rgb(255, 255, 255); stroke-opacity: 1; stroke-width: 1px;"/><path class="ygrid crisp" transform="translate(0,136.04)" d="M80,0h537" style="stroke: rgb(255, 255, 255); stroke-opacity: 1; stroke-width: 1px;"/></g></g><g class="zerolinelayer"/><path class="xlines-below"/><path class="ylines-below"/><g class="overlines-below"/><g class="xaxislayer-below"/><g class="yaxislayer-below"/><g class="overaxes-below"/><g class="plot" transform="translate(80,100)" clip-path="url('#clipad26afxyplot')"><g class="scatterlayer mlayer"><g class="trace scatter tracecf0272" style="stroke-miterlimit: 2; opacity: 1;"><g class="fills"/><g class="errorbars"/><g class="lines"><path class="js-line" d="M0,304L1.56,302.78L2.1,257.24L2.64,258.35L3.19,256.9L5.35,256.35L5.89,256.01L6.98,256.68L7.52,255.9L8.6,256.23L9.14,255.9L10.22,255.68L10.76,255.45L11.85,255.23L12.39,255.01L19.42,254.67L19.97,254.23L23.76,253.22L24.3,252.67L25.38,252.78L25.92,252L27.01,252.78L27.55,251.44L29.17,250.66L29.71,251.11L30.25,250.77L30.8,251.55L31.88,248.99L32.42,249.43L32.96,249.43L34.58,248.32L35.12,247.65L36.21,246.2L36.75,247.09L37.29,247.32L37.83,246.31L38.37,244.53L38.92,244.97L39.46,245.87L41.62,242.19L42.16,241.41L43.79,240.52L44.33,240.18L44.87,240.4L45.41,241.74L45.95,239.85L46.5,240.18L47.04,239.96L48.12,240.4L48.66,238.62L49.74,236.84L50.29,237.51L51.37,236.5L51.91,237.95L52.45,237.73L52.99,236.39L55.16,232.6L55.7,230.26L56.24,230.82L56.78,229.59L57.32,228.7L57.86,229.37L58.95,229.59L59.49,230.48L62.2,228.47L62.74,228.25L64.9,227.14L65.45,228.14L65.98,228.14L66.53,226.8L68.7,225.46L69.23,225.35L70.86,224.57L71.4,224.46L72.48,224.57L73.02,224.24L74.65,224.13L75.19,223.35L76.81,221.01L77.36,220.34L78.44,221.23L78.98,220.78L79.52,221.23L80.06,164.61L82.23,163.04L82.77,162.92L84.93,161.91L85.48,161.91L88.18,161.24L88.72,160.9L93.6,160.67L94.14,160.79L99.55,160.79L100.09,160.22L101.72,160.22L102.26,159.33L104.42,159.44L104.97,158.99L106.05,159.1L106.59,158.54L108.21,158.54L108.75,157.64L110.38,155.95L110.92,156.85L112.54,155.39L113.09,155.95L115.25,152.69L115.79,154.15L117.96,151.57L118.5,152.36L119.58,151.01L120.12,152.02L120.66,152.92L121.21,152.13L121.75,153.03L122.29,152.58L122.83,151.79L123.37,152.69L123.91,152.13L126.08,153.03L126.62,152.69L128.79,149.54L129.33,149.66L130.42,150.56L130.96,148.87L133.13,148.08L133.67,146.62L135.83,147.07L136.37,145.95L136.91,144.04L137.46,145.38L138,145.38L138.54,144.37L139.08,145.16L139.62,144.71L140.16,143.7L143.95,139.76L144.5,138.64L145.04,139.31L145.57,138.53L146.12,137.52L146.66,137.97L147.2,137.63L148.28,137.4L148.82,135.15L149.37,135.04L149.9,134.14L150.99,133.13L151.53,133.36L152.62,134.93L153.16,134.37L153.7,136.05L154.24,135.38L154.78,135.27L155.86,133.58L156.41,134.03L157.49,134.26L158.03,94.79L159.65,92.97L160.19,92.74L165.07,89.91L165.61,89.8L166.69,88.78L167.23,88.78L168.31,88.89L168.86,88.32L180.77,86.62L181.31,86.96L182.93,86.06L183.47,86.17L184.02,86.4L184.55,85.72L187.8,85.15L188.88,84.7L189.43,83.56L190.51,83.22L191.59,82.88L192.13,81.41L192.67,82.43L193.22,81.41L194.3,81.41L194.84,80.84L195.38,80.73L195.92,79.71L197.55,79.48L198.09,78.12L200.24,74.83L200.78,75.4L202.4,74.49L202.94,73.02L205.11,72.45L205.65,70.75L206.73,70.64L207.27,70.52L209.98,68.37L210.52,68.6L212.15,70.41L212.69,68.82L213.77,69.84L214.32,68.14L215.4,68.26L215.94,68.6L218.1,67.35L218.64,66.9L221.35,62.02L221.89,63.27L222.98,61.68L223.52,61.45L224.06,60.32L224.6,60.66L225.14,60.77L225.68,60.77L226.22,59.87L226.76,60.32L227.31,58.96L228.39,58.85L228.93,57.94L231.09,58.28L231.64,57.49L232.72,57.37L233.26,57.49L234.35,55.78L234.88,56.35L235.43,56.12L235.97,190.07L240.3,189.71L240.84,189.36L241.38,189.36L241.93,188.42L248.42,187.24L248.96,187.36L254.92,186.65L255.46,186.54L259.25,185.6L259.79,185.83L261.41,184.89L261.95,184.3L264.66,183.36L265.2,182.18L267.39,181.95L267.93,183.01L269.01,181.36L269.55,181.24L270.09,180.65L270.63,178.54L271.17,176.89L271.72,177.12L272.26,176.53L272.8,175.01L273.34,175.48L273.88,174.89L274.97,175.01L275.51,174.18L276.59,173.59L277.13,174.42L278.76,172.06L279.3,172.89L280.92,170.53L281.46,170.53L282,169.83L282.55,170.77L283.63,171.59L284.17,170.77L284.71,170.89L285.25,170.18L287.96,166.53L288.5,166.06L289.58,165.71L290.13,167L293.37,164.3L293.91,165.83L295,147.12L295.54,146.76L296.62,146.18L297.17,142.06L297.7,142.17L298.24,138.76L298.79,139L299.33,136.76L299.87,134.17L300.41,135L300.95,133.47L301.49,132.29L302.03,129.23L303.12,126.52L303.66,126.05L306.37,118.99L306.91,118.99L308.53,115.82L309.08,114.99L313.41,106.64L313.95,118.22L316.66,114.42L317.2,114.78L317.74,114.66L318.28,115.37L319.36,115.01L319.9,115.61L321.52,114.78L322.07,114.9L323.15,114.42L323.69,114.54L331.27,113.95L331.81,113.59L336.14,114.07L336.69,113.83L339.93,113.71L340.47,113.23L342.1,110.86L342.64,111.1L344.26,109.91L344.8,110.03L345.35,109.67L345.89,108.25L346.97,108.49L347.51,107.18L350.22,104.45L350.76,104.81L352.38,101.84L352.93,101.48L354.55,99.23L355.09,99.23L356.18,96.97L356.71,96.97L357.8,95.31L358.34,93.41L360.51,88.9L361.05,88.55L361.59,88.19L362.13,86.29L364.3,84.63L364.84,83.21L368.09,82.38L368.63,81.43L369.17,81.78L369.71,81.19L370.25,81.54L374.58,77.51L377.29,75.25L377.83,75.85L380,73L380.54,72.88L381.08,71.69L381.62,72.17L382.16,71.57L383.25,71.46L383.79,72.41L385.41,71.22L385.95,70.98L386.49,70.39L387.04,71.22L389.2,70.63L389.74,69.68L391.37,67.66L391.91,112.03L392.99,112.39L393.53,111.43L394.07,110.82L394.61,111.3L395.17,111.18L396.24,111.3L396.78,112.15L398.95,111.91L399.49,112.03L401.11,112.15L401.66,112.15L404.36,110.82L404.9,111.18L410.86,110.58L411.4,110.58L417.89,110.22L418.43,109.85L420.06,109.85L420.6,109.49L421.68,109.01L422.22,108.16L423.31,107.8L423.85,106.59L424.39,105.38L424.93,106.59L427.1,105.74L427.64,105.74L428.72,103.93L429.26,103.69L430.89,101.15L431.43,101.03L433.05,100.67L433.59,99.94L434.68,99.34L435.22,99.46L436.3,98.13L436.84,97.52L439.01,96.68L439.55,97.04L440.09,96.56L440.63,97.16L441.71,94.14L442.26,94.38L442.8,94.38L444.42,93.9L444.96,92.81L448.21,90.87L448.75,90.51L449.84,90.15L450.38,89.79L453.08,87.49L453.63,87.85L457.42,86.04L457.95,85.07L459.58,82.89L460.12,82.17L460.66,82.41L461.21,80.84L462.29,79.15L462.83,79.75L468.24,76.61L468.78,76.61L469.33,76.85L469.87,47.34L474.2,44.17L474.74,44.29L480.16,44.42L480.7,44.78L483.4,44.17L483.94,44.17L487.74,44.05L488.27,44.17L493.16,43.81L493.69,44.05L494.77,44.17L495.31,43.93L496.94,44.05L497.48,43.2L498.56,44.17L499.1,43.44L500.73,42.22L501.27,41.49L502.35,41.85L502.89,40.76L503.97,40.15L504.51,40.39L505.06,39.66L505.6,37.59L506.14,37.59L506.68,36.61L507.22,37.22L507.76,36.49L508.85,35.02L509.39,33.56L509.93,32.95L510.47,33.93L511.55,31.37L512.09,31.61L513.18,30.15L513.72,30.27L516.97,28.81L517.51,28.93L518.59,28.32L519.13,27.34L520.76,28.07L521.3,26.73L522.92,26.37L523.47,26.49L525.09,22.83L525.63,23.2L526.17,22.83L528.34,20.88L528.88,21.37L529.42,21.37L529.96,20.27L530.5,20.15L531.05,18.8L531.59,19.05L532.13,18.44L532.67,19.05L533.21,18.32L534.29,16.61L534.83,16.24L535.38,16L535.92,16.73L537,16.98" style="vector-effect: non-scaling-stroke; fill: none; stroke: rgb(99, 110, 250); stroke-opacity: 1; stroke-width: 2px; opacity: 1;"/></g><g class="points"/><g class="text"/></g></g></g><g class="overplot"/><path class="xlines-above crisp" d="M0,0" style="fill: none;"/><path class="ylines-above crisp" d="M0,0" style="fill: none;"/><g class="overlines-above"/><g class="xaxislayer-above"><g class="xtick"><text text-anchor="middle" x="0" y="433" transform="translate(82.02,0)" style="font-family: 'Open Sans', verdana, arial, sans-serif; font-size: 12px; fill: rgb(42, 63, 95); fill-opacity: 1; white-space: pre;"><tspan class="line" dy="0em" x="0" y="433">Aug 3</tspan><tspan class="line" dy="1.3em" x="0" y="433">2021</tspan></text></g><g class="xtick"><text text-anchor="middle" x="0" y="433" transform="translate(159.98000000000002,0)" style="font-family: 'Open Sans', verdana, arial, sans-serif; font-size: 12px; fill: rgb(42, 63, 95); fill-opacity: 1; white-space: pre;">Aug 4</text></g><g class="xtick"><text text-anchor="middle" x="0" y="433" transform="translate(237.94,0)" style="font-family: 'Open Sans', verdana, arial, sans-serif; font-size: 12px; fill: rgb(42, 63, 95); fill-opacity: 1; white-space: pre;">Aug 5</text></g><g class="xtick"><text text-anchor="middle" x="0" y="433" transform="translate(315.9,0)" style="font-family: 'Open Sans', verdana, arial, sans-serif; font-size: 12px; fill: rgb(42, 63, 95); fill-opacity: 1; white-space: pre;">Aug 6</text></g><g class="xtick"><text text-anchor="middle" x="0" y="433" transform="translate(393.86,0)" style="font-family: 'Open Sans', verdana, arial, sans-serif; font-size: 12px; fill: rgb(42, 63, 95); fill-opacity: 1; white-space: pre;">Aug 7</text></g><g class="xtick"><text text-anchor="middle" x="0" y="433" transform="translate(471.82,0)" style="font-family: 'Open Sans', verdana, arial, sans-serif; font-size: 12px; fill: rgb(42, 63, 95); fill-opacity: 1; white-space: pre;">Aug 8</text></g><g class="xtick"><text text-anchor="middle" x="0" y="433" transform="translate(549.78,0)" style="font-family: 'Open Sans', verdana, arial, sans-serif; font-size: 12px; fill: rgb(42, 63, 95); fill-opacity: 1; white-space: pre;">Aug 9</text></g></g><g class="yaxislayer-above"><g class="ytick"><text text-anchor="end" x="79" y="4.199999999999999" transform="translate(0,394.13)" style="font-family: 'Open Sans', verdana, arial, sans-serif; font-size: 12px; fill: rgb(42, 63, 95); fill-opacity: 1; white-space: pre;">0.864</text></g><g class="ytick"><text text-anchor="end" x="79" y="4.199999999999999" transform="translate(0,357.26)" style="font-family: 'Open Sans', verdana, arial, sans-serif; font-size: 12px; fill: rgb(42, 63, 95); fill-opacity: 1; white-space: pre;">0.865</text></g><g class="ytick"><text text-anchor="end" x="79" y="4.199999999999999" transform="translate(0,320.39)" style="font-family: 'Open Sans', verdana, arial, sans-serif; font-size: 12px; fill: rgb(42, 63, 95); fill-opacity: 1; white-space: pre;">0.866</text></g><g class="ytick"><text text-anchor="end" x="79" y="4.199999999999999" transform="translate(0,283.52)" style="font-family: 'Open Sans', verdana, arial, sans-serif; font-size: 12px; fill: rgb(42, 63, 95); fill-opacity: 1; white-space: pre;">0.867</text></g><g class="ytick"><text text-anchor="end" x="79" y="4.199999999999999" transform="translate(0,246.65)" style="font-family: 'Open Sans', verdana, arial, sans-serif; font-size: 12px; fill: rgb(42, 63, 95); fill-opacity: 1; white-space: pre;">0.868</text></g><g class="ytick"><text text-anchor="end" x="79" y="4.199999999999999" transform="translate(0,209.78)" style="font-family: 'Open Sans', verdana, arial, sans-serif; font-size: 12px; fill: rgb(42, 63, 95); fill-opacity: 1; white-space: pre;">0.869</text></g><g class="ytick"><text text-anchor="end" x="79" y="4.199999999999999" transform="translate(0,172.91)" style="font-family: 'Open Sans', verdana, arial, sans-serif; font-size: 12px; fill: rgb(42, 63, 95); fill-opacity: 1; white-space: pre;">0.87</text></g><g class="ytick"><text text-anchor="end" x="79" y="4.199999999999999" transform="translate(0,136.04)" style="font-family: 'Open Sans', verdana, arial, sans-serif; font-size: 12px; fill: rgb(42, 63, 95); fill-opacity: 1; white-space: pre;">0.871</text></g></g><g class="overaxes-above"/></g></g><g class="polarlayer"/><g class="ternarylayer"/><g class="geolayer"/><g class="funnelarealayer"/><g class="pielayer"/><g class="treemaplayer"/><g class="sunburstlayer"/><g class="glimages"/><defs id="topdefs-ad26af"><g class="clips"/><clipPath id="legendad26af"><rect width="60" height="45" x="0" y="0"/></clipPath></defs><g class="layer-above"><g class="imagelayer"/><g class="shapelayer"/></g><g class="infolayer"><g class="legend" pointer-events="all" transform="translate(627.74,100)"><rect class="bg" shape-rendering="crispEdges" width="60" height="45" x="0" y="0" style="stroke: rgb(68, 68, 68); stroke-opacity: 1; fill: rgb(255, 255, 255); fill-opacity: 1; stroke-width: 0px;"/><g class="scrollbox" transform="" clip-path="url('#legendad26af')"><text class="legendtitletext" text-anchor="start" x="2" y="15.600000000000001" style="font-family: 'Open Sans', verdana, arial, sans-serif; font-size: 12px; fill: rgb(42, 63, 95); fill-opacity: 1; white-space: pre;">All</text><g class="groups" transform=""><g class="traces" transform="translate(0,30.1)" style="opacity: 1;"><text class="legendtext" text-anchor="start" x="40" y="4.680000000000001" style="font-family: 'Open Sans', verdana, arial, sans-serif; font-size: 12px; fill: rgb(42, 63, 95); fill-opacity: 1; white-space: pre;">All</text><g class="layers" style="opacity: 1;"><g class="legendfill"/><g class="legendlines"><path class="js-line" d="M5,0h30" style="fill: none; stroke: rgb(99, 110, 250); stroke-opacity: 1; stroke-width: 2px;"/></g><g class="legendsymbols"><g class="legendpoints"/></g></g><rect class="legendtoggle" x="0" y="-9.5" width="54.890625" height="19" style="fill: rgb(0, 0, 0); fill-opacity: 0;"/></g></g></g><rect class="scrollbar" rx="20" ry="3" width="0" height="0" x="0" y="0" style="fill: rgb(128, 139, 164); fill-opacity: 1;"/></g><g class="g-gtitle"><text class="gtitle" x="35" y="50" text-anchor="start" dy="0em" style="font-family: 'Open Sans', verdana, arial, sans-serif; font-size: 17px; fill: rgb(42, 63, 95); opacity: 1; font-weight: normal; white-space: pre;">Singapore Vaccination Centers</text></g><g class="g-xtitle"><text class="xtitle" x="348.5" y="476.409375" text-anchor="middle" style="font-family: 'Open Sans', verdana, arial, sans-serif; font-size: 14px; fill: rgb(42, 63, 95); opacity: 1; font-weight: normal; white-space: pre;">Time</text></g><g class="g-ytitle"><text class="ytitle" transform="rotate(-90,19.840625000000003,260)" x="19.840625000000003" y="260" text-anchor="middle" style="font-family: 'Open Sans', verdana, arial, sans-serif; font-size: 14px; fill: rgb(42, 63, 95); opacity: 1; font-weight: normal; white-space: pre;">Filled/%</text></g></g></svg>