<svg class="main-svg" xmlns="http://www.w3.org/2000/svg" xmlns:xlink="http://www.w3.org/1999/xlink" width="700" height="500" style="" viewBox="0 0 700 500"><rect x="0" y="0" width="700" height="500" style="fill: rgb(255, 255, 255); fill-opacity: 1;"/><defs id="defs-85af56"><g class="clips"><clipPath id="clip85af56xyplot" class="plotclip"><rect width="537" height="320"/></clipPath><clipPath class="axesclip" id="clip85af56x"><rect x="80" y="0" width="537" height="500"/></clipPath><clipPath class="axesclip" id="clip85af56y"><rect x="0" y="100" width="700" height="320"/></clipPath><clipPath class="axesclip" id="clip85af56xy"><rect x="80" y="100" width="537" height="320"/></clipPath></g><g class="gradients"/></defs><g class="bglayer"><rect class="bg" x="80" y="100" width="537" height="320" style="fill: rgb(229, 236, 246); fill-opacity: 1; stroke-width: 0;"/></g><g class="layer-below"><g class="imagelayer"/><g class="shapelayer"/></g><g class="cartesianlayer"><g class="subplot xy"><g class="layer-subplot"><g class="shapelayer"/><g class="imagelayer"/></g><g class="gridlayer"><g class="x"><path class="xgrid crisp" transform="translate(83.23,0)" d="M0,100v320" style="stroke: rgb(255, 255, 255); stroke-opacity: 1; stroke-width: 1px;"/><path class="xgrid crisp" transform="translate(207.78,0)" d="M0,100v320" style="stroke: rgb(255, 255, 255); stroke-opacity: 1; stroke-width: 1px;"/><path class="xgrid crisp" transform="translate(332.32,0)" d="M0,100v320" style="stroke: rgb(255, 255, 255); stroke-opacity: 1; stroke-width: 1px;"/><path class="xgrid crisp" transform="translate(456.86,0)" d="M0,100v320" style="stroke: rgb(255, 255, 255); stroke-opacity: 1; stroke-width: 1px;"/><path class="xgrid crisp" transform="translate(581.4100000000001,0)" d="M0,100v320" style="stroke: rgb(255, 255, 255); stroke-opacity: 1; stroke-width: 1px;"/></g><g class="y"><path class="ygrid crisp" transform="translate(0,392.55)" d="M80,0h537" style="stroke: rgb(255, 255, 255); stroke-opacity: 1; stroke-width: 1px;"/><path class="ygrid crisp" transform="translate(0,349.77)" d="M80,0h537" style="stroke: rgb(255, 255, 255); stroke-opacity: 1; stroke-width: 1px;"/><path class="ygrid crisp" transform="translate(0,306.99)" d="M80,0h537" style="stroke: rgb(255, 255, 255); stroke-opacity: 1; stroke-width: 1px;"/><path class="ygrid crisp" transform="translate(0,264.21000000000004)" d="M80,0h537" style="stroke: rgb(255, 255, 255); stroke-opacity: 1; stroke-width: 1px;"/><path class="ygrid crisp" transform="translate(0,221.43)" d="M80,0h537" style="stroke: rgb(255, 255, 255); stroke-opacity: 1; stroke-width: 1px;"/><path class="ygrid crisp" transform="translate(0,178.65)" d="M80,0h537" style="stroke: rgb(255, 255, 255); stroke-opacity: 1; stroke-width: 1px;"/><path class="ygrid crisp" transform="translate(0,135.87)" d="M80,0h537" style="stroke: rgb(255, 255, 255); stroke-opacity: 1; stroke-width: 1px;"/></g></g><g class="zerolinelayer"/><path class="xlines-below"/><path class="ylines-below"/><g class="overlines-below"/><g class="xaxislayer-below"/><g class="yaxislayer-below"/><g class="overaxes-below"/><g class="plot" transform="translate(80,100)" clip-path="url('#clip85af56xyplot')"><g class="scatterlayer mlayer"><g class="trace scatter trace08d76e" style="stroke-miterlimit: 2; opacity: 1;"><g class="fills"/><g class="errorbars"/><g class="lines"><path class="js-line" d="M0,304L2.49,302.59L3.36,249.74L4.22,251.04L5.09,249.35L8.55,248.71L9.41,248.32L11.14,249.1L12.01,248.19L13.74,248.58L14.6,248.19L16.33,247.93L17.2,247.67L18.93,247.41L19.79,247.16L26.71,246.77L27.57,246.51L32.77,246.12L33.63,245.73L35.36,245.86L36.22,245.22L37.95,245.09L38.81,244.44L39.68,244.96L40.55,244.57L41.41,243.66L42.28,243.92L43.14,244.57L44.01,243.02L46.6,242.11L47.46,242.63L48.33,242.24L49.2,243.15L50.06,242.24L50.93,240.17L52.65,240.69L53.52,239.78L56.98,237.84L57.85,236.94L59.57,238.23L60.44,237.07L61.3,235L62.17,235.51L63.03,236.55L63.9,235L65.63,232.67L66.49,232.28L68.23,230.6L69.09,231.12L70.81,229.95L71.68,230.21L72.55,231.76L73.41,229.56L76.01,230.6L76.87,230.21L78.6,226.46L79.47,226.07L80.33,226.85L81.2,225.55L82.06,225.68L82.93,227.36L83.79,227.11L84.66,225.55L88.12,221.16L88.98,218.44L89.85,219.09L90.71,217.66L91.58,216.63L92.44,217.4L94.17,217.66L95.03,218.7L98.5,216.5L99.36,216.37L101.09,215.72L101.96,214.69L102.82,214.3L103.69,214.82L105.41,215.98L106.28,214.43L108.87,213.39L109.74,212.88L111.47,212.23L112.33,211.45L114.93,212.23L115.79,211.84L117.52,211.58L118.39,211.84L120.11,210.42L120.98,208.87L122.71,207.7L123.58,206.93L125.3,207.96L126.17,207.44L127.04,207.96L127.9,142.27L130.5,140.18L131.36,140.44L133.09,139.92L133.96,139.01L135.69,139.14L136.55,139.14L140.01,138.48L140.87,138.35L143.47,137.83L144.33,137.96L152.11,137.96L152.98,138.09L159.03,137.83L159.9,137.18L162.49,137.18L163.36,136.14L166.81,136.27L167.68,135.74L169.41,135.88L170.27,135.22L172.01,134.57L172.87,135.22L176.33,132.22L177.2,133.27L179.79,131.57L180.66,132.22L184.12,128.44L184.98,130.14L188.44,127.14L189.31,128.05L191.03,126.48L191.9,127.66L192.76,128.7L193.63,127.79L194.5,128.83L195.36,128.31L196.22,127.4L197.09,128.44L197.95,127.79L198.82,128.18L201.41,128.83L202.28,128.44L204.03,126.48L204.88,125.05L206.61,124.92L207.48,125.44L208.34,125.96L209.21,124.01L212.67,123.09L213.54,121.4L217,121.92L217.86,120.61L218.72,118.4L219.59,119.96L220.46,119.96L221.32,118.79L222.18,119.7L223.05,119.18L224.78,117.35L225.65,117.48L228.24,114.35L229.1,114.48L230.84,112.14L231.7,112.92L233.43,110.83L234.29,111.35L236.89,110.7L237.75,108.09L238.62,107.96L239.48,106.92L240.35,105.48L241.21,105.74L242.08,106L242.94,107.18L243.81,107.83L244.67,107.18L245.54,109.13L246.4,108.35L247.27,108.22L248.13,106.66L249,106.27L249.86,106.79L251.59,107.05L252.46,61.25L254.18,59.41L255.05,59.15L257.65,57.57L258.51,57.17L260.24,57.04L261.1,56.78L264.56,55.46L265.43,54.54L267.16,54.28L268.02,54.81L271.49,53.75L272.35,53.62L274.08,53.62L274.94,53.75L288.78,51.78L289.64,52.18L292.24,51.12L293.1,51.25L293.97,51.52L294.83,50.73L300.02,50.07L301.75,49.54L302.61,48.23L304.34,47.83L306.07,47.44L306.94,45.73L307.8,46.91L308.67,45.73L310.4,45.73L311.26,45.07L312.13,44.94L312.99,43.76L315.58,43.49L316.45,41.91L318.18,40.2L319.05,39.42L319.89,38.1L320.74,38.76L323.34,37.71L324.21,36L327.67,35.34L328.53,33.36L329.4,32.71L330.26,33.23L331.99,32.44L332.86,32.05L333.72,31.92L334.58,30.86L336.32,30.86L337.18,31.39L338.91,32.97L339.78,31.13L341.51,32.31L342.38,30.34L344.1,30.47L344.97,30.86L347.56,29.02L348.43,29.42L350.15,27.71L351.02,26.66L351.89,24.16L352.75,24.68L353.61,23.24L354.48,24.68L356.21,22.84L357.08,22.58L357.94,21.26L358.8,21.66L360.53,21.79L361.39,20.74L362.26,21.26L363.13,19.68L364.86,19.55L365.72,18.5L369.18,18.89L370.04,17.97L370.91,17.45L371.78,17.84L372.64,17.97L373.51,17.05L374.38,16L375.23,16.66L376.1,16.39L376.97,171.81L381.29,171.4L382.16,172.08L384.75,170.99L385.62,170.99L387.35,169.76L388.21,169.76L389.94,168.94L390.8,169.08L405.51,168.39L406.37,167.98L417.61,165.8L418.48,165.12L422.8,164.02L423.67,162.66L427.16,162.38L428.02,163.61L429.75,161.7L430.62,161.57L431.48,160.88L432.35,158.43L433.21,156.51L434.07,156.79L434.94,156.1L435.8,154.33L436.67,154.88L437.53,154.19L439.27,154.33L440.13,153.37L441.86,152.69L442.73,153.65L445.32,150.92L446.18,151.87L448.78,149.14L449.64,149.14L450.51,148.32L451.37,149.41L453.1,150.37L453.97,149.41L454.83,149.55L455.7,148.73L459.16,145.18L460.03,144.5L462.62,143.54L463.48,145.04L468.67,141.9L469.54,143.68L470.41,121.97L471.27,121.97L473.86,120.88L474.73,116.1L475.59,116.24L476.45,112.28L477.32,112.55L478.19,109.96L479.05,106.95L479.92,107.91L481.64,104.77L482.51,101.22L483.38,98.08L484.24,98.08L485.11,97.53L485.97,95.35L486.83,94.8L487.71,92.07L489.43,89.34L490.29,89.34L492.03,85.93L492.89,85.65L495.48,82.78L496.35,80.19L500.68,75L501.54,88.44L505.87,84.03L506.73,84.45L507.6,84.31L508.46,85.14L510.19,84.72L511.06,85.41L512.79,84.59L513.64,84.45L515.38,84.03L516.24,84.03L517.98,84.17L518.84,83.62L524.89,84.03L525.76,83.62L530.95,83.21L531.81,83.48L535.27,83.48L536.13,83.35L537,83.62" style="vector-effect: non-scaling-stroke; fill: none; stroke: rgb(99, 110, 250); stroke-opacity: 1; stroke-width: 2px; opacity: 1;"/></g><g class="points"/><g class="text"/></g></g></g><g class="overplot"/><path class="xlines-above crisp" d="M0,0" style="fill: none;"/><path class="ylines-above crisp" d="M0,0" style="fill: none;"/><g class="overlines-above"/><g class="xaxislayer-above"><g class="xtick"><text text-anchor="middle" x="0" y="433" transform="translate(83.23,0)" style="font-family: 'Open Sans', verdana, arial, sans-serif; font-size: 12px; fill: rgb(42, 63, 95); fill-opacity: 1; white-space: pre;"><tspan class="line" dy="0em" x="0" y="433">Aug 3</tspan><tspan class="line" dy="1.3em" x="0" y="433">2021</tspan></text></g><g class="xtick"><text text-anchor="middle" x="0" y="433" transform="translate(207.78,0)" style="font-family: 'Open Sans', verdana, arial, sans-serif; font-size: 12px; fill: rgb(42, 63, 95); fill-opacity: 1; white-space: pre;">Aug 4</text></g><g class="xtick"><text text-anchor="middle" x="0" y="433" transform="translate(332.32,0)" style="font-family: 'Open Sans', verdana, arial, sans-serif; font-size: 12px; fill: rgb(42, 63, 95); fill-opacity: 1; white-space: pre;">Aug 5</text></g><g class="xtick"><text text-anchor="middle" x="0" y="433" transform="translate(456.86,0)" style="font-family: 'Open Sans', verdana, arial, sans-serif; font-size: 12px; fill: rgb(42, 63, 95); fill-opacity: 1; white-space: pre;">Aug 6</text></g><g class="xtick"><text text-anchor="middle" x="0" y="433" transform="translate(581.4100000000001,0)" style="font-family: 'Open Sans', verdana, arial, sans-serif; font-size: 12px; fill: rgb(42, 63, 95); fill-opacity: 1; white-space: pre;">Aug 7</text></g></g><g class="yaxislayer-above"><g class="ytick"><text text-anchor="end" x="79" y="4.199999999999999" transform="translate(0,392.55)" style="font-family: 'Open Sans', verdana, arial, sans-serif; font-size: 12px; fill: rgb(42, 63, 95); fill-opacity: 1; white-space: pre;">0.864</text></g><g class="ytick"><text text-anchor="end" x="79" y="4.199999999999999" transform="translate(0,349.77)" style="font-family: 'Open Sans', verdana, arial, sans-serif; font-size: 12px; fill: rgb(42, 63, 95); fill-opacity: 1; white-space: pre;">0.865</text></g><g class="ytick"><text text-anchor="end" x="79" y="4.199999999999999" transform="translate(0,306.99)" style="font-family: 'Open Sans', verdana, arial, sans-serif; font-size: 12px; fill: rgb(42, 63, 95); fill-opacity: 1; white-space: pre;">0.866</text></g><g class="ytick"><text text-anchor="end" x="79" y="4.199999999999999" transform="translate(0,264.21000000000004)" style="font-family: 'Open Sans', verdana, arial, sans-serif; font-size: 12px; fill: rgb(42, 63, 95); fill-opacity: 1; white-space: pre;">0.867</text></g><g class="ytick"><text text-anchor="end" x="79" y="4.199999999999999" transform="translate(0,221.43)" style="font-family: 'Open Sans', verdana, arial, sans-serif; font-size: 12px; fill: rgb(42, 63, 95); fill-opacity: 1; white-space: pre;">0.868</text></g><g class="ytick"><text text-anchor="end" x="79" y="4.199999999999999" transform="translate(0,178.65)" style="font-family: 'Open Sans', verdana, arial, sans-serif; font-size: 12px; fill: rgb(42, 63, 95); fill-opacity: 1; white-space: pre;">0.869</text></g><g class="ytick"><text text-anchor="end" x="79" y="4.199999999999999" transform="translate(0,135.87)" style="font-family: 'Open Sans', verdana, arial, sans-serif; font-size: 12px; fill: rgb(42, 63, 95); fill-opacity: 1; white-space: pre;">0.87</text></g></g><g class="overaxes-above"/></g></g><g class="polarlayer"/><g class="ternarylayer"/><g class="geolayer"/><g class="funnelarealayer"/><g class="pielayer"/><g class="treemaplayer"/><g class="sunburstlayer"/><g class="glimages"/><defs id="topdefs-85af56"><g class="clips"/><clipPath id="legend85af56"><rect width="60" height="45" x="0" y="0"/></clipPath></defs><g class="layer-above"><g class="imagelayer"/><g class="shapelayer"/></g><g class="infolayer"><g class="legend" pointer-events="all" transform="translate(627.74,100)"><rect class="bg" shape-rendering="crispEdges" width="60" height="45" x="0" y="0" style="stroke: rgb(68, 68, 68); stroke-opacity: 1; fill: rgb(255, 255, 255); fill-opacity: 1; stroke-width: 0px;"/><g class="scrollbox" transform="" clip-path="url('#legend85af56')"><text class="legendtitletext" text-anchor="start" x="2" y="15.600000000000001" style="font-family: 'Open Sans', verdana, arial, sans-serif; font-size: 12px; fill: rgb(42, 63, 95); fill-opacity: 1; white-space: pre;">All</text><g class="groups" transform=""><g class="traces" transform="translate(0,30.1)" style="opacity: 1;"><text class="legendtext" text-anchor="start" x="40" y="4.680000000000001" style="font-family: 'Open Sans', verdana, arial, sans-serif; font-size: 12px; fill: rgb(42, 63, 95); fill-opacity: 1; white-space: pre;">All</text><g class="layers" style="opacity: 1;"><g class="legendfill"/><g class="legendlines"><path class="js-line" d="M5,0h30" style="fill: none; stroke: rgb(99, 110, 250); stroke-opacity: 1; stroke-width: 2px;"/></g><g class="legendsymbols"><g class="legendpoints"/></g></g><rect class="legendtoggle" x="0" y="-9.5" width="54.890625" height="19" style="fill: rgb(0, 0, 0); fill-opacity: 0;"/></g></g></g><rect class="scrollbar" rx="20" ry="3" width="0" height="0" x="0" y="0" style="fill: rgb(128, 139, 164); fill-opacity: 1;"/></g><g class="g-gtitle"><text class="gtitle" x="35" y="50" text-anchor="start" dy="0em" style="font-family: 'Open Sans', verdana, arial, sans-serif; font-size: 17px; fill: rgb(42, 63, 95); opacity: 1; font-weight: normal; white-space: pre;">Singapore Vaccination Centers</text></g><g class="g-xtitle"><text class="xtitle" x="348.5" y="476.409375" text-anchor="middle" style="font-family: 'Open Sans', verdana, arial, sans-serif; font-size: 14px; fill: rgb(42, 63, 95); opacity: 1; font-weight: normal; white-space: pre;">Time</text></g><g class="g-ytitle"><text class="ytitle" transform="rotate(-90,19.840625000000003,260)" x="19.840625000000003" y="260" text-anchor="middle" style="font-family: 'Open Sans', verdana, arial, sans-serif; font-size: 14px; fill: rgb(42, 63, 95); opacity: 1; font-weight: normal; white-space: pre;">Filled/%</text></g></g></svg>