<svg class="main-svg" xmlns="http://www.w3.org/2000/svg" xmlns:xlink="http://www.w3.org/1999/xlink" width="700" height="500" style="" viewBox="0 0 700 500"><rect x="0" y="0" width="700" height="500" style="fill: rgb(255, 255, 255); fill-opacity: 1;"/><defs id="defs-d8d2fe"><g class="clips"><clipPath id="clipd8d2fexyplot" class="plotclip"><rect width="537" height="320"/></clipPath><clipPath class="axesclip" id="clipd8d2fex"><rect x="80" y="0" width="537" height="500"/></clipPath><clipPath class="axesclip" id="clipd8d2fey"><rect x="0" y="100" width="700" height="320"/></clipPath><clipPath class="axesclip" id="clipd8d2fexy"><rect x="80" y="100" width="537" height="320"/></clipPath></g><g class="gradients"/></defs><g class="bglayer"><rect class="bg" x="80" y="100" width="537" height="320" style="fill: rgb(229, 236, 246); fill-opacity: 1; stroke-width: 0;"/></g><g class="layer-below"><g class="imagelayer"/><g class="shapelayer"/></g><g class="cartesianlayer"><g class="subplot xy"><g class="layer-subplot"><g class="shapelayer"/><g class="imagelayer"/></g><g class="gridlayer"><g class="x"><path class="xgrid crisp" transform="translate(83.85,0)" d="M0,100v320" style="stroke: rgb(255, 255, 255); stroke-opacity: 1; stroke-width: 1px;"/><path class="xgrid crisp" transform="translate(158.07999999999998,0)" d="M0,100v320" style="stroke: rgb(255, 255, 255); stroke-opacity: 1; stroke-width: 1px;"/><path class="xgrid crisp" transform="translate(232.31,0)" d="M0,100v320" style="stroke: rgb(255, 255, 255); stroke-opacity: 1; stroke-width: 1px;"/><path class="xgrid crisp" transform="translate(306.53,0)" d="M0,100v320" style="stroke: rgb(255, 255, 255); stroke-opacity: 1; stroke-width: 1px;"/><path class="xgrid crisp" transform="translate(380.76,0)" d="M0,100v320" style="stroke: rgb(255, 255, 255); stroke-opacity: 1; stroke-width: 1px;"/><path class="xgrid crisp" transform="translate(454.99,0)" d="M0,100v320" style="stroke: rgb(255, 255, 255); stroke-opacity: 1; stroke-width: 1px;"/><path class="xgrid crisp" transform="translate(529.22,0)" d="M0,100v320" style="stroke: rgb(255, 255, 255); stroke-opacity: 1; stroke-width: 1px;"/><path class="xgrid crisp" transform="translate(603.44,0)" d="M0,100v320" style="stroke: rgb(255, 255, 255); stroke-opacity: 1; stroke-width: 1px;"/></g><g class="y"><path class="ygrid crisp" transform="translate(0,392.55)" d="M80,0h537" style="stroke: rgb(255, 255, 255); stroke-opacity: 1; stroke-width: 1px;"/><path class="ygrid crisp" transform="translate(0,349.77)" d="M80,0h537" style="stroke: rgb(255, 255, 255); stroke-opacity: 1; stroke-width: 1px;"/><path class="ygrid crisp" transform="translate(0,306.99)" d="M80,0h537" style="stroke: rgb(255, 255, 255); stroke-opacity: 1; stroke-width: 1px;"/><path class="ygrid crisp" transform="translate(0,264.21000000000004)" d="M80,0h537" style="stroke: rgb(255, 255, 255); stroke-opacity: 1; stroke-width: 1px;"/><path class="ygrid crisp" transform="translate(0,221.43)" d="M80,0h537" style="stroke: rgb(255, 255, 255); stroke-opacity: 1; stroke-width: 1px;"/><path class="ygrid crisp" transform="translate(0,178.65)" d="M80,0h537" style="stroke: rgb(255, 255, 255); stroke-opacity: 1; stroke-width: 1px;"/><path class="ygrid crisp" transform="translate(0,135.87)" d="M80,0h537" style="stroke: rgb(255, 255, 255); stroke-opacity: 1; stroke-width: 1px;"/></g></g><g class="zerolinelayer"/><path class="xlines-below"/><path class="ylines-below"/><g class="overlines-below"/><g class="xaxislayer-below"/><g class="yaxislayer-below"/><g class="overaxes-below"/><g class="plot" transform="translate(80,100)" clip-path="url('#clipd8d2fexyplot')"><g class="scatterlayer mlayer"><g class="trace scatter trace53a318" style="stroke-miterlimit: 2; opacity: 1;"><g class="fills"/><g class="errorbars"/><g class="lines"><path class="js-line" d="M0,304L2.97,302.59L4,249.74L5.03,251.04L6.07,249.35L10.19,248.71L11.22,248.32L13.28,249.1L14.32,248.19L16.37,248.58L17.41,248.19L18.43,248.45L19.46,247.93L25.65,246.9L26.68,247.16L31.84,246.77L32.87,246.51L39.06,246.12L40.09,245.73L42.15,245.86L43.18,245.22L45.24,245.09L46.27,244.44L47.3,244.96L48.33,244.57L49.36,243.66L50.39,243.92L51.43,244.57L52.46,243.02L55.55,242.11L56.58,242.63L57.61,242.24L58.64,243.15L59.67,242.24L60.71,240.17L62.76,240.69L63.79,239.78L67.92,237.84L68.95,236.94L71.01,238.23L72.04,237.07L73.07,235L74.1,235.51L75.13,236.55L76.16,235L78.23,232.67L79.26,232.28L81.32,230.6L82.35,231.12L84.41,229.95L85.44,230.21L86.48,231.76L87.5,229.56L90.6,230.6L91.63,230.21L93.7,226.46L94.73,226.07L95.76,226.85L96.79,225.55L97.82,225.68L98.85,227.36L99.88,227.11L100.91,225.55L105.03,221.16L106.06,218.44L107.1,219.09L108.13,217.66L109.16,216.63L110.19,217.4L112.25,217.66L113.28,218.7L117.41,216.5L118.43,216.37L120.5,215.72L121.53,214.69L122.56,214.3L123.59,214.82L124.62,215.98L125.65,215.98L127.71,213.78L128.75,213.52L131.84,212.75L132.87,212.23L133.9,211.45L134.93,211.84L140.09,211.58L141.12,211.84L143.17,210.42L144.21,208.87L145.24,207.7L146.27,207.7L147.3,206.93L148.33,207.83L151.42,207.96L152.46,142.27L155.55,140.18L156.58,140.44L158.64,139.92L159.67,139.01L161.74,139.14L162.77,139.14L166.89,138.48L167.92,138.35L171.01,137.83L172.04,137.96L181.32,137.96L182.36,138.09L189.57,137.83L190.6,137.18L193.69,137.18L194.72,136.14L198.84,136.27L199.88,135.74L201.94,135.88L202.97,135.22L205.04,134.57L206.06,135.22L209.15,132.22L210.18,132.22L211.22,133.27L212.24,132.88L214.31,131.57L215.34,132.22L219.46,128.44L220.49,130.14L224.62,127.14L225.65,128.05L227.71,126.48L228.74,127.66L229.77,128.7L230.8,127.79L231.84,128.83L232.87,128.31L233.89,127.4L234.93,128.44L235.96,127.79L236.99,128.18L240.08,128.83L241.12,128.44L243.2,126.48L244.22,125.05L246.28,124.92L247.31,125.44L248.34,125.96L249.38,124.01L253.5,123.09L254.53,121.4L257.63,122.44L258.66,121.92L260.72,118.4L261.75,119.96L262.78,119.96L263.81,118.79L264.84,119.7L265.87,119.18L267.94,117.35L268.97,117.48L272.06,114.35L273.09,114.48L275.15,112.14L276.18,112.92L278.24,110.83L279.28,111.35L282.37,110.7L283.4,108.09L284.43,107.96L285.45,106.92L286.49,105.48L287.52,105.74L288.55,106L289.58,107.18L290.62,107.83L291.65,107.18L292.69,109.13L293.71,108.35L294.74,108.22L295.77,106.66L296.8,106.27L297.83,106.79L299.89,107.05L300.93,61.25L302.98,59.41L304.02,59.15L307.11,57.57L308.14,57.17L310.2,57.04L311.23,56.78L315.36,55.46L316.39,54.54L318.45,54.28L319.48,54.81L323.61,53.75L324.63,53.62L326.7,53.62L327.73,53.75L344.22,51.78L345.25,52.18L348.34,51.12L349.37,51.25L350.41,51.52L351.43,50.73L357.62,50.07L359.68,49.54L360.71,48.23L362.77,47.83L364.83,47.44L365.87,45.73L366.9,46.91L367.93,45.73L369.99,45.73L371.02,45.07L372.06,44.94L373.08,43.76L376.17,43.49L377.21,41.91L379.27,40.2L380.3,39.42L381.3,38.1L382.32,38.76L385.42,37.71L386.45,36L390.58,35.34L391.6,33.36L392.64,32.71L393.67,33.23L395.73,32.44L396.76,32.05L397.79,31.92L398.82,30.86L400.88,30.86L401.91,31.39L403.97,32.97L405.01,31.13L407.07,32.31L408.12,30.34L410.17,30.47L411.2,30.86L414.29,29.02L415.32,29.42L417.38,27.71L418.41,26.66L419.44,24.16L420.48,24.68L421.5,23.24L422.53,24.68L424.6,22.84L425.63,22.58L426.66,21.26L427.69,21.66L429.75,21.79L430.78,20.74L431.81,21.26L432.84,19.68L434.9,19.55L435.94,18.5L440.06,18.89L441.09,17.97L442.12,17.45L443.16,17.84L444.19,17.97L445.22,17.05L446.25,16L447.27,16.66L448.31,16.39L449.34,171.81L454.5,171.4L455.53,172.08L458.62,170.99L459.65,170.99L461.72,169.76L462.74,169.76L464.8,168.94L465.83,169.08L483.36,168.39L484.39,167.98L497.79,165.8L498.82,165.12L503.98,164.02L505.01,162.66L509.17,162.38L510.2,163.61L512.26,161.7L513.29,161.57L514.32,160.88L515.35,158.43L516.38,156.51L517.41,156.79L518.45,156.1L519.47,154.33L520.51,154.88L521.54,154.19L523.6,154.33L524.63,153.37L526.69,152.69L527.73,153.65L529.78,152.01L530.82,150.92L531.85,151.87L532.88,150.64L534.94,149.14L535.97,149.14L537,148.32" style="vector-effect: non-scaling-stroke; fill: none; stroke: rgb(99, 110, 250); stroke-opacity: 1; stroke-width: 2px; opacity: 1;"/></g><g class="points"/><g class="text"/></g></g></g><g class="overplot"/><path class="xlines-above crisp" d="M0,0" style="fill: none;"/><path class="ylines-above crisp" d="M0,0" style="fill: none;"/><g class="overlines-above"/><g class="xaxislayer-above"><g class="xtick"><text text-anchor="middle" x="0" y="433" transform="translate(83.85,0)" style="font-family: 'Open Sans', verdana, arial, sans-serif; font-size: 12px; fill: rgb(42, 63, 95); fill-opacity: 1; white-space: pre;"><tspan class="line" dy="0em" x="0" y="433">00:00</tspan><tspan class="line" dy="1.3em" x="0" y="433">Aug 3, 2021</tspan></text></g><g class="xtick"><text text-anchor="middle" x="0" y="433" transform="translate(158.07999999999998,0)" style="font-family: 'Open Sans', verdana, arial, sans-serif; font-size: 12px; fill: rgb(42, 63, 95); fill-opacity: 1; white-space: pre;">12:00</text></g><g class="xtick"><text text-anchor="middle" x="0" y="433" transform="translate(232.31,0)" style="font-family: 'Open Sans', verdana, arial, sans-serif; font-size: 12px; fill: rgb(42, 63, 95); fill-opacity: 1; white-space: pre;"><tspan class="line" dy="0em" x="0" y="433">00:00</tspan><tspan class="line" dy="1.3em" x="0" y="433">Aug 4, 2021</tspan></text></g><g class="xtick"><text text-anchor="middle" x="0" y="433" transform="translate(306.53,0)" style="font-family: 'Open Sans', verdana, arial, sans-serif; font-size: 12px; fill: rgb(42, 63, 95); fill-opacity: 1; white-space: pre;">12:00</text></g><g class="xtick"><text text-anchor="middle" x="0" y="433" transform="translate(380.76,0)" style="font-family: 'Open Sans', verdana, arial, sans-serif; font-size: 12px; fill: rgb(42, 63, 95); fill-opacity: 1; white-space: pre;"><tspan class="line" dy="0em" x="0" y="433">00:00</tspan><tspan class="line" dy="1.3em" x="0" y="433">Aug 5, 2021</tspan></text></g><g class="xtick"><text text-anchor="middle" x="0" y="433" transform="translate(454.99,0)" style="font-family: 'Open Sans', verdana, arial, sans-serif; font-size: 12px; fill: rgb(42, 63, 95); fill-opacity: 1; white-space: pre;">12:00</text></g><g class="xtick"><text text-anchor="middle" x="0" y="433" transform="translate(529.22,0)" style="font-family: 'Open Sans', verdana, arial, sans-serif; font-size: 12px; fill: rgb(42, 63, 95); fill-opacity: 1; white-space: pre;"><tspan class="line" dy="0em" x="0" y="433">00:00</tspan><tspan class="line" dy="1.3em" x="0" y="433">Aug 6, 2021</tspan></text></g><g class="xtick"><text text-anchor="middle" x="0" y="433" transform="translate(603.44,0)" style="font-family: 'Open Sans', verdana, arial, sans-serif; font-size: 12px; fill: rgb(42, 63, 95); fill-opacity: 1; white-space: pre;">12:00</text></g></g><g class="yaxislayer-above"><g class="ytick"><text text-anchor="end" x="79" y="4.199999999999999" transform="translate(0,392.55)" style="font-family: 'Open Sans', verdana, arial, sans-serif; font-size: 12px; fill: rgb(42, 63, 95); fill-opacity: 1; white-space: pre;">0.864</text></g><g class="ytick"><text text-anchor="end" x="79" y="4.199999999999999" transform="translate(0,349.77)" style="font-family: 'Open Sans', verdana, arial, sans-serif; font-size: 12px; fill: rgb(42, 63, 95); fill-opacity: 1; white-space: pre;">0.865</text></g><g class="ytick"><text text-anchor="end" x="79" y="4.199999999999999" transform="translate(0,306.99)" style="font-family: 'Open Sans', verdana, arial, sans-serif; font-size: 12px; fill: rgb(42, 63, 95); fill-opacity: 1; white-space: pre;">0.866</text></g><g class="ytick"><text text-anchor="end" x="79" y="4.199999999999999" transform="translate(0,264.21000000000004)" style="font-family: 'Open Sans', verdana, arial, sans-serif; font-size: 12px; fill: rgb(42, 63, 95); fill-opacity: 1; white-space: pre;">0.867</text></g><g class="ytick"><text text-anchor="end" x="79" y="4.199999999999999" transform="translate(0,221.43)" style="font-family: 'Open Sans', verdana, arial, sans-serif; font-size: 12px; fill: rgb(42, 63, 95); fill-opacity: 1; white-space: pre;">0.868</text></g><g class="ytick"><text text-anchor="end" x="79" y="4.199999999999999" transform="translate(0,178.65)" style="font-family: 'Open Sans', verdana, arial, sans-serif; font-size: 12px; fill: rgb(42, 63, 95); fill-opacity: 1; white-space: pre;">0.869</text></g><g class="ytick"><text text-anchor="end" x="79" y="4.199999999999999" transform="translate(0,135.87)" style="font-family: 'Open Sans', verdana, arial, sans-serif; font-size: 12px; fill: rgb(42, 63, 95); fill-opacity: 1; white-space: pre;">0.87</text></g></g><g class="overaxes-above"/></g></g><g class="polarlayer"/><g class="ternarylayer"/><g class="geolayer"/><g class="funnelarealayer"/><g class="pielayer"/><g class="treemaplayer"/><g class="sunburstlayer"/><g class="glimages"/><defs id="topdefs-d8d2fe"><g class="clips"/><clipPath id="legendd8d2fe"><rect width="60" height="45" x="0" y="0"/></clipPath></defs><g class="layer-above"><g class="imagelayer"/><g class="shapelayer"/></g><g class="infolayer"><g class="legend" pointer-events="all" transform="translate(627.74,100)"><rect class="bg" shape-rendering="crispEdges" width="60" height="45" x="0" y="0" style="stroke: rgb(68, 68, 68); stroke-opacity: 1; fill: rgb(255, 255, 255); fill-opacity: 1; stroke-width: 0px;"/><g class="scrollbox" transform="" clip-path="url('#legendd8d2fe')"><text class="legendtitletext" text-anchor="start" x="2" y="15.600000000000001" style="font-family: 'Open Sans', verdana, arial, sans-serif; font-size: 12px; fill: rgb(42, 63, 95); fill-opacity: 1; white-space: pre;">All</text><g class="groups" transform=""><g class="traces" transform="translate(0,30.1)" style="opacity: 1;"><text class="legendtext" text-anchor="start" x="40" y="4.680000000000001" style="font-family: 'Open Sans', verdana, arial, sans-serif; font-size: 12px; fill: rgb(42, 63, 95); fill-opacity: 1; white-space: pre;">All</text><g class="layers" style="opacity: 1;"><g class="legendfill"/><g class="legendlines"><path class="js-line" d="M5,0h30" style="fill: none; stroke: rgb(99, 110, 250); stroke-opacity: 1; stroke-width: 2px;"/></g><g class="legendsymbols"><g class="legendpoints"/></g></g><rect class="legendtoggle" x="0" y="-9.5" width="54.890625" height="19" style="fill: rgb(0, 0, 0); fill-opacity: 0;"/></g></g></g><rect class="scrollbar" rx="20" ry="3" width="0" height="0" x="0" y="0" style="fill: rgb(128, 139, 164); fill-opacity: 1;"/></g><g class="g-gtitle"><text class="gtitle" x="35" y="50" text-anchor="start" dy="0em" style="font-family: 'Open Sans', verdana, arial, sans-serif; font-size: 17px; fill: rgb(42, 63, 95); opacity: 1; font-weight: normal; white-space: pre;">Singapore Vaccination Centers</text></g><g class="g-xtitle"><text class="xtitle" x="348.5" y="476.409375" text-anchor="middle" style="font-family: 'Open Sans', verdana, arial, sans-serif; font-size: 14px; fill: rgb(42, 63, 95); opacity: 1; font-weight: normal; white-space: pre;">Time</text></g><g class="g-ytitle"><text class="ytitle" transform="rotate(-90,19.840625000000003,260)" x="19.840625000000003" y="260" text-anchor="middle" style="font-family: 'Open Sans', verdana, arial, sans-serif; font-size: 14px; fill: rgb(42, 63, 95); opacity: 1; font-weight: normal; white-space: pre;">Filled/%</text></g></g></svg>