<svg class="main-svg" xmlns="http://www.w3.org/2000/svg" xmlns:xlink="http://www.w3.org/1999/xlink" width="700" height="500" style="" viewBox="0 0 700 500"><rect x="0" y="0" width="700" height="500" style="fill: rgb(255, 255, 255); fill-opacity: 1;"/><defs id="defs-bef7f0"><g class="clips"><clipPath id="clipbef7f0xyplot" class="plotclip"><rect width="537" height="320"/></clipPath><clipPath class="axesclip" id="clipbef7f0x"><rect x="80" y="0" width="537" height="500"/></clipPath><clipPath class="axesclip" id="clipbef7f0y"><rect x="0" y="100" width="700" height="320"/></clipPath><clipPath class="axesclip" id="clipbef7f0xy"><rect x="80" y="100" width="537" height="320"/></clipPath></g><g class="gradients"/></defs><g class="bglayer"><rect class="bg" x="80" y="100" width="537" height="320" style="fill: rgb(229, 236, 246); fill-opacity: 1; stroke-width: 0;"/></g><g class="layer-below"><g class="imagelayer"/><g class="shapelayer"/></g><g class="cartesianlayer"><g class="subplot xy"><g class="layer-subplot"><g class="shapelayer"/><g class="imagelayer"/></g><g class="gridlayer"><g class="x"><path class="xgrid crisp" transform="translate(83.34,0)" d="M0,100v320" style="stroke: rgb(255, 255, 255); stroke-opacity: 1; stroke-width: 1px;"/><path class="xgrid crisp" transform="translate(212.03,0)" d="M0,100v320" style="stroke: rgb(255, 255, 255); stroke-opacity: 1; stroke-width: 1px;"/><path class="xgrid crisp" transform="translate(340.72,0)" d="M0,100v320" style="stroke: rgb(255, 255, 255); stroke-opacity: 1; stroke-width: 1px;"/><path class="xgrid crisp" transform="translate(469.41,0)" d="M0,100v320" style="stroke: rgb(255, 255, 255); stroke-opacity: 1; stroke-width: 1px;"/><path class="xgrid crisp" transform="translate(598.1,0)" d="M0,100v320" style="stroke: rgb(255, 255, 255); stroke-opacity: 1; stroke-width: 1px;"/></g><g class="y"><path class="ygrid crisp" transform="translate(0,392.55)" d="M80,0h537" style="stroke: rgb(255, 255, 255); stroke-opacity: 1; stroke-width: 1px;"/><path class="ygrid crisp" transform="translate(0,349.77)" d="M80,0h537" style="stroke: rgb(255, 255, 255); stroke-opacity: 1; stroke-width: 1px;"/><path class="ygrid crisp" transform="translate(0,306.99)" d="M80,0h537" style="stroke: rgb(255, 255, 255); stroke-opacity: 1; stroke-width: 1px;"/><path class="ygrid crisp" transform="translate(0,264.21000000000004)" d="M80,0h537" style="stroke: rgb(255, 255, 255); stroke-opacity: 1; stroke-width: 1px;"/><path class="ygrid crisp" transform="translate(0,221.43)" d="M80,0h537" style="stroke: rgb(255, 255, 255); stroke-opacity: 1; stroke-width: 1px;"/><path class="ygrid crisp" transform="translate(0,178.65)" d="M80,0h537" style="stroke: rgb(255, 255, 255); stroke-opacity: 1; stroke-width: 1px;"/><path class="ygrid crisp" transform="translate(0,135.87)" d="M80,0h537" style="stroke: rgb(255, 255, 255); stroke-opacity: 1; stroke-width: 1px;"/></g></g><g class="zerolinelayer"/><path class="xlines-below"/><path class="ylines-below"/><g class="overlines-below"/><g class="xaxislayer-below"/><g class="yaxislayer-below"/><g class="overaxes-below"/><g class="plot" transform="translate(80,100)" clip-path="url('#clipbef7f0xyplot')"><g class="scatterlayer mlayer"><g class="trace scatter trace75f6b0" style="stroke-miterlimit: 2; opacity: 1;"><g class="fills"/><g class="errorbars"/><g class="lines"><path class="js-line" d="M0,304L2.58,302.59L3.47,249.74L4.36,251.04L5.26,249.35L8.83,248.71L9.72,248.32L11.51,249.1L12.41,248.19L14.19,248.58L15.09,248.19L16.87,247.93L17.77,247.67L19.56,247.41L20.45,247.16L27.6,246.77L28.49,246.51L33.86,246.12L34.75,245.73L36.54,245.86L37.43,245.22L39.21,245.09L40.11,244.44L41.01,244.96L41.9,244.57L42.79,243.66L43.68,243.92L44.58,244.57L45.47,243.02L48.15,242.11L49.04,242.63L49.94,242.24L50.83,243.15L51.72,242.24L52.62,240.17L54.41,240.69L55.3,239.78L58.88,237.84L59.77,236.94L61.55,238.23L62.45,237.07L63.34,235L64.24,235.51L65.13,236.55L66.02,235L67.81,232.67L68.71,232.28L70.5,230.6L71.39,231.12L73.17,229.95L74.07,230.21L74.96,231.76L75.85,229.56L78.54,230.6L79.43,230.21L81.22,226.46L82.11,226.07L83.01,226.85L83.9,225.55L84.79,225.68L85.69,227.36L86.58,227.11L87.47,225.55L91.05,221.16L91.94,218.44L92.84,219.09L93.73,217.66L94.63,216.63L95.52,217.4L97.3,217.66L98.2,218.7L101.78,216.5L102.67,216.37L104.46,215.72L105.35,214.69L106.24,214.3L107.14,214.82L108.92,215.98L109.81,214.43L112.5,213.39L113.4,212.88L115.18,212.23L116.07,211.45L118.75,212.23L119.64,211.84L121.44,211.58L122.33,211.84L124.11,210.42L125.01,208.87L126.8,207.7L127.69,206.93L129.47,207.96L130.37,207.44L131.26,207.96L132.16,142.27L134.84,140.18L135.74,140.44L137.52,139.92L138.42,139.01L140.2,139.14L141.1,139.14L144.67,138.48L145.56,138.35L148.24,137.83L149.14,137.96L157.18,137.96L158.08,138.09L164.33,137.83L165.22,137.18L167.9,137.18L168.8,136.14L172.37,136.27L173.27,135.74L175.05,135.88L175.94,135.22L177.74,134.57L178.63,135.22L181.31,132.22L182.2,132.22L183.1,133.27L183.99,132.88L185.78,131.57L186.67,132.22L190.24,128.44L191.14,130.14L194.71,127.14L195.61,128.05L197.39,126.48L198.29,127.66L199.18,128.7L200.07,127.79L200.97,128.83L201.86,128.31L202.75,127.4L203.65,128.44L204.54,127.79L205.43,128.18L208.12,128.83L209.01,128.44L210.82,126.48L211.7,125.05L213.49,124.92L214.39,125.44L215.28,125.96L216.18,124.01L219.75,123.09L220.65,121.4L224.22,121.92L225.11,120.61L226,118.4L226.9,119.96L227.8,119.96L228.69,118.79L229.58,119.7L230.47,119.18L232.26,117.35L233.16,117.48L235.84,114.35L236.73,114.48L238.52,112.14L239.41,112.92L241.2,110.83L242.09,111.35L244.77,110.7L245.67,108.09L246.56,107.96L247.45,106.92L248.35,105.48L249.24,105.74L250.14,106L251.03,107.18L251.93,107.83L252.82,107.18L253.72,109.13L254.6,108.35L255.5,108.22L256.39,106.66L257.28,106.27L258.18,106.79L259.97,107.05L260.86,61.25L262.64,59.41L263.54,59.15L266.22,57.57L267.11,57.17L268.9,57.04L269.79,56.78L273.37,55.46L274.26,54.54L276.05,54.28L276.95,54.81L280.52,53.75L281.41,53.62L283.2,53.62L284.09,53.75L298.39,51.78L299.29,52.18L301.96,51.12L302.85,51.25L303.76,51.52L304.64,50.73L310.01,50.07L311.79,49.54L312.69,48.23L314.47,47.83L316.26,47.44L317.15,45.73L318.05,46.91L318.94,45.73L320.73,45.73L321.62,45.07L322.52,44.94L323.41,43.76L326.09,43.49L326.99,41.91L328.77,40.2L329.67,39.42L330.53,38.1L331.42,38.76L334.1,37.71L335,36L338.57,35.34L339.46,33.36L340.36,32.71L341.25,33.23L343.04,32.44L343.94,32.05L344.83,31.92L345.72,30.86L347.51,30.86L348.4,31.39L350.19,32.97L351.09,31.13L352.87,32.31L353.78,30.34L355.56,30.47L356.45,30.86L359.13,29.02L360.03,29.42L361.81,27.71L362.7,26.66L363.6,24.16L364.5,24.68L365.38,23.24L366.28,24.68L368.07,22.84L368.96,22.58L369.85,21.26L370.74,21.66L372.53,21.79L373.42,20.74L374.32,21.26L375.21,19.68L377,19.55L377.9,18.5L381.47,18.89L382.36,17.97L383.25,17.45L384.15,17.84L385.05,17.97L385.94,17.05L386.84,16L387.72,16.66L388.62,16.39L389.52,171.81L393.98,171.4L394.88,172.08L397.56,170.99L398.45,170.99L400.24,169.76L401.13,169.76L402.92,168.94L403.81,169.08L419.01,168.39L419.9,167.98L431.51,165.8L432.41,165.12L436.88,164.02L437.77,162.66L441.38,162.38L442.27,163.61L444.06,161.7L444.95,161.57L445.84,160.88L446.74,158.43L447.63,156.51L448.52,156.79L449.42,156.1L450.31,154.33L451.21,154.88L452.1,154.19L453.89,154.33L454.78,153.37L456.57,152.69L457.46,153.65L459.25,152.01L460.14,150.92L461.03,151.87L461.93,150.64L463.72,149.14L464.61,149.14L465.5,148.32L466.4,149.41L468.19,150.37L469.08,149.41L469.97,149.55L470.87,148.73L474.45,145.18L475.34,144.5L478.01,143.54L478.91,145.04L484.27,141.9L485.17,143.68L486.06,121.97L486.96,121.97L489.64,120.88L490.53,116.1L491.42,116.24L492.31,112.28L493.21,112.55L494.1,109.96L495,106.95L495.89,107.91L497.67,104.77L498.57,101.22L499.47,98.08L500.36,98.08L501.26,97.53L502.15,95.35L503.04,94.8L503.94,92.07L505.72,89.34L506.61,89.34L508.41,85.93L509.29,85.65L511.98,82.78L512.87,80.19L516.45,77.05L517.34,75L518.23,88.44L519.13,87.48L522.71,84.03L523.6,84.45L524.49,84.31L525.38,85.14L527.17,84.72L528.07,85.41L529.85,84.59L530.74,84.45L532.53,84.03L533.43,84.03L535.22,84.17L536.11,83.62L537,83.76" style="vector-effect: non-scaling-stroke; fill: none; stroke: rgb(99, 110, 250); stroke-opacity: 1; stroke-width: 2px; opacity: 1;"/></g><g class="points"/><g class="text"/></g></g></g><g class="overplot"/><path class="xlines-above crisp" d="M0,0" style="fill: none;"/><path class="ylines-above crisp" d="M0,0" style="fill: none;"/><g class="overlines-above"/><g class="xaxislayer-above"><g class="xtick"><text text-anchor="middle" x="0" y="433" transform="translate(83.34,0)" style="font-family: 'Open Sans', verdana, arial, sans-serif; font-size: 12px; fill: rgb(42, 63, 95); fill-opacity: 1; white-space: pre;"><tspan class="line" dy="0em" x="0" y="433">Aug 3</tspan><tspan class="line" dy="1.3em" x="0" y="433">2021</tspan></text></g><g class="xtick"><text text-anchor="middle" x="0" y="433" transform="translate(212.03,0)" style="font-family: 'Open Sans', verdana, arial, sans-serif; font-size: 12px; fill: rgb(42, 63, 95); fill-opacity: 1; white-space: pre;">Aug 4</text></g><g class="xtick"><text text-anchor="middle" x="0" y="433" transform="translate(340.72,0)" style="font-family: 'Open Sans', verdana, arial, sans-serif; font-size: 12px; fill: rgb(42, 63, 95); fill-opacity: 1; white-space: pre;">Aug 5</text></g><g class="xtick"><text text-anchor="middle" x="0" y="433" transform="translate(469.41,0)" style="font-family: 'Open Sans', verdana, arial, sans-serif; font-size: 12px; fill: rgb(42, 63, 95); fill-opacity: 1; white-space: pre;">Aug 6</text></g><g class="xtick"><text text-anchor="middle" x="0" y="433" transform="translate(598.1,0)" style="font-family: 'Open Sans', verdana, arial, sans-serif; font-size: 12px; fill: rgb(42, 63, 95); fill-opacity: 1; white-space: pre;">Aug 7</text></g></g><g class="yaxislayer-above"><g class="ytick"><text text-anchor="end" x="79" y="4.199999999999999" transform="translate(0,392.55)" style="font-family: 'Open Sans', verdana, arial, sans-serif; font-size: 12px; fill: rgb(42, 63, 95); fill-opacity: 1; white-space: pre;">0.864</text></g><g class="ytick"><text text-anchor="end" x="79" y="4.199999999999999" transform="translate(0,349.77)" style="font-family: 'Open Sans', verdana, arial, sans-serif; font-size: 12px; fill: rgb(42, 63, 95); fill-opacity: 1; white-space: pre;">0.865</text></g><g class="ytick"><text text-anchor="end" x="79" y="4.199999999999999" transform="translate(0,306.99)" style="font-family: 'Open Sans', verdana, arial, sans-serif; font-size: 12px; fill: rgb(42, 63, 95); fill-opacity: 1; white-space: pre;">0.866</text></g><g class="ytick"><text text-anchor="end" x="79" y="4.199999999999999" transform="translate(0,264.21000000000004)" style="font-family: 'Open Sans', verdana, arial, sans-serif; font-size: 12px; fill: rgb(42, 63, 95); fill-opacity: 1; white-space: pre;">0.867</text></g><g class="ytick"><text text-anchor="end" x="79" y="4.199999999999999" transform="translate(0,221.43)" style="font-family: 'Open Sans', verdana, arial, sans-serif; font-size: 12px; fill: rgb(42, 63, 95); fill-opacity: 1; white-space: pre;">0.868</text></g><g class="ytick"><text text-anchor="end" x="79" y="4.199999999999999" transform="translate(0,178.65)" style="font-family: 'Open Sans', verdana, arial, sans-serif; font-size: 12px; fill: rgb(42, 63, 95); fill-opacity: 1; white-space: pre;">0.869</text></g><g class="ytick"><text text-anchor="end" x="79" y="4.199999999999999" transform="translate(0,135.87)" style="font-family: 'Open Sans', verdana, arial, sans-serif; font-size: 12px; fill: rgb(42, 63, 95); fill-opacity: 1; white-space: pre;">0.87</text></g></g><g class="overaxes-above"/></g></g><g class="polarlayer"/><g class="ternarylayer"/><g class="geolayer"/><g class="funnelarealayer"/><g class="pielayer"/><g class="treemaplayer"/><g class="sunburstlayer"/><g class="glimages"/><defs id="topdefs-bef7f0"><g class="clips"/><clipPath id="legendbef7f0"><rect width="60" height="45" x="0" y="0"/></clipPath></defs><g class="layer-above"><g class="imagelayer"/><g class="shapelayer"/></g><g class="infolayer"><g class="legend" pointer-events="all" transform="translate(627.74,100)"><rect class="bg" shape-rendering="crispEdges" width="60" height="45" x="0" y="0" style="stroke: rgb(68, 68, 68); stroke-opacity: 1; fill: rgb(255, 255, 255); fill-opacity: 1; stroke-width: 0px;"/><g class="scrollbox" transform="" clip-path="url('#legendbef7f0')"><text class="legendtitletext" text-anchor="start" x="2" y="15.600000000000001" style="font-family: 'Open Sans', verdana, arial, sans-serif; font-size: 12px; fill: rgb(42, 63, 95); fill-opacity: 1; white-space: pre;">All</text><g class="groups" transform=""><g class="traces" transform="translate(0,30.1)" style="opacity: 1;"><text class="legendtext" text-anchor="start" x="40" y="4.680000000000001" style="font-family: 'Open Sans', verdana, arial, sans-serif; font-size: 12px; fill: rgb(42, 63, 95); fill-opacity: 1; white-space: pre;">All</text><g class="layers" style="opacity: 1;"><g class="legendfill"/><g class="legendlines"><path class="js-line" d="M5,0h30" style="fill: none; stroke: rgb(99, 110, 250); stroke-opacity: 1; stroke-width: 2px;"/></g><g class="legendsymbols"><g class="legendpoints"/></g></g><rect class="legendtoggle" x="0" y="-9.5" width="54.890625" height="19" style="fill: rgb(0, 0, 0); fill-opacity: 0;"/></g></g></g><rect class="scrollbar" rx="20" ry="3" width="0" height="0" x="0" y="0" style="fill: rgb(128, 139, 164); fill-opacity: 1;"/></g><g class="g-gtitle"><text class="gtitle" x="35" y="50" text-anchor="start" dy="0em" style="font-family: 'Open Sans', verdana, arial, sans-serif; font-size: 17px; fill: rgb(42, 63, 95); opacity: 1; font-weight: normal; white-space: pre;">Singapore Vaccination Centers</text></g><g class="g-xtitle"><text class="xtitle" x="348.5" y="476.409375" text-anchor="middle" style="font-family: 'Open Sans', verdana, arial, sans-serif; font-size: 14px; fill: rgb(42, 63, 95); opacity: 1; font-weight: normal; white-space: pre;">Time</text></g><g class="g-ytitle"><text class="ytitle" transform="rotate(-90,19.840625000000003,260)" x="19.840625000000003" y="260" text-anchor="middle" style="font-family: 'Open Sans', verdana, arial, sans-serif; font-size: 14px; fill: rgb(42, 63, 95); opacity: 1; font-weight: normal; white-space: pre;">Filled/%</text></g></g></svg>