<svg class="main-svg" xmlns="http://www.w3.org/2000/svg" xmlns:xlink="http://www.w3.org/1999/xlink" width="700" height="500" style="" viewBox="0 0 700 500"><rect x="0" y="0" width="700" height="500" style="fill: rgb(255, 255, 255); fill-opacity: 1;"/><defs id="defs-9b7f76"><g class="clips"><clipPath id="clip9b7f76xyplot" class="plotclip"><rect width="537" height="320"/></clipPath><clipPath class="axesclip" id="clip9b7f76x"><rect x="80" y="0" width="537" height="500"/></clipPath><clipPath class="axesclip" id="clip9b7f76y"><rect x="0" y="100" width="700" height="320"/></clipPath><clipPath class="axesclip" id="clip9b7f76xy"><rect x="80" y="100" width="537" height="320"/></clipPath></g><g class="gradients"/></defs><g class="bglayer"><rect class="bg" x="80" y="100" width="537" height="320" style="fill: rgb(229, 236, 246); fill-opacity: 1; stroke-width: 0;"/></g><g class="layer-below"><g class="imagelayer"/><g class="shapelayer"/></g><g class="cartesianlayer"><g class="subplot xy"><g class="layer-subplot"><g class="shapelayer"/><g class="imagelayer"/></g><g class="gridlayer"><g class="x"><path class="xgrid crisp" transform="translate(89.88,0)" d="M0,100v320" style="stroke: rgb(255, 255, 255); stroke-opacity: 1; stroke-width: 1px;"/><path class="xgrid crisp" transform="translate(196.25,0)" d="M0,100v320" style="stroke: rgb(255, 255, 255); stroke-opacity: 1; stroke-width: 1px;"/><path class="xgrid crisp" transform="translate(302.63,0)" d="M0,100v320" style="stroke: rgb(255, 255, 255); stroke-opacity: 1; stroke-width: 1px;"/><path class="xgrid crisp" transform="translate(409,0)" d="M0,100v320" style="stroke: rgb(255, 255, 255); stroke-opacity: 1; stroke-width: 1px;"/><path class="xgrid crisp" transform="translate(515.37,0)" d="M0,100v320" style="stroke: rgb(255, 255, 255); stroke-opacity: 1; stroke-width: 1px;"/></g><g class="y"><path class="ygrid crisp" transform="translate(0,367.23)" d="M80,0h537" style="stroke: rgb(255, 255, 255); stroke-opacity: 1; stroke-width: 1px;"/><path class="ygrid crisp" transform="translate(0,308.43)" d="M80,0h537" style="stroke: rgb(255, 255, 255); stroke-opacity: 1; stroke-width: 1px;"/><path class="ygrid crisp" transform="translate(0,249.63)" d="M80,0h537" style="stroke: rgb(255, 255, 255); stroke-opacity: 1; stroke-width: 1px;"/><path class="ygrid crisp" transform="translate(0,190.82999999999998)" d="M80,0h537" style="stroke: rgb(255, 255, 255); stroke-opacity: 1; stroke-width: 1px;"/><path class="ygrid crisp" transform="translate(0,132.03)" d="M80,0h537" style="stroke: rgb(255, 255, 255); stroke-opacity: 1; stroke-width: 1px;"/></g></g><g class="zerolinelayer"/><path class="xlines-below"/><path class="ylines-below"/><g class="overlines-below"/><g class="xaxislayer-below"/><g class="yaxislayer-below"/><g class="overaxes-below"/><g class="plot" transform="translate(80,100)" clip-path="url('#clip9b7f76xyplot')"><g class="scatterlayer mlayer"><g class="trace scatter trace44ef63" style="stroke-miterlimit: 2; opacity: 1;"><g class="fills"/><g class="errorbars"/><g class="lines"><path class="js-line" d="M0,82.28L6.24,82.51L8.45,120.48L12.86,120.57L14.49,136.92L15.18,136.9L31.5,137.96L32.51,121.23L32.82,129.62L33.56,129.56L35.04,126.37L35.78,126.27L37.25,129.79L37.99,129.7L39.47,132.71L40.21,132.63L41.69,120.69L42.43,120.62L43.9,132.64L44.64,132.55L46.12,126.68L48.34,113.21L49.07,109.51L52.77,74.17L53.51,72.87L54.98,78.78L55.72,77.73L57.94,62.82L59.42,65.47L60.15,64.83L61.63,74.27L62.37,73.83L63.35,51.83L64.59,52.34L65.33,52.21L73.45,51.78L74.19,51.77L83.05,51.11L83.79,50.91L108.91,42.44L109.65,42.24L115.56,40.95L116.3,41.79L128.85,41.47L129.59,41.46L140.67,40.8L141.41,40.69L168.74,36.83L169.48,35.53L198.29,34L199.03,33.87L221.93,31.05L222.67,28.56L247.79,27.81L248.53,95.38L256.68,93.57L257.39,93.44L258.13,93.12L258.87,91.51L261.09,88.51L261.83,87.52L265.52,73.59L266.26,72.39L270.69,67.88L271.43,67.37L275.12,65.43L275.86,65.5L281.03,64.8L281.77,64.77L298.02,63.66L298.76,63.48L303.93,61.32L304.67,60.89L305.41,60.46L306.15,62.78L309.1,61.15L309.84,59.94L314.27,53.24L315.01,52.44L317.97,47.98L318.7,45.51L321.66,38.66L322.4,37.65L326.83,32.89L327.59,32.47L329.79,31.98L330.53,31.8L336.43,31.18L337.17,31.16L348.25,30.17L348.99,29.9L353.42,28.09L354.16,74.81L356.38,72.76L357.12,72.32L363.77,69.16L364.51,68.8L365.07,71.93L365.25,68.39L365.95,68.25L365.98,69.25L366.69,67.95L366.72,68.94L367.46,68.62L368.94,68.09L369.68,76.43L376.15,73.91L376.17,72.31L376.21,72.03L376.33,73.74L383.34,44.74L383.71,44.87L384.08,41.95L384.82,42.12L385.19,43.2L386.3,37.43L386.67,41.6L387.77,39.66L388.15,39.05L389.25,38.13L389.62,38.96L390.73,38.42L391.1,38.33L391.84,38.4L392.21,43.02L396.27,41.69L396.64,36.5L397.38,35.76L397.75,35.39L399.59,31.97L399.96,32.01L400.33,30.79L400.7,26.97L401.81,25.01L402.18,22.43L402.55,16L402.92,16.8L403.29,140.18L403.66,139.22L404.03,142.07L404.77,136.79L405.14,138.99L405.5,137.43L405.88,136.15L406.24,136.63L406.61,141.25L406.98,146.68L407.35,133.42L408.09,138.09L408.46,157.2L409.57,133.53L409.94,145.44L410.31,148.42L410.67,146.68L411.04,144.02L411.78,134.36L412.15,135.71L412.52,141.84L412.89,146.05L413.26,142.1L413.63,141.74L414,151.77L414.37,141.68L414.74,140.84L415.11,148.68L415.48,138.39L415.85,127.07L416.22,137.58L416.58,139.13L416.95,140.49L417.32,138.92L418.8,129.31L419.17,138.25L419.54,134.05L419.91,138.68L420.28,138.81L420.65,131.49L421.02,131.42L421.39,140.05L422.12,132.48L422.5,138.41L423.23,141.46L423.6,128.79L424.34,142.96L424.71,264.58L425.82,293.12L426.19,304L426.56,286.22L426.93,301.52L427.3,291.75L427.67,292.1L428.03,291.07L428.41,294.16L428.77,293.46L429.14,276.02L429.51,283.67L429.88,262.28L430.62,272.54L430.99,248.89L431.73,241.71L432.1,229.6L432.47,224.98L432.84,228.24L433.21,227.36L434.31,215.22L434.68,217.06L435.05,216.4L435.42,227.08L435.79,226.08L436.16,228.38L436.53,228.68L436.9,224.72L437.27,233.57L437.64,224.28L438.38,227.75L438.75,223.07L439.49,226.33L439.86,223.26L440.22,224.52L440.59,234.01L440.96,220.81L441.33,231.91L441.7,224.2L443.92,212.72L444.29,220.76L445.03,220.72L445.4,223.7L445.77,223.67L446.13,219.37L446.5,223.08L446.87,218.62L447.24,226.76L447.61,225.2L447.98,224.19L448.35,219.51L448.72,225.16L449.83,225.11L450.2,216.49L450.57,225.05L450.94,220.43L451.3,220.57L451.67,218.19L452.04,220.92L452.42,219.84L452.78,227.36L453.15,216.65L453.52,220.1L453.89,220.01L454.63,220.98L455,218.78L455.73,223.64L456.1,218.66L456.47,205.85L456.85,215.25L457.21,220.32L457.58,206.18L457.95,206.81L458.32,214.16L458.69,214.11L459.06,206.99L459.8,212.47L460.17,202.23L460.54,199.24L460.91,208.71L461.28,224.84L461.64,215.2L462.02,214.49L462.39,205.74L462.75,219.6L463.49,195.82L463.86,209.77L464.23,208.24L464.6,203.32L464.97,202.05L465.34,205.17L465.71,200.81L466.08,208.16L466.45,206.35L466.82,209.96L467.19,207.44L467.55,196.45L467.92,195.36L468.29,196.45L468.66,201.41L469.77,210.92L470.14,197.09L470.51,197.31L470.88,191.05L471.25,191.24L471.62,196.07L471.99,200.65L472.36,194.37L473.46,210.5L473.83,204.27L474.57,191.94L474.94,193.62L475.31,197L475.68,205.03L476.05,197.14L476.42,198.57L477.9,184.28L478.27,189.51L479.01,194.59L479.38,189.23L479.74,191.91L480.11,189.81L480.48,182.31L480.85,187.7L481.22,187L481.59,183.28L481.96,186.18L482.33,185.69L482.7,181.61L483.07,182.61L483.44,186.54L484.18,187.68L484.55,186.58L484.92,181.49L485.28,187.81L486.02,185.81L486.39,187.22L486.76,189.17L487.14,187L488.25,194.82L488.61,189.57L488.98,183.36L489.35,189.2L489.72,186.45L490.83,187.85L491.2,183.53L492.31,187.65L492.67,184.59L493.41,184.25L493.78,185.71L494.89,187.29L495.26,197.68L495.63,197.68L496,195.53L496.37,195.52L496.74,190.33L497.11,190.33L497.47,186.49L498.95,194.95L499.32,194.95L499.69,195.4L500.06,193.58L500.43,193.58L500.8,187.5L501.54,187.5L501.91,190.84L503.01,186.75L503.38,187.03L503.75,187.03L504.12,188.23L507.08,181.13L507.45,187.27L507.82,190.9L508.18,187.7L508.55,181.79L508.92,180.91L509.29,182.93L509.66,184.81L510.03,179.55L510.77,190.44L511.14,182.8L511.51,183.07L511.88,174.64L512.99,185.09L513.35,181.21L513.72,181.99L514.09,185.79L514.46,171.39L514.83,177.83L515.2,175.21L515.57,180.5L515.94,179.53L516.31,177.22L517.79,187.84L518.16,182.58L518.53,175.16L518.9,180.33L519.26,178.23L520,176.4L520.37,185.95L520.74,175.93L521.11,196.82L522.22,173.22L522.59,177.47L522.96,180.21L523.33,180.03L523.7,179.15L524.43,179.35L524.81,181.21L525.91,177.14L526.28,176.9L526.65,176.97L527.02,172.16L527.39,169.69L527.76,173.52L528.13,176.28L528.5,172.21L528.87,173.97L529.24,171L529.98,180.19L530.35,175.33L530.71,171.32L531.08,174.66L531.45,174.4L531.82,183.64L532.19,176L532.56,180.08L532.93,179.71L533.3,181.54L534.04,173.38L534.41,176.61L534.78,186.68L535.15,171.47L535.52,173.34L535.89,176.71L536.26,180.06L536.63,191.51L537,176.38" style="vector-effect: non-scaling-stroke; fill: none; stroke: rgb(99, 110, 250); stroke-opacity: 1; stroke-width: 2px; opacity: 1;"/></g><g class="points"/><g class="text"/></g></g></g><g class="overplot"/><path class="xlines-above crisp" d="M0,0" style="fill: none;"/><path class="ylines-above crisp" d="M0,0" style="fill: none;"/><g class="overlines-above"/><g class="xaxislayer-above"><g class="xtick"><text text-anchor="middle" x="0" y="433" transform="translate(89.88,0)" style="font-family: 'Open Sans', verdana, arial, sans-serif; font-size: 12px; fill: rgb(42, 63, 95); fill-opacity: 1; white-space: pre;"><tspan class="line" dy="0em" x="0" y="433">Jun 4</tspan><tspan class="line" dy="1.3em" x="0" y="433">2021</tspan></text></g><g class="xtick"><text text-anchor="middle" x="0" y="433" transform="translate(196.25,0)" style="font-family: 'Open Sans', verdana, arial, sans-serif; font-size: 12px; fill: rgb(42, 63, 95); fill-opacity: 1; white-space: pre;">Jun 6</text></g><g class="xtick"><text text-anchor="middle" x="0" y="433" transform="translate(302.63,0)" style="font-family: 'Open Sans', verdana, arial, sans-serif; font-size: 12px; fill: rgb(42, 63, 95); fill-opacity: 1; white-space: pre;">Jun 8</text></g><g class="xtick"><text text-anchor="middle" x="0" y="433" transform="translate(409,0)" style="font-family: 'Open Sans', verdana, arial, sans-serif; font-size: 12px; fill: rgb(42, 63, 95); fill-opacity: 1; white-space: pre;">Jun 10</text></g><g class="xtick"><text text-anchor="middle" x="0" y="433" transform="translate(515.37,0)" style="font-family: 'Open Sans', verdana, arial, sans-serif; font-size: 12px; fill: rgb(42, 63, 95); fill-opacity: 1; white-space: pre;">Jun 12</text></g></g><g class="yaxislayer-above"><g class="ytick"><text text-anchor="end" x="79" y="4.199999999999999" transform="translate(0,367.23)" style="font-family: 'Open Sans', verdana, arial, sans-serif; font-size: 12px; fill: rgb(42, 63, 95); fill-opacity: 1; white-space: pre;">0.8</text></g><g class="ytick"><text text-anchor="end" x="79" y="4.199999999999999" transform="translate(0,308.43)" style="font-family: 'Open Sans', verdana, arial, sans-serif; font-size: 12px; fill: rgb(42, 63, 95); fill-opacity: 1; white-space: pre;">0.82</text></g><g class="ytick"><text text-anchor="end" x="79" y="4.199999999999999" transform="translate(0,249.63)" style="font-family: 'Open Sans', verdana, arial, sans-serif; font-size: 12px; fill: rgb(42, 63, 95); fill-opacity: 1; white-space: pre;">0.84</text></g><g class="ytick"><text text-anchor="end" x="79" y="4.199999999999999" transform="translate(0,190.82999999999998)" style="font-family: 'Open Sans', verdana, arial, sans-serif; font-size: 12px; fill: rgb(42, 63, 95); fill-opacity: 1; white-space: pre;">0.86</text></g><g class="ytick"><text text-anchor="end" x="79" y="4.199999999999999" transform="translate(0,132.03)" style="font-family: 'Open Sans', verdana, arial, sans-serif; font-size: 12px; fill: rgb(42, 63, 95); fill-opacity: 1; white-space: pre;">0.88</text></g></g><g class="overaxes-above"/></g></g><g class="polarlayer"/><g class="ternarylayer"/><g class="geolayer"/><g class="funnelarealayer"/><g class="pielayer"/><g class="treemaplayer"/><g class="sunburstlayer"/><g class="glimages"/><defs id="topdefs-9b7f76"><g class="clips"/><clipPath id="legend9b7f76"><rect width="60" height="45" x="0" y="0"/></clipPath></defs><g class="layer-above"><g class="imagelayer"/><g class="shapelayer"/></g><g class="infolayer"><g class="legend" pointer-events="all" transform="translate(627.74,100)"><rect class="bg" shape-rendering="crispEdges" width="60" height="45" x="0" y="0" style="stroke: rgb(68, 68, 68); stroke-opacity: 1; fill: rgb(255, 255, 255); fill-opacity: 1; stroke-width: 0px;"/><g class="scrollbox" transform="" clip-path="url('#legend9b7f76')"><text class="legendtitletext" text-anchor="start" x="2" y="15.600000000000001" style="font-family: 'Open Sans', verdana, arial, sans-serif; font-size: 12px; fill: rgb(42, 63, 95); fill-opacity: 1; white-space: pre;">All</text><g class="groups" transform=""><g class="traces" transform="translate(0,30.1)" style="opacity: 1;"><text class="legendtext" text-anchor="start" x="40" y="4.680000000000001" style="font-family: 'Open Sans', verdana, arial, sans-serif; font-size: 12px; fill: rgb(42, 63, 95); fill-opacity: 1; white-space: pre;">All</text><g class="layers" style="opacity: 1;"><g class="legendfill"/><g class="legendlines"><path class="js-line" d="M5,0h30" style="fill: none; stroke: rgb(99, 110, 250); stroke-opacity: 1; stroke-width: 2px;"/></g><g class="legendsymbols"><g class="legendpoints"/></g></g><rect class="legendtoggle" x="0" y="-9.5" width="54.890625" height="19" style="fill: rgb(0, 0, 0); fill-opacity: 0;"/></g></g></g><rect class="scrollbar" rx="20" ry="3" width="0" height="0" x="0" y="0" style="fill: rgb(128, 139, 164); fill-opacity: 1;"/></g><g class="g-gtitle"><text class="gtitle" x="35" y="50" text-anchor="start" dy="0em" style="font-family: 'Open Sans', verdana, arial, sans-serif; font-size: 17px; fill: rgb(42, 63, 95); opacity: 1; font-weight: normal; white-space: pre;">Singapore Vaccination Centers</text></g><g class="g-xtitle"><text class="xtitle" x="348.5" y="476.409375" text-anchor="middle" style="font-family: 'Open Sans', verdana, arial, sans-serif; font-size: 14px; fill: rgb(42, 63, 95); opacity: 1; font-weight: normal; white-space: pre;">Time</text></g><g class="g-ytitle"><text class="ytitle" transform="rotate(-90,27.481250000000003,260)" x="27.481250000000003" y="260" text-anchor="middle" style="font-family: 'Open Sans', verdana, arial, sans-serif; font-size: 14px; fill: rgb(42, 63, 95); opacity: 1; font-weight: normal; white-space: pre;">Filled/%</text></g></g></svg>