<svg class="main-svg" xmlns="http://www.w3.org/2000/svg" xmlns:xlink="http://www.w3.org/1999/xlink" width="700" height="500" style="" viewBox="0 0 700 500"><rect x="0" y="0" width="700" height="500" style="fill: rgb(255, 255, 255); fill-opacity: 1;"/><defs id="defs-3a2667"><g class="clips"><clipPath id="clip3a2667xyplot" class="plotclip"><rect width="537" height="320"/></clipPath><clipPath class="axesclip" id="clip3a2667x"><rect x="80" y="0" width="537" height="500"/></clipPath><clipPath class="axesclip" id="clip3a2667y"><rect x="0" y="100" width="700" height="320"/></clipPath><clipPath class="axesclip" id="clip3a2667xy"><rect x="80" y="100" width="537" height="320"/></clipPath></g><g class="gradients"/></defs><g class="bglayer"><rect class="bg" x="80" y="100" width="537" height="320" style="fill: rgb(229, 236, 246); fill-opacity: 1; stroke-width: 0;"/></g><g class="layer-below"><g class="imagelayer"/><g class="shapelayer"/></g><g class="cartesianlayer"><g class="subplot xy"><g class="layer-subplot"><g class="shapelayer"/><g class="imagelayer"/></g><g class="gridlayer"><g class="x"><path class="xgrid crisp" transform="translate(82.38,0)" d="M0,100v320" style="stroke: rgb(255, 255, 255); stroke-opacity: 1; stroke-width: 1px;"/><path class="xgrid crisp" transform="translate(174.23000000000002,0)" d="M0,100v320" style="stroke: rgb(255, 255, 255); stroke-opacity: 1; stroke-width: 1px;"/><path class="xgrid crisp" transform="translate(266.08000000000004,0)" d="M0,100v320" style="stroke: rgb(255, 255, 255); stroke-opacity: 1; stroke-width: 1px;"/><path class="xgrid crisp" transform="translate(357.93,0)" d="M0,100v320" style="stroke: rgb(255, 255, 255); stroke-opacity: 1; stroke-width: 1px;"/><path class="xgrid crisp" transform="translate(449.79,0)" d="M0,100v320" style="stroke: rgb(255, 255, 255); stroke-opacity: 1; stroke-width: 1px;"/><path class="xgrid crisp" transform="translate(541.64,0)" d="M0,100v320" style="stroke: rgb(255, 255, 255); stroke-opacity: 1; stroke-width: 1px;"/></g><g class="y"><path class="ygrid crisp" transform="translate(0,392.55)" d="M80,0h537" style="stroke: rgb(255, 255, 255); stroke-opacity: 1; stroke-width: 1px;"/><path class="ygrid crisp" transform="translate(0,349.77)" d="M80,0h537" style="stroke: rgb(255, 255, 255); stroke-opacity: 1; stroke-width: 1px;"/><path class="ygrid crisp" transform="translate(0,306.99)" d="M80,0h537" style="stroke: rgb(255, 255, 255); stroke-opacity: 1; stroke-width: 1px;"/><path class="ygrid crisp" transform="translate(0,264.21000000000004)" d="M80,0h537" style="stroke: rgb(255, 255, 255); stroke-opacity: 1; stroke-width: 1px;"/><path class="ygrid crisp" transform="translate(0,221.43)" d="M80,0h537" style="stroke: rgb(255, 255, 255); stroke-opacity: 1; stroke-width: 1px;"/><path class="ygrid crisp" transform="translate(0,178.65)" d="M80,0h537" style="stroke: rgb(255, 255, 255); stroke-opacity: 1; stroke-width: 1px;"/><path class="ygrid crisp" transform="translate(0,135.87)" d="M80,0h537" style="stroke: rgb(255, 255, 255); stroke-opacity: 1; stroke-width: 1px;"/></g></g><g class="zerolinelayer"/><path class="xlines-below"/><path class="ylines-below"/><g class="overlines-below"/><g class="xaxislayer-below"/><g class="yaxislayer-below"/><g class="overaxes-below"/><g class="plot" transform="translate(80,100)" clip-path="url('#clip3a2667xyplot')"><g class="scatterlayer mlayer"><g class="trace scatter trace76ca10" style="stroke-miterlimit: 2; opacity: 1;"><g class="fills"/><g class="errorbars"/><g class="lines"><path class="js-line" d="M0,304L1.84,302.59L2.48,249.74L3.12,251.04L3.75,249.35L6.3,248.71L6.94,248.32L8.22,249.1L8.86,248.19L10.13,248.58L10.77,248.19L12.04,247.93L12.68,247.67L13.96,247.41L14.6,247.16L19.7,246.77L20.34,246.51L24.17,246.12L24.8,245.73L26.08,245.86L26.72,245.22L27.99,245.09L28.63,244.44L29.9,244.57L30.54,243.66L31.82,244.57L32.46,243.02L34.37,242.11L35,242.63L35.64,242.24L36.28,243.15L37.56,240.17L38.19,240.69L38.83,240.69L39.47,239.78L42.66,236.94L43.3,237.97L43.93,238.23L44.57,237.07L45.21,235L45.85,235.51L46.49,236.55L47.12,235L48.4,232.67L49.04,232.28L50.32,230.6L50.95,231.12L52.23,229.95L52.87,230.21L53.5,231.76L54.14,229.56L56.06,230.6L56.69,230.21L58.61,226.07L59.24,226.85L60.52,225.68L61.16,227.36L61.8,227.11L62.43,225.55L64.98,221.16L65.62,218.44L66.26,219.09L66.9,217.66L67.54,216.63L68.17,217.4L69.45,217.66L70.09,218.7L73.28,216.37L73.91,216.11L75.83,214.3L76.47,214.82L77.74,215.98L78.38,214.43L80.94,212.88L81.57,212.75L83.48,211.84L84.12,211.71L85.39,211.84L86.03,211.45L87.95,211.32L88.58,210.42L90.5,207.7L91.14,206.93L92.41,207.96L93.05,207.44L93.69,207.96L94.33,142.27L96.88,140.44L97.51,140.31L99.43,138.75L100.07,139.14L103.26,138.48L103.89,138.35L105.81,137.83L106.45,137.96L112.18,137.96L112.83,138.09L117.29,137.83L117.93,137.18L119.84,137.18L120.48,136.14L123.03,136.27L123.67,135.74L124.94,135.88L125.58,135.22L126.86,134.57L127.49,135.22L130.04,132.22L130.68,133.27L132.6,131.57L133.23,132.22L135.78,128.44L136.42,130.14L138.97,127.14L139.61,128.05L140.89,126.48L141.52,127.66L142.16,128.7L142.8,127.79L143.44,128.83L144.08,128.31L144.71,127.4L145.35,128.44L146.63,128.18L147.27,128.57L148.54,128.83L149.18,128.44L151.74,124.79L152.38,124.92L153.65,125.96L154.29,124.01L156.84,123.09L157.48,121.4L160.03,121.92L160.67,120.61L161.31,118.4L161.95,119.96L162.59,119.96L163.22,118.79L163.86,119.7L164.5,119.18L165.78,117.35L166.41,117.48L168.33,114.35L168.96,114.48L170.24,112.14L170.88,112.92L172.15,110.83L172.79,111.35L174.7,110.7L175.34,108.09L175.98,107.96L176.61,106.92L177.89,105.74L178.53,106L179.81,107.83L180.44,107.18L181.09,109.13L181.72,108.35L182.36,108.22L182.99,106.66L183.63,106.27L184.27,106.79L185.55,107.05L186.19,61.25L188.1,59.15L188.73,58.88L192.56,56.78L193.2,56.52L196.39,54.28L197.03,54.28L198.3,54.41L198.94,53.75L202.13,53.62L202.77,53.75L212.97,51.78L213.61,52.18L215.52,51.12L216.16,51.25L216.8,51.52L217.43,50.73L221.26,50.07L222.54,49.54L223.18,48.23L224.45,47.83L225.73,47.44L226.37,45.73L227,46.91L227.64,45.73L228.92,45.73L229.55,45.07L230.19,44.94L230.83,43.76L232.74,43.49L233.38,41.91L235.3,39.42L235.92,38.1L237.19,38.36L237.82,37.31L238.46,37.71L239.1,36L241.65,35.34L242.29,33.36L242.93,32.71L243.57,33.23L244.84,32.44L245.48,32.05L246.12,31.92L246.75,30.86L248.03,30.86L248.67,31.39L249.94,32.97L250.59,31.13L251.86,32.31L252.51,30.34L253.78,30.47L254.41,30.86L256.33,29.02L256.96,29.42L258.24,27.71L258.88,26.66L259.51,24.16L260.16,24.68L260.79,23.24L261.43,24.68L262.7,22.84L263.34,22.58L263.98,21.26L264.61,21.66L265.25,21.79L265.89,21.79L266.53,20.74L267.17,21.26L267.81,19.68L269.08,19.55L269.72,18.5L272.27,18.89L272.91,17.97L274.19,17.84L274.82,17.97L276.1,16L276.73,16.66L277.38,16.39L278.01,171.81L281.2,171.4L281.84,172.08L283.75,170.99L284.39,170.99L285.67,169.76L286.3,169.76L288.22,169.08L288.86,169.08L293.32,168.67L293.96,168.67L298.42,168.39L299.06,168.39L301.61,167.44L302.25,167.71L306.07,166.89L306.71,166.75L307.99,165.8L308.63,165.12L311.82,164.02L312.46,162.66L315.03,162.38L315.66,163.61L316.94,161.7L317.58,161.57L318.22,160.88L318.85,158.43L319.49,156.51L320.13,156.79L320.77,156.1L321.4,154.33L322.04,154.88L323.32,154.47L323.96,154.33L325.87,152.69L326.51,153.65L328.42,150.92L329.06,151.87L330.97,149.14L331.61,149.14L332.25,148.32L332.89,149.41L334.16,150.37L334.8,149.41L335.44,149.55L336.08,148.73L338.63,145.18L339.27,144.5L341.18,143.54L341.82,145.04L345.65,141.9L346.28,143.68L347.56,121.97L348.2,121.56L349.47,120.88L350.11,116.1L350.75,116.24L351.38,112.28L352.02,112.55L352.66,109.96L353.3,106.95L353.94,107.91L355.85,101.22L356.49,98.08L357.77,97.53L358.4,95.35L359.04,94.8L359.68,92.07L360.95,89.34L361.59,89.34L363.5,85.65L364.14,84.7L369.25,75L369.88,88.44L373.08,84.03L373.71,84.45L374.35,84.31L374.99,85.14L376.26,84.72L376.9,85.41L378.81,84.45L379.45,84.59L380.73,84.03L381.37,84.17L388.38,83.48L389.02,83.35L399.22,83.35L399.86,83.9L403.05,79.9L403.69,80.18L405.6,78.8L406.24,78.94L406.88,78.53L407.51,76.87L408.79,77.15L409.43,75.63L412.62,72.47L413.26,72.88L415.17,69.44L415.81,69.02L417.72,66.41L418.36,66.41L419.64,63.79L420.27,63.79L421.55,61.86L422.19,59.66L424.74,54.43L425.38,54.01L426.01,53.6L426.65,51.4L429.21,49.47L429.84,47.82L433.67,46.85L434.31,45.75L434.95,46.16L435.58,45.48L436.22,45.89L441.32,41.21L444.51,38.59L445.15,39.28L447.7,35.97L448.34,35.84L448.98,34.46L449.62,35.01L450.89,33.91L451.53,34.18L452.17,35.28L452.8,34.32L455.36,32.94L456,33.91L458.55,33.22L459.18,32.12L461.1,29.78L461.73,81.26L463.01,81.68L463.65,80.56L464.28,79.86L464.92,80.42L466.84,80.42L467.48,81.4L469.39,81.12L470.03,81.12L473.22,81.4L473.86,81.12L476.41,79.86L477.05,80.28L483.42,79.58L484.06,79.58L491.07,79.3L491.71,79.16L494.9,78.74L495.54,78.31L496.82,77.75L497.45,76.77L498.73,76.35L499.37,74.95L500,73.55L500.64,74.95L503.19,73.97L503.83,73.97L505.11,71.86L505.75,71.58L507.66,68.64L508.3,68.5L508.93,68.22L509.57,68.78L512.12,66.53L512.76,66.67L514.04,65.13L514.67,64.43L517.23,63.45L517.87,63.87L518.5,63.31L519.14,64.01L520.42,60.5L521.06,60.78L521.69,60.78L523.6,60.22L524.24,58.96L527.43,56.43L528.07,56.71L531.9,54.19L532.53,53.21L533.17,53.63L533.81,52.79L535.09,52.93L535.72,52.79L537,51.94" style="vector-effect: non-scaling-stroke; fill: none; stroke: rgb(99, 110, 250); stroke-opacity: 1; stroke-width: 2px; opacity: 1;"/></g><g class="points"/><g class="text"/></g></g></g><g class="overplot"/><path class="xlines-above crisp" d="M0,0" style="fill: none;"/><path class="ylines-above crisp" d="M0,0" style="fill: none;"/><g class="overlines-above"/><g class="xaxislayer-above"><g class="xtick"><text text-anchor="middle" x="0" y="433" transform="translate(82.38,0)" style="font-family: 'Open Sans', verdana, arial, sans-serif; font-size: 12px; fill: rgb(42, 63, 95); fill-opacity: 1; white-space: pre;"><tspan class="line" dy="0em" x="0" y="433">Aug 3</tspan><tspan class="line" dy="1.3em" x="0" y="433">2021</tspan></text></g><g class="xtick"><text text-anchor="middle" x="0" y="433" transform="translate(174.23000000000002,0)" style="font-family: 'Open Sans', verdana, arial, sans-serif; font-size: 12px; fill: rgb(42, 63, 95); fill-opacity: 1; white-space: pre;">Aug 4</text></g><g class="xtick"><text text-anchor="middle" x="0" y="433" transform="translate(266.08000000000004,0)" style="font-family: 'Open Sans', verdana, arial, sans-serif; font-size: 12px; fill: rgb(42, 63, 95); fill-opacity: 1; white-space: pre;">Aug 5</text></g><g class="xtick"><text text-anchor="middle" x="0" y="433" transform="translate(357.93,0)" style="font-family: 'Open Sans', verdana, arial, sans-serif; font-size: 12px; fill: rgb(42, 63, 95); fill-opacity: 1; white-space: pre;">Aug 6</text></g><g class="xtick"><text text-anchor="middle" x="0" y="433" transform="translate(449.79,0)" style="font-family: 'Open Sans', verdana, arial, sans-serif; font-size: 12px; fill: rgb(42, 63, 95); fill-opacity: 1; white-space: pre;">Aug 7</text></g><g class="xtick"><text text-anchor="middle" x="0" y="433" transform="translate(541.64,0)" style="font-family: 'Open Sans', verdana, arial, sans-serif; font-size: 12px; fill: rgb(42, 63, 95); fill-opacity: 1; white-space: pre;">Aug 8</text></g></g><g class="yaxislayer-above"><g class="ytick"><text text-anchor="end" x="79" y="4.199999999999999" transform="translate(0,392.55)" style="font-family: 'Open Sans', verdana, arial, sans-serif; font-size: 12px; fill: rgb(42, 63, 95); fill-opacity: 1; white-space: pre;">0.864</text></g><g class="ytick"><text text-anchor="end" x="79" y="4.199999999999999" transform="translate(0,349.77)" style="font-family: 'Open Sans', verdana, arial, sans-serif; font-size: 12px; fill: rgb(42, 63, 95); fill-opacity: 1; white-space: pre;">0.865</text></g><g class="ytick"><text text-anchor="end" x="79" y="4.199999999999999" transform="translate(0,306.99)" style="font-family: 'Open Sans', verdana, arial, sans-serif; font-size: 12px; fill: rgb(42, 63, 95); fill-opacity: 1; white-space: pre;">0.866</text></g><g class="ytick"><text text-anchor="end" x="79" y="4.199999999999999" transform="translate(0,264.21000000000004)" style="font-family: 'Open Sans', verdana, arial, sans-serif; font-size: 12px; fill: rgb(42, 63, 95); fill-opacity: 1; white-space: pre;">0.867</text></g><g class="ytick"><text text-anchor="end" x="79" y="4.199999999999999" transform="translate(0,221.43)" style="font-family: 'Open Sans', verdana, arial, sans-serif; font-size: 12px; fill: rgb(42, 63, 95); fill-opacity: 1; white-space: pre;">0.868</text></g><g class="ytick"><text text-anchor="end" x="79" y="4.199999999999999" transform="translate(0,178.65)" style="font-family: 'Open Sans', verdana, arial, sans-serif; font-size: 12px; fill: rgb(42, 63, 95); fill-opacity: 1; white-space: pre;">0.869</text></g><g class="ytick"><text text-anchor="end" x="79" y="4.199999999999999" transform="translate(0,135.87)" style="font-family: 'Open Sans', verdana, arial, sans-serif; font-size: 12px; fill: rgb(42, 63, 95); fill-opacity: 1; white-space: pre;">0.87</text></g></g><g class="overaxes-above"/></g></g><g class="polarlayer"/><g class="ternarylayer"/><g class="geolayer"/><g class="funnelarealayer"/><g class="pielayer"/><g class="treemaplayer"/><g class="sunburstlayer"/><g class="glimages"/><defs id="topdefs-3a2667"><g class="clips"/><clipPath id="legend3a2667"><rect width="60" height="45" x="0" y="0"/></clipPath></defs><g class="layer-above"><g class="imagelayer"/><g class="shapelayer"/></g><g class="infolayer"><g class="legend" pointer-events="all" transform="translate(627.74,100)"><rect class="bg" shape-rendering="crispEdges" width="60" height="45" x="0" y="0" style="stroke: rgb(68, 68, 68); stroke-opacity: 1; fill: rgb(255, 255, 255); fill-opacity: 1; stroke-width: 0px;"/><g class="scrollbox" transform="" clip-path="url('#legend3a2667')"><text class="legendtitletext" text-anchor="start" x="2" y="15.600000000000001" style="font-family: 'Open Sans', verdana, arial, sans-serif; font-size: 12px; fill: rgb(42, 63, 95); fill-opacity: 1; white-space: pre;">All</text><g class="groups" transform=""><g class="traces" transform="translate(0,30.1)" style="opacity: 1;"><text class="legendtext" text-anchor="start" x="40" y="4.680000000000001" style="font-family: 'Open Sans', verdana, arial, sans-serif; font-size: 12px; fill: rgb(42, 63, 95); fill-opacity: 1; white-space: pre;">All</text><g class="layers" style="opacity: 1;"><g class="legendfill"/><g class="legendlines"><path class="js-line" d="M5,0h30" style="fill: none; stroke: rgb(99, 110, 250); stroke-opacity: 1; stroke-width: 2px;"/></g><g class="legendsymbols"><g class="legendpoints"/></g></g><rect class="legendtoggle" x="0" y="-9.5" width="54.890625" height="19" style="fill: rgb(0, 0, 0); fill-opacity: 0;"/></g></g></g><rect class="scrollbar" rx="20" ry="3" width="0" height="0" x="0" y="0" style="fill: rgb(128, 139, 164); fill-opacity: 1;"/></g><g class="g-gtitle"><text class="gtitle" x="35" y="50" text-anchor="start" dy="0em" style="font-family: 'Open Sans', verdana, arial, sans-serif; font-size: 17px; fill: rgb(42, 63, 95); opacity: 1; font-weight: normal; white-space: pre;">Singapore Vaccination Centers</text></g><g class="g-xtitle"><text class="xtitle" x="348.5" y="476.409375" text-anchor="middle" style="font-family: 'Open Sans', verdana, arial, sans-serif; font-size: 14px; fill: rgb(42, 63, 95); opacity: 1; font-weight: normal; white-space: pre;">Time</text></g><g class="g-ytitle"><text class="ytitle" transform="rotate(-90,19.840625000000003,260)" x="19.840625000000003" y="260" text-anchor="middle" style="font-family: 'Open Sans', verdana, arial, sans-serif; font-size: 14px; fill: rgb(42, 63, 95); opacity: 1; font-weight: normal; white-space: pre;">Filled/%</text></g></g></svg>