<svg class="main-svg" xmlns="http://www.w3.org/2000/svg" xmlns:xlink="http://www.w3.org/1999/xlink" width="700" height="500" style="" viewBox="0 0 700 500"><rect x="0" y="0" width="700" height="500" style="fill: rgb(255, 255, 255); fill-opacity: 1;"/><defs id="defs-bb0be4"><g class="clips"><clipPath id="clipbb0be4xyplot" class="plotclip"><rect width="537" height="320"/></clipPath><clipPath class="axesclip" id="clipbb0be4x"><rect x="80" y="0" width="537" height="500"/></clipPath><clipPath class="axesclip" id="clipbb0be4y"><rect x="0" y="100" width="700" height="320"/></clipPath><clipPath class="axesclip" id="clipbb0be4xy"><rect x="80" y="100" width="537" height="320"/></clipPath></g><g class="gradients"/></defs><g class="bglayer"><rect class="bg" x="80" y="100" width="537" height="320" style="fill: rgb(229, 236, 246); fill-opacity: 1; stroke-width: 0;"/></g><g class="layer-below"><g class="imagelayer"/><g class="shapelayer"/></g><g class="cartesianlayer"><g class="subplot xy"><g class="layer-subplot"><g class="shapelayer"/><g class="imagelayer"/></g><g class="gridlayer"><g class="x"><path class="xgrid crisp" transform="translate(83.44,0)" d="M0,100v320" style="stroke: rgb(255, 255, 255); stroke-opacity: 1; stroke-width: 1px;"/><path class="xgrid crisp" transform="translate(215.87,0)" d="M0,100v320" style="stroke: rgb(255, 255, 255); stroke-opacity: 1; stroke-width: 1px;"/><path class="xgrid crisp" transform="translate(348.31,0)" d="M0,100v320" style="stroke: rgb(255, 255, 255); stroke-opacity: 1; stroke-width: 1px;"/><path class="xgrid crisp" transform="translate(480.74,0)" d="M0,100v320" style="stroke: rgb(255, 255, 255); stroke-opacity: 1; stroke-width: 1px;"/><path class="xgrid crisp" transform="translate(613.18,0)" d="M0,100v320" style="stroke: rgb(255, 255, 255); stroke-opacity: 1; stroke-width: 1px;"/></g><g class="y"><path class="ygrid crisp" transform="translate(0,392.55)" d="M80,0h537" style="stroke: rgb(255, 255, 255); stroke-opacity: 1; stroke-width: 1px;"/><path class="ygrid crisp" transform="translate(0,349.77)" d="M80,0h537" style="stroke: rgb(255, 255, 255); stroke-opacity: 1; stroke-width: 1px;"/><path class="ygrid crisp" transform="translate(0,306.99)" d="M80,0h537" style="stroke: rgb(255, 255, 255); stroke-opacity: 1; stroke-width: 1px;"/><path class="ygrid crisp" transform="translate(0,264.21000000000004)" d="M80,0h537" style="stroke: rgb(255, 255, 255); stroke-opacity: 1; stroke-width: 1px;"/><path class="ygrid crisp" transform="translate(0,221.43)" d="M80,0h537" style="stroke: rgb(255, 255, 255); stroke-opacity: 1; stroke-width: 1px;"/><path class="ygrid crisp" transform="translate(0,178.65)" d="M80,0h537" style="stroke: rgb(255, 255, 255); stroke-opacity: 1; stroke-width: 1px;"/><path class="ygrid crisp" transform="translate(0,135.87)" d="M80,0h537" style="stroke: rgb(255, 255, 255); stroke-opacity: 1; stroke-width: 1px;"/></g></g><g class="zerolinelayer"/><path class="xlines-below"/><path class="ylines-below"/><g class="overlines-below"/><g class="xaxislayer-below"/><g class="yaxislayer-below"/><g class="overaxes-below"/><g class="plot" transform="translate(80,100)" clip-path="url('#clipbb0be4xyplot')"><g class="scatterlayer mlayer"><g class="trace scatter tracee1ab95" style="stroke-miterlimit: 2; opacity: 1;"><g class="fills"/><g class="errorbars"/><g class="lines"><path class="js-line" d="M0,304L2.65,302.59L3.57,249.74L4.49,251.04L5.41,249.35L9.09,248.71L10.01,248.32L11.85,249.1L12.77,248.19L14.61,248.58L15.53,248.19L16.44,248.45L17.36,247.93L22.89,246.9L23.8,247.16L28.41,246.77L29.32,246.51L34.84,246.12L35.76,245.73L37.6,245.86L38.52,245.22L40.36,245.09L41.27,244.44L42.2,244.96L43.12,244.57L44.03,243.66L44.96,243.92L45.88,244.57L46.8,243.02L49.55,242.11L50.47,242.63L51.39,242.24L52.31,243.15L53.23,242.24L54.15,240.17L55.99,240.69L56.91,239.78L60.59,237.84L61.51,236.94L63.34,238.23L64.27,237.07L65.19,235L66.11,235.51L67.03,236.55L67.94,235L69.79,232.67L70.71,232.28L72.55,230.6L73.47,231.12L75.3,229.95L76.22,230.21L77.14,231.76L78.06,229.56L80.83,230.6L81.75,230.21L83.59,226.46L84.5,226.07L85.42,226.85L86.34,225.55L87.26,225.68L88.18,227.36L89.1,227.11L90.02,225.55L93.7,221.16L94.62,218.44L95.54,219.09L96.46,217.66L97.38,216.63L98.3,217.4L100.14,217.66L101.05,218.7L104.74,216.5L105.65,216.37L107.5,215.72L108.42,214.69L109.33,214.3L110.26,214.82L112.09,215.98L113.01,214.43L115.77,213.39L116.7,212.88L118.53,212.23L119.45,211.45L122.21,212.23L123.13,211.84L124.97,211.58L125.89,211.84L127.72,210.42L128.65,208.87L130.49,207.7L131.41,206.93L133.24,207.96L134.16,207.44L135.09,207.96L136.01,142.27L138.77,140.18L139.69,140.44L141.53,139.92L142.44,139.01L144.28,139.14L145.21,139.14L148.88,138.48L149.8,138.35L152.56,137.83L153.48,137.96L161.75,137.96L162.68,138.09L169.11,137.83L170.03,137.18L172.79,137.18L173.71,136.14L177.39,136.27L178.31,135.74L180.15,135.88L181.06,135.22L182.91,134.57L183.83,135.22L186.59,132.22L187.5,132.22L188.43,133.27L189.34,132.88L191.19,131.57L192.11,132.22L195.78,128.44L196.7,130.14L200.38,127.14L201.3,128.05L203.14,126.48L204.06,127.66L204.98,128.7L205.9,127.79L206.82,128.83L207.74,128.31L208.66,127.4L209.58,128.44L210.5,127.79L211.42,128.18L214.18,128.83L215.1,128.44L216.95,126.48L217.87,125.05L219.71,124.92L220.63,125.44L221.55,125.96L222.47,124.01L226.15,123.09L227.07,121.4L229.83,122.44L230.75,121.92L232.58,118.4L233.51,119.96L234.43,119.96L235.35,118.79L236.26,119.7L237.18,119.18L239.03,117.35L239.94,117.48L242.7,114.35L243.62,114.48L245.46,112.14L246.38,112.92L248.22,110.83L249.14,111.35L251.9,110.7L252.82,108.09L253.74,107.96L254.65,106.92L255.58,105.48L256.5,105.74L257.42,106L258.34,107.18L259.26,107.83L260.18,107.18L261.1,109.13L262.02,108.35L262.94,108.22L263.85,106.66L264.77,106.27L265.69,106.79L267.53,107.05L268.45,61.25L270.29,59.41L271.21,59.15L273.97,57.57L274.89,57.17L276.73,57.04L277.65,56.78L281.33,55.46L282.25,54.54L284.09,54.28L285.01,54.81L288.69,53.75L289.6,53.62L291.45,53.62L292.36,53.75L307.08,51.78L308,52.18L310.76,51.12L311.67,51.25L312.6,51.52L313.51,50.73L319.03,50.07L320.87,49.54L321.79,48.23L323.63,47.83L325.47,47.44L326.39,45.73L327.31,46.91L328.23,45.73L330.07,45.73L330.98,45.07L331.91,44.94L332.82,43.76L335.58,43.49L336.51,41.91L338.34,40.2L339.26,39.42L340.16,38.1L341.07,38.76L343.83,37.71L344.75,36L348.43,35.34L349.35,33.36L350.27,32.71L351.19,33.23L353.03,32.44L353.95,32.05L354.87,31.92L355.79,30.86L357.63,30.86L358.54,31.39L360.38,32.97L361.31,31.13L363.15,32.31L364.08,30.34L365.91,30.47L366.83,30.86L369.59,29.02L370.51,29.42L372.34,27.71L373.26,26.66L374.18,24.16L375.11,24.68L376.02,23.24L376.94,24.68L378.78,22.84L379.7,22.58L380.62,21.26L381.54,21.66L383.38,21.79L384.29,20.74L385.22,21.26L386.14,19.68L387.98,19.55L388.9,18.5L392.57,18.89L393.49,17.97L394.41,17.45L395.34,17.84L396.26,17.97L397.18,17.05L398.1,16L399.01,16.66L399.94,16.39L400.86,171.81L405.45,171.4L406.38,172.08L409.13,170.99L410.05,170.99L411.89,169.76L412.81,169.76L414.65,168.94L415.57,169.08L431.21,168.39L432.12,167.98L444.07,165.8L445,165.12L449.6,164.02L450.52,162.66L454.23,162.38L455.14,163.61L456.99,161.7L457.9,161.57L458.82,160.88L459.74,158.43L460.66,156.51L461.58,156.79L462.5,156.1L463.42,154.33L464.34,154.88L465.26,154.19L467.1,154.33L468.02,153.37L469.86,152.69L470.78,153.65L472.62,152.01L473.54,150.92L474.46,151.87L475.38,150.64L477.22,149.14L478.14,149.14L479.05,148.32L479.98,149.41L481.82,150.37L482.74,149.41L483.65,149.55L484.58,148.73L488.26,145.18L489.18,144.5L491.93,143.54L492.85,145.04L498.37,141.9L499.29,143.68L500.21,121.97L501.13,121.97L503.89,120.88L504.81,116.1L505.73,116.24L506.65,112.28L507.57,112.55L508.49,109.96L509.41,106.95L510.33,107.91L512.16,104.77L513.08,101.22L514.01,98.08L514.93,98.08L515.85,97.53L516.77,95.35L517.68,94.8L518.61,92.07L520.44,89.34L521.36,89.34L523.21,85.93L524.12,85.65L526.88,82.78L527.8,80.19L531.48,77.05L532.4,75L533.32,88.44L534.24,87.48L537,84.45" style="vector-effect: non-scaling-stroke; fill: none; stroke: rgb(99, 110, 250); stroke-opacity: 1; stroke-width: 2px; opacity: 1;"/></g><g class="points"/><g class="text"/></g></g></g><g class="overplot"/><path class="xlines-above crisp" d="M0,0" style="fill: none;"/><path class="ylines-above crisp" d="M0,0" style="fill: none;"/><g class="overlines-above"/><g class="xaxislayer-above"><g class="xtick"><text text-anchor="middle" x="0" y="433" transform="translate(83.44,0)" style="font-family: 'Open Sans', verdana, arial, sans-serif; font-size: 12px; fill: rgb(42, 63, 95); fill-opacity: 1; white-space: pre;"><tspan class="line" dy="0em" x="0" y="433">Aug 3</tspan><tspan class="line" dy="1.3em" x="0" y="433">2021</tspan></text></g><g class="xtick"><text text-anchor="middle" x="0" y="433" transform="translate(215.87,0)" style="font-family: 'Open Sans', verdana, arial, sans-serif; font-size: 12px; fill: rgb(42, 63, 95); fill-opacity: 1; white-space: pre;">Aug 4</text></g><g class="xtick"><text text-anchor="middle" x="0" y="433" transform="translate(348.31,0)" style="font-family: 'Open Sans', verdana, arial, sans-serif; font-size: 12px; fill: rgb(42, 63, 95); fill-opacity: 1; white-space: pre;">Aug 5</text></g><g class="xtick"><text text-anchor="middle" x="0" y="433" transform="translate(480.74,0)" style="font-family: 'Open Sans', verdana, arial, sans-serif; font-size: 12px; fill: rgb(42, 63, 95); fill-opacity: 1; white-space: pre;">Aug 6</text></g><g class="xtick"><text text-anchor="middle" x="0" y="433" transform="translate(613.18,0)" style="font-family: 'Open Sans', verdana, arial, sans-serif; font-size: 12px; fill: rgb(42, 63, 95); fill-opacity: 1; white-space: pre;">Aug 7</text></g></g><g class="yaxislayer-above"><g class="ytick"><text text-anchor="end" x="79" y="4.199999999999999" transform="translate(0,392.55)" style="font-family: 'Open Sans', verdana, arial, sans-serif; font-size: 12px; fill: rgb(42, 63, 95); fill-opacity: 1; white-space: pre;">0.864</text></g><g class="ytick"><text text-anchor="end" x="79" y="4.199999999999999" transform="translate(0,349.77)" style="font-family: 'Open Sans', verdana, arial, sans-serif; font-size: 12px; fill: rgb(42, 63, 95); fill-opacity: 1; white-space: pre;">0.865</text></g><g class="ytick"><text text-anchor="end" x="79" y="4.199999999999999" transform="translate(0,306.99)" style="font-family: 'Open Sans', verdana, arial, sans-serif; font-size: 12px; fill: rgb(42, 63, 95); fill-opacity: 1; white-space: pre;">0.866</text></g><g class="ytick"><text text-anchor="end" x="79" y="4.199999999999999" transform="translate(0,264.21000000000004)" style="font-family: 'Open Sans', verdana, arial, sans-serif; font-size: 12px; fill: rgb(42, 63, 95); fill-opacity: 1; white-space: pre;">0.867</text></g><g class="ytick"><text text-anchor="end" x="79" y="4.199999999999999" transform="translate(0,221.43)" style="font-family: 'Open Sans', verdana, arial, sans-serif; font-size: 12px; fill: rgb(42, 63, 95); fill-opacity: 1; white-space: pre;">0.868</text></g><g class="ytick"><text text-anchor="end" x="79" y="4.199999999999999" transform="translate(0,178.65)" style="font-family: 'Open Sans', verdana, arial, sans-serif; font-size: 12px; fill: rgb(42, 63, 95); fill-opacity: 1; white-space: pre;">0.869</text></g><g class="ytick"><text text-anchor="end" x="79" y="4.199999999999999" transform="translate(0,135.87)" style="font-family: 'Open Sans', verdana, arial, sans-serif; font-size: 12px; fill: rgb(42, 63, 95); fill-opacity: 1; white-space: pre;">0.87</text></g></g><g class="overaxes-above"/></g></g><g class="polarlayer"/><g class="ternarylayer"/><g class="geolayer"/><g class="funnelarealayer"/><g class="pielayer"/><g class="treemaplayer"/><g class="sunburstlayer"/><g class="glimages"/><defs id="topdefs-bb0be4"><g class="clips"/><clipPath id="legendbb0be4"><rect width="60" height="45" x="0" y="0"/></clipPath></defs><g class="layer-above"><g class="imagelayer"/><g class="shapelayer"/></g><g class="infolayer"><g class="legend" pointer-events="all" transform="translate(627.74,100)"><rect class="bg" shape-rendering="crispEdges" width="60" height="45" x="0" y="0" style="stroke: rgb(68, 68, 68); stroke-opacity: 1; fill: rgb(255, 255, 255); fill-opacity: 1; stroke-width: 0px;"/><g class="scrollbox" transform="" clip-path="url('#legendbb0be4')"><text class="legendtitletext" text-anchor="start" x="2" y="15.600000000000001" style="font-family: 'Open Sans', verdana, arial, sans-serif; font-size: 12px; fill: rgb(42, 63, 95); fill-opacity: 1; white-space: pre;">All</text><g class="groups" transform=""><g class="traces" transform="translate(0,30.1)" style="opacity: 1;"><text class="legendtext" text-anchor="start" x="40" y="4.680000000000001" style="font-family: 'Open Sans', verdana, arial, sans-serif; font-size: 12px; fill: rgb(42, 63, 95); fill-opacity: 1; white-space: pre;">All</text><g class="layers" style="opacity: 1;"><g class="legendfill"/><g class="legendlines"><path class="js-line" d="M5,0h30" style="fill: none; stroke: rgb(99, 110, 250); stroke-opacity: 1; stroke-width: 2px;"/></g><g class="legendsymbols"><g class="legendpoints"/></g></g><rect class="legendtoggle" x="0" y="-9.5" width="54.890625" height="19" style="fill: rgb(0, 0, 0); fill-opacity: 0;"/></g></g></g><rect class="scrollbar" rx="20" ry="3" width="0" height="0" x="0" y="0" style="fill: rgb(128, 139, 164); fill-opacity: 1;"/></g><g class="g-gtitle"><text class="gtitle" x="35" y="50" text-anchor="start" dy="0em" style="font-family: 'Open Sans', verdana, arial, sans-serif; font-size: 17px; fill: rgb(42, 63, 95); opacity: 1; font-weight: normal; white-space: pre;">Singapore Vaccination Centers</text></g><g class="g-xtitle"><text class="xtitle" x="348.5" y="476.409375" text-anchor="middle" style="font-family: 'Open Sans', verdana, arial, sans-serif; font-size: 14px; fill: rgb(42, 63, 95); opacity: 1; font-weight: normal; white-space: pre;">Time</text></g><g class="g-ytitle"><text class="ytitle" transform="rotate(-90,19.840625000000003,260)" x="19.840625000000003" y="260" text-anchor="middle" style="font-family: 'Open Sans', verdana, arial, sans-serif; font-size: 14px; fill: rgb(42, 63, 95); opacity: 1; font-weight: normal; white-space: pre;">Filled/%</text></g></g></svg>