<svg class="main-svg" xmlns="http://www.w3.org/2000/svg" xmlns:xlink="http://www.w3.org/1999/xlink" width="700" height="500" style="" viewBox="0 0 700 500"><rect x="0" y="0" width="700" height="500" style="fill: rgb(255, 255, 255); fill-opacity: 1;"/><defs id="defs-fb15ec"><g class="clips"><clipPath id="clipfb15ecxyplot" class="plotclip"><rect width="537" height="320"/></clipPath><clipPath class="axesclip" id="clipfb15ecx"><rect x="80" y="0" width="537" height="500"/></clipPath><clipPath class="axesclip" id="clipfb15ecy"><rect x="0" y="100" width="700" height="320"/></clipPath><clipPath class="axesclip" id="clipfb15ecxy"><rect x="80" y="100" width="537" height="320"/></clipPath></g><g class="gradients"/></defs><g class="bglayer"><rect class="bg" x="80" y="100" width="537" height="320" style="fill: rgb(229, 236, 246); fill-opacity: 1; stroke-width: 0;"/></g><g class="layer-below"><g class="imagelayer"/><g class="shapelayer"/></g><g class="cartesianlayer"><g class="subplot xy"><g class="layer-subplot"><g class="shapelayer"/><g class="imagelayer"/></g><g class="gridlayer"><g class="x"><path class="xgrid crisp" transform="translate(90.09,0)" d="M0,100v320" style="stroke: rgb(255, 255, 255); stroke-opacity: 1; stroke-width: 1px;"/><path class="xgrid crisp" transform="translate(198.79000000000002,0)" d="M0,100v320" style="stroke: rgb(255, 255, 255); stroke-opacity: 1; stroke-width: 1px;"/><path class="xgrid crisp" transform="translate(307.48,0)" d="M0,100v320" style="stroke: rgb(255, 255, 255); stroke-opacity: 1; stroke-width: 1px;"/><path class="xgrid crisp" transform="translate(416.17,0)" d="M0,100v320" style="stroke: rgb(255, 255, 255); stroke-opacity: 1; stroke-width: 1px;"/><path class="xgrid crisp" transform="translate(524.86,0)" d="M0,100v320" style="stroke: rgb(255, 255, 255); stroke-opacity: 1; stroke-width: 1px;"/></g><g class="y"><path class="ygrid crisp" transform="translate(0,367.23)" d="M80,0h537" style="stroke: rgb(255, 255, 255); stroke-opacity: 1; stroke-width: 1px;"/><path class="ygrid crisp" transform="translate(0,308.43)" d="M80,0h537" style="stroke: rgb(255, 255, 255); stroke-opacity: 1; stroke-width: 1px;"/><path class="ygrid crisp" transform="translate(0,249.63)" d="M80,0h537" style="stroke: rgb(255, 255, 255); stroke-opacity: 1; stroke-width: 1px;"/><path class="ygrid crisp" transform="translate(0,190.82999999999998)" d="M80,0h537" style="stroke: rgb(255, 255, 255); stroke-opacity: 1; stroke-width: 1px;"/><path class="ygrid crisp" transform="translate(0,132.03)" d="M80,0h537" style="stroke: rgb(255, 255, 255); stroke-opacity: 1; stroke-width: 1px;"/></g></g><g class="zerolinelayer"/><path class="xlines-below"/><path class="ylines-below"/><g class="overlines-below"/><g class="xaxislayer-below"/><g class="yaxislayer-below"/><g class="overaxes-below"/><g class="plot" transform="translate(80,100)" clip-path="url('#clipfb15ecxyplot')"><g class="scatterlayer mlayer"><g class="trace scatter trace44cac2" style="stroke-miterlimit: 2; opacity: 1;"><g class="fills"/><g class="errorbars"/><g class="lines"><path class="js-line" d="M0,82.28L6.37,82.51L8.64,120.48L13.14,120.57L14.81,136.92L15.51,136.9L32.18,137.96L33.22,121.23L33.54,129.62L34.29,129.56L35.8,126.37L36.56,126.27L38.07,129.79L38.82,129.7L40.33,132.71L41.08,132.63L42.6,120.69L43.35,120.62L44.86,132.64L45.62,132.55L47.12,126.68L47.88,123.32L49.39,113.21L50.14,109.51L51.65,94.58L52.41,92.89L53.92,74.17L54.67,72.87L56.18,78.78L56.94,77.73L58.45,63.68L59.2,62.82L60.71,65.47L61.46,64.83L62.97,74.27L63.73,73.83L64.73,51.83L65.99,52.34L66.75,52.21L75.05,51.78L75.81,51.77L84.86,51.11L85.62,50.91L110.53,42.67L111.28,42.44L118.08,40.95L118.83,41.79L132.42,41.46L133.17,41.46L145.25,40.58L146,40.48L170.16,37.08L170.91,36.99L172.42,36.83L173.18,35.53L202.61,34L203.37,33.87L226.77,31.05L227.53,28.56L253.19,27.81L253.95,95.38L262.27,93.57L263.01,93.44L263.76,93.12L264.51,91.51L266.78,88.51L267.53,87.52L271.31,73.59L272.06,72.39L276.59,67.88L277.34,67.37L281.12,65.43L281.87,65.5L287.16,64.8L287.92,64.77L304.52,63.66L305.27,63.48L310.56,61.32L311.31,60.89L312.07,60.46L312.82,62.78L315.84,61.15L316.6,59.94L321.12,53.24L321.88,52.44L324.9,47.98L325.65,45.51L328.67,38.66L329.43,37.65L333.2,33.5L333.95,32.89L336.98,31.98L337.73,31.8L343.77,31.18L344.52,31.16L355.84,30.17L356.6,29.9L361.13,28.09L361.88,74.81L364.15,72.76L364.9,72.32L372.45,68.8L373.03,71.93L373.93,68.25L373.96,69.25L374.68,67.95L374.72,68.94L375.47,68.62L376.98,68.09L377.74,76.43L384.34,73.91L384.37,72.31L384.41,72.03L384.53,73.74L391.7,44.74L392.08,44.87L392.46,41.95L393.21,42.12L393.59,43.2L394.72,37.43L395.1,41.6L396.23,39.66L396.61,39.05L397.74,38.13L398.12,38.96L399.25,38.42L399.63,38.33L400.38,38.4L400.76,43.02L404.91,41.69L405.29,36.5L406.04,35.76L406.42,35.39L407.55,33.79L407.93,33.41L410.95,22.43L411.32,16L411.7,16.8L412.08,140.18L412.46,139.22L412.83,142.07L413.59,136.79L413.97,138.99L414.72,136.15L415.1,136.63L415.48,141.25L415.85,146.68L416.23,133.42L416.99,138.09L417.36,157.2L418.49,133.53L418.87,145.44L419.25,148.42L419.63,146.68L420,144.02L420.76,134.36L421.14,135.71L421.51,141.84L421.89,146.05L422.27,142.1L422.65,141.74L423.02,151.77L423.4,141.68L423.78,140.84L424.15,148.68L424.91,127.07L425.29,137.58L426.04,140.49L426.42,138.92L427.93,129.31L428.31,138.25L428.69,134.05L429.06,138.68L429.44,138.81L429.82,131.49L430.2,131.42L430.57,140.05L431.33,132.48L431.71,138.41L432.46,141.46L432.84,128.79L433.59,142.96L433.97,264.58L435.1,293.12L435.48,304L435.86,286.22L436.23,301.52L436.61,291.75L436.99,292.1L437.37,291.07L437.75,294.16L438.12,293.46L438.5,276.02L438.88,283.67L439.25,262.28L440.01,272.54L440.38,248.89L441.14,241.71L441.52,229.6L441.89,224.98L442.27,228.24L442.65,227.36L443.78,215.22L444.16,217.06L444.53,216.4L444.91,227.08L445.29,226.08L445.67,228.38L446.05,228.68L446.42,224.72L446.8,233.57L447.18,224.28L447.93,227.75L448.31,223.07L449.07,226.33L449.44,223.26L449.82,224.52L450.2,234.01L450.57,220.81L450.95,231.91L451.33,224.2L453.6,212.72L453.97,220.76L454.73,220.72L455.1,223.7L455.48,223.67L455.86,219.37L456.24,223.08L456.61,218.62L456.99,226.76L457.37,225.2L457.75,224.19L458.12,219.51L458.5,225.16L459.63,225.11L460.01,216.49L460.39,225.05L460.77,220.43L461.14,220.57L461.52,218.19L461.9,220.92L462.28,219.84L462.65,227.36L463.03,216.65L463.41,220.1L463.78,220.01L464.54,220.98L464.91,218.78L465.67,223.64L466.05,218.66L466.42,205.85L466.81,215.25L467.18,220.32L467.56,206.18L467.93,206.81L468.31,214.16L468.69,214.11L469.07,206.99L469.83,212.47L470.2,202.23L470.58,199.24L470.96,208.71L471.34,224.84L471.71,215.2L472.09,214.49L472.46,205.74L472.84,219.6L473.6,195.82L473.97,209.77L474.35,208.24L474.73,203.32L475.1,202.05L475.48,205.17L475.86,200.81L476.24,208.16L476.61,206.35L476.99,209.96L477.37,207.44L477.75,196.45L478.12,195.36L478.5,196.45L478.88,201.41L480.01,210.92L480.39,197.09L480.76,197.31L481.14,191.05L481.52,191.24L481.9,196.07L482.28,200.65L482.65,194.37L483.79,210.5L484.16,204.27L484.92,191.94L485.29,193.62L485.67,197L486.05,205.03L486.43,197.14L486.8,198.57L487.18,192.99L488.32,184.28L488.69,189.51L489.45,194.59L489.83,189.23L490.2,191.91L490.58,189.81L490.96,182.31L491.33,187.7L491.71,187L492.09,183.28L492.47,186.18L492.84,185.69L493.23,181.61L493.6,182.61L493.98,186.54L494.73,187.68L495.11,186.58L495.49,181.49L495.86,187.81L496.62,185.81L497,187.22L497.37,189.17L497.76,187L498.89,194.82L499.26,189.57L499.64,183.36L500.02,189.2L500.39,186.45L501.53,187.85L501.9,183.53L503.04,187.65L503.41,184.59L504.17,184.25L504.54,185.71L505.68,187.29L506.05,197.68L506.43,197.68L506.81,195.53L507.19,195.52L507.56,190.33L507.94,190.33L508.32,186.49L509.83,194.95L510.21,194.95L510.58,195.4L510.96,193.58L511.34,193.58L511.71,187.5L512.47,187.5L512.85,190.84L513.22,186.76L513.6,190.68L513.98,186.75L515.11,188.23L515.49,187.2L517.75,183.02L518.13,181.13L518.88,190.9L519.26,187.7L519.64,181.79L520.02,180.91L520.39,182.93L520.77,184.81L521.15,179.55L521.9,190.44L522.28,182.8L522.66,183.07L523.04,174.64L524.17,185.09L524.54,181.21L524.92,181.99L525.3,185.79L525.68,171.39L526.05,177.83L526.43,175.21L526.81,180.5L527.19,179.53L527.56,177.22L529.07,187.84L529.45,182.58L529.83,175.16L530.21,180.33L530.58,178.23L531.34,176.4L531.72,185.95L532.09,175.93L532.47,196.82L533.6,173.22L533.98,177.47L534.36,180.21L534.73,180.03L535.11,179.15L535.87,179.35L536.25,181.21L537,177.19" style="vector-effect: non-scaling-stroke; fill: none; stroke: rgb(99, 110, 250); stroke-opacity: 1; stroke-width: 2px; opacity: 1;"/></g><g class="points"/><g class="text"/></g></g></g><g class="overplot"/><path class="xlines-above crisp" d="M0,0" style="fill: none;"/><path class="ylines-above crisp" d="M0,0" style="fill: none;"/><g class="overlines-above"/><g class="xaxislayer-above"><g class="xtick"><text text-anchor="middle" x="0" y="433" transform="translate(90.09,0)" style="font-family: 'Open Sans', verdana, arial, sans-serif; font-size: 12px; fill: rgb(42, 63, 95); fill-opacity: 1; white-space: pre;"><tspan class="line" dy="0em" x="0" y="433">Jun 4</tspan><tspan class="line" dy="1.3em" x="0" y="433">2021</tspan></text></g><g class="xtick"><text text-anchor="middle" x="0" y="433" transform="translate(198.79000000000002,0)" style="font-family: 'Open Sans', verdana, arial, sans-serif; font-size: 12px; fill: rgb(42, 63, 95); fill-opacity: 1; white-space: pre;">Jun 6</text></g><g class="xtick"><text text-anchor="middle" x="0" y="433" transform="translate(307.48,0)" style="font-family: 'Open Sans', verdana, arial, sans-serif; font-size: 12px; fill: rgb(42, 63, 95); fill-opacity: 1; white-space: pre;">Jun 8</text></g><g class="xtick"><text text-anchor="middle" x="0" y="433" transform="translate(416.17,0)" style="font-family: 'Open Sans', verdana, arial, sans-serif; font-size: 12px; fill: rgb(42, 63, 95); fill-opacity: 1; white-space: pre;">Jun 10</text></g><g class="xtick"><text text-anchor="middle" x="0" y="433" transform="translate(524.86,0)" style="font-family: 'Open Sans', verdana, arial, sans-serif; font-size: 12px; fill: rgb(42, 63, 95); fill-opacity: 1; white-space: pre;">Jun 12</text></g></g><g class="yaxislayer-above"><g class="ytick"><text text-anchor="end" x="79" y="4.199999999999999" transform="translate(0,367.23)" style="font-family: 'Open Sans', verdana, arial, sans-serif; font-size: 12px; fill: rgb(42, 63, 95); fill-opacity: 1; white-space: pre;">0.8</text></g><g class="ytick"><text text-anchor="end" x="79" y="4.199999999999999" transform="translate(0,308.43)" style="font-family: 'Open Sans', verdana, arial, sans-serif; font-size: 12px; fill: rgb(42, 63, 95); fill-opacity: 1; white-space: pre;">0.82</text></g><g class="ytick"><text text-anchor="end" x="79" y="4.199999999999999" transform="translate(0,249.63)" style="font-family: 'Open Sans', verdana, arial, sans-serif; font-size: 12px; fill: rgb(42, 63, 95); fill-opacity: 1; white-space: pre;">0.84</text></g><g class="ytick"><text text-anchor="end" x="79" y="4.199999999999999" transform="translate(0,190.82999999999998)" style="font-family: 'Open Sans', verdana, arial, sans-serif; font-size: 12px; fill: rgb(42, 63, 95); fill-opacity: 1; white-space: pre;">0.86</text></g><g class="ytick"><text text-anchor="end" x="79" y="4.199999999999999" transform="translate(0,132.03)" style="font-family: 'Open Sans', verdana, arial, sans-serif; font-size: 12px; fill: rgb(42, 63, 95); fill-opacity: 1; white-space: pre;">0.88</text></g></g><g class="overaxes-above"/></g></g><g class="polarlayer"/><g class="ternarylayer"/><g class="geolayer"/><g class="funnelarealayer"/><g class="pielayer"/><g class="treemaplayer"/><g class="sunburstlayer"/><g class="glimages"/><defs id="topdefs-fb15ec"><g class="clips"/><clipPath id="legendfb15ec"><rect width="60" height="45" x="0" y="0"/></clipPath></defs><g class="layer-above"><g class="imagelayer"/><g class="shapelayer"/></g><g class="infolayer"><g class="legend" pointer-events="all" transform="translate(627.74,100)"><rect class="bg" shape-rendering="crispEdges" width="60" height="45" x="0" y="0" style="stroke: rgb(68, 68, 68); stroke-opacity: 1; fill: rgb(255, 255, 255); fill-opacity: 1; stroke-width: 0px;"/><g class="scrollbox" transform="" clip-path="url('#legendfb15ec')"><text class="legendtitletext" text-anchor="start" x="2" y="15.600000000000001" style="font-family: 'Open Sans', verdana, arial, sans-serif; font-size: 12px; fill: rgb(42, 63, 95); fill-opacity: 1; white-space: pre;">All</text><g class="groups" transform=""><g class="traces" transform="translate(0,30.1)" style="opacity: 1;"><text class="legendtext" text-anchor="start" x="40" y="4.680000000000001" style="font-family: 'Open Sans', verdana, arial, sans-serif; font-size: 12px; fill: rgb(42, 63, 95); fill-opacity: 1; white-space: pre;">All</text><g class="layers" style="opacity: 1;"><g class="legendfill"/><g class="legendlines"><path class="js-line" d="M5,0h30" style="fill: none; stroke: rgb(99, 110, 250); stroke-opacity: 1; stroke-width: 2px;"/></g><g class="legendsymbols"><g class="legendpoints"/></g></g><rect class="legendtoggle" x="0" y="-9.5" width="54.890625" height="19" style="fill: rgb(0, 0, 0); fill-opacity: 0;"/></g></g></g><rect class="scrollbar" rx="20" ry="3" width="0" height="0" x="0" y="0" style="fill: rgb(128, 139, 164); fill-opacity: 1;"/></g><g class="g-gtitle"><text class="gtitle" x="35" y="50" text-anchor="start" dy="0em" style="font-family: 'Open Sans', verdana, arial, sans-serif; font-size: 17px; fill: rgb(42, 63, 95); opacity: 1; font-weight: normal; white-space: pre;">Singapore Vaccination Centers</text></g><g class="g-xtitle"><text class="xtitle" x="348.5" y="476.409375" text-anchor="middle" style="font-family: 'Open Sans', verdana, arial, sans-serif; font-size: 14px; fill: rgb(42, 63, 95); opacity: 1; font-weight: normal; white-space: pre;">Time</text></g><g class="g-ytitle"><text class="ytitle" transform="rotate(-90,27.481250000000003,260)" x="27.481250000000003" y="260" text-anchor="middle" style="font-family: 'Open Sans', verdana, arial, sans-serif; font-size: 14px; fill: rgb(42, 63, 95); opacity: 1; font-weight: normal; white-space: pre;">Filled/%</text></g></g></svg>