<svg class="main-svg" xmlns="http://www.w3.org/2000/svg" xmlns:xlink="http://www.w3.org/1999/xlink" width="700" height="500" style="" viewBox="0 0 700 500"><rect x="0" y="0" width="700" height="500" style="fill: rgb(255, 255, 255); fill-opacity: 1;"/><defs id="defs-afbc03"><g class="clips"><clipPath id="clipafbc03xyplot" class="plotclip"><rect width="537" height="320"/></clipPath><clipPath class="axesclip" id="clipafbc03x"><rect x="80" y="0" width="537" height="500"/></clipPath><clipPath class="axesclip" id="clipafbc03y"><rect x="0" y="100" width="700" height="320"/></clipPath><clipPath class="axesclip" id="clipafbc03xy"><rect x="80" y="100" width="537" height="320"/></clipPath></g><g class="gradients"/></defs><g class="bglayer"><rect class="bg" x="80" y="100" width="537" height="320" style="fill: rgb(229, 236, 246); fill-opacity: 1; stroke-width: 0;"/></g><g class="layer-below"><g class="imagelayer"/><g class="shapelayer"/></g><g class="cartesianlayer"><g class="subplot xy"><g class="layer-subplot"><g class="shapelayer"/><g class="imagelayer"/></g><g class="gridlayer"><g class="x"><path class="xgrid crisp" transform="translate(85.54,0)" d="M0,100v320" style="stroke: rgb(255, 255, 255); stroke-opacity: 1; stroke-width: 1px;"/><path class="xgrid crisp" transform="translate(192.38,0)" d="M0,100v320" style="stroke: rgb(255, 255, 255); stroke-opacity: 1; stroke-width: 1px;"/><path class="xgrid crisp" transform="translate(299.22,0)" d="M0,100v320" style="stroke: rgb(255, 255, 255); stroke-opacity: 1; stroke-width: 1px;"/><path class="xgrid crisp" transform="translate(406.06,0)" d="M0,100v320" style="stroke: rgb(255, 255, 255); stroke-opacity: 1; stroke-width: 1px;"/><path class="xgrid crisp" transform="translate(512.9,0)" d="M0,100v320" style="stroke: rgb(255, 255, 255); stroke-opacity: 1; stroke-width: 1px;"/></g><g class="y"><path class="ygrid crisp" transform="translate(0,391.33)" d="M80,0h537" style="stroke: rgb(255, 255, 255); stroke-opacity: 1; stroke-width: 1px;"/><path class="ygrid crisp" transform="translate(0,343.98)" d="M80,0h537" style="stroke: rgb(255, 255, 255); stroke-opacity: 1; stroke-width: 1px;"/><path class="ygrid crisp" transform="translate(0,296.64)" d="M80,0h537" style="stroke: rgb(255, 255, 255); stroke-opacity: 1; stroke-width: 1px;"/><path class="ygrid crisp" transform="translate(0,249.3)" d="M80,0h537" style="stroke: rgb(255, 255, 255); stroke-opacity: 1; stroke-width: 1px;"/><path class="ygrid crisp" transform="translate(0,201.95999999999998)" d="M80,0h537" style="stroke: rgb(255, 255, 255); stroke-opacity: 1; stroke-width: 1px;"/><path class="ygrid crisp" transform="translate(0,154.61)" d="M80,0h537" style="stroke: rgb(255, 255, 255); stroke-opacity: 1; stroke-width: 1px;"/><path class="ygrid crisp" transform="translate(0,107.27)" d="M80,0h537" style="stroke: rgb(255, 255, 255); stroke-opacity: 1; stroke-width: 1px;"/></g></g><g class="zerolinelayer"/><path class="xlines-below"/><path class="ylines-below"/><g class="overlines-below"/><g class="xaxislayer-below"/><g class="yaxislayer-below"/><g class="overaxes-below"/><g class="plot" transform="translate(80,100)" clip-path="url('#clipafbc03xyplot')"><g class="scatterlayer mlayer"><g class="trace scatter trace3ebbc5" style="stroke-miterlimit: 2; opacity: 1;"><g class="fills"/><g class="errorbars"/><g class="lines"><path class="js-line" d="M0,304L4.28,302.44L5.76,243.96L7.25,245.39L8.73,243.53L14.66,242.81L16.15,242.38L19.12,243.24L20.6,242.24L22.12,242.95L23.57,242.67L29.5,241.67L30.99,241.95L33.96,241.09L35.44,241.09L38.41,241.09L39.89,241.09L44.35,240.81L45.83,240.66L50.27,240.52L51.76,240.66L56.22,239.95L57.7,239.52L60.67,239.66L62.15,238.95L65.11,238.8L66.59,238.09L68.09,238.66L69.57,238.23L71.05,237.23L72.53,237.51L74.02,238.23L75.51,236.51L79.95,235.51L81.43,236.08L82.92,235.65L84.41,236.66L85.89,235.65L87.38,233.36L90.34,233.94L91.82,232.93L97.76,230.79L99.25,229.78L102.2,231.22L103.7,229.93L105.17,227.64L106.66,228.21L108.14,229.35L109.63,227.64L112.6,225.06L114.08,224.63L117.05,222.77L118.54,223.34L121.5,222.05L122.99,222.34L124.47,224.06L125.95,221.62L130.41,222.77L131.89,222.34L134.86,218.19L136.34,217.76L137.83,218.62L139.31,217.19L140.79,217.33L142.27,219.19L143.76,218.9L145.25,217.19L151.18,212.32L152.66,209.31L154.15,210.03L155.63,208.45L157.12,207.31L158.6,208.17L161.57,208.45L163.05,209.6L169,207.17L170.47,207.02L173.44,206.31L174.93,205.16L176.41,204.73L177.89,205.31L179.38,206.59L180.85,206.59L183.83,204.16L185.31,203.87L189.76,203.02L191.25,202.44L192.73,201.58L194.21,202.01L201.64,201.73L203.12,202.01L206.08,200.44L207.57,198.72L209.05,197.43L210.54,197.43L212.02,196.57L213.51,197.58L217.96,197.72L219.44,125.02L223.89,122.71L225.38,123L228.35,122.42L229.83,121.41L232.8,121.55L234.28,121.55L240.21,120.83L241.69,120.69L246.15,120.11L247.63,120.25L260.98,120.25L262.48,120.4L272.86,120.11L274.34,119.39L278.79,119.39L280.28,118.23L286.2,118.38L287.7,117.8L290.66,117.94L292.14,117.22L295.12,116.5L296.6,117.22L301.05,113.9L302.53,113.9L304.02,115.06L305.5,114.62L308.47,113.18L309.95,113.9L314.4,111.59L315.89,109.72L317.37,111.59L318.85,110.73L323.3,108.27L324.8,109.28L327.76,107.55L329.24,108.85L330.73,110L332.21,108.99L333.7,110.15L335.18,109.57L336.66,108.56L338.14,109.72L339.63,108.99L341.11,109.43L344.08,110.58L345.56,110.15L348.55,108.85L350.05,107.55L351.52,105.96L353.01,105.67L355.98,106.4L357.46,106.97L358.94,104.81L360.42,104.52L364.88,103.8L366.37,101.92L370.82,103.08L372.3,102.5L375.27,98.6L376.75,100.33L378.24,100.33L379.72,99.03L381.2,100.04L382.68,99.47L385.66,97.45L387.14,97.59L391.59,94.13L393.07,94.27L396.05,91.67L397.53,92.54L400.49,90.23L401.98,90.81L406.43,90.08L407.91,87.2L409.4,87.05L410.87,85.9L412.37,84.31L413.85,84.6L415.33,84.89L416.81,86.19L418.31,86.91L419.78,86.19L421.28,88.35L422.75,87.49L424.24,87.34L425.72,85.61L427.2,85.18L428.69,85.75L431.66,86.04L433.14,35.36L436.1,33.32L437.59,33.03L440.55,32.3L442.04,31.29L446.49,30.7L447.97,30.41L453.91,28.96L455.4,27.94L458.37,27.65L459.85,28.23L464.3,26.92L465.79,27.06L483.58,25.61L485.07,25.9L491.01,24.88L492.49,25.17L493.97,24.59L495.46,24.88L496.94,25.32L498.42,24.73L499.91,24.88L501.39,24.15L504.37,24.59L505.83,23.72L514.74,22.99L517.71,22.41L519.2,20.95L522.16,20.51L525.13,20.08L526.61,18.18L528.1,19.49L529.59,18.18L532.55,18.18L534.03,17.46L535.52,17.31L537,16" style="vector-effect: non-scaling-stroke; fill: none; stroke: rgb(99, 110, 250); stroke-opacity: 1; stroke-width: 2px; opacity: 1;"/></g><g class="points"/><g class="text"/></g></g></g><g class="overplot"/><path class="xlines-above crisp" d="M0,0" style="fill: none;"/><path class="ylines-above crisp" d="M0,0" style="fill: none;"/><g class="overlines-above"/><g class="xaxislayer-above"><g class="xtick"><text text-anchor="middle" x="0" y="433" transform="translate(85.54,0)" style="font-family: 'Open Sans', verdana, arial, sans-serif; font-size: 12px; fill: rgb(42, 63, 95); fill-opacity: 1; white-space: pre;"><tspan class="line" dy="0em" x="0" y="433">00:00</tspan><tspan class="line" dy="1.3em" x="0" y="433">Aug 3, 2021</tspan></text></g><g class="xtick"><text text-anchor="middle" x="0" y="433" transform="translate(192.38,0)" style="font-family: 'Open Sans', verdana, arial, sans-serif; font-size: 12px; fill: rgb(42, 63, 95); fill-opacity: 1; white-space: pre;">12:00</text></g><g class="xtick"><text text-anchor="middle" x="0" y="433" transform="translate(299.22,0)" style="font-family: 'Open Sans', verdana, arial, sans-serif; font-size: 12px; fill: rgb(42, 63, 95); fill-opacity: 1; white-space: pre;"><tspan class="line" dy="0em" x="0" y="433">00:00</tspan><tspan class="line" dy="1.3em" x="0" y="433">Aug 4, 2021</tspan></text></g><g class="xtick"><text text-anchor="middle" x="0" y="433" transform="translate(406.06,0)" style="font-family: 'Open Sans', verdana, arial, sans-serif; font-size: 12px; fill: rgb(42, 63, 95); fill-opacity: 1; white-space: pre;">12:00</text></g><g class="xtick"><text text-anchor="middle" x="0" y="433" transform="translate(512.9,0)" style="font-family: 'Open Sans', verdana, arial, sans-serif; font-size: 12px; fill: rgb(42, 63, 95); fill-opacity: 1; white-space: pre;"><tspan class="line" dy="0em" x="0" y="433">00:00</tspan><tspan class="line" dy="1.3em" x="0" y="433">Aug 5, 2021</tspan></text></g></g><g class="yaxislayer-above"><g class="ytick"><text text-anchor="end" x="79" y="4.199999999999999" transform="translate(0,391.33)" style="font-family: 'Open Sans', verdana, arial, sans-serif; font-size: 12px; fill: rgb(42, 63, 95); fill-opacity: 1; white-space: pre;">0.864</text></g><g class="ytick"><text text-anchor="end" x="79" y="4.199999999999999" transform="translate(0,343.98)" style="font-family: 'Open Sans', verdana, arial, sans-serif; font-size: 12px; fill: rgb(42, 63, 95); fill-opacity: 1; white-space: pre;">0.865</text></g><g class="ytick"><text text-anchor="end" x="79" y="4.199999999999999" transform="translate(0,296.64)" style="font-family: 'Open Sans', verdana, arial, sans-serif; font-size: 12px; fill: rgb(42, 63, 95); fill-opacity: 1; white-space: pre;">0.866</text></g><g class="ytick"><text text-anchor="end" x="79" y="4.199999999999999" transform="translate(0,249.3)" style="font-family: 'Open Sans', verdana, arial, sans-serif; font-size: 12px; fill: rgb(42, 63, 95); fill-opacity: 1; white-space: pre;">0.867</text></g><g class="ytick"><text text-anchor="end" x="79" y="4.199999999999999" transform="translate(0,201.95999999999998)" style="font-family: 'Open Sans', verdana, arial, sans-serif; font-size: 12px; fill: rgb(42, 63, 95); fill-opacity: 1; white-space: pre;">0.868</text></g><g class="ytick"><text text-anchor="end" x="79" y="4.199999999999999" transform="translate(0,154.61)" style="font-family: 'Open Sans', verdana, arial, sans-serif; font-size: 12px; fill: rgb(42, 63, 95); fill-opacity: 1; white-space: pre;">0.869</text></g><g class="ytick"><text text-anchor="end" x="79" y="4.199999999999999" transform="translate(0,107.27)" style="font-family: 'Open Sans', verdana, arial, sans-serif; font-size: 12px; fill: rgb(42, 63, 95); fill-opacity: 1; white-space: pre;">0.87</text></g></g><g class="overaxes-above"/></g></g><g class="polarlayer"/><g class="ternarylayer"/><g class="geolayer"/><g class="funnelarealayer"/><g class="pielayer"/><g class="treemaplayer"/><g class="sunburstlayer"/><g class="glimages"/><defs id="topdefs-afbc03"><g class="clips"/><clipPath id="legendafbc03"><rect width="60" height="45" x="0" y="0"/></clipPath></defs><g class="layer-above"><g class="imagelayer"/><g class="shapelayer"/></g><g class="infolayer"><g class="legend" pointer-events="all" transform="translate(627.74,100)"><rect class="bg" shape-rendering="crispEdges" width="60" height="45" x="0" y="0" style="stroke: rgb(68, 68, 68); stroke-opacity: 1; fill: rgb(255, 255, 255); fill-opacity: 1; stroke-width: 0px;"/><g class="scrollbox" transform="" clip-path="url('#legendafbc03')"><text class="legendtitletext" text-anchor="start" x="2" y="15.600000000000001" style="font-family: 'Open Sans', verdana, arial, sans-serif; font-size: 12px; fill: rgb(42, 63, 95); fill-opacity: 1; white-space: pre;">All</text><g class="groups" transform=""><g class="traces" transform="translate(0,30.1)" style="opacity: 1;"><text class="legendtext" text-anchor="start" x="40" y="4.680000000000001" style="font-family: 'Open Sans', verdana, arial, sans-serif; font-size: 12px; fill: rgb(42, 63, 95); fill-opacity: 1; white-space: pre;">All</text><g class="layers" style="opacity: 1;"><g class="legendfill"/><g class="legendlines"><path class="js-line" d="M5,0h30" style="fill: none; stroke: rgb(99, 110, 250); stroke-opacity: 1; stroke-width: 2px;"/></g><g class="legendsymbols"><g class="legendpoints"/></g></g><rect class="legendtoggle" x="0" y="-9.5" width="54.890625" height="19" style="fill: rgb(0, 0, 0); fill-opacity: 0;"/></g></g></g><rect class="scrollbar" rx="20" ry="3" width="0" height="0" x="0" y="0" style="fill: rgb(128, 139, 164); fill-opacity: 1;"/></g><g class="g-gtitle"><text class="gtitle" x="35" y="50" text-anchor="start" dy="0em" style="font-family: 'Open Sans', verdana, arial, sans-serif; font-size: 17px; fill: rgb(42, 63, 95); opacity: 1; font-weight: normal; white-space: pre;">Singapore Vaccination Centers</text></g><g class="g-xtitle"><text class="xtitle" x="348.5" y="476.409375" text-anchor="middle" style="font-family: 'Open Sans', verdana, arial, sans-serif; font-size: 14px; fill: rgb(42, 63, 95); opacity: 1; font-weight: normal; white-space: pre;">Time</text></g><g class="g-ytitle"><text class="ytitle" transform="rotate(-90,19.840625000000003,260)" x="19.840625000000003" y="260" text-anchor="middle" style="font-family: 'Open Sans', verdana, arial, sans-serif; font-size: 14px; fill: rgb(42, 63, 95); opacity: 1; font-weight: normal; white-space: pre;">Filled/%</text></g></g></svg>