<svg class="main-svg" xmlns="http://www.w3.org/2000/svg" xmlns:xlink="http://www.w3.org/1999/xlink" width="700" height="500" style="" viewBox="0 0 700 500"><rect x="0" y="0" width="700" height="500" style="fill: rgb(255, 255, 255); fill-opacity: 1;"/><defs id="defs-64466e"><g class="clips"><clipPath id="clip64466exyplot" class="plotclip"><rect width="537" height="320"/></clipPath><clipPath class="axesclip" id="clip64466ex"><rect x="80" y="0" width="537" height="500"/></clipPath><clipPath class="axesclip" id="clip64466ey"><rect x="0" y="100" width="700" height="320"/></clipPath><clipPath class="axesclip" id="clip64466exy"><rect x="80" y="100" width="537" height="320"/></clipPath></g><g class="gradients"/></defs><g class="bglayer"><rect class="bg" x="80" y="100" width="537" height="320" style="fill: rgb(229, 236, 246); fill-opacity: 1; stroke-width: 0;"/></g><g class="layer-below"><g class="imagelayer"/><g class="shapelayer"/></g><g class="cartesianlayer"><g class="subplot xy"><g class="layer-subplot"><g class="shapelayer"/><g class="imagelayer"/></g><g class="gridlayer"><g class="x"><path class="xgrid crisp" transform="translate(82.54,0)" d="M0,100v320" style="stroke: rgb(255, 255, 255); stroke-opacity: 1; stroke-width: 1px;"/><path class="xgrid crisp" transform="translate(180.44,0)" d="M0,100v320" style="stroke: rgb(255, 255, 255); stroke-opacity: 1; stroke-width: 1px;"/><path class="xgrid crisp" transform="translate(278.34000000000003,0)" d="M0,100v320" style="stroke: rgb(255, 255, 255); stroke-opacity: 1; stroke-width: 1px;"/><path class="xgrid crisp" transform="translate(376.23,0)" d="M0,100v320" style="stroke: rgb(255, 255, 255); stroke-opacity: 1; stroke-width: 1px;"/><path class="xgrid crisp" transform="translate(474.13,0)" d="M0,100v320" style="stroke: rgb(255, 255, 255); stroke-opacity: 1; stroke-width: 1px;"/><path class="xgrid crisp" transform="translate(572.03,0)" d="M0,100v320" style="stroke: rgb(255, 255, 255); stroke-opacity: 1; stroke-width: 1px;"/></g><g class="y"><path class="ygrid crisp" transform="translate(0,392.55)" d="M80,0h537" style="stroke: rgb(255, 255, 255); stroke-opacity: 1; stroke-width: 1px;"/><path class="ygrid crisp" transform="translate(0,349.77)" d="M80,0h537" style="stroke: rgb(255, 255, 255); stroke-opacity: 1; stroke-width: 1px;"/><path class="ygrid crisp" transform="translate(0,306.99)" d="M80,0h537" style="stroke: rgb(255, 255, 255); stroke-opacity: 1; stroke-width: 1px;"/><path class="ygrid crisp" transform="translate(0,264.21000000000004)" d="M80,0h537" style="stroke: rgb(255, 255, 255); stroke-opacity: 1; stroke-width: 1px;"/><path class="ygrid crisp" transform="translate(0,221.43)" d="M80,0h537" style="stroke: rgb(255, 255, 255); stroke-opacity: 1; stroke-width: 1px;"/><path class="ygrid crisp" transform="translate(0,178.65)" d="M80,0h537" style="stroke: rgb(255, 255, 255); stroke-opacity: 1; stroke-width: 1px;"/><path class="ygrid crisp" transform="translate(0,135.87)" d="M80,0h537" style="stroke: rgb(255, 255, 255); stroke-opacity: 1; stroke-width: 1px;"/></g></g><g class="zerolinelayer"/><path class="xlines-below"/><path class="ylines-below"/><g class="overlines-below"/><g class="xaxislayer-below"/><g class="yaxislayer-below"/><g class="overaxes-below"/><g class="plot" transform="translate(80,100)" clip-path="url('#clip64466exyplot')"><g class="scatterlayer mlayer"><g class="trace scatter trace7c2d73" style="stroke-miterlimit: 2; opacity: 1;"><g class="fills"/><g class="errorbars"/><g class="lines"><path class="js-line" d="M0,304L1.96,302.59L2.64,249.74L3.32,251.04L4,249.35L6.72,248.71L7.4,248.32L8.76,249.1L9.44,248.19L10.8,248.58L11.48,248.19L12.84,247.93L13.52,247.67L14.88,247.41L15.56,247.16L21,246.77L21.67,246.51L25.76,246.12L26.43,245.73L27.8,245.86L28.47,245.22L29.83,245.09L30.51,244.44L31.87,244.57L32.55,243.66L33.91,244.57L34.59,243.02L36.63,242.11L37.31,242.63L37.99,242.24L38.67,243.15L40.03,240.17L40.71,240.69L41.39,240.69L42.07,239.78L45.47,236.94L46.15,237.97L46.82,238.23L47.51,237.07L48.19,235L48.87,235.51L49.55,236.55L50.22,235L51.59,232.67L52.27,232.28L53.63,230.6L54.31,231.12L55.66,229.95L56.35,230.21L57.03,231.76L57.7,229.56L59.75,230.6L60.43,230.21L62.47,226.07L63.15,226.85L64.5,225.68L65.18,227.36L65.86,227.11L66.54,225.55L69.26,221.16L69.94,218.44L70.62,219.09L71.3,217.66L71.98,216.63L72.66,217.4L74.02,217.66L74.7,218.7L77.43,216.5L78.1,216.37L79.46,215.72L80.14,214.69L80.82,214.3L81.5,214.82L82.86,215.98L83.54,214.43L85.58,213.39L86.26,212.88L87.62,212.23L88.3,211.45L90.34,212.23L91.02,211.84L92.38,211.58L93.06,211.84L94.42,210.42L95.1,208.87L96.46,207.7L97.14,206.93L98.5,207.96L99.18,207.44L99.86,207.96L100.54,142.27L102.58,140.18L103.26,140.44L104.62,139.92L105.3,139.01L106.66,139.14L107.34,139.14L110.05,138.48L110.73,138.35L112.77,137.83L113.45,137.96L119.57,137.96L120.25,138.09L125.01,137.83L125.69,137.18L127.73,137.18L128.41,136.14L131.12,136.27L131.81,135.74L133.17,135.88L133.84,135.22L135.21,134.57L135.89,135.22L138.6,132.22L139.29,133.27L141.33,131.57L142.01,132.22L144.72,128.44L145.4,130.14L148.12,127.14L148.81,128.05L150.16,126.48L150.84,127.66L151.52,128.7L152.2,127.79L152.88,128.83L153.56,128.31L154.24,127.4L154.92,128.44L155.6,127.79L156.28,128.18L158.32,128.83L159,128.44L161.73,124.79L162.41,124.92L163.77,125.96L164.45,124.01L167.17,123.09L167.85,121.4L170.57,121.92L171.25,120.61L171.93,118.4L172.61,119.96L173.29,119.96L173.97,118.79L174.65,119.7L175.33,119.18L176.69,117.35L177.37,117.48L179.41,114.35L180.09,114.48L181.45,112.14L182.13,112.92L183.49,110.83L184.17,111.35L186.2,110.7L186.88,108.09L187.56,107.96L188.24,106.92L189.6,105.74L190.29,106L191.65,107.83L192.32,107.18L193.01,109.13L193.68,108.35L194.36,108.22L195.04,106.66L195.72,106.27L196.4,106.79L197.76,107.05L198.44,61.25L200.48,59.15L201.16,58.88L205.24,56.78L205.92,56.52L208.64,54.54L209.32,54.28L211.36,54.41L212.04,53.75L215.44,53.62L216.12,53.75L226.99,51.78L227.67,52.18L229.71,51.12L230.39,51.25L231.08,51.52L231.75,50.73L235.83,50.07L237.19,49.54L237.87,48.23L239.23,47.83L240.59,47.44L241.27,45.73L241.95,46.91L242.63,45.73L243.99,45.73L244.67,45.07L245.35,44.94L246.03,43.76L248.07,43.49L248.75,41.91L250.1,40.2L250.79,39.42L251.45,38.1L252.12,38.76L254.16,37.71L254.84,36L257.56,35.34L258.24,33.36L258.92,32.71L259.6,33.23L260.96,32.44L261.64,32.05L262.32,31.92L263,30.86L264.36,30.86L265.04,31.39L266.4,32.97L267.08,31.13L268.44,32.31L269.13,30.34L270.48,30.47L271.16,30.86L273.2,29.02L273.88,29.42L275.24,27.71L275.92,26.66L276.6,24.16L277.28,24.68L277.96,23.24L278.64,24.68L280,22.84L280.68,22.58L281.36,21.26L282.03,21.66L283.4,21.79L284.07,20.74L284.76,21.26L285.44,19.68L286.8,19.55L287.48,18.5L290.19,18.89L290.87,17.97L292.24,17.84L292.92,17.97L294.28,16L294.95,16.66L295.64,16.39L296.32,171.81L299.71,171.4L300.4,172.08L302.43,170.99L303.11,170.99L304.48,169.76L305.15,169.76L306.51,168.94L307.19,169.08L318.75,168.39L319.43,167.98L328.26,165.8L328.95,165.12L332.34,164.02L333.03,162.66L335.77,162.38L336.45,163.61L337.81,161.7L338.49,161.57L339.17,160.88L339.85,158.43L340.52,156.51L341.2,156.79L341.89,156.1L342.56,154.33L343.25,154.88L344.61,154.47L345.29,154.33L347.32,152.69L348.01,153.65L350.04,150.92L350.72,151.87L352.76,149.14L353.44,149.14L354.12,148.32L354.8,149.41L356.16,150.37L356.84,149.41L357.52,149.55L358.2,148.73L360.92,145.18L361.6,144.5L363.64,143.54L364.32,145.04L368.4,141.9L369.08,143.68L370.44,121.97L371.12,121.56L372.48,120.88L373.16,116.1L373.84,116.24L374.52,112.28L375.2,112.55L375.88,109.96L376.56,106.95L377.24,107.91L379.28,101.22L379.96,98.08L381.32,97.53L382,95.35L382.68,94.8L383.36,92.07L384.72,89.34L385.4,89.34L387.43,85.65L388.12,84.7L389.48,82.78L390.16,80.19L393.56,75L394.24,88.44L397.64,84.03L398.32,84.45L399,84.31L399.67,85.14L401.04,84.72L401.72,85.41L403.08,84.59L403.75,84.45L405.11,84.03L405.79,84.03L407.15,84.17L407.83,83.62L412.59,84.03L413.27,83.62L417.35,83.21L418.03,83.48L420.75,83.48L421.43,83.35L422.79,83.35L423.47,83.35L425.51,83.35L426.19,83.9L429.58,79.9L430.26,80.18L432.31,78.8L432.98,78.94L433.67,78.53L434.34,76.87L435.7,77.15L436.38,75.63L439.78,72.47L440.46,72.88L442.5,69.44L443.18,69.02L445.22,66.41L445.9,66.41L447.26,63.79L447.94,63.79L449.3,61.86L449.98,59.66L452.7,54.43L453.38,54.01L454.06,53.6L454.74,51.4L457.46,49.47L458.14,47.82L462.22,46.85L462.9,45.75L463.58,46.16L464.26,45.48L464.94,45.89L470.38,41.21L473.78,38.59L474.46,39.28L477.18,35.97L477.86,35.84L478.54,34.46L479.22,35.01L480.57,33.91L481.26,34.18L481.94,35.28L482.61,34.32L485.34,32.94L486.02,33.91L488.73,33.22L489.41,32.12L491.45,29.78L492.13,81.26L493.49,81.68L494.17,80.56L494.85,79.86L495.53,80.42L497.57,80.42L498.25,81.4L500.29,81.12L500.97,81.12L504.37,81.4L505.05,81.12L507.77,79.86L508.45,80.28L515.25,79.58L515.93,79.58L523.4,79.3L524.08,79.16L527.48,78.74L528.16,78.31L529.52,77.75L530.2,76.77L531.56,76.35L532.24,74.95L532.92,73.55L533.6,74.95L536.32,73.97L537,73.97" style="vector-effect: non-scaling-stroke; fill: none; stroke: rgb(99, 110, 250); stroke-opacity: 1; stroke-width: 2px; opacity: 1;"/></g><g class="points"/><g class="text"/></g></g></g><g class="overplot"/><path class="xlines-above crisp" d="M0,0" style="fill: none;"/><path class="ylines-above crisp" d="M0,0" style="fill: none;"/><g class="overlines-above"/><g class="xaxislayer-above"><g class="xtick"><text text-anchor="middle" x="0" y="433" transform="translate(82.54,0)" style="font-family: 'Open Sans', verdana, arial, sans-serif; font-size: 12px; fill: rgb(42, 63, 95); fill-opacity: 1; white-space: pre;"><tspan class="line" dy="0em" x="0" y="433">Aug 3</tspan><tspan class="line" dy="1.3em" x="0" y="433">2021</tspan></text></g><g class="xtick"><text text-anchor="middle" x="0" y="433" transform="translate(180.44,0)" style="font-family: 'Open Sans', verdana, arial, sans-serif; font-size: 12px; fill: rgb(42, 63, 95); fill-opacity: 1; white-space: pre;">Aug 4</text></g><g class="xtick"><text text-anchor="middle" x="0" y="433" transform="translate(278.34000000000003,0)" style="font-family: 'Open Sans', verdana, arial, sans-serif; font-size: 12px; fill: rgb(42, 63, 95); fill-opacity: 1; white-space: pre;">Aug 5</text></g><g class="xtick"><text text-anchor="middle" x="0" y="433" transform="translate(376.23,0)" style="font-family: 'Open Sans', verdana, arial, sans-serif; font-size: 12px; fill: rgb(42, 63, 95); fill-opacity: 1; white-space: pre;">Aug 6</text></g><g class="xtick"><text text-anchor="middle" x="0" y="433" transform="translate(474.13,0)" style="font-family: 'Open Sans', verdana, arial, sans-serif; font-size: 12px; fill: rgb(42, 63, 95); fill-opacity: 1; white-space: pre;">Aug 7</text></g><g class="xtick"><text text-anchor="middle" x="0" y="433" transform="translate(572.03,0)" style="font-family: 'Open Sans', verdana, arial, sans-serif; font-size: 12px; fill: rgb(42, 63, 95); fill-opacity: 1; white-space: pre;">Aug 8</text></g></g><g class="yaxislayer-above"><g class="ytick"><text text-anchor="end" x="79" y="4.199999999999999" transform="translate(0,392.55)" style="font-family: 'Open Sans', verdana, arial, sans-serif; font-size: 12px; fill: rgb(42, 63, 95); fill-opacity: 1; white-space: pre;">0.864</text></g><g class="ytick"><text text-anchor="end" x="79" y="4.199999999999999" transform="translate(0,349.77)" style="font-family: 'Open Sans', verdana, arial, sans-serif; font-size: 12px; fill: rgb(42, 63, 95); fill-opacity: 1; white-space: pre;">0.865</text></g><g class="ytick"><text text-anchor="end" x="79" y="4.199999999999999" transform="translate(0,306.99)" style="font-family: 'Open Sans', verdana, arial, sans-serif; font-size: 12px; fill: rgb(42, 63, 95); fill-opacity: 1; white-space: pre;">0.866</text></g><g class="ytick"><text text-anchor="end" x="79" y="4.199999999999999" transform="translate(0,264.21000000000004)" style="font-family: 'Open Sans', verdana, arial, sans-serif; font-size: 12px; fill: rgb(42, 63, 95); fill-opacity: 1; white-space: pre;">0.867</text></g><g class="ytick"><text text-anchor="end" x="79" y="4.199999999999999" transform="translate(0,221.43)" style="font-family: 'Open Sans', verdana, arial, sans-serif; font-size: 12px; fill: rgb(42, 63, 95); fill-opacity: 1; white-space: pre;">0.868</text></g><g class="ytick"><text text-anchor="end" x="79" y="4.199999999999999" transform="translate(0,178.65)" style="font-family: 'Open Sans', verdana, arial, sans-serif; font-size: 12px; fill: rgb(42, 63, 95); fill-opacity: 1; white-space: pre;">0.869</text></g><g class="ytick"><text text-anchor="end" x="79" y="4.199999999999999" transform="translate(0,135.87)" style="font-family: 'Open Sans', verdana, arial, sans-serif; font-size: 12px; fill: rgb(42, 63, 95); fill-opacity: 1; white-space: pre;">0.87</text></g></g><g class="overaxes-above"/></g></g><g class="polarlayer"/><g class="ternarylayer"/><g class="geolayer"/><g class="funnelarealayer"/><g class="pielayer"/><g class="treemaplayer"/><g class="sunburstlayer"/><g class="glimages"/><defs id="topdefs-64466e"><g class="clips"/><clipPath id="legend64466e"><rect width="60" height="45" x="0" y="0"/></clipPath></defs><g class="layer-above"><g class="imagelayer"/><g class="shapelayer"/></g><g class="infolayer"><g class="legend" pointer-events="all" transform="translate(627.74,100)"><rect class="bg" shape-rendering="crispEdges" width="60" height="45" x="0" y="0" style="stroke: rgb(68, 68, 68); stroke-opacity: 1; fill: rgb(255, 255, 255); fill-opacity: 1; stroke-width: 0px;"/><g class="scrollbox" transform="" clip-path="url('#legend64466e')"><text class="legendtitletext" text-anchor="start" x="2" y="15.600000000000001" style="font-family: 'Open Sans', verdana, arial, sans-serif; font-size: 12px; fill: rgb(42, 63, 95); fill-opacity: 1; white-space: pre;">All</text><g class="groups" transform=""><g class="traces" transform="translate(0,30.1)" style="opacity: 1;"><text class="legendtext" text-anchor="start" x="40" y="4.680000000000001" style="font-family: 'Open Sans', verdana, arial, sans-serif; font-size: 12px; fill: rgb(42, 63, 95); fill-opacity: 1; white-space: pre;">All</text><g class="layers" style="opacity: 1;"><g class="legendfill"/><g class="legendlines"><path class="js-line" d="M5,0h30" style="fill: none; stroke: rgb(99, 110, 250); stroke-opacity: 1; stroke-width: 2px;"/></g><g class="legendsymbols"><g class="legendpoints"/></g></g><rect class="legendtoggle" x="0" y="-9.5" width="54.890625" height="19" style="fill: rgb(0, 0, 0); fill-opacity: 0;"/></g></g></g><rect class="scrollbar" rx="20" ry="3" width="0" height="0" x="0" y="0" style="fill: rgb(128, 139, 164); fill-opacity: 1;"/></g><g class="g-gtitle"><text class="gtitle" x="35" y="50" text-anchor="start" dy="0em" style="font-family: 'Open Sans', verdana, arial, sans-serif; font-size: 17px; fill: rgb(42, 63, 95); opacity: 1; font-weight: normal; white-space: pre;">Singapore Vaccination Centers</text></g><g class="g-xtitle"><text class="xtitle" x="348.5" y="476.409375" text-anchor="middle" style="font-family: 'Open Sans', verdana, arial, sans-serif; font-size: 14px; fill: rgb(42, 63, 95); opacity: 1; font-weight: normal; white-space: pre;">Time</text></g><g class="g-ytitle"><text class="ytitle" transform="rotate(-90,19.840625000000003,260)" x="19.840625000000003" y="260" text-anchor="middle" style="font-family: 'Open Sans', verdana, arial, sans-serif; font-size: 14px; fill: rgb(42, 63, 95); opacity: 1; font-weight: normal; white-space: pre;">Filled/%</text></g></g></svg>