<svg class="main-svg" xmlns="http://www.w3.org/2000/svg" xmlns:xlink="http://www.w3.org/1999/xlink" width="700" height="500" style="" viewBox="0 0 700 500"><rect x="0" y="0" width="700" height="500" style="fill: rgb(255, 255, 255); fill-opacity: 1;"/><defs id="defs-bcd6ea"><g class="clips"><clipPath id="clipbcd6eaxyplot" class="plotclip"><rect width="537" height="320"/></clipPath><clipPath class="axesclip" id="clipbcd6eax"><rect x="80" y="0" width="537" height="500"/></clipPath><clipPath class="axesclip" id="clipbcd6eay"><rect x="0" y="100" width="700" height="320"/></clipPath><clipPath class="axesclip" id="clipbcd6eaxy"><rect x="80" y="100" width="537" height="320"/></clipPath></g><g class="gradients"/></defs><g class="bglayer"><rect class="bg" x="80" y="100" width="537" height="320" style="fill: rgb(229, 236, 246); fill-opacity: 1; stroke-width: 0;"/></g><g class="layer-below"><g class="imagelayer"/><g class="shapelayer"/></g><g class="cartesianlayer"><g class="subplot xy"><g class="layer-subplot"><g class="shapelayer"/><g class="imagelayer"/></g><g class="gridlayer"><g class="x"><path class="xgrid crisp" transform="translate(90.59,0)" d="M0,100v320" style="stroke: rgb(255, 255, 255); stroke-opacity: 1; stroke-width: 1px;"/><path class="xgrid crisp" transform="translate(204.66,0)" d="M0,100v320" style="stroke: rgb(255, 255, 255); stroke-opacity: 1; stroke-width: 1px;"/><path class="xgrid crisp" transform="translate(318.72,0)" d="M0,100v320" style="stroke: rgb(255, 255, 255); stroke-opacity: 1; stroke-width: 1px;"/><path class="xgrid crisp" transform="translate(432.78,0)" d="M0,100v320" style="stroke: rgb(255, 255, 255); stroke-opacity: 1; stroke-width: 1px;"/><path class="xgrid crisp" transform="translate(546.85,0)" d="M0,100v320" style="stroke: rgb(255, 255, 255); stroke-opacity: 1; stroke-width: 1px;"/></g><g class="y"><path class="ygrid crisp" transform="translate(0,367.23)" d="M80,0h537" style="stroke: rgb(255, 255, 255); stroke-opacity: 1; stroke-width: 1px;"/><path class="ygrid crisp" transform="translate(0,308.43)" d="M80,0h537" style="stroke: rgb(255, 255, 255); stroke-opacity: 1; stroke-width: 1px;"/><path class="ygrid crisp" transform="translate(0,249.63)" d="M80,0h537" style="stroke: rgb(255, 255, 255); stroke-opacity: 1; stroke-width: 1px;"/><path class="ygrid crisp" transform="translate(0,190.82999999999998)" d="M80,0h537" style="stroke: rgb(255, 255, 255); stroke-opacity: 1; stroke-width: 1px;"/><path class="ygrid crisp" transform="translate(0,132.03)" d="M80,0h537" style="stroke: rgb(255, 255, 255); stroke-opacity: 1; stroke-width: 1px;"/></g></g><g class="zerolinelayer"/><path class="xlines-below"/><path class="ylines-below"/><g class="overlines-below"/><g class="xaxislayer-below"/><g class="yaxislayer-below"/><g class="overaxes-below"/><g class="plot" transform="translate(80,100)" clip-path="url('#clipbcd6eaxyplot')"><g class="scatterlayer mlayer"><g class="trace scatter trace232c0a" style="stroke-miterlimit: 2; opacity: 1;"><g class="fills"/><g class="errorbars"/><g class="lines"><path class="js-line" d="M0,82.28L6.69,82.51L9.06,120.48L13.79,120.57L15.54,136.92L16.28,136.9L33.78,137.96L34.86,121.23L35.2,129.62L35.99,129.56L37.57,126.37L38.37,126.27L39.95,129.79L40.74,129.7L42.32,132.71L43.11,132.63L44.7,120.69L45.49,120.62L47.08,132.64L47.87,132.55L49.45,126.68L50.24,123.32L51.83,113.21L52.62,109.51L54.21,94.58L55,92.89L56.58,74.17L57.37,72.87L58.96,78.78L59.75,77.73L61.33,63.68L62.13,62.82L63.71,65.47L64.5,64.83L66.09,74.27L66.88,73.83L67.92,51.83L69.25,52.34L70.05,52.21L78.76,51.78L79.55,51.77L89.06,51.11L89.85,50.91L115.99,42.67L116.78,42.44L123.91,40.95L124.7,41.79L138.96,41.46L139.75,41.46L152.43,40.58L153.22,40.48L177.77,37.17L178.56,37.08L180.94,36.83L181.73,35.53L212.63,34L213.42,33.87L237.98,31.05L238.77,28.56L265.7,27.81L266.49,95.38L275.23,93.57L276,93.44L276.79,93.12L277.58,91.51L279.96,88.51L280.75,87.52L284.71,73.59L285.5,72.39L290.26,67.88L291.05,67.37L295.01,65.43L295.8,65.5L301.35,64.8L302.14,64.77L319.57,63.66L320.36,63.48L325.9,61.32L326.69,60.89L327.49,60.46L328.28,62.78L331.45,61.15L332.24,59.94L336.99,53.24L337.78,52.44L340.95,47.98L341.74,45.51L344.91,38.66L345.7,37.65L350.46,32.89L351.28,32.47L353.63,31.98L354.42,31.8L360.75,31.18L361.55,31.16L373.43,30.17L374.22,29.9L378.97,28.09L379.76,74.81L381.35,73.22L382.14,72.76L390.86,68.8L391.46,71.93L392.4,68.25L392.44,69.25L393.2,67.95L393.23,68.94L394.02,68.62L395.61,68.09L396.4,76.43L403.34,73.91L403.37,72.31L403.41,72.03L403.53,73.74L411.05,44.74L411.45,44.87L411.85,41.95L412.64,42.12L413.03,43.2L414.22,37.43L414.62,41.6L415.81,39.66L416.2,39.05L417.39,38.13L417.79,38.96L418.19,38.26L418.58,38.53L418.98,38.42L420.17,38.4L420.56,43.02L424.92,41.69L425.31,36.5L426.1,35.76L426.5,35.39L427.69,33.79L428.08,33.41L431.25,22.43L431.65,16L432.04,16.8L432.44,140.18L432.84,139.22L433.23,142.07L434.02,136.79L434.42,138.99L435.22,136.15L435.61,136.63L436.01,141.25L436.4,146.68L436.8,133.42L437.59,138.09L437.99,157.2L439.17,133.53L439.57,145.44L439.97,148.42L440.36,146.68L440.76,144.02L441.55,134.36L441.95,135.71L442.34,141.84L442.74,146.05L443.13,142.1L443.53,141.74L443.92,151.77L444.72,140.84L445.11,148.68L445.91,127.07L446.3,137.58L447.1,140.49L447.49,138.92L448.28,130.34L448.68,131.67L449.07,129.31L449.47,138.25L449.87,134.05L450.26,138.68L450.66,138.81L451.05,131.49L451.45,131.42L451.85,140.05L452.64,132.48L453.04,138.41L453.83,141.46L454.22,128.79L455.02,142.96L455.42,264.58L456.21,292.55L456.6,293.12L457,304L457.4,286.22L457.79,301.52L458.19,291.75L458.58,292.1L458.98,291.07L459.38,294.16L459.77,293.46L460.17,276.02L460.56,283.67L460.96,262.28L461.75,272.54L462.14,248.89L462.94,241.71L463.33,229.6L463.73,224.98L464.13,228.24L464.52,227.36L465.71,215.22L466.11,217.06L466.5,216.4L466.9,227.08L467.29,226.08L467.69,228.38L468.09,228.68L468.48,224.72L468.88,233.57L469.27,224.28L470.07,227.75L470.46,223.07L471.26,226.33L471.65,223.26L472.05,224.52L472.44,234.01L472.84,220.81L473.24,231.91L473.63,224.2L476.01,212.72L476.41,220.76L477.2,220.72L477.59,223.7L477.99,223.67L478.38,219.37L478.78,223.08L479.18,218.62L479.57,226.76L479.97,225.2L480.36,224.19L480.76,219.51L481.16,225.16L482.34,225.11L482.74,216.49L483.14,225.05L483.53,220.43L483.93,220.57L484.32,218.19L484.72,220.92L485.12,219.84L485.51,227.36L485.91,216.65L486.3,220.1L486.7,220.01L487.49,220.98L487.89,218.78L488.68,223.64L489.07,218.66L489.47,205.85L489.87,215.25L490.26,220.32L490.66,206.18L491.06,206.81L491.45,214.16L491.85,214.11L492.25,206.99L493.04,212.47L493.44,202.23L493.83,199.24L494.23,208.71L494.63,224.84L495.02,215.2L495.41,214.49L495.81,205.74L496.21,219.6L497,195.82L497.39,209.77L497.79,208.24L498.18,203.32L498.58,202.05L498.98,205.17L499.37,200.81L499.77,208.16L500.17,206.35L500.56,209.96L500.96,207.44L501.35,196.45L501.75,195.36L502.15,196.45L502.94,209.39L503.33,202.33L503.73,210.92L504.13,197.09L504.52,197.31L504.92,191.05L505.31,191.24L505.71,196.07L506.11,200.65L506.5,194.37L507.69,210.5L508.09,204.27L508.88,191.94L509.27,193.62L509.67,197L510.07,205.03L510.46,197.14L510.86,198.57L511.26,192.99L512.45,184.28L512.84,189.51L513.63,194.59L514.03,189.23L514.42,191.91L514.82,189.81L515.22,182.31L515.61,187.7L516.01,187L516.4,183.28L516.8,186.18L517.2,185.69L517.6,181.61L517.99,182.61L518.39,186.54L519.18,187.68L519.57,186.58L519.97,181.49L520.36,187.81L521.16,185.81L521.55,187.22L521.95,189.17L522.35,187L523.54,194.82L523.93,189.57L524.33,183.36L524.72,189.2L525.12,186.45L525.52,187.34L525.91,187.88L526.31,187.85L526.7,183.53L527.89,187.65L528.29,184.59L529.08,184.25L529.48,185.71L530.27,187.3L530.66,187.29L531.45,197.68L531.85,195.53L532.25,195.52L532.64,190.33L533.04,190.33L533.44,186.49L535.02,194.95L535.42,194.95L535.81,195.4L536.21,193.58L536.61,193.58L537,187.5" style="vector-effect: non-scaling-stroke; fill: none; stroke: rgb(99, 110, 250); stroke-opacity: 1; stroke-width: 2px; opacity: 1;"/></g><g class="points"/><g class="text"/></g></g></g><g class="overplot"/><path class="xlines-above crisp" d="M0,0" style="fill: none;"/><path class="ylines-above crisp" d="M0,0" style="fill: none;"/><g class="overlines-above"/><g class="xaxislayer-above"><g class="xtick"><text text-anchor="middle" x="0" y="433" transform="translate(90.59,0)" style="font-family: 'Open Sans', verdana, arial, sans-serif; font-size: 12px; fill: rgb(42, 63, 95); fill-opacity: 1; white-space: pre;"><tspan class="line" dy="0em" x="0" y="433">Jun 4</tspan><tspan class="line" dy="1.3em" x="0" y="433">2021</tspan></text></g><g class="xtick"><text text-anchor="middle" x="0" y="433" transform="translate(204.66,0)" style="font-family: 'Open Sans', verdana, arial, sans-serif; font-size: 12px; fill: rgb(42, 63, 95); fill-opacity: 1; white-space: pre;">Jun 6</text></g><g class="xtick"><text text-anchor="middle" x="0" y="433" transform="translate(318.72,0)" style="font-family: 'Open Sans', verdana, arial, sans-serif; font-size: 12px; fill: rgb(42, 63, 95); fill-opacity: 1; white-space: pre;">Jun 8</text></g><g class="xtick"><text text-anchor="middle" x="0" y="433" transform="translate(432.78,0)" style="font-family: 'Open Sans', verdana, arial, sans-serif; font-size: 12px; fill: rgb(42, 63, 95); fill-opacity: 1; white-space: pre;">Jun 10</text></g><g class="xtick"><text text-anchor="middle" x="0" y="433" transform="translate(546.85,0)" style="font-family: 'Open Sans', verdana, arial, sans-serif; font-size: 12px; fill: rgb(42, 63, 95); fill-opacity: 1; white-space: pre;">Jun 12</text></g></g><g class="yaxislayer-above"><g class="ytick"><text text-anchor="end" x="79" y="4.199999999999999" transform="translate(0,367.23)" style="font-family: 'Open Sans', verdana, arial, sans-serif; font-size: 12px; fill: rgb(42, 63, 95); fill-opacity: 1; white-space: pre;">0.8</text></g><g class="ytick"><text text-anchor="end" x="79" y="4.199999999999999" transform="translate(0,308.43)" style="font-family: 'Open Sans', verdana, arial, sans-serif; font-size: 12px; fill: rgb(42, 63, 95); fill-opacity: 1; white-space: pre;">0.82</text></g><g class="ytick"><text text-anchor="end" x="79" y="4.199999999999999" transform="translate(0,249.63)" style="font-family: 'Open Sans', verdana, arial, sans-serif; font-size: 12px; fill: rgb(42, 63, 95); fill-opacity: 1; white-space: pre;">0.84</text></g><g class="ytick"><text text-anchor="end" x="79" y="4.199999999999999" transform="translate(0,190.82999999999998)" style="font-family: 'Open Sans', verdana, arial, sans-serif; font-size: 12px; fill: rgb(42, 63, 95); fill-opacity: 1; white-space: pre;">0.86</text></g><g class="ytick"><text text-anchor="end" x="79" y="4.199999999999999" transform="translate(0,132.03)" style="font-family: 'Open Sans', verdana, arial, sans-serif; font-size: 12px; fill: rgb(42, 63, 95); fill-opacity: 1; white-space: pre;">0.88</text></g></g><g class="overaxes-above"/></g></g><g class="polarlayer"/><g class="ternarylayer"/><g class="geolayer"/><g class="funnelarealayer"/><g class="pielayer"/><g class="treemaplayer"/><g class="sunburstlayer"/><g class="glimages"/><defs id="topdefs-bcd6ea"><g class="clips"/><clipPath id="legendbcd6ea"><rect width="60" height="45" x="0" y="0"/></clipPath></defs><g class="layer-above"><g class="imagelayer"/><g class="shapelayer"/></g><g class="infolayer"><g class="legend" pointer-events="all" transform="translate(627.74,100)"><rect class="bg" shape-rendering="crispEdges" width="60" height="45" x="0" y="0" style="stroke: rgb(68, 68, 68); stroke-opacity: 1; fill: rgb(255, 255, 255); fill-opacity: 1; stroke-width: 0px;"/><g class="scrollbox" transform="" clip-path="url('#legendbcd6ea')"><text class="legendtitletext" text-anchor="start" x="2" y="15.600000000000001" style="font-family: 'Open Sans', verdana, arial, sans-serif; font-size: 12px; fill: rgb(42, 63, 95); fill-opacity: 1; white-space: pre;">All</text><g class="groups" transform=""><g class="traces" transform="translate(0,30.1)" style="opacity: 1;"><text class="legendtext" text-anchor="start" x="40" y="4.680000000000001" style="font-family: 'Open Sans', verdana, arial, sans-serif; font-size: 12px; fill: rgb(42, 63, 95); fill-opacity: 1; white-space: pre;">All</text><g class="layers" style="opacity: 1;"><g class="legendfill"/><g class="legendlines"><path class="js-line" d="M5,0h30" style="fill: none; stroke: rgb(99, 110, 250); stroke-opacity: 1; stroke-width: 2px;"/></g><g class="legendsymbols"><g class="legendpoints"/></g></g><rect class="legendtoggle" x="0" y="-9.5" width="54.890625" height="19" style="fill: rgb(0, 0, 0); fill-opacity: 0;"/></g></g></g><rect class="scrollbar" rx="20" ry="3" width="0" height="0" x="0" y="0" style="fill: rgb(128, 139, 164); fill-opacity: 1;"/></g><g class="g-gtitle"><text class="gtitle" x="35" y="50" text-anchor="start" dy="0em" style="font-family: 'Open Sans', verdana, arial, sans-serif; font-size: 17px; fill: rgb(42, 63, 95); opacity: 1; font-weight: normal; white-space: pre;">Singapore Vaccination Centers</text></g><g class="g-xtitle"><text class="xtitle" x="348.5" y="476.409375" text-anchor="middle" style="font-family: 'Open Sans', verdana, arial, sans-serif; font-size: 14px; fill: rgb(42, 63, 95); opacity: 1; font-weight: normal; white-space: pre;">Time</text></g><g class="g-ytitle"><text class="ytitle" transform="rotate(-90,27.481250000000003,260)" x="27.481250000000003" y="260" text-anchor="middle" style="font-family: 'Open Sans', verdana, arial, sans-serif; font-size: 14px; fill: rgb(42, 63, 95); opacity: 1; font-weight: normal; white-space: pre;">Filled/%</text></g></g></svg>