<svg class="main-svg" xmlns="http://www.w3.org/2000/svg" xmlns:xlink="http://www.w3.org/1999/xlink" width="700" height="500" style="" viewBox="0 0 700 500"><rect x="0" y="0" width="700" height="500" style="fill: rgb(255, 255, 255); fill-opacity: 1;"/><defs id="defs-f3c742"><g class="clips"><clipPath id="clipf3c742xyplot" class="plotclip"><rect width="537" height="320"/></clipPath><clipPath class="axesclip" id="clipf3c742x"><rect x="80" y="0" width="537" height="500"/></clipPath><clipPath class="axesclip" id="clipf3c742y"><rect x="0" y="100" width="700" height="320"/></clipPath><clipPath class="axesclip" id="clipf3c742xy"><rect x="80" y="100" width="537" height="320"/></clipPath></g><g class="gradients"/></defs><g class="bglayer"><rect class="bg" x="80" y="100" width="537" height="320" style="fill: rgb(229, 236, 246); fill-opacity: 1; stroke-width: 0;"/></g><g class="layer-below"><g class="imagelayer"/><g class="shapelayer"/></g><g class="cartesianlayer"><g class="subplot xy"><g class="layer-subplot"><g class="shapelayer"/><g class="imagelayer"/></g><g class="gridlayer"><g class="x"><path class="xgrid crisp" transform="translate(89.3,0)" d="M0,100v320" style="stroke: rgb(255, 255, 255); stroke-opacity: 1; stroke-width: 1px;"/><path class="xgrid crisp" transform="translate(189.48000000000002,0)" d="M0,100v320" style="stroke: rgb(255, 255, 255); stroke-opacity: 1; stroke-width: 1px;"/><path class="xgrid crisp" transform="translate(289.65,0)" d="M0,100v320" style="stroke: rgb(255, 255, 255); stroke-opacity: 1; stroke-width: 1px;"/><path class="xgrid crisp" transform="translate(389.82,0)" d="M0,100v320" style="stroke: rgb(255, 255, 255); stroke-opacity: 1; stroke-width: 1px;"/><path class="xgrid crisp" transform="translate(490,0)" d="M0,100v320" style="stroke: rgb(255, 255, 255); stroke-opacity: 1; stroke-width: 1px;"/><path class="xgrid crisp" transform="translate(590.1700000000001,0)" d="M0,100v320" style="stroke: rgb(255, 255, 255); stroke-opacity: 1; stroke-width: 1px;"/></g><g class="y"><path class="ygrid crisp" transform="translate(0,367.23)" d="M80,0h537" style="stroke: rgb(255, 255, 255); stroke-opacity: 1; stroke-width: 1px;"/><path class="ygrid crisp" transform="translate(0,308.43)" d="M80,0h537" style="stroke: rgb(255, 255, 255); stroke-opacity: 1; stroke-width: 1px;"/><path class="ygrid crisp" transform="translate(0,249.63)" d="M80,0h537" style="stroke: rgb(255, 255, 255); stroke-opacity: 1; stroke-width: 1px;"/><path class="ygrid crisp" transform="translate(0,190.82999999999998)" d="M80,0h537" style="stroke: rgb(255, 255, 255); stroke-opacity: 1; stroke-width: 1px;"/><path class="ygrid crisp" transform="translate(0,132.03)" d="M80,0h537" style="stroke: rgb(255, 255, 255); stroke-opacity: 1; stroke-width: 1px;"/></g></g><g class="zerolinelayer"/><path class="xlines-below"/><path class="ylines-below"/><g class="overlines-below"/><g class="xaxislayer-below"/><g class="yaxislayer-below"/><g class="overaxes-below"/><g class="plot" transform="translate(80,100)" clip-path="url('#clipf3c742xyplot')"><g class="scatterlayer mlayer"><g class="trace scatter trace0f0386" style="stroke-miterlimit: 2; opacity: 1;"><g class="fills"/><g class="errorbars"/><g class="lines"><path class="js-line" d="M0,82.28L5.88,82.51L7.96,120.48L12.11,120.57L13.65,136.92L14.3,136.9L29.66,137.96L30.62,121.23L30.91,129.62L31.61,129.56L33,126.37L33.69,126.27L35.08,129.79L35.78,129.7L37.17,132.71L37.86,132.63L39.26,120.69L39.95,120.62L41.34,132.64L42.04,132.55L43.43,126.68L45.52,113.21L46.21,109.51L49.69,74.17L50.39,72.87L51.78,78.78L52.47,77.73L54.56,62.82L55.95,65.47L56.65,64.83L58.04,74.27L58.74,73.83L59.65,51.83L60.82,52.34L61.52,52.21L69.17,51.78L69.87,51.77L78.21,51.11L78.91,50.91L101.87,42.67L102.56,42.44L108.82,40.95L109.52,41.79L121.34,41.47L122.04,41.46L132.47,40.8L133.17,40.69L158.91,36.83L159.6,35.53L186.73,34L187.43,33.87L209,31.05L209.7,28.56L233.35,27.81L234.04,95.38L241.72,93.57L242.39,93.44L243.09,93.12L243.78,91.51L245.87,88.51L246.57,87.52L250.04,73.59L250.74,72.39L254.91,67.88L255.61,67.37L259.09,65.43L259.78,65.5L264.65,64.8L265.35,64.77L280.65,63.66L281.35,63.48L286.22,61.32L286.91,60.89L287.61,60.46L288.3,62.78L291.09,61.15L291.78,59.94L295.96,53.24L296.65,52.44L299.43,47.98L300.13,45.51L302.91,38.66L303.61,37.65L307.78,32.89L308.5,32.47L310.56,31.98L311.26,31.8L316.83,31.18L317.52,31.16L327.96,30.17L328.65,29.9L332.82,28.09L333.52,74.81L335.61,72.76L336.31,72.32L342.57,69.16L343.26,68.8L343.79,71.93L343.96,68.39L344.62,68.25L344.65,69.25L345.32,67.95L345.35,68.94L346.04,68.62L347.44,68.09L348.13,76.43L354.22,73.91L354.25,72.31L354.28,72.03L354.39,73.74L361,44.74L361.35,44.87L361.7,41.95L362.39,42.12L362.74,43.2L363.78,37.43L364.13,41.6L365.17,39.66L365.52,39.05L366.57,38.13L366.91,38.96L367.96,38.42L368.31,38.33L369,38.4L369.35,43.02L373.17,41.69L373.52,36.5L374.22,35.76L374.56,35.39L376.3,31.97L376.65,32.01L378.74,22.43L379.09,16L379.43,16.8L379.78,140.18L380.13,139.22L380.48,142.07L381.17,136.79L381.52,138.99L381.87,137.43L382.22,136.15L382.57,136.63L382.91,141.25L383.26,146.68L383.61,133.42L384.3,138.09L384.65,157.2L385.7,133.53L386.04,145.44L386.39,148.42L386.74,146.68L387.09,144.02L387.78,134.36L388.13,135.71L388.48,141.84L388.82,146.05L389.17,142.1L389.52,141.74L389.87,151.77L390.22,141.68L390.56,140.84L390.91,148.68L391.26,138.39L391.61,127.07L391.96,137.58L392.3,139.13L392.65,140.49L393,138.92L393.35,134.18L394.39,129.31L394.74,138.25L395.09,134.05L395.43,138.68L395.78,138.81L396.48,131.42L396.83,140.05L397.52,132.48L397.87,138.41L398.57,141.46L398.91,128.79L399.61,142.96L399.96,264.58L401,293.12L401.35,304L401.7,286.22L402.04,301.52L402.39,291.75L402.74,292.1L403.09,291.07L403.44,294.16L403.78,293.46L404.13,276.02L404.48,283.67L404.83,262.28L405.52,272.54L405.87,248.89L406.56,241.71L406.91,229.6L407.26,224.98L407.61,228.24L407.96,227.36L409,215.22L409.35,217.06L409.69,216.4L410.74,228.38L411.09,228.68L411.43,224.72L411.78,233.57L412.13,224.28L412.48,225.36L412.83,227.75L413.17,223.07L413.52,225.77L413.87,226.33L414.22,223.26L414.57,224.52L414.91,234.01L415.26,220.81L415.61,231.91L415.96,224.2L418.05,212.72L418.39,220.76L419.09,220.72L419.44,223.7L419.78,223.67L420.13,219.37L420.48,223.08L420.83,218.62L421.17,226.76L421.52,225.2L421.87,224.19L422.22,219.51L422.57,225.16L423.61,225.11L423.96,216.49L424.3,225.05L424.65,220.43L425,220.57L425.35,218.19L425.7,220.92L426.05,219.84L426.39,227.36L426.74,216.65L427.78,220.31L428.13,220.98L428.48,218.78L428.83,222.11L429.17,223.64L429.52,218.66L429.87,205.85L430.22,215.25L430.56,220.32L430.91,206.18L431.26,206.81L431.61,214.16L431.96,214.11L432.3,206.99L433,212.47L433.35,202.23L433.7,199.24L434.05,208.71L434.4,224.84L434.74,215.2L435.09,214.49L435.44,205.74L435.78,219.6L436.48,195.82L436.83,209.77L437.87,202.05L438.22,205.17L438.57,200.81L438.91,208.16L439.26,206.35L439.61,209.96L439.96,207.44L440.3,196.45L440.65,195.36L441,196.45L441.35,201.41L442.39,210.92L442.74,197.09L443.08,197.31L443.43,191.05L443.78,191.24L444.13,196.07L444.48,200.65L444.82,194.37L445.87,210.5L446.22,204.27L446.91,191.94L447.26,193.62L447.61,197L447.96,205.03L448.3,197.14L448.65,198.57L450.04,184.28L450.39,189.51L451.09,194.59L451.44,189.23L451.78,191.91L452.13,189.81L452.48,182.31L452.83,187.7L453.17,187L453.52,183.28L453.87,186.18L454.22,185.69L454.57,181.61L454.92,182.61L455.26,186.54L455.96,187.68L456.3,186.58L456.65,181.49L457,187.81L457.7,185.81L458.04,187.22L458.74,187L459.09,190.98L459.44,190.65L459.79,194.82L460.13,189.57L460.48,183.36L460.83,189.2L461.18,186.45L462.22,187.85L462.57,183.53L463.61,187.65L463.96,184.59L464.65,184.25L465,185.71L466.04,187.29L466.39,197.68L466.74,197.68L467.09,195.53L467.44,195.52L467.78,190.33L468.13,190.33L468.48,186.49L469.87,194.95L470.22,194.95L470.57,195.4L470.91,193.58L471.26,193.58L471.61,187.5L472.3,187.5L472.65,190.84L473.7,186.75L474.04,187.03L474.39,187.03L474.74,188.23L477.52,181.13L477.87,187.27L478.22,190.9L478.56,187.7L478.91,181.79L479.26,180.91L479.61,182.93L479.96,184.81L480.3,179.55L481,190.44L481.35,182.8L481.7,183.07L482.04,174.64L483.09,185.09L483.43,181.21L483.78,181.99L484.13,185.79L484.48,171.39L484.83,177.83L485.17,175.21L485.52,180.5L485.87,179.53L486.22,177.22L487.61,187.84L487.96,182.58L488.3,175.16L488.65,180.33L489,178.23L489.69,176.4L490.04,185.95L490.39,175.93L490.74,196.82L491.78,173.22L492.13,177.47L492.48,180.21L492.82,180.03L493.17,179.15L493.87,179.35L494.22,181.21L495.61,176.9L495.96,176.97L496.65,169.69L497,173.52L497.35,176.28L497.7,172.21L498.04,173.97L498.39,171L499.09,180.19L499.43,175.33L499.78,171.32L500.83,183.64L501.17,176L502.22,181.54L502.56,176.71L502.91,173.38L503.26,176.61L503.61,186.68L503.96,171.47L504.3,173.34L504.65,176.71L505,180.06L505.35,191.51L506.05,169.64L506.4,179.24L506.74,185.08L507.09,178.84L507.44,180.35L508.13,173.52L508.7,177.41L509.17,175.84L509.52,172.35L510.22,178.87L510.57,178.77L510.91,176.54L511.96,180.35L512.3,181.62L512.65,181.6L513,184.49L513.35,177.62L513.7,178.94L514.04,178.93L514.39,178.92L514.74,174.71L515.43,182.31L515.79,181.81L516.13,181.81L516.48,181.29L516.83,185.14L517.52,181.68L517.87,185.76L518.57,177.83L518.91,178.11L519.26,178.11L520.65,178.1L521,181.35L522.04,177.13L522.39,180.97L522.74,182.3L523.09,178.08L523.43,173.89L523.78,174.32L524.13,178.07L524.48,178.06L524.83,182.07L525.17,173.86L525.52,174.82L525.87,179.2L526.56,175.06L526.91,180.13L527.61,171.51L527.96,183.74L528.3,184.31L528.65,181.03L529,176.05L529.35,182.38L529.7,173.59L530.04,174.64L530.39,179.55L530.74,177.66L531.08,183.56L532.13,174.61L532.48,173.28L533.52,177.46L533.87,174.3L534.22,174.68L534.58,176.52L534.91,174.45L535.26,184.13L535.61,183.4L535.96,178.51L536.3,178.68L536.65,173.73L537,179.49" style="vector-effect: non-scaling-stroke; fill: none; stroke: rgb(99, 110, 250); stroke-opacity: 1; stroke-width: 2px; opacity: 1;"/></g><g class="points"/><g class="text"/></g></g></g><g class="overplot"/><path class="xlines-above crisp" d="M0,0" style="fill: none;"/><path class="ylines-above crisp" d="M0,0" style="fill: none;"/><g class="overlines-above"/><g class="xaxislayer-above"><g class="xtick"><text text-anchor="middle" x="0" y="433" transform="translate(89.3,0)" style="font-family: 'Open Sans', verdana, arial, sans-serif; font-size: 12px; fill: rgb(42, 63, 95); fill-opacity: 1; white-space: pre;"><tspan class="line" dy="0em" x="0" y="433">Jun 4</tspan><tspan class="line" dy="1.3em" x="0" y="433">2021</tspan></text></g><g class="xtick"><text text-anchor="middle" x="0" y="433" transform="translate(189.48000000000002,0)" style="font-family: 'Open Sans', verdana, arial, sans-serif; font-size: 12px; fill: rgb(42, 63, 95); fill-opacity: 1; white-space: pre;">Jun 6</text></g><g class="xtick"><text text-anchor="middle" x="0" y="433" transform="translate(289.65,0)" style="font-family: 'Open Sans', verdana, arial, sans-serif; font-size: 12px; fill: rgb(42, 63, 95); fill-opacity: 1; white-space: pre;">Jun 8</text></g><g class="xtick"><text text-anchor="middle" x="0" y="433" transform="translate(389.82,0)" style="font-family: 'Open Sans', verdana, arial, sans-serif; font-size: 12px; fill: rgb(42, 63, 95); fill-opacity: 1; white-space: pre;">Jun 10</text></g><g class="xtick"><text text-anchor="middle" x="0" y="433" transform="translate(490,0)" style="font-family: 'Open Sans', verdana, arial, sans-serif; font-size: 12px; fill: rgb(42, 63, 95); fill-opacity: 1; white-space: pre;">Jun 12</text></g><g class="xtick"><text text-anchor="middle" x="0" y="433" transform="translate(590.1700000000001,0)" style="font-family: 'Open Sans', verdana, arial, sans-serif; font-size: 12px; fill: rgb(42, 63, 95); fill-opacity: 1; white-space: pre;">Jun 14</text></g></g><g class="yaxislayer-above"><g class="ytick"><text text-anchor="end" x="79" y="4.199999999999999" transform="translate(0,367.23)" style="font-family: 'Open Sans', verdana, arial, sans-serif; font-size: 12px; fill: rgb(42, 63, 95); fill-opacity: 1; white-space: pre;">0.8</text></g><g class="ytick"><text text-anchor="end" x="79" y="4.199999999999999" transform="translate(0,308.43)" style="font-family: 'Open Sans', verdana, arial, sans-serif; font-size: 12px; fill: rgb(42, 63, 95); fill-opacity: 1; white-space: pre;">0.82</text></g><g class="ytick"><text text-anchor="end" x="79" y="4.199999999999999" transform="translate(0,249.63)" style="font-family: 'Open Sans', verdana, arial, sans-serif; font-size: 12px; fill: rgb(42, 63, 95); fill-opacity: 1; white-space: pre;">0.84</text></g><g class="ytick"><text text-anchor="end" x="79" y="4.199999999999999" transform="translate(0,190.82999999999998)" style="font-family: 'Open Sans', verdana, arial, sans-serif; font-size: 12px; fill: rgb(42, 63, 95); fill-opacity: 1; white-space: pre;">0.86</text></g><g class="ytick"><text text-anchor="end" x="79" y="4.199999999999999" transform="translate(0,132.03)" style="font-family: 'Open Sans', verdana, arial, sans-serif; font-size: 12px; fill: rgb(42, 63, 95); fill-opacity: 1; white-space: pre;">0.88</text></g></g><g class="overaxes-above"/></g></g><g class="polarlayer"/><g class="ternarylayer"/><g class="geolayer"/><g class="funnelarealayer"/><g class="pielayer"/><g class="treemaplayer"/><g class="sunburstlayer"/><g class="glimages"/><defs id="topdefs-f3c742"><g class="clips"/><clipPath id="legendf3c742"><rect width="60" height="45" x="0" y="0"/></clipPath></defs><g class="layer-above"><g class="imagelayer"/><g class="shapelayer"/></g><g class="infolayer"><g class="legend" pointer-events="all" transform="translate(627.74,100)"><rect class="bg" shape-rendering="crispEdges" width="60" height="45" x="0" y="0" style="stroke: rgb(68, 68, 68); stroke-opacity: 1; fill: rgb(255, 255, 255); fill-opacity: 1; stroke-width: 0px;"/><g class="scrollbox" transform="" clip-path="url('#legendf3c742')"><text class="legendtitletext" text-anchor="start" x="2" y="15.600000000000001" style="font-family: 'Open Sans', verdana, arial, sans-serif; font-size: 12px; fill: rgb(42, 63, 95); fill-opacity: 1; white-space: pre;">All</text><g class="groups" transform=""><g class="traces" transform="translate(0,30.1)" style="opacity: 1;"><text class="legendtext" text-anchor="start" x="40" y="4.680000000000001" style="font-family: 'Open Sans', verdana, arial, sans-serif; font-size: 12px; fill: rgb(42, 63, 95); fill-opacity: 1; white-space: pre;">All</text><g class="layers" style="opacity: 1;"><g class="legendfill"/><g class="legendlines"><path class="js-line" d="M5,0h30" style="fill: none; stroke: rgb(99, 110, 250); stroke-opacity: 1; stroke-width: 2px;"/></g><g class="legendsymbols"><g class="legendpoints"/></g></g><rect class="legendtoggle" x="0" y="-9.5" width="54.890625" height="19" style="fill: rgb(0, 0, 0); fill-opacity: 0;"/></g></g></g><rect class="scrollbar" rx="20" ry="3" width="0" height="0" x="0" y="0" style="fill: rgb(128, 139, 164); fill-opacity: 1;"/></g><g class="g-gtitle"><text class="gtitle" x="35" y="50" text-anchor="start" dy="0em" style="font-family: 'Open Sans', verdana, arial, sans-serif; font-size: 17px; fill: rgb(42, 63, 95); opacity: 1; font-weight: normal; white-space: pre;">Singapore Vaccination Centers</text></g><g class="g-xtitle"><text class="xtitle" x="348.5" y="476.409375" text-anchor="middle" style="font-family: 'Open Sans', verdana, arial, sans-serif; font-size: 14px; fill: rgb(42, 63, 95); opacity: 1; font-weight: normal; white-space: pre;">Time</text></g><g class="g-ytitle"><text class="ytitle" transform="rotate(-90,27.481250000000003,260)" x="27.481250000000003" y="260" text-anchor="middle" style="font-family: 'Open Sans', verdana, arial, sans-serif; font-size: 14px; fill: rgb(42, 63, 95); opacity: 1; font-weight: normal; white-space: pre;">Filled/%</text></g></g></svg>