<svg class="main-svg" xmlns="http://www.w3.org/2000/svg" xmlns:xlink="http://www.w3.org/1999/xlink" width="700" height="500" style="" viewBox="0 0 700 500"><rect x="0" y="0" width="700" height="500" style="fill: rgb(255, 255, 255); fill-opacity: 1;"/><defs id="defs-b31901"><g class="clips"><clipPath id="clipb31901xyplot" class="plotclip"><rect width="537" height="320"/></clipPath><clipPath class="axesclip" id="clipb31901x"><rect x="80" y="0" width="537" height="500"/></clipPath><clipPath class="axesclip" id="clipb31901y"><rect x="0" y="100" width="700" height="320"/></clipPath><clipPath class="axesclip" id="clipb31901xy"><rect x="80" y="100" width="537" height="320"/></clipPath></g><g class="gradients"/></defs><g class="bglayer"><rect class="bg" x="80" y="100" width="537" height="320" style="fill: rgb(229, 236, 246); fill-opacity: 1; stroke-width: 0;"/></g><g class="layer-below"><g class="imagelayer"/><g class="shapelayer"/></g><g class="cartesianlayer"><g class="subplot xy"><g class="layer-subplot"><g class="shapelayer"/><g class="imagelayer"/></g><g class="gridlayer"><g class="x"><path class="xgrid crisp" transform="translate(82.44,0)" d="M0,100v320" style="stroke: rgb(255, 255, 255); stroke-opacity: 1; stroke-width: 1px;"/><path class="xgrid crisp" transform="translate(176.29000000000002,0)" d="M0,100v320" style="stroke: rgb(255, 255, 255); stroke-opacity: 1; stroke-width: 1px;"/><path class="xgrid crisp" transform="translate(270.15,0)" d="M0,100v320" style="stroke: rgb(255, 255, 255); stroke-opacity: 1; stroke-width: 1px;"/><path class="xgrid crisp" transform="translate(364.01,0)" d="M0,100v320" style="stroke: rgb(255, 255, 255); stroke-opacity: 1; stroke-width: 1px;"/><path class="xgrid crisp" transform="translate(457.86,0)" d="M0,100v320" style="stroke: rgb(255, 255, 255); stroke-opacity: 1; stroke-width: 1px;"/><path class="xgrid crisp" transform="translate(551.72,0)" d="M0,100v320" style="stroke: rgb(255, 255, 255); stroke-opacity: 1; stroke-width: 1px;"/></g><g class="y"><path class="ygrid crisp" transform="translate(0,392.55)" d="M80,0h537" style="stroke: rgb(255, 255, 255); stroke-opacity: 1; stroke-width: 1px;"/><path class="ygrid crisp" transform="translate(0,349.77)" d="M80,0h537" style="stroke: rgb(255, 255, 255); stroke-opacity: 1; stroke-width: 1px;"/><path class="ygrid crisp" transform="translate(0,306.99)" d="M80,0h537" style="stroke: rgb(255, 255, 255); stroke-opacity: 1; stroke-width: 1px;"/><path class="ygrid crisp" transform="translate(0,264.21000000000004)" d="M80,0h537" style="stroke: rgb(255, 255, 255); stroke-opacity: 1; stroke-width: 1px;"/><path class="ygrid crisp" transform="translate(0,221.43)" d="M80,0h537" style="stroke: rgb(255, 255, 255); stroke-opacity: 1; stroke-width: 1px;"/><path class="ygrid crisp" transform="translate(0,178.65)" d="M80,0h537" style="stroke: rgb(255, 255, 255); stroke-opacity: 1; stroke-width: 1px;"/><path class="ygrid crisp" transform="translate(0,135.87)" d="M80,0h537" style="stroke: rgb(255, 255, 255); stroke-opacity: 1; stroke-width: 1px;"/></g></g><g class="zerolinelayer"/><path class="xlines-below"/><path class="ylines-below"/><g class="overlines-below"/><g class="xaxislayer-below"/><g class="yaxislayer-below"/><g class="overaxes-below"/><g class="plot" transform="translate(80,100)" clip-path="url('#clipb31901xyplot')"><g class="scatterlayer mlayer"><g class="trace scatter trace846661" style="stroke-miterlimit: 2; opacity: 1;"><g class="fills"/><g class="errorbars"/><g class="lines"><path class="js-line" d="M0,304L1.88,302.59L2.53,249.74L3.18,251.04L3.84,249.35L6.44,248.71L7.09,248.32L8.4,249.1L9.05,248.19L10.35,248.58L11,248.19L12.31,247.93L12.96,247.67L14.26,247.41L14.92,247.16L20.13,246.77L20.78,246.51L24.69,246.12L25.34,245.73L26.65,245.86L27.3,245.22L28.6,245.09L29.25,244.44L30.56,244.57L31.21,243.66L32.51,244.57L33.17,243.02L35.12,242.11L35.77,242.63L36.42,242.24L37.07,243.15L38.38,240.17L39.03,240.69L39.68,240.69L40.33,239.78L43.59,236.94L44.24,237.97L44.89,238.23L45.55,237.07L46.2,235L46.85,235.51L47.5,236.55L48.15,235L49.46,232.67L50.11,232.28L51.42,230.6L52.07,231.12L53.37,229.95L54.02,230.21L54.67,231.76L55.32,229.56L57.28,230.6L57.93,230.21L59.89,226.07L60.54,226.85L61.84,225.68L62.49,227.36L63.15,227.11L63.8,225.55L66.4,221.16L67.06,218.44L67.71,219.09L68.36,217.66L69.01,216.63L69.66,217.4L70.97,217.66L71.62,218.7L74.88,216.37L75.53,216.11L77.49,214.3L78.14,214.82L79.44,215.98L80.09,214.43L82.7,212.88L83.35,212.75L85.31,211.84L85.96,211.71L87.26,211.84L87.91,211.45L89.87,211.32L90.52,210.42L91.82,207.7L92.48,207.7L93.13,206.93L93.78,207.83L95.73,207.96L96.39,142.27L98.34,140.18L99,140.44L100.3,139.92L100.95,139.01L102.25,139.14L102.91,139.14L105.51,138.48L106.16,138.35L108.12,137.83L108.77,137.96L114.63,137.96L115.29,138.09L119.85,137.83L120.5,137.18L122.46,137.18L123.11,136.14L125.71,136.27L126.37,135.74L127.67,135.88L128.32,135.22L129.63,134.57L130.28,135.22L132.88,132.22L133.54,133.27L135.49,131.57L136.14,132.22L138.75,128.44L139.4,130.14L142.01,127.14L142.66,128.05L143.96,126.48L144.62,127.66L145.27,128.7L145.92,127.79L146.57,128.83L147.22,128.31L147.87,127.4L148.53,128.44L149.83,128.18L150.48,128.57L151.79,128.83L152.44,128.44L155.06,124.79L155.71,124.92L157.01,125.96L157.66,124.01L160.27,123.09L160.92,121.4L163.53,121.92L164.18,120.61L164.83,118.4L165.49,119.96L166.14,119.96L166.79,118.79L167.44,119.7L168.09,119.18L169.4,117.35L170.05,117.48L172,114.35L172.65,114.48L173.96,112.14L174.61,112.92L175.91,110.83L176.57,111.35L178.52,110.7L179.17,108.09L179.82,107.96L180.47,106.92L181.78,105.74L182.43,106L183.74,107.83L184.39,107.18L185.04,109.13L185.69,108.35L186.34,108.22L186.99,106.66L187.65,106.27L188.3,106.79L189.6,107.05L190.25,61.25L192.21,59.15L192.86,58.88L196.77,56.78L197.42,56.52L200.03,54.54L200.68,54.28L202.64,54.41L203.29,53.75L206.55,53.62L207.2,53.75L217.63,51.78L218.28,52.18L220.23,51.12L220.88,51.25L221.54,51.52L222.18,50.73L226.1,50.07L227.4,49.54L228.05,48.23L229.35,47.83L230.66,47.44L231.31,45.73L231.96,46.91L232.62,45.73L233.92,45.73L234.57,45.07L235.22,44.94L235.87,43.76L237.83,43.49L238.48,41.91L239.78,40.2L240.44,39.42L241.07,38.1L241.72,38.76L243.67,37.71L244.32,36L246.93,35.34L247.58,33.36L248.24,32.71L248.89,33.23L250.19,32.44L250.84,32.05L251.5,31.92L252.15,30.86L253.45,30.86L254.1,31.39L255.4,32.97L256.06,31.13L257.36,32.31L258.02,30.34L259.32,30.47L259.97,30.86L261.92,29.02L262.58,29.42L263.88,27.71L264.53,26.66L265.18,24.16L265.84,24.68L266.48,23.24L267.14,24.68L268.44,22.84L269.1,22.58L269.75,21.26L270.39,21.66L271.7,21.79L272.35,20.74L273,21.26L273.66,19.68L274.96,19.55L275.61,18.5L278.22,18.89L278.87,17.97L280.18,17.84L280.83,17.97L282.13,16L282.78,16.66L283.44,16.39L284.09,171.81L287.34,171.4L288,172.08L289.95,170.99L290.6,170.99L291.91,169.76L292.56,169.76L294.51,169.08L295.17,169.08L299.73,168.67L300.38,168.67L304.94,168.39L305.6,168.39L308.2,167.44L308.85,167.71L312.76,166.89L313.41,166.75L314.71,165.8L315.37,165.12L318.63,164.02L319.28,162.66L321.91,162.38L322.56,163.61L323.87,161.7L324.52,161.57L325.17,160.88L325.82,158.43L326.47,156.51L327.12,156.79L327.78,156.1L328.42,154.33L329.08,154.88L330.38,154.47L331.03,154.33L332.99,152.69L333.64,153.65L335.6,150.92L336.25,151.87L338.2,149.14L338.86,149.14L339.51,148.32L340.16,149.41L341.46,150.37L342.11,149.41L342.77,149.55L343.42,148.73L346.03,145.18L346.68,144.5L348.63,143.54L349.29,145.04L353.2,141.9L353.85,143.68L355.15,121.97L355.8,121.56L357.11,120.88L357.76,116.1L358.41,116.24L359.06,112.28L359.71,112.55L360.37,109.96L361.02,106.95L361.67,107.91L363.62,101.22L364.28,98.08L365.58,97.53L366.23,95.35L366.88,94.8L367.54,92.07L368.84,89.34L369.49,89.34L371.44,85.65L372.1,84.7L373.4,82.78L374.05,80.19L377.31,75L377.97,88.44L381.23,84.03L381.88,84.45L382.53,84.31L383.18,85.14L384.48,84.72L385.14,85.41L386.44,84.59L387.09,84.45L388.39,84.03L389.05,84.03L390.35,84.17L391,83.62L395.56,84.03L396.22,83.62L400.13,83.21L400.78,83.48L403.38,83.48L404.03,83.35L405.99,83.35L406.64,83.21L408.6,83.9L409.25,83.21L409.9,82.66L410.55,81.01L413.16,79.49L413.81,78.53L415.11,78.94L415.77,78.53L416.42,76.87L417.07,77.29L417.72,77.15L418.37,75.63L421.63,72.47L422.28,72.88L424.24,69.44L424.89,69.02L426.85,66.41L427.5,66.41L428.8,63.79L429.45,63.79L430.76,61.86L431.41,59.66L434.02,54.43L434.67,54.01L435.32,53.6L435.97,51.4L438.58,49.47L439.23,47.82L443.14,46.85L443.79,45.75L444.45,46.16L445.1,45.48L445.75,45.89L450.96,41.21L454.22,38.59L454.87,39.28L457.48,35.97L458.14,35.84L458.79,34.46L459.44,35.01L460.74,33.91L461.39,34.18L462.05,35.28L462.7,34.32L465.3,32.94L465.96,33.91L468.56,33.22L469.22,32.12L471.17,29.78L471.82,81.26L473.12,81.68L473.78,80.56L474.43,79.86L475.08,80.42L477.03,80.42L477.69,81.4L479.64,81.12L480.3,81.12L483.56,81.4L484.21,81.12L486.81,79.86L487.47,80.28L493.98,79.58L494.64,79.58L501.8,79.3L502.45,79.16L505.71,78.74L506.36,78.31L507.67,77.75L508.32,76.77L509.62,76.35L510.28,74.95L510.93,73.55L511.58,74.95L514.18,73.97L514.84,73.97L516.14,71.86L516.8,71.58L518.75,68.64L519.4,68.5L520.05,68.22L520.7,68.78L523.31,66.53L523.96,66.67L525.27,65.13L525.92,64.43L528.53,63.45L529.18,63.87L529.83,63.31L530.48,64.01L531.78,60.5L532.44,60.78L533.09,60.78L535.04,60.22L535.7,58.96L537,57.98" style="vector-effect: non-scaling-stroke; fill: none; stroke: rgb(99, 110, 250); stroke-opacity: 1; stroke-width: 2px; opacity: 1;"/></g><g class="points"/><g class="text"/></g></g></g><g class="overplot"/><path class="xlines-above crisp" d="M0,0" style="fill: none;"/><path class="ylines-above crisp" d="M0,0" style="fill: none;"/><g class="overlines-above"/><g class="xaxislayer-above"><g class="xtick"><text text-anchor="middle" x="0" y="433" transform="translate(82.44,0)" style="font-family: 'Open Sans', verdana, arial, sans-serif; font-size: 12px; fill: rgb(42, 63, 95); fill-opacity: 1; white-space: pre;"><tspan class="line" dy="0em" x="0" y="433">Aug 3</tspan><tspan class="line" dy="1.3em" x="0" y="433">2021</tspan></text></g><g class="xtick"><text text-anchor="middle" x="0" y="433" transform="translate(176.29000000000002,0)" style="font-family: 'Open Sans', verdana, arial, sans-serif; font-size: 12px; fill: rgb(42, 63, 95); fill-opacity: 1; white-space: pre;">Aug 4</text></g><g class="xtick"><text text-anchor="middle" x="0" y="433" transform="translate(270.15,0)" style="font-family: 'Open Sans', verdana, arial, sans-serif; font-size: 12px; fill: rgb(42, 63, 95); fill-opacity: 1; white-space: pre;">Aug 5</text></g><g class="xtick"><text text-anchor="middle" x="0" y="433" transform="translate(364.01,0)" style="font-family: 'Open Sans', verdana, arial, sans-serif; font-size: 12px; fill: rgb(42, 63, 95); fill-opacity: 1; white-space: pre;">Aug 6</text></g><g class="xtick"><text text-anchor="middle" x="0" y="433" transform="translate(457.86,0)" style="font-family: 'Open Sans', verdana, arial, sans-serif; font-size: 12px; fill: rgb(42, 63, 95); fill-opacity: 1; white-space: pre;">Aug 7</text></g><g class="xtick"><text text-anchor="middle" x="0" y="433" transform="translate(551.72,0)" style="font-family: 'Open Sans', verdana, arial, sans-serif; font-size: 12px; fill: rgb(42, 63, 95); fill-opacity: 1; white-space: pre;">Aug 8</text></g></g><g class="yaxislayer-above"><g class="ytick"><text text-anchor="end" x="79" y="4.199999999999999" transform="translate(0,392.55)" style="font-family: 'Open Sans', verdana, arial, sans-serif; font-size: 12px; fill: rgb(42, 63, 95); fill-opacity: 1; white-space: pre;">0.864</text></g><g class="ytick"><text text-anchor="end" x="79" y="4.199999999999999" transform="translate(0,349.77)" style="font-family: 'Open Sans', verdana, arial, sans-serif; font-size: 12px; fill: rgb(42, 63, 95); fill-opacity: 1; white-space: pre;">0.865</text></g><g class="ytick"><text text-anchor="end" x="79" y="4.199999999999999" transform="translate(0,306.99)" style="font-family: 'Open Sans', verdana, arial, sans-serif; font-size: 12px; fill: rgb(42, 63, 95); fill-opacity: 1; white-space: pre;">0.866</text></g><g class="ytick"><text text-anchor="end" x="79" y="4.199999999999999" transform="translate(0,264.21000000000004)" style="font-family: 'Open Sans', verdana, arial, sans-serif; font-size: 12px; fill: rgb(42, 63, 95); fill-opacity: 1; white-space: pre;">0.867</text></g><g class="ytick"><text text-anchor="end" x="79" y="4.199999999999999" transform="translate(0,221.43)" style="font-family: 'Open Sans', verdana, arial, sans-serif; font-size: 12px; fill: rgb(42, 63, 95); fill-opacity: 1; white-space: pre;">0.868</text></g><g class="ytick"><text text-anchor="end" x="79" y="4.199999999999999" transform="translate(0,178.65)" style="font-family: 'Open Sans', verdana, arial, sans-serif; font-size: 12px; fill: rgb(42, 63, 95); fill-opacity: 1; white-space: pre;">0.869</text></g><g class="ytick"><text text-anchor="end" x="79" y="4.199999999999999" transform="translate(0,135.87)" style="font-family: 'Open Sans', verdana, arial, sans-serif; font-size: 12px; fill: rgb(42, 63, 95); fill-opacity: 1; white-space: pre;">0.87</text></g></g><g class="overaxes-above"/></g></g><g class="polarlayer"/><g class="ternarylayer"/><g class="geolayer"/><g class="funnelarealayer"/><g class="pielayer"/><g class="treemaplayer"/><g class="sunburstlayer"/><g class="glimages"/><defs id="topdefs-b31901"><g class="clips"/><clipPath id="legendb31901"><rect width="60" height="45" x="0" y="0"/></clipPath></defs><g class="layer-above"><g class="imagelayer"/><g class="shapelayer"/></g><g class="infolayer"><g class="legend" pointer-events="all" transform="translate(627.74,100)"><rect class="bg" shape-rendering="crispEdges" width="60" height="45" x="0" y="0" style="stroke: rgb(68, 68, 68); stroke-opacity: 1; fill: rgb(255, 255, 255); fill-opacity: 1; stroke-width: 0px;"/><g class="scrollbox" transform="" clip-path="url('#legendb31901')"><text class="legendtitletext" text-anchor="start" x="2" y="15.600000000000001" style="font-family: 'Open Sans', verdana, arial, sans-serif; font-size: 12px; fill: rgb(42, 63, 95); fill-opacity: 1; white-space: pre;">All</text><g class="groups" transform=""><g class="traces" transform="translate(0,30.1)" style="opacity: 1;"><text class="legendtext" text-anchor="start" x="40" y="4.680000000000001" style="font-family: 'Open Sans', verdana, arial, sans-serif; font-size: 12px; fill: rgb(42, 63, 95); fill-opacity: 1; white-space: pre;">All</text><g class="layers" style="opacity: 1;"><g class="legendfill"/><g class="legendlines"><path class="js-line" d="M5,0h30" style="fill: none; stroke: rgb(99, 110, 250); stroke-opacity: 1; stroke-width: 2px;"/></g><g class="legendsymbols"><g class="legendpoints"/></g></g><rect class="legendtoggle" x="0" y="-9.5" width="54.890625" height="19" style="fill: rgb(0, 0, 0); fill-opacity: 0;"/></g></g></g><rect class="scrollbar" rx="20" ry="3" width="0" height="0" x="0" y="0" style="fill: rgb(128, 139, 164); fill-opacity: 1;"/></g><g class="g-gtitle"><text class="gtitle" x="35" y="50" text-anchor="start" dy="0em" style="font-family: 'Open Sans', verdana, arial, sans-serif; font-size: 17px; fill: rgb(42, 63, 95); opacity: 1; font-weight: normal; white-space: pre;">Singapore Vaccination Centers</text></g><g class="g-xtitle"><text class="xtitle" x="348.5" y="476.409375" text-anchor="middle" style="font-family: 'Open Sans', verdana, arial, sans-serif; font-size: 14px; fill: rgb(42, 63, 95); opacity: 1; font-weight: normal; white-space: pre;">Time</text></g><g class="g-ytitle"><text class="ytitle" transform="rotate(-90,19.840625000000003,260)" x="19.840625000000003" y="260" text-anchor="middle" style="font-family: 'Open Sans', verdana, arial, sans-serif; font-size: 14px; fill: rgb(42, 63, 95); opacity: 1; font-weight: normal; white-space: pre;">Filled/%</text></g></g></svg>