<svg class="main-svg" xmlns="http://www.w3.org/2000/svg" xmlns:xlink="http://www.w3.org/1999/xlink" width="700" height="500" style="" viewBox="0 0 700 500"><rect x="0" y="0" width="700" height="500" style="fill: rgb(255, 255, 255); fill-opacity: 1;"/><defs id="defs-009ec0"><g class="clips"><clipPath id="clip009ec0xyplot" class="plotclip"><rect width="537" height="320"/></clipPath><clipPath class="axesclip" id="clip009ec0x"><rect x="80" y="0" width="537" height="500"/></clipPath><clipPath class="axesclip" id="clip009ec0y"><rect x="0" y="100" width="700" height="320"/></clipPath><clipPath class="axesclip" id="clip009ec0xy"><rect x="80" y="100" width="537" height="320"/></clipPath></g><g class="gradients"/></defs><g class="bglayer"><rect class="bg" x="80" y="100" width="537" height="320" style="fill: rgb(229, 236, 246); fill-opacity: 1; stroke-width: 0;"/></g><g class="layer-below"><g class="imagelayer"/><g class="shapelayer"/></g><g class="cartesianlayer"><g class="subplot xy"><g class="layer-subplot"><g class="shapelayer"/><g class="imagelayer"/></g><g class="gridlayer"><g class="x"><path class="xgrid crisp" transform="translate(89.39,0)" d="M0,100v320" style="stroke: rgb(255, 255, 255); stroke-opacity: 1; stroke-width: 1px;"/><path class="xgrid crisp" transform="translate(190.55,0)" d="M0,100v320" style="stroke: rgb(255, 255, 255); stroke-opacity: 1; stroke-width: 1px;"/><path class="xgrid crisp" transform="translate(291.71000000000004,0)" d="M0,100v320" style="stroke: rgb(255, 255, 255); stroke-opacity: 1; stroke-width: 1px;"/><path class="xgrid crisp" transform="translate(392.86,0)" d="M0,100v320" style="stroke: rgb(255, 255, 255); stroke-opacity: 1; stroke-width: 1px;"/><path class="xgrid crisp" transform="translate(494.02,0)" d="M0,100v320" style="stroke: rgb(255, 255, 255); stroke-opacity: 1; stroke-width: 1px;"/><path class="xgrid crisp" transform="translate(595.18,0)" d="M0,100v320" style="stroke: rgb(255, 255, 255); stroke-opacity: 1; stroke-width: 1px;"/></g><g class="y"><path class="ygrid crisp" transform="translate(0,367.23)" d="M80,0h537" style="stroke: rgb(255, 255, 255); stroke-opacity: 1; stroke-width: 1px;"/><path class="ygrid crisp" transform="translate(0,308.43)" d="M80,0h537" style="stroke: rgb(255, 255, 255); stroke-opacity: 1; stroke-width: 1px;"/><path class="ygrid crisp" transform="translate(0,249.63)" d="M80,0h537" style="stroke: rgb(255, 255, 255); stroke-opacity: 1; stroke-width: 1px;"/><path class="ygrid crisp" transform="translate(0,190.82999999999998)" d="M80,0h537" style="stroke: rgb(255, 255, 255); stroke-opacity: 1; stroke-width: 1px;"/><path class="ygrid crisp" transform="translate(0,132.03)" d="M80,0h537" style="stroke: rgb(255, 255, 255); stroke-opacity: 1; stroke-width: 1px;"/></g></g><g class="zerolinelayer"/><path class="xlines-below"/><path class="ylines-below"/><g class="overlines-below"/><g class="xaxislayer-below"/><g class="yaxislayer-below"/><g class="overaxes-below"/><g class="plot" transform="translate(80,100)" clip-path="url('#clip009ec0xyplot')"><g class="scatterlayer mlayer"><g class="trace scatter trace1020a2" style="stroke-miterlimit: 2; opacity: 1;"><g class="fills"/><g class="errorbars"/><g class="lines"><path class="js-line" d="M0,82.28L5.93,82.51L8.04,120.48L12.23,120.57L13.78,136.92L14.44,136.9L29.95,137.96L30.92,121.23L31.21,129.62L31.92,129.56L33.32,126.37L34.02,126.27L35.43,129.79L36.13,129.7L37.54,132.71L38.24,132.63L39.64,120.69L40.35,120.62L41.75,132.64L42.45,132.55L43.86,126.68L45.97,113.21L46.67,109.51L50.18,74.17L50.88,72.87L52.29,78.78L52.99,77.73L55.1,62.82L56.5,65.47L57.2,64.83L58.61,74.27L59.31,73.83L60.24,51.83L61.42,52.34L62.12,52.21L69.85,51.78L70.55,51.77L78.98,51.11L79.68,50.91L102.86,42.67L103.57,42.44L109.89,40.95L110.59,41.79L122.53,41.47L123.24,41.46L133.77,40.8L134.48,40.69L160.47,36.83L161.17,35.53L188.57,34L189.27,33.87L211.05,31.05L211.75,28.56L235.64,27.81L236.34,95.38L244.09,93.57L244.77,93.44L245.47,93.12L246.17,91.51L249.69,84.67L250.39,79.63L252.5,73.59L253.2,72.39L257.41,67.88L258.12,67.37L261.63,65.43L262.33,65.5L267.25,64.8L267.95,64.77L283.41,63.66L284.11,63.48L289.02,61.32L289.73,60.89L290.43,60.46L291.13,62.78L293.94,61.15L294.65,59.94L298.86,53.24L299.56,52.44L302.37,47.98L303.07,45.51L305.88,38.66L306.59,37.65L310.8,32.89L311.53,32.47L313.61,31.98L314.31,31.8L319.93,31.18L320.64,31.16L331.17,30.17L331.88,29.9L336.09,28.09L336.79,74.81L338.9,72.76L339.61,72.32L345.93,69.16L346.63,68.8L347.17,71.93L347.33,68.39L348,68.25L348.03,69.25L348.7,67.95L348.74,68.94L349.44,68.62L350.85,68.09L351.55,76.43L357.7,73.91L357.72,72.31L357.76,72.03L357.87,73.74L364.54,44.74L364.89,44.87L365.25,41.95L365.95,42.12L366.3,43.2L367.35,37.43L367.7,41.6L368.76,39.66L369.11,39.05L370.16,38.13L370.51,38.96L371.57,38.42L371.92,38.33L372.62,38.4L372.97,43.02L376.84,41.69L377.19,36.5L377.89,35.76L378.24,35.39L380,31.97L380.35,32.01L382.45,22.43L382.8,16L383.16,16.8L383.51,140.18L383.86,139.22L384.21,142.07L384.91,136.79L385.27,138.99L385.62,137.43L385.97,136.15L386.32,136.63L386.67,141.25L387.02,146.68L387.37,133.42L388.08,138.09L388.43,157.2L389.48,133.53L389.83,145.44L390.18,148.42L390.53,146.68L390.88,144.02L391.59,134.36L391.94,135.71L392.29,141.84L392.64,146.05L392.99,142.1L393.34,141.74L393.69,151.77L394.04,141.68L394.4,140.84L394.75,148.68L395.1,138.39L395.45,127.07L395.8,137.58L396.15,139.13L396.5,140.49L396.86,138.92L397.21,134.18L398.26,129.31L398.61,138.25L398.96,134.05L399.31,138.68L399.67,138.81L400.37,131.42L400.72,140.05L401.42,132.48L401.77,138.41L402.48,141.46L402.83,128.79L403.53,142.96L403.88,264.58L404.94,293.12L405.29,304L405.64,286.22L405.99,301.52L406.34,291.75L406.69,292.1L407.04,291.07L407.4,294.16L407.74,293.46L408.1,276.02L408.45,283.67L408.8,262.28L409.5,272.54L409.85,248.89L410.55,241.71L410.9,229.6L411.26,224.98L411.61,228.24L411.96,227.36L413.01,215.22L413.36,217.06L413.71,216.4L414.77,228.38L415.12,228.68L415.47,224.72L415.82,233.57L416.17,224.28L416.53,225.36L416.88,227.75L417.23,223.07L417.58,225.77L417.93,226.33L418.28,223.26L418.63,224.52L418.99,234.01L419.33,220.81L419.69,231.91L420.04,224.2L422.15,212.72L422.5,220.76L423.2,220.72L423.55,223.7L423.9,223.67L424.25,219.37L424.6,223.08L424.95,218.62L425.31,226.76L425.66,225.2L426.01,224.19L426.36,219.51L426.71,225.16L427.76,225.11L428.12,216.49L428.47,225.05L428.82,220.43L429.17,220.57L429.52,218.19L429.87,220.92L430.23,219.84L430.57,227.36L430.93,216.65L431.98,220.31L432.33,220.98L432.68,218.78L433.03,222.11L433.38,223.64L433.73,218.66L434.09,205.85L434.44,215.25L434.79,220.32L435.14,206.18L435.49,206.81L435.84,214.16L436.19,214.11L436.55,206.99L437.25,212.47L437.6,202.23L437.95,199.24L438.31,208.71L438.66,224.84L439,215.2L439.36,214.49L439.71,205.74L440.06,219.6L440.76,195.82L441.11,209.77L441.46,208.24L441.81,203.32L442.16,202.05L442.52,205.17L442.87,200.81L443.22,208.16L443.57,206.35L443.92,209.96L444.27,207.44L444.62,196.45L444.97,195.36L445.33,196.45L445.68,201.41L446.73,210.92L447.08,197.09L447.43,197.31L447.78,191.05L448.14,191.24L448.49,196.07L448.84,200.65L449.19,194.37L450.24,210.5L450.59,204.27L451.3,191.94L451.65,193.62L452,197L452.35,205.03L452.7,197.14L453.05,198.57L454.46,184.28L454.81,189.51L455.51,194.59L455.86,189.23L456.22,191.91L456.57,189.81L456.92,182.31L457.27,187.7L457.62,187L457.97,183.28L458.32,186.18L458.67,185.69L459.03,181.61L459.38,182.61L459.73,186.54L460.43,187.68L460.78,186.58L461.13,181.49L461.48,187.81L462.19,185.81L462.54,187.22L463.25,187L463.6,190.98L463.95,190.65L464.3,194.82L464.65,189.57L465,183.36L465.35,189.2L465.7,186.45L466.75,187.85L467.1,183.53L468.16,187.65L468.51,184.59L469.21,184.25L469.56,185.71L470.62,187.29L470.97,197.68L471.32,197.68L471.67,195.53L472.02,195.52L472.37,190.33L472.72,190.33L473.08,186.49L474.48,194.95L474.83,194.95L475.18,195.4L475.53,193.58L475.89,193.58L476.24,187.5L476.94,187.5L477.29,190.84L478.34,186.75L478.69,187.03L479.05,187.03L479.4,188.23L482.21,181.13L482.56,187.27L482.91,190.9L483.26,187.7L483.61,181.79L483.96,180.91L484.31,182.93L484.66,184.81L485.01,179.55L485.72,190.44L486.07,182.8L486.43,183.07L486.77,174.64L487.83,185.09L488.18,181.21L488.53,181.99L488.88,185.79L489.23,171.39L489.58,177.83L489.93,175.21L490.28,180.5L490.64,179.53L490.99,177.22L492.39,187.84L492.74,182.58L493.09,175.16L493.45,180.33L493.8,178.23L494.5,176.4L494.85,185.95L495.2,175.93L495.55,196.82L496.61,173.22L496.96,177.47L497.31,180.21L497.66,180.03L498.01,179.15L498.71,179.35L499.07,181.21L500.47,176.9L500.82,176.97L501.53,169.69L501.88,173.52L502.23,176.28L502.58,172.21L502.93,173.97L503.28,171L503.98,180.19L504.33,175.33L504.69,171.32L505.74,183.64L506.09,176L507.14,181.54L507.5,176.71L507.85,173.38L508.2,176.61L508.55,186.68L508.9,171.47L509.25,173.34L509.6,176.71L509.96,180.06L510.31,191.51L511.01,169.64L511.36,179.24L511.71,185.08L512.06,178.84L512.41,180.35L513.12,173.52L513.69,177.41L514.17,175.84L514.52,172.35L515.22,178.87L515.58,178.77L515.93,176.54L516.98,180.35L517.33,181.62L517.68,181.6L518.03,184.49L518.38,177.62L518.74,178.94L519.09,178.93L519.44,178.92L519.79,174.71L520.49,182.31L520.85,181.81L521.2,181.81L521.55,181.29L521.9,185.14L522.6,181.68L522.95,185.76L523.65,177.83L524.01,178.11L524.36,178.11L525.76,178.1L526.11,181.35L527.17,177.13L527.52,180.97L527.87,182.3L528.22,178.08L528.57,173.89L528.92,174.32L529.27,178.07L529.62,178.06L529.98,182.07L530.33,173.86L530.68,174.82L531.03,179.2L531.73,175.06L532.08,180.13L532.79,171.51L533.14,183.74L533.49,184.31L533.84,181.03L534.19,176.05L534.54,182.38L534.89,173.59L535.24,174.64L535.6,179.55L535.95,177.66L536.3,183.56L536.65,175.64L537,180.88" style="vector-effect: non-scaling-stroke; fill: none; stroke: rgb(99, 110, 250); stroke-opacity: 1; stroke-width: 2px; opacity: 1;"/></g><g class="points"/><g class="text"/></g></g></g><g class="overplot"/><path class="xlines-above crisp" d="M0,0" style="fill: none;"/><path class="ylines-above crisp" d="M0,0" style="fill: none;"/><g class="overlines-above"/><g class="xaxislayer-above"><g class="xtick"><text text-anchor="middle" x="0" y="433" transform="translate(89.39,0)" style="font-family: 'Open Sans', verdana, arial, sans-serif; font-size: 12px; fill: rgb(42, 63, 95); fill-opacity: 1; white-space: pre;"><tspan class="line" dy="0em" x="0" y="433">Jun 4</tspan><tspan class="line" dy="1.3em" x="0" y="433">2021</tspan></text></g><g class="xtick"><text text-anchor="middle" x="0" y="433" transform="translate(190.55,0)" style="font-family: 'Open Sans', verdana, arial, sans-serif; font-size: 12px; fill: rgb(42, 63, 95); fill-opacity: 1; white-space: pre;">Jun 6</text></g><g class="xtick"><text text-anchor="middle" x="0" y="433" transform="translate(291.71000000000004,0)" style="font-family: 'Open Sans', verdana, arial, sans-serif; font-size: 12px; fill: rgb(42, 63, 95); fill-opacity: 1; white-space: pre;">Jun 8</text></g><g class="xtick"><text text-anchor="middle" x="0" y="433" transform="translate(392.86,0)" style="font-family: 'Open Sans', verdana, arial, sans-serif; font-size: 12px; fill: rgb(42, 63, 95); fill-opacity: 1; white-space: pre;">Jun 10</text></g><g class="xtick"><text text-anchor="middle" x="0" y="433" transform="translate(494.02,0)" style="font-family: 'Open Sans', verdana, arial, sans-serif; font-size: 12px; fill: rgb(42, 63, 95); fill-opacity: 1; white-space: pre;">Jun 12</text></g><g class="xtick"><text text-anchor="middle" x="0" y="433" transform="translate(595.18,0)" style="font-family: 'Open Sans', verdana, arial, sans-serif; font-size: 12px; fill: rgb(42, 63, 95); fill-opacity: 1; white-space: pre;">Jun 14</text></g></g><g class="yaxislayer-above"><g class="ytick"><text text-anchor="end" x="79" y="4.199999999999999" transform="translate(0,367.23)" style="font-family: 'Open Sans', verdana, arial, sans-serif; font-size: 12px; fill: rgb(42, 63, 95); fill-opacity: 1; white-space: pre;">0.8</text></g><g class="ytick"><text text-anchor="end" x="79" y="4.199999999999999" transform="translate(0,308.43)" style="font-family: 'Open Sans', verdana, arial, sans-serif; font-size: 12px; fill: rgb(42, 63, 95); fill-opacity: 1; white-space: pre;">0.82</text></g><g class="ytick"><text text-anchor="end" x="79" y="4.199999999999999" transform="translate(0,249.63)" style="font-family: 'Open Sans', verdana, arial, sans-serif; font-size: 12px; fill: rgb(42, 63, 95); fill-opacity: 1; white-space: pre;">0.84</text></g><g class="ytick"><text text-anchor="end" x="79" y="4.199999999999999" transform="translate(0,190.82999999999998)" style="font-family: 'Open Sans', verdana, arial, sans-serif; font-size: 12px; fill: rgb(42, 63, 95); fill-opacity: 1; white-space: pre;">0.86</text></g><g class="ytick"><text text-anchor="end" x="79" y="4.199999999999999" transform="translate(0,132.03)" style="font-family: 'Open Sans', verdana, arial, sans-serif; font-size: 12px; fill: rgb(42, 63, 95); fill-opacity: 1; white-space: pre;">0.88</text></g></g><g class="overaxes-above"/></g></g><g class="polarlayer"/><g class="ternarylayer"/><g class="geolayer"/><g class="funnelarealayer"/><g class="pielayer"/><g class="treemaplayer"/><g class="sunburstlayer"/><g class="glimages"/><defs id="topdefs-009ec0"><g class="clips"/><clipPath id="legend009ec0"><rect width="60" height="45" x="0" y="0"/></clipPath></defs><g class="layer-above"><g class="imagelayer"/><g class="shapelayer"/></g><g class="infolayer"><g class="legend" pointer-events="all" transform="translate(627.74,100)"><rect class="bg" shape-rendering="crispEdges" width="60" height="45" x="0" y="0" style="stroke: rgb(68, 68, 68); stroke-opacity: 1; fill: rgb(255, 255, 255); fill-opacity: 1; stroke-width: 0px;"/><g class="scrollbox" transform="" clip-path="url('#legend009ec0')"><text class="legendtitletext" text-anchor="start" x="2" y="15.600000000000001" style="font-family: 'Open Sans', verdana, arial, sans-serif; font-size: 12px; fill: rgb(42, 63, 95); fill-opacity: 1; white-space: pre;">All</text><g class="groups" transform=""><g class="traces" transform="translate(0,30.1)" style="opacity: 1;"><text class="legendtext" text-anchor="start" x="40" y="4.680000000000001" style="font-family: 'Open Sans', verdana, arial, sans-serif; font-size: 12px; fill: rgb(42, 63, 95); fill-opacity: 1; white-space: pre;">All</text><g class="layers" style="opacity: 1;"><g class="legendfill"/><g class="legendlines"><path class="js-line" d="M5,0h30" style="fill: none; stroke: rgb(99, 110, 250); stroke-opacity: 1; stroke-width: 2px;"/></g><g class="legendsymbols"><g class="legendpoints"/></g></g><rect class="legendtoggle" x="0" y="-9.5" width="54.890625" height="19" style="fill: rgb(0, 0, 0); fill-opacity: 0;"/></g></g></g><rect class="scrollbar" rx="20" ry="3" width="0" height="0" x="0" y="0" style="fill: rgb(128, 139, 164); fill-opacity: 1;"/></g><g class="g-gtitle"><text class="gtitle" x="35" y="50" text-anchor="start" dy="0em" style="font-family: 'Open Sans', verdana, arial, sans-serif; font-size: 17px; fill: rgb(42, 63, 95); opacity: 1; font-weight: normal; white-space: pre;">Singapore Vaccination Centers</text></g><g class="g-xtitle"><text class="xtitle" x="348.5" y="476.409375" text-anchor="middle" style="font-family: 'Open Sans', verdana, arial, sans-serif; font-size: 14px; fill: rgb(42, 63, 95); opacity: 1; font-weight: normal; white-space: pre;">Time</text></g><g class="g-ytitle"><text class="ytitle" transform="rotate(-90,27.481250000000003,260)" x="27.481250000000003" y="260" text-anchor="middle" style="font-family: 'Open Sans', verdana, arial, sans-serif; font-size: 14px; fill: rgb(42, 63, 95); opacity: 1; font-weight: normal; white-space: pre;">Filled/%</text></g></g></svg>