<svg class="main-svg" xmlns="http://www.w3.org/2000/svg" xmlns:xlink="http://www.w3.org/1999/xlink" width="700" height="500" style="" viewBox="0 0 700 500"><rect x="0" y="0" width="700" height="500" style="fill: rgb(255, 255, 255); fill-opacity: 1;"/><defs id="defs-6846b8"><g class="clips"><clipPath id="clip6846b8xyplot" class="plotclip"><rect width="537" height="320"/></clipPath><clipPath class="axesclip" id="clip6846b8x"><rect x="80" y="0" width="537" height="500"/></clipPath><clipPath class="axesclip" id="clip6846b8y"><rect x="0" y="100" width="700" height="320"/></clipPath><clipPath class="axesclip" id="clip6846b8xy"><rect x="80" y="100" width="537" height="320"/></clipPath></g><g class="gradients"/></defs><g class="bglayer"><rect class="bg" x="80" y="100" width="537" height="320" style="fill: rgb(229, 236, 246); fill-opacity: 1; stroke-width: 0;"/></g><g class="layer-below"><g class="imagelayer"/><g class="shapelayer"/></g><g class="cartesianlayer"><g class="subplot xy"><g class="layer-subplot"><g class="shapelayer"/><g class="imagelayer"/></g><g class="gridlayer"><g class="x"><path class="xgrid crisp" transform="translate(89.65,0)" d="M0,100v320" style="stroke: rgb(255, 255, 255); stroke-opacity: 1; stroke-width: 1px;"/><path class="xgrid crisp" transform="translate(193.6,0)" d="M0,100v320" style="stroke: rgb(255, 255, 255); stroke-opacity: 1; stroke-width: 1px;"/><path class="xgrid crisp" transform="translate(297.53999999999996,0)" d="M0,100v320" style="stroke: rgb(255, 255, 255); stroke-opacity: 1; stroke-width: 1px;"/><path class="xgrid crisp" transform="translate(401.48,0)" d="M0,100v320" style="stroke: rgb(255, 255, 255); stroke-opacity: 1; stroke-width: 1px;"/><path class="xgrid crisp" transform="translate(505.43,0)" d="M0,100v320" style="stroke: rgb(255, 255, 255); stroke-opacity: 1; stroke-width: 1px;"/><path class="xgrid crisp" transform="translate(609.37,0)" d="M0,100v320" style="stroke: rgb(255, 255, 255); stroke-opacity: 1; stroke-width: 1px;"/></g><g class="y"><path class="ygrid crisp" transform="translate(0,367.23)" d="M80,0h537" style="stroke: rgb(255, 255, 255); stroke-opacity: 1; stroke-width: 1px;"/><path class="ygrid crisp" transform="translate(0,308.43)" d="M80,0h537" style="stroke: rgb(255, 255, 255); stroke-opacity: 1; stroke-width: 1px;"/><path class="ygrid crisp" transform="translate(0,249.63)" d="M80,0h537" style="stroke: rgb(255, 255, 255); stroke-opacity: 1; stroke-width: 1px;"/><path class="ygrid crisp" transform="translate(0,190.82999999999998)" d="M80,0h537" style="stroke: rgb(255, 255, 255); stroke-opacity: 1; stroke-width: 1px;"/><path class="ygrid crisp" transform="translate(0,132.03)" d="M80,0h537" style="stroke: rgb(255, 255, 255); stroke-opacity: 1; stroke-width: 1px;"/></g></g><g class="zerolinelayer"/><path class="xlines-below"/><path class="ylines-below"/><g class="overlines-below"/><g class="xaxislayer-below"/><g class="yaxislayer-below"/><g class="overaxes-below"/><g class="plot" transform="translate(80,100)" clip-path="url('#clip6846b8xyplot')"><g class="scatterlayer mlayer"><g class="trace scatter traceb535f5" style="stroke-miterlimit: 2; opacity: 1;"><g class="fills"/><g class="errorbars"/><g class="lines"><path class="js-line" d="M0,82.28L6.1,82.51L8.26,120.48L12.56,120.57L14.16,136.92L14.84,136.9L30.78,137.96L31.77,121.23L32.07,129.62L32.8,129.56L34.24,126.37L34.96,126.27L36.4,129.79L37.13,129.7L38.57,132.71L39.29,132.63L40.73,120.69L41.46,120.62L42.9,132.64L43.62,132.55L45.07,126.68L47.23,113.21L47.95,109.51L51.56,74.17L52.28,72.87L53.73,78.78L54.45,77.73L56.61,62.82L58.06,65.47L58.78,64.83L60.22,74.27L60.95,73.83L61.9,51.83L63.11,52.34L63.83,52.21L71.77,51.78L72.49,51.77L81.16,51.11L81.88,50.91L106.42,42.44L107.14,42.24L112.92,40.95L113.64,41.79L126.63,41.46L127.35,41.46L138.9,40.58L139.62,40.48L163.44,36.99L164.17,36.9L164.89,36.83L165.61,35.53L193.76,34L194.48,33.87L216.86,31.05L217.59,28.56L242.13,27.81L242.85,95.38L250.81,93.57L251.51,93.44L252.24,93.12L252.96,91.51L255.12,88.51L255.84,87.52L259.45,73.59L260.17,72.39L264.5,67.88L265.23,67.37L268.84,65.43L269.56,65.5L274.61,64.8L275.34,64.77L291.21,63.66L291.94,63.48L296.99,61.32L297.71,60.89L298.43,60.46L299.15,62.78L302.04,61.15L302.76,59.94L307.09,53.24L307.82,52.44L310.7,47.98L311.42,45.51L314.31,38.66L315.03,37.65L319.36,32.89L320.11,32.47L322.25,31.98L322.97,31.8L328.75,31.18L329.47,31.16L340.3,30.17L341.02,29.9L345.35,28.09L346.07,74.81L348.24,72.76L348.96,72.32L355.46,69.16L356.18,68.8L356.73,71.93L356.9,68.39L357.59,68.25L357.62,69.25L358.31,67.95L358.35,68.94L359.07,68.62L360.51,68.09L361.23,76.43L367.55,73.91L367.58,72.31L367.62,72.03L367.73,73.74L374.59,44.74L374.95,44.87L375.31,41.95L376.03,42.12L376.39,43.2L377.47,37.43L377.84,41.6L378.92,39.66L379.28,39.05L380.36,38.13L380.72,38.96L381.81,38.42L382.17,38.33L382.89,38.4L383.25,43.02L387.22,41.69L387.58,36.5L388.3,35.76L388.66,35.39L390.47,31.97L390.83,32.01L392.99,22.43L393.35,16L393.71,16.8L394.08,140.18L394.44,139.22L394.8,142.07L395.52,136.79L395.88,138.99L396.24,137.43L396.6,136.15L396.96,136.63L397.32,141.25L397.68,146.68L398.05,133.42L398.77,138.09L399.13,157.2L400.21,133.53L400.57,145.44L400.93,148.42L401.29,146.68L401.65,144.02L402.38,134.36L402.74,135.71L403.1,141.84L403.46,146.05L403.82,142.1L404.18,141.74L404.54,151.77L404.9,141.68L405.26,140.84L405.62,148.68L405.98,138.39L406.35,127.07L406.71,137.58L407.07,139.13L407.43,140.49L407.79,138.92L408.15,134.18L409.23,129.31L409.59,138.25L409.96,134.05L410.32,138.68L410.68,138.81L411.04,131.49L411.4,131.42L411.76,140.05L412.48,132.48L412.84,138.41L413.57,141.46L413.93,128.79L414.65,142.96L415.01,264.58L416.09,293.12L416.45,304L416.82,286.22L417.17,301.52L417.54,291.75L417.9,292.1L418.26,291.07L418.62,294.16L418.98,293.46L419.34,276.02L419.7,283.67L420.06,262.28L420.78,272.54L421.14,248.89L421.87,241.71L422.23,229.6L422.59,224.98L422.95,228.24L423.31,227.36L424.39,215.22L424.75,217.06L425.11,216.4L425.47,227.08L425.84,226.08L426.2,228.38L426.56,228.68L426.92,224.72L427.28,233.57L427.64,224.28L428,225.36L428.36,227.75L428.72,223.07L429.45,226.33L429.81,223.26L430.17,224.52L430.53,234.01L430.89,220.81L431.25,231.91L431.61,224.2L433.78,212.72L434.14,220.76L434.86,220.72L435.22,223.7L435.58,223.67L435.94,219.37L436.3,223.08L436.66,218.62L437.02,226.76L437.39,225.2L437.75,224.19L438.11,219.51L438.47,225.16L439.55,225.11L439.91,216.49L440.27,225.05L440.63,220.43L440.99,220.57L441.36,218.19L441.72,220.92L442.08,219.84L442.44,227.36L442.8,216.65L443.16,220.1L443.52,220.01L444.24,220.98L444.6,218.78L445.32,223.64L445.68,218.66L446.05,205.85L446.41,215.25L446.77,220.32L447.13,206.18L447.49,206.81L447.85,214.16L448.21,214.11L448.57,206.99L449.3,212.47L449.66,202.23L450.02,199.24L450.38,208.71L450.74,224.84L451.1,215.2L451.46,214.49L451.82,205.74L452.18,219.6L452.9,195.82L453.27,209.77L453.63,208.24L453.99,203.32L454.35,202.05L454.71,205.17L455.07,200.81L455.43,208.16L455.79,206.35L456.15,209.96L456.51,207.44L456.87,196.45L457.23,195.36L457.6,196.45L457.96,201.41L459.04,210.92L459.4,197.09L459.76,197.31L460.12,191.05L460.48,191.24L460.84,196.07L461.21,200.65L461.57,194.37L462.65,210.5L463.01,204.27L463.73,191.94L464.09,193.62L464.45,197L464.81,205.03L465.18,197.14L465.53,198.57L466.98,184.28L467.34,189.51L468.06,194.59L468.42,189.23L468.79,191.91L469.15,189.81L469.51,182.31L469.87,187.7L470.23,187L470.59,183.28L470.95,186.18L471.31,185.69L471.68,181.61L472.04,182.61L472.4,186.54L473.12,187.68L473.48,186.58L473.84,181.49L474.2,187.81L474.92,185.81L475.28,187.22L475.64,189.17L476.01,187L477.09,194.82L477.45,189.57L477.81,183.36L478.17,189.2L478.53,186.45L479.61,187.85L479.97,183.53L481.06,187.65L481.42,184.59L482.14,184.25L482.5,185.71L483.58,187.29L483.95,197.68L484.3,197.68L484.67,195.53L485.03,195.52L485.39,190.33L485.75,190.33L486.11,186.49L487.56,194.95L487.91,194.95L488.28,195.4L488.64,193.58L489,193.58L489.36,187.5L490.08,187.5L490.44,190.84L491.52,186.75L491.88,187.03L492.25,187.03L492.61,188.23L495.49,181.13L495.85,187.27L496.21,190.9L496.58,187.7L496.94,181.79L497.3,180.91L497.66,182.93L498.02,184.81L498.38,179.55L499.1,190.44L499.46,182.8L499.83,183.07L500.18,174.64L501.27,185.09L501.63,181.21L501.99,181.99L502.35,185.79L502.71,171.39L503.07,177.83L503.43,175.21L503.79,180.5L504.16,179.53L504.51,177.22L505.96,187.84L506.32,182.58L506.68,175.16L507.04,180.33L507.4,178.23L508.12,176.4L508.49,185.95L508.85,175.93L509.21,196.82L510.29,173.22L510.65,177.47L511.01,180.21L511.37,180.03L511.73,179.15L512.45,179.35L512.82,181.21L514.26,176.9L514.62,176.97L515.34,169.69L515.7,173.52L516.07,176.28L516.43,172.21L516.79,173.97L517.15,171L517.87,180.19L518.23,175.33L518.59,171.32L518.95,174.66L519.31,174.4L519.67,183.64L520.04,176L520.4,180.08L520.76,179.71L521.12,181.54L521.84,173.38L522.2,176.61L522.56,186.68L522.92,171.47L523.28,173.34L523.64,176.71L524.01,180.06L524.37,191.51L525.09,169.64L525.45,179.24L525.81,185.08L526.17,178.84L526.53,180.35L527.26,173.52L527.84,177.41L528.34,175.84L528.7,172.35L529.42,178.87L529.78,178.77L530.14,176.54L531.22,180.35L531.59,181.62L531.95,181.6L532.31,184.49L532.67,177.62L533.03,178.94L533.39,178.93L533.75,178.92L534.11,174.71L534.83,182.31L535.2,181.81L535.56,181.81L535.92,181.29L536.28,185.14L537,181.68" style="vector-effect: non-scaling-stroke; fill: none; stroke: rgb(99, 110, 250); stroke-opacity: 1; stroke-width: 2px; opacity: 1;"/></g><g class="points"/><g class="text"/></g></g></g><g class="overplot"/><path class="xlines-above crisp" d="M0,0" style="fill: none;"/><path class="ylines-above crisp" d="M0,0" style="fill: none;"/><g class="overlines-above"/><g class="xaxislayer-above"><g class="xtick"><text text-anchor="middle" x="0" y="433" transform="translate(89.65,0)" style="font-family: 'Open Sans', verdana, arial, sans-serif; font-size: 12px; fill: rgb(42, 63, 95); fill-opacity: 1; white-space: pre;"><tspan class="line" dy="0em" x="0" y="433">Jun 4</tspan><tspan class="line" dy="1.3em" x="0" y="433">2021</tspan></text></g><g class="xtick"><text text-anchor="middle" x="0" y="433" transform="translate(193.6,0)" style="font-family: 'Open Sans', verdana, arial, sans-serif; font-size: 12px; fill: rgb(42, 63, 95); fill-opacity: 1; white-space: pre;">Jun 6</text></g><g class="xtick"><text text-anchor="middle" x="0" y="433" transform="translate(297.53999999999996,0)" style="font-family: 'Open Sans', verdana, arial, sans-serif; font-size: 12px; fill: rgb(42, 63, 95); fill-opacity: 1; white-space: pre;">Jun 8</text></g><g class="xtick"><text text-anchor="middle" x="0" y="433" transform="translate(401.48,0)" style="font-family: 'Open Sans', verdana, arial, sans-serif; font-size: 12px; fill: rgb(42, 63, 95); fill-opacity: 1; white-space: pre;">Jun 10</text></g><g class="xtick"><text text-anchor="middle" x="0" y="433" transform="translate(505.43,0)" style="font-family: 'Open Sans', verdana, arial, sans-serif; font-size: 12px; fill: rgb(42, 63, 95); fill-opacity: 1; white-space: pre;">Jun 12</text></g><g class="xtick"><text text-anchor="middle" x="0" y="433" transform="translate(609.37,0)" style="font-family: 'Open Sans', verdana, arial, sans-serif; font-size: 12px; fill: rgb(42, 63, 95); fill-opacity: 1; white-space: pre;">Jun 14</text></g></g><g class="yaxislayer-above"><g class="ytick"><text text-anchor="end" x="79" y="4.199999999999999" transform="translate(0,367.23)" style="font-family: 'Open Sans', verdana, arial, sans-serif; font-size: 12px; fill: rgb(42, 63, 95); fill-opacity: 1; white-space: pre;">0.8</text></g><g class="ytick"><text text-anchor="end" x="79" y="4.199999999999999" transform="translate(0,308.43)" style="font-family: 'Open Sans', verdana, arial, sans-serif; font-size: 12px; fill: rgb(42, 63, 95); fill-opacity: 1; white-space: pre;">0.82</text></g><g class="ytick"><text text-anchor="end" x="79" y="4.199999999999999" transform="translate(0,249.63)" style="font-family: 'Open Sans', verdana, arial, sans-serif; font-size: 12px; fill: rgb(42, 63, 95); fill-opacity: 1; white-space: pre;">0.84</text></g><g class="ytick"><text text-anchor="end" x="79" y="4.199999999999999" transform="translate(0,190.82999999999998)" style="font-family: 'Open Sans', verdana, arial, sans-serif; font-size: 12px; fill: rgb(42, 63, 95); fill-opacity: 1; white-space: pre;">0.86</text></g><g class="ytick"><text text-anchor="end" x="79" y="4.199999999999999" transform="translate(0,132.03)" style="font-family: 'Open Sans', verdana, arial, sans-serif; font-size: 12px; fill: rgb(42, 63, 95); fill-opacity: 1; white-space: pre;">0.88</text></g></g><g class="overaxes-above"/></g></g><g class="polarlayer"/><g class="ternarylayer"/><g class="geolayer"/><g class="funnelarealayer"/><g class="pielayer"/><g class="treemaplayer"/><g class="sunburstlayer"/><g class="glimages"/><defs id="topdefs-6846b8"><g class="clips"/><clipPath id="legend6846b8"><rect width="60" height="45" x="0" y="0"/></clipPath></defs><g class="layer-above"><g class="imagelayer"/><g class="shapelayer"/></g><g class="infolayer"><g class="legend" pointer-events="all" transform="translate(627.74,100)"><rect class="bg" shape-rendering="crispEdges" width="60" height="45" x="0" y="0" style="stroke: rgb(68, 68, 68); stroke-opacity: 1; fill: rgb(255, 255, 255); fill-opacity: 1; stroke-width: 0px;"/><g class="scrollbox" transform="" clip-path="url('#legend6846b8')"><text class="legendtitletext" text-anchor="start" x="2" y="15.600000000000001" style="font-family: 'Open Sans', verdana, arial, sans-serif; font-size: 12px; fill: rgb(42, 63, 95); fill-opacity: 1; white-space: pre;">All</text><g class="groups" transform=""><g class="traces" transform="translate(0,30.1)" style="opacity: 1;"><text class="legendtext" text-anchor="start" x="40" y="4.680000000000001" style="font-family: 'Open Sans', verdana, arial, sans-serif; font-size: 12px; fill: rgb(42, 63, 95); fill-opacity: 1; white-space: pre;">All</text><g class="layers" style="opacity: 1;"><g class="legendfill"/><g class="legendlines"><path class="js-line" d="M5,0h30" style="fill: none; stroke: rgb(99, 110, 250); stroke-opacity: 1; stroke-width: 2px;"/></g><g class="legendsymbols"><g class="legendpoints"/></g></g><rect class="legendtoggle" x="0" y="-9.5" width="54.890625" height="19" style="fill: rgb(0, 0, 0); fill-opacity: 0;"/></g></g></g><rect class="scrollbar" rx="20" ry="3" width="0" height="0" x="0" y="0" style="fill: rgb(128, 139, 164); fill-opacity: 1;"/></g><g class="g-gtitle"><text class="gtitle" x="35" y="50" text-anchor="start" dy="0em" style="font-family: 'Open Sans', verdana, arial, sans-serif; font-size: 17px; fill: rgb(42, 63, 95); opacity: 1; font-weight: normal; white-space: pre;">Singapore Vaccination Centers</text></g><g class="g-xtitle"><text class="xtitle" x="348.5" y="476.409375" text-anchor="middle" style="font-family: 'Open Sans', verdana, arial, sans-serif; font-size: 14px; fill: rgb(42, 63, 95); opacity: 1; font-weight: normal; white-space: pre;">Time</text></g><g class="g-ytitle"><text class="ytitle" transform="rotate(-90,27.481250000000003,260)" x="27.481250000000003" y="260" text-anchor="middle" style="font-family: 'Open Sans', verdana, arial, sans-serif; font-size: 14px; fill: rgb(42, 63, 95); opacity: 1; font-weight: normal; white-space: pre;">Filled/%</text></g></g></svg>