<svg class="main-svg" xmlns="http://www.w3.org/2000/svg" xmlns:xlink="http://www.w3.org/1999/xlink" width="700" height="500" style="" viewBox="0 0 700 500"><rect x="0" y="0" width="700" height="500" style="fill: rgb(255, 255, 255); fill-opacity: 1;"/><defs id="defs-e5cf92"><g class="clips"><clipPath id="clipe5cf92xyplot" class="plotclip"><rect width="537" height="320"/></clipPath><clipPath class="axesclip" id="clipe5cf92x"><rect x="80" y="0" width="537" height="500"/></clipPath><clipPath class="axesclip" id="clipe5cf92y"><rect x="0" y="100" width="700" height="320"/></clipPath><clipPath class="axesclip" id="clipe5cf92xy"><rect x="80" y="100" width="537" height="320"/></clipPath></g><g class="gradients"/></defs><g class="bglayer"><rect class="bg" x="80" y="100" width="537" height="320" style="fill: rgb(229, 236, 246); fill-opacity: 1; stroke-width: 0;"/></g><g class="layer-below"><g class="imagelayer"/><g class="shapelayer"/></g><g class="cartesianlayer"><g class="subplot xy"><g class="layer-subplot"><g class="shapelayer"/><g class="imagelayer"/></g><g class="gridlayer"><g class="x"><path class="xgrid crisp" transform="translate(85.92,0)" d="M0,100v320" style="stroke: rgb(255, 255, 255); stroke-opacity: 1; stroke-width: 1px;"/><path class="xgrid crisp" transform="translate(200.01,0)" d="M0,100v320" style="stroke: rgb(255, 255, 255); stroke-opacity: 1; stroke-width: 1px;"/><path class="xgrid crisp" transform="translate(314.1,0)" d="M0,100v320" style="stroke: rgb(255, 255, 255); stroke-opacity: 1; stroke-width: 1px;"/><path class="xgrid crisp" transform="translate(428.2,0)" d="M0,100v320" style="stroke: rgb(255, 255, 255); stroke-opacity: 1; stroke-width: 1px;"/><path class="xgrid crisp" transform="translate(542.29,0)" d="M0,100v320" style="stroke: rgb(255, 255, 255); stroke-opacity: 1; stroke-width: 1px;"/></g><g class="y"><path class="ygrid crisp" transform="translate(0,390.96)" d="M80,0h537" style="stroke: rgb(255, 255, 255); stroke-opacity: 1; stroke-width: 1px;"/><path class="ygrid crisp" transform="translate(0,342.24)" d="M80,0h537" style="stroke: rgb(255, 255, 255); stroke-opacity: 1; stroke-width: 1px;"/><path class="ygrid crisp" transform="translate(0,293.51)" d="M80,0h537" style="stroke: rgb(255, 255, 255); stroke-opacity: 1; stroke-width: 1px;"/><path class="ygrid crisp" transform="translate(0,244.79)" d="M80,0h537" style="stroke: rgb(255, 255, 255); stroke-opacity: 1; stroke-width: 1px;"/><path class="ygrid crisp" transform="translate(0,196.07)" d="M80,0h537" style="stroke: rgb(255, 255, 255); stroke-opacity: 1; stroke-width: 1px;"/><path class="ygrid crisp" transform="translate(0,147.35)" d="M80,0h537" style="stroke: rgb(255, 255, 255); stroke-opacity: 1; stroke-width: 1px;"/></g></g><g class="zerolinelayer"/><path class="xlines-below"/><path class="ylines-below"/><g class="overlines-below"/><g class="xaxislayer-below"/><g class="yaxislayer-below"/><g class="overaxes-below"/><g class="plot" transform="translate(80,100)" clip-path="url('#clipe5cf92xyplot')"><g class="scatterlayer mlayer"><g class="trace scatter trace9fe8f0" style="stroke-miterlimit: 2; opacity: 1;"><g class="fills"/><g class="errorbars"/><g class="lines"><path class="js-line" d="M0,304L4.57,302.39L6.15,242.21L7.74,243.68L9.33,241.76L15.66,241.03L17.24,240.59L20.42,241.47L22,240.44L23.63,241.18L25.17,240.88L31.5,239.85L33.1,240.14L36.27,239.26L37.85,239.26L41.01,239.26L42.59,239.26L47.36,238.97L48.94,238.82L53.69,238.67L55.27,238.82L60.03,238.08L61.61,237.64L64.79,237.79L66.37,237.05L69.53,236.9L71.11,236.17L72.71,236.76L74.29,236.31L75.87,235.28L77.46,235.58L79.04,236.31L80.63,234.55L85.38,233.52L86.96,234.1L88.55,233.66L90.14,234.69L91.71,233.66L93.31,231.31L96.47,231.89L98.06,230.86L104.4,228.65L105.98,227.62L109.14,229.1L110.74,227.77L112.31,225.41L113.9,226L115.48,227.18L117.07,225.41L120.24,222.76L121.83,222.32L125,220.4L126.58,220.99L129.74,219.67L131.33,219.96L132.92,221.73L134.5,219.22L139.26,220.4L140.84,219.96L144.02,215.69L145.6,215.25L147.18,216.13L148.76,214.66L150.35,214.81L151.93,216.72L153.52,216.43L155.1,214.66L159.86,211.12L161.44,209.65L163.02,206.56L164.61,207.29L167.78,204.49L169.37,205.38L172.53,205.67L174.11,206.85L180.47,204.35L182.04,204.2L185.21,203.46L186.8,202.28L188.38,201.84L189.97,202.43L191.56,203.76L193.13,203.76L196.3,201.25L197.89,200.96L202.64,200.07L204.23,199.48L205.81,198.6L207.4,199.04L215.32,198.75L216.91,199.04L220.07,197.42L221.66,195.65L223.24,194.33L224.83,194.33L226.42,193.44L228,194.48L232.75,194.62L234.34,119.8L239.09,117.43L240.68,117.72L243.84,117.13L245.43,116.09L248.6,116.24L250.19,116.24L256.52,115.5L258.1,115.35L262.85,114.75L264.44,114.9L278.7,114.9L280.29,115.05L291.38,114.75L292.96,114.01L297.71,114.01L299.3,112.82L305.63,112.97L307.22,112.38L310.39,112.52L311.97,111.78L315.15,111.04L316.73,111.78L321.48,108.36L323.06,108.36L324.65,109.55L326.23,109.11L329.41,107.62L330.99,108.36L334.17,105.99L335.74,105.99L337.33,104.06L338.91,105.99L345.25,102.57L346.84,103.61L350,101.83L351.59,103.16L353.17,104.35L354.76,103.31L356.35,104.5L357.93,103.91L359.51,102.87L361.09,104.06L362.68,103.31L364.26,103.76L367.44,104.95L369.02,104.5L372.21,103.16L373.8,101.83L375.38,100.19L376.97,99.9L380.14,100.64L381.72,101.23L383.31,99.01L384.89,98.71L389.65,97.97L391.23,96.03L395.99,97.22L397.57,96.63L400.74,92.62L402.32,94.4L403.91,94.4L405.49,93.06L407.08,94.1L408.66,93.51L411.83,91.43L413.42,91.58L418.17,88.01L419.75,88.16L422.93,85.49L424.51,86.38L427.67,84L429.26,84.6L434.01,83.85L435.6,80.88L437.18,80.73L438.76,79.54L440.36,77.91L441.94,78.21L443.52,78.5L445.1,79.84L446.7,80.58L448.28,79.84L449.87,82.07L451.45,81.18L453.03,81.03L454.61,79.25L456.2,78.8L457.78,79.4L460.95,79.69L462.54,27.54L465.7,25.44L467.29,25.14L470.46,24.39L472.05,23.34L476.8,22.74L478.38,22.44L484.72,20.94L486.3,19.9L489.48,19.6L491.06,20.19L495.82,18.85L497.4,19L516.41,17.5L517.99,17.8L524.34,16.75L525.92,17.05L527.5,16.45L529.09,16.75L530.67,17.2L532.25,16.6L533.84,16.75L535.42,16L537,16.15" style="vector-effect: non-scaling-stroke; fill: none; stroke: rgb(99, 110, 250); stroke-opacity: 1; stroke-width: 2px; opacity: 1;"/></g><g class="points"/><g class="text"/></g></g></g><g class="overplot"/><path class="xlines-above crisp" d="M0,0" style="fill: none;"/><path class="ylines-above crisp" d="M0,0" style="fill: none;"/><g class="overlines-above"/><g class="xaxislayer-above"><g class="xtick"><text text-anchor="middle" x="0" y="433" transform="translate(85.92,0)" style="font-family: 'Open Sans', verdana, arial, sans-serif; font-size: 12px; fill: rgb(42, 63, 95); fill-opacity: 1; white-space: pre;"><tspan class="line" dy="0em" x="0" y="433">00:00</tspan><tspan class="line" dy="1.3em" x="0" y="433">Aug 3, 2021</tspan></text></g><g class="xtick"><text text-anchor="middle" x="0" y="433" transform="translate(200.01,0)" style="font-family: 'Open Sans', verdana, arial, sans-serif; font-size: 12px; fill: rgb(42, 63, 95); fill-opacity: 1; white-space: pre;">12:00</text></g><g class="xtick"><text text-anchor="middle" x="0" y="433" transform="translate(314.1,0)" style="font-family: 'Open Sans', verdana, arial, sans-serif; font-size: 12px; fill: rgb(42, 63, 95); fill-opacity: 1; white-space: pre;"><tspan class="line" dy="0em" x="0" y="433">00:00</tspan><tspan class="line" dy="1.3em" x="0" y="433">Aug 4, 2021</tspan></text></g><g class="xtick"><text text-anchor="middle" x="0" y="433" transform="translate(428.2,0)" style="font-family: 'Open Sans', verdana, arial, sans-serif; font-size: 12px; fill: rgb(42, 63, 95); fill-opacity: 1; white-space: pre;">12:00</text></g><g class="xtick"><text text-anchor="middle" x="0" y="433" transform="translate(542.29,0)" style="font-family: 'Open Sans', verdana, arial, sans-serif; font-size: 12px; fill: rgb(42, 63, 95); fill-opacity: 1; white-space: pre;"><tspan class="line" dy="0em" x="0" y="433">00:00</tspan><tspan class="line" dy="1.3em" x="0" y="433">Aug 5, 2021</tspan></text></g></g><g class="yaxislayer-above"><g class="ytick"><text text-anchor="end" x="79" y="4.199999999999999" transform="translate(0,390.96)" style="font-family: 'Open Sans', verdana, arial, sans-serif; font-size: 12px; fill: rgb(42, 63, 95); fill-opacity: 1; white-space: pre;">0.864</text></g><g class="ytick"><text text-anchor="end" x="79" y="4.199999999999999" transform="translate(0,342.24)" style="font-family: 'Open Sans', verdana, arial, sans-serif; font-size: 12px; fill: rgb(42, 63, 95); fill-opacity: 1; white-space: pre;">0.865</text></g><g class="ytick"><text text-anchor="end" x="79" y="4.199999999999999" transform="translate(0,293.51)" style="font-family: 'Open Sans', verdana, arial, sans-serif; font-size: 12px; fill: rgb(42, 63, 95); fill-opacity: 1; white-space: pre;">0.866</text></g><g class="ytick"><text text-anchor="end" x="79" y="4.199999999999999" transform="translate(0,244.79)" style="font-family: 'Open Sans', verdana, arial, sans-serif; font-size: 12px; fill: rgb(42, 63, 95); fill-opacity: 1; white-space: pre;">0.867</text></g><g class="ytick"><text text-anchor="end" x="79" y="4.199999999999999" transform="translate(0,196.07)" style="font-family: 'Open Sans', verdana, arial, sans-serif; font-size: 12px; fill: rgb(42, 63, 95); fill-opacity: 1; white-space: pre;">0.868</text></g><g class="ytick"><text text-anchor="end" x="79" y="4.199999999999999" transform="translate(0,147.35)" style="font-family: 'Open Sans', verdana, arial, sans-serif; font-size: 12px; fill: rgb(42, 63, 95); fill-opacity: 1; white-space: pre;">0.869</text></g></g><g class="overaxes-above"/></g></g><g class="polarlayer"/><g class="ternarylayer"/><g class="geolayer"/><g class="funnelarealayer"/><g class="pielayer"/><g class="treemaplayer"/><g class="sunburstlayer"/><g class="glimages"/><defs id="topdefs-e5cf92"><g class="clips"/><clipPath id="legende5cf92"><rect width="60" height="45" x="0" y="0"/></clipPath></defs><g class="layer-above"><g class="imagelayer"/><g class="shapelayer"/></g><g class="infolayer"><g class="legend" pointer-events="all" transform="translate(627.74,100)"><rect class="bg" shape-rendering="crispEdges" width="60" height="45" x="0" y="0" style="stroke: rgb(68, 68, 68); stroke-opacity: 1; fill: rgb(255, 255, 255); fill-opacity: 1; stroke-width: 0px;"/><g class="scrollbox" transform="" clip-path="url('#legende5cf92')"><text class="legendtitletext" text-anchor="start" x="2" y="15.600000000000001" style="font-family: 'Open Sans', verdana, arial, sans-serif; font-size: 12px; fill: rgb(42, 63, 95); fill-opacity: 1; white-space: pre;">All</text><g class="groups" transform=""><g class="traces" transform="translate(0,30.1)" style="opacity: 1;"><text class="legendtext" text-anchor="start" x="40" y="4.680000000000001" style="font-family: 'Open Sans', verdana, arial, sans-serif; font-size: 12px; fill: rgb(42, 63, 95); fill-opacity: 1; white-space: pre;">All</text><g class="layers" style="opacity: 1;"><g class="legendfill"/><g class="legendlines"><path class="js-line" d="M5,0h30" style="fill: none; stroke: rgb(99, 110, 250); stroke-opacity: 1; stroke-width: 2px;"/></g><g class="legendsymbols"><g class="legendpoints"/></g></g><rect class="legendtoggle" x="0" y="-9.5" width="54.890625" height="19" style="fill: rgb(0, 0, 0); fill-opacity: 0;"/></g></g></g><rect class="scrollbar" rx="20" ry="3" width="0" height="0" x="0" y="0" style="fill: rgb(128, 139, 164); fill-opacity: 1;"/></g><g class="g-gtitle"><text class="gtitle" x="35" y="50" text-anchor="start" dy="0em" style="font-family: 'Open Sans', verdana, arial, sans-serif; font-size: 17px; fill: rgb(42, 63, 95); opacity: 1; font-weight: normal; white-space: pre;">Singapore Vaccination Centers</text></g><g class="g-xtitle"><text class="xtitle" x="348.5" y="476.409375" text-anchor="middle" style="font-family: 'Open Sans', verdana, arial, sans-serif; font-size: 14px; fill: rgb(42, 63, 95); opacity: 1; font-weight: normal; white-space: pre;">Time</text></g><g class="g-ytitle"><text class="ytitle" transform="rotate(-90,19.840625000000003,260)" x="19.840625000000003" y="260" text-anchor="middle" style="font-family: 'Open Sans', verdana, arial, sans-serif; font-size: 14px; fill: rgb(42, 63, 95); opacity: 1; font-weight: normal; white-space: pre;">Filled/%</text></g></g></svg>