<svg class="main-svg" xmlns="http://www.w3.org/2000/svg" xmlns:xlink="http://www.w3.org/1999/xlink" width="700" height="500" style="" viewBox="0 0 700 500"><rect x="0" y="0" width="700" height="500" style="fill: rgb(255, 255, 255); fill-opacity: 1;"/><defs id="defs-d08afd"><g class="clips"><clipPath id="clipd08afdxyplot" class="plotclip"><rect width="537" height="320"/></clipPath><clipPath class="axesclip" id="clipd08afdx"><rect x="80" y="0" width="537" height="500"/></clipPath><clipPath class="axesclip" id="clipd08afdy"><rect x="0" y="100" width="700" height="320"/></clipPath><clipPath class="axesclip" id="clipd08afdxy"><rect x="80" y="100" width="537" height="320"/></clipPath></g><g class="gradients"/></defs><g class="bglayer"><rect class="bg" x="80" y="100" width="537" height="320" style="fill: rgb(229, 236, 246); fill-opacity: 1; stroke-width: 0;"/></g><g class="layer-below"><g class="imagelayer"/><g class="shapelayer"/></g><g class="cartesianlayer"><g class="subplot xy"><g class="layer-subplot"><g class="shapelayer"/><g class="imagelayer"/></g><g class="gridlayer"><g class="x"><path class="xgrid crisp" transform="translate(83.2,0)" d="M0,100v320" style="stroke: rgb(255, 255, 255); stroke-opacity: 1; stroke-width: 1px;"/><path class="xgrid crisp" transform="translate(206.35,0)" d="M0,100v320" style="stroke: rgb(255, 255, 255); stroke-opacity: 1; stroke-width: 1px;"/><path class="xgrid crisp" transform="translate(329.51,0)" d="M0,100v320" style="stroke: rgb(255, 255, 255); stroke-opacity: 1; stroke-width: 1px;"/><path class="xgrid crisp" transform="translate(452.66,0)" d="M0,100v320" style="stroke: rgb(255, 255, 255); stroke-opacity: 1; stroke-width: 1px;"/><path class="xgrid crisp" transform="translate(575.8199999999999,0)" d="M0,100v320" style="stroke: rgb(255, 255, 255); stroke-opacity: 1; stroke-width: 1px;"/></g><g class="y"><path class="ygrid crisp" transform="translate(0,392.55)" d="M80,0h537" style="stroke: rgb(255, 255, 255); stroke-opacity: 1; stroke-width: 1px;"/><path class="ygrid crisp" transform="translate(0,349.77)" d="M80,0h537" style="stroke: rgb(255, 255, 255); stroke-opacity: 1; stroke-width: 1px;"/><path class="ygrid crisp" transform="translate(0,306.99)" d="M80,0h537" style="stroke: rgb(255, 255, 255); stroke-opacity: 1; stroke-width: 1px;"/><path class="ygrid crisp" transform="translate(0,264.21000000000004)" d="M80,0h537" style="stroke: rgb(255, 255, 255); stroke-opacity: 1; stroke-width: 1px;"/><path class="ygrid crisp" transform="translate(0,221.43)" d="M80,0h537" style="stroke: rgb(255, 255, 255); stroke-opacity: 1; stroke-width: 1px;"/><path class="ygrid crisp" transform="translate(0,178.65)" d="M80,0h537" style="stroke: rgb(255, 255, 255); stroke-opacity: 1; stroke-width: 1px;"/><path class="ygrid crisp" transform="translate(0,135.87)" d="M80,0h537" style="stroke: rgb(255, 255, 255); stroke-opacity: 1; stroke-width: 1px;"/></g></g><g class="zerolinelayer"/><path class="xlines-below"/><path class="ylines-below"/><g class="overlines-below"/><g class="xaxislayer-below"/><g class="yaxislayer-below"/><g class="overaxes-below"/><g class="plot" transform="translate(80,100)" clip-path="url('#clipd08afdxyplot')"><g class="scatterlayer mlayer"><g class="trace scatter tracef37449" style="stroke-miterlimit: 2; opacity: 1;"><g class="fills"/><g class="errorbars"/><g class="lines"><path class="js-line" d="M0,304L2.46,302.59L3.32,249.74L4.18,251.04L5.03,249.35L8.45,248.71L9.31,248.32L11.02,249.1L11.88,248.19L13.58,248.58L14.44,248.19L16.15,247.93L17,247.67L18.71,247.41L19.57,247.16L26.42,246.77L27.27,246.51L32.4,246.12L33.25,245.73L34.97,245.86L35.82,245.22L37.53,245.09L38.38,244.44L39.24,244.96L40.1,244.57L40.95,243.66L41.81,243.92L42.66,244.57L43.52,243.02L46.08,242.11L46.94,242.63L47.79,242.24L48.65,243.15L49.5,242.24L50.36,240.17L52.07,240.69L52.92,239.78L56.35,237.84L57.2,236.94L58.91,238.23L59.77,237.07L60.62,235L61.48,235.51L62.33,236.55L63.18,235L64.9,232.67L65.75,232.28L67.47,230.6L68.32,231.12L70.03,229.95L70.88,230.21L71.74,231.76L72.59,229.56L75.16,230.6L76.02,230.21L77.73,226.46L78.58,226.07L79.44,226.85L80.29,225.55L81.15,225.68L82,227.36L82.86,227.11L83.71,225.55L87.13,221.16L87.99,218.44L88.85,219.09L89.7,217.66L90.56,216.63L91.41,217.4L93.12,217.66L93.97,218.7L97.4,216.5L98.25,216.37L99.96,215.72L100.82,214.69L101.67,214.3L102.53,214.82L104.24,215.98L105.09,214.43L107.66,213.39L108.52,212.88L110.23,212.23L111.08,211.45L113.65,212.23L114.5,211.84L116.21,211.58L117.07,211.84L118.78,210.42L119.64,208.87L121.34,207.7L122.2,206.93L123.91,207.96L124.76,207.44L125.62,207.96L126.48,142.27L129.04,140.18L129.9,140.44L131.61,139.92L132.46,139.01L134.17,139.14L135.03,139.14L138.45,138.48L139.3,138.35L141.87,137.83L142.73,137.96L150.42,137.96L151.28,138.09L157.26,137.83L158.12,137.18L160.68,137.18L161.54,136.14L164.96,136.27L165.82,135.74L167.52,135.88L168.38,135.22L170.09,134.57L170.95,135.22L174.36,132.22L175.22,133.27L177.79,131.57L178.64,132.22L182.06,128.44L182.92,130.14L186.34,127.14L187.2,128.05L188.91,126.48L189.76,127.66L190.62,128.7L191.47,127.79L192.33,128.83L193.18,128.31L194.04,127.4L194.89,128.44L195.75,127.79L196.6,128.18L199.17,128.83L200.03,128.44L201.75,126.48L202.6,125.05L204.31,124.92L205.17,125.44L206.02,125.96L206.88,124.01L210.3,123.09L211.16,121.4L214.58,121.92L215.43,120.61L216.29,118.4L217.14,119.96L218,119.96L218.86,118.79L219.71,119.7L220.56,119.18L222.28,117.35L223.13,117.48L225.7,114.35L226.55,114.48L228.26,112.14L229.12,112.92L230.83,110.83L231.68,111.35L234.25,110.7L235.1,108.09L235.96,107.96L236.81,106.92L237.67,105.48L238.52,105.74L239.38,106L240.23,107.18L241.1,107.83L241.95,107.18L242.81,109.13L243.66,108.35L244.51,108.22L245.36,106.66L246.22,106.27L247.08,106.79L248.79,107.05L249.64,61.25L251.35,59.41L252.21,59.15L254.77,57.57L255.63,57.17L257.34,57.04L258.19,56.78L261.61,55.46L262.47,54.54L264.18,54.28L265.04,54.81L268.46,53.75L269.31,53.62L271.02,53.62L271.88,53.75L285.56,51.78L286.42,52.18L288.98,51.12L289.83,51.25L290.7,51.52L291.54,50.73L296.68,50.07L298.38,49.54L299.24,48.23L300.95,47.83L302.66,47.44L303.52,45.73L304.37,46.91L305.23,45.73L306.94,45.73L307.79,45.07L308.65,44.94L309.5,43.76L312.07,43.49L312.93,41.91L314.63,40.2L315.49,39.42L316.32,38.1L317.17,38.76L319.74,37.71L320.59,36L324.02,35.34L324.87,33.36L325.73,32.71L326.58,33.23L328.29,32.44L329.15,32.05L330,31.92L330.86,30.86L332.57,30.86L333.42,31.39L335.13,32.97L335.99,31.13L337.7,32.31L338.57,30.34L340.27,30.47L341.13,30.86L343.69,29.02L344.55,29.42L346.25,27.71L347.11,26.66L347.97,24.16L348.82,24.68L349.67,23.24L350.53,24.68L352.24,22.84L353.1,22.58L353.95,21.26L354.8,21.66L356.52,21.79L357.37,20.74L358.22,21.26L359.08,19.68L360.79,19.55L361.65,18.5L365.07,18.89L365.92,17.97L366.78,17.45L367.64,17.84L368.49,17.97L369.35,17.05L370.2,16L371.05,16.66L371.91,16.39L372.77,171.81L377.04,171.4L377.9,172.08L380.47,170.99L381.32,170.99L383.03,169.76L383.88,169.76L385.59,168.94L386.45,169.08L400.99,168.39L401.84,167.98L412.96,165.8L413.82,165.12L418.09,164.02L418.95,162.66L422.4,162.38L423.25,163.61L424.96,161.7L425.82,161.57L426.67,160.88L427.53,158.43L428.38,156.51L429.24,156.79L430.1,156.1L430.95,154.33L431.81,154.88L432.66,154.19L434.37,154.33L435.23,153.37L436.94,152.69L437.79,153.65L440.36,150.92L441.21,151.87L443.78,149.14L444.63,149.14L445.49,148.32L446.35,149.41L448.06,150.37L448.91,149.41L449.76,149.55L450.62,148.73L454.05,145.18L454.9,144.5L457.46,143.54L458.32,145.04L463.45,141.9L464.31,143.68L465.16,121.97L466.02,121.97L468.58,120.88L469.44,116.1L470.29,116.24L471.15,112.28L472,112.55L472.86,109.96L473.71,106.95L474.57,107.91L476.28,104.77L477.13,101.22L477.99,98.08L478.85,98.08L479.7,97.53L480.56,95.35L481.41,94.8L482.27,92.07L483.98,89.34L484.83,89.34L486.55,85.93L487.4,85.65L489.96,82.78L490.82,80.19L495.1,75L495.95,88.44L500.23,84.03L501.09,84.45L501.94,84.31L502.79,85.14L504.51,84.72L505.36,85.41L507.07,84.59L507.92,84.45L509.64,84.03L510.49,84.03L512.2,84.17L513.06,83.62L519.04,84.03L519.9,83.62L525.03,83.21L525.89,83.48L529.3,83.48L530.16,83.35L531.87,83.35L532.73,83.35L535.29,83.35L536.15,83.9L537,83.21" style="vector-effect: non-scaling-stroke; fill: none; stroke: rgb(99, 110, 250); stroke-opacity: 1; stroke-width: 2px; opacity: 1;"/></g><g class="points"/><g class="text"/></g></g></g><g class="overplot"/><path class="xlines-above crisp" d="M0,0" style="fill: none;"/><path class="ylines-above crisp" d="M0,0" style="fill: none;"/><g class="overlines-above"/><g class="xaxislayer-above"><g class="xtick"><text text-anchor="middle" x="0" y="433" transform="translate(83.2,0)" style="font-family: 'Open Sans', verdana, arial, sans-serif; font-size: 12px; fill: rgb(42, 63, 95); fill-opacity: 1; white-space: pre;"><tspan class="line" dy="0em" x="0" y="433">Aug 3</tspan><tspan class="line" dy="1.3em" x="0" y="433">2021</tspan></text></g><g class="xtick"><text text-anchor="middle" x="0" y="433" transform="translate(206.35,0)" style="font-family: 'Open Sans', verdana, arial, sans-serif; font-size: 12px; fill: rgb(42, 63, 95); fill-opacity: 1; white-space: pre;">Aug 4</text></g><g class="xtick"><text text-anchor="middle" x="0" y="433" transform="translate(329.51,0)" style="font-family: 'Open Sans', verdana, arial, sans-serif; font-size: 12px; fill: rgb(42, 63, 95); fill-opacity: 1; white-space: pre;">Aug 5</text></g><g class="xtick"><text text-anchor="middle" x="0" y="433" transform="translate(452.66,0)" style="font-family: 'Open Sans', verdana, arial, sans-serif; font-size: 12px; fill: rgb(42, 63, 95); fill-opacity: 1; white-space: pre;">Aug 6</text></g><g class="xtick"><text text-anchor="middle" x="0" y="433" transform="translate(575.8199999999999,0)" style="font-family: 'Open Sans', verdana, arial, sans-serif; font-size: 12px; fill: rgb(42, 63, 95); fill-opacity: 1; white-space: pre;">Aug 7</text></g></g><g class="yaxislayer-above"><g class="ytick"><text text-anchor="end" x="79" y="4.199999999999999" transform="translate(0,392.55)" style="font-family: 'Open Sans', verdana, arial, sans-serif; font-size: 12px; fill: rgb(42, 63, 95); fill-opacity: 1; white-space: pre;">0.864</text></g><g class="ytick"><text text-anchor="end" x="79" y="4.199999999999999" transform="translate(0,349.77)" style="font-family: 'Open Sans', verdana, arial, sans-serif; font-size: 12px; fill: rgb(42, 63, 95); fill-opacity: 1; white-space: pre;">0.865</text></g><g class="ytick"><text text-anchor="end" x="79" y="4.199999999999999" transform="translate(0,306.99)" style="font-family: 'Open Sans', verdana, arial, sans-serif; font-size: 12px; fill: rgb(42, 63, 95); fill-opacity: 1; white-space: pre;">0.866</text></g><g class="ytick"><text text-anchor="end" x="79" y="4.199999999999999" transform="translate(0,264.21000000000004)" style="font-family: 'Open Sans', verdana, arial, sans-serif; font-size: 12px; fill: rgb(42, 63, 95); fill-opacity: 1; white-space: pre;">0.867</text></g><g class="ytick"><text text-anchor="end" x="79" y="4.199999999999999" transform="translate(0,221.43)" style="font-family: 'Open Sans', verdana, arial, sans-serif; font-size: 12px; fill: rgb(42, 63, 95); fill-opacity: 1; white-space: pre;">0.868</text></g><g class="ytick"><text text-anchor="end" x="79" y="4.199999999999999" transform="translate(0,178.65)" style="font-family: 'Open Sans', verdana, arial, sans-serif; font-size: 12px; fill: rgb(42, 63, 95); fill-opacity: 1; white-space: pre;">0.869</text></g><g class="ytick"><text text-anchor="end" x="79" y="4.199999999999999" transform="translate(0,135.87)" style="font-family: 'Open Sans', verdana, arial, sans-serif; font-size: 12px; fill: rgb(42, 63, 95); fill-opacity: 1; white-space: pre;">0.87</text></g></g><g class="overaxes-above"/></g></g><g class="polarlayer"/><g class="ternarylayer"/><g class="geolayer"/><g class="funnelarealayer"/><g class="pielayer"/><g class="treemaplayer"/><g class="sunburstlayer"/><g class="glimages"/><defs id="topdefs-d08afd"><g class="clips"/><clipPath id="legendd08afd"><rect width="60" height="45" x="0" y="0"/></clipPath></defs><g class="layer-above"><g class="imagelayer"/><g class="shapelayer"/></g><g class="infolayer"><g class="legend" pointer-events="all" transform="translate(627.74,100)"><rect class="bg" shape-rendering="crispEdges" width="60" height="45" x="0" y="0" style="stroke: rgb(68, 68, 68); stroke-opacity: 1; fill: rgb(255, 255, 255); fill-opacity: 1; stroke-width: 0px;"/><g class="scrollbox" transform="" clip-path="url('#legendd08afd')"><text class="legendtitletext" text-anchor="start" x="2" y="15.600000000000001" style="font-family: 'Open Sans', verdana, arial, sans-serif; font-size: 12px; fill: rgb(42, 63, 95); fill-opacity: 1; white-space: pre;">All</text><g class="groups" transform=""><g class="traces" transform="translate(0,30.1)" style="opacity: 1;"><text class="legendtext" text-anchor="start" x="40" y="4.680000000000001" style="font-family: 'Open Sans', verdana, arial, sans-serif; font-size: 12px; fill: rgb(42, 63, 95); fill-opacity: 1; white-space: pre;">All</text><g class="layers" style="opacity: 1;"><g class="legendfill"/><g class="legendlines"><path class="js-line" d="M5,0h30" style="fill: none; stroke: rgb(99, 110, 250); stroke-opacity: 1; stroke-width: 2px;"/></g><g class="legendsymbols"><g class="legendpoints"/></g></g><rect class="legendtoggle" x="0" y="-9.5" width="54.890625" height="19" style="fill: rgb(0, 0, 0); fill-opacity: 0;"/></g></g></g><rect class="scrollbar" rx="20" ry="3" width="0" height="0" x="0" y="0" style="fill: rgb(128, 139, 164); fill-opacity: 1;"/></g><g class="g-gtitle"><text class="gtitle" x="35" y="50" text-anchor="start" dy="0em" style="font-family: 'Open Sans', verdana, arial, sans-serif; font-size: 17px; fill: rgb(42, 63, 95); opacity: 1; font-weight: normal; white-space: pre;">Singapore Vaccination Centers</text></g><g class="g-xtitle"><text class="xtitle" x="348.5" y="476.409375" text-anchor="middle" style="font-family: 'Open Sans', verdana, arial, sans-serif; font-size: 14px; fill: rgb(42, 63, 95); opacity: 1; font-weight: normal; white-space: pre;">Time</text></g><g class="g-ytitle"><text class="ytitle" transform="rotate(-90,19.840625000000003,260)" x="19.840625000000003" y="260" text-anchor="middle" style="font-family: 'Open Sans', verdana, arial, sans-serif; font-size: 14px; fill: rgb(42, 63, 95); opacity: 1; font-weight: normal; white-space: pre;">Filled/%</text></g></g></svg>