<svg class="main-svg" xmlns="http://www.w3.org/2000/svg" xmlns:xlink="http://www.w3.org/1999/xlink" width="700" height="500" style="" viewBox="0 0 700 500"><rect x="0" y="0" width="700" height="500" style="fill: rgb(255, 255, 255); fill-opacity: 1;"/><defs id="defs-89878e"><g class="clips"><clipPath id="clip89878exyplot" class="plotclip"><rect width="537" height="320"/></clipPath><clipPath class="axesclip" id="clip89878ex"><rect x="80" y="0" width="537" height="500"/></clipPath><clipPath class="axesclip" id="clip89878ey"><rect x="0" y="100" width="700" height="320"/></clipPath><clipPath class="axesclip" id="clip89878exy"><rect x="80" y="100" width="537" height="320"/></clipPath></g><g class="gradients"/></defs><g class="bglayer"><rect class="bg" x="80" y="100" width="537" height="320" style="fill: rgb(229, 236, 246); fill-opacity: 1; stroke-width: 0;"/></g><g class="layer-below"><g class="imagelayer"/><g class="shapelayer"/></g><g class="cartesianlayer"><g class="subplot xy"><g class="layer-subplot"><g class="shapelayer"/><g class="imagelayer"/></g><g class="gridlayer"><g class="x"><path class="xgrid crisp" transform="translate(82.38,0)" d="M0,100v320" style="stroke: rgb(255, 255, 255); stroke-opacity: 1; stroke-width: 1px;"/><path class="xgrid crisp" transform="translate(174.01,0)" d="M0,100v320" style="stroke: rgb(255, 255, 255); stroke-opacity: 1; stroke-width: 1px;"/><path class="xgrid crisp" transform="translate(265.64,0)" d="M0,100v320" style="stroke: rgb(255, 255, 255); stroke-opacity: 1; stroke-width: 1px;"/><path class="xgrid crisp" transform="translate(357.27,0)" d="M0,100v320" style="stroke: rgb(255, 255, 255); stroke-opacity: 1; stroke-width: 1px;"/><path class="xgrid crisp" transform="translate(448.91,0)" d="M0,100v320" style="stroke: rgb(255, 255, 255); stroke-opacity: 1; stroke-width: 1px;"/><path class="xgrid crisp" transform="translate(540.54,0)" d="M0,100v320" style="stroke: rgb(255, 255, 255); stroke-opacity: 1; stroke-width: 1px;"/></g><g class="y"><path class="ygrid crisp" transform="translate(0,392.55)" d="M80,0h537" style="stroke: rgb(255, 255, 255); stroke-opacity: 1; stroke-width: 1px;"/><path class="ygrid crisp" transform="translate(0,349.77)" d="M80,0h537" style="stroke: rgb(255, 255, 255); stroke-opacity: 1; stroke-width: 1px;"/><path class="ygrid crisp" transform="translate(0,306.99)" d="M80,0h537" style="stroke: rgb(255, 255, 255); stroke-opacity: 1; stroke-width: 1px;"/><path class="ygrid crisp" transform="translate(0,264.21000000000004)" d="M80,0h537" style="stroke: rgb(255, 255, 255); stroke-opacity: 1; stroke-width: 1px;"/><path class="ygrid crisp" transform="translate(0,221.43)" d="M80,0h537" style="stroke: rgb(255, 255, 255); stroke-opacity: 1; stroke-width: 1px;"/><path class="ygrid crisp" transform="translate(0,178.65)" d="M80,0h537" style="stroke: rgb(255, 255, 255); stroke-opacity: 1; stroke-width: 1px;"/><path class="ygrid crisp" transform="translate(0,135.87)" d="M80,0h537" style="stroke: rgb(255, 255, 255); stroke-opacity: 1; stroke-width: 1px;"/></g></g><g class="zerolinelayer"/><path class="xlines-below"/><path class="ylines-below"/><g class="overlines-below"/><g class="xaxislayer-below"/><g class="yaxislayer-below"/><g class="overaxes-below"/><g class="plot" transform="translate(80,100)" clip-path="url('#clip89878exyplot')"><g class="scatterlayer mlayer"><g class="trace scatter tracef1e5c7" style="stroke-miterlimit: 2; opacity: 1;"><g class="fills"/><g class="errorbars"/><g class="lines"><path class="js-line" d="M0,304L1.83,302.59L2.47,249.74L3.11,251.04L3.74,249.35L6.29,248.71L6.92,248.32L8.2,249.1L8.84,248.19L10.11,248.58L10.74,248.19L12.01,247.93L12.65,247.67L13.92,247.41L14.56,247.16L19.65,246.77L20.29,246.51L24.11,246.12L24.74,245.73L26.02,245.86L26.65,245.22L27.92,245.09L28.56,244.44L29.83,244.57L30.47,243.66L31.74,244.57L32.38,243.02L34.28,242.11L34.92,242.63L35.56,242.24L36.2,243.15L37.47,240.17L38.1,240.69L38.74,240.69L39.38,239.78L42.56,236.94L43.2,237.97L43.83,238.23L44.47,237.07L45.1,235L45.74,235.51L46.38,236.55L47.01,235L48.28,232.67L48.92,232.28L50.2,230.6L50.83,231.12L52.1,229.95L52.74,230.21L53.38,231.76L54.01,229.56L55.92,230.6L56.56,230.21L58.47,226.07L59.1,226.85L60.38,225.68L61.01,227.36L61.65,227.11L62.29,225.55L64.83,221.16L65.47,218.44L66.1,219.09L66.74,217.66L67.38,216.63L68.01,217.4L69.28,217.66L69.92,218.7L73.1,216.37L73.74,216.11L75.65,214.3L76.29,214.82L77.56,215.98L78.19,214.43L80.74,212.88L81.38,212.75L83.28,211.84L83.92,211.71L85.19,211.84L85.83,211.45L87.74,211.32L88.37,210.42L90.28,207.7L90.92,206.93L92.19,207.96L92.83,207.44L93.47,207.96L94.1,142.27L96.65,140.44L97.28,140.31L99.19,138.75L99.83,139.14L103.01,138.48L103.65,138.35L105.56,137.83L106.19,137.96L111.92,137.96L112.56,138.09L117.01,137.83L117.65,137.18L119.55,137.18L120.19,136.14L122.73,136.27L123.37,135.74L124.64,135.88L125.28,135.22L126.56,134.57L127.19,135.22L129.73,132.22L130.37,133.27L132.28,131.57L132.92,132.22L135.46,128.44L136.1,130.14L138.64,127.14L139.28,128.05L140.55,126.48L141.19,127.66L141.83,128.7L142.46,127.79L143.1,128.83L143.73,128.31L144.37,127.4L145.01,128.44L146.28,128.18L146.92,128.57L148.19,128.83L148.83,128.44L151.38,124.79L152.01,124.92L153.29,125.96L153.93,124.01L156.47,123.09L157.11,121.4L159.65,121.92L160.29,120.61L160.92,118.4L161.56,119.96L162.2,119.96L162.84,118.79L163.47,119.7L164.11,119.18L165.38,117.35L166.02,117.48L167.93,114.35L168.56,114.48L169.84,112.14L170.47,112.92L171.74,110.83L172.38,111.35L174.29,110.7L174.92,108.09L175.56,107.96L176.19,106.92L177.47,105.74L178.11,106L179.38,107.83L180.02,107.18L180.66,109.13L181.29,108.35L181.93,108.22L182.56,106.66L183.2,106.27L183.83,106.79L185.11,107.05L185.74,61.25L187.65,59.15L188.29,58.88L192.1,56.78L192.74,56.52L195.92,54.28L196.56,54.28L197.83,54.41L198.47,53.75L201.65,53.62L202.29,53.75L212.47,51.78L213.1,52.18L215.01,51.12L215.65,51.25L216.29,51.52L216.92,50.73L220.74,50.07L222.01,49.54L222.65,48.23L223.92,47.83L225.19,47.44L225.83,45.73L226.46,46.91L227.1,45.73L228.37,45.73L229.01,45.07L229.65,44.94L230.28,43.76L232.19,43.49L232.83,41.91L234.1,40.2L234.74,39.42L235.35,38.1L235.99,38.76L237.9,37.71L238.53,36L241.08,35.34L241.71,33.36L242.35,32.71L242.99,33.23L244.26,32.44L244.9,32.05L245.53,31.92L246.17,30.86L247.44,30.86L248.08,31.39L249.35,32.97L249.99,31.13L251.26,32.31L251.91,30.34L253.17,30.47L253.81,30.86L255.72,29.02L256.35,29.42L257.62,27.71L258.26,26.66L258.9,24.16L259.54,24.68L260.17,23.24L260.81,24.68L261.44,23.1L262.72,22.58L263.35,21.26L265.26,21.79L265.89,20.74L266.53,21.26L267.17,19.68L268.44,19.55L269.08,18.5L271.62,18.89L272.26,17.97L273.53,17.84L274.17,17.97L275.44,16L276.08,16.66L276.72,16.39L277.35,171.81L280.53,171.4L281.17,172.08L283.08,170.99L283.72,170.99L284.99,169.76L285.62,169.76L287.53,169.08L288.17,169.08L292.63,168.67L293.26,168.67L297.71,168.39L298.35,168.39L300.89,167.44L301.53,167.71L305.35,166.89L305.98,166.75L307.25,165.8L307.89,165.12L311.08,164.02L311.71,162.66L314.28,162.38L314.91,163.61L316.19,161.7L316.82,161.57L317.46,160.88L318.1,158.43L318.73,156.51L319.37,156.79L320.01,156.1L320.64,154.33L321.28,154.88L322.55,154.47L323.19,154.33L325.1,152.69L325.73,153.65L327.64,150.92L328.28,151.87L330.19,149.14L330.82,149.14L331.46,148.32L332.1,149.41L333.37,150.37L334.01,149.41L334.64,149.55L335.28,148.73L337.83,145.18L338.46,144.5L340.37,143.54L341.01,145.04L344.82,141.9L345.46,143.68L346.74,121.97L347.37,121.56L348.64,120.88L349.28,116.1L349.91,116.24L350.55,112.28L351.19,112.55L351.82,109.96L352.46,106.95L353.1,107.91L355,101.22L355.64,98.08L356.92,97.53L357.55,95.35L358.19,94.8L358.83,92.07L360.1,89.34L360.73,89.34L362.64,85.65L363.28,84.7L368.37,75L369.01,88.44L372.19,84.03L372.83,84.45L373.46,84.31L374.1,85.14L375.37,84.72L376.01,85.41L377.28,84.59L377.91,84.45L379.19,84.03L379.82,84.03L381.1,84.17L381.73,83.62L386.19,84.03L386.82,83.62L390.64,83.21L391.28,83.48L393.82,83.48L394.46,83.35L395.73,83.35L396.37,83.35L398.28,83.35L398.91,83.9L402.09,79.9L402.73,80.18L404.64,78.8L405.27,78.94L405.91,78.53L406.55,76.87L407.82,77.15L408.45,75.63L411.64,72.47L412.27,72.88L414.18,69.44L414.82,69.02L416.73,66.41L417.36,66.41L418.64,63.79L419.27,63.79L420.55,61.86L421.18,59.66L423.73,54.43L424.37,54.01L425,53.6L425.64,51.4L428.19,49.47L428.82,47.82L432.64,46.85L433.27,45.75L433.91,46.16L434.55,45.48L435.18,45.89L440.27,41.21L443.45,38.59L444.09,39.28L446.64,35.97L447.28,35.84L447.91,34.46L448.55,35.01L449.82,33.91L450.46,34.18L451.09,35.28L451.73,34.32L454.27,32.94L454.91,33.91L457.46,33.22L458.09,32.12L460,29.78L460.64,81.26L461.91,81.68L462.55,80.56L463.18,79.86L463.82,80.42L465.73,80.42L466.36,81.4L468.27,81.12L468.91,81.12L472.1,81.4L472.73,81.12L475.27,79.86L475.91,80.28L482.27,79.58L482.91,79.58L489.91,79.3L490.54,79.16L493.73,78.74L494.36,78.31L495.64,77.75L496.27,76.77L497.54,76.35L498.18,74.95L498.82,73.55L499.45,74.95L502,73.97L502.63,73.97L503.91,71.86L504.55,71.58L506.45,68.64L507.09,68.5L507.72,68.22L508.36,68.78L510.91,66.53L511.54,66.67L512.82,65.13L513.45,64.43L516,63.45L516.64,63.87L517.27,63.31L517.91,64.01L519.18,60.5L519.82,60.78L520.45,60.78L522.36,60.22L523,58.96L526.18,56.43L526.81,56.71L530.64,54.19L531.27,53.21L531.91,53.63L532.54,52.79L533.82,52.93L534.45,52.79L535.72,51.94L536.36,51.1L537,50.82" style="vector-effect: non-scaling-stroke; fill: none; stroke: rgb(99, 110, 250); stroke-opacity: 1; stroke-width: 2px; opacity: 1;"/></g><g class="points"/><g class="text"/></g></g></g><g class="overplot"/><path class="xlines-above crisp" d="M0,0" style="fill: none;"/><path class="ylines-above crisp" d="M0,0" style="fill: none;"/><g class="overlines-above"/><g class="xaxislayer-above"><g class="xtick"><text text-anchor="middle" x="0" y="433" transform="translate(82.38,0)" style="font-family: 'Open Sans', verdana, arial, sans-serif; font-size: 12px; fill: rgb(42, 63, 95); fill-opacity: 1; white-space: pre;"><tspan class="line" dy="0em" x="0" y="433">Aug 3</tspan><tspan class="line" dy="1.3em" x="0" y="433">2021</tspan></text></g><g class="xtick"><text text-anchor="middle" x="0" y="433" transform="translate(174.01,0)" style="font-family: 'Open Sans', verdana, arial, sans-serif; font-size: 12px; fill: rgb(42, 63, 95); fill-opacity: 1; white-space: pre;">Aug 4</text></g><g class="xtick"><text text-anchor="middle" x="0" y="433" transform="translate(265.64,0)" style="font-family: 'Open Sans', verdana, arial, sans-serif; font-size: 12px; fill: rgb(42, 63, 95); fill-opacity: 1; white-space: pre;">Aug 5</text></g><g class="xtick"><text text-anchor="middle" x="0" y="433" transform="translate(357.27,0)" style="font-family: 'Open Sans', verdana, arial, sans-serif; font-size: 12px; fill: rgb(42, 63, 95); fill-opacity: 1; white-space: pre;">Aug 6</text></g><g class="xtick"><text text-anchor="middle" x="0" y="433" transform="translate(448.91,0)" style="font-family: 'Open Sans', verdana, arial, sans-serif; font-size: 12px; fill: rgb(42, 63, 95); fill-opacity: 1; white-space: pre;">Aug 7</text></g><g class="xtick"><text text-anchor="middle" x="0" y="433" transform="translate(540.54,0)" style="font-family: 'Open Sans', verdana, arial, sans-serif; font-size: 12px; fill: rgb(42, 63, 95); fill-opacity: 1; white-space: pre;">Aug 8</text></g></g><g class="yaxislayer-above"><g class="ytick"><text text-anchor="end" x="79" y="4.199999999999999" transform="translate(0,392.55)" style="font-family: 'Open Sans', verdana, arial, sans-serif; font-size: 12px; fill: rgb(42, 63, 95); fill-opacity: 1; white-space: pre;">0.864</text></g><g class="ytick"><text text-anchor="end" x="79" y="4.199999999999999" transform="translate(0,349.77)" style="font-family: 'Open Sans', verdana, arial, sans-serif; font-size: 12px; fill: rgb(42, 63, 95); fill-opacity: 1; white-space: pre;">0.865</text></g><g class="ytick"><text text-anchor="end" x="79" y="4.199999999999999" transform="translate(0,306.99)" style="font-family: 'Open Sans', verdana, arial, sans-serif; font-size: 12px; fill: rgb(42, 63, 95); fill-opacity: 1; white-space: pre;">0.866</text></g><g class="ytick"><text text-anchor="end" x="79" y="4.199999999999999" transform="translate(0,264.21000000000004)" style="font-family: 'Open Sans', verdana, arial, sans-serif; font-size: 12px; fill: rgb(42, 63, 95); fill-opacity: 1; white-space: pre;">0.867</text></g><g class="ytick"><text text-anchor="end" x="79" y="4.199999999999999" transform="translate(0,221.43)" style="font-family: 'Open Sans', verdana, arial, sans-serif; font-size: 12px; fill: rgb(42, 63, 95); fill-opacity: 1; white-space: pre;">0.868</text></g><g class="ytick"><text text-anchor="end" x="79" y="4.199999999999999" transform="translate(0,178.65)" style="font-family: 'Open Sans', verdana, arial, sans-serif; font-size: 12px; fill: rgb(42, 63, 95); fill-opacity: 1; white-space: pre;">0.869</text></g><g class="ytick"><text text-anchor="end" x="79" y="4.199999999999999" transform="translate(0,135.87)" style="font-family: 'Open Sans', verdana, arial, sans-serif; font-size: 12px; fill: rgb(42, 63, 95); fill-opacity: 1; white-space: pre;">0.87</text></g></g><g class="overaxes-above"/></g></g><g class="polarlayer"/><g class="ternarylayer"/><g class="geolayer"/><g class="funnelarealayer"/><g class="pielayer"/><g class="treemaplayer"/><g class="sunburstlayer"/><g class="glimages"/><defs id="topdefs-89878e"><g class="clips"/><clipPath id="legend89878e"><rect width="60" height="45" x="0" y="0"/></clipPath></defs><g class="layer-above"><g class="imagelayer"/><g class="shapelayer"/></g><g class="infolayer"><g class="legend" pointer-events="all" transform="translate(627.74,100)"><rect class="bg" shape-rendering="crispEdges" width="60" height="45" x="0" y="0" style="stroke: rgb(68, 68, 68); stroke-opacity: 1; fill: rgb(255, 255, 255); fill-opacity: 1; stroke-width: 0px;"/><g class="scrollbox" transform="" clip-path="url('#legend89878e')"><text class="legendtitletext" text-anchor="start" x="2" y="15.600000000000001" style="font-family: 'Open Sans', verdana, arial, sans-serif; font-size: 12px; fill: rgb(42, 63, 95); fill-opacity: 1; white-space: pre;">All</text><g class="groups" transform=""><g class="traces" transform="translate(0,30.1)" style="opacity: 1;"><text class="legendtext" text-anchor="start" x="40" y="4.680000000000001" style="font-family: 'Open Sans', verdana, arial, sans-serif; font-size: 12px; fill: rgb(42, 63, 95); fill-opacity: 1; white-space: pre;">All</text><g class="layers" style="opacity: 1;"><g class="legendfill"/><g class="legendlines"><path class="js-line" d="M5,0h30" style="fill: none; stroke: rgb(99, 110, 250); stroke-opacity: 1; stroke-width: 2px;"/></g><g class="legendsymbols"><g class="legendpoints"/></g></g><rect class="legendtoggle" x="0" y="-9.5" width="54.890625" height="19" style="fill: rgb(0, 0, 0); fill-opacity: 0;"/></g></g></g><rect class="scrollbar" rx="20" ry="3" width="0" height="0" x="0" y="0" style="fill: rgb(128, 139, 164); fill-opacity: 1;"/></g><g class="g-gtitle"><text class="gtitle" x="35" y="50" text-anchor="start" dy="0em" style="font-family: 'Open Sans', verdana, arial, sans-serif; font-size: 17px; fill: rgb(42, 63, 95); opacity: 1; font-weight: normal; white-space: pre;">Singapore Vaccination Centers</text></g><g class="g-xtitle"><text class="xtitle" x="348.5" y="476.409375" text-anchor="middle" style="font-family: 'Open Sans', verdana, arial, sans-serif; font-size: 14px; fill: rgb(42, 63, 95); opacity: 1; font-weight: normal; white-space: pre;">Time</text></g><g class="g-ytitle"><text class="ytitle" transform="rotate(-90,19.840625000000003,260)" x="19.840625000000003" y="260" text-anchor="middle" style="font-family: 'Open Sans', verdana, arial, sans-serif; font-size: 14px; fill: rgb(42, 63, 95); opacity: 1; font-weight: normal; white-space: pre;">Filled/%</text></g></g></svg>