<svg class="main-svg" xmlns="http://www.w3.org/2000/svg" xmlns:xlink="http://www.w3.org/1999/xlink" width="700" height="500" style="" viewBox="0 0 700 500"><rect x="0" y="0" width="700" height="500" style="fill: rgb(255, 255, 255); fill-opacity: 1;"/><defs id="defs-08229e"><g class="clips"><clipPath id="clip08229exyplot" class="plotclip"><rect width="537" height="320"/></clipPath><clipPath class="axesclip" id="clip08229ex"><rect x="80" y="0" width="537" height="500"/></clipPath><clipPath class="axesclip" id="clip08229ey"><rect x="0" y="100" width="700" height="320"/></clipPath><clipPath class="axesclip" id="clip08229exy"><rect x="80" y="100" width="537" height="320"/></clipPath></g><g class="gradients"/></defs><g class="bglayer"><rect class="bg" x="80" y="100" width="537" height="320" style="fill: rgb(229, 236, 246); fill-opacity: 1; stroke-width: 0;"/></g><g class="layer-below"><g class="imagelayer"/><g class="shapelayer"/></g><g class="cartesianlayer"><g class="subplot xy"><g class="layer-subplot"><g class="shapelayer"/><g class="imagelayer"/></g><g class="gridlayer"><g class="x"><path class="xgrid crisp" transform="translate(83.22,0)" d="M0,100v320" style="stroke: rgb(255, 255, 255); stroke-opacity: 1; stroke-width: 1px;"/><path class="xgrid crisp" transform="translate(207.16,0)" d="M0,100v320" style="stroke: rgb(255, 255, 255); stroke-opacity: 1; stroke-width: 1px;"/><path class="xgrid crisp" transform="translate(331.11,0)" d="M0,100v320" style="stroke: rgb(255, 255, 255); stroke-opacity: 1; stroke-width: 1px;"/><path class="xgrid crisp" transform="translate(455.05,0)" d="M0,100v320" style="stroke: rgb(255, 255, 255); stroke-opacity: 1; stroke-width: 1px;"/><path class="xgrid crisp" transform="translate(579,0)" d="M0,100v320" style="stroke: rgb(255, 255, 255); stroke-opacity: 1; stroke-width: 1px;"/></g><g class="y"><path class="ygrid crisp" transform="translate(0,392.55)" d="M80,0h537" style="stroke: rgb(255, 255, 255); stroke-opacity: 1; stroke-width: 1px;"/><path class="ygrid crisp" transform="translate(0,349.77)" d="M80,0h537" style="stroke: rgb(255, 255, 255); stroke-opacity: 1; stroke-width: 1px;"/><path class="ygrid crisp" transform="translate(0,306.99)" d="M80,0h537" style="stroke: rgb(255, 255, 255); stroke-opacity: 1; stroke-width: 1px;"/><path class="ygrid crisp" transform="translate(0,264.21000000000004)" d="M80,0h537" style="stroke: rgb(255, 255, 255); stroke-opacity: 1; stroke-width: 1px;"/><path class="ygrid crisp" transform="translate(0,221.43)" d="M80,0h537" style="stroke: rgb(255, 255, 255); stroke-opacity: 1; stroke-width: 1px;"/><path class="ygrid crisp" transform="translate(0,178.65)" d="M80,0h537" style="stroke: rgb(255, 255, 255); stroke-opacity: 1; stroke-width: 1px;"/><path class="ygrid crisp" transform="translate(0,135.87)" d="M80,0h537" style="stroke: rgb(255, 255, 255); stroke-opacity: 1; stroke-width: 1px;"/></g></g><g class="zerolinelayer"/><path class="xlines-below"/><path class="ylines-below"/><g class="overlines-below"/><g class="xaxislayer-below"/><g class="yaxislayer-below"/><g class="overaxes-below"/><g class="plot" transform="translate(80,100)" clip-path="url('#clip08229exyplot')"><g class="scatterlayer mlayer"><g class="trace scatter trace626cfa" style="stroke-miterlimit: 2; opacity: 1;"><g class="fills"/><g class="errorbars"/><g class="lines"><path class="js-line" d="M0,304L2.48,302.59L3.34,249.74L4.2,251.04L5.07,249.35L8.5,248.71L9.37,248.32L11.09,249.1L11.95,248.19L13.67,248.58L14.53,248.19L16.25,247.93L17.11,247.67L18.83,247.41L19.7,247.16L26.58,246.77L27.44,246.51L32.61,246.12L33.47,245.73L35.19,245.86L36.05,245.22L37.77,245.09L38.63,244.44L39.49,244.96L40.35,244.57L41.21,243.66L42.07,243.92L42.94,244.57L43.8,243.02L46.37,242.11L47.24,242.63L48.1,242.24L48.96,243.15L49.82,242.24L50.68,240.17L52.4,240.69L53.26,239.78L56.71,237.84L57.57,236.94L59.28,238.23L60.15,237.07L61.01,235L61.87,235.51L62.73,236.55L63.59,235L65.31,232.67L66.17,232.28L67.9,230.6L68.76,231.12L70.47,229.95L71.34,230.21L72.2,231.76L73.06,229.56L75.64,230.6L76.5,230.21L78.23,226.46L79.09,226.07L79.95,226.85L80.81,225.55L81.67,225.68L82.53,227.36L83.39,227.11L84.25,225.55L87.69,221.16L88.55,218.44L89.42,219.09L90.27,217.66L91.14,216.63L92,217.4L93.72,217.66L94.58,218.7L98.03,216.5L98.88,216.37L100.6,215.72L101.47,214.69L102.33,214.3L103.19,214.82L104.9,215.98L105.77,214.43L108.35,213.39L109.22,212.88L110.93,212.23L111.79,211.45L114.37,212.23L115.23,211.84L116.96,211.58L117.82,211.84L119.54,210.42L120.4,208.87L122.12,207.7L122.99,206.93L124.7,207.96L125.56,207.44L126.43,207.96L127.29,142.27L129.87,140.18L130.73,140.44L132.45,139.92L133.31,139.01L135.03,139.14L135.9,139.14L139.34,138.48L140.19,138.35L142.78,137.83L143.64,137.96L151.38,137.96L152.25,138.09L158.27,137.83L159.13,137.18L161.71,137.18L162.57,136.14L166.01,136.27L166.88,135.74L168.6,135.88L169.46,135.22L171.19,134.57L172.04,135.22L175.48,132.22L176.35,133.27L178.93,131.57L179.79,132.22L183.23,128.44L184.09,130.14L187.53,127.14L188.4,128.05L190.12,126.48L190.98,127.66L191.84,128.7L192.7,127.79L193.56,128.83L194.42,128.31L195.28,127.4L196.14,128.44L197,127.79L197.86,128.18L200.45,128.83L201.31,128.44L203.05,126.48L203.9,125.05L205.62,124.92L206.48,125.44L207.34,125.96L208.21,124.01L211.65,123.09L212.51,121.4L215.95,121.92L216.81,120.61L217.67,118.4L218.54,119.96L219.4,119.96L220.26,118.79L221.12,119.7L221.98,119.18L223.7,117.35L224.56,117.48L227.14,114.35L228,114.48L229.73,112.14L230.59,112.92L232.31,110.83L233.17,111.35L235.75,110.7L236.61,108.09L237.47,107.96L238.33,106.92L239.19,105.48L240.05,105.74L240.92,106L241.77,107.18L242.64,107.83L243.5,107.18L244.36,109.13L245.22,108.35L246.08,108.22L246.94,106.66L247.8,106.27L248.66,106.79L250.38,107.05L251.24,61.25L252.96,59.41L253.82,59.15L256.41,57.57L257.27,57.17L258.99,57.04L259.85,56.78L263.29,55.46L264.15,54.54L265.88,54.28L266.74,54.81L270.18,53.75L271.04,53.62L272.76,53.62L273.62,53.75L287.39,51.78L288.25,52.18L290.83,51.12L291.69,51.25L292.56,51.52L293.41,50.73L298.58,50.07L300.3,49.54L301.16,48.23L302.88,47.83L304.6,47.44L305.46,45.73L306.33,46.91L307.19,45.73L308.91,45.73L309.77,45.07L310.63,44.94L311.49,43.76L314.07,43.49L314.93,41.91L316.65,40.2L317.51,39.42L318.35,38.1L319.2,38.76L321.79,37.71L322.65,36L326.09,35.34L326.95,33.36L327.81,32.71L328.67,33.23L330.39,32.44L331.26,32.05L332.12,31.92L332.98,30.86L334.7,30.86L335.56,31.39L337.28,32.97L338.15,31.13L339.87,32.31L340.74,30.34L342.45,30.47L343.31,30.86L345.89,29.02L346.75,29.42L348.47,27.71L349.33,26.66L350.2,24.16L351.06,24.68L351.91,23.24L352.78,24.68L354.5,22.84L355.36,22.58L356.22,21.26L357.08,21.66L358.8,21.79L359.66,20.74L360.52,21.26L361.38,19.68L363.1,19.55L363.97,18.5L367.41,18.89L368.27,17.97L369.13,17.45L369.99,17.84L370.85,17.97L371.71,17.05L372.58,16L373.43,16.66L374.3,16.39L375.16,171.81L379.46,171.4L380.33,172.08L382.9,170.99L383.76,170.99L385.49,169.76L386.35,169.76L388.07,168.94L388.93,169.08L403.56,168.39L404.42,167.98L415.6,165.8L416.47,165.12L420.77,164.02L421.64,162.66L425.11,162.38L425.97,163.61L427.69,161.7L428.55,161.57L429.41,160.88L430.27,158.43L431.13,156.51L431.99,156.79L432.85,156.1L433.71,154.33L434.57,154.88L435.43,154.19L437.16,154.33L438.02,153.37L439.74,152.69L440.6,153.65L443.18,150.92L444.04,151.87L446.62,149.14L447.49,149.14L448.34,148.32L449.21,149.41L450.93,150.37L451.79,149.41L452.65,149.55L453.51,148.73L456.96,145.18L457.82,144.5L460.39,143.54L461.26,145.04L466.42,141.9L467.28,143.68L468.15,121.97L469.01,121.97L471.59,120.88L472.45,116.1L473.31,116.24L474.17,112.28L475.03,112.55L475.89,109.96L476.75,106.95L477.61,107.91L479.33,104.77L480.19,101.22L481.06,98.08L481.92,98.08L482.78,97.53L483.64,95.35L484.5,94.8L485.36,92.07L487.08,89.34L487.94,89.34L489.67,85.93L490.52,85.65L493.11,82.78L493.97,80.19L498.27,75L499.13,88.44L503.44,84.03L504.3,84.45L505.16,84.31L506.02,85.14L507.74,84.72L508.6,85.41L510.32,84.59L511.18,84.45L512.9,84.03L513.77,84.03L515.49,84.17L516.35,83.62L522.37,84.03L523.23,83.62L528.4,83.21L529.26,83.48L532.69,83.48L533.56,83.35L535.28,83.35L536.14,83.35L537,83.21" style="vector-effect: non-scaling-stroke; fill: none; stroke: rgb(99, 110, 250); stroke-opacity: 1; stroke-width: 2px; opacity: 1;"/></g><g class="points"/><g class="text"/></g></g></g><g class="overplot"/><path class="xlines-above crisp" d="M0,0" style="fill: none;"/><path class="ylines-above crisp" d="M0,0" style="fill: none;"/><g class="overlines-above"/><g class="xaxislayer-above"><g class="xtick"><text text-anchor="middle" x="0" y="433" transform="translate(83.22,0)" style="font-family: 'Open Sans', verdana, arial, sans-serif; font-size: 12px; fill: rgb(42, 63, 95); fill-opacity: 1; white-space: pre;"><tspan class="line" dy="0em" x="0" y="433">Aug 3</tspan><tspan class="line" dy="1.3em" x="0" y="433">2021</tspan></text></g><g class="xtick"><text text-anchor="middle" x="0" y="433" transform="translate(207.16,0)" style="font-family: 'Open Sans', verdana, arial, sans-serif; font-size: 12px; fill: rgb(42, 63, 95); fill-opacity: 1; white-space: pre;">Aug 4</text></g><g class="xtick"><text text-anchor="middle" x="0" y="433" transform="translate(331.11,0)" style="font-family: 'Open Sans', verdana, arial, sans-serif; font-size: 12px; fill: rgb(42, 63, 95); fill-opacity: 1; white-space: pre;">Aug 5</text></g><g class="xtick"><text text-anchor="middle" x="0" y="433" transform="translate(455.05,0)" style="font-family: 'Open Sans', verdana, arial, sans-serif; font-size: 12px; fill: rgb(42, 63, 95); fill-opacity: 1; white-space: pre;">Aug 6</text></g><g class="xtick"><text text-anchor="middle" x="0" y="433" transform="translate(579,0)" style="font-family: 'Open Sans', verdana, arial, sans-serif; font-size: 12px; fill: rgb(42, 63, 95); fill-opacity: 1; white-space: pre;">Aug 7</text></g></g><g class="yaxislayer-above"><g class="ytick"><text text-anchor="end" x="79" y="4.199999999999999" transform="translate(0,392.55)" style="font-family: 'Open Sans', verdana, arial, sans-serif; font-size: 12px; fill: rgb(42, 63, 95); fill-opacity: 1; white-space: pre;">0.864</text></g><g class="ytick"><text text-anchor="end" x="79" y="4.199999999999999" transform="translate(0,349.77)" style="font-family: 'Open Sans', verdana, arial, sans-serif; font-size: 12px; fill: rgb(42, 63, 95); fill-opacity: 1; white-space: pre;">0.865</text></g><g class="ytick"><text text-anchor="end" x="79" y="4.199999999999999" transform="translate(0,306.99)" style="font-family: 'Open Sans', verdana, arial, sans-serif; font-size: 12px; fill: rgb(42, 63, 95); fill-opacity: 1; white-space: pre;">0.866</text></g><g class="ytick"><text text-anchor="end" x="79" y="4.199999999999999" transform="translate(0,264.21000000000004)" style="font-family: 'Open Sans', verdana, arial, sans-serif; font-size: 12px; fill: rgb(42, 63, 95); fill-opacity: 1; white-space: pre;">0.867</text></g><g class="ytick"><text text-anchor="end" x="79" y="4.199999999999999" transform="translate(0,221.43)" style="font-family: 'Open Sans', verdana, arial, sans-serif; font-size: 12px; fill: rgb(42, 63, 95); fill-opacity: 1; white-space: pre;">0.868</text></g><g class="ytick"><text text-anchor="end" x="79" y="4.199999999999999" transform="translate(0,178.65)" style="font-family: 'Open Sans', verdana, arial, sans-serif; font-size: 12px; fill: rgb(42, 63, 95); fill-opacity: 1; white-space: pre;">0.869</text></g><g class="ytick"><text text-anchor="end" x="79" y="4.199999999999999" transform="translate(0,135.87)" style="font-family: 'Open Sans', verdana, arial, sans-serif; font-size: 12px; fill: rgb(42, 63, 95); fill-opacity: 1; white-space: pre;">0.87</text></g></g><g class="overaxes-above"/></g></g><g class="polarlayer"/><g class="ternarylayer"/><g class="geolayer"/><g class="funnelarealayer"/><g class="pielayer"/><g class="treemaplayer"/><g class="sunburstlayer"/><g class="glimages"/><defs id="topdefs-08229e"><g class="clips"/><clipPath id="legend08229e"><rect width="60" height="45" x="0" y="0"/></clipPath></defs><g class="layer-above"><g class="imagelayer"/><g class="shapelayer"/></g><g class="infolayer"><g class="legend" pointer-events="all" transform="translate(627.74,100)"><rect class="bg" shape-rendering="crispEdges" width="60" height="45" x="0" y="0" style="stroke: rgb(68, 68, 68); stroke-opacity: 1; fill: rgb(255, 255, 255); fill-opacity: 1; stroke-width: 0px;"/><g class="scrollbox" transform="" clip-path="url('#legend08229e')"><text class="legendtitletext" text-anchor="start" x="2" y="15.600000000000001" style="font-family: 'Open Sans', verdana, arial, sans-serif; font-size: 12px; fill: rgb(42, 63, 95); fill-opacity: 1; white-space: pre;">All</text><g class="groups" transform=""><g class="traces" transform="translate(0,30.1)" style="opacity: 1;"><text class="legendtext" text-anchor="start" x="40" y="4.680000000000001" style="font-family: 'Open Sans', verdana, arial, sans-serif; font-size: 12px; fill: rgb(42, 63, 95); fill-opacity: 1; white-space: pre;">All</text><g class="layers" style="opacity: 1;"><g class="legendfill"/><g class="legendlines"><path class="js-line" d="M5,0h30" style="fill: none; stroke: rgb(99, 110, 250); stroke-opacity: 1; stroke-width: 2px;"/></g><g class="legendsymbols"><g class="legendpoints"/></g></g><rect class="legendtoggle" x="0" y="-9.5" width="54.890625" height="19" style="fill: rgb(0, 0, 0); fill-opacity: 0;"/></g></g></g><rect class="scrollbar" rx="20" ry="3" width="0" height="0" x="0" y="0" style="fill: rgb(128, 139, 164); fill-opacity: 1;"/></g><g class="g-gtitle"><text class="gtitle" x="35" y="50" text-anchor="start" dy="0em" style="font-family: 'Open Sans', verdana, arial, sans-serif; font-size: 17px; fill: rgb(42, 63, 95); opacity: 1; font-weight: normal; white-space: pre;">Singapore Vaccination Centers</text></g><g class="g-xtitle"><text class="xtitle" x="348.5" y="476.409375" text-anchor="middle" style="font-family: 'Open Sans', verdana, arial, sans-serif; font-size: 14px; fill: rgb(42, 63, 95); opacity: 1; font-weight: normal; white-space: pre;">Time</text></g><g class="g-ytitle"><text class="ytitle" transform="rotate(-90,19.840625000000003,260)" x="19.840625000000003" y="260" text-anchor="middle" style="font-family: 'Open Sans', verdana, arial, sans-serif; font-size: 14px; fill: rgb(42, 63, 95); opacity: 1; font-weight: normal; white-space: pre;">Filled/%</text></g></g></svg>