<svg class="main-svg" xmlns="http://www.w3.org/2000/svg" xmlns:xlink="http://www.w3.org/1999/xlink" width="700" height="500" style="" viewBox="0 0 700 500"><rect x="0" y="0" width="700" height="500" style="fill: rgb(255, 255, 255); fill-opacity: 1;"/><defs id="defs-cc0f76"><g class="clips"><clipPath id="clipcc0f76xyplot" class="plotclip"><rect width="537" height="320"/></clipPath><clipPath class="axesclip" id="clipcc0f76x"><rect x="80" y="0" width="537" height="500"/></clipPath><clipPath class="axesclip" id="clipcc0f76y"><rect x="0" y="100" width="700" height="320"/></clipPath><clipPath class="axesclip" id="clipcc0f76xy"><rect x="80" y="100" width="537" height="320"/></clipPath></g><g class="gradients"/></defs><g class="bglayer"><rect class="bg" x="80" y="100" width="537" height="320" style="fill: rgb(229, 236, 246); fill-opacity: 1; stroke-width: 0;"/></g><g class="layer-below"><g class="imagelayer"/><g class="shapelayer"/></g><g class="cartesianlayer"><g class="subplot xy"><g class="layer-subplot"><g class="shapelayer"/><g class="imagelayer"/></g><g class="gridlayer"><g class="x"><path class="xgrid crisp" transform="translate(82.03,0)" d="M0,100v320" style="stroke: rgb(255, 255, 255); stroke-opacity: 1; stroke-width: 1px;"/><path class="xgrid crisp" transform="translate(160.14,0)" d="M0,100v320" style="stroke: rgb(255, 255, 255); stroke-opacity: 1; stroke-width: 1px;"/><path class="xgrid crisp" transform="translate(238.26,0)" d="M0,100v320" style="stroke: rgb(255, 255, 255); stroke-opacity: 1; stroke-width: 1px;"/><path class="xgrid crisp" transform="translate(316.38,0)" d="M0,100v320" style="stroke: rgb(255, 255, 255); stroke-opacity: 1; stroke-width: 1px;"/><path class="xgrid crisp" transform="translate(394.5,0)" d="M0,100v320" style="stroke: rgb(255, 255, 255); stroke-opacity: 1; stroke-width: 1px;"/><path class="xgrid crisp" transform="translate(472.61,0)" d="M0,100v320" style="stroke: rgb(255, 255, 255); stroke-opacity: 1; stroke-width: 1px;"/><path class="xgrid crisp" transform="translate(550.73,0)" d="M0,100v320" style="stroke: rgb(255, 255, 255); stroke-opacity: 1; stroke-width: 1px;"/></g><g class="y"><path class="ygrid crisp" transform="translate(0,394.13)" d="M80,0h537" style="stroke: rgb(255, 255, 255); stroke-opacity: 1; stroke-width: 1px;"/><path class="ygrid crisp" transform="translate(0,357.26)" d="M80,0h537" style="stroke: rgb(255, 255, 255); stroke-opacity: 1; stroke-width: 1px;"/><path class="ygrid crisp" transform="translate(0,320.39)" d="M80,0h537" style="stroke: rgb(255, 255, 255); stroke-opacity: 1; stroke-width: 1px;"/><path class="ygrid crisp" transform="translate(0,283.52)" d="M80,0h537" style="stroke: rgb(255, 255, 255); stroke-opacity: 1; stroke-width: 1px;"/><path class="ygrid crisp" transform="translate(0,246.65)" d="M80,0h537" style="stroke: rgb(255, 255, 255); stroke-opacity: 1; stroke-width: 1px;"/><path class="ygrid crisp" transform="translate(0,209.78)" d="M80,0h537" style="stroke: rgb(255, 255, 255); stroke-opacity: 1; stroke-width: 1px;"/><path class="ygrid crisp" transform="translate(0,172.91)" d="M80,0h537" style="stroke: rgb(255, 255, 255); stroke-opacity: 1; stroke-width: 1px;"/><path class="ygrid crisp" transform="translate(0,136.04)" d="M80,0h537" style="stroke: rgb(255, 255, 255); stroke-opacity: 1; stroke-width: 1px;"/></g></g><g class="zerolinelayer"/><path class="xlines-below"/><path class="ylines-below"/><g class="overlines-below"/><g class="xaxislayer-below"/><g class="yaxislayer-below"/><g class="overaxes-below"/><g class="plot" transform="translate(80,100)" clip-path="url('#clipcc0f76xyplot')"><g class="scatterlayer mlayer"><g class="trace scatter trace971500" style="stroke-miterlimit: 2; opacity: 1;"><g class="fills"/><g class="errorbars"/><g class="lines"><path class="js-line" d="M0,304L1.56,302.78L2.11,257.24L2.65,258.35L3.19,256.9L5.36,256.35L5.9,256.01L6.99,256.68L7.53,255.9L8.62,256.23L9.16,255.9L10.24,255.68L10.79,255.45L11.87,255.23L12.42,255.01L19.46,254.67L20.01,254.23L23.8,253.22L24.35,252.67L25.43,252.78L25.97,252L27.06,252.78L27.6,251.44L29.23,250.66L29.77,251.11L30.31,250.77L30.86,251.55L31.94,248.99L32.48,249.43L33.03,249.43L34.65,248.32L35.2,247.65L36.28,246.2L36.82,247.09L37.36,247.32L37.91,246.31L38.45,244.53L38.99,244.97L39.54,245.87L41.71,242.19L42.25,241.41L43.88,240.52L44.42,240.18L44.96,240.4L45.5,241.74L46.04,239.85L46.59,240.18L47.13,239.96L48.22,240.4L48.76,238.62L49.84,236.84L50.39,237.51L51.47,236.5L52.01,237.95L52.56,237.73L53.1,236.39L55.27,232.6L55.81,230.26L56.35,230.82L56.9,229.59L57.44,228.7L57.98,229.37L59.07,229.59L59.61,230.48L62.32,228.47L62.86,228.25L65.03,227.14L65.58,228.14L66.12,228.14L66.66,226.8L68.83,225.46L69.37,225.35L71,224.57L71.54,224.46L72.63,224.57L73.17,224.24L74.8,224.13L75.34,223.35L76.97,221.01L77.51,220.34L78.59,221.23L79.14,220.78L79.68,221.23L80.22,164.61L82.39,163.04L82.93,162.92L85.11,161.91L85.65,161.91L88.36,161.24L88.9,160.9L93.79,160.67L94.33,160.79L99.75,160.79L100.29,160.22L101.92,160.22L102.46,159.33L104.63,159.44L105.18,158.99L106.26,159.1L106.8,158.54L108.43,158.54L108.97,157.64L110.6,155.95L111.14,156.85L112.77,155.39L113.31,155.95L115.48,152.69L116.02,154.15L118.19,151.57L118.74,152.36L119.82,151.01L120.36,152.02L120.91,152.92L121.45,152.13L121.99,153.03L122.53,152.58L123.08,151.79L123.62,152.69L124.16,152.13L126.33,153.03L126.88,152.69L129.05,149.54L129.59,149.66L130.68,150.56L131.22,148.87L133.39,148.08L133.94,146.62L136.11,147.07L136.65,145.95L137.19,144.04L137.73,145.38L138.28,145.38L138.82,144.37L139.36,145.16L139.9,144.71L140.44,143.7L144.24,139.76L144.79,138.64L145.33,139.31L145.87,138.53L146.41,137.52L146.96,137.97L147.5,137.63L148.58,137.4L149.12,135.15L149.67,135.04L150.21,134.14L151.29,133.13L151.84,133.36L152.93,134.93L153.46,134.37L154.01,136.05L154.55,135.38L155.09,135.27L156.18,133.58L156.72,134.03L157.8,134.26L158.35,94.79L159.97,92.97L160.52,92.74L165.4,89.91L165.94,89.8L167.03,88.78L167.57,88.78L168.65,88.89L169.2,88.32L181.13,86.62L181.67,86.96L183.3,86.06L183.84,86.17L184.39,86.4L184.92,85.72L188.18,85.15L189.26,84.7L189.81,83.56L190.89,83.22L191.98,82.88L192.52,81.41L193.06,82.43L193.61,81.41L194.69,81.41L195.23,80.84L195.78,80.73L196.32,79.71L197.94,79.48L198.49,78.12L200.64,74.83L201.18,75.4L202.81,74.49L203.35,73.02L205.52,72.45L206.06,70.75L207.15,70.64L207.69,70.52L210.4,68.37L210.95,68.6L212.57,70.41L213.12,68.82L214.2,69.84L214.75,68.14L215.83,68.26L216.37,68.6L218.54,67.35L219.08,66.9L221.8,62.02L222.34,63.27L223.43,61.68L223.97,61.45L224.51,60.32L225.05,60.66L225.59,60.77L226.14,60.77L226.68,59.87L227.22,60.32L227.76,58.96L228.85,58.85L229.39,57.94L231.56,58.28L232.1,57.49L233.19,57.37L233.73,57.49L234.82,55.78L235.36,56.35L235.9,56.12L236.45,190.07L240.78,189.71L241.33,189.36L241.87,189.36L242.41,188.42L248.92,187.24L249.47,187.36L255.43,186.65L255.97,186.54L259.77,185.6L260.31,185.83L261.94,184.89L262.48,184.3L265.19,183.36L265.74,182.18L267.92,181.95L268.47,183.01L269.55,181.36L270.09,181.24L270.64,180.65L271.18,178.54L271.72,176.89L272.26,177.12L272.81,176.53L273.35,175.01L273.89,175.48L274.43,174.89L275.52,175.01L276.06,174.18L277.15,173.59L277.69,174.42L279.32,172.06L279.86,172.89L281.49,170.53L282.03,170.53L282.57,169.83L283.11,170.77L284.2,171.59L284.74,170.77L285.28,170.89L285.83,170.18L288.54,166.53L289.08,166.06L290.17,165.71L290.71,167L293.96,164.3L294.51,165.83L295.59,147.12L296.14,146.76L297.22,146.18L297.76,142.06L298.3,142.17L298.85,138.76L299.39,139L299.93,136.76L300.47,134.17L301.02,135L301.56,133.47L302.1,132.29L302.64,129.23L303.73,126.52L304.27,126.05L306.98,118.99L307.53,118.99L309.15,115.82L309.7,114.99L314.04,106.64L314.58,118.22L317.29,114.42L317.84,114.78L318.38,114.66L318.92,115.37L320.01,115.01L320.55,115.61L322.17,114.78L322.72,114.9L323.8,114.42L324.35,114.54L331.94,113.95L332.48,113.59L336.82,114.07L337.36,113.83L340.62,113.71L341.16,113.23L342.79,110.86L343.33,111.1L344.96,109.91L345.5,110.03L346.04,109.67L346.58,108.25L347.67,108.49L348.21,107.18L350.93,104.45L351.47,104.81L353.09,101.84L353.64,101.48L355.26,99.23L355.81,99.23L356.89,96.97L357.43,96.97L358.52,95.31L359.06,93.41L361.23,88.9L361.77,88.55L362.32,88.19L362.86,86.29L365.03,84.63L365.57,83.21L368.83,82.38L369.37,81.43L369.91,81.78L370.45,81.19L371,81.54L375.34,77.51L378.05,75.25L378.59,75.85L380.76,73L381.31,72.88L381.85,71.69L382.39,72.17L382.93,71.57L384.02,71.46L384.56,72.41L386.19,71.22L386.73,70.98L387.27,70.39L387.82,71.22L389.98,70.63L390.53,69.68L392.15,67.66L392.7,112.03L393.78,112.39L394.33,111.43L394.87,110.82L395.41,111.3L395.97,111.18L397.04,111.3L397.58,112.15L399.75,111.91L400.29,112.03L401.92,112.15L402.46,112.15L405.17,110.82L405.72,111.18L411.69,110.58L412.23,110.58L418.74,110.22L419.28,109.85L420.91,109.85L421.45,109.49L422.53,109.01L423.07,108.16L424.16,107.8L424.7,106.59L425.24,105.38L425.79,106.59L427.95,105.74L428.5,105.74L429.58,103.93L430.13,103.69L431.75,101.15L432.3,101.03L433.92,100.67L434.46,99.94L435.55,99.34L436.09,99.46L437.18,98.13L437.72,97.52L439.89,96.68L440.44,97.04L440.98,96.56L441.52,97.16L442.6,94.14L443.15,94.38L443.69,94.38L445.32,93.9L445.86,92.81L449.11,90.87L449.66,90.51L450.74,90.15L451.29,89.79L454,87.49L454.54,87.85L458.34,86.04L458.88,85.07L460.51,82.89L461.05,82.17L461.59,82.41L462.13,80.84L463.22,79.15L463.76,79.75L469.19,76.61L469.73,76.61L470.27,76.85L470.81,47.34L475.15,44.17L475.7,44.29L481.12,44.42L481.66,44.78L484.38,44.17L484.92,44.17L488.72,44.05L489.26,44.17L494.15,43.81L494.68,44.05L495.77,44.17L496.31,43.93L497.94,44.05L498.48,43.2L499.57,44.17L500.11,43.44L501.74,42.22L502.28,41.49L503.36,41.85L503.9,40.76L504.99,40.15L505.53,40.39L506.07,39.66L506.62,37.59L507.16,37.59L507.7,36.61L508.24,37.22L508.79,36.49L509.87,35.02L510.41,33.56L510.96,32.95L511.5,33.93L512.58,31.37L513.12,31.61L514.21,30.15L514.75,30.27L518.01,28.81L518.55,28.93L519.64,28.32L520.18,27.34L521.81,28.07L522.35,26.73L523.98,26.37L524.52,26.49L526.15,22.83L526.69,23.2L527.23,22.83L529.4,20.88L529.94,21.37L530.49,21.37L531.03,20.27L531.57,20.15L532.12,18.8L532.66,19.05L533.2,18.44L533.74,19.05L534.28,18.32L535.37,16.61L535.91,16.24L536.46,16L537,16.73" style="vector-effect: non-scaling-stroke; fill: none; stroke: rgb(99, 110, 250); stroke-opacity: 1; stroke-width: 2px; opacity: 1;"/></g><g class="points"/><g class="text"/></g></g></g><g class="overplot"/><path class="xlines-above crisp" d="M0,0" style="fill: none;"/><path class="ylines-above crisp" d="M0,0" style="fill: none;"/><g class="overlines-above"/><g class="xaxislayer-above"><g class="xtick"><text text-anchor="middle" x="0" y="433" transform="translate(82.03,0)" style="font-family: 'Open Sans', verdana, arial, sans-serif; font-size: 12px; fill: rgb(42, 63, 95); fill-opacity: 1; white-space: pre;"><tspan class="line" dy="0em" x="0" y="433">Aug 3</tspan><tspan class="line" dy="1.3em" x="0" y="433">2021</tspan></text></g><g class="xtick"><text text-anchor="middle" x="0" y="433" transform="translate(160.14,0)" style="font-family: 'Open Sans', verdana, arial, sans-serif; font-size: 12px; fill: rgb(42, 63, 95); fill-opacity: 1; white-space: pre;">Aug 4</text></g><g class="xtick"><text text-anchor="middle" x="0" y="433" transform="translate(238.26,0)" style="font-family: 'Open Sans', verdana, arial, sans-serif; font-size: 12px; fill: rgb(42, 63, 95); fill-opacity: 1; white-space: pre;">Aug 5</text></g><g class="xtick"><text text-anchor="middle" x="0" y="433" transform="translate(316.38,0)" style="font-family: 'Open Sans', verdana, arial, sans-serif; font-size: 12px; fill: rgb(42, 63, 95); fill-opacity: 1; white-space: pre;">Aug 6</text></g><g class="xtick"><text text-anchor="middle" x="0" y="433" transform="translate(394.5,0)" style="font-family: 'Open Sans', verdana, arial, sans-serif; font-size: 12px; fill: rgb(42, 63, 95); fill-opacity: 1; white-space: pre;">Aug 7</text></g><g class="xtick"><text text-anchor="middle" x="0" y="433" transform="translate(472.61,0)" style="font-family: 'Open Sans', verdana, arial, sans-serif; font-size: 12px; fill: rgb(42, 63, 95); fill-opacity: 1; white-space: pre;">Aug 8</text></g><g class="xtick"><text text-anchor="middle" x="0" y="433" transform="translate(550.73,0)" style="font-family: 'Open Sans', verdana, arial, sans-serif; font-size: 12px; fill: rgb(42, 63, 95); fill-opacity: 1; white-space: pre;">Aug 9</text></g></g><g class="yaxislayer-above"><g class="ytick"><text text-anchor="end" x="79" y="4.199999999999999" transform="translate(0,394.13)" style="font-family: 'Open Sans', verdana, arial, sans-serif; font-size: 12px; fill: rgb(42, 63, 95); fill-opacity: 1; white-space: pre;">0.864</text></g><g class="ytick"><text text-anchor="end" x="79" y="4.199999999999999" transform="translate(0,357.26)" style="font-family: 'Open Sans', verdana, arial, sans-serif; font-size: 12px; fill: rgb(42, 63, 95); fill-opacity: 1; white-space: pre;">0.865</text></g><g class="ytick"><text text-anchor="end" x="79" y="4.199999999999999" transform="translate(0,320.39)" style="font-family: 'Open Sans', verdana, arial, sans-serif; font-size: 12px; fill: rgb(42, 63, 95); fill-opacity: 1; white-space: pre;">0.866</text></g><g class="ytick"><text text-anchor="end" x="79" y="4.199999999999999" transform="translate(0,283.52)" style="font-family: 'Open Sans', verdana, arial, sans-serif; font-size: 12px; fill: rgb(42, 63, 95); fill-opacity: 1; white-space: pre;">0.867</text></g><g class="ytick"><text text-anchor="end" x="79" y="4.199999999999999" transform="translate(0,246.65)" style="font-family: 'Open Sans', verdana, arial, sans-serif; font-size: 12px; fill: rgb(42, 63, 95); fill-opacity: 1; white-space: pre;">0.868</text></g><g class="ytick"><text text-anchor="end" x="79" y="4.199999999999999" transform="translate(0,209.78)" style="font-family: 'Open Sans', verdana, arial, sans-serif; font-size: 12px; fill: rgb(42, 63, 95); fill-opacity: 1; white-space: pre;">0.869</text></g><g class="ytick"><text text-anchor="end" x="79" y="4.199999999999999" transform="translate(0,172.91)" style="font-family: 'Open Sans', verdana, arial, sans-serif; font-size: 12px; fill: rgb(42, 63, 95); fill-opacity: 1; white-space: pre;">0.87</text></g><g class="ytick"><text text-anchor="end" x="79" y="4.199999999999999" transform="translate(0,136.04)" style="font-family: 'Open Sans', verdana, arial, sans-serif; font-size: 12px; fill: rgb(42, 63, 95); fill-opacity: 1; white-space: pre;">0.871</text></g></g><g class="overaxes-above"/></g></g><g class="polarlayer"/><g class="ternarylayer"/><g class="geolayer"/><g class="funnelarealayer"/><g class="pielayer"/><g class="treemaplayer"/><g class="sunburstlayer"/><g class="glimages"/><defs id="topdefs-cc0f76"><g class="clips"/><clipPath id="legendcc0f76"><rect width="60" height="45" x="0" y="0"/></clipPath></defs><g class="layer-above"><g class="imagelayer"/><g class="shapelayer"/></g><g class="infolayer"><g class="legend" pointer-events="all" transform="translate(627.74,100)"><rect class="bg" shape-rendering="crispEdges" width="60" height="45" x="0" y="0" style="stroke: rgb(68, 68, 68); stroke-opacity: 1; fill: rgb(255, 255, 255); fill-opacity: 1; stroke-width: 0px;"/><g class="scrollbox" transform="" clip-path="url('#legendcc0f76')"><text class="legendtitletext" text-anchor="start" x="2" y="15.600000000000001" style="font-family: 'Open Sans', verdana, arial, sans-serif; font-size: 12px; fill: rgb(42, 63, 95); fill-opacity: 1; white-space: pre;">All</text><g class="groups" transform=""><g class="traces" transform="translate(0,30.1)" style="opacity: 1;"><text class="legendtext" text-anchor="start" x="40" y="4.680000000000001" style="font-family: 'Open Sans', verdana, arial, sans-serif; font-size: 12px; fill: rgb(42, 63, 95); fill-opacity: 1; white-space: pre;">All</text><g class="layers" style="opacity: 1;"><g class="legendfill"/><g class="legendlines"><path class="js-line" d="M5,0h30" style="fill: none; stroke: rgb(99, 110, 250); stroke-opacity: 1; stroke-width: 2px;"/></g><g class="legendsymbols"><g class="legendpoints"/></g></g><rect class="legendtoggle" x="0" y="-9.5" width="54.890625" height="19" style="fill: rgb(0, 0, 0); fill-opacity: 0;"/></g></g></g><rect class="scrollbar" rx="20" ry="3" width="0" height="0" x="0" y="0" style="fill: rgb(128, 139, 164); fill-opacity: 1;"/></g><g class="g-gtitle"><text class="gtitle" x="35" y="50" text-anchor="start" dy="0em" style="font-family: 'Open Sans', verdana, arial, sans-serif; font-size: 17px; fill: rgb(42, 63, 95); opacity: 1; font-weight: normal; white-space: pre;">Singapore Vaccination Centers</text></g><g class="g-xtitle"><text class="xtitle" x="348.5" y="476.409375" text-anchor="middle" style="font-family: 'Open Sans', verdana, arial, sans-serif; font-size: 14px; fill: rgb(42, 63, 95); opacity: 1; font-weight: normal; white-space: pre;">Time</text></g><g class="g-ytitle"><text class="ytitle" transform="rotate(-90,19.840625000000003,260)" x="19.840625000000003" y="260" text-anchor="middle" style="font-family: 'Open Sans', verdana, arial, sans-serif; font-size: 14px; fill: rgb(42, 63, 95); opacity: 1; font-weight: normal; white-space: pre;">Filled/%</text></g></g></svg>