<svg class="main-svg" xmlns="http://www.w3.org/2000/svg" xmlns:xlink="http://www.w3.org/1999/xlink" width="700" height="500" style="" viewBox="0 0 700 500"><rect x="0" y="0" width="700" height="500" style="fill: rgb(255, 255, 255); fill-opacity: 1;"/><defs id="defs-0d32d0"><g class="clips"><clipPath id="clip0d32d0xyplot" class="plotclip"><rect width="537" height="320"/></clipPath><clipPath class="axesclip" id="clip0d32d0x"><rect x="80" y="0" width="537" height="500"/></clipPath><clipPath class="axesclip" id="clip0d32d0y"><rect x="0" y="100" width="700" height="320"/></clipPath><clipPath class="axesclip" id="clip0d32d0xy"><rect x="80" y="100" width="537" height="320"/></clipPath></g><g class="gradients"/></defs><g class="bglayer"><rect class="bg" x="80" y="100" width="537" height="320" style="fill: rgb(229, 236, 246); fill-opacity: 1; stroke-width: 0;"/></g><g class="layer-below"><g class="imagelayer"/><g class="shapelayer"/></g><g class="cartesianlayer"><g class="subplot xy"><g class="layer-subplot"><g class="shapelayer"/><g class="imagelayer"/></g><g class="gridlayer"><g class="x"><path class="xgrid crisp" transform="translate(91.9,0)" d="M0,100v320" style="stroke: rgb(255, 255, 255); stroke-opacity: 1; stroke-width: 1px;"/><path class="xgrid crisp" transform="translate(220.04,0)" d="M0,100v320" style="stroke: rgb(255, 255, 255); stroke-opacity: 1; stroke-width: 1px;"/><path class="xgrid crisp" transform="translate(348.19,0)" d="M0,100v320" style="stroke: rgb(255, 255, 255); stroke-opacity: 1; stroke-width: 1px;"/><path class="xgrid crisp" transform="translate(476.34,0)" d="M0,100v320" style="stroke: rgb(255, 255, 255); stroke-opacity: 1; stroke-width: 1px;"/><path class="xgrid crisp" transform="translate(604.48,0)" d="M0,100v320" style="stroke: rgb(255, 255, 255); stroke-opacity: 1; stroke-width: 1px;"/></g><g class="y"><path class="ygrid crisp" transform="translate(0,367.23)" d="M80,0h537" style="stroke: rgb(255, 255, 255); stroke-opacity: 1; stroke-width: 1px;"/><path class="ygrid crisp" transform="translate(0,308.43)" d="M80,0h537" style="stroke: rgb(255, 255, 255); stroke-opacity: 1; stroke-width: 1px;"/><path class="ygrid crisp" transform="translate(0,249.63)" d="M80,0h537" style="stroke: rgb(255, 255, 255); stroke-opacity: 1; stroke-width: 1px;"/><path class="ygrid crisp" transform="translate(0,190.82999999999998)" d="M80,0h537" style="stroke: rgb(255, 255, 255); stroke-opacity: 1; stroke-width: 1px;"/><path class="ygrid crisp" transform="translate(0,132.03)" d="M80,0h537" style="stroke: rgb(255, 255, 255); stroke-opacity: 1; stroke-width: 1px;"/></g></g><g class="zerolinelayer"/><path class="xlines-below"/><path class="ylines-below"/><g class="overlines-below"/><g class="xaxislayer-below"/><g class="yaxislayer-below"/><g class="overaxes-below"/><g class="plot" transform="translate(80,100)" clip-path="url('#clip0d32d0xyplot')"><g class="scatterlayer mlayer"><g class="trace scatter trace80b98c" style="stroke-miterlimit: 2; opacity: 1;"><g class="fills"/><g class="errorbars"/><g class="lines"><path class="js-line" d="M0,82.28L7.52,82.51L10.18,120.48L15.49,120.57L17.46,136.92L18.29,136.9L37.94,137.96L39.17,121.23L39.54,129.62L40.43,129.56L42.21,126.37L43.1,126.27L44.88,129.79L45.77,129.7L47.55,132.71L48.44,132.63L50.22,120.69L51.11,120.62L52.89,132.64L53.78,132.55L55.56,126.68L56.45,123.32L58.23,113.21L59.12,109.51L60.9,94.58L61.79,92.89L63.57,74.17L64.46,72.87L66.24,78.78L67.13,77.73L68.91,63.68L69.79,62.82L71.58,65.47L72.46,64.83L74.25,74.27L75.14,73.83L76.31,51.83L76.92,52.53L77.8,52.34L86.7,51.79L87.6,51.79L100.94,50.91L101.83,50.65L132.98,42.03L133.87,41.83L139.21,40.95L140.1,41.79L156.12,41.46L157.01,41.46L171.24,40.58L172.13,40.48L199.72,37.17L200.61,37.08L203.28,36.83L204.17,35.53L238.88,34L239.77,33.87L267.36,31.05L268.25,28.56L298.5,27.81L299.4,95.38L309.21,93.57L310.08,93.44L310.96,93.12L311.85,91.51L314.52,88.51L315.41,87.52L318.97,74.89L319.86,73.59L323.42,69.79L324.31,69.11L329.65,66.07L330.54,65.71L334.99,65.01L335.88,64.93L359.91,63.48L360.8,63.27L366.14,61.32L367.03,60.89L367.92,60.46L368.81,62.78L372.37,61.15L373.26,59.94L377.7,54.01L378.6,53.24L382.15,49.13L383.04,47.98L386.6,39.84L387.49,38.66L392.83,33.5L393.72,32.89L397.28,31.98L398.17,31.8L405.29,31.18L406.18,31.16L419.53,30.17L420.42,29.9L425.76,28.09L426.65,74.81L428.43,73.22L429.32,72.76L438.22,69.16L439.11,68.8L439.79,71.93L440,68.39L440.85,68.25L440.89,69.25L441.74,67.95L441.78,68.94L442.67,68.62L444.45,68.09L445.34,76.43L453.13,73.91L453.17,72.31L453.21,72.03L453.35,73.74L461.8,44.74L462.25,44.87L462.69,41.95L463.58,42.12L464.03,43.2L465.36,37.43L465.81,41.6L467.14,39.66L467.59,39.05L468.92,38.13L469.37,38.96L470.26,38.53L470.7,38.42L472.04,38.4L472.48,43.02L477.38,41.69L477.82,36.5L478.71,35.76L479.15,35.39L480.49,33.79L480.93,33.41L484.49,22.43L484.94,16L485.38,16.8L485.83,140.18L486.27,139.22L486.72,142.07L487.61,136.79L488.05,138.99L488.95,136.15L489.39,136.63L489.83,141.25L490.28,146.68L490.72,133.42L491.61,138.09L492.06,157.2L493.39,133.53L493.84,145.44L494.28,148.42L494.73,146.68L495.17,144.02L496.06,134.36L496.51,135.71L497.4,146.05L497.84,142.1L498.29,141.74L498.73,151.77L499.62,140.84L500.07,148.68L500.96,127.07L501.4,137.58L502.29,140.49L502.74,138.92L503.63,130.34L504.07,131.67L504.52,129.31L504.96,138.25L505.41,134.05L505.85,138.68L506.3,138.81L506.74,131.49L507.19,131.42L507.63,140.05L508.52,132.48L508.97,138.41L509.86,141.46L510.3,128.79L511.19,142.96L511.64,264.58L512.53,292.55L512.97,293.12L513.42,304L513.87,286.22L514.31,301.52L514.75,291.75L515.2,292.1L515.64,291.07L516.09,294.16L516.53,293.46L516.98,276.02L517.42,283.67L517.87,262.28L518.76,272.54L519.2,248.89L520.09,241.71L520.53,229.6L520.98,224.98L521.43,228.24L521.87,227.36L522.31,223.79L523.2,215.22L523.65,217.06L524.09,216.4L524.54,227.08L524.98,226.08L525.43,228.38L525.88,228.68L526.32,224.72L526.76,233.57L527.21,224.28L528.1,227.75L528.54,223.07L529.43,226.33L529.88,223.26L530.32,224.52L530.77,234.01L531.21,220.81L531.66,231.91L533,220.15L533.44,220.86L534.78,212.72L535.22,220.76L536.11,220.72L536.55,223.7L537,223.67" style="vector-effect: non-scaling-stroke; fill: none; stroke: rgb(99, 110, 250); stroke-opacity: 1; stroke-width: 2px; opacity: 1;"/></g><g class="points"/><g class="text"/></g></g></g><g class="overplot"/><path class="xlines-above crisp" d="M0,0" style="fill: none;"/><path class="ylines-above crisp" d="M0,0" style="fill: none;"/><g class="overlines-above"/><g class="xaxislayer-above"><g class="xtick"><text text-anchor="middle" x="0" y="433" transform="translate(91.9,0)" style="font-family: 'Open Sans', verdana, arial, sans-serif; font-size: 12px; fill: rgb(42, 63, 95); fill-opacity: 1; white-space: pre;"><tspan class="line" dy="0em" x="0" y="433">Jun 4</tspan><tspan class="line" dy="1.3em" x="0" y="433">2021</tspan></text></g><g class="xtick"><text text-anchor="middle" x="0" y="433" transform="translate(220.04,0)" style="font-family: 'Open Sans', verdana, arial, sans-serif; font-size: 12px; fill: rgb(42, 63, 95); fill-opacity: 1; white-space: pre;">Jun 6</text></g><g class="xtick"><text text-anchor="middle" x="0" y="433" transform="translate(348.19,0)" style="font-family: 'Open Sans', verdana, arial, sans-serif; font-size: 12px; fill: rgb(42, 63, 95); fill-opacity: 1; white-space: pre;">Jun 8</text></g><g class="xtick"><text text-anchor="middle" x="0" y="433" transform="translate(476.34,0)" style="font-family: 'Open Sans', verdana, arial, sans-serif; font-size: 12px; fill: rgb(42, 63, 95); fill-opacity: 1; white-space: pre;">Jun 10</text></g><g class="xtick"><text text-anchor="middle" x="0" y="433" transform="translate(604.48,0)" style="font-family: 'Open Sans', verdana, arial, sans-serif; font-size: 12px; fill: rgb(42, 63, 95); fill-opacity: 1; white-space: pre;">Jun 12</text></g></g><g class="yaxislayer-above"><g class="ytick"><text text-anchor="end" x="79" y="4.199999999999999" transform="translate(0,367.23)" style="font-family: 'Open Sans', verdana, arial, sans-serif; font-size: 12px; fill: rgb(42, 63, 95); fill-opacity: 1; white-space: pre;">0.8</text></g><g class="ytick"><text text-anchor="end" x="79" y="4.199999999999999" transform="translate(0,308.43)" style="font-family: 'Open Sans', verdana, arial, sans-serif; font-size: 12px; fill: rgb(42, 63, 95); fill-opacity: 1; white-space: pre;">0.82</text></g><g class="ytick"><text text-anchor="end" x="79" y="4.199999999999999" transform="translate(0,249.63)" style="font-family: 'Open Sans', verdana, arial, sans-serif; font-size: 12px; fill: rgb(42, 63, 95); fill-opacity: 1; white-space: pre;">0.84</text></g><g class="ytick"><text text-anchor="end" x="79" y="4.199999999999999" transform="translate(0,190.82999999999998)" style="font-family: 'Open Sans', verdana, arial, sans-serif; font-size: 12px; fill: rgb(42, 63, 95); fill-opacity: 1; white-space: pre;">0.86</text></g><g class="ytick"><text text-anchor="end" x="79" y="4.199999999999999" transform="translate(0,132.03)" style="font-family: 'Open Sans', verdana, arial, sans-serif; font-size: 12px; fill: rgb(42, 63, 95); fill-opacity: 1; white-space: pre;">0.88</text></g></g><g class="overaxes-above"/></g></g><g class="polarlayer"/><g class="ternarylayer"/><g class="geolayer"/><g class="funnelarealayer"/><g class="pielayer"/><g class="treemaplayer"/><g class="sunburstlayer"/><g class="glimages"/><defs id="topdefs-0d32d0"><g class="clips"/><clipPath id="legend0d32d0"><rect width="60" height="45" x="0" y="0"/></clipPath></defs><g class="layer-above"><g class="imagelayer"/><g class="shapelayer"/></g><g class="infolayer"><g class="legend" pointer-events="all" transform="translate(627.74,100)"><rect class="bg" shape-rendering="crispEdges" width="60" height="45" x="0" y="0" style="stroke: rgb(68, 68, 68); stroke-opacity: 1; fill: rgb(255, 255, 255); fill-opacity: 1; stroke-width: 0px;"/><g class="scrollbox" transform="" clip-path="url('#legend0d32d0')"><text class="legendtitletext" text-anchor="start" x="2" y="15.600000000000001" style="font-family: 'Open Sans', verdana, arial, sans-serif; font-size: 12px; fill: rgb(42, 63, 95); fill-opacity: 1; white-space: pre;">All</text><g class="groups" transform=""><g class="traces" transform="translate(0,30.1)" style="opacity: 1;"><text class="legendtext" text-anchor="start" x="40" y="4.680000000000001" style="font-family: 'Open Sans', verdana, arial, sans-serif; font-size: 12px; fill: rgb(42, 63, 95); fill-opacity: 1; white-space: pre;">All</text><g class="layers" style="opacity: 1;"><g class="legendfill"/><g class="legendlines"><path class="js-line" d="M5,0h30" style="fill: none; stroke: rgb(99, 110, 250); stroke-opacity: 1; stroke-width: 2px;"/></g><g class="legendsymbols"><g class="legendpoints"/></g></g><rect class="legendtoggle" x="0" y="-9.5" width="54.890625" height="19" style="fill: rgb(0, 0, 0); fill-opacity: 0;"/></g></g></g><rect class="scrollbar" rx="20" ry="3" width="0" height="0" x="0" y="0" style="fill: rgb(128, 139, 164); fill-opacity: 1;"/></g><g class="g-gtitle"><text class="gtitle" x="35" y="50" text-anchor="start" dy="0em" style="font-family: 'Open Sans', verdana, arial, sans-serif; font-size: 17px; fill: rgb(42, 63, 95); opacity: 1; font-weight: normal; white-space: pre;">Singapore Vaccination Centers</text></g><g class="g-xtitle"><text class="xtitle" x="348.5" y="476.409375" text-anchor="middle" style="font-family: 'Open Sans', verdana, arial, sans-serif; font-size: 14px; fill: rgb(42, 63, 95); opacity: 1; font-weight: normal; white-space: pre;">Time</text></g><g class="g-ytitle"><text class="ytitle" transform="rotate(-90,27.481250000000003,260)" x="27.481250000000003" y="260" text-anchor="middle" style="font-family: 'Open Sans', verdana, arial, sans-serif; font-size: 14px; fill: rgb(42, 63, 95); opacity: 1; font-weight: normal; white-space: pre;">Filled/%</text></g></g></svg>