<svg class="main-svg" xmlns="http://www.w3.org/2000/svg" xmlns:xlink="http://www.w3.org/1999/xlink" width="700" height="500" style="" viewBox="0 0 700 500"><rect x="0" y="0" width="700" height="500" style="fill: rgb(255, 255, 255); fill-opacity: 1;"/><defs id="defs-7ac443"><g class="clips"><clipPath id="clip7ac443xyplot" class="plotclip"><rect width="537" height="320"/></clipPath><clipPath class="axesclip" id="clip7ac443x"><rect x="80" y="0" width="537" height="500"/></clipPath><clipPath class="axesclip" id="clip7ac443y"><rect x="0" y="100" width="700" height="320"/></clipPath><clipPath class="axesclip" id="clip7ac443xy"><rect x="80" y="100" width="537" height="320"/></clipPath></g><g class="gradients"/></defs><g class="bglayer"><rect class="bg" x="80" y="100" width="537" height="320" style="fill: rgb(229, 236, 246); fill-opacity: 1; stroke-width: 0;"/></g><g class="layer-below"><g class="imagelayer"/><g class="shapelayer"/></g><g class="cartesianlayer"><g class="subplot xy"><g class="layer-subplot"><g class="shapelayer"/><g class="imagelayer"/></g><g class="gridlayer"><g class="x"><path class="xgrid crisp" transform="translate(82.51,0)" d="M0,100v320" style="stroke: rgb(255, 255, 255); stroke-opacity: 1; stroke-width: 1px;"/><path class="xgrid crisp" transform="translate(179.31,0)" d="M0,100v320" style="stroke: rgb(255, 255, 255); stroke-opacity: 1; stroke-width: 1px;"/><path class="xgrid crisp" transform="translate(276.1,0)" d="M0,100v320" style="stroke: rgb(255, 255, 255); stroke-opacity: 1; stroke-width: 1px;"/><path class="xgrid crisp" transform="translate(372.9,0)" d="M0,100v320" style="stroke: rgb(255, 255, 255); stroke-opacity: 1; stroke-width: 1px;"/><path class="xgrid crisp" transform="translate(469.69,0)" d="M0,100v320" style="stroke: rgb(255, 255, 255); stroke-opacity: 1; stroke-width: 1px;"/><path class="xgrid crisp" transform="translate(566.48,0)" d="M0,100v320" style="stroke: rgb(255, 255, 255); stroke-opacity: 1; stroke-width: 1px;"/></g><g class="y"><path class="ygrid crisp" transform="translate(0,392.55)" d="M80,0h537" style="stroke: rgb(255, 255, 255); stroke-opacity: 1; stroke-width: 1px;"/><path class="ygrid crisp" transform="translate(0,349.77)" d="M80,0h537" style="stroke: rgb(255, 255, 255); stroke-opacity: 1; stroke-width: 1px;"/><path class="ygrid crisp" transform="translate(0,306.99)" d="M80,0h537" style="stroke: rgb(255, 255, 255); stroke-opacity: 1; stroke-width: 1px;"/><path class="ygrid crisp" transform="translate(0,264.21000000000004)" d="M80,0h537" style="stroke: rgb(255, 255, 255); stroke-opacity: 1; stroke-width: 1px;"/><path class="ygrid crisp" transform="translate(0,221.43)" d="M80,0h537" style="stroke: rgb(255, 255, 255); stroke-opacity: 1; stroke-width: 1px;"/><path class="ygrid crisp" transform="translate(0,178.65)" d="M80,0h537" style="stroke: rgb(255, 255, 255); stroke-opacity: 1; stroke-width: 1px;"/><path class="ygrid crisp" transform="translate(0,135.87)" d="M80,0h537" style="stroke: rgb(255, 255, 255); stroke-opacity: 1; stroke-width: 1px;"/></g></g><g class="zerolinelayer"/><path class="xlines-below"/><path class="ylines-below"/><g class="overlines-below"/><g class="xaxislayer-below"/><g class="yaxislayer-below"/><g class="overaxes-below"/><g class="plot" transform="translate(80,100)" clip-path="url('#clip7ac443xyplot')"><g class="scatterlayer mlayer"><g class="trace scatter trace814188" style="stroke-miterlimit: 2; opacity: 1;"><g class="fills"/><g class="errorbars"/><g class="lines"><path class="js-line" d="M0,304L1.94,302.59L2.61,249.74L3.28,251.04L3.96,249.35L6.64,248.71L7.31,248.32L8.66,249.1L9.33,248.19L10.68,248.58L11.35,248.19L12.69,247.93L13.36,247.67L14.71,247.41L15.38,247.16L20.76,246.77L21.43,246.51L25.47,246.12L26.14,245.73L27.48,245.86L28.15,245.22L29.49,245.09L30.17,244.44L31.51,244.57L32.18,243.66L33.53,244.57L34.2,243.02L36.22,242.11L36.89,242.63L37.56,242.24L38.24,243.15L39.58,240.17L40.25,240.69L40.92,240.69L41.59,239.78L44.96,236.94L45.63,237.97L46.3,238.23L46.97,237.07L47.64,235L48.32,235.51L48.99,236.55L49.66,235L51.01,232.67L51.68,232.28L53.02,230.6L53.7,231.12L55.04,229.95L55.71,230.21L56.38,231.76L57.05,229.56L59.07,230.6L59.75,230.21L61.76,226.07L62.43,226.85L63.78,225.68L64.45,227.36L65.12,227.11L65.79,225.55L68.48,221.16L69.15,218.44L69.83,219.09L70.5,217.66L71.17,216.63L71.84,217.4L73.19,217.66L73.86,218.7L76.55,216.5L77.22,216.37L78.57,215.72L79.24,214.69L79.91,214.3L80.58,214.82L81.92,215.98L82.6,214.43L84.61,213.39L85.29,212.88L86.63,212.23L87.31,211.45L89.32,212.23L89.99,211.84L91.34,211.58L92.01,211.84L93.35,210.42L94.03,208.87L95.37,207.7L96.04,206.93L97.39,207.96L98.06,207.44L98.73,207.96L99.41,142.27L101.42,140.18L102.09,140.44L103.44,139.92L104.11,139.01L105.45,139.14L106.13,139.14L108.81,138.48L109.48,138.35L111.5,137.83L112.18,137.96L118.22,137.96L118.9,138.09L123.6,137.83L124.27,137.18L126.29,137.18L126.96,136.14L129.65,136.27L130.32,135.74L131.67,135.88L132.34,135.22L133.69,134.57L134.36,135.22L137.04,132.22L137.72,133.27L139.73,131.57L140.41,132.22L143.09,128.44L143.77,130.14L146.45,127.14L147.13,128.05L148.47,126.48L149.14,127.66L149.82,128.7L150.49,127.79L151.16,128.83L151.83,128.31L152.5,127.4L153.18,128.44L154.52,128.18L155.19,128.57L156.54,128.83L157.21,128.44L159.91,124.79L160.58,124.92L161.92,125.96L162.6,124.01L165.29,123.09L165.96,121.4L168.65,121.92L169.32,120.61L169.99,118.4L170.66,119.96L171.34,119.96L172.01,118.79L172.68,119.7L173.35,119.18L174.7,117.35L175.37,117.48L177.39,114.35L178.06,114.48L179.4,112.14L180.07,112.92L181.42,110.83L182.09,111.35L184.11,110.7L184.78,108.09L185.45,107.96L186.12,106.92L187.47,105.74L188.14,106L189.49,107.83L190.16,107.18L190.84,109.13L191.5,108.35L192.17,108.22L192.84,106.66L193.52,106.27L194.19,106.79L195.53,107.05L196.21,61.25L198.22,59.15L198.89,58.88L202.93,56.78L203.6,56.52L206.29,54.54L206.96,54.28L208.98,54.41L209.65,53.75L213.01,53.62L213.68,53.75L224.44,51.78L225.11,52.18L227.12,51.12L227.79,51.25L228.47,51.52L229.14,50.73L233.17,50.07L234.52,49.54L235.19,48.23L236.53,47.83L237.88,47.44L238.55,45.73L239.22,46.91L239.9,45.73L241.24,45.73L241.91,45.07L242.59,44.94L243.25,43.76L245.27,43.49L245.94,41.91L247.29,40.2L247.96,39.42L248.61,38.1L249.28,38.76L251.3,37.71L251.97,36L254.66,35.34L255.33,33.36L256,32.71L256.68,33.23L258.02,32.44L258.69,32.05L259.37,31.92L260.04,30.86L261.38,30.86L262.05,31.39L263.4,32.97L264.07,31.13L265.42,32.31L266.1,30.34L267.44,30.47L268.11,30.86L270.12,29.02L270.8,29.42L272.14,27.71L272.81,26.66L273.48,24.16L274.16,24.68L274.83,23.24L275.5,24.68L276.85,22.84L277.52,22.58L278.19,21.26L278.86,21.66L280.21,21.79L280.87,20.74L281.55,21.26L282.22,19.68L283.56,19.55L284.24,18.5L286.92,18.89L287.6,17.97L288.94,17.84L289.62,17.97L290.96,16L291.63,16.66L292.31,16.39L292.98,171.81L296.34,171.4L297.01,172.08L299.03,170.99L299.7,170.99L301.04,169.76L301.71,169.76L303.73,169.08L304.41,169.08L309.11,168.67L309.78,168.67L314.49,168.39L315.16,168.39L317.85,167.44L318.52,167.71L321.88,166.62L322.55,166.89L324.56,165.8L325.24,165.12L328.6,164.02L329.27,162.66L331.98,162.38L332.66,163.61L334,161.7L334.67,161.57L335.35,160.88L336.02,158.43L336.69,156.51L337.36,156.79L338.03,156.1L338.7,154.33L339.38,154.88L340.72,154.47L341.4,154.33L343.41,152.69L344.08,153.65L346.1,150.92L346.77,151.87L348.79,149.14L349.46,149.14L350.13,148.32L350.81,149.41L352.15,150.37L352.82,149.41L353.49,149.55L354.17,148.73L356.86,145.18L357.53,144.5L359.54,143.54L360.22,145.04L364.25,141.9L364.92,143.68L366.27,121.97L366.94,121.56L368.28,120.88L368.96,116.1L369.63,116.24L370.3,112.28L370.97,112.55L371.64,109.96L372.32,106.95L372.99,107.91L375,101.22L375.68,98.08L377.02,97.53L377.69,95.35L378.36,94.8L379.04,92.07L380.38,89.34L381.05,89.34L383.07,85.65L383.74,84.7L385.09,82.78L385.76,80.19L389.12,75L389.79,88.44L393.16,84.03L393.83,84.45L394.5,84.31L395.17,85.14L396.52,84.72L397.19,85.41L398.53,84.59L399.2,84.45L400.55,84.03L401.22,84.03L402.57,84.17L403.24,83.62L407.94,84.03L408.62,83.62L412.65,83.21L413.32,83.48L416,83.48L416.68,83.35L418.02,83.35L418.7,83.35L420.71,83.35L421.39,83.9L424.74,79.9L425.42,80.18L427.44,78.8L428.11,78.94L428.78,78.53L429.45,76.87L430.79,77.15L431.47,75.63L434.83,72.47L435.5,72.88L437.52,69.44L438.19,69.02L440.21,66.41L440.88,66.41L442.22,63.79L442.89,63.79L444.24,61.86L444.91,59.66L447.6,54.43L448.27,54.01L448.94,53.6L449.62,51.4L452.31,49.47L452.98,47.82L457.01,46.85L457.68,45.75L458.36,46.16L459.03,45.48L459.7,45.89L465.08,41.21L468.44,38.59L469.11,39.28L471.8,35.97L472.47,35.84L473.15,34.46L473.82,35.01L475.16,33.91L475.84,34.18L476.51,35.28L477.18,34.32L479.87,32.94L480.54,33.91L483.23,33.22L483.9,32.12L485.92,29.78L486.59,81.26L487.93,81.68L488.61,80.56L489.28,79.86L489.95,80.42L491.96,80.42L492.64,81.4L494.65,81.12L495.33,81.12L498.69,81.4L499.36,81.12L502.05,79.86L502.72,80.28L509.44,79.58L510.12,79.58L517.51,79.3L518.18,79.16L521.54,78.74L522.21,78.31L523.56,77.75L524.23,76.77L525.57,76.35L526.25,74.95L526.92,73.55L527.59,74.95L530.28,73.97L530.95,73.97L532.3,71.86L532.97,71.58L534.99,68.64L535.66,68.5L536.33,68.22L537,68.78" style="vector-effect: non-scaling-stroke; fill: none; stroke: rgb(99, 110, 250); stroke-opacity: 1; stroke-width: 2px; opacity: 1;"/></g><g class="points"/><g class="text"/></g></g></g><g class="overplot"/><path class="xlines-above crisp" d="M0,0" style="fill: none;"/><path class="ylines-above crisp" d="M0,0" style="fill: none;"/><g class="overlines-above"/><g class="xaxislayer-above"><g class="xtick"><text text-anchor="middle" x="0" y="433" transform="translate(82.51,0)" style="font-family: 'Open Sans', verdana, arial, sans-serif; font-size: 12px; fill: rgb(42, 63, 95); fill-opacity: 1; white-space: pre;"><tspan class="line" dy="0em" x="0" y="433">Aug 3</tspan><tspan class="line" dy="1.3em" x="0" y="433">2021</tspan></text></g><g class="xtick"><text text-anchor="middle" x="0" y="433" transform="translate(179.31,0)" style="font-family: 'Open Sans', verdana, arial, sans-serif; font-size: 12px; fill: rgb(42, 63, 95); fill-opacity: 1; white-space: pre;">Aug 4</text></g><g class="xtick"><text text-anchor="middle" x="0" y="433" transform="translate(276.1,0)" style="font-family: 'Open Sans', verdana, arial, sans-serif; font-size: 12px; fill: rgb(42, 63, 95); fill-opacity: 1; white-space: pre;">Aug 5</text></g><g class="xtick"><text text-anchor="middle" x="0" y="433" transform="translate(372.9,0)" style="font-family: 'Open Sans', verdana, arial, sans-serif; font-size: 12px; fill: rgb(42, 63, 95); fill-opacity: 1; white-space: pre;">Aug 6</text></g><g class="xtick"><text text-anchor="middle" x="0" y="433" transform="translate(469.69,0)" style="font-family: 'Open Sans', verdana, arial, sans-serif; font-size: 12px; fill: rgb(42, 63, 95); fill-opacity: 1; white-space: pre;">Aug 7</text></g><g class="xtick"><text text-anchor="middle" x="0" y="433" transform="translate(566.48,0)" style="font-family: 'Open Sans', verdana, arial, sans-serif; font-size: 12px; fill: rgb(42, 63, 95); fill-opacity: 1; white-space: pre;">Aug 8</text></g></g><g class="yaxislayer-above"><g class="ytick"><text text-anchor="end" x="79" y="4.199999999999999" transform="translate(0,392.55)" style="font-family: 'Open Sans', verdana, arial, sans-serif; font-size: 12px; fill: rgb(42, 63, 95); fill-opacity: 1; white-space: pre;">0.864</text></g><g class="ytick"><text text-anchor="end" x="79" y="4.199999999999999" transform="translate(0,349.77)" style="font-family: 'Open Sans', verdana, arial, sans-serif; font-size: 12px; fill: rgb(42, 63, 95); fill-opacity: 1; white-space: pre;">0.865</text></g><g class="ytick"><text text-anchor="end" x="79" y="4.199999999999999" transform="translate(0,306.99)" style="font-family: 'Open Sans', verdana, arial, sans-serif; font-size: 12px; fill: rgb(42, 63, 95); fill-opacity: 1; white-space: pre;">0.866</text></g><g class="ytick"><text text-anchor="end" x="79" y="4.199999999999999" transform="translate(0,264.21000000000004)" style="font-family: 'Open Sans', verdana, arial, sans-serif; font-size: 12px; fill: rgb(42, 63, 95); fill-opacity: 1; white-space: pre;">0.867</text></g><g class="ytick"><text text-anchor="end" x="79" y="4.199999999999999" transform="translate(0,221.43)" style="font-family: 'Open Sans', verdana, arial, sans-serif; font-size: 12px; fill: rgb(42, 63, 95); fill-opacity: 1; white-space: pre;">0.868</text></g><g class="ytick"><text text-anchor="end" x="79" y="4.199999999999999" transform="translate(0,178.65)" style="font-family: 'Open Sans', verdana, arial, sans-serif; font-size: 12px; fill: rgb(42, 63, 95); fill-opacity: 1; white-space: pre;">0.869</text></g><g class="ytick"><text text-anchor="end" x="79" y="4.199999999999999" transform="translate(0,135.87)" style="font-family: 'Open Sans', verdana, arial, sans-serif; font-size: 12px; fill: rgb(42, 63, 95); fill-opacity: 1; white-space: pre;">0.87</text></g></g><g class="overaxes-above"/></g></g><g class="polarlayer"/><g class="ternarylayer"/><g class="geolayer"/><g class="funnelarealayer"/><g class="pielayer"/><g class="treemaplayer"/><g class="sunburstlayer"/><g class="glimages"/><defs id="topdefs-7ac443"><g class="clips"/><clipPath id="legend7ac443"><rect width="60" height="45" x="0" y="0"/></clipPath></defs><g class="layer-above"><g class="imagelayer"/><g class="shapelayer"/></g><g class="infolayer"><g class="legend" pointer-events="all" transform="translate(627.74,100)"><rect class="bg" shape-rendering="crispEdges" width="60" height="45" x="0" y="0" style="stroke: rgb(68, 68, 68); stroke-opacity: 1; fill: rgb(255, 255, 255); fill-opacity: 1; stroke-width: 0px;"/><g class="scrollbox" transform="" clip-path="url('#legend7ac443')"><text class="legendtitletext" text-anchor="start" x="2" y="15.600000000000001" style="font-family: 'Open Sans', verdana, arial, sans-serif; font-size: 12px; fill: rgb(42, 63, 95); fill-opacity: 1; white-space: pre;">All</text><g class="groups" transform=""><g class="traces" transform="translate(0,30.1)" style="opacity: 1;"><text class="legendtext" text-anchor="start" x="40" y="4.680000000000001" style="font-family: 'Open Sans', verdana, arial, sans-serif; font-size: 12px; fill: rgb(42, 63, 95); fill-opacity: 1; white-space: pre;">All</text><g class="layers" style="opacity: 1;"><g class="legendfill"/><g class="legendlines"><path class="js-line" d="M5,0h30" style="fill: none; stroke: rgb(99, 110, 250); stroke-opacity: 1; stroke-width: 2px;"/></g><g class="legendsymbols"><g class="legendpoints"/></g></g><rect class="legendtoggle" x="0" y="-9.5" width="54.890625" height="19" style="fill: rgb(0, 0, 0); fill-opacity: 0;"/></g></g></g><rect class="scrollbar" rx="20" ry="3" width="0" height="0" x="0" y="0" style="fill: rgb(128, 139, 164); fill-opacity: 1;"/></g><g class="g-gtitle"><text class="gtitle" x="35" y="50" text-anchor="start" dy="0em" style="font-family: 'Open Sans', verdana, arial, sans-serif; font-size: 17px; fill: rgb(42, 63, 95); opacity: 1; font-weight: normal; white-space: pre;">Singapore Vaccination Centers</text></g><g class="g-xtitle"><text class="xtitle" x="348.5" y="476.409375" text-anchor="middle" style="font-family: 'Open Sans', verdana, arial, sans-serif; font-size: 14px; fill: rgb(42, 63, 95); opacity: 1; font-weight: normal; white-space: pre;">Time</text></g><g class="g-ytitle"><text class="ytitle" transform="rotate(-90,19.840625000000003,260)" x="19.840625000000003" y="260" text-anchor="middle" style="font-family: 'Open Sans', verdana, arial, sans-serif; font-size: 14px; fill: rgb(42, 63, 95); opacity: 1; font-weight: normal; white-space: pre;">Filled/%</text></g></g></svg>