<svg class="main-svg" xmlns="http://www.w3.org/2000/svg" xmlns:xlink="http://www.w3.org/1999/xlink" width="700" height="500" style="" viewBox="0 0 700 500"><rect x="0" y="0" width="700" height="500" style="fill: rgb(255, 255, 255); fill-opacity: 1;"/><defs id="defs-eac646"><g class="clips"><clipPath id="clipeac646xyplot" class="plotclip"><rect width="537" height="320"/></clipPath><clipPath class="axesclip" id="clipeac646x"><rect x="80" y="0" width="537" height="500"/></clipPath><clipPath class="axesclip" id="clipeac646y"><rect x="0" y="100" width="700" height="320"/></clipPath><clipPath class="axesclip" id="clipeac646xy"><rect x="80" y="100" width="537" height="320"/></clipPath></g><g class="gradients"/></defs><g class="bglayer"><rect class="bg" x="80" y="100" width="537" height="320" style="fill: rgb(229, 236, 246); fill-opacity: 1; stroke-width: 0;"/></g><g class="layer-below"><g class="imagelayer"/><g class="shapelayer"/></g><g class="cartesianlayer"><g class="subplot xy"><g class="layer-subplot"><g class="shapelayer"/><g class="imagelayer"/></g><g class="gridlayer"><g class="x"><path class="xgrid crisp" transform="translate(82.95,0)" d="M0,100v320" style="stroke: rgb(255, 255, 255); stroke-opacity: 1; stroke-width: 1px;"/><path class="xgrid crisp" transform="translate(196.51999999999998,0)" d="M0,100v320" style="stroke: rgb(255, 255, 255); stroke-opacity: 1; stroke-width: 1px;"/><path class="xgrid crisp" transform="translate(310.09000000000003,0)" d="M0,100v320" style="stroke: rgb(255, 255, 255); stroke-opacity: 1; stroke-width: 1px;"/><path class="xgrid crisp" transform="translate(423.65,0)" d="M0,100v320" style="stroke: rgb(255, 255, 255); stroke-opacity: 1; stroke-width: 1px;"/><path class="xgrid crisp" transform="translate(537.22,0)" d="M0,100v320" style="stroke: rgb(255, 255, 255); stroke-opacity: 1; stroke-width: 1px;"/></g><g class="y"><path class="ygrid crisp" transform="translate(0,392.55)" d="M80,0h537" style="stroke: rgb(255, 255, 255); stroke-opacity: 1; stroke-width: 1px;"/><path class="ygrid crisp" transform="translate(0,349.77)" d="M80,0h537" style="stroke: rgb(255, 255, 255); stroke-opacity: 1; stroke-width: 1px;"/><path class="ygrid crisp" transform="translate(0,306.99)" d="M80,0h537" style="stroke: rgb(255, 255, 255); stroke-opacity: 1; stroke-width: 1px;"/><path class="ygrid crisp" transform="translate(0,264.21000000000004)" d="M80,0h537" style="stroke: rgb(255, 255, 255); stroke-opacity: 1; stroke-width: 1px;"/><path class="ygrid crisp" transform="translate(0,221.43)" d="M80,0h537" style="stroke: rgb(255, 255, 255); stroke-opacity: 1; stroke-width: 1px;"/><path class="ygrid crisp" transform="translate(0,178.65)" d="M80,0h537" style="stroke: rgb(255, 255, 255); stroke-opacity: 1; stroke-width: 1px;"/><path class="ygrid crisp" transform="translate(0,135.87)" d="M80,0h537" style="stroke: rgb(255, 255, 255); stroke-opacity: 1; stroke-width: 1px;"/></g></g><g class="zerolinelayer"/><path class="xlines-below"/><path class="ylines-below"/><g class="overlines-below"/><g class="xaxislayer-below"/><g class="yaxislayer-below"/><g class="overaxes-below"/><g class="plot" transform="translate(80,100)" clip-path="url('#clipeac646xyplot')"><g class="scatterlayer mlayer"><g class="trace scatter tracedf85bc" style="stroke-miterlimit: 2; opacity: 1;"><g class="fills"/><g class="errorbars"/><g class="lines"><path class="js-line" d="M0,304L2.27,302.59L3.06,249.74L3.85,251.04L4.64,249.35L7.79,248.71L8.58,248.32L10.16,249.1L10.95,248.19L12.53,248.58L13.32,248.19L14.89,247.93L15.68,247.67L17.26,247.41L18.05,247.16L24.36,246.77L25.14,246.51L29.88,246.12L30.67,245.73L32.24,245.86L33.03,245.22L34.61,245.09L35.39,244.44L36.19,244.96L36.97,244.57L37.76,243.66L38.55,243.92L39.34,244.57L40.13,243.02L42.49,242.11L43.28,242.63L44.07,242.24L44.86,243.15L45.65,242.24L46.44,240.17L48.01,240.69L48.8,239.78L51.96,237.84L52.75,236.94L54.32,238.23L55.11,237.07L55.9,235L56.69,235.51L57.48,236.55L58.26,235L59.84,232.67L60.63,232.28L62.21,230.6L63,231.12L64.57,229.95L65.37,230.21L66.15,231.76L66.94,229.56L69.31,230.6L70.1,230.21L72.47,226.07L73.25,226.85L74.83,225.68L75.62,227.36L76.41,227.11L77.2,225.55L80.35,221.16L81.14,218.44L81.93,219.09L82.72,217.66L83.51,216.63L84.29,217.4L85.87,217.66L86.66,218.7L89.82,216.5L90.6,216.37L92.18,215.72L92.97,214.69L93.76,214.3L94.55,214.82L96.12,215.98L96.91,214.43L99.28,213.39L100.07,212.88L101.65,212.23L102.44,211.45L104.8,212.23L105.59,211.84L107.17,211.58L107.96,211.84L109.53,210.42L110.32,208.87L111.9,207.7L112.69,206.93L114.26,207.96L115.05,207.44L115.84,207.96L116.63,142.27L119,140.18L119.79,140.44L121.36,139.92L122.15,139.01L123.73,139.14L124.52,139.14L127.67,138.48L128.46,138.35L130.83,137.83L131.62,137.96L138.71,137.96L139.5,138.09L145.02,137.83L145.81,137.18L148.18,137.18L148.96,136.14L152.12,136.27L152.91,135.74L154.48,135.88L155.27,135.22L156.85,134.57L157.64,135.22L160.79,132.22L161.58,133.27L163.95,131.57L164.74,132.22L167.89,128.44L168.68,130.14L171.83,127.14L172.63,128.05L174.2,126.48L174.99,127.66L175.78,128.7L176.57,127.79L177.36,128.83L178.14,128.31L178.93,127.4L179.72,128.44L180.51,127.79L181.3,128.18L183.66,128.83L184.46,128.44L187.62,124.79L188.41,124.92L189.99,125.96L190.78,124.01L193.93,123.09L194.72,121.4L197.87,121.92L198.66,120.61L199.45,118.4L200.24,119.96L201.03,119.96L201.82,118.79L202.61,119.7L203.39,119.18L204.97,117.35L205.76,117.48L208.13,114.35L208.92,114.48L210.5,112.14L211.28,112.92L212.86,110.83L213.65,111.35L216.01,110.7L216.8,108.09L217.59,107.96L218.38,106.92L219.17,105.48L219.96,105.74L220.75,106L221.53,107.18L222.33,107.83L223.11,107.18L223.91,109.13L224.69,108.35L225.48,108.22L226.26,106.66L227.06,106.27L227.84,106.79L229.42,107.05L230.21,61.25L231.79,59.41L232.57,59.15L234.94,57.57L235.73,57.17L237.31,57.04L238.09,56.78L241.25,55.46L242.04,54.54L243.62,54.28L244.41,54.81L247.56,53.75L248.35,53.62L249.93,53.62L250.72,53.75L263.33,51.78L264.12,52.18L266.49,51.12L267.27,51.25L268.07,51.52L268.85,50.73L273.58,50.07L275.16,49.54L275.95,48.23L277.52,47.83L279.1,47.44L279.89,45.73L280.68,46.91L281.47,45.73L283.05,45.73L283.83,45.07L284.63,44.94L285.41,43.76L287.78,43.49L288.57,41.91L290.14,40.2L290.93,39.42L291.7,38.1L292.48,38.76L294.85,37.71L295.64,36L298.79,35.34L299.58,33.36L300.37,32.71L301.16,33.23L302.73,32.44L303.53,32.05L304.32,31.92L305.1,30.86L306.68,30.86L307.47,31.39L309.04,32.97L309.84,31.13L311.41,32.31L312.21,30.34L313.78,30.47L314.57,30.86L316.94,29.02L317.73,29.42L319.3,27.71L320.09,26.66L320.88,24.16L321.67,24.68L322.45,23.24L323.24,24.68L324.82,22.84L325.61,22.58L326.4,21.26L327.18,21.66L328.77,21.79L329.55,20.74L330.34,21.26L331.13,19.68L332.71,19.55L333.5,18.5L336.65,18.89L337.44,17.97L338.23,17.45L339.02,17.84L339.81,17.97L340.6,17.05L341.39,16L342.17,16.66L342.96,16.39L343.75,171.81L347.69,171.4L348.49,172.08L350.85,170.99L351.64,170.99L353.22,169.76L354,169.76L355.58,168.94L356.37,169.08L369.78,168.39L370.56,167.98L380.81,165.8L381.6,165.12L385.55,164.02L386.34,162.66L389.52,162.38L390.31,163.61L391.88,161.7L392.67,161.57L393.46,160.88L394.25,158.43L395.03,156.51L395.83,156.79L396.62,156.1L397.4,154.33L398.19,154.88L398.98,154.19L400.56,154.33L401.35,153.37L402.92,152.69L403.71,153.65L406.08,150.92L406.87,151.87L409.24,149.14L410.02,149.14L410.81,148.32L411.6,149.41L413.18,150.37L413.97,149.41L414.75,149.55L415.55,148.73L418.7,145.18L419.49,144.5L421.85,143.54L422.64,145.04L427.38,141.9L428.16,143.68L428.95,121.97L429.74,121.97L432.11,120.88L432.9,116.1L433.68,116.24L434.47,112.28L435.26,112.55L436.05,109.96L436.84,106.95L437.63,107.91L439.99,101.22L440.78,98.08L442.36,97.53L443.15,95.35L443.94,94.8L444.73,92.07L446.3,89.34L447.09,89.34L448.67,85.93L449.46,85.65L451.82,82.78L452.61,80.19L456.56,75L457.35,88.44L461.29,84.03L462.08,84.45L462.87,84.31L463.66,85.14L465.24,84.72L466.02,85.41L467.6,84.59L468.38,84.45L469.97,84.03L470.75,84.03L472.33,84.17L473.12,83.62L478.64,84.03L479.43,83.62L484.16,83.21L484.95,83.48L488.1,83.48L488.89,83.35L490.47,83.35L491.26,83.35L493.62,83.35L494.42,83.9L498.35,79.9L499.14,80.18L501.51,78.8L502.3,78.94L503.09,78.53L503.87,76.87L505.45,77.15L506.24,75.63L510.19,72.47L510.97,72.88L512.55,69.99L513.34,69.44L514.92,68.06L515.71,66.27L517.28,66.41L518.07,64.2L520.44,63.1L521.23,61.86L524.38,54.29L525.17,54.43L526.75,53.6L527.54,51.4L530.69,49.47L531.48,47.82L536.21,46.85L537,45.75" style="vector-effect: non-scaling-stroke; fill: none; stroke: rgb(99, 110, 250); stroke-opacity: 1; stroke-width: 2px; opacity: 1;"/></g><g class="points"/><g class="text"/></g></g></g><g class="overplot"/><path class="xlines-above crisp" d="M0,0" style="fill: none;"/><path class="ylines-above crisp" d="M0,0" style="fill: none;"/><g class="overlines-above"/><g class="xaxislayer-above"><g class="xtick"><text text-anchor="middle" x="0" y="433" transform="translate(82.95,0)" style="font-family: 'Open Sans', verdana, arial, sans-serif; font-size: 12px; fill: rgb(42, 63, 95); fill-opacity: 1; white-space: pre;"><tspan class="line" dy="0em" x="0" y="433">Aug 3</tspan><tspan class="line" dy="1.3em" x="0" y="433">2021</tspan></text></g><g class="xtick"><text text-anchor="middle" x="0" y="433" transform="translate(196.51999999999998,0)" style="font-family: 'Open Sans', verdana, arial, sans-serif; font-size: 12px; fill: rgb(42, 63, 95); fill-opacity: 1; white-space: pre;">Aug 4</text></g><g class="xtick"><text text-anchor="middle" x="0" y="433" transform="translate(310.09000000000003,0)" style="font-family: 'Open Sans', verdana, arial, sans-serif; font-size: 12px; fill: rgb(42, 63, 95); fill-opacity: 1; white-space: pre;">Aug 5</text></g><g class="xtick"><text text-anchor="middle" x="0" y="433" transform="translate(423.65,0)" style="font-family: 'Open Sans', verdana, arial, sans-serif; font-size: 12px; fill: rgb(42, 63, 95); fill-opacity: 1; white-space: pre;">Aug 6</text></g><g class="xtick"><text text-anchor="middle" x="0" y="433" transform="translate(537.22,0)" style="font-family: 'Open Sans', verdana, arial, sans-serif; font-size: 12px; fill: rgb(42, 63, 95); fill-opacity: 1; white-space: pre;">Aug 7</text></g></g><g class="yaxislayer-above"><g class="ytick"><text text-anchor="end" x="79" y="4.199999999999999" transform="translate(0,392.55)" style="font-family: 'Open Sans', verdana, arial, sans-serif; font-size: 12px; fill: rgb(42, 63, 95); fill-opacity: 1; white-space: pre;">0.864</text></g><g class="ytick"><text text-anchor="end" x="79" y="4.199999999999999" transform="translate(0,349.77)" style="font-family: 'Open Sans', verdana, arial, sans-serif; font-size: 12px; fill: rgb(42, 63, 95); fill-opacity: 1; white-space: pre;">0.865</text></g><g class="ytick"><text text-anchor="end" x="79" y="4.199999999999999" transform="translate(0,306.99)" style="font-family: 'Open Sans', verdana, arial, sans-serif; font-size: 12px; fill: rgb(42, 63, 95); fill-opacity: 1; white-space: pre;">0.866</text></g><g class="ytick"><text text-anchor="end" x="79" y="4.199999999999999" transform="translate(0,264.21000000000004)" style="font-family: 'Open Sans', verdana, arial, sans-serif; font-size: 12px; fill: rgb(42, 63, 95); fill-opacity: 1; white-space: pre;">0.867</text></g><g class="ytick"><text text-anchor="end" x="79" y="4.199999999999999" transform="translate(0,221.43)" style="font-family: 'Open Sans', verdana, arial, sans-serif; font-size: 12px; fill: rgb(42, 63, 95); fill-opacity: 1; white-space: pre;">0.868</text></g><g class="ytick"><text text-anchor="end" x="79" y="4.199999999999999" transform="translate(0,178.65)" style="font-family: 'Open Sans', verdana, arial, sans-serif; font-size: 12px; fill: rgb(42, 63, 95); fill-opacity: 1; white-space: pre;">0.869</text></g><g class="ytick"><text text-anchor="end" x="79" y="4.199999999999999" transform="translate(0,135.87)" style="font-family: 'Open Sans', verdana, arial, sans-serif; font-size: 12px; fill: rgb(42, 63, 95); fill-opacity: 1; white-space: pre;">0.87</text></g></g><g class="overaxes-above"/></g></g><g class="polarlayer"/><g class="ternarylayer"/><g class="geolayer"/><g class="funnelarealayer"/><g class="pielayer"/><g class="treemaplayer"/><g class="sunburstlayer"/><g class="glimages"/><defs id="topdefs-eac646"><g class="clips"/><clipPath id="legendeac646"><rect width="60" height="45" x="0" y="0"/></clipPath></defs><g class="layer-above"><g class="imagelayer"/><g class="shapelayer"/></g><g class="infolayer"><g class="legend" pointer-events="all" transform="translate(627.74,100)"><rect class="bg" shape-rendering="crispEdges" width="60" height="45" x="0" y="0" style="stroke: rgb(68, 68, 68); stroke-opacity: 1; fill: rgb(255, 255, 255); fill-opacity: 1; stroke-width: 0px;"/><g class="scrollbox" transform="" clip-path="url('#legendeac646')"><text class="legendtitletext" text-anchor="start" x="2" y="15.600000000000001" style="font-family: 'Open Sans', verdana, arial, sans-serif; font-size: 12px; fill: rgb(42, 63, 95); fill-opacity: 1; white-space: pre;">All</text><g class="groups" transform=""><g class="traces" transform="translate(0,30.1)" style="opacity: 1;"><text class="legendtext" text-anchor="start" x="40" y="4.680000000000001" style="font-family: 'Open Sans', verdana, arial, sans-serif; font-size: 12px; fill: rgb(42, 63, 95); fill-opacity: 1; white-space: pre;">All</text><g class="layers" style="opacity: 1;"><g class="legendfill"/><g class="legendlines"><path class="js-line" d="M5,0h30" style="fill: none; stroke: rgb(99, 110, 250); stroke-opacity: 1; stroke-width: 2px;"/></g><g class="legendsymbols"><g class="legendpoints"/></g></g><rect class="legendtoggle" x="0" y="-9.5" width="54.890625" height="19" style="fill: rgb(0, 0, 0); fill-opacity: 0;"/></g></g></g><rect class="scrollbar" rx="20" ry="3" width="0" height="0" x="0" y="0" style="fill: rgb(128, 139, 164); fill-opacity: 1;"/></g><g class="g-gtitle"><text class="gtitle" x="35" y="50" text-anchor="start" dy="0em" style="font-family: 'Open Sans', verdana, arial, sans-serif; font-size: 17px; fill: rgb(42, 63, 95); opacity: 1; font-weight: normal; white-space: pre;">Singapore Vaccination Centers</text></g><g class="g-xtitle"><text class="xtitle" x="348.5" y="476.409375" text-anchor="middle" style="font-family: 'Open Sans', verdana, arial, sans-serif; font-size: 14px; fill: rgb(42, 63, 95); opacity: 1; font-weight: normal; white-space: pre;">Time</text></g><g class="g-ytitle"><text class="ytitle" transform="rotate(-90,19.840625000000003,260)" x="19.840625000000003" y="260" text-anchor="middle" style="font-family: 'Open Sans', verdana, arial, sans-serif; font-size: 14px; fill: rgb(42, 63, 95); opacity: 1; font-weight: normal; white-space: pre;">Filled/%</text></g></g></svg>