<svg class="main-svg" xmlns="http://www.w3.org/2000/svg" xmlns:xlink="http://www.w3.org/1999/xlink" width="700" height="500" style="" viewBox="0 0 700 500"><rect x="0" y="0" width="700" height="500" style="fill: rgb(255, 255, 255); fill-opacity: 1;"/><defs id="defs-ab614f"><g class="clips"><clipPath id="clipab614fxyplot" class="plotclip"><rect width="537" height="320"/></clipPath><clipPath class="axesclip" id="clipab614fx"><rect x="80" y="0" width="537" height="500"/></clipPath><clipPath class="axesclip" id="clipab614fy"><rect x="0" y="100" width="700" height="320"/></clipPath><clipPath class="axesclip" id="clipab614fxy"><rect x="80" y="100" width="537" height="320"/></clipPath></g><g class="gradients"/></defs><g class="bglayer"><rect class="bg" x="80" y="100" width="537" height="320" style="fill: rgb(229, 236, 246); fill-opacity: 1; stroke-width: 0;"/></g><g class="layer-below"><g class="imagelayer"/><g class="shapelayer"/></g><g class="cartesianlayer"><g class="subplot xy"><g class="layer-subplot"><g class="shapelayer"/><g class="imagelayer"/></g><g class="gridlayer"><g class="x"><path class="xgrid crisp" transform="translate(83.96,0)" d="M0,100v320" style="stroke: rgb(255, 255, 255); stroke-opacity: 1; stroke-width: 1px;"/><path class="xgrid crisp" transform="translate(160.24,0)" d="M0,100v320" style="stroke: rgb(255, 255, 255); stroke-opacity: 1; stroke-width: 1px;"/><path class="xgrid crisp" transform="translate(236.51,0)" d="M0,100v320" style="stroke: rgb(255, 255, 255); stroke-opacity: 1; stroke-width: 1px;"/><path class="xgrid crisp" transform="translate(312.78999999999996,0)" d="M0,100v320" style="stroke: rgb(255, 255, 255); stroke-opacity: 1; stroke-width: 1px;"/><path class="xgrid crisp" transform="translate(389.07,0)" d="M0,100v320" style="stroke: rgb(255, 255, 255); stroke-opacity: 1; stroke-width: 1px;"/><path class="xgrid crisp" transform="translate(465.34,0)" d="M0,100v320" style="stroke: rgb(255, 255, 255); stroke-opacity: 1; stroke-width: 1px;"/><path class="xgrid crisp" transform="translate(541.62,0)" d="M0,100v320" style="stroke: rgb(255, 255, 255); stroke-opacity: 1; stroke-width: 1px;"/></g><g class="y"><path class="ygrid crisp" transform="translate(0,392.55)" d="M80,0h537" style="stroke: rgb(255, 255, 255); stroke-opacity: 1; stroke-width: 1px;"/><path class="ygrid crisp" transform="translate(0,349.77)" d="M80,0h537" style="stroke: rgb(255, 255, 255); stroke-opacity: 1; stroke-width: 1px;"/><path class="ygrid crisp" transform="translate(0,306.99)" d="M80,0h537" style="stroke: rgb(255, 255, 255); stroke-opacity: 1; stroke-width: 1px;"/><path class="ygrid crisp" transform="translate(0,264.21000000000004)" d="M80,0h537" style="stroke: rgb(255, 255, 255); stroke-opacity: 1; stroke-width: 1px;"/><path class="ygrid crisp" transform="translate(0,221.43)" d="M80,0h537" style="stroke: rgb(255, 255, 255); stroke-opacity: 1; stroke-width: 1px;"/><path class="ygrid crisp" transform="translate(0,178.65)" d="M80,0h537" style="stroke: rgb(255, 255, 255); stroke-opacity: 1; stroke-width: 1px;"/><path class="ygrid crisp" transform="translate(0,135.87)" d="M80,0h537" style="stroke: rgb(255, 255, 255); stroke-opacity: 1; stroke-width: 1px;"/></g></g><g class="zerolinelayer"/><path class="xlines-below"/><path class="ylines-below"/><g class="overlines-below"/><g class="xaxislayer-below"/><g class="yaxislayer-below"/><g class="overaxes-below"/><g class="plot" transform="translate(80,100)" clip-path="url('#clipab614fxyplot')"><g class="scatterlayer mlayer"><g class="trace scatter trace063bf7" style="stroke-miterlimit: 2; opacity: 1;"><g class="fills"/><g class="errorbars"/><g class="lines"><path class="js-line" d="M0,304L3.05,302.59L4.11,249.74L5.17,251.04L6.23,249.35L10.47,248.71L11.53,248.32L13.65,249.1L14.71,248.19L15.8,248.84L16.83,248.58L21.06,247.67L22.13,247.93L25.3,247.16L26.36,246.9L30.6,247.29L31.66,246.9L36.95,246.77L38.01,246.77L41.19,245.73L42.26,245.99L46.49,245.09L47.54,244.44L48.61,244.96L49.67,244.57L50.72,243.66L51.79,243.92L52.85,244.57L53.91,243.02L57.08,242.11L58.14,242.63L59.2,242.24L60.26,243.15L61.32,242.24L62.38,240.17L64.5,240.69L65.56,239.78L69.8,237.84L70.85,236.94L72.97,238.23L74.03,237.07L75.09,235L76.15,235.51L77.21,236.55L78.27,235L80.39,232.67L81.45,232.28L83.57,230.6L84.63,231.12L86.74,229.95L87.8,230.21L88.86,231.76L89.92,229.56L93.1,230.6L94.16,230.21L96.28,226.46L97.34,226.07L98.4,226.85L99.46,225.55L100.52,225.68L101.58,227.36L102.64,227.11L103.7,225.55L107.93,221.16L108.99,218.44L110.05,219.09L111.11,217.66L112.17,216.63L113.23,217.4L115.35,217.66L116.41,218.7L120.65,216.5L121.7,216.37L123.83,215.72L124.89,214.69L125.94,214.3L127,214.82L128.07,215.98L129.12,215.98L131.24,213.78L132.3,213.52L135.48,212.75L136.54,212.23L137.6,211.45L138.66,211.84L143.96,211.58L145.02,211.84L147.13,210.42L148.19,208.87L149.25,207.7L150.31,207.7L151.37,206.93L152.43,207.83L155.61,207.96L156.67,142.27L159.85,140.18L160.91,140.44L163.02,139.92L164.08,139.01L166.2,139.14L167.26,139.14L171.5,138.48L172.55,138.35L175.73,137.83L176.79,137.96L186.33,137.96L187.39,138.09L194.8,137.83L195.86,137.18L199.04,137.18L200.1,136.14L204.33,136.27L205.4,135.74L207.51,135.88L208.57,135.22L210.7,134.57L211.75,135.22L214.93,132.22L215.99,132.22L217.05,133.27L218.1,132.88L220.23,131.57L221.29,132.22L225.52,128.44L226.58,130.14L230.82,127.14L231.88,128.05L234,126.48L235.06,127.66L236.12,128.7L237.18,127.79L238.24,128.83L239.3,128.31L240.35,127.4L241.41,128.44L242.47,127.79L243.53,128.18L246.71,128.83L247.77,128.44L249.91,126.48L250.96,125.05L253.08,124.92L254.14,125.44L255.2,125.96L256.26,124.01L260.5,123.09L261.56,121.4L264.74,122.44L265.8,121.92L267.92,118.4L268.98,119.96L270.04,119.96L271.1,118.79L272.15,119.7L273.21,119.18L275.34,117.35L276.39,117.48L279.57,114.35L280.63,114.48L282.75,112.14L283.81,112.92L285.92,110.83L286.99,111.35L290.16,110.7L291.22,108.09L292.28,107.96L293.34,106.92L294.4,105.48L295.46,105.74L296.52,106L297.58,107.18L298.65,107.83L299.7,107.18L300.77,109.13L301.82,108.35L302.88,108.22L303.93,106.66L305,106.27L306.06,106.79L308.17,107.05L309.24,61.25L311.35,59.41L312.41,59.15L315.59,57.57L316.65,57.17L318.77,57.04L319.82,56.78L324.06,55.46L325.12,54.54L327.25,54.28L328.3,54.81L332.54,53.75L333.6,53.62L335.72,53.62L336.78,53.75L353.72,51.78L354.79,52.18L357.96,51.12L359.02,51.25L360.09,51.52L361.13,50.73L367.49,50.07L369.61,49.54L370.67,48.23L372.79,47.83L374.91,47.44L375.97,45.73L377.03,46.91L378.09,45.73L380.21,45.73L381.26,45.07L382.33,44.94L383.38,43.76L386.56,43.49L387.62,41.91L389.74,40.2L390.8,39.42L391.83,38.1L392.88,38.76L396.06,37.71L397.12,36L401.36,35.34L402.41,33.36L403.48,32.71L404.54,33.23L406.65,32.44L407.72,32.05L408.78,31.92L409.83,30.86L411.95,30.86L413.01,31.39L415.13,32.97L416.2,31.13L418.31,32.31L419.39,30.34L421.49,30.47L422.55,30.86L425.73,29.02L426.79,29.42L428.9,27.71L429.97,26.66L431.03,24.16L432.09,24.68L433.14,23.24L434.2,24.68L436.32,22.84L437.38,22.58L438.44,21.26L439.5,21.66L441.62,21.79L442.67,20.74L443.73,21.26L444.8,19.68L446.91,19.55L447.98,18.5L452.21,18.89L453.27,17.97L454.33,17.45L455.39,17.84L456.45,17.97L457.51,17.05L458.57,16L459.62,16.66L460.69,16.39L461.75,171.81L467.05,171.4L468.11,172.08L471.28,170.99L472.34,170.99L474.46,169.76L475.52,169.76L477.64,168.94L478.7,169.08L496.71,168.39L497.77,167.98L511.53,165.8L512.6,165.12L517.89,164.02L518.96,162.66L523.23,162.38L524.28,163.61L526.41,161.7L527.46,161.57L528.52,160.88L529.58,158.43L530.64,156.51L531.7,156.79L532.76,156.1L533.82,154.33L534.88,154.88L535.94,154.19L537,154.47" style="vector-effect: non-scaling-stroke; fill: none; stroke: rgb(99, 110, 250); stroke-opacity: 1; stroke-width: 2px; opacity: 1;"/></g><g class="points"/><g class="text"/></g></g></g><g class="overplot"/><path class="xlines-above crisp" d="M0,0" style="fill: none;"/><path class="ylines-above crisp" d="M0,0" style="fill: none;"/><g class="overlines-above"/><g class="xaxislayer-above"><g class="xtick"><text text-anchor="middle" x="0" y="433" transform="translate(83.96,0)" style="font-family: 'Open Sans', verdana, arial, sans-serif; font-size: 12px; fill: rgb(42, 63, 95); fill-opacity: 1; white-space: pre;"><tspan class="line" dy="0em" x="0" y="433">00:00</tspan><tspan class="line" dy="1.3em" x="0" y="433">Aug 3, 2021</tspan></text></g><g class="xtick"><text text-anchor="middle" x="0" y="433" transform="translate(160.24,0)" style="font-family: 'Open Sans', verdana, arial, sans-serif; font-size: 12px; fill: rgb(42, 63, 95); fill-opacity: 1; white-space: pre;">12:00</text></g><g class="xtick"><text text-anchor="middle" x="0" y="433" transform="translate(236.51,0)" style="font-family: 'Open Sans', verdana, arial, sans-serif; font-size: 12px; fill: rgb(42, 63, 95); fill-opacity: 1; white-space: pre;"><tspan class="line" dy="0em" x="0" y="433">00:00</tspan><tspan class="line" dy="1.3em" x="0" y="433">Aug 4, 2021</tspan></text></g><g class="xtick"><text text-anchor="middle" x="0" y="433" transform="translate(312.78999999999996,0)" style="font-family: 'Open Sans', verdana, arial, sans-serif; font-size: 12px; fill: rgb(42, 63, 95); fill-opacity: 1; white-space: pre;">12:00</text></g><g class="xtick"><text text-anchor="middle" x="0" y="433" transform="translate(389.07,0)" style="font-family: 'Open Sans', verdana, arial, sans-serif; font-size: 12px; fill: rgb(42, 63, 95); fill-opacity: 1; white-space: pre;"><tspan class="line" dy="0em" x="0" y="433">00:00</tspan><tspan class="line" dy="1.3em" x="0" y="433">Aug 5, 2021</tspan></text></g><g class="xtick"><text text-anchor="middle" x="0" y="433" transform="translate(465.34,0)" style="font-family: 'Open Sans', verdana, arial, sans-serif; font-size: 12px; fill: rgb(42, 63, 95); fill-opacity: 1; white-space: pre;">12:00</text></g><g class="xtick"><text text-anchor="middle" x="0" y="433" transform="translate(541.62,0)" style="font-family: 'Open Sans', verdana, arial, sans-serif; font-size: 12px; fill: rgb(42, 63, 95); fill-opacity: 1; white-space: pre;"><tspan class="line" dy="0em" x="0" y="433">00:00</tspan><tspan class="line" dy="1.3em" x="0" y="433">Aug 6, 2021</tspan></text></g></g><g class="yaxislayer-above"><g class="ytick"><text text-anchor="end" x="79" y="4.199999999999999" transform="translate(0,392.55)" style="font-family: 'Open Sans', verdana, arial, sans-serif; font-size: 12px; fill: rgb(42, 63, 95); fill-opacity: 1; white-space: pre;">0.864</text></g><g class="ytick"><text text-anchor="end" x="79" y="4.199999999999999" transform="translate(0,349.77)" style="font-family: 'Open Sans', verdana, arial, sans-serif; font-size: 12px; fill: rgb(42, 63, 95); fill-opacity: 1; white-space: pre;">0.865</text></g><g class="ytick"><text text-anchor="end" x="79" y="4.199999999999999" transform="translate(0,306.99)" style="font-family: 'Open Sans', verdana, arial, sans-serif; font-size: 12px; fill: rgb(42, 63, 95); fill-opacity: 1; white-space: pre;">0.866</text></g><g class="ytick"><text text-anchor="end" x="79" y="4.199999999999999" transform="translate(0,264.21000000000004)" style="font-family: 'Open Sans', verdana, arial, sans-serif; font-size: 12px; fill: rgb(42, 63, 95); fill-opacity: 1; white-space: pre;">0.867</text></g><g class="ytick"><text text-anchor="end" x="79" y="4.199999999999999" transform="translate(0,221.43)" style="font-family: 'Open Sans', verdana, arial, sans-serif; font-size: 12px; fill: rgb(42, 63, 95); fill-opacity: 1; white-space: pre;">0.868</text></g><g class="ytick"><text text-anchor="end" x="79" y="4.199999999999999" transform="translate(0,178.65)" style="font-family: 'Open Sans', verdana, arial, sans-serif; font-size: 12px; fill: rgb(42, 63, 95); fill-opacity: 1; white-space: pre;">0.869</text></g><g class="ytick"><text text-anchor="end" x="79" y="4.199999999999999" transform="translate(0,135.87)" style="font-family: 'Open Sans', verdana, arial, sans-serif; font-size: 12px; fill: rgb(42, 63, 95); fill-opacity: 1; white-space: pre;">0.87</text></g></g><g class="overaxes-above"/></g></g><g class="polarlayer"/><g class="ternarylayer"/><g class="geolayer"/><g class="funnelarealayer"/><g class="pielayer"/><g class="treemaplayer"/><g class="sunburstlayer"/><g class="glimages"/><defs id="topdefs-ab614f"><g class="clips"/><clipPath id="legendab614f"><rect width="60" height="45" x="0" y="0"/></clipPath></defs><g class="layer-above"><g class="imagelayer"/><g class="shapelayer"/></g><g class="infolayer"><g class="legend" pointer-events="all" transform="translate(627.74,100)"><rect class="bg" shape-rendering="crispEdges" width="60" height="45" x="0" y="0" style="stroke: rgb(68, 68, 68); stroke-opacity: 1; fill: rgb(255, 255, 255); fill-opacity: 1; stroke-width: 0px;"/><g class="scrollbox" transform="" clip-path="url('#legendab614f')"><text class="legendtitletext" text-anchor="start" x="2" y="15.600000000000001" style="font-family: 'Open Sans', verdana, arial, sans-serif; font-size: 12px; fill: rgb(42, 63, 95); fill-opacity: 1; white-space: pre;">All</text><g class="groups" transform=""><g class="traces" transform="translate(0,30.1)" style="opacity: 1;"><text class="legendtext" text-anchor="start" x="40" y="4.680000000000001" style="font-family: 'Open Sans', verdana, arial, sans-serif; font-size: 12px; fill: rgb(42, 63, 95); fill-opacity: 1; white-space: pre;">All</text><g class="layers" style="opacity: 1;"><g class="legendfill"/><g class="legendlines"><path class="js-line" d="M5,0h30" style="fill: none; stroke: rgb(99, 110, 250); stroke-opacity: 1; stroke-width: 2px;"/></g><g class="legendsymbols"><g class="legendpoints"/></g></g><rect class="legendtoggle" x="0" y="-9.5" width="54.890625" height="19" style="fill: rgb(0, 0, 0); fill-opacity: 0;"/></g></g></g><rect class="scrollbar" rx="20" ry="3" width="0" height="0" x="0" y="0" style="fill: rgb(128, 139, 164); fill-opacity: 1;"/></g><g class="g-gtitle"><text class="gtitle" x="35" y="50" text-anchor="start" dy="0em" style="font-family: 'Open Sans', verdana, arial, sans-serif; font-size: 17px; fill: rgb(42, 63, 95); opacity: 1; font-weight: normal; white-space: pre;">Singapore Vaccination Centers</text></g><g class="g-xtitle"><text class="xtitle" x="348.5" y="476.409375" text-anchor="middle" style="font-family: 'Open Sans', verdana, arial, sans-serif; font-size: 14px; fill: rgb(42, 63, 95); opacity: 1; font-weight: normal; white-space: pre;">Time</text></g><g class="g-ytitle"><text class="ytitle" transform="rotate(-90,19.840625000000003,260)" x="19.840625000000003" y="260" text-anchor="middle" style="font-family: 'Open Sans', verdana, arial, sans-serif; font-size: 14px; fill: rgb(42, 63, 95); opacity: 1; font-weight: normal; white-space: pre;">Filled/%</text></g></g></svg>