<svg class="main-svg" xmlns="http://www.w3.org/2000/svg" xmlns:xlink="http://www.w3.org/1999/xlink" width="700" height="500" style="" viewBox="0 0 700 500"><rect x="0" y="0" width="700" height="500" style="fill: rgb(255, 255, 255); fill-opacity: 1;"/><defs id="defs-697f36"><g class="clips"><clipPath id="clip697f36xyplot" class="plotclip"><rect width="537" height="320"/></clipPath><clipPath class="axesclip" id="clip697f36x"><rect x="80" y="0" width="537" height="500"/></clipPath><clipPath class="axesclip" id="clip697f36y"><rect x="0" y="100" width="700" height="320"/></clipPath><clipPath class="axesclip" id="clip697f36xy"><rect x="80" y="100" width="537" height="320"/></clipPath></g><g class="gradients"/></defs><g class="bglayer"><rect class="bg" x="80" y="100" width="537" height="320" style="fill: rgb(229, 236, 246); fill-opacity: 1; stroke-width: 0;"/></g><g class="layer-below"><g class="imagelayer"/><g class="shapelayer"/></g><g class="cartesianlayer"><g class="subplot xy"><g class="layer-subplot"><g class="shapelayer"/><g class="imagelayer"/></g><g class="gridlayer"><g class="x"><path class="xgrid crisp" transform="translate(90.68,0)" d="M0,100v320" style="stroke: rgb(255, 255, 255); stroke-opacity: 1; stroke-width: 1px;"/><path class="xgrid crisp" transform="translate(205.67000000000002,0)" d="M0,100v320" style="stroke: rgb(255, 255, 255); stroke-opacity: 1; stroke-width: 1px;"/><path class="xgrid crisp" transform="translate(320.66999999999996,0)" d="M0,100v320" style="stroke: rgb(255, 255, 255); stroke-opacity: 1; stroke-width: 1px;"/><path class="xgrid crisp" transform="translate(435.67,0)" d="M0,100v320" style="stroke: rgb(255, 255, 255); stroke-opacity: 1; stroke-width: 1px;"/><path class="xgrid crisp" transform="translate(550.6700000000001,0)" d="M0,100v320" style="stroke: rgb(255, 255, 255); stroke-opacity: 1; stroke-width: 1px;"/></g><g class="y"><path class="ygrid crisp" transform="translate(0,367.23)" d="M80,0h537" style="stroke: rgb(255, 255, 255); stroke-opacity: 1; stroke-width: 1px;"/><path class="ygrid crisp" transform="translate(0,308.43)" d="M80,0h537" style="stroke: rgb(255, 255, 255); stroke-opacity: 1; stroke-width: 1px;"/><path class="ygrid crisp" transform="translate(0,249.63)" d="M80,0h537" style="stroke: rgb(255, 255, 255); stroke-opacity: 1; stroke-width: 1px;"/><path class="ygrid crisp" transform="translate(0,190.82999999999998)" d="M80,0h537" style="stroke: rgb(255, 255, 255); stroke-opacity: 1; stroke-width: 1px;"/><path class="ygrid crisp" transform="translate(0,132.03)" d="M80,0h537" style="stroke: rgb(255, 255, 255); stroke-opacity: 1; stroke-width: 1px;"/></g></g><g class="zerolinelayer"/><path class="xlines-below"/><path class="ylines-below"/><g class="overlines-below"/><g class="xaxislayer-below"/><g class="yaxislayer-below"/><g class="overaxes-below"/><g class="plot" transform="translate(80,100)" clip-path="url('#clip697f36xyplot')"><g class="scatterlayer mlayer"><g class="trace scatter trace1bbb14" style="stroke-miterlimit: 2; opacity: 1;"><g class="fills"/><g class="errorbars"/><g class="lines"><path class="js-line" d="M0,82.28L6.74,82.51L9.14,120.48L13.9,120.57L15.67,136.92L16.41,136.9L34.05,137.96L35.15,121.23L35.48,129.62L36.28,129.56L37.88,126.37L38.68,126.27L40.27,129.79L41.07,129.7L42.67,132.71L43.47,132.63L45.07,120.69L45.87,120.62L47.46,132.64L48.26,132.55L49.86,126.68L50.65,123.32L52.25,113.21L53.05,109.51L54.65,94.58L55.45,92.89L57.04,74.17L57.84,72.87L59.44,78.78L60.24,77.73L61.84,63.68L62.63,62.82L64.23,65.47L65.03,64.83L66.63,74.27L67.43,73.83L68.48,51.83L69.82,52.34L70.62,52.21L79.4,51.78L80.2,51.77L89.78,51.11L90.58,50.91L117.74,42.44L118.54,42.24L124.93,40.95L125.72,41.79L140.1,41.46L140.9,41.46L153.67,40.58L154.47,40.48L180.03,37.08L180.82,36.99L182.42,36.83L183.22,35.53L214.36,34L215.16,33.87L239.92,31.05L240.72,28.56L267.87,27.81L268.67,95.38L277.48,93.57L278.26,93.44L279.06,93.12L279.85,91.51L282.25,88.51L283.05,87.52L287.04,73.59L287.84,72.39L292.63,67.88L293.43,67.37L297.42,65.43L298.22,65.5L303.81,64.8L304.61,64.77L322.18,63.66L322.98,63.48L328.57,61.32L329.36,60.89L330.16,60.46L330.96,62.78L334.16,61.15L334.96,59.94L339.75,53.24L340.55,52.44L343.74,47.98L344.54,45.51L347.73,38.66L348.53,37.65L352.52,33.5L353.32,32.89L356.52,31.98L357.32,31.8L363.71,31.18L364.51,31.16L376.48,30.17L377.28,29.9L382.07,28.09L382.87,74.81L384.47,73.22L385.27,72.76L393.25,69.16L394.05,68.8L394.67,71.93L394.85,68.39L395.61,68.25L395.65,69.25L396.41,67.95L396.45,68.94L397.25,68.62L398.85,68.09L399.64,76.43L406.64,73.91L406.67,72.31L406.71,72.03L406.83,73.74L414.42,44.74L414.81,44.87L415.22,41.95L416.01,42.12L416.41,43.2L417.61,37.43L418.01,41.6L419.21,39.66L419.61,39.05L420.81,38.13L421.21,38.96L421.61,38.26L422,38.53L422.4,38.42L423.6,38.4L424,43.02L428.39,41.69L428.79,36.5L429.59,35.76L429.99,35.39L431.18,33.79L431.59,33.41L434.78,22.43L435.18,16L435.58,16.8L435.98,140.18L436.38,139.22L436.78,142.07L437.57,136.79L437.98,138.99L438.78,136.15L439.17,136.63L439.57,141.25L439.97,146.68L440.37,133.42L441.17,138.09L441.57,157.2L442.77,133.53L443.16,145.44L443.56,148.42L443.96,146.68L444.36,144.02L445.16,134.36L445.56,135.71L445.96,141.84L446.36,146.05L446.76,142.1L447.16,141.74L447.56,151.77L448.35,140.84L448.75,148.68L449.55,127.07L449.95,137.58L450.75,140.49L451.15,138.92L451.95,130.34L452.35,131.67L452.75,129.31L453.15,138.25L453.55,134.05L453.94,138.68L454.35,138.81L454.74,131.49L455.15,131.42L455.54,140.05L456.34,132.48L456.74,138.41L457.54,141.46L457.94,128.79L458.74,142.96L459.14,264.58L459.94,292.55L460.34,293.12L460.74,304L461.14,286.22L461.53,301.52L461.93,291.75L462.33,292.1L462.73,291.07L463.13,294.16L463.53,293.46L463.93,276.02L464.33,283.67L464.73,262.28L465.53,272.54L465.92,248.89L466.72,241.71L467.12,229.6L467.52,224.98L467.92,228.24L468.32,227.36L469.52,215.22L469.92,217.06L470.32,216.4L470.72,227.08L471.12,226.08L471.52,228.38L471.92,228.68L472.31,224.72L472.71,233.57L473.11,224.28L473.91,227.75L474.31,223.07L475.11,226.33L475.51,223.26L475.91,224.52L476.31,234.01L476.71,220.81L477.11,231.91L477.51,224.2L479.9,212.72L480.3,220.76L481.1,220.72L481.5,223.7L481.9,223.67L482.3,219.37L482.7,223.08L483.09,218.62L483.49,226.76L483.89,225.2L484.29,224.19L484.69,219.51L485.09,225.16L486.29,225.11L486.69,216.49L487.09,225.05L487.49,220.43L487.88,220.57L488.29,218.19L488.69,220.92L489.09,219.84L489.48,227.36L489.88,216.65L490.28,220.1L490.68,220.01L491.48,220.98L491.88,218.78L492.68,223.64L493.07,218.66L493.47,205.85L493.88,215.25L494.27,220.32L494.67,206.18L495.07,206.81L495.47,214.16L495.87,214.11L496.27,206.99L497.08,212.47L497.47,202.23L497.87,199.24L498.27,208.71L498.67,224.84L499.06,215.2L499.47,214.49L499.87,205.74L500.26,219.6L501.06,195.82L501.46,209.77L501.86,208.24L502.26,203.32L502.66,202.05L503.06,205.17L503.46,200.81L503.86,208.16L504.26,206.35L504.66,209.96L505.05,207.44L505.45,196.45L505.85,195.36L506.25,196.45L507.05,209.39L507.45,202.33L507.85,210.92L508.25,197.09L508.65,197.31L509.05,191.05L509.45,191.24L509.85,196.07L510.25,200.65L510.64,194.37L511.84,210.5L512.24,204.27L513.04,191.94L513.44,193.62L513.84,197L514.24,205.03L514.64,197.14L515.03,198.57L515.44,192.99L516.64,184.28L517.03,189.51L517.83,194.59L518.23,189.23L518.63,191.91L519.03,189.81L519.43,182.31L519.83,187.7L520.23,187L520.63,183.28L521.03,186.18L521.43,185.69L521.83,181.61L522.23,182.61L522.63,186.54L523.42,187.68L523.82,186.58L524.22,181.49L524.62,187.81L525.42,185.81L525.82,187.22L526.22,189.17L526.62,187L527.82,194.82L528.22,189.57L528.61,183.36L529.01,189.2L529.41,186.45L529.81,187.34L530.21,187.88L530.61,187.85L531.01,183.53L532.21,187.65L532.61,184.59L533.41,184.25L533.81,185.71L534.6,187.3L535,187.29L535.8,197.68L536.2,195.53L536.6,195.52L537,190.33" style="vector-effect: non-scaling-stroke; fill: none; stroke: rgb(99, 110, 250); stroke-opacity: 1; stroke-width: 2px; opacity: 1;"/></g><g class="points"/><g class="text"/></g></g></g><g class="overplot"/><path class="xlines-above crisp" d="M0,0" style="fill: none;"/><path class="ylines-above crisp" d="M0,0" style="fill: none;"/><g class="overlines-above"/><g class="xaxislayer-above"><g class="xtick"><text text-anchor="middle" x="0" y="433" transform="translate(90.68,0)" style="font-family: 'Open Sans', verdana, arial, sans-serif; font-size: 12px; fill: rgb(42, 63, 95); fill-opacity: 1; white-space: pre;"><tspan class="line" dy="0em" x="0" y="433">Jun 4</tspan><tspan class="line" dy="1.3em" x="0" y="433">2021</tspan></text></g><g class="xtick"><text text-anchor="middle" x="0" y="433" transform="translate(205.67000000000002,0)" style="font-family: 'Open Sans', verdana, arial, sans-serif; font-size: 12px; fill: rgb(42, 63, 95); fill-opacity: 1; white-space: pre;">Jun 6</text></g><g class="xtick"><text text-anchor="middle" x="0" y="433" transform="translate(320.66999999999996,0)" style="font-family: 'Open Sans', verdana, arial, sans-serif; font-size: 12px; fill: rgb(42, 63, 95); fill-opacity: 1; white-space: pre;">Jun 8</text></g><g class="xtick"><text text-anchor="middle" x="0" y="433" transform="translate(435.67,0)" style="font-family: 'Open Sans', verdana, arial, sans-serif; font-size: 12px; fill: rgb(42, 63, 95); fill-opacity: 1; white-space: pre;">Jun 10</text></g><g class="xtick"><text text-anchor="middle" x="0" y="433" transform="translate(550.6700000000001,0)" style="font-family: 'Open Sans', verdana, arial, sans-serif; font-size: 12px; fill: rgb(42, 63, 95); fill-opacity: 1; white-space: pre;">Jun 12</text></g></g><g class="yaxislayer-above"><g class="ytick"><text text-anchor="end" x="79" y="4.199999999999999" transform="translate(0,367.23)" style="font-family: 'Open Sans', verdana, arial, sans-serif; font-size: 12px; fill: rgb(42, 63, 95); fill-opacity: 1; white-space: pre;">0.8</text></g><g class="ytick"><text text-anchor="end" x="79" y="4.199999999999999" transform="translate(0,308.43)" style="font-family: 'Open Sans', verdana, arial, sans-serif; font-size: 12px; fill: rgb(42, 63, 95); fill-opacity: 1; white-space: pre;">0.82</text></g><g class="ytick"><text text-anchor="end" x="79" y="4.199999999999999" transform="translate(0,249.63)" style="font-family: 'Open Sans', verdana, arial, sans-serif; font-size: 12px; fill: rgb(42, 63, 95); fill-opacity: 1; white-space: pre;">0.84</text></g><g class="ytick"><text text-anchor="end" x="79" y="4.199999999999999" transform="translate(0,190.82999999999998)" style="font-family: 'Open Sans', verdana, arial, sans-serif; font-size: 12px; fill: rgb(42, 63, 95); fill-opacity: 1; white-space: pre;">0.86</text></g><g class="ytick"><text text-anchor="end" x="79" y="4.199999999999999" transform="translate(0,132.03)" style="font-family: 'Open Sans', verdana, arial, sans-serif; font-size: 12px; fill: rgb(42, 63, 95); fill-opacity: 1; white-space: pre;">0.88</text></g></g><g class="overaxes-above"/></g></g><g class="polarlayer"/><g class="ternarylayer"/><g class="geolayer"/><g class="funnelarealayer"/><g class="pielayer"/><g class="treemaplayer"/><g class="sunburstlayer"/><g class="glimages"/><defs id="topdefs-697f36"><g class="clips"/><clipPath id="legend697f36"><rect width="60" height="45" x="0" y="0"/></clipPath></defs><g class="layer-above"><g class="imagelayer"/><g class="shapelayer"/></g><g class="infolayer"><g class="legend" pointer-events="all" transform="translate(627.74,100)"><rect class="bg" shape-rendering="crispEdges" width="60" height="45" x="0" y="0" style="stroke: rgb(68, 68, 68); stroke-opacity: 1; fill: rgb(255, 255, 255); fill-opacity: 1; stroke-width: 0px;"/><g class="scrollbox" transform="" clip-path="url('#legend697f36')"><text class="legendtitletext" text-anchor="start" x="2" y="15.600000000000001" style="font-family: 'Open Sans', verdana, arial, sans-serif; font-size: 12px; fill: rgb(42, 63, 95); fill-opacity: 1; white-space: pre;">All</text><g class="groups" transform=""><g class="traces" transform="translate(0,30.1)" style="opacity: 1;"><text class="legendtext" text-anchor="start" x="40" y="4.680000000000001" style="font-family: 'Open Sans', verdana, arial, sans-serif; font-size: 12px; fill: rgb(42, 63, 95); fill-opacity: 1; white-space: pre;">All</text><g class="layers" style="opacity: 1;"><g class="legendfill"/><g class="legendlines"><path class="js-line" d="M5,0h30" style="fill: none; stroke: rgb(99, 110, 250); stroke-opacity: 1; stroke-width: 2px;"/></g><g class="legendsymbols"><g class="legendpoints"/></g></g><rect class="legendtoggle" x="0" y="-9.5" width="54.890625" height="19" style="fill: rgb(0, 0, 0); fill-opacity: 0;"/></g></g></g><rect class="scrollbar" rx="20" ry="3" width="0" height="0" x="0" y="0" style="fill: rgb(128, 139, 164); fill-opacity: 1;"/></g><g class="g-gtitle"><text class="gtitle" x="35" y="50" text-anchor="start" dy="0em" style="font-family: 'Open Sans', verdana, arial, sans-serif; font-size: 17px; fill: rgb(42, 63, 95); opacity: 1; font-weight: normal; white-space: pre;">Singapore Vaccination Centers</text></g><g class="g-xtitle"><text class="xtitle" x="348.5" y="476.409375" text-anchor="middle" style="font-family: 'Open Sans', verdana, arial, sans-serif; font-size: 14px; fill: rgb(42, 63, 95); opacity: 1; font-weight: normal; white-space: pre;">Time</text></g><g class="g-ytitle"><text class="ytitle" transform="rotate(-90,27.481250000000003,260)" x="27.481250000000003" y="260" text-anchor="middle" style="font-family: 'Open Sans', verdana, arial, sans-serif; font-size: 14px; fill: rgb(42, 63, 95); opacity: 1; font-weight: normal; white-space: pre;">Filled/%</text></g></g></svg>