<svg class="main-svg" xmlns="http://www.w3.org/2000/svg" xmlns:xlink="http://www.w3.org/1999/xlink" width="700" height="500" style="" viewBox="0 0 700 500"><rect x="0" y="0" width="700" height="500" style="fill: rgb(255, 255, 255); fill-opacity: 1;"/><defs id="defs-f4adce"><g class="clips"><clipPath id="clipf4adcexyplot" class="plotclip"><rect width="537" height="320"/></clipPath><clipPath class="axesclip" id="clipf4adcex"><rect x="80" y="0" width="537" height="500"/></clipPath><clipPath class="axesclip" id="clipf4adcey"><rect x="0" y="100" width="700" height="320"/></clipPath><clipPath class="axesclip" id="clipf4adcexy"><rect x="80" y="100" width="537" height="320"/></clipPath></g><g class="gradients"/></defs><g class="bglayer"><rect class="bg" x="80" y="100" width="537" height="320" style="fill: rgb(229, 236, 246); fill-opacity: 1; stroke-width: 0;"/></g><g class="layer-below"><g class="imagelayer"/><g class="shapelayer"/></g><g class="cartesianlayer"><g class="subplot xy"><g class="layer-subplot"><g class="shapelayer"/><g class="imagelayer"/></g><g class="gridlayer"><g class="x"><path class="xgrid crisp" transform="translate(82.98,0)" d="M0,100v320" style="stroke: rgb(255, 255, 255); stroke-opacity: 1; stroke-width: 1px;"/><path class="xgrid crisp" transform="translate(197.9,0)" d="M0,100v320" style="stroke: rgb(255, 255, 255); stroke-opacity: 1; stroke-width: 1px;"/><path class="xgrid crisp" transform="translate(312.82,0)" d="M0,100v320" style="stroke: rgb(255, 255, 255); stroke-opacity: 1; stroke-width: 1px;"/><path class="xgrid crisp" transform="translate(427.74,0)" d="M0,100v320" style="stroke: rgb(255, 255, 255); stroke-opacity: 1; stroke-width: 1px;"/><path class="xgrid crisp" transform="translate(542.6600000000001,0)" d="M0,100v320" style="stroke: rgb(255, 255, 255); stroke-opacity: 1; stroke-width: 1px;"/></g><g class="y"><path class="ygrid crisp" transform="translate(0,392.55)" d="M80,0h537" style="stroke: rgb(255, 255, 255); stroke-opacity: 1; stroke-width: 1px;"/><path class="ygrid crisp" transform="translate(0,349.77)" d="M80,0h537" style="stroke: rgb(255, 255, 255); stroke-opacity: 1; stroke-width: 1px;"/><path class="ygrid crisp" transform="translate(0,306.99)" d="M80,0h537" style="stroke: rgb(255, 255, 255); stroke-opacity: 1; stroke-width: 1px;"/><path class="ygrid crisp" transform="translate(0,264.21000000000004)" d="M80,0h537" style="stroke: rgb(255, 255, 255); stroke-opacity: 1; stroke-width: 1px;"/><path class="ygrid crisp" transform="translate(0,221.43)" d="M80,0h537" style="stroke: rgb(255, 255, 255); stroke-opacity: 1; stroke-width: 1px;"/><path class="ygrid crisp" transform="translate(0,178.65)" d="M80,0h537" style="stroke: rgb(255, 255, 255); stroke-opacity: 1; stroke-width: 1px;"/><path class="ygrid crisp" transform="translate(0,135.87)" d="M80,0h537" style="stroke: rgb(255, 255, 255); stroke-opacity: 1; stroke-width: 1px;"/></g></g><g class="zerolinelayer"/><path class="xlines-below"/><path class="ylines-below"/><g class="overlines-below"/><g class="xaxislayer-below"/><g class="yaxislayer-below"/><g class="overaxes-below"/><g class="plot" transform="translate(80,100)" clip-path="url('#clipf4adcexyplot')"><g class="scatterlayer mlayer"><g class="trace scatter trace40ded8" style="stroke-miterlimit: 2; opacity: 1;"><g class="fills"/><g class="errorbars"/><g class="lines"><path class="js-line" d="M0,304L2.3,302.59L3.1,249.74L3.9,251.04L4.7,249.35L7.89,248.71L8.68,248.32L10.28,249.1L11.08,248.19L12.68,248.58L13.47,248.19L15.07,247.93L15.87,247.67L17.46,247.41L18.26,247.16L24.65,246.77L25.44,246.51L30.23,246.12L31.03,245.73L32.63,245.86L33.43,245.22L35.02,245.09L35.81,244.44L36.62,244.96L37.41,244.57L38.21,243.66L39.01,243.92L39.81,244.57L40.61,243.02L43,242.11L43.8,242.63L44.6,242.24L45.39,243.15L46.19,242.24L46.99,240.17L48.58,240.69L49.38,239.78L52.58,237.84L53.37,236.94L54.97,238.23L55.77,237.07L56.56,235L57.36,235.51L58.16,236.55L58.96,235L60.56,232.67L61.35,232.28L62.95,230.6L63.75,231.12L65.34,229.95L66.14,230.21L66.94,231.76L67.74,229.56L70.13,230.6L70.93,230.21L73.33,226.07L74.12,226.85L75.72,225.68L76.52,227.36L77.32,227.11L78.11,225.55L81.31,221.16L82.1,218.44L82.9,219.09L83.7,217.66L84.5,216.63L85.3,217.4L86.89,217.66L87.69,218.7L90.89,216.5L91.68,216.37L93.28,215.72L94.08,214.69L94.87,214.3L95.67,214.82L97.26,215.98L98.06,214.43L100.46,213.39L101.26,212.88L102.85,212.23L103.65,211.45L106.05,212.23L106.84,211.84L108.44,211.58L109.24,211.84L110.83,210.42L111.63,208.87L113.23,207.7L114.03,206.93L115.62,207.96L116.42,207.44L117.22,207.96L118.02,142.27L120.41,140.18L121.21,140.44L122.81,139.92L123.6,139.01L125.2,139.14L126,139.14L129.19,138.48L129.98,138.35L132.38,137.83L133.18,137.96L140.36,137.96L141.16,138.09L146.74,137.83L147.54,137.18L149.94,137.18L150.73,136.14L153.92,136.27L154.73,135.74L156.32,135.88L157.12,135.22L158.72,134.57L159.51,135.22L162.7,132.22L163.5,133.27L165.9,131.57L166.7,132.22L169.89,128.44L170.69,130.14L173.88,127.14L174.68,128.05L176.27,126.48L177.07,127.66L177.87,128.7L178.67,127.79L179.47,128.83L180.26,128.31L181.06,127.4L181.86,128.44L182.65,127.79L183.45,128.18L185.85,128.83L186.65,128.44L188.26,126.48L189.05,125.05L190.65,124.92L191.45,125.44L192.24,125.96L193.04,124.01L196.24,123.09L197.04,121.4L200.23,121.92L201.02,120.61L201.82,118.4L202.62,119.96L203.42,119.96L204.22,118.79L205.01,119.7L205.81,119.18L207.41,117.35L208.21,117.48L210.6,114.35L211.4,114.48L213,112.14L213.79,112.92L215.39,110.83L216.19,111.35L218.58,110.7L219.38,108.09L220.18,107.96L220.97,106.92L221.77,105.48L222.57,105.74L223.37,106L224.17,107.18L224.97,107.83L225.76,107.18L226.57,109.13L227.36,108.35L228.16,108.22L228.95,106.66L229.75,106.27L230.55,106.79L232.15,107.05L232.95,61.25L234.54,59.41L235.34,59.15L237.73,57.57L238.53,57.17L240.13,57.04L240.92,56.78L244.12,55.46L244.92,54.54L246.51,54.28L247.31,54.81L250.5,53.75L251.3,53.62L252.9,53.62L253.69,53.75L266.46,51.78L267.26,52.18L269.65,51.12L270.45,51.25L271.25,51.52L272.04,50.73L276.83,50.07L278.43,49.54L279.23,48.23L280.82,47.83L282.42,47.44L283.22,45.73L284.02,46.91L284.82,45.73L286.41,45.73L287.21,45.07L288.01,44.94L288.8,43.76L291.2,43.49L292,41.91L293.59,40.2L294.39,39.42L295.17,38.1L295.96,38.76L298.35,37.71L299.15,36L302.34,35.34L303.14,33.36L303.94,32.71L304.74,33.23L306.33,32.44L307.13,32.05L307.93,31.92L308.73,30.86L310.32,30.86L311.12,31.39L312.72,32.97L313.52,31.13L315.12,32.31L315.92,30.34L317.51,30.47L318.31,30.86L320.7,29.02L321.5,29.42L323.09,27.71L323.89,26.66L324.69,24.16L325.49,24.68L326.28,23.24L327.08,24.68L328.68,22.84L329.48,22.58L330.28,21.26L331.07,21.66L332.67,21.79L333.47,20.74L334.27,21.26L335.06,19.68L336.66,19.55L337.46,18.5L340.65,18.89L341.45,17.97L342.24,17.45L343.05,17.84L343.85,17.97L344.64,17.05L345.44,16L346.23,16.66L347.04,16.39L347.84,171.81L351.83,171.4L352.63,172.08L355.02,170.99L355.82,170.99L357.41,169.76L358.21,169.76L359.8,168.94L360.6,169.08L374.17,168.39L374.97,167.98L385.34,165.8L386.14,165.12L390.13,164.02L390.93,162.66L394.15,162.38L394.94,163.61L396.54,161.7L397.34,161.57L398.14,160.88L398.93,158.43L399.73,156.51L400.53,156.79L401.33,156.1L402.12,154.33L402.93,154.88L403.72,154.19L405.32,154.33L406.12,153.37L407.71,152.69L408.51,153.65L410.91,150.92L411.7,151.87L414.1,149.14L414.9,149.14L415.69,148.32L416.49,149.41L418.09,150.37L418.89,149.41L419.68,149.55L420.49,148.73L423.68,145.18L424.48,144.5L426.86,143.54L427.67,145.04L432.45,141.9L433.25,143.68L434.05,121.97L434.85,121.97L437.24,120.88L438.04,116.1L438.84,116.24L439.63,112.28L440.43,112.55L441.23,109.96L442.03,106.95L442.83,107.91L445.22,101.22L446.02,98.08L447.62,97.53L448.42,95.35L449.21,94.8L450.02,92.07L451.61,89.34L452.4,89.34L454.01,85.93L454.8,85.65L457.19,82.78L457.99,80.19L461.98,75L462.78,88.44L466.77,84.03L467.57,84.45L468.37,84.31L469.16,85.14L470.76,84.72L471.56,85.41L473.16,84.59L473.95,84.45L475.55,84.03L476.35,84.03L477.95,84.17L478.74,83.62L484.33,84.03L485.13,83.62L489.92,83.21L490.71,83.48L493.9,83.48L494.7,83.35L496.3,83.35L497.09,83.35L499.49,83.35L500.29,83.9L504.28,79.9L505.07,80.18L507.47,78.8L508.27,78.94L509.07,78.53L509.86,76.87L511.46,77.15L512.26,75.63L516.25,72.47L517.04,72.88L518.64,69.99L519.44,69.44L521.03,68.06L521.83,66.27L523.43,66.41L524.23,64.2L526.62,63.1L527.42,61.86L530.61,54.29L531.41,54.43L533.01,53.6L533.8,51.4L537,49.47" style="vector-effect: non-scaling-stroke; fill: none; stroke: rgb(99, 110, 250); stroke-opacity: 1; stroke-width: 2px; opacity: 1;"/></g><g class="points"/><g class="text"/></g></g></g><g class="overplot"/><path class="xlines-above crisp" d="M0,0" style="fill: none;"/><path class="ylines-above crisp" d="M0,0" style="fill: none;"/><g class="overlines-above"/><g class="xaxislayer-above"><g class="xtick"><text text-anchor="middle" x="0" y="433" transform="translate(82.98,0)" style="font-family: 'Open Sans', verdana, arial, sans-serif; font-size: 12px; fill: rgb(42, 63, 95); fill-opacity: 1; white-space: pre;"><tspan class="line" dy="0em" x="0" y="433">Aug 3</tspan><tspan class="line" dy="1.3em" x="0" y="433">2021</tspan></text></g><g class="xtick"><text text-anchor="middle" x="0" y="433" transform="translate(197.9,0)" style="font-family: 'Open Sans', verdana, arial, sans-serif; font-size: 12px; fill: rgb(42, 63, 95); fill-opacity: 1; white-space: pre;">Aug 4</text></g><g class="xtick"><text text-anchor="middle" x="0" y="433" transform="translate(312.82,0)" style="font-family: 'Open Sans', verdana, arial, sans-serif; font-size: 12px; fill: rgb(42, 63, 95); fill-opacity: 1; white-space: pre;">Aug 5</text></g><g class="xtick"><text text-anchor="middle" x="0" y="433" transform="translate(427.74,0)" style="font-family: 'Open Sans', verdana, arial, sans-serif; font-size: 12px; fill: rgb(42, 63, 95); fill-opacity: 1; white-space: pre;">Aug 6</text></g><g class="xtick"><text text-anchor="middle" x="0" y="433" transform="translate(542.6600000000001,0)" style="font-family: 'Open Sans', verdana, arial, sans-serif; font-size: 12px; fill: rgb(42, 63, 95); fill-opacity: 1; white-space: pre;">Aug 7</text></g></g><g class="yaxislayer-above"><g class="ytick"><text text-anchor="end" x="79" y="4.199999999999999" transform="translate(0,392.55)" style="font-family: 'Open Sans', verdana, arial, sans-serif; font-size: 12px; fill: rgb(42, 63, 95); fill-opacity: 1; white-space: pre;">0.864</text></g><g class="ytick"><text text-anchor="end" x="79" y="4.199999999999999" transform="translate(0,349.77)" style="font-family: 'Open Sans', verdana, arial, sans-serif; font-size: 12px; fill: rgb(42, 63, 95); fill-opacity: 1; white-space: pre;">0.865</text></g><g class="ytick"><text text-anchor="end" x="79" y="4.199999999999999" transform="translate(0,306.99)" style="font-family: 'Open Sans', verdana, arial, sans-serif; font-size: 12px; fill: rgb(42, 63, 95); fill-opacity: 1; white-space: pre;">0.866</text></g><g class="ytick"><text text-anchor="end" x="79" y="4.199999999999999" transform="translate(0,264.21000000000004)" style="font-family: 'Open Sans', verdana, arial, sans-serif; font-size: 12px; fill: rgb(42, 63, 95); fill-opacity: 1; white-space: pre;">0.867</text></g><g class="ytick"><text text-anchor="end" x="79" y="4.199999999999999" transform="translate(0,221.43)" style="font-family: 'Open Sans', verdana, arial, sans-serif; font-size: 12px; fill: rgb(42, 63, 95); fill-opacity: 1; white-space: pre;">0.868</text></g><g class="ytick"><text text-anchor="end" x="79" y="4.199999999999999" transform="translate(0,178.65)" style="font-family: 'Open Sans', verdana, arial, sans-serif; font-size: 12px; fill: rgb(42, 63, 95); fill-opacity: 1; white-space: pre;">0.869</text></g><g class="ytick"><text text-anchor="end" x="79" y="4.199999999999999" transform="translate(0,135.87)" style="font-family: 'Open Sans', verdana, arial, sans-serif; font-size: 12px; fill: rgb(42, 63, 95); fill-opacity: 1; white-space: pre;">0.87</text></g></g><g class="overaxes-above"/></g></g><g class="polarlayer"/><g class="ternarylayer"/><g class="geolayer"/><g class="funnelarealayer"/><g class="pielayer"/><g class="treemaplayer"/><g class="sunburstlayer"/><g class="glimages"/><defs id="topdefs-f4adce"><g class="clips"/><clipPath id="legendf4adce"><rect width="60" height="45" x="0" y="0"/></clipPath></defs><g class="layer-above"><g class="imagelayer"/><g class="shapelayer"/></g><g class="infolayer"><g class="legend" pointer-events="all" transform="translate(627.74,100)"><rect class="bg" shape-rendering="crispEdges" width="60" height="45" x="0" y="0" style="stroke: rgb(68, 68, 68); stroke-opacity: 1; fill: rgb(255, 255, 255); fill-opacity: 1; stroke-width: 0px;"/><g class="scrollbox" transform="" clip-path="url('#legendf4adce')"><text class="legendtitletext" text-anchor="start" x="2" y="15.600000000000001" style="font-family: 'Open Sans', verdana, arial, sans-serif; font-size: 12px; fill: rgb(42, 63, 95); fill-opacity: 1; white-space: pre;">All</text><g class="groups" transform=""><g class="traces" transform="translate(0,30.1)" style="opacity: 1;"><text class="legendtext" text-anchor="start" x="40" y="4.680000000000001" style="font-family: 'Open Sans', verdana, arial, sans-serif; font-size: 12px; fill: rgb(42, 63, 95); fill-opacity: 1; white-space: pre;">All</text><g class="layers" style="opacity: 1;"><g class="legendfill"/><g class="legendlines"><path class="js-line" d="M5,0h30" style="fill: none; stroke: rgb(99, 110, 250); stroke-opacity: 1; stroke-width: 2px;"/></g><g class="legendsymbols"><g class="legendpoints"/></g></g><rect class="legendtoggle" x="0" y="-9.5" width="54.890625" height="19" style="fill: rgb(0, 0, 0); fill-opacity: 0;"/></g></g></g><rect class="scrollbar" rx="20" ry="3" width="0" height="0" x="0" y="0" style="fill: rgb(128, 139, 164); fill-opacity: 1;"/></g><g class="g-gtitle"><text class="gtitle" x="35" y="50" text-anchor="start" dy="0em" style="font-family: 'Open Sans', verdana, arial, sans-serif; font-size: 17px; fill: rgb(42, 63, 95); opacity: 1; font-weight: normal; white-space: pre;">Singapore Vaccination Centers</text></g><g class="g-xtitle"><text class="xtitle" x="348.5" y="476.409375" text-anchor="middle" style="font-family: 'Open Sans', verdana, arial, sans-serif; font-size: 14px; fill: rgb(42, 63, 95); opacity: 1; font-weight: normal; white-space: pre;">Time</text></g><g class="g-ytitle"><text class="ytitle" transform="rotate(-90,19.840625000000003,260)" x="19.840625000000003" y="260" text-anchor="middle" style="font-family: 'Open Sans', verdana, arial, sans-serif; font-size: 14px; fill: rgb(42, 63, 95); opacity: 1; font-weight: normal; white-space: pre;">Filled/%</text></g></g></svg>