<svg class="main-svg" xmlns="http://www.w3.org/2000/svg" xmlns:xlink="http://www.w3.org/1999/xlink" width="700" height="500" style="" viewBox="0 0 700 500"><rect x="0" y="0" width="700" height="500" style="fill: rgb(255, 255, 255); fill-opacity: 1;"/><defs id="defs-95ed5f"><g class="clips"><clipPath id="clip95ed5fxyplot" class="plotclip"><rect width="537" height="320"/></clipPath><clipPath class="axesclip" id="clip95ed5fx"><rect x="80" y="0" width="537" height="500"/></clipPath><clipPath class="axesclip" id="clip95ed5fy"><rect x="0" y="100" width="700" height="320"/></clipPath><clipPath class="axesclip" id="clip95ed5fxy"><rect x="80" y="100" width="537" height="320"/></clipPath></g><g class="gradients"/></defs><g class="bglayer"><rect class="bg" x="80" y="100" width="537" height="320" style="fill: rgb(229, 236, 246); fill-opacity: 1; stroke-width: 0;"/></g><g class="layer-below"><g class="imagelayer"/><g class="shapelayer"/></g><g class="cartesianlayer"><g class="subplot xy"><g class="layer-subplot"><g class="shapelayer"/><g class="imagelayer"/></g><g class="gridlayer"><g class="x"><path class="xgrid crisp" transform="translate(89.25,0)" d="M0,100v320" style="stroke: rgb(255, 255, 255); stroke-opacity: 1; stroke-width: 1px;"/><path class="xgrid crisp" transform="translate(188.91,0)" d="M0,100v320" style="stroke: rgb(255, 255, 255); stroke-opacity: 1; stroke-width: 1px;"/><path class="xgrid crisp" transform="translate(288.57,0)" d="M0,100v320" style="stroke: rgb(255, 255, 255); stroke-opacity: 1; stroke-width: 1px;"/><path class="xgrid crisp" transform="translate(388.23,0)" d="M0,100v320" style="stroke: rgb(255, 255, 255); stroke-opacity: 1; stroke-width: 1px;"/><path class="xgrid crisp" transform="translate(487.89,0)" d="M0,100v320" style="stroke: rgb(255, 255, 255); stroke-opacity: 1; stroke-width: 1px;"/><path class="xgrid crisp" transform="translate(587.54,0)" d="M0,100v320" style="stroke: rgb(255, 255, 255); stroke-opacity: 1; stroke-width: 1px;"/></g><g class="y"><path class="ygrid crisp" transform="translate(0,367.23)" d="M80,0h537" style="stroke: rgb(255, 255, 255); stroke-opacity: 1; stroke-width: 1px;"/><path class="ygrid crisp" transform="translate(0,308.43)" d="M80,0h537" style="stroke: rgb(255, 255, 255); stroke-opacity: 1; stroke-width: 1px;"/><path class="ygrid crisp" transform="translate(0,249.63)" d="M80,0h537" style="stroke: rgb(255, 255, 255); stroke-opacity: 1; stroke-width: 1px;"/><path class="ygrid crisp" transform="translate(0,190.82999999999998)" d="M80,0h537" style="stroke: rgb(255, 255, 255); stroke-opacity: 1; stroke-width: 1px;"/><path class="ygrid crisp" transform="translate(0,132.03)" d="M80,0h537" style="stroke: rgb(255, 255, 255); stroke-opacity: 1; stroke-width: 1px;"/></g></g><g class="zerolinelayer"/><path class="xlines-below"/><path class="ylines-below"/><g class="overlines-below"/><g class="xaxislayer-below"/><g class="yaxislayer-below"/><g class="overaxes-below"/><g class="plot" transform="translate(80,100)" clip-path="url('#clip95ed5fxyplot')"><g class="scatterlayer mlayer"><g class="trace scatter trace68ddb8" style="stroke-miterlimit: 2; opacity: 1;"><g class="fills"/><g class="errorbars"/><g class="lines"><path class="js-line" d="M0,82.28L5.84,82.51L7.92,120.48L12.05,120.57L13.58,136.92L14.23,136.9L29.51,137.96L30.46,121.23L30.75,129.62L31.44,129.56L32.83,126.37L33.52,126.27L34.9,129.79L35.59,129.7L36.98,132.71L37.67,132.63L39.06,120.69L39.75,120.62L41.13,132.64L41.82,132.55L43.21,126.68L45.98,109.51L47.36,94.58L48.05,92.89L49.43,74.17L50.13,72.87L51.51,78.78L52.2,77.73L53.59,63.68L54.28,62.82L55.66,65.47L56.35,64.83L57.74,74.27L58.43,73.83L59.35,51.83L60.51,52.34L61.2,52.21L68.81,51.78L69.51,51.77L77.81,51.11L78.5,50.91L102.03,42.44L102.72,42.24L108.26,40.95L108.95,41.79L121.41,41.46L122.1,41.46L133.18,40.58L133.87,40.48L155.32,37.17L156.01,37.08L158.09,36.83L158.78,35.53L185.77,34L186.46,33.87L207.92,31.05L208.62,28.56L232.14,27.81L232.84,95.38L240.47,93.57L241.14,93.44L241.83,93.12L242.52,91.51L245.99,84.67L246.68,79.63L248.75,73.59L249.44,72.39L253.6,67.88L254.29,67.37L257.75,65.43L258.44,65.5L263.29,64.8L263.98,64.77L279.21,63.66L279.9,63.48L284.74,61.32L285.43,60.89L286.13,60.46L286.82,62.78L289.59,61.15L290.28,59.94L294.43,53.24L295.12,52.44L297.89,47.98L298.58,45.51L301.35,38.66L302.04,37.65L306.19,32.89L306.91,32.47L308.96,31.98L309.66,31.8L315.19,31.18L315.89,31.16L326.26,30.17L326.96,29.9L331.11,28.09L331.8,74.81L333.88,72.76L334.57,72.32L340.8,69.16L341.49,68.8L342.02,71.93L342.18,68.39L342.84,68.25L342.88,69.25L343.54,67.95L343.57,68.94L344.26,68.62L345.65,68.09L346.34,76.43L352.4,73.91L352.42,72.31L352.46,72.03L352.57,73.74L359.14,44.74L359.48,44.87L359.83,41.95L360.52,42.12L360.87,43.2L361.91,37.43L362.26,41.6L363.29,39.66L363.64,39.05L364.68,38.13L365.02,38.96L366.06,38.42L366.41,38.33L367.1,38.4L367.45,43.02L371.25,41.69L371.6,36.5L372.29,35.76L372.63,35.39L374.36,31.97L374.71,32.01L376.79,22.43L377.13,16L377.48,16.8L377.82,140.18L378.17,139.22L378.52,142.07L379.21,136.79L379.56,138.99L379.9,137.43L380.25,136.15L380.59,136.63L380.94,141.25L381.28,146.68L381.63,133.42L382.32,138.09L382.67,157.2L383.71,133.53L384.05,145.44L384.4,148.42L384.74,146.68L385.09,144.02L385.78,134.36L386.13,135.71L386.47,141.84L386.82,146.05L387.17,142.1L387.51,141.74L387.86,151.77L388.2,141.68L388.55,140.84L388.9,148.68L389.24,138.39L389.59,127.07L389.94,137.58L390.28,139.13L390.63,140.49L390.97,138.92L391.32,134.18L392.36,129.31L392.7,138.25L393.05,134.05L393.4,138.68L393.74,138.81L394.44,131.42L394.78,140.05L395.47,132.48L395.82,138.41L396.51,141.46L396.86,128.79L397.55,142.96L397.9,264.58L398.94,293.12L399.28,304L399.63,286.22L399.97,301.52L400.32,291.75L400.66,292.1L401.01,291.07L401.36,294.16L401.7,293.46L402.05,276.02L402.39,283.67L402.74,262.28L403.43,272.54L403.78,248.89L404.47,241.71L404.82,229.6L405.16,224.98L405.51,228.24L405.85,227.36L406.89,215.22L407.24,217.06L407.58,216.4L408.62,228.38L408.97,228.68L409.31,224.72L409.66,233.57L410.01,224.28L410.35,225.36L410.7,227.75L411.04,223.07L411.39,225.77L411.74,226.33L412.08,223.26L412.43,224.52L412.78,234.01L413.12,220.81L413.47,231.91L413.81,224.2L415.89,212.72L416.24,220.76L416.93,220.72L417.27,223.7L417.62,223.67L417.96,219.37L418.31,223.08L418.66,218.62L419,226.76L419.35,225.2L419.7,224.19L420.04,219.51L420.39,225.16L421.42,225.11L421.77,216.49L422.12,225.05L422.46,220.43L422.81,220.57L423.16,218.19L423.5,220.92L423.85,219.84L424.19,227.36L424.54,216.65L425.58,220.31L425.92,220.98L426.27,218.78L426.62,222.11L426.96,223.64L427.31,218.66L427.65,205.85L428,215.25L428.35,220.32L428.69,206.18L429.04,206.81L429.38,214.16L429.73,214.11L430.08,206.99L430.77,212.47L431.12,202.23L431.46,199.24L431.81,208.71L432.16,224.84L432.5,215.2L432.84,214.49L433.19,205.74L433.54,219.6L434.23,195.82L434.57,209.77L434.92,208.24L435.27,203.32L435.61,202.05L435.96,205.17L436.3,200.81L436.65,208.16L437,206.35L437.34,209.96L437.69,207.44L438.03,196.45L438.38,195.36L438.73,196.45L439.07,201.41L440.11,210.92L440.46,197.09L440.8,197.31L441.15,191.05L441.49,191.24L441.84,196.07L442.19,200.65L442.53,194.37L443.57,210.5L443.92,204.27L444.61,191.94L444.95,193.62L445.3,197L445.65,205.03L445.99,197.14L446.34,198.57L447.72,184.28L448.07,189.51L448.76,194.59L449.11,189.23L449.45,191.91L449.8,189.81L450.15,182.31L450.49,187.7L450.84,187L451.18,183.28L451.53,186.18L451.88,185.69L452.23,181.61L452.57,182.61L452.92,186.54L453.61,187.68L453.95,186.58L454.3,181.49L454.64,187.81L455.34,185.81L455.68,187.22L456.38,187L456.73,190.98L457.07,190.65L457.42,194.82L457.76,189.57L458.11,183.36L458.45,189.2L458.8,186.45L459.84,187.85L460.18,183.53L461.22,187.65L461.57,184.59L462.26,184.25L462.6,185.71L463.64,187.29L463.99,197.68L464.33,197.68L464.68,195.53L465.03,195.52L465.37,190.33L465.72,190.33L466.06,186.49L467.45,194.95L467.79,194.95L468.14,195.4L468.49,193.58L468.83,193.58L469.18,187.5L469.87,187.5L470.22,190.84L471.25,186.75L471.6,187.03L471.95,187.03L472.29,188.23L475.06,181.13L475.41,187.27L475.75,190.9L476.1,187.7L476.44,181.79L476.79,180.91L477.14,182.93L477.48,184.81L477.83,179.55L478.52,190.44L478.87,182.8L479.22,183.07L479.56,174.64L480.6,185.09L480.94,181.21L481.29,181.99L481.63,185.79L481.98,171.39L482.33,177.83L482.67,175.21L483.02,180.5L483.37,179.53L483.71,177.22L485.09,187.84L485.44,182.58L485.79,175.16L486.13,180.33L486.48,178.23L487.17,176.4L487.52,185.95L487.86,175.93L488.21,196.82L489.25,173.22L489.59,177.47L489.94,180.21L490.28,180.03L490.63,179.15L491.32,179.35L491.67,181.21L493.05,176.9L493.4,176.97L494.09,169.69L494.44,173.52L494.78,176.28L495.13,172.21L495.48,173.97L495.82,171L496.51,180.19L496.86,175.33L497.21,171.32L498.24,183.64L498.59,176L499.63,181.54L499.97,176.71L500.32,173.38L500.67,176.61L501.01,186.68L501.36,171.47L501.7,173.34L502.05,176.71L502.4,180.06L502.75,191.51L503.44,169.64L503.79,179.24L504.13,185.08L504.47,178.84L504.82,180.35L505.51,173.52L506.08,177.41L506.9,172.35L507.24,176.21L507.59,178.87L507.93,178.77L508.28,176.54L509.32,180.35L509.66,181.62L510.01,181.6L510.36,184.49L510.7,177.62L511.05,178.94L511.39,178.93L511.74,178.92L512.09,174.71L512.78,182.31L513.13,181.81L513.47,181.81L513.82,181.29L514.16,185.14L514.86,181.68L515.2,185.76L515.89,177.83L516.24,178.11L516.59,178.11L517.97,178.1L518.32,181.35L519.35,177.13L519.7,180.97L520.05,182.3L520.39,178.08L520.74,173.89L521.08,174.32L521.43,178.07L521.78,178.06L522.12,182.07L522.47,173.86L522.81,174.82L523.16,179.2L523.85,175.06L524.2,180.13L524.89,171.51L525.23,183.74L525.58,184.31L525.93,181.03L526.27,176.05L526.62,182.38L526.97,173.59L527.31,174.64L527.66,179.55L528,177.66L528.35,183.56L529.39,174.61L529.73,173.28L530.77,177.46L531.12,174.3L531.46,174.68L531.82,176.52L532.16,174.45L532.5,184.13L532.85,183.4L533.19,178.51L533.54,178.68L533.89,173.73L534.23,179.49L534.58,178.98L534.92,177.09L535.62,170.34L535.96,171.78L536.31,172.34L536.66,172.63L537,168.23" style="vector-effect: non-scaling-stroke; fill: none; stroke: rgb(99, 110, 250); stroke-opacity: 1; stroke-width: 2px; opacity: 1;"/></g><g class="points"/><g class="text"/></g></g></g><g class="overplot"/><path class="xlines-above crisp" d="M0,0" style="fill: none;"/><path class="ylines-above crisp" d="M0,0" style="fill: none;"/><g class="overlines-above"/><g class="xaxislayer-above"><g class="xtick"><text text-anchor="middle" x="0" y="433" transform="translate(89.25,0)" style="font-family: 'Open Sans', verdana, arial, sans-serif; font-size: 12px; fill: rgb(42, 63, 95); fill-opacity: 1; white-space: pre;"><tspan class="line" dy="0em" x="0" y="433">Jun 4</tspan><tspan class="line" dy="1.3em" x="0" y="433">2021</tspan></text></g><g class="xtick"><text text-anchor="middle" x="0" y="433" transform="translate(188.91,0)" style="font-family: 'Open Sans', verdana, arial, sans-serif; font-size: 12px; fill: rgb(42, 63, 95); fill-opacity: 1; white-space: pre;">Jun 6</text></g><g class="xtick"><text text-anchor="middle" x="0" y="433" transform="translate(288.57,0)" style="font-family: 'Open Sans', verdana, arial, sans-serif; font-size: 12px; fill: rgb(42, 63, 95); fill-opacity: 1; white-space: pre;">Jun 8</text></g><g class="xtick"><text text-anchor="middle" x="0" y="433" transform="translate(388.23,0)" style="font-family: 'Open Sans', verdana, arial, sans-serif; font-size: 12px; fill: rgb(42, 63, 95); fill-opacity: 1; white-space: pre;">Jun 10</text></g><g class="xtick"><text text-anchor="middle" x="0" y="433" transform="translate(487.89,0)" style="font-family: 'Open Sans', verdana, arial, sans-serif; font-size: 12px; fill: rgb(42, 63, 95); fill-opacity: 1; white-space: pre;">Jun 12</text></g><g class="xtick"><text text-anchor="middle" x="0" y="433" transform="translate(587.54,0)" style="font-family: 'Open Sans', verdana, arial, sans-serif; font-size: 12px; fill: rgb(42, 63, 95); fill-opacity: 1; white-space: pre;">Jun 14</text></g></g><g class="yaxislayer-above"><g class="ytick"><text text-anchor="end" x="79" y="4.199999999999999" transform="translate(0,367.23)" style="font-family: 'Open Sans', verdana, arial, sans-serif; font-size: 12px; fill: rgb(42, 63, 95); fill-opacity: 1; white-space: pre;">0.8</text></g><g class="ytick"><text text-anchor="end" x="79" y="4.199999999999999" transform="translate(0,308.43)" style="font-family: 'Open Sans', verdana, arial, sans-serif; font-size: 12px; fill: rgb(42, 63, 95); fill-opacity: 1; white-space: pre;">0.82</text></g><g class="ytick"><text text-anchor="end" x="79" y="4.199999999999999" transform="translate(0,249.63)" style="font-family: 'Open Sans', verdana, arial, sans-serif; font-size: 12px; fill: rgb(42, 63, 95); fill-opacity: 1; white-space: pre;">0.84</text></g><g class="ytick"><text text-anchor="end" x="79" y="4.199999999999999" transform="translate(0,190.82999999999998)" style="font-family: 'Open Sans', verdana, arial, sans-serif; font-size: 12px; fill: rgb(42, 63, 95); fill-opacity: 1; white-space: pre;">0.86</text></g><g class="ytick"><text text-anchor="end" x="79" y="4.199999999999999" transform="translate(0,132.03)" style="font-family: 'Open Sans', verdana, arial, sans-serif; font-size: 12px; fill: rgb(42, 63, 95); fill-opacity: 1; white-space: pre;">0.88</text></g></g><g class="overaxes-above"/></g></g><g class="polarlayer"/><g class="ternarylayer"/><g class="geolayer"/><g class="funnelarealayer"/><g class="pielayer"/><g class="treemaplayer"/><g class="sunburstlayer"/><g class="glimages"/><defs id="topdefs-95ed5f"><g class="clips"/><clipPath id="legend95ed5f"><rect width="60" height="45" x="0" y="0"/></clipPath></defs><g class="layer-above"><g class="imagelayer"/><g class="shapelayer"/></g><g class="infolayer"><g class="legend" pointer-events="all" transform="translate(627.74,100)"><rect class="bg" shape-rendering="crispEdges" width="60" height="45" x="0" y="0" style="stroke: rgb(68, 68, 68); stroke-opacity: 1; fill: rgb(255, 255, 255); fill-opacity: 1; stroke-width: 0px;"/><g class="scrollbox" transform="" clip-path="url('#legend95ed5f')"><text class="legendtitletext" text-anchor="start" x="2" y="15.600000000000001" style="font-family: 'Open Sans', verdana, arial, sans-serif; font-size: 12px; fill: rgb(42, 63, 95); fill-opacity: 1; white-space: pre;">All</text><g class="groups" transform=""><g class="traces" transform="translate(0,30.1)" style="opacity: 1;"><text class="legendtext" text-anchor="start" x="40" y="4.680000000000001" style="font-family: 'Open Sans', verdana, arial, sans-serif; font-size: 12px; fill: rgb(42, 63, 95); fill-opacity: 1; white-space: pre;">All</text><g class="layers" style="opacity: 1;"><g class="legendfill"/><g class="legendlines"><path class="js-line" d="M5,0h30" style="fill: none; stroke: rgb(99, 110, 250); stroke-opacity: 1; stroke-width: 2px;"/></g><g class="legendsymbols"><g class="legendpoints"/></g></g><rect class="legendtoggle" x="0" y="-9.5" width="54.890625" height="19" style="fill: rgb(0, 0, 0); fill-opacity: 0;"/></g></g></g><rect class="scrollbar" rx="20" ry="3" width="0" height="0" x="0" y="0" style="fill: rgb(128, 139, 164); fill-opacity: 1;"/></g><g class="g-gtitle"><text class="gtitle" x="35" y="50" text-anchor="start" dy="0em" style="font-family: 'Open Sans', verdana, arial, sans-serif; font-size: 17px; fill: rgb(42, 63, 95); opacity: 1; font-weight: normal; white-space: pre;">Singapore Vaccination Centers</text></g><g class="g-xtitle"><text class="xtitle" x="348.5" y="476.409375" text-anchor="middle" style="font-family: 'Open Sans', verdana, arial, sans-serif; font-size: 14px; fill: rgb(42, 63, 95); opacity: 1; font-weight: normal; white-space: pre;">Time</text></g><g class="g-ytitle"><text class="ytitle" transform="rotate(-90,27.481250000000003,260)" x="27.481250000000003" y="260" text-anchor="middle" style="font-family: 'Open Sans', verdana, arial, sans-serif; font-size: 14px; fill: rgb(42, 63, 95); opacity: 1; font-weight: normal; white-space: pre;">Filled/%</text></g></g></svg>