<svg class="main-svg" xmlns="http://www.w3.org/2000/svg" xmlns:xlink="http://www.w3.org/1999/xlink" width="700" height="500" style="" viewBox="0 0 700 500"><rect x="0" y="0" width="700" height="500" style="fill: rgb(255, 255, 255); fill-opacity: 1;"/><defs id="defs-4347ee"><g class="clips"><clipPath id="clip4347eexyplot" class="plotclip"><rect width="537" height="320"/></clipPath><clipPath class="axesclip" id="clip4347eex"><rect x="80" y="0" width="537" height="500"/></clipPath><clipPath class="axesclip" id="clip4347eey"><rect x="0" y="100" width="700" height="320"/></clipPath><clipPath class="axesclip" id="clip4347eexy"><rect x="80" y="100" width="537" height="320"/></clipPath></g><g class="gradients"/></defs><g class="bglayer"><rect class="bg" x="80" y="100" width="537" height="320" style="fill: rgb(229, 236, 246); fill-opacity: 1; stroke-width: 0;"/></g><g class="layer-below"><g class="imagelayer"/><g class="shapelayer"/></g><g class="cartesianlayer"><g class="subplot xy"><g class="layer-subplot"><g class="shapelayer"/><g class="imagelayer"/></g><g class="gridlayer"><g class="x"><path class="xgrid crisp" transform="translate(90.13,0)" d="M0,100v320" style="stroke: rgb(255, 255, 255); stroke-opacity: 1; stroke-width: 1px;"/><path class="xgrid crisp" transform="translate(199.2,0)" d="M0,100v320" style="stroke: rgb(255, 255, 255); stroke-opacity: 1; stroke-width: 1px;"/><path class="xgrid crisp" transform="translate(308.28,0)" d="M0,100v320" style="stroke: rgb(255, 255, 255); stroke-opacity: 1; stroke-width: 1px;"/><path class="xgrid crisp" transform="translate(417.36,0)" d="M0,100v320" style="stroke: rgb(255, 255, 255); stroke-opacity: 1; stroke-width: 1px;"/><path class="xgrid crisp" transform="translate(526.4300000000001,0)" d="M0,100v320" style="stroke: rgb(255, 255, 255); stroke-opacity: 1; stroke-width: 1px;"/></g><g class="y"><path class="ygrid crisp" transform="translate(0,367.23)" d="M80,0h537" style="stroke: rgb(255, 255, 255); stroke-opacity: 1; stroke-width: 1px;"/><path class="ygrid crisp" transform="translate(0,308.43)" d="M80,0h537" style="stroke: rgb(255, 255, 255); stroke-opacity: 1; stroke-width: 1px;"/><path class="ygrid crisp" transform="translate(0,249.63)" d="M80,0h537" style="stroke: rgb(255, 255, 255); stroke-opacity: 1; stroke-width: 1px;"/><path class="ygrid crisp" transform="translate(0,190.82999999999998)" d="M80,0h537" style="stroke: rgb(255, 255, 255); stroke-opacity: 1; stroke-width: 1px;"/><path class="ygrid crisp" transform="translate(0,132.03)" d="M80,0h537" style="stroke: rgb(255, 255, 255); stroke-opacity: 1; stroke-width: 1px;"/></g></g><g class="zerolinelayer"/><path class="xlines-below"/><path class="ylines-below"/><g class="overlines-below"/><g class="xaxislayer-below"/><g class="yaxislayer-below"/><g class="overaxes-below"/><g class="plot" transform="translate(80,100)" clip-path="url('#clip4347eexyplot')"><g class="scatterlayer mlayer"><g class="trace scatter trace490ed7" style="stroke-miterlimit: 2; opacity: 1;"><g class="fills"/><g class="errorbars"/><g class="lines"><path class="js-line" d="M0,82.28L6.4,82.51L8.67,120.48L13.19,120.57L14.86,136.92L15.57,136.9L32.3,137.96L33.34,121.23L33.66,129.62L34.41,129.56L35.93,126.37L36.69,126.27L38.2,129.79L38.96,129.7L40.47,132.71L41.23,132.63L42.75,120.69L43.51,120.62L45.02,132.64L45.78,132.55L47.29,126.68L48.05,123.32L49.56,113.21L50.32,109.51L51.84,94.58L52.59,92.89L54.11,74.17L54.86,72.87L56.38,78.78L57.14,77.73L58.65,63.68L59.41,62.82L60.92,65.47L61.68,64.83L63.2,74.27L63.95,73.83L64.95,51.83L66.23,52.34L66.99,52.21L75.32,51.78L76.07,51.77L85.16,51.11L85.92,50.91L111.67,42.44L112.43,42.24L118.49,40.95L119.25,41.79L132.88,41.46L133.64,41.46L145.76,40.58L146.52,40.48L170.76,37.08L171.51,36.99L173.03,36.83L173.79,35.53L203.33,34L204.09,33.87L227.57,31.05L228.33,28.56L254.08,27.81L254.84,95.38L263.2,93.57L263.93,93.44L264.69,93.12L265.45,91.51L267.72,88.51L268.48,87.52L272.26,73.59L273.02,72.39L277.56,67.88L278.32,67.37L282.11,65.43L282.87,65.5L288.17,64.8L288.93,64.77L305.59,63.66L306.35,63.48L311.65,61.32L312.41,60.89L313.17,60.46L313.92,62.78L316.95,61.15L317.71,59.94L322.26,53.24L323.01,52.44L326.04,47.98L326.8,45.51L329.83,38.66L330.59,37.65L335.13,32.89L335.92,32.47L338.16,31.98L338.92,31.8L344.98,31.18L345.74,31.16L357.1,30.17L357.86,29.9L362.4,28.09L363.16,74.81L365.43,72.76L366.19,72.32L373.01,69.16L373.77,68.8L374.35,71.93L374.52,68.39L375.25,68.25L375.28,69.25L376,67.95L376.04,68.94L376.79,68.62L378.31,68.09L379.07,76.43L385.7,73.91L385.73,72.31L385.77,72.03L385.89,73.74L393.08,44.74L393.46,44.87L393.84,41.95L394.6,42.12L394.97,43.2L396.11,37.43L396.49,41.6L397.62,39.66L398.01,39.05L399.14,38.13L399.52,38.96L400.66,38.42L401.04,38.33L401.79,38.4L402.17,43.02L406.34,41.69L406.72,36.5L407.47,35.76L407.85,35.39L408.99,33.79L409.37,33.41L412.4,22.43L412.77,16L413.15,16.8L413.53,140.18L413.91,139.22L414.29,142.07L415.05,136.79L415.43,138.99L416.19,136.15L416.56,136.63L416.94,141.25L417.32,146.68L417.7,133.42L418.46,138.09L418.83,157.2L419.97,133.53L420.35,145.44L420.73,148.42L421.11,146.68L421.49,144.02L422.24,134.36L422.62,135.71L423,141.84L423.38,146.05L423.76,142.1L424.14,141.74L424.51,151.77L424.89,141.68L425.27,140.84L425.65,148.68L426.41,127.07L426.79,137.58L427.55,140.49L427.92,138.92L429.44,129.31L429.82,138.25L430.2,134.05L430.57,138.68L430.95,138.81L431.33,131.49L431.71,131.42L432.09,140.05L432.85,132.48L433.23,138.41L433.98,141.46L434.36,128.79L435.12,142.96L435.5,264.58L436.64,293.12L437.02,304L437.4,286.22L437.77,301.52L438.15,291.75L438.53,292.1L438.91,291.07L439.29,294.16L439.67,293.46L440.04,276.02L440.42,283.67L440.8,262.28L441.56,272.54L441.94,248.89L442.69,241.71L443.07,229.6L443.45,224.98L443.83,228.24L444.21,227.36L445.35,215.22L445.72,217.06L446.1,216.4L446.48,227.08L446.86,226.08L447.24,228.38L447.62,228.68L448,224.72L448.38,233.57L448.75,224.28L449.51,227.75L449.89,223.07L450.65,226.33L451.03,223.26L451.41,224.52L451.79,234.01L452.16,220.81L452.54,231.91L452.92,224.2L455.2,212.72L455.57,220.76L456.33,220.72L456.71,223.7L457.09,223.67L457.47,219.37L457.85,223.08L458.22,218.62L458.6,226.76L458.98,225.2L459.36,224.19L459.74,219.51L460.12,225.16L461.25,225.11L461.63,216.49L462.01,225.05L462.39,220.43L462.77,220.57L463.15,218.19L463.53,220.92L463.91,219.84L464.28,227.36L464.66,216.65L465.04,220.1L465.42,220.01L466.18,220.98L466.55,218.78L467.31,223.64L467.69,218.66L468.07,205.85L468.45,215.25L468.83,220.32L469.21,206.18L469.58,206.81L469.96,214.16L470.34,214.11L470.72,206.99L471.48,212.47L471.86,202.23L472.24,199.24L472.62,208.71L473,224.84L473.37,215.2L473.75,214.49L474.13,205.74L474.51,219.6L475.27,195.82L475.64,209.77L476.02,208.24L476.4,203.32L476.78,202.05L477.16,205.17L477.54,200.81L477.92,208.16L478.29,206.35L478.67,209.96L479.05,207.44L479.43,196.45L479.81,195.36L480.19,196.45L480.57,201.41L481.7,210.92L482.08,197.09L482.46,197.31L482.84,191.05L483.22,191.24L483.6,196.07L483.98,200.65L484.35,194.37L485.49,210.5L485.87,204.27L486.63,191.94L487.01,193.62L487.38,197L487.76,205.03L488.14,197.14L488.52,198.57L488.9,192.99L490.04,184.28L490.41,189.51L491.17,194.59L491.55,189.23L491.93,191.91L492.31,189.81L492.69,182.31L493.07,187.7L493.44,187L493.82,183.28L494.2,186.18L494.58,185.69L494.97,181.61L495.34,182.61L495.72,186.54L496.48,187.68L496.85,186.58L497.23,181.49L497.61,187.81L498.37,185.81L498.75,187.22L499.13,189.17L499.51,187L500.65,194.82L501.02,189.57L501.4,183.36L501.78,189.2L502.16,186.45L503.29,187.85L503.67,183.53L504.81,187.65L505.19,184.59L505.94,184.25L506.32,185.71L507.46,187.29L507.84,197.68L508.22,197.68L508.6,195.53L508.97,195.52L509.35,190.33L509.73,190.33L510.11,186.49L511.63,194.95L512,194.95L512.38,195.4L512.76,193.58L513.14,193.58L513.52,187.5L514.28,187.5L514.66,190.84L515.03,186.76L515.41,190.68L515.79,186.75L516.93,188.23L517.31,187.2L519.58,183.02L519.96,181.13L520.71,190.9L521.09,187.7L521.47,181.79L521.85,180.91L522.23,182.93L522.61,184.81L522.98,179.55L523.74,190.44L524.12,182.8L524.51,183.07L524.88,174.64L526.02,185.09L526.39,181.21L526.77,181.99L527.15,185.79L527.53,171.39L527.91,177.83L528.29,175.21L528.67,180.5L529.05,179.53L529.42,177.22L530.94,187.84L531.32,182.58L531.7,175.16L532.08,180.33L532.45,178.23L533.21,176.4L533.59,185.95L533.97,175.93L534.35,196.82L535.49,173.22L535.86,177.47L536.24,180.21L536.62,180.03L537,179.15" style="vector-effect: non-scaling-stroke; fill: none; stroke: rgb(99, 110, 250); stroke-opacity: 1; stroke-width: 2px; opacity: 1;"/></g><g class="points"/><g class="text"/></g></g></g><g class="overplot"/><path class="xlines-above crisp" d="M0,0" style="fill: none;"/><path class="ylines-above crisp" d="M0,0" style="fill: none;"/><g class="overlines-above"/><g class="xaxislayer-above"><g class="xtick"><text text-anchor="middle" x="0" y="433" transform="translate(90.13,0)" style="font-family: 'Open Sans', verdana, arial, sans-serif; font-size: 12px; fill: rgb(42, 63, 95); fill-opacity: 1; white-space: pre;"><tspan class="line" dy="0em" x="0" y="433">Jun 4</tspan><tspan class="line" dy="1.3em" x="0" y="433">2021</tspan></text></g><g class="xtick"><text text-anchor="middle" x="0" y="433" transform="translate(199.2,0)" style="font-family: 'Open Sans', verdana, arial, sans-serif; font-size: 12px; fill: rgb(42, 63, 95); fill-opacity: 1; white-space: pre;">Jun 6</text></g><g class="xtick"><text text-anchor="middle" x="0" y="433" transform="translate(308.28,0)" style="font-family: 'Open Sans', verdana, arial, sans-serif; font-size: 12px; fill: rgb(42, 63, 95); fill-opacity: 1; white-space: pre;">Jun 8</text></g><g class="xtick"><text text-anchor="middle" x="0" y="433" transform="translate(417.36,0)" style="font-family: 'Open Sans', verdana, arial, sans-serif; font-size: 12px; fill: rgb(42, 63, 95); fill-opacity: 1; white-space: pre;">Jun 10</text></g><g class="xtick"><text text-anchor="middle" x="0" y="433" transform="translate(526.4300000000001,0)" style="font-family: 'Open Sans', verdana, arial, sans-serif; font-size: 12px; fill: rgb(42, 63, 95); fill-opacity: 1; white-space: pre;">Jun 12</text></g></g><g class="yaxislayer-above"><g class="ytick"><text text-anchor="end" x="79" y="4.199999999999999" transform="translate(0,367.23)" style="font-family: 'Open Sans', verdana, arial, sans-serif; font-size: 12px; fill: rgb(42, 63, 95); fill-opacity: 1; white-space: pre;">0.8</text></g><g class="ytick"><text text-anchor="end" x="79" y="4.199999999999999" transform="translate(0,308.43)" style="font-family: 'Open Sans', verdana, arial, sans-serif; font-size: 12px; fill: rgb(42, 63, 95); fill-opacity: 1; white-space: pre;">0.82</text></g><g class="ytick"><text text-anchor="end" x="79" y="4.199999999999999" transform="translate(0,249.63)" style="font-family: 'Open Sans', verdana, arial, sans-serif; font-size: 12px; fill: rgb(42, 63, 95); fill-opacity: 1; white-space: pre;">0.84</text></g><g class="ytick"><text text-anchor="end" x="79" y="4.199999999999999" transform="translate(0,190.82999999999998)" style="font-family: 'Open Sans', verdana, arial, sans-serif; font-size: 12px; fill: rgb(42, 63, 95); fill-opacity: 1; white-space: pre;">0.86</text></g><g class="ytick"><text text-anchor="end" x="79" y="4.199999999999999" transform="translate(0,132.03)" style="font-family: 'Open Sans', verdana, arial, sans-serif; font-size: 12px; fill: rgb(42, 63, 95); fill-opacity: 1; white-space: pre;">0.88</text></g></g><g class="overaxes-above"/></g></g><g class="polarlayer"/><g class="ternarylayer"/><g class="geolayer"/><g class="funnelarealayer"/><g class="pielayer"/><g class="treemaplayer"/><g class="sunburstlayer"/><g class="glimages"/><defs id="topdefs-4347ee"><g class="clips"/><clipPath id="legend4347ee"><rect width="60" height="45" x="0" y="0"/></clipPath></defs><g class="layer-above"><g class="imagelayer"/><g class="shapelayer"/></g><g class="infolayer"><g class="legend" pointer-events="all" transform="translate(627.74,100)"><rect class="bg" shape-rendering="crispEdges" width="60" height="45" x="0" y="0" style="stroke: rgb(68, 68, 68); stroke-opacity: 1; fill: rgb(255, 255, 255); fill-opacity: 1; stroke-width: 0px;"/><g class="scrollbox" transform="" clip-path="url('#legend4347ee')"><text class="legendtitletext" text-anchor="start" x="2" y="15.600000000000001" style="font-family: 'Open Sans', verdana, arial, sans-serif; font-size: 12px; fill: rgb(42, 63, 95); fill-opacity: 1; white-space: pre;">All</text><g class="groups" transform=""><g class="traces" transform="translate(0,30.1)" style="opacity: 1;"><text class="legendtext" text-anchor="start" x="40" y="4.680000000000001" style="font-family: 'Open Sans', verdana, arial, sans-serif; font-size: 12px; fill: rgb(42, 63, 95); fill-opacity: 1; white-space: pre;">All</text><g class="layers" style="opacity: 1;"><g class="legendfill"/><g class="legendlines"><path class="js-line" d="M5,0h30" style="fill: none; stroke: rgb(99, 110, 250); stroke-opacity: 1; stroke-width: 2px;"/></g><g class="legendsymbols"><g class="legendpoints"/></g></g><rect class="legendtoggle" x="0" y="-9.5" width="54.890625" height="19" style="fill: rgb(0, 0, 0); fill-opacity: 0;"/></g></g></g><rect class="scrollbar" rx="20" ry="3" width="0" height="0" x="0" y="0" style="fill: rgb(128, 139, 164); fill-opacity: 1;"/></g><g class="g-gtitle"><text class="gtitle" x="35" y="50" text-anchor="start" dy="0em" style="font-family: 'Open Sans', verdana, arial, sans-serif; font-size: 17px; fill: rgb(42, 63, 95); opacity: 1; font-weight: normal; white-space: pre;">Singapore Vaccination Centers</text></g><g class="g-xtitle"><text class="xtitle" x="348.5" y="476.409375" text-anchor="middle" style="font-family: 'Open Sans', verdana, arial, sans-serif; font-size: 14px; fill: rgb(42, 63, 95); opacity: 1; font-weight: normal; white-space: pre;">Time</text></g><g class="g-ytitle"><text class="ytitle" transform="rotate(-90,27.481250000000003,260)" x="27.481250000000003" y="260" text-anchor="middle" style="font-family: 'Open Sans', verdana, arial, sans-serif; font-size: 14px; fill: rgb(42, 63, 95); opacity: 1; font-weight: normal; white-space: pre;">Filled/%</text></g></g></svg>