<svg class="main-svg" xmlns="http://www.w3.org/2000/svg" xmlns:xlink="http://www.w3.org/1999/xlink" width="700" height="500" style="" viewBox="0 0 700 500"><rect x="0" y="0" width="700" height="500" style="fill: rgb(255, 255, 255); fill-opacity: 1;"/><defs id="defs-f3b6f5"><g class="clips"><clipPath id="clipf3b6f5xyplot" class="plotclip"><rect width="537" height="320"/></clipPath><clipPath class="axesclip" id="clipf3b6f5x"><rect x="80" y="0" width="537" height="500"/></clipPath><clipPath class="axesclip" id="clipf3b6f5y"><rect x="0" y="100" width="700" height="320"/></clipPath><clipPath class="axesclip" id="clipf3b6f5xy"><rect x="80" y="100" width="537" height="320"/></clipPath></g><g class="gradients"/></defs><g class="bglayer"><rect class="bg" x="80" y="100" width="537" height="320" style="fill: rgb(229, 236, 246); fill-opacity: 1; stroke-width: 0;"/></g><g class="layer-below"><g class="imagelayer"/><g class="shapelayer"/></g><g class="cartesianlayer"><g class="subplot xy"><g class="layer-subplot"><g class="shapelayer"/><g class="imagelayer"/></g><g class="gridlayer"><g class="x"><path class="xgrid crisp" transform="translate(82.17,0)" d="M0,100v320" style="stroke: rgb(255, 255, 255); stroke-opacity: 1; stroke-width: 1px;"/><path class="xgrid crisp" transform="translate(165.87,0)" d="M0,100v320" style="stroke: rgb(255, 255, 255); stroke-opacity: 1; stroke-width: 1px;"/><path class="xgrid crisp" transform="translate(249.57,0)" d="M0,100v320" style="stroke: rgb(255, 255, 255); stroke-opacity: 1; stroke-width: 1px;"/><path class="xgrid crisp" transform="translate(333.27,0)" d="M0,100v320" style="stroke: rgb(255, 255, 255); stroke-opacity: 1; stroke-width: 1px;"/><path class="xgrid crisp" transform="translate(416.97,0)" d="M0,100v320" style="stroke: rgb(255, 255, 255); stroke-opacity: 1; stroke-width: 1px;"/><path class="xgrid crisp" transform="translate(500.66,0)" d="M0,100v320" style="stroke: rgb(255, 255, 255); stroke-opacity: 1; stroke-width: 1px;"/><path class="xgrid crisp" transform="translate(584.36,0)" d="M0,100v320" style="stroke: rgb(255, 255, 255); stroke-opacity: 1; stroke-width: 1px;"/></g><g class="y"><path class="ygrid crisp" transform="translate(0,393.14)" d="M80,0h537" style="stroke: rgb(255, 255, 255); stroke-opacity: 1; stroke-width: 1px;"/><path class="ygrid crisp" transform="translate(0,352.55)" d="M80,0h537" style="stroke: rgb(255, 255, 255); stroke-opacity: 1; stroke-width: 1px;"/><path class="ygrid crisp" transform="translate(0,311.97)" d="M80,0h537" style="stroke: rgb(255, 255, 255); stroke-opacity: 1; stroke-width: 1px;"/><path class="ygrid crisp" transform="translate(0,271.39)" d="M80,0h537" style="stroke: rgb(255, 255, 255); stroke-opacity: 1; stroke-width: 1px;"/><path class="ygrid crisp" transform="translate(0,230.81)" d="M80,0h537" style="stroke: rgb(255, 255, 255); stroke-opacity: 1; stroke-width: 1px;"/><path class="ygrid crisp" transform="translate(0,190.23000000000002)" d="M80,0h537" style="stroke: rgb(255, 255, 255); stroke-opacity: 1; stroke-width: 1px;"/><path class="ygrid crisp" transform="translate(0,149.64)" d="M80,0h537" style="stroke: rgb(255, 255, 255); stroke-opacity: 1; stroke-width: 1px;"/><path class="ygrid crisp" transform="translate(0,109.06)" d="M80,0h537" style="stroke: rgb(255, 255, 255); stroke-opacity: 1; stroke-width: 1px;"/></g></g><g class="zerolinelayer"/><path class="xlines-below"/><path class="ylines-below"/><g class="overlines-below"/><g class="xaxislayer-below"/><g class="yaxislayer-below"/><g class="overaxes-below"/><g class="plot" transform="translate(80,100)" clip-path="url('#clipf3b6f5xyplot')"><g class="scatterlayer mlayer"><g class="trace scatter trace22bcc1" style="stroke-miterlimit: 2; opacity: 1;"><g class="fills"/><g class="errorbars"/><g class="lines"><path class="js-line" d="M0,304L1.67,302.66L2.26,252.53L2.84,253.76L3.42,252.16L5.74,251.55L6.32,251.18L7.49,251.92L8.07,251.06L9.23,251.43L9.81,251.06L10.97,250.81L11.56,250.57L12.72,250.32L13.3,250.08L20.85,249.71L21.44,249.22L25.5,248.11L26.08,247.5L27.25,247.62L27.83,246.76L28.99,247.62L29.58,246.15L31.32,245.29L31.9,245.78L32.48,245.41L33.06,246.27L34.23,243.45L34.8,243.94L35.39,243.94L36.55,242.59L37.13,242.71L38.87,240.38L39.46,241.36L40.03,241.61L40.62,240.5L41.2,238.54L41.78,239.03L42.36,240.01L44.69,235.96L45.27,235.11L45.85,234.37L46.43,234.86L47.59,233.76L48.17,234L48.75,235.47L49.33,233.39L51.66,234L52.24,232.04L53.41,230.07L53.99,230.81L55.15,229.71L55.73,231.3L56.31,231.06L56.89,229.58L59.22,225.41L59.8,222.83L60.38,223.45L60.96,222.1L61.54,221.12L62.12,221.85L63.29,222.1L63.87,223.08L66.77,220.87L67.35,220.63L69.68,219.4L70.26,220.5L70.84,220.5L71.42,219.03L73.75,217.56L74.33,217.44L76.07,216.58L76.65,216.45L77.82,216.58L78.4,216.21L80.14,216.09L80.72,215.23L82.47,212.65L83.05,211.91L84.21,212.9L84.79,212.4L85.37,212.9L85.96,150.58L88.28,148.84L88.86,148.72L91.19,147.61L91.77,147.61L94.67,146.86L95.25,146.49L99.91,145.87L100.49,146.25L105.13,146.49L105.72,146.37L108.62,145.75L109.2,145.75L110.37,144.88L110.95,145.26L112.11,144.88L112.69,144.39L113.85,144.51L114.43,143.89L116.18,143.89L116.76,142.9L118.5,141.05L119.08,142.04L120.83,140.43L121.41,141.05L123.73,137.46L124.31,139.07L126.64,136.22L127.22,137.09L128.38,135.6L128.96,136.72L129.55,137.71L130.13,136.84L130.71,137.83L131.29,137.34L131.87,136.47L132.45,137.46L133.03,136.84L135.36,137.83L135.94,137.46L138.27,133.99L138.85,134.12L140.02,135.11L140.6,133.25L142.92,132.39L143.51,130.78L145.83,131.27L146.41,130.04L146.99,127.93L147.57,129.42L148.16,129.42L148.74,128.3L149.32,129.17L149.9,128.67L151.06,126.94L151.64,127.07L153.39,124.1L153.97,124.22L155.13,121.99L155.71,122.73L156.87,120.75L157.46,121.25L159.2,120.63L159.78,118.16L160.36,118.03L160.94,117.04L161.52,115.68L162.1,115.93L162.69,116.18L163.85,117.91L164.43,117.29L165.02,119.15L165.59,118.4L166.17,118.28L166.75,116.8L167.92,116.92L168.5,116.8L169.08,117.17L169.66,73.72L171.4,71.73L171.98,71.48L177.22,68.36L177.8,68.23L178.96,67.11L179.54,67.11L180.7,67.23L181.29,66.61L189.42,65.36L190,65.61L193.49,64.49L194.07,64.74L195.23,64.61L195.81,64.74L196.97,64.24L197.56,64.49L198.72,63.74L199.3,63.62L199.88,63.12L201.63,63.12L202.79,62.62L203.37,61.37L205.69,60.62L206.27,59L206.86,60.12L207.44,59L208.6,59L209.18,58.37L209.76,58.25L210.34,57.13L212.09,56.88L212.67,55.38L214.98,51.76L215.55,52.38L217.3,51.39L217.88,49.76L220.21,49.14L220.78,47.27L221.37,46.64L221.95,47.14L224.28,45.9L224.85,44.9L226.02,44.9L226.6,45.4L227.76,46.89L228.35,45.15L229.51,46.27L230.1,44.4L231.25,44.52L231.83,44.9L233.58,43.15L234.16,43.52L235.32,41.9L235.9,40.9L236.48,38.53L237.07,39.03L237.64,37.66L238.22,39.03L238.8,37.53L239.97,37.04L240.55,35.79L242.29,36.29L242.87,35.29L243.45,35.79L244.04,34.29L245.2,34.17L245.78,33.17L248.1,33.54L248.68,32.67L249.85,32.54L250.43,32.67L251.6,30.8L252.17,31.42L252.76,31.17L253.34,178.6L256.24,178.21L256.83,178.86L258.57,177.82L259.15,177.82L260.31,176.65L260.89,176.65L262.64,176.01L263.22,176.01L267.29,175.62L267.87,175.62L271.94,175.36L272.52,175.36L274.84,174.45L275.43,174.71L278.91,173.93L279.49,173.81L281.81,172.12L282.39,171.6L284.14,171.21L284.72,169.92L287.07,169.66L287.65,170.83L288.81,169.01L289.39,168.88L289.97,168.24L290.55,165.9L291.13,164.09L291.72,164.35L292.3,163.7L292.88,162.02L293.46,162.54L294.04,161.89L295.21,162.02L295.79,161.11L296.95,160.46L297.53,161.37L299.27,158.78L299.85,159.69L301.6,157.1L302.18,157.1L302.76,156.32L303.34,157.36L304.5,158.26L305.09,157.36L305.67,157.49L306.25,156.71L309.16,152.69L309.74,152.18L310.9,151.79L311.48,153.21L314.97,150.23L315.55,151.92L316.71,131.32L317.29,130.93L318.46,130.29L319.04,125.75L319.62,125.88L320.2,122.13L320.78,122.39L321.36,119.92L321.94,117.08L322.52,117.98L323.1,116.3L323.68,115L324.27,111.64L325.43,108.66L326.01,108.14L328.92,100.37L329.5,100.37L331.24,96.87L331.83,95.96L336.47,86.77L337.06,99.52L339.96,95.34L340.55,95.73L341.13,95.6L341.71,96.38L342.87,95.99L343.45,96.64L345.19,95.73L345.77,95.86L346.94,95.34L347.52,95.47L353.91,94.81L354.5,94.68L363.79,94.68L364.38,95.21L367.28,91.42L367.86,91.68L369.6,90.37L370.18,90.5L370.77,90.11L371.35,88.54L372.51,88.8L373.09,87.37L376,84.36L376.58,84.75L378.32,81.49L378.9,81.1L380.65,78.61L381.23,78.61L382.39,76.13L382.97,76.13L384.13,74.3L384.72,72.21L387.04,67.25L387.62,66.86L388.2,66.46L388.78,64.37L391.11,62.55L391.69,60.98L395.18,60.06L395.76,59.02L396.34,59.41L396.92,58.76L397.5,59.15L402.15,54.71L405.06,52.23L405.64,52.88L407.97,49.74L408.55,49.61L409.13,48.31L409.71,48.83L410.29,48.18L411.46,48.04L412.04,49.09L413.2,47.91L413.78,47.78L414.94,46.87L415.53,47.78L417.85,47.13L418.43,46.09L420.17,43.86L420.75,92.7L421.92,93.1L422.5,92.04L423.08,91.37L423.66,91.91L425.4,91.91L425.99,92.84L428.31,92.57L428.89,92.7L430.63,92.84L431.22,92.84L434.12,91.37L434.71,91.77L440.52,91.11L441.1,91.11L447.49,90.84L448.07,90.71L450.98,90.31L451.56,89.91L452.72,89.38L453.3,88.45L454.46,88.05L455.05,86.72L455.63,85.39L456.21,86.72L458.53,85.78L459.11,85.78L460.28,83.79L460.86,83.52L462.6,80.73L463.18,80.59L464.93,80.2L465.51,79.4L466.67,78.73L467.25,78.87L468.42,77.4L469,76.74L471.32,75.8L471.9,76.2L472.48,75.67L473.06,76.34L474.23,73.01L474.81,73.28L475.39,73.28L477.13,72.74L477.72,71.55L480.62,69.15L481.2,69.42L484.69,67.02L485.27,66.09L485.85,66.49L486.43,65.69L487.6,65.82L488.18,65.69L489.34,64.89L489.92,64.09L491.66,63.03L492.25,61.57L494.57,60.1L495.15,58.37L496.32,56.51L496.89,57.18L502.71,53.72L503.29,53.72L503.87,53.98L504.45,21.5L509.1,18.01L509.68,18.15L511.43,17.88L512.01,17.48L514.33,18.28L514.92,18.28L519.56,18.01L520.15,17.88L530.03,17.88L530.61,18.28L532.93,17.75L533.52,17.88L534.1,16.94L534.68,18.15L535.84,17.21L536.42,16.27L537,16" style="vector-effect: non-scaling-stroke; fill: none; stroke: rgb(99, 110, 250); stroke-opacity: 1; stroke-width: 2px; opacity: 1;"/></g><g class="points"/><g class="text"/></g></g></g><g class="overplot"/><path class="xlines-above crisp" d="M0,0" style="fill: none;"/><path class="ylines-above crisp" d="M0,0" style="fill: none;"/><g class="overlines-above"/><g class="xaxislayer-above"><g class="xtick"><text text-anchor="middle" x="0" y="433" transform="translate(82.17,0)" style="font-family: 'Open Sans', verdana, arial, sans-serif; font-size: 12px; fill: rgb(42, 63, 95); fill-opacity: 1; white-space: pre;"><tspan class="line" dy="0em" x="0" y="433">Aug 3</tspan><tspan class="line" dy="1.3em" x="0" y="433">2021</tspan></text></g><g class="xtick"><text text-anchor="middle" x="0" y="433" transform="translate(165.87,0)" style="font-family: 'Open Sans', verdana, arial, sans-serif; font-size: 12px; fill: rgb(42, 63, 95); fill-opacity: 1; white-space: pre;">Aug 4</text></g><g class="xtick"><text text-anchor="middle" x="0" y="433" transform="translate(249.57,0)" style="font-family: 'Open Sans', verdana, arial, sans-serif; font-size: 12px; fill: rgb(42, 63, 95); fill-opacity: 1; white-space: pre;">Aug 5</text></g><g class="xtick"><text text-anchor="middle" x="0" y="433" transform="translate(333.27,0)" style="font-family: 'Open Sans', verdana, arial, sans-serif; font-size: 12px; fill: rgb(42, 63, 95); fill-opacity: 1; white-space: pre;">Aug 6</text></g><g class="xtick"><text text-anchor="middle" x="0" y="433" transform="translate(416.97,0)" style="font-family: 'Open Sans', verdana, arial, sans-serif; font-size: 12px; fill: rgb(42, 63, 95); fill-opacity: 1; white-space: pre;">Aug 7</text></g><g class="xtick"><text text-anchor="middle" x="0" y="433" transform="translate(500.66,0)" style="font-family: 'Open Sans', verdana, arial, sans-serif; font-size: 12px; fill: rgb(42, 63, 95); fill-opacity: 1; white-space: pre;">Aug 8</text></g><g class="xtick"><text text-anchor="middle" x="0" y="433" transform="translate(584.36,0)" style="font-family: 'Open Sans', verdana, arial, sans-serif; font-size: 12px; fill: rgb(42, 63, 95); fill-opacity: 1; white-space: pre;">Aug 9</text></g></g><g class="yaxislayer-above"><g class="ytick"><text text-anchor="end" x="79" y="4.199999999999999" transform="translate(0,393.14)" style="font-family: 'Open Sans', verdana, arial, sans-serif; font-size: 12px; fill: rgb(42, 63, 95); fill-opacity: 1; white-space: pre;">0.864</text></g><g class="ytick"><text text-anchor="end" x="79" y="4.199999999999999" transform="translate(0,352.55)" style="font-family: 'Open Sans', verdana, arial, sans-serif; font-size: 12px; fill: rgb(42, 63, 95); fill-opacity: 1; white-space: pre;">0.865</text></g><g class="ytick"><text text-anchor="end" x="79" y="4.199999999999999" transform="translate(0,311.97)" style="font-family: 'Open Sans', verdana, arial, sans-serif; font-size: 12px; fill: rgb(42, 63, 95); fill-opacity: 1; white-space: pre;">0.866</text></g><g class="ytick"><text text-anchor="end" x="79" y="4.199999999999999" transform="translate(0,271.39)" style="font-family: 'Open Sans', verdana, arial, sans-serif; font-size: 12px; fill: rgb(42, 63, 95); fill-opacity: 1; white-space: pre;">0.867</text></g><g class="ytick"><text text-anchor="end" x="79" y="4.199999999999999" transform="translate(0,230.81)" style="font-family: 'Open Sans', verdana, arial, sans-serif; font-size: 12px; fill: rgb(42, 63, 95); fill-opacity: 1; white-space: pre;">0.868</text></g><g class="ytick"><text text-anchor="end" x="79" y="4.199999999999999" transform="translate(0,190.23000000000002)" style="font-family: 'Open Sans', verdana, arial, sans-serif; font-size: 12px; fill: rgb(42, 63, 95); fill-opacity: 1; white-space: pre;">0.869</text></g><g class="ytick"><text text-anchor="end" x="79" y="4.199999999999999" transform="translate(0,149.64)" style="font-family: 'Open Sans', verdana, arial, sans-serif; font-size: 12px; fill: rgb(42, 63, 95); fill-opacity: 1; white-space: pre;">0.87</text></g><g class="ytick"><text text-anchor="end" x="79" y="4.199999999999999" transform="translate(0,109.06)" style="font-family: 'Open Sans', verdana, arial, sans-serif; font-size: 12px; fill: rgb(42, 63, 95); fill-opacity: 1; white-space: pre;">0.871</text></g></g><g class="overaxes-above"/></g></g><g class="polarlayer"/><g class="ternarylayer"/><g class="geolayer"/><g class="funnelarealayer"/><g class="pielayer"/><g class="treemaplayer"/><g class="sunburstlayer"/><g class="glimages"/><defs id="topdefs-f3b6f5"><g class="clips"/><clipPath id="legendf3b6f5"><rect width="60" height="45" x="0" y="0"/></clipPath></defs><g class="layer-above"><g class="imagelayer"/><g class="shapelayer"/></g><g class="infolayer"><g class="legend" pointer-events="all" transform="translate(627.74,100)"><rect class="bg" shape-rendering="crispEdges" width="60" height="45" x="0" y="0" style="stroke: rgb(68, 68, 68); stroke-opacity: 1; fill: rgb(255, 255, 255); fill-opacity: 1; stroke-width: 0px;"/><g class="scrollbox" transform="" clip-path="url('#legendf3b6f5')"><text class="legendtitletext" text-anchor="start" x="2" y="15.600000000000001" style="font-family: 'Open Sans', verdana, arial, sans-serif; font-size: 12px; fill: rgb(42, 63, 95); fill-opacity: 1; white-space: pre;">All</text><g class="groups" transform=""><g class="traces" transform="translate(0,30.1)" style="opacity: 1;"><text class="legendtext" text-anchor="start" x="40" y="4.680000000000001" style="font-family: 'Open Sans', verdana, arial, sans-serif; font-size: 12px; fill: rgb(42, 63, 95); fill-opacity: 1; white-space: pre;">All</text><g class="layers" style="opacity: 1;"><g class="legendfill"/><g class="legendlines"><path class="js-line" d="M5,0h30" style="fill: none; stroke: rgb(99, 110, 250); stroke-opacity: 1; stroke-width: 2px;"/></g><g class="legendsymbols"><g class="legendpoints"/></g></g><rect class="legendtoggle" x="0" y="-9.5" width="54.890625" height="19" style="fill: rgb(0, 0, 0); fill-opacity: 0;"/></g></g></g><rect class="scrollbar" rx="20" ry="3" width="0" height="0" x="0" y="0" style="fill: rgb(128, 139, 164); fill-opacity: 1;"/></g><g class="g-gtitle"><text class="gtitle" x="35" y="50" text-anchor="start" dy="0em" style="font-family: 'Open Sans', verdana, arial, sans-serif; font-size: 17px; fill: rgb(42, 63, 95); opacity: 1; font-weight: normal; white-space: pre;">Singapore Vaccination Centers</text></g><g class="g-xtitle"><text class="xtitle" x="348.5" y="476.409375" text-anchor="middle" style="font-family: 'Open Sans', verdana, arial, sans-serif; font-size: 14px; fill: rgb(42, 63, 95); opacity: 1; font-weight: normal; white-space: pre;">Time</text></g><g class="g-ytitle"><text class="ytitle" transform="rotate(-90,19.840625000000003,260)" x="19.840625000000003" y="260" text-anchor="middle" style="font-family: 'Open Sans', verdana, arial, sans-serif; font-size: 14px; fill: rgb(42, 63, 95); opacity: 1; font-weight: normal; white-space: pre;">Filled/%</text></g></g></svg>