<svg class="main-svg" xmlns="http://www.w3.org/2000/svg" xmlns:xlink="http://www.w3.org/1999/xlink" width="700" height="500" style="" viewBox="0 0 700 500"><rect x="0" y="0" width="700" height="500" style="fill: rgb(255, 255, 255); fill-opacity: 1;"/><defs id="defs-2204d0"><g class="clips"><clipPath id="clip2204d0xyplot" class="plotclip"><rect width="537" height="320"/></clipPath><clipPath class="axesclip" id="clip2204d0x"><rect x="80" y="0" width="537" height="500"/></clipPath><clipPath class="axesclip" id="clip2204d0y"><rect x="0" y="100" width="700" height="320"/></clipPath><clipPath class="axesclip" id="clip2204d0xy"><rect x="80" y="100" width="537" height="320"/></clipPath></g><g class="gradients"/></defs><g class="bglayer"><rect class="bg" x="80" y="100" width="537" height="320" style="fill: rgb(229, 236, 246); fill-opacity: 1; stroke-width: 0;"/></g><g class="layer-below"><g class="imagelayer"/><g class="shapelayer"/></g><g class="cartesianlayer"><g class="subplot xy"><g class="layer-subplot"><g class="shapelayer"/><g class="imagelayer"/></g><g class="gridlayer"><g class="x"><path class="xgrid crisp" transform="translate(91.87,0)" d="M0,100v320" style="stroke: rgb(255, 255, 255); stroke-opacity: 1; stroke-width: 1px;"/><path class="xgrid crisp" transform="translate(219.7,0)" d="M0,100v320" style="stroke: rgb(255, 255, 255); stroke-opacity: 1; stroke-width: 1px;"/><path class="xgrid crisp" transform="translate(347.53,0)" d="M0,100v320" style="stroke: rgb(255, 255, 255); stroke-opacity: 1; stroke-width: 1px;"/><path class="xgrid crisp" transform="translate(475.36,0)" d="M0,100v320" style="stroke: rgb(255, 255, 255); stroke-opacity: 1; stroke-width: 1px;"/><path class="xgrid crisp" transform="translate(603.18,0)" d="M0,100v320" style="stroke: rgb(255, 255, 255); stroke-opacity: 1; stroke-width: 1px;"/></g><g class="y"><path class="ygrid crisp" transform="translate(0,367.23)" d="M80,0h537" style="stroke: rgb(255, 255, 255); stroke-opacity: 1; stroke-width: 1px;"/><path class="ygrid crisp" transform="translate(0,308.43)" d="M80,0h537" style="stroke: rgb(255, 255, 255); stroke-opacity: 1; stroke-width: 1px;"/><path class="ygrid crisp" transform="translate(0,249.63)" d="M80,0h537" style="stroke: rgb(255, 255, 255); stroke-opacity: 1; stroke-width: 1px;"/><path class="ygrid crisp" transform="translate(0,190.82999999999998)" d="M80,0h537" style="stroke: rgb(255, 255, 255); stroke-opacity: 1; stroke-width: 1px;"/><path class="ygrid crisp" transform="translate(0,132.03)" d="M80,0h537" style="stroke: rgb(255, 255, 255); stroke-opacity: 1; stroke-width: 1px;"/></g></g><g class="zerolinelayer"/><path class="xlines-below"/><path class="ylines-below"/><g class="overlines-below"/><g class="xaxislayer-below"/><g class="yaxislayer-below"/><g class="overaxes-below"/><g class="plot" transform="translate(80,100)" clip-path="url('#clip2204d0xyplot')"><g class="scatterlayer mlayer"><g class="trace scatter trace3536e4" style="stroke-miterlimit: 2; opacity: 1;"><g class="fills"/><g class="errorbars"/><g class="lines"><path class="js-line" d="M0,82.28L7.5,82.51L10.16,120.48L15.45,120.57L17.42,136.92L18.25,136.9L37.85,137.96L39.07,121.23L39.44,129.62L40.33,129.56L42.11,126.37L42.99,126.27L44.77,129.79L45.66,129.7L47.43,132.71L48.32,132.63L50.1,120.69L50.99,120.62L52.76,132.64L53.65,132.55L55.42,126.68L56.31,123.32L58.09,113.21L58.97,109.51L60.75,94.58L61.63,92.89L63.41,74.17L64.3,72.87L66.07,78.78L66.96,77.73L68.74,63.68L69.62,62.82L71.4,65.47L72.28,64.83L74.06,74.27L74.95,73.83L76.12,51.83L76.73,52.53L77.61,52.34L86.49,51.79L87.38,51.79L100.69,50.91L101.58,50.65L132.65,42.03L133.54,41.83L138.86,40.95L139.75,41.79L155.73,41.46L156.62,41.46L170.82,40.58L171.71,40.48L200.11,37.08L201,36.99L202.78,36.83L203.67,35.53L238.28,34L239.17,33.87L266.69,31.05L267.59,28.56L297.77,27.81L298.65,95.38L308.45,93.57L309.31,93.44L310.19,93.12L311.08,91.51L313.74,88.51L314.63,87.52L318.18,74.89L319.07,73.59L322.62,69.79L323.51,69.11L328.84,66.07L329.72,65.71L334.16,65.01L335.05,64.93L359.02,63.48L359.9,63.27L365.23,61.32L366.12,60.89L367.01,60.46L367.89,62.78L371.44,61.15L372.33,59.94L376.77,54.01L377.66,53.24L381.21,49.13L382.1,47.98L385.65,39.84L386.54,38.66L391.86,33.5L392.75,32.89L396.3,31.98L397.19,31.8L404.29,31.18L405.18,31.16L418.49,30.17L419.38,29.9L424.71,28.09L425.59,74.81L427.37,73.22L428.26,72.76L437.14,69.16L438.02,68.8L438.7,71.93L438.91,68.39L439.76,68.25L439.8,69.25L440.64,67.95L440.69,68.94L441.57,68.62L443.35,68.09L444.24,76.43L452.01,73.91L452.04,72.31L452.09,72.03L452.23,73.74L460.66,44.74L461.1,44.87L461.55,41.95L462.43,42.12L462.88,43.2L464.21,37.43L464.66,41.6L465.98,39.66L466.43,39.05L467.76,38.13L468.21,38.96L469.09,38.53L469.54,38.42L470.87,38.4L471.31,43.02L476.19,41.69L476.64,36.5L477.52,35.76L477.97,35.39L479.3,33.79L479.74,33.41L483.29,22.43L483.74,16L484.18,16.8L484.63,140.18L485.07,139.22L485.51,142.07L486.4,136.79L486.85,138.99L487.74,136.15L488.18,136.63L488.62,141.25L489.06,146.68L489.51,133.42L490.4,138.09L490.84,157.2L492.17,133.53L492.62,145.44L493.06,148.42L493.5,146.68L493.95,144.02L494.83,134.36L495.28,135.71L496.16,146.05L496.61,142.1L497.05,141.74L497.5,151.77L498.38,140.84L498.83,148.68L499.72,127.07L500.16,137.58L501.05,140.49L501.49,138.92L502.38,130.34L502.82,131.67L503.27,129.31L503.71,138.25L504.16,134.05L504.6,138.68L505.04,138.81L505.49,131.49L505.93,131.42L506.37,140.05L507.26,132.48L507.71,138.41L508.59,141.46L509.04,128.79L509.93,142.96L510.37,264.58L511.26,292.55L511.7,293.12L512.15,304L512.59,286.22L513.03,301.52L513.48,291.75L513.92,292.1L514.36,291.07L514.81,294.16L515.25,293.46L515.7,276.02L516.14,283.67L516.58,262.28L517.47,272.54L517.91,248.89L518.8,241.71L519.25,229.6L519.69,224.98L520.13,228.24L520.58,227.36L521.91,215.22L522.35,217.06L522.8,216.4L523.24,227.08L523.69,226.08L524.13,228.38L524.57,228.68L525.02,224.72L525.46,233.57L525.9,224.28L526.79,227.75L527.24,223.07L528.12,226.33L528.57,223.26L529.01,224.52L529.46,234.01L529.9,220.81L530.35,231.91L531.68,220.15L532.12,220.86L533.45,212.72L533.9,220.76L534.78,220.72L535.23,223.7L535.67,223.67L536.11,219.37L536.56,223.08L537,218.62" style="vector-effect: non-scaling-stroke; fill: none; stroke: rgb(99, 110, 250); stroke-opacity: 1; stroke-width: 2px; opacity: 1;"/></g><g class="points"/><g class="text"/></g></g></g><g class="overplot"/><path class="xlines-above crisp" d="M0,0" style="fill: none;"/><path class="ylines-above crisp" d="M0,0" style="fill: none;"/><g class="overlines-above"/><g class="xaxislayer-above"><g class="xtick"><text text-anchor="middle" x="0" y="433" transform="translate(91.87,0)" style="font-family: 'Open Sans', verdana, arial, sans-serif; font-size: 12px; fill: rgb(42, 63, 95); fill-opacity: 1; white-space: pre;"><tspan class="line" dy="0em" x="0" y="433">Jun 4</tspan><tspan class="line" dy="1.3em" x="0" y="433">2021</tspan></text></g><g class="xtick"><text text-anchor="middle" x="0" y="433" transform="translate(219.7,0)" style="font-family: 'Open Sans', verdana, arial, sans-serif; font-size: 12px; fill: rgb(42, 63, 95); fill-opacity: 1; white-space: pre;">Jun 6</text></g><g class="xtick"><text text-anchor="middle" x="0" y="433" transform="translate(347.53,0)" style="font-family: 'Open Sans', verdana, arial, sans-serif; font-size: 12px; fill: rgb(42, 63, 95); fill-opacity: 1; white-space: pre;">Jun 8</text></g><g class="xtick"><text text-anchor="middle" x="0" y="433" transform="translate(475.36,0)" style="font-family: 'Open Sans', verdana, arial, sans-serif; font-size: 12px; fill: rgb(42, 63, 95); fill-opacity: 1; white-space: pre;">Jun 10</text></g><g class="xtick"><text text-anchor="middle" x="0" y="433" transform="translate(603.18,0)" style="font-family: 'Open Sans', verdana, arial, sans-serif; font-size: 12px; fill: rgb(42, 63, 95); fill-opacity: 1; white-space: pre;">Jun 12</text></g></g><g class="yaxislayer-above"><g class="ytick"><text text-anchor="end" x="79" y="4.199999999999999" transform="translate(0,367.23)" style="font-family: 'Open Sans', verdana, arial, sans-serif; font-size: 12px; fill: rgb(42, 63, 95); fill-opacity: 1; white-space: pre;">0.8</text></g><g class="ytick"><text text-anchor="end" x="79" y="4.199999999999999" transform="translate(0,308.43)" style="font-family: 'Open Sans', verdana, arial, sans-serif; font-size: 12px; fill: rgb(42, 63, 95); fill-opacity: 1; white-space: pre;">0.82</text></g><g class="ytick"><text text-anchor="end" x="79" y="4.199999999999999" transform="translate(0,249.63)" style="font-family: 'Open Sans', verdana, arial, sans-serif; font-size: 12px; fill: rgb(42, 63, 95); fill-opacity: 1; white-space: pre;">0.84</text></g><g class="ytick"><text text-anchor="end" x="79" y="4.199999999999999" transform="translate(0,190.82999999999998)" style="font-family: 'Open Sans', verdana, arial, sans-serif; font-size: 12px; fill: rgb(42, 63, 95); fill-opacity: 1; white-space: pre;">0.86</text></g><g class="ytick"><text text-anchor="end" x="79" y="4.199999999999999" transform="translate(0,132.03)" style="font-family: 'Open Sans', verdana, arial, sans-serif; font-size: 12px; fill: rgb(42, 63, 95); fill-opacity: 1; white-space: pre;">0.88</text></g></g><g class="overaxes-above"/></g></g><g class="polarlayer"/><g class="ternarylayer"/><g class="geolayer"/><g class="funnelarealayer"/><g class="pielayer"/><g class="treemaplayer"/><g class="sunburstlayer"/><g class="glimages"/><defs id="topdefs-2204d0"><g class="clips"/><clipPath id="legend2204d0"><rect width="60" height="45" x="0" y="0"/></clipPath></defs><g class="layer-above"><g class="imagelayer"/><g class="shapelayer"/></g><g class="infolayer"><g class="legend" pointer-events="all" transform="translate(627.74,100)"><rect class="bg" shape-rendering="crispEdges" width="60" height="45" x="0" y="0" style="stroke: rgb(68, 68, 68); stroke-opacity: 1; fill: rgb(255, 255, 255); fill-opacity: 1; stroke-width: 0px;"/><g class="scrollbox" transform="" clip-path="url('#legend2204d0')"><text class="legendtitletext" text-anchor="start" x="2" y="15.600000000000001" style="font-family: 'Open Sans', verdana, arial, sans-serif; font-size: 12px; fill: rgb(42, 63, 95); fill-opacity: 1; white-space: pre;">All</text><g class="groups" transform=""><g class="traces" transform="translate(0,30.1)" style="opacity: 1;"><text class="legendtext" text-anchor="start" x="40" y="4.680000000000001" style="font-family: 'Open Sans', verdana, arial, sans-serif; font-size: 12px; fill: rgb(42, 63, 95); fill-opacity: 1; white-space: pre;">All</text><g class="layers" style="opacity: 1;"><g class="legendfill"/><g class="legendlines"><path class="js-line" d="M5,0h30" style="fill: none; stroke: rgb(99, 110, 250); stroke-opacity: 1; stroke-width: 2px;"/></g><g class="legendsymbols"><g class="legendpoints"/></g></g><rect class="legendtoggle" x="0" y="-9.5" width="54.890625" height="19" style="fill: rgb(0, 0, 0); fill-opacity: 0;"/></g></g></g><rect class="scrollbar" rx="20" ry="3" width="0" height="0" x="0" y="0" style="fill: rgb(128, 139, 164); fill-opacity: 1;"/></g><g class="g-gtitle"><text class="gtitle" x="35" y="50" text-anchor="start" dy="0em" style="font-family: 'Open Sans', verdana, arial, sans-serif; font-size: 17px; fill: rgb(42, 63, 95); opacity: 1; font-weight: normal; white-space: pre;">Singapore Vaccination Centers</text></g><g class="g-xtitle"><text class="xtitle" x="348.5" y="476.409375" text-anchor="middle" style="font-family: 'Open Sans', verdana, arial, sans-serif; font-size: 14px; fill: rgb(42, 63, 95); opacity: 1; font-weight: normal; white-space: pre;">Time</text></g><g class="g-ytitle"><text class="ytitle" transform="rotate(-90,27.481250000000003,260)" x="27.481250000000003" y="260" text-anchor="middle" style="font-family: 'Open Sans', verdana, arial, sans-serif; font-size: 14px; fill: rgb(42, 63, 95); opacity: 1; font-weight: normal; white-space: pre;">Filled/%</text></g></g></svg>