<svg class="main-svg" xmlns="http://www.w3.org/2000/svg" xmlns:xlink="http://www.w3.org/1999/xlink" width="700" height="500" style="" viewBox="0 0 700 500"><rect x="0" y="0" width="700" height="500" style="fill: rgb(255, 255, 255); fill-opacity: 1;"/><defs id="defs-889a03"><g class="clips"><clipPath id="clip889a03xyplot" class="plotclip"><rect width="537" height="320"/></clipPath><clipPath class="axesclip" id="clip889a03x"><rect x="80" y="0" width="537" height="500"/></clipPath><clipPath class="axesclip" id="clip889a03y"><rect x="0" y="100" width="700" height="320"/></clipPath><clipPath class="axesclip" id="clip889a03xy"><rect x="80" y="100" width="537" height="320"/></clipPath></g><g class="gradients"/></defs><g class="bglayer"><rect class="bg" x="80" y="100" width="537" height="320" style="fill: rgb(229, 236, 246); fill-opacity: 1; stroke-width: 0;"/></g><g class="layer-below"><g class="imagelayer"/><g class="shapelayer"/></g><g class="cartesianlayer"><g class="subplot xy"><g class="layer-subplot"><g class="shapelayer"/><g class="imagelayer"/></g><g class="gridlayer"><g class="x"><path class="xgrid crisp" transform="translate(91.12,0)" d="M0,100v320" style="stroke: rgb(255, 255, 255); stroke-opacity: 1; stroke-width: 1px;"/><path class="xgrid crisp" transform="translate(210.93,0)" d="M0,100v320" style="stroke: rgb(255, 255, 255); stroke-opacity: 1; stroke-width: 1px;"/><path class="xgrid crisp" transform="translate(330.74,0)" d="M0,100v320" style="stroke: rgb(255, 255, 255); stroke-opacity: 1; stroke-width: 1px;"/><path class="xgrid crisp" transform="translate(450.55,0)" d="M0,100v320" style="stroke: rgb(255, 255, 255); stroke-opacity: 1; stroke-width: 1px;"/><path class="xgrid crisp" transform="translate(570.36,0)" d="M0,100v320" style="stroke: rgb(255, 255, 255); stroke-opacity: 1; stroke-width: 1px;"/></g><g class="y"><path class="ygrid crisp" transform="translate(0,367.23)" d="M80,0h537" style="stroke: rgb(255, 255, 255); stroke-opacity: 1; stroke-width: 1px;"/><path class="ygrid crisp" transform="translate(0,308.43)" d="M80,0h537" style="stroke: rgb(255, 255, 255); stroke-opacity: 1; stroke-width: 1px;"/><path class="ygrid crisp" transform="translate(0,249.63)" d="M80,0h537" style="stroke: rgb(255, 255, 255); stroke-opacity: 1; stroke-width: 1px;"/><path class="ygrid crisp" transform="translate(0,190.82999999999998)" d="M80,0h537" style="stroke: rgb(255, 255, 255); stroke-opacity: 1; stroke-width: 1px;"/><path class="ygrid crisp" transform="translate(0,132.03)" d="M80,0h537" style="stroke: rgb(255, 255, 255); stroke-opacity: 1; stroke-width: 1px;"/></g></g><g class="zerolinelayer"/><path class="xlines-below"/><path class="ylines-below"/><g class="overlines-below"/><g class="xaxislayer-below"/><g class="yaxislayer-below"/><g class="overaxes-below"/><g class="plot" transform="translate(80,100)" clip-path="url('#clip889a03xyplot')"><g class="scatterlayer mlayer"><g class="trace scatter tracedafba0" style="stroke-miterlimit: 2; opacity: 1;"><g class="fills"/><g class="errorbars"/><g class="lines"><path class="js-line" d="M0,82.28L7.03,82.51L9.52,120.48L14.48,120.57L16.32,136.92L17.1,136.9L35.48,137.96L36.62,121.23L36.97,129.62L37.8,129.56L39.46,126.37L40.3,126.27L41.96,129.79L42.79,129.7L44.46,132.71L45.29,132.63L46.95,120.69L47.79,120.62L49.45,132.64L50.28,132.55L51.94,126.68L52.77,123.32L54.44,113.21L55.27,109.51L56.93,94.58L57.77,92.89L59.43,74.17L60.26,72.87L61.93,78.78L62.76,77.73L64.42,63.68L65.25,62.82L66.92,65.47L67.75,64.83L69.41,74.27L70.25,73.83L71.34,51.83L71.91,52.53L72.74,52.34L81.06,51.79L81.9,51.79L94.37,50.91L95.2,50.65L124.32,42.03L125.16,41.83L130.15,40.95L130.98,41.79L145.13,41.47L145.96,41.46L158.44,40.8L159.27,40.69L190.05,36.83L190.89,35.53L223.33,34L224.16,33.87L249.96,31.05L250.79,28.56L279.08,27.81L279.91,95.38L289.09,93.57L289.9,93.44L290.73,93.12L291.56,91.51L294.06,88.51L294.89,87.52L299.05,73.59L299.88,72.39L304.87,67.88L305.71,67.37L309.87,65.43L310.7,65.5L316.52,64.8L317.36,64.77L335.66,63.66L336.49,63.48L342.31,61.32L343.14,60.89L343.98,60.46L344.81,62.78L348.14,61.15L348.97,59.94L353.13,54.01L353.96,53.24L357.29,49.13L358.12,47.98L361.45,39.84L362.28,38.66L367.27,33.5L368.1,32.89L371.43,31.98L372.27,31.8L378.92,31.18L379.75,31.16L392.23,30.17L393.06,29.9L398.06,28.09L398.89,74.81L400.55,73.22L401.38,72.76L410.54,68.8L411.18,71.93L411.37,68.39L412.16,68.25L412.2,69.25L412.99,67.95L413.04,68.94L413.87,68.62L415.53,68.09L416.36,76.43L423.65,73.91L423.68,72.31L423.72,72.03L423.85,73.74L431.75,44.74L432.17,44.87L432.59,41.95L433.42,42.12L433.83,43.2L435.08,37.43L435.5,41.6L436.74,39.66L437.16,39.05L438.41,38.13L438.83,38.96L439.24,38.26L439.66,38.53L440.07,38.42L441.32,38.4L441.74,43.02L446.31,41.69L446.73,36.5L447.56,35.76L447.98,35.39L449.22,33.79L449.64,33.41L452.97,22.43L453.38,16L453.8,16.8L454.22,140.18L454.63,139.22L455.05,142.07L455.88,136.79L456.3,138.99L457.13,136.15L457.55,136.63L457.96,141.25L458.38,146.68L458.79,133.42L459.63,138.09L460.04,157.2L461.29,133.53L461.7,145.44L462.12,148.42L462.54,146.68L462.95,144.02L463.78,134.36L464.2,135.71L464.61,141.84L465.03,146.05L465.45,142.1L465.87,141.74L466.28,151.77L467.11,140.84L467.53,148.68L468.36,127.07L468.78,137.58L469.61,140.49L470.02,138.92L470.86,130.34L471.27,131.67L471.69,129.31L472.1,138.25L472.52,134.05L472.94,138.68L473.35,138.81L473.77,131.49L474.19,131.42L474.6,140.05L475.43,132.48L475.85,138.41L476.68,141.46L477.1,128.79L477.93,142.96L478.35,264.58L479.18,292.55L479.6,293.12L480.01,304L480.43,286.22L480.84,301.52L481.26,291.75L481.67,292.1L482.09,291.07L482.51,294.16L482.92,293.46L483.34,276.02L483.75,283.67L484.17,262.28L485,272.54L485.42,248.89L486.25,241.71L486.66,229.6L487.08,224.98L487.5,228.24L487.91,227.36L489.16,215.22L489.58,217.06L489.99,216.4L490.41,227.08L490.83,226.08L491.24,228.38L491.66,228.68L492.07,224.72L492.49,233.57L492.9,224.28L493.74,227.75L494.15,223.07L494.99,226.33L495.4,223.26L495.82,224.52L496.23,234.01L496.65,220.81L497.07,231.91L498.31,220.15L498.73,220.86L499.98,212.72L500.39,220.76L501.23,220.72L501.64,223.7L502.06,223.67L502.47,219.37L502.89,223.08L503.3,218.62L503.72,226.76L504.14,225.2L504.55,224.19L504.97,219.51L505.39,225.16L506.63,225.11L507.05,216.49L507.47,225.05L507.88,220.43L508.3,220.57L508.71,218.19L509.13,220.92L509.55,219.84L509.96,227.36L510.38,216.65L510.79,220.1L511.21,220.01L512.04,220.98L512.46,218.78L513.29,223.64L513.7,218.66L514.12,205.85L514.54,215.25L514.95,220.32L515.37,206.18L515.78,206.81L516.2,214.16L516.62,214.11L517.03,206.99L517.87,212.47L518.28,202.23L518.7,199.24L519.12,208.71L519.53,224.84L519.94,215.2L520.36,214.49L520.78,205.74L521.19,219.6L522.02,195.82L522.44,209.77L522.86,208.24L523.27,203.32L523.69,202.05L524.1,205.17L524.52,200.81L524.94,208.16L525.35,206.35L525.77,209.96L526.18,207.44L526.6,196.45L527.01,195.36L527.43,196.45L528.27,209.39L528.68,202.33L529.1,210.92L529.51,197.09L529.93,197.31L530.34,191.05L530.76,191.24L531.17,196.07L531.59,200.65L532.01,194.37L533.26,210.5L533.67,204.27L534.5,191.94L534.92,193.62L535.34,197L535.75,205.03L536.17,197.14L536.58,198.57L537,192.99" style="vector-effect: non-scaling-stroke; fill: none; stroke: rgb(99, 110, 250); stroke-opacity: 1; stroke-width: 2px; opacity: 1;"/></g><g class="points"/><g class="text"/></g></g></g><g class="overplot"/><path class="xlines-above crisp" d="M0,0" style="fill: none;"/><path class="ylines-above crisp" d="M0,0" style="fill: none;"/><g class="overlines-above"/><g class="xaxislayer-above"><g class="xtick"><text text-anchor="middle" x="0" y="433" transform="translate(91.12,0)" style="font-family: 'Open Sans', verdana, arial, sans-serif; font-size: 12px; fill: rgb(42, 63, 95); fill-opacity: 1; white-space: pre;"><tspan class="line" dy="0em" x="0" y="433">Jun 4</tspan><tspan class="line" dy="1.3em" x="0" y="433">2021</tspan></text></g><g class="xtick"><text text-anchor="middle" x="0" y="433" transform="translate(210.93,0)" style="font-family: 'Open Sans', verdana, arial, sans-serif; font-size: 12px; fill: rgb(42, 63, 95); fill-opacity: 1; white-space: pre;">Jun 6</text></g><g class="xtick"><text text-anchor="middle" x="0" y="433" transform="translate(330.74,0)" style="font-family: 'Open Sans', verdana, arial, sans-serif; font-size: 12px; fill: rgb(42, 63, 95); fill-opacity: 1; white-space: pre;">Jun 8</text></g><g class="xtick"><text text-anchor="middle" x="0" y="433" transform="translate(450.55,0)" style="font-family: 'Open Sans', verdana, arial, sans-serif; font-size: 12px; fill: rgb(42, 63, 95); fill-opacity: 1; white-space: pre;">Jun 10</text></g><g class="xtick"><text text-anchor="middle" x="0" y="433" transform="translate(570.36,0)" style="font-family: 'Open Sans', verdana, arial, sans-serif; font-size: 12px; fill: rgb(42, 63, 95); fill-opacity: 1; white-space: pre;">Jun 12</text></g></g><g class="yaxislayer-above"><g class="ytick"><text text-anchor="end" x="79" y="4.199999999999999" transform="translate(0,367.23)" style="font-family: 'Open Sans', verdana, arial, sans-serif; font-size: 12px; fill: rgb(42, 63, 95); fill-opacity: 1; white-space: pre;">0.8</text></g><g class="ytick"><text text-anchor="end" x="79" y="4.199999999999999" transform="translate(0,308.43)" style="font-family: 'Open Sans', verdana, arial, sans-serif; font-size: 12px; fill: rgb(42, 63, 95); fill-opacity: 1; white-space: pre;">0.82</text></g><g class="ytick"><text text-anchor="end" x="79" y="4.199999999999999" transform="translate(0,249.63)" style="font-family: 'Open Sans', verdana, arial, sans-serif; font-size: 12px; fill: rgb(42, 63, 95); fill-opacity: 1; white-space: pre;">0.84</text></g><g class="ytick"><text text-anchor="end" x="79" y="4.199999999999999" transform="translate(0,190.82999999999998)" style="font-family: 'Open Sans', verdana, arial, sans-serif; font-size: 12px; fill: rgb(42, 63, 95); fill-opacity: 1; white-space: pre;">0.86</text></g><g class="ytick"><text text-anchor="end" x="79" y="4.199999999999999" transform="translate(0,132.03)" style="font-family: 'Open Sans', verdana, arial, sans-serif; font-size: 12px; fill: rgb(42, 63, 95); fill-opacity: 1; white-space: pre;">0.88</text></g></g><g class="overaxes-above"/></g></g><g class="polarlayer"/><g class="ternarylayer"/><g class="geolayer"/><g class="funnelarealayer"/><g class="pielayer"/><g class="treemaplayer"/><g class="sunburstlayer"/><g class="glimages"/><defs id="topdefs-889a03"><g class="clips"/><clipPath id="legend889a03"><rect width="60" height="45" x="0" y="0"/></clipPath></defs><g class="layer-above"><g class="imagelayer"/><g class="shapelayer"/></g><g class="infolayer"><g class="legend" pointer-events="all" transform="translate(627.74,100)"><rect class="bg" shape-rendering="crispEdges" width="60" height="45" x="0" y="0" style="stroke: rgb(68, 68, 68); stroke-opacity: 1; fill: rgb(255, 255, 255); fill-opacity: 1; stroke-width: 0px;"/><g class="scrollbox" transform="" clip-path="url('#legend889a03')"><text class="legendtitletext" text-anchor="start" x="2" y="15.600000000000001" style="font-family: 'Open Sans', verdana, arial, sans-serif; font-size: 12px; fill: rgb(42, 63, 95); fill-opacity: 1; white-space: pre;">All</text><g class="groups" transform=""><g class="traces" transform="translate(0,30.1)" style="opacity: 1;"><text class="legendtext" text-anchor="start" x="40" y="4.680000000000001" style="font-family: 'Open Sans', verdana, arial, sans-serif; font-size: 12px; fill: rgb(42, 63, 95); fill-opacity: 1; white-space: pre;">All</text><g class="layers" style="opacity: 1;"><g class="legendfill"/><g class="legendlines"><path class="js-line" d="M5,0h30" style="fill: none; stroke: rgb(99, 110, 250); stroke-opacity: 1; stroke-width: 2px;"/></g><g class="legendsymbols"><g class="legendpoints"/></g></g><rect class="legendtoggle" x="0" y="-9.5" width="54.890625" height="19" style="fill: rgb(0, 0, 0); fill-opacity: 0;"/></g></g></g><rect class="scrollbar" rx="20" ry="3" width="0" height="0" x="0" y="0" style="fill: rgb(128, 139, 164); fill-opacity: 1;"/></g><g class="g-gtitle"><text class="gtitle" x="35" y="50" text-anchor="start" dy="0em" style="font-family: 'Open Sans', verdana, arial, sans-serif; font-size: 17px; fill: rgb(42, 63, 95); opacity: 1; font-weight: normal; white-space: pre;">Singapore Vaccination Centers</text></g><g class="g-xtitle"><text class="xtitle" x="348.5" y="476.409375" text-anchor="middle" style="font-family: 'Open Sans', verdana, arial, sans-serif; font-size: 14px; fill: rgb(42, 63, 95); opacity: 1; font-weight: normal; white-space: pre;">Time</text></g><g class="g-ytitle"><text class="ytitle" transform="rotate(-90,27.481250000000003,260)" x="27.481250000000003" y="260" text-anchor="middle" style="font-family: 'Open Sans', verdana, arial, sans-serif; font-size: 14px; fill: rgb(42, 63, 95); opacity: 1; font-weight: normal; white-space: pre;">Filled/%</text></g></g></svg>