<svg class="main-svg" xmlns="http://www.w3.org/2000/svg" xmlns:xlink="http://www.w3.org/1999/xlink" width="700" height="500" style="" viewBox="0 0 700 500"><rect x="0" y="0" width="700" height="500" style="fill: rgb(255, 255, 255); fill-opacity: 1;"/><defs id="defs-a1c688"><g class="clips"><clipPath id="clipa1c688xyplot" class="plotclip"><rect width="537" height="320"/></clipPath><clipPath class="axesclip" id="clipa1c688x"><rect x="80" y="0" width="537" height="500"/></clipPath><clipPath class="axesclip" id="clipa1c688y"><rect x="0" y="100" width="700" height="320"/></clipPath><clipPath class="axesclip" id="clipa1c688xy"><rect x="80" y="100" width="537" height="320"/></clipPath></g><g class="gradients"/></defs><g class="bglayer"><rect class="bg" x="80" y="100" width="537" height="320" style="fill: rgb(229, 236, 246); fill-opacity: 1; stroke-width: 0;"/></g><g class="layer-below"><g class="imagelayer"/><g class="shapelayer"/></g><g class="cartesianlayer"><g class="subplot xy"><g class="layer-subplot"><g class="shapelayer"/><g class="imagelayer"/></g><g class="gridlayer"><g class="x"><path class="xgrid crisp" transform="translate(91.53,0)" d="M0,100v320" style="stroke: rgb(255, 255, 255); stroke-opacity: 1; stroke-width: 1px;"/><path class="xgrid crisp" transform="translate(215.66,0)" d="M0,100v320" style="stroke: rgb(255, 255, 255); stroke-opacity: 1; stroke-width: 1px;"/><path class="xgrid crisp" transform="translate(339.79,0)" d="M0,100v320" style="stroke: rgb(255, 255, 255); stroke-opacity: 1; stroke-width: 1px;"/><path class="xgrid crisp" transform="translate(463.93,0)" d="M0,100v320" style="stroke: rgb(255, 255, 255); stroke-opacity: 1; stroke-width: 1px;"/><path class="xgrid crisp" transform="translate(588.06,0)" d="M0,100v320" style="stroke: rgb(255, 255, 255); stroke-opacity: 1; stroke-width: 1px;"/></g><g class="y"><path class="ygrid crisp" transform="translate(0,367.23)" d="M80,0h537" style="stroke: rgb(255, 255, 255); stroke-opacity: 1; stroke-width: 1px;"/><path class="ygrid crisp" transform="translate(0,308.43)" d="M80,0h537" style="stroke: rgb(255, 255, 255); stroke-opacity: 1; stroke-width: 1px;"/><path class="ygrid crisp" transform="translate(0,249.63)" d="M80,0h537" style="stroke: rgb(255, 255, 255); stroke-opacity: 1; stroke-width: 1px;"/><path class="ygrid crisp" transform="translate(0,190.82999999999998)" d="M80,0h537" style="stroke: rgb(255, 255, 255); stroke-opacity: 1; stroke-width: 1px;"/><path class="ygrid crisp" transform="translate(0,132.03)" d="M80,0h537" style="stroke: rgb(255, 255, 255); stroke-opacity: 1; stroke-width: 1px;"/></g></g><g class="zerolinelayer"/><path class="xlines-below"/><path class="ylines-below"/><g class="overlines-below"/><g class="xaxislayer-below"/><g class="yaxislayer-below"/><g class="overaxes-below"/><g class="plot" transform="translate(80,100)" clip-path="url('#clipa1c688xyplot')"><g class="scatterlayer mlayer"><g class="trace scatter trace3c01d3" style="stroke-miterlimit: 2; opacity: 1;"><g class="fills"/><g class="errorbars"/><g class="lines"><path class="js-line" d="M0,82.28L7.28,82.51L9.86,120.48L15.01,120.57L16.91,136.92L17.72,136.9L36.76,137.96L37.94,121.23L38.3,129.62L39.17,129.56L40.89,126.37L41.75,126.27L43.47,129.79L44.34,129.7L46.06,132.71L46.92,132.63L48.65,120.69L49.51,120.62L51.23,132.64L52.1,132.55L53.82,126.68L54.68,123.32L56.41,113.21L57.27,109.51L58.99,94.58L59.85,92.89L61.58,74.17L62.44,72.87L64.16,78.78L65.02,77.73L66.75,63.68L67.61,62.82L69.33,65.47L70.2,64.83L71.92,74.27L72.78,73.83L73.92,51.83L74.51,52.53L75.37,52.34L83.99,51.79L84.85,51.79L97.78,50.91L98.64,50.65L128.81,42.03L129.68,41.83L134.85,40.95L135.71,41.79L150.37,41.47L151.23,41.46L164.16,40.8L165.02,40.69L196.92,36.83L197.78,35.53L231.4,34L232.26,33.87L258.99,31.05L259.85,28.56L289.16,27.81L290.02,95.38L299.53,93.57L300.37,93.44L301.23,93.12L302.09,91.51L304.68,88.51L305.54,87.52L308.99,74.89L309.85,73.59L313.3,69.79L314.16,69.11L319.33,66.07L320.19,65.71L324.5,65.01L325.37,64.93L348.64,63.48L349.5,63.27L354.67,61.32L355.53,60.89L356.4,60.46L357.26,62.78L360.71,61.15L361.57,59.94L365.88,54.01L366.74,53.24L370.19,49.13L371.05,47.98L374.5,39.84L375.36,38.66L380.53,33.5L381.4,32.89L384.85,31.98L385.71,31.8L392.6,31.18L393.47,31.16L406.4,30.17L407.26,29.9L412.43,28.09L413.29,74.81L415.02,73.22L415.88,72.76L424.5,69.16L425.36,68.8L426.02,71.93L426.23,68.39L427.05,68.25L427.09,69.25L427.91,67.95L427.95,68.94L428.81,68.62L430.54,68.09L431.4,76.43L438.94,73.91L438.98,72.31L439.02,72.03L439.16,73.74L447.34,44.74L447.77,44.87L448.21,41.95L449.07,42.12L449.5,43.2L450.79,37.43L451.22,41.6L452.52,39.66L452.95,39.05L454.24,38.13L454.67,38.96L455.11,38.26L455.53,38.53L455.97,38.42L457.26,38.4L457.69,43.02L462.43,41.69L462.86,36.5L463.72,35.76L464.15,35.39L465.44,33.79L465.88,33.41L469.33,22.43L469.76,16L470.19,16.8L470.62,140.18L471.05,139.22L471.48,142.07L472.34,136.79L472.77,138.99L473.64,136.15L474.07,136.63L474.5,141.25L474.93,146.68L475.36,133.42L476.22,138.09L476.65,157.2L477.95,133.53L478.38,145.44L478.81,148.42L479.24,146.68L479.67,144.02L480.53,134.36L480.96,135.71L481.82,146.05L482.26,142.1L482.69,141.74L483.12,151.77L483.98,140.84L484.41,148.68L485.27,127.07L485.71,137.58L486.57,140.49L487,138.92L487.86,130.34L488.29,131.67L488.72,129.31L489.15,138.25L489.58,134.05L490.01,138.68L490.45,138.81L490.88,131.49L491.31,131.42L491.74,140.05L492.6,132.48L493.03,138.41L493.89,141.46L494.33,128.79L495.19,142.96L495.62,264.58L496.48,292.55L496.91,293.12L497.34,304L497.78,286.22L498.21,301.52L498.64,291.75L499.07,292.1L499.5,291.07L499.93,294.16L500.36,293.46L500.79,276.02L501.22,283.67L501.65,262.28L502.51,272.54L502.94,248.89L503.81,241.71L504.24,229.6L504.67,224.98L505.1,228.24L505.53,227.36L506.82,215.22L507.26,217.06L507.69,216.4L508.12,227.08L508.55,226.08L508.98,228.38L509.41,228.68L509.84,224.72L510.27,233.57L510.7,224.28L511.57,227.75L512,223.07L512.86,226.33L513.29,223.26L513.72,224.52L514.15,234.01L514.58,220.81L515.02,231.91L516.31,220.15L516.74,220.86L518.03,212.72L518.46,220.76L519.33,220.72L519.76,223.7L520.19,223.67L520.62,219.37L521.05,223.08L521.48,218.62L521.91,226.76L522.34,225.2L522.77,224.19L523.2,219.51L523.64,225.16L524.93,225.11L525.36,216.49L525.79,225.05L526.22,220.43L526.65,220.57L527.08,218.19L527.51,220.92L527.95,219.84L528.37,227.36L528.81,216.65L529.24,220.1L529.67,220.01L530.53,220.98L530.96,218.78L531.82,223.64L532.25,218.66L532.68,205.85L533.12,215.25L533.55,220.32L533.98,206.18L534.41,206.81L534.84,214.16L535.27,214.11L535.7,206.99L536.57,212.47L537,202.23" style="vector-effect: non-scaling-stroke; fill: none; stroke: rgb(99, 110, 250); stroke-opacity: 1; stroke-width: 2px; opacity: 1;"/></g><g class="points"/><g class="text"/></g></g></g><g class="overplot"/><path class="xlines-above crisp" d="M0,0" style="fill: none;"/><path class="ylines-above crisp" d="M0,0" style="fill: none;"/><g class="overlines-above"/><g class="xaxislayer-above"><g class="xtick"><text text-anchor="middle" x="0" y="433" transform="translate(91.53,0)" style="font-family: 'Open Sans', verdana, arial, sans-serif; font-size: 12px; fill: rgb(42, 63, 95); fill-opacity: 1; white-space: pre;"><tspan class="line" dy="0em" x="0" y="433">Jun 4</tspan><tspan class="line" dy="1.3em" x="0" y="433">2021</tspan></text></g><g class="xtick"><text text-anchor="middle" x="0" y="433" transform="translate(215.66,0)" style="font-family: 'Open Sans', verdana, arial, sans-serif; font-size: 12px; fill: rgb(42, 63, 95); fill-opacity: 1; white-space: pre;">Jun 6</text></g><g class="xtick"><text text-anchor="middle" x="0" y="433" transform="translate(339.79,0)" style="font-family: 'Open Sans', verdana, arial, sans-serif; font-size: 12px; fill: rgb(42, 63, 95); fill-opacity: 1; white-space: pre;">Jun 8</text></g><g class="xtick"><text text-anchor="middle" x="0" y="433" transform="translate(463.93,0)" style="font-family: 'Open Sans', verdana, arial, sans-serif; font-size: 12px; fill: rgb(42, 63, 95); fill-opacity: 1; white-space: pre;">Jun 10</text></g><g class="xtick"><text text-anchor="middle" x="0" y="433" transform="translate(588.06,0)" style="font-family: 'Open Sans', verdana, arial, sans-serif; font-size: 12px; fill: rgb(42, 63, 95); fill-opacity: 1; white-space: pre;">Jun 12</text></g></g><g class="yaxislayer-above"><g class="ytick"><text text-anchor="end" x="79" y="4.199999999999999" transform="translate(0,367.23)" style="font-family: 'Open Sans', verdana, arial, sans-serif; font-size: 12px; fill: rgb(42, 63, 95); fill-opacity: 1; white-space: pre;">0.8</text></g><g class="ytick"><text text-anchor="end" x="79" y="4.199999999999999" transform="translate(0,308.43)" style="font-family: 'Open Sans', verdana, arial, sans-serif; font-size: 12px; fill: rgb(42, 63, 95); fill-opacity: 1; white-space: pre;">0.82</text></g><g class="ytick"><text text-anchor="end" x="79" y="4.199999999999999" transform="translate(0,249.63)" style="font-family: 'Open Sans', verdana, arial, sans-serif; font-size: 12px; fill: rgb(42, 63, 95); fill-opacity: 1; white-space: pre;">0.84</text></g><g class="ytick"><text text-anchor="end" x="79" y="4.199999999999999" transform="translate(0,190.82999999999998)" style="font-family: 'Open Sans', verdana, arial, sans-serif; font-size: 12px; fill: rgb(42, 63, 95); fill-opacity: 1; white-space: pre;">0.86</text></g><g class="ytick"><text text-anchor="end" x="79" y="4.199999999999999" transform="translate(0,132.03)" style="font-family: 'Open Sans', verdana, arial, sans-serif; font-size: 12px; fill: rgb(42, 63, 95); fill-opacity: 1; white-space: pre;">0.88</text></g></g><g class="overaxes-above"/></g></g><g class="polarlayer"/><g class="ternarylayer"/><g class="geolayer"/><g class="funnelarealayer"/><g class="pielayer"/><g class="treemaplayer"/><g class="sunburstlayer"/><g class="glimages"/><defs id="topdefs-a1c688"><g class="clips"/><clipPath id="legenda1c688"><rect width="60" height="45" x="0" y="0"/></clipPath></defs><g class="layer-above"><g class="imagelayer"/><g class="shapelayer"/></g><g class="infolayer"><g class="legend" pointer-events="all" transform="translate(627.74,100)"><rect class="bg" shape-rendering="crispEdges" width="60" height="45" x="0" y="0" style="stroke: rgb(68, 68, 68); stroke-opacity: 1; fill: rgb(255, 255, 255); fill-opacity: 1; stroke-width: 0px;"/><g class="scrollbox" transform="" clip-path="url('#legenda1c688')"><text class="legendtitletext" text-anchor="start" x="2" y="15.600000000000001" style="font-family: 'Open Sans', verdana, arial, sans-serif; font-size: 12px; fill: rgb(42, 63, 95); fill-opacity: 1; white-space: pre;">All</text><g class="groups" transform=""><g class="traces" transform="translate(0,30.1)" style="opacity: 1;"><text class="legendtext" text-anchor="start" x="40" y="4.680000000000001" style="font-family: 'Open Sans', verdana, arial, sans-serif; font-size: 12px; fill: rgb(42, 63, 95); fill-opacity: 1; white-space: pre;">All</text><g class="layers" style="opacity: 1;"><g class="legendfill"/><g class="legendlines"><path class="js-line" d="M5,0h30" style="fill: none; stroke: rgb(99, 110, 250); stroke-opacity: 1; stroke-width: 2px;"/></g><g class="legendsymbols"><g class="legendpoints"/></g></g><rect class="legendtoggle" x="0" y="-9.5" width="54.890625" height="19" style="fill: rgb(0, 0, 0); fill-opacity: 0;"/></g></g></g><rect class="scrollbar" rx="20" ry="3" width="0" height="0" x="0" y="0" style="fill: rgb(128, 139, 164); fill-opacity: 1;"/></g><g class="g-gtitle"><text class="gtitle" x="35" y="50" text-anchor="start" dy="0em" style="font-family: 'Open Sans', verdana, arial, sans-serif; font-size: 17px; fill: rgb(42, 63, 95); opacity: 1; font-weight: normal; white-space: pre;">Singapore Vaccination Centers</text></g><g class="g-xtitle"><text class="xtitle" x="348.5" y="476.409375" text-anchor="middle" style="font-family: 'Open Sans', verdana, arial, sans-serif; font-size: 14px; fill: rgb(42, 63, 95); opacity: 1; font-weight: normal; white-space: pre;">Time</text></g><g class="g-ytitle"><text class="ytitle" transform="rotate(-90,27.481250000000003,260)" x="27.481250000000003" y="260" text-anchor="middle" style="font-family: 'Open Sans', verdana, arial, sans-serif; font-size: 14px; fill: rgb(42, 63, 95); opacity: 1; font-weight: normal; white-space: pre;">Filled/%</text></g></g></svg>