<svg class="main-svg" xmlns="http://www.w3.org/2000/svg" xmlns:xlink="http://www.w3.org/1999/xlink" width="700" height="500" style="" viewBox="0 0 700 500"><rect x="0" y="0" width="700" height="500" style="fill: rgb(255, 255, 255); fill-opacity: 1;"/><defs id="defs-4f6de2"><g class="clips"><clipPath id="clip4f6de2xyplot" class="plotclip"><rect width="537" height="320"/></clipPath><clipPath class="axesclip" id="clip4f6de2x"><rect x="80" y="0" width="537" height="500"/></clipPath><clipPath class="axesclip" id="clip4f6de2y"><rect x="0" y="100" width="700" height="320"/></clipPath><clipPath class="axesclip" id="clip4f6de2xy"><rect x="80" y="100" width="537" height="320"/></clipPath></g><g class="gradients"/></defs><g class="bglayer"><rect class="bg" x="80" y="100" width="537" height="320" style="fill: rgb(229, 236, 246); fill-opacity: 1; stroke-width: 0;"/></g><g class="layer-below"><g class="imagelayer"/><g class="shapelayer"/></g><g class="cartesianlayer"><g class="subplot xy"><g class="layer-subplot"><g class="shapelayer"/><g class="imagelayer"/></g><g class="gridlayer"><g class="x"><path class="xgrid crisp" transform="translate(91.19,0)" d="M0,100v320" style="stroke: rgb(255, 255, 255); stroke-opacity: 1; stroke-width: 1px;"/><path class="xgrid crisp" transform="translate(211.65,0)" d="M0,100v320" style="stroke: rgb(255, 255, 255); stroke-opacity: 1; stroke-width: 1px;"/><path class="xgrid crisp" transform="translate(332.11,0)" d="M0,100v320" style="stroke: rgb(255, 255, 255); stroke-opacity: 1; stroke-width: 1px;"/><path class="xgrid crisp" transform="translate(452.57,0)" d="M0,100v320" style="stroke: rgb(255, 255, 255); stroke-opacity: 1; stroke-width: 1px;"/><path class="xgrid crisp" transform="translate(573.03,0)" d="M0,100v320" style="stroke: rgb(255, 255, 255); stroke-opacity: 1; stroke-width: 1px;"/></g><g class="y"><path class="ygrid crisp" transform="translate(0,367.23)" d="M80,0h537" style="stroke: rgb(255, 255, 255); stroke-opacity: 1; stroke-width: 1px;"/><path class="ygrid crisp" transform="translate(0,308.43)" d="M80,0h537" style="stroke: rgb(255, 255, 255); stroke-opacity: 1; stroke-width: 1px;"/><path class="ygrid crisp" transform="translate(0,249.63)" d="M80,0h537" style="stroke: rgb(255, 255, 255); stroke-opacity: 1; stroke-width: 1px;"/><path class="ygrid crisp" transform="translate(0,190.82999999999998)" d="M80,0h537" style="stroke: rgb(255, 255, 255); stroke-opacity: 1; stroke-width: 1px;"/><path class="ygrid crisp" transform="translate(0,132.03)" d="M80,0h537" style="stroke: rgb(255, 255, 255); stroke-opacity: 1; stroke-width: 1px;"/></g></g><g class="zerolinelayer"/><path class="xlines-below"/><path class="ylines-below"/><g class="overlines-below"/><g class="xaxislayer-below"/><g class="yaxislayer-below"/><g class="overaxes-below"/><g class="plot" transform="translate(80,100)" clip-path="url('#clip4f6de2xyplot')"><g class="scatterlayer mlayer"><g class="trace scatter trace9d5314" style="stroke-miterlimit: 2; opacity: 1;"><g class="fills"/><g class="errorbars"/><g class="lines"><path class="js-line" d="M0,82.28L7.06,82.51L9.57,120.48L14.56,120.57L16.41,136.92L17.19,136.9L35.67,137.96L36.82,121.23L37.17,129.62L38.01,129.56L39.68,126.37L40.52,126.27L42.19,129.79L43.03,129.7L44.7,132.71L45.53,132.63L47.21,120.69L48.05,120.62L49.72,132.64L50.55,132.55L52.23,126.68L53.06,123.32L54.74,113.21L55.57,109.51L57.25,94.58L58.08,92.89L59.75,74.17L60.59,72.87L62.26,78.78L63.1,77.73L64.77,63.68L65.61,62.82L67.28,65.47L68.12,64.83L69.79,74.27L70.63,73.83L71.73,51.83L72.3,52.53L73.14,52.34L81.5,51.79L82.34,51.79L94.89,50.91L95.72,50.65L125,42.03L125.84,41.83L130.86,40.95L131.7,41.79L145.92,41.47L146.75,41.46L159.3,40.8L160.14,40.69L191.09,36.83L191.93,35.53L224.55,34L225.39,33.87L251.32,31.05L252.16,28.56L280.6,27.81L281.44,95.38L290.67,93.57L291.48,93.44L292.32,93.12L293.15,91.51L295.66,88.51L296.5,87.52L300.68,73.59L301.51,72.39L306.53,67.88L307.37,67.37L311.56,65.43L312.39,65.5L318.25,64.8L319.09,64.77L337.49,63.66L338.32,63.48L344.18,61.32L345.01,60.89L345.85,60.46L346.69,62.78L350.03,61.15L350.87,59.94L355.89,53.24L356.73,52.44L360.07,47.98L360.91,45.51L364.26,38.66L365.09,37.65L369.27,33.5L370.11,32.89L373.46,31.98L374.29,31.8L380.99,31.18L381.82,31.16L394.37,30.17L395.21,29.9L400.23,28.09L401.06,74.81L402.74,73.22L403.57,72.76L411.94,69.16L412.78,68.8L413.42,71.93L413.61,68.39L414.41,68.25L414.45,69.25L415.25,67.95L415.29,68.94L416.12,68.62L417.8,68.09L418.63,76.43L425.96,73.91L425.99,72.31L426.03,72.03L426.16,73.74L434.11,44.74L434.52,44.87L434.95,41.95L435.78,42.12L436.2,43.2L437.45,37.43L437.87,41.6L439.13,39.66L439.55,39.05L440.8,38.13L441.22,38.96L441.64,38.26L442.06,38.53L442.47,38.42L443.73,38.4L444.15,43.02L448.75,41.69L449.17,36.5L450,35.76L450.42,35.39L451.67,33.79L452.09,33.41L455.44,22.43L455.86,16L456.27,16.8L456.69,140.18L457.11,139.22L457.53,142.07L458.37,136.79L458.79,138.99L459.62,136.15L460.04,136.63L460.46,141.25L460.88,146.68L461.3,133.42L462.13,138.09L462.55,157.2L463.8,133.53L464.22,145.44L464.64,148.42L465.06,146.68L465.48,144.02L466.31,134.36L466.73,135.71L467.15,141.84L467.57,146.05L467.99,142.1L468.41,141.74L468.82,151.77L469.66,140.84L470.08,148.68L470.91,127.07L471.33,137.58L472.17,140.49L472.59,138.92L473.42,130.34L473.84,131.67L474.26,129.31L474.68,138.25L475.1,134.05L475.51,138.68L475.93,138.81L476.35,131.49L476.77,131.42L477.19,140.05L478.02,132.48L478.44,138.41L479.28,141.46L479.7,128.79L480.54,142.96L480.96,264.58L481.79,292.55L482.21,293.12L482.63,304L483.05,286.22L483.46,301.52L483.88,291.75L484.3,292.1L484.72,291.07L485.14,294.16L485.55,293.46L485.97,276.02L486.39,283.67L486.81,262.28L487.65,272.54L488.06,248.89L488.9,241.71L489.32,229.6L489.74,224.98L490.16,228.24L490.57,227.36L491.83,215.22L492.25,217.06L492.66,216.4L493.08,227.08L493.5,226.08L493.92,228.38L494.34,228.68L494.75,224.72L495.17,233.57L495.59,224.28L496.43,227.75L496.85,223.07L497.68,226.33L498.1,223.26L498.52,224.52L498.94,234.01L499.36,220.81L499.78,231.91L501.03,220.15L501.45,220.86L502.71,212.72L503.12,220.76L503.96,220.72L504.38,223.7L504.8,223.67L505.21,219.37L505.63,223.08L506.05,218.62L506.47,226.76L506.89,225.2L507.3,224.19L507.72,219.51L508.14,225.16L509.39,225.11L509.81,216.49L510.23,225.05L510.65,220.43L511.07,220.57L511.49,218.19L511.91,220.92L512.33,219.84L512.74,227.36L513.16,216.65L513.58,220.1L514,220.01L514.83,220.98L515.25,218.78L516.09,223.64L516.5,218.66L516.92,205.85L517.35,215.25L517.76,220.32L518.18,206.18L518.6,206.81L519.01,214.16L519.43,214.11L519.85,206.99L520.69,212.47L521.11,202.23L521.53,199.24L521.95,208.71L522.37,224.84L522.78,215.2L523.2,214.49L523.62,205.74L524.03,219.6L524.87,195.82L525.29,209.77L525.71,208.24L526.12,203.32L526.54,202.05L526.96,205.17L527.38,200.81L527.8,208.16L528.22,206.35L528.64,209.96L529.05,207.44L529.47,196.45L529.89,195.36L530.31,196.45L531.15,209.39L531.56,202.33L531.98,210.92L532.4,197.09L532.82,197.31L533.24,191.05L533.65,191.24L534.07,196.07L534.49,200.65L534.91,194.37L536.16,210.5L536.58,204.27L537,196.13" style="vector-effect: non-scaling-stroke; fill: none; stroke: rgb(99, 110, 250); stroke-opacity: 1; stroke-width: 2px; opacity: 1;"/></g><g class="points"/><g class="text"/></g></g></g><g class="overplot"/><path class="xlines-above crisp" d="M0,0" style="fill: none;"/><path class="ylines-above crisp" d="M0,0" style="fill: none;"/><g class="overlines-above"/><g class="xaxislayer-above"><g class="xtick"><text text-anchor="middle" x="0" y="433" transform="translate(91.19,0)" style="font-family: 'Open Sans', verdana, arial, sans-serif; font-size: 12px; fill: rgb(42, 63, 95); fill-opacity: 1; white-space: pre;"><tspan class="line" dy="0em" x="0" y="433">Jun 4</tspan><tspan class="line" dy="1.3em" x="0" y="433">2021</tspan></text></g><g class="xtick"><text text-anchor="middle" x="0" y="433" transform="translate(211.65,0)" style="font-family: 'Open Sans', verdana, arial, sans-serif; font-size: 12px; fill: rgb(42, 63, 95); fill-opacity: 1; white-space: pre;">Jun 6</text></g><g class="xtick"><text text-anchor="middle" x="0" y="433" transform="translate(332.11,0)" style="font-family: 'Open Sans', verdana, arial, sans-serif; font-size: 12px; fill: rgb(42, 63, 95); fill-opacity: 1; white-space: pre;">Jun 8</text></g><g class="xtick"><text text-anchor="middle" x="0" y="433" transform="translate(452.57,0)" style="font-family: 'Open Sans', verdana, arial, sans-serif; font-size: 12px; fill: rgb(42, 63, 95); fill-opacity: 1; white-space: pre;">Jun 10</text></g><g class="xtick"><text text-anchor="middle" x="0" y="433" transform="translate(573.03,0)" style="font-family: 'Open Sans', verdana, arial, sans-serif; font-size: 12px; fill: rgb(42, 63, 95); fill-opacity: 1; white-space: pre;">Jun 12</text></g></g><g class="yaxislayer-above"><g class="ytick"><text text-anchor="end" x="79" y="4.199999999999999" transform="translate(0,367.23)" style="font-family: 'Open Sans', verdana, arial, sans-serif; font-size: 12px; fill: rgb(42, 63, 95); fill-opacity: 1; white-space: pre;">0.8</text></g><g class="ytick"><text text-anchor="end" x="79" y="4.199999999999999" transform="translate(0,308.43)" style="font-family: 'Open Sans', verdana, arial, sans-serif; font-size: 12px; fill: rgb(42, 63, 95); fill-opacity: 1; white-space: pre;">0.82</text></g><g class="ytick"><text text-anchor="end" x="79" y="4.199999999999999" transform="translate(0,249.63)" style="font-family: 'Open Sans', verdana, arial, sans-serif; font-size: 12px; fill: rgb(42, 63, 95); fill-opacity: 1; white-space: pre;">0.84</text></g><g class="ytick"><text text-anchor="end" x="79" y="4.199999999999999" transform="translate(0,190.82999999999998)" style="font-family: 'Open Sans', verdana, arial, sans-serif; font-size: 12px; fill: rgb(42, 63, 95); fill-opacity: 1; white-space: pre;">0.86</text></g><g class="ytick"><text text-anchor="end" x="79" y="4.199999999999999" transform="translate(0,132.03)" style="font-family: 'Open Sans', verdana, arial, sans-serif; font-size: 12px; fill: rgb(42, 63, 95); fill-opacity: 1; white-space: pre;">0.88</text></g></g><g class="overaxes-above"/></g></g><g class="polarlayer"/><g class="ternarylayer"/><g class="geolayer"/><g class="funnelarealayer"/><g class="pielayer"/><g class="treemaplayer"/><g class="sunburstlayer"/><g class="glimages"/><defs id="topdefs-4f6de2"><g class="clips"/><clipPath id="legend4f6de2"><rect width="60" height="45" x="0" y="0"/></clipPath></defs><g class="layer-above"><g class="imagelayer"/><g class="shapelayer"/></g><g class="infolayer"><g class="legend" pointer-events="all" transform="translate(627.74,100)"><rect class="bg" shape-rendering="crispEdges" width="60" height="45" x="0" y="0" style="stroke: rgb(68, 68, 68); stroke-opacity: 1; fill: rgb(255, 255, 255); fill-opacity: 1; stroke-width: 0px;"/><g class="scrollbox" transform="" clip-path="url('#legend4f6de2')"><text class="legendtitletext" text-anchor="start" x="2" y="15.600000000000001" style="font-family: 'Open Sans', verdana, arial, sans-serif; font-size: 12px; fill: rgb(42, 63, 95); fill-opacity: 1; white-space: pre;">All</text><g class="groups" transform=""><g class="traces" transform="translate(0,30.1)" style="opacity: 1;"><text class="legendtext" text-anchor="start" x="40" y="4.680000000000001" style="font-family: 'Open Sans', verdana, arial, sans-serif; font-size: 12px; fill: rgb(42, 63, 95); fill-opacity: 1; white-space: pre;">All</text><g class="layers" style="opacity: 1;"><g class="legendfill"/><g class="legendlines"><path class="js-line" d="M5,0h30" style="fill: none; stroke: rgb(99, 110, 250); stroke-opacity: 1; stroke-width: 2px;"/></g><g class="legendsymbols"><g class="legendpoints"/></g></g><rect class="legendtoggle" x="0" y="-9.5" width="54.890625" height="19" style="fill: rgb(0, 0, 0); fill-opacity: 0;"/></g></g></g><rect class="scrollbar" rx="20" ry="3" width="0" height="0" x="0" y="0" style="fill: rgb(128, 139, 164); fill-opacity: 1;"/></g><g class="g-gtitle"><text class="gtitle" x="35" y="50" text-anchor="start" dy="0em" style="font-family: 'Open Sans', verdana, arial, sans-serif; font-size: 17px; fill: rgb(42, 63, 95); opacity: 1; font-weight: normal; white-space: pre;">Singapore Vaccination Centers</text></g><g class="g-xtitle"><text class="xtitle" x="348.5" y="476.409375" text-anchor="middle" style="font-family: 'Open Sans', verdana, arial, sans-serif; font-size: 14px; fill: rgb(42, 63, 95); opacity: 1; font-weight: normal; white-space: pre;">Time</text></g><g class="g-ytitle"><text class="ytitle" transform="rotate(-90,27.481250000000003,260)" x="27.481250000000003" y="260" text-anchor="middle" style="font-family: 'Open Sans', verdana, arial, sans-serif; font-size: 14px; fill: rgb(42, 63, 95); opacity: 1; font-weight: normal; white-space: pre;">Filled/%</text></g></g></svg>