<svg class="main-svg" xmlns="http://www.w3.org/2000/svg" xmlns:xlink="http://www.w3.org/1999/xlink" width="700" height="500" style="" viewBox="0 0 700 500"><rect x="0" y="0" width="700" height="500" style="fill: rgb(255, 255, 255); fill-opacity: 1;"/><defs id="defs-9f5177"><g class="clips"><clipPath id="clip9f5177xyplot" class="plotclip"><rect width="537" height="320"/></clipPath><clipPath class="axesclip" id="clip9f5177x"><rect x="80" y="0" width="537" height="500"/></clipPath><clipPath class="axesclip" id="clip9f5177y"><rect x="0" y="100" width="700" height="320"/></clipPath><clipPath class="axesclip" id="clip9f5177xy"><rect x="80" y="100" width="537" height="320"/></clipPath></g><g class="gradients"/></defs><g class="bglayer"><rect class="bg" x="80" y="100" width="537" height="320" style="fill: rgb(229, 236, 246); fill-opacity: 1; stroke-width: 0;"/></g><g class="layer-below"><g class="imagelayer"/><g class="shapelayer"/></g><g class="cartesianlayer"><g class="subplot xy"><g class="layer-subplot"><g class="shapelayer"/><g class="imagelayer"/></g><g class="gridlayer"><g class="x"><path class="xgrid crisp" transform="translate(91.47,0)" d="M0,100v320" style="stroke: rgb(255, 255, 255); stroke-opacity: 1; stroke-width: 1px;"/><path class="xgrid crisp" transform="translate(215.01,0)" d="M0,100v320" style="stroke: rgb(255, 255, 255); stroke-opacity: 1; stroke-width: 1px;"/><path class="xgrid crisp" transform="translate(338.55,0)" d="M0,100v320" style="stroke: rgb(255, 255, 255); stroke-opacity: 1; stroke-width: 1px;"/><path class="xgrid crisp" transform="translate(462.09,0)" d="M0,100v320" style="stroke: rgb(255, 255, 255); stroke-opacity: 1; stroke-width: 1px;"/><path class="xgrid crisp" transform="translate(585.63,0)" d="M0,100v320" style="stroke: rgb(255, 255, 255); stroke-opacity: 1; stroke-width: 1px;"/></g><g class="y"><path class="ygrid crisp" transform="translate(0,367.23)" d="M80,0h537" style="stroke: rgb(255, 255, 255); stroke-opacity: 1; stroke-width: 1px;"/><path class="ygrid crisp" transform="translate(0,308.43)" d="M80,0h537" style="stroke: rgb(255, 255, 255); stroke-opacity: 1; stroke-width: 1px;"/><path class="ygrid crisp" transform="translate(0,249.63)" d="M80,0h537" style="stroke: rgb(255, 255, 255); stroke-opacity: 1; stroke-width: 1px;"/><path class="ygrid crisp" transform="translate(0,190.82999999999998)" d="M80,0h537" style="stroke: rgb(255, 255, 255); stroke-opacity: 1; stroke-width: 1px;"/><path class="ygrid crisp" transform="translate(0,132.03)" d="M80,0h537" style="stroke: rgb(255, 255, 255); stroke-opacity: 1; stroke-width: 1px;"/></g></g><g class="zerolinelayer"/><path class="xlines-below"/><path class="ylines-below"/><g class="overlines-below"/><g class="xaxislayer-below"/><g class="yaxislayer-below"/><g class="overaxes-below"/><g class="plot" transform="translate(80,100)" clip-path="url('#clip9f5177xyplot')"><g class="scatterlayer mlayer"><g class="trace scatter trace74f963" style="stroke-miterlimit: 2; opacity: 1;"><g class="fills"/><g class="errorbars"/><g class="lines"><path class="js-line" d="M0,82.28L7.25,82.51L9.82,120.48L14.93,120.57L16.83,136.92L17.63,136.9L36.58,137.96L37.76,121.23L38.12,129.62L38.98,129.56L40.69,126.37L41.55,126.27L43.27,129.79L44.12,129.7L45.84,132.71L46.7,132.63L48.41,120.69L49.27,120.62L50.99,132.64L51.85,132.55L53.56,126.68L54.42,123.32L56.14,113.21L56.99,109.51L58.71,94.58L59.57,92.89L61.28,74.17L62.14,72.87L63.86,78.78L64.71,77.73L66.43,63.68L67.29,62.82L69,65.47L69.86,64.83L71.58,74.27L72.43,73.83L73.57,51.83L74.15,52.53L75.01,52.34L83.59,51.79L84.45,51.79L97.31,50.91L98.17,50.65L128.2,42.03L129.06,41.83L134.21,40.95L135.06,41.79L150.5,41.46L151.36,41.46L165.09,40.58L165.95,40.48L192.54,37.17L193.4,37.08L195.97,36.83L196.83,35.53L230.29,34L231.15,33.87L257.75,31.05L258.61,28.56L287.77,27.81L288.63,95.38L298.1,93.57L298.93,93.44L299.79,93.12L300.64,91.51L303.22,88.51L304.08,87.52L307.51,74.89L308.37,73.59L311.8,69.79L312.66,69.11L317.8,66.07L318.66,65.71L322.95,65.01L323.81,64.93L346.97,63.48L347.83,63.27L352.97,61.32L353.83,60.89L354.69,60.46L355.55,62.78L358.98,61.15L359.84,59.94L364.13,54.01L364.99,53.24L368.42,49.13L369.28,47.98L372.71,39.84L373.57,38.66L378.71,33.5L379.57,32.89L383,31.98L383.86,31.8L390.72,31.18L391.58,31.16L404.45,30.17L405.31,29.9L410.46,28.09L411.31,74.81L413.03,73.22L413.89,72.76L422.47,69.16L423.33,68.8L423.98,71.93L424.19,68.39L425,68.25L425.04,69.25L425.86,67.95L425.9,68.94L426.76,68.62L428.48,68.09L429.33,76.43L436.84,73.91L436.88,72.31L436.92,72.03L437.05,73.74L445.2,44.74L445.63,44.87L446.06,41.95L446.92,42.12L447.35,43.2L448.63,37.43L449.06,41.6L450.35,39.66L450.78,39.05L452.07,38.13L452.5,38.96L452.93,38.26L453.35,38.53L453.78,38.42L455.07,38.4L455.5,43.02L460.22,41.69L460.65,36.5L461.5,35.76L461.93,35.39L463.22,33.79L463.65,33.41L467.08,22.43L467.51,16L467.94,16.8L468.37,140.18L468.79,139.22L469.22,142.07L470.08,136.79L470.51,138.99L471.37,136.15L471.8,136.63L472.23,141.25L472.65,146.68L473.09,133.42L473.94,138.09L474.37,157.2L475.66,133.53L476.09,145.44L476.52,148.42L476.94,146.68L477.37,144.02L478.23,134.36L478.66,135.71L479.52,146.05L479.95,142.1L480.38,141.74L480.8,151.77L481.66,140.84L482.09,148.68L482.95,127.07L483.38,137.58L484.24,140.49L484.67,138.92L485.52,130.34L485.95,131.67L486.38,129.31L486.81,138.25L487.24,134.05L487.67,138.68L488.1,138.81L488.53,131.49L488.96,131.42L489.38,140.05L490.24,132.48L490.67,138.41L491.53,141.46L491.96,128.79L492.82,142.96L493.25,264.58L494.11,292.55L494.53,293.12L494.96,304L495.4,286.22L495.82,301.52L496.25,291.75L496.68,292.1L497.11,291.07L497.54,294.16L497.96,293.46L498.39,276.02L498.82,283.67L499.25,262.28L500.11,272.54L500.54,248.89L501.39,241.71L501.82,229.6L502.25,224.98L502.68,228.24L503.11,227.36L504.4,215.22L504.83,217.06L505.26,216.4L505.68,227.08L506.11,226.08L506.54,228.38L506.97,228.68L507.4,224.72L507.83,233.57L508.26,224.28L509.12,227.75L509.55,223.07L510.4,226.33L510.83,223.26L511.26,224.52L511.69,234.01L512.12,220.81L512.55,231.91L513.84,220.15L514.26,220.86L515.55,212.72L515.98,220.76L516.84,220.72L517.27,223.7L517.7,223.67L518.12,219.37L518.56,223.08L518.98,218.62L519.41,226.76L519.84,225.2L520.27,224.19L520.7,219.51L521.13,225.16L522.41,225.11L522.84,216.49L523.27,225.05L523.7,220.43L524.13,220.57L524.56,218.19L524.99,220.92L525.42,219.84L525.85,227.36L526.27,216.65L526.7,220.1L527.13,220.01L527.99,220.98L528.42,218.78L529.28,223.64L529.7,218.66L530.13,205.85L530.57,215.25L530.99,220.32L531.42,206.18L531.85,206.81L532.28,214.16L532.71,214.11L533.14,206.99L534,212.47L534.43,202.23L534.86,199.24L535.29,208.71L535.72,224.84L536.14,215.2L536.57,214.49L537,205.74" style="vector-effect: non-scaling-stroke; fill: none; stroke: rgb(99, 110, 250); stroke-opacity: 1; stroke-width: 2px; opacity: 1;"/></g><g class="points"/><g class="text"/></g></g></g><g class="overplot"/><path class="xlines-above crisp" d="M0,0" style="fill: none;"/><path class="ylines-above crisp" d="M0,0" style="fill: none;"/><g class="overlines-above"/><g class="xaxislayer-above"><g class="xtick"><text text-anchor="middle" x="0" y="433" transform="translate(91.47,0)" style="font-family: 'Open Sans', verdana, arial, sans-serif; font-size: 12px; fill: rgb(42, 63, 95); fill-opacity: 1; white-space: pre;"><tspan class="line" dy="0em" x="0" y="433">Jun 4</tspan><tspan class="line" dy="1.3em" x="0" y="433">2021</tspan></text></g><g class="xtick"><text text-anchor="middle" x="0" y="433" transform="translate(215.01,0)" style="font-family: 'Open Sans', verdana, arial, sans-serif; font-size: 12px; fill: rgb(42, 63, 95); fill-opacity: 1; white-space: pre;">Jun 6</text></g><g class="xtick"><text text-anchor="middle" x="0" y="433" transform="translate(338.55,0)" style="font-family: 'Open Sans', verdana, arial, sans-serif; font-size: 12px; fill: rgb(42, 63, 95); fill-opacity: 1; white-space: pre;">Jun 8</text></g><g class="xtick"><text text-anchor="middle" x="0" y="433" transform="translate(462.09,0)" style="font-family: 'Open Sans', verdana, arial, sans-serif; font-size: 12px; fill: rgb(42, 63, 95); fill-opacity: 1; white-space: pre;">Jun 10</text></g><g class="xtick"><text text-anchor="middle" x="0" y="433" transform="translate(585.63,0)" style="font-family: 'Open Sans', verdana, arial, sans-serif; font-size: 12px; fill: rgb(42, 63, 95); fill-opacity: 1; white-space: pre;">Jun 12</text></g></g><g class="yaxislayer-above"><g class="ytick"><text text-anchor="end" x="79" y="4.199999999999999" transform="translate(0,367.23)" style="font-family: 'Open Sans', verdana, arial, sans-serif; font-size: 12px; fill: rgb(42, 63, 95); fill-opacity: 1; white-space: pre;">0.8</text></g><g class="ytick"><text text-anchor="end" x="79" y="4.199999999999999" transform="translate(0,308.43)" style="font-family: 'Open Sans', verdana, arial, sans-serif; font-size: 12px; fill: rgb(42, 63, 95); fill-opacity: 1; white-space: pre;">0.82</text></g><g class="ytick"><text text-anchor="end" x="79" y="4.199999999999999" transform="translate(0,249.63)" style="font-family: 'Open Sans', verdana, arial, sans-serif; font-size: 12px; fill: rgb(42, 63, 95); fill-opacity: 1; white-space: pre;">0.84</text></g><g class="ytick"><text text-anchor="end" x="79" y="4.199999999999999" transform="translate(0,190.82999999999998)" style="font-family: 'Open Sans', verdana, arial, sans-serif; font-size: 12px; fill: rgb(42, 63, 95); fill-opacity: 1; white-space: pre;">0.86</text></g><g class="ytick"><text text-anchor="end" x="79" y="4.199999999999999" transform="translate(0,132.03)" style="font-family: 'Open Sans', verdana, arial, sans-serif; font-size: 12px; fill: rgb(42, 63, 95); fill-opacity: 1; white-space: pre;">0.88</text></g></g><g class="overaxes-above"/></g></g><g class="polarlayer"/><g class="ternarylayer"/><g class="geolayer"/><g class="funnelarealayer"/><g class="pielayer"/><g class="treemaplayer"/><g class="sunburstlayer"/><g class="glimages"/><defs id="topdefs-9f5177"><g class="clips"/><clipPath id="legend9f5177"><rect width="60" height="45" x="0" y="0"/></clipPath></defs><g class="layer-above"><g class="imagelayer"/><g class="shapelayer"/></g><g class="infolayer"><g class="legend" pointer-events="all" transform="translate(627.74,100)"><rect class="bg" shape-rendering="crispEdges" width="60" height="45" x="0" y="0" style="stroke: rgb(68, 68, 68); stroke-opacity: 1; fill: rgb(255, 255, 255); fill-opacity: 1; stroke-width: 0px;"/><g class="scrollbox" transform="" clip-path="url('#legend9f5177')"><text class="legendtitletext" text-anchor="start" x="2" y="15.600000000000001" style="font-family: 'Open Sans', verdana, arial, sans-serif; font-size: 12px; fill: rgb(42, 63, 95); fill-opacity: 1; white-space: pre;">All</text><g class="groups" transform=""><g class="traces" transform="translate(0,30.1)" style="opacity: 1;"><text class="legendtext" text-anchor="start" x="40" y="4.680000000000001" style="font-family: 'Open Sans', verdana, arial, sans-serif; font-size: 12px; fill: rgb(42, 63, 95); fill-opacity: 1; white-space: pre;">All</text><g class="layers" style="opacity: 1;"><g class="legendfill"/><g class="legendlines"><path class="js-line" d="M5,0h30" style="fill: none; stroke: rgb(99, 110, 250); stroke-opacity: 1; stroke-width: 2px;"/></g><g class="legendsymbols"><g class="legendpoints"/></g></g><rect class="legendtoggle" x="0" y="-9.5" width="54.890625" height="19" style="fill: rgb(0, 0, 0); fill-opacity: 0;"/></g></g></g><rect class="scrollbar" rx="20" ry="3" width="0" height="0" x="0" y="0" style="fill: rgb(128, 139, 164); fill-opacity: 1;"/></g><g class="g-gtitle"><text class="gtitle" x="35" y="50" text-anchor="start" dy="0em" style="font-family: 'Open Sans', verdana, arial, sans-serif; font-size: 17px; fill: rgb(42, 63, 95); opacity: 1; font-weight: normal; white-space: pre;">Singapore Vaccination Centers</text></g><g class="g-xtitle"><text class="xtitle" x="348.5" y="476.409375" text-anchor="middle" style="font-family: 'Open Sans', verdana, arial, sans-serif; font-size: 14px; fill: rgb(42, 63, 95); opacity: 1; font-weight: normal; white-space: pre;">Time</text></g><g class="g-ytitle"><text class="ytitle" transform="rotate(-90,27.481250000000003,260)" x="27.481250000000003" y="260" text-anchor="middle" style="font-family: 'Open Sans', verdana, arial, sans-serif; font-size: 14px; fill: rgb(42, 63, 95); opacity: 1; font-weight: normal; white-space: pre;">Filled/%</text></g></g></svg>