<svg class="main-svg" xmlns="http://www.w3.org/2000/svg" xmlns:xlink="http://www.w3.org/1999/xlink" width="700" height="500" style="" viewBox="0 0 700 500"><rect x="0" y="0" width="700" height="500" style="fill: rgb(255, 255, 255); fill-opacity: 1;"/><defs id="defs-eaa25b"><g class="clips"><clipPath id="clipeaa25bxyplot" class="plotclip"><rect width="537" height="320"/></clipPath><clipPath class="axesclip" id="clipeaa25bx"><rect x="80" y="0" width="537" height="500"/></clipPath><clipPath class="axesclip" id="clipeaa25by"><rect x="0" y="100" width="700" height="320"/></clipPath><clipPath class="axesclip" id="clipeaa25bxy"><rect x="80" y="100" width="537" height="320"/></clipPath></g><g class="gradients"/></defs><g class="bglayer"><rect class="bg" x="80" y="100" width="537" height="320" style="fill: rgb(229, 236, 246); fill-opacity: 1; stroke-width: 0;"/></g><g class="layer-below"><g class="imagelayer"/><g class="shapelayer"/></g><g class="cartesianlayer"><g class="subplot xy"><g class="layer-subplot"><g class="shapelayer"/><g class="imagelayer"/></g><g class="gridlayer"><g class="x"><path class="xgrid crisp" transform="translate(91.12,0)" d="M0,100v320" style="stroke: rgb(255, 255, 255); stroke-opacity: 1; stroke-width: 1px;"/><path class="xgrid crisp" transform="translate(210.83,0)" d="M0,100v320" style="stroke: rgb(255, 255, 255); stroke-opacity: 1; stroke-width: 1px;"/><path class="xgrid crisp" transform="translate(330.55,0)" d="M0,100v320" style="stroke: rgb(255, 255, 255); stroke-opacity: 1; stroke-width: 1px;"/><path class="xgrid crisp" transform="translate(450.26,0)" d="M0,100v320" style="stroke: rgb(255, 255, 255); stroke-opacity: 1; stroke-width: 1px;"/><path class="xgrid crisp" transform="translate(569.98,0)" d="M0,100v320" style="stroke: rgb(255, 255, 255); stroke-opacity: 1; stroke-width: 1px;"/></g><g class="y"><path class="ygrid crisp" transform="translate(0,367.23)" d="M80,0h537" style="stroke: rgb(255, 255, 255); stroke-opacity: 1; stroke-width: 1px;"/><path class="ygrid crisp" transform="translate(0,308.43)" d="M80,0h537" style="stroke: rgb(255, 255, 255); stroke-opacity: 1; stroke-width: 1px;"/><path class="ygrid crisp" transform="translate(0,249.63)" d="M80,0h537" style="stroke: rgb(255, 255, 255); stroke-opacity: 1; stroke-width: 1px;"/><path class="ygrid crisp" transform="translate(0,190.82999999999998)" d="M80,0h537" style="stroke: rgb(255, 255, 255); stroke-opacity: 1; stroke-width: 1px;"/><path class="ygrid crisp" transform="translate(0,132.03)" d="M80,0h537" style="stroke: rgb(255, 255, 255); stroke-opacity: 1; stroke-width: 1px;"/></g></g><g class="zerolinelayer"/><path class="xlines-below"/><path class="ylines-below"/><g class="overlines-below"/><g class="xaxislayer-below"/><g class="yaxislayer-below"/><g class="overaxes-below"/><g class="plot" transform="translate(80,100)" clip-path="url('#clipeaa25bxyplot')"><g class="scatterlayer mlayer"><g class="trace scatter tracecbb366" style="stroke-miterlimit: 2; opacity: 1;"><g class="fills"/><g class="errorbars"/><g class="lines"><path class="js-line" d="M0,82.28L7.02,82.51L9.51,120.48L14.47,120.57L16.31,136.92L17.09,136.9L35.45,137.96L36.59,121.23L36.94,129.62L37.77,129.56L39.43,126.37L40.27,126.27L41.93,129.79L42.76,129.7L44.42,132.71L45.25,132.63L46.92,120.69L47.75,120.62L49.41,132.64L50.24,132.55L51.9,126.68L52.73,123.32L54.4,113.21L55.23,109.51L56.89,94.58L57.72,92.89L59.38,74.17L60.22,72.87L61.88,78.78L62.71,77.73L64.37,63.68L65.2,62.82L66.87,65.47L67.7,64.83L69.36,74.27L70.19,73.83L71.29,51.83L71.85,52.53L72.69,52.34L81,51.79L81.83,51.79L94.3,50.91L95.13,50.65L124.23,42.03L125.06,41.83L130.05,40.95L130.88,41.79L145.01,41.47L145.85,41.46L158.31,40.8L159.15,40.69L189.91,36.83L190.74,35.53L223.16,34L223.99,33.87L249.77,31.05L250.6,28.56L278.86,27.81L279.7,95.38L288.87,93.57L289.67,93.44L290.51,93.12L291.34,91.51L293.83,88.51L294.66,87.52L298.82,73.59L299.65,72.39L304.64,67.88L305.47,67.37L309.63,65.43L310.46,65.5L316.28,64.8L317.11,64.77L335.4,63.66L336.23,63.48L342.05,61.32L342.88,60.89L343.71,60.46L344.54,62.78L347.87,61.15L348.7,59.94L352.85,54.01L353.69,53.24L357.01,49.13L357.84,47.98L361.17,39.84L362,38.66L366.99,33.5L367.82,32.89L371.15,31.98L371.98,31.8L378.63,31.18L379.46,31.16L391.93,30.17L392.76,29.9L397.75,28.09L398.58,74.81L400.24,73.22L401.07,72.76L410.22,68.8L410.86,71.93L411.05,68.39L411.84,68.25L411.88,69.25L412.67,67.95L412.72,68.94L413.54,68.62L415.21,68.09L416.04,76.43L423.32,73.91L423.35,72.31L423.39,72.03L423.52,73.74L431.42,44.74L431.83,44.87L432.25,41.95L433.08,42.12L433.5,43.2L434.74,37.43L435.16,41.6L436.41,39.66L436.82,39.05L438.07,38.13L438.49,38.96L438.9,38.26L439.32,38.53L439.73,38.42L440.98,38.4L441.4,43.02L445.97,41.69L446.38,36.5L447.21,35.76L447.63,35.39L448.88,33.79L449.29,33.41L452.62,22.43L453.03,16L453.45,16.8L453.87,140.18L454.28,139.22L454.7,142.07L455.53,136.79L455.94,138.99L456.78,136.15L457.19,136.63L457.61,141.25L458.02,146.68L458.44,133.42L459.27,138.09L459.68,157.2L460.93,133.53L461.35,145.44L461.76,148.42L462.18,146.68L462.59,144.02L463.42,134.36L463.84,135.71L464.25,141.84L464.67,146.05L465.09,142.1L465.5,141.74L465.92,151.77L466.75,140.84L467.16,148.68L468,127.07L468.41,137.58L469.25,140.49L469.66,138.92L470.49,130.34L470.91,131.67L471.32,129.31L471.74,138.25L472.16,134.05L472.57,138.68L472.99,138.81L473.4,131.49L473.82,131.42L474.23,140.05L475.06,132.48L475.48,138.41L476.31,141.46L476.73,128.79L477.56,142.96L477.98,264.58L478.81,292.55L479.22,293.12L479.64,304L480.06,286.22L480.47,301.52L480.88,291.75L481.3,292.1L481.72,291.07L482.13,294.16L482.55,293.46L482.96,276.02L483.38,283.67L483.79,262.28L484.63,272.54L485.04,248.89L485.87,241.71L486.29,229.6L486.7,224.98L487.12,228.24L487.54,227.36L488.78,215.22L489.2,217.06L489.61,216.4L490.03,227.08L490.44,226.08L490.86,228.38L491.28,228.68L491.69,224.72L492.11,233.57L492.52,224.28L493.36,227.75L493.77,223.07L494.6,226.33L495.02,223.26L495.43,224.52L495.85,234.01L496.26,220.81L496.68,231.91L497.93,220.15L498.34,220.86L499.59,212.72L500.01,220.76L500.84,220.72L501.25,223.7L501.67,223.67L502.08,219.37L502.5,223.08L502.91,218.62L503.33,226.76L503.75,225.2L504.16,224.19L504.58,219.51L504.99,225.16L506.24,225.11L506.65,216.49L507.07,225.05L507.49,220.43L507.9,220.57L508.32,218.19L508.73,220.92L509.15,219.84L509.57,227.36L509.98,216.65L510.4,220.1L510.81,220.01L511.64,220.98L512.06,218.78L512.89,223.64L513.3,218.66L513.72,205.85L514.14,215.25L514.55,220.32L514.97,206.18L515.38,206.81L515.8,214.16L516.22,214.11L516.63,206.99L517.47,212.47L517.88,202.23L518.3,199.24L518.72,208.71L519.13,224.84L519.54,215.2L519.96,214.49L520.37,205.74L520.79,219.6L521.62,195.82L522.04,209.77L522.45,208.24L522.87,203.32L523.28,202.05L523.7,205.17L524.11,200.81L524.53,208.16L524.94,206.35L525.36,209.96L525.78,207.44L526.19,196.45L526.61,195.36L527.02,196.45L527.86,209.39L528.27,202.33L528.69,210.92L529.1,197.09L529.52,197.31L529.93,191.05L530.35,191.24L530.76,196.07L531.18,200.65L531.6,194.37L532.84,210.5L533.26,204.27L534.09,191.94L534.51,193.62L534.92,197L535.34,205.03L535.75,197.14L536.17,198.57L536.58,192.99L537,189.88" style="vector-effect: non-scaling-stroke; fill: none; stroke: rgb(99, 110, 250); stroke-opacity: 1; stroke-width: 2px; opacity: 1;"/></g><g class="points"/><g class="text"/></g></g></g><g class="overplot"/><path class="xlines-above crisp" d="M0,0" style="fill: none;"/><path class="ylines-above crisp" d="M0,0" style="fill: none;"/><g class="overlines-above"/><g class="xaxislayer-above"><g class="xtick"><text text-anchor="middle" x="0" y="433" transform="translate(91.12,0)" style="font-family: 'Open Sans', verdana, arial, sans-serif; font-size: 12px; fill: rgb(42, 63, 95); fill-opacity: 1; white-space: pre;"><tspan class="line" dy="0em" x="0" y="433">Jun 4</tspan><tspan class="line" dy="1.3em" x="0" y="433">2021</tspan></text></g><g class="xtick"><text text-anchor="middle" x="0" y="433" transform="translate(210.83,0)" style="font-family: 'Open Sans', verdana, arial, sans-serif; font-size: 12px; fill: rgb(42, 63, 95); fill-opacity: 1; white-space: pre;">Jun 6</text></g><g class="xtick"><text text-anchor="middle" x="0" y="433" transform="translate(330.55,0)" style="font-family: 'Open Sans', verdana, arial, sans-serif; font-size: 12px; fill: rgb(42, 63, 95); fill-opacity: 1; white-space: pre;">Jun 8</text></g><g class="xtick"><text text-anchor="middle" x="0" y="433" transform="translate(450.26,0)" style="font-family: 'Open Sans', verdana, arial, sans-serif; font-size: 12px; fill: rgb(42, 63, 95); fill-opacity: 1; white-space: pre;">Jun 10</text></g><g class="xtick"><text text-anchor="middle" x="0" y="433" transform="translate(569.98,0)" style="font-family: 'Open Sans', verdana, arial, sans-serif; font-size: 12px; fill: rgb(42, 63, 95); fill-opacity: 1; white-space: pre;">Jun 12</text></g></g><g class="yaxislayer-above"><g class="ytick"><text text-anchor="end" x="79" y="4.199999999999999" transform="translate(0,367.23)" style="font-family: 'Open Sans', verdana, arial, sans-serif; font-size: 12px; fill: rgb(42, 63, 95); fill-opacity: 1; white-space: pre;">0.8</text></g><g class="ytick"><text text-anchor="end" x="79" y="4.199999999999999" transform="translate(0,308.43)" style="font-family: 'Open Sans', verdana, arial, sans-serif; font-size: 12px; fill: rgb(42, 63, 95); fill-opacity: 1; white-space: pre;">0.82</text></g><g class="ytick"><text text-anchor="end" x="79" y="4.199999999999999" transform="translate(0,249.63)" style="font-family: 'Open Sans', verdana, arial, sans-serif; font-size: 12px; fill: rgb(42, 63, 95); fill-opacity: 1; white-space: pre;">0.84</text></g><g class="ytick"><text text-anchor="end" x="79" y="4.199999999999999" transform="translate(0,190.82999999999998)" style="font-family: 'Open Sans', verdana, arial, sans-serif; font-size: 12px; fill: rgb(42, 63, 95); fill-opacity: 1; white-space: pre;">0.86</text></g><g class="ytick"><text text-anchor="end" x="79" y="4.199999999999999" transform="translate(0,132.03)" style="font-family: 'Open Sans', verdana, arial, sans-serif; font-size: 12px; fill: rgb(42, 63, 95); fill-opacity: 1; white-space: pre;">0.88</text></g></g><g class="overaxes-above"/></g></g><g class="polarlayer"/><g class="ternarylayer"/><g class="geolayer"/><g class="funnelarealayer"/><g class="pielayer"/><g class="treemaplayer"/><g class="sunburstlayer"/><g class="glimages"/><defs id="topdefs-eaa25b"><g class="clips"/><clipPath id="legendeaa25b"><rect width="60" height="45" x="0" y="0"/></clipPath></defs><g class="layer-above"><g class="imagelayer"/><g class="shapelayer"/></g><g class="infolayer"><g class="legend" pointer-events="all" transform="translate(627.74,100)"><rect class="bg" shape-rendering="crispEdges" width="60" height="45" x="0" y="0" style="stroke: rgb(68, 68, 68); stroke-opacity: 1; fill: rgb(255, 255, 255); fill-opacity: 1; stroke-width: 0px;"/><g class="scrollbox" transform="" clip-path="url('#legendeaa25b')"><text class="legendtitletext" text-anchor="start" x="2" y="15.600000000000001" style="font-family: 'Open Sans', verdana, arial, sans-serif; font-size: 12px; fill: rgb(42, 63, 95); fill-opacity: 1; white-space: pre;">All</text><g class="groups" transform=""><g class="traces" transform="translate(0,30.1)" style="opacity: 1;"><text class="legendtext" text-anchor="start" x="40" y="4.680000000000001" style="font-family: 'Open Sans', verdana, arial, sans-serif; font-size: 12px; fill: rgb(42, 63, 95); fill-opacity: 1; white-space: pre;">All</text><g class="layers" style="opacity: 1;"><g class="legendfill"/><g class="legendlines"><path class="js-line" d="M5,0h30" style="fill: none; stroke: rgb(99, 110, 250); stroke-opacity: 1; stroke-width: 2px;"/></g><g class="legendsymbols"><g class="legendpoints"/></g></g><rect class="legendtoggle" x="0" y="-9.5" width="54.890625" height="19" style="fill: rgb(0, 0, 0); fill-opacity: 0;"/></g></g></g><rect class="scrollbar" rx="20" ry="3" width="0" height="0" x="0" y="0" style="fill: rgb(128, 139, 164); fill-opacity: 1;"/></g><g class="g-gtitle"><text class="gtitle" x="35" y="50" text-anchor="start" dy="0em" style="font-family: 'Open Sans', verdana, arial, sans-serif; font-size: 17px; fill: rgb(42, 63, 95); opacity: 1; font-weight: normal; white-space: pre;">Singapore Vaccination Centers</text></g><g class="g-xtitle"><text class="xtitle" x="348.5" y="476.409375" text-anchor="middle" style="font-family: 'Open Sans', verdana, arial, sans-serif; font-size: 14px; fill: rgb(42, 63, 95); opacity: 1; font-weight: normal; white-space: pre;">Time</text></g><g class="g-ytitle"><text class="ytitle" transform="rotate(-90,27.481250000000003,260)" x="27.481250000000003" y="260" text-anchor="middle" style="font-family: 'Open Sans', verdana, arial, sans-serif; font-size: 14px; fill: rgb(42, 63, 95); opacity: 1; font-weight: normal; white-space: pre;">Filled/%</text></g></g></svg>