<svg class="main-svg" xmlns="http://www.w3.org/2000/svg" xmlns:xlink="http://www.w3.org/1999/xlink" width="700" height="500" style="" viewBox="0 0 700 500"><rect x="0" y="0" width="700" height="500" style="fill: rgb(255, 255, 255); fill-opacity: 1;"/><defs id="defs-d86c3d"><g class="clips"><clipPath id="clipd86c3dxyplot" class="plotclip"><rect width="537" height="320"/></clipPath><clipPath class="axesclip" id="clipd86c3dx"><rect x="80" y="0" width="537" height="500"/></clipPath><clipPath class="axesclip" id="clipd86c3dy"><rect x="0" y="100" width="700" height="320"/></clipPath><clipPath class="axesclip" id="clipd86c3dxy"><rect x="80" y="100" width="537" height="320"/></clipPath></g><g class="gradients"/></defs><g class="bglayer"><rect class="bg" x="80" y="100" width="537" height="320" style="fill: rgb(229, 236, 246); fill-opacity: 1; stroke-width: 0;"/></g><g class="layer-below"><g class="imagelayer"/><g class="shapelayer"/></g><g class="cartesianlayer"><g class="subplot xy"><g class="layer-subplot"><g class="shapelayer"/><g class="imagelayer"/></g><g class="gridlayer"><g class="x"><path class="xgrid crisp" transform="translate(90.45,0)" d="M0,100v320" style="stroke: rgb(255, 255, 255); stroke-opacity: 1; stroke-width: 1px;"/><path class="xgrid crisp" transform="translate(203.01999999999998,0)" d="M0,100v320" style="stroke: rgb(255, 255, 255); stroke-opacity: 1; stroke-width: 1px;"/><path class="xgrid crisp" transform="translate(315.59000000000003,0)" d="M0,100v320" style="stroke: rgb(255, 255, 255); stroke-opacity: 1; stroke-width: 1px;"/><path class="xgrid crisp" transform="translate(428.16,0)" d="M0,100v320" style="stroke: rgb(255, 255, 255); stroke-opacity: 1; stroke-width: 1px;"/><path class="xgrid crisp" transform="translate(540.73,0)" d="M0,100v320" style="stroke: rgb(255, 255, 255); stroke-opacity: 1; stroke-width: 1px;"/></g><g class="y"><path class="ygrid crisp" transform="translate(0,367.23)" d="M80,0h537" style="stroke: rgb(255, 255, 255); stroke-opacity: 1; stroke-width: 1px;"/><path class="ygrid crisp" transform="translate(0,308.43)" d="M80,0h537" style="stroke: rgb(255, 255, 255); stroke-opacity: 1; stroke-width: 1px;"/><path class="ygrid crisp" transform="translate(0,249.63)" d="M80,0h537" style="stroke: rgb(255, 255, 255); stroke-opacity: 1; stroke-width: 1px;"/><path class="ygrid crisp" transform="translate(0,190.82999999999998)" d="M80,0h537" style="stroke: rgb(255, 255, 255); stroke-opacity: 1; stroke-width: 1px;"/><path class="ygrid crisp" transform="translate(0,132.03)" d="M80,0h537" style="stroke: rgb(255, 255, 255); stroke-opacity: 1; stroke-width: 1px;"/></g></g><g class="zerolinelayer"/><path class="xlines-below"/><path class="ylines-below"/><g class="overlines-below"/><g class="xaxislayer-below"/><g class="yaxislayer-below"/><g class="overaxes-below"/><g class="plot" transform="translate(80,100)" clip-path="url('#clipd86c3dxyplot')"><g class="scatterlayer mlayer"><g class="trace scatter trace533a54" style="stroke-miterlimit: 2; opacity: 1;"><g class="fills"/><g class="errorbars"/><g class="lines"><path class="js-line" d="M0,82.28L6.6,82.51L8.94,120.48L13.61,120.57L15.34,136.92L16.07,136.9L33.33,137.96L34.41,121.23L34.73,129.62L35.52,129.56L37.08,126.37L37.86,126.27L39.42,129.79L40.21,129.7L41.77,132.71L42.55,132.63L44.12,120.69L44.9,120.62L46.46,132.64L47.24,132.55L48.81,126.68L49.59,123.32L51.15,113.21L51.93,109.51L53.5,94.58L54.28,92.89L55.84,74.17L56.62,72.87L58.19,78.78L58.97,77.73L60.53,63.68L61.31,62.82L62.88,65.47L63.66,64.83L65.22,74.27L66,73.83L67.03,51.83L68.35,52.34L69.13,52.21L77.73,51.78L78.51,51.77L87.89,51.11L88.67,50.91L114.47,42.67L115.25,42.44L122.29,40.95L123.07,41.79L136.36,41.47L137.14,41.46L148.86,40.8L149.65,40.69L178.57,36.83L179.35,35.53L209.84,34L210.62,33.87L234.86,31.05L235.64,28.56L262.22,27.81L263,95.38L271.63,93.57L272.39,93.44L273.17,93.12L273.95,91.51L276.29,88.51L277.08,87.52L280.98,73.59L281.76,72.39L286.45,67.88L287.24,67.37L291.15,65.43L291.93,65.5L297.4,64.8L298.18,64.77L315.38,63.66L316.16,63.48L321.63,61.32L322.41,60.89L323.2,60.46L323.98,62.78L327.1,61.15L327.89,59.94L332.58,53.24L333.36,52.44L336.49,47.98L337.27,45.51L340.39,38.66L341.17,37.65L345.87,32.89L346.67,32.47L348.99,31.98L349.78,31.8L356.03,31.18L356.81,31.16L368.54,30.17L369.32,29.9L374.01,28.09L374.79,74.81L376.35,73.22L377.14,72.76L384.95,69.16L385.74,68.8L386.34,71.93L386.52,68.39L387.26,68.25L387.3,69.25L388.04,67.95L388.08,68.94L388.86,68.62L390.43,68.09L391.21,76.43L398.05,73.91L398.08,72.31L398.12,72.03L398.24,73.74L405.67,44.74L406.06,44.87L406.45,41.95L407.23,42.12L407.62,43.2L408.8,37.43L409.19,41.6L410.36,39.66L410.75,39.05L411.92,38.13L412.32,38.96L412.71,38.26L413.1,38.53L413.49,38.42L414.66,38.4L415.05,43.02L419.35,41.69L419.74,36.5L420.52,35.76L420.91,35.39L422.08,33.79L422.48,33.41L425.6,22.43L425.99,16L426.38,16.8L426.78,140.18L427.17,139.22L427.56,142.07L428.34,136.79L428.73,138.99L429.51,136.15L429.9,136.63L430.29,141.25L430.68,146.68L431.08,133.42L431.86,138.09L432.25,157.2L433.42,133.53L433.81,145.44L434.2,148.42L434.59,146.68L434.98,144.02L435.77,134.36L436.16,135.71L436.55,141.84L436.94,146.05L437.33,142.1L437.72,141.74L438.11,151.77L438.89,140.84L439.28,148.68L440.06,127.07L440.46,137.58L441.24,140.49L441.63,138.92L442.41,130.34L442.8,131.67L443.19,129.31L443.58,138.25L443.97,134.05L444.36,138.68L444.76,138.81L445.15,131.49L445.54,131.42L445.93,140.05L446.71,132.48L447.1,138.41L447.88,141.46L448.27,128.79L449.06,142.96L449.45,264.58L450.62,293.12L451.01,304L451.41,286.22L451.79,301.52L452.18,291.75L452.57,292.1L452.96,291.07L453.36,294.16L453.75,293.46L454.14,276.02L454.53,283.67L454.92,262.28L455.7,272.54L456.09,248.89L456.87,241.71L457.26,229.6L457.66,224.98L458.05,228.24L458.44,227.36L459.61,215.22L460,217.06L460.39,216.4L460.78,227.08L461.17,226.08L461.56,228.38L461.96,228.68L462.34,224.72L462.74,233.57L463.13,224.28L463.91,227.75L464.3,223.07L465.08,226.33L465.47,223.26L465.86,224.52L466.26,234.01L466.64,220.81L467.04,231.91L467.43,224.2L469.77,212.72L470.16,220.76L470.95,220.72L471.34,223.7L471.73,223.67L472.12,219.37L472.51,223.08L472.9,218.62L473.29,226.76L473.68,225.2L474.07,224.19L474.46,219.51L474.85,225.16L476.02,225.11L476.42,216.49L476.81,225.05L477.2,220.43L477.59,220.57L477.98,218.19L478.37,220.92L478.77,219.84L479.15,227.36L479.54,216.65L479.93,220.1L480.33,220.01L481.11,220.98L481.5,218.78L482.28,223.64L482.67,218.66L483.06,205.85L483.45,215.25L483.84,220.32L484.23,206.18L484.62,206.81L485.01,214.16L485.41,214.11L485.8,206.99L486.58,212.47L486.97,202.23L487.36,199.24L487.76,208.71L488.15,224.84L488.53,215.2L488.92,214.49L489.32,205.74L489.7,219.6L490.49,195.82L490.88,209.77L491.27,208.24L491.66,203.32L492.05,202.05L492.44,205.17L492.83,200.81L493.22,208.16L493.61,206.35L494,209.96L494.4,207.44L494.78,196.45L495.18,195.36L495.57,196.45L495.96,201.41L497.13,210.92L497.52,197.09L497.91,197.31L498.3,191.05L498.69,191.24L499.08,196.07L499.48,200.65L499.87,194.37L501.04,210.5L501.43,204.27L502.21,191.94L502.6,193.62L502.99,197L503.39,205.03L503.78,197.14L504.16,198.57L504.56,192.99L505.73,184.28L506.12,189.51L506.9,194.59L507.3,189.23L507.69,191.91L508.08,189.81L508.47,182.31L508.86,187.7L509.25,187L509.64,183.28L510.03,186.18L510.42,185.69L510.82,181.61L511.21,182.61L511.6,186.54L512.38,187.68L512.77,186.58L513.16,181.49L513.55,187.81L514.33,185.81L514.72,187.22L515.11,189.17L515.51,187L516.68,194.82L517.07,189.57L517.46,183.36L517.85,189.2L518.24,186.45L518.63,187.34L519.02,187.88L519.41,187.85L519.8,183.53L520.98,187.65L521.37,184.59L522.15,184.25L522.54,185.71L523.32,187.3L523.71,187.29L524.49,197.68L524.89,195.53L525.28,195.52L525.67,190.33L526.06,190.33L526.45,186.49L528.01,194.95L528.4,194.95L528.79,195.4L529.18,193.58L529.58,193.58L529.97,187.5L530.75,187.5L531.14,190.84L531.53,186.76L531.92,190.68L532.31,186.75L532.7,187.03L533.09,187.03L533.48,188.23L533.87,187.2L534.26,186.53L534.65,186.53L535.05,184.4L535.83,184.18L536.22,183.02L536.61,181.13L537,187.27" style="vector-effect: non-scaling-stroke; fill: none; stroke: rgb(99, 110, 250); stroke-opacity: 1; stroke-width: 2px; opacity: 1;"/></g><g class="points"/><g class="text"/></g></g></g><g class="overplot"/><path class="xlines-above crisp" d="M0,0" style="fill: none;"/><path class="ylines-above crisp" d="M0,0" style="fill: none;"/><g class="overlines-above"/><g class="xaxislayer-above"><g class="xtick"><text text-anchor="middle" x="0" y="433" transform="translate(90.45,0)" style="font-family: 'Open Sans', verdana, arial, sans-serif; font-size: 12px; fill: rgb(42, 63, 95); fill-opacity: 1; white-space: pre;"><tspan class="line" dy="0em" x="0" y="433">Jun 4</tspan><tspan class="line" dy="1.3em" x="0" y="433">2021</tspan></text></g><g class="xtick"><text text-anchor="middle" x="0" y="433" transform="translate(203.01999999999998,0)" style="font-family: 'Open Sans', verdana, arial, sans-serif; font-size: 12px; fill: rgb(42, 63, 95); fill-opacity: 1; white-space: pre;">Jun 6</text></g><g class="xtick"><text text-anchor="middle" x="0" y="433" transform="translate(315.59000000000003,0)" style="font-family: 'Open Sans', verdana, arial, sans-serif; font-size: 12px; fill: rgb(42, 63, 95); fill-opacity: 1; white-space: pre;">Jun 8</text></g><g class="xtick"><text text-anchor="middle" x="0" y="433" transform="translate(428.16,0)" style="font-family: 'Open Sans', verdana, arial, sans-serif; font-size: 12px; fill: rgb(42, 63, 95); fill-opacity: 1; white-space: pre;">Jun 10</text></g><g class="xtick"><text text-anchor="middle" x="0" y="433" transform="translate(540.73,0)" style="font-family: 'Open Sans', verdana, arial, sans-serif; font-size: 12px; fill: rgb(42, 63, 95); fill-opacity: 1; white-space: pre;">Jun 12</text></g></g><g class="yaxislayer-above"><g class="ytick"><text text-anchor="end" x="79" y="4.199999999999999" transform="translate(0,367.23)" style="font-family: 'Open Sans', verdana, arial, sans-serif; font-size: 12px; fill: rgb(42, 63, 95); fill-opacity: 1; white-space: pre;">0.8</text></g><g class="ytick"><text text-anchor="end" x="79" y="4.199999999999999" transform="translate(0,308.43)" style="font-family: 'Open Sans', verdana, arial, sans-serif; font-size: 12px; fill: rgb(42, 63, 95); fill-opacity: 1; white-space: pre;">0.82</text></g><g class="ytick"><text text-anchor="end" x="79" y="4.199999999999999" transform="translate(0,249.63)" style="font-family: 'Open Sans', verdana, arial, sans-serif; font-size: 12px; fill: rgb(42, 63, 95); fill-opacity: 1; white-space: pre;">0.84</text></g><g class="ytick"><text text-anchor="end" x="79" y="4.199999999999999" transform="translate(0,190.82999999999998)" style="font-family: 'Open Sans', verdana, arial, sans-serif; font-size: 12px; fill: rgb(42, 63, 95); fill-opacity: 1; white-space: pre;">0.86</text></g><g class="ytick"><text text-anchor="end" x="79" y="4.199999999999999" transform="translate(0,132.03)" style="font-family: 'Open Sans', verdana, arial, sans-serif; font-size: 12px; fill: rgb(42, 63, 95); fill-opacity: 1; white-space: pre;">0.88</text></g></g><g class="overaxes-above"/></g></g><g class="polarlayer"/><g class="ternarylayer"/><g class="geolayer"/><g class="funnelarealayer"/><g class="pielayer"/><g class="treemaplayer"/><g class="sunburstlayer"/><g class="glimages"/><defs id="topdefs-d86c3d"><g class="clips"/><clipPath id="legendd86c3d"><rect width="60" height="45" x="0" y="0"/></clipPath></defs><g class="layer-above"><g class="imagelayer"/><g class="shapelayer"/></g><g class="infolayer"><g class="legend" pointer-events="all" transform="translate(627.74,100)"><rect class="bg" shape-rendering="crispEdges" width="60" height="45" x="0" y="0" style="stroke: rgb(68, 68, 68); stroke-opacity: 1; fill: rgb(255, 255, 255); fill-opacity: 1; stroke-width: 0px;"/><g class="scrollbox" transform="" clip-path="url('#legendd86c3d')"><text class="legendtitletext" text-anchor="start" x="2" y="15.600000000000001" style="font-family: 'Open Sans', verdana, arial, sans-serif; font-size: 12px; fill: rgb(42, 63, 95); fill-opacity: 1; white-space: pre;">All</text><g class="groups" transform=""><g class="traces" transform="translate(0,30.1)" style="opacity: 1;"><text class="legendtext" text-anchor="start" x="40" y="4.680000000000001" style="font-family: 'Open Sans', verdana, arial, sans-serif; font-size: 12px; fill: rgb(42, 63, 95); fill-opacity: 1; white-space: pre;">All</text><g class="layers" style="opacity: 1;"><g class="legendfill"/><g class="legendlines"><path class="js-line" d="M5,0h30" style="fill: none; stroke: rgb(99, 110, 250); stroke-opacity: 1; stroke-width: 2px;"/></g><g class="legendsymbols"><g class="legendpoints"/></g></g><rect class="legendtoggle" x="0" y="-9.5" width="54.890625" height="19" style="fill: rgb(0, 0, 0); fill-opacity: 0;"/></g></g></g><rect class="scrollbar" rx="20" ry="3" width="0" height="0" x="0" y="0" style="fill: rgb(128, 139, 164); fill-opacity: 1;"/></g><g class="g-gtitle"><text class="gtitle" x="35" y="50" text-anchor="start" dy="0em" style="font-family: 'Open Sans', verdana, arial, sans-serif; font-size: 17px; fill: rgb(42, 63, 95); opacity: 1; font-weight: normal; white-space: pre;">Singapore Vaccination Centers</text></g><g class="g-xtitle"><text class="xtitle" x="348.5" y="476.409375" text-anchor="middle" style="font-family: 'Open Sans', verdana, arial, sans-serif; font-size: 14px; fill: rgb(42, 63, 95); opacity: 1; font-weight: normal; white-space: pre;">Time</text></g><g class="g-ytitle"><text class="ytitle" transform="rotate(-90,27.481250000000003,260)" x="27.481250000000003" y="260" text-anchor="middle" style="font-family: 'Open Sans', verdana, arial, sans-serif; font-size: 14px; fill: rgb(42, 63, 95); opacity: 1; font-weight: normal; white-space: pre;">Filled/%</text></g></g></svg>