<svg class="main-svg" xmlns="http://www.w3.org/2000/svg" xmlns:xlink="http://www.w3.org/1999/xlink" width="700" height="500" style="" viewBox="0 0 700 500"><rect x="0" y="0" width="700" height="500" style="fill: rgb(255, 255, 255); fill-opacity: 1;"/><defs id="defs-b2494b"><g class="clips"><clipPath id="clipb2494bxyplot" class="plotclip"><rect width="537" height="320"/></clipPath><clipPath class="axesclip" id="clipb2494bx"><rect x="80" y="0" width="537" height="500"/></clipPath><clipPath class="axesclip" id="clipb2494by"><rect x="0" y="100" width="700" height="320"/></clipPath><clipPath class="axesclip" id="clipb2494bxy"><rect x="80" y="100" width="537" height="320"/></clipPath></g><g class="gradients"/></defs><g class="bglayer"><rect class="bg" x="80" y="100" width="537" height="320" style="fill: rgb(229, 236, 246); fill-opacity: 1; stroke-width: 0;"/></g><g class="layer-below"><g class="imagelayer"/><g class="shapelayer"/></g><g class="cartesianlayer"><g class="subplot xy"><g class="layer-subplot"><g class="shapelayer"/><g class="imagelayer"/></g><g class="gridlayer"><g class="x"><path class="xgrid crisp" transform="translate(89.52,0)" d="M0,100v320" style="stroke: rgb(255, 255, 255); stroke-opacity: 1; stroke-width: 1px;"/><path class="xgrid crisp" transform="translate(192.01,0)" d="M0,100v320" style="stroke: rgb(255, 255, 255); stroke-opacity: 1; stroke-width: 1px;"/><path class="xgrid crisp" transform="translate(294.51,0)" d="M0,100v320" style="stroke: rgb(255, 255, 255); stroke-opacity: 1; stroke-width: 1px;"/><path class="xgrid crisp" transform="translate(397.01,0)" d="M0,100v320" style="stroke: rgb(255, 255, 255); stroke-opacity: 1; stroke-width: 1px;"/><path class="xgrid crisp" transform="translate(499.51,0)" d="M0,100v320" style="stroke: rgb(255, 255, 255); stroke-opacity: 1; stroke-width: 1px;"/><path class="xgrid crisp" transform="translate(602.01,0)" d="M0,100v320" style="stroke: rgb(255, 255, 255); stroke-opacity: 1; stroke-width: 1px;"/></g><g class="y"><path class="ygrid crisp" transform="translate(0,367.23)" d="M80,0h537" style="stroke: rgb(255, 255, 255); stroke-opacity: 1; stroke-width: 1px;"/><path class="ygrid crisp" transform="translate(0,308.43)" d="M80,0h537" style="stroke: rgb(255, 255, 255); stroke-opacity: 1; stroke-width: 1px;"/><path class="ygrid crisp" transform="translate(0,249.63)" d="M80,0h537" style="stroke: rgb(255, 255, 255); stroke-opacity: 1; stroke-width: 1px;"/><path class="ygrid crisp" transform="translate(0,190.82999999999998)" d="M80,0h537" style="stroke: rgb(255, 255, 255); stroke-opacity: 1; stroke-width: 1px;"/><path class="ygrid crisp" transform="translate(0,132.03)" d="M80,0h537" style="stroke: rgb(255, 255, 255); stroke-opacity: 1; stroke-width: 1px;"/></g></g><g class="zerolinelayer"/><path class="xlines-below"/><path class="ylines-below"/><g class="overlines-below"/><g class="xaxislayer-below"/><g class="yaxislayer-below"/><g class="overaxes-below"/><g class="plot" transform="translate(80,100)" clip-path="url('#clipb2494bxyplot')"><g class="scatterlayer mlayer"><g class="trace scatter tracec320cf" style="stroke-miterlimit: 2; opacity: 1;"><g class="fills"/><g class="errorbars"/><g class="lines"><path class="js-line" d="M0,82.28L6.01,82.51L8.14,120.48L12.39,120.57L13.97,136.92L14.63,136.9L30.35,137.96L31.33,121.23L31.63,129.62L32.34,129.56L33.76,126.37L34.47,126.27L35.9,129.79L36.61,129.7L38.03,132.71L38.74,132.63L40.17,120.69L40.88,120.62L42.3,132.64L43.02,132.55L44.44,126.68L46.58,113.21L47.29,109.51L50.84,74.17L51.56,72.87L52.98,78.78L53.69,77.73L55.83,62.82L57.25,65.47L57.96,64.83L59.39,74.27L60.1,73.83L61.04,51.83L62.23,52.34L62.95,52.21L70.77,51.78L71.49,51.77L80.03,51.11L80.74,50.91L104.94,42.44L105.65,42.24L111.35,40.95L112.06,41.79L124.87,41.46L125.58,41.46L136.97,40.58L137.68,40.48L159.75,37.17L160.46,37.08L162.59,36.83L163.31,35.53L191.06,34L191.78,33.87L213.85,31.05L214.56,28.56L238.76,27.81L239.47,95.38L247.32,93.57L248.01,93.44L248.72,93.12L249.44,91.51L251.57,88.51L252.28,87.52L255.84,73.59L256.55,72.39L260.82,67.88L261.54,67.37L265.1,65.43L265.81,65.5L270.79,64.8L271.5,64.77L287.16,63.66L287.87,63.48L292.85,61.32L293.57,60.89L294.28,60.46L294.99,62.78L297.84,61.15L298.55,59.94L302.82,53.24L303.53,52.44L306.38,47.98L307.09,45.51L309.94,38.66L310.65,37.65L314.92,32.89L315.66,32.47L317.77,31.98L318.48,31.8L324.17,31.18L324.89,31.16L335.56,30.17L336.27,29.9L340.54,28.09L341.26,74.81L343.39,72.76L344.11,72.32L350.51,69.16L351.22,68.8L351.77,71.93L351.94,68.39L352.61,68.25L352.65,69.25L353.32,67.95L353.36,68.94L354.07,68.62L355.49,68.09L356.21,76.43L362.44,73.91L362.46,72.31L362.5,72.03L362.61,73.74L369.37,44.74L369.73,44.87L370.09,41.95L370.8,42.12L371.15,43.2L372.22,37.43L372.58,41.6L373.64,39.66L374,39.05L375.07,38.13L375.42,38.96L376.49,38.42L376.85,38.33L377.56,38.4L377.92,43.02L381.83,41.69L382.19,36.5L382.9,35.76L383.25,35.39L385.03,31.97L385.39,32.01L387.52,22.43L387.88,16L388.23,16.8L388.59,140.18L388.95,139.22L389.3,142.07L390.01,136.79L390.37,138.99L390.73,137.43L391.08,136.15L391.44,136.63L391.79,141.25L392.15,146.68L392.51,133.42L393.22,138.09L393.57,157.2L394.64,133.53L395,145.44L395.35,148.42L395.71,146.68L396.06,144.02L396.78,134.36L397.13,135.71L397.49,141.84L397.84,146.05L398.2,142.1L398.56,141.74L398.91,151.77L399.27,141.68L399.62,140.84L399.98,148.68L400.33,138.39L400.69,127.07L401.05,137.58L401.4,139.13L401.76,140.49L402.11,138.92L402.47,134.18L403.54,129.31L403.89,138.25L404.25,134.05L404.6,138.68L404.96,138.81L405.67,131.42L406.03,140.05L406.74,132.48L407.1,138.41L407.81,141.46L408.17,128.79L408.88,142.96L409.23,264.58L410.3,293.12L410.66,304L411.02,286.22L411.37,301.52L411.72,291.75L412.08,292.1L412.44,291.07L412.79,294.16L413.15,293.46L413.5,276.02L413.86,283.67L414.22,262.28L414.93,272.54L415.28,248.89L415.99,241.71L416.35,229.6L416.71,224.98L417.06,228.24L417.42,227.36L418.49,215.22L418.84,217.06L419.2,216.4L420.27,228.38L420.62,228.68L420.98,224.72L421.33,233.57L421.69,224.28L422.04,225.36L422.4,227.75L422.76,223.07L423.11,225.77L423.47,226.33L423.83,223.26L424.18,224.52L424.54,234.01L424.89,220.81L425.25,231.91L425.61,224.2L427.74,212.72L428.1,220.76L428.81,220.72L429.16,223.7L429.52,223.67L429.87,219.37L430.23,223.08L430.59,218.62L430.94,226.76L431.3,225.2L431.65,224.19L432.01,219.51L432.37,225.16L433.43,225.11L433.79,216.49L434.15,225.05L434.5,220.43L434.86,220.57L435.21,218.19L435.57,220.92L435.93,219.84L436.28,227.36L436.64,216.65L436.99,220.1L437.35,220.01L438.06,220.98L438.41,218.78L439.13,223.64L439.48,218.66L439.84,205.85L440.2,215.25L440.55,220.32L440.91,206.18L441.26,206.81L441.62,214.16L441.97,214.11L442.33,206.99L443.05,212.47L443.4,202.23L443.76,199.24L444.11,208.71L444.47,224.84L444.82,215.2L445.18,214.49L445.53,205.74L445.89,219.6L446.6,195.82L446.96,209.77L448.02,202.05L448.38,205.17L448.74,200.81L449.09,208.16L449.45,206.35L449.8,209.96L450.16,207.44L450.51,196.45L450.87,195.36L451.23,196.45L451.58,201.41L452.65,210.92L453.01,197.09L453.36,197.31L453.72,191.05L454.07,191.24L454.43,196.07L454.79,200.65L455.14,194.37L456.21,210.5L456.57,204.27L457.28,191.94L457.63,193.62L457.99,197L458.35,205.03L458.7,197.14L459.05,198.57L460.48,184.28L460.84,189.51L461.55,194.59L461.91,189.23L462.26,191.91L462.62,189.81L462.97,182.31L463.33,187.7L463.68,187L464.04,183.28L464.4,186.18L464.75,185.69L465.11,181.61L465.47,182.61L465.82,186.54L466.53,187.68L466.89,186.58L467.24,181.49L467.6,187.81L468.31,185.81L468.67,187.22L469.38,187L469.74,190.98L470.1,190.65L470.45,194.82L470.81,189.57L471.16,183.36L471.51,189.2L471.87,186.45L472.94,187.85L473.29,183.53L474.36,187.65L474.72,184.59L475.43,184.25L475.79,185.71L476.85,187.29L477.21,197.68L477.56,197.68L477.92,195.53L478.28,195.52L478.63,190.33L478.99,190.33L479.34,186.49L480.77,194.95L481.12,194.95L481.48,195.4L481.84,193.58L482.19,193.58L482.55,187.5L483.26,187.5L483.62,190.84L484.68,186.75L485.04,187.03L485.39,187.03L485.75,188.23L488.6,181.13L488.95,187.27L489.31,190.9L489.66,187.7L490.02,181.79L490.38,180.91L490.73,182.93L491.09,184.81L491.44,179.55L492.16,190.44L492.51,182.8L492.87,183.07L493.22,174.64L494.29,185.09L494.65,181.21L495,181.99L495.36,185.79L495.71,171.39L496.07,177.83L496.43,175.21L496.78,180.5L497.14,179.53L497.49,177.22L498.92,187.84L499.27,182.58L499.63,175.16L499.99,180.33L500.34,178.23L501.05,176.4L501.41,185.95L501.76,175.93L502.12,196.82L503.19,173.22L503.54,177.47L503.9,180.21L504.26,180.03L504.61,179.15L505.32,179.35L505.68,181.21L507.1,176.9L507.46,176.97L508.17,169.69L508.53,173.52L508.88,176.28L509.24,172.21L509.6,173.97L509.95,171L510.66,180.19L511.02,175.33L511.37,171.32L511.73,174.66L512.09,174.4L512.44,183.64L512.8,176L513.15,180.08L513.51,179.71L513.86,181.54L514.58,173.38L514.93,176.61L515.29,186.68L515.65,171.47L516,173.34L516.36,176.71L516.71,180.06L517.07,191.51L517.78,169.64L518.14,179.24L518.5,185.08L518.85,178.84L519.2,180.35L519.92,173.52L520.5,177.41L520.98,175.84L521.34,172.35L522.05,178.87L522.41,178.77L522.76,176.54L523.83,180.35L524.19,181.62L524.54,181.6L524.9,184.49L525.25,177.62L525.61,178.94L525.97,178.93L526.32,178.92L526.68,174.71L527.39,182.31L527.75,181.81L528.1,181.81L528.46,181.29L528.81,185.14L529.53,181.68L529.88,185.76L530.59,177.83L530.95,178.11L531.31,178.11L532.73,178.1L533.09,181.35L534.15,177.13L534.51,180.97L534.87,182.3L535.22,178.08L535.58,173.89L535.93,174.32L536.29,178.07L536.64,178.06L537,182.07" style="vector-effect: non-scaling-stroke; fill: none; stroke: rgb(99, 110, 250); stroke-opacity: 1; stroke-width: 2px; opacity: 1;"/></g><g class="points"/><g class="text"/></g></g></g><g class="overplot"/><path class="xlines-above crisp" d="M0,0" style="fill: none;"/><path class="ylines-above crisp" d="M0,0" style="fill: none;"/><g class="overlines-above"/><g class="xaxislayer-above"><g class="xtick"><text text-anchor="middle" x="0" y="433" transform="translate(89.52,0)" style="font-family: 'Open Sans', verdana, arial, sans-serif; font-size: 12px; fill: rgb(42, 63, 95); fill-opacity: 1; white-space: pre;"><tspan class="line" dy="0em" x="0" y="433">Jun 4</tspan><tspan class="line" dy="1.3em" x="0" y="433">2021</tspan></text></g><g class="xtick"><text text-anchor="middle" x="0" y="433" transform="translate(192.01,0)" style="font-family: 'Open Sans', verdana, arial, sans-serif; font-size: 12px; fill: rgb(42, 63, 95); fill-opacity: 1; white-space: pre;">Jun 6</text></g><g class="xtick"><text text-anchor="middle" x="0" y="433" transform="translate(294.51,0)" style="font-family: 'Open Sans', verdana, arial, sans-serif; font-size: 12px; fill: rgb(42, 63, 95); fill-opacity: 1; white-space: pre;">Jun 8</text></g><g class="xtick"><text text-anchor="middle" x="0" y="433" transform="translate(397.01,0)" style="font-family: 'Open Sans', verdana, arial, sans-serif; font-size: 12px; fill: rgb(42, 63, 95); fill-opacity: 1; white-space: pre;">Jun 10</text></g><g class="xtick"><text text-anchor="middle" x="0" y="433" transform="translate(499.51,0)" style="font-family: 'Open Sans', verdana, arial, sans-serif; font-size: 12px; fill: rgb(42, 63, 95); fill-opacity: 1; white-space: pre;">Jun 12</text></g><g class="xtick"><text text-anchor="middle" x="0" y="433" transform="translate(602.01,0)" style="font-family: 'Open Sans', verdana, arial, sans-serif; font-size: 12px; fill: rgb(42, 63, 95); fill-opacity: 1; white-space: pre;">Jun 14</text></g></g><g class="yaxislayer-above"><g class="ytick"><text text-anchor="end" x="79" y="4.199999999999999" transform="translate(0,367.23)" style="font-family: 'Open Sans', verdana, arial, sans-serif; font-size: 12px; fill: rgb(42, 63, 95); fill-opacity: 1; white-space: pre;">0.8</text></g><g class="ytick"><text text-anchor="end" x="79" y="4.199999999999999" transform="translate(0,308.43)" style="font-family: 'Open Sans', verdana, arial, sans-serif; font-size: 12px; fill: rgb(42, 63, 95); fill-opacity: 1; white-space: pre;">0.82</text></g><g class="ytick"><text text-anchor="end" x="79" y="4.199999999999999" transform="translate(0,249.63)" style="font-family: 'Open Sans', verdana, arial, sans-serif; font-size: 12px; fill: rgb(42, 63, 95); fill-opacity: 1; white-space: pre;">0.84</text></g><g class="ytick"><text text-anchor="end" x="79" y="4.199999999999999" transform="translate(0,190.82999999999998)" style="font-family: 'Open Sans', verdana, arial, sans-serif; font-size: 12px; fill: rgb(42, 63, 95); fill-opacity: 1; white-space: pre;">0.86</text></g><g class="ytick"><text text-anchor="end" x="79" y="4.199999999999999" transform="translate(0,132.03)" style="font-family: 'Open Sans', verdana, arial, sans-serif; font-size: 12px; fill: rgb(42, 63, 95); fill-opacity: 1; white-space: pre;">0.88</text></g></g><g class="overaxes-above"/></g></g><g class="polarlayer"/><g class="ternarylayer"/><g class="geolayer"/><g class="funnelarealayer"/><g class="pielayer"/><g class="treemaplayer"/><g class="sunburstlayer"/><g class="glimages"/><defs id="topdefs-b2494b"><g class="clips"/><clipPath id="legendb2494b"><rect width="60" height="45" x="0" y="0"/></clipPath></defs><g class="layer-above"><g class="imagelayer"/><g class="shapelayer"/></g><g class="infolayer"><g class="legend" pointer-events="all" transform="translate(627.74,100)"><rect class="bg" shape-rendering="crispEdges" width="60" height="45" x="0" y="0" style="stroke: rgb(68, 68, 68); stroke-opacity: 1; fill: rgb(255, 255, 255); fill-opacity: 1; stroke-width: 0px;"/><g class="scrollbox" transform="" clip-path="url('#legendb2494b')"><text class="legendtitletext" text-anchor="start" x="2" y="15.600000000000001" style="font-family: 'Open Sans', verdana, arial, sans-serif; font-size: 12px; fill: rgb(42, 63, 95); fill-opacity: 1; white-space: pre;">All</text><g class="groups" transform=""><g class="traces" transform="translate(0,30.1)" style="opacity: 1;"><text class="legendtext" text-anchor="start" x="40" y="4.680000000000001" style="font-family: 'Open Sans', verdana, arial, sans-serif; font-size: 12px; fill: rgb(42, 63, 95); fill-opacity: 1; white-space: pre;">All</text><g class="layers" style="opacity: 1;"><g class="legendfill"/><g class="legendlines"><path class="js-line" d="M5,0h30" style="fill: none; stroke: rgb(99, 110, 250); stroke-opacity: 1; stroke-width: 2px;"/></g><g class="legendsymbols"><g class="legendpoints"/></g></g><rect class="legendtoggle" x="0" y="-9.5" width="54.890625" height="19" style="fill: rgb(0, 0, 0); fill-opacity: 0;"/></g></g></g><rect class="scrollbar" rx="20" ry="3" width="0" height="0" x="0" y="0" style="fill: rgb(128, 139, 164); fill-opacity: 1;"/></g><g class="g-gtitle"><text class="gtitle" x="35" y="50" text-anchor="start" dy="0em" style="font-family: 'Open Sans', verdana, arial, sans-serif; font-size: 17px; fill: rgb(42, 63, 95); opacity: 1; font-weight: normal; white-space: pre;">Singapore Vaccination Centers</text></g><g class="g-xtitle"><text class="xtitle" x="348.5" y="476.409375" text-anchor="middle" style="font-family: 'Open Sans', verdana, arial, sans-serif; font-size: 14px; fill: rgb(42, 63, 95); opacity: 1; font-weight: normal; white-space: pre;">Time</text></g><g class="g-ytitle"><text class="ytitle" transform="rotate(-90,27.481250000000003,260)" x="27.481250000000003" y="260" text-anchor="middle" style="font-family: 'Open Sans', verdana, arial, sans-serif; font-size: 14px; fill: rgb(42, 63, 95); opacity: 1; font-weight: normal; white-space: pre;">Filled/%</text></g></g></svg>