<svg class="main-svg" xmlns="http://www.w3.org/2000/svg" xmlns:xlink="http://www.w3.org/1999/xlink" width="700" height="500" style="" viewBox="0 0 700 500"><rect x="0" y="0" width="700" height="500" style="fill: rgb(255, 255, 255); fill-opacity: 1;"/><defs id="defs-82c729"><g class="clips"><clipPath id="clip82c729xyplot" class="plotclip"><rect width="537" height="320"/></clipPath><clipPath class="axesclip" id="clip82c729x"><rect x="80" y="0" width="537" height="500"/></clipPath><clipPath class="axesclip" id="clip82c729y"><rect x="0" y="100" width="700" height="320"/></clipPath><clipPath class="axesclip" id="clip82c729xy"><rect x="80" y="100" width="537" height="320"/></clipPath></g><g class="gradients"/></defs><g class="bglayer"><rect class="bg" x="80" y="100" width="537" height="320" style="fill: rgb(229, 236, 246); fill-opacity: 1; stroke-width: 0;"/></g><g class="layer-below"><g class="imagelayer"/><g class="shapelayer"/></g><g class="cartesianlayer"><g class="subplot xy"><g class="layer-subplot"><g class="shapelayer"/><g class="imagelayer"/></g><g class="gridlayer"><g class="x"><path class="xgrid crisp" transform="translate(83.53,0)" d="M0,100v320" style="stroke: rgb(255, 255, 255); stroke-opacity: 1; stroke-width: 1px;"/><path class="xgrid crisp" transform="translate(219.45,0)" d="M0,100v320" style="stroke: rgb(255, 255, 255); stroke-opacity: 1; stroke-width: 1px;"/><path class="xgrid crisp" transform="translate(355.38,0)" d="M0,100v320" style="stroke: rgb(255, 255, 255); stroke-opacity: 1; stroke-width: 1px;"/><path class="xgrid crisp" transform="translate(491.31,0)" d="M0,100v320" style="stroke: rgb(255, 255, 255); stroke-opacity: 1; stroke-width: 1px;"/></g><g class="y"><path class="ygrid crisp" transform="translate(0,392.55)" d="M80,0h537" style="stroke: rgb(255, 255, 255); stroke-opacity: 1; stroke-width: 1px;"/><path class="ygrid crisp" transform="translate(0,349.77)" d="M80,0h537" style="stroke: rgb(255, 255, 255); stroke-opacity: 1; stroke-width: 1px;"/><path class="ygrid crisp" transform="translate(0,306.99)" d="M80,0h537" style="stroke: rgb(255, 255, 255); stroke-opacity: 1; stroke-width: 1px;"/><path class="ygrid crisp" transform="translate(0,264.21000000000004)" d="M80,0h537" style="stroke: rgb(255, 255, 255); stroke-opacity: 1; stroke-width: 1px;"/><path class="ygrid crisp" transform="translate(0,221.43)" d="M80,0h537" style="stroke: rgb(255, 255, 255); stroke-opacity: 1; stroke-width: 1px;"/><path class="ygrid crisp" transform="translate(0,178.65)" d="M80,0h537" style="stroke: rgb(255, 255, 255); stroke-opacity: 1; stroke-width: 1px;"/><path class="ygrid crisp" transform="translate(0,135.87)" d="M80,0h537" style="stroke: rgb(255, 255, 255); stroke-opacity: 1; stroke-width: 1px;"/></g></g><g class="zerolinelayer"/><path class="xlines-below"/><path class="ylines-below"/><g class="overlines-below"/><g class="xaxislayer-below"/><g class="yaxislayer-below"/><g class="overaxes-below"/><g class="plot" transform="translate(80,100)" clip-path="url('#clip82c729xyplot')"><g class="scatterlayer mlayer"><g class="trace scatter trace03dec0" style="stroke-miterlimit: 2; opacity: 1;"><g class="fills"/><g class="errorbars"/><g class="lines"><path class="js-line" d="M0,304L2.72,302.59L3.67,249.74L4.61,251.04L5.55,249.35L9.33,248.71L10.27,248.32L12.16,249.1L13.11,248.19L14.99,248.58L15.94,248.19L16.88,248.45L17.82,247.93L23.49,246.9L24.43,247.16L29.15,246.77L30.09,246.51L35.76,246.12L36.7,245.73L38.59,245.86L39.54,245.22L41.42,245.09L42.36,244.44L43.31,244.96L44.25,244.57L45.19,243.66L46.14,243.92L47.09,244.57L48.03,243.02L50.86,242.11L51.8,242.63L52.75,242.24L53.69,243.15L54.63,242.24L55.58,240.17L57.47,240.69L58.41,239.78L62.19,237.84L63.13,236.94L65.01,238.23L65.96,237.07L66.9,235L67.85,235.51L68.79,236.55L69.74,235L71.63,232.67L72.57,232.28L74.46,230.6L75.4,231.12L77.29,229.95L78.23,230.21L79.18,231.76L80.12,229.56L82.96,230.6L83.9,230.21L85.79,226.46L86.73,226.07L87.67,226.85L88.62,225.55L89.56,225.68L90.5,227.36L91.45,227.11L92.39,225.55L96.17,221.16L97.11,218.44L98.06,219.09L99,217.66L99.95,216.63L100.89,217.4L102.78,217.66L103.72,218.7L107.5,216.5L108.44,216.37L110.33,215.72L111.28,214.69L112.22,214.3L113.16,214.82L115.05,215.98L115.99,214.43L118.82,213.39L119.77,212.88L121.66,212.23L122.6,211.45L125.43,212.23L126.37,211.84L128.27,211.58L129.21,211.84L131.09,210.42L132.04,208.87L133.93,207.7L134.87,206.93L136.76,207.96L137.7,207.44L138.65,207.96L139.59,142.27L142.42,140.18L143.37,140.44L145.26,139.92L146.2,139.01L148.09,139.14L149.03,139.14L152.81,138.48L153.75,138.35L156.58,137.83L157.53,137.96L166.02,137.96L166.97,138.09L173.57,137.83L174.52,137.18L177.35,137.18L178.29,136.14L182.06,136.27L183.01,135.74L184.9,135.88L185.84,135.22L187.73,134.57L188.67,135.22L191.5,132.22L192.44,132.22L193.39,133.27L194.33,132.88L196.23,131.57L197.17,132.22L200.94,128.44L201.89,130.14L205.66,127.14L206.61,128.05L208.49,126.48L209.44,127.66L210.38,128.7L211.33,127.79L212.27,128.83L213.21,128.31L214.16,127.4L215.1,128.44L216.05,127.79L216.99,128.18L219.82,128.83L220.77,128.44L222.67,126.48L223.61,125.05L225.5,124.92L226.44,125.44L227.39,125.96L228.33,124.01L232.11,123.09L233.05,121.4L236.83,121.92L237.77,120.61L238.71,118.4L239.66,119.96L240.61,119.96L241.55,118.79L242.49,119.7L243.43,119.18L245.33,117.35L246.27,117.48L249.1,114.35L250.04,114.48L251.93,112.14L252.88,112.92L254.76,110.83L255.71,111.35L258.54,110.7L259.48,108.09L260.43,107.96L261.36,106.92L262.32,105.48L263.26,105.74L264.2,106L265.14,107.18L266.1,107.83L267.03,107.18L267.99,109.13L268.92,108.35L269.87,108.22L270.81,106.66L271.75,106.27L272.7,106.79L274.59,107.05L275.53,61.25L277.41,59.41L278.36,59.15L281.19,57.57L282.13,57.17L284.02,57.04L284.97,56.78L288.74,55.46L289.69,54.54L291.58,54.28L292.52,54.81L296.3,53.75L297.24,53.62L299.13,53.62L300.07,53.75L315.17,51.78L316.12,52.18L318.95,51.12L319.89,51.25L320.84,51.52L321.77,50.73L327.44,50.07L329.33,49.54L330.27,48.23L332.16,47.83L334.05,47.44L334.99,45.73L335.94,46.91L336.88,45.73L338.77,45.73L339.71,45.07L340.66,44.94L341.6,43.76L344.43,43.49L345.38,41.91L347.26,40.2L348.21,39.42L349.12,38.1L350.06,38.76L352.89,37.71L353.84,36L357.62,35.34L358.55,33.36L359.5,32.71L360.44,33.23L362.33,32.44L363.28,32.05L364.22,31.92L365.16,30.86L367.05,30.86L367.99,31.39L369.88,32.97L370.83,31.13L372.72,32.31L373.68,30.34L375.55,30.47L376.5,30.86L379.33,29.02L380.27,29.42L382.16,27.71L383.1,26.66L384.05,24.16L385,24.68L385.93,23.24L386.88,24.68L388.77,22.84L389.71,22.58L390.65,21.26L391.59,21.66L393.49,21.79L394.42,20.74L395.37,21.26L396.32,19.68L398.2,19.55L399.15,18.5L402.92,18.89L403.87,17.97L404.81,17.45L405.76,17.84L406.7,17.97L407.65,17.05L408.59,16L409.53,16.66L410.48,16.39L411.42,171.81L416.14,171.4L417.09,172.08L419.92,170.99L420.86,170.99L422.75,169.76L423.69,169.76L425.58,168.94L426.52,169.08L442.57,168.39L443.51,167.98L455.78,165.8L456.73,165.12L461.45,164.02L462.39,162.66L466.2,162.38L467.14,163.61L469.03,161.7L469.97,161.57L470.92,160.88L471.86,158.43L472.8,156.51L473.75,156.79L474.7,156.1L475.63,154.33L476.58,154.88L477.52,154.19L479.41,154.33L480.36,153.37L482.24,152.69L483.19,153.65L485.08,152.01L486.02,150.92L486.96,151.87L487.91,150.64L489.8,149.14L490.74,149.14L491.68,148.32L492.63,149.41L494.52,150.37L495.46,149.41L496.4,149.55L497.35,148.73L501.13,145.18L502.07,144.5L504.9,143.54L505.85,145.04L511.51,141.9L512.45,143.68L513.4,121.97L514.34,121.97L517.17,120.88L518.12,116.1L519.06,116.24L520,112.28L520.95,112.55L521.89,109.96L522.84,106.95L523.78,107.91L525.66,104.77L526.61,101.22L527.56,98.08L528.5,98.08L529.45,97.53L530.39,95.35L531.33,94.8L532.28,92.07L534.16,89.34L535.11,89.34L537,85.93" style="vector-effect: non-scaling-stroke; fill: none; stroke: rgb(99, 110, 250); stroke-opacity: 1; stroke-width: 2px; opacity: 1;"/></g><g class="points"/><g class="text"/></g></g></g><g class="overplot"/><path class="xlines-above crisp" d="M0,0" style="fill: none;"/><path class="ylines-above crisp" d="M0,0" style="fill: none;"/><g class="overlines-above"/><g class="xaxislayer-above"><g class="xtick"><text text-anchor="middle" x="0" y="433" transform="translate(83.53,0)" style="font-family: 'Open Sans', verdana, arial, sans-serif; font-size: 12px; fill: rgb(42, 63, 95); fill-opacity: 1; white-space: pre;"><tspan class="line" dy="0em" x="0" y="433">Aug 3</tspan><tspan class="line" dy="1.3em" x="0" y="433">2021</tspan></text></g><g class="xtick"><text text-anchor="middle" x="0" y="433" transform="translate(219.45,0)" style="font-family: 'Open Sans', verdana, arial, sans-serif; font-size: 12px; fill: rgb(42, 63, 95); fill-opacity: 1; white-space: pre;">Aug 4</text></g><g class="xtick"><text text-anchor="middle" x="0" y="433" transform="translate(355.38,0)" style="font-family: 'Open Sans', verdana, arial, sans-serif; font-size: 12px; fill: rgb(42, 63, 95); fill-opacity: 1; white-space: pre;">Aug 5</text></g><g class="xtick"><text text-anchor="middle" x="0" y="433" transform="translate(491.31,0)" style="font-family: 'Open Sans', verdana, arial, sans-serif; font-size: 12px; fill: rgb(42, 63, 95); fill-opacity: 1; white-space: pre;">Aug 6</text></g></g><g class="yaxislayer-above"><g class="ytick"><text text-anchor="end" x="79" y="4.199999999999999" transform="translate(0,392.55)" style="font-family: 'Open Sans', verdana, arial, sans-serif; font-size: 12px; fill: rgb(42, 63, 95); fill-opacity: 1; white-space: pre;">0.864</text></g><g class="ytick"><text text-anchor="end" x="79" y="4.199999999999999" transform="translate(0,349.77)" style="font-family: 'Open Sans', verdana, arial, sans-serif; font-size: 12px; fill: rgb(42, 63, 95); fill-opacity: 1; white-space: pre;">0.865</text></g><g class="ytick"><text text-anchor="end" x="79" y="4.199999999999999" transform="translate(0,306.99)" style="font-family: 'Open Sans', verdana, arial, sans-serif; font-size: 12px; fill: rgb(42, 63, 95); fill-opacity: 1; white-space: pre;">0.866</text></g><g class="ytick"><text text-anchor="end" x="79" y="4.199999999999999" transform="translate(0,264.21000000000004)" style="font-family: 'Open Sans', verdana, arial, sans-serif; font-size: 12px; fill: rgb(42, 63, 95); fill-opacity: 1; white-space: pre;">0.867</text></g><g class="ytick"><text text-anchor="end" x="79" y="4.199999999999999" transform="translate(0,221.43)" style="font-family: 'Open Sans', verdana, arial, sans-serif; font-size: 12px; fill: rgb(42, 63, 95); fill-opacity: 1; white-space: pre;">0.868</text></g><g class="ytick"><text text-anchor="end" x="79" y="4.199999999999999" transform="translate(0,178.65)" style="font-family: 'Open Sans', verdana, arial, sans-serif; font-size: 12px; fill: rgb(42, 63, 95); fill-opacity: 1; white-space: pre;">0.869</text></g><g class="ytick"><text text-anchor="end" x="79" y="4.199999999999999" transform="translate(0,135.87)" style="font-family: 'Open Sans', verdana, arial, sans-serif; font-size: 12px; fill: rgb(42, 63, 95); fill-opacity: 1; white-space: pre;">0.87</text></g></g><g class="overaxes-above"/></g></g><g class="polarlayer"/><g class="ternarylayer"/><g class="geolayer"/><g class="funnelarealayer"/><g class="pielayer"/><g class="treemaplayer"/><g class="sunburstlayer"/><g class="glimages"/><defs id="topdefs-82c729"><g class="clips"/><clipPath id="legend82c729"><rect width="60" height="45" x="0" y="0"/></clipPath></defs><g class="layer-above"><g class="imagelayer"/><g class="shapelayer"/></g><g class="infolayer"><g class="legend" pointer-events="all" transform="translate(627.74,100)"><rect class="bg" shape-rendering="crispEdges" width="60" height="45" x="0" y="0" style="stroke: rgb(68, 68, 68); stroke-opacity: 1; fill: rgb(255, 255, 255); fill-opacity: 1; stroke-width: 0px;"/><g class="scrollbox" transform="" clip-path="url('#legend82c729')"><text class="legendtitletext" text-anchor="start" x="2" y="15.600000000000001" style="font-family: 'Open Sans', verdana, arial, sans-serif; font-size: 12px; fill: rgb(42, 63, 95); fill-opacity: 1; white-space: pre;">All</text><g class="groups" transform=""><g class="traces" transform="translate(0,30.1)" style="opacity: 1;"><text class="legendtext" text-anchor="start" x="40" y="4.680000000000001" style="font-family: 'Open Sans', verdana, arial, sans-serif; font-size: 12px; fill: rgb(42, 63, 95); fill-opacity: 1; white-space: pre;">All</text><g class="layers" style="opacity: 1;"><g class="legendfill"/><g class="legendlines"><path class="js-line" d="M5,0h30" style="fill: none; stroke: rgb(99, 110, 250); stroke-opacity: 1; stroke-width: 2px;"/></g><g class="legendsymbols"><g class="legendpoints"/></g></g><rect class="legendtoggle" x="0" y="-9.5" width="54.890625" height="19" style="fill: rgb(0, 0, 0); fill-opacity: 0;"/></g></g></g><rect class="scrollbar" rx="20" ry="3" width="0" height="0" x="0" y="0" style="fill: rgb(128, 139, 164); fill-opacity: 1;"/></g><g class="g-gtitle"><text class="gtitle" x="35" y="50" text-anchor="start" dy="0em" style="font-family: 'Open Sans', verdana, arial, sans-serif; font-size: 17px; fill: rgb(42, 63, 95); opacity: 1; font-weight: normal; white-space: pre;">Singapore Vaccination Centers</text></g><g class="g-xtitle"><text class="xtitle" x="348.5" y="476.409375" text-anchor="middle" style="font-family: 'Open Sans', verdana, arial, sans-serif; font-size: 14px; fill: rgb(42, 63, 95); opacity: 1; font-weight: normal; white-space: pre;">Time</text></g><g class="g-ytitle"><text class="ytitle" transform="rotate(-90,19.840625000000003,260)" x="19.840625000000003" y="260" text-anchor="middle" style="font-family: 'Open Sans', verdana, arial, sans-serif; font-size: 14px; fill: rgb(42, 63, 95); opacity: 1; font-weight: normal; white-space: pre;">Filled/%</text></g></g></svg>