<svg class="main-svg" xmlns="http://www.w3.org/2000/svg" xmlns:xlink="http://www.w3.org/1999/xlink" width="700" height="500" style="" viewBox="0 0 700 500"><rect x="0" y="0" width="700" height="500" style="fill: rgb(255, 255, 255); fill-opacity: 1;"/><defs id="defs-63a5ef"><g class="clips"><clipPath id="clip63a5efxyplot" class="plotclip"><rect width="537" height="320"/></clipPath><clipPath class="axesclip" id="clip63a5efx"><rect x="80" y="0" width="537" height="500"/></clipPath><clipPath class="axesclip" id="clip63a5efy"><rect x="0" y="100" width="700" height="320"/></clipPath><clipPath class="axesclip" id="clip63a5efxy"><rect x="80" y="100" width="537" height="320"/></clipPath></g><g class="gradients"/></defs><g class="bglayer"><rect class="bg" x="80" y="100" width="537" height="320" style="fill: rgb(229, 236, 246); fill-opacity: 1; stroke-width: 0;"/></g><g class="layer-below"><g class="imagelayer"/><g class="shapelayer"/></g><g class="cartesianlayer"><g class="subplot xy"><g class="layer-subplot"><g class="shapelayer"/><g class="imagelayer"/></g><g class="gridlayer"><g class="x"><path class="xgrid crisp" transform="translate(84.86,0)" d="M0,100v320" style="stroke: rgb(255, 255, 255); stroke-opacity: 1; stroke-width: 1px;"/><path class="xgrid crisp" transform="translate(178.51,0)" d="M0,100v320" style="stroke: rgb(255, 255, 255); stroke-opacity: 1; stroke-width: 1px;"/><path class="xgrid crisp" transform="translate(272.15999999999997,0)" d="M0,100v320" style="stroke: rgb(255, 255, 255); stroke-opacity: 1; stroke-width: 1px;"/><path class="xgrid crisp" transform="translate(365.81,0)" d="M0,100v320" style="stroke: rgb(255, 255, 255); stroke-opacity: 1; stroke-width: 1px;"/><path class="xgrid crisp" transform="translate(459.46,0)" d="M0,100v320" style="stroke: rgb(255, 255, 255); stroke-opacity: 1; stroke-width: 1px;"/><path class="xgrid crisp" transform="translate(553.11,0)" d="M0,100v320" style="stroke: rgb(255, 255, 255); stroke-opacity: 1; stroke-width: 1px;"/></g><g class="y"><path class="ygrid crisp" transform="translate(0,392.28)" d="M80,0h537" style="stroke: rgb(255, 255, 255); stroke-opacity: 1; stroke-width: 1px;"/><path class="ygrid crisp" transform="translate(0,348.5)" d="M80,0h537" style="stroke: rgb(255, 255, 255); stroke-opacity: 1; stroke-width: 1px;"/><path class="ygrid crisp" transform="translate(0,304.72)" d="M80,0h537" style="stroke: rgb(255, 255, 255); stroke-opacity: 1; stroke-width: 1px;"/><path class="ygrid crisp" transform="translate(0,260.94)" d="M80,0h537" style="stroke: rgb(255, 255, 255); stroke-opacity: 1; stroke-width: 1px;"/><path class="ygrid crisp" transform="translate(0,217.16)" d="M80,0h537" style="stroke: rgb(255, 255, 255); stroke-opacity: 1; stroke-width: 1px;"/><path class="ygrid crisp" transform="translate(0,173.38)" d="M80,0h537" style="stroke: rgb(255, 255, 255); stroke-opacity: 1; stroke-width: 1px;"/><path class="ygrid crisp" transform="translate(0,129.6)" d="M80,0h537" style="stroke: rgb(255, 255, 255); stroke-opacity: 1; stroke-width: 1px;"/></g></g><g class="zerolinelayer"/><path class="xlines-below"/><path class="ylines-below"/><g class="overlines-below"/><g class="xaxislayer-below"/><g class="yaxislayer-below"/><g class="overaxes-below"/><g class="plot" transform="translate(80,100)" clip-path="url('#clip63a5efxyplot')"><g class="scatterlayer mlayer"><g class="trace scatter trace077aba" style="stroke-miterlimit: 2; opacity: 1;"><g class="fills"/><g class="errorbars"/><g class="lines"><path class="js-line" d="M0,304L3.75,302.56L5.05,248.47L6.35,249.8L7.65,248.08L12.85,247.42L14.15,247.02L16.76,247.81L18.06,246.89L19.39,247.55L20.66,247.28L25.86,246.36L27.17,246.62L29.77,245.83L31.07,245.83L33.66,245.83L34.96,245.83L38.87,245.56L40.17,245.43L44.07,245.3L45.37,245.43L49.28,244.77L50.58,244.37L53.18,244.5L54.48,243.84L57.07,243.71L58.37,243.05L59.68,243.58L60.98,243.18L62.28,242.25L63.58,242.52L64.88,243.18L66.18,241.59L70.08,240.66L71.38,241.19L72.68,240.8L73.99,241.72L75.28,240.8L76.59,238.68L79.18,239.21L80.49,238.28L85.69,236.3L86.99,235.37L89.59,236.69L90.9,235.5L92.19,233.38L93.49,233.91L94.79,234.97L96.09,233.38L98.7,231L100,230.6L102.6,228.88L103.9,229.41L106.5,228.22L107.8,228.49L109.1,230.07L110.4,227.82L114.31,228.88L115.61,228.49L118.21,224.65L119.51,224.25L120.81,225.04L122.11,223.72L123.41,223.85L124.71,225.57L126.01,225.31L127.31,223.72L132.52,219.22L133.81,216.44L135.12,217.1L136.42,215.65L137.72,214.59L139.02,215.38L141.62,215.65L142.92,216.7L148.13,214.45L149.42,214.32L152.03,213.66L153.33,212.6L154.63,212.2L155.93,212.73L157.23,213.92L158.53,213.92L161.13,211.67L162.43,211.41L166.33,210.61L167.63,210.09L168.94,209.29L170.24,209.69L176.74,209.42L178.05,209.69L180.64,208.23L181.95,206.64L183.24,205.45L184.54,205.45L185.85,204.66L187.15,205.58L191.05,205.72L192.35,138.49L196.25,136.35L197.55,136.62L200.15,136.08L201.45,135.15L204.06,135.28L205.36,135.28L210.56,134.62L211.85,134.48L215.76,133.95L217.06,134.08L228.76,134.08L230.07,134.22L239.17,133.95L240.47,133.28L244.37,133.28L245.67,132.21L250.87,132.35L252.18,131.81L254.77,131.95L256.07,131.28L258.68,130.61L259.98,131.28L263.88,128.21L265.18,128.21L266.48,129.28L267.78,128.88L270.39,127.54L271.69,128.21L275.58,126.07L276.89,124.34L278.19,126.07L279.49,125.27L283.39,123L284.7,123.94L287.29,122.33L288.59,123.54L289.89,124.6L291.2,123.67L292.5,124.74L293.8,124.2L295.09,123.27L296.4,124.34L297.7,123.67L299,124.07L301.6,125.14L302.9,124.74L305.52,123.54L306.83,122.33L308.12,120.87L309.42,120.6L312.03,121.27L313.33,121.8L314.63,119.8L315.93,119.53L319.83,118.86L321.14,117.13L325.04,118.2L326.34,117.66L328.93,114.06L330.24,115.66L331.54,115.66L332.84,114.46L334.14,115.39L335.44,114.86L338.04,112.99L339.34,113.12L343.25,109.92L344.55,110.05L347.15,107.65L348.45,108.45L351.05,106.32L352.35,106.85L356.25,106.18L357.55,103.51L358.85,103.38L360.15,102.31L361.46,100.84L362.75,101.11L364.06,101.38L365.35,102.58L366.66,103.25L367.96,102.58L369.27,104.58L370.56,103.78L371.86,103.65L373.16,102.04L374.46,101.64L375.76,102.18L378.36,102.44L379.67,55.58L382.26,53.69L383.56,53.42L386.16,52.75L387.47,51.81L391.37,51.27L392.67,51L397.87,49.66L399.17,48.71L401.78,48.44L403.08,48.98L406.98,47.77L408.28,47.91L423.88,46.56L425.18,46.83L430.39,45.89L431.69,46.16L432.98,45.62L434.29,45.89L435.59,46.29L436.89,45.75L438.19,45.89L439.49,45.21L442.1,45.62L443.38,44.81L451.19,44.14L453.79,43.6L455.1,42.25L457.69,41.85L460.29,41.44L461.6,39.69L462.9,40.9L464.2,39.69L466.8,39.69L468.1,39.02L469.41,38.89L470.7,37.67L474.6,37.4L475.91,35.79L477.21,34.31L478.5,34.04L481.07,31.89L482.36,32.56L484.96,31.08L486.27,31.48L487.57,29.73L488.86,29.46L490.17,28.92L491.47,29.33L492.77,29.06L494.07,27.04L495.37,26.37L496.67,26.9L499.27,26.1L500.58,25.69L501.88,25.56L503.18,24.48L505.78,24.48L507.07,25.02L509.68,26.64L510.99,24.75L513.59,25.96L514.9,23.94L517.49,24.08L518.79,24.48L522.69,22.6L523.99,23L526.59,21.25L527.89,20.17L529.2,17.62L530.5,18.15L531.79,16.67L533.09,18.15L534.39,16.54L535.7,16.27L537,16" style="vector-effect: non-scaling-stroke; fill: none; stroke: rgb(99, 110, 250); stroke-opacity: 1; stroke-width: 2px; opacity: 1;"/></g><g class="points"/><g class="text"/></g></g></g><g class="overplot"/><path class="xlines-above crisp" d="M0,0" style="fill: none;"/><path class="ylines-above crisp" d="M0,0" style="fill: none;"/><g class="overlines-above"/><g class="xaxislayer-above"><g class="xtick"><text text-anchor="middle" x="0" y="433" transform="translate(84.86,0)" style="font-family: 'Open Sans', verdana, arial, sans-serif; font-size: 12px; fill: rgb(42, 63, 95); fill-opacity: 1; white-space: pre;"><tspan class="line" dy="0em" x="0" y="433">00:00</tspan><tspan class="line" dy="1.3em" x="0" y="433">Aug 3, 2021</tspan></text></g><g class="xtick"><text text-anchor="middle" x="0" y="433" transform="translate(178.51,0)" style="font-family: 'Open Sans', verdana, arial, sans-serif; font-size: 12px; fill: rgb(42, 63, 95); fill-opacity: 1; white-space: pre;">12:00</text></g><g class="xtick"><text text-anchor="middle" x="0" y="433" transform="translate(272.15999999999997,0)" style="font-family: 'Open Sans', verdana, arial, sans-serif; font-size: 12px; fill: rgb(42, 63, 95); fill-opacity: 1; white-space: pre;"><tspan class="line" dy="0em" x="0" y="433">00:00</tspan><tspan class="line" dy="1.3em" x="0" y="433">Aug 4, 2021</tspan></text></g><g class="xtick"><text text-anchor="middle" x="0" y="433" transform="translate(365.81,0)" style="font-family: 'Open Sans', verdana, arial, sans-serif; font-size: 12px; fill: rgb(42, 63, 95); fill-opacity: 1; white-space: pre;">12:00</text></g><g class="xtick"><text text-anchor="middle" x="0" y="433" transform="translate(459.46,0)" style="font-family: 'Open Sans', verdana, arial, sans-serif; font-size: 12px; fill: rgb(42, 63, 95); fill-opacity: 1; white-space: pre;"><tspan class="line" dy="0em" x="0" y="433">00:00</tspan><tspan class="line" dy="1.3em" x="0" y="433">Aug 5, 2021</tspan></text></g><g class="xtick"><text text-anchor="middle" x="0" y="433" transform="translate(553.11,0)" style="font-family: 'Open Sans', verdana, arial, sans-serif; font-size: 12px; fill: rgb(42, 63, 95); fill-opacity: 1; white-space: pre;">12:00</text></g></g><g class="yaxislayer-above"><g class="ytick"><text text-anchor="end" x="79" y="4.199999999999999" transform="translate(0,392.28)" style="font-family: 'Open Sans', verdana, arial, sans-serif; font-size: 12px; fill: rgb(42, 63, 95); fill-opacity: 1; white-space: pre;">0.864</text></g><g class="ytick"><text text-anchor="end" x="79" y="4.199999999999999" transform="translate(0,348.5)" style="font-family: 'Open Sans', verdana, arial, sans-serif; font-size: 12px; fill: rgb(42, 63, 95); fill-opacity: 1; white-space: pre;">0.865</text></g><g class="ytick"><text text-anchor="end" x="79" y="4.199999999999999" transform="translate(0,304.72)" style="font-family: 'Open Sans', verdana, arial, sans-serif; font-size: 12px; fill: rgb(42, 63, 95); fill-opacity: 1; white-space: pre;">0.866</text></g><g class="ytick"><text text-anchor="end" x="79" y="4.199999999999999" transform="translate(0,260.94)" style="font-family: 'Open Sans', verdana, arial, sans-serif; font-size: 12px; fill: rgb(42, 63, 95); fill-opacity: 1; white-space: pre;">0.867</text></g><g class="ytick"><text text-anchor="end" x="79" y="4.199999999999999" transform="translate(0,217.16)" style="font-family: 'Open Sans', verdana, arial, sans-serif; font-size: 12px; fill: rgb(42, 63, 95); fill-opacity: 1; white-space: pre;">0.868</text></g><g class="ytick"><text text-anchor="end" x="79" y="4.199999999999999" transform="translate(0,173.38)" style="font-family: 'Open Sans', verdana, arial, sans-serif; font-size: 12px; fill: rgb(42, 63, 95); fill-opacity: 1; white-space: pre;">0.869</text></g><g class="ytick"><text text-anchor="end" x="79" y="4.199999999999999" transform="translate(0,129.6)" style="font-family: 'Open Sans', verdana, arial, sans-serif; font-size: 12px; fill: rgb(42, 63, 95); fill-opacity: 1; white-space: pre;">0.87</text></g></g><g class="overaxes-above"/></g></g><g class="polarlayer"/><g class="ternarylayer"/><g class="geolayer"/><g class="funnelarealayer"/><g class="pielayer"/><g class="treemaplayer"/><g class="sunburstlayer"/><g class="glimages"/><defs id="topdefs-63a5ef"><g class="clips"/><clipPath id="legend63a5ef"><rect width="60" height="45" x="0" y="0"/></clipPath></defs><g class="layer-above"><g class="imagelayer"/><g class="shapelayer"/></g><g class="infolayer"><g class="legend" pointer-events="all" transform="translate(627.74,100)"><rect class="bg" shape-rendering="crispEdges" width="60" height="45" x="0" y="0" style="stroke: rgb(68, 68, 68); stroke-opacity: 1; fill: rgb(255, 255, 255); fill-opacity: 1; stroke-width: 0px;"/><g class="scrollbox" transform="" clip-path="url('#legend63a5ef')"><text class="legendtitletext" text-anchor="start" x="2" y="15.600000000000001" style="font-family: 'Open Sans', verdana, arial, sans-serif; font-size: 12px; fill: rgb(42, 63, 95); fill-opacity: 1; white-space: pre;">All</text><g class="groups" transform=""><g class="traces" transform="translate(0,30.1)" style="opacity: 1;"><text class="legendtext" text-anchor="start" x="40" y="4.680000000000001" style="font-family: 'Open Sans', verdana, arial, sans-serif; font-size: 12px; fill: rgb(42, 63, 95); fill-opacity: 1; white-space: pre;">All</text><g class="layers" style="opacity: 1;"><g class="legendfill"/><g class="legendlines"><path class="js-line" d="M5,0h30" style="fill: none; stroke: rgb(99, 110, 250); stroke-opacity: 1; stroke-width: 2px;"/></g><g class="legendsymbols"><g class="legendpoints"/></g></g><rect class="legendtoggle" x="0" y="-9.5" width="54.890625" height="19" style="fill: rgb(0, 0, 0); fill-opacity: 0;"/></g></g></g><rect class="scrollbar" rx="20" ry="3" width="0" height="0" x="0" y="0" style="fill: rgb(128, 139, 164); fill-opacity: 1;"/></g><g class="g-gtitle"><text class="gtitle" x="35" y="50" text-anchor="start" dy="0em" style="font-family: 'Open Sans', verdana, arial, sans-serif; font-size: 17px; fill: rgb(42, 63, 95); opacity: 1; font-weight: normal; white-space: pre;">Singapore Vaccination Centers</text></g><g class="g-xtitle"><text class="xtitle" x="348.5" y="476.409375" text-anchor="middle" style="font-family: 'Open Sans', verdana, arial, sans-serif; font-size: 14px; fill: rgb(42, 63, 95); opacity: 1; font-weight: normal; white-space: pre;">Time</text></g><g class="g-ytitle"><text class="ytitle" transform="rotate(-90,19.840625000000003,260)" x="19.840625000000003" y="260" text-anchor="middle" style="font-family: 'Open Sans', verdana, arial, sans-serif; font-size: 14px; fill: rgb(42, 63, 95); opacity: 1; font-weight: normal; white-space: pre;">Filled/%</text></g></g></svg>