<svg class="main-svg" xmlns="http://www.w3.org/2000/svg" xmlns:xlink="http://www.w3.org/1999/xlink" width="700" height="500" style="" viewBox="0 0 700 500"><rect x="0" y="0" width="700" height="500" style="fill: rgb(255, 255, 255); fill-opacity: 1;"/><defs id="defs-5cbadf"><g class="clips"><clipPath id="clip5cbadfxyplot" class="plotclip"><rect width="537" height="320"/></clipPath><clipPath class="axesclip" id="clip5cbadfx"><rect x="80" y="0" width="537" height="500"/></clipPath><clipPath class="axesclip" id="clip5cbadfy"><rect x="0" y="100" width="700" height="320"/></clipPath><clipPath class="axesclip" id="clip5cbadfxy"><rect x="80" y="100" width="537" height="320"/></clipPath></g><g class="gradients"/></defs><g class="bglayer"><rect class="bg" x="80" y="100" width="537" height="320" style="fill: rgb(229, 236, 246); fill-opacity: 1; stroke-width: 0;"/></g><g class="layer-below"><g class="imagelayer"/><g class="shapelayer"/></g><g class="cartesianlayer"><g class="subplot xy"><g class="layer-subplot"><g class="shapelayer"/><g class="imagelayer"/></g><g class="gridlayer"><g class="x"><path class="xgrid crisp" transform="translate(83.94,0)" d="M0,100v320" style="stroke: rgb(255, 255, 255); stroke-opacity: 1; stroke-width: 1px;"/><path class="xgrid crisp" transform="translate(159.76,0)" d="M0,100v320" style="stroke: rgb(255, 255, 255); stroke-opacity: 1; stroke-width: 1px;"/><path class="xgrid crisp" transform="translate(235.59,0)" d="M0,100v320" style="stroke: rgb(255, 255, 255); stroke-opacity: 1; stroke-width: 1px;"/><path class="xgrid crisp" transform="translate(311.41999999999996,0)" d="M0,100v320" style="stroke: rgb(255, 255, 255); stroke-opacity: 1; stroke-width: 1px;"/><path class="xgrid crisp" transform="translate(387.25,0)" d="M0,100v320" style="stroke: rgb(255, 255, 255); stroke-opacity: 1; stroke-width: 1px;"/><path class="xgrid crisp" transform="translate(463.08,0)" d="M0,100v320" style="stroke: rgb(255, 255, 255); stroke-opacity: 1; stroke-width: 1px;"/><path class="xgrid crisp" transform="translate(538.9,0)" d="M0,100v320" style="stroke: rgb(255, 255, 255); stroke-opacity: 1; stroke-width: 1px;"/><path class="xgrid crisp" transform="translate(614.73,0)" d="M0,100v320" style="stroke: rgb(255, 255, 255); stroke-opacity: 1; stroke-width: 1px;"/></g><g class="y"><path class="ygrid crisp" transform="translate(0,392.55)" d="M80,0h537" style="stroke: rgb(255, 255, 255); stroke-opacity: 1; stroke-width: 1px;"/><path class="ygrid crisp" transform="translate(0,349.77)" d="M80,0h537" style="stroke: rgb(255, 255, 255); stroke-opacity: 1; stroke-width: 1px;"/><path class="ygrid crisp" transform="translate(0,306.99)" d="M80,0h537" style="stroke: rgb(255, 255, 255); stroke-opacity: 1; stroke-width: 1px;"/><path class="ygrid crisp" transform="translate(0,264.21000000000004)" d="M80,0h537" style="stroke: rgb(255, 255, 255); stroke-opacity: 1; stroke-width: 1px;"/><path class="ygrid crisp" transform="translate(0,221.43)" d="M80,0h537" style="stroke: rgb(255, 255, 255); stroke-opacity: 1; stroke-width: 1px;"/><path class="ygrid crisp" transform="translate(0,178.65)" d="M80,0h537" style="stroke: rgb(255, 255, 255); stroke-opacity: 1; stroke-width: 1px;"/><path class="ygrid crisp" transform="translate(0,135.87)" d="M80,0h537" style="stroke: rgb(255, 255, 255); stroke-opacity: 1; stroke-width: 1px;"/></g></g><g class="zerolinelayer"/><path class="xlines-below"/><path class="ylines-below"/><g class="overlines-below"/><g class="xaxislayer-below"/><g class="yaxislayer-below"/><g class="overaxes-below"/><g class="plot" transform="translate(80,100)" clip-path="url('#clip5cbadfxyplot')"><g class="scatterlayer mlayer"><g class="trace scatter trace1f8577" style="stroke-miterlimit: 2; opacity: 1;"><g class="fills"/><g class="errorbars"/><g class="lines"><path class="js-line" d="M0,304L3.03,302.59L4.09,249.74L5.14,251.04L6.2,249.35L10.41,248.71L11.46,248.32L13.57,249.1L14.62,248.19L15.7,248.84L16.73,248.58L20.94,247.67L22,247.93L25.16,247.16L26.21,246.9L30.42,247.29L31.47,246.9L36.74,246.77L37.79,246.77L40.95,245.73L42.01,245.99L46.21,245.09L47.26,244.44L48.32,244.96L49.37,244.57L50.42,243.66L51.48,243.92L52.54,244.57L53.59,243.02L56.74,242.11L57.8,242.63L58.85,242.24L59.91,243.15L60.96,242.24L62.01,240.17L64.12,240.69L65.17,239.78L69.39,237.84L70.44,236.94L72.54,238.23L73.6,237.07L74.65,235L75.7,235.51L76.75,236.55L77.81,235L79.91,232.67L80.97,232.28L83.08,230.6L84.13,231.12L86.23,229.95L87.29,230.21L88.34,231.76L89.39,229.56L92.56,230.6L93.61,230.21L95.72,226.46L96.77,226.07L97.82,226.85L98.87,225.55L99.93,225.68L100.98,227.36L102.03,227.11L103.09,225.55L107.3,221.16L108.35,218.44L109.41,219.09L110.46,217.66L111.51,216.63L112.56,217.4L114.67,217.66L115.72,218.7L119.94,216.5L120.99,216.37L123.1,215.72L124.15,214.69L125.2,214.3L126.26,214.82L127.31,215.98L128.36,215.98L130.47,213.78L131.52,213.52L134.68,212.75L135.73,212.23L136.79,211.45L137.84,211.84L143.11,211.58L144.16,211.84L146.26,210.42L147.32,208.87L148.37,207.7L149.43,207.7L150.48,206.93L151.53,207.83L154.69,207.96L155.75,142.27L158.91,140.18L159.96,140.44L162.07,139.92L163.12,139.01L165.22,139.14L166.28,139.14L170.49,138.48L171.54,138.35L174.7,137.83L175.75,137.96L185.23,137.96L186.29,138.09L193.66,137.83L194.71,137.18L197.87,137.18L198.92,136.14L203.13,136.27L204.19,135.74L206.29,135.88L207.34,135.22L209.46,134.57L210.51,135.22L213.67,132.22L214.72,132.22L215.77,133.27L216.82,132.88L218.93,131.57L219.99,132.22L224.2,128.44L225.25,130.14L229.46,127.14L230.52,128.05L232.62,126.48L233.67,127.66L234.73,128.7L235.78,127.79L236.84,128.83L237.89,128.31L238.94,127.4L239.99,128.44L241.05,127.79L242.1,128.18L245.26,128.83L246.32,128.44L248.44,126.48L249.49,125.05L251.59,124.92L252.65,125.44L253.7,125.96L254.76,124.01L258.97,123.09L260.02,121.4L263.18,122.44L264.23,121.92L266.34,118.4L267.4,119.96L268.45,119.96L269.5,118.79L270.55,119.7L271.6,119.18L273.72,117.35L274.77,117.48L277.93,114.35L278.98,114.48L281.09,112.14L282.14,112.92L284.24,110.83L285.3,111.35L288.46,110.7L289.51,108.09L290.56,107.96L291.61,106.92L292.67,105.48L293.72,105.74L294.78,106L295.83,107.18L296.89,107.83L297.94,107.18L299,109.13L300.04,108.35L301.1,108.22L302.15,106.66L303.2,106.27L304.26,106.79L306.36,107.05L307.42,61.25L309.52,59.41L310.57,59.15L313.73,57.57L314.78,57.17L316.89,57.04L317.94,56.78L322.16,55.46L323.21,54.54L325.32,54.28L326.37,54.81L329.53,53.62L330.59,53.75L343.22,52.44L344.27,52.7L348.49,51.78L349.54,52.04L351.64,51.78L352.7,52.18L355.86,51.12L356.9,51.25L357.97,51.52L359.01,50.73L365.33,50.07L367.44,49.54L368.49,48.23L370.6,47.83L372.7,47.44L373.76,45.73L374.81,46.91L375.87,45.73L377.97,45.73L379.02,45.07L380.08,44.94L381.13,43.76L384.29,43.49L385.34,41.91L387.45,40.2L388.5,39.42L389.53,38.1L390.57,38.76L393.73,37.71L394.78,36L399,35.34L400.05,33.36L401.11,32.71L402.16,33.23L404.26,32.44L405.32,32.05L406.37,31.92L407.42,30.86L409.53,30.86L410.58,31.39L412.69,32.97L413.75,31.13L415.85,32.31L416.92,30.34L419.01,30.47L420.07,30.86L423.22,29.02L424.28,29.42L426.38,27.71L427.44,26.66L428.49,24.16L429.55,24.68L430.59,23.24L431.65,24.68L433.76,22.84L434.81,22.58L435.86,21.26L436.91,21.66L439.02,21.79L440.07,20.74L441.13,21.26L442.18,19.68L444.28,19.55L445.34,18.5L449.55,18.89L450.6,17.97L451.66,17.45L452.71,17.84L453.77,17.97L454.82,17.05L455.88,16L456.92,16.66L457.98,16.39L459.04,171.81L464.3,171.4L465.36,172.08L468.51,170.99L469.57,170.99L471.67,169.76L472.72,169.76L474.83,168.94L475.88,169.08L493.79,168.39L494.84,167.98L508.52,165.8L509.58,165.12L514.85,164.02L515.9,162.66L520.15,162.38L521.2,163.61L523.31,161.7L524.36,161.57L525.42,160.88L526.47,158.43L527.52,156.51L528.57,156.79L529.63,156.1L530.68,154.33L531.73,154.88L532.78,154.19L534.89,154.33L535.95,153.37L537,153.37" style="vector-effect: non-scaling-stroke; fill: none; stroke: rgb(99, 110, 250); stroke-opacity: 1; stroke-width: 2px; opacity: 1;"/></g><g class="points"/><g class="text"/></g></g></g><g class="overplot"/><path class="xlines-above crisp" d="M0,0" style="fill: none;"/><path class="ylines-above crisp" d="M0,0" style="fill: none;"/><g class="overlines-above"/><g class="xaxislayer-above"><g class="xtick"><text text-anchor="middle" x="0" y="433" transform="translate(83.94,0)" style="font-family: 'Open Sans', verdana, arial, sans-serif; font-size: 12px; fill: rgb(42, 63, 95); fill-opacity: 1; white-space: pre;"><tspan class="line" dy="0em" x="0" y="433">00:00</tspan><tspan class="line" dy="1.3em" x="0" y="433">Aug 3, 2021</tspan></text></g><g class="xtick"><text text-anchor="middle" x="0" y="433" transform="translate(159.76,0)" style="font-family: 'Open Sans', verdana, arial, sans-serif; font-size: 12px; fill: rgb(42, 63, 95); fill-opacity: 1; white-space: pre;">12:00</text></g><g class="xtick"><text text-anchor="middle" x="0" y="433" transform="translate(235.59,0)" style="font-family: 'Open Sans', verdana, arial, sans-serif; font-size: 12px; fill: rgb(42, 63, 95); fill-opacity: 1; white-space: pre;"><tspan class="line" dy="0em" x="0" y="433">00:00</tspan><tspan class="line" dy="1.3em" x="0" y="433">Aug 4, 2021</tspan></text></g><g class="xtick"><text text-anchor="middle" x="0" y="433" transform="translate(311.41999999999996,0)" style="font-family: 'Open Sans', verdana, arial, sans-serif; font-size: 12px; fill: rgb(42, 63, 95); fill-opacity: 1; white-space: pre;">12:00</text></g><g class="xtick"><text text-anchor="middle" x="0" y="433" transform="translate(387.25,0)" style="font-family: 'Open Sans', verdana, arial, sans-serif; font-size: 12px; fill: rgb(42, 63, 95); fill-opacity: 1; white-space: pre;"><tspan class="line" dy="0em" x="0" y="433">00:00</tspan><tspan class="line" dy="1.3em" x="0" y="433">Aug 5, 2021</tspan></text></g><g class="xtick"><text text-anchor="middle" x="0" y="433" transform="translate(463.08,0)" style="font-family: 'Open Sans', verdana, arial, sans-serif; font-size: 12px; fill: rgb(42, 63, 95); fill-opacity: 1; white-space: pre;">12:00</text></g><g class="xtick"><text text-anchor="middle" x="0" y="433" transform="translate(538.9,0)" style="font-family: 'Open Sans', verdana, arial, sans-serif; font-size: 12px; fill: rgb(42, 63, 95); fill-opacity: 1; white-space: pre;"><tspan class="line" dy="0em" x="0" y="433">00:00</tspan><tspan class="line" dy="1.3em" x="0" y="433">Aug 6, 2021</tspan></text></g><g class="xtick"><text text-anchor="middle" x="0" y="433" transform="translate(614.73,0)" style="font-family: 'Open Sans', verdana, arial, sans-serif; font-size: 12px; fill: rgb(42, 63, 95); fill-opacity: 1; white-space: pre;">12:00</text></g></g><g class="yaxislayer-above"><g class="ytick"><text text-anchor="end" x="79" y="4.199999999999999" transform="translate(0,392.55)" style="font-family: 'Open Sans', verdana, arial, sans-serif; font-size: 12px; fill: rgb(42, 63, 95); fill-opacity: 1; white-space: pre;">0.864</text></g><g class="ytick"><text text-anchor="end" x="79" y="4.199999999999999" transform="translate(0,349.77)" style="font-family: 'Open Sans', verdana, arial, sans-serif; font-size: 12px; fill: rgb(42, 63, 95); fill-opacity: 1; white-space: pre;">0.865</text></g><g class="ytick"><text text-anchor="end" x="79" y="4.199999999999999" transform="translate(0,306.99)" style="font-family: 'Open Sans', verdana, arial, sans-serif; font-size: 12px; fill: rgb(42, 63, 95); fill-opacity: 1; white-space: pre;">0.866</text></g><g class="ytick"><text text-anchor="end" x="79" y="4.199999999999999" transform="translate(0,264.21000000000004)" style="font-family: 'Open Sans', verdana, arial, sans-serif; font-size: 12px; fill: rgb(42, 63, 95); fill-opacity: 1; white-space: pre;">0.867</text></g><g class="ytick"><text text-anchor="end" x="79" y="4.199999999999999" transform="translate(0,221.43)" style="font-family: 'Open Sans', verdana, arial, sans-serif; font-size: 12px; fill: rgb(42, 63, 95); fill-opacity: 1; white-space: pre;">0.868</text></g><g class="ytick"><text text-anchor="end" x="79" y="4.199999999999999" transform="translate(0,178.65)" style="font-family: 'Open Sans', verdana, arial, sans-serif; font-size: 12px; fill: rgb(42, 63, 95); fill-opacity: 1; white-space: pre;">0.869</text></g><g class="ytick"><text text-anchor="end" x="79" y="4.199999999999999" transform="translate(0,135.87)" style="font-family: 'Open Sans', verdana, arial, sans-serif; font-size: 12px; fill: rgb(42, 63, 95); fill-opacity: 1; white-space: pre;">0.87</text></g></g><g class="overaxes-above"/></g></g><g class="polarlayer"/><g class="ternarylayer"/><g class="geolayer"/><g class="funnelarealayer"/><g class="pielayer"/><g class="treemaplayer"/><g class="sunburstlayer"/><g class="glimages"/><defs id="topdefs-5cbadf"><g class="clips"/><clipPath id="legend5cbadf"><rect width="60" height="45" x="0" y="0"/></clipPath></defs><g class="layer-above"><g class="imagelayer"/><g class="shapelayer"/></g><g class="infolayer"><g class="legend" pointer-events="all" transform="translate(627.74,100)"><rect class="bg" shape-rendering="crispEdges" width="60" height="45" x="0" y="0" style="stroke: rgb(68, 68, 68); stroke-opacity: 1; fill: rgb(255, 255, 255); fill-opacity: 1; stroke-width: 0px;"/><g class="scrollbox" transform="" clip-path="url('#legend5cbadf')"><text class="legendtitletext" text-anchor="start" x="2" y="15.600000000000001" style="font-family: 'Open Sans', verdana, arial, sans-serif; font-size: 12px; fill: rgb(42, 63, 95); fill-opacity: 1; white-space: pre;">All</text><g class="groups" transform=""><g class="traces" transform="translate(0,30.1)" style="opacity: 1;"><text class="legendtext" text-anchor="start" x="40" y="4.680000000000001" style="font-family: 'Open Sans', verdana, arial, sans-serif; font-size: 12px; fill: rgb(42, 63, 95); fill-opacity: 1; white-space: pre;">All</text><g class="layers" style="opacity: 1;"><g class="legendfill"/><g class="legendlines"><path class="js-line" d="M5,0h30" style="fill: none; stroke: rgb(99, 110, 250); stroke-opacity: 1; stroke-width: 2px;"/></g><g class="legendsymbols"><g class="legendpoints"/></g></g><rect class="legendtoggle" x="0" y="-9.5" width="54.890625" height="19" style="fill: rgb(0, 0, 0); fill-opacity: 0;"/></g></g></g><rect class="scrollbar" rx="20" ry="3" width="0" height="0" x="0" y="0" style="fill: rgb(128, 139, 164); fill-opacity: 1;"/></g><g class="g-gtitle"><text class="gtitle" x="35" y="50" text-anchor="start" dy="0em" style="font-family: 'Open Sans', verdana, arial, sans-serif; font-size: 17px; fill: rgb(42, 63, 95); opacity: 1; font-weight: normal; white-space: pre;">Singapore Vaccination Centers</text></g><g class="g-xtitle"><text class="xtitle" x="348.5" y="476.409375" text-anchor="middle" style="font-family: 'Open Sans', verdana, arial, sans-serif; font-size: 14px; fill: rgb(42, 63, 95); opacity: 1; font-weight: normal; white-space: pre;">Time</text></g><g class="g-ytitle"><text class="ytitle" transform="rotate(-90,19.840625000000003,260)" x="19.840625000000003" y="260" text-anchor="middle" style="font-family: 'Open Sans', verdana, arial, sans-serif; font-size: 14px; fill: rgb(42, 63, 95); opacity: 1; font-weight: normal; white-space: pre;">Filled/%</text></g></g></svg>