<svg class="main-svg" xmlns="http://www.w3.org/2000/svg" xmlns:xlink="http://www.w3.org/1999/xlink" width="700" height="500" style="" viewBox="0 0 700 500"><rect x="0" y="0" width="700" height="500" style="fill: rgb(255, 255, 255); fill-opacity: 1;"/><defs id="defs-575296"><g class="clips"><clipPath id="clip575296xyplot" class="plotclip"><rect width="537" height="320"/></clipPath><clipPath class="axesclip" id="clip575296x"><rect x="80" y="0" width="537" height="500"/></clipPath><clipPath class="axesclip" id="clip575296y"><rect x="0" y="100" width="700" height="320"/></clipPath><clipPath class="axesclip" id="clip575296xy"><rect x="80" y="100" width="537" height="320"/></clipPath></g><g class="gradients"/></defs><g class="bglayer"><rect class="bg" x="80" y="100" width="537" height="320" style="fill: rgb(229, 236, 246); fill-opacity: 1; stroke-width: 0;"/></g><g class="layer-below"><g class="imagelayer"/><g class="shapelayer"/></g><g class="cartesianlayer"><g class="subplot xy"><g class="layer-subplot"><g class="shapelayer"/><g class="imagelayer"/></g><g class="gridlayer"><g class="x"><path class="xgrid crisp" transform="translate(90.61,0)" d="M0,100v320" style="stroke: rgb(255, 255, 255); stroke-opacity: 1; stroke-width: 1px;"/><path class="xgrid crisp" transform="translate(204.93,0)" d="M0,100v320" style="stroke: rgb(255, 255, 255); stroke-opacity: 1; stroke-width: 1px;"/><path class="xgrid crisp" transform="translate(319.25,0)" d="M0,100v320" style="stroke: rgb(255, 255, 255); stroke-opacity: 1; stroke-width: 1px;"/><path class="xgrid crisp" transform="translate(433.57,0)" d="M0,100v320" style="stroke: rgb(255, 255, 255); stroke-opacity: 1; stroke-width: 1px;"/><path class="xgrid crisp" transform="translate(547.88,0)" d="M0,100v320" style="stroke: rgb(255, 255, 255); stroke-opacity: 1; stroke-width: 1px;"/></g><g class="y"><path class="ygrid crisp" transform="translate(0,367.23)" d="M80,0h537" style="stroke: rgb(255, 255, 255); stroke-opacity: 1; stroke-width: 1px;"/><path class="ygrid crisp" transform="translate(0,308.43)" d="M80,0h537" style="stroke: rgb(255, 255, 255); stroke-opacity: 1; stroke-width: 1px;"/><path class="ygrid crisp" transform="translate(0,249.63)" d="M80,0h537" style="stroke: rgb(255, 255, 255); stroke-opacity: 1; stroke-width: 1px;"/><path class="ygrid crisp" transform="translate(0,190.82999999999998)" d="M80,0h537" style="stroke: rgb(255, 255, 255); stroke-opacity: 1; stroke-width: 1px;"/><path class="ygrid crisp" transform="translate(0,132.03)" d="M80,0h537" style="stroke: rgb(255, 255, 255); stroke-opacity: 1; stroke-width: 1px;"/></g></g><g class="zerolinelayer"/><path class="xlines-below"/><path class="ylines-below"/><g class="overlines-below"/><g class="xaxislayer-below"/><g class="yaxislayer-below"/><g class="overaxes-below"/><g class="plot" transform="translate(80,100)" clip-path="url('#clip575296xyplot')"><g class="scatterlayer mlayer"><g class="trace scatter trace963469" style="stroke-miterlimit: 2; opacity: 1;"><g class="fills"/><g class="errorbars"/><g class="lines"><path class="js-line" d="M0,82.28L6.7,82.51L9.08,120.48L13.82,120.57L15.58,136.92L16.32,136.9L33.85,137.96L34.94,121.23L35.27,129.62L36.07,129.56L37.66,126.37L38.45,126.27L40.04,129.79L40.83,129.7L42.42,132.71L43.21,132.63L44.8,120.69L45.6,120.62L47.18,132.64L47.98,132.55L49.56,126.68L50.36,123.32L51.95,113.21L52.74,109.51L54.33,94.58L55.12,92.89L56.71,74.17L57.5,72.87L59.09,78.78L59.88,77.73L61.47,63.68L62.26,62.82L63.85,65.47L64.64,64.83L66.23,74.27L67.03,73.83L68.07,51.83L69.41,52.34L70.2,52.21L79.73,51.77L80.52,51.77L90.05,50.91L90.84,50.65L118.63,42.03L119.42,41.83L124.19,40.95L124.98,41.79L138.47,41.47L139.27,41.46L151.17,40.8L151.97,40.69L181.34,36.83L182.14,35.53L213.1,34L213.89,33.87L238.5,31.05L239.3,28.56L266.29,27.81L267.09,95.38L275.84,93.57L276.61,93.44L277.41,93.12L278.2,91.51L280.58,88.51L281.38,87.52L285.34,73.59L286.14,72.39L290.9,67.88L291.69,67.37L295.66,65.43L296.46,65.5L302.02,64.8L302.81,64.77L320.27,63.66L321.07,63.48L326.62,61.32L327.42,60.89L328.21,60.46L329.01,62.78L332.18,61.15L332.98,59.94L337.74,53.24L338.53,52.44L341.71,47.98L342.5,45.51L345.68,38.66L346.47,37.65L351.23,32.89L352.05,32.47L354.41,31.98L355.2,31.8L361.55,31.18L362.35,31.16L374.26,30.17L375.05,29.9L379.81,28.09L380.61,74.81L382.2,73.22L382.99,72.76L391.72,68.8L392.33,71.93L393.27,68.25L393.31,69.25L394.07,67.95L394.11,68.94L394.9,68.62L396.49,68.09L397.28,76.43L404.23,73.91L404.26,72.31L404.3,72.03L404.43,73.74L411.97,44.74L412.36,44.87L412.76,41.95L413.55,42.12L413.95,43.2L415.14,37.43L415.54,41.6L416.73,39.66L417.13,39.05L418.32,38.13L418.71,38.96L419.11,38.26L419.51,38.53L419.91,38.42L421.1,38.4L421.49,43.02L425.86,41.69L426.26,36.5L427.05,35.76L427.44,35.39L428.63,33.79L429.03,33.41L432.21,22.43L432.6,16L433,16.8L433.4,140.18L433.8,139.22L434.19,142.07L434.99,136.79L435.39,138.99L436.18,136.15L436.58,136.63L436.97,141.25L437.37,146.68L437.77,133.42L438.56,138.09L438.96,157.2L440.15,133.53L440.54,145.44L440.94,148.42L441.34,146.68L441.74,144.02L442.53,134.36L442.93,135.71L443.32,141.84L443.72,146.05L444.12,142.1L444.51,141.74L444.91,151.77L445.7,140.84L446.1,148.68L446.89,127.07L447.29,137.58L448.09,140.49L448.48,138.92L449.28,130.34L449.67,131.67L450.07,129.31L450.47,138.25L450.87,134.05L451.26,138.68L451.66,138.81L452.05,131.49L452.45,131.42L452.85,140.05L453.64,132.48L454.04,138.41L454.83,141.46L455.23,128.79L456.03,142.96L456.42,264.58L457.22,292.55L457.62,293.12L458.01,304L458.41,286.22L458.8,301.52L459.2,291.75L459.6,292.1L459.99,291.07L460.39,294.16L460.79,293.46L461.19,276.02L461.58,283.67L461.98,262.28L462.77,272.54L463.17,248.89L463.96,241.71L464.36,229.6L464.76,224.98L465.15,228.24L465.55,227.36L466.74,215.22L467.14,217.06L467.54,216.4L467.93,227.08L468.33,226.08L468.73,228.38L469.13,228.68L469.52,224.72L469.92,233.57L470.31,224.28L471.11,227.75L471.51,223.07L472.3,226.33L472.7,223.26L473.09,224.52L473.49,234.01L473.89,220.81L474.29,231.91L474.68,224.2L477.06,212.72L477.46,220.76L478.26,220.72L478.65,223.7L479.05,223.67L479.44,219.37L479.84,223.08L480.24,218.62L480.63,226.76L481.03,225.2L481.43,224.19L481.83,219.51L482.22,225.16L483.41,225.11L483.81,216.49L484.21,225.05L484.61,220.43L485,220.57L485.4,218.19L485.8,220.92L486.2,219.84L486.59,227.36L486.98,216.65L487.38,220.1L487.78,220.01L488.57,220.98L488.97,218.78L489.76,223.64L490.16,218.66L490.56,205.85L490.96,215.25L491.35,220.32L491.75,206.18L492.14,206.81L492.54,214.16L492.94,214.11L493.34,206.99L494.14,212.47L494.53,202.23L494.93,199.24L495.33,208.71L495.72,224.84L496.11,215.2L496.51,214.49L496.91,205.74L497.31,219.6L498.1,195.82L498.5,209.77L498.89,208.24L499.29,203.32L499.69,202.05L500.08,205.17L500.48,200.81L500.88,208.16L501.27,206.35L501.67,209.96L502.07,207.44L502.46,196.45L502.86,195.36L503.26,196.45L504.06,209.39L504.45,202.33L504.85,210.92L505.24,197.09L505.64,197.31L506.04,191.05L506.43,191.24L506.83,196.07L507.23,200.65L507.62,194.37L508.82,210.5L509.21,204.27L510.01,191.94L510.4,193.62L510.8,197L511.2,205.03L511.59,197.14L511.99,198.57L512.39,192.99L513.58,184.28L513.98,189.51L514.77,194.59L515.17,189.23L515.56,191.91L515.96,189.81L516.36,182.31L516.76,187.7L517.15,187L517.55,183.28L517.95,186.18L518.34,185.69L518.75,181.61L519.14,182.61L519.54,186.54L520.33,187.68L520.73,186.58L521.12,181.49L521.52,187.81L522.31,185.81L522.71,187.22L523.11,189.17L523.51,187L524.7,194.82L525.1,189.57L525.49,183.36L525.89,189.2L526.28,186.45L526.68,187.34L527.08,187.88L527.47,187.85L527.87,183.53L529.06,187.65L529.46,184.59L530.25,184.25L530.65,185.71L531.44,187.3L531.84,187.29L532.63,197.68L533.03,195.53L533.43,195.52L533.82,190.33L534.22,190.33L534.62,186.49L536.21,194.95L536.6,194.95L537,195.4" style="vector-effect: non-scaling-stroke; fill: none; stroke: rgb(99, 110, 250); stroke-opacity: 1; stroke-width: 2px; opacity: 1;"/></g><g class="points"/><g class="text"/></g></g></g><g class="overplot"/><path class="xlines-above crisp" d="M0,0" style="fill: none;"/><path class="ylines-above crisp" d="M0,0" style="fill: none;"/><g class="overlines-above"/><g class="xaxislayer-above"><g class="xtick"><text text-anchor="middle" x="0" y="433" transform="translate(90.61,0)" style="font-family: 'Open Sans', verdana, arial, sans-serif; font-size: 12px; fill: rgb(42, 63, 95); fill-opacity: 1; white-space: pre;"><tspan class="line" dy="0em" x="0" y="433">Jun 4</tspan><tspan class="line" dy="1.3em" x="0" y="433">2021</tspan></text></g><g class="xtick"><text text-anchor="middle" x="0" y="433" transform="translate(204.93,0)" style="font-family: 'Open Sans', verdana, arial, sans-serif; font-size: 12px; fill: rgb(42, 63, 95); fill-opacity: 1; white-space: pre;">Jun 6</text></g><g class="xtick"><text text-anchor="middle" x="0" y="433" transform="translate(319.25,0)" style="font-family: 'Open Sans', verdana, arial, sans-serif; font-size: 12px; fill: rgb(42, 63, 95); fill-opacity: 1; white-space: pre;">Jun 8</text></g><g class="xtick"><text text-anchor="middle" x="0" y="433" transform="translate(433.57,0)" style="font-family: 'Open Sans', verdana, arial, sans-serif; font-size: 12px; fill: rgb(42, 63, 95); fill-opacity: 1; white-space: pre;">Jun 10</text></g><g class="xtick"><text text-anchor="middle" x="0" y="433" transform="translate(547.88,0)" style="font-family: 'Open Sans', verdana, arial, sans-serif; font-size: 12px; fill: rgb(42, 63, 95); fill-opacity: 1; white-space: pre;">Jun 12</text></g></g><g class="yaxislayer-above"><g class="ytick"><text text-anchor="end" x="79" y="4.199999999999999" transform="translate(0,367.23)" style="font-family: 'Open Sans', verdana, arial, sans-serif; font-size: 12px; fill: rgb(42, 63, 95); fill-opacity: 1; white-space: pre;">0.8</text></g><g class="ytick"><text text-anchor="end" x="79" y="4.199999999999999" transform="translate(0,308.43)" style="font-family: 'Open Sans', verdana, arial, sans-serif; font-size: 12px; fill: rgb(42, 63, 95); fill-opacity: 1; white-space: pre;">0.82</text></g><g class="ytick"><text text-anchor="end" x="79" y="4.199999999999999" transform="translate(0,249.63)" style="font-family: 'Open Sans', verdana, arial, sans-serif; font-size: 12px; fill: rgb(42, 63, 95); fill-opacity: 1; white-space: pre;">0.84</text></g><g class="ytick"><text text-anchor="end" x="79" y="4.199999999999999" transform="translate(0,190.82999999999998)" style="font-family: 'Open Sans', verdana, arial, sans-serif; font-size: 12px; fill: rgb(42, 63, 95); fill-opacity: 1; white-space: pre;">0.86</text></g><g class="ytick"><text text-anchor="end" x="79" y="4.199999999999999" transform="translate(0,132.03)" style="font-family: 'Open Sans', verdana, arial, sans-serif; font-size: 12px; fill: rgb(42, 63, 95); fill-opacity: 1; white-space: pre;">0.88</text></g></g><g class="overaxes-above"/></g></g><g class="polarlayer"/><g class="ternarylayer"/><g class="geolayer"/><g class="funnelarealayer"/><g class="pielayer"/><g class="treemaplayer"/><g class="sunburstlayer"/><g class="glimages"/><defs id="topdefs-575296"><g class="clips"/><clipPath id="legend575296"><rect width="60" height="45" x="0" y="0"/></clipPath></defs><g class="layer-above"><g class="imagelayer"/><g class="shapelayer"/></g><g class="infolayer"><g class="legend" pointer-events="all" transform="translate(627.74,100)"><rect class="bg" shape-rendering="crispEdges" width="60" height="45" x="0" y="0" style="stroke: rgb(68, 68, 68); stroke-opacity: 1; fill: rgb(255, 255, 255); fill-opacity: 1; stroke-width: 0px;"/><g class="scrollbox" transform="" clip-path="url('#legend575296')"><text class="legendtitletext" text-anchor="start" x="2" y="15.600000000000001" style="font-family: 'Open Sans', verdana, arial, sans-serif; font-size: 12px; fill: rgb(42, 63, 95); fill-opacity: 1; white-space: pre;">All</text><g class="groups" transform=""><g class="traces" transform="translate(0,30.1)" style="opacity: 1;"><text class="legendtext" text-anchor="start" x="40" y="4.680000000000001" style="font-family: 'Open Sans', verdana, arial, sans-serif; font-size: 12px; fill: rgb(42, 63, 95); fill-opacity: 1; white-space: pre;">All</text><g class="layers" style="opacity: 1;"><g class="legendfill"/><g class="legendlines"><path class="js-line" d="M5,0h30" style="fill: none; stroke: rgb(99, 110, 250); stroke-opacity: 1; stroke-width: 2px;"/></g><g class="legendsymbols"><g class="legendpoints"/></g></g><rect class="legendtoggle" x="0" y="-9.5" width="54.890625" height="19" style="fill: rgb(0, 0, 0); fill-opacity: 0;"/></g></g></g><rect class="scrollbar" rx="20" ry="3" width="0" height="0" x="0" y="0" style="fill: rgb(128, 139, 164); fill-opacity: 1;"/></g><g class="g-gtitle"><text class="gtitle" x="35" y="50" text-anchor="start" dy="0em" style="font-family: 'Open Sans', verdana, arial, sans-serif; font-size: 17px; fill: rgb(42, 63, 95); opacity: 1; font-weight: normal; white-space: pre;">Singapore Vaccination Centers</text></g><g class="g-xtitle"><text class="xtitle" x="348.5" y="476.409375" text-anchor="middle" style="font-family: 'Open Sans', verdana, arial, sans-serif; font-size: 14px; fill: rgb(42, 63, 95); opacity: 1; font-weight: normal; white-space: pre;">Time</text></g><g class="g-ytitle"><text class="ytitle" transform="rotate(-90,27.481250000000003,260)" x="27.481250000000003" y="260" text-anchor="middle" style="font-family: 'Open Sans', verdana, arial, sans-serif; font-size: 14px; fill: rgb(42, 63, 95); opacity: 1; font-weight: normal; white-space: pre;">Filled/%</text></g></g></svg>