<svg class="main-svg" xmlns="http://www.w3.org/2000/svg" xmlns:xlink="http://www.w3.org/1999/xlink" width="700" height="500" style="" viewBox="0 0 700 500"><rect x="0" y="0" width="700" height="500" style="fill: rgb(255, 255, 255); fill-opacity: 1;"/><defs id="defs-5ad3ad"><g class="clips"><clipPath id="clip5ad3adxyplot" class="plotclip"><rect width="537" height="320"/></clipPath><clipPath class="axesclip" id="clip5ad3adx"><rect x="80" y="0" width="537" height="500"/></clipPath><clipPath class="axesclip" id="clip5ad3ady"><rect x="0" y="100" width="700" height="320"/></clipPath><clipPath class="axesclip" id="clip5ad3adxy"><rect x="80" y="100" width="537" height="320"/></clipPath></g><g class="gradients"/></defs><g class="bglayer"><rect class="bg" x="80" y="100" width="537" height="320" style="fill: rgb(229, 236, 246); fill-opacity: 1; stroke-width: 0;"/></g><g class="layer-below"><g class="imagelayer"/><g class="shapelayer"/></g><g class="cartesianlayer"><g class="subplot xy"><g class="layer-subplot"><g class="shapelayer"/><g class="imagelayer"/></g><g class="gridlayer"><g class="x"><path class="xgrid crisp" transform="translate(83.17,0)" d="M0,100v320" style="stroke: rgb(255, 255, 255); stroke-opacity: 1; stroke-width: 1px;"/><path class="xgrid crisp" transform="translate(205.16,0)" d="M0,100v320" style="stroke: rgb(255, 255, 255); stroke-opacity: 1; stroke-width: 1px;"/><path class="xgrid crisp" transform="translate(327.14,0)" d="M0,100v320" style="stroke: rgb(255, 255, 255); stroke-opacity: 1; stroke-width: 1px;"/><path class="xgrid crisp" transform="translate(449.13,0)" d="M0,100v320" style="stroke: rgb(255, 255, 255); stroke-opacity: 1; stroke-width: 1px;"/><path class="xgrid crisp" transform="translate(571.12,0)" d="M0,100v320" style="stroke: rgb(255, 255, 255); stroke-opacity: 1; stroke-width: 1px;"/></g><g class="y"><path class="ygrid crisp" transform="translate(0,392.55)" d="M80,0h537" style="stroke: rgb(255, 255, 255); stroke-opacity: 1; stroke-width: 1px;"/><path class="ygrid crisp" transform="translate(0,349.77)" d="M80,0h537" style="stroke: rgb(255, 255, 255); stroke-opacity: 1; stroke-width: 1px;"/><path class="ygrid crisp" transform="translate(0,306.99)" d="M80,0h537" style="stroke: rgb(255, 255, 255); stroke-opacity: 1; stroke-width: 1px;"/><path class="ygrid crisp" transform="translate(0,264.21000000000004)" d="M80,0h537" style="stroke: rgb(255, 255, 255); stroke-opacity: 1; stroke-width: 1px;"/><path class="ygrid crisp" transform="translate(0,221.43)" d="M80,0h537" style="stroke: rgb(255, 255, 255); stroke-opacity: 1; stroke-width: 1px;"/><path class="ygrid crisp" transform="translate(0,178.65)" d="M80,0h537" style="stroke: rgb(255, 255, 255); stroke-opacity: 1; stroke-width: 1px;"/><path class="ygrid crisp" transform="translate(0,135.87)" d="M80,0h537" style="stroke: rgb(255, 255, 255); stroke-opacity: 1; stroke-width: 1px;"/></g></g><g class="zerolinelayer"/><path class="xlines-below"/><path class="ylines-below"/><g class="overlines-below"/><g class="xaxislayer-below"/><g class="yaxislayer-below"/><g class="overaxes-below"/><g class="plot" transform="translate(80,100)" clip-path="url('#clip5ad3adxyplot')"><g class="scatterlayer mlayer"><g class="trace scatter trace62927e" style="stroke-miterlimit: 2; opacity: 1;"><g class="fills"/><g class="errorbars"/><g class="lines"><path class="js-line" d="M0,304L2.44,302.59L3.29,249.74L4.14,251.04L4.99,249.35L8.37,248.71L9.22,248.32L10.91,249.1L11.76,248.19L13.46,248.58L14.3,248.19L15.99,247.93L16.84,247.67L18.54,247.41L19.39,247.16L26.17,246.77L27.01,246.51L32.09,246.12L32.94,245.73L34.64,245.86L35.48,245.22L37.17,245.09L38.02,244.44L38.87,244.96L39.72,244.57L40.56,243.66L41.41,243.92L42.26,244.57L43.11,243.02L45.64,242.11L46.49,242.63L47.34,242.24L48.19,243.15L49.03,242.24L49.88,240.17L51.57,240.69L52.42,239.78L55.81,237.84L56.66,236.94L58.35,238.23L59.2,237.07L60.04,235L60.89,235.51L61.74,236.55L62.58,235L64.28,232.67L65.13,232.28L66.83,230.6L67.67,231.12L69.36,229.95L70.21,230.21L71.06,231.76L71.9,229.56L74.45,230.6L75.3,230.21L76.99,226.46L77.84,226.07L78.69,226.85L79.53,225.55L80.38,225.68L81.22,227.36L82.07,227.11L82.92,225.55L86.31,221.16L87.15,218.44L88,219.09L88.85,217.66L89.7,216.63L90.54,217.4L92.24,217.66L93.08,218.7L96.48,216.5L97.32,216.37L99.02,215.72L99.87,214.69L100.71,214.3L101.56,214.82L103.25,215.98L104.1,214.43L106.64,213.39L107.49,212.88L109.18,212.23L110.03,211.45L112.57,212.23L113.42,211.84L115.11,211.58L115.96,211.84L117.65,210.42L118.5,208.87L120.2,207.7L121.04,206.93L122.73,207.96L123.58,207.44L124.43,207.96L125.28,142.27L127.82,140.18L128.67,140.44L130.36,139.92L131.21,139.01L132.9,139.14L133.75,139.14L137.14,138.48L137.98,138.35L140.53,137.83L141.37,137.96L149,137.96L149.85,138.09L155.77,137.83L156.62,137.18L159.16,137.18L160.01,136.14L163.39,136.27L164.25,135.74L165.94,135.88L166.78,135.22L168.48,134.57L169.33,135.22L172.71,132.22L173.56,133.27L176.11,131.57L176.95,132.22L180.34,128.44L181.19,130.14L184.57,127.14L185.43,128.05L187.12,126.48L187.96,127.66L188.81,128.7L189.66,127.79L190.51,128.83L191.35,128.31L192.2,127.4L193.05,128.44L193.89,127.79L194.74,128.18L197.28,128.83L198.13,128.44L199.84,126.48L200.68,125.05L202.38,124.92L203.23,125.44L204.07,125.96L204.92,124.01L208.31,123.09L209.16,121.4L212.55,121.92L213.39,120.61L214.24,118.4L215.09,119.96L215.94,119.96L216.78,118.79L217.63,119.7L218.47,119.18L220.17,117.35L221.02,117.48L223.56,114.35L224.41,114.48L226.1,112.14L226.95,112.92L228.64,110.83L229.49,111.35L232.03,110.7L232.88,108.09L233.72,107.96L234.57,106.92L235.42,105.48L236.27,105.74L237.11,106L237.96,107.18L238.81,107.83L239.65,107.18L240.51,109.13L241.35,108.35L242.2,108.22L243.04,106.66L243.89,106.27L244.74,106.79L246.43,107.05L247.28,61.25L248.97,59.41L249.82,59.15L252.36,57.57L253.21,57.17L254.9,57.04L255.75,56.78L259.14,55.46L259.99,54.54L261.68,54.28L262.53,54.81L265.92,53.75L266.76,53.62L268.46,53.62L269.3,53.75L282.86,51.78L283.7,52.18L286.24,51.12L287.09,51.25L287.94,51.52L288.78,50.73L293.87,50.07L295.56,49.54L296.41,48.23L298.1,47.83L299.79,47.44L300.64,45.73L301.49,46.91L302.34,45.73L304.03,45.73L304.88,45.07L305.73,44.94L306.57,43.76L309.11,43.49L309.96,41.91L311.65,40.2L312.5,39.42L313.33,38.1L314.17,38.76L316.71,37.71L317.56,36L320.95,35.34L321.79,33.36L322.64,32.71L323.49,33.23L325.18,32.44L326.03,32.05L326.88,31.92L327.72,30.86L329.42,30.86L330.26,31.39L331.96,32.97L332.81,31.13L334.5,32.31L335.36,30.34L337.05,30.47L337.89,30.86L340.43,29.02L341.28,29.42L342.97,27.71L343.82,26.66L344.67,24.16L345.52,24.68L346.36,23.24L347.21,24.68L348.91,22.84L349.75,22.58L350.6,21.26L351.44,21.66L353.14,21.79L353.98,20.74L354.83,21.26L355.68,19.68L357.37,19.55L358.22,18.5L361.61,18.89L362.46,17.97L363.3,17.45L364.15,17.84L365,17.97L365.85,17.05L366.7,16L367.54,16.66L368.39,16.39L369.24,171.81L373.47,171.4L374.32,172.08L376.86,170.99L377.71,170.99L379.41,169.76L380.25,169.76L381.94,168.94L382.79,169.08L397.2,168.39L398.04,167.98L409.05,165.8L409.9,165.12L414.13,164.02L414.98,162.66L418.4,162.38L419.24,163.61L420.94,161.7L421.79,161.57L422.63,160.88L423.48,158.43L424.32,156.51L425.17,156.79L426.02,156.1L426.87,154.33L427.72,154.88L428.56,154.19L430.26,154.33L431.11,153.37L432.8,152.69L433.65,153.65L436.19,150.92L437.03,151.87L439.58,149.14L440.42,149.14L441.27,148.32L442.12,149.41L443.81,150.37L444.66,149.41L445.51,149.55L446.36,148.73L449.75,145.18L450.59,144.5L453.13,143.54L453.98,145.04L459.06,141.9L459.91,143.68L460.76,121.97L461.61,121.97L464.15,120.88L464.99,116.1L465.84,116.24L466.68,112.28L467.53,112.55L468.38,109.96L469.23,106.95L470.08,107.91L471.77,104.77L472.61,101.22L473.47,98.08L474.31,98.08L475.16,97.53L476.01,95.35L476.85,94.8L477.7,92.07L479.39,89.34L480.24,89.34L481.94,85.93L482.78,85.65L485.32,82.78L486.17,80.19L490.41,75L491.26,88.44L495.5,84.03L496.34,84.45L497.19,84.31L498.03,85.14L499.73,84.72L500.58,85.41L502.27,84.59L503.11,84.45L504.81,84.03L505.66,84.03L507.35,84.17L508.2,83.62L514.13,84.03L514.98,83.62L520.06,83.21L520.91,83.48L524.29,83.48L525.14,83.35L526.83,83.35L527.68,83.35L530.22,83.35L531.07,83.9L535.3,79.9L536.15,80.18L537,79.49" style="vector-effect: non-scaling-stroke; fill: none; stroke: rgb(99, 110, 250); stroke-opacity: 1; stroke-width: 2px; opacity: 1;"/></g><g class="points"/><g class="text"/></g></g></g><g class="overplot"/><path class="xlines-above crisp" d="M0,0" style="fill: none;"/><path class="ylines-above crisp" d="M0,0" style="fill: none;"/><g class="overlines-above"/><g class="xaxislayer-above"><g class="xtick"><text text-anchor="middle" x="0" y="433" transform="translate(83.17,0)" style="font-family: 'Open Sans', verdana, arial, sans-serif; font-size: 12px; fill: rgb(42, 63, 95); fill-opacity: 1; white-space: pre;"><tspan class="line" dy="0em" x="0" y="433">Aug 3</tspan><tspan class="line" dy="1.3em" x="0" y="433">2021</tspan></text></g><g class="xtick"><text text-anchor="middle" x="0" y="433" transform="translate(205.16,0)" style="font-family: 'Open Sans', verdana, arial, sans-serif; font-size: 12px; fill: rgb(42, 63, 95); fill-opacity: 1; white-space: pre;">Aug 4</text></g><g class="xtick"><text text-anchor="middle" x="0" y="433" transform="translate(327.14,0)" style="font-family: 'Open Sans', verdana, arial, sans-serif; font-size: 12px; fill: rgb(42, 63, 95); fill-opacity: 1; white-space: pre;">Aug 5</text></g><g class="xtick"><text text-anchor="middle" x="0" y="433" transform="translate(449.13,0)" style="font-family: 'Open Sans', verdana, arial, sans-serif; font-size: 12px; fill: rgb(42, 63, 95); fill-opacity: 1; white-space: pre;">Aug 6</text></g><g class="xtick"><text text-anchor="middle" x="0" y="433" transform="translate(571.12,0)" style="font-family: 'Open Sans', verdana, arial, sans-serif; font-size: 12px; fill: rgb(42, 63, 95); fill-opacity: 1; white-space: pre;">Aug 7</text></g></g><g class="yaxislayer-above"><g class="ytick"><text text-anchor="end" x="79" y="4.199999999999999" transform="translate(0,392.55)" style="font-family: 'Open Sans', verdana, arial, sans-serif; font-size: 12px; fill: rgb(42, 63, 95); fill-opacity: 1; white-space: pre;">0.864</text></g><g class="ytick"><text text-anchor="end" x="79" y="4.199999999999999" transform="translate(0,349.77)" style="font-family: 'Open Sans', verdana, arial, sans-serif; font-size: 12px; fill: rgb(42, 63, 95); fill-opacity: 1; white-space: pre;">0.865</text></g><g class="ytick"><text text-anchor="end" x="79" y="4.199999999999999" transform="translate(0,306.99)" style="font-family: 'Open Sans', verdana, arial, sans-serif; font-size: 12px; fill: rgb(42, 63, 95); fill-opacity: 1; white-space: pre;">0.866</text></g><g class="ytick"><text text-anchor="end" x="79" y="4.199999999999999" transform="translate(0,264.21000000000004)" style="font-family: 'Open Sans', verdana, arial, sans-serif; font-size: 12px; fill: rgb(42, 63, 95); fill-opacity: 1; white-space: pre;">0.867</text></g><g class="ytick"><text text-anchor="end" x="79" y="4.199999999999999" transform="translate(0,221.43)" style="font-family: 'Open Sans', verdana, arial, sans-serif; font-size: 12px; fill: rgb(42, 63, 95); fill-opacity: 1; white-space: pre;">0.868</text></g><g class="ytick"><text text-anchor="end" x="79" y="4.199999999999999" transform="translate(0,178.65)" style="font-family: 'Open Sans', verdana, arial, sans-serif; font-size: 12px; fill: rgb(42, 63, 95); fill-opacity: 1; white-space: pre;">0.869</text></g><g class="ytick"><text text-anchor="end" x="79" y="4.199999999999999" transform="translate(0,135.87)" style="font-family: 'Open Sans', verdana, arial, sans-serif; font-size: 12px; fill: rgb(42, 63, 95); fill-opacity: 1; white-space: pre;">0.87</text></g></g><g class="overaxes-above"/></g></g><g class="polarlayer"/><g class="ternarylayer"/><g class="geolayer"/><g class="funnelarealayer"/><g class="pielayer"/><g class="treemaplayer"/><g class="sunburstlayer"/><g class="glimages"/><defs id="topdefs-5ad3ad"><g class="clips"/><clipPath id="legend5ad3ad"><rect width="60" height="45" x="0" y="0"/></clipPath></defs><g class="layer-above"><g class="imagelayer"/><g class="shapelayer"/></g><g class="infolayer"><g class="legend" pointer-events="all" transform="translate(627.74,100)"><rect class="bg" shape-rendering="crispEdges" width="60" height="45" x="0" y="0" style="stroke: rgb(68, 68, 68); stroke-opacity: 1; fill: rgb(255, 255, 255); fill-opacity: 1; stroke-width: 0px;"/><g class="scrollbox" transform="" clip-path="url('#legend5ad3ad')"><text class="legendtitletext" text-anchor="start" x="2" y="15.600000000000001" style="font-family: 'Open Sans', verdana, arial, sans-serif; font-size: 12px; fill: rgb(42, 63, 95); fill-opacity: 1; white-space: pre;">All</text><g class="groups" transform=""><g class="traces" transform="translate(0,30.1)" style="opacity: 1;"><text class="legendtext" text-anchor="start" x="40" y="4.680000000000001" style="font-family: 'Open Sans', verdana, arial, sans-serif; font-size: 12px; fill: rgb(42, 63, 95); fill-opacity: 1; white-space: pre;">All</text><g class="layers" style="opacity: 1;"><g class="legendfill"/><g class="legendlines"><path class="js-line" d="M5,0h30" style="fill: none; stroke: rgb(99, 110, 250); stroke-opacity: 1; stroke-width: 2px;"/></g><g class="legendsymbols"><g class="legendpoints"/></g></g><rect class="legendtoggle" x="0" y="-9.5" width="54.890625" height="19" style="fill: rgb(0, 0, 0); fill-opacity: 0;"/></g></g></g><rect class="scrollbar" rx="20" ry="3" width="0" height="0" x="0" y="0" style="fill: rgb(128, 139, 164); fill-opacity: 1;"/></g><g class="g-gtitle"><text class="gtitle" x="35" y="50" text-anchor="start" dy="0em" style="font-family: 'Open Sans', verdana, arial, sans-serif; font-size: 17px; fill: rgb(42, 63, 95); opacity: 1; font-weight: normal; white-space: pre;">Singapore Vaccination Centers</text></g><g class="g-xtitle"><text class="xtitle" x="348.5" y="476.409375" text-anchor="middle" style="font-family: 'Open Sans', verdana, arial, sans-serif; font-size: 14px; fill: rgb(42, 63, 95); opacity: 1; font-weight: normal; white-space: pre;">Time</text></g><g class="g-ytitle"><text class="ytitle" transform="rotate(-90,19.840625000000003,260)" x="19.840625000000003" y="260" text-anchor="middle" style="font-family: 'Open Sans', verdana, arial, sans-serif; font-size: 14px; fill: rgb(42, 63, 95); opacity: 1; font-weight: normal; white-space: pre;">Filled/%</text></g></g></svg>