<svg class="main-svg" xmlns="http://www.w3.org/2000/svg" xmlns:xlink="http://www.w3.org/1999/xlink" width="700" height="500" style="" viewBox="0 0 700 500"><rect x="0" y="0" width="700" height="500" style="fill: rgb(255, 255, 255); fill-opacity: 1;"/><defs id="defs-9d5063"><g class="clips"><clipPath id="clip9d5063xyplot" class="plotclip"><rect width="537" height="320"/></clipPath><clipPath class="axesclip" id="clip9d5063x"><rect x="80" y="0" width="537" height="500"/></clipPath><clipPath class="axesclip" id="clip9d5063y"><rect x="0" y="100" width="700" height="320"/></clipPath><clipPath class="axesclip" id="clip9d5063xy"><rect x="80" y="100" width="537" height="320"/></clipPath></g><g class="gradients"/></defs><g class="bglayer"><rect class="bg" x="80" y="100" width="537" height="320" style="fill: rgb(229, 236, 246); fill-opacity: 1; stroke-width: 0;"/></g><g class="layer-below"><g class="imagelayer"/><g class="shapelayer"/></g><g class="cartesianlayer"><g class="subplot xy"><g class="layer-subplot"><g class="shapelayer"/><g class="imagelayer"/></g><g class="gridlayer"><g class="x"><path class="xgrid crisp" transform="translate(84.49,0)" d="M0,100v320" style="stroke: rgb(255, 255, 255); stroke-opacity: 1; stroke-width: 1px;"/><path class="xgrid crisp" transform="translate(171.01,0)" d="M0,100v320" style="stroke: rgb(255, 255, 255); stroke-opacity: 1; stroke-width: 1px;"/><path class="xgrid crisp" transform="translate(257.53999999999996,0)" d="M0,100v320" style="stroke: rgb(255, 255, 255); stroke-opacity: 1; stroke-width: 1px;"/><path class="xgrid crisp" transform="translate(344.06,0)" d="M0,100v320" style="stroke: rgb(255, 255, 255); stroke-opacity: 1; stroke-width: 1px;"/><path class="xgrid crisp" transform="translate(430.59,0)" d="M0,100v320" style="stroke: rgb(255, 255, 255); stroke-opacity: 1; stroke-width: 1px;"/><path class="xgrid crisp" transform="translate(517.11,0)" d="M0,100v320" style="stroke: rgb(255, 255, 255); stroke-opacity: 1; stroke-width: 1px;"/><path class="xgrid crisp" transform="translate(603.63,0)" d="M0,100v320" style="stroke: rgb(255, 255, 255); stroke-opacity: 1; stroke-width: 1px;"/></g><g class="y"><path class="ygrid crisp" transform="translate(0,392.55)" d="M80,0h537" style="stroke: rgb(255, 255, 255); stroke-opacity: 1; stroke-width: 1px;"/><path class="ygrid crisp" transform="translate(0,349.77)" d="M80,0h537" style="stroke: rgb(255, 255, 255); stroke-opacity: 1; stroke-width: 1px;"/><path class="ygrid crisp" transform="translate(0,306.99)" d="M80,0h537" style="stroke: rgb(255, 255, 255); stroke-opacity: 1; stroke-width: 1px;"/><path class="ygrid crisp" transform="translate(0,264.21000000000004)" d="M80,0h537" style="stroke: rgb(255, 255, 255); stroke-opacity: 1; stroke-width: 1px;"/><path class="ygrid crisp" transform="translate(0,221.43)" d="M80,0h537" style="stroke: rgb(255, 255, 255); stroke-opacity: 1; stroke-width: 1px;"/><path class="ygrid crisp" transform="translate(0,178.65)" d="M80,0h537" style="stroke: rgb(255, 255, 255); stroke-opacity: 1; stroke-width: 1px;"/><path class="ygrid crisp" transform="translate(0,135.87)" d="M80,0h537" style="stroke: rgb(255, 255, 255); stroke-opacity: 1; stroke-width: 1px;"/></g></g><g class="zerolinelayer"/><path class="xlines-below"/><path class="ylines-below"/><g class="overlines-below"/><g class="xaxislayer-below"/><g class="yaxislayer-below"/><g class="overaxes-below"/><g class="plot" transform="translate(80,100)" clip-path="url('#clip9d5063xyplot')"><g class="scatterlayer mlayer"><g class="trace scatter trace84f6b2" style="stroke-miterlimit: 2; opacity: 1;"><g class="fills"/><g class="errorbars"/><g class="lines"><path class="js-line" d="M0,304L3.46,302.59L4.67,249.74L5.87,251.04L7.07,249.35L11.87,248.71L13.08,248.32L15.48,249.1L16.69,248.19L17.92,248.84L19.09,248.58L23.89,247.67L25.1,247.93L28.7,247.16L29.9,246.9L34.71,247.29L35.91,246.9L41.92,246.77L43.12,246.77L46.73,245.73L47.93,245.99L52.73,245.09L53.93,244.44L55.14,244.96L56.34,244.57L57.54,243.66L58.74,243.92L59.95,244.57L61.15,243.02L64.75,242.11L65.95,242.63L67.15,242.24L68.36,243.15L69.55,242.24L70.76,240.17L73.16,240.69L74.36,239.78L79.17,237.84L80.37,236.94L82.77,238.23L83.98,237.07L85.17,235L86.38,235.51L87.58,236.55L88.78,235L91.19,232.67L92.39,232.28L94.8,230.6L96,231.12L98.39,229.95L99.6,230.21L100.8,231.76L102,229.56L105.61,230.6L106.81,230.21L109.22,226.46L110.42,226.07L111.62,226.85L112.82,225.55L114.02,225.68L115.22,227.36L116.42,227.11L117.63,225.55L122.43,221.16L123.63,218.44L124.84,219.09L126.04,217.66L127.24,216.63L128.44,217.4L130.84,217.66L132.04,218.7L136.86,216.5L138.05,216.37L140.46,215.72L141.66,214.69L142.86,214.3L144.07,214.82L145.27,215.98L146.46,215.98L148.87,213.78L150.07,213.52L153.68,212.75L154.88,212.23L156.08,211.45L157.28,211.84L163.29,211.58L164.5,211.84L166.89,210.42L168.1,208.87L169.3,207.7L170.5,207.7L171.71,206.93L172.91,207.83L176.51,207.96L177.72,142.27L181.32,140.18L182.52,140.44L184.93,139.92L186.13,139.01L188.53,139.14L189.73,139.14L194.54,138.48L195.73,138.35L199.34,137.83L200.55,137.96L211.36,137.96L212.57,138.09L220.97,137.83L222.18,137.18L225.78,137.18L226.98,136.14L231.78,136.27L232.99,135.74L235.39,135.88L236.59,135.22L239,134.57L240.2,135.22L243.8,132.22L245,132.22L246.21,133.27L247.4,132.88L249.81,131.57L251.02,132.22L254.61,130.14L255.82,128.44L257.02,130.14L258.22,129.35L261.83,127.14L263.03,128.05L265.43,126.48L266.63,127.66L267.84,128.7L269.04,127.79L270.24,128.83L271.44,128.31L272.64,127.4L273.84,128.44L275.05,127.79L276.25,128.18L279.85,128.83L281.06,128.44L283.48,126.48L284.68,125.05L287.08,124.92L288.29,125.44L289.49,125.96L290.69,124.01L295.5,123.09L296.7,121.4L300.31,122.44L301.51,121.92L303.91,118.4L305.11,119.96L306.32,119.96L307.52,118.79L308.72,119.7L309.91,119.18L312.32,117.35L313.52,117.48L317.13,114.35L318.33,114.48L320.74,112.14L321.93,112.92L324.34,110.83L325.54,111.35L329.14,110.7L330.35,108.09L331.55,107.96L332.74,106.92L333.95,105.48L335.15,105.74L336.36,106L337.55,107.18L338.77,107.83L339.96,107.18L341.17,109.13L342.36,108.35L343.57,108.22L344.76,106.66L345.97,106.27L347.17,106.79L349.57,107.05L350.78,61.25L353.18,59.41L354.38,59.15L357.99,57.57L359.19,57.17L361.59,57.04L362.79,56.78L367.6,55.46L368.8,54.54L371.21,54.28L372.41,54.81L376.01,53.62L377.22,53.75L391.63,52.44L392.83,52.7L397.64,51.78L398.84,52.04L401.24,51.78L402.45,52.18L406.05,51.12L407.25,51.25L408.46,51.52L409.65,50.73L416.86,50.07L419.26,49.54L420.47,48.23L422.87,47.83L425.27,47.44L426.48,45.73L427.68,46.91L428.88,45.73L431.29,45.73L432.48,45.07L433.69,44.94L434.89,43.76L438.49,43.49L439.7,41.91L442.1,40.2L443.3,39.42L444.47,38.1L445.66,38.76L448.06,37.31L449.27,37.71L450.47,36L451.66,35.73L452.87,35.21L454.07,35.6L455.28,35.34L456.47,33.36L457.68,32.71L458.88,33.23L461.28,32.44L462.49,32.05L463.69,31.92L464.89,30.86L467.29,30.86L468.49,31.39L470.9,32.97L472.11,31.13L474.51,32.31L475.73,30.34L478.12,30.47L479.32,30.86L482.92,29.02L484.12,29.42L486.52,27.71L487.73,26.66L488.93,24.16L490.14,24.68L491.33,23.24L492.53,24.68L493.73,23.1L494.94,22.84L496.14,22.58L497.34,21.26L500.95,21.79L502.14,20.74L503.35,21.26L504.55,19.68L506.95,19.55L508.16,18.5L512.96,18.89L514.16,17.97L515.36,17.45L516.57,17.84L517.77,17.97L518.97,17.05L520.18,16L521.37,16.66L522.58,16.39L523.78,171.81L529.79,171.4L530.99,172.08L534.6,170.99L535.8,170.99L537,169.89" style="vector-effect: non-scaling-stroke; fill: none; stroke: rgb(99, 110, 250); stroke-opacity: 1; stroke-width: 2px; opacity: 1;"/></g><g class="points"/><g class="text"/></g></g></g><g class="overplot"/><path class="xlines-above crisp" d="M0,0" style="fill: none;"/><path class="ylines-above crisp" d="M0,0" style="fill: none;"/><g class="overlines-above"/><g class="xaxislayer-above"><g class="xtick"><text text-anchor="middle" x="0" y="433" transform="translate(84.49,0)" style="font-family: 'Open Sans', verdana, arial, sans-serif; font-size: 12px; fill: rgb(42, 63, 95); fill-opacity: 1; white-space: pre;"><tspan class="line" dy="0em" x="0" y="433">00:00</tspan><tspan class="line" dy="1.3em" x="0" y="433">Aug 3, 2021</tspan></text></g><g class="xtick"><text text-anchor="middle" x="0" y="433" transform="translate(171.01,0)" style="font-family: 'Open Sans', verdana, arial, sans-serif; font-size: 12px; fill: rgb(42, 63, 95); fill-opacity: 1; white-space: pre;">12:00</text></g><g class="xtick"><text text-anchor="middle" x="0" y="433" transform="translate(257.53999999999996,0)" style="font-family: 'Open Sans', verdana, arial, sans-serif; font-size: 12px; fill: rgb(42, 63, 95); fill-opacity: 1; white-space: pre;"><tspan class="line" dy="0em" x="0" y="433">00:00</tspan><tspan class="line" dy="1.3em" x="0" y="433">Aug 4, 2021</tspan></text></g><g class="xtick"><text text-anchor="middle" x="0" y="433" transform="translate(344.06,0)" style="font-family: 'Open Sans', verdana, arial, sans-serif; font-size: 12px; fill: rgb(42, 63, 95); fill-opacity: 1; white-space: pre;">12:00</text></g><g class="xtick"><text text-anchor="middle" x="0" y="433" transform="translate(430.59,0)" style="font-family: 'Open Sans', verdana, arial, sans-serif; font-size: 12px; fill: rgb(42, 63, 95); fill-opacity: 1; white-space: pre;"><tspan class="line" dy="0em" x="0" y="433">00:00</tspan><tspan class="line" dy="1.3em" x="0" y="433">Aug 5, 2021</tspan></text></g><g class="xtick"><text text-anchor="middle" x="0" y="433" transform="translate(517.11,0)" style="font-family: 'Open Sans', verdana, arial, sans-serif; font-size: 12px; fill: rgb(42, 63, 95); fill-opacity: 1; white-space: pre;">12:00</text></g><g class="xtick"><text text-anchor="middle" x="0" y="433" transform="translate(603.63,0)" style="font-family: 'Open Sans', verdana, arial, sans-serif; font-size: 12px; fill: rgb(42, 63, 95); fill-opacity: 1; white-space: pre;"><tspan class="line" dy="0em" x="0" y="433">00:00</tspan><tspan class="line" dy="1.3em" x="0" y="433">Aug 6, 2021</tspan></text></g></g><g class="yaxislayer-above"><g class="ytick"><text text-anchor="end" x="79" y="4.199999999999999" transform="translate(0,392.55)" style="font-family: 'Open Sans', verdana, arial, sans-serif; font-size: 12px; fill: rgb(42, 63, 95); fill-opacity: 1; white-space: pre;">0.864</text></g><g class="ytick"><text text-anchor="end" x="79" y="4.199999999999999" transform="translate(0,349.77)" style="font-family: 'Open Sans', verdana, arial, sans-serif; font-size: 12px; fill: rgb(42, 63, 95); fill-opacity: 1; white-space: pre;">0.865</text></g><g class="ytick"><text text-anchor="end" x="79" y="4.199999999999999" transform="translate(0,306.99)" style="font-family: 'Open Sans', verdana, arial, sans-serif; font-size: 12px; fill: rgb(42, 63, 95); fill-opacity: 1; white-space: pre;">0.866</text></g><g class="ytick"><text text-anchor="end" x="79" y="4.199999999999999" transform="translate(0,264.21000000000004)" style="font-family: 'Open Sans', verdana, arial, sans-serif; font-size: 12px; fill: rgb(42, 63, 95); fill-opacity: 1; white-space: pre;">0.867</text></g><g class="ytick"><text text-anchor="end" x="79" y="4.199999999999999" transform="translate(0,221.43)" style="font-family: 'Open Sans', verdana, arial, sans-serif; font-size: 12px; fill: rgb(42, 63, 95); fill-opacity: 1; white-space: pre;">0.868</text></g><g class="ytick"><text text-anchor="end" x="79" y="4.199999999999999" transform="translate(0,178.65)" style="font-family: 'Open Sans', verdana, arial, sans-serif; font-size: 12px; fill: rgb(42, 63, 95); fill-opacity: 1; white-space: pre;">0.869</text></g><g class="ytick"><text text-anchor="end" x="79" y="4.199999999999999" transform="translate(0,135.87)" style="font-family: 'Open Sans', verdana, arial, sans-serif; font-size: 12px; fill: rgb(42, 63, 95); fill-opacity: 1; white-space: pre;">0.87</text></g></g><g class="overaxes-above"/></g></g><g class="polarlayer"/><g class="ternarylayer"/><g class="geolayer"/><g class="funnelarealayer"/><g class="pielayer"/><g class="treemaplayer"/><g class="sunburstlayer"/><g class="glimages"/><defs id="topdefs-9d5063"><g class="clips"/><clipPath id="legend9d5063"><rect width="60" height="45" x="0" y="0"/></clipPath></defs><g class="layer-above"><g class="imagelayer"/><g class="shapelayer"/></g><g class="infolayer"><g class="legend" pointer-events="all" transform="translate(627.74,100)"><rect class="bg" shape-rendering="crispEdges" width="60" height="45" x="0" y="0" style="stroke: rgb(68, 68, 68); stroke-opacity: 1; fill: rgb(255, 255, 255); fill-opacity: 1; stroke-width: 0px;"/><g class="scrollbox" transform="" clip-path="url('#legend9d5063')"><text class="legendtitletext" text-anchor="start" x="2" y="15.600000000000001" style="font-family: 'Open Sans', verdana, arial, sans-serif; font-size: 12px; fill: rgb(42, 63, 95); fill-opacity: 1; white-space: pre;">All</text><g class="groups" transform=""><g class="traces" transform="translate(0,30.1)" style="opacity: 1;"><text class="legendtext" text-anchor="start" x="40" y="4.680000000000001" style="font-family: 'Open Sans', verdana, arial, sans-serif; font-size: 12px; fill: rgb(42, 63, 95); fill-opacity: 1; white-space: pre;">All</text><g class="layers" style="opacity: 1;"><g class="legendfill"/><g class="legendlines"><path class="js-line" d="M5,0h30" style="fill: none; stroke: rgb(99, 110, 250); stroke-opacity: 1; stroke-width: 2px;"/></g><g class="legendsymbols"><g class="legendpoints"/></g></g><rect class="legendtoggle" x="0" y="-9.5" width="54.890625" height="19" style="fill: rgb(0, 0, 0); fill-opacity: 0;"/></g></g></g><rect class="scrollbar" rx="20" ry="3" width="0" height="0" x="0" y="0" style="fill: rgb(128, 139, 164); fill-opacity: 1;"/></g><g class="g-gtitle"><text class="gtitle" x="35" y="50" text-anchor="start" dy="0em" style="font-family: 'Open Sans', verdana, arial, sans-serif; font-size: 17px; fill: rgb(42, 63, 95); opacity: 1; font-weight: normal; white-space: pre;">Singapore Vaccination Centers</text></g><g class="g-xtitle"><text class="xtitle" x="348.5" y="476.409375" text-anchor="middle" style="font-family: 'Open Sans', verdana, arial, sans-serif; font-size: 14px; fill: rgb(42, 63, 95); opacity: 1; font-weight: normal; white-space: pre;">Time</text></g><g class="g-ytitle"><text class="ytitle" transform="rotate(-90,19.840625000000003,260)" x="19.840625000000003" y="260" text-anchor="middle" style="font-family: 'Open Sans', verdana, arial, sans-serif; font-size: 14px; fill: rgb(42, 63, 95); opacity: 1; font-weight: normal; white-space: pre;">Filled/%</text></g></g></svg>