<svg class="main-svg" xmlns="http://www.w3.org/2000/svg" xmlns:xlink="http://www.w3.org/1999/xlink" width="700" height="500" style="" viewBox="0 0 700 500"><rect x="0" y="0" width="700" height="500" style="fill: rgb(255, 255, 255); fill-opacity: 1;"/><defs id="defs-b8c746"><g class="clips"><clipPath id="clipb8c746xyplot" class="plotclip"><rect width="537" height="320"/></clipPath><clipPath class="axesclip" id="clipb8c746x"><rect x="80" y="0" width="537" height="500"/></clipPath><clipPath class="axesclip" id="clipb8c746y"><rect x="0" y="100" width="700" height="320"/></clipPath><clipPath class="axesclip" id="clipb8c746xy"><rect x="80" y="100" width="537" height="320"/></clipPath></g><g class="gradients"/></defs><g class="bglayer"><rect class="bg" x="80" y="100" width="537" height="320" style="fill: rgb(229, 236, 246); fill-opacity: 1; stroke-width: 0;"/></g><g class="layer-below"><g class="imagelayer"/><g class="shapelayer"/></g><g class="cartesianlayer"><g class="subplot xy"><g class="layer-subplot"><g class="shapelayer"/><g class="imagelayer"/></g><g class="gridlayer"><g class="x"><path class="xgrid crisp" transform="translate(82.63,0)" d="M0,100v320" style="stroke: rgb(255, 255, 255); stroke-opacity: 1; stroke-width: 1px;"/><path class="xgrid crisp" transform="translate(183.86,0)" d="M0,100v320" style="stroke: rgb(255, 255, 255); stroke-opacity: 1; stroke-width: 1px;"/><path class="xgrid crisp" transform="translate(285.09000000000003,0)" d="M0,100v320" style="stroke: rgb(255, 255, 255); stroke-opacity: 1; stroke-width: 1px;"/><path class="xgrid crisp" transform="translate(386.31,0)" d="M0,100v320" style="stroke: rgb(255, 255, 255); stroke-opacity: 1; stroke-width: 1px;"/><path class="xgrid crisp" transform="translate(487.54,0)" d="M0,100v320" style="stroke: rgb(255, 255, 255); stroke-opacity: 1; stroke-width: 1px;"/><path class="xgrid crisp" transform="translate(588.77,0)" d="M0,100v320" style="stroke: rgb(255, 255, 255); stroke-opacity: 1; stroke-width: 1px;"/></g><g class="y"><path class="ygrid crisp" transform="translate(0,392.55)" d="M80,0h537" style="stroke: rgb(255, 255, 255); stroke-opacity: 1; stroke-width: 1px;"/><path class="ygrid crisp" transform="translate(0,349.77)" d="M80,0h537" style="stroke: rgb(255, 255, 255); stroke-opacity: 1; stroke-width: 1px;"/><path class="ygrid crisp" transform="translate(0,306.99)" d="M80,0h537" style="stroke: rgb(255, 255, 255); stroke-opacity: 1; stroke-width: 1px;"/><path class="ygrid crisp" transform="translate(0,264.21000000000004)" d="M80,0h537" style="stroke: rgb(255, 255, 255); stroke-opacity: 1; stroke-width: 1px;"/><path class="ygrid crisp" transform="translate(0,221.43)" d="M80,0h537" style="stroke: rgb(255, 255, 255); stroke-opacity: 1; stroke-width: 1px;"/><path class="ygrid crisp" transform="translate(0,178.65)" d="M80,0h537" style="stroke: rgb(255, 255, 255); stroke-opacity: 1; stroke-width: 1px;"/><path class="ygrid crisp" transform="translate(0,135.87)" d="M80,0h537" style="stroke: rgb(255, 255, 255); stroke-opacity: 1; stroke-width: 1px;"/></g></g><g class="zerolinelayer"/><path class="xlines-below"/><path class="ylines-below"/><g class="overlines-below"/><g class="xaxislayer-below"/><g class="yaxislayer-below"/><g class="overaxes-below"/><g class="plot" transform="translate(80,100)" clip-path="url('#clipb8c746xyplot')"><g class="scatterlayer mlayer"><g class="trace scatter tracedf826e" style="stroke-miterlimit: 2; opacity: 1;"><g class="fills"/><g class="errorbars"/><g class="lines"><path class="js-line" d="M0,304L2.03,302.59L2.73,249.74L3.43,251.04L4.14,249.35L6.95,248.71L7.65,248.32L9.06,249.1L9.76,248.19L11.17,248.58L11.87,248.19L13.27,247.93L13.98,247.67L15.38,247.41L16.09,247.16L21.71,246.77L22.41,246.51L26.63,246.12L27.33,245.73L28.74,245.86L29.44,245.22L30.85,245.09L31.55,244.44L32.96,244.57L33.66,243.66L35.07,244.57L35.77,243.02L37.88,242.11L38.58,242.63L39.28,242.24L39.99,243.15L41.39,240.17L42.09,240.69L42.8,240.69L43.5,239.78L46.31,237.84L47.02,236.94L48.42,238.23L49.13,237.07L49.83,235L50.53,235.51L51.23,236.55L51.93,235L53.34,232.67L54.05,232.28L55.45,230.6L56.16,231.12L57.56,229.95L58.26,230.21L58.97,231.76L59.67,229.56L61.78,230.6L62.48,230.21L64.59,226.07L65.29,226.85L66.7,225.68L67.4,227.36L68.11,227.11L68.81,225.55L71.62,221.16L72.32,218.44L73.03,219.09L73.73,217.66L74.43,216.63L75.14,217.4L76.54,217.66L77.24,218.7L80.06,216.5L80.76,216.37L82.17,215.72L82.87,214.69L83.57,214.3L84.28,214.82L85.68,215.98L86.38,214.43L88.49,213.39L89.2,212.88L90.6,212.23L91.31,211.45L93.41,212.23L94.11,211.84L95.52,211.58L96.23,211.84L97.63,210.42L98.34,208.87L99.74,207.7L100.45,206.93L101.85,207.96L102.55,207.44L103.25,207.96L103.96,142.27L106.07,140.18L106.77,140.44L108.18,139.92L108.88,139.01L110.29,139.14L110.99,139.14L113.8,138.48L114.5,138.35L116.61,137.83L117.31,137.96L123.64,137.96L124.35,138.09L129.26,137.83L129.97,137.18L132.08,137.18L132.78,136.14L135.59,136.27L136.29,135.74L137.7,135.88L138.4,135.22L139.81,134.57L140.51,135.22L143.32,132.22L144.03,133.27L146.14,131.57L146.84,132.22L149.65,128.44L150.35,130.14L153.16,127.14L153.87,128.05L155.27,126.48L155.98,127.66L156.68,128.7L157.38,127.79L158.09,128.83L158.79,128.31L159.49,127.4L160.19,128.44L160.9,127.79L161.6,128.18L163.71,128.83L164.41,128.44L167.23,124.79L167.94,124.92L169.34,125.96L170.05,124.01L172.86,123.09L173.56,121.4L176.37,121.92L177.08,120.61L177.78,118.4L178.48,119.96L179.19,119.96L179.89,118.79L180.59,119.7L181.29,119.18L182.7,117.35L183.4,117.48L185.51,114.35L186.22,114.48L187.62,112.14L188.32,112.92L189.73,110.83L190.44,111.35L192.54,110.7L193.24,108.09L193.95,107.96L194.65,106.92L196.06,105.74L196.76,106L198.17,107.83L198.87,107.18L199.58,109.13L200.28,108.35L200.98,108.22L201.68,106.66L202.38,106.27L203.09,106.79L204.49,107.05L205.2,61.25L207.3,59.15L208.01,58.88L212.22,56.78L212.93,56.52L215.74,54.54L216.44,54.28L218.55,54.41L219.26,53.75L222.77,53.62L223.47,53.75L234.72,51.78L235.42,52.18L237.53,51.12L238.23,51.25L238.94,51.52L239.64,50.73L243.86,50.07L245.26,49.54L245.97,48.23L247.37,47.83L248.78,47.44L249.48,45.73L250.18,46.91L250.89,45.73L252.29,45.73L252.99,45.07L253.7,44.94L254.4,43.76L256.51,43.49L257.21,41.91L258.62,40.2L259.32,39.42L260,38.1L260.7,38.76L262.81,37.71L263.51,36L266.33,35.34L267.03,33.36L267.73,32.71L268.44,33.23L269.84,32.44L270.55,32.05L271.25,31.92L271.95,30.86L273.36,30.86L274.06,31.39L275.46,32.97L276.17,31.13L277.58,32.31L278.29,30.34L279.69,30.47L280.39,30.86L282.5,29.02L283.2,29.42L284.61,27.71L285.31,26.66L286.01,24.16L286.72,24.68L287.42,23.24L288.12,24.68L289.53,22.84L290.23,22.58L290.93,21.26L291.63,21.66L293.04,21.79L293.74,20.74L294.45,21.26L295.15,19.68L296.56,19.55L297.26,18.5L300.07,18.89L300.77,17.97L302.18,17.84L302.89,17.97L304.29,16L304.99,16.66L305.7,16.39L306.4,171.81L309.91,171.4L310.62,172.08L312.73,170.99L313.43,170.99L314.84,169.76L315.54,169.76L316.94,168.94L317.65,169.08L329.6,168.39L330.3,167.98L339.43,165.8L340.14,165.12L343.66,164.02L344.36,162.66L347.19,162.38L347.9,163.61L349.3,161.7L350.01,161.57L350.71,160.88L351.41,158.43L352.11,156.51L352.82,156.79L353.52,156.1L354.22,154.33L354.93,154.88L355.63,154.19L357.04,154.33L357.74,153.37L359.14,152.69L359.85,153.65L361.96,150.92L362.66,151.87L364.77,149.14L365.47,149.14L366.17,148.32L366.88,149.41L368.28,150.37L368.99,149.41L369.69,149.55L370.4,148.73L373.21,145.18L373.91,144.5L376.01,143.54L376.72,145.04L380.94,141.9L381.64,143.68L383.05,121.97L383.75,121.56L385.16,120.88L385.86,116.1L386.56,116.24L387.26,112.28L387.97,112.55L388.67,109.96L389.37,106.95L390.08,107.91L392.18,101.22L392.89,98.08L394.3,97.53L395,95.35L395.7,94.8L396.41,92.07L397.81,89.34L398.51,89.34L400.62,85.65L401.33,84.7L402.73,82.78L403.43,80.19L406.95,75L407.65,88.44L411.17,84.03L411.87,84.45L412.58,84.31L413.28,85.14L414.68,84.72L415.39,85.41L416.79,84.59L417.49,84.45L418.9,84.03L419.6,84.03L421.01,84.17L421.71,83.62L426.63,84.03L427.34,83.62L431.56,83.21L432.26,83.48L435.06,83.48L435.77,83.35L437.18,83.35L437.88,83.35L439.99,83.35L440.69,83.9L444.2,79.9L444.91,80.18L447.02,78.8L447.72,78.94L448.43,78.53L449.13,76.87L450.53,77.15L451.23,75.63L454.75,72.47L455.45,72.88L457.56,69.44L458.26,69.02L460.37,66.41L461.08,66.41L462.48,63.79L463.18,63.79L464.59,61.86L465.3,59.66L467.41,54.29L468.11,54.43L469.51,53.6L470.22,51.4L473.03,49.47L473.73,47.82L477.95,46.85L478.65,45.75L479.36,46.16L480.06,45.48L480.76,45.89L486.39,41.21L489.9,38.59L490.6,39.28L493.42,35.97L494.12,35.84L494.82,34.46L495.52,35.01L496.93,33.91L497.64,34.18L498.34,35.28L499.04,34.32L501.85,32.94L502.56,33.91L505.37,33.22L506.07,32.12L508.18,29.78L508.88,81.26L510.29,81.68L510.99,80.56L511.69,79.86L512.39,80.42L514.5,80.42L515.21,81.4L517.32,81.12L518.02,81.12L521.54,81.4L522.24,81.12L525.05,79.86L525.76,80.28L532.78,79.58L533.49,79.58L537,80" style="vector-effect: non-scaling-stroke; fill: none; stroke: rgb(99, 110, 250); stroke-opacity: 1; stroke-width: 2px; opacity: 1;"/></g><g class="points"/><g class="text"/></g></g></g><g class="overplot"/><path class="xlines-above crisp" d="M0,0" style="fill: none;"/><path class="ylines-above crisp" d="M0,0" style="fill: none;"/><g class="overlines-above"/><g class="xaxislayer-above"><g class="xtick"><text text-anchor="middle" x="0" y="433" transform="translate(82.63,0)" style="font-family: 'Open Sans', verdana, arial, sans-serif; font-size: 12px; fill: rgb(42, 63, 95); fill-opacity: 1; white-space: pre;"><tspan class="line" dy="0em" x="0" y="433">Aug 3</tspan><tspan class="line" dy="1.3em" x="0" y="433">2021</tspan></text></g><g class="xtick"><text text-anchor="middle" x="0" y="433" transform="translate(183.86,0)" style="font-family: 'Open Sans', verdana, arial, sans-serif; font-size: 12px; fill: rgb(42, 63, 95); fill-opacity: 1; white-space: pre;">Aug 4</text></g><g class="xtick"><text text-anchor="middle" x="0" y="433" transform="translate(285.09000000000003,0)" style="font-family: 'Open Sans', verdana, arial, sans-serif; font-size: 12px; fill: rgb(42, 63, 95); fill-opacity: 1; white-space: pre;">Aug 5</text></g><g class="xtick"><text text-anchor="middle" x="0" y="433" transform="translate(386.31,0)" style="font-family: 'Open Sans', verdana, arial, sans-serif; font-size: 12px; fill: rgb(42, 63, 95); fill-opacity: 1; white-space: pre;">Aug 6</text></g><g class="xtick"><text text-anchor="middle" x="0" y="433" transform="translate(487.54,0)" style="font-family: 'Open Sans', verdana, arial, sans-serif; font-size: 12px; fill: rgb(42, 63, 95); fill-opacity: 1; white-space: pre;">Aug 7</text></g><g class="xtick"><text text-anchor="middle" x="0" y="433" transform="translate(588.77,0)" style="font-family: 'Open Sans', verdana, arial, sans-serif; font-size: 12px; fill: rgb(42, 63, 95); fill-opacity: 1; white-space: pre;">Aug 8</text></g></g><g class="yaxislayer-above"><g class="ytick"><text text-anchor="end" x="79" y="4.199999999999999" transform="translate(0,392.55)" style="font-family: 'Open Sans', verdana, arial, sans-serif; font-size: 12px; fill: rgb(42, 63, 95); fill-opacity: 1; white-space: pre;">0.864</text></g><g class="ytick"><text text-anchor="end" x="79" y="4.199999999999999" transform="translate(0,349.77)" style="font-family: 'Open Sans', verdana, arial, sans-serif; font-size: 12px; fill: rgb(42, 63, 95); fill-opacity: 1; white-space: pre;">0.865</text></g><g class="ytick"><text text-anchor="end" x="79" y="4.199999999999999" transform="translate(0,306.99)" style="font-family: 'Open Sans', verdana, arial, sans-serif; font-size: 12px; fill: rgb(42, 63, 95); fill-opacity: 1; white-space: pre;">0.866</text></g><g class="ytick"><text text-anchor="end" x="79" y="4.199999999999999" transform="translate(0,264.21000000000004)" style="font-family: 'Open Sans', verdana, arial, sans-serif; font-size: 12px; fill: rgb(42, 63, 95); fill-opacity: 1; white-space: pre;">0.867</text></g><g class="ytick"><text text-anchor="end" x="79" y="4.199999999999999" transform="translate(0,221.43)" style="font-family: 'Open Sans', verdana, arial, sans-serif; font-size: 12px; fill: rgb(42, 63, 95); fill-opacity: 1; white-space: pre;">0.868</text></g><g class="ytick"><text text-anchor="end" x="79" y="4.199999999999999" transform="translate(0,178.65)" style="font-family: 'Open Sans', verdana, arial, sans-serif; font-size: 12px; fill: rgb(42, 63, 95); fill-opacity: 1; white-space: pre;">0.869</text></g><g class="ytick"><text text-anchor="end" x="79" y="4.199999999999999" transform="translate(0,135.87)" style="font-family: 'Open Sans', verdana, arial, sans-serif; font-size: 12px; fill: rgb(42, 63, 95); fill-opacity: 1; white-space: pre;">0.87</text></g></g><g class="overaxes-above"/></g></g><g class="polarlayer"/><g class="ternarylayer"/><g class="geolayer"/><g class="funnelarealayer"/><g class="pielayer"/><g class="treemaplayer"/><g class="sunburstlayer"/><g class="glimages"/><defs id="topdefs-b8c746"><g class="clips"/><clipPath id="legendb8c746"><rect width="60" height="45" x="0" y="0"/></clipPath></defs><g class="layer-above"><g class="imagelayer"/><g class="shapelayer"/></g><g class="infolayer"><g class="legend" pointer-events="all" transform="translate(627.74,100)"><rect class="bg" shape-rendering="crispEdges" width="60" height="45" x="0" y="0" style="stroke: rgb(68, 68, 68); stroke-opacity: 1; fill: rgb(255, 255, 255); fill-opacity: 1; stroke-width: 0px;"/><g class="scrollbox" transform="" clip-path="url('#legendb8c746')"><text class="legendtitletext" text-anchor="start" x="2" y="15.600000000000001" style="font-family: 'Open Sans', verdana, arial, sans-serif; font-size: 12px; fill: rgb(42, 63, 95); fill-opacity: 1; white-space: pre;">All</text><g class="groups" transform=""><g class="traces" transform="translate(0,30.1)" style="opacity: 1;"><text class="legendtext" text-anchor="start" x="40" y="4.680000000000001" style="font-family: 'Open Sans', verdana, arial, sans-serif; font-size: 12px; fill: rgb(42, 63, 95); fill-opacity: 1; white-space: pre;">All</text><g class="layers" style="opacity: 1;"><g class="legendfill"/><g class="legendlines"><path class="js-line" d="M5,0h30" style="fill: none; stroke: rgb(99, 110, 250); stroke-opacity: 1; stroke-width: 2px;"/></g><g class="legendsymbols"><g class="legendpoints"/></g></g><rect class="legendtoggle" x="0" y="-9.5" width="54.890625" height="19" style="fill: rgb(0, 0, 0); fill-opacity: 0;"/></g></g></g><rect class="scrollbar" rx="20" ry="3" width="0" height="0" x="0" y="0" style="fill: rgb(128, 139, 164); fill-opacity: 1;"/></g><g class="g-gtitle"><text class="gtitle" x="35" y="50" text-anchor="start" dy="0em" style="font-family: 'Open Sans', verdana, arial, sans-serif; font-size: 17px; fill: rgb(42, 63, 95); opacity: 1; font-weight: normal; white-space: pre;">Singapore Vaccination Centers</text></g><g class="g-xtitle"><text class="xtitle" x="348.5" y="476.409375" text-anchor="middle" style="font-family: 'Open Sans', verdana, arial, sans-serif; font-size: 14px; fill: rgb(42, 63, 95); opacity: 1; font-weight: normal; white-space: pre;">Time</text></g><g class="g-ytitle"><text class="ytitle" transform="rotate(-90,19.840625000000003,260)" x="19.840625000000003" y="260" text-anchor="middle" style="font-family: 'Open Sans', verdana, arial, sans-serif; font-size: 14px; fill: rgb(42, 63, 95); opacity: 1; font-weight: normal; white-space: pre;">Filled/%</text></g></g></svg>