<svg class="main-svg" xmlns="http://www.w3.org/2000/svg" xmlns:xlink="http://www.w3.org/1999/xlink" width="700" height="500" style="" viewBox="0 0 700 500"><rect x="0" y="0" width="700" height="500" style="fill: rgb(255, 255, 255); fill-opacity: 1;"/><defs id="defs-01390b"><g class="clips"><clipPath id="clip01390bxyplot" class="plotclip"><rect width="537" height="320"/></clipPath><clipPath class="axesclip" id="clip01390bx"><rect x="80" y="0" width="537" height="500"/></clipPath><clipPath class="axesclip" id="clip01390by"><rect x="0" y="100" width="700" height="320"/></clipPath><clipPath class="axesclip" id="clip01390bxy"><rect x="80" y="100" width="537" height="320"/></clipPath></g><g class="gradients"/></defs><g class="bglayer"><rect class="bg" x="80" y="100" width="537" height="320" style="fill: rgb(229, 236, 246); fill-opacity: 1; stroke-width: 0;"/></g><g class="layer-below"><g class="imagelayer"/><g class="shapelayer"/></g><g class="cartesianlayer"><g class="subplot xy"><g class="layer-subplot"><g class="shapelayer"/><g class="imagelayer"/></g><g class="gridlayer"><g class="x"><path class="xgrid crisp" transform="translate(84.87,0)" d="M0,100v320" style="stroke: rgb(255, 255, 255); stroke-opacity: 1; stroke-width: 1px;"/><path class="xgrid crisp" transform="translate(178.75,0)" d="M0,100v320" style="stroke: rgb(255, 255, 255); stroke-opacity: 1; stroke-width: 1px;"/><path class="xgrid crisp" transform="translate(272.63,0)" d="M0,100v320" style="stroke: rgb(255, 255, 255); stroke-opacity: 1; stroke-width: 1px;"/><path class="xgrid crisp" transform="translate(366.5,0)" d="M0,100v320" style="stroke: rgb(255, 255, 255); stroke-opacity: 1; stroke-width: 1px;"/><path class="xgrid crisp" transform="translate(460.38,0)" d="M0,100v320" style="stroke: rgb(255, 255, 255); stroke-opacity: 1; stroke-width: 1px;"/><path class="xgrid crisp" transform="translate(554.26,0)" d="M0,100v320" style="stroke: rgb(255, 255, 255); stroke-opacity: 1; stroke-width: 1px;"/></g><g class="y"><path class="ygrid crisp" transform="translate(0,392.27)" d="M80,0h537" style="stroke: rgb(255, 255, 255); stroke-opacity: 1; stroke-width: 1px;"/><path class="ygrid crisp" transform="translate(0,348.45)" d="M80,0h537" style="stroke: rgb(255, 255, 255); stroke-opacity: 1; stroke-width: 1px;"/><path class="ygrid crisp" transform="translate(0,304.63)" d="M80,0h537" style="stroke: rgb(255, 255, 255); stroke-opacity: 1; stroke-width: 1px;"/><path class="ygrid crisp" transform="translate(0,260.81)" d="M80,0h537" style="stroke: rgb(255, 255, 255); stroke-opacity: 1; stroke-width: 1px;"/><path class="ygrid crisp" transform="translate(0,216.99)" d="M80,0h537" style="stroke: rgb(255, 255, 255); stroke-opacity: 1; stroke-width: 1px;"/><path class="ygrid crisp" transform="translate(0,173.17000000000002)" d="M80,0h537" style="stroke: rgb(255, 255, 255); stroke-opacity: 1; stroke-width: 1px;"/><path class="ygrid crisp" transform="translate(0,129.35)" d="M80,0h537" style="stroke: rgb(255, 255, 255); stroke-opacity: 1; stroke-width: 1px;"/></g></g><g class="zerolinelayer"/><path class="xlines-below"/><path class="ylines-below"/><g class="overlines-below"/><g class="xaxislayer-below"/><g class="yaxislayer-below"/><g class="overaxes-below"/><g class="plot" transform="translate(80,100)" clip-path="url('#clip01390bxyplot')"><g class="scatterlayer mlayer"><g class="trace scatter tracef001c7" style="stroke-miterlimit: 2; opacity: 1;"><g class="fills"/><g class="errorbars"/><g class="lines"><path class="js-line" d="M0,304L3.76,302.55L5.06,248.42L6.37,249.75L7.67,248.03L12.88,247.36L14.19,246.97L16.8,247.76L18.1,246.83L19.44,247.5L20.71,247.23L25.92,246.3L27.23,246.57L31.14,245.77L32.45,245.51L37.66,245.91L38.97,245.51L45.48,245.38L46.78,245.38L50.7,244.32L52.01,244.58L57.21,243.65L58.51,242.99L59.83,243.52L61.13,243.12L62.43,242.2L63.73,242.46L65.04,243.12L66.34,241.53L70.25,240.61L71.55,241.14L72.86,240.74L74.17,241.67L75.46,240.74L76.78,238.62L79.38,239.15L80.68,238.22L85.9,236.23L87.2,235.31L89.8,236.63L91.12,235.44L92.41,233.32L93.72,233.85L95.02,234.91L96.32,233.32L98.94,230.93L100.24,230.54L102.85,228.81L104.15,229.34L106.76,228.15L108.06,228.42L109.37,230.01L110.67,227.75L114.59,228.81L115.89,228.42L118.5,224.57L119.8,224.18L121.1,224.97L122.41,223.65L123.71,223.78L125.01,225.5L126.32,225.24L127.62,223.65L132.84,219.14L134.14,216.36L135.45,217.02L136.75,215.56L138.06,214.5L139.36,215.3L141.96,215.56L143.27,216.62L148.49,214.37L149.79,214.24L152.4,213.58L153.7,212.52L155,212.12L156.31,212.65L157.62,213.84L158.91,213.84L161.52,211.59L162.83,211.32L166.74,210.53L168.04,210L169.35,209.2L170.65,209.6L177.17,209.33L178.48,209.6L181.08,208.14L182.39,206.55L183.69,205.36L184.99,205.36L186.3,204.56L187.6,205.49L191.51,205.62L192.82,138.33L196.73,136.19L198.03,136.46L200.64,135.93L201.94,134.99L204.55,135.13L205.86,135.13L211.07,134.46L212.37,134.32L216.28,133.79L217.59,133.92L229.32,133.92L230.63,134.06L239.75,133.79L241.06,133.12L244.96,133.12L246.27,132.05L251.48,132.19L252.79,131.65L255.39,131.79L256.69,131.12L259.31,130.45L260.61,131.12L264.52,128.04L265.82,128.04L267.13,129.11L268.43,128.71L271.04,127.38L272.35,128.04L276.25,125.91L277.56,124.17L278.86,125.91L280.17,125.1L284.08,122.83L285.39,123.77L287.99,122.16L289.29,123.37L290.6,124.44L291.9,123.5L293.21,124.57L294.51,124.04L295.81,123.1L297.12,124.17L298.42,123.5L299.72,123.9L302.33,124.97L303.64,124.57L306.26,123.37L307.57,122.16L308.87,120.7L310.18,120.43L312.78,121.1L314.09,121.63L315.39,119.63L316.69,119.36L320.61,118.69L321.91,116.95L325.83,118.02L327.13,117.49L329.73,113.88L331.04,115.48L332.35,115.48L333.65,114.28L334.95,115.22L336.25,114.68L338.86,112.81L340.17,112.95L344.08,109.74L345.38,109.87L347.99,107.47L349.29,108.27L351.9,106.13L353.21,106.67L357.11,106L358.42,103.33L359.72,103.19L361.02,102.12L362.33,100.65L363.63,100.92L364.94,101.19L366.24,102.39L367.55,103.06L368.85,102.39L370.16,104.39L371.46,103.59L372.76,103.46L374.06,101.86L375.37,101.45L376.67,101.99L379.28,102.26L380.59,55.35L383.19,53.46L384.49,53.19L387.1,52.52L388.41,51.57L392.32,51.03L393.62,50.76L398.84,49.42L400.14,48.47L402.75,48.2L404.05,48.74L407.97,47.53L409.27,47.67L424.91,46.32L426.21,46.59L431.43,45.64L432.74,45.91L435.34,45.64L436.65,46.05L440.56,44.97L441.85,45.11L443.17,45.37L444.46,44.57L452.29,43.89L454.89,43.35L456.2,42.01L458.8,41.6L461.41,41.2L462.72,39.45L464.02,40.66L465.33,39.45L467.94,39.45L469.24,38.77L470.55,38.64L471.84,37.42L475.75,37.16L477.06,35.54L478.37,34.06L479.67,33.79L482.24,31.63L483.53,32.3L486.14,30.82L487.45,31.23L488.75,29.47L490.05,29.21L491.36,28.67L492.66,29.07L493.97,28.8L495.27,26.78L496.58,26.11L497.88,26.65L500.48,25.84L501.79,25.43L503.1,25.3L504.4,24.22L507.01,24.22L508.3,24.76L510.91,26.38L512.23,24.49L514.83,25.7L516.15,23.68L518.75,23.82L520.05,24.22L523.96,22.33L525.27,22.74L527.87,20.99L529.17,19.91L530.48,17.35L531.79,17.89L533.08,16.4L534.39,17.89L535.69,16.27L537,16" style="vector-effect: non-scaling-stroke; fill: none; stroke: rgb(99, 110, 250); stroke-opacity: 1; stroke-width: 2px; opacity: 1;"/></g><g class="points"/><g class="text"/></g></g></g><g class="overplot"/><path class="xlines-above crisp" d="M0,0" style="fill: none;"/><path class="ylines-above crisp" d="M0,0" style="fill: none;"/><g class="overlines-above"/><g class="xaxislayer-above"><g class="xtick"><text text-anchor="middle" x="0" y="433" transform="translate(84.87,0)" style="font-family: 'Open Sans', verdana, arial, sans-serif; font-size: 12px; fill: rgb(42, 63, 95); fill-opacity: 1; white-space: pre;"><tspan class="line" dy="0em" x="0" y="433">00:00</tspan><tspan class="line" dy="1.3em" x="0" y="433">Aug 3, 2021</tspan></text></g><g class="xtick"><text text-anchor="middle" x="0" y="433" transform="translate(178.75,0)" style="font-family: 'Open Sans', verdana, arial, sans-serif; font-size: 12px; fill: rgb(42, 63, 95); fill-opacity: 1; white-space: pre;">12:00</text></g><g class="xtick"><text text-anchor="middle" x="0" y="433" transform="translate(272.63,0)" style="font-family: 'Open Sans', verdana, arial, sans-serif; font-size: 12px; fill: rgb(42, 63, 95); fill-opacity: 1; white-space: pre;"><tspan class="line" dy="0em" x="0" y="433">00:00</tspan><tspan class="line" dy="1.3em" x="0" y="433">Aug 4, 2021</tspan></text></g><g class="xtick"><text text-anchor="middle" x="0" y="433" transform="translate(366.5,0)" style="font-family: 'Open Sans', verdana, arial, sans-serif; font-size: 12px; fill: rgb(42, 63, 95); fill-opacity: 1; white-space: pre;">12:00</text></g><g class="xtick"><text text-anchor="middle" x="0" y="433" transform="translate(460.38,0)" style="font-family: 'Open Sans', verdana, arial, sans-serif; font-size: 12px; fill: rgb(42, 63, 95); fill-opacity: 1; white-space: pre;"><tspan class="line" dy="0em" x="0" y="433">00:00</tspan><tspan class="line" dy="1.3em" x="0" y="433">Aug 5, 2021</tspan></text></g><g class="xtick"><text text-anchor="middle" x="0" y="433" transform="translate(554.26,0)" style="font-family: 'Open Sans', verdana, arial, sans-serif; font-size: 12px; fill: rgb(42, 63, 95); fill-opacity: 1; white-space: pre;">12:00</text></g></g><g class="yaxislayer-above"><g class="ytick"><text text-anchor="end" x="79" y="4.199999999999999" transform="translate(0,392.27)" style="font-family: 'Open Sans', verdana, arial, sans-serif; font-size: 12px; fill: rgb(42, 63, 95); fill-opacity: 1; white-space: pre;">0.864</text></g><g class="ytick"><text text-anchor="end" x="79" y="4.199999999999999" transform="translate(0,348.45)" style="font-family: 'Open Sans', verdana, arial, sans-serif; font-size: 12px; fill: rgb(42, 63, 95); fill-opacity: 1; white-space: pre;">0.865</text></g><g class="ytick"><text text-anchor="end" x="79" y="4.199999999999999" transform="translate(0,304.63)" style="font-family: 'Open Sans', verdana, arial, sans-serif; font-size: 12px; fill: rgb(42, 63, 95); fill-opacity: 1; white-space: pre;">0.866</text></g><g class="ytick"><text text-anchor="end" x="79" y="4.199999999999999" transform="translate(0,260.81)" style="font-family: 'Open Sans', verdana, arial, sans-serif; font-size: 12px; fill: rgb(42, 63, 95); fill-opacity: 1; white-space: pre;">0.867</text></g><g class="ytick"><text text-anchor="end" x="79" y="4.199999999999999" transform="translate(0,216.99)" style="font-family: 'Open Sans', verdana, arial, sans-serif; font-size: 12px; fill: rgb(42, 63, 95); fill-opacity: 1; white-space: pre;">0.868</text></g><g class="ytick"><text text-anchor="end" x="79" y="4.199999999999999" transform="translate(0,173.17000000000002)" style="font-family: 'Open Sans', verdana, arial, sans-serif; font-size: 12px; fill: rgb(42, 63, 95); fill-opacity: 1; white-space: pre;">0.869</text></g><g class="ytick"><text text-anchor="end" x="79" y="4.199999999999999" transform="translate(0,129.35)" style="font-family: 'Open Sans', verdana, arial, sans-serif; font-size: 12px; fill: rgb(42, 63, 95); fill-opacity: 1; white-space: pre;">0.87</text></g></g><g class="overaxes-above"/></g></g><g class="polarlayer"/><g class="ternarylayer"/><g class="geolayer"/><g class="funnelarealayer"/><g class="pielayer"/><g class="treemaplayer"/><g class="sunburstlayer"/><g class="glimages"/><defs id="topdefs-01390b"><g class="clips"/><clipPath id="legend01390b"><rect width="60" height="45" x="0" y="0"/></clipPath></defs><g class="layer-above"><g class="imagelayer"/><g class="shapelayer"/></g><g class="infolayer"><g class="legend" pointer-events="all" transform="translate(627.74,100)"><rect class="bg" shape-rendering="crispEdges" width="60" height="45" x="0" y="0" style="stroke: rgb(68, 68, 68); stroke-opacity: 1; fill: rgb(255, 255, 255); fill-opacity: 1; stroke-width: 0px;"/><g class="scrollbox" transform="" clip-path="url('#legend01390b')"><text class="legendtitletext" text-anchor="start" x="2" y="15.600000000000001" style="font-family: 'Open Sans', verdana, arial, sans-serif; font-size: 12px; fill: rgb(42, 63, 95); fill-opacity: 1; white-space: pre;">All</text><g class="groups" transform=""><g class="traces" transform="translate(0,30.1)" style="opacity: 1;"><text class="legendtext" text-anchor="start" x="40" y="4.680000000000001" style="font-family: 'Open Sans', verdana, arial, sans-serif; font-size: 12px; fill: rgb(42, 63, 95); fill-opacity: 1; white-space: pre;">All</text><g class="layers" style="opacity: 1;"><g class="legendfill"/><g class="legendlines"><path class="js-line" d="M5,0h30" style="fill: none; stroke: rgb(99, 110, 250); stroke-opacity: 1; stroke-width: 2px;"/></g><g class="legendsymbols"><g class="legendpoints"/></g></g><rect class="legendtoggle" x="0" y="-9.5" width="54.890625" height="19" style="fill: rgb(0, 0, 0); fill-opacity: 0;"/></g></g></g><rect class="scrollbar" rx="20" ry="3" width="0" height="0" x="0" y="0" style="fill: rgb(128, 139, 164); fill-opacity: 1;"/></g><g class="g-gtitle"><text class="gtitle" x="35" y="50" text-anchor="start" dy="0em" style="font-family: 'Open Sans', verdana, arial, sans-serif; font-size: 17px; fill: rgb(42, 63, 95); opacity: 1; font-weight: normal; white-space: pre;">Singapore Vaccination Centers</text></g><g class="g-xtitle"><text class="xtitle" x="348.5" y="476.409375" text-anchor="middle" style="font-family: 'Open Sans', verdana, arial, sans-serif; font-size: 14px; fill: rgb(42, 63, 95); opacity: 1; font-weight: normal; white-space: pre;">Time</text></g><g class="g-ytitle"><text class="ytitle" transform="rotate(-90,19.840625000000003,260)" x="19.840625000000003" y="260" text-anchor="middle" style="font-family: 'Open Sans', verdana, arial, sans-serif; font-size: 14px; fill: rgb(42, 63, 95); opacity: 1; font-weight: normal; white-space: pre;">Filled/%</text></g></g></svg>