<svg class="main-svg" xmlns="http://www.w3.org/2000/svg" xmlns:xlink="http://www.w3.org/1999/xlink" width="700" height="500" style="" viewBox="0 0 700 500"><rect x="0" y="0" width="700" height="500" style="fill: rgb(255, 255, 255); fill-opacity: 1;"/><defs id="defs-17ac6e"><g class="clips"><clipPath id="clip17ac6exyplot" class="plotclip"><rect width="537" height="320"/></clipPath><clipPath class="axesclip" id="clip17ac6ex"><rect x="80" y="0" width="537" height="500"/></clipPath><clipPath class="axesclip" id="clip17ac6ey"><rect x="0" y="100" width="700" height="320"/></clipPath><clipPath class="axesclip" id="clip17ac6exy"><rect x="80" y="100" width="537" height="320"/></clipPath></g><g class="gradients"/></defs><g class="bglayer"><rect class="bg" x="80" y="100" width="537" height="320" style="fill: rgb(229, 236, 246); fill-opacity: 1; stroke-width: 0;"/></g><g class="layer-below"><g class="imagelayer"/><g class="shapelayer"/></g><g class="cartesianlayer"><g class="subplot xy"><g class="layer-subplot"><g class="shapelayer"/><g class="imagelayer"/></g><g class="gridlayer"><g class="x"><path class="xgrid crisp" transform="translate(91.35,0)" d="M0,100v320" style="stroke: rgb(255, 255, 255); stroke-opacity: 1; stroke-width: 1px;"/><path class="xgrid crisp" transform="translate(213.62,0)" d="M0,100v320" style="stroke: rgb(255, 255, 255); stroke-opacity: 1; stroke-width: 1px;"/><path class="xgrid crisp" transform="translate(335.89,0)" d="M0,100v320" style="stroke: rgb(255, 255, 255); stroke-opacity: 1; stroke-width: 1px;"/><path class="xgrid crisp" transform="translate(458.16,0)" d="M0,100v320" style="stroke: rgb(255, 255, 255); stroke-opacity: 1; stroke-width: 1px;"/><path class="xgrid crisp" transform="translate(580.44,0)" d="M0,100v320" style="stroke: rgb(255, 255, 255); stroke-opacity: 1; stroke-width: 1px;"/></g><g class="y"><path class="ygrid crisp" transform="translate(0,367.23)" d="M80,0h537" style="stroke: rgb(255, 255, 255); stroke-opacity: 1; stroke-width: 1px;"/><path class="ygrid crisp" transform="translate(0,308.43)" d="M80,0h537" style="stroke: rgb(255, 255, 255); stroke-opacity: 1; stroke-width: 1px;"/><path class="ygrid crisp" transform="translate(0,249.63)" d="M80,0h537" style="stroke: rgb(255, 255, 255); stroke-opacity: 1; stroke-width: 1px;"/><path class="ygrid crisp" transform="translate(0,190.82999999999998)" d="M80,0h537" style="stroke: rgb(255, 255, 255); stroke-opacity: 1; stroke-width: 1px;"/><path class="ygrid crisp" transform="translate(0,132.03)" d="M80,0h537" style="stroke: rgb(255, 255, 255); stroke-opacity: 1; stroke-width: 1px;"/></g></g><g class="zerolinelayer"/><path class="xlines-below"/><path class="ylines-below"/><g class="overlines-below"/><g class="xaxislayer-below"/><g class="yaxislayer-below"/><g class="overaxes-below"/><g class="plot" transform="translate(80,100)" clip-path="url('#clip17ac6exyplot')"><g class="scatterlayer mlayer"><g class="trace scatter tracedf7493" style="stroke-miterlimit: 2; opacity: 1;"><g class="fills"/><g class="errorbars"/><g class="lines"><path class="js-line" d="M0,82.28L7.17,82.51L9.72,120.48L14.78,120.57L16.66,136.92L17.45,136.9L36.21,137.96L37.37,121.23L37.73,129.62L38.58,129.56L40.27,126.37L41.13,126.27L42.82,129.79L43.67,129.7L45.37,132.71L46.22,132.63L47.92,120.69L48.77,120.62L50.46,132.64L51.31,132.55L53.01,126.68L53.86,123.32L55.56,113.21L56.41,109.51L58.11,94.58L58.95,92.89L60.65,74.17L61.5,72.87L63.2,78.78L64.05,77.73L65.75,63.68L66.59,62.82L68.29,65.47L69.14,64.83L70.84,74.27L71.69,73.83L72.81,51.83L73.39,52.53L74.24,52.34L82.73,51.79L83.58,51.79L96.31,50.91L97.16,50.65L126.88,42.03L127.73,41.83L132.83,40.95L133.68,41.79L148.11,41.47L148.96,41.46L161.69,40.8L162.54,40.69L193.96,36.83L194.81,35.53L227.92,34L228.77,33.87L255.1,31.05L255.95,28.56L284.82,27.81L285.67,95.38L295.03,93.57L295.86,93.44L296.71,93.12L297.55,91.51L300.1,88.51L300.95,87.52L305.2,73.59L306.04,72.39L311.14,67.88L311.99,67.37L316.24,65.43L317.08,65.5L323.03,64.8L323.88,64.77L342.56,63.66L343.41,63.48L349.35,61.32L350.2,60.89L351.05,60.46L351.9,62.78L355.29,61.15L356.14,59.94L360.39,54.01L361.24,53.24L364.63,49.13L365.48,47.98L368.88,39.84L369.73,38.66L374.82,33.5L375.67,32.89L379.07,31.98L379.92,31.8L386.71,31.18L387.56,31.16L400.29,30.17L401.14,29.9L406.24,28.09L407.09,74.81L408.79,73.22L409.64,72.76L418.13,69.16L418.98,68.8L419.63,71.93L419.83,68.39L420.64,68.25L420.68,69.25L421.48,67.95L421.53,68.94L422.37,68.62L424.07,68.09L424.92,76.43L432.36,73.91L432.39,72.31L432.43,72.03L432.56,73.74L440.63,44.74L441.05,44.87L441.48,41.95L442.33,42.12L442.75,43.2L444.02,37.43L444.45,41.6L445.72,39.66L446.15,39.05L447.42,38.13L447.85,38.96L448.27,38.26L448.7,38.53L449.12,38.42L450.4,38.4L450.82,43.02L455.49,41.69L455.91,36.5L456.76,35.76L457.18,35.39L458.46,33.79L458.88,33.41L462.28,22.43L462.7,16L463.13,16.8L463.55,140.18L463.98,139.22L464.4,142.07L465.25,136.79L465.68,138.99L466.53,136.15L466.95,136.63L467.38,141.25L467.8,146.68L468.23,133.42L469.07,138.09L469.5,157.2L470.77,133.53L471.2,145.44L471.62,148.42L472.04,146.68L472.47,144.02L473.32,134.36L473.74,135.71L474.59,146.05L475.02,142.1L475.44,141.74L475.86,151.77L476.71,140.84L477.14,148.68L477.99,127.07L478.41,137.58L479.26,140.49L479.69,138.92L480.54,130.34L480.96,131.67L481.38,129.31L481.81,138.25L482.23,134.05L482.66,138.68L483.08,138.81L483.51,131.49L483.93,131.42L484.36,140.05L485.2,132.48L485.63,138.41L486.48,141.46L486.9,128.79L487.75,142.96L488.18,264.58L489.03,292.55L489.45,293.12L489.88,304L490.31,286.22L490.73,301.52L491.15,291.75L491.57,292.1L492,291.07L492.43,294.16L492.85,293.46L493.27,276.02L493.7,283.67L494.12,262.28L494.97,272.54L495.39,248.89L496.24,241.71L496.67,229.6L497.09,224.98L497.52,228.24L497.94,227.36L499.22,215.22L499.64,217.06L500.06,216.4L500.49,227.08L500.91,226.08L501.34,228.38L501.77,228.68L502.19,224.72L502.61,233.57L503.04,224.28L503.89,227.75L504.31,223.07L505.16,226.33L505.59,223.26L506.01,224.52L506.43,234.01L506.86,220.81L507.29,231.91L508.56,220.15L508.98,220.86L510.26,212.72L510.68,220.76L511.53,220.72L511.95,223.7L512.38,223.67L512.8,219.37L513.23,223.08L513.65,218.62L514.07,226.76L514.5,225.2L514.93,224.19L515.35,219.51L515.77,225.16L517.05,225.11L517.47,216.49L517.9,225.05L518.32,220.43L518.74,220.57L519.17,218.19L519.59,220.92L520.02,219.84L520.44,227.36L520.87,216.65L521.29,220.1L521.72,220.01L522.57,220.98L522.99,218.78L523.84,223.64L524.26,218.66L524.69,205.85L525.12,215.25L525.54,220.32L525.96,206.18L526.39,206.81L526.81,214.16L527.24,214.11L527.66,206.99L528.52,212.47L528.94,202.23L529.36,199.24L529.79,208.71L530.21,224.84L530.63,215.2L531.06,214.49L531.48,205.74L531.91,219.6L532.76,195.82L533.18,209.77L533.6,208.24L534.03,203.32L534.45,202.05L534.88,205.17L535.3,200.81L535.73,208.16L536.15,206.35L536.58,209.96L537,207.44" style="vector-effect: non-scaling-stroke; fill: none; stroke: rgb(99, 110, 250); stroke-opacity: 1; stroke-width: 2px; opacity: 1;"/></g><g class="points"/><g class="text"/></g></g></g><g class="overplot"/><path class="xlines-above crisp" d="M0,0" style="fill: none;"/><path class="ylines-above crisp" d="M0,0" style="fill: none;"/><g class="overlines-above"/><g class="xaxislayer-above"><g class="xtick"><text text-anchor="middle" x="0" y="433" transform="translate(91.35,0)" style="font-family: 'Open Sans', verdana, arial, sans-serif; font-size: 12px; fill: rgb(42, 63, 95); fill-opacity: 1; white-space: pre;"><tspan class="line" dy="0em" x="0" y="433">Jun 4</tspan><tspan class="line" dy="1.3em" x="0" y="433">2021</tspan></text></g><g class="xtick"><text text-anchor="middle" x="0" y="433" transform="translate(213.62,0)" style="font-family: 'Open Sans', verdana, arial, sans-serif; font-size: 12px; fill: rgb(42, 63, 95); fill-opacity: 1; white-space: pre;">Jun 6</text></g><g class="xtick"><text text-anchor="middle" x="0" y="433" transform="translate(335.89,0)" style="font-family: 'Open Sans', verdana, arial, sans-serif; font-size: 12px; fill: rgb(42, 63, 95); fill-opacity: 1; white-space: pre;">Jun 8</text></g><g class="xtick"><text text-anchor="middle" x="0" y="433" transform="translate(458.16,0)" style="font-family: 'Open Sans', verdana, arial, sans-serif; font-size: 12px; fill: rgb(42, 63, 95); fill-opacity: 1; white-space: pre;">Jun 10</text></g><g class="xtick"><text text-anchor="middle" x="0" y="433" transform="translate(580.44,0)" style="font-family: 'Open Sans', verdana, arial, sans-serif; font-size: 12px; fill: rgb(42, 63, 95); fill-opacity: 1; white-space: pre;">Jun 12</text></g></g><g class="yaxislayer-above"><g class="ytick"><text text-anchor="end" x="79" y="4.199999999999999" transform="translate(0,367.23)" style="font-family: 'Open Sans', verdana, arial, sans-serif; font-size: 12px; fill: rgb(42, 63, 95); fill-opacity: 1; white-space: pre;">0.8</text></g><g class="ytick"><text text-anchor="end" x="79" y="4.199999999999999" transform="translate(0,308.43)" style="font-family: 'Open Sans', verdana, arial, sans-serif; font-size: 12px; fill: rgb(42, 63, 95); fill-opacity: 1; white-space: pre;">0.82</text></g><g class="ytick"><text text-anchor="end" x="79" y="4.199999999999999" transform="translate(0,249.63)" style="font-family: 'Open Sans', verdana, arial, sans-serif; font-size: 12px; fill: rgb(42, 63, 95); fill-opacity: 1; white-space: pre;">0.84</text></g><g class="ytick"><text text-anchor="end" x="79" y="4.199999999999999" transform="translate(0,190.82999999999998)" style="font-family: 'Open Sans', verdana, arial, sans-serif; font-size: 12px; fill: rgb(42, 63, 95); fill-opacity: 1; white-space: pre;">0.86</text></g><g class="ytick"><text text-anchor="end" x="79" y="4.199999999999999" transform="translate(0,132.03)" style="font-family: 'Open Sans', verdana, arial, sans-serif; font-size: 12px; fill: rgb(42, 63, 95); fill-opacity: 1; white-space: pre;">0.88</text></g></g><g class="overaxes-above"/></g></g><g class="polarlayer"/><g class="ternarylayer"/><g class="geolayer"/><g class="funnelarealayer"/><g class="pielayer"/><g class="treemaplayer"/><g class="sunburstlayer"/><g class="glimages"/><defs id="topdefs-17ac6e"><g class="clips"/><clipPath id="legend17ac6e"><rect width="60" height="45" x="0" y="0"/></clipPath></defs><g class="layer-above"><g class="imagelayer"/><g class="shapelayer"/></g><g class="infolayer"><g class="legend" pointer-events="all" transform="translate(627.74,100)"><rect class="bg" shape-rendering="crispEdges" width="60" height="45" x="0" y="0" style="stroke: rgb(68, 68, 68); stroke-opacity: 1; fill: rgb(255, 255, 255); fill-opacity: 1; stroke-width: 0px;"/><g class="scrollbox" transform="" clip-path="url('#legend17ac6e')"><text class="legendtitletext" text-anchor="start" x="2" y="15.600000000000001" style="font-family: 'Open Sans', verdana, arial, sans-serif; font-size: 12px; fill: rgb(42, 63, 95); fill-opacity: 1; white-space: pre;">All</text><g class="groups" transform=""><g class="traces" transform="translate(0,30.1)" style="opacity: 1;"><text class="legendtext" text-anchor="start" x="40" y="4.680000000000001" style="font-family: 'Open Sans', verdana, arial, sans-serif; font-size: 12px; fill: rgb(42, 63, 95); fill-opacity: 1; white-space: pre;">All</text><g class="layers" style="opacity: 1;"><g class="legendfill"/><g class="legendlines"><path class="js-line" d="M5,0h30" style="fill: none; stroke: rgb(99, 110, 250); stroke-opacity: 1; stroke-width: 2px;"/></g><g class="legendsymbols"><g class="legendpoints"/></g></g><rect class="legendtoggle" x="0" y="-9.5" width="54.890625" height="19" style="fill: rgb(0, 0, 0); fill-opacity: 0;"/></g></g></g><rect class="scrollbar" rx="20" ry="3" width="0" height="0" x="0" y="0" style="fill: rgb(128, 139, 164); fill-opacity: 1;"/></g><g class="g-gtitle"><text class="gtitle" x="35" y="50" text-anchor="start" dy="0em" style="font-family: 'Open Sans', verdana, arial, sans-serif; font-size: 17px; fill: rgb(42, 63, 95); opacity: 1; font-weight: normal; white-space: pre;">Singapore Vaccination Centers</text></g><g class="g-xtitle"><text class="xtitle" x="348.5" y="476.409375" text-anchor="middle" style="font-family: 'Open Sans', verdana, arial, sans-serif; font-size: 14px; fill: rgb(42, 63, 95); opacity: 1; font-weight: normal; white-space: pre;">Time</text></g><g class="g-ytitle"><text class="ytitle" transform="rotate(-90,27.481250000000003,260)" x="27.481250000000003" y="260" text-anchor="middle" style="font-family: 'Open Sans', verdana, arial, sans-serif; font-size: 14px; fill: rgb(42, 63, 95); opacity: 1; font-weight: normal; white-space: pre;">Filled/%</text></g></g></svg>