<svg class="main-svg" xmlns="http://www.w3.org/2000/svg" xmlns:xlink="http://www.w3.org/1999/xlink" width="700" height="500" style="" viewBox="0 0 700 500"><rect x="0" y="0" width="700" height="500" style="fill: rgb(255, 255, 255); fill-opacity: 1;"/><defs id="defs-56d38a"><g class="clips"><clipPath id="clip56d38axyplot" class="plotclip"><rect width="537" height="320"/></clipPath><clipPath class="axesclip" id="clip56d38ax"><rect x="80" y="0" width="537" height="500"/></clipPath><clipPath class="axesclip" id="clip56d38ay"><rect x="0" y="100" width="700" height="320"/></clipPath><clipPath class="axesclip" id="clip56d38axy"><rect x="80" y="100" width="537" height="320"/></clipPath></g><g class="gradients"/></defs><g class="bglayer"><rect class="bg" x="80" y="100" width="537" height="320" style="fill: rgb(229, 236, 246); fill-opacity: 1; stroke-width: 0;"/></g><g class="layer-below"><g class="imagelayer"/><g class="shapelayer"/></g><g class="cartesianlayer"><g class="subplot xy"><g class="layer-subplot"><g class="shapelayer"/><g class="imagelayer"/></g><g class="gridlayer"><g class="x"><path class="xgrid crisp" transform="translate(89.57,0)" d="M0,100v320" style="stroke: rgb(255, 255, 255); stroke-opacity: 1; stroke-width: 1px;"/><path class="xgrid crisp" transform="translate(192.61,0)" d="M0,100v320" style="stroke: rgb(255, 255, 255); stroke-opacity: 1; stroke-width: 1px;"/><path class="xgrid crisp" transform="translate(295.65999999999997,0)" d="M0,100v320" style="stroke: rgb(255, 255, 255); stroke-opacity: 1; stroke-width: 1px;"/><path class="xgrid crisp" transform="translate(398.7,0)" d="M0,100v320" style="stroke: rgb(255, 255, 255); stroke-opacity: 1; stroke-width: 1px;"/><path class="xgrid crisp" transform="translate(501.74,0)" d="M0,100v320" style="stroke: rgb(255, 255, 255); stroke-opacity: 1; stroke-width: 1px;"/><path class="xgrid crisp" transform="translate(604.79,0)" d="M0,100v320" style="stroke: rgb(255, 255, 255); stroke-opacity: 1; stroke-width: 1px;"/></g><g class="y"><path class="ygrid crisp" transform="translate(0,367.23)" d="M80,0h537" style="stroke: rgb(255, 255, 255); stroke-opacity: 1; stroke-width: 1px;"/><path class="ygrid crisp" transform="translate(0,308.43)" d="M80,0h537" style="stroke: rgb(255, 255, 255); stroke-opacity: 1; stroke-width: 1px;"/><path class="ygrid crisp" transform="translate(0,249.63)" d="M80,0h537" style="stroke: rgb(255, 255, 255); stroke-opacity: 1; stroke-width: 1px;"/><path class="ygrid crisp" transform="translate(0,190.82999999999998)" d="M80,0h537" style="stroke: rgb(255, 255, 255); stroke-opacity: 1; stroke-width: 1px;"/><path class="ygrid crisp" transform="translate(0,132.03)" d="M80,0h537" style="stroke: rgb(255, 255, 255); stroke-opacity: 1; stroke-width: 1px;"/></g></g><g class="zerolinelayer"/><path class="xlines-below"/><path class="ylines-below"/><g class="overlines-below"/><g class="xaxislayer-below"/><g class="yaxislayer-below"/><g class="overaxes-below"/><g class="plot" transform="translate(80,100)" clip-path="url('#clip56d38axyplot')"><g class="scatterlayer mlayer"><g class="trace scatter trace614bd4" style="stroke-miterlimit: 2; opacity: 1;"><g class="fills"/><g class="errorbars"/><g class="lines"><path class="js-line" d="M0,82.28L6.04,82.51L8.19,120.48L12.46,120.57L14.04,136.92L14.71,136.9L30.51,137.96L31.5,121.23L31.8,129.62L32.51,129.56L33.94,126.37L34.66,126.27L36.09,129.79L36.8,129.7L38.24,132.71L38.95,132.63L40.38,120.69L41.1,120.62L42.53,132.64L43.25,132.55L44.68,126.68L46.82,113.21L47.54,109.51L51.11,74.17L51.83,72.87L53.26,78.78L53.98,77.73L56.12,62.82L57.55,65.47L58.27,64.83L59.7,74.27L60.42,73.83L61.36,51.83L62.56,52.34L63.28,52.21L71.87,51.77L72.58,51.77L81.17,50.91L81.88,50.65L106.93,42.03L107.65,41.83L111.94,40.95L112.66,41.79L124.82,41.47L125.54,41.46L136.27,40.8L136.98,40.69L163.46,36.83L164.18,35.53L192.08,34L192.8,33.87L214.99,31.05L215.7,28.56L240.03,27.81L240.75,95.38L248.64,93.57L249.34,93.44L250.05,93.12L250.77,91.51L252.91,88.51L253.63,87.52L257.21,73.59L257.92,72.39L262.21,67.88L262.93,67.37L266.51,65.43L267.22,65.5L272.23,64.8L272.95,64.77L288.69,63.66L289.41,63.48L294.42,61.32L295.13,60.89L295.85,60.46L296.56,62.78L299.43,61.15L300.14,59.94L304.43,53.24L305.15,52.44L308.01,47.98L308.73,45.51L311.59,38.66L312.31,37.65L316.6,32.89L317.34,32.47L319.46,31.98L320.18,31.8L325.9,31.18L326.62,31.16L337.35,30.17L338.07,29.9L342.36,28.09L343.08,74.81L345.22,72.76L345.94,72.32L353.1,68.8L353.64,71.93L354.49,68.25L354.53,69.25L355.21,67.95L355.24,68.94L355.96,68.62L357.39,68.09L358.1,76.43L364.37,73.91L364.4,72.31L364.43,72.03L364.55,73.74L371.34,44.74L371.7,44.87L372.06,41.95L372.77,42.12L373.13,43.2L374.2,37.43L374.56,41.6L375.63,39.66L375.99,39.05L377.07,38.13L377.43,38.96L378.5,38.42L378.86,38.33L379.57,38.4L379.93,43.02L383.87,41.69L384.22,36.5L384.94,35.76L385.29,35.39L387.08,31.97L387.44,32.01L389.59,22.43L389.95,16L390.3,16.8L390.66,140.18L391.02,139.22L391.38,142.07L392.09,136.79L392.45,138.99L392.81,137.43L393.17,136.15L393.53,136.63L393.88,141.25L394.24,146.68L394.6,133.42L395.31,138.09L395.67,157.2L396.75,133.53L397.1,145.44L397.46,148.42L397.82,146.68L398.18,144.02L398.89,134.36L399.25,135.71L399.61,141.84L399.96,146.05L400.32,142.1L400.68,141.74L401.04,151.77L401.39,141.68L401.75,140.84L402.11,148.68L402.47,138.39L402.83,127.07L403.19,137.58L403.54,139.13L403.9,140.49L404.26,138.92L404.62,134.18L405.69,129.31L406.05,138.25L406.41,134.05L406.76,138.68L407.12,138.81L407.84,131.42L408.19,140.05L408.91,132.48L409.27,138.41L409.98,141.46L410.34,128.79L411.06,142.96L411.42,264.58L412.49,293.12L412.85,304L413.21,286.22L413.56,301.52L413.92,291.75L414.28,292.1L414.63,291.07L415,294.16L415.35,293.46L415.71,276.02L416.07,283.67L416.42,262.28L417.14,272.54L417.5,248.89L418.21,241.71L418.57,229.6L418.93,224.98L419.29,228.24L419.64,227.36L420.72,215.22L421.08,217.06L421.43,216.4L421.79,227.08L422.15,226.08L422.51,228.38L422.87,228.68L423.22,224.72L423.58,233.57L423.94,224.28L424.3,225.36L424.65,227.75L425.01,223.07L425.73,226.33L426.09,223.26L426.44,224.52L426.8,234.01L427.16,220.81L427.52,231.91L427.87,224.2L430.02,212.72L430.38,220.76L431.1,220.72L431.45,223.7L431.81,223.67L432.17,219.37L432.53,223.08L432.88,218.62L433.24,226.76L433.6,225.2L433.96,224.19L434.31,219.51L434.67,225.16L435.74,225.11L436.1,216.49L436.46,225.05L436.82,220.43L437.17,220.57L437.53,218.19L437.89,220.92L438.25,219.84L438.61,227.36L438.96,216.65L439.32,220.1L439.68,220.01L440.4,220.98L440.75,218.78L441.47,223.64L441.82,218.66L442.18,205.85L442.55,215.25L442.9,220.32L443.26,206.18L443.61,206.81L443.97,214.16L444.33,214.11L444.69,206.99L445.41,212.47L445.77,202.23L446.12,199.24L446.48,208.71L446.84,224.84L447.19,215.2L447.55,214.49L447.91,205.74L448.27,219.6L448.98,195.82L449.34,209.77L449.7,208.24L450.05,203.32L450.41,202.05L450.77,205.17L451.13,200.81L451.49,208.16L451.84,206.35L452.2,209.96L452.56,207.44L452.92,196.45L453.27,195.36L453.63,196.45L453.99,201.41L455.06,210.92L455.42,197.09L455.78,197.31L456.14,191.05L456.49,191.24L456.85,196.07L457.21,200.65L457.57,194.37L458.64,210.5L459,204.27L459.71,191.94L460.07,193.62L460.43,197L460.79,205.03L461.15,197.14L461.5,198.57L462.94,184.28L463.29,189.51L464.01,194.59L464.37,189.23L464.73,191.91L465.08,189.81L465.44,182.31L465.8,187.7L466.16,187L466.51,183.28L466.87,186.18L467.23,185.69L467.59,181.61L467.95,182.61L468.31,186.54L469.02,187.68L469.38,186.58L469.73,181.49L470.09,187.81L470.81,185.81L471.17,187.22L471.89,187L472.24,190.98L472.6,190.65L472.96,194.82L473.32,189.57L473.67,183.36L474.03,189.2L474.39,186.45L475.46,187.85L475.82,183.53L476.89,187.65L477.25,184.59L477.96,184.25L478.32,185.71L479.4,187.29L479.75,197.68L480.11,197.68L480.47,195.53L480.83,195.52L481.18,190.33L481.54,190.33L481.9,186.49L483.33,194.95L483.69,194.95L484.05,195.4L484.4,193.58L484.76,193.58L485.12,187.5L485.84,187.5L486.19,190.84L487.27,186.75L487.62,187.03L487.98,187.03L488.34,188.23L491.2,181.13L491.56,187.27L491.92,190.9L492.28,187.7L492.63,181.79L492.99,180.91L493.35,182.93L493.71,184.81L494.06,179.55L494.78,190.44L495.14,182.8L495.5,183.07L495.85,174.64L496.93,185.09L497.28,181.21L497.64,181.99L498,185.79L498.36,171.39L498.72,177.83L499.07,175.21L499.43,180.5L499.79,179.53L500.15,177.22L501.58,187.84L501.94,182.58L502.29,175.16L502.65,180.33L503.01,178.23L503.72,176.4L504.08,185.95L504.44,175.93L504.8,196.82L505.87,173.22L506.23,177.47L506.59,180.21L506.94,180.03L507.3,179.15L508.02,179.35L508.38,181.21L509.81,176.9L510.16,176.97L510.88,169.69L511.24,173.52L511.6,176.28L511.95,172.21L512.31,173.97L512.67,171L513.38,180.19L513.74,175.33L514.1,171.32L514.46,174.66L514.82,174.4L515.17,183.64L515.53,176L515.89,180.08L516.25,179.71L516.6,181.54L517.32,173.38L517.68,176.61L518.04,186.68L518.39,171.47L518.75,173.34L519.11,176.71L519.47,180.06L519.83,191.51L520.55,169.64L520.9,179.24L521.26,185.08L521.61,178.84L521.97,180.35L522.69,173.52L523.27,177.41L523.76,175.84L524.12,172.35L524.84,178.87L525.19,178.77L525.55,176.54L526.62,180.35L526.98,181.62L527.34,181.6L527.7,184.49L528.06,177.62L528.41,178.94L528.77,178.93L529.13,178.92L529.49,174.71L530.2,182.31L530.56,181.81L530.92,181.81L531.28,181.29L531.63,185.14L532.35,181.68L532.71,185.76L533.42,177.83L533.78,178.11L534.14,178.11L535.57,178.1L535.93,181.35L537,177.13" style="vector-effect: non-scaling-stroke; fill: none; stroke: rgb(99, 110, 250); stroke-opacity: 1; stroke-width: 2px; opacity: 1;"/></g><g class="points"/><g class="text"/></g></g></g><g class="overplot"/><path class="xlines-above crisp" d="M0,0" style="fill: none;"/><path class="ylines-above crisp" d="M0,0" style="fill: none;"/><g class="overlines-above"/><g class="xaxislayer-above"><g class="xtick"><text text-anchor="middle" x="0" y="433" transform="translate(89.57,0)" style="font-family: 'Open Sans', verdana, arial, sans-serif; font-size: 12px; fill: rgb(42, 63, 95); fill-opacity: 1; white-space: pre;"><tspan class="line" dy="0em" x="0" y="433">Jun 4</tspan><tspan class="line" dy="1.3em" x="0" y="433">2021</tspan></text></g><g class="xtick"><text text-anchor="middle" x="0" y="433" transform="translate(192.61,0)" style="font-family: 'Open Sans', verdana, arial, sans-serif; font-size: 12px; fill: rgb(42, 63, 95); fill-opacity: 1; white-space: pre;">Jun 6</text></g><g class="xtick"><text text-anchor="middle" x="0" y="433" transform="translate(295.65999999999997,0)" style="font-family: 'Open Sans', verdana, arial, sans-serif; font-size: 12px; fill: rgb(42, 63, 95); fill-opacity: 1; white-space: pre;">Jun 8</text></g><g class="xtick"><text text-anchor="middle" x="0" y="433" transform="translate(398.7,0)" style="font-family: 'Open Sans', verdana, arial, sans-serif; font-size: 12px; fill: rgb(42, 63, 95); fill-opacity: 1; white-space: pre;">Jun 10</text></g><g class="xtick"><text text-anchor="middle" x="0" y="433" transform="translate(501.74,0)" style="font-family: 'Open Sans', verdana, arial, sans-serif; font-size: 12px; fill: rgb(42, 63, 95); fill-opacity: 1; white-space: pre;">Jun 12</text></g><g class="xtick"><text text-anchor="middle" x="0" y="433" transform="translate(604.79,0)" style="font-family: 'Open Sans', verdana, arial, sans-serif; font-size: 12px; fill: rgb(42, 63, 95); fill-opacity: 1; white-space: pre;">Jun 14</text></g></g><g class="yaxislayer-above"><g class="ytick"><text text-anchor="end" x="79" y="4.199999999999999" transform="translate(0,367.23)" style="font-family: 'Open Sans', verdana, arial, sans-serif; font-size: 12px; fill: rgb(42, 63, 95); fill-opacity: 1; white-space: pre;">0.8</text></g><g class="ytick"><text text-anchor="end" x="79" y="4.199999999999999" transform="translate(0,308.43)" style="font-family: 'Open Sans', verdana, arial, sans-serif; font-size: 12px; fill: rgb(42, 63, 95); fill-opacity: 1; white-space: pre;">0.82</text></g><g class="ytick"><text text-anchor="end" x="79" y="4.199999999999999" transform="translate(0,249.63)" style="font-family: 'Open Sans', verdana, arial, sans-serif; font-size: 12px; fill: rgb(42, 63, 95); fill-opacity: 1; white-space: pre;">0.84</text></g><g class="ytick"><text text-anchor="end" x="79" y="4.199999999999999" transform="translate(0,190.82999999999998)" style="font-family: 'Open Sans', verdana, arial, sans-serif; font-size: 12px; fill: rgb(42, 63, 95); fill-opacity: 1; white-space: pre;">0.86</text></g><g class="ytick"><text text-anchor="end" x="79" y="4.199999999999999" transform="translate(0,132.03)" style="font-family: 'Open Sans', verdana, arial, sans-serif; font-size: 12px; fill: rgb(42, 63, 95); fill-opacity: 1; white-space: pre;">0.88</text></g></g><g class="overaxes-above"/></g></g><g class="polarlayer"/><g class="ternarylayer"/><g class="geolayer"/><g class="funnelarealayer"/><g class="pielayer"/><g class="treemaplayer"/><g class="sunburstlayer"/><g class="glimages"/><defs id="topdefs-56d38a"><g class="clips"/><clipPath id="legend56d38a"><rect width="60" height="45" x="0" y="0"/></clipPath></defs><g class="layer-above"><g class="imagelayer"/><g class="shapelayer"/></g><g class="infolayer"><g class="legend" pointer-events="all" transform="translate(627.74,100)"><rect class="bg" shape-rendering="crispEdges" width="60" height="45" x="0" y="0" style="stroke: rgb(68, 68, 68); stroke-opacity: 1; fill: rgb(255, 255, 255); fill-opacity: 1; stroke-width: 0px;"/><g class="scrollbox" transform="" clip-path="url('#legend56d38a')"><text class="legendtitletext" text-anchor="start" x="2" y="15.600000000000001" style="font-family: 'Open Sans', verdana, arial, sans-serif; font-size: 12px; fill: rgb(42, 63, 95); fill-opacity: 1; white-space: pre;">All</text><g class="groups" transform=""><g class="traces" transform="translate(0,30.1)" style="opacity: 1;"><text class="legendtext" text-anchor="start" x="40" y="4.680000000000001" style="font-family: 'Open Sans', verdana, arial, sans-serif; font-size: 12px; fill: rgb(42, 63, 95); fill-opacity: 1; white-space: pre;">All</text><g class="layers" style="opacity: 1;"><g class="legendfill"/><g class="legendlines"><path class="js-line" d="M5,0h30" style="fill: none; stroke: rgb(99, 110, 250); stroke-opacity: 1; stroke-width: 2px;"/></g><g class="legendsymbols"><g class="legendpoints"/></g></g><rect class="legendtoggle" x="0" y="-9.5" width="54.890625" height="19" style="fill: rgb(0, 0, 0); fill-opacity: 0;"/></g></g></g><rect class="scrollbar" rx="20" ry="3" width="0" height="0" x="0" y="0" style="fill: rgb(128, 139, 164); fill-opacity: 1;"/></g><g class="g-gtitle"><text class="gtitle" x="35" y="50" text-anchor="start" dy="0em" style="font-family: 'Open Sans', verdana, arial, sans-serif; font-size: 17px; fill: rgb(42, 63, 95); opacity: 1; font-weight: normal; white-space: pre;">Singapore Vaccination Centers</text></g><g class="g-xtitle"><text class="xtitle" x="348.5" y="476.409375" text-anchor="middle" style="font-family: 'Open Sans', verdana, arial, sans-serif; font-size: 14px; fill: rgb(42, 63, 95); opacity: 1; font-weight: normal; white-space: pre;">Time</text></g><g class="g-ytitle"><text class="ytitle" transform="rotate(-90,27.481250000000003,260)" x="27.481250000000003" y="260" text-anchor="middle" style="font-family: 'Open Sans', verdana, arial, sans-serif; font-size: 14px; fill: rgb(42, 63, 95); opacity: 1; font-weight: normal; white-space: pre;">Filled/%</text></g></g></svg>