<svg class="main-svg" xmlns="http://www.w3.org/2000/svg" xmlns:xlink="http://www.w3.org/1999/xlink" width="700" height="500" style="" viewBox="0 0 700 500"><rect x="0" y="0" width="700" height="500" style="fill: rgb(255, 255, 255); fill-opacity: 1;"/><defs id="defs-0110d0"><g class="clips"><clipPath id="clip0110d0xyplot" class="plotclip"><rect width="537" height="320"/></clipPath><clipPath class="axesclip" id="clip0110d0x"><rect x="80" y="0" width="537" height="500"/></clipPath><clipPath class="axesclip" id="clip0110d0y"><rect x="0" y="100" width="700" height="320"/></clipPath><clipPath class="axesclip" id="clip0110d0xy"><rect x="80" y="100" width="537" height="320"/></clipPath></g><g class="gradients"/></defs><g class="bglayer"><rect class="bg" x="80" y="100" width="537" height="320" style="fill: rgb(229, 236, 246); fill-opacity: 1; stroke-width: 0;"/></g><g class="layer-below"><g class="imagelayer"/><g class="shapelayer"/></g><g class="cartesianlayer"><g class="subplot xy"><g class="layer-subplot"><g class="shapelayer"/><g class="imagelayer"/></g><g class="gridlayer"><g class="x"><path class="xgrid crisp" transform="translate(84.88,0)" d="M0,100v320" style="stroke: rgb(255, 255, 255); stroke-opacity: 1; stroke-width: 1px;"/><path class="xgrid crisp" transform="translate(178.99,0)" d="M0,100v320" style="stroke: rgb(255, 255, 255); stroke-opacity: 1; stroke-width: 1px;"/><path class="xgrid crisp" transform="translate(273.1,0)" d="M0,100v320" style="stroke: rgb(255, 255, 255); stroke-opacity: 1; stroke-width: 1px;"/><path class="xgrid crisp" transform="translate(367.2,0)" d="M0,100v320" style="stroke: rgb(255, 255, 255); stroke-opacity: 1; stroke-width: 1px;"/><path class="xgrid crisp" transform="translate(461.31,0)" d="M0,100v320" style="stroke: rgb(255, 255, 255); stroke-opacity: 1; stroke-width: 1px;"/><path class="xgrid crisp" transform="translate(555.4200000000001,0)" d="M0,100v320" style="stroke: rgb(255, 255, 255); stroke-opacity: 1; stroke-width: 1px;"/></g><g class="y"><path class="ygrid crisp" transform="translate(0,392.26)" d="M80,0h537" style="stroke: rgb(255, 255, 255); stroke-opacity: 1; stroke-width: 1px;"/><path class="ygrid crisp" transform="translate(0,348.4)" d="M80,0h537" style="stroke: rgb(255, 255, 255); stroke-opacity: 1; stroke-width: 1px;"/><path class="ygrid crisp" transform="translate(0,304.53999999999996)" d="M80,0h537" style="stroke: rgb(255, 255, 255); stroke-opacity: 1; stroke-width: 1px;"/><path class="ygrid crisp" transform="translate(0,260.66999999999996)" d="M80,0h537" style="stroke: rgb(255, 255, 255); stroke-opacity: 1; stroke-width: 1px;"/><path class="ygrid crisp" transform="translate(0,216.81)" d="M80,0h537" style="stroke: rgb(255, 255, 255); stroke-opacity: 1; stroke-width: 1px;"/><path class="ygrid crisp" transform="translate(0,172.95)" d="M80,0h537" style="stroke: rgb(255, 255, 255); stroke-opacity: 1; stroke-width: 1px;"/><path class="ygrid crisp" transform="translate(0,129.09)" d="M80,0h537" style="stroke: rgb(255, 255, 255); stroke-opacity: 1; stroke-width: 1px;"/></g></g><g class="zerolinelayer"/><path class="xlines-below"/><path class="ylines-below"/><g class="overlines-below"/><g class="xaxislayer-below"/><g class="yaxislayer-below"/><g class="overaxes-below"/><g class="plot" transform="translate(80,100)" clip-path="url('#clip0110d0xyplot')"><g class="scatterlayer mlayer"><g class="trace scatter traceff72c9" style="stroke-miterlimit: 2; opacity: 1;"><g class="fills"/><g class="errorbars"/><g class="lines"><path class="js-line" d="M0,304L3.77,302.55L5.08,248.37L6.38,249.7L7.69,247.97L12.91,247.31L14.22,246.91L16.84,247.71L18.15,246.78L19.49,247.44L20.76,247.18L25.99,246.25L27.3,246.51L31.22,245.72L32.52,245.45L37.75,245.85L39.06,245.45L45.59,245.32L46.89,245.32L50.82,244.26L52.13,244.52L57.35,243.6L58.66,242.93L59.97,243.46L61.28,243.07L62.58,242.14L63.89,242.4L65.2,243.07L66.51,241.47L70.42,240.55L71.73,241.08L73.04,240.68L74.35,241.61L75.65,240.68L76.96,238.56L79.57,239.09L80.88,238.16L86.11,236.17L87.42,235.24L90.02,236.57L91.34,235.37L92.64,233.25L93.95,233.78L95.26,234.84L96.56,233.25L99.18,230.86L100.49,230.47L103.1,228.74L104.41,229.27L107.02,228.08L108.33,228.34L109.63,229.94L110.94,227.68L114.87,228.74L116.17,228.34L118.79,224.5L120.09,224.1L121.4,224.9L122.71,223.57L124.01,223.7L125.32,225.43L126.63,225.16L127.93,223.57L133.16,219.06L134.47,216.28L135.78,216.94L137.08,215.48L138.39,214.42L139.7,215.21L142.31,215.48L143.62,216.54L148.85,214.29L150.15,214.15L152.77,213.49L154.08,212.43L155.38,212.03L156.69,212.56L158,213.76L159.3,213.76L161.92,211.5L163.22,211.24L167.15,210.44L168.45,209.91L169.76,209.11L171.07,209.51L177.6,209.25L178.91,209.51L181.52,208.05L182.83,206.46L184.14,205.27L185.45,205.27L186.76,204.47L188.06,205.4L191.98,205.53L193.29,138.18L197.21,136.04L198.52,136.3L201.13,135.77L202.44,134.83L205.05,134.97L206.36,134.97L211.59,134.3L212.89,134.16L216.81,133.63L218.12,133.76L229.88,133.76L231.19,133.9L240.34,133.63L241.65,132.96L245.56,132.96L246.87,131.89L252.09,132.02L253.41,131.49L256.02,131.62L257.32,130.96L259.95,130.29L261.25,130.96L265.17,127.88L266.47,127.88L267.78,128.95L269.09,128.55L271.71,127.21L273.01,127.88L276.93,125.74L278.24,124L279.55,125.74L280.85,124.94L284.77,122.66L286.09,123.6L288.7,121.99L290,123.2L291.31,124.27L292.62,123.33L293.93,124.4L295.23,123.87L296.53,122.93L297.84,124L299.15,123.33L300.46,123.73L303.07,124.8L304.38,124.4L307.01,123.2L308.33,121.99L309.62,120.52L310.93,120.26L313.55,120.92L314.86,121.46L316.16,119.45L317.47,119.19L321.39,118.52L322.7,116.78L326.62,117.85L327.93,117.31L330.54,113.7L331.85,115.31L333.16,115.31L334.47,114.1L335.77,115.04L337.07,114.51L339.69,112.63L341,112.77L344.92,109.56L346.23,109.69L348.85,107.28L350.15,108.09L352.76,105.95L354.07,106.48L357.99,105.81L359.3,103.14L360.6,103L361.9,101.93L363.22,100.46L364.53,100.73L365.83,101L367.14,102.2L368.45,102.87L369.75,102.2L371.07,104.21L372.37,103.4L373.67,103.27L374.98,101.67L376.29,101.26L377.6,101.8L380.21,102.07L381.52,55.11L384.13,53.23L385.44,52.96L388.05,52.28L389.36,51.34L393.28,50.8L394.58,50.53L399.81,49.18L401.12,48.23L403.74,47.96L405.04,48.5L408.97,47.29L410.27,47.43L425.95,46.08L427.26,46.35L432.49,45.4L433.8,45.67L435.1,45.13L436.41,45.4L437.72,45.81L439.02,45.27L440.33,45.4L441.63,44.73L444.25,45.13L445.55,44.32L453.4,43.65L456.01,43.11L457.32,41.76L459.93,41.36L462.54,40.95L463.85,39.2L465.16,40.41L466.47,39.2L469.08,39.2L470.38,38.52L471.7,38.39L473,37.18L476.92,36.91L478.23,35.29L479.54,33.8L480.84,33.53L483.42,31.38L484.72,32.05L487.33,30.57L488.64,30.97L489.95,29.22L491.25,28.95L492.56,28.41L493.87,28.81L495.18,28.54L496.48,26.52L497.79,25.85L499.1,26.39L501.71,25.58L503.02,25.17L504.33,25.04L505.63,23.96L508.25,23.96L509.55,24.5L512.16,26.12L513.48,24.23L516.09,25.44L517.42,23.42L520.02,23.55L521.32,23.96L525.24,22.07L526.55,22.47L529.16,20.72L530.47,19.64L531.78,17.08L533.09,17.62L534.39,16.13L535.7,17.62L537,16" style="vector-effect: non-scaling-stroke; fill: none; stroke: rgb(99, 110, 250); stroke-opacity: 1; stroke-width: 2px; opacity: 1;"/></g><g class="points"/><g class="text"/></g></g></g><g class="overplot"/><path class="xlines-above crisp" d="M0,0" style="fill: none;"/><path class="ylines-above crisp" d="M0,0" style="fill: none;"/><g class="overlines-above"/><g class="xaxislayer-above"><g class="xtick"><text text-anchor="middle" x="0" y="433" transform="translate(84.88,0)" style="font-family: 'Open Sans', verdana, arial, sans-serif; font-size: 12px; fill: rgb(42, 63, 95); fill-opacity: 1; white-space: pre;"><tspan class="line" dy="0em" x="0" y="433">00:00</tspan><tspan class="line" dy="1.3em" x="0" y="433">Aug 3, 2021</tspan></text></g><g class="xtick"><text text-anchor="middle" x="0" y="433" transform="translate(178.99,0)" style="font-family: 'Open Sans', verdana, arial, sans-serif; font-size: 12px; fill: rgb(42, 63, 95); fill-opacity: 1; white-space: pre;">12:00</text></g><g class="xtick"><text text-anchor="middle" x="0" y="433" transform="translate(273.1,0)" style="font-family: 'Open Sans', verdana, arial, sans-serif; font-size: 12px; fill: rgb(42, 63, 95); fill-opacity: 1; white-space: pre;"><tspan class="line" dy="0em" x="0" y="433">00:00</tspan><tspan class="line" dy="1.3em" x="0" y="433">Aug 4, 2021</tspan></text></g><g class="xtick"><text text-anchor="middle" x="0" y="433" transform="translate(367.2,0)" style="font-family: 'Open Sans', verdana, arial, sans-serif; font-size: 12px; fill: rgb(42, 63, 95); fill-opacity: 1; white-space: pre;">12:00</text></g><g class="xtick"><text text-anchor="middle" x="0" y="433" transform="translate(461.31,0)" style="font-family: 'Open Sans', verdana, arial, sans-serif; font-size: 12px; fill: rgb(42, 63, 95); fill-opacity: 1; white-space: pre;"><tspan class="line" dy="0em" x="0" y="433">00:00</tspan><tspan class="line" dy="1.3em" x="0" y="433">Aug 5, 2021</tspan></text></g><g class="xtick"><text text-anchor="middle" x="0" y="433" transform="translate(555.4200000000001,0)" style="font-family: 'Open Sans', verdana, arial, sans-serif; font-size: 12px; fill: rgb(42, 63, 95); fill-opacity: 1; white-space: pre;">12:00</text></g></g><g class="yaxislayer-above"><g class="ytick"><text text-anchor="end" x="79" y="4.199999999999999" transform="translate(0,392.26)" style="font-family: 'Open Sans', verdana, arial, sans-serif; font-size: 12px; fill: rgb(42, 63, 95); fill-opacity: 1; white-space: pre;">0.864</text></g><g class="ytick"><text text-anchor="end" x="79" y="4.199999999999999" transform="translate(0,348.4)" style="font-family: 'Open Sans', verdana, arial, sans-serif; font-size: 12px; fill: rgb(42, 63, 95); fill-opacity: 1; white-space: pre;">0.865</text></g><g class="ytick"><text text-anchor="end" x="79" y="4.199999999999999" transform="translate(0,304.53999999999996)" style="font-family: 'Open Sans', verdana, arial, sans-serif; font-size: 12px; fill: rgb(42, 63, 95); fill-opacity: 1; white-space: pre;">0.866</text></g><g class="ytick"><text text-anchor="end" x="79" y="4.199999999999999" transform="translate(0,260.66999999999996)" style="font-family: 'Open Sans', verdana, arial, sans-serif; font-size: 12px; fill: rgb(42, 63, 95); fill-opacity: 1; white-space: pre;">0.867</text></g><g class="ytick"><text text-anchor="end" x="79" y="4.199999999999999" transform="translate(0,216.81)" style="font-family: 'Open Sans', verdana, arial, sans-serif; font-size: 12px; fill: rgb(42, 63, 95); fill-opacity: 1; white-space: pre;">0.868</text></g><g class="ytick"><text text-anchor="end" x="79" y="4.199999999999999" transform="translate(0,172.95)" style="font-family: 'Open Sans', verdana, arial, sans-serif; font-size: 12px; fill: rgb(42, 63, 95); fill-opacity: 1; white-space: pre;">0.869</text></g><g class="ytick"><text text-anchor="end" x="79" y="4.199999999999999" transform="translate(0,129.09)" style="font-family: 'Open Sans', verdana, arial, sans-serif; font-size: 12px; fill: rgb(42, 63, 95); fill-opacity: 1; white-space: pre;">0.87</text></g></g><g class="overaxes-above"/></g></g><g class="polarlayer"/><g class="ternarylayer"/><g class="geolayer"/><g class="funnelarealayer"/><g class="pielayer"/><g class="treemaplayer"/><g class="sunburstlayer"/><g class="glimages"/><defs id="topdefs-0110d0"><g class="clips"/><clipPath id="legend0110d0"><rect width="60" height="45" x="0" y="0"/></clipPath></defs><g class="layer-above"><g class="imagelayer"/><g class="shapelayer"/></g><g class="infolayer"><g class="legend" pointer-events="all" transform="translate(627.74,100)"><rect class="bg" shape-rendering="crispEdges" width="60" height="45" x="0" y="0" style="stroke: rgb(68, 68, 68); stroke-opacity: 1; fill: rgb(255, 255, 255); fill-opacity: 1; stroke-width: 0px;"/><g class="scrollbox" transform="" clip-path="url('#legend0110d0')"><text class="legendtitletext" text-anchor="start" x="2" y="15.600000000000001" style="font-family: 'Open Sans', verdana, arial, sans-serif; font-size: 12px; fill: rgb(42, 63, 95); fill-opacity: 1; white-space: pre;">All</text><g class="groups" transform=""><g class="traces" transform="translate(0,30.1)" style="opacity: 1;"><text class="legendtext" text-anchor="start" x="40" y="4.680000000000001" style="font-family: 'Open Sans', verdana, arial, sans-serif; font-size: 12px; fill: rgb(42, 63, 95); fill-opacity: 1; white-space: pre;">All</text><g class="layers" style="opacity: 1;"><g class="legendfill"/><g class="legendlines"><path class="js-line" d="M5,0h30" style="fill: none; stroke: rgb(99, 110, 250); stroke-opacity: 1; stroke-width: 2px;"/></g><g class="legendsymbols"><g class="legendpoints"/></g></g><rect class="legendtoggle" x="0" y="-9.5" width="54.890625" height="19" style="fill: rgb(0, 0, 0); fill-opacity: 0;"/></g></g></g><rect class="scrollbar" rx="20" ry="3" width="0" height="0" x="0" y="0" style="fill: rgb(128, 139, 164); fill-opacity: 1;"/></g><g class="g-gtitle"><text class="gtitle" x="35" y="50" text-anchor="start" dy="0em" style="font-family: 'Open Sans', verdana, arial, sans-serif; font-size: 17px; fill: rgb(42, 63, 95); opacity: 1; font-weight: normal; white-space: pre;">Singapore Vaccination Centers</text></g><g class="g-xtitle"><text class="xtitle" x="348.5" y="476.409375" text-anchor="middle" style="font-family: 'Open Sans', verdana, arial, sans-serif; font-size: 14px; fill: rgb(42, 63, 95); opacity: 1; font-weight: normal; white-space: pre;">Time</text></g><g class="g-ytitle"><text class="ytitle" transform="rotate(-90,19.840625000000003,260)" x="19.840625000000003" y="260" text-anchor="middle" style="font-family: 'Open Sans', verdana, arial, sans-serif; font-size: 14px; fill: rgb(42, 63, 95); opacity: 1; font-weight: normal; white-space: pre;">Filled/%</text></g></g></svg>