<svg class="main-svg" xmlns="http://www.w3.org/2000/svg" xmlns:xlink="http://www.w3.org/1999/xlink" width="700" height="500" style="" viewBox="0 0 700 500"><rect x="0" y="0" width="700" height="500" style="fill: rgb(255, 255, 255); fill-opacity: 1;"/><defs id="defs-7650b7"><g class="clips"><clipPath id="clip7650b7xyplot" class="plotclip"><rect width="537" height="320"/></clipPath><clipPath class="axesclip" id="clip7650b7x"><rect x="80" y="0" width="537" height="500"/></clipPath><clipPath class="axesclip" id="clip7650b7y"><rect x="0" y="100" width="700" height="320"/></clipPath><clipPath class="axesclip" id="clip7650b7xy"><rect x="80" y="100" width="537" height="320"/></clipPath></g><g class="gradients"/></defs><g class="bglayer"><rect class="bg" x="80" y="100" width="537" height="320" style="fill: rgb(229, 236, 246); fill-opacity: 1; stroke-width: 0;"/></g><g class="layer-below"><g class="imagelayer"/><g class="shapelayer"/></g><g class="cartesianlayer"><g class="subplot xy"><g class="layer-subplot"><g class="shapelayer"/><g class="imagelayer"/></g><g class="gridlayer"><g class="x"><path class="xgrid crisp" transform="translate(84.41,0)" d="M0,100v320" style="stroke: rgb(255, 255, 255); stroke-opacity: 1; stroke-width: 1px;"/><path class="xgrid crisp" transform="translate(169.41,0)" d="M0,100v320" style="stroke: rgb(255, 255, 255); stroke-opacity: 1; stroke-width: 1px;"/><path class="xgrid crisp" transform="translate(254.42,0)" d="M0,100v320" style="stroke: rgb(255, 255, 255); stroke-opacity: 1; stroke-width: 1px;"/><path class="xgrid crisp" transform="translate(339.42,0)" d="M0,100v320" style="stroke: rgb(255, 255, 255); stroke-opacity: 1; stroke-width: 1px;"/><path class="xgrid crisp" transform="translate(424.42,0)" d="M0,100v320" style="stroke: rgb(255, 255, 255); stroke-opacity: 1; stroke-width: 1px;"/><path class="xgrid crisp" transform="translate(509.42,0)" d="M0,100v320" style="stroke: rgb(255, 255, 255); stroke-opacity: 1; stroke-width: 1px;"/><path class="xgrid crisp" transform="translate(594.42,0)" d="M0,100v320" style="stroke: rgb(255, 255, 255); stroke-opacity: 1; stroke-width: 1px;"/></g><g class="y"><path class="ygrid crisp" transform="translate(0,392.55)" d="M80,0h537" style="stroke: rgb(255, 255, 255); stroke-opacity: 1; stroke-width: 1px;"/><path class="ygrid crisp" transform="translate(0,349.77)" d="M80,0h537" style="stroke: rgb(255, 255, 255); stroke-opacity: 1; stroke-width: 1px;"/><path class="ygrid crisp" transform="translate(0,306.99)" d="M80,0h537" style="stroke: rgb(255, 255, 255); stroke-opacity: 1; stroke-width: 1px;"/><path class="ygrid crisp" transform="translate(0,264.21000000000004)" d="M80,0h537" style="stroke: rgb(255, 255, 255); stroke-opacity: 1; stroke-width: 1px;"/><path class="ygrid crisp" transform="translate(0,221.43)" d="M80,0h537" style="stroke: rgb(255, 255, 255); stroke-opacity: 1; stroke-width: 1px;"/><path class="ygrid crisp" transform="translate(0,178.65)" d="M80,0h537" style="stroke: rgb(255, 255, 255); stroke-opacity: 1; stroke-width: 1px;"/><path class="ygrid crisp" transform="translate(0,135.87)" d="M80,0h537" style="stroke: rgb(255, 255, 255); stroke-opacity: 1; stroke-width: 1px;"/></g></g><g class="zerolinelayer"/><path class="xlines-below"/><path class="ylines-below"/><g class="overlines-below"/><g class="xaxislayer-below"/><g class="yaxislayer-below"/><g class="overaxes-below"/><g class="plot" transform="translate(80,100)" clip-path="url('#clip7650b7xyplot')"><g class="scatterlayer mlayer"><g class="trace scatter tracef15c8f" style="stroke-miterlimit: 2; opacity: 1;"><g class="fills"/><g class="errorbars"/><g class="lines"><path class="js-line" d="M0,304L3.4,302.59L4.59,249.74L5.77,251.04L6.95,249.35L11.67,248.71L12.85,248.32L15.21,249.1L16.39,248.19L17.6,248.84L18.75,248.58L23.47,247.67L24.66,247.93L28.2,247.16L29.38,246.9L34.1,247.29L35.28,246.9L41.18,246.77L42.36,246.77L45.91,245.73L47.09,245.99L51.8,245.09L52.98,244.44L54.17,244.96L55.35,244.57L56.52,243.66L57.71,243.92L58.89,244.57L60.07,243.02L63.61,242.11L64.79,242.63L65.97,242.24L67.15,243.15L68.33,242.24L69.52,240.17L71.87,240.69L73.05,239.78L77.78,237.84L78.96,236.94L81.31,238.23L82.5,237.07L83.68,235L84.86,235.51L86.04,236.55L87.22,235L89.58,232.67L90.76,232.28L93.13,230.6L94.31,231.12L96.66,229.95L97.85,230.21L99.03,231.76L100.21,229.56L103.75,230.6L104.93,230.21L107.3,226.46L108.48,226.07L109.66,226.85L110.84,225.55L112.02,225.68L113.19,227.36L114.38,227.11L115.56,225.55L120.28,221.16L121.46,218.44L122.64,219.09L123.82,217.66L125,216.63L126.18,217.4L128.54,217.66L129.72,218.7L134.45,216.5L135.63,216.37L137.99,215.72L139.17,214.69L140.35,214.3L141.53,214.82L142.72,215.98L143.89,215.98L146.25,213.78L147.43,213.52L150.98,212.75L152.16,212.23L153.34,211.45L154.52,211.84L160.42,211.58L161.6,211.84L163.96,210.42L165.14,208.87L166.32,207.7L167.5,207.7L168.69,206.93L169.87,207.83L173.41,207.96L174.59,142.27L178.13,140.18L179.31,140.44L181.67,139.92L182.85,139.01L185.21,139.14L186.4,139.14L191.12,138.48L192.29,138.35L195.84,137.83L197.02,137.96L207.64,137.96L208.83,138.09L217.09,137.83L218.27,137.18L221.81,137.18L222.99,136.14L227.71,136.27L228.89,135.74L231.25,135.88L232.43,135.22L234.8,134.57L235.97,135.22L239.52,132.22L240.69,132.22L241.88,133.27L243.05,132.88L245.42,131.57L246.6,132.22L250.14,130.14L251.32,128.44L252.5,130.14L253.68,129.35L257.22,127.14L258.41,128.05L260.77,126.48L261.94,127.66L263.13,128.7L264.31,127.79L265.49,128.83L266.67,128.31L267.85,127.4L269.03,128.44L270.21,127.79L271.39,128.18L274.93,128.83L276.12,128.44L278.5,126.48L279.67,125.05L282.03,124.92L283.22,125.44L284.39,125.96L285.58,124.01L290.3,123.09L291.48,121.4L295.02,122.44L296.2,121.92L298.56,118.4L299.75,119.96L300.93,119.96L302.11,118.79L303.29,119.7L304.46,119.18L306.83,117.35L308.01,117.48L311.55,114.35L312.73,114.48L315.1,112.14L316.27,112.92L318.63,110.83L319.82,111.35L323.35,110.7L324.54,108.09L325.72,107.96L326.89,106.92L328.08,105.48L329.26,105.74L330.44,106L331.62,107.18L332.81,107.83L333.98,107.18L335.17,109.13L336.34,108.35L337.52,108.22L338.7,106.66L339.88,106.27L341.07,106.79L343.43,107.05L344.61,61.25L346.96,59.41L348.15,59.15L350.51,58.49L351.69,57.57L355.23,57.04L356.41,56.78L361.13,55.46L362.31,54.54L364.68,54.28L365.86,54.81L369.4,53.62L370.58,53.75L384.74,52.44L385.92,52.7L390.65,51.78L391.83,52.04L394.19,51.78L395.37,52.18L398.91,51.12L400.08,51.25L401.28,51.52L402.44,50.73L409.53,50.07L411.89,49.54L413.07,48.23L415.43,47.83L417.79,47.44L418.97,45.73L420.16,46.91L421.34,45.73L423.7,45.73L424.88,45.07L426.06,44.94L427.24,43.76L430.78,43.49L431.96,41.91L434.32,40.2L435.51,39.42L436.65,38.1L437.82,38.76L440.18,37.31L441.37,37.71L442.55,36L443.72,35.73L444.91,35.21L446.09,35.6L447.27,35.34L448.45,33.36L449.63,32.71L450.81,33.23L453.17,32.44L454.36,32.05L455.54,31.92L456.71,30.86L459.08,30.86L460.25,31.39L462.62,32.97L463.81,31.13L466.16,32.31L467.36,30.34L469.71,30.47L470.89,30.86L474.43,29.02L475.61,29.42L477.97,27.71L479.15,26.66L480.33,24.16L481.52,24.68L482.69,23.24L483.87,24.68L485.05,23.1L486.24,22.84L487.42,22.58L488.59,21.26L492.14,21.79L493.31,20.74L494.49,21.26L495.68,19.68L498.04,19.55L499.22,18.5L503.94,18.89L505.12,17.97L506.3,17.45L507.48,17.84L508.67,17.97L509.84,17.05L511.03,16L512.2,16.66L513.39,16.39L514.57,171.81L520.47,171.4L521.66,172.08L525.19,170.99L526.37,170.99L528.74,169.76L529.91,169.76L532.27,168.94L533.45,169.08L537,168.67" style="vector-effect: non-scaling-stroke; fill: none; stroke: rgb(99, 110, 250); stroke-opacity: 1; stroke-width: 2px; opacity: 1;"/></g><g class="points"/><g class="text"/></g></g></g><g class="overplot"/><path class="xlines-above crisp" d="M0,0" style="fill: none;"/><path class="ylines-above crisp" d="M0,0" style="fill: none;"/><g class="overlines-above"/><g class="xaxislayer-above"><g class="xtick"><text text-anchor="middle" x="0" y="433" transform="translate(84.41,0)" style="font-family: 'Open Sans', verdana, arial, sans-serif; font-size: 12px; fill: rgb(42, 63, 95); fill-opacity: 1; white-space: pre;"><tspan class="line" dy="0em" x="0" y="433">00:00</tspan><tspan class="line" dy="1.3em" x="0" y="433">Aug 3, 2021</tspan></text></g><g class="xtick"><text text-anchor="middle" x="0" y="433" transform="translate(169.41,0)" style="font-family: 'Open Sans', verdana, arial, sans-serif; font-size: 12px; fill: rgb(42, 63, 95); fill-opacity: 1; white-space: pre;">12:00</text></g><g class="xtick"><text text-anchor="middle" x="0" y="433" transform="translate(254.42,0)" style="font-family: 'Open Sans', verdana, arial, sans-serif; font-size: 12px; fill: rgb(42, 63, 95); fill-opacity: 1; white-space: pre;"><tspan class="line" dy="0em" x="0" y="433">00:00</tspan><tspan class="line" dy="1.3em" x="0" y="433">Aug 4, 2021</tspan></text></g><g class="xtick"><text text-anchor="middle" x="0" y="433" transform="translate(339.42,0)" style="font-family: 'Open Sans', verdana, arial, sans-serif; font-size: 12px; fill: rgb(42, 63, 95); fill-opacity: 1; white-space: pre;">12:00</text></g><g class="xtick"><text text-anchor="middle" x="0" y="433" transform="translate(424.42,0)" style="font-family: 'Open Sans', verdana, arial, sans-serif; font-size: 12px; fill: rgb(42, 63, 95); fill-opacity: 1; white-space: pre;"><tspan class="line" dy="0em" x="0" y="433">00:00</tspan><tspan class="line" dy="1.3em" x="0" y="433">Aug 5, 2021</tspan></text></g><g class="xtick"><text text-anchor="middle" x="0" y="433" transform="translate(509.42,0)" style="font-family: 'Open Sans', verdana, arial, sans-serif; font-size: 12px; fill: rgb(42, 63, 95); fill-opacity: 1; white-space: pre;">12:00</text></g><g class="xtick"><text text-anchor="middle" x="0" y="433" transform="translate(594.42,0)" style="font-family: 'Open Sans', verdana, arial, sans-serif; font-size: 12px; fill: rgb(42, 63, 95); fill-opacity: 1; white-space: pre;"><tspan class="line" dy="0em" x="0" y="433">00:00</tspan><tspan class="line" dy="1.3em" x="0" y="433">Aug 6, 2021</tspan></text></g></g><g class="yaxislayer-above"><g class="ytick"><text text-anchor="end" x="79" y="4.199999999999999" transform="translate(0,392.55)" style="font-family: 'Open Sans', verdana, arial, sans-serif; font-size: 12px; fill: rgb(42, 63, 95); fill-opacity: 1; white-space: pre;">0.864</text></g><g class="ytick"><text text-anchor="end" x="79" y="4.199999999999999" transform="translate(0,349.77)" style="font-family: 'Open Sans', verdana, arial, sans-serif; font-size: 12px; fill: rgb(42, 63, 95); fill-opacity: 1; white-space: pre;">0.865</text></g><g class="ytick"><text text-anchor="end" x="79" y="4.199999999999999" transform="translate(0,306.99)" style="font-family: 'Open Sans', verdana, arial, sans-serif; font-size: 12px; fill: rgb(42, 63, 95); fill-opacity: 1; white-space: pre;">0.866</text></g><g class="ytick"><text text-anchor="end" x="79" y="4.199999999999999" transform="translate(0,264.21000000000004)" style="font-family: 'Open Sans', verdana, arial, sans-serif; font-size: 12px; fill: rgb(42, 63, 95); fill-opacity: 1; white-space: pre;">0.867</text></g><g class="ytick"><text text-anchor="end" x="79" y="4.199999999999999" transform="translate(0,221.43)" style="font-family: 'Open Sans', verdana, arial, sans-serif; font-size: 12px; fill: rgb(42, 63, 95); fill-opacity: 1; white-space: pre;">0.868</text></g><g class="ytick"><text text-anchor="end" x="79" y="4.199999999999999" transform="translate(0,178.65)" style="font-family: 'Open Sans', verdana, arial, sans-serif; font-size: 12px; fill: rgb(42, 63, 95); fill-opacity: 1; white-space: pre;">0.869</text></g><g class="ytick"><text text-anchor="end" x="79" y="4.199999999999999" transform="translate(0,135.87)" style="font-family: 'Open Sans', verdana, arial, sans-serif; font-size: 12px; fill: rgb(42, 63, 95); fill-opacity: 1; white-space: pre;">0.87</text></g></g><g class="overaxes-above"/></g></g><g class="polarlayer"/><g class="ternarylayer"/><g class="geolayer"/><g class="funnelarealayer"/><g class="pielayer"/><g class="treemaplayer"/><g class="sunburstlayer"/><g class="glimages"/><defs id="topdefs-7650b7"><g class="clips"/><clipPath id="legend7650b7"><rect width="60" height="45" x="0" y="0"/></clipPath></defs><g class="layer-above"><g class="imagelayer"/><g class="shapelayer"/></g><g class="infolayer"><g class="legend" pointer-events="all" transform="translate(627.74,100)"><rect class="bg" shape-rendering="crispEdges" width="60" height="45" x="0" y="0" style="stroke: rgb(68, 68, 68); stroke-opacity: 1; fill: rgb(255, 255, 255); fill-opacity: 1; stroke-width: 0px;"/><g class="scrollbox" transform="" clip-path="url('#legend7650b7')"><text class="legendtitletext" text-anchor="start" x="2" y="15.600000000000001" style="font-family: 'Open Sans', verdana, arial, sans-serif; font-size: 12px; fill: rgb(42, 63, 95); fill-opacity: 1; white-space: pre;">All</text><g class="groups" transform=""><g class="traces" transform="translate(0,30.1)" style="opacity: 1;"><text class="legendtext" text-anchor="start" x="40" y="4.680000000000001" style="font-family: 'Open Sans', verdana, arial, sans-serif; font-size: 12px; fill: rgb(42, 63, 95); fill-opacity: 1; white-space: pre;">All</text><g class="layers" style="opacity: 1;"><g class="legendfill"/><g class="legendlines"><path class="js-line" d="M5,0h30" style="fill: none; stroke: rgb(99, 110, 250); stroke-opacity: 1; stroke-width: 2px;"/></g><g class="legendsymbols"><g class="legendpoints"/></g></g><rect class="legendtoggle" x="0" y="-9.5" width="54.890625" height="19" style="fill: rgb(0, 0, 0); fill-opacity: 0;"/></g></g></g><rect class="scrollbar" rx="20" ry="3" width="0" height="0" x="0" y="0" style="fill: rgb(128, 139, 164); fill-opacity: 1;"/></g><g class="g-gtitle"><text class="gtitle" x="35" y="50" text-anchor="start" dy="0em" style="font-family: 'Open Sans', verdana, arial, sans-serif; font-size: 17px; fill: rgb(42, 63, 95); opacity: 1; font-weight: normal; white-space: pre;">Singapore Vaccination Centers</text></g><g class="g-xtitle"><text class="xtitle" x="348.5" y="476.409375" text-anchor="middle" style="font-family: 'Open Sans', verdana, arial, sans-serif; font-size: 14px; fill: rgb(42, 63, 95); opacity: 1; font-weight: normal; white-space: pre;">Time</text></g><g class="g-ytitle"><text class="ytitle" transform="rotate(-90,19.840625000000003,260)" x="19.840625000000003" y="260" text-anchor="middle" style="font-family: 'Open Sans', verdana, arial, sans-serif; font-size: 14px; fill: rgb(42, 63, 95); opacity: 1; font-weight: normal; white-space: pre;">Filled/%</text></g></g></svg>