<svg class="main-svg" xmlns="http://www.w3.org/2000/svg" xmlns:xlink="http://www.w3.org/1999/xlink" width="700" height="500" style="" viewBox="0 0 700 500"><rect x="0" y="0" width="700" height="500" style="fill: rgb(255, 255, 255); fill-opacity: 1;"/><defs id="defs-862d4d"><g class="clips"><clipPath id="clip862d4dxyplot" class="plotclip"><rect width="537" height="320"/></clipPath><clipPath class="axesclip" id="clip862d4dx"><rect x="80" y="0" width="537" height="500"/></clipPath><clipPath class="axesclip" id="clip862d4dy"><rect x="0" y="100" width="700" height="320"/></clipPath><clipPath class="axesclip" id="clip862d4dxy"><rect x="80" y="100" width="537" height="320"/></clipPath></g><g class="gradients"/></defs><g class="bglayer"><rect class="bg" x="80" y="100" width="537" height="320" style="fill: rgb(229, 236, 246); fill-opacity: 1; stroke-width: 0;"/></g><g class="layer-below"><g class="imagelayer"/><g class="shapelayer"/></g><g class="cartesianlayer"><g class="subplot xy"><g class="layer-subplot"><g class="shapelayer"/><g class="imagelayer"/></g><g class="gridlayer"><g class="x"><path class="xgrid crisp" transform="translate(90.76,0)" d="M0,100v320" style="stroke: rgb(255, 255, 255); stroke-opacity: 1; stroke-width: 1px;"/><path class="xgrid crisp" transform="translate(206.62,0)" d="M0,100v320" style="stroke: rgb(255, 255, 255); stroke-opacity: 1; stroke-width: 1px;"/><path class="xgrid crisp" transform="translate(322.47,0)" d="M0,100v320" style="stroke: rgb(255, 255, 255); stroke-opacity: 1; stroke-width: 1px;"/><path class="xgrid crisp" transform="translate(438.33,0)" d="M0,100v320" style="stroke: rgb(255, 255, 255); stroke-opacity: 1; stroke-width: 1px;"/><path class="xgrid crisp" transform="translate(554.19,0)" d="M0,100v320" style="stroke: rgb(255, 255, 255); stroke-opacity: 1; stroke-width: 1px;"/></g><g class="y"><path class="ygrid crisp" transform="translate(0,367.23)" d="M80,0h537" style="stroke: rgb(255, 255, 255); stroke-opacity: 1; stroke-width: 1px;"/><path class="ygrid crisp" transform="translate(0,308.43)" d="M80,0h537" style="stroke: rgb(255, 255, 255); stroke-opacity: 1; stroke-width: 1px;"/><path class="ygrid crisp" transform="translate(0,249.63)" d="M80,0h537" style="stroke: rgb(255, 255, 255); stroke-opacity: 1; stroke-width: 1px;"/><path class="ygrid crisp" transform="translate(0,190.82999999999998)" d="M80,0h537" style="stroke: rgb(255, 255, 255); stroke-opacity: 1; stroke-width: 1px;"/><path class="ygrid crisp" transform="translate(0,132.03)" d="M80,0h537" style="stroke: rgb(255, 255, 255); stroke-opacity: 1; stroke-width: 1px;"/></g></g><g class="zerolinelayer"/><path class="xlines-below"/><path class="ylines-below"/><g class="overlines-below"/><g class="xaxislayer-below"/><g class="yaxislayer-below"/><g class="overaxes-below"/><g class="plot" transform="translate(80,100)" clip-path="url('#clip862d4dxyplot')"><g class="scatterlayer mlayer"><g class="trace scatter traceda8288" style="stroke-miterlimit: 2; opacity: 1;"><g class="fills"/><g class="errorbars"/><g class="lines"><path class="js-line" d="M0,82.28L6.79,82.51L9.21,120.48L14.01,120.57L15.79,136.92L16.54,136.9L34.31,137.96L35.41,121.23L35.75,129.62L36.55,129.56L38.16,126.37L38.97,126.27L40.58,129.79L41.38,129.7L42.99,132.71L43.79,132.63L45.4,120.69L46.21,120.62L47.82,132.64L48.62,132.55L50.23,126.68L51.03,123.32L52.65,113.21L53.45,109.51L55.06,94.58L55.86,92.89L57.47,74.17L58.28,72.87L59.89,78.78L60.69,77.73L62.3,63.68L63.1,62.82L64.71,65.47L65.52,64.83L67.13,74.27L67.93,73.83L68.99,51.83L70.34,52.34L71.15,52.21L80,51.78L80.8,51.77L90.46,51.11L91.26,50.91L118.62,42.44L119.42,42.24L125.86,40.95L126.67,41.79L140.34,41.47L141.15,41.46L153.21,40.8L154.02,40.69L183.79,36.83L184.59,35.53L215.97,34L216.78,33.87L241.72,31.05L242.53,28.56L269.88,27.81L270.69,95.38L279.56,93.57L280.34,93.44L281.15,93.12L281.95,91.51L284.36,88.51L285.17,87.52L289.19,73.59L289.99,72.39L294.82,67.88L295.63,67.37L299.65,65.43L300.46,65.5L306.09,64.8L306.9,64.77L324.59,63.66L325.4,63.48L331.03,61.32L331.83,60.89L332.64,60.46L333.44,62.78L336.66,61.15L337.47,59.94L342.29,53.24L343.1,52.44L346.31,47.98L347.12,45.51L350.34,38.66L351.14,37.65L355.16,33.5L355.97,32.89L359.19,31.98L359.99,31.8L366.43,31.18L367.24,31.16L379.3,30.17L380.11,29.9L384.93,28.09L385.74,74.81L387.35,73.22L388.15,72.76L397,68.8L397.62,71.93L397.81,68.39L398.58,68.25L398.61,69.25L399.38,67.95L399.42,68.94L400.22,68.62L401.83,68.09L402.64,76.43L409.68,73.91L409.71,72.31L409.75,72.03L409.88,73.74L417.52,44.74L417.92,44.87L418.33,41.95L419.13,42.12L419.53,43.2L420.74,37.43L421.14,41.6L422.35,39.66L422.75,39.05L423.96,38.13L424.36,38.96L424.76,38.26L425.16,38.53L425.57,38.42L426.78,38.4L427.18,43.02L431.6,41.69L432,36.5L432.81,35.76L433.21,35.39L434.41,33.79L434.82,33.41L438.04,22.43L438.44,16L438.84,16.8L439.24,140.18L439.65,139.22L440.05,142.07L440.85,136.79L441.26,138.99L442.06,136.15L442.46,136.63L442.86,141.25L443.27,146.68L443.67,133.42L444.47,138.09L444.88,157.2L446.08,133.53L446.48,145.44L446.89,148.42L447.29,146.68L447.69,144.02L448.49,134.36L448.9,135.71L449.3,141.84L449.7,146.05L450.11,142.1L450.51,141.74L450.91,151.77L451.71,140.84L452.11,148.68L452.92,127.07L453.32,137.58L454.13,140.49L454.53,138.92L455.34,130.34L455.74,131.67L456.14,129.31L456.54,138.25L456.94,134.05L457.34,138.68L457.75,138.81L458.15,131.49L458.55,131.42L458.95,140.05L459.76,132.48L460.16,138.41L460.97,141.46L461.37,128.79L462.17,142.96L462.58,264.58L463.38,292.55L463.79,293.12L464.19,304L464.59,286.22L464.99,301.52L465.39,291.75L465.8,292.1L466.2,291.07L466.6,294.16L467,293.46L467.4,276.02L467.81,283.67L468.21,262.28L469.01,272.54L469.41,248.89L470.22,241.71L470.62,229.6L471.02,224.98L471.43,228.24L471.83,227.36L473.03,215.22L473.44,217.06L473.84,216.4L474.24,227.08L474.64,226.08L475.05,228.38L475.45,228.68L475.85,224.72L476.25,233.57L476.66,224.28L477.46,227.75L477.86,223.07L478.67,226.33L479.07,223.26L479.47,224.52L479.88,234.01L480.28,220.81L480.68,231.91L481.08,224.2L483.5,212.72L483.9,220.76L484.7,220.72L485.1,223.7L485.51,223.67L485.91,219.37L486.31,223.08L486.71,218.62L487.11,226.76L487.52,225.2L487.92,224.19L488.32,219.51L488.73,225.16L489.93,225.11L490.33,216.49L490.74,225.05L491.14,220.43L491.54,220.57L491.94,218.19L492.35,220.92L492.75,219.84L493.15,227.36L493.55,216.65L493.95,220.1L494.36,220.01L495.16,220.98L495.56,218.78L496.37,223.64L496.77,218.66L497.17,205.85L497.58,215.25L497.98,220.32L498.38,206.18L498.78,206.81L499.18,214.16L499.59,214.11L499.99,206.99L500.8,212.47L501.2,202.23L501.6,199.24L502,208.71L502.41,224.84L502.8,215.2L503.21,214.49L503.61,205.74L504.01,219.6L504.82,195.82L505.22,209.77L505.62,208.24L506.02,203.32L506.42,202.05L506.83,205.17L507.23,200.81L507.63,208.16L508.03,206.35L508.44,209.96L508.84,207.44L509.24,196.45L509.64,195.36L510.05,196.45L510.85,209.39L511.25,202.33L511.65,210.92L512.05,197.09L512.46,197.31L512.86,191.05L513.26,191.24L513.66,196.07L514.07,200.65L514.47,194.37L515.68,210.5L516.08,204.27L516.88,191.94L517.29,193.62L517.69,197L518.09,205.03L518.49,197.14L518.89,198.57L519.3,192.99L520.51,184.28L520.91,189.51L521.71,194.59L522.11,189.23L522.52,191.91L522.92,189.81L523.32,182.31L523.72,187.7L524.12,187L524.53,183.28L524.93,186.18L525.33,185.69L525.74,181.61L526.14,182.61L526.54,186.54L527.34,187.68L527.75,186.58L528.15,181.49L528.55,187.81L529.36,185.81L529.76,187.22L530.16,189.17L530.57,187L531.77,194.82L532.18,189.57L532.57,183.36L532.98,189.2L533.38,186.45L533.78,187.34L534.18,187.88L534.59,187.85L534.99,183.53L536.2,187.65L536.6,184.59L537,184.57" style="vector-effect: non-scaling-stroke; fill: none; stroke: rgb(99, 110, 250); stroke-opacity: 1; stroke-width: 2px; opacity: 1;"/></g><g class="points"/><g class="text"/></g></g></g><g class="overplot"/><path class="xlines-above crisp" d="M0,0" style="fill: none;"/><path class="ylines-above crisp" d="M0,0" style="fill: none;"/><g class="overlines-above"/><g class="xaxislayer-above"><g class="xtick"><text text-anchor="middle" x="0" y="433" transform="translate(90.76,0)" style="font-family: 'Open Sans', verdana, arial, sans-serif; font-size: 12px; fill: rgb(42, 63, 95); fill-opacity: 1; white-space: pre;"><tspan class="line" dy="0em" x="0" y="433">Jun 4</tspan><tspan class="line" dy="1.3em" x="0" y="433">2021</tspan></text></g><g class="xtick"><text text-anchor="middle" x="0" y="433" transform="translate(206.62,0)" style="font-family: 'Open Sans', verdana, arial, sans-serif; font-size: 12px; fill: rgb(42, 63, 95); fill-opacity: 1; white-space: pre;">Jun 6</text></g><g class="xtick"><text text-anchor="middle" x="0" y="433" transform="translate(322.47,0)" style="font-family: 'Open Sans', verdana, arial, sans-serif; font-size: 12px; fill: rgb(42, 63, 95); fill-opacity: 1; white-space: pre;">Jun 8</text></g><g class="xtick"><text text-anchor="middle" x="0" y="433" transform="translate(438.33,0)" style="font-family: 'Open Sans', verdana, arial, sans-serif; font-size: 12px; fill: rgb(42, 63, 95); fill-opacity: 1; white-space: pre;">Jun 10</text></g><g class="xtick"><text text-anchor="middle" x="0" y="433" transform="translate(554.19,0)" style="font-family: 'Open Sans', verdana, arial, sans-serif; font-size: 12px; fill: rgb(42, 63, 95); fill-opacity: 1; white-space: pre;">Jun 12</text></g></g><g class="yaxislayer-above"><g class="ytick"><text text-anchor="end" x="79" y="4.199999999999999" transform="translate(0,367.23)" style="font-family: 'Open Sans', verdana, arial, sans-serif; font-size: 12px; fill: rgb(42, 63, 95); fill-opacity: 1; white-space: pre;">0.8</text></g><g class="ytick"><text text-anchor="end" x="79" y="4.199999999999999" transform="translate(0,308.43)" style="font-family: 'Open Sans', verdana, arial, sans-serif; font-size: 12px; fill: rgb(42, 63, 95); fill-opacity: 1; white-space: pre;">0.82</text></g><g class="ytick"><text text-anchor="end" x="79" y="4.199999999999999" transform="translate(0,249.63)" style="font-family: 'Open Sans', verdana, arial, sans-serif; font-size: 12px; fill: rgb(42, 63, 95); fill-opacity: 1; white-space: pre;">0.84</text></g><g class="ytick"><text text-anchor="end" x="79" y="4.199999999999999" transform="translate(0,190.82999999999998)" style="font-family: 'Open Sans', verdana, arial, sans-serif; font-size: 12px; fill: rgb(42, 63, 95); fill-opacity: 1; white-space: pre;">0.86</text></g><g class="ytick"><text text-anchor="end" x="79" y="4.199999999999999" transform="translate(0,132.03)" style="font-family: 'Open Sans', verdana, arial, sans-serif; font-size: 12px; fill: rgb(42, 63, 95); fill-opacity: 1; white-space: pre;">0.88</text></g></g><g class="overaxes-above"/></g></g><g class="polarlayer"/><g class="ternarylayer"/><g class="geolayer"/><g class="funnelarealayer"/><g class="pielayer"/><g class="treemaplayer"/><g class="sunburstlayer"/><g class="glimages"/><defs id="topdefs-862d4d"><g class="clips"/><clipPath id="legend862d4d"><rect width="60" height="45" x="0" y="0"/></clipPath></defs><g class="layer-above"><g class="imagelayer"/><g class="shapelayer"/></g><g class="infolayer"><g class="legend" pointer-events="all" transform="translate(627.74,100)"><rect class="bg" shape-rendering="crispEdges" width="60" height="45" x="0" y="0" style="stroke: rgb(68, 68, 68); stroke-opacity: 1; fill: rgb(255, 255, 255); fill-opacity: 1; stroke-width: 0px;"/><g class="scrollbox" transform="" clip-path="url('#legend862d4d')"><text class="legendtitletext" text-anchor="start" x="2" y="15.600000000000001" style="font-family: 'Open Sans', verdana, arial, sans-serif; font-size: 12px; fill: rgb(42, 63, 95); fill-opacity: 1; white-space: pre;">All</text><g class="groups" transform=""><g class="traces" transform="translate(0,30.1)" style="opacity: 1;"><text class="legendtext" text-anchor="start" x="40" y="4.680000000000001" style="font-family: 'Open Sans', verdana, arial, sans-serif; font-size: 12px; fill: rgb(42, 63, 95); fill-opacity: 1; white-space: pre;">All</text><g class="layers" style="opacity: 1;"><g class="legendfill"/><g class="legendlines"><path class="js-line" d="M5,0h30" style="fill: none; stroke: rgb(99, 110, 250); stroke-opacity: 1; stroke-width: 2px;"/></g><g class="legendsymbols"><g class="legendpoints"/></g></g><rect class="legendtoggle" x="0" y="-9.5" width="54.890625" height="19" style="fill: rgb(0, 0, 0); fill-opacity: 0;"/></g></g></g><rect class="scrollbar" rx="20" ry="3" width="0" height="0" x="0" y="0" style="fill: rgb(128, 139, 164); fill-opacity: 1;"/></g><g class="g-gtitle"><text class="gtitle" x="35" y="50" text-anchor="start" dy="0em" style="font-family: 'Open Sans', verdana, arial, sans-serif; font-size: 17px; fill: rgb(42, 63, 95); opacity: 1; font-weight: normal; white-space: pre;">Singapore Vaccination Centers</text></g><g class="g-xtitle"><text class="xtitle" x="348.5" y="476.409375" text-anchor="middle" style="font-family: 'Open Sans', verdana, arial, sans-serif; font-size: 14px; fill: rgb(42, 63, 95); opacity: 1; font-weight: normal; white-space: pre;">Time</text></g><g class="g-ytitle"><text class="ytitle" transform="rotate(-90,27.481250000000003,260)" x="27.481250000000003" y="260" text-anchor="middle" style="font-family: 'Open Sans', verdana, arial, sans-serif; font-size: 14px; fill: rgb(42, 63, 95); opacity: 1; font-weight: normal; white-space: pre;">Filled/%</text></g></g></svg>