<svg class="main-svg" xmlns="http://www.w3.org/2000/svg" xmlns:xlink="http://www.w3.org/1999/xlink" width="700" height="500" style="" viewBox="0 0 700 500"><rect x="0" y="0" width="700" height="500" style="fill: rgb(255, 255, 255); fill-opacity: 1;"/><defs id="defs-b0b7b4"><g class="clips"><clipPath id="clipb0b7b4xyplot" class="plotclip"><rect width="537" height="320"/></clipPath><clipPath class="axesclip" id="clipb0b7b4x"><rect x="80" y="0" width="537" height="500"/></clipPath><clipPath class="axesclip" id="clipb0b7b4y"><rect x="0" y="100" width="700" height="320"/></clipPath><clipPath class="axesclip" id="clipb0b7b4xy"><rect x="80" y="100" width="537" height="320"/></clipPath></g><g class="gradients"/></defs><g class="bglayer"><rect class="bg" x="80" y="100" width="537" height="320" style="fill: rgb(229, 236, 246); fill-opacity: 1; stroke-width: 0;"/></g><g class="layer-below"><g class="imagelayer"/><g class="shapelayer"/></g><g class="cartesianlayer"><g class="subplot xy"><g class="layer-subplot"><g class="shapelayer"/><g class="imagelayer"/></g><g class="gridlayer"><g class="x"><path class="xgrid crisp" transform="translate(93.53999999999999,0)" d="M0,100v320" style="stroke: rgb(255, 255, 255); stroke-opacity: 1; stroke-width: 1px;"/><path class="xgrid crisp" transform="translate(166.43,0)" d="M0,100v320" style="stroke: rgb(255, 255, 255); stroke-opacity: 1; stroke-width: 1px;"/><path class="xgrid crisp" transform="translate(239.32,0)" d="M0,100v320" style="stroke: rgb(255, 255, 255); stroke-opacity: 1; stroke-width: 1px;"/><path class="xgrid crisp" transform="translate(312.21000000000004,0)" d="M0,100v320" style="stroke: rgb(255, 255, 255); stroke-opacity: 1; stroke-width: 1px;"/><path class="xgrid crisp" transform="translate(385.1,0)" d="M0,100v320" style="stroke: rgb(255, 255, 255); stroke-opacity: 1; stroke-width: 1px;"/><path class="xgrid crisp" transform="translate(457.99,0)" d="M0,100v320" style="stroke: rgb(255, 255, 255); stroke-opacity: 1; stroke-width: 1px;"/><path class="xgrid crisp" transform="translate(530.88,0)" d="M0,100v320" style="stroke: rgb(255, 255, 255); stroke-opacity: 1; stroke-width: 1px;"/><path class="xgrid crisp" transform="translate(603.77,0)" d="M0,100v320" style="stroke: rgb(255, 255, 255); stroke-opacity: 1; stroke-width: 1px;"/></g><g class="y"><path class="ygrid crisp" transform="translate(0,396.08)" d="M80,0h537" style="stroke: rgb(255, 255, 255); stroke-opacity: 1; stroke-width: 1px;"/><path class="ygrid crisp" transform="translate(0,357.65)" d="M80,0h537" style="stroke: rgb(255, 255, 255); stroke-opacity: 1; stroke-width: 1px;"/><path class="ygrid crisp" transform="translate(0,319.21000000000004)" d="M80,0h537" style="stroke: rgb(255, 255, 255); stroke-opacity: 1; stroke-width: 1px;"/><path class="ygrid crisp" transform="translate(0,280.77)" d="M80,0h537" style="stroke: rgb(255, 255, 255); stroke-opacity: 1; stroke-width: 1px;"/><path class="ygrid crisp" transform="translate(0,242.33)" d="M80,0h537" style="stroke: rgb(255, 255, 255); stroke-opacity: 1; stroke-width: 1px;"/><path class="ygrid crisp" transform="translate(0,203.9)" d="M80,0h537" style="stroke: rgb(255, 255, 255); stroke-opacity: 1; stroke-width: 1px;"/><path class="ygrid crisp" transform="translate(0,165.45999999999998)" d="M80,0h537" style="stroke: rgb(255, 255, 255); stroke-opacity: 1; stroke-width: 1px;"/><path class="ygrid crisp" transform="translate(0,127.02)" d="M80,0h537" style="stroke: rgb(255, 255, 255); stroke-opacity: 1; stroke-width: 1px;"/></g></g><g class="zerolinelayer"/><path class="xlines-below"/><path class="ylines-below"/><g class="overlines-below"/><g class="xaxislayer-below"/><g class="yaxislayer-below"/><g class="overaxes-below"/><g class="plot" transform="translate(80,100)" clip-path="url('#clipb0b7b4xyplot')"><g class="scatterlayer mlayer"><g class="trace scatter traceaef2eb" style="stroke-miterlimit: 2; opacity: 1;"><g class="fills"/><g class="errorbars"/><g class="lines"><path class="js-line" d="M0,158.43L8.55,159.03L11.58,258.3L17.62,258.53L19.86,301.29L20.81,301.24L43.17,304L44.56,260.25L44.98,282.21L46,282.04L48.02,273.71L49.03,273.45L51.06,282.63L52.07,282.41L54.09,290.28L55.1,290.06L57.13,258.86L58.15,258.67L60.17,290.09L61.18,289.85L63.2,274.51L64.22,265.73L66.24,239.29L67.25,229.62L69.28,190.57L70.29,186.17L72.31,137.21L73.33,133.82L75.35,149.27L76.36,146.52L78.39,109.79L79.4,107.53L81.43,114.48L82.44,112.78L84.46,137.47L85.48,136.32L86.81,78.81L87.5,80.65L88.51,80.15L93.57,79.1L94.59,79.01L99.65,78.7L100.66,78.68L110.78,77.87L111.79,77.61L115.84,75.72L116.86,75.06L140.14,58.56L141.16,58.1L158.37,50.36L159.38,52.55L167.48,51.84L168.49,51.82L189.75,50.78L190.76,50.51L231.25,39.57L232.27,36.2L241.38,35.78L242.39,35.77L260.61,34.98L261.63,34.76L274.79,31.31L275.8,31.04L286.94,28.46L287.95,28.3L304.15,24.47L305.17,17.97L318.33,17.64L319.34,17.64L333.51,17.02L334.52,16.87L339.58,16L340.6,192.67L347.69,189.35L348.72,188.93L353.76,186.77L354.77,182.56L356.8,176.29L357.81,174.72L358.82,172.11L359.83,164.66L361.86,143.76L362.87,139.09L366.92,127.85L367.93,125.76L372.99,118.2L374,116.99L377.04,114.37L378.06,114.55L382.11,113.06L383.12,112.94L393.24,112.35L394.25,112.32L404.38,111.31L405.39,111.07L412.47,107.6L413.49,106.68L418.55,101.38L419.56,107.44L422.6,105.22L423.61,103.17L429.68,84.52L430.7,82.49L433.74,74.76L434.75,71.75L435.76,68.73L436.77,62.28L439.81,47.45L440.82,44.37L445.88,32.6L446.89,30.87L449.93,27.16L450.95,27.58L454.99,25.68L456.01,25.47L464.11,24.63L465.12,24.59L474.23,23.52L475.24,23.2L479.29,20.72L480.3,19.95L484.35,16.73L485.36,138.89L487.39,134.74L488.4,133.52L495.49,126.28L496.5,125.54L499.54,123.19L500.32,131.35L500.55,122.1L501.52,121.74L501.57,124.34L502.53,120.94L502.58,123.55L503.59,122.71L505.62,121.32L506.63,143.13L515.49,136.53L515.53,132.35L515.58,131.62L515.74,136.08L525.36,60.26L525.86,60.6L526.37,52.97L527.38,53.42L527.89,56.23L529.4,41.15L529.91,52.06L530.42,48.26L530.92,48.33L531.43,46.99L533.45,42.97L533.96,45.15L534.47,43.33L534.97,44.04L535.48,43.74L537,43.69" style="vector-effect: non-scaling-stroke; fill: none; stroke: rgb(99, 110, 250); stroke-opacity: 1; stroke-width: 2px; opacity: 1;"/></g><g class="points"/><g class="text"/></g></g></g><g class="overplot"/><path class="xlines-above crisp" d="M0,0" style="fill: none;"/><path class="ylines-above crisp" d="M0,0" style="fill: none;"/><g class="overlines-above"/><g class="xaxislayer-above"><g class="xtick"><text text-anchor="middle" x="0" y="433" transform="translate(93.53999999999999,0)" style="font-family: 'Open Sans', verdana, arial, sans-serif; font-size: 12px; fill: rgb(42, 63, 95); fill-opacity: 1; white-space: pre;"><tspan class="line" dy="0em" x="0" y="433">Jun 4</tspan><tspan class="line" dy="1.3em" x="0" y="433">2021</tspan></text></g><g class="xtick"><text text-anchor="middle" x="0" y="433" transform="translate(166.43,0)" style="font-family: 'Open Sans', verdana, arial, sans-serif; font-size: 12px; fill: rgb(42, 63, 95); fill-opacity: 1; white-space: pre;">Jun 5</text></g><g class="xtick"><text text-anchor="middle" x="0" y="433" transform="translate(239.32,0)" style="font-family: 'Open Sans', verdana, arial, sans-serif; font-size: 12px; fill: rgb(42, 63, 95); fill-opacity: 1; white-space: pre;">Jun 6</text></g><g class="xtick"><text text-anchor="middle" x="0" y="433" transform="translate(312.21000000000004,0)" style="font-family: 'Open Sans', verdana, arial, sans-serif; font-size: 12px; fill: rgb(42, 63, 95); fill-opacity: 1; white-space: pre;">Jun 7</text></g><g class="xtick"><text text-anchor="middle" x="0" y="433" transform="translate(385.1,0)" style="font-family: 'Open Sans', verdana, arial, sans-serif; font-size: 12px; fill: rgb(42, 63, 95); fill-opacity: 1; white-space: pre;">Jun 8</text></g><g class="xtick"><text text-anchor="middle" x="0" y="433" transform="translate(457.99,0)" style="font-family: 'Open Sans', verdana, arial, sans-serif; font-size: 12px; fill: rgb(42, 63, 95); fill-opacity: 1; white-space: pre;">Jun 9</text></g><g class="xtick"><text text-anchor="middle" x="0" y="433" transform="translate(530.88,0)" style="font-family: 'Open Sans', verdana, arial, sans-serif; font-size: 12px; fill: rgb(42, 63, 95); fill-opacity: 1; white-space: pre;">Jun 10</text></g><g class="xtick"><text text-anchor="middle" x="0" y="433" transform="translate(603.77,0)" style="font-family: 'Open Sans', verdana, arial, sans-serif; font-size: 12px; fill: rgb(42, 63, 95); fill-opacity: 1; white-space: pre;">Jun 11</text></g></g><g class="yaxislayer-above"><g class="ytick"><text text-anchor="end" x="79" y="4.199999999999999" transform="translate(0,396.08)" style="font-family: 'Open Sans', verdana, arial, sans-serif; font-size: 12px; fill: rgb(42, 63, 95); fill-opacity: 1; white-space: pre;">0.845</text></g><g class="ytick"><text text-anchor="end" x="79" y="4.199999999999999" transform="translate(0,357.65)" style="font-family: 'Open Sans', verdana, arial, sans-serif; font-size: 12px; fill: rgb(42, 63, 95); fill-opacity: 1; white-space: pre;">0.85</text></g><g class="ytick"><text text-anchor="end" x="79" y="4.199999999999999" transform="translate(0,319.21000000000004)" style="font-family: 'Open Sans', verdana, arial, sans-serif; font-size: 12px; fill: rgb(42, 63, 95); fill-opacity: 1; white-space: pre;">0.855</text></g><g class="ytick"><text text-anchor="end" x="79" y="4.199999999999999" transform="translate(0,280.77)" style="font-family: 'Open Sans', verdana, arial, sans-serif; font-size: 12px; fill: rgb(42, 63, 95); fill-opacity: 1; white-space: pre;">0.86</text></g><g class="ytick"><text text-anchor="end" x="79" y="4.199999999999999" transform="translate(0,242.33)" style="font-family: 'Open Sans', verdana, arial, sans-serif; font-size: 12px; fill: rgb(42, 63, 95); fill-opacity: 1; white-space: pre;">0.865</text></g><g class="ytick"><text text-anchor="end" x="79" y="4.199999999999999" transform="translate(0,203.9)" style="font-family: 'Open Sans', verdana, arial, sans-serif; font-size: 12px; fill: rgb(42, 63, 95); fill-opacity: 1; white-space: pre;">0.87</text></g><g class="ytick"><text text-anchor="end" x="79" y="4.199999999999999" transform="translate(0,165.45999999999998)" style="font-family: 'Open Sans', verdana, arial, sans-serif; font-size: 12px; fill: rgb(42, 63, 95); fill-opacity: 1; white-space: pre;">0.875</text></g><g class="ytick"><text text-anchor="end" x="79" y="4.199999999999999" transform="translate(0,127.02)" style="font-family: 'Open Sans', verdana, arial, sans-serif; font-size: 12px; fill: rgb(42, 63, 95); fill-opacity: 1; white-space: pre;">0.88</text></g></g><g class="overaxes-above"/></g></g><g class="polarlayer"/><g class="ternarylayer"/><g class="geolayer"/><g class="funnelarealayer"/><g class="pielayer"/><g class="treemaplayer"/><g class="sunburstlayer"/><g class="glimages"/><defs id="topdefs-b0b7b4"><g class="clips"/><clipPath id="legendb0b7b4"><rect width="60" height="45" x="0" y="0"/></clipPath></defs><g class="layer-above"><g class="imagelayer"/><g class="shapelayer"/></g><g class="infolayer"><g class="legend" pointer-events="all" transform="translate(627.74,100)"><rect class="bg" shape-rendering="crispEdges" width="60" height="45" x="0" y="0" style="stroke: rgb(68, 68, 68); stroke-opacity: 1; fill: rgb(255, 255, 255); fill-opacity: 1; stroke-width: 0px;"/><g class="scrollbox" transform="" clip-path="url('#legendb0b7b4')"><text class="legendtitletext" text-anchor="start" x="2" y="15.600000000000001" style="font-family: 'Open Sans', verdana, arial, sans-serif; font-size: 12px; fill: rgb(42, 63, 95); fill-opacity: 1; white-space: pre;">All</text><g class="groups" transform=""><g class="traces" transform="translate(0,30.1)" style="opacity: 1;"><text class="legendtext" text-anchor="start" x="40" y="4.680000000000001" style="font-family: 'Open Sans', verdana, arial, sans-serif; font-size: 12px; fill: rgb(42, 63, 95); fill-opacity: 1; white-space: pre;">All</text><g class="layers" style="opacity: 1;"><g class="legendfill"/><g class="legendlines"><path class="js-line" d="M5,0h30" style="fill: none; stroke: rgb(99, 110, 250); stroke-opacity: 1; stroke-width: 2px;"/></g><g class="legendsymbols"><g class="legendpoints"/></g></g><rect class="legendtoggle" x="0" y="-9.5" width="54.890625" height="19" style="fill: rgb(0, 0, 0); fill-opacity: 0;"/></g></g></g><rect class="scrollbar" rx="20" ry="3" width="0" height="0" x="0" y="0" style="fill: rgb(128, 139, 164); fill-opacity: 1;"/></g><g class="g-gtitle"><text class="gtitle" x="35" y="50" text-anchor="start" dy="0em" style="font-family: 'Open Sans', verdana, arial, sans-serif; font-size: 17px; fill: rgb(42, 63, 95); opacity: 1; font-weight: normal; white-space: pre;">Singapore Vaccination Centers</text></g><g class="g-xtitle"><text class="xtitle" x="348.5" y="476.409375" text-anchor="middle" style="font-family: 'Open Sans', verdana, arial, sans-serif; font-size: 14px; fill: rgb(42, 63, 95); opacity: 1; font-weight: normal; white-space: pre;">Time</text></g><g class="g-ytitle"><text class="ytitle" transform="rotate(-90,19.840625000000003,260)" x="19.840625000000003" y="260" text-anchor="middle" style="font-family: 'Open Sans', verdana, arial, sans-serif; font-size: 14px; fill: rgb(42, 63, 95); opacity: 1; font-weight: normal; white-space: pre;">Filled/%</text></g></g></svg>