<svg class="main-svg" xmlns="http://www.w3.org/2000/svg" xmlns:xlink="http://www.w3.org/1999/xlink" width="700" height="500" style="" viewBox="0 0 700 500"><rect x="0" y="0" width="700" height="500" style="fill: rgb(255, 255, 255); fill-opacity: 1;"/><defs id="defs-dc5625"><g class="clips"><clipPath id="clipdc5625xyplot" class="plotclip"><rect width="537" height="320"/></clipPath><clipPath class="axesclip" id="clipdc5625x"><rect x="80" y="0" width="537" height="500"/></clipPath><clipPath class="axesclip" id="clipdc5625y"><rect x="0" y="100" width="700" height="320"/></clipPath><clipPath class="axesclip" id="clipdc5625xy"><rect x="80" y="100" width="537" height="320"/></clipPath></g><g class="gradients"/></defs><g class="bglayer"><rect class="bg" x="80" y="100" width="537" height="320" style="fill: rgb(229, 236, 246); fill-opacity: 1; stroke-width: 0;"/></g><g class="layer-below"><g class="imagelayer"/><g class="shapelayer"/></g><g class="cartesianlayer"><g class="subplot xy"><g class="layer-subplot"><g class="shapelayer"/><g class="imagelayer"/></g><g class="gridlayer"><g class="x"><path class="xgrid crisp" transform="translate(92.18,0)" d="M0,100v320" style="stroke: rgb(255, 255, 255); stroke-opacity: 1; stroke-width: 1px;"/><path class="xgrid crisp" transform="translate(223.37,0)" d="M0,100v320" style="stroke: rgb(255, 255, 255); stroke-opacity: 1; stroke-width: 1px;"/><path class="xgrid crisp" transform="translate(354.56,0)" d="M0,100v320" style="stroke: rgb(255, 255, 255); stroke-opacity: 1; stroke-width: 1px;"/><path class="xgrid crisp" transform="translate(485.75,0)" d="M0,100v320" style="stroke: rgb(255, 255, 255); stroke-opacity: 1; stroke-width: 1px;"/></g><g class="y"><path class="ygrid crisp" transform="translate(0,367.23)" d="M80,0h537" style="stroke: rgb(255, 255, 255); stroke-opacity: 1; stroke-width: 1px;"/><path class="ygrid crisp" transform="translate(0,308.43)" d="M80,0h537" style="stroke: rgb(255, 255, 255); stroke-opacity: 1; stroke-width: 1px;"/><path class="ygrid crisp" transform="translate(0,249.63)" d="M80,0h537" style="stroke: rgb(255, 255, 255); stroke-opacity: 1; stroke-width: 1px;"/><path class="ygrid crisp" transform="translate(0,190.82999999999998)" d="M80,0h537" style="stroke: rgb(255, 255, 255); stroke-opacity: 1; stroke-width: 1px;"/><path class="ygrid crisp" transform="translate(0,132.03)" d="M80,0h537" style="stroke: rgb(255, 255, 255); stroke-opacity: 1; stroke-width: 1px;"/></g></g><g class="zerolinelayer"/><path class="xlines-below"/><path class="ylines-below"/><g class="overlines-below"/><g class="xaxislayer-below"/><g class="yaxislayer-below"/><g class="overaxes-below"/><g class="plot" transform="translate(80,100)" clip-path="url('#clipdc5625xyplot')"><g class="scatterlayer mlayer"><g class="trace scatter trace08f174" style="stroke-miterlimit: 2; opacity: 1;"><g class="fills"/><g class="errorbars"/><g class="lines"><path class="js-line" d="M0,82.28L7.69,82.51L10.42,120.48L15.86,120.57L17.88,136.92L18.73,136.9L38.85,137.96L40.1,121.23L40.48,129.62L41.39,129.56L43.21,126.37L44.13,126.27L45.95,129.79L46.86,129.7L48.68,132.71L49.59,132.63L51.41,120.69L52.33,120.62L54.14,132.64L55.06,132.55L56.88,126.68L57.79,123.32L59.61,113.21L60.52,109.51L62.34,94.58L63.26,92.89L65.08,74.17L65.99,72.87L67.81,78.78L68.72,77.73L70.54,63.68L71.45,62.82L73.28,65.47L74.19,64.83L76.01,74.27L76.92,73.83L78.12,51.83L78.74,52.53L79.65,52.34L88.76,51.79L89.68,51.79L103.34,50.91L104.25,50.65L136.14,42.03L137.05,41.83L142.52,40.95L143.43,41.79L159.83,41.46L160.74,41.46L175.31,40.58L176.22,40.48L204.47,37.17L205.38,37.08L208.11,36.83L209.02,35.53L244.55,34L245.46,33.87L273.71,31.05L274.62,28.56L305.6,27.81L306.51,95.38L316.56,93.57L317.44,93.44L318.35,93.12L319.26,91.51L322,88.51L322.91,87.52L326.55,74.89L327.46,73.59L331.11,69.79L332.02,69.11L337.48,66.07L338.39,65.71L342.95,65.01L343.86,64.93L368.46,63.48L369.37,63.27L374.83,61.32L375.74,60.89L376.66,60.46L377.57,62.78L381.21,61.15L382.12,59.94L386.68,54.01L387.59,53.24L391.23,49.13L392.14,47.98L395.79,39.84L396.7,38.66L402.16,33.5L403.08,32.89L406.72,31.98L407.63,31.8L414.92,31.18L415.83,31.16L429.5,30.17L430.41,29.9L435.87,28.09L436.78,74.81L438.61,73.22L439.52,72.76L448.63,69.16L449.54,68.8L450.24,71.93L450.45,68.39L451.32,68.25L451.36,69.25L452.23,67.95L452.28,68.94L453.18,68.62L455.01,68.09L455.92,76.43L463.9,73.91L463.93,72.31L463.98,72.03L464.12,73.74L472.77,44.74L473.23,44.87L473.69,41.95L474.59,42.12L475.05,43.2L476.42,37.43L476.87,41.6L478.24,39.66L478.7,39.05L480.06,38.13L480.52,38.96L481.43,38.53L481.88,38.42L483.25,38.4L483.71,43.02L488.72,41.69L489.17,36.5L490.08,35.76L490.54,35.39L491.9,33.79L492.36,33.41L496,22.43L496.46,16L496.91,16.8L497.37,140.18L497.83,139.22L498.28,142.07L499.19,136.79L499.65,138.99L500.56,136.15L501.02,136.63L501.47,141.25L501.92,146.68L502.38,133.42L503.29,138.09L503.75,157.2L505.11,133.53L505.57,145.44L506.02,148.42L506.48,146.68L506.94,144.02L507.85,134.36L508.3,135.71L509.21,146.05L509.67,142.1L510.13,141.74L510.58,151.77L511.49,140.84L511.94,148.68L512.86,127.07L513.31,137.58L514.22,140.49L514.68,138.92L515.59,130.34L516.05,131.67L516.5,129.31L516.96,138.25L517.41,134.05L517.87,138.68L518.32,138.81L518.78,131.49L519.24,131.42L519.69,140.05L520.6,132.48L521.06,138.41L521.97,141.46L522.42,128.79L523.34,142.96L523.79,264.58L524.7,292.55L525.16,293.12L525.61,304L526.07,286.22L526.52,301.52L526.98,291.75L527.44,292.1L527.89,291.07L528.35,294.16L528.8,293.46L529.26,276.02L529.71,283.67L530.17,262.28L531.08,272.54L531.53,248.89L532.44,241.71L532.9,229.6L533.36,224.98L533.81,228.24L534.27,227.36L534.72,223.79L535.63,215.22L536.09,217.06L536.54,216.4L537,227.08" style="vector-effect: non-scaling-stroke; fill: none; stroke: rgb(99, 110, 250); stroke-opacity: 1; stroke-width: 2px; opacity: 1;"/></g><g class="points"/><g class="text"/></g></g></g><g class="overplot"/><path class="xlines-above crisp" d="M0,0" style="fill: none;"/><path class="ylines-above crisp" d="M0,0" style="fill: none;"/><g class="overlines-above"/><g class="xaxislayer-above"><g class="xtick"><text text-anchor="middle" x="0" y="433" transform="translate(92.18,0)" style="font-family: 'Open Sans', verdana, arial, sans-serif; font-size: 12px; fill: rgb(42, 63, 95); fill-opacity: 1; white-space: pre;"><tspan class="line" dy="0em" x="0" y="433">Jun 4</tspan><tspan class="line" dy="1.3em" x="0" y="433">2021</tspan></text></g><g class="xtick"><text text-anchor="middle" x="0" y="433" transform="translate(223.37,0)" style="font-family: 'Open Sans', verdana, arial, sans-serif; font-size: 12px; fill: rgb(42, 63, 95); fill-opacity: 1; white-space: pre;">Jun 6</text></g><g class="xtick"><text text-anchor="middle" x="0" y="433" transform="translate(354.56,0)" style="font-family: 'Open Sans', verdana, arial, sans-serif; font-size: 12px; fill: rgb(42, 63, 95); fill-opacity: 1; white-space: pre;">Jun 8</text></g><g class="xtick"><text text-anchor="middle" x="0" y="433" transform="translate(485.75,0)" style="font-family: 'Open Sans', verdana, arial, sans-serif; font-size: 12px; fill: rgb(42, 63, 95); fill-opacity: 1; white-space: pre;">Jun 10</text></g><g class="xtick"><text text-anchor="middle" x="0" y="433" transform="translate(616.94,0)" style="font-family: 'Open Sans', verdana, arial, sans-serif; font-size: 12px; fill: rgb(42, 63, 95); fill-opacity: 1; white-space: pre;">Jun 12</text></g></g><g class="yaxislayer-above"><g class="ytick"><text text-anchor="end" x="79" y="4.199999999999999" transform="translate(0,367.23)" style="font-family: 'Open Sans', verdana, arial, sans-serif; font-size: 12px; fill: rgb(42, 63, 95); fill-opacity: 1; white-space: pre;">0.8</text></g><g class="ytick"><text text-anchor="end" x="79" y="4.199999999999999" transform="translate(0,308.43)" style="font-family: 'Open Sans', verdana, arial, sans-serif; font-size: 12px; fill: rgb(42, 63, 95); fill-opacity: 1; white-space: pre;">0.82</text></g><g class="ytick"><text text-anchor="end" x="79" y="4.199999999999999" transform="translate(0,249.63)" style="font-family: 'Open Sans', verdana, arial, sans-serif; font-size: 12px; fill: rgb(42, 63, 95); fill-opacity: 1; white-space: pre;">0.84</text></g><g class="ytick"><text text-anchor="end" x="79" y="4.199999999999999" transform="translate(0,190.82999999999998)" style="font-family: 'Open Sans', verdana, arial, sans-serif; font-size: 12px; fill: rgb(42, 63, 95); fill-opacity: 1; white-space: pre;">0.86</text></g><g class="ytick"><text text-anchor="end" x="79" y="4.199999999999999" transform="translate(0,132.03)" style="font-family: 'Open Sans', verdana, arial, sans-serif; font-size: 12px; fill: rgb(42, 63, 95); fill-opacity: 1; white-space: pre;">0.88</text></g></g><g class="overaxes-above"/></g></g><g class="polarlayer"/><g class="ternarylayer"/><g class="geolayer"/><g class="funnelarealayer"/><g class="pielayer"/><g class="treemaplayer"/><g class="sunburstlayer"/><g class="glimages"/><defs id="topdefs-dc5625"><g class="clips"/><clipPath id="legenddc5625"><rect width="60" height="45" x="0" y="0"/></clipPath></defs><g class="layer-above"><g class="imagelayer"/><g class="shapelayer"/></g><g class="infolayer"><g class="legend" pointer-events="all" transform="translate(627.74,100)"><rect class="bg" shape-rendering="crispEdges" width="60" height="45" x="0" y="0" style="stroke: rgb(68, 68, 68); stroke-opacity: 1; fill: rgb(255, 255, 255); fill-opacity: 1; stroke-width: 0px;"/><g class="scrollbox" transform="" clip-path="url('#legenddc5625')"><text class="legendtitletext" text-anchor="start" x="2" y="15.600000000000001" style="font-family: 'Open Sans', verdana, arial, sans-serif; font-size: 12px; fill: rgb(42, 63, 95); fill-opacity: 1; white-space: pre;">All</text><g class="groups" transform=""><g class="traces" transform="translate(0,30.1)" style="opacity: 1;"><text class="legendtext" text-anchor="start" x="40" y="4.680000000000001" style="font-family: 'Open Sans', verdana, arial, sans-serif; font-size: 12px; fill: rgb(42, 63, 95); fill-opacity: 1; white-space: pre;">All</text><g class="layers" style="opacity: 1;"><g class="legendfill"/><g class="legendlines"><path class="js-line" d="M5,0h30" style="fill: none; stroke: rgb(99, 110, 250); stroke-opacity: 1; stroke-width: 2px;"/></g><g class="legendsymbols"><g class="legendpoints"/></g></g><rect class="legendtoggle" x="0" y="-9.5" width="54.890625" height="19" style="fill: rgb(0, 0, 0); fill-opacity: 0;"/></g></g></g><rect class="scrollbar" rx="20" ry="3" width="0" height="0" x="0" y="0" style="fill: rgb(128, 139, 164); fill-opacity: 1;"/></g><g class="g-gtitle"><text class="gtitle" x="35" y="50" text-anchor="start" dy="0em" style="font-family: 'Open Sans', verdana, arial, sans-serif; font-size: 17px; fill: rgb(42, 63, 95); opacity: 1; font-weight: normal; white-space: pre;">Singapore Vaccination Centers</text></g><g class="g-xtitle"><text class="xtitle" x="348.5" y="476.409375" text-anchor="middle" style="font-family: 'Open Sans', verdana, arial, sans-serif; font-size: 14px; fill: rgb(42, 63, 95); opacity: 1; font-weight: normal; white-space: pre;">Time</text></g><g class="g-ytitle"><text class="ytitle" transform="rotate(-90,27.481250000000003,260)" x="27.481250000000003" y="260" text-anchor="middle" style="font-family: 'Open Sans', verdana, arial, sans-serif; font-size: 14px; fill: rgb(42, 63, 95); opacity: 1; font-weight: normal; white-space: pre;">Filled/%</text></g></g></svg>