<svg class="main-svg" xmlns="http://www.w3.org/2000/svg" xmlns:xlink="http://www.w3.org/1999/xlink" width="700" height="500" style="" viewBox="0 0 700 500"><rect x="0" y="0" width="700" height="500" style="fill: rgb(255, 255, 255); fill-opacity: 1;"/><defs id="defs-f2c805"><g class="clips"><clipPath id="clipf2c805xyplot" class="plotclip"><rect width="537" height="320"/></clipPath><clipPath class="axesclip" id="clipf2c805x"><rect x="80" y="0" width="537" height="500"/></clipPath><clipPath class="axesclip" id="clipf2c805y"><rect x="0" y="100" width="700" height="320"/></clipPath><clipPath class="axesclip" id="clipf2c805xy"><rect x="80" y="100" width="537" height="320"/></clipPath></g><g class="gradients"/></defs><g class="bglayer"><rect class="bg" x="80" y="100" width="537" height="320" style="fill: rgb(229, 236, 246); fill-opacity: 1; stroke-width: 0;"/></g><g class="layer-below"><g class="imagelayer"/><g class="shapelayer"/></g><g class="cartesianlayer"><g class="subplot xy"><g class="layer-subplot"><g class="shapelayer"/><g class="imagelayer"/></g><g class="gridlayer"><g class="x"><path class="xgrid crisp" transform="translate(84.08,0)" d="M0,100v320" style="stroke: rgb(255, 255, 255); stroke-opacity: 1; stroke-width: 1px;"/><path class="xgrid crisp" transform="translate(162.69,0)" d="M0,100v320" style="stroke: rgb(255, 255, 255); stroke-opacity: 1; stroke-width: 1px;"/><path class="xgrid crisp" transform="translate(241.3,0)" d="M0,100v320" style="stroke: rgb(255, 255, 255); stroke-opacity: 1; stroke-width: 1px;"/><path class="xgrid crisp" transform="translate(319.90999999999997,0)" d="M0,100v320" style="stroke: rgb(255, 255, 255); stroke-opacity: 1; stroke-width: 1px;"/><path class="xgrid crisp" transform="translate(398.51,0)" d="M0,100v320" style="stroke: rgb(255, 255, 255); stroke-opacity: 1; stroke-width: 1px;"/><path class="xgrid crisp" transform="translate(477.12,0)" d="M0,100v320" style="stroke: rgb(255, 255, 255); stroke-opacity: 1; stroke-width: 1px;"/><path class="xgrid crisp" transform="translate(555.73,0)" d="M0,100v320" style="stroke: rgb(255, 255, 255); stroke-opacity: 1; stroke-width: 1px;"/></g><g class="y"><path class="ygrid crisp" transform="translate(0,392.55)" d="M80,0h537" style="stroke: rgb(255, 255, 255); stroke-opacity: 1; stroke-width: 1px;"/><path class="ygrid crisp" transform="translate(0,349.77)" d="M80,0h537" style="stroke: rgb(255, 255, 255); stroke-opacity: 1; stroke-width: 1px;"/><path class="ygrid crisp" transform="translate(0,306.99)" d="M80,0h537" style="stroke: rgb(255, 255, 255); stroke-opacity: 1; stroke-width: 1px;"/><path class="ygrid crisp" transform="translate(0,264.21000000000004)" d="M80,0h537" style="stroke: rgb(255, 255, 255); stroke-opacity: 1; stroke-width: 1px;"/><path class="ygrid crisp" transform="translate(0,221.43)" d="M80,0h537" style="stroke: rgb(255, 255, 255); stroke-opacity: 1; stroke-width: 1px;"/><path class="ygrid crisp" transform="translate(0,178.65)" d="M80,0h537" style="stroke: rgb(255, 255, 255); stroke-opacity: 1; stroke-width: 1px;"/><path class="ygrid crisp" transform="translate(0,135.87)" d="M80,0h537" style="stroke: rgb(255, 255, 255); stroke-opacity: 1; stroke-width: 1px;"/></g></g><g class="zerolinelayer"/><path class="xlines-below"/><path class="ylines-below"/><g class="overlines-below"/><g class="xaxislayer-below"/><g class="yaxislayer-below"/><g class="overaxes-below"/><g class="plot" transform="translate(80,100)" clip-path="url('#clipf2c805xyplot')"><g class="scatterlayer mlayer"><g class="trace scatter trace607f42" style="stroke-miterlimit: 2; opacity: 1;"><g class="fills"/><g class="errorbars"/><g class="lines"><path class="js-line" d="M0,304L3.15,302.59L4.24,249.74L5.33,251.04L6.43,249.35L10.79,248.71L11.88,248.32L14.07,249.1L15.16,248.19L16.28,248.84L17.34,248.58L21.71,247.67L22.8,247.93L26.08,247.16L27.17,246.9L31.54,247.29L32.63,246.9L38.08,246.77L39.17,246.77L42.45,245.73L43.55,245.99L47.91,245.09L49,244.44L50.1,244.96L51.18,244.57L52.27,243.66L53.37,243.92L54.46,244.57L55.55,243.02L58.82,242.11L59.92,242.63L61.01,242.24L62.1,243.15L63.19,242.24L64.29,240.17L66.47,240.69L67.56,239.78L71.93,237.84L73.02,236.94L75.2,238.23L76.3,237.07L77.38,235L78.48,235.51L79.57,236.55L80.66,235L82.84,232.67L83.94,232.28L86.12,230.6L87.21,231.12L89.39,229.95L90.49,230.21L91.58,231.76L92.67,229.56L95.95,230.6L97.04,230.21L99.23,226.46L100.32,226.07L101.41,226.85L102.5,225.55L103.59,225.68L104.68,227.36L105.77,227.11L106.87,225.55L111.23,221.16L112.32,218.44L113.42,219.09L114.51,217.66L115.6,216.63L116.69,217.4L118.88,217.66L119.96,218.7L124.34,216.5L125.43,216.37L127.61,215.72L128.71,214.69L129.79,214.3L130.89,214.82L131.98,215.98L133.07,215.98L135.25,213.78L136.34,213.52L139.62,212.75L140.71,212.23L141.8,211.45L142.9,211.84L148.36,211.58L149.45,211.84L151.63,210.42L152.72,208.87L153.81,207.7L154.91,207.7L156,206.93L157.09,207.83L160.36,207.96L161.46,142.27L164.73,140.18L165.83,140.44L168.01,139.92L169.1,139.01L171.28,139.14L172.38,139.14L176.74,138.48L177.83,138.35L181.11,137.83L182.2,137.96L192.02,137.96L193.12,138.09L200.76,137.83L201.85,137.18L205.12,137.18L206.22,136.14L210.58,136.27L211.68,135.74L213.86,135.88L214.95,135.22L217.14,134.57L218.22,135.22L221.5,132.22L222.59,132.22L223.68,133.27L224.77,132.88L226.96,131.57L228.05,132.22L232.42,128.44L233.51,130.14L237.88,127.14L238.97,128.05L241.15,126.48L242.24,127.66L243.34,128.7L244.43,127.79L245.52,128.83L246.61,128.31L247.7,127.4L248.79,128.44L249.89,127.79L250.98,128.18L254.25,128.83L255.35,128.44L257.55,126.48L258.63,125.05L260.82,124.92L261.91,125.44L263,125.96L264.1,124.01L268.47,123.09L269.56,121.4L272.83,122.44L273.92,121.92L276.11,118.4L277.2,119.96L278.3,119.96L279.38,118.79L280.47,119.7L281.56,119.18L283.75,117.35L284.84,117.48L288.12,114.35L289.21,114.48L291.4,112.14L292.48,112.92L294.67,110.83L295.76,111.35L299.03,110.7L300.13,108.09L301.22,107.96L302.3,106.92L303.4,105.48L304.49,105.74L305.59,106L306.68,107.18L307.78,107.83L308.86,107.18L309.96,109.13L311.05,108.35L312.14,108.22L313.23,106.66L314.32,106.27L315.41,106.79L317.6,107.05L318.69,61.25L320.87,59.41L321.96,59.15L325.24,57.57L326.33,57.17L328.51,57.04L329.6,56.78L333.97,55.46L335.06,54.54L337.25,54.28L338.34,54.81L341.62,53.62L342.71,53.75L355.8,52.44L356.9,52.7L361.27,51.78L362.36,52.04L364.54,51.78L365.63,52.18L368.91,51.12L369.99,51.25L371.09,51.52L372.17,50.73L378.73,50.07L380.91,49.54L382,48.23L384.18,47.83L386.37,47.44L387.46,45.73L388.56,46.91L389.65,45.73L391.83,45.73L392.92,45.07L394.02,44.94L395.1,43.76L398.38,43.49L399.47,41.91L401.65,40.2L402.75,39.42L403.81,38.1L404.89,38.76L407.07,37.31L408.17,37.71L409.26,36L410.35,35.73L411.45,35.21L412.53,35.6L413.63,35.34L414.72,33.36L415.81,32.71L416.9,33.23L419.09,32.44L420.18,32.05L421.28,31.92L422.36,30.86L424.55,30.86L425.64,31.39L427.82,32.97L428.92,31.13L431.1,32.31L432.21,30.34L434.38,30.47L435.47,30.86L438.74,29.02L439.84,29.42L442.02,27.71L443.11,26.66L444.2,24.16L445.3,24.68L446.38,23.24L447.48,24.68L449.66,22.84L450.75,22.58L451.84,21.26L452.93,21.66L455.12,21.79L456.21,20.74L457.3,21.26L458.39,19.68L460.58,19.55L461.67,18.5L466.03,18.89L467.13,17.97L468.22,17.45L469.31,17.84L470.41,17.97L471.5,17.05L472.59,16L473.67,16.66L474.77,16.39L475.87,171.81L481.32,171.4L482.42,172.08L485.69,170.99L486.78,170.99L488.97,169.76L490.06,169.76L492.24,168.94L493.33,169.08L511.9,168.39L512.98,167.98L527.17,165.8L528.27,165.12L533.73,164.02L534.82,162.66L537,163.07" style="vector-effect: non-scaling-stroke; fill: none; stroke: rgb(99, 110, 250); stroke-opacity: 1; stroke-width: 2px; opacity: 1;"/></g><g class="points"/><g class="text"/></g></g></g><g class="overplot"/><path class="xlines-above crisp" d="M0,0" style="fill: none;"/><path class="ylines-above crisp" d="M0,0" style="fill: none;"/><g class="overlines-above"/><g class="xaxislayer-above"><g class="xtick"><text text-anchor="middle" x="0" y="433" transform="translate(84.08,0)" style="font-family: 'Open Sans', verdana, arial, sans-serif; font-size: 12px; fill: rgb(42, 63, 95); fill-opacity: 1; white-space: pre;"><tspan class="line" dy="0em" x="0" y="433">00:00</tspan><tspan class="line" dy="1.3em" x="0" y="433">Aug 3, 2021</tspan></text></g><g class="xtick"><text text-anchor="middle" x="0" y="433" transform="translate(162.69,0)" style="font-family: 'Open Sans', verdana, arial, sans-serif; font-size: 12px; fill: rgb(42, 63, 95); fill-opacity: 1; white-space: pre;">12:00</text></g><g class="xtick"><text text-anchor="middle" x="0" y="433" transform="translate(241.3,0)" style="font-family: 'Open Sans', verdana, arial, sans-serif; font-size: 12px; fill: rgb(42, 63, 95); fill-opacity: 1; white-space: pre;"><tspan class="line" dy="0em" x="0" y="433">00:00</tspan><tspan class="line" dy="1.3em" x="0" y="433">Aug 4, 2021</tspan></text></g><g class="xtick"><text text-anchor="middle" x="0" y="433" transform="translate(319.90999999999997,0)" style="font-family: 'Open Sans', verdana, arial, sans-serif; font-size: 12px; fill: rgb(42, 63, 95); fill-opacity: 1; white-space: pre;">12:00</text></g><g class="xtick"><text text-anchor="middle" x="0" y="433" transform="translate(398.51,0)" style="font-family: 'Open Sans', verdana, arial, sans-serif; font-size: 12px; fill: rgb(42, 63, 95); fill-opacity: 1; white-space: pre;"><tspan class="line" dy="0em" x="0" y="433">00:00</tspan><tspan class="line" dy="1.3em" x="0" y="433">Aug 5, 2021</tspan></text></g><g class="xtick"><text text-anchor="middle" x="0" y="433" transform="translate(477.12,0)" style="font-family: 'Open Sans', verdana, arial, sans-serif; font-size: 12px; fill: rgb(42, 63, 95); fill-opacity: 1; white-space: pre;">12:00</text></g><g class="xtick"><text text-anchor="middle" x="0" y="433" transform="translate(555.73,0)" style="font-family: 'Open Sans', verdana, arial, sans-serif; font-size: 12px; fill: rgb(42, 63, 95); fill-opacity: 1; white-space: pre;"><tspan class="line" dy="0em" x="0" y="433">00:00</tspan><tspan class="line" dy="1.3em" x="0" y="433">Aug 6, 2021</tspan></text></g></g><g class="yaxislayer-above"><g class="ytick"><text text-anchor="end" x="79" y="4.199999999999999" transform="translate(0,392.55)" style="font-family: 'Open Sans', verdana, arial, sans-serif; font-size: 12px; fill: rgb(42, 63, 95); fill-opacity: 1; white-space: pre;">0.864</text></g><g class="ytick"><text text-anchor="end" x="79" y="4.199999999999999" transform="translate(0,349.77)" style="font-family: 'Open Sans', verdana, arial, sans-serif; font-size: 12px; fill: rgb(42, 63, 95); fill-opacity: 1; white-space: pre;">0.865</text></g><g class="ytick"><text text-anchor="end" x="79" y="4.199999999999999" transform="translate(0,306.99)" style="font-family: 'Open Sans', verdana, arial, sans-serif; font-size: 12px; fill: rgb(42, 63, 95); fill-opacity: 1; white-space: pre;">0.866</text></g><g class="ytick"><text text-anchor="end" x="79" y="4.199999999999999" transform="translate(0,264.21000000000004)" style="font-family: 'Open Sans', verdana, arial, sans-serif; font-size: 12px; fill: rgb(42, 63, 95); fill-opacity: 1; white-space: pre;">0.867</text></g><g class="ytick"><text text-anchor="end" x="79" y="4.199999999999999" transform="translate(0,221.43)" style="font-family: 'Open Sans', verdana, arial, sans-serif; font-size: 12px; fill: rgb(42, 63, 95); fill-opacity: 1; white-space: pre;">0.868</text></g><g class="ytick"><text text-anchor="end" x="79" y="4.199999999999999" transform="translate(0,178.65)" style="font-family: 'Open Sans', verdana, arial, sans-serif; font-size: 12px; fill: rgb(42, 63, 95); fill-opacity: 1; white-space: pre;">0.869</text></g><g class="ytick"><text text-anchor="end" x="79" y="4.199999999999999" transform="translate(0,135.87)" style="font-family: 'Open Sans', verdana, arial, sans-serif; font-size: 12px; fill: rgb(42, 63, 95); fill-opacity: 1; white-space: pre;">0.87</text></g></g><g class="overaxes-above"/></g></g><g class="polarlayer"/><g class="ternarylayer"/><g class="geolayer"/><g class="funnelarealayer"/><g class="pielayer"/><g class="treemaplayer"/><g class="sunburstlayer"/><g class="glimages"/><defs id="topdefs-f2c805"><g class="clips"/><clipPath id="legendf2c805"><rect width="60" height="45" x="0" y="0"/></clipPath></defs><g class="layer-above"><g class="imagelayer"/><g class="shapelayer"/></g><g class="infolayer"><g class="legend" pointer-events="all" transform="translate(627.74,100)"><rect class="bg" shape-rendering="crispEdges" width="60" height="45" x="0" y="0" style="stroke: rgb(68, 68, 68); stroke-opacity: 1; fill: rgb(255, 255, 255); fill-opacity: 1; stroke-width: 0px;"/><g class="scrollbox" transform="" clip-path="url('#legendf2c805')"><text class="legendtitletext" text-anchor="start" x="2" y="15.600000000000001" style="font-family: 'Open Sans', verdana, arial, sans-serif; font-size: 12px; fill: rgb(42, 63, 95); fill-opacity: 1; white-space: pre;">All</text><g class="groups" transform=""><g class="traces" transform="translate(0,30.1)" style="opacity: 1;"><text class="legendtext" text-anchor="start" x="40" y="4.680000000000001" style="font-family: 'Open Sans', verdana, arial, sans-serif; font-size: 12px; fill: rgb(42, 63, 95); fill-opacity: 1; white-space: pre;">All</text><g class="layers" style="opacity: 1;"><g class="legendfill"/><g class="legendlines"><path class="js-line" d="M5,0h30" style="fill: none; stroke: rgb(99, 110, 250); stroke-opacity: 1; stroke-width: 2px;"/></g><g class="legendsymbols"><g class="legendpoints"/></g></g><rect class="legendtoggle" x="0" y="-9.5" width="54.890625" height="19" style="fill: rgb(0, 0, 0); fill-opacity: 0;"/></g></g></g><rect class="scrollbar" rx="20" ry="3" width="0" height="0" x="0" y="0" style="fill: rgb(128, 139, 164); fill-opacity: 1;"/></g><g class="g-gtitle"><text class="gtitle" x="35" y="50" text-anchor="start" dy="0em" style="font-family: 'Open Sans', verdana, arial, sans-serif; font-size: 17px; fill: rgb(42, 63, 95); opacity: 1; font-weight: normal; white-space: pre;">Singapore Vaccination Centers</text></g><g class="g-xtitle"><text class="xtitle" x="348.5" y="476.409375" text-anchor="middle" style="font-family: 'Open Sans', verdana, arial, sans-serif; font-size: 14px; fill: rgb(42, 63, 95); opacity: 1; font-weight: normal; white-space: pre;">Time</text></g><g class="g-ytitle"><text class="ytitle" transform="rotate(-90,19.840625000000003,260)" x="19.840625000000003" y="260" text-anchor="middle" style="font-family: 'Open Sans', verdana, arial, sans-serif; font-size: 14px; fill: rgb(42, 63, 95); opacity: 1; font-weight: normal; white-space: pre;">Filled/%</text></g></g></svg>