<svg class="main-svg" xmlns="http://www.w3.org/2000/svg" xmlns:xlink="http://www.w3.org/1999/xlink" width="700" height="500" style="" viewBox="0 0 700 500"><rect x="0" y="0" width="700" height="500" style="fill: rgb(255, 255, 255); fill-opacity: 1;"/><defs id="defs-9210f4"><g class="clips"><clipPath id="clip9210f4xyplot" class="plotclip"><rect width="537" height="320"/></clipPath><clipPath class="axesclip" id="clip9210f4x"><rect x="80" y="0" width="537" height="500"/></clipPath><clipPath class="axesclip" id="clip9210f4y"><rect x="0" y="100" width="700" height="320"/></clipPath><clipPath class="axesclip" id="clip9210f4xy"><rect x="80" y="100" width="537" height="320"/></clipPath></g><g class="gradients"/></defs><g class="bglayer"><rect class="bg" x="80" y="100" width="537" height="320" style="fill: rgb(229, 236, 246); fill-opacity: 1; stroke-width: 0;"/></g><g class="layer-below"><g class="imagelayer"/><g class="shapelayer"/></g><g class="cartesianlayer"><g class="subplot xy"><g class="layer-subplot"><g class="shapelayer"/><g class="imagelayer"/></g><g class="gridlayer"><g class="x"><path class="xgrid crisp" transform="translate(83.28,0)" d="M0,100v320" style="stroke: rgb(255, 255, 255); stroke-opacity: 1; stroke-width: 1px;"/><path class="xgrid crisp" transform="translate(209.66,0)" d="M0,100v320" style="stroke: rgb(255, 255, 255); stroke-opacity: 1; stroke-width: 1px;"/><path class="xgrid crisp" transform="translate(336.03,0)" d="M0,100v320" style="stroke: rgb(255, 255, 255); stroke-opacity: 1; stroke-width: 1px;"/><path class="xgrid crisp" transform="translate(462.41,0)" d="M0,100v320" style="stroke: rgb(255, 255, 255); stroke-opacity: 1; stroke-width: 1px;"/><path class="xgrid crisp" transform="translate(588.78,0)" d="M0,100v320" style="stroke: rgb(255, 255, 255); stroke-opacity: 1; stroke-width: 1px;"/></g><g class="y"><path class="ygrid crisp" transform="translate(0,392.55)" d="M80,0h537" style="stroke: rgb(255, 255, 255); stroke-opacity: 1; stroke-width: 1px;"/><path class="ygrid crisp" transform="translate(0,349.77)" d="M80,0h537" style="stroke: rgb(255, 255, 255); stroke-opacity: 1; stroke-width: 1px;"/><path class="ygrid crisp" transform="translate(0,306.99)" d="M80,0h537" style="stroke: rgb(255, 255, 255); stroke-opacity: 1; stroke-width: 1px;"/><path class="ygrid crisp" transform="translate(0,264.21000000000004)" d="M80,0h537" style="stroke: rgb(255, 255, 255); stroke-opacity: 1; stroke-width: 1px;"/><path class="ygrid crisp" transform="translate(0,221.43)" d="M80,0h537" style="stroke: rgb(255, 255, 255); stroke-opacity: 1; stroke-width: 1px;"/><path class="ygrid crisp" transform="translate(0,178.65)" d="M80,0h537" style="stroke: rgb(255, 255, 255); stroke-opacity: 1; stroke-width: 1px;"/><path class="ygrid crisp" transform="translate(0,135.87)" d="M80,0h537" style="stroke: rgb(255, 255, 255); stroke-opacity: 1; stroke-width: 1px;"/></g></g><g class="zerolinelayer"/><path class="xlines-below"/><path class="ylines-below"/><g class="overlines-below"/><g class="xaxislayer-below"/><g class="yaxislayer-below"/><g class="overaxes-below"/><g class="plot" transform="translate(80,100)" clip-path="url('#clip9210f4xyplot')"><g class="scatterlayer mlayer"><g class="trace scatter trace771d94" style="stroke-miterlimit: 2; opacity: 1;"><g class="fills"/><g class="errorbars"/><g class="lines"><path class="js-line" d="M0,304L2.53,302.59L3.41,249.74L4.29,251.04L5.16,249.35L8.67,248.71L9.55,248.32L11.31,249.1L12.19,248.19L13.94,248.58L14.82,248.19L15.69,248.45L16.57,247.93L21.84,246.9L22.71,247.16L27.11,246.77L27.98,246.51L33.25,246.12L34.12,245.73L35.88,245.86L36.76,245.22L38.51,245.09L39.39,244.44L40.27,244.96L41.14,244.57L42.02,243.66L42.9,243.92L43.78,244.57L44.66,243.02L47.28,242.11L48.16,242.63L49.04,242.24L49.92,243.15L50.8,242.24L51.68,240.17L53.43,240.69L54.31,239.78L57.82,237.84L58.7,236.94L60.45,238.23L61.33,237.07L62.2,235L63.08,235.51L63.96,236.55L64.84,235L66.59,232.67L67.47,232.28L69.23,230.6L70.11,231.12L71.86,229.95L72.74,230.21L73.61,231.76L74.49,229.56L77.13,230.6L78.01,230.21L79.76,226.46L80.64,226.07L81.51,226.85L82.39,225.55L83.27,225.68L84.15,227.36L85.02,227.11L85.9,225.55L89.41,221.16L90.29,218.44L91.17,219.09L92.04,217.66L92.92,216.63L93.8,217.4L95.56,217.66L96.43,218.7L99.95,216.5L100.82,216.37L102.58,215.72L103.46,214.69L104.33,214.3L105.21,214.82L106.96,215.98L107.84,214.43L110.47,213.39L111.36,212.88L113.11,212.23L113.99,211.45L116.62,212.23L117.49,211.84L119.25,211.58L120.13,211.84L121.88,210.42L122.76,208.87L124.52,207.7L125.4,206.93L127.15,207.96L128.03,207.44L128.9,207.96L129.78,142.27L132.42,140.18L133.3,140.44L135.05,139.92L135.93,139.01L137.68,139.14L138.56,139.14L142.07,138.48L142.94,138.35L145.58,137.83L146.46,137.96L154.35,137.96L155.24,138.09L161.38,137.83L162.25,137.18L164.88,137.18L165.76,136.14L169.27,136.27L170.15,135.74L171.9,135.88L172.78,135.22L174.54,134.57L175.42,135.22L178.05,132.22L178.92,132.22L179.8,133.27L180.68,132.88L182.44,131.57L183.32,132.22L186.83,128.44L187.7,130.14L191.21,127.14L192.09,128.05L193.85,126.48L194.72,127.66L195.6,128.7L196.48,127.79L197.36,128.83L198.23,128.31L199.11,127.4L199.99,128.44L200.87,127.79L201.74,128.18L204.38,128.83L205.26,128.44L207.03,126.48L207.9,125.05L209.65,124.92L210.53,125.44L211.41,125.96L212.29,124.01L215.8,123.09L216.68,121.4L220.19,121.92L221.07,120.61L221.94,118.4L222.82,119.96L223.7,119.96L224.58,118.79L225.45,119.7L226.33,119.18L228.09,117.35L228.97,117.48L231.6,114.35L232.48,114.48L234.23,112.14L235.11,112.92L236.86,110.83L237.74,111.35L240.37,110.7L241.25,108.09L242.13,107.96L243,106.92L243.89,105.48L244.76,105.74L245.64,106L246.52,107.18L247.4,107.83L248.27,107.18L249.16,109.13L250.03,108.35L250.91,108.22L251.78,106.66L252.66,106.27L253.54,106.79L255.29,107.05L256.17,61.25L257.92,59.41L258.8,59.15L261.44,57.57L262.31,57.17L264.07,57.04L264.94,56.78L268.46,55.46L269.33,54.54L271.09,54.28L271.97,54.81L275.48,53.75L276.35,53.62L278.11,53.62L278.99,53.75L293.03,51.78L293.91,52.18L296.54,51.12L297.41,51.25L298.3,51.52L299.17,50.73L304.43,50.07L306.19,49.54L307.07,48.23L308.82,47.83L310.58,47.44L311.45,45.73L312.33,46.91L313.21,45.73L314.97,45.73L315.84,45.07L316.72,44.94L317.6,43.76L320.23,43.49L321.11,41.91L322.86,40.2L323.74,39.42L324.59,38.1L325.46,38.76L328.1,37.71L328.98,36L332.49,35.34L333.36,33.36L334.24,32.71L335.12,33.23L336.87,32.44L337.76,32.05L338.63,31.92L339.51,30.86L341.26,30.86L342.14,31.39L343.9,32.97L344.78,31.13L346.53,32.31L347.42,30.34L349.17,30.47L350.05,30.86L352.68,29.02L353.56,29.42L355.31,27.71L356.19,26.66L357.06,24.16L357.95,24.68L358.82,23.24L359.7,24.68L361.45,22.84L362.33,22.58L363.21,21.26L364.08,21.66L365.84,21.79L366.71,20.74L367.59,21.26L368.47,19.68L370.23,19.55L371.11,18.5L374.61,18.89L375.49,17.97L376.37,17.45L377.25,17.84L378.13,17.97L379,17.05L379.88,16L380.75,16.66L381.64,16.39L382.52,171.81L386.9,171.4L387.78,172.08L390.42,170.99L391.29,170.99L393.05,169.76L393.92,169.76L395.68,168.94L396.55,169.08L411.48,168.39L412.35,167.98L423.75,165.8L424.64,165.12L429.03,164.02L429.91,162.66L433.44,162.38L434.32,163.61L436.08,161.7L436.95,161.57L437.83,160.88L438.71,158.43L439.58,156.51L440.46,156.79L441.34,156.1L442.22,154.33L443.1,154.88L443.97,154.19L445.73,154.33L446.61,153.37L448.36,152.69L449.24,153.65L451.87,150.92L452.75,151.87L455.38,149.14L456.26,149.14L457.14,148.32L458.02,149.41L459.77,150.37L460.65,149.41L461.53,149.55L462.41,148.73L465.92,145.18L466.8,144.5L469.42,143.54L470.31,145.04L475.57,141.9L476.45,143.68L477.33,121.97L478.21,121.97L480.84,120.88L481.72,116.1L482.59,116.24L483.47,112.28L484.35,112.55L485.23,109.96L486.1,106.95L486.98,107.91L488.73,104.77L489.61,101.22L490.49,98.08L491.37,98.08L492.25,97.53L493.12,95.35L494,94.8L494.88,92.07L496.63,89.34L497.51,89.34L499.27,85.93L500.14,85.65L502.78,82.78L503.66,80.19L507.17,77.05L508.04,75L508.92,88.44L509.8,87.48L513.31,84.03L514.19,84.45L515.07,84.31L515.94,85.14L517.7,84.72L518.58,85.41L520.33,84.59L521.2,84.45L522.96,84.03L523.84,84.03L525.6,84.17L526.48,83.62L532.62,84.03L533.5,83.62L537,83.48" style="vector-effect: non-scaling-stroke; fill: none; stroke: rgb(99, 110, 250); stroke-opacity: 1; stroke-width: 2px; opacity: 1;"/></g><g class="points"/><g class="text"/></g></g></g><g class="overplot"/><path class="xlines-above crisp" d="M0,0" style="fill: none;"/><path class="ylines-above crisp" d="M0,0" style="fill: none;"/><g class="overlines-above"/><g class="xaxislayer-above"><g class="xtick"><text text-anchor="middle" x="0" y="433" transform="translate(83.28,0)" style="font-family: 'Open Sans', verdana, arial, sans-serif; font-size: 12px; fill: rgb(42, 63, 95); fill-opacity: 1; white-space: pre;"><tspan class="line" dy="0em" x="0" y="433">Aug 3</tspan><tspan class="line" dy="1.3em" x="0" y="433">2021</tspan></text></g><g class="xtick"><text text-anchor="middle" x="0" y="433" transform="translate(209.66,0)" style="font-family: 'Open Sans', verdana, arial, sans-serif; font-size: 12px; fill: rgb(42, 63, 95); fill-opacity: 1; white-space: pre;">Aug 4</text></g><g class="xtick"><text text-anchor="middle" x="0" y="433" transform="translate(336.03,0)" style="font-family: 'Open Sans', verdana, arial, sans-serif; font-size: 12px; fill: rgb(42, 63, 95); fill-opacity: 1; white-space: pre;">Aug 5</text></g><g class="xtick"><text text-anchor="middle" x="0" y="433" transform="translate(462.41,0)" style="font-family: 'Open Sans', verdana, arial, sans-serif; font-size: 12px; fill: rgb(42, 63, 95); fill-opacity: 1; white-space: pre;">Aug 6</text></g><g class="xtick"><text text-anchor="middle" x="0" y="433" transform="translate(588.78,0)" style="font-family: 'Open Sans', verdana, arial, sans-serif; font-size: 12px; fill: rgb(42, 63, 95); fill-opacity: 1; white-space: pre;">Aug 7</text></g></g><g class="yaxislayer-above"><g class="ytick"><text text-anchor="end" x="79" y="4.199999999999999" transform="translate(0,392.55)" style="font-family: 'Open Sans', verdana, arial, sans-serif; font-size: 12px; fill: rgb(42, 63, 95); fill-opacity: 1; white-space: pre;">0.864</text></g><g class="ytick"><text text-anchor="end" x="79" y="4.199999999999999" transform="translate(0,349.77)" style="font-family: 'Open Sans', verdana, arial, sans-serif; font-size: 12px; fill: rgb(42, 63, 95); fill-opacity: 1; white-space: pre;">0.865</text></g><g class="ytick"><text text-anchor="end" x="79" y="4.199999999999999" transform="translate(0,306.99)" style="font-family: 'Open Sans', verdana, arial, sans-serif; font-size: 12px; fill: rgb(42, 63, 95); fill-opacity: 1; white-space: pre;">0.866</text></g><g class="ytick"><text text-anchor="end" x="79" y="4.199999999999999" transform="translate(0,264.21000000000004)" style="font-family: 'Open Sans', verdana, arial, sans-serif; font-size: 12px; fill: rgb(42, 63, 95); fill-opacity: 1; white-space: pre;">0.867</text></g><g class="ytick"><text text-anchor="end" x="79" y="4.199999999999999" transform="translate(0,221.43)" style="font-family: 'Open Sans', verdana, arial, sans-serif; font-size: 12px; fill: rgb(42, 63, 95); fill-opacity: 1; white-space: pre;">0.868</text></g><g class="ytick"><text text-anchor="end" x="79" y="4.199999999999999" transform="translate(0,178.65)" style="font-family: 'Open Sans', verdana, arial, sans-serif; font-size: 12px; fill: rgb(42, 63, 95); fill-opacity: 1; white-space: pre;">0.869</text></g><g class="ytick"><text text-anchor="end" x="79" y="4.199999999999999" transform="translate(0,135.87)" style="font-family: 'Open Sans', verdana, arial, sans-serif; font-size: 12px; fill: rgb(42, 63, 95); fill-opacity: 1; white-space: pre;">0.87</text></g></g><g class="overaxes-above"/></g></g><g class="polarlayer"/><g class="ternarylayer"/><g class="geolayer"/><g class="funnelarealayer"/><g class="pielayer"/><g class="treemaplayer"/><g class="sunburstlayer"/><g class="glimages"/><defs id="topdefs-9210f4"><g class="clips"/><clipPath id="legend9210f4"><rect width="60" height="45" x="0" y="0"/></clipPath></defs><g class="layer-above"><g class="imagelayer"/><g class="shapelayer"/></g><g class="infolayer"><g class="legend" pointer-events="all" transform="translate(627.74,100)"><rect class="bg" shape-rendering="crispEdges" width="60" height="45" x="0" y="0" style="stroke: rgb(68, 68, 68); stroke-opacity: 1; fill: rgb(255, 255, 255); fill-opacity: 1; stroke-width: 0px;"/><g class="scrollbox" transform="" clip-path="url('#legend9210f4')"><text class="legendtitletext" text-anchor="start" x="2" y="15.600000000000001" style="font-family: 'Open Sans', verdana, arial, sans-serif; font-size: 12px; fill: rgb(42, 63, 95); fill-opacity: 1; white-space: pre;">All</text><g class="groups" transform=""><g class="traces" transform="translate(0,30.1)" style="opacity: 1;"><text class="legendtext" text-anchor="start" x="40" y="4.680000000000001" style="font-family: 'Open Sans', verdana, arial, sans-serif; font-size: 12px; fill: rgb(42, 63, 95); fill-opacity: 1; white-space: pre;">All</text><g class="layers" style="opacity: 1;"><g class="legendfill"/><g class="legendlines"><path class="js-line" d="M5,0h30" style="fill: none; stroke: rgb(99, 110, 250); stroke-opacity: 1; stroke-width: 2px;"/></g><g class="legendsymbols"><g class="legendpoints"/></g></g><rect class="legendtoggle" x="0" y="-9.5" width="54.890625" height="19" style="fill: rgb(0, 0, 0); fill-opacity: 0;"/></g></g></g><rect class="scrollbar" rx="20" ry="3" width="0" height="0" x="0" y="0" style="fill: rgb(128, 139, 164); fill-opacity: 1;"/></g><g class="g-gtitle"><text class="gtitle" x="35" y="50" text-anchor="start" dy="0em" style="font-family: 'Open Sans', verdana, arial, sans-serif; font-size: 17px; fill: rgb(42, 63, 95); opacity: 1; font-weight: normal; white-space: pre;">Singapore Vaccination Centers</text></g><g class="g-xtitle"><text class="xtitle" x="348.5" y="476.409375" text-anchor="middle" style="font-family: 'Open Sans', verdana, arial, sans-serif; font-size: 14px; fill: rgb(42, 63, 95); opacity: 1; font-weight: normal; white-space: pre;">Time</text></g><g class="g-ytitle"><text class="ytitle" transform="rotate(-90,19.840625000000003,260)" x="19.840625000000003" y="260" text-anchor="middle" style="font-family: 'Open Sans', verdana, arial, sans-serif; font-size: 14px; fill: rgb(42, 63, 95); opacity: 1; font-weight: normal; white-space: pre;">Filled/%</text></g></g></svg>