<svg class="main-svg" xmlns="http://www.w3.org/2000/svg" xmlns:xlink="http://www.w3.org/1999/xlink" width="700" height="500" style="" viewBox="0 0 700 500"><rect x="0" y="0" width="700" height="500" style="fill: rgb(255, 255, 255); fill-opacity: 1;"/><defs id="defs-afbdea"><g class="clips"><clipPath id="clipafbdeaxyplot" class="plotclip"><rect width="537" height="320"/></clipPath><clipPath class="axesclip" id="clipafbdeax"><rect x="80" y="0" width="537" height="500"/></clipPath><clipPath class="axesclip" id="clipafbdeay"><rect x="0" y="100" width="700" height="320"/></clipPath><clipPath class="axesclip" id="clipafbdeaxy"><rect x="80" y="100" width="537" height="320"/></clipPath></g><g class="gradients"/></defs><g class="bglayer"><rect class="bg" x="80" y="100" width="537" height="320" style="fill: rgb(229, 236, 246); fill-opacity: 1; stroke-width: 0;"/></g><g class="layer-below"><g class="imagelayer"/><g class="shapelayer"/></g><g class="cartesianlayer"><g class="subplot xy"><g class="layer-subplot"><g class="shapelayer"/><g class="imagelayer"/></g><g class="gridlayer"><g class="x"><path class="xgrid crisp" transform="translate(89.94,0)" d="M0,100v320" style="stroke: rgb(255, 255, 255); stroke-opacity: 1; stroke-width: 1px;"/><path class="xgrid crisp" transform="translate(196.98000000000002,0)" d="M0,100v320" style="stroke: rgb(255, 255, 255); stroke-opacity: 1; stroke-width: 1px;"/><path class="xgrid crisp" transform="translate(304.02,0)" d="M0,100v320" style="stroke: rgb(255, 255, 255); stroke-opacity: 1; stroke-width: 1px;"/><path class="xgrid crisp" transform="translate(411.05,0)" d="M0,100v320" style="stroke: rgb(255, 255, 255); stroke-opacity: 1; stroke-width: 1px;"/><path class="xgrid crisp" transform="translate(518.0899999999999,0)" d="M0,100v320" style="stroke: rgb(255, 255, 255); stroke-opacity: 1; stroke-width: 1px;"/></g><g class="y"><path class="ygrid crisp" transform="translate(0,367.23)" d="M80,0h537" style="stroke: rgb(255, 255, 255); stroke-opacity: 1; stroke-width: 1px;"/><path class="ygrid crisp" transform="translate(0,308.43)" d="M80,0h537" style="stroke: rgb(255, 255, 255); stroke-opacity: 1; stroke-width: 1px;"/><path class="ygrid crisp" transform="translate(0,249.63)" d="M80,0h537" style="stroke: rgb(255, 255, 255); stroke-opacity: 1; stroke-width: 1px;"/><path class="ygrid crisp" transform="translate(0,190.82999999999998)" d="M80,0h537" style="stroke: rgb(255, 255, 255); stroke-opacity: 1; stroke-width: 1px;"/><path class="ygrid crisp" transform="translate(0,132.03)" d="M80,0h537" style="stroke: rgb(255, 255, 255); stroke-opacity: 1; stroke-width: 1px;"/></g></g><g class="zerolinelayer"/><path class="xlines-below"/><path class="ylines-below"/><g class="overlines-below"/><g class="xaxislayer-below"/><g class="yaxislayer-below"/><g class="overaxes-below"/><g class="plot" transform="translate(80,100)" clip-path="url('#clipafbdeaxyplot')"><g class="scatterlayer mlayer"><g class="trace scatter trace16407a" style="stroke-miterlimit: 2; opacity: 1;"><g class="fills"/><g class="errorbars"/><g class="lines"><path class="js-line" d="M0,82.28L6.28,82.51L8.5,120.48L12.94,120.57L14.58,136.92L15.28,136.9L31.69,137.96L32.72,121.23L33.03,129.62L33.77,129.56L35.26,126.37L36,126.27L37.49,129.79L38.23,129.7L39.72,132.71L40.46,132.63L41.95,120.69L42.69,120.62L44.18,132.64L44.92,132.55L46.41,126.68L48.64,113.21L49.38,109.51L53.1,74.17L53.84,72.87L55.33,78.78L56.07,77.73L58.3,62.82L59.79,65.47L60.53,64.83L62.02,74.27L62.76,73.83L63.74,51.83L64.99,52.34L65.73,52.21L74.65,51.77L75.4,51.77L84.31,50.91L85.06,50.65L111.07,42.03L111.82,41.83L116.28,40.95L117.02,41.79L130.4,41.46L131.14,41.46L143.04,40.58L143.78,40.48L166.82,37.17L167.57,37.08L169.8,36.83L170.54,35.53L199.53,34L200.27,33.87L223.32,31.05L224.06,28.56L249.34,27.81L250.08,95.38L258.28,93.57L259,93.44L259.74,93.12L260.49,91.51L262.72,88.51L263.46,87.52L267.18,73.59L267.92,72.39L272.38,67.88L273.12,67.37L276.84,65.43L277.58,65.5L282.79,64.8L283.53,64.77L299.88,63.66L300.62,63.48L305.83,61.32L306.57,60.89L307.31,60.46L308.06,62.78L311.03,61.15L311.78,59.94L316.23,53.24L316.98,52.44L319.95,47.98L320.69,45.51L323.67,38.66L324.41,37.65L328.13,33.5L328.87,32.89L331.84,31.98L332.59,31.8L338.53,31.18L339.28,31.16L350.43,30.17L351.17,29.9L355.63,28.09L356.37,74.81L358.6,72.76L359.35,72.32L366.04,69.16L366.78,68.8L367.35,71.93L367.53,68.39L368.23,68.25L368.27,69.25L368.98,67.95L369.01,68.94L369.75,68.62L371.24,68.09L371.99,76.43L378.49,73.91L378.52,72.31L378.56,72.03L378.68,73.74L385.74,44.74L386.11,44.87L386.48,41.95L387.22,42.12L387.59,43.2L388.71,37.43L389.08,41.6L390.19,39.66L390.57,39.05L391.68,38.13L392.05,38.96L393.17,38.42L393.54,38.33L394.29,38.4L394.66,43.02L398.74,41.69L399.12,36.5L399.86,35.76L400.23,35.39L401.34,33.79L401.72,33.41L404.69,22.43L405.06,16L405.43,16.8L405.8,140.18L406.18,139.22L406.55,142.07L407.29,136.79L407.66,138.99L408.04,137.43L408.41,136.15L408.78,136.63L409.15,141.25L409.52,146.68L409.89,133.42L410.64,138.09L411.01,157.2L412.12,133.53L412.49,145.44L412.87,148.42L413.24,146.68L413.61,144.02L414.35,134.36L414.72,135.71L415.09,141.84L415.47,146.05L415.84,142.1L416.21,141.74L416.58,151.77L416.95,141.68L417.32,140.84L417.7,148.68L418.07,138.39L418.44,127.07L418.81,137.58L419.18,139.13L419.56,140.49L419.93,138.92L421.41,129.31L421.79,138.25L422.16,134.05L422.53,138.68L422.9,138.81L423.27,131.49L423.65,131.42L424.02,140.05L424.76,132.48L425.13,138.41L425.88,141.46L426.25,128.79L426.99,142.96L427.36,264.58L428.48,293.12L428.85,304L429.22,286.22L429.59,301.52L429.96,291.75L430.34,292.1L430.71,291.07L431.08,294.16L431.45,293.46L431.82,276.02L432.19,283.67L432.57,262.28L433.31,272.54L433.68,248.89L434.42,241.71L434.79,229.6L435.17,224.98L435.54,228.24L435.91,227.36L437.02,215.22L437.4,217.06L437.77,216.4L438.14,227.08L438.51,226.08L438.88,228.38L439.26,228.68L439.63,224.72L440,233.57L440.37,224.28L441.11,227.75L441.49,223.07L442.23,226.33L442.6,223.26L442.97,224.52L443.34,234.01L443.71,220.81L444.09,231.91L444.46,224.2L446.69,212.72L447.06,220.76L447.81,220.72L448.17,223.7L448.55,223.67L448.92,219.37L449.29,223.08L449.66,218.62L450.03,226.76L450.41,225.2L450.78,224.19L451.15,219.51L451.52,225.16L452.63,225.11L453,216.49L453.38,225.05L453.75,220.43L454.12,220.57L454.49,218.19L454.86,220.92L455.24,219.84L455.61,227.36L455.98,216.65L456.35,220.1L456.72,220.01L457.47,220.98L457.84,218.78L458.58,223.64L458.95,218.66L459.32,205.85L459.7,215.25L460.07,220.32L460.44,206.18L460.81,206.81L461.18,214.16L461.55,214.11L461.93,206.99L462.67,212.47L463.04,202.23L463.42,199.24L463.79,208.71L464.16,224.84L464.53,215.2L464.9,214.49L465.27,205.74L465.64,219.6L466.39,195.82L466.76,209.77L467.13,208.24L467.5,203.32L467.87,202.05L468.24,205.17L468.62,200.81L468.99,208.16L469.36,206.35L469.73,209.96L470.1,207.44L470.47,196.45L470.84,195.36L471.22,196.45L471.59,201.41L472.7,210.92L473.07,197.09L473.45,197.31L473.82,191.05L474.19,191.24L474.56,196.07L474.93,200.65L475.3,194.37L476.42,210.5L476.79,204.27L477.53,191.94L477.91,193.62L478.28,197L478.65,205.03L479.02,197.14L479.39,198.57L480.88,184.28L481.25,189.51L481.99,194.59L482.37,189.23L482.74,191.91L483.11,189.81L483.48,182.31L483.85,187.7L484.22,187L484.6,183.28L484.97,186.18L485.34,185.69L485.72,181.61L486.09,182.61L486.46,186.54L487.2,187.68L487.57,186.58L487.94,181.49L488.31,187.81L489.06,185.81L489.43,187.22L489.8,189.17L490.18,187L491.29,194.82L491.66,189.57L492.03,183.36L492.4,189.2L492.78,186.45L493.89,187.85L494.26,183.53L495.38,187.65L495.75,184.59L496.49,184.25L496.86,185.71L497.98,187.29L498.35,197.68L498.72,197.68L499.09,195.53L499.46,195.52L499.84,190.33L500.21,190.33L500.58,186.49L502.07,194.95L502.44,194.95L502.81,195.4L503.18,193.58L503.55,193.58L503.92,187.5L504.67,187.5L505.04,190.84L506.15,186.75L506.53,187.03L506.9,187.03L507.27,188.23L510.24,181.13L510.61,187.27L510.98,190.9L511.36,187.7L511.73,181.79L512.1,180.91L512.47,182.93L512.84,184.81L513.21,179.55L513.96,190.44L514.33,182.8L514.71,183.07L515.07,174.64L516.19,185.09L516.56,181.21L516.93,181.99L517.3,185.79L517.67,171.39L518.05,177.83L518.42,175.21L518.79,180.5L519.16,179.53L519.53,177.22L521.02,187.84L521.39,182.58L521.76,175.16L522.13,180.33L522.5,178.23L523.25,176.4L523.62,185.95L523.99,175.93L524.36,196.82L525.48,173.22L525.85,177.47L526.22,180.21L526.59,180.03L526.97,179.15L527.71,179.35L528.08,181.21L529.2,177.14L529.57,176.9L529.94,176.97L530.31,172.16L530.68,169.69L531.05,173.52L531.43,176.28L531.8,172.21L532.17,173.97L532.54,171L533.28,180.19L533.65,175.33L534.03,171.32L534.4,174.66L534.77,174.4L535.14,183.64L535.52,176L535.89,180.08L536.26,179.71L536.63,181.54L537,176.71" style="vector-effect: non-scaling-stroke; fill: none; stroke: rgb(99, 110, 250); stroke-opacity: 1; stroke-width: 2px; opacity: 1;"/></g><g class="points"/><g class="text"/></g></g></g><g class="overplot"/><path class="xlines-above crisp" d="M0,0" style="fill: none;"/><path class="ylines-above crisp" d="M0,0" style="fill: none;"/><g class="overlines-above"/><g class="xaxislayer-above"><g class="xtick"><text text-anchor="middle" x="0" y="433" transform="translate(89.94,0)" style="font-family: 'Open Sans', verdana, arial, sans-serif; font-size: 12px; fill: rgb(42, 63, 95); fill-opacity: 1; white-space: pre;"><tspan class="line" dy="0em" x="0" y="433">Jun 4</tspan><tspan class="line" dy="1.3em" x="0" y="433">2021</tspan></text></g><g class="xtick"><text text-anchor="middle" x="0" y="433" transform="translate(196.98000000000002,0)" style="font-family: 'Open Sans', verdana, arial, sans-serif; font-size: 12px; fill: rgb(42, 63, 95); fill-opacity: 1; white-space: pre;">Jun 6</text></g><g class="xtick"><text text-anchor="middle" x="0" y="433" transform="translate(304.02,0)" style="font-family: 'Open Sans', verdana, arial, sans-serif; font-size: 12px; fill: rgb(42, 63, 95); fill-opacity: 1; white-space: pre;">Jun 8</text></g><g class="xtick"><text text-anchor="middle" x="0" y="433" transform="translate(411.05,0)" style="font-family: 'Open Sans', verdana, arial, sans-serif; font-size: 12px; fill: rgb(42, 63, 95); fill-opacity: 1; white-space: pre;">Jun 10</text></g><g class="xtick"><text text-anchor="middle" x="0" y="433" transform="translate(518.0899999999999,0)" style="font-family: 'Open Sans', verdana, arial, sans-serif; font-size: 12px; fill: rgb(42, 63, 95); fill-opacity: 1; white-space: pre;">Jun 12</text></g></g><g class="yaxislayer-above"><g class="ytick"><text text-anchor="end" x="79" y="4.199999999999999" transform="translate(0,367.23)" style="font-family: 'Open Sans', verdana, arial, sans-serif; font-size: 12px; fill: rgb(42, 63, 95); fill-opacity: 1; white-space: pre;">0.8</text></g><g class="ytick"><text text-anchor="end" x="79" y="4.199999999999999" transform="translate(0,308.43)" style="font-family: 'Open Sans', verdana, arial, sans-serif; font-size: 12px; fill: rgb(42, 63, 95); fill-opacity: 1; white-space: pre;">0.82</text></g><g class="ytick"><text text-anchor="end" x="79" y="4.199999999999999" transform="translate(0,249.63)" style="font-family: 'Open Sans', verdana, arial, sans-serif; font-size: 12px; fill: rgb(42, 63, 95); fill-opacity: 1; white-space: pre;">0.84</text></g><g class="ytick"><text text-anchor="end" x="79" y="4.199999999999999" transform="translate(0,190.82999999999998)" style="font-family: 'Open Sans', verdana, arial, sans-serif; font-size: 12px; fill: rgb(42, 63, 95); fill-opacity: 1; white-space: pre;">0.86</text></g><g class="ytick"><text text-anchor="end" x="79" y="4.199999999999999" transform="translate(0,132.03)" style="font-family: 'Open Sans', verdana, arial, sans-serif; font-size: 12px; fill: rgb(42, 63, 95); fill-opacity: 1; white-space: pre;">0.88</text></g></g><g class="overaxes-above"/></g></g><g class="polarlayer"/><g class="ternarylayer"/><g class="geolayer"/><g class="funnelarealayer"/><g class="pielayer"/><g class="treemaplayer"/><g class="sunburstlayer"/><g class="glimages"/><defs id="topdefs-afbdea"><g class="clips"/><clipPath id="legendafbdea"><rect width="60" height="45" x="0" y="0"/></clipPath></defs><g class="layer-above"><g class="imagelayer"/><g class="shapelayer"/></g><g class="infolayer"><g class="legend" pointer-events="all" transform="translate(627.74,100)"><rect class="bg" shape-rendering="crispEdges" width="60" height="45" x="0" y="0" style="stroke: rgb(68, 68, 68); stroke-opacity: 1; fill: rgb(255, 255, 255); fill-opacity: 1; stroke-width: 0px;"/><g class="scrollbox" transform="" clip-path="url('#legendafbdea')"><text class="legendtitletext" text-anchor="start" x="2" y="15.600000000000001" style="font-family: 'Open Sans', verdana, arial, sans-serif; font-size: 12px; fill: rgb(42, 63, 95); fill-opacity: 1; white-space: pre;">All</text><g class="groups" transform=""><g class="traces" transform="translate(0,30.1)" style="opacity: 1;"><text class="legendtext" text-anchor="start" x="40" y="4.680000000000001" style="font-family: 'Open Sans', verdana, arial, sans-serif; font-size: 12px; fill: rgb(42, 63, 95); fill-opacity: 1; white-space: pre;">All</text><g class="layers" style="opacity: 1;"><g class="legendfill"/><g class="legendlines"><path class="js-line" d="M5,0h30" style="fill: none; stroke: rgb(99, 110, 250); stroke-opacity: 1; stroke-width: 2px;"/></g><g class="legendsymbols"><g class="legendpoints"/></g></g><rect class="legendtoggle" x="0" y="-9.5" width="54.890625" height="19" style="fill: rgb(0, 0, 0); fill-opacity: 0;"/></g></g></g><rect class="scrollbar" rx="20" ry="3" width="0" height="0" x="0" y="0" style="fill: rgb(128, 139, 164); fill-opacity: 1;"/></g><g class="g-gtitle"><text class="gtitle" x="35" y="50" text-anchor="start" dy="0em" style="font-family: 'Open Sans', verdana, arial, sans-serif; font-size: 17px; fill: rgb(42, 63, 95); opacity: 1; font-weight: normal; white-space: pre;">Singapore Vaccination Centers</text></g><g class="g-xtitle"><text class="xtitle" x="348.5" y="476.409375" text-anchor="middle" style="font-family: 'Open Sans', verdana, arial, sans-serif; font-size: 14px; fill: rgb(42, 63, 95); opacity: 1; font-weight: normal; white-space: pre;">Time</text></g><g class="g-ytitle"><text class="ytitle" transform="rotate(-90,27.481250000000003,260)" x="27.481250000000003" y="260" text-anchor="middle" style="font-family: 'Open Sans', verdana, arial, sans-serif; font-size: 14px; fill: rgb(42, 63, 95); opacity: 1; font-weight: normal; white-space: pre;">Filled/%</text></g></g></svg>