<svg class="main-svg" xmlns="http://www.w3.org/2000/svg" xmlns:xlink="http://www.w3.org/1999/xlink" width="700" height="500" style="" viewBox="0 0 700 500"><rect x="0" y="0" width="700" height="500" style="fill: rgb(255, 255, 255); fill-opacity: 1;"/><defs id="defs-16080b"><g class="clips"><clipPath id="clip16080bxyplot" class="plotclip"><rect width="537" height="320"/></clipPath><clipPath class="axesclip" id="clip16080bx"><rect x="80" y="0" width="537" height="500"/></clipPath><clipPath class="axesclip" id="clip16080by"><rect x="0" y="100" width="700" height="320"/></clipPath><clipPath class="axesclip" id="clip16080bxy"><rect x="80" y="100" width="537" height="320"/></clipPath></g><g class="gradients"/></defs><g class="bglayer"><rect class="bg" x="80" y="100" width="537" height="320" style="fill: rgb(229, 236, 246); fill-opacity: 1; stroke-width: 0;"/></g><g class="layer-below"><g class="imagelayer"/><g class="shapelayer"/></g><g class="cartesianlayer"><g class="subplot xy"><g class="layer-subplot"><g class="shapelayer"/><g class="imagelayer"/></g><g class="gridlayer"><g class="x"><path class="xgrid crisp" transform="translate(89.61,0)" d="M0,100v320" style="stroke: rgb(255, 255, 255); stroke-opacity: 1; stroke-width: 1px;"/><path class="xgrid crisp" transform="translate(193.06,0)" d="M0,100v320" style="stroke: rgb(255, 255, 255); stroke-opacity: 1; stroke-width: 1px;"/><path class="xgrid crisp" transform="translate(296.52,0)" d="M0,100v320" style="stroke: rgb(255, 255, 255); stroke-opacity: 1; stroke-width: 1px;"/><path class="xgrid crisp" transform="translate(399.98,0)" d="M0,100v320" style="stroke: rgb(255, 255, 255); stroke-opacity: 1; stroke-width: 1px;"/><path class="xgrid crisp" transform="translate(503.44,0)" d="M0,100v320" style="stroke: rgb(255, 255, 255); stroke-opacity: 1; stroke-width: 1px;"/><path class="xgrid crisp" transform="translate(606.89,0)" d="M0,100v320" style="stroke: rgb(255, 255, 255); stroke-opacity: 1; stroke-width: 1px;"/></g><g class="y"><path class="ygrid crisp" transform="translate(0,367.23)" d="M80,0h537" style="stroke: rgb(255, 255, 255); stroke-opacity: 1; stroke-width: 1px;"/><path class="ygrid crisp" transform="translate(0,308.43)" d="M80,0h537" style="stroke: rgb(255, 255, 255); stroke-opacity: 1; stroke-width: 1px;"/><path class="ygrid crisp" transform="translate(0,249.63)" d="M80,0h537" style="stroke: rgb(255, 255, 255); stroke-opacity: 1; stroke-width: 1px;"/><path class="ygrid crisp" transform="translate(0,190.82999999999998)" d="M80,0h537" style="stroke: rgb(255, 255, 255); stroke-opacity: 1; stroke-width: 1px;"/><path class="ygrid crisp" transform="translate(0,132.03)" d="M80,0h537" style="stroke: rgb(255, 255, 255); stroke-opacity: 1; stroke-width: 1px;"/></g></g><g class="zerolinelayer"/><path class="xlines-below"/><path class="ylines-below"/><g class="overlines-below"/><g class="xaxislayer-below"/><g class="yaxislayer-below"/><g class="overaxes-below"/><g class="plot" transform="translate(80,100)" clip-path="url('#clip16080bxyplot')"><g class="scatterlayer mlayer"><g class="trace scatter traced9ef22" style="stroke-miterlimit: 2; opacity: 1;"><g class="fills"/><g class="errorbars"/><g class="lines"><path class="js-line" d="M0,82.28L6.07,82.51L8.22,120.48L12.51,120.57L14.1,136.92L14.77,136.9L30.63,137.96L31.62,121.23L31.92,129.62L32.64,129.56L34.08,126.37L34.8,126.27L36.23,129.79L36.95,129.7L38.39,132.71L39.11,132.63L40.54,120.69L41.26,120.62L42.7,132.64L43.42,132.55L44.86,126.68L47.73,109.51L49.17,94.58L49.88,92.89L51.32,74.17L52.04,72.87L53.48,78.78L54.19,77.73L55.63,63.68L56.35,62.82L57.79,65.47L58.5,64.83L59.94,74.27L60.66,73.83L61.61,51.83L62.81,52.34L63.53,52.21L71.44,51.78L72.16,51.77L80.78,51.11L81.49,50.91L105.92,42.44L106.64,42.24L112.39,40.95L113.11,41.79L126.04,41.46L126.76,41.46L138.25,40.58L138.97,40.48L161.96,37.08L162.68,36.99L164.12,36.83L164.84,35.53L192.85,34L193.57,33.87L215.85,31.05L216.57,28.56L241,27.81L241.71,95.38L249.64,93.57L250.34,93.44L251.05,93.12L251.77,91.51L253.93,88.51L254.65,87.52L258.24,73.59L258.96,72.39L263.27,67.88L263.99,67.37L267.58,65.43L268.3,65.5L273.33,64.8L274.05,64.77L289.85,63.66L290.57,63.48L295.6,61.32L296.32,60.89L297.04,60.46L297.75,62.78L300.63,61.15L301.35,59.94L305.66,53.24L306.38,52.44L309.25,47.98L309.97,45.51L312.84,38.66L313.56,37.65L317.87,32.89L318.61,32.47L320.74,31.98L321.46,31.8L327.21,31.18L327.93,31.16L338.7,30.17L339.42,29.9L343.73,28.09L344.45,74.81L346.61,72.76L347.33,72.32L354.51,68.8L355.06,71.93L355.92,68.25L355.95,69.25L356.63,67.95L356.67,68.94L357.39,68.62L358.82,68.09L359.54,76.43L365.83,73.91L365.86,72.31L365.9,72.03L366.01,73.74L372.83,44.74L373.19,44.87L373.55,41.95L374.27,42.12L374.63,43.2L375.71,37.43L376.07,41.6L377.14,39.66L377.5,39.05L378.58,38.13L378.94,38.96L380.02,38.42L380.38,38.33L381.1,38.4L381.46,43.02L385.41,41.69L385.76,36.5L386.48,35.76L386.84,35.39L388.64,31.97L389,32.01L391.15,22.43L391.51,16L391.87,16.8L392.23,140.18L392.59,139.22L392.95,142.07L393.67,136.79L394.03,138.99L394.39,137.43L394.75,136.15L395.11,136.63L395.46,141.25L395.82,146.68L396.18,133.42L396.9,138.09L397.26,157.2L398.34,133.53L398.7,145.44L399.06,148.42L399.41,146.68L399.77,144.02L400.49,134.36L400.85,135.71L401.21,141.84L401.57,146.05L401.93,142.1L402.29,141.74L402.65,151.77L403.01,141.68L403.36,140.84L403.72,148.68L404.08,138.39L404.44,127.07L404.8,137.58L405.16,139.13L405.52,140.49L405.88,138.92L406.24,134.18L407.32,129.31L407.68,138.25L408.04,134.05L408.39,138.68L408.76,138.81L409.47,131.42L409.83,140.05L410.55,132.48L410.91,138.41L411.63,141.46L411.99,128.79L412.71,142.96L413.07,264.58L414.15,293.12L414.5,304L414.87,286.22L415.22,301.52L415.58,291.75L415.94,292.1L416.3,291.07L416.66,294.16L417.02,293.46L417.38,276.02L417.74,283.67L418.1,262.28L418.81,272.54L419.17,248.89L419.89,241.71L420.25,229.6L420.61,224.98L420.97,228.24L421.33,227.36L422.41,215.22L422.77,217.06L423.12,216.4L423.48,227.08L423.84,226.08L424.2,228.38L424.56,228.68L424.92,224.72L425.28,233.57L425.64,224.28L426,225.36L426.36,227.75L426.72,223.07L427.44,226.33L427.8,223.26L428.15,224.52L428.51,234.01L428.87,220.81L429.23,231.91L429.59,224.2L431.75,212.72L432.11,220.76L432.83,220.72L433.18,223.7L433.54,223.67L433.9,219.37L434.26,223.08L434.62,218.62L434.98,226.76L435.34,225.2L435.7,224.19L436.06,219.51L436.42,225.16L437.49,225.11L437.85,216.49L438.21,225.05L438.57,220.43L438.93,220.57L439.29,218.19L439.65,220.92L440.01,219.84L440.37,227.36L440.73,216.65L441.09,220.1L441.45,220.01L442.16,220.98L442.52,218.78L443.24,223.64L443.6,218.66L443.96,205.85L444.32,215.25L444.68,220.32L445.04,206.18L445.39,206.81L445.75,214.16L446.11,214.11L446.47,206.99L447.2,212.47L447.56,202.23L447.91,199.24L448.27,208.71L448.63,224.84L448.99,215.2L449.35,214.49L449.71,205.74L450.07,219.6L450.78,195.82L451.14,209.77L451.5,208.24L451.86,203.32L452.22,202.05L452.58,205.17L452.94,200.81L453.3,208.16L453.66,206.35L454.02,209.96L454.38,207.44L454.73,196.45L455.09,195.36L455.45,196.45L455.81,201.41L456.89,210.92L457.25,197.09L457.61,197.31L457.97,191.05L458.33,191.24L458.69,196.07L459.05,200.65L459.4,194.37L460.48,210.5L460.84,204.27L461.56,191.94L461.92,193.62L462.28,197L462.64,205.03L463,197.14L463.35,198.57L464.8,184.28L465.15,189.51L465.87,194.59L466.23,189.23L466.59,191.91L466.95,189.81L467.31,182.31L467.67,187.7L468.03,187L468.39,183.28L468.75,186.18L469.1,185.69L469.47,181.61L469.83,182.61L470.19,186.54L470.9,187.68L471.26,186.58L471.62,181.49L471.98,187.81L472.7,185.81L473.06,187.22L473.78,187L474.14,190.98L474.5,190.65L474.86,194.82L475.22,189.57L475.57,183.36L475.93,189.2L476.29,186.45L477.37,187.85L477.73,183.53L478.81,187.65L479.17,184.59L479.88,184.25L480.24,185.71L481.32,187.29L481.68,197.68L482.04,197.68L482.4,195.53L482.76,195.52L483.12,190.33L483.48,190.33L483.83,186.49L485.27,194.95L485.63,194.95L485.99,195.4L486.35,193.58L486.71,193.58L487.07,187.5L487.79,187.5L488.15,190.84L489.22,186.75L489.58,187.03L489.94,187.03L490.3,188.23L493.17,181.13L493.53,187.27L493.89,190.9L494.25,187.7L494.61,181.79L494.97,180.91L495.33,182.93L495.69,184.81L496.05,179.55L496.76,190.44L497.13,182.8L497.49,183.07L497.84,174.64L498.92,185.09L499.28,181.21L499.64,181.99L500,185.79L500.36,171.39L500.72,177.83L501.08,175.21L501.43,180.5L501.8,179.53L502.15,177.22L503.59,187.84L503.95,182.58L504.31,175.16L504.67,180.33L505.03,178.23L505.75,176.4L506.11,185.95L506.46,175.93L506.82,196.82L507.9,173.22L508.26,177.47L508.62,180.21L508.98,180.03L509.34,179.15L510.06,179.35L510.42,181.21L511.85,176.9L512.21,176.97L512.93,169.69L513.29,173.52L513.65,176.28L514.01,172.21L514.37,173.97L514.73,171L515.45,180.19L515.8,175.33L516.16,171.32L516.52,174.66L516.88,174.4L517.24,183.64L517.6,176L517.96,180.08L518.32,179.71L518.68,181.54L519.4,173.38L519.76,176.61L520.12,186.68L520.48,171.47L520.83,173.34L521.19,176.71L521.55,180.06L521.92,191.51L522.63,169.64L522.99,179.24L523.35,185.08L523.71,178.84L524.07,180.35L524.79,173.52L525.37,177.41L525.86,175.84L526.22,172.35L526.94,178.87L527.3,178.77L527.66,176.54L528.74,180.35L529.1,181.62L529.46,181.6L529.82,184.49L530.17,177.62L530.54,178.94L530.89,178.93L531.25,178.92L531.61,174.71L532.33,182.31L532.69,181.81L533.05,181.81L533.41,181.29L533.77,185.14L534.49,181.68L534.85,185.76L535.56,177.83L535.92,178.11L536.28,178.11L537,178.1" style="vector-effect: non-scaling-stroke; fill: none; stroke: rgb(99, 110, 250); stroke-opacity: 1; stroke-width: 2px; opacity: 1;"/></g><g class="points"/><g class="text"/></g></g></g><g class="overplot"/><path class="xlines-above crisp" d="M0,0" style="fill: none;"/><path class="ylines-above crisp" d="M0,0" style="fill: none;"/><g class="overlines-above"/><g class="xaxislayer-above"><g class="xtick"><text text-anchor="middle" x="0" y="433" transform="translate(89.61,0)" style="font-family: 'Open Sans', verdana, arial, sans-serif; font-size: 12px; fill: rgb(42, 63, 95); fill-opacity: 1; white-space: pre;"><tspan class="line" dy="0em" x="0" y="433">Jun 4</tspan><tspan class="line" dy="1.3em" x="0" y="433">2021</tspan></text></g><g class="xtick"><text text-anchor="middle" x="0" y="433" transform="translate(193.06,0)" style="font-family: 'Open Sans', verdana, arial, sans-serif; font-size: 12px; fill: rgb(42, 63, 95); fill-opacity: 1; white-space: pre;">Jun 6</text></g><g class="xtick"><text text-anchor="middle" x="0" y="433" transform="translate(296.52,0)" style="font-family: 'Open Sans', verdana, arial, sans-serif; font-size: 12px; fill: rgb(42, 63, 95); fill-opacity: 1; white-space: pre;">Jun 8</text></g><g class="xtick"><text text-anchor="middle" x="0" y="433" transform="translate(399.98,0)" style="font-family: 'Open Sans', verdana, arial, sans-serif; font-size: 12px; fill: rgb(42, 63, 95); fill-opacity: 1; white-space: pre;">Jun 10</text></g><g class="xtick"><text text-anchor="middle" x="0" y="433" transform="translate(503.44,0)" style="font-family: 'Open Sans', verdana, arial, sans-serif; font-size: 12px; fill: rgb(42, 63, 95); fill-opacity: 1; white-space: pre;">Jun 12</text></g><g class="xtick"><text text-anchor="middle" x="0" y="433" transform="translate(606.89,0)" style="font-family: 'Open Sans', verdana, arial, sans-serif; font-size: 12px; fill: rgb(42, 63, 95); fill-opacity: 1; white-space: pre;">Jun 14</text></g></g><g class="yaxislayer-above"><g class="ytick"><text text-anchor="end" x="79" y="4.199999999999999" transform="translate(0,367.23)" style="font-family: 'Open Sans', verdana, arial, sans-serif; font-size: 12px; fill: rgb(42, 63, 95); fill-opacity: 1; white-space: pre;">0.8</text></g><g class="ytick"><text text-anchor="end" x="79" y="4.199999999999999" transform="translate(0,308.43)" style="font-family: 'Open Sans', verdana, arial, sans-serif; font-size: 12px; fill: rgb(42, 63, 95); fill-opacity: 1; white-space: pre;">0.82</text></g><g class="ytick"><text text-anchor="end" x="79" y="4.199999999999999" transform="translate(0,249.63)" style="font-family: 'Open Sans', verdana, arial, sans-serif; font-size: 12px; fill: rgb(42, 63, 95); fill-opacity: 1; white-space: pre;">0.84</text></g><g class="ytick"><text text-anchor="end" x="79" y="4.199999999999999" transform="translate(0,190.82999999999998)" style="font-family: 'Open Sans', verdana, arial, sans-serif; font-size: 12px; fill: rgb(42, 63, 95); fill-opacity: 1; white-space: pre;">0.86</text></g><g class="ytick"><text text-anchor="end" x="79" y="4.199999999999999" transform="translate(0,132.03)" style="font-family: 'Open Sans', verdana, arial, sans-serif; font-size: 12px; fill: rgb(42, 63, 95); fill-opacity: 1; white-space: pre;">0.88</text></g></g><g class="overaxes-above"/></g></g><g class="polarlayer"/><g class="ternarylayer"/><g class="geolayer"/><g class="funnelarealayer"/><g class="pielayer"/><g class="treemaplayer"/><g class="sunburstlayer"/><g class="glimages"/><defs id="topdefs-16080b"><g class="clips"/><clipPath id="legend16080b"><rect width="60" height="45" x="0" y="0"/></clipPath></defs><g class="layer-above"><g class="imagelayer"/><g class="shapelayer"/></g><g class="infolayer"><g class="legend" pointer-events="all" transform="translate(627.74,100)"><rect class="bg" shape-rendering="crispEdges" width="60" height="45" x="0" y="0" style="stroke: rgb(68, 68, 68); stroke-opacity: 1; fill: rgb(255, 255, 255); fill-opacity: 1; stroke-width: 0px;"/><g class="scrollbox" transform="" clip-path="url('#legend16080b')"><text class="legendtitletext" text-anchor="start" x="2" y="15.600000000000001" style="font-family: 'Open Sans', verdana, arial, sans-serif; font-size: 12px; fill: rgb(42, 63, 95); fill-opacity: 1; white-space: pre;">All</text><g class="groups" transform=""><g class="traces" transform="translate(0,30.1)" style="opacity: 1;"><text class="legendtext" text-anchor="start" x="40" y="4.680000000000001" style="font-family: 'Open Sans', verdana, arial, sans-serif; font-size: 12px; fill: rgb(42, 63, 95); fill-opacity: 1; white-space: pre;">All</text><g class="layers" style="opacity: 1;"><g class="legendfill"/><g class="legendlines"><path class="js-line" d="M5,0h30" style="fill: none; stroke: rgb(99, 110, 250); stroke-opacity: 1; stroke-width: 2px;"/></g><g class="legendsymbols"><g class="legendpoints"/></g></g><rect class="legendtoggle" x="0" y="-9.5" width="54.890625" height="19" style="fill: rgb(0, 0, 0); fill-opacity: 0;"/></g></g></g><rect class="scrollbar" rx="20" ry="3" width="0" height="0" x="0" y="0" style="fill: rgb(128, 139, 164); fill-opacity: 1;"/></g><g class="g-gtitle"><text class="gtitle" x="35" y="50" text-anchor="start" dy="0em" style="font-family: 'Open Sans', verdana, arial, sans-serif; font-size: 17px; fill: rgb(42, 63, 95); opacity: 1; font-weight: normal; white-space: pre;">Singapore Vaccination Centers</text></g><g class="g-xtitle"><text class="xtitle" x="348.5" y="476.409375" text-anchor="middle" style="font-family: 'Open Sans', verdana, arial, sans-serif; font-size: 14px; fill: rgb(42, 63, 95); opacity: 1; font-weight: normal; white-space: pre;">Time</text></g><g class="g-ytitle"><text class="ytitle" transform="rotate(-90,27.481250000000003,260)" x="27.481250000000003" y="260" text-anchor="middle" style="font-family: 'Open Sans', verdana, arial, sans-serif; font-size: 14px; fill: rgb(42, 63, 95); opacity: 1; font-weight: normal; white-space: pre;">Filled/%</text></g></g></svg>