<svg class="main-svg" xmlns="http://www.w3.org/2000/svg" xmlns:xlink="http://www.w3.org/1999/xlink" width="700" height="500" style="" viewBox="0 0 700 500"><rect x="0" y="0" width="700" height="500" style="fill: rgb(255, 255, 255); fill-opacity: 1;"/><defs id="defs-22eca7"><g class="clips"><clipPath id="clip22eca7xyplot" class="plotclip"><rect width="537" height="320"/></clipPath><clipPath class="axesclip" id="clip22eca7x"><rect x="80" y="0" width="537" height="500"/></clipPath><clipPath class="axesclip" id="clip22eca7y"><rect x="0" y="100" width="700" height="320"/></clipPath><clipPath class="axesclip" id="clip22eca7xy"><rect x="80" y="100" width="537" height="320"/></clipPath></g><g class="gradients"/></defs><g class="bglayer"><rect class="bg" x="80" y="100" width="537" height="320" style="fill: rgb(229, 236, 246); fill-opacity: 1; stroke-width: 0;"/></g><g class="layer-below"><g class="imagelayer"/><g class="shapelayer"/></g><g class="cartesianlayer"><g class="subplot xy"><g class="layer-subplot"><g class="shapelayer"/><g class="imagelayer"/></g><g class="gridlayer"><g class="x"><path class="xgrid crisp" transform="translate(85.3,0)" d="M0,100v320" style="stroke: rgb(255, 255, 255); stroke-opacity: 1; stroke-width: 1px;"/><path class="xgrid crisp" transform="translate(187.35,0)" d="M0,100v320" style="stroke: rgb(255, 255, 255); stroke-opacity: 1; stroke-width: 1px;"/><path class="xgrid crisp" transform="translate(289.40999999999997,0)" d="M0,100v320" style="stroke: rgb(255, 255, 255); stroke-opacity: 1; stroke-width: 1px;"/><path class="xgrid crisp" transform="translate(391.46,0)" d="M0,100v320" style="stroke: rgb(255, 255, 255); stroke-opacity: 1; stroke-width: 1px;"/><path class="xgrid crisp" transform="translate(493.52,0)" d="M0,100v320" style="stroke: rgb(255, 255, 255); stroke-opacity: 1; stroke-width: 1px;"/><path class="xgrid crisp" transform="translate(595.57,0)" d="M0,100v320" style="stroke: rgb(255, 255, 255); stroke-opacity: 1; stroke-width: 1px;"/></g><g class="y"><path class="ygrid crisp" transform="translate(0,391.73)" d="M80,0h537" style="stroke: rgb(255, 255, 255); stroke-opacity: 1; stroke-width: 1px;"/><path class="ygrid crisp" transform="translate(0,345.89)" d="M80,0h537" style="stroke: rgb(255, 255, 255); stroke-opacity: 1; stroke-width: 1px;"/><path class="ygrid crisp" transform="translate(0,300.06)" d="M80,0h537" style="stroke: rgb(255, 255, 255); stroke-opacity: 1; stroke-width: 1px;"/><path class="ygrid crisp" transform="translate(0,254.22)" d="M80,0h537" style="stroke: rgb(255, 255, 255); stroke-opacity: 1; stroke-width: 1px;"/><path class="ygrid crisp" transform="translate(0,208.38)" d="M80,0h537" style="stroke: rgb(255, 255, 255); stroke-opacity: 1; stroke-width: 1px;"/><path class="ygrid crisp" transform="translate(0,162.55)" d="M80,0h537" style="stroke: rgb(255, 255, 255); stroke-opacity: 1; stroke-width: 1px;"/><path class="ygrid crisp" transform="translate(0,116.71000000000001)" d="M80,0h537" style="stroke: rgb(255, 255, 255); stroke-opacity: 1; stroke-width: 1px;"/></g></g><g class="zerolinelayer"/><path class="xlines-below"/><path class="ylines-below"/><g class="overlines-below"/><g class="xaxislayer-below"/><g class="yaxislayer-below"/><g class="overaxes-below"/><g class="plot" transform="translate(80,100)" clip-path="url('#clip22eca7xyplot')"><g class="scatterlayer mlayer"><g class="trace scatter trace6e360d" style="stroke-miterlimit: 2; opacity: 1;"><g class="fills"/><g class="errorbars"/><g class="lines"><path class="js-line" d="M0,304L4.08,302.49L5.51,245.87L6.92,247.25L8.34,245.45L14.01,244.76L15.42,244.34L18.26,245.17L19.68,244.2L21.13,244.9L22.51,244.62L28.18,243.65L29.6,243.93L32.44,243.09L33.86,243.09L36.68,243.09L38.1,243.09L42.36,242.82L43.78,242.68L48.02,242.54L49.44,242.68L53.7,241.99L55.11,241.57L57.95,241.71L59.37,241.02L62.2,240.88L63.61,240.18L65.04,240.74L66.45,240.32L67.86,239.35L69.29,239.63L70.71,240.32L72.12,238.66L76.37,237.69L77.79,238.24L79.21,237.83L80.63,238.8L82.04,237.83L83.46,235.61L86.29,236.16L87.71,235.19L93.38,233.12L94.8,232.15L97.63,233.53L99.05,232.28L100.46,230.07L101.88,230.62L103.3,231.73L104.72,230.07L107.55,227.57L108.97,227.16L111.81,225.35L113.23,225.91L116.06,224.66L117.48,224.94L118.89,226.6L120.31,224.25L124.57,225.35L125.99,224.94L128.82,220.92L130.24,220.5L131.65,221.33L133.07,219.95L134.49,220.09L135.9,221.89L137.32,221.61L138.74,219.95L144.41,215.24L145.82,212.33L147.25,213.02L148.66,211.49L150.08,210.39L151.5,211.22L154.33,211.49L155.75,212.6L161.43,210.25L162.83,210.11L165.67,209.42L167.09,208.31L168.51,207.89L169.93,208.45L171.35,209.69L172.75,209.69L175.59,207.34L177.01,207.06L181.26,206.23L182.68,205.67L184.1,204.84L185.52,205.26L192.61,204.98L194.02,205.26L196.85,203.73L198.28,202.07L199.69,200.82L201.11,200.82L202.53,199.99L203.94,200.96L208.19,201.1L209.61,130.71L213.87,128.47L215.29,128.75L218.12,128.2L219.54,127.22L222.37,127.36L223.79,127.36L229.46,126.66L230.87,126.52L235.12,125.96L236.54,126.1L249.29,126.1L250.72,126.24L260.64,125.96L262.06,125.26L266.3,125.26L267.72,124.14L273.39,124.28L274.81,123.72L277.64,123.86L279.06,123.16L281.9,122.46L283.31,123.16L287.57,119.95L288.98,119.95L290.4,121.07L291.81,120.65L294.66,119.25L296.07,119.95L300.32,117.71L301.74,115.9L303.16,117.71L304.57,116.87L308.82,114.5L310.25,115.48L313.08,113.8L314.49,115.06L315.91,116.18L317.33,115.2L318.75,116.32L320.17,115.76L321.58,114.78L323,115.9L324.42,115.2L325.83,115.62L328.67,116.73L330.09,116.32L332.94,115.06L334.37,113.8L335.78,112.26L337.2,111.98L340.03,112.68L341.45,113.24L342.87,111.14L344.28,110.86L348.54,110.17L349.96,108.35L354.21,109.47L355.62,108.91L358.46,105.13L359.88,106.81L361.3,106.81L362.71,105.55L364.13,106.53L365.54,105.97L368.38,104.02L369.8,104.16L374.05,100.8L375.47,100.94L378.31,98.43L379.72,99.26L382.55,97.03L383.98,97.59L388.22,96.89L389.64,94.09L391.06,93.95L392.47,92.84L393.9,91.3L395.31,91.58L396.73,91.86L398.15,93.12L399.57,93.81L400.98,93.12L402.41,95.21L403.82,94.37L405.23,94.23L406.65,92.56L408.07,92.14L409.49,92.7L412.32,92.98L413.74,43.91L416.57,41.93L417.99,41.65L420.82,40.95L422.24,39.96L426.49,39.4L427.91,39.12L433.58,37.71L435,36.72L437.84,36.44L439.25,37L443.51,35.73L444.93,35.87L461.93,34.46L463.34,34.75L469.02,33.76L470.44,34.04L471.85,33.48L473.27,33.76L474.69,34.18L476.1,33.62L477.52,33.76L478.94,33.05L481.78,33.48L483.18,32.63L491.69,31.93L494.52,31.36L495.94,29.95L498.77,29.53L501.61,29.11L503.03,27.28L504.45,28.54L505.87,27.28L508.7,27.28L510.11,26.57L511.54,26.43L512.95,25.16L517.2,24.88L518.62,23.19L520.04,21.64L521.45,21.36L524.25,19.1L525.65,19.81L528.49,18.26L529.91,18.68L531.33,16.85L532.74,16.56L534.16,16L535.58,16.42L537,16.14" style="vector-effect: non-scaling-stroke; fill: none; stroke: rgb(99, 110, 250); stroke-opacity: 1; stroke-width: 2px; opacity: 1;"/></g><g class="points"/><g class="text"/></g></g></g><g class="overplot"/><path class="xlines-above crisp" d="M0,0" style="fill: none;"/><path class="ylines-above crisp" d="M0,0" style="fill: none;"/><g class="overlines-above"/><g class="xaxislayer-above"><g class="xtick"><text text-anchor="middle" x="0" y="433" transform="translate(85.3,0)" style="font-family: 'Open Sans', verdana, arial, sans-serif; font-size: 12px; fill: rgb(42, 63, 95); fill-opacity: 1; white-space: pre;"><tspan class="line" dy="0em" x="0" y="433">00:00</tspan><tspan class="line" dy="1.3em" x="0" y="433">Aug 3, 2021</tspan></text></g><g class="xtick"><text text-anchor="middle" x="0" y="433" transform="translate(187.35,0)" style="font-family: 'Open Sans', verdana, arial, sans-serif; font-size: 12px; fill: rgb(42, 63, 95); fill-opacity: 1; white-space: pre;">12:00</text></g><g class="xtick"><text text-anchor="middle" x="0" y="433" transform="translate(289.40999999999997,0)" style="font-family: 'Open Sans', verdana, arial, sans-serif; font-size: 12px; fill: rgb(42, 63, 95); fill-opacity: 1; white-space: pre;"><tspan class="line" dy="0em" x="0" y="433">00:00</tspan><tspan class="line" dy="1.3em" x="0" y="433">Aug 4, 2021</tspan></text></g><g class="xtick"><text text-anchor="middle" x="0" y="433" transform="translate(391.46,0)" style="font-family: 'Open Sans', verdana, arial, sans-serif; font-size: 12px; fill: rgb(42, 63, 95); fill-opacity: 1; white-space: pre;">12:00</text></g><g class="xtick"><text text-anchor="middle" x="0" y="433" transform="translate(493.52,0)" style="font-family: 'Open Sans', verdana, arial, sans-serif; font-size: 12px; fill: rgb(42, 63, 95); fill-opacity: 1; white-space: pre;"><tspan class="line" dy="0em" x="0" y="433">00:00</tspan><tspan class="line" dy="1.3em" x="0" y="433">Aug 5, 2021</tspan></text></g><g class="xtick"><text text-anchor="middle" x="0" y="433" transform="translate(595.57,0)" style="font-family: 'Open Sans', verdana, arial, sans-serif; font-size: 12px; fill: rgb(42, 63, 95); fill-opacity: 1; white-space: pre;">12:00</text></g></g><g class="yaxislayer-above"><g class="ytick"><text text-anchor="end" x="79" y="4.199999999999999" transform="translate(0,391.73)" style="font-family: 'Open Sans', verdana, arial, sans-serif; font-size: 12px; fill: rgb(42, 63, 95); fill-opacity: 1; white-space: pre;">0.864</text></g><g class="ytick"><text text-anchor="end" x="79" y="4.199999999999999" transform="translate(0,345.89)" style="font-family: 'Open Sans', verdana, arial, sans-serif; font-size: 12px; fill: rgb(42, 63, 95); fill-opacity: 1; white-space: pre;">0.865</text></g><g class="ytick"><text text-anchor="end" x="79" y="4.199999999999999" transform="translate(0,300.06)" style="font-family: 'Open Sans', verdana, arial, sans-serif; font-size: 12px; fill: rgb(42, 63, 95); fill-opacity: 1; white-space: pre;">0.866</text></g><g class="ytick"><text text-anchor="end" x="79" y="4.199999999999999" transform="translate(0,254.22)" style="font-family: 'Open Sans', verdana, arial, sans-serif; font-size: 12px; fill: rgb(42, 63, 95); fill-opacity: 1; white-space: pre;">0.867</text></g><g class="ytick"><text text-anchor="end" x="79" y="4.199999999999999" transform="translate(0,208.38)" style="font-family: 'Open Sans', verdana, arial, sans-serif; font-size: 12px; fill: rgb(42, 63, 95); fill-opacity: 1; white-space: pre;">0.868</text></g><g class="ytick"><text text-anchor="end" x="79" y="4.199999999999999" transform="translate(0,162.55)" style="font-family: 'Open Sans', verdana, arial, sans-serif; font-size: 12px; fill: rgb(42, 63, 95); fill-opacity: 1; white-space: pre;">0.869</text></g><g class="ytick"><text text-anchor="end" x="79" y="4.199999999999999" transform="translate(0,116.71000000000001)" style="font-family: 'Open Sans', verdana, arial, sans-serif; font-size: 12px; fill: rgb(42, 63, 95); fill-opacity: 1; white-space: pre;">0.87</text></g></g><g class="overaxes-above"/></g></g><g class="polarlayer"/><g class="ternarylayer"/><g class="geolayer"/><g class="funnelarealayer"/><g class="pielayer"/><g class="treemaplayer"/><g class="sunburstlayer"/><g class="glimages"/><defs id="topdefs-22eca7"><g class="clips"/><clipPath id="legend22eca7"><rect width="60" height="45" x="0" y="0"/></clipPath></defs><g class="layer-above"><g class="imagelayer"/><g class="shapelayer"/></g><g class="infolayer"><g class="legend" pointer-events="all" transform="translate(627.74,100)"><rect class="bg" shape-rendering="crispEdges" width="60" height="45" x="0" y="0" style="stroke: rgb(68, 68, 68); stroke-opacity: 1; fill: rgb(255, 255, 255); fill-opacity: 1; stroke-width: 0px;"/><g class="scrollbox" transform="" clip-path="url('#legend22eca7')"><text class="legendtitletext" text-anchor="start" x="2" y="15.600000000000001" style="font-family: 'Open Sans', verdana, arial, sans-serif; font-size: 12px; fill: rgb(42, 63, 95); fill-opacity: 1; white-space: pre;">All</text><g class="groups" transform=""><g class="traces" transform="translate(0,30.1)" style="opacity: 1;"><text class="legendtext" text-anchor="start" x="40" y="4.680000000000001" style="font-family: 'Open Sans', verdana, arial, sans-serif; font-size: 12px; fill: rgb(42, 63, 95); fill-opacity: 1; white-space: pre;">All</text><g class="layers" style="opacity: 1;"><g class="legendfill"/><g class="legendlines"><path class="js-line" d="M5,0h30" style="fill: none; stroke: rgb(99, 110, 250); stroke-opacity: 1; stroke-width: 2px;"/></g><g class="legendsymbols"><g class="legendpoints"/></g></g><rect class="legendtoggle" x="0" y="-9.5" width="54.890625" height="19" style="fill: rgb(0, 0, 0); fill-opacity: 0;"/></g></g></g><rect class="scrollbar" rx="20" ry="3" width="0" height="0" x="0" y="0" style="fill: rgb(128, 139, 164); fill-opacity: 1;"/></g><g class="g-gtitle"><text class="gtitle" x="35" y="50" text-anchor="start" dy="0em" style="font-family: 'Open Sans', verdana, arial, sans-serif; font-size: 17px; fill: rgb(42, 63, 95); opacity: 1; font-weight: normal; white-space: pre;">Singapore Vaccination Centers</text></g><g class="g-xtitle"><text class="xtitle" x="348.5" y="476.409375" text-anchor="middle" style="font-family: 'Open Sans', verdana, arial, sans-serif; font-size: 14px; fill: rgb(42, 63, 95); opacity: 1; font-weight: normal; white-space: pre;">Time</text></g><g class="g-ytitle"><text class="ytitle" transform="rotate(-90,19.840625000000003,260)" x="19.840625000000003" y="260" text-anchor="middle" style="font-family: 'Open Sans', verdana, arial, sans-serif; font-size: 14px; fill: rgb(42, 63, 95); opacity: 1; font-weight: normal; white-space: pre;">Filled/%</text></g></g></svg>