<svg class="main-svg" xmlns="http://www.w3.org/2000/svg" xmlns:xlink="http://www.w3.org/1999/xlink" width="700" height="500" style="" viewBox="0 0 700 500"><rect x="0" y="0" width="700" height="500" style="fill: rgb(255, 255, 255); fill-opacity: 1;"/><defs id="defs-8b84dc"><g class="clips"><clipPath id="clip8b84dcxyplot" class="plotclip"><rect width="500" height="320"/></clipPath><clipPath class="axesclip" id="clip8b84dcx"><rect x="80" y="0" width="500" height="500"/></clipPath><clipPath class="axesclip" id="clip8b84dcy"><rect x="0" y="100" width="700" height="320"/></clipPath><clipPath class="axesclip" id="clip8b84dcxy"><rect x="80" y="100" width="500" height="320"/></clipPath></g><g class="gradients"/></defs><g class="bglayer"><rect class="bg" x="80" y="100" width="500" height="320" style="fill: rgb(229, 236, 246); fill-opacity: 1; stroke-width: 0;"/></g><g class="layer-below"><g class="imagelayer"/><g class="shapelayer"/></g><g class="cartesianlayer"><g class="subplot xy"><g class="layer-subplot"><g class="shapelayer"/><g class="imagelayer"/></g><g class="gridlayer"><g class="x"><path class="xgrid crisp" transform="translate(92.83,0)" d="M0,100v320" style="stroke: rgb(255, 255, 255); stroke-opacity: 1; stroke-width: 1px;"/><path class="xgrid crisp" transform="translate(161.94,0)" d="M0,100v320" style="stroke: rgb(255, 255, 255); stroke-opacity: 1; stroke-width: 1px;"/><path class="xgrid crisp" transform="translate(231.05,0)" d="M0,100v320" style="stroke: rgb(255, 255, 255); stroke-opacity: 1; stroke-width: 1px;"/><path class="xgrid crisp" transform="translate(300.15,0)" d="M0,100v320" style="stroke: rgb(255, 255, 255); stroke-opacity: 1; stroke-width: 1px;"/><path class="xgrid crisp" transform="translate(369.26,0)" d="M0,100v320" style="stroke: rgb(255, 255, 255); stroke-opacity: 1; stroke-width: 1px;"/><path class="xgrid crisp" transform="translate(438.37,0)" d="M0,100v320" style="stroke: rgb(255, 255, 255); stroke-opacity: 1; stroke-width: 1px;"/><path class="xgrid crisp" transform="translate(507.47,0)" d="M0,100v320" style="stroke: rgb(255, 255, 255); stroke-opacity: 1; stroke-width: 1px;"/><path class="xgrid crisp" transform="translate(576.5799999999999,0)" d="M0,100v320" style="stroke: rgb(255, 255, 255); stroke-opacity: 1; stroke-width: 1px;"/></g><g class="y"><path class="ygrid crisp" transform="translate(0,360.04)" d="M80,0h500" style="stroke: rgb(255, 255, 255); stroke-opacity: 1; stroke-width: 1px;"/><path class="ygrid crisp" transform="translate(0,300.8)" d="M80,0h500" style="stroke: rgb(255, 255, 255); stroke-opacity: 1; stroke-width: 1px;"/><path class="ygrid crisp" transform="translate(0,241.55)" d="M80,0h500" style="stroke: rgb(255, 255, 255); stroke-opacity: 1; stroke-width: 1px;"/><path class="ygrid crisp" transform="translate(0,182.31)" d="M80,0h500" style="stroke: rgb(255, 255, 255); stroke-opacity: 1; stroke-width: 1px;"/><path class="ygrid crisp" transform="translate(0,123.06)" d="M80,0h500" style="stroke: rgb(255, 255, 255); stroke-opacity: 1; stroke-width: 1px;"/></g></g><g class="zerolinelayer"/><path class="xlines-below"/><path class="ylines-below"/><g class="overlines-below"/><g class="xaxislayer-below"/><g class="yaxislayer-below"/><g class="overaxes-below"/><g class="plot" transform="translate(80,100)" clip-path="url('#clip8b84dcxyplot')"><g class="scatterlayer mlayer"><g class="trace scatter trace2b7977" style="stroke-miterlimit: 2; opacity: 1;"><g class="fills"/><g class="errorbars"/><g class="lines"><path class="js-line" d="M0,75.82L8.11,75.92L10.98,98.96L16.71,99L18.83,74.01L41.08,73.51L41.46,71.77L42.24,67.9L42.65,71.01L43.61,70.95L45.53,69.68L46.49,69.61L48.41,70.86L49.37,70.79L51.28,71.85L52.24,71.78L54.16,67.27L55.13,67.22L57.04,71.63L58,71.57L59.92,67.73L60.88,65.56L62.8,58.17L63.76,55.78L65.68,47.41L66.64,46.33L68.56,39L69.52,38.18L71.44,38.67L72.4,37.99L74.32,32.94L75.28,32.4L77.2,32.33L78.16,31.92L80.08,34.02L81.04,33.74L82.3,27.6L84.88,27.51L85.84,27.45L112.71,26.07L113.67,25.88L130.95,22.81L131.91,22.67L150.15,20.65L151.11,21.1L197.17,19.46L198.13,19.4L226.93,18.49L227.89,18.49L260.52,17.51L261.48,17.45L290.28,16.39L291.24,16.38L321.95,16.02L322.92,58.81L335.39,57.48L336.35,56.59L341.15,53.21L342.11,50.83L344.03,48.52L344.99,47.9L349.79,45.67L350.75,45.34L357.47,43.83L358.43,44.38L368.99,43.99L369.95,43.99L391.06,43.09L392.02,42.94L396.82,41.88L397.78,43.31L402.58,41.96L403.54,41.38L408.34,38.84L409.3,38.5L414.1,35.68L415.05,34.83L418.89,32.59L419.86,32.18L426.57,30.31L427.53,30.7L437.13,30.25L438.09,30.25L456.32,29.44L457.29,29.31L459.21,29.08L460.17,38.34L463.05,37.18L464.01,36.95L473.61,35.06L474.34,32.98L474.57,34.83L475.48,31.89L475.53,32.14L476.44,31.72L476.49,31.97L477.44,31.8L479.37,31.52L480.33,33.54L488.77,31.61L488.81,31.53L488.96,32.11L498.08,18.72L499.04,18.27L499.52,17.64L500,17.52" style="vector-effect: non-scaling-stroke; fill: none; stroke: rgb(99, 110, 250); stroke-opacity: 1; stroke-width: 2px; opacity: 1;"/></g><g class="points"/><g class="text"/></g><g class="trace scatter trace3fbf4d" style="stroke-miterlimit: 2; opacity: 1;"><g class="fills"/><g class="errorbars"/><g class="lines"><path class="js-line" d="M0,216.28L16.71,216.39L18.83,274.09L46.49,274.04L48.41,273.99L69.52,273.7L71.44,273.69L81.04,273.6L82.3,274.71L153.02,274.38L153.98,274.38L206.77,274.18L207.73,274.17L219.25,274.07L220.21,271.6L288.36,271.12L289.32,267.34L321.95,267.18L322.92,275.04L338.27,274.16L339.23,274.06L341.15,273.08L342.11,271.75L344.99,270.26L345.95,269.98L353.63,268.8L354.59,268.7L357.47,268.47L358.43,267.37L376.66,267.15L377.62,267.15L396.82,266.22L397.78,266.17L402.58,265.42L403.54,264.96L407.38,263.73L408.34,263.51L413.14,261.59L414.1,260.48L417.94,257.58L418.89,257.15L425.65,255.12L426.57,254.98L428.49,254.21L429.45,254.15L447.69,253.76L448.65,253.72L459.21,252.53L460.17,295.55L473.61,294.74L474.34,304L474.57,294.69L475.48,303.94L488.96,303.28L498.08,287.16L498.56,286.99L499.04,281.43L499.52,286.51L500,286.29" style="vector-effect: non-scaling-stroke; fill: none; stroke: rgb(239, 85, 59); stroke-opacity: 1; stroke-width: 2px; opacity: 1;"/></g><g class="points"/><g class="text"/></g></g></g><g class="overplot"/><path class="xlines-above crisp" d="M0,0" style="fill: none;"/><path class="ylines-above crisp" d="M0,0" style="fill: none;"/><g class="overlines-above"/><g class="xaxislayer-above"><g class="xtick"><text text-anchor="middle" x="0" y="433" transform="translate(92.83,0)" style="font-family: 'Open Sans', verdana, arial, sans-serif; font-size: 12px; fill: rgb(42, 63, 95); fill-opacity: 1; white-space: pre;"><tspan class="line" dy="0em" x="0" y="433">Jun 4</tspan><tspan class="line" dy="1.3em" x="0" y="433">2021</tspan></text></g><g class="xtick"><text text-anchor="middle" x="0" y="433" transform="translate(161.94,0)" style="font-family: 'Open Sans', verdana, arial, sans-serif; font-size: 12px; fill: rgb(42, 63, 95); fill-opacity: 1; white-space: pre;">Jun 5</text></g><g class="xtick"><text text-anchor="middle" x="0" y="433" transform="translate(231.05,0)" style="font-family: 'Open Sans', verdana, arial, sans-serif; font-size: 12px; fill: rgb(42, 63, 95); fill-opacity: 1; white-space: pre;">Jun 6</text></g><g class="xtick"><text text-anchor="middle" x="0" y="433" transform="translate(300.15,0)" style="font-family: 'Open Sans', verdana, arial, sans-serif; font-size: 12px; fill: rgb(42, 63, 95); fill-opacity: 1; white-space: pre;">Jun 7</text></g><g class="xtick"><text text-anchor="middle" x="0" y="433" transform="translate(369.26,0)" style="font-family: 'Open Sans', verdana, arial, sans-serif; font-size: 12px; fill: rgb(42, 63, 95); fill-opacity: 1; white-space: pre;">Jun 8</text></g><g class="xtick"><text text-anchor="middle" x="0" y="433" transform="translate(438.37,0)" style="font-family: 'Open Sans', verdana, arial, sans-serif; font-size: 12px; fill: rgb(42, 63, 95); fill-opacity: 1; white-space: pre;">Jun 9</text></g><g class="xtick"><text text-anchor="middle" x="0" y="433" transform="translate(507.47,0)" style="font-family: 'Open Sans', verdana, arial, sans-serif; font-size: 12px; fill: rgb(42, 63, 95); fill-opacity: 1; white-space: pre;">Jun 10</text></g><g class="xtick"><text text-anchor="middle" x="0" y="433" transform="translate(576.5799999999999,0)" style="font-family: 'Open Sans', verdana, arial, sans-serif; font-size: 12px; fill: rgb(42, 63, 95); fill-opacity: 1; white-space: pre;">Jun 11</text></g></g><g class="yaxislayer-above"><g class="ytick"><text text-anchor="end" x="79" y="4.199999999999999" transform="translate(0,419.29)" style="font-family: 'Open Sans', verdana, arial, sans-serif; font-size: 12px; fill: rgb(42, 63, 95); fill-opacity: 1; white-space: pre;">0.7</text></g><g class="ytick"><text text-anchor="end" x="79" y="4.199999999999999" transform="translate(0,360.04)" style="font-family: 'Open Sans', verdana, arial, sans-serif; font-size: 12px; fill: rgb(42, 63, 95); fill-opacity: 1; white-space: pre;">0.75</text></g><g class="ytick"><text text-anchor="end" x="79" y="4.199999999999999" transform="translate(0,300.8)" style="font-family: 'Open Sans', verdana, arial, sans-serif; font-size: 12px; fill: rgb(42, 63, 95); fill-opacity: 1; white-space: pre;">0.8</text></g><g class="ytick"><text text-anchor="end" x="79" y="4.199999999999999" transform="translate(0,241.55)" style="font-family: 'Open Sans', verdana, arial, sans-serif; font-size: 12px; fill: rgb(42, 63, 95); fill-opacity: 1; white-space: pre;">0.85</text></g><g class="ytick"><text text-anchor="end" x="79" y="4.199999999999999" transform="translate(0,182.31)" style="font-family: 'Open Sans', verdana, arial, sans-serif; font-size: 12px; fill: rgb(42, 63, 95); fill-opacity: 1; white-space: pre;">0.9</text></g><g class="ytick"><text text-anchor="end" x="79" y="4.199999999999999" transform="translate(0,123.06)" style="font-family: 'Open Sans', verdana, arial, sans-serif; font-size: 12px; fill: rgb(42, 63, 95); fill-opacity: 1; white-space: pre;">0.95</text></g></g><g class="overaxes-above"/></g></g><g class="polarlayer"/><g class="ternarylayer"/><g class="geolayer"/><g class="funnelarealayer"/><g class="pielayer"/><g class="treemaplayer"/><g class="sunburstlayer"/><g class="glimages"/><defs id="topdefs-8b84dc"><g class="clips"/><clipPath id="legend8b84dc"><rect width="98" height="64" x="0" y="0"/></clipPath></defs><g class="layer-above"><g class="imagelayer"/><g class="shapelayer"/></g><g class="infolayer"><g class="legend" pointer-events="all" transform="translate(590,100)"><rect class="bg" shape-rendering="crispEdges" width="98" height="64" x="0" y="0" style="stroke: rgb(68, 68, 68); stroke-opacity: 1; fill: rgb(255, 255, 255); fill-opacity: 1; stroke-width: 0px;"/><g class="scrollbox" transform="" clip-path="url('#legend8b84dc')"><text class="legendtitletext" text-anchor="start" x="2" y="15.600000000000001" style="font-family: 'Open Sans', verdana, arial, sans-serif; font-size: 12px; fill: rgb(42, 63, 95); fill-opacity: 1; white-space: pre;">Types</text><g class="groups" transform=""><g class="traces" transform="translate(0,30.1)" style="opacity: 1;"><text class="legendtext" text-anchor="start" x="40" y="4.680000000000001" style="font-family: 'Open Sans', verdana, arial, sans-serif; font-size: 12px; fill: rgb(42, 63, 95); fill-opacity: 1; white-space: pre;">Pfizer</text><g class="layers" style="opacity: 1;"><g class="legendfill"/><g class="legendlines"><path class="js-line" d="M5,0h30" style="fill: none; stroke: rgb(99, 110, 250); stroke-opacity: 1; stroke-width: 2px;"/></g><g class="legendsymbols"><g class="legendpoints"/></g></g><rect class="legendtoggle" x="0" y="-9.5" width="92.390625" height="19" style="fill: rgb(0, 0, 0); fill-opacity: 0;"/></g></g><g class="groups" transform=""><g class="traces" transform="translate(0,49.1)" style="opacity: 1;"><text class="legendtext" text-anchor="start" x="40" y="4.680000000000001" style="font-family: 'Open Sans', verdana, arial, sans-serif; font-size: 12px; fill: rgb(42, 63, 95); fill-opacity: 1; white-space: pre;">Moderna</text><g class="layers" style="opacity: 1;"><g class="legendfill"/><g class="legendlines"><path class="js-line" d="M5,0h30" style="fill: none; stroke: rgb(239, 85, 59); stroke-opacity: 1; stroke-width: 2px;"/></g><g class="legendsymbols"><g class="legendpoints"/></g></g><rect class="legendtoggle" x="0" y="-9.5" width="92.390625" height="19" style="fill: rgb(0, 0, 0); fill-opacity: 0;"/></g></g></g><rect class="scrollbar" rx="20" ry="3" width="0" height="0" x="0" y="0" style="fill: rgb(128, 139, 164); fill-opacity: 1;"/></g><g class="g-gtitle"><text class="gtitle" x="35" y="50" text-anchor="start" dy="0em" style="font-family: 'Open Sans', verdana, arial, sans-serif; font-size: 17px; fill: rgb(42, 63, 95); opacity: 1; font-weight: normal; white-space: pre;">Singapore Vaccination Centers</text></g><g class="g-xtitle"><text class="xtitle" x="330" y="476.409375" text-anchor="middle" style="font-family: 'Open Sans', verdana, arial, sans-serif; font-size: 14px; fill: rgb(42, 63, 95); opacity: 1; font-weight: normal; white-space: pre;">Time</text></g><g class="g-ytitle"><text class="ytitle" transform="rotate(-90,27.481250000000003,260)" x="27.481250000000003" y="260" text-anchor="middle" style="font-family: 'Open Sans', verdana, arial, sans-serif; font-size: 14px; fill: rgb(42, 63, 95); opacity: 1; font-weight: normal; white-space: pre;">Filled/%</text></g></g></svg>